<svg xmlns="http://www.w3.org/2000/svg" xmlns:xlink="http://www.w3.org/1999/xlink" width="1024" height="400">\n<path  d="M 0 0
L 1024 0
L 1024 400
L 0 400
L 0 0" style="stroke-width:0;stroke:rgba(255,255,255,1.0);fill:rgba(255,255,255,1.0)"/><path  d="M 38 11
L 957 11
L 957 351
L 38 351
L 38 11" style="stroke-width:0;stroke:rgba(255,255,255,1.0);fill:rgba(255,255,255,1.0)"/><path  d="M 38 351
L 957 351" style="stroke-width:2;stroke:rgba(85,85,85,1.0);fill:none"/><path  d="M 38 351
L 38 356" style="stroke-width:2;stroke:rgba(85,85,85,1.0);fill:none"/><text x="5" y="373" style="stroke-width:0;stroke:none;fill:rgba(51,51,51,1.0);font-size:12.8px;font-family:'Roboto Medium',sans-serif">2018-11-23</text><path  d="M 153 351
L 153 356" style="stroke-width:2;stroke:rgba(85,85,85,1.0);fill:none"/><text x="120" y="373" style="stroke-width:0;stroke:none;fill:rgba(51,51,51,1.0);font-size:12.8px;font-family:'Roboto Medium',sans-serif">2018-11-30</text><path  d="M 268 351
L 268 356" style="stroke-width:2;stroke:rgba(85,85,85,1.0);fill:none"/><text x="235" y="373" style="stroke-width:0;stroke:none;fill:rgba(51,51,51,1.0);font-size:12.8px;font-family:'Roboto Medium',sans-serif">2018-12-07</text><path  d="M 383 351
L 383 356" style="stroke-width:2;stroke:rgba(85,85,85,1.0);fill:none"/><text x="350" y="373" style="stroke-width:0;stroke:none;fill:rgba(51,51,51,1.0);font-size:12.8px;font-family:'Roboto Medium',sans-serif">2018-12-14</text><path  d="M 498 351
L 498 356" style="stroke-width:2;stroke:rgba(85,85,85,1.0);fill:none"/><text x="465" y="373" style="stroke-width:0;stroke:none;fill:rgba(51,51,51,1.0);font-size:12.8px;font-family:'Roboto Medium',sans-serif">2018-12-21</text><path  d="M 613 351
L 613 356" style="stroke-width:2;stroke:rgba(85,85,85,1.0);fill:none"/><text x="580" y="373" style="stroke-width:0;stroke:none;fill:rgba(51,51,51,1.0);font-size:12.8px;font-family:'Roboto Medium',sans-serif">2018-12-29</text><path  d="M 728 351
L 728 356" style="stroke-width:2;stroke:rgba(85,85,85,1.0);fill:none"/><text x="695" y="373" style="stroke-width:0;stroke:none;fill:rgba(51,51,51,1.0);font-size:12.8px;font-family:'Roboto Medium',sans-serif">2019-01-05</text><path  d="M 843 351
L 843 356" style="stroke-width:2;stroke:rgba(85,85,85,1.0);fill:none"/><text x="810" y="373" style="stroke-width:0;stroke:none;fill:rgba(51,51,51,1.0);font-size:12.8px;font-family:'Roboto Medium',sans-serif">2019-01-12</text><path  d="M 957 351
L 957 356" style="stroke-width:2;stroke:rgba(85,85,85,1.0);fill:none"/><text x="924" y="373" style="stroke-width:0;stroke:none;fill:rgba(51,51,51,1.0);font-size:12.8px;font-family:'Roboto Medium',sans-serif">2019-01-19</text><text x="483" y="395" style="stroke-width:0;stroke:none;fill:rgba(51,51,51,1.0);font-size:12.8px;font-family:'Roboto Medium',sans-serif">Time</text><path  d="M 959 351
L 959 11" style="stroke-width:2;stroke:rgba(85,85,85,1.0);fill:none"/><path  d="M 959 351
L 964 351" style="stroke-width:2;stroke:rgba(85,85,85,1.0);fill:none"/><text x="969" y="357" style="stroke-width:0;stroke:none;fill:rgba(51,51,51,1.0);font-size:12.8px;font-family:'Roboto Medium',sans-serif">0</text><path  d="M 959 308
L 964 308" style="stroke-width:2;stroke:rgba(85,85,85,1.0);fill:none"/><text x="969" y="314" style="stroke-width:0;stroke:none;fill:rgba(51,51,51,1.0);font-size:12.8px;font-family:'Roboto Medium',sans-serif">740</text><path  d="M 959 265
L 964 265" style="stroke-width:2;stroke:rgba(85,85,85,1.0);fill:none"/><text x="969" y="271" style="stroke-width:0;stroke:none;fill:rgba(51,51,51,1.0);font-size:12.8px;font-family:'Roboto Medium',sans-serif">1480</text><path  d="M 959 223
L 964 223" style="stroke-width:2;stroke:rgba(85,85,85,1.0);fill:none"/><text x="969" y="229" style="stroke-width:0;stroke:none;fill:rgba(51,51,51,1.0);font-size:12.8px;font-family:'Roboto Medium',sans-serif">2220</text><path  d="M 959 181
L 964 181" style="stroke-width:2;stroke:rgba(85,85,85,1.0);fill:none"/><text x="969" y="187" style="stroke-width:0;stroke:none;fill:rgba(51,51,51,1.0);font-size:12.8px;font-family:'Roboto Medium',sans-serif">2950</text><path  d="M 959 138
L 964 138" style="stroke-width:2;stroke:rgba(85,85,85,1.0);fill:none"/><text x="969" y="144" style="stroke-width:0;stroke:none;fill:rgba(51,51,51,1.0);font-size:12.8px;font-family:'Roboto Medium',sans-serif">3690</text><path  d="M 959 95
L 964 95" style="stroke-width:2;stroke:rgba(85,85,85,1.0);fill:none"/><text x="969" y="101" style="stroke-width:0;stroke:none;fill:rgba(51,51,51,1.0);font-size:12.8px;font-family:'Roboto Medium',sans-serif">4430</text><path  d="M 959 53
L 964 53" style="stroke-width:2;stroke:rgba(85,85,85,1.0);fill:none"/><text x="969" y="59" style="stroke-width:0;stroke:none;fill:rgba(51,51,51,1.0);font-size:12.8px;font-family:'Roboto Medium',sans-serif">5170</text><path  d="M 959 11
L 964 11" style="stroke-width:2;stroke:rgba(85,85,85,1.0);fill:none"/><text x="969" y="17" style="stroke-width:0;stroke:none;fill:rgba(51,51,51,1.0);font-size:12.8px;font-family:'Roboto Medium',sans-serif">5900</text><text x="1009" y="150" style="stroke-width:0;stroke:none;fill:rgba(51,51,51,1.0);font-size:12.8px;font-family:'Roboto Medium',sans-serif" transform="rotate(90.00,1009,150)">Stargazers</text><path  d="M 38 351
L 122 350
L 181 350
L 184 350
L 197 350
L 197 350
L 197 350
L 198 350
L 198 350
L 198 350
L 199 350
L 199 350
L 199 350
L 199 350
L 199 350
L 199 350
L 200 350
L 200 350
L 200 349
L 200 349
L 200 349
L 201 349
L 203 349
L 204 349
L 213 349
L 213 349
L 213 349
L 213 349
L 214 349
L 216 349
L 218 349
L 219 349
L 220 349
L 220 349
L 220 349
L 221 348
L 221 348
L 221 348
L 225 348
L 227 348
L 228 348
L 228 348
L 228 348
L 229 348
L 229 348
L 229 348
L 229 348
L 230 348
L 230 348
L 230 348
L 232 348
L 233 348
L 233 348
L 233 347
L 233 347
L 233 347
L 234 347
L 234 347
L 234 347
L 235 347
L 235 347
L 235 347
L 235 347
L 236 347
L 236 347
L 236 347
L 236 347
L 237 347
L 238 347
L 238 347
L 238 346
L 238 346
L 243 346
L 245 346
L 245 346
L 245 346
L 245 346
L 245 346
L 245 346
L 246 346
L 246 346
L 247 346
L 247 346
L 247 346
L 247 346
L 247 346
L 247 346
L 247 345
L 247 345
L 247 345
L 247 345
L 247 345
L 247 345
L 247 345
L 247 345
L 247 345
L 247 345
L 247 345
L 247 345
L 247 345
L 247 345
L 247 345
L 247 345
L 247 345
L 247 345
L 247 344
L 247 344
L 247 344
L 247 344
L 247 344
L 247 344
L 248 344
L 248 344
L 248 344
L 248 344
L 248 344
L 248 344
L 248 344
L 248 344
L 248 344
L 248 344
L 248 344
L 248 343
L 248 343
L 248 343
L 248 343
L 248 343
L 248 343
L 248 343
L 248 343
L 249 343
L 249 343
L 249 343
L 249 343
L 249 343
L 249 343
L 249 343
L 249 343
L 250 343
L 250 342
L 250 342
L 250 342
L 250 342
L 250 342
L 250 342
L 250 342
L 250 342
L 251 342
L 251 342
L 251 342
L 251 342
L 251 342
L 251 342
L 251 342
L 251 342
L 252 342
L 252 342
L 252 341
L 252 341
L 254 341
L 255 341
L 260 341
L 260 341
L 260 341
L 260 341
L 260 341
L 260 341
L 261 341
L 261 341
L 262 341
L 263 341
L 263 341
L 263 341
L 263 341
L 264 340
L 264 340
L 264 340
L 264 340
L 265 340
L 265 340
L 266 340
L 266 340
L 266 340
L 266 340
L 266 340
L 266 340
L 267 340
L 276 340
L 277 340
L 277 340
L 277 340
L 277 339
L 277 339
L 279 339
L 281 339
L 281 339
L 286 339
L 286 339
L 287 339
L 289 339
L 293 339
L 294 339
L 296 339
L 297 339
L 297 339
L 298 339
L 298 339
L 299 339
L 299 339
L 299 338
L 299 338
L 300 338
L 300 338
L 300 338
L 303 338
L 308 338
L 308 338
L 308 338
L 309 338
L 309 338
L 310 338
L 312 338
L 313 338
L 313 338
L 317 338
L 318 338
L 325 337
L 327 337
L 328 337
L 328 337
L 328 337
L 331 337
L 331 337
L 340 337
L 341 337
L 341 337
L 341 337
L 342 337
L 344 337
L 344 337
L 346 337
L 347 337
L 347 337
L 350 336
L 351 336
L 357 336
L 363 336
L 364 336
L 371 336
L 374 336
L 374 336
L 376 336
L 376 336
L 376 336
L 377 336
L 379 336
L 380 336
L 380 336
L 381 336
L 381 336
L 383 336
L 386 335
L 389 335
L 391 335
L 391 335
L 392 335
L 392 335
L 392 335
L 394 335
L 395 335
L 395 335
L 397 335
L 397 335
L 397 335
L 399 335
L 405 335
L 405 335
L 405 335
L 406 334
L 408 334
L 411 334
L 412 334
L 412 334
L 414 334
L 419 334
L 421 334
L 421 334
L 421 334
L 421 334
L 422 334
L 426 334
L 426 334
L 428 334
L 430 334
L 437 334
L 438 334
L 440 333
L 440 333
L 442 333
L 442 333
L 442 333
L 444 333
L 444 333
L 446 333
L 447 333
L 453 333
L 454 333
L 455 333
L 456 333
L 456 333
L 456 333
L 456 333
L 457 333
L 459 332
L 468 332
L 469 332
L 469 332
L 469 332
L 471 332
L 471 332
L 473 332
L 474 332
L 474 332
L 476 332
L 477 332
L 477 332
L 477 332
L 477 332
L 479 332
L 485 332
L 486 331
L 486 331
L 486 331
L 486 331
L 486 331
L 486 331
L 486 331
L 486 331
L 487 331
L 488 331
L 488 331
L 488 331
L 488 331
L 488 331
L 488 331
L 488 331
L 488 331
L 489 331
L 489 330
L 489 330
L 489 330
L 489 330
L 489 330
L 489 330
L 489 330
L 489 330
L 489 330
L 489 330
L 489 330
L 489 330
L 489 330
L 489 330
L 489 330
L 490 330
L 490 330
L 490 329
L 490 329
L 490 329
L 490 329
L 490 329
L 490 329
L 490 329
L 490 329
L 490 329
L 490 329
L 490 329
L 490 329
L 490 329
L 490 329
L 490 329
L 490 329
L 490 329
L 490 328
L 491 328
L 491 328
L 491 328
L 491 328
L 491 328
L 491 328
L 491 328
L 491 328
L 491 328
L 492 328
L 492 328
L 492 328
L 492 328
L 492 328
L 492 328
L 493 328
L 493 328
L 493 327
L 493 327
L 493 327
L 493 327
L 493 327
L 493 327
L 494 327
L 494 327
L 494 327
L 494 327
L 495 327
L 495 327
L 495 327
L 500 327
L 501 327
L 501 327
L 501 327
L 501 326
L 501 326
L 502 326
L 502 326
L 502 326
L 502 326
L 502 326
L 502 326
L 502 326
L 502 326
L 502 326
L 502 326
L 502 326
L 502 326
L 502 326
L 503 326
L 503 326
L 503 325
L 503 325
L 503 325
L 503 325
L 503 325
L 503 325
L 504 325
L 504 325
L 504 325
L 504 325
L 504 325
L 504 325
L 504 325
L 504 325
L 504 325
L 505 325
L 505 325
L 505 325
L 505 324
L 505 324
L 505 324
L 505 324
L 505 324
L 505 324
L 505 324
L 505 324
L 505 324
L 505 324
L 505 324
L 505 324
L 506 324
L 506 324
L 506 324
L 506 324
L 506 324
L 506 323
L 506 323
L 506 323
L 506 323
L 506 323
L 506 323
L 506 323
L 506 323
L 506 323
L 506 323
L 506 323
L 506 323
L 506 323
L 506 323
L 507 323
L 507 323
L 507 323
L 507 322
L 508 322
L 508 322
L 508 322
L 508 322
L 508 322
L 508 322
L 508 322
L 508 322
L 508 322
L 508 322
L 508 322
L 508 322
L 508 322
L 508 322
L 509 322
L 509 322
L 509 322
L 509 321
L 509 321
L 509 321
L 509 321
L 509 321
L 509 321
L 509 321
L 509 321
L 509 321
L 509 321
L 509 321
L 510 321
L 510 321
L 510 321
L 510 321
L 510 321
L 510 321
L 510 320
L 510 320
L 510 320
L 510 320
L 510 320
L 510 320
L 510 320
L 510 320
L 510 320
L 510 320
L 511 320
L 511 320
L 511 320
L 511 320
L 511 320
L 511 320
L 511 320
L 511 319
L 511 319
L 511 319
L 512 319
L 512 319
L 513 319
L 513 319
L 515 319
L 515 319
L 516 319
L 516 319
L 516 319
L 516 319
L 516 319
L 516 319
L 517 319
L 517 319
L 517 319
L 517 318
L 517 318
L 517 318
L 517 318
L 517 318
L 517 318
L 517 318
L 517 318
L 517 318
L 517 318
L 518 318
L 518 318
L 518 318
L 518 318
L 518 318
L 518 318
L 518 318
L 518 317
L 518 317
L 518 317
L 518 317
L 518 317
L 518 317
L 518 317
L 518 317
L 519 317
L 519 317
L 519 317
L 519 317
L 519 317
L 519 317
L 519 317
L 519 317
L 519 317
L 519 317
L 519 316
L 519 316
L 519 316
L 519 316
L 519 316
L 519 316
L 520 316
L 520 316
L 520 316
L 520 316
L 520 316
L 520 316
L 520 316
L 520 316
L 520 316
L 520 316
L 520 316
L 520 315
L 520 315
L 520 315
L 521 315
L 521 315
L 521 315
L 521 315
L 521 315
L 521 315
L 521 315
L 521 315
L 521 315
L 521 315
L 521 315
L 521 315
L 521 315
L 521 315
L 521 314
L 521 314
L 521 314
L 521 314
L 522 314
L 522 314
L 522 314
L 522 314
L 522 314
L 522 314
L 522 314
L 522 314
L 522 314
L 523 314
L 523 314
L 523 314
L 523 314
L 523 314
L 523 313
L 523 313
L 523 313
L 523 313
L 523 313
L 523 313
L 524 313
L 524 313
L 524 313
L 524 313
L 524 313
L 524 313
L 524 313
L 524 313
L 524 313
L 524 313
L 524 313
L 524 312
L 524 312
L 524 312
L 524 312
L 524 312
L 524 312
L 524 312
L 525 312
L 525 312
L 525 312
L 525 312
L 525 312
L 525 312
L 525 312
L 525 312
L 525 312
L 525 312
L 525 311
L 525 311
L 525 311
L 525 311
L 525 311
L 525 311
L 525 311
L 525 311
L 525 311
L 526 311
L 526 311
L 526 311
L 526 311
L 526 311
L 526 311
L 526 311
L 526 311
L 526 311
L 526 310
L 526 310
L 526 310
L 526 310
L 526 310
L 526 310
L 527 310
L 527 310
L 527 310
L 527 310
L 527 310
L 527 310
L 527 310
L 527 310
L 527 310
L 528 310
L 528 310
L 528 309
L 528 309
L 528 309
L 529 309
L 529 309
L 530 309
L 532 309
L 532 309
L 532 309
L 532 309
L 532 309
L 532 309
L 532 309
L 532 309
L 532 309
L 532 309
L 532 309
L 532 308
L 532 308
L 532 308
L 532 308
L 532 308
L 532 308
L 532 308
L 532 308
L 532 308
L 532 308
L 533 308
L 533 308
L 533 308
L 533 308
L 533 308
L 533 308
L 533 308
L 533 308
L 533 307
L 533 307
L 533 307
L 533 307
L 533 307
L 533 307
L 533 307
L 533 307
L 533 307
L 533 307
L 533 307
L 533 307
L 533 307
L 533 307
L 533 307
L 533 307
L 533 307
L 533 306
L 533 306
L 533 306
L 533 306
L 533 306
L 533 306
L 533 306
L 533 306
L 533 306
L 533 306
L 533 306
L 533 306
L 533 306
L 533 306
L 533 306
L 533 306
L 533 306
L 533 305
L 533 305
L 533 305
L 533 305
L 533 305
L 533 305
L 533 305
L 533 305
L 533 305
L 533 305
L 533 305
L 533 305
L 533 305
L 533 305
L 533 305
L 533 305
L 533 305
L 533 305
L 533 304
L 533 304
L 533 304
L 533 304
L 533 304
L 533 304
L 533 304
L 533 304
L 533 304
L 533 304
L 533 304
L 533 304
L 533 304
L 533 304
L 533 304
L 533 304
L 534 304
L 534 303
L 534 303
L 534 303
L 534 303
L 534 303
L 534 303
L 534 303
L 534 303
L 534 303
L 534 303
L 534 303
L 534 303
L 534 303
L 534 303
L 534 303
L 534 303
L 534 303
L 534 302
L 534 302
L 534 302
L 534 302
L 534 302
L 534 302
L 534 302
L 534 302
L 534 302
L 534 302
L 534 302
L 534 302
L 534 302
L 534 302
L 534 302
L 534 302
L 534 302
L 534 302
L 534 301
L 534 301
L 534 301
L 534 301
L 534 301
L 534 301
L 534 301
L 534 301
L 534 301
L 535 301
L 535 301
L 535 301
L 535 301
L 535 301
L 535 301
L 535 301
L 535 301
L 535 300
L 535 300
L 535 300
L 535 300
L 535 300
L 535 300
L 535 300
L 535 300
L 535 300
L 535 300
L 535 300
L 535 300
L 535 300
L 535 300
L 535 300
L 535 300
L 535 300
L 535 300
L 535 299
L 536 299
L 536 299
L 536 299
L 536 299
L 536 299
L 536 299
L 536 299
L 536 299
L 536 299
L 536 299
L 536 299
L 536 299
L 536 299
L 536 299
L 536 299
L 536 299
L 536 298
L 536 298
L 536 298
L 536 298
L 536 298
L 536 298
L 536 298
L 536 298
L 536 298
L 536 298
L 536 298
L 536 298
L 536 298
L 536 298
L 536 298
L 536 298
L 536 298
L 536 297
L 536 297
L 536 297
L 536 297
L 536 297
L 536 297
L 536 297
L 536 297
L 536 297
L 536 297
L 536 297
L 536 297
L 536 297
L 536 297
L 536 297
L 536 297
L 536 297
L 536 297
L 536 296
L 536 296
L 536 296
L 536 296
L 536 296
L 536 296
L 536 296
L 536 296
L 536 296
L 536 296
L 536 296
L 537 296
L 537 296
L 537 296
L 537 296
L 537 296
L 537 296
L 537 295
L 537 295
L 537 295
L 537 295
L 537 295
L 537 295
L 537 295
L 537 295
L 537 295
L 537 295
L 537 295
L 537 295
L 537 295
L 537 295
L 537 295
L 537 295
L 537 295
L 537 294
L 537 294
L 537 294
L 537 294
L 537 294
L 537 294
L 537 294
L 537 294
L 537 294
L 537 294
L 537 294
L 537 294
L 537 294
L 537 294
L 537 294
L 537 294
L 537 294
L 537 294
L 537 293
L 537 293
L 537 293
L 537 293
L 537 293
L 537 293
L 538 293
L 538 293
L 538 293
L 538 293
L 538 293
L 538 293
L 538 293
L 538 293
L 538 293
L 538 293
L 538 293
L 538 292
L 538 292
L 538 292
L 538 292
L 538 292
L 538 292
L 538 292
L 538 292
L 538 292
L 538 292
L 538 292
L 538 292
L 538 292
L 538 292
L 538 292
L 538 292
L 538 292
L 538 291
L 538 291
L 538 291
L 538 291
L 538 291
L 538 291
L 538 291
L 538 291
L 538 291
L 538 291
L 539 291
L 539 291
L 539 291
L 539 291
L 539 291
L 539 291
L 539 291
L 539 291
L 539 290
L 539 290
L 539 290
L 539 290
L 539 290
L 539 290
L 539 290
L 539 290
L 539 290
L 539 290
L 539 290
L 539 290
L 539 290
L 539 290
L 539 290
L 539 290
L 539 290
L 539 289
L 539 289
L 539 289
L 539 289
L 539 289
L 539 289
L 540 289
L 540 289
L 540 289
L 540 289
L 540 289
L 540 289
L 540 289
L 540 289
L 540 289
L 540 289
L 540 289
L 540 288
L 540 288
L 540 288
L 540 288
L 540 288
L 540 288
L 540 288
L 540 288
L 540 288
L 540 288
L 540 288
L 540 288
L 540 288
L 540 288
L 541 288
L 541 288
L 541 288
L 541 288
L 541 287
L 541 287
L 541 287
L 541 287
L 541 287
L 541 287
L 541 287
L 541 287
L 541 287
L 541 287
L 541 287
L 541 287
L 542 287
L 542 287
L 542 287
L 542 287
L 542 287
L 542 286
L 542 286
L 542 286
L 542 286
L 542 286
L 542 286
L 542 286
L 542 286
L 542 286
L 542 286
L 542 286
L 542 286
L 542 286
L 542 286
L 543 286
L 543 286
L 543 286
L 543 285
L 543 285
L 543 285
L 543 285
L 543 285
L 544 285
L 544 285
L 544 285
L 544 285
L 546 285
L 547 285
L 548 285
L 548 285
L 548 285
L 548 285
L 548 285
L 548 285
L 549 285
L 549 284
L 549 284
L 549 284
L 549 284
L 549 284
L 549 284
L 549 284
L 549 284
L 549 284
L 549 284
L 549 284
L 549 284
L 549 284
L 549 284
L 549 284
L 549 284
L 549 284
L 549 283
L 549 283
L 549 283
L 549 283
L 549 283
L 549 283
L 549 283
L 549 283
L 549 283
L 549 283
L 549 283
L 549 283
L 549 283
L 549 283
L 549 283
L 549 283
L 549 283
L 549 283
L 549 282
L 549 282
L 549 282
L 549 282
L 549 282
L 549 282
L 549 282
L 549 282
L 549 282
L 549 282
L 549 282
L 549 282
L 549 282
L 549 282
L 549 282
L 549 282
L 549 282
L 549 281
L 549 281
L 549 281
L 549 281
L 549 281
L 549 281
L 549 281
L 549 281
L 549 281
L 549 281
L 549 281
L 549 281
L 549 281
L 549 281
L 549 281
L 549 281
L 549 281
L 549 280
L 549 280
L 549 280
L 549 280
L 549 280
L 549 280
L 549 280
L 549 280
L 549 280
L 549 280
L 550 280
L 550 280
L 550 280
L 550 280
L 550 280
L 550 280
L 550 280
L 550 280
L 550 279
L 550 279
L 550 279
L 550 279
L 550 279
L 550 279
L 550 279
L 550 279
L 550 279
L 550 279
L 550 279
L 550 279
L 550 279
L 550 279
L 550 279
L 550 279
L 550 279
L 550 278
L 550 278
L 550 278
L 550 278
L 550 278
L 550 278
L 550 278
L 550 278
L 550 278
L 550 278
L 550 278
L 550 278
L 550 278
L 550 278
L 550 278
L 550 278
L 550 278
L 550 277
L 550 277
L 550 277
L 550 277
L 550 277
L 550 277
L 550 277
L 550 277
L 550 277
L 550 277
L 550 277
L 550 277
L 550 277
L 550 277
L 550 277
L 550 277
L 551 277
L 551 277
L 551 276
L 551 276
L 551 276
L 551 276
L 551 276
L 551 276
L 551 276
L 551 276
L 551 276
L 551 276
L 551 276
L 551 276
L 551 276
L 551 276
L 551 276
L 551 276
L 551 276
L 551 275
L 551 275
L 551 275
L 552 275
L 552 275
L 552 275
L 552 275
L 552 275
L 552 275
L 552 275
L 552 275
L 552 275
L 552 275
L 552 275
L 552 275
L 552 275
L 552 275
L 552 274
L 552 274
L 552 274
L 552 274
L 552 274
L 552 274
L 552 274
L 552 274
L 552 274
L 552 274
L 552 274
L 552 274
L 552 274
L 552 274
L 552 274
L 552 274
L 552 274
L 552 274
L 552 273
L 552 273
L 552 273
L 552 273
L 552 273
L 552 273
L 552 273
L 552 273
L 552 273
L 552 273
L 552 273
L 552 273
L 552 273
L 552 273
L 553 273
L 553 273
L 553 273
L 553 272
L 553 272
L 553 272
L 553 272
L 553 272
L 553 272
L 553 272
L 553 272
L 553 272
L 553 272
L 553 272
L 553 272
L 553 272
L 553 272
L 553 272
L 553 272
L 553 272
L 553 271
L 553 271
L 553 271
L 553 271
L 553 271
L 553 271
L 553 271
L 553 271
L 553 271
L 553 271
L 553 271
L 553 271
L 553 271
L 553 271
L 553 271
L 553 271
L 553 271
L 553 271
L 553 270
L 553 270
L 553 270
L 553 270
L 553 270
L 553 270
L 554 270
L 554 270
L 554 270
L 554 270
L 554 270
L 554 270
L 554 270
L 554 270
L 554 270
L 554 270
L 554 270
L 554 269
L 554 269
L 554 269
L 554 269
L 554 269
L 554 269
L 554 269
L 554 269
L 554 269
L 554 269
L 554 269
L 554 269
L 554 269
L 554 269
L 554 269
L 554 269
L 554 269
L 554 268
L 554 268
L 554 268
L 554 268
L 554 268
L 554 268
L 554 268
L 554 268
L 554 268
L 554 268
L 554 268
L 554 268
L 555 268
L 555 268
L 555 268
L 555 268
L 555 268
L 555 268
L 555 267
L 555 267
L 555 267
L 555 267
L 555 267
L 555 267
L 555 267
L 555 267
L 555 267
L 555 267
L 555 267
L 555 267
L 555 267
L 555 267
L 555 267
L 555 267
L 555 267
L 555 266
L 555 266
L 555 266
L 555 266
L 555 266
L 555 266
L 555 266
L 555 266
L 555 266
L 555 266
L 555 266
L 555 266
L 555 266
L 555 266
L 555 266
L 555 266
L 555 266
L 555 266
L 555 265
L 555 265
L 555 265
L 555 265
L 555 265
L 555 265
L 555 265
L 555 265
L 555 265
L 555 265
L 555 265
L 555 265
L 556 265
L 556 265
L 556 265
L 556 265
L 556 265
L 556 264
L 556 264
L 556 264
L 556 264
L 556 264
L 556 264
L 556 264
L 556 264
L 556 264
L 556 264
L 556 264
L 556 264
L 556 264
L 556 264
L 556 264
L 556 264
L 556 264
L 556 263
L 556 263
L 556 263
L 557 263
L 557 263
L 557 263
L 557 263
L 557 263
L 557 263
L 557 263
L 557 263
L 557 263
L 557 263
L 557 263
L 557 263
L 557 263
L 557 263
L 557 263
L 557 262
L 557 262
L 557 262
L 557 262
L 557 262
L 557 262
L 557 262
L 557 262
L 557 262
L 557 262
L 557 262
L 557 262
L 557 262
L 557 262
L 557 262
L 557 262
L 557 262
L 557 261
L 557 261
L 557 261
L 557 261
L 557 261
L 558 261
L 558 261
L 558 261
L 558 261
L 558 261
L 558 261
L 558 261
L 558 261
L 558 261
L 558 261
L 558 261
L 558 261
L 558 260
L 558 260
L 558 260
L 558 260
L 558 260
L 558 260
L 558 260
L 559 260
L 559 260
L 559 260
L 559 260
L 559 260
L 559 260
L 559 260
L 559 260
L 559 260
L 559 260
L 559 260
L 559 259
L 559 259
L 559 259
L 559 259
L 560 259
L 560 259
L 560 259
L 560 259
L 561 259
L 561 259
L 562 259
L 564 259
L 564 259
L 564 259
L 564 259
L 564 259
L 564 259
L 564 258
L 564 258
L 564 258
L 564 258
L 564 258
L 564 258
L 565 258
L 565 258
L 565 258
L 565 258
L 565 258
L 565 258
L 565 258
L 565 258
L 565 258
L 565 258
L 565 258
L 565 257
L 565 257
L 565 257
L 565 257
L 565 257
L 565 257
L 565 257
L 565 257
L 565 257
L 565 257
L 565 257
L 565 257
L 565 257
L 565 257
L 565 257
L 565 257
L 565 257
L 565 257
L 565 256
L 565 256
L 565 256
L 565 256
L 565 256
L 565 256
L 565 256
L 565 256
L 565 256
L 565 256
L 565 256
L 565 256
L 565 256
L 565 256
L 565 256
L 565 256
L 565 256
L 565 255
L 565 255
L 565 255
L 565 255
L 565 255
L 565 255
L 565 255
L 565 255
L 565 255
L 565 255
L 565 255
L 565 255
L 565 255
L 565 255
L 565 255
L 565 255
L 565 255
L 565 254
L 565 254
L 565 254
L 565 254
L 565 254
L 565 254
L 565 254
L 565 254
L 565 254
L 565 254
L 566 254
L 566 254
L 566 254
L 566 254
L 566 254
L 566 254
L 566 254
L 566 254
L 566 253
L 566 253
L 566 253
L 566 253
L 566 253
L 566 253
L 566 253
L 566 253
L 566 253
L 566 253
L 566 253
L 566 253
L 566 253
L 566 253
L 566 253
L 566 253
L 566 253
L 566 252
L 566 252
L 566 252
L 566 252
L 566 252
L 566 252
L 566 252
L 566 252
L 566 252
L 566 252
L 566 252
L 566 252
L 566 252
L 566 252
L 566 252
L 566 252
L 566 252
L 566 251
L 566 251
L 567 251
L 567 251
L 567 251
L 567 251
L 567 251
L 567 251
L 567 251
L 567 251
L 567 251
L 567 251
L 567 251
L 567 251
L 567 251
L 567 251
L 567 251
L 567 251
L 567 250
L 567 250
L 567 250
L 567 250
L 568 250
L 568 250
L 568 250
L 568 250
L 568 250
L 568 250
L 568 250
L 568 250
L 568 250
L 568 250
L 568 250
L 568 250
L 568 250
L 568 249
L 568 249
L 568 249
L 568 249
L 568 249
L 568 249
L 568 249
L 568 249
L 568 249
L 568 249
L 568 249
L 568 249
L 568 249
L 568 249
L 568 249
L 568 249
L 568 249
L 568 249
L 568 248
L 568 248
L 568 248
L 568 248
L 568 248
L 569 248
L 569 248
L 569 248
L 569 248
L 569 248
L 569 248
L 569 248
L 569 248
L 569 248
L 569 248
L 569 248
L 569 248
L 569 247
L 569 247
L 569 247
L 569 247
L 569 247
L 569 247
L 569 247
L 569 247
L 569 247
L 569 247
L 569 247
L 569 247
L 569 247
L 569 247
L 569 247
L 569 247
L 569 247
L 569 246
L 569 246
L 569 246
L 569 246
L 569 246
L 569 246
L 569 246
L 570 246
L 570 246
L 570 246
L 570 246
L 570 246
L 570 246
L 570 246
L 570 246
L 570 246
L 570 246
L 570 246
L 570 245
L 570 245
L 570 245
L 570 245
L 570 245
L 570 245
L 570 245
L 570 245
L 570 245
L 570 245
L 570 245
L 570 245
L 570 245
L 570 245
L 570 245
L 570 245
L 570 245
L 570 244
L 570 244
L 570 244
L 570 244
L 570 244
L 570 244
L 570 244
L 570 244
L 570 244
L 570 244
L 570 244
L 570 244
L 570 244
L 570 244
L 570 244
L 570 244
L 570 244
L 571 243
L 571 243
L 571 243
L 571 243
L 571 243
L 571 243
L 571 243
L 571 243
L 571 243
L 571 243
L 571 243
L 571 243
L 571 243
L 571 243
L 571 243
L 571 243
L 571 243
L 571 243
L 571 242
L 571 242
L 571 242
L 571 242
L 571 242
L 571 242
L 571 242
L 571 242
L 572 242
L 572 242
L 572 242
L 572 242
L 572 242
L 572 242
L 572 242
L 572 242
L 572 242
L 572 241
L 572 241
L 572 241
L 572 241
L 572 241
L 572 241
L 572 241
L 572 241
L 572 241
L 572 241
L 572 241
L 572 241
L 572 241
L 573 241
L 573 241
L 573 241
L 573 241
L 573 240
L 573 240
L 573 240
L 573 240
L 573 240
L 573 240
L 573 240
L 573 240
L 573 240
L 573 240
L 573 240
L 573 240
L 573 240
L 573 240
L 573 240
L 574 240
L 574 240
L 574 240
L 574 239
L 574 239
L 574 239
L 574 239
L 574 239
L 574 239
L 574 239
L 574 239
L 574 239
L 574 239
L 574 239
L 574 239
L 574 239
L 574 239
L 574 239
L 575 239
L 575 239
L 575 238
L 575 238
L 575 238
L 575 238
L 575 238
L 575 238
L 575 238
L 575 238
L 575 238
L 576 238
L 576 238
L 579 238
L 580 238
L 580 238
L 580 238
L 580 238
L 580 238
L 580 237
L 580 237
L 580 237
L 580 237
L 581 237
L 581 237
L 581 237
L 581 237
L 581 237
L 581 237
L 581 237
L 581 237
L 581 237
L 581 237
L 581 237
L 581 237
L 581 237
L 581 237
L 581 236
L 581 236
L 581 236
L 581 236
L 581 236
L 581 236
L 581 236
L 581 236
L 581 236
L 581 236
L 581 236
L 581 236
L 581 236
L 581 236
L 581 236
L 581 236
L 581 236
L 581 235
L 581 235
L 581 235
L 581 235
L 581 235
L 581 235
L 581 235
L 581 235
L 581 235
L 581 235
L 581 235
L 581 235
L 581 235
L 582 235
L 582 235
L 582 235
L 582 235
L 582 234
L 582 234
L 582 234
L 582 234
L 582 234
L 582 234
L 582 234
L 582 234
L 582 234
L 582 234
L 582 234
L 582 234
L 582 234
L 582 234
L 582 234
L 582 234
L 582 234
L 582 234
L 582 233
L 582 233
L 582 233
L 582 233
L 582 233
L 582 233
L 582 233
L 582 233
L 582 233
L 582 233
L 582 233
L 582 233
L 582 233
L 582 233
L 582 233
L 583 233
L 583 233
L 583 232
L 583 232
L 583 232
L 583 232
L 583 232
L 583 232
L 583 232
L 583 232
L 584 232
L 584 232
L 584 232
L 584 232
L 584 232
L 584 232
L 584 232
L 584 232
L 584 232
L 584 232
L 584 231
L 584 231
L 584 231
L 584 231
L 584 231
L 584 231
L 584 231
L 584 231
L 584 231
L 584 231
L 584 231
L 585 231
L 585 231
L 585 231
L 585 231
L 585 231
L 585 231
L 585 230
L 585 230
L 585 230
L 585 230
L 585 230
L 585 230
L 585 230
L 585 230
L 585 230
L 585 230
L 585 230
L 585 230
L 585 230
L 585 230
L 585 230
L 585 230
L 585 230
L 585 229
L 585 229
L 585 229
L 585 229
L 585 229
L 586 229
L 586 229
L 586 229
L 586 229
L 586 229
L 586 229
L 586 229
L 586 229
L 586 229
L 586 229
L 586 229
L 586 229
L 586 229
L 586 228
L 586 228
L 586 228
L 586 228
L 586 228
L 586 228
L 586 228
L 586 228
L 586 228
L 586 228
L 586 228
L 586 228
L 586 228
L 586 228
L 586 228
L 586 228
L 586 228
L 586 227
L 586 227
L 586 227
L 586 227
L 587 227
L 587 227
L 587 227
L 587 227
L 587 227
L 587 227
L 587 227
L 587 227
L 587 227
L 587 227
L 587 227
L 587 227
L 587 227
L 587 226
L 587 226
L 587 226
L 587 226
L 587 226
L 587 226
L 588 226
L 588 226
L 588 226
L 588 226
L 588 226
L 588 226
L 588 226
L 588 226
L 588 226
L 588 226
L 588 226
L 588 226
L 588 225
L 588 225
L 588 225
L 588 225
L 588 225
L 589 225
L 589 225
L 589 225
L 589 225
L 589 225
L 589 225
L 589 225
L 589 225
L 589 225
L 589 225
L 589 225
L 589 225
L 589 224
L 590 224
L 590 224
L 590 224
L 590 224
L 590 224
L 590 224
L 590 224
L 590 224
L 590 224
L 591 224
L 591 224
L 591 224
L 591 224
L 591 224
L 591 224
L 591 224
L 592 223
L 592 223
L 592 223
L 592 223
L 593 223
L 593 223
L 596 223
L 596 223
L 596 223
L 597 223
L 597 223
L 597 223
L 597 223
L 597 223
L 597 223
L 597 223
L 597 223
L 597 223
L 597 222
L 597 222
L 597 222
L 597 222
L 597 222
L 597 222
L 597 222
L 597 222
L 597 222
L 597 222
L 597 222
L 597 222
L 597 222
L 597 222
L 597 222
L 597 222
L 597 222
L 597 221
L 597 221
L 597 221
L 597 221
L 597 221
L 597 221
L 597 221
L 597 221
L 597 221
L 597 221
L 597 221
L 597 221
L 597 221
L 597 221
L 597 221
L 597 221
L 598 221
L 598 220
L 598 220
L 598 220
L 598 220
L 598 220
L 598 220
L 598 220
L 598 220
L 598 220
L 598 220
L 598 220
L 598 220
L 598 220
L 598 220
L 598 220
L 598 220
L 598 220
L 598 220
L 598 219
L 598 219
L 598 219
L 598 219
L 598 219
L 598 219
L 598 219
L 598 219
L 598 219
L 598 219
L 598 219
L 598 219
L 598 219
L 598 219
L 598 219
L 598 219
L 598 219
L 598 218
L 598 218
L 599 218
L 599 218
L 599 218
L 599 218
L 599 218
L 599 218
L 599 218
L 599 218
L 599 218
L 600 218
L 600 218
L 600 218
L 600 218
L 600 218
L 600 218
L 600 217
L 600 217
L 600 217
L 600 217
L 600 217
L 600 217
L 600 217
L 600 217
L 600 217
L 600 217
L 600 217
L 600 217
L 600 217
L 600 217
L 600 217
L 600 217
L 600 217
L 600 217
L 600 216
L 600 216
L 600 216
L 600 216
L 600 216
L 600 216
L 600 216
L 600 216
L 600 216
L 600 216
L 600 216
L 600 216
L 600 216
L 600 216
L 601 216
L 601 216
L 601 216
L 601 215
L 601 215
L 601 215
L 601 215
L 601 215
L 601 215
L 601 215
L 601 215
L 601 215
L 601 215
L 601 215
L 601 215
L 601 215
L 601 215
L 601 215
L 601 215
L 601 215
L 601 215
L 601 214
L 601 214
L 601 214
L 601 214
L 601 214
L 601 214
L 601 214
L 601 214
L 601 214
L 601 214
L 601 214
L 601 214
L 601 214
L 601 214
L 601 214
L 601 214
L 601 214
L 602 213
L 602 213
L 602 213
L 602 213
L 602 213
L 602 213
L 602 213
L 602 213
L 602 213
L 602 213
L 602 213
L 602 213
L 602 213
L 602 213
L 602 213
L 602 213
L 602 213
L 602 212
L 602 212
L 602 212
L 602 212
L 602 212
L 602 212
L 602 212
L 602 212
L 602 212
L 602 212
L 602 212
L 602 212
L 602 212
L 602 212
L 602 212
L 602 212
L 602 212
L 602 212
L 602 211
L 603 211
L 603 211
L 603 211
L 603 211
L 603 211
L 603 211
L 603 211
L 603 211
L 603 211
L 603 211
L 603 211
L 603 211
L 603 211
L 603 211
L 603 211
L 603 211
L 603 210
L 603 210
L 603 210
L 604 210
L 604 210
L 604 210
L 604 210
L 604 210
L 604 210
L 604 210
L 604 210
L 604 210
L 604 210
L 604 210
L 604 210
L 604 210
L 604 210
L 604 209
L 604 209
L 605 209
L 605 209
L 605 209
L 605 209
L 605 209
L 605 209
L 605 209
L 606 209
L 606 209
L 606 209
L 606 209
L 606 209
L 606 209
L 606 209
L 606 209
L 606 209
L 606 208
L 606 208
L 606 208
L 606 208
L 606 208
L 606 208
L 606 208
L 606 208
L 606 208
L 606 208
L 607 208
L 607 208
L 607 208
L 607 208
L 607 208
L 607 208
L 607 208
L 607 207
L 607 207
L 607 207
L 607 207
L 609 207
L 610 207
L 610 207
L 610 207
L 612 207
L 612 207
L 612 207
L 612 207
L 612 207
L 612 207
L 613 207
L 613 207
L 613 207
L 613 206
L 613 206
L 613 206
L 613 206
L 613 206
L 613 206
L 613 206
L 613 206
L 613 206
L 613 206
L 613 206
L 613 206
L 613 206
L 613 206
L 613 206
L 613 206
L 613 206
L 613 206
L 613 205
L 613 205
L 613 205
L 613 205
L 613 205
L 613 205
L 613 205
L 613 205
L 613 205
L 613 205
L 613 205
L 613 205
L 613 205
L 614 205
L 614 205
L 614 205
L 614 205
L 614 204
L 614 204
L 614 204
L 614 204
L 614 204
L 614 204
L 614 204
L 614 204
L 614 204
L 614 204
L 614 204
L 614 204
L 614 204
L 614 204
L 614 204
L 614 204
L 614 204
L 614 203
L 614 203
L 614 203
L 614 203
L 614 203
L 614 203
L 614 203
L 614 203
L 614 203
L 614 203
L 614 203
L 614 203
L 614 203
L 614 203
L 614 203
L 614 203
L 614 203
L 614 203
L 614 202
L 614 202
L 614 202
L 614 202
L 614 202
L 614 202
L 614 202
L 614 202
L 614 202
L 614 202
L 614 202
L 614 202
L 614 202
L 614 202
L 614 202
L 614 202
L 614 202
L 614 201
L 615 201
L 615 201
L 615 201
L 615 201
L 615 201
L 615 201
L 615 201
L 615 201
L 615 201
L 615 201
L 615 201
L 615 201
L 615 201
L 615 201
L 615 201
L 615 201
L 615 200
L 615 200
L 615 200
L 615 200
L 615 200
L 616 200
L 616 200
L 616 200
L 616 200
L 616 200
L 616 200
L 616 200
L 616 200
L 616 200
L 616 200
L 616 200
L 616 200
L 616 200
L 616 199
L 616 199
L 616 199
L 616 199
L 616 199
L 616 199
L 616 199
L 616 199
L 616 199
L 616 199
L 616 199
L 616 199
L 616 199
L 616 199
L 616 199
L 616 199
L 616 199
L 616 198
L 616 198
L 616 198
L 616 198
L 617 198
L 617 198
L 617 198
L 617 198
L 617 198
L 617 198
L 617 198
L 617 198
L 617 198
L 617 198
L 617 198
L 617 198
L 617 198
L 617 198
L 617 197
L 617 197
L 617 197
L 617 197
L 617 197
L 617 197
L 617 197
L 617 197
L 617 197
L 617 197
L 617 197
L 617 197
L 617 197
L 617 197
L 617 197
L 617 197
L 617 197
L 617 196
L 617 196
L 617 196
L 617 196
L 617 196
L 617 196
L 617 196
L 617 196
L 617 196
L 617 196
L 617 196
L 617 196
L 618 196
L 618 196
L 618 196
L 618 196
L 618 196
L 618 195
L 618 195
L 618 195
L 618 195
L 618 195
L 618 195
L 618 195
L 618 195
L 618 195
L 618 195
L 618 195
L 618 195
L 618 195
L 618 195
L 618 195
L 618 195
L 618 195
L 618 195
L 618 194
L 618 194
L 618 194
L 618 194
L 618 194
L 618 194
L 618 194
L 619 194
L 619 194
L 619 194
L 619 194
L 619 194
L 619 194
L 619 194
L 619 194
L 619 194
L 619 194
L 619 193
L 619 193
L 619 193
L 619 193
L 619 193
L 619 193
L 619 193
L 619 193
L 619 193
L 620 193
L 620 193
L 620 193
L 620 193
L 620 193
L 620 193
L 620 193
L 621 193
L 621 192
L 621 192
L 621 192
L 621 192
L 621 192
L 621 192
L 621 192
L 621 192
L 621 192
L 622 192
L 622 192
L 622 192
L 622 192
L 622 192
L 622 192
L 622 192
L 622 192
L 622 192
L 622 191
L 622 191
L 622 191
L 622 191
L 623 191
L 623 191
L 623 191
L 623 191
L 623 191
L 623 191
L 623 191
L 623 191
L 624 191
L 624 191
L 627 191
L 627 191
L 627 191
L 627 190
L 628 190
L 628 190
L 629 190
L 629 190
L 629 190
L 629 190
L 629 190
L 629 190
L 629 190
L 630 190
L 630 190
L 630 190
L 630 190
L 630 190
L 630 190
L 630 190
L 630 189
L 630 189
L 630 189
L 630 189
L 630 189
L 630 189
L 631 189
L 631 189
L 631 189
L 631 189
L 631 189
L 631 189
L 631 189
L 631 189
L 631 189
L 632 189
L 632 189
L 632 189
L 632 188
L 632 188
L 633 188
L 633 188
L 633 188
L 633 188
L 633 188
L 633 188
L 633 188
L 633 188
L 634 188
L 634 188
L 634 188
L 634 188
L 634 188
L 634 188
L 634 188
L 634 187
L 635 187
L 635 187
L 636 187
L 636 187
L 636 187
L 636 187
L 636 187
L 636 187
L 636 187
L 636 187
L 637 187
L 637 187
L 637 187
L 637 187
L 637 187
L 637 187
L 638 186
L 638 186
L 638 186
L 638 186
L 638 186
L 638 186
L 638 186
L 639 186
L 639 186
L 639 186
L 639 186
L 639 186
L 639 186
L 639 186
L 640 186
L 641 186
L 641 186
L 642 186
L 642 185
L 642 185
L 642 185
L 643 185
L 644 185
L 644 185
L 645 185
L 645 185
L 645 185
L 645 185
L 645 185
L 646 185
L 646 185
L 646 185
L 646 185
L 646 185
L 646 185
L 646 184
L 646 184
L 646 184
L 647 184
L 647 184
L 647 184
L 647 184
L 647 184
L 648 184
L 648 184
L 648 184
L 648 184
L 648 184
L 649 184
L 649 184
L 649 184
L 649 184
L 649 183
L 649 183
L 649 183
L 650 183
L 650 183
L 650 183
L 650 183
L 651 183
L 651 183
L 651 183
L 651 183
L 652 183
L 652 183
L 652 183
L 652 183
L 653 183
L 653 183
L 653 183
L 653 182
L 653 182
L 653 182
L 654 182
L 654 182
L 654 182
L 654 182
L 654 182
L 654 182
L 654 182
L 654 182
L 654 182
L 654 182
L 655 182
L 655 182
L 655 182
L 655 182
L 656 181
L 656 181
L 656 181
L 656 181
L 657 181
L 657 181
L 658 181
L 659 181
L 660 181
L 661 181
L 661 181
L 661 181
L 661 181
L 661 181
L 662 181
L 662 181
L 662 181
L 662 181
L 662 180
L 662 180
L 663 180
L 663 180
L 663 180
L 663 180
L 663 180
L 664 180
L 664 180
L 664 180
L 664 180
L 664 180
L 664 180
L 664 180
L 664 180
L 664 180
L 665 180
L 665 179
L 665 179
L 665 179
L 665 179
L 665 179
L 666 179
L 666 179
L 666 179
L 666 179
L 666 179
L 666 179
L 667 179
L 667 179
L 667 179
L 667 179
L 667 179
L 667 179
L 667 178
L 667 178
L 667 178
L 667 178
L 668 178
L 668 178
L 668 178
L 668 178
L 668 178
L 668 178
L 668 178
L 668 178
L 668 178
L 668 178
L 668 178
L 668 178
L 668 178
L 669 178
L 669 177
L 669 177
L 669 177
L 669 177
L 669 177
L 670 177
L 670 177
L 670 177
L 670 177
L 670 177
L 670 177
L 670 177
L 670 177
L 670 177
L 671 177
L 671 177
L 671 177
L 671 176
L 672 176
L 672 176
L 672 176
L 676 176
L 677 176
L 677 176
L 677 176
L 677 176
L 677 176
L 677 176
L 677 176
L 677 176
L 677 176
L 677 176
L 677 176
L 677 176
L 677 175
L 677 175
L 677 175
L 677 175
L 677 175
L 677 175
L 677 175
L 677 175
L 677 175
L 677 175
L 677 175
L 677 175
L 677 175
L 677 175
L 677 175
L 677 175
L 678 175
L 678 175
L 678 174
L 678 174
L 678 174
L 678 174
L 678 174
L 678 174
L 678 174
L 678 174
L 678 174
L 678 174
L 678 174
L 678 174
L 678 174
L 678 174
L 678 174
L 678 174
L 678 174
L 678 173
L 678 173
L 678 173
L 678 173
L 678 173
L 678 173
L 678 173
L 678 173
L 678 173
L 678 173
L 678 173
L 678 173
L 678 173
L 678 173
L 678 173
L 678 173
L 679 173
L 679 172
L 679 172
L 679 172
L 679 172
L 679 172
L 679 172
L 679 172
L 679 172
L 679 172
L 679 172
L 679 172
L 679 172
L 679 172
L 679 172
L 680 172
L 680 172
L 680 172
L 680 172
L 680 171
L 680 171
L 680 171
L 680 171
L 680 171
L 680 171
L 680 171
L 680 171
L 680 171
L 680 171
L 680 171
L 680 171
L 680 171
L 680 171
L 680 171
L 680 171
L 680 171
L 680 170
L 680 170
L 680 170
L 680 170
L 680 170
L 680 170
L 680 170
L 680 170
L 680 170
L 681 170
L 681 170
L 681 170
L 681 170
L 681 170
L 681 170
L 681 170
L 681 170
L 681 169
L 681 169
L 681 169
L 681 169
L 681 169
L 681 169
L 681 169
L 681 169
L 681 169
L 681 169
L 681 169
L 681 169
L 681 169
L 681 169
L 682 169
L 682 169
L 682 169
L 682 169
L 682 168
L 682 168
L 682 168
L 682 168
L 682 168
L 682 168
L 682 168
L 682 168
L 682 168
L 682 168
L 682 168
L 682 168
L 682 168
L 682 168
L 682 168
L 682 168
L 682 168
L 683 167
L 683 167
L 683 167
L 683 167
L 683 167
L 683 167
L 683 167
L 683 167
L 683 167
L 683 167
L 683 167
L 683 167
L 683 167
L 683 167
L 684 167
L 684 167
L 684 167
L 684 166
L 684 166
L 684 166
L 684 166
L 684 166
L 684 166
L 684 166
L 685 166
L 685 166
L 685 166
L 685 166
L 685 166
L 685 166
L 685 166
L 685 166
L 685 166
L 685 166
L 685 166
L 685 165
L 685 165
L 685 165
L 685 165
L 685 165
L 685 165
L 686 165
L 686 165
L 686 165
L 686 165
L 686 165
L 686 165
L 686 165
L 686 165
L 686 165
L 686 165
L 686 165
L 686 164
L 686 164
L 686 164
L 686 164
L 686 164
L 686 164
L 686 164
L 686 164
L 687 164
L 687 164
L 687 164
L 687 164
L 687 164
L 687 164
L 687 164
L 687 164
L 687 164
L 688 163
L 688 163
L 689 163
L 689 163
L 690 163
L 691 163
L 692 163
L 692 163
L 692 163
L 692 163
L 692 163
L 692 163
L 692 163
L 692 163
L 693 163
L 693 163
L 693 163
L 693 163
L 693 162
L 693 162
L 693 162
L 693 162
L 693 162
L 693 162
L 693 162
L 693 162
L 693 162
L 693 162
L 693 162
L 693 162
L 693 162
L 693 162
L 693 162
L 693 162
L 693 162
L 693 161
L 693 161
L 693 161
L 693 161
L 693 161
L 693 161
L 693 161
L 693 161
L 693 161
L 693 161
L 694 161
L 694 161
L 694 161
L 694 161
L 694 161
L 694 161
L 694 161
L 694 161
L 694 160
L 694 160
L 694 160
L 694 160
L 694 160
L 694 160
L 694 160
L 694 160
L 694 160
L 694 160
L 694 160
L 694 160
L 694 160
L 694 160
L 694 160
L 694 160
L 694 160
L 694 159
L 694 159
L 694 159
L 694 159
L 694 159
L 694 159
L 694 159
L 694 159
L 695 159
L 695 159
L 695 159
L 695 159
L 695 159
L 695 159
L 695 159
L 695 159
L 695 159
L 695 158
L 695 158
L 696 158
L 696 158
L 696 158
L 696 158
L 696 158
L 696 158
L 696 158
L 696 158
L 696 158
L 696 158
L 696 158
L 696 158
L 696 158
L 696 158
L 696 158
L 696 158
L 696 157
L 696 157
L 696 157
L 696 157
L 696 157
L 696 157
L 696 157
L 696 157
L 696 157
L 696 157
L 696 157
L 696 157
L 697 157
L 697 157
L 697 157
L 697 157
L 697 157
L 697 156
L 697 156
L 697 156
L 697 156
L 697 156
L 697 156
L 697 156
L 697 156
L 697 156
L 697 156
L 697 156
L 697 156
L 697 156
L 697 156
L 697 156
L 697 156
L 697 156
L 697 155
L 698 155
L 698 155
L 698 155
L 698 155
L 698 155
L 698 155
L 698 155
L 698 155
L 698 155
L 698 155
L 698 155
L 698 155
L 698 155
L 698 155
L 698 155
L 698 155
L 698 155
L 698 154
L 698 154
L 698 154
L 698 154
L 698 154
L 698 154
L 698 154
L 698 154
L 698 154
L 698 154
L 698 154
L 698 154
L 698 154
L 698 154
L 698 154
L 698 154
L 698 154
L 698 153
L 698 153
L 698 153
L 698 153
L 698 153
L 699 153
L 699 153
L 699 153
L 699 153
L 699 153
L 699 153
L 699 153
L 699 153
L 699 153
L 699 153
L 699 153
L 699 153
L 699 152
L 699 152
L 699 152
L 699 152
L 699 152
L 699 152
L 699 152
L 699 152
L 699 152
L 699 152
L 699 152
L 699 152
L 699 152
L 699 152
L 699 152
L 699 152
L 699 152
L 699 152
L 699 151
L 699 151
L 700 151
L 700 151
L 700 151
L 700 151
L 700 151
L 700 151
L 700 151
L 700 151
L 700 151
L 700 151
L 700 151
L 700 151
L 700 151
L 700 151
L 700 151
L 700 150
L 700 150
L 700 150
L 700 150
L 701 150
L 701 150
L 701 150
L 701 150
L 701 150
L 701 150
L 701 150
L 701 150
L 701 150
L 701 150
L 701 150
L 701 150
L 701 150
L 701 149
L 701 149
L 701 149
L 702 149
L 702 149
L 702 149
L 702 149
L 702 149
L 702 149
L 702 149
L 702 149
L 702 149
L 702 149
L 702 149
L 702 149
L 702 149
L 702 149
L 702 149
L 702 148
L 702 148
L 702 148
L 702 148
L 702 148
L 703 148
L 703 148
L 703 148
L 703 148
L 703 148
L 703 148
L 703 148
L 703 148
L 703 148
L 703 148
L 704 148
L 704 148
L 704 147
L 704 147
L 705 147
L 706 147
L 707 147
L 708 147
L 708 147
L 708 147
L 708 147
L 708 147
L 709 147
L 709 147
L 709 147
L 709 147
L 709 147
L 709 147
L 709 147
L 709 147
L 709 146
L 709 146
L 709 146
L 709 146
L 709 146
L 709 146
L 709 146
L 709 146
L 709 146
L 709 146
L 709 146
L 709 146
L 709 146
L 710 146
L 710 146
L 710 146
L 710 146
L 710 145
L 710 145
L 710 145
L 710 145
L 710 145
L 710 145
L 710 145
L 710 145
L 710 145
L 710 145
L 710 145
L 710 145
L 710 145
L 710 145
L 710 145
L 710 145
L 710 145
L 710 144
L 710 144
L 710 144
L 710 144
L 710 144
L 710 144
L 710 144
L 710 144
L 711 144
L 711 144
L 711 144
L 711 144
L 711 144
L 711 144
L 711 144
L 711 144
L 711 144
L 711 144
L 711 143
L 711 143
L 712 143
L 712 143
L 712 143
L 712 143
L 712 143
L 712 143
L 712 143
L 712 143
L 712 143
L 712 143
L 712 143
L 712 143
L 712 143
L 712 143
L 712 143
L 712 142
L 712 142
L 712 142
L 712 142
L 712 142
L 712 142
L 712 142
L 712 142
L 713 142
L 713 142
L 713 142
L 713 142
L 713 142
L 713 142
L 713 142
L 713 142
L 713 142
L 713 141
L 713 141
L 713 141
L 713 141
L 713 141
L 713 141
L 714 141
L 714 141
L 714 141
L 714 141
L 714 141
L 714 141
L 714 141
L 714 141
L 714 141
L 714 141
L 714 141
L 714 141
L 714 140
L 714 140
L 714 140
L 714 140
L 714 140
L 714 140
L 714 140
L 714 140
L 714 140
L 714 140
L 714 140
L 714 140
L 714 140
L 714 140
L 714 140
L 714 140
L 714 140
L 714 139
L 714 139
L 714 139
L 715 139
L 715 139
L 715 139
L 715 139
L 715 139
L 715 139
L 715 139
L 715 139
L 715 139
L 715 139
L 715 139
L 715 139
L 715 139
L 715 139
L 715 138
L 715 138
L 715 138
L 715 138
L 716 138
L 716 138
L 716 138
L 716 138
L 716 138
L 716 138
L 716 138
L 716 138
L 716 138
L 717 138
L 717 138
L 717 138
L 717 138
L 717 138
L 717 137
L 717 137
L 717 137
L 717 137
L 717 137
L 717 137
L 717 137
L 717 137
L 718 137
L 718 137
L 718 137
L 718 137
L 718 137
L 718 137
L 718 137
L 718 137
L 718 137
L 718 136
L 719 136
L 719 136
L 719 136
L 719 136
L 720 136
L 720 136
L 720 136
L 721 136
L 721 136
L 722 136
L 722 136
L 722 136
L 723 136
L 724 136
L 725 136
L 725 136
L 725 135
L 725 135
L 725 135
L 725 135
L 725 135
L 725 135
L 725 135
L 725 135
L 725 135
L 725 135
L 725 135
L 725 135
L 726 135
L 726 135
L 726 135
L 726 135
L 726 135
L 726 135
L 726 134
L 726 134
L 726 134
L 726 134
L 726 134
L 726 134
L 726 134
L 726 134
L 726 134
L 726 134
L 727 134
L 727 134
L 727 134
L 727 134
L 727 134
L 727 134
L 727 134
L 727 133
L 727 133
L 727 133
L 727 133
L 727 133
L 727 133
L 728 133
L 728 133
L 728 133
L 728 133
L 728 133
L 728 133
L 728 133
L 728 133
L 729 133
L 729 133
L 729 133
L 729 132
L 729 132
L 729 132
L 729 132
L 729 132
L 729 132
L 730 132
L 730 132
L 730 132
L 730 132
L 730 132
L 730 132
L 730 132
L 730 132
L 731 132
L 731 132
L 731 132
L 731 132
L 731 131
L 731 131
L 731 131
L 732 131
L 732 131
L 732 131
L 732 131
L 732 131
L 733 131
L 733 131
L 733 131
L 733 131
L 733 131
L 733 131
L 733 131
L 733 131
L 733 131
L 733 130
L 733 130
L 733 130
L 733 130
L 733 130
L 733 130
L 734 130
L 734 130
L 734 130
L 734 130
L 734 130
L 734 130
L 734 130
L 734 130
L 735 130
L 735 130
L 735 130
L 735 130
L 735 129
L 736 129
L 736 129
L 741 129
L 741 129
L 742 129
L 742 129
L 742 129
L 742 129
L 742 129
L 743 129
L 743 129
L 743 129
L 743 129
L 743 129
L 743 129
L 743 129
L 743 128
L 744 128
L 744 128
L 744 128
L 744 128
L 744 128
L 745 128
L 745 128
L 745 128
L 745 128
L 745 128
L 745 128
L 745 128
L 746 128
L 746 128
L 746 128
L 746 128
L 746 127
L 746 127
L 746 127
L 746 127
L 746 127
L 746 127
L 747 127
L 747 127
L 747 127
L 747 127
L 747 127
L 747 127
L 747 127
L 747 127
L 747 127
L 748 127
L 748 127
L 748 127
L 748 126
L 748 126
L 748 126
L 748 126
L 748 126
L 749 126
L 749 126
L 749 126
L 749 126
L 749 126
L 749 126
L 750 126
L 750 126
L 750 126
L 750 126
L 750 126
L 750 126
L 750 125
L 750 125
L 750 125
L 750 125
L 750 125
L 750 125
L 750 125
L 750 125
L 751 125
L 751 125
L 751 125
L 751 125
L 751 125
L 751 125
L 751 125
L 751 125
L 751 125
L 752 124
L 752 124
L 752 124
L 753 124
L 754 124
L 754 124
L 754 124
L 754 124
L 756 124
L 756 124
L 756 124
L 756 124
L 756 124
L 757 124
L 757 124
L 757 124
L 757 124
L 757 124
L 757 123
L 757 123
L 757 123
L 757 123
L 757 123
L 757 123
L 757 123
L 757 123
L 757 123
L 757 123
L 757 123
L 757 123
L 757 123
L 757 123
L 757 123
L 758 123
L 758 123
L 758 122
L 758 122
L 758 122
L 758 122
L 758 122
L 758 122
L 758 122
L 758 122
L 758 122
L 758 122
L 758 122
L 758 122
L 758 122
L 758 122
L 758 122
L 758 122
L 758 122
L 758 121
L 758 121
L 758 121
L 759 121
L 759 121
L 759 121
L 759 121
L 759 121
L 759 121
L 759 121
L 759 121
L 759 121
L 759 121
L 759 121
L 759 121
L 759 121
L 759 121
L 759 121
L 759 120
L 760 120
L 760 120
L 760 120
L 760 120
L 760 120
L 760 120
L 760 120
L 760 120
L 760 120
L 760 120
L 760 120
L 760 120
L 761 120
L 761 120
L 761 120
L 761 120
L 761 119
L 761 119
L 761 119
L 761 119
L 761 119
L 761 119
L 761 119
L 761 119
L 761 119
L 761 119
L 761 119
L 761 119
L 761 119
L 761 119
L 762 119
L 762 119
L 762 119
L 762 118
L 762 118
L 762 118
L 762 118
L 762 118
L 762 118
L 762 118
L 762 118
L 762 118
L 763 118
L 763 118
L 763 118
L 763 118
L 763 118
L 763 118
L 763 118
L 763 118
L 763 118
L 763 117
L 763 117
L 763 117
L 764 117
L 764 117
L 764 117
L 764 117
L 764 117
L 764 117
L 764 117
L 764 117
L 764 117
L 764 117
L 764 117
L 765 117
L 765 117
L 765 117
L 765 116
L 765 116
L 765 116
L 765 116
L 765 116
L 765 116
L 766 116
L 766 116
L 766 116
L 766 116
L 766 116
L 766 116
L 766 116
L 767 116
L 767 116
L 767 116
L 767 116
L 767 115
L 767 115
L 767 115
L 767 115
L 770 115
L 772 115
L 772 115
L 773 115
L 773 115
L 773 115
L 773 115
L 773 115
L 773 115
L 773 115
L 773 115
L 773 115
L 773 115
L 774 115
L 774 114
L 774 114
L 774 114
L 774 114
L 774 114
L 774 114
L 774 114
L 774 114
L 774 114
L 774 114
L 774 114
L 774 114
L 774 114
L 774 114
L 774 114
L 774 114
L 774 114
L 774 113
L 774 113
L 775 113
L 775 113
L 775 113
L 775 113
L 775 113
L 775 113
L 775 113
L 775 113
L 775 113
L 776 113
L 776 113
L 776 113
L 776 113
L 776 113
L 776 113
L 776 113
L 776 112
L 776 112
L 776 112
L 776 112
L 776 112
L 776 112
L 776 112
L 776 112
L 777 112
L 777 112
L 777 112
L 777 112
L 777 112
L 777 112
L 777 112
L 777 112
L 777 112
L 777 111
L 778 111
L 778 111
L 778 111
L 778 111
L 778 111
L 778 111
L 778 111
L 778 111
L 778 111
L 778 111
L 778 111
L 778 111
L 778 111
L 778 111
L 778 111
L 778 111
L 778 110
L 778 110
L 778 110
L 778 110
L 778 110
L 778 110
L 778 110
L 778 110
L 778 110
L 778 110
L 778 110
L 778 110
L 779 110
L 779 110
L 779 110
L 779 110
L 779 110
L 779 110
L 779 109
L 779 109
L 779 109
L 779 109
L 779 109
L 779 109
L 779 109
L 780 109
L 780 109
L 780 109
L 780 109
L 780 109
L 780 109
L 780 109
L 780 109
L 780 109
L 780 109
L 781 108
L 781 108
L 781 108
L 781 108
L 781 108
L 781 108
L 781 108
L 781 108
L 781 108
L 781 108
L 781 108
L 781 108
L 781 108
L 781 108
L 781 108
L 781 108
L 781 108
L 782 107
L 782 107
L 782 107
L 782 107
L 782 107
L 782 107
L 782 107
L 782 107
L 782 107
L 782 107
L 782 107
L 783 107
L 783 107
L 783 107
L 783 107
L 783 107
L 784 107
L 784 107
L 784 106
L 786 106
L 789 106
L 789 106
L 789 106
L 789 106
L 789 106
L 789 106
L 789 106
L 789 106
L 789 106
L 789 106
L 789 106
L 789 106
L 789 106
L 789 106
L 789 106
L 790 105
L 790 105
L 790 105
L 790 105
L 790 105
L 790 105
L 790 105
L 790 105
L 790 105
L 790 105
L 790 105
L 790 105
L 790 105
L 790 105
L 790 105
L 790 105
L 790 105
L 790 104
L 790 104
L 790 104
L 790 104
L 790 104
L 790 104
L 791 104
L 791 104
L 791 104
L 791 104
L 791 104
L 791 104
L 791 104
L 791 104
L 791 104
L 791 104
L 791 104
L 791 104
L 791 103
L 791 103
L 791 103
L 791 103
L 792 103
L 792 103
L 792 103
L 792 103
L 792 103
L 792 103
L 792 103
L 792 103
L 792 103
L 792 103
L 792 103
L 792 103
L 792 103
L 792 102
L 793 102
L 793 102
L 793 102
L 793 102
L 793 102
L 793 102
L 793 102
L 793 102
L 793 102
L 793 102
L 793 102
L 793 102
L 793 102
L 793 102
L 793 102
L 793 102
L 793 101
L 793 101
L 793 101
L 793 101
L 793 101
L 793 101
L 793 101
L 793 101
L 793 101
L 794 101
L 794 101
L 794 101
L 794 101
L 794 101
L 794 101
L 794 101
L 794 101
L 794 101
L 794 100
L 794 100
L 795 100
L 795 100
L 795 100
L 795 100
L 795 100
L 795 100
L 795 100
L 795 100
L 795 100
L 795 100
L 795 100
L 795 100
L 796 100
L 796 100
L 796 100
L 796 99
L 796 99
L 797 99
L 797 99
L 797 99
L 797 99
L 797 99
L 797 99
L 797 99
L 797 99
L 797 99
L 797 99
L 797 99
L 798 99
L 798 99
L 798 99
L 798 99
L 798 98
L 798 98
L 798 98
L 798 98
L 798 98
L 798 98
L 799 98
L 799 98
L 799 98
L 799 98
L 799 98
L 799 98
L 799 98
L 799 98
L 799 98
L 799 98
L 800 98
L 800 98
L 800 97
L 801 97
L 803 97
L 804 97
L 804 97
L 804 97
L 804 97
L 804 97
L 804 97
L 805 97
L 805 97
L 805 97
L 805 97
L 805 97
L 805 97
L 805 97
L 805 97
L 805 96
L 805 96
L 805 96
L 805 96
L 805 96
L 805 96
L 805 96
L 805 96
L 805 96
L 805 96
L 805 96
L 805 96
L 805 96
L 805 96
L 805 96
L 805 96
L 805 96
L 805 96
L 805 95
L 805 95
L 805 95
L 805 95
L 805 95
L 805 95
L 805 95
L 805 95
L 805 95
L 805 95
L 805 95
L 805 95
L 805 95
L 805 95
L 805 95
L 805 95
L 805 95
L 805 94
L 805 94
L 805 94
L 805 94
L 805 94
L 805 94
L 805 94
L 805 94
L 805 94
L 805 94
L 805 94
L 806 94
L 806 94
L 806 94
L 806 94
L 806 94
L 806 94
L 806 93
L 806 93
L 806 93
L 806 93
L 806 93
L 806 93
L 806 93
L 806 93
L 806 93
L 806 93
L 806 93
L 806 93
L 806 93
L 806 93
L 806 93
L 806 93
L 806 93
L 806 93
L 806 92
L 806 92
L 806 92
L 806 92
L 806 92
L 806 92
L 806 92
L 806 92
L 806 92
L 806 92
L 806 92
L 806 92
L 807 92
L 807 92
L 807 92
L 807 92
L 807 92
L 807 91
L 807 91
L 807 91
L 807 91
L 807 91
L 807 91
L 807 91
L 807 91
L 808 91
L 808 91
L 808 91
L 808 91
L 808 91
L 808 91
L 808 91
L 808 91
L 808 91
L 808 90
L 808 90
L 808 90
L 808 90
L 808 90
L 808 90
L 808 90
L 808 90
L 808 90
L 808 90
L 808 90
L 808 90
L 808 90
L 808 90
L 809 90
L 809 90
L 809 90
L 809 90
L 809 89
L 809 89
L 809 89
L 809 89
L 809 89
L 809 89
L 809 89
L 809 89
L 809 89
L 809 89
L 809 89
L 809 89
L 809 89
L 809 89
L 809 89
L 809 89
L 809 89
L 809 88
L 809 88
L 809 88
L 809 88
L 809 88
L 809 88
L 809 88
L 809 88
L 809 88
L 809 88
L 809 88
L 809 88
L 809 88
L 809 88
L 809 88
L 809 88
L 809 88
L 809 87
L 809 87
L 809 87
L 809 87
L 809 87
L 810 87
L 810 87
L 810 87
L 810 87
L 810 87
L 810 87
L 810 87
L 810 87
L 810 87
L 810 87
L 810 87
L 810 87
L 810 87
L 810 86
L 810 86
L 810 86
L 810 86
L 810 86
L 810 86
L 810 86
L 810 86
L 810 86
L 810 86
L 810 86
L 810 86
L 810 86
L 810 86
L 810 86
L 810 86
L 811 86
L 811 85
L 811 85
L 811 85
L 811 85
L 811 85
L 811 85
L 811 85
L 811 85
L 811 85
L 811 85
L 811 85
L 811 85
L 812 85
L 812 85
L 812 85
L 812 85
L 812 85
L 812 84
L 812 84
L 812 84
L 812 84
L 812 84
L 812 84
L 812 84
L 812 84
L 812 84
L 812 84
L 812 84
L 812 84
L 812 84
L 812 84
L 813 84
L 813 84
L 813 84
L 813 84
L 813 83
L 813 83
L 813 83
L 813 83
L 813 83
L 813 83
L 813 83
L 813 83
L 813 83
L 813 83
L 813 83
L 813 83
L 813 83
L 813 83
L 813 83
L 813 83
L 813 83
L 813 82
L 813 82
L 813 82
L 814 82
L 814 82
L 814 82
L 814 82
L 814 82
L 814 82
L 814 82
L 814 82
L 814 82
L 814 82
L 814 82
L 814 82
L 815 82
L 815 82
L 815 81
L 815 81
L 815 81
L 815 81
L 815 81
L 815 81
L 815 81
L 816 81
L 816 81
L 816 81
L 816 81
L 816 81
L 816 81
L 817 81
L 817 81
L 817 81
L 817 81
L 818 81
L 818 80
L 820 80
L 820 80
L 820 80
L 821 80
L 821 80
L 821 80
L 821 80
L 821 80
L 821 80
L 821 80
L 821 80
L 821 80
L 821 80
L 821 80
L 821 80
L 821 80
L 821 79
L 821 79
L 821 79
L 821 79
L 821 79
L 821 79
L 821 79
L 821 79
L 821 79
L 822 79
L 822 79
L 822 79
L 822 79
L 822 79
L 822 79
L 822 79
L 822 79
L 822 79
L 822 78
L 822 78
L 822 78
L 822 78
L 822 78
L 822 78
L 822 78
L 822 78
L 822 78
L 822 78
L 822 78
L 822 78
L 822 78
L 822 78
L 822 78
L 822 78
L 822 78
L 822 77
L 823 77
L 823 77
L 823 77
L 823 77
L 823 77
L 823 77
L 823 77
L 824 77
L 824 77
L 824 77
L 824 77
L 824 77
L 824 77
L 824 77
L 824 77
L 824 77
L 824 76
L 824 76
L 824 76
L 824 76
L 824 76
L 824 76
L 824 76
L 824 76
L 824 76
L 824 76
L 824 76
L 824 76
L 824 76
L 824 76
L 824 76
L 824 76
L 824 76
L 824 76
L 825 75
L 825 75
L 825 75
L 825 75
L 825 75
L 825 75
L 825 75
L 825 75
L 825 75
L 825 75
L 825 75
L 825 75
L 825 75
L 825 75
L 825 75
L 825 75
L 825 75
L 825 74
L 825 74
L 825 74
L 825 74
L 825 74
L 825 74
L 825 74
L 825 74
L 825 74
L 826 74
L 826 74
L 826 74
L 826 74
L 826 74
L 826 74
L 826 74
L 826 74
L 826 73
L 826 73
L 826 73
L 826 73
L 826 73
L 826 73
L 826 73
L 826 73
L 826 73
L 826 73
L 826 73
L 826 73
L 827 73
L 827 73
L 827 73
L 827 73
L 827 73
L 827 73
L 827 72
L 827 72
L 827 72
L 827 72
L 827 72
L 827 72
L 827 72
L 827 72
L 827 72
L 828 72
L 828 72
L 828 72
L 828 72
L 828 72
L 828 72
L 829 72
L 829 72
L 829 71
L 829 71
L 829 71
L 829 71
L 829 71
L 829 71
L 829 71
L 829 71
L 829 71
L 829 71
L 829 71
L 830 71
L 830 71
L 830 71
L 830 71
L 830 71
L 831 71
L 831 70
L 831 70
L 831 70
L 831 70
L 831 70
L 831 70
L 831 70
L 831 70
L 832 70
L 832 70
L 833 70
L 833 70
L 833 70
L 833 70
L 836 70
L 837 70
L 837 70
L 838 70
L 838 69
L 838 69
L 838 69
L 838 69
L 838 69
L 838 69
L 838 69
L 839 69
L 839 69
L 839 69
L 839 69
L 839 69
L 839 69
L 840 69
L 840 69
L 840 69
L 840 69
L 841 68
L 841 68
L 841 68
L 841 68
L 841 68
L 841 68
L 841 68
L 841 68
L 842 68
L 842 68
L 842 68
L 842 68
L 842 68
L 842 68
L 842 68
L 842 68
L 842 68
L 843 67
L 843 67
L 843 67
L 843 67
L 843 67
L 843 67
L 843 67
L 843 67
L 844 67
L 844 67
L 845 67
L 845 67
L 845 67
L 845 67
L 846 67
L 846 67
L 846 67
L 847 67
L 847 66
L 847 66
L 847 66
L 847 66
L 848 66
L 848 66
L 848 66
L 850 66
L 852 66
L 853 66
L 854 66
L 854 66
L 855 66
L 855 66
L 855 66
L 856 66
L 856 66
L 856 65
L 856 65
L 856 65
L 856 65
L 857 65
L 857 65
L 857 65
L 857 65
L 858 65
L 858 65
L 858 65
L 858 65
L 858 65
L 858 65
L 859 65
L 859 65
L 860 65
L 860 64
L 860 64
L 860 64
L 860 64
L 861 64
L 861 64
L 861 64
L 861 64
L 861 64
L 862 64
L 862 64
L 862 64
L 862 64
L 862 64
L 862 64
L 863 64
L 863 64
L 863 64
L 864 63
L 865 63
L 868 63
L 869 63
L 869 63
L 869 63
L 869 63
L 869 63
L 869 63
L 869 63
L 869 63
L 869 63
L 869 63
L 869 63
L 869 63
L 870 63
L 870 63
L 870 62
L 870 62
L 870 62
L 870 62
L 870 62
L 870 62
L 870 62
L 870 62
L 870 62
L 870 62
L 870 62
L 870 62
L 870 62
L 870 62
L 871 62
L 871 62
L 871 62
L 871 62
L 871 61
L 871 61
L 871 61
L 871 61
L 872 61
L 872 61
L 872 61
L 872 61
L 872 61
L 872 61
L 872 61
L 873 61
L 873 61
L 873 61
L 873 61
L 873 61
L 873 61
L 873 60
L 873 60
L 873 60
L 874 60
L 874 60
L 874 60
L 874 60
L 874 60
L 874 60
L 874 60
L 874 60
L 874 60
L 874 60
L 874 60
L 874 60
L 874 60
L 874 60
L 874 59
L 874 59
L 874 59
L 875 59
L 875 59
L 875 59
L 875 59
L 875 59
L 875 59
L 875 59
L 875 59
L 876 59
L 876 59
L 876 59
L 876 59
L 876 59
L 876 59
L 877 59
L 877 58
L 877 58
L 877 58
L 877 58
L 877 58
L 877 58
L 877 58
L 877 58
L 877 58
L 877 58
L 877 58
L 878 58
L 878 58
L 878 58
L 878 58
L 878 58
L 878 58
L 878 57
L 878 57
L 878 57
L 879 57
L 879 57
L 879 57
L 879 57
L 879 57
L 879 57
L 879 57
L 879 57
L 880 57
L 880 57
L 882 57
L 882 57
L 884 57
L 885 57
L 885 56
L 885 56
L 885 56
L 885 56
L 885 56
L 885 56
L 886 56
L 886 56
L 886 56
L 886 56
L 886 56
L 886 56
L 886 56
L 886 56
L 886 56
L 886 56
L 886 56
L 886 56
L 886 55
L 886 55
L 886 55
L 886 55
L 886 55
L 886 55
L 886 55
L 886 55
L 886 55
L 886 55
L 886 55
L 886 55
L 886 55
L 886 55
L 886 55
L 886 55
L 886 55
L 886 54
L 886 54
L 886 54
L 886 54
L 886 54
L 886 54
L 886 54
L 886 54
L 886 54
L 886 54
L 886 54
L 886 54
L 886 54
L 886 54
L 886 54
L 886 54
L 887 54
L 887 53
L 887 53
L 887 53
L 887 53
L 887 53
L 887 53
L 887 53
L 887 53
L 887 53
L 887 53
L 887 53
L 887 53
L 887 53
L 887 53
L 887 53
L 887 53
L 887 53
L 887 53
L 887 52
L 887 52
L 887 52
L 887 52
L 887 52
L 887 52
L 887 52
L 887 52
L 887 52
L 887 52
L 887 52
L 887 52
L 887 52
L 887 52
L 887 52
L 887 52
L 887 52
L 887 51
L 887 51
L 887 51
L 887 51
L 887 51
L 887 51
L 888 51
L 888 51
L 888 51
L 888 51
L 888 51
L 888 51
L 888 51
L 888 51
L 888 51
L 888 51
L 888 51
L 888 50
L 888 50
L 888 50
L 888 50
L 888 50
L 888 50
L 889 50
L 889 50
L 889 50
L 889 50
L 889 50
L 889 50
L 889 50
L 889 50
L 889 50
L 889 50
L 889 50
L 889 50
L 889 49
L 889 49
L 889 49
L 889 49
L 889 49
L 890 49
L 890 49
L 890 49
L 890 49
L 890 49
L 890 49
L 890 49
L 890 49
L 890 49
L 890 49
L 890 49
L 890 49
L 890 48
L 890 48
L 890 48
L 890 48
L 890 48
L 890 48
L 890 48
L 891 48
L 891 48
L 891 48
L 891 48
L 891 48
L 891 48
L 891 48
L 891 48
L 891 48
L 891 48
L 891 47
L 891 47
L 891 47
L 891 47
L 891 47
L 891 47
L 891 47
L 891 47
L 891 47
L 891 47
L 891 47
L 891 47
L 891 47
L 891 47
L 891 47
L 892 47
L 892 47
L 892 47
L 892 46
L 892 46
L 892 46
L 892 46
L 892 46
L 892 46
L 892 46
L 892 46
L 892 46
L 892 46
L 892 46
L 892 46
L 892 46
L 892 46
L 892 46
L 892 46
L 893 46
L 893 45
L 893 45
L 893 45
L 893 45
L 893 45
L 893 45
L 893 45
L 893 45
L 893 45
L 893 45
L 893 45
L 893 45
L 894 45
L 894 45
L 894 45
L 894 45
L 894 45
L 894 45
L 894 44
L 894 44
L 894 44
L 895 44
L 895 44
L 896 44
L 897 44
L 897 44
L 897 44
L 898 44
L 899 44
L 901 44
L 901 44
L 901 44
L 901 44
L 901 44
L 901 44
L 901 43
L 901 43
L 901 43
L 901 43
L 901 43
L 901 43
L 901 43
L 901 43
L 901 43
L 901 43
L 901 43
L 901 43
L 901 43
L 901 43
L 901 43
L 902 43
L 902 43
L 902 42
L 902 42
L 902 42
L 902 42
L 902 42
L 902 42
L 902 42
L 902 42
L 902 42
L 902 42
L 902 42
L 902 42
L 902 42
L 902 42
L 902 42
L 902 42
L 902 42
L 902 42
L 902 41
L 902 41
L 902 41
L 902 41
L 902 41
L 902 41
L 902 41
L 902 41
L 902 41
L 902 41
L 902 41
L 902 41
L 902 41
L 902 41
L 902 41
L 902 41
L 902 41
L 902 40
L 902 40
L 902 40
L 902 40
L 902 40
L 902 40
L 902 40
L 903 40
L 903 40
L 903 40
L 903 40
L 903 40
L 903 40
L 903 40
L 903 40
L 903 40
L 903 40
L 903 39
L 903 39
L 903 39
L 903 39
L 903 39
L 903 39
L 903 39
L 903 39
L 903 39
L 903 39
L 903 39
L 903 39
L 903 39
L 903 39
L 903 39
L 903 39
L 903 39
L 904 39
L 904 38
L 904 38
L 904 38
L 904 38
L 904 38
L 904 38
L 904 38
L 904 38
L 904 38
L 904 38
L 904 38
L 904 38
L 904 38
L 904 38
L 904 38
L 904 38
L 904 38
L 904 37
L 904 37
L 904 37
L 904 37
L 904 37
L 904 37
L 905 37
L 905 37
L 905 37
L 905 37
L 905 37
L 905 37
L 905 37
L 905 37
L 905 37
L 905 37
L 905 37
L 905 36
L 905 36
L 905 36
L 905 36
L 905 36
L 905 36
L 905 36
L 905 36
L 905 36
L 905 36
L 905 36
L 905 36
L 905 36
L 905 36
L 905 36
L 905 36
L 906 36
L 906 36
L 906 35
L 906 35
L 906 35
L 906 35
L 906 35
L 906 35
L 906 35
L 906 35
L 906 35
L 906 35
L 906 35
L 906 35
L 906 35
L 906 35
L 906 35
L 906 35
L 906 35
L 906 34
L 906 34
L 906 34
L 906 34
L 906 34
L 906 34
L 906 34
L 906 34
L 907 34
L 907 34
L 907 34
L 907 34
L 907 34
L 907 34
L 907 34
L 907 34
L 907 34
L 907 33
L 907 33
L 907 33
L 907 33
L 907 33
L 907 33
L 907 33
L 907 33
L 907 33
L 907 33
L 907 33
L 907 33
L 907 33
L 907 33
L 907 33
L 908 33
L 908 33
L 908 33
L 908 32
L 908 32
L 908 32
L 908 32
L 908 32
L 908 32
L 908 32
L 908 32
L 908 32
L 908 32
L 909 32
L 909 32
L 909 32
L 909 32
L 909 32
L 910 32
L 910 32
L 910 31
L 910 31
L 910 31
L 910 31
L 910 31
L 910 31
L 911 31
L 911 31
L 911 31
L 911 31
L 911 31
L 911 31
L 911 31
L 911 31
L 911 31
L 912 31
L 912 31
L 912 30
L 913 30
L 915 30
L 915 30
L 915 30
L 916 30
L 916 30
L 916 30
L 917 30
L 917 30
L 917 30
L 917 30
L 917 30
L 917 30
L 917 30
L 917 30
L 917 30
L 917 30
L 917 29
L 918 29
L 918 29
L 918 29
L 918 29
L 918 29
L 918 29
L 918 29
L 918 29
L 918 29
L 918 29
L 918 29
L 918 29
L 918 29
L 918 29
L 918 29
L 918 29
L 918 28
L 918 28
L 918 28
L 918 28
L 918 28
L 918 28
L 918 28
L 918 28
L 918 28
L 919 28
L 919 28
L 919 28
L 919 28
L 919 28
L 919 28
L 919 28
L 919 28
L 919 28
L 919 27
L 919 27
L 919 27
L 919 27
L 919 27
L 919 27
L 919 27
L 919 27
L 919 27
L 919 27
L 919 27
L 919 27
L 919 27
L 919 27
L 919 27
L 920 27
L 920 27
L 920 26
L 920 26
L 920 26
L 920 26
L 920 26
L 920 26
L 920 26
L 920 26
L 920 26
L 920 26
L 920 26
L 920 26
L 920 26
L 920 26
L 920 26
L 921 26
L 921 26
L 921 25
L 921 25
L 921 25
L 921 25
L 921 25
L 921 25
L 921 25
L 921 25
L 921 25
L 921 25
L 921 25
L 921 25
L 921 25
L 921 25
L 921 25
L 921 25
L 922 25
L 922 25
L 922 24
L 922 24
L 922 24
L 922 24
L 922 24
L 922 24
L 922 24
L 922 24
L 922 24
L 922 24
L 922 24
L 922 24
L 922 24
L 922 24
L 922 24
L 922 24
L 922 24
L 923 23
L 923 23
L 923 23
L 923 23
L 923 23
L 923 23
L 923 23
L 923 23
L 923 23
L 923 23
L 923 23
L 923 23
L 923 23
L 923 23
L 923 23
L 923 23
L 923 23
L 923 22
L 923 22
L 923 22
L 924 22
L 924 22
L 924 22
L 924 22
L 924 22
L 924 22
L 924 22
L 924 22
L 924 22
L 925 22
L 925 22
L 925 22
L 925 22
L 925 22
L 926 22
L 926 21
L 926 21
L 926 21
L 926 21
L 926 21
L 927 21
L 927 21
L 927 21
L 927 21
L 927 21
L 927 21
L 927 21
L 927 21
L 928 21
L 928 21
L 928 21
L 928 21
L 929 20
L 932 20
L 932 20
L 933 20
L 933 20
L 933 20
L 933 20
L 933 20
L 933 20
L 933 20
L 933 20
L 933 20
L 933 20
L 934 20
L 934 20
L 934 20
L 934 20
L 934 19
L 934 19
L 934 19
L 934 19
L 934 19
L 934 19
L 934 19
L 934 19
L 934 19
L 934 19
L 934 19
L 934 19
L 934 19
L 934 19
L 934 19
L 934 19
L 934 19
L 934 19
L 934 18
L 934 18
L 935 18
L 935 18
L 935 18
L 935 18
L 935 18
L 935 18
L 935 18
L 935 18
L 935 18
L 935 18
L 935 18
L 935 18
L 935 18
L 935 18
L 935 18
L 935 17
L 935 17
L 936 17
L 936 17
L 936 17
L 936 17
L 936 17
L 936 17
L 936 17
L 936 17
L 936 17
L 937 17
L 937 17
L 937 17
L 937 17
L 937 17
L 937 17
L 937 16
L 937 16
L 937 16
L 937 16
L 937 16
L 937 16
L 937 16
L 937 16
L 938 16
L 938 16
L 938 16
L 938 16
L 938 16
L 938 16
L 938 16
L 938 16
L 938 16
L 938 16
L 938 15
L 938 15
L 938 15
L 938 15
L 938 15
L 938 15
L 938 15
L 939 15
L 939 15
L 939 15
L 939 15
L 939 15
L 939 15
L 939 15
L 939 15
L 939 15
L 939 15
L 939 14
L 940 14
L 940 14
L 940 14
L 940 14
L 940 14
L 940 14
L 940 14
L 940 14
L 940 14
L 940 14
L 940 14
L 940 14
L 940 14
L 940 14
L 941 14
L 941 14
L 941 13
L 941 13
L 942 13
L 942 13
L 942 13
L 942 13
L 943 13
L 943 13
L 943 13
L 943 13
L 943 13
L 943 13
L 947 13
L 950 13
L 950 13
L 950 13
L 950 13
L 951 13
L 951 12
L 951 12
L 951 12
L 951 12
L 952 12
L 952 12
L 952 12
L 953 12
L 953 12
L 953 12
L 953 12
L 953 12
L 953 12
L 954 12
L 954 12
L 954 12
L 954 12
L 955 11
L 955 11
L 955 11
L 955 11
L 956 11
L 956 11
L 957 11
L 957 11
L 957 11
L 957 11
L 957 11
L 957 11
L 957 11
L 957 11
L 957 11
L 957 11
L 957 11" style="stroke-width:2;stroke:rgba(129,199,239,1.0);fill:none"/></svg>