<svg xmlns="http://www.w3.org/2000/svg" xmlns:xlink="http://www.w3.org/1999/xlink" width="1024" height="400">\n<path  d="M 0 0
L 1024 0
L 1024 400
L 0 400
L 0 0" style="stroke-width:0;stroke:rgba(255,255,255,1.0);fill:rgba(255,255,255,1.0)"/><path  d="M 38 11
L 957 11
L 957 351
L 38 351
L 38 11" style="stroke-width:0;stroke:rgba(255,255,255,1.0);fill:rgba(255,255,255,1.0)"/><path  d="M 38 351
L 957 351" style="stroke-width:2;stroke:rgba(85,85,85,1.0);fill:none"/><path  d="M 38 351
L 38 356" style="stroke-width:2;stroke:rgba(85,85,85,1.0);fill:none"/><text x="5" y="373" style="stroke-width:0;stroke:none;fill:rgba(51,51,51,1.0);font-size:12.8px;font-family:'Roboto Medium',sans-serif">2018-11-23</text><path  d="M 153 351
L 153 356" style="stroke-width:2;stroke:rgba(85,85,85,1.0);fill:none"/><text x="120" y="373" style="stroke-width:0;stroke:none;fill:rgba(51,51,51,1.0);font-size:12.8px;font-family:'Roboto Medium',sans-serif">2018-12-01</text><path  d="M 268 351
L 268 356" style="stroke-width:2;stroke:rgba(85,85,85,1.0);fill:none"/><text x="235" y="373" style="stroke-width:0;stroke:none;fill:rgba(51,51,51,1.0);font-size:12.8px;font-family:'Roboto Medium',sans-serif">2018-12-09</text><path  d="M 383 351
L 383 356" style="stroke-width:2;stroke:rgba(85,85,85,1.0);fill:none"/><text x="350" y="373" style="stroke-width:0;stroke:none;fill:rgba(51,51,51,1.0);font-size:12.8px;font-family:'Roboto Medium',sans-serif">2018-12-18</text><path  d="M 498 351
L 498 356" style="stroke-width:2;stroke:rgba(85,85,85,1.0);fill:none"/><text x="465" y="373" style="stroke-width:0;stroke:none;fill:rgba(51,51,51,1.0);font-size:12.8px;font-family:'Roboto Medium',sans-serif">2018-12-26</text><path  d="M 613 351
L 613 356" style="stroke-width:2;stroke:rgba(85,85,85,1.0);fill:none"/><text x="580" y="373" style="stroke-width:0;stroke:none;fill:rgba(51,51,51,1.0);font-size:12.8px;font-family:'Roboto Medium',sans-serif">2019-01-03</text><path  d="M 728 351
L 728 356" style="stroke-width:2;stroke:rgba(85,85,85,1.0);fill:none"/><text x="695" y="373" style="stroke-width:0;stroke:none;fill:rgba(51,51,51,1.0);font-size:12.8px;font-family:'Roboto Medium',sans-serif">2019-01-11</text><path  d="M 843 351
L 843 356" style="stroke-width:2;stroke:rgba(85,85,85,1.0);fill:none"/><text x="810" y="373" style="stroke-width:0;stroke:none;fill:rgba(51,51,51,1.0);font-size:12.8px;font-family:'Roboto Medium',sans-serif">2019-01-20</text><path  d="M 957 351
L 957 356" style="stroke-width:2;stroke:rgba(85,85,85,1.0);fill:none"/><text x="924" y="373" style="stroke-width:0;stroke:none;fill:rgba(51,51,51,1.0);font-size:12.8px;font-family:'Roboto Medium',sans-serif">2019-01-28</text><text x="483" y="395" style="stroke-width:0;stroke:none;fill:rgba(51,51,51,1.0);font-size:12.8px;font-family:'Roboto Medium',sans-serif">Time</text><path  d="M 959 351
L 959 11" style="stroke-width:2;stroke:rgba(85,85,85,1.0);fill:none"/><path  d="M 959 351
L 964 351" style="stroke-width:2;stroke:rgba(85,85,85,1.0);fill:none"/><text x="969" y="357" style="stroke-width:0;stroke:none;fill:rgba(51,51,51,1.0);font-size:12.8px;font-family:'Roboto Medium',sans-serif">0</text><path  d="M 959 308
L 964 308" style="stroke-width:2;stroke:rgba(85,85,85,1.0);fill:none"/><text x="969" y="314" style="stroke-width:0;stroke:none;fill:rgba(51,51,51,1.0);font-size:12.8px;font-family:'Roboto Medium',sans-serif">850</text><path  d="M 959 266
L 964 266" style="stroke-width:2;stroke:rgba(85,85,85,1.0);fill:none"/><text x="969" y="272" style="stroke-width:0;stroke:none;fill:rgba(51,51,51,1.0);font-size:12.8px;font-family:'Roboto Medium',sans-serif">1700</text><path  d="M 959 223
L 964 223" style="stroke-width:2;stroke:rgba(85,85,85,1.0);fill:none"/><text x="969" y="229" style="stroke-width:0;stroke:none;fill:rgba(51,51,51,1.0);font-size:12.8px;font-family:'Roboto Medium',sans-serif">2550</text><path  d="M 959 181
L 964 181" style="stroke-width:2;stroke:rgba(85,85,85,1.0);fill:none"/><text x="969" y="187" style="stroke-width:0;stroke:none;fill:rgba(51,51,51,1.0);font-size:12.8px;font-family:'Roboto Medium',sans-serif">3400</text><path  d="M 959 138
L 964 138" style="stroke-width:2;stroke:rgba(85,85,85,1.0);fill:none"/><text x="969" y="144" style="stroke-width:0;stroke:none;fill:rgba(51,51,51,1.0);font-size:12.8px;font-family:'Roboto Medium',sans-serif">4250</text><path  d="M 959 96
L 964 96" style="stroke-width:2;stroke:rgba(85,85,85,1.0);fill:none"/><text x="969" y="102" style="stroke-width:0;stroke:none;fill:rgba(51,51,51,1.0);font-size:12.8px;font-family:'Roboto Medium',sans-serif">5100</text><path  d="M 959 53
L 964 53" style="stroke-width:2;stroke:rgba(85,85,85,1.0);fill:none"/><text x="969" y="59" style="stroke-width:0;stroke:none;fill:rgba(51,51,51,1.0);font-size:12.8px;font-family:'Roboto Medium',sans-serif">5950</text><path  d="M 959 11
L 964 11" style="stroke-width:2;stroke:rgba(85,85,85,1.0);fill:none"/><text x="969" y="17" style="stroke-width:0;stroke:none;fill:rgba(51,51,51,1.0);font-size:12.8px;font-family:'Roboto Medium',sans-serif">6800</text><text x="1009" y="150" style="stroke-width:0;stroke:none;fill:rgba(51,51,51,1.0);font-size:12.8px;font-family:'Roboto Medium',sans-serif" transform="rotate(90.00,1009,150)">Stargazers</text><path  d="M 38 351
L 111 350
L 162 350
L 165 350
L 176 350
L 176 350
L 176 350
L 177 350
L 177 350
L 177 350
L 177 350
L 177 350
L 177 350
L 178 350
L 178 350
L 178 350
L 178 350
L 178 350
L 178 350
L 178 350
L 179 350
L 179 349
L 181 349
L 182 349
L 189 349
L 190 349
L 190 349
L 190 349
L 191 349
L 192 349
L 194 349
L 195 349
L 196 349
L 196 349
L 196 349
L 196 349
L 196 349
L 196 349
L 200 349
L 202 349
L 203 349
L 203 348
L 203 348
L 203 348
L 203 348
L 204 348
L 204 348
L 204 348
L 204 348
L 204 348
L 206 348
L 207 348
L 207 348
L 207 348
L 207 348
L 207 348
L 207 348
L 208 348
L 208 348
L 209 348
L 209 348
L 209 347
L 210 347
L 210 347
L 211 347
L 211 347
L 211 347
L 211 347
L 212 347
L 215 347
L 217 347
L 217 347
L 217 347
L 217 347
L 217 347
L 218 347
L 218 347
L 218 347
L 219 347
L 219 347
L 219 347
L 219 346
L 219 346
L 219 346
L 219 346
L 219 346
L 219 346
L 219 346
L 219 346
L 219 346
L 219 346
L 219 346
L 219 346
L 219 346
L 219 346
L 219 346
L 219 346
L 219 346
L 219 346
L 219 346
L 219 346
L 219 345
L 219 345
L 219 345
L 219 345
L 219 345
L 219 345
L 219 345
L 220 345
L 220 345
L 220 345
L 220 345
L 220 345
L 220 345
L 220 345
L 220 345
L 220 345
L 220 345
L 220 345
L 220 345
L 220 345
L 220 344
L 220 344
L 220 344
L 220 344
L 220 344
L 220 344
L 220 344
L 220 344
L 221 344
L 221 344
L 221 344
L 221 344
L 221 344
L 221 344
L 222 344
L 222 344
L 222 344
L 222 344
L 222 344
L 222 344
L 222 343
L 222 343
L 222 343
L 222 343
L 223 343
L 223 343
L 223 343
L 223 343
L 223 343
L 223 343
L 223 343
L 223 343
L 225 343
L 226 343
L 230 343
L 230 343
L 231 343
L 231 343
L 231 343
L 231 343
L 231 342
L 231 342
L 232 342
L 233 342
L 233 342
L 233 342
L 233 342
L 233 342
L 234 342
L 234 342
L 234 342
L 234 342
L 235 342
L 235 342
L 235 342
L 235 342
L 235 342
L 236 342
L 236 342
L 237 342
L 244 341
L 245 341
L 245 341
L 245 341
L 245 341
L 247 341
L 248 341
L 249 341
L 252 341
L 253 341
L 253 341
L 255 341
L 259 341
L 259 341
L 262 341
L 262 341
L 263 341
L 263 341
L 264 341
L 264 341
L 264 340
L 264 340
L 264 340
L 264 340
L 265 340
L 265 340
L 268 340
L 272 340
L 272 340
L 272 340
L 273 340
L 273 340
L 273 340
L 275 340
L 276 340
L 276 340
L 280 340
L 280 340
L 286 340
L 289 339
L 289 339
L 289 339
L 289 339
L 292 339
L 292 339
L 300 339
L 300 339
L 300 339
L 301 339
L 301 339
L 303 339
L 303 339
L 305 339
L 305 339
L 306 339
L 308 339
L 309 339
L 314 339
L 319 339
L 320 339
L 326 338
L 329 338
L 329 338
L 331 338
L 331 338
L 331 338
L 331 338
L 333 338
L 334 338
L 335 338
L 335 338
L 335 338
L 337 338
L 339 338
L 342 338
L 344 338
L 344 338
L 345 338
L 345 338
L 345 337
L 346 337
L 347 337
L 348 337
L 349 337
L 349 337
L 349 337
L 350 337
L 356 337
L 356 337
L 356 337
L 357 337
L 359 337
L 361 337
L 362 337
L 362 337
L 363 337
L 368 337
L 369 337
L 369 337
L 370 337
L 370 336
L 370 336
L 374 336
L 374 336
L 376 336
L 377 336
L 383 336
L 384 336
L 386 336
L 387 336
L 388 336
L 388 336
L 388 336
L 390 336
L 390 336
L 392 336
L 392 336
L 397 336
L 398 336
L 399 335
L 400 335
L 400 335
L 400 335
L 400 335
L 401 335
L 403 335
L 411 335
L 411 335
L 411 335
L 411 335
L 413 335
L 413 335
L 415 335
L 415 335
L 415 335
L 418 335
L 418 335
L 418 335
L 418 335
L 418 335
L 420 334
L 425 334
L 426 334
L 426 334
L 426 334
L 426 334
L 426 334
L 426 334
L 426 334
L 426 334
L 426 334
L 428 334
L 428 334
L 428 334
L 428 334
L 428 334
L 428 334
L 428 334
L 428 334
L 428 334
L 428 333
L 428 333
L 428 333
L 428 333
L 428 333
L 428 333
L 428 333
L 428 333
L 428 333
L 428 333
L 429 333
L 429 333
L 429 333
L 429 333
L 429 333
L 429 333
L 429 333
L 429 333
L 429 333
L 429 333
L 429 332
L 429 332
L 429 332
L 429 332
L 429 332
L 429 332
L 429 332
L 430 332
L 430 332
L 430 332
L 430 332
L 430 332
L 430 332
L 430 332
L 430 332
L 430 332
L 430 332
L 430 332
L 430 332
L 430 332
L 430 331
L 430 331
L 431 331
L 431 331
L 431 331
L 431 331
L 431 331
L 432 331
L 432 331
L 432 331
L 432 331
L 432 331
L 432 331
L 432 331
L 432 331
L 432 331
L 432 331
L 433 331
L 433 331
L 433 331
L 433 330
L 434 330
L 434 330
L 434 330
L 438 330
L 439 330
L 439 330
L 439 330
L 439 330
L 439 330
L 439 330
L 440 330
L 440 330
L 440 330
L 440 330
L 440 330
L 440 330
L 440 330
L 440 330
L 440 330
L 440 329
L 440 329
L 440 329
L 440 329
L 441 329
L 441 329
L 441 329
L 441 329
L 441 329
L 441 329
L 441 329
L 441 329
L 441 329
L 442 329
L 442 329
L 442 329
L 442 329
L 442 329
L 442 329
L 442 328
L 442 328
L 442 328
L 442 328
L 442 328
L 442 328
L 442 328
L 443 328
L 443 328
L 443 328
L 443 328
L 443 328
L 443 328
L 443 328
L 443 328
L 443 328
L 443 328
L 443 328
L 443 328
L 443 328
L 443 328
L 443 327
L 443 327
L 443 327
L 443 327
L 443 327
L 443 327
L 443 327
L 444 327
L 444 327
L 444 327
L 444 327
L 444 327
L 444 327
L 444 327
L 444 327
L 444 327
L 445 327
L 445 327
L 445 327
L 445 327
L 445 326
L 445 326
L 445 326
L 445 326
L 445 326
L 445 326
L 445 326
L 445 326
L 446 326
L 446 326
L 446 326
L 446 326
L 446 326
L 446 326
L 446 326
L 446 326
L 446 326
L 446 326
L 446 326
L 446 326
L 446 325
L 446 325
L 446 325
L 446 325
L 446 325
L 446 325
L 447 325
L 447 325
L 447 325
L 447 325
L 447 325
L 447 325
L 447 325
L 447 325
L 447 325
L 447 325
L 447 325
L 447 325
L 447 325
L 447 324
L 447 324
L 447 324
L 447 324
L 448 324
L 448 324
L 448 324
L 448 324
L 448 324
L 449 324
L 449 324
L 450 324
L 451 324
L 452 324
L 452 324
L 452 324
L 452 324
L 452 324
L 452 324
L 452 324
L 453 324
L 453 323
L 453 323
L 453 323
L 453 323
L 453 323
L 453 323
L 453 323
L 453 323
L 453 323
L 453 323
L 453 323
L 453 323
L 453 323
L 454 323
L 454 323
L 454 323
L 454 323
L 454 323
L 454 323
L 454 323
L 454 322
L 454 322
L 454 322
L 454 322
L 454 322
L 454 322
L 454 322
L 454 322
L 454 322
L 454 322
L 454 322
L 455 322
L 455 322
L 455 322
L 455 322
L 455 322
L 455 322
L 455 322
L 455 322
L 455 322
L 455 321
L 455 321
L 455 321
L 455 321
L 455 321
L 455 321
L 455 321
L 456 321
L 456 321
L 456 321
L 456 321
L 456 321
L 456 321
L 456 321
L 456 321
L 456 321
L 456 321
L 456 321
L 456 321
L 456 320
L 456 320
L 456 320
L 456 320
L 456 320
L 456 320
L 456 320
L 456 320
L 456 320
L 456 320
L 457 320
L 457 320
L 457 320
L 457 320
L 457 320
L 457 320
L 457 320
L 457 320
L 457 320
L 457 320
L 457 320
L 457 319
L 457 319
L 458 319
L 458 319
L 458 319
L 458 319
L 458 319
L 458 319
L 458 319
L 458 319
L 458 319
L 458 319
L 458 319
L 458 319
L 458 319
L 458 319
L 459 319
L 459 319
L 459 319
L 459 319
L 459 318
L 459 318
L 459 318
L 459 318
L 459 318
L 459 318
L 459 318
L 459 318
L 459 318
L 459 318
L 459 318
L 459 318
L 459 318
L 459 318
L 460 318
L 460 318
L 460 318
L 460 318
L 460 318
L 460 318
L 460 317
L 460 317
L 460 317
L 460 317
L 460 317
L 460 317
L 460 317
L 460 317
L 460 317
L 460 317
L 460 317
L 460 317
L 460 317
L 460 317
L 460 317
L 460 317
L 460 317
L 460 317
L 461 317
L 461 317
L 461 316
L 461 316
L 461 316
L 461 316
L 461 316
L 461 316
L 461 316
L 461 316
L 461 316
L 461 316
L 461 316
L 461 316
L 461 316
L 462 316
L 462 316
L 462 316
L 462 316
L 463 316
L 463 316
L 463 316
L 463 315
L 464 315
L 465 315
L 466 315
L 466 315
L 466 315
L 466 315
L 466 315
L 466 315
L 466 315
L 466 315
L 466 315
L 466 315
L 466 315
L 466 315
L 466 315
L 466 315
L 466 315
L 466 315
L 466 315
L 466 314
L 466 314
L 466 314
L 466 314
L 466 314
L 466 314
L 466 314
L 466 314
L 466 314
L 466 314
L 466 314
L 466 314
L 466 314
L 466 314
L 466 314
L 466 314
L 466 314
L 466 314
L 466 314
L 466 314
L 466 313
L 466 313
L 466 313
L 466 313
L 467 313
L 467 313
L 467 313
L 467 313
L 467 313
L 467 313
L 467 313
L 467 313
L 467 313
L 467 313
L 467 313
L 467 313
L 467 313
L 467 313
L 467 313
L 467 313
L 467 312
L 467 312
L 467 312
L 467 312
L 467 312
L 467 312
L 467 312
L 467 312
L 467 312
L 467 312
L 467 312
L 467 312
L 467 312
L 467 312
L 467 312
L 467 312
L 467 312
L 467 312
L 467 312
L 467 312
L 467 311
L 467 311
L 467 311
L 467 311
L 467 311
L 467 311
L 467 311
L 467 311
L 467 311
L 467 311
L 467 311
L 467 311
L 467 311
L 467 311
L 467 311
L 467 311
L 467 311
L 467 311
L 467 311
L 467 311
L 467 310
L 467 310
L 467 310
L 467 310
L 467 310
L 467 310
L 467 310
L 467 310
L 467 310
L 467 310
L 467 310
L 467 310
L 467 310
L 467 310
L 467 310
L 467 310
L 467 310
L 467 310
L 467 310
L 467 310
L 467 309
L 468 309
L 468 309
L 468 309
L 468 309
L 468 309
L 468 309
L 468 309
L 468 309
L 468 309
L 468 309
L 468 309
L 468 309
L 468 309
L 468 309
L 468 309
L 468 309
L 468 309
L 468 309
L 468 309
L 468 308
L 468 308
L 468 308
L 468 308
L 468 308
L 468 308
L 468 308
L 468 308
L 468 308
L 468 308
L 468 308
L 468 308
L 468 308
L 468 308
L 468 308
L 468 308
L 469 308
L 469 308
L 469 308
L 469 308
L 469 307
L 469 307
L 469 307
L 469 307
L 469 307
L 469 307
L 469 307
L 469 307
L 469 307
L 469 307
L 469 307
L 469 307
L 469 307
L 469 307
L 469 307
L 469 307
L 469 307
L 469 307
L 469 307
L 469 306
L 469 306
L 469 306
L 469 306
L 469 306
L 469 306
L 469 306
L 469 306
L 469 306
L 469 306
L 469 306
L 469 306
L 469 306
L 469 306
L 469 306
L 469 306
L 469 306
L 469 306
L 469 306
L 469 306
L 469 306
L 469 305
L 469 305
L 469 305
L 469 305
L 469 305
L 469 305
L 469 305
L 469 305
L 469 305
L 469 305
L 469 305
L 469 305
L 469 305
L 469 305
L 469 305
L 469 305
L 470 305
L 470 305
L 470 305
L 470 305
L 470 304
L 470 304
L 470 304
L 470 304
L 470 304
L 470 304
L 470 304
L 470 304
L 470 304
L 470 304
L 470 304
L 470 304
L 470 304
L 470 304
L 470 304
L 470 304
L 470 304
L 470 304
L 470 304
L 470 304
L 470 303
L 470 303
L 470 303
L 470 303
L 470 303
L 470 303
L 470 303
L 470 303
L 470 303
L 470 303
L 470 303
L 470 303
L 470 303
L 470 303
L 470 303
L 470 303
L 470 303
L 470 303
L 470 303
L 470 303
L 470 302
L 470 302
L 470 302
L 470 302
L 470 302
L 470 302
L 470 302
L 470 302
L 470 302
L 470 302
L 470 302
L 471 302
L 471 302
L 471 302
L 471 302
L 471 302
L 471 302
L 471 302
L 471 302
L 471 302
L 471 301
L 471 301
L 471 301
L 471 301
L 471 301
L 471 301
L 471 301
L 471 301
L 471 301
L 471 301
L 471 301
L 471 301
L 471 301
L 471 301
L 471 301
L 471 301
L 471 301
L 471 301
L 471 301
L 471 301
L 471 300
L 471 300
L 471 300
L 471 300
L 471 300
L 471 300
L 471 300
L 471 300
L 471 300
L 471 300
L 471 300
L 471 300
L 471 300
L 471 300
L 471 300
L 471 300
L 471 300
L 471 300
L 472 300
L 472 300
L 472 299
L 472 299
L 472 299
L 472 299
L 472 299
L 472 299
L 472 299
L 472 299
L 472 299
L 472 299
L 472 299
L 472 299
L 472 299
L 472 299
L 472 299
L 472 299
L 472 299
L 472 299
L 472 299
L 472 298
L 472 298
L 472 298
L 472 298
L 472 298
L 472 298
L 472 298
L 472 298
L 472 298
L 472 298
L 472 298
L 473 298
L 473 298
L 473 298
L 473 298
L 473 298
L 473 298
L 473 298
L 473 298
L 473 298
L 473 298
L 473 297
L 473 297
L 473 297
L 473 297
L 473 297
L 473 297
L 473 297
L 473 297
L 474 297
L 474 297
L 474 297
L 474 297
L 474 297
L 474 297
L 474 297
L 474 297
L 474 297
L 474 297
L 474 297
L 474 297
L 474 296
L 474 296
L 474 296
L 474 296
L 474 296
L 474 296
L 474 296
L 474 296
L 474 296
L 474 296
L 475 296
L 475 296
L 475 296
L 475 296
L 475 296
L 475 296
L 475 296
L 475 296
L 475 296
L 475 296
L 475 295
L 475 295
L 475 295
L 475 295
L 475 295
L 475 295
L 475 295
L 476 295
L 476 295
L 476 295
L 476 295
L 478 295
L 479 295
L 480 295
L 480 295
L 480 295
L 480 295
L 480 295
L 480 295
L 480 295
L 480 294
L 480 294
L 480 294
L 480 294
L 480 294
L 480 294
L 480 294
L 480 294
L 480 294
L 480 294
L 480 294
L 480 294
L 480 294
L 480 294
L 480 294
L 480 294
L 480 294
L 480 294
L 480 294
L 480 294
L 480 293
L 480 293
L 480 293
L 480 293
L 480 293
L 480 293
L 480 293
L 481 293
L 481 293
L 481 293
L 481 293
L 481 293
L 481 293
L 481 293
L 481 293
L 481 293
L 481 293
L 481 293
L 481 293
L 481 293
L 481 292
L 481 292
L 481 292
L 481 292
L 481 292
L 481 292
L 481 292
L 481 292
L 481 292
L 481 292
L 481 292
L 481 292
L 481 292
L 481 292
L 481 292
L 481 292
L 481 292
L 481 292
L 481 292
L 481 292
L 481 291
L 481 291
L 481 291
L 481 291
L 481 291
L 481 291
L 481 291
L 481 291
L 481 291
L 481 291
L 481 291
L 481 291
L 481 291
L 481 291
L 481 291
L 481 291
L 481 291
L 481 291
L 481 291
L 481 290
L 481 290
L 481 290
L 481 290
L 481 290
L 481 290
L 481 290
L 481 290
L 481 290
L 481 290
L 481 290
L 481 290
L 481 290
L 481 290
L 481 290
L 481 290
L 481 290
L 481 290
L 481 290
L 481 290
L 481 290
L 481 289
L 481 289
L 481 289
L 481 289
L 481 289
L 481 289
L 481 289
L 481 289
L 481 289
L 481 289
L 481 289
L 481 289
L 481 289
L 481 289
L 481 289
L 481 289
L 481 289
L 481 289
L 481 289
L 481 289
L 481 288
L 482 288
L 482 288
L 482 288
L 482 288
L 482 288
L 482 288
L 482 288
L 482 288
L 482 288
L 482 288
L 482 288
L 482 288
L 482 288
L 482 288
L 482 288
L 482 288
L 482 288
L 482 288
L 482 288
L 482 287
L 482 287
L 482 287
L 482 287
L 482 287
L 482 287
L 482 287
L 482 287
L 482 287
L 482 287
L 482 287
L 482 287
L 483 287
L 483 287
L 483 287
L 483 287
L 483 287
L 483 287
L 483 287
L 483 287
L 483 286
L 483 286
L 483 286
L 483 286
L 483 286
L 483 286
L 483 286
L 483 286
L 483 286
L 483 286
L 483 286
L 483 286
L 483 286
L 483 286
L 483 286
L 483 286
L 483 286
L 483 286
L 483 286
L 483 286
L 483 285
L 483 285
L 483 285
L 483 285
L 483 285
L 483 285
L 483 285
L 483 285
L 483 285
L 483 285
L 483 285
L 483 285
L 483 285
L 483 285
L 483 285
L 483 285
L 483 285
L 484 285
L 484 285
L 484 285
L 484 284
L 484 284
L 484 284
L 484 284
L 484 284
L 484 284
L 484 284
L 484 284
L 484 284
L 484 284
L 484 284
L 484 284
L 484 284
L 484 284
L 484 284
L 484 284
L 484 284
L 484 284
L 484 284
L 484 284
L 484 283
L 484 283
L 484 283
L 484 283
L 484 283
L 484 283
L 484 283
L 484 283
L 484 283
L 484 283
L 484 283
L 484 283
L 484 283
L 484 283
L 484 283
L 484 283
L 484 283
L 484 283
L 484 283
L 484 283
L 484 282
L 484 282
L 484 282
L 484 282
L 484 282
L 485 282
L 485 282
L 485 282
L 485 282
L 485 282
L 485 282
L 485 282
L 485 282
L 485 282
L 485 282
L 485 282
L 485 282
L 485 282
L 485 282
L 485 282
L 485 281
L 485 281
L 485 281
L 485 281
L 485 281
L 485 281
L 485 281
L 485 281
L 485 281
L 485 281
L 485 281
L 485 281
L 485 281
L 485 281
L 485 281
L 485 281
L 485 281
L 485 281
L 485 281
L 485 281
L 485 280
L 485 280
L 485 280
L 485 280
L 485 280
L 485 280
L 485 280
L 485 280
L 485 280
L 485 280
L 486 280
L 486 280
L 486 280
L 486 280
L 486 280
L 486 280
L 486 280
L 486 280
L 486 280
L 486 280
L 486 279
L 486 279
L 486 279
L 486 279
L 486 279
L 486 279
L 486 279
L 486 279
L 486 279
L 486 279
L 486 279
L 486 279
L 486 279
L 486 279
L 486 279
L 486 279
L 486 279
L 486 279
L 486 279
L 486 279
L 486 278
L 486 278
L 486 278
L 486 278
L 486 278
L 486 278
L 486 278
L 486 278
L 486 278
L 486 278
L 486 278
L 486 278
L 486 278
L 486 278
L 486 278
L 486 278
L 486 278
L 486 278
L 486 278
L 486 278
L 486 277
L 486 277
L 486 277
L 486 277
L 486 277
L 486 277
L 486 277
L 486 277
L 486 277
L 486 277
L 487 277
L 487 277
L 487 277
L 487 277
L 487 277
L 487 277
L 487 277
L 487 277
L 487 277
L 487 277
L 487 276
L 487 276
L 487 276
L 487 276
L 487 276
L 487 276
L 487 276
L 487 276
L 487 276
L 487 276
L 487 276
L 487 276
L 487 276
L 487 276
L 487 276
L 487 276
L 487 276
L 487 276
L 487 276
L 487 276
L 487 275
L 487 275
L 488 275
L 488 275
L 488 275
L 488 275
L 488 275
L 488 275
L 488 275
L 488 275
L 488 275
L 488 275
L 488 275
L 488 275
L 488 275
L 488 275
L 488 275
L 488 275
L 488 275
L 488 275
L 488 274
L 488 274
L 488 274
L 488 274
L 488 274
L 488 274
L 488 274
L 488 274
L 488 274
L 489 274
L 489 274
L 489 274
L 489 274
L 489 274
L 489 274
L 489 274
L 489 274
L 489 274
L 489 274
L 489 274
L 489 273
L 489 273
L 489 273
L 489 273
L 489 273
L 489 273
L 489 273
L 489 273
L 489 273
L 490 273
L 490 273
L 490 273
L 490 273
L 491 273
L 491 273
L 492 273
L 493 273
L 493 273
L 494 273
L 494 273
L 494 272
L 494 272
L 494 272
L 494 272
L 494 272
L 494 272
L 494 272
L 494 272
L 494 272
L 494 272
L 494 272
L 494 272
L 494 272
L 494 272
L 494 272
L 494 272
L 494 272
L 494 272
L 494 272
L 494 272
L 494 271
L 494 271
L 494 271
L 494 271
L 494 271
L 494 271
L 494 271
L 494 271
L 494 271
L 494 271
L 494 271
L 494 271
L 494 271
L 494 271
L 494 271
L 494 271
L 494 271
L 494 271
L 494 271
L 494 271
L 494 270
L 494 270
L 494 270
L 494 270
L 494 270
L 494 270
L 494 270
L 494 270
L 494 270
L 494 270
L 494 270
L 494 270
L 494 270
L 494 270
L 494 270
L 494 270
L 495 270
L 495 270
L 495 270
L 495 270
L 495 269
L 495 269
L 495 269
L 495 269
L 495 269
L 495 269
L 495 269
L 495 269
L 495 269
L 495 269
L 495 269
L 495 269
L 495 269
L 495 269
L 495 269
L 495 269
L 495 269
L 495 269
L 495 269
L 495 269
L 495 268
L 495 268
L 495 268
L 495 268
L 495 268
L 495 268
L 495 268
L 495 268
L 495 268
L 495 268
L 495 268
L 495 268
L 495 268
L 495 268
L 495 268
L 495 268
L 495 268
L 495 268
L 495 268
L 495 268
L 495 267
L 495 267
L 495 267
L 495 267
L 495 267
L 495 267
L 495 267
L 495 267
L 495 267
L 495 267
L 495 267
L 495 267
L 495 267
L 495 267
L 495 267
L 495 267
L 495 267
L 495 267
L 495 267
L 495 267
L 495 266
L 495 266
L 496 266
L 496 266
L 496 266
L 496 266
L 496 266
L 496 266
L 496 266
L 496 266
L 496 266
L 496 266
L 496 266
L 496 266
L 496 266
L 496 266
L 496 266
L 496 266
L 496 266
L 496 266
L 496 265
L 497 265
L 497 265
L 497 265
L 497 265
L 497 265
L 497 265
L 497 265
L 497 265
L 497 265
L 497 265
L 497 265
L 497 265
L 497 265
L 497 265
L 497 265
L 497 265
L 497 265
L 497 265
L 497 265
L 497 264
L 497 264
L 497 264
L 497 264
L 497 264
L 497 264
L 497 264
L 497 264
L 497 264
L 497 264
L 497 264
L 497 264
L 497 264
L 497 264
L 497 264
L 497 264
L 497 264
L 497 264
L 497 264
L 497 264
L 497 263
L 497 263
L 497 263
L 498 263
L 498 263
L 498 263
L 498 263
L 498 263
L 498 263
L 498 263
L 498 263
L 498 263
L 498 263
L 498 263
L 498 263
L 498 263
L 498 263
L 498 263
L 498 263
L 498 262
L 498 262
L 498 262
L 498 262
L 498 262
L 498 262
L 498 262
L 498 262
L 498 262
L 498 262
L 498 262
L 498 262
L 498 262
L 498 262
L 498 262
L 498 262
L 498 262
L 498 262
L 498 262
L 498 262
L 498 262
L 498 261
L 498 261
L 498 261
L 498 261
L 498 261
L 499 261
L 499 261
L 499 261
L 499 261
L 499 261
L 499 261
L 499 261
L 499 261
L 499 261
L 499 261
L 499 261
L 499 261
L 499 261
L 499 261
L 499 261
L 499 260
L 499 260
L 499 260
L 499 260
L 499 260
L 499 260
L 499 260
L 499 260
L 499 260
L 499 260
L 499 260
L 499 260
L 499 260
L 499 260
L 499 260
L 499 260
L 499 260
L 499 260
L 499 260
L 499 260
L 499 259
L 499 259
L 499 259
L 499 259
L 499 259
L 499 259
L 499 259
L 499 259
L 499 259
L 499 259
L 499 259
L 499 259
L 499 259
L 500 259
L 500 259
L 500 259
L 500 259
L 500 259
L 500 259
L 500 259
L 500 258
L 500 258
L 500 258
L 500 258
L 500 258
L 500 258
L 500 258
L 500 258
L 500 258
L 500 258
L 500 258
L 500 258
L 500 258
L 500 258
L 500 258
L 500 258
L 500 258
L 501 258
L 501 258
L 501 257
L 501 257
L 501 257
L 501 257
L 501 257
L 501 257
L 501 257
L 501 257
L 501 257
L 501 257
L 501 257
L 501 257
L 501 257
L 501 257
L 501 257
L 501 257
L 501 257
L 501 257
L 501 257
L 501 257
L 501 257
L 502 256
L 502 256
L 502 256
L 502 256
L 502 256
L 502 256
L 502 256
L 502 256
L 502 256
L 502 256
L 502 256
L 502 256
L 502 256
L 502 256
L 502 256
L 502 256
L 502 256
L 502 256
L 503 256
L 503 256
L 503 255
L 503 255
L 503 255
L 503 255
L 503 255
L 503 255
L 503 255
L 503 255
L 503 255
L 503 255
L 503 255
L 504 255
L 504 255
L 507 255
L 507 255
L 507 255
L 507 255
L 507 255
L 507 255
L 508 255
L 508 254
L 508 254
L 508 254
L 508 254
L 508 254
L 508 254
L 508 254
L 508 254
L 508 254
L 508 254
L 508 254
L 508 254
L 508 254
L 508 254
L 508 254
L 508 254
L 508 254
L 508 254
L 508 254
L 508 254
L 508 253
L 508 253
L 508 253
L 508 253
L 508 253
L 508 253
L 508 253
L 508 253
L 508 253
L 508 253
L 508 253
L 508 253
L 508 253
L 508 253
L 508 253
L 508 253
L 508 253
L 508 253
L 508 253
L 508 253
L 508 252
L 509 252
L 509 252
L 509 252
L 509 252
L 509 252
L 509 252
L 509 252
L 509 252
L 509 252
L 509 252
L 509 252
L 509 252
L 509 252
L 509 252
L 509 252
L 509 252
L 509 252
L 509 252
L 509 252
L 509 251
L 509 251
L 509 251
L 509 251
L 509 251
L 509 251
L 509 251
L 509 251
L 509 251
L 509 251
L 509 251
L 509 251
L 509 251
L 509 251
L 509 251
L 509 251
L 509 251
L 509 251
L 509 251
L 509 251
L 509 250
L 509 250
L 509 250
L 510 250
L 510 250
L 510 250
L 510 250
L 510 250
L 510 250
L 510 250
L 510 250
L 510 250
L 510 250
L 510 250
L 510 250
L 511 250
L 511 250
L 511 250
L 511 250
L 511 250
L 511 249
L 511 249
L 511 249
L 511 249
L 511 249
L 511 249
L 511 249
L 511 249
L 511 249
L 511 249
L 511 249
L 511 249
L 511 249
L 511 249
L 511 249
L 511 249
L 511 249
L 511 249
L 511 249
L 511 249
L 511 248
L 512 248
L 512 248
L 512 248
L 512 248
L 512 248
L 512 248
L 512 248
L 512 248
L 512 248
L 512 248
L 512 248
L 512 248
L 512 248
L 512 248
L 512 248
L 512 248
L 512 248
L 512 248
L 512 248
L 512 247
L 512 247
L 512 247
L 512 247
L 512 247
L 512 247
L 512 247
L 512 247
L 512 247
L 512 247
L 512 247
L 512 247
L 512 247
L 512 247
L 512 247
L 512 247
L 513 247
L 513 247
L 513 247
L 513 246
L 513 246
L 513 246
L 513 246
L 513 246
L 513 246
L 513 246
L 513 246
L 513 246
L 513 246
L 513 246
L 513 246
L 513 246
L 513 246
L 513 246
L 513 246
L 513 246
L 513 246
L 513 246
L 513 246
L 513 246
L 513 245
L 513 245
L 513 245
L 513 245
L 513 245
L 513 245
L 513 245
L 514 245
L 514 245
L 514 245
L 514 245
L 514 245
L 514 245
L 514 245
L 514 245
L 514 245
L 514 245
L 514 245
L 514 245
L 514 245
L 514 244
L 514 244
L 514 244
L 514 244
L 514 244
L 515 244
L 515 244
L 515 244
L 515 244
L 515 244
L 515 244
L 515 244
L 515 244
L 515 244
L 515 244
L 515 244
L 515 244
L 515 244
L 515 244
L 515 244
L 515 243
L 515 243
L 516 243
L 516 243
L 516 243
L 516 243
L 516 243
L 516 243
L 516 243
L 516 243
L 516 243
L 516 243
L 517 243
L 517 243
L 517 243
L 517 243
L 517 243
L 517 243
L 517 243
L 518 243
L 518 242
L 518 242
L 518 242
L 519 242
L 521 242
L 522 242
L 522 242
L 522 242
L 522 242
L 522 242
L 522 242
L 522 242
L 522 242
L 522 242
L 522 242
L 522 242
L 522 242
L 522 242
L 522 242
L 522 241
L 522 241
L 522 241
L 522 241
L 522 241
L 522 241
L 522 241
L 522 241
L 522 241
L 522 241
L 522 241
L 522 241
L 522 241
L 522 241
L 522 241
L 522 241
L 522 241
L 522 241
L 522 241
L 522 241
L 522 241
L 522 240
L 522 240
L 522 240
L 522 240
L 522 240
L 522 240
L 523 240
L 523 240
L 523 240
L 523 240
L 523 240
L 523 240
L 523 240
L 523 240
L 523 240
L 523 240
L 523 240
L 523 240
L 523 240
L 523 240
L 523 239
L 523 239
L 523 239
L 523 239
L 523 239
L 523 239
L 523 239
L 523 239
L 523 239
L 523 239
L 523 239
L 523 239
L 523 239
L 523 239
L 523 239
L 523 239
L 523 239
L 523 239
L 523 239
L 523 239
L 523 238
L 523 238
L 523 238
L 523 238
L 523 238
L 523 238
L 524 238
L 524 238
L 524 238
L 524 238
L 524 238
L 524 238
L 524 238
L 524 238
L 524 238
L 524 238
L 524 238
L 524 238
L 524 238
L 524 238
L 524 237
L 525 237
L 525 237
L 525 237
L 525 237
L 525 237
L 525 237
L 525 237
L 525 237
L 525 237
L 525 237
L 525 237
L 525 237
L 525 237
L 525 237
L 525 237
L 525 237
L 525 237
L 525 237
L 525 237
L 525 236
L 525 236
L 525 236
L 525 236
L 525 236
L 525 236
L 525 236
L 525 236
L 525 236
L 525 236
L 525 236
L 525 236
L 525 236
L 525 236
L 525 236
L 525 236
L 525 236
L 525 236
L 525 236
L 525 236
L 525 235
L 525 235
L 525 235
L 525 235
L 525 235
L 525 235
L 526 235
L 526 235
L 526 235
L 526 235
L 526 235
L 526 235
L 526 235
L 526 235
L 526 235
L 526 235
L 526 235
L 526 235
L 526 235
L 526 235
L 526 234
L 526 234
L 526 234
L 526 234
L 526 234
L 526 234
L 526 234
L 526 234
L 526 234
L 526 234
L 526 234
L 526 234
L 526 234
L 526 234
L 526 234
L 526 234
L 526 234
L 526 234
L 526 234
L 526 234
L 526 233
L 526 233
L 526 233
L 526 233
L 526 233
L 526 233
L 526 233
L 526 233
L 526 233
L 526 233
L 526 233
L 526 233
L 526 233
L 526 233
L 526 233
L 526 233
L 526 233
L 526 233
L 527 233
L 527 233
L 527 232
L 527 232
L 527 232
L 527 232
L 527 232
L 527 232
L 527 232
L 527 232
L 527 232
L 527 232
L 527 232
L 527 232
L 527 232
L 527 232
L 527 232
L 527 232
L 527 232
L 527 232
L 527 232
L 527 232
L 527 231
L 527 231
L 527 231
L 528 231
L 528 231
L 528 231
L 528 231
L 528 231
L 528 231
L 528 231
L 528 231
L 528 231
L 528 231
L 528 231
L 528 231
L 528 231
L 528 231
L 528 231
L 528 231
L 529 230
L 529 230
L 529 230
L 529 230
L 529 230
L 529 230
L 529 230
L 529 230
L 529 230
L 529 230
L 530 230
L 530 230
L 530 230
L 530 230
L 530 230
L 530 230
L 530 230
L 530 230
L 530 230
L 530 230
L 530 230
L 530 229
L 530 229
L 530 229
L 530 229
L 530 229
L 530 229
L 530 229
L 531 229
L 531 229
L 531 229
L 531 229
L 531 229
L 531 229
L 531 229
L 531 229
L 531 229
L 533 229
L 533 229
L 533 229
L 534 229
L 535 228
L 535 228
L 535 228
L 535 228
L 535 228
L 535 228
L 536 228
L 536 228
L 536 228
L 536 228
L 536 228
L 536 228
L 536 228
L 536 228
L 536 228
L 536 228
L 536 228
L 536 228
L 536 228
L 536 228
L 536 227
L 536 227
L 536 227
L 536 227
L 536 227
L 536 227
L 536 227
L 536 227
L 536 227
L 536 227
L 536 227
L 536 227
L 536 227
L 536 227
L 536 227
L 536 227
L 536 227
L 536 227
L 536 227
L 536 227
L 536 226
L 536 226
L 536 226
L 536 226
L 536 226
L 536 226
L 537 226
L 537 226
L 537 226
L 537 226
L 537 226
L 537 226
L 537 226
L 537 226
L 537 226
L 537 226
L 537 226
L 537 226
L 537 226
L 537 225
L 537 225
L 537 225
L 537 225
L 537 225
L 537 225
L 537 225
L 537 225
L 537 225
L 537 225
L 537 225
L 537 225
L 537 225
L 537 225
L 537 225
L 537 225
L 537 225
L 537 225
L 537 225
L 537 225
L 537 225
L 537 224
L 537 224
L 537 224
L 537 224
L 537 224
L 537 224
L 537 224
L 537 224
L 537 224
L 537 224
L 537 224
L 537 224
L 537 224
L 537 224
L 537 224
L 537 224
L 537 224
L 537 224
L 537 224
L 537 224
L 537 223
L 537 223
L 537 223
L 538 223
L 538 223
L 538 223
L 538 223
L 538 223
L 538 223
L 538 223
L 538 223
L 538 223
L 538 223
L 538 223
L 538 223
L 538 223
L 538 223
L 538 223
L 538 223
L 538 223
L 538 222
L 538 222
L 538 222
L 538 222
L 538 222
L 538 222
L 538 222
L 538 222
L 539 222
L 539 222
L 539 222
L 539 222
L 539 222
L 539 222
L 539 222
L 539 222
L 539 222
L 539 222
L 539 222
L 539 222
L 539 221
L 539 221
L 539 221
L 539 221
L 539 221
L 539 221
L 539 221
L 539 221
L 539 221
L 539 221
L 539 221
L 539 221
L 539 221
L 539 221
L 539 221
L 539 221
L 539 221
L 539 221
L 539 221
L 539 221
L 539 220
L 539 220
L 539 220
L 539 220
L 539 220
L 539 220
L 539 220
L 539 220
L 539 220
L 539 220
L 539 220
L 539 220
L 540 220
L 540 220
L 540 220
L 540 220
L 540 220
L 540 220
L 540 220
L 540 220
L 540 219
L 540 219
L 540 219
L 540 219
L 540 219
L 540 219
L 540 219
L 540 219
L 540 219
L 540 219
L 540 219
L 540 219
L 540 219
L 540 219
L 540 219
L 540 219
L 540 219
L 540 219
L 540 219
L 540 219
L 540 218
L 540 218
L 540 218
L 540 218
L 540 218
L 540 218
L 540 218
L 540 218
L 540 218
L 540 218
L 540 218
L 540 218
L 540 218
L 540 218
L 540 218
L 540 218
L 540 218
L 540 218
L 541 218
L 541 218
L 541 217
L 541 217
L 541 217
L 541 217
L 541 217
L 541 217
L 541 217
L 541 217
L 541 217
L 541 217
L 541 217
L 541 217
L 541 217
L 541 217
L 541 217
L 541 217
L 541 217
L 541 217
L 541 217
L 541 217
L 542 216
L 542 216
L 542 216
L 542 216
L 542 216
L 542 216
L 542 216
L 542 216
L 542 216
L 542 216
L 543 216
L 543 216
L 543 216
L 543 216
L 543 216
L 543 216
L 543 216
L 543 216
L 543 216
L 543 216
L 543 215
L 543 215
L 543 215
L 544 215
L 544 215
L 544 215
L 544 215
L 544 215
L 544 215
L 544 215
L 544 215
L 544 215
L 544 215
L 545 215
L 545 215
L 545 215
L 545 215
L 545 215
L 545 215
L 546 215
L 548 214
L 548 214
L 548 214
L 548 214
L 549 214
L 549 214
L 550 214
L 550 214
L 550 214
L 550 214
L 550 214
L 550 214
L 550 214
L 550 214
L 550 214
L 550 214
L 551 214
L 551 214
L 551 214
L 551 214
L 551 213
L 551 213
L 551 213
L 551 213
L 551 213
L 551 213
L 551 213
L 551 213
L 551 213
L 551 213
L 551 213
L 552 213
L 552 213
L 552 213
L 552 213
L 552 213
L 552 213
L 552 213
L 552 213
L 553 213
L 553 212
L 553 212
L 553 212
L 553 212
L 553 212
L 553 212
L 553 212
L 554 212
L 554 212
L 554 212
L 554 212
L 554 212
L 554 212
L 554 212
L 554 212
L 554 212
L 555 212
L 555 212
L 556 212
L 556 212
L 556 211
L 556 211
L 556 211
L 556 211
L 556 211
L 556 211
L 557 211
L 557 211
L 557 211
L 557 211
L 557 211
L 557 211
L 557 211
L 557 211
L 558 211
L 558 211
L 558 211
L 558 211
L 558 211
L 558 211
L 558 210
L 558 210
L 559 210
L 559 210
L 559 210
L 560 210
L 561 210
L 561 210
L 561 210
L 561 210
L 561 210
L 562 210
L 562 210
L 563 210
L 563 210
L 564 210
L 564 210
L 564 210
L 564 210
L 564 210
L 564 209
L 564 209
L 564 209
L 564 209
L 565 209
L 565 209
L 565 209
L 565 209
L 565 209
L 565 209
L 565 209
L 566 209
L 566 209
L 566 209
L 566 209
L 566 209
L 566 209
L 567 209
L 567 209
L 567 209
L 567 208
L 567 208
L 567 208
L 567 208
L 567 208
L 568 208
L 568 208
L 568 208
L 568 208
L 568 208
L 569 208
L 569 208
L 569 208
L 569 208
L 569 208
L 570 208
L 570 208
L 570 208
L 570 208
L 570 208
L 570 207
L 571 207
L 571 207
L 571 207
L 571 207
L 571 207
L 571 207
L 571 207
L 571 207
L 572 207
L 572 207
L 572 207
L 572 207
L 572 207
L 572 207
L 572 207
L 572 207
L 573 207
L 573 207
L 573 207
L 573 206
L 574 206
L 574 206
L 575 206
L 576 206
L 577 206
L 577 206
L 577 206
L 577 206
L 578 206
L 578 206
L 578 206
L 578 206
L 578 206
L 578 206
L 578 206
L 579 206
L 579 206
L 579 206
L 579 206
L 579 205
L 579 205
L 580 205
L 580 205
L 580 205
L 580 205
L 580 205
L 580 205
L 580 205
L 580 205
L 580 205
L 581 205
L 581 205
L 581 205
L 581 205
L 581 205
L 581 205
L 581 205
L 582 205
L 582 205
L 582 204
L 582 204
L 582 204
L 582 204
L 582 204
L 582 204
L 582 204
L 583 204
L 583 204
L 583 204
L 583 204
L 583 204
L 583 204
L 583 204
L 583 204
L 583 204
L 583 204
L 584 204
L 584 204
L 584 204
L 584 203
L 584 203
L 584 203
L 584 203
L 584 203
L 584 203
L 584 203
L 584 203
L 585 203
L 585 203
L 585 203
L 585 203
L 585 203
L 585 203
L 585 203
L 585 203
L 585 203
L 585 203
L 585 203
L 586 203
L 586 202
L 586 202
L 586 202
L 586 202
L 586 202
L 587 202
L 587 202
L 587 202
L 591 202
L 591 202
L 591 202
L 591 202
L 591 202
L 591 202
L 591 202
L 591 202
L 591 202
L 591 202
L 591 202
L 591 202
L 591 201
L 591 201
L 591 201
L 591 201
L 591 201
L 592 201
L 592 201
L 592 201
L 592 201
L 592 201
L 592 201
L 592 201
L 592 201
L 592 201
L 592 201
L 592 201
L 592 201
L 592 201
L 592 201
L 592 201
L 592 200
L 592 200
L 592 200
L 592 200
L 592 200
L 592 200
L 592 200
L 592 200
L 592 200
L 592 200
L 592 200
L 592 200
L 592 200
L 592 200
L 592 200
L 592 200
L 592 200
L 592 200
L 592 200
L 592 200
L 592 199
L 592 199
L 592 199
L 592 199
L 592 199
L 593 199
L 593 199
L 593 199
L 593 199
L 593 199
L 593 199
L 593 199
L 593 199
L 593 199
L 593 199
L 593 199
L 593 199
L 593 199
L 593 199
L 593 199
L 593 198
L 593 198
L 593 198
L 593 198
L 593 198
L 594 198
L 594 198
L 594 198
L 594 198
L 594 198
L 594 198
L 594 198
L 594 198
L 594 198
L 594 198
L 594 198
L 594 198
L 594 198
L 594 198
L 594 198
L 594 197
L 594 197
L 594 197
L 594 197
L 594 197
L 594 197
L 594 197
L 594 197
L 594 197
L 594 197
L 594 197
L 594 197
L 594 197
L 594 197
L 594 197
L 594 197
L 595 197
L 595 197
L 595 197
L 595 197
L 595 196
L 595 196
L 595 196
L 595 196
L 595 196
L 595 196
L 595 196
L 595 196
L 595 196
L 595 196
L 595 196
L 595 196
L 595 196
L 595 196
L 595 196
L 595 196
L 595 196
L 595 196
L 595 196
L 595 196
L 595 195
L 595 195
L 595 195
L 595 195
L 596 195
L 596 195
L 596 195
L 596 195
L 596 195
L 596 195
L 596 195
L 596 195
L 596 195
L 596 195
L 596 195
L 596 195
L 596 195
L 596 195
L 596 195
L 596 195
L 596 194
L 596 194
L 596 194
L 596 194
L 597 194
L 597 194
L 597 194
L 597 194
L 597 194
L 597 194
L 597 194
L 597 194
L 597 194
L 597 194
L 597 194
L 597 194
L 598 194
L 598 194
L 598 194
L 598 194
L 598 193
L 598 193
L 598 193
L 598 193
L 598 193
L 598 193
L 598 193
L 598 193
L 598 193
L 598 193
L 598 193
L 598 193
L 598 193
L 598 193
L 598 193
L 599 193
L 599 193
L 599 193
L 599 193
L 599 193
L 599 192
L 599 192
L 599 192
L 599 192
L 599 192
L 599 192
L 599 192
L 599 192
L 599 192
L 599 192
L 599 192
L 599 192
L 599 192
L 599 192
L 599 192
L 599 192
L 600 192
L 600 192
L 600 192
L 600 192
L 600 191
L 600 191
L 600 191
L 600 191
L 600 191
L 601 191
L 601 191
L 601 191
L 602 191
L 602 191
L 604 191
L 604 191
L 604 191
L 604 191
L 605 191
L 605 191
L 605 191
L 605 191
L 605 191
L 605 191
L 605 190
L 605 190
L 605 190
L 605 190
L 605 190
L 605 190
L 605 190
L 605 190
L 605 190
L 605 190
L 605 190
L 605 190
L 605 190
L 605 190
L 605 190
L 605 190
L 605 190
L 605 190
L 605 190
L 605 190
L 605 189
L 605 189
L 605 189
L 606 189
L 606 189
L 606 189
L 606 189
L 606 189
L 606 189
L 606 189
L 606 189
L 606 189
L 606 189
L 606 189
L 606 189
L 606 189
L 606 189
L 606 189
L 606 189
L 606 189
L 606 188
L 606 188
L 606 188
L 606 188
L 606 188
L 606 188
L 606 188
L 606 188
L 606 188
L 606 188
L 606 188
L 606 188
L 606 188
L 606 188
L 606 188
L 606 188
L 606 188
L 606 188
L 606 188
L 606 188
L 606 187
L 606 187
L 606 187
L 606 187
L 606 187
L 607 187
L 607 187
L 607 187
L 607 187
L 607 187
L 607 187
L 607 187
L 607 187
L 607 187
L 607 187
L 607 187
L 608 187
L 608 187
L 608 187
L 608 187
L 608 186
L 608 186
L 608 186
L 608 186
L 608 186
L 608 186
L 608 186
L 608 186
L 608 186
L 608 186
L 608 186
L 608 186
L 608 186
L 608 186
L 608 186
L 608 186
L 608 186
L 608 186
L 608 186
L 608 186
L 608 185
L 608 185
L 608 185
L 608 185
L 608 185
L 608 185
L 608 185
L 608 185
L 608 185
L 608 185
L 609 185
L 609 185
L 609 185
L 609 185
L 609 185
L 609 185
L 609 185
L 609 185
L 609 185
L 609 185
L 609 184
L 609 184
L 609 184
L 609 184
L 609 184
L 609 184
L 609 184
L 609 184
L 609 184
L 609 184
L 609 184
L 609 184
L 609 184
L 609 184
L 609 184
L 609 184
L 610 184
L 610 184
L 610 184
L 610 184
L 610 183
L 610 183
L 610 183
L 610 183
L 610 183
L 610 183
L 610 183
L 610 183
L 610 183
L 610 183
L 610 183
L 610 183
L 610 183
L 610 183
L 610 183
L 610 183
L 610 183
L 610 183
L 610 183
L 610 183
L 610 182
L 610 182
L 610 182
L 610 182
L 610 182
L 610 182
L 610 182
L 610 182
L 610 182
L 610 182
L 610 182
L 610 182
L 610 182
L 610 182
L 610 182
L 610 182
L 610 182
L 610 182
L 610 182
L 610 182
L 610 181
L 610 181
L 610 181
L 610 181
L 610 181
L 610 181
L 610 181
L 610 181
L 611 181
L 611 181
L 611 181
L 611 181
L 611 181
L 611 181
L 611 181
L 611 181
L 611 181
L 611 181
L 611 181
L 611 181
L 611 180
L 611 180
L 611 180
L 611 180
L 611 180
L 611 180
L 611 180
L 611 180
L 611 180
L 611 180
L 611 180
L 612 180
L 612 180
L 612 180
L 612 180
L 612 180
L 612 180
L 612 180
L 612 180
L 612 180
L 612 179
L 612 179
L 612 179
L 612 179
L 612 179
L 612 179
L 612 179
L 612 179
L 612 179
L 612 179
L 613 179
L 613 179
L 613 179
L 613 179
L 613 179
L 613 179
L 613 179
L 613 179
L 613 179
L 613 179
L 613 178
L 613 178
L 613 178
L 613 178
L 613 178
L 613 178
L 613 178
L 613 178
L 613 178
L 614 178
L 614 178
L 614 178
L 614 178
L 614 178
L 614 178
L 614 178
L 614 178
L 614 178
L 614 178
L 614 178
L 615 177
L 615 177
L 615 177
L 616 177
L 617 177
L 617 177
L 618 177
L 618 177
L 618 177
L 619 177
L 619 177
L 619 177
L 619 177
L 619 177
L 619 177
L 619 177
L 619 177
L 619 177
L 619 177
L 619 177
L 619 176
L 619 176
L 619 176
L 619 176
L 619 176
L 619 176
L 619 176
L 619 176
L 619 176
L 619 176
L 619 176
L 619 176
L 619 176
L 619 176
L 620 176
L 620 176
L 620 176
L 620 176
L 620 176
L 620 176
L 620 175
L 620 175
L 620 175
L 620 175
L 620 175
L 620 175
L 620 175
L 620 175
L 620 175
L 620 175
L 620 175
L 620 175
L 620 175
L 620 175
L 620 175
L 620 175
L 620 175
L 620 175
L 620 175
L 620 174
L 620 174
L 620 174
L 620 174
L 620 174
L 621 174
L 621 174
L 621 174
L 621 174
L 621 174
L 621 174
L 621 174
L 621 174
L 621 174
L 621 174
L 621 174
L 621 174
L 621 174
L 621 174
L 621 174
L 621 174
L 621 173
L 622 173
L 622 173
L 622 173
L 622 173
L 622 173
L 622 173
L 622 173
L 622 173
L 622 173
L 622 173
L 622 173
L 622 173
L 622 173
L 622 173
L 622 173
L 622 173
L 622 173
L 622 173
L 622 173
L 623 172
L 623 172
L 623 172
L 623 172
L 623 172
L 623 172
L 623 172
L 623 172
L 623 172
L 623 172
L 623 172
L 623 172
L 623 172
L 623 172
L 623 172
L 623 172
L 623 172
L 623 172
L 623 172
L 623 172
L 623 171
L 623 171
L 623 171
L 623 171
L 623 171
L 623 171
L 623 171
L 623 171
L 623 171
L 623 171
L 623 171
L 623 171
L 623 171
L 624 171
L 624 171
L 624 171
L 624 171
L 624 171
L 624 171
L 624 171
L 624 170
L 624 170
L 624 170
L 624 170
L 624 170
L 624 170
L 624 170
L 624 170
L 624 170
L 624 170
L 624 170
L 624 170
L 624 170
L 624 170
L 624 170
L 624 170
L 624 170
L 624 170
L 624 170
L 624 170
L 625 169
L 625 169
L 625 169
L 625 169
L 625 169
L 625 169
L 625 169
L 625 169
L 625 169
L 626 169
L 626 169
L 626 169
L 626 169
L 626 169
L 626 169
L 626 169
L 626 169
L 626 169
L 626 169
L 626 169
L 626 168
L 626 168
L 626 168
L 627 168
L 627 168
L 627 168
L 627 168
L 627 168
L 627 168
L 627 168
L 627 168
L 627 168
L 627 168
L 627 168
L 628 168
L 628 168
L 628 168
L 629 168
L 629 168
L 629 168
L 630 167
L 630 167
L 630 167
L 630 167
L 631 167
L 632 167
L 633 167
L 633 167
L 633 167
L 633 167
L 633 167
L 633 167
L 633 167
L 633 167
L 633 167
L 633 167
L 633 167
L 633 167
L 633 167
L 633 167
L 633 166
L 633 166
L 634 166
L 634 166
L 634 166
L 634 166
L 634 166
L 634 166
L 634 166
L 634 166
L 634 166
L 634 166
L 634 166
L 634 166
L 634 166
L 634 166
L 634 166
L 634 166
L 634 166
L 634 166
L 634 165
L 634 165
L 634 165
L 635 165
L 635 165
L 635 165
L 635 165
L 635 165
L 635 165
L 635 165
L 636 165
L 636 165
L 636 165
L 636 165
L 636 165
L 636 165
L 636 165
L 636 165
L 636 165
L 636 164
L 636 164
L 636 164
L 636 164
L 637 164
L 637 164
L 637 164
L 637 164
L 637 164
L 637 164
L 637 164
L 637 164
L 637 164
L 638 164
L 638 164
L 638 164
L 638 164
L 638 164
L 638 164
L 638 164
L 639 163
L 639 163
L 639 163
L 639 163
L 639 163
L 639 163
L 639 163
L 639 163
L 639 163
L 640 163
L 640 163
L 640 163
L 640 163
L 640 163
L 640 163
L 640 163
L 640 163
L 640 163
L 640 163
L 640 163
L 640 163
L 640 162
L 640 162
L 640 162
L 641 162
L 641 162
L 641 162
L 641 162
L 641 162
L 641 162
L 642 162
L 642 162
L 642 162
L 642 162
L 647 162
L 647 162
L 648 162
L 648 162
L 648 162
L 648 162
L 648 162
L 648 161
L 648 161
L 648 161
L 649 161
L 649 161
L 649 161
L 649 161
L 649 161
L 649 161
L 649 161
L 649 161
L 649 161
L 650 161
L 650 161
L 650 161
L 650 161
L 650 161
L 650 161
L 650 161
L 651 161
L 651 160
L 651 160
L 651 160
L 651 160
L 651 160
L 651 160
L 651 160
L 651 160
L 651 160
L 651 160
L 652 160
L 652 160
L 652 160
L 652 160
L 652 160
L 652 160
L 652 160
L 652 160
L 652 160
L 652 160
L 652 159
L 653 159
L 653 159
L 653 159
L 653 159
L 653 159
L 653 159
L 654 159
L 654 159
L 654 159
L 654 159
L 654 159
L 654 159
L 654 159
L 654 159
L 654 159
L 654 159
L 654 159
L 654 159
L 654 159
L 654 158
L 654 158
L 655 158
L 655 158
L 655 158
L 655 158
L 655 158
L 655 158
L 655 158
L 655 158
L 655 158
L 656 158
L 656 158
L 656 158
L 656 158
L 656 158
L 656 158
L 656 158
L 656 158
L 657 158
L 658 157
L 658 157
L 658 157
L 658 157
L 659 157
L 660 157
L 660 157
L 660 157
L 660 157
L 660 157
L 660 157
L 660 157
L 660 157
L 660 157
L 661 157
L 661 157
L 661 157
L 661 157
L 661 157
L 661 157
L 661 156
L 661 156
L 661 156
L 661 156
L 661 156
L 661 156
L 661 156
L 661 156
L 661 156
L 661 156
L 661 156
L 661 156
L 661 156
L 661 156
L 661 156
L 661 156
L 661 156
L 661 156
L 661 156
L 662 156
L 662 155
L 662 155
L 662 155
L 662 155
L 662 155
L 662 155
L 662 155
L 662 155
L 662 155
L 662 155
L 662 155
L 662 155
L 662 155
L 662 155
L 662 155
L 662 155
L 662 155
L 662 155
L 662 155
L 662 155
L 662 154
L 662 154
L 662 154
L 663 154
L 663 154
L 663 154
L 663 154
L 663 154
L 663 154
L 663 154
L 663 154
L 663 154
L 663 154
L 663 154
L 664 154
L 664 154
L 664 154
L 664 154
L 664 154
L 664 153
L 664 153
L 664 153
L 664 153
L 664 153
L 664 153
L 664 153
L 664 153
L 664 153
L 664 153
L 664 153
L 664 153
L 664 153
L 664 153
L 665 153
L 665 153
L 665 153
L 665 153
L 665 153
L 665 153
L 665 153
L 665 152
L 665 152
L 665 152
L 665 152
L 665 152
L 665 152
L 665 152
L 665 152
L 665 152
L 665 152
L 666 152
L 666 152
L 666 152
L 666 152
L 666 152
L 666 152
L 666 152
L 667 152
L 667 152
L 667 152
L 667 151
L 667 151
L 667 151
L 667 151
L 667 151
L 667 151
L 667 151
L 667 151
L 667 151
L 667 151
L 667 151
L 667 151
L 668 151
L 668 151
L 668 151
L 668 151
L 668 151
L 668 151
L 668 151
L 668 151
L 669 150
L 669 150
L 669 150
L 669 150
L 669 150
L 669 150
L 669 150
L 669 150
L 669 150
L 669 150
L 669 150
L 672 150
L 674 150
L 674 150
L 674 150
L 674 150
L 674 150
L 674 150
L 674 150
L 675 150
L 675 149
L 675 149
L 675 149
L 675 149
L 675 149
L 675 149
L 675 149
L 675 149
L 675 149
L 675 149
L 675 149
L 675 149
L 675 149
L 675 149
L 675 149
L 675 149
L 675 149
L 675 149
L 675 149
L 676 149
L 676 148
L 676 148
L 676 148
L 676 148
L 676 148
L 676 148
L 676 148
L 676 148
L 676 148
L 676 148
L 676 148
L 676 148
L 676 148
L 677 148
L 677 148
L 677 148
L 677 148
L 677 148
L 677 148
L 677 148
L 677 147
L 677 147
L 677 147
L 677 147
L 677 147
L 677 147
L 677 147
L 677 147
L 678 147
L 678 147
L 678 147
L 678 147
L 678 147
L 678 147
L 678 147
L 678 147
L 678 147
L 678 147
L 678 147
L 678 147
L 678 146
L 679 146
L 679 146
L 679 146
L 679 146
L 679 146
L 679 146
L 679 146
L 679 146
L 679 146
L 679 146
L 679 146
L 679 146
L 679 146
L 679 146
L 679 146
L 679 146
L 679 146
L 679 146
L 679 146
L 679 145
L 679 145
L 679 145
L 679 145
L 679 145
L 679 145
L 679 145
L 679 145
L 679 145
L 680 145
L 680 145
L 680 145
L 680 145
L 680 145
L 680 145
L 680 145
L 680 145
L 680 145
L 680 145
L 680 145
L 680 144
L 681 144
L 681 144
L 681 144
L 681 144
L 681 144
L 681 144
L 681 144
L 681 144
L 681 144
L 681 144
L 681 144
L 681 144
L 681 144
L 681 144
L 681 144
L 681 144
L 681 144
L 681 144
L 681 144
L 681 143
L 681 143
L 682 143
L 682 143
L 682 143
L 682 143
L 682 143
L 682 143
L 682 143
L 682 143
L 682 143
L 682 143
L 682 143
L 682 143
L 682 143
L 682 143
L 683 143
L 683 143
L 683 143
L 683 142
L 683 142
L 684 142
L 684 142
L 684 142
L 686 142
L 688 142
L 688 142
L 688 142
L 688 142
L 688 142
L 688 142
L 688 142
L 689 142
L 689 142
L 689 142
L 689 142
L 689 142
L 689 142
L 689 142
L 689 142
L 689 141
L 689 141
L 689 141
L 689 141
L 689 141
L 689 141
L 689 141
L 689 141
L 689 141
L 689 141
L 689 141
L 689 141
L 689 141
L 689 141
L 689 141
L 689 141
L 689 141
L 689 141
L 689 141
L 690 141
L 690 140
L 690 140
L 690 140
L 690 140
L 690 140
L 690 140
L 690 140
L 690 140
L 690 140
L 690 140
L 690 140
L 690 140
L 690 140
L 690 140
L 690 140
L 690 140
L 690 140
L 690 140
L 691 140
L 691 140
L 691 139
L 691 139
L 691 139
L 691 139
L 691 139
L 691 139
L 691 139
L 691 139
L 691 139
L 691 139
L 691 139
L 691 139
L 691 139
L 691 139
L 691 139
L 691 139
L 691 139
L 691 139
L 692 139
L 692 139
L 692 138
L 692 138
L 692 138
L 692 138
L 692 138
L 692 138
L 692 138
L 692 138
L 692 138
L 692 138
L 692 138
L 692 138
L 692 138
L 692 138
L 692 138
L 692 138
L 692 138
L 693 138
L 693 138
L 693 138
L 693 137
L 693 137
L 693 137
L 693 137
L 693 137
L 693 137
L 693 137
L 693 137
L 693 137
L 693 137
L 693 137
L 693 137
L 693 137
L 693 137
L 693 137
L 694 137
L 694 137
L 694 137
L 694 137
L 694 137
L 694 136
L 694 136
L 695 136
L 695 136
L 695 136
L 695 136
L 695 136
L 695 136
L 695 136
L 696 136
L 696 136
L 696 136
L 696 136
L 696 136
L 696 136
L 696 136
L 696 136
L 696 136
L 696 136
L 696 136
L 696 135
L 696 135
L 696 135
L 696 135
L 697 135
L 697 135
L 697 135
L 697 135
L 697 135
L 697 135
L 697 135
L 697 135
L 697 135
L 697 135
L 698 135
L 698 135
L 698 135
L 699 135
L 701 135
L 701 135
L 701 134
L 702 134
L 702 134
L 702 134
L 702 134
L 702 134
L 702 134
L 702 134
L 702 134
L 702 134
L 702 134
L 702 134
L 702 134
L 702 134
L 702 134
L 702 134
L 702 134
L 702 134
L 702 134
L 702 134
L 702 133
L 702 133
L 702 133
L 702 133
L 702 133
L 702 133
L 702 133
L 702 133
L 702 133
L 702 133
L 702 133
L 702 133
L 702 133
L 702 133
L 702 133
L 702 133
L 702 133
L 702 133
L 702 133
L 702 132
L 702 132
L 702 132
L 702 132
L 702 132
L 702 132
L 702 132
L 702 132
L 702 132
L 702 132
L 702 132
L 702 132
L 702 132
L 702 132
L 702 132
L 702 132
L 703 132
L 703 132
L 703 132
L 703 132
L 703 131
L 703 131
L 703 131
L 703 131
L 703 131
L 703 131
L 703 131
L 703 131
L 703 131
L 703 131
L 703 131
L 703 131
L 703 131
L 703 131
L 703 131
L 703 131
L 703 131
L 703 131
L 703 131
L 703 131
L 703 131
L 703 130
L 703 130
L 703 130
L 703 130
L 703 130
L 703 130
L 703 130
L 703 130
L 703 130
L 703 130
L 703 130
L 703 130
L 703 130
L 703 130
L 703 130
L 703 130
L 704 130
L 704 130
L 704 130
L 704 130
L 704 129
L 704 129
L 704 129
L 704 129
L 704 129
L 704 129
L 704 129
L 704 129
L 705 129
L 705 129
L 705 129
L 705 129
L 705 129
L 705 129
L 705 129
L 705 129
L 705 129
L 705 129
L 705 129
L 705 129
L 705 128
L 705 128
L 705 128
L 705 128
L 705 128
L 705 128
L 705 128
L 705 128
L 705 128
L 705 128
L 705 128
L 705 128
L 705 128
L 705 128
L 705 128
L 705 128
L 705 128
L 705 128
L 705 128
L 705 128
L 705 127
L 705 127
L 705 127
L 705 127
L 705 127
L 705 127
L 705 127
L 705 127
L 706 127
L 706 127
L 706 127
L 706 127
L 706 127
L 706 127
L 706 127
L 706 127
L 706 127
L 706 127
L 706 127
L 706 127
L 706 126
L 706 126
L 706 126
L 706 126
L 706 126
L 706 126
L 706 126
L 706 126
L 706 126
L 706 126
L 706 126
L 706 126
L 706 126
L 706 126
L 706 126
L 706 126
L 706 126
L 706 126
L 706 126
L 706 126
L 706 125
L 707 125
L 707 125
L 707 125
L 707 125
L 707 125
L 707 125
L 707 125
L 707 125
L 707 125
L 707 125
L 707 125
L 707 125
L 707 125
L 707 125
L 707 125
L 707 125
L 707 125
L 707 125
L 707 125
L 707 124
L 707 124
L 707 124
L 707 124
L 707 124
L 707 124
L 707 124
L 707 124
L 707 124
L 707 124
L 708 124
L 708 124
L 708 124
L 708 124
L 708 124
L 708 124
L 708 124
L 708 124
L 708 124
L 708 124
L 708 123
L 708 123
L 708 123
L 708 123
L 708 123
L 708 123
L 708 123
L 708 123
L 708 123
L 709 123
L 709 123
L 709 123
L 709 123
L 709 123
L 709 123
L 709 123
L 709 123
L 709 123
L 709 123
L 709 123
L 709 122
L 709 122
L 709 122
L 709 122
L 709 122
L 709 122
L 709 122
L 709 122
L 709 122
L 709 122
L 709 122
L 709 122
L 709 122
L 709 122
L 709 122
L 709 122
L 710 122
L 710 122
L 710 122
L 710 121
L 710 121
L 710 121
L 710 121
L 710 121
L 710 121
L 710 121
L 710 121
L 710 121
L 710 121
L 711 121
L 711 121
L 711 121
L 711 121
L 711 121
L 711 121
L 711 121
L 711 121
L 711 121
L 711 121
L 712 121
L 712 120
L 712 120
L 713 120
L 713 120
L 713 120
L 713 120
L 713 120
L 715 120
L 715 120
L 715 120
L 716 120
L 716 120
L 716 120
L 716 120
L 716 120
L 716 120
L 716 120
L 716 120
L 716 120
L 716 120
L 716 119
L 716 119
L 716 119
L 716 119
L 716 119
L 716 119
L 716 119
L 716 119
L 716 119
L 716 119
L 716 119
L 716 119
L 716 119
L 717 119
L 717 119
L 717 119
L 717 119
L 717 119
L 717 119
L 717 119
L 717 118
L 717 118
L 717 118
L 717 118
L 717 118
L 717 118
L 717 118
L 717 118
L 717 118
L 717 118
L 717 118
L 717 118
L 717 118
L 717 118
L 717 118
L 717 118
L 717 118
L 717 118
L 717 118
L 717 118
L 718 117
L 718 117
L 718 117
L 718 117
L 718 117
L 718 117
L 718 117
L 718 117
L 718 117
L 718 117
L 718 117
L 718 117
L 718 117
L 719 117
L 719 117
L 719 117
L 719 117
L 719 117
L 719 117
L 719 117
L 719 116
L 719 116
L 719 116
L 719 116
L 719 116
L 719 116
L 719 116
L 719 116
L 719 116
L 719 116
L 719 116
L 719 116
L 719 116
L 719 116
L 719 116
L 719 116
L 719 116
L 719 116
L 719 116
L 719 116
L 719 115
L 719 115
L 720 115
L 720 115
L 720 115
L 720 115
L 720 115
L 720 115
L 720 115
L 720 115
L 720 115
L 720 115
L 720 115
L 720 115
L 720 115
L 720 115
L 720 115
L 720 115
L 720 115
L 720 115
L 720 114
L 720 114
L 720 114
L 720 114
L 720 114
L 720 114
L 720 114
L 720 114
L 720 114
L 721 114
L 721 114
L 721 114
L 721 114
L 721 114
L 721 114
L 721 114
L 721 114
L 721 114
L 721 114
L 721 114
L 721 113
L 721 113
L 721 113
L 721 113
L 721 113
L 721 113
L 721 113
L 721 113
L 721 113
L 721 113
L 721 113
L 722 113
L 722 113
L 722 113
L 722 113
L 722 113
L 723 113
L 723 113
L 723 113
L 723 113
L 723 112
L 723 112
L 723 112
L 723 112
L 723 112
L 723 112
L 723 112
L 723 112
L 723 112
L 723 112
L 724 112
L 724 112
L 724 112
L 724 112
L 724 112
L 725 112
L 725 112
L 725 112
L 725 112
L 725 112
L 725 111
L 725 111
L 725 111
L 725 111
L 725 111
L 726 111
L 727 111
L 727 111
L 727 111
L 729 111
L 730 111
L 730 111
L 730 111
L 731 111
L 731 111
L 731 111
L 731 111
L 731 111
L 731 111
L 731 110
L 731 110
L 731 110
L 731 110
L 731 110
L 731 110
L 732 110
L 732 110
L 733 110
L 733 110
L 733 110
L 733 110
L 733 110
L 733 110
L 733 110
L 733 110
L 733 110
L 733 110
L 733 110
L 734 110
L 734 110
L 734 109
L 734 109
L 734 109
L 734 109
L 734 109
L 734 109
L 734 109
L 735 109
L 735 109
L 735 109
L 735 109
L 735 109
L 735 109
L 735 109
L 736 109
L 736 109
L 736 109
L 737 109
L 737 109
L 737 109
L 738 108
L 738 108
L 738 108
L 739 108
L 739 108
L 739 108
L 739 108
L 740 108
L 740 108
L 740 108
L 741 108
L 743 108
L 743 108
L 745 108
L 745 108
L 745 108
L 745 108
L 746 108
L 746 108
L 746 108
L 746 107
L 746 107
L 746 107
L 747 107
L 747 107
L 747 107
L 748 107
L 748 107
L 748 107
L 748 107
L 748 107
L 748 107
L 748 107
L 748 107
L 749 107
L 749 107
L 749 107
L 750 107
L 750 107
L 750 107
L 750 106
L 750 106
L 750 106
L 750 106
L 751 106
L 751 106
L 751 106
L 751 106
L 751 106
L 752 106
L 752 106
L 752 106
L 752 106
L 752 106
L 753 106
L 753 106
L 754 106
L 757 106
L 757 106
L 757 106
L 758 105
L 758 105
L 758 105
L 758 105
L 758 105
L 758 105
L 758 105
L 758 105
L 758 105
L 758 105
L 758 105
L 758 105
L 758 105
L 758 105
L 758 105
L 759 105
L 759 105
L 759 105
L 759 105
L 759 105
L 759 104
L 759 104
L 759 104
L 759 104
L 759 104
L 759 104
L 759 104
L 759 104
L 759 104
L 759 104
L 760 104
L 760 104
L 760 104
L 760 104
L 760 104
L 760 104
L 760 104
L 760 104
L 761 104
L 761 104
L 761 103
L 761 103
L 761 103
L 761 103
L 761 103
L 761 103
L 761 103
L 761 103
L 761 103
L 761 103
L 762 103
L 762 103
L 762 103
L 762 103
L 762 103
L 762 103
L 762 103
L 762 103
L 762 103
L 762 103
L 762 102
L 762 102
L 762 102
L 762 102
L 762 102
L 762 102
L 763 102
L 763 102
L 763 102
L 763 102
L 763 102
L 763 102
L 763 102
L 763 102
L 763 102
L 764 102
L 764 102
L 764 102
L 764 102
L 764 102
L 764 101
L 764 101
L 764 101
L 764 101
L 764 101
L 764 101
L 764 101
L 765 101
L 765 101
L 765 101
L 765 101
L 765 101
L 765 101
L 765 101
L 765 101
L 766 101
L 766 101
L 766 101
L 766 101
L 766 100
L 766 100
L 766 100
L 766 100
L 766 100
L 766 100
L 766 100
L 767 100
L 767 100
L 767 100
L 769 100
L 769 100
L 770 100
L 771 100
L 772 100
L 772 100
L 772 100
L 772 100
L 772 100
L 772 100
L 772 100
L 772 99
L 772 99
L 772 99
L 772 99
L 772 99
L 772 99
L 772 99
L 772 99
L 772 99
L 772 99
L 772 99
L 772 99
L 772 99
L 773 99
L 773 99
L 773 99
L 773 99
L 773 99
L 773 99
L 773 99
L 773 98
L 773 98
L 773 98
L 773 98
L 773 98
L 773 98
L 773 98
L 773 98
L 773 98
L 773 98
L 773 98
L 773 98
L 773 98
L 773 98
L 773 98
L 773 98
L 773 98
L 773 98
L 773 98
L 773 98
L 773 97
L 773 97
L 773 97
L 773 97
L 773 97
L 773 97
L 773 97
L 773 97
L 773 97
L 773 97
L 773 97
L 773 97
L 773 97
L 773 97
L 773 97
L 773 97
L 773 97
L 773 97
L 773 97
L 773 97
L 773 96
L 773 96
L 773 96
L 773 96
L 773 96
L 773 96
L 773 96
L 773 96
L 773 96
L 773 96
L 773 96
L 773 96
L 773 96
L 773 96
L 773 96
L 773 96
L 773 96
L 773 96
L 773 96
L 773 96
L 773 95
L 773 95
L 773 95
L 773 95
L 774 95
L 774 95
L 774 95
L 774 95
L 774 95
L 774 95
L 774 95
L 774 95
L 774 95
L 774 95
L 774 95
L 774 95
L 774 95
L 774 95
L 774 95
L 774 95
L 774 94
L 774 94
L 774 94
L 774 94
L 775 94
L 775 94
L 775 94
L 775 94
L 775 94
L 775 94
L 775 94
L 775 94
L 775 94
L 775 94
L 775 94
L 775 94
L 775 94
L 775 94
L 775 94
L 775 94
L 775 93
L 775 93
L 775 93
L 775 93
L 776 93
L 776 93
L 776 93
L 776 93
L 776 93
L 776 93
L 776 93
L 776 93
L 776 93
L 776 93
L 776 93
L 776 93
L 776 93
L 776 93
L 776 93
L 776 93
L 776 92
L 776 92
L 776 92
L 776 92
L 776 92
L 777 92
L 777 92
L 777 92
L 777 92
L 777 92
L 777 92
L 777 92
L 777 92
L 777 92
L 777 92
L 777 92
L 777 92
L 777 92
L 777 92
L 777 92
L 777 91
L 777 91
L 777 91
L 777 91
L 777 91
L 777 91
L 777 91
L 777 91
L 777 91
L 777 91
L 777 91
L 778 91
L 778 91
L 778 91
L 778 91
L 778 91
L 778 91
L 778 91
L 778 91
L 778 91
L 778 90
L 778 90
L 778 90
L 778 90
L 778 90
L 778 90
L 778 90
L 778 90
L 778 90
L 778 90
L 778 90
L 778 90
L 779 90
L 779 90
L 779 90
L 779 90
L 779 90
L 779 90
L 779 90
L 779 90
L 779 89
L 779 89
L 780 89
L 780 89
L 780 89
L 781 89
L 782 89
L 782 89
L 782 89
L 783 89
L 783 89
L 785 89
L 785 89
L 785 89
L 785 89
L 785 89
L 785 89
L 785 89
L 786 89
L 786 89
L 786 88
L 786 88
L 786 88
L 786 88
L 786 88
L 786 88
L 786 88
L 786 88
L 786 88
L 786 88
L 786 88
L 786 88
L 786 88
L 786 88
L 786 88
L 786 88
L 786 88
L 786 88
L 786 88
L 786 88
L 786 87
L 786 87
L 786 87
L 786 87
L 786 87
L 786 87
L 786 87
L 786 87
L 786 87
L 786 87
L 786 87
L 786 87
L 786 87
L 786 87
L 786 87
L 786 87
L 786 87
L 786 87
L 786 87
L 786 87
L 786 86
L 786 86
L 786 86
L 786 86
L 786 86
L 786 86
L 786 86
L 786 86
L 786 86
L 786 86
L 786 86
L 786 86
L 786 86
L 786 86
L 787 86
L 787 86
L 787 86
L 787 86
L 787 86
L 787 86
L 787 85
L 787 85
L 787 85
L 787 85
L 787 85
L 787 85
L 787 85
L 787 85
L 787 85
L 787 85
L 787 85
L 787 85
L 787 85
L 787 85
L 787 85
L 787 85
L 787 85
L 787 85
L 787 85
L 787 85
L 787 84
L 787 84
L 788 84
L 788 84
L 788 84
L 788 84
L 788 84
L 788 84
L 788 84
L 788 84
L 788 84
L 788 84
L 788 84
L 788 84
L 788 84
L 788 84
L 788 84
L 788 84
L 788 84
L 788 84
L 788 83
L 788 83
L 788 83
L 788 83
L 788 83
L 788 83
L 788 83
L 788 83
L 788 83
L 788 83
L 788 83
L 788 83
L 789 83
L 789 83
L 789 83
L 789 83
L 789 83
L 789 83
L 789 83
L 789 83
L 789 82
L 789 82
L 789 82
L 789 82
L 789 82
L 789 82
L 789 82
L 789 82
L 789 82
L 789 82
L 789 82
L 789 82
L 789 82
L 789 82
L 789 82
L 789 82
L 789 82
L 789 82
L 789 82
L 789 82
L 789 81
L 790 81
L 790 81
L 790 81
L 790 81
L 790 81
L 790 81
L 790 81
L 790 81
L 790 81
L 790 81
L 790 81
L 790 81
L 790 81
L 790 81
L 790 81
L 790 81
L 790 81
L 790 81
L 790 81
L 790 80
L 790 80
L 790 80
L 790 80
L 790 80
L 790 80
L 790 80
L 790 80
L 790 80
L 790 80
L 790 80
L 790 80
L 790 80
L 791 80
L 791 80
L 791 80
L 791 80
L 791 80
L 791 80
L 791 80
L 791 79
L 791 79
L 791 79
L 791 79
L 791 79
L 791 79
L 791 79
L 791 79
L 791 79
L 791 79
L 792 79
L 792 79
L 792 79
L 792 79
L 792 79
L 792 79
L 792 79
L 792 79
L 792 79
L 793 79
L 793 78
L 793 78
L 793 78
L 793 78
L 793 78
L 793 78
L 793 78
L 793 78
L 794 78
L 794 78
L 794 78
L 794 78
L 794 78
L 794 78
L 794 78
L 794 78
L 794 78
L 794 78
L 795 78
L 795 78
L 795 77
L 797 77
L 797 77
L 797 77
L 798 77
L 798 77
L 798 77
L 799 77
L 799 77
L 799 77
L 799 77
L 799 77
L 799 77
L 799 77
L 800 77
L 800 77
L 800 77
L 800 77
L 800 77
L 800 77
L 800 76
L 800 76
L 800 76
L 800 76
L 800 76
L 800 76
L 800 76
L 800 76
L 800 76
L 800 76
L 800 76
L 800 76
L 800 76
L 800 76
L 800 76
L 800 76
L 800 76
L 800 76
L 800 76
L 800 76
L 800 75
L 800 75
L 800 75
L 800 75
L 800 75
L 801 75
L 801 75
L 801 75
L 801 75
L 801 75
L 801 75
L 801 75
L 801 75
L 801 75
L 801 75
L 801 75
L 801 75
L 801 75
L 801 75
L 801 75
L 801 74
L 801 74
L 801 74
L 801 74
L 801 74
L 801 74
L 801 74
L 802 74
L 802 74
L 802 74
L 802 74
L 802 74
L 802 74
L 802 74
L 802 74
L 802 74
L 802 74
L 802 74
L 802 74
L 802 74
L 802 73
L 802 73
L 802 73
L 802 73
L 802 73
L 802 73
L 802 73
L 802 73
L 803 73
L 803 73
L 803 73
L 803 73
L 803 73
L 803 73
L 803 73
L 803 73
L 803 73
L 803 73
L 803 73
L 803 73
L 803 72
L 803 72
L 803 72
L 803 72
L 803 72
L 803 72
L 803 72
L 803 72
L 803 72
L 803 72
L 803 72
L 804 72
L 804 72
L 804 72
L 804 72
L 804 72
L 804 72
L 804 72
L 804 72
L 804 72
L 804 71
L 804 71
L 804 71
L 804 71
L 804 71
L 804 71
L 804 71
L 804 71
L 804 71
L 804 71
L 804 71
L 804 71
L 804 71
L 804 71
L 805 71
L 805 71
L 805 71
L 805 71
L 805 71
L 805 71
L 805 70
L 805 70
L 805 70
L 805 70
L 805 70
L 805 70
L 805 70
L 806 70
L 806 70
L 806 70
L 806 70
L 806 70
L 806 70
L 807 70
L 807 70
L 807 70
L 807 70
L 807 70
L 807 70
L 807 70
L 807 69
L 808 69
L 808 69
L 808 69
L 808 69
L 808 69
L 808 69
L 808 69
L 808 69
L 808 69
L 809 69
L 810 69
L 812 69
L 813 69
L 813 69
L 813 69
L 813 69
L 813 69
L 813 69
L 813 69
L 813 68
L 813 68
L 813 68
L 813 68
L 813 68
L 813 68
L 813 68
L 814 68
L 814 68
L 814 68
L 814 68
L 814 68
L 814 68
L 814 68
L 814 68
L 814 68
L 814 68
L 814 68
L 814 68
L 814 68
L 814 67
L 814 67
L 814 67
L 814 67
L 814 67
L 814 67
L 814 67
L 814 67
L 814 67
L 814 67
L 814 67
L 814 67
L 814 67
L 815 67
L 815 67
L 815 67
L 815 67
L 815 67
L 815 67
L 815 67
L 815 66
L 815 66
L 815 66
L 815 66
L 815 66
L 815 66
L 815 66
L 816 66
L 816 66
L 816 66
L 816 66
L 816 66
L 816 66
L 816 66
L 816 66
L 816 66
L 816 66
L 816 66
L 816 66
L 817 66
L 817 65
L 817 65
L 817 65
L 817 65
L 817 65
L 817 65
L 817 65
L 817 65
L 817 65
L 817 65
L 817 65
L 817 65
L 817 65
L 817 65
L 817 65
L 817 65
L 817 65
L 817 65
L 817 65
L 817 65
L 818 64
L 818 64
L 818 64
L 818 64
L 818 64
L 818 64
L 818 64
L 818 64
L 818 64
L 818 64
L 818 64
L 818 64
L 818 64
L 818 64
L 818 64
L 819 64
L 819 64
L 819 64
L 819 64
L 819 64
L 819 63
L 819 63
L 819 63
L 819 63
L 819 63
L 819 63
L 819 63
L 819 63
L 819 63
L 819 63
L 820 63
L 820 63
L 820 63
L 820 63
L 820 63
L 820 63
L 821 63
L 821 63
L 821 63
L 821 63
L 821 62
L 822 62
L 822 62
L 822 62
L 825 62
L 827 62
L 827 62
L 828 62
L 828 62
L 828 62
L 828 62
L 828 62
L 829 62
L 829 62
L 829 62
L 830 62
L 830 62
L 830 62
L 830 62
L 830 62
L 830 61
L 830 61
L 831 61
L 831 61
L 831 61
L 831 61
L 831 61
L 832 61
L 832 61
L 832 61
L 832 61
L 833 61
L 833 61
L 833 61
L 834 61
L 834 61
L 834 61
L 834 61
L 834 61
L 834 61
L 834 60
L 834 60
L 834 60
L 834 60
L 834 60
L 834 60
L 834 60
L 834 60
L 835 60
L 835 60
L 835 60
L 835 60
L 835 60
L 835 60
L 835 60
L 835 60
L 835 60
L 835 60
L 836 60
L 836 60
L 836 59
L 836 59
L 836 59
L 836 59
L 836 59
L 836 59
L 836 59
L 837 59
L 837 59
L 837 59
L 837 59
L 838 59
L 840 59
L 841 59
L 841 59
L 841 59
L 841 59
L 842 59
L 842 59
L 842 59
L 842 58
L 842 58
L 842 58
L 842 58
L 843 58
L 843 58
L 843 58
L 843 58
L 843 58
L 843 58
L 844 58
L 844 58
L 844 58
L 845 58
L 845 58
L 846 58
L 847 58
L 847 58
L 848 58
L 848 58
L 848 57
L 848 57
L 848 57
L 848 57
L 848 57
L 848 57
L 848 57
L 848 57
L 849 57
L 849 57
L 849 57
L 849 57
L 849 57
L 849 57
L 849 57
L 849 57
L 849 57
L 849 57
L 850 57
L 850 57
L 853 56
L 853 56
L 854 56
L 854 56
L 855 56
L 855 56
L 855 56
L 855 56
L 855 56
L 855 56
L 855 56
L 855 56
L 855 56
L 855 56
L 855 56
L 855 56
L 855 56
L 855 56
L 855 56
L 855 56
L 855 55
L 855 55
L 855 55
L 855 55
L 856 55
L 856 55
L 856 55
L 856 55
L 856 55
L 856 55
L 856 55
L 856 55
L 856 55
L 856 55
L 856 55
L 856 55
L 856 55
L 856 55
L 856 55
L 856 55
L 856 54
L 856 54
L 856 54
L 857 54
L 857 54
L 857 54
L 857 54
L 857 54
L 857 54
L 857 54
L 857 54
L 857 54
L 857 54
L 857 54
L 858 54
L 858 54
L 858 54
L 858 54
L 858 54
L 858 54
L 858 53
L 858 53
L 858 53
L 858 53
L 858 53
L 858 53
L 858 53
L 858 53
L 858 53
L 858 53
L 858 53
L 858 53
L 859 53
L 859 53
L 859 53
L 859 53
L 859 53
L 859 53
L 859 53
L 859 53
L 859 52
L 859 52
L 859 52
L 859 52
L 859 52
L 859 52
L 859 52
L 859 52
L 859 52
L 859 52
L 859 52
L 859 52
L 859 52
L 859 52
L 859 52
L 859 52
L 859 52
L 859 52
L 859 52
L 860 52
L 860 51
L 860 51
L 860 51
L 860 51
L 860 51
L 860 51
L 860 51
L 860 51
L 860 51
L 860 51
L 861 51
L 861 51
L 861 51
L 861 51
L 861 51
L 861 51
L 861 51
L 861 51
L 862 51
L 862 51
L 862 50
L 862 50
L 862 50
L 862 50
L 862 50
L 862 50
L 863 50
L 863 50
L 863 50
L 863 50
L 863 50
L 863 50
L 863 50
L 864 50
L 864 50
L 866 50
L 868 50
L 868 50
L 868 50
L 869 50
L 869 49
L 869 49
L 869 49
L 869 49
L 869 49
L 869 49
L 869 49
L 869 49
L 869 49
L 869 49
L 869 49
L 869 49
L 869 49
L 870 49
L 870 49
L 870 49
L 870 49
L 870 49
L 870 49
L 870 49
L 870 48
L 870 48
L 870 48
L 870 48
L 870 48
L 870 48
L 870 48
L 870 48
L 870 48
L 870 48
L 870 48
L 870 48
L 871 48
L 871 48
L 871 48
L 871 48
L 871 48
L 871 48
L 871 48
L 871 48
L 871 47
L 871 47
L 871 47
L 871 47
L 871 47
L 872 47
L 872 47
L 872 47
L 872 47
L 872 47
L 872 47
L 872 47
L 872 47
L 872 47
L 872 47
L 872 47
L 872 47
L 872 47
L 872 47
L 872 47
L 872 46
L 872 46
L 872 46
L 872 46
L 872 46
L 872 46
L 872 46
L 873 46
L 873 46
L 873 46
L 873 46
L 873 46
L 873 46
L 873 46
L 873 46
L 873 46
L 873 46
L 873 46
L 873 46
L 873 46
L 873 45
L 873 45
L 873 45
L 873 45
L 874 45
L 874 45
L 874 45
L 874 45
L 874 45
L 874 45
L 874 45
L 874 45
L 874 45
L 874 45
L 874 45
L 874 45
L 874 45
L 874 45
L 874 45
L 874 45
L 874 44
L 874 44
L 874 44
L 875 44
L 875 44
L 875 44
L 875 44
L 875 44
L 875 44
L 875 44
L 875 44
L 875 44
L 875 44
L 875 44
L 875 44
L 875 44
L 876 44
L 876 44
L 876 44
L 876 44
L 876 43
L 876 43
L 876 43
L 876 43
L 876 43
L 876 43
L 876 43
L 876 43
L 877 43
L 877 43
L 877 43
L 877 43
L 877 43
L 877 43
L 877 43
L 877 43
L 877 43
L 877 43
L 877 43
L 877 43
L 877 42
L 877 42
L 877 42
L 877 42
L 877 42
L 877 42
L 878 42
L 878 42
L 878 42
L 878 42
L 879 42
L 879 42
L 879 42
L 879 42
L 880 42
L 880 42
L 882 42
L 882 42
L 882 42
L 882 42
L 882 41
L 882 41
L 883 41
L 883 41
L 883 41
L 883 41
L 883 41
L 883 41
L 883 41
L 883 41
L 883 41
L 883 41
L 883 41
L 883 41
L 883 41
L 883 41
L 883 41
L 883 41
L 883 41
L 883 41
L 883 40
L 883 40
L 883 40
L 883 40
L 883 40
L 883 40
L 883 40
L 883 40
L 883 40
L 883 40
L 883 40
L 883 40
L 883 40
L 883 40
L 883 40
L 883 40
L 883 40
L 884 40
L 884 40
L 884 40
L 884 39
L 884 39
L 884 39
L 884 39
L 884 39
L 884 39
L 884 39
L 884 39
L 884 39
L 884 39
L 884 39
L 885 39
L 885 39
L 885 39
L 885 39
L 885 39
L 885 39
L 885 39
L 885 39
L 885 39
L 885 38
L 885 38
L 885 38
L 885 38
L 885 38
L 885 38
L 885 38
L 885 38
L 885 38
L 885 38
L 885 38
L 885 38
L 885 38
L 885 38
L 885 38
L 885 38
L 885 38
L 885 38
L 885 38
L 885 38
L 886 37
L 886 37
L 886 37
L 886 37
L 886 37
L 886 37
L 886 37
L 886 37
L 886 37
L 886 37
L 886 37
L 886 37
L 886 37
L 886 37
L 886 37
L 886 37
L 886 37
L 886 37
L 886 37
L 886 37
L 886 36
L 886 36
L 886 36
L 886 36
L 886 36
L 886 36
L 887 36
L 887 36
L 887 36
L 887 36
L 887 36
L 887 36
L 887 36
L 887 36
L 887 36
L 887 36
L 887 36
L 887 36
L 887 36
L 887 36
L 887 35
L 887 35
L 887 35
L 887 35
L 887 35
L 887 35
L 887 35
L 887 35
L 887 35
L 887 35
L 887 35
L 887 35
L 887 35
L 887 35
L 887 35
L 887 35
L 887 35
L 888 35
L 888 35
L 888 35
L 888 34
L 888 34
L 888 34
L 888 34
L 888 34
L 888 34
L 888 34
L 888 34
L 888 34
L 888 34
L 888 34
L 888 34
L 888 34
L 888 34
L 888 34
L 888 34
L 888 34
L 888 34
L 888 34
L 889 34
L 889 33
L 889 33
L 889 33
L 889 33
L 889 33
L 889 33
L 889 33
L 889 33
L 889 33
L 889 33
L 890 33
L 890 33
L 890 33
L 890 33
L 890 33
L 890 33
L 890 33
L 890 33
L 890 33
L 890 33
L 891 32
L 891 32
L 891 32
L 891 32
L 891 32
L 891 32
L 891 32
L 891 32
L 892 32
L 892 32
L 893 32
L 893 32
L 894 32
L 895 32
L 896 32
L 896 32
L 896 32
L 896 32
L 896 32
L 896 32
L 896 31
L 896 31
L 897 31
L 897 31
L 897 31
L 897 31
L 897 31
L 897 31
L 897 31
L 897 31
L 897 31
L 897 31
L 897 31
L 897 31
L 897 31
L 897 31
L 897 31
L 897 31
L 897 31
L 897 31
L 897 30
L 897 30
L 897 30
L 897 30
L 897 30
L 898 30
L 898 30
L 898 30
L 898 30
L 898 30
L 898 30
L 898 30
L 898 30
L 898 30
L 898 30
L 898 30
L 898 30
L 898 30
L 898 30
L 898 30
L 898 29
L 898 29
L 898 29
L 899 29
L 899 29
L 899 29
L 899 29
L 899 29
L 899 29
L 899 29
L 899 29
L 899 29
L 899 29
L 899 29
L 899 29
L 899 29
L 899 29
L 899 29
L 899 29
L 899 29
L 900 28
L 900 28
L 900 28
L 900 28
L 900 28
L 900 28
L 900 28
L 900 28
L 900 28
L 900 28
L 900 28
L 900 28
L 900 28
L 900 28
L 900 28
L 900 28
L 900 28
L 900 28
L 900 28
L 900 28
L 900 27
L 900 27
L 900 27
L 900 27
L 900 27
L 901 27
L 901 27
L 901 27
L 901 27
L 901 27
L 901 27
L 901 27
L 901 27
L 901 27
L 901 27
L 901 27
L 901 27
L 901 27
L 901 27
L 901 27
L 901 26
L 901 26
L 901 26
L 902 26
L 902 26
L 902 26
L 902 26
L 902 26
L 902 26
L 902 26
L 902 26
L 902 26
L 902 26
L 902 26
L 902 26
L 902 26
L 902 26
L 902 26
L 902 26
L 902 26
L 902 25
L 902 25
L 902 25
L 903 25
L 903 25
L 904 25
L 904 25
L 904 25
L 904 25
L 904 25
L 905 25
L 905 25
L 905 25
L 905 25
L 905 25
L 905 25
L 905 25
L 906 25
L 906 25
L 906 25
L 906 24
L 907 24
L 908 24
L 909 24
L 910 24
L 910 24
L 910 24
L 910 24
L 911 24
L 911 24
L 911 24
L 911 24
L 911 24
L 911 24
L 911 24
L 911 24
L 911 24
L 911 24
L 911 24
L 911 24
L 911 23
L 911 23
L 911 23
L 911 23
L 911 23
L 911 23
L 911 23
L 911 23
L 911 23
L 911 23
L 912 23
L 912 23
L 912 23
L 912 23
L 912 23
L 912 23
L 912 23
L 912 23
L 912 23
L 912 23
L 912 22
L 912 22
L 913 22
L 913 22
L 913 22
L 913 22
L 913 22
L 913 22
L 913 22
L 913 22
L 913 22
L 913 22
L 913 22
L 913 22
L 913 22
L 913 22
L 914 22
L 914 22
L 914 22
L 914 22
L 914 21
L 914 21
L 914 21
L 914 21
L 914 21
L 914 21
L 914 21
L 914 21
L 914 21
L 914 21
L 914 21
L 914 21
L 914 21
L 915 21
L 915 21
L 915 21
L 915 21
L 915 21
L 915 21
L 915 21
L 915 20
L 915 20
L 915 20
L 915 20
L 915 20
L 915 20
L 915 20
L 915 20
L 915 20
L 915 20
L 915 20
L 915 20
L 915 20
L 915 20
L 915 20
L 915 20
L 915 20
L 915 20
L 915 20
L 915 20
L 916 19
L 916 19
L 916 19
L 916 19
L 916 19
L 916 19
L 916 19
L 916 19
L 917 19
L 917 19
L 917 19
L 917 19
L 917 19
L 917 19
L 917 19
L 918 19
L 918 19
L 918 19
L 918 19
L 919 19
L 919 18
L 919 18
L 920 18
L 920 18
L 923 18
L 924 18
L 924 18
L 925 18
L 925 18
L 925 18
L 925 18
L 925 18
L 925 18
L 926 18
L 926 18
L 926 18
L 926 18
L 926 18
L 926 18
L 927 18
L 927 17
L 928 17
L 928 17
L 928 17
L 928 17
L 928 17
L 929 17
L 929 17
L 930 17
L 930 17
L 930 17
L 930 17
L 931 17
L 931 17
L 931 17
L 932 17
L 932 17
L 932 17
L 933 17
L 933 17
L 933 16
L 933 16
L 933 16
L 934 16
L 934 16
L 935 16
L 935 16
L 938 16
L 938 16
L 939 16
L 939 16
L 939 16
L 939 16
L 939 16
L 939 16
L 939 16
L 940 16
L 940 16
L 940 16
L 940 16
L 940 15
L 941 15
L 941 15
L 941 15
L 941 15
L 942 15
L 942 15
L 942 15
L 942 15
L 943 15
L 943 15
L 943 15
L 943 15
L 943 15
L 943 15
L 943 15
L 943 15
L 943 15
L 945 15
L 945 15
L 945 14
L 945 14
L 945 14
L 945 14
L 946 14
L 946 14
L 947 14
L 947 14
L 948 14
L 948 14
L 950 14
L 952 14
L 952 14
L 952 14
L 952 14
L 952 14
L 952 14
L 952 14
L 952 14
L 953 14
L 953 13
L 953 13
L 953 13
L 953 13
L 953 13
L 953 13
L 953 13
L 953 13
L 953 13
L 953 13
L 953 13
L 953 13
L 954 13
L 954 13
L 954 13
L 954 13
L 955 13
L 955 13
L 955 13
L 955 13
L 955 12
L 955 12
L 955 12
L 955 12
L 955 12
L 955 12
L 955 12
L 955 12
L 955 12
L 955 12
L 956 12
L 956 12
L 956 12
L 956 12
L 956 12
L 956 12
L 956 12
L 956 12
L 956 12
L 956 12
L 956 11
L 956 11
L 956 11
L 956 11
L 956 11
L 956 11
L 957 11
L 957 11
L 957 11
L 957 11
L 957 11
L 957 11
L 957 11
L 957 11
L 957 11
L 957 11
L 957 11
L 957 11
L 957 11" style="stroke-width:2;stroke:rgba(129,199,239,1.0);fill:none"/></svg>