<svg xmlns="http://www.w3.org/2000/svg" xmlns:xlink="http://www.w3.org/1999/xlink" width="1024" height="400">\n<path  d="M 0 0
L 1024 0
L 1024 400
L 0 400
L 0 0" style="stroke-width:0;stroke:rgba(255,255,255,1.0);fill:rgba(255,255,255,1.0)"/><path  d="M 38 11
L 957 11
L 957 351
L 38 351
L 38 11" style="stroke-width:0;stroke:rgba(255,255,255,1.0);fill:rgba(255,255,255,1.0)"/><path  d="M 38 351
L 957 351" style="stroke-width:2;stroke:rgba(85,85,85,1.0);fill:none"/><path  d="M 38 351
L 38 356" style="stroke-width:2;stroke:rgba(85,85,85,1.0);fill:none"/><text x="5" y="373" style="stroke-width:0;stroke:none;fill:rgba(51,51,51,1.0);font-size:12.8px;font-family:'Roboto Medium',sans-serif">2018-11-23</text><path  d="M 153 351
L 153 356" style="stroke-width:2;stroke:rgba(85,85,85,1.0);fill:none"/><text x="120" y="373" style="stroke-width:0;stroke:none;fill:rgba(51,51,51,1.0);font-size:12.8px;font-family:'Roboto Medium',sans-serif">2018-12-01</text><path  d="M 268 351
L 268 356" style="stroke-width:2;stroke:rgba(85,85,85,1.0);fill:none"/><text x="235" y="373" style="stroke-width:0;stroke:none;fill:rgba(51,51,51,1.0);font-size:12.8px;font-family:'Roboto Medium',sans-serif">2018-12-08</text><path  d="M 383 351
L 383 356" style="stroke-width:2;stroke:rgba(85,85,85,1.0);fill:none"/><text x="350" y="373" style="stroke-width:0;stroke:none;fill:rgba(51,51,51,1.0);font-size:12.8px;font-family:'Roboto Medium',sans-serif">2018-12-16</text><path  d="M 498 351
L 498 356" style="stroke-width:2;stroke:rgba(85,85,85,1.0);fill:none"/><text x="465" y="373" style="stroke-width:0;stroke:none;fill:rgba(51,51,51,1.0);font-size:12.8px;font-family:'Roboto Medium',sans-serif">2018-12-24</text><path  d="M 613 351
L 613 356" style="stroke-width:2;stroke:rgba(85,85,85,1.0);fill:none"/><text x="580" y="373" style="stroke-width:0;stroke:none;fill:rgba(51,51,51,1.0);font-size:12.8px;font-family:'Roboto Medium',sans-serif">2019-01-01</text><path  d="M 728 351
L 728 356" style="stroke-width:2;stroke:rgba(85,85,85,1.0);fill:none"/><text x="695" y="373" style="stroke-width:0;stroke:none;fill:rgba(51,51,51,1.0);font-size:12.8px;font-family:'Roboto Medium',sans-serif">2019-01-09</text><path  d="M 843 351
L 843 356" style="stroke-width:2;stroke:rgba(85,85,85,1.0);fill:none"/><text x="810" y="373" style="stroke-width:0;stroke:none;fill:rgba(51,51,51,1.0);font-size:12.8px;font-family:'Roboto Medium',sans-serif">2019-01-17</text><path  d="M 957 351
L 957 356" style="stroke-width:2;stroke:rgba(85,85,85,1.0);fill:none"/><text x="924" y="373" style="stroke-width:0;stroke:none;fill:rgba(51,51,51,1.0);font-size:12.8px;font-family:'Roboto Medium',sans-serif">2019-01-25</text><text x="483" y="395" style="stroke-width:0;stroke:none;fill:rgba(51,51,51,1.0);font-size:12.8px;font-family:'Roboto Medium',sans-serif">Time</text><path  d="M 959 351
L 959 11" style="stroke-width:2;stroke:rgba(85,85,85,1.0);fill:none"/><path  d="M 959 351
L 964 351" style="stroke-width:2;stroke:rgba(85,85,85,1.0);fill:none"/><text x="969" y="357" style="stroke-width:0;stroke:none;fill:rgba(51,51,51,1.0);font-size:12.8px;font-family:'Roboto Medium',sans-serif">0</text><path  d="M 959 308
L 964 308" style="stroke-width:2;stroke:rgba(85,85,85,1.0);fill:none"/><text x="969" y="314" style="stroke-width:0;stroke:none;fill:rgba(51,51,51,1.0);font-size:12.8px;font-family:'Roboto Medium',sans-serif">830</text><path  d="M 959 266
L 964 266" style="stroke-width:2;stroke:rgba(85,85,85,1.0);fill:none"/><text x="969" y="272" style="stroke-width:0;stroke:none;fill:rgba(51,51,51,1.0);font-size:12.8px;font-family:'Roboto Medium',sans-serif">1650</text><path  d="M 959 223
L 964 223" style="stroke-width:2;stroke:rgba(85,85,85,1.0);fill:none"/><text x="969" y="229" style="stroke-width:0;stroke:none;fill:rgba(51,51,51,1.0);font-size:12.8px;font-family:'Roboto Medium',sans-serif">2480</text><path  d="M 959 181
L 964 181" style="stroke-width:2;stroke:rgba(85,85,85,1.0);fill:none"/><text x="969" y="187" style="stroke-width:0;stroke:none;fill:rgba(51,51,51,1.0);font-size:12.8px;font-family:'Roboto Medium',sans-serif">3300</text><path  d="M 959 138
L 964 138" style="stroke-width:2;stroke:rgba(85,85,85,1.0);fill:none"/><text x="969" y="144" style="stroke-width:0;stroke:none;fill:rgba(51,51,51,1.0);font-size:12.8px;font-family:'Roboto Medium',sans-serif">4130</text><path  d="M 959 96
L 964 96" style="stroke-width:2;stroke:rgba(85,85,85,1.0);fill:none"/><text x="969" y="102" style="stroke-width:0;stroke:none;fill:rgba(51,51,51,1.0);font-size:12.8px;font-family:'Roboto Medium',sans-serif">4950</text><path  d="M 959 53
L 964 53" style="stroke-width:2;stroke:rgba(85,85,85,1.0);fill:none"/><text x="969" y="59" style="stroke-width:0;stroke:none;fill:rgba(51,51,51,1.0);font-size:12.8px;font-family:'Roboto Medium',sans-serif">5780</text><path  d="M 959 11
L 964 11" style="stroke-width:2;stroke:rgba(85,85,85,1.0);fill:none"/><text x="969" y="17" style="stroke-width:0;stroke:none;fill:rgba(51,51,51,1.0);font-size:12.8px;font-family:'Roboto Medium',sans-serif">6600</text><text x="1009" y="150" style="stroke-width:0;stroke:none;fill:rgba(51,51,51,1.0);font-size:12.8px;font-family:'Roboto Medium',sans-serif" transform="rotate(90.00,1009,150)">Stargazers</text><path  d="M 38 351
L 115 350
L 168 350
L 171 350
L 182 350
L 182 350
L 182 350
L 183 350
L 183 350
L 184 350
L 184 350
L 184 350
L 184 350
L 184 350
L 184 350
L 185 350
L 185 350
L 185 350
L 185 350
L 185 350
L 186 349
L 186 349
L 188 349
L 189 349
L 197 349
L 197 349
L 197 349
L 197 349
L 198 349
L 200 349
L 201 349
L 202 349
L 204 349
L 204 349
L 204 349
L 204 349
L 204 349
L 204 349
L 208 349
L 210 348
L 211 348
L 211 348
L 211 348
L 211 348
L 211 348
L 212 348
L 212 348
L 212 348
L 212 348
L 213 348
L 214 348
L 215 348
L 215 348
L 215 348
L 215 348
L 216 348
L 216 348
L 216 348
L 217 348
L 217 347
L 217 347
L 218 347
L 218 347
L 218 347
L 219 347
L 219 347
L 219 347
L 219 347
L 220 347
L 224 347
L 226 347
L 226 347
L 226 347
L 226 347
L 226 347
L 227 347
L 227 347
L 227 347
L 228 346
L 228 346
L 228 346
L 228 346
L 228 346
L 228 346
L 228 346
L 228 346
L 228 346
L 228 346
L 228 346
L 228 346
L 228 346
L 228 346
L 228 346
L 228 346
L 228 346
L 228 346
L 228 346
L 228 346
L 228 345
L 228 345
L 228 345
L 228 345
L 228 345
L 228 345
L 228 345
L 228 345
L 228 345
L 228 345
L 228 345
L 228 345
L 229 345
L 229 345
L 229 345
L 229 345
L 229 345
L 229 345
L 229 345
L 229 344
L 229 344
L 229 344
L 229 344
L 229 344
L 229 344
L 229 344
L 229 344
L 229 344
L 229 344
L 229 344
L 229 344
L 229 344
L 230 344
L 230 344
L 230 344
L 230 344
L 230 344
L 230 344
L 231 343
L 231 343
L 231 343
L 231 343
L 231 343
L 231 343
L 232 343
L 232 343
L 232 343
L 232 343
L 232 343
L 232 343
L 232 343
L 232 343
L 232 343
L 232 343
L 232 343
L 232 343
L 234 343
L 235 343
L 239 342
L 239 342
L 240 342
L 240 342
L 240 342
L 240 342
L 240 342
L 241 342
L 241 342
L 242 342
L 243 342
L 243 342
L 243 342
L 243 342
L 243 342
L 243 342
L 244 342
L 244 342
L 244 342
L 245 341
L 245 341
L 245 341
L 245 341
L 245 341
L 245 341
L 247 341
L 254 341
L 255 341
L 255 341
L 255 341
L 256 341
L 257 341
L 258 341
L 259 341
L 263 341
L 263 341
L 264 341
L 266 341
L 270 341
L 270 340
L 273 340
L 273 340
L 274 340
L 274 340
L 275 340
L 275 340
L 275 340
L 275 340
L 276 340
L 276 340
L 276 340
L 276 340
L 279 340
L 283 340
L 284 340
L 284 340
L 285 340
L 285 340
L 285 339
L 287 339
L 288 339
L 288 339
L 292 339
L 292 339
L 298 339
L 301 339
L 301 339
L 302 339
L 302 339
L 304 339
L 305 339
L 313 339
L 313 339
L 313 339
L 314 339
L 314 339
L 316 339
L 316 338
L 318 338
L 319 338
L 319 338
L 321 338
L 323 338
L 328 338
L 333 338
L 334 338
L 341 338
L 343 338
L 343 338
L 345 338
L 345 338
L 345 338
L 346 338
L 348 338
L 349 338
L 349 338
L 350 338
L 350 337
L 352 337
L 354 337
L 357 337
L 359 337
L 359 337
L 360 337
L 360 337
L 360 337
L 361 337
L 362 337
L 363 337
L 364 337
L 365 337
L 365 337
L 366 337
L 371 337
L 371 337
L 371 337
L 373 336
L 375 336
L 377 336
L 378 336
L 378 336
L 379 336
L 385 336
L 386 336
L 386 336
L 386 336
L 386 336
L 387 336
L 390 336
L 390 336
L 392 336
L 394 336
L 400 336
L 401 336
L 404 336
L 404 336
L 405 335
L 405 335
L 405 335
L 407 335
L 407 335
L 409 335
L 409 335
L 415 335
L 416 335
L 417 335
L 417 335
L 418 335
L 418 335
L 418 335
L 419 335
L 421 335
L 429 335
L 429 335
L 429 335
L 430 334
L 432 334
L 432 334
L 434 334
L 434 334
L 434 334
L 436 334
L 437 334
L 437 334
L 437 334
L 437 334
L 439 334
L 444 334
L 445 334
L 445 334
L 445 334
L 445 334
L 445 334
L 445 334
L 445 334
L 445 333
L 446 333
L 447 333
L 447 333
L 447 333
L 447 333
L 447 333
L 447 333
L 447 333
L 447 333
L 447 333
L 447 333
L 447 333
L 448 333
L 448 333
L 448 333
L 448 333
L 448 333
L 448 333
L 448 332
L 448 332
L 448 332
L 448 332
L 448 332
L 448 332
L 448 332
L 448 332
L 449 332
L 449 332
L 449 332
L 449 332
L 449 332
L 449 332
L 449 332
L 449 332
L 449 332
L 449 332
L 449 332
L 449 331
L 449 331
L 449 331
L 449 331
L 449 331
L 449 331
L 449 331
L 449 331
L 449 331
L 449 331
L 449 331
L 450 331
L 450 331
L 450 331
L 450 331
L 450 331
L 450 331
L 450 331
L 451 331
L 451 331
L 451 330
L 451 330
L 451 330
L 451 330
L 451 330
L 451 330
L 451 330
L 451 330
L 451 330
L 452 330
L 452 330
L 452 330
L 452 330
L 453 330
L 453 330
L 453 330
L 454 330
L 458 330
L 459 330
L 459 329
L 459 329
L 459 329
L 459 329
L 459 329
L 459 329
L 459 329
L 459 329
L 459 329
L 460 329
L 460 329
L 460 329
L 460 329
L 460 329
L 460 329
L 460 329
L 460 329
L 460 329
L 460 329
L 461 329
L 461 328
L 461 328
L 461 328
L 461 328
L 461 328
L 461 328
L 461 328
L 461 328
L 462 328
L 462 328
L 462 328
L 462 328
L 462 328
L 462 328
L 462 328
L 462 328
L 462 328
L 462 328
L 462 328
L 462 327
L 462 327
L 463 327
L 463 327
L 463 327
L 463 327
L 463 327
L 463 327
L 463 327
L 463 327
L 463 327
L 463 327
L 463 327
L 463 327
L 463 327
L 463 327
L 463 327
L 463 327
L 463 327
L 463 326
L 463 326
L 463 326
L 464 326
L 464 326
L 464 326
L 464 326
L 464 326
L 464 326
L 464 326
L 464 326
L 464 326
L 464 326
L 465 326
L 465 326
L 465 326
L 465 326
L 465 326
L 465 326
L 465 326
L 465 325
L 465 325
L 465 325
L 465 325
L 466 325
L 466 325
L 466 325
L 466 325
L 466 325
L 466 325
L 466 325
L 466 325
L 466 325
L 466 325
L 466 325
L 466 325
L 466 325
L 466 325
L 466 325
L 466 324
L 467 324
L 467 324
L 467 324
L 467 324
L 467 324
L 467 324
L 467 324
L 467 324
L 467 324
L 467 324
L 467 324
L 467 324
L 467 324
L 467 324
L 467 324
L 467 324
L 467 324
L 468 324
L 468 324
L 468 323
L 468 323
L 468 323
L 468 323
L 468 323
L 468 323
L 469 323
L 469 323
L 469 323
L 470 323
L 472 323
L 472 323
L 472 323
L 472 323
L 472 323
L 473 323
L 473 323
L 473 323
L 473 323
L 473 322
L 473 322
L 473 322
L 473 322
L 473 322
L 473 322
L 474 322
L 474 322
L 474 322
L 474 322
L 474 322
L 474 322
L 474 322
L 474 322
L 474 322
L 474 322
L 474 322
L 474 322
L 474 322
L 474 321
L 474 321
L 474 321
L 475 321
L 475 321
L 475 321
L 475 321
L 475 321
L 475 321
L 475 321
L 475 321
L 475 321
L 475 321
L 475 321
L 475 321
L 475 321
L 475 321
L 475 321
L 475 321
L 476 321
L 476 320
L 476 320
L 476 320
L 476 320
L 476 320
L 476 320
L 476 320
L 476 320
L 476 320
L 476 320
L 476 320
L 476 320
L 476 320
L 476 320
L 476 320
L 476 320
L 476 320
L 476 320
L 477 320
L 477 319
L 477 319
L 477 319
L 477 319
L 477 319
L 477 319
L 477 319
L 477 319
L 477 319
L 477 319
L 477 319
L 477 319
L 477 319
L 477 319
L 477 319
L 477 319
L 477 319
L 478 319
L 478 319
L 478 319
L 478 318
L 478 318
L 478 318
L 478 318
L 478 318
L 478 318
L 478 318
L 479 318
L 479 318
L 479 318
L 479 318
L 479 318
L 479 318
L 479 318
L 479 318
L 479 318
L 479 318
L 479 318
L 479 318
L 479 317
L 479 317
L 479 317
L 479 317
L 480 317
L 480 317
L 480 317
L 480 317
L 480 317
L 480 317
L 480 317
L 480 317
L 480 317
L 480 317
L 480 317
L 480 317
L 480 317
L 480 317
L 480 317
L 481 317
L 481 316
L 481 316
L 481 316
L 481 316
L 481 316
L 481 316
L 481 316
L 481 316
L 481 316
L 481 316
L 481 316
L 481 316
L 481 316
L 481 316
L 481 316
L 481 316
L 481 316
L 481 316
L 481 316
L 481 315
L 481 315
L 481 315
L 481 315
L 482 315
L 482 315
L 482 315
L 482 315
L 482 315
L 482 315
L 482 315
L 482 315
L 482 315
L 482 315
L 482 315
L 482 315
L 482 315
L 483 315
L 483 315
L 483 314
L 483 314
L 483 314
L 484 314
L 484 314
L 484 314
L 485 314
L 486 314
L 487 314
L 487 314
L 487 314
L 487 314
L 487 314
L 487 314
L 487 314
L 487 314
L 487 314
L 487 314
L 487 314
L 487 314
L 487 313
L 487 313
L 487 313
L 487 313
L 487 313
L 487 313
L 487 313
L 487 313
L 487 313
L 487 313
L 487 313
L 487 313
L 487 313
L 487 313
L 487 313
L 487 313
L 487 313
L 487 313
L 487 313
L 488 312
L 488 312
L 488 312
L 488 312
L 488 312
L 488 312
L 488 312
L 488 312
L 488 312
L 488 312
L 488 312
L 488 312
L 488 312
L 488 312
L 488 312
L 488 312
L 488 312
L 488 312
L 488 312
L 488 312
L 488 311
L 488 311
L 488 311
L 488 311
L 488 311
L 488 311
L 488 311
L 488 311
L 488 311
L 488 311
L 488 311
L 488 311
L 488 311
L 488 311
L 488 311
L 488 311
L 488 311
L 488 311
L 488 311
L 488 310
L 488 310
L 488 310
L 488 310
L 488 310
L 488 310
L 488 310
L 488 310
L 488 310
L 488 310
L 488 310
L 488 310
L 488 310
L 488 310
L 488 310
L 488 310
L 488 310
L 488 310
L 488 310
L 488 309
L 488 309
L 488 309
L 488 309
L 488 309
L 488 309
L 488 309
L 488 309
L 488 309
L 488 309
L 488 309
L 488 309
L 488 309
L 488 309
L 488 309
L 488 309
L 488 309
L 489 309
L 489 309
L 489 309
L 489 308
L 489 308
L 489 308
L 489 308
L 489 308
L 489 308
L 489 308
L 489 308
L 489 308
L 489 308
L 489 308
L 489 308
L 489 308
L 489 308
L 489 308
L 489 308
L 489 308
L 489 308
L 489 308
L 489 307
L 489 307
L 489 307
L 489 307
L 489 307
L 489 307
L 489 307
L 489 307
L 489 307
L 489 307
L 489 307
L 489 307
L 489 307
L 489 307
L 489 307
L 489 307
L 489 307
L 490 307
L 490 307
L 490 307
L 490 306
L 490 306
L 490 306
L 490 306
L 490 306
L 490 306
L 490 306
L 490 306
L 490 306
L 490 306
L 490 306
L 490 306
L 490 306
L 490 306
L 490 306
L 490 306
L 490 306
L 490 306
L 490 306
L 490 305
L 490 305
L 490 305
L 490 305
L 490 305
L 490 305
L 490 305
L 490 305
L 490 305
L 490 305
L 490 305
L 490 305
L 490 305
L 490 305
L 490 305
L 490 305
L 490 305
L 490 305
L 490 305
L 490 304
L 490 304
L 491 304
L 491 304
L 491 304
L 491 304
L 491 304
L 491 304
L 491 304
L 491 304
L 491 304
L 491 304
L 491 304
L 491 304
L 491 304
L 491 304
L 491 304
L 491 304
L 491 304
L 491 304
L 491 303
L 491 303
L 491 303
L 491 303
L 491 303
L 491 303
L 491 303
L 491 303
L 491 303
L 491 303
L 491 303
L 491 303
L 491 303
L 491 303
L 491 303
L 491 303
L 491 303
L 491 303
L 491 303
L 491 302
L 491 302
L 491 302
L 491 302
L 491 302
L 491 302
L 491 302
L 491 302
L 491 302
L 491 302
L 491 302
L 491 302
L 491 302
L 491 302
L 491 302
L 491 302
L 491 302
L 491 302
L 491 302
L 491 302
L 491 301
L 491 301
L 491 301
L 491 301
L 491 301
L 491 301
L 491 301
L 491 301
L 491 301
L 491 301
L 491 301
L 492 301
L 492 301
L 492 301
L 492 301
L 492 301
L 492 301
L 492 301
L 492 301
L 492 300
L 492 300
L 492 300
L 492 300
L 492 300
L 492 300
L 492 300
L 492 300
L 492 300
L 492 300
L 492 300
L 492 300
L 492 300
L 492 300
L 492 300
L 492 300
L 492 300
L 492 300
L 492 300
L 492 300
L 492 299
L 492 299
L 492 299
L 492 299
L 492 299
L 492 299
L 492 299
L 492 299
L 492 299
L 492 299
L 492 299
L 492 299
L 493 299
L 493 299
L 493 299
L 493 299
L 493 299
L 493 299
L 493 299
L 493 298
L 493 298
L 493 298
L 493 298
L 493 298
L 493 298
L 493 298
L 493 298
L 493 298
L 493 298
L 493 298
L 493 298
L 493 298
L 493 298
L 493 298
L 493 298
L 493 298
L 493 298
L 493 298
L 493 297
L 493 297
L 493 297
L 493 297
L 493 297
L 493 297
L 493 297
L 493 297
L 493 297
L 493 297
L 493 297
L 493 297
L 493 297
L 493 297
L 493 297
L 493 297
L 493 297
L 494 297
L 494 297
L 494 297
L 494 296
L 494 296
L 494 296
L 494 296
L 494 296
L 494 296
L 494 296
L 494 296
L 494 296
L 494 296
L 494 296
L 494 296
L 494 296
L 494 296
L 494 296
L 494 296
L 494 296
L 494 296
L 494 296
L 494 295
L 494 295
L 495 295
L 495 295
L 495 295
L 495 295
L 495 295
L 495 295
L 495 295
L 495 295
L 495 295
L 495 295
L 495 295
L 495 295
L 495 295
L 495 295
L 495 295
L 495 295
L 496 295
L 496 295
L 496 294
L 496 294
L 496 294
L 496 294
L 496 294
L 496 294
L 496 294
L 496 294
L 496 294
L 496 294
L 496 294
L 496 294
L 496 294
L 496 294
L 496 294
L 496 294
L 496 294
L 496 294
L 496 294
L 496 293
L 497 293
L 497 293
L 497 293
L 497 293
L 497 293
L 497 293
L 497 293
L 497 293
L 498 293
L 498 293
L 499 293
L 501 293
L 501 293
L 501 293
L 501 293
L 501 293
L 502 293
L 502 293
L 502 292
L 502 292
L 502 292
L 502 292
L 502 292
L 502 292
L 502 292
L 502 292
L 502 292
L 502 292
L 502 292
L 502 292
L 502 292
L 502 292
L 502 292
L 502 292
L 502 292
L 502 292
L 502 292
L 502 292
L 502 291
L 502 291
L 502 291
L 502 291
L 502 291
L 502 291
L 502 291
L 502 291
L 502 291
L 502 291
L 502 291
L 502 291
L 502 291
L 502 291
L 502 291
L 502 291
L 502 291
L 502 291
L 502 291
L 502 290
L 502 290
L 502 290
L 502 290
L 503 290
L 503 290
L 503 290
L 503 290
L 503 290
L 503 290
L 503 290
L 503 290
L 503 290
L 503 290
L 503 290
L 503 290
L 503 290
L 503 290
L 503 290
L 503 290
L 503 289
L 503 289
L 503 289
L 503 289
L 503 289
L 503 289
L 503 289
L 503 289
L 503 289
L 503 289
L 503 289
L 503 289
L 503 289
L 503 289
L 503 289
L 503 289
L 503 289
L 503 289
L 503 289
L 503 288
L 503 288
L 503 288
L 503 288
L 503 288
L 503 288
L 503 288
L 503 288
L 503 288
L 503 288
L 503 288
L 503 288
L 503 288
L 503 288
L 503 288
L 503 288
L 503 288
L 503 288
L 503 288
L 503 287
L 503 287
L 503 287
L 503 287
L 503 287
L 503 287
L 503 287
L 503 287
L 503 287
L 503 287
L 503 287
L 503 287
L 503 287
L 503 287
L 503 287
L 503 287
L 503 287
L 503 287
L 503 287
L 503 287
L 503 286
L 503 286
L 503 286
L 503 286
L 503 286
L 503 286
L 503 286
L 503 286
L 503 286
L 503 286
L 503 286
L 504 286
L 504 286
L 504 286
L 504 286
L 504 286
L 504 286
L 504 286
L 504 286
L 504 285
L 504 285
L 504 285
L 504 285
L 504 285
L 504 285
L 504 285
L 504 285
L 504 285
L 504 285
L 504 285
L 504 285
L 504 285
L 504 285
L 504 285
L 504 285
L 504 285
L 505 285
L 505 285
L 505 285
L 505 284
L 505 284
L 505 284
L 505 284
L 505 284
L 505 284
L 505 284
L 505 284
L 505 284
L 505 284
L 505 284
L 505 284
L 505 284
L 505 284
L 505 284
L 505 284
L 505 284
L 505 284
L 505 284
L 505 283
L 505 283
L 505 283
L 505 283
L 505 283
L 505 283
L 505 283
L 505 283
L 505 283
L 505 283
L 505 283
L 505 283
L 505 283
L 505 283
L 505 283
L 505 283
L 505 283
L 505 283
L 505 283
L 505 283
L 505 282
L 505 282
L 505 282
L 505 282
L 506 282
L 506 282
L 506 282
L 506 282
L 506 282
L 506 282
L 506 282
L 506 282
L 506 282
L 506 282
L 506 282
L 506 282
L 506 282
L 506 282
L 506 282
L 506 281
L 506 281
L 506 281
L 506 281
L 506 281
L 506 281
L 506 281
L 506 281
L 506 281
L 506 281
L 506 281
L 506 281
L 506 281
L 506 281
L 506 281
L 506 281
L 506 281
L 506 281
L 506 281
L 506 280
L 506 280
L 506 280
L 506 280
L 506 280
L 506 280
L 506 280
L 506 280
L 506 280
L 506 280
L 506 280
L 506 280
L 506 280
L 507 280
L 507 280
L 507 280
L 507 280
L 507 280
L 507 280
L 507 280
L 507 279
L 507 279
L 507 279
L 507 279
L 507 279
L 507 279
L 507 279
L 507 279
L 507 279
L 507 279
L 507 279
L 507 279
L 507 279
L 507 279
L 507 279
L 507 279
L 507 279
L 507 279
L 507 279
L 507 278
L 507 278
L 507 278
L 507 278
L 507 278
L 507 278
L 507 278
L 507 278
L 507 278
L 507 278
L 507 278
L 507 278
L 507 278
L 507 278
L 507 278
L 507 278
L 507 278
L 507 278
L 508 278
L 508 278
L 508 277
L 508 277
L 508 277
L 508 277
L 508 277
L 508 277
L 508 277
L 508 277
L 508 277
L 508 277
L 508 277
L 508 277
L 508 277
L 508 277
L 508 277
L 508 277
L 508 277
L 508 277
L 508 277
L 508 276
L 508 276
L 508 276
L 508 276
L 508 276
L 508 276
L 508 276
L 508 276
L 508 276
L 508 276
L 508 276
L 508 276
L 508 276
L 508 276
L 508 276
L 508 276
L 508 276
L 508 276
L 508 276
L 508 275
L 508 275
L 508 275
L 508 275
L 508 275
L 508 275
L 508 275
L 508 275
L 508 275
L 508 275
L 508 275
L 508 275
L 508 275
L 508 275
L 509 275
L 509 275
L 509 275
L 509 275
L 509 275
L 509 275
L 509 274
L 509 274
L 509 274
L 509 274
L 509 274
L 509 274
L 509 274
L 509 274
L 509 274
L 509 274
L 509 274
L 509 274
L 509 274
L 509 274
L 509 274
L 509 274
L 509 274
L 509 274
L 509 274
L 509 273
L 509 273
L 509 273
L 509 273
L 509 273
L 509 273
L 510 273
L 510 273
L 510 273
L 510 273
L 510 273
L 510 273
L 510 273
L 510 273
L 510 273
L 510 273
L 510 273
L 510 273
L 510 273
L 510 273
L 510 272
L 510 272
L 510 272
L 510 272
L 510 272
L 510 272
L 510 272
L 510 272
L 510 272
L 510 272
L 510 272
L 510 272
L 510 272
L 510 272
L 510 272
L 511 272
L 511 272
L 511 272
L 511 272
L 511 271
L 511 271
L 511 271
L 511 271
L 511 271
L 511 271
L 511 271
L 511 271
L 511 271
L 511 271
L 511 271
L 511 271
L 511 271
L 511 271
L 511 271
L 511 271
L 511 271
L 511 271
L 512 271
L 512 270
L 512 270
L 512 270
L 512 270
L 512 270
L 513 270
L 513 270
L 513 270
L 514 270
L 514 270
L 516 270
L 516 270
L 516 270
L 516 270
L 516 270
L 516 270
L 516 270
L 516 270
L 516 270
L 516 270
L 516 269
L 516 269
L 516 269
L 516 269
L 516 269
L 516 269
L 516 269
L 517 269
L 517 269
L 517 269
L 517 269
L 517 269
L 517 269
L 517 269
L 517 269
L 517 269
L 517 269
L 517 269
L 517 269
L 517 268
L 517 268
L 517 268
L 517 268
L 517 268
L 517 268
L 517 268
L 517 268
L 517 268
L 517 268
L 517 268
L 517 268
L 517 268
L 517 268
L 517 268
L 517 268
L 517 268
L 517 268
L 517 268
L 517 268
L 517 267
L 517 267
L 517 267
L 517 267
L 517 267
L 517 267
L 517 267
L 517 267
L 517 267
L 517 267
L 517 267
L 517 267
L 517 267
L 517 267
L 517 267
L 517 267
L 517 267
L 517 267
L 517 267
L 517 266
L 517 266
L 517 266
L 517 266
L 517 266
L 517 266
L 517 266
L 517 266
L 517 266
L 517 266
L 517 266
L 517 266
L 517 266
L 517 266
L 517 266
L 517 266
L 517 266
L 517 266
L 517 266
L 517 266
L 517 265
L 517 265
L 517 265
L 517 265
L 517 265
L 517 265
L 518 265
L 518 265
L 518 265
L 518 265
L 518 265
L 518 265
L 518 265
L 518 265
L 518 265
L 518 265
L 518 265
L 518 265
L 518 265
L 518 264
L 518 264
L 518 264
L 518 264
L 518 264
L 518 264
L 518 264
L 518 264
L 518 264
L 518 264
L 518 264
L 518 264
L 518 264
L 518 264
L 518 264
L 518 264
L 518 264
L 518 264
L 518 264
L 518 263
L 518 263
L 518 263
L 518 263
L 518 263
L 519 263
L 519 263
L 519 263
L 519 263
L 519 263
L 519 263
L 519 263
L 519 263
L 519 263
L 519 263
L 519 263
L 519 263
L 519 263
L 519 263
L 519 263
L 519 262
L 519 262
L 519 262
L 519 262
L 519 262
L 519 262
L 519 262
L 519 262
L 519 262
L 519 262
L 519 262
L 519 262
L 520 262
L 520 262
L 520 262
L 520 262
L 520 262
L 520 262
L 520 262
L 520 261
L 520 261
L 520 261
L 520 261
L 520 261
L 520 261
L 520 261
L 520 261
L 520 261
L 520 261
L 520 261
L 520 261
L 520 261
L 520 261
L 520 261
L 520 261
L 520 261
L 520 261
L 520 261
L 520 261
L 520 260
L 520 260
L 520 260
L 520 260
L 520 260
L 520 260
L 520 260
L 520 260
L 520 260
L 520 260
L 520 260
L 520 260
L 520 260
L 520 260
L 520 260
L 520 260
L 520 260
L 521 260
L 521 260
L 521 259
L 521 259
L 521 259
L 521 259
L 521 259
L 521 259
L 521 259
L 521 259
L 521 259
L 521 259
L 521 259
L 521 259
L 521 259
L 521 259
L 521 259
L 521 259
L 521 259
L 521 259
L 521 259
L 521 258
L 521 258
L 521 258
L 521 258
L 521 258
L 521 258
L 521 258
L 521 258
L 521 258
L 521 258
L 521 258
L 521 258
L 521 258
L 521 258
L 521 258
L 521 258
L 521 258
L 521 258
L 521 258
L 521 258
L 522 257
L 522 257
L 522 257
L 522 257
L 522 257
L 522 257
L 522 257
L 522 257
L 522 257
L 522 257
L 522 257
L 522 257
L 522 257
L 522 257
L 522 257
L 522 257
L 522 257
L 522 257
L 522 257
L 522 256
L 522 256
L 522 256
L 522 256
L 522 256
L 522 256
L 522 256
L 522 256
L 522 256
L 522 256
L 522 256
L 522 256
L 522 256
L 522 256
L 522 256
L 522 256
L 522 256
L 522 256
L 523 256
L 523 256
L 523 255
L 523 255
L 523 255
L 523 255
L 523 255
L 523 255
L 523 255
L 523 255
L 523 255
L 523 255
L 523 255
L 523 255
L 523 255
L 523 255
L 523 255
L 523 255
L 523 255
L 523 255
L 523 255
L 523 254
L 524 254
L 524 254
L 524 254
L 524 254
L 524 254
L 524 254
L 524 254
L 524 254
L 524 254
L 524 254
L 524 254
L 524 254
L 524 254
L 524 254
L 524 254
L 524 254
L 524 254
L 524 254
L 524 253
L 524 253
L 524 253
L 524 253
L 524 253
L 525 253
L 525 253
L 525 253
L 525 253
L 525 253
L 525 253
L 525 253
L 525 253
L 525 253
L 525 253
L 525 253
L 525 253
L 525 253
L 525 253
L 525 253
L 525 252
L 525 252
L 525 252
L 526 252
L 526 252
L 526 252
L 526 252
L 526 252
L 526 252
L 526 252
L 526 252
L 526 252
L 526 252
L 526 252
L 526 252
L 527 252
L 527 252
L 530 252
L 530 252
L 530 251
L 530 251
L 531 251
L 531 251
L 531 251
L 531 251
L 531 251
L 531 251
L 531 251
L 531 251
L 531 251
L 531 251
L 531 251
L 531 251
L 531 251
L 531 251
L 531 251
L 531 251
L 531 251
L 531 251
L 531 250
L 531 250
L 531 250
L 531 250
L 531 250
L 531 250
L 531 250
L 532 250
L 532 250
L 532 250
L 532 250
L 532 250
L 532 250
L 532 250
L 532 250
L 532 250
L 532 250
L 532 250
L 532 250
L 532 249
L 532 249
L 532 249
L 532 249
L 532 249
L 532 249
L 532 249
L 532 249
L 532 249
L 532 249
L 532 249
L 532 249
L 532 249
L 532 249
L 532 249
L 532 249
L 532 249
L 532 249
L 532 249
L 532 249
L 532 248
L 532 248
L 532 248
L 532 248
L 532 248
L 532 248
L 532 248
L 532 248
L 532 248
L 532 248
L 532 248
L 532 248
L 532 248
L 532 248
L 532 248
L 532 248
L 532 248
L 533 248
L 533 248
L 533 247
L 533 247
L 533 247
L 533 247
L 533 247
L 533 247
L 533 247
L 533 247
L 533 247
L 533 247
L 533 247
L 533 247
L 533 247
L 533 247
L 533 247
L 533 247
L 534 247
L 534 247
L 534 247
L 534 246
L 534 246
L 534 246
L 534 246
L 534 246
L 534 246
L 534 246
L 534 246
L 534 246
L 534 246
L 534 246
L 534 246
L 534 246
L 534 246
L 534 246
L 534 246
L 534 246
L 534 246
L 534 246
L 535 246
L 535 245
L 535 245
L 535 245
L 535 245
L 535 245
L 535 245
L 535 245
L 535 245
L 535 245
L 535 245
L 535 245
L 535 245
L 535 245
L 535 245
L 535 245
L 535 245
L 535 245
L 535 245
L 535 245
L 535 244
L 535 244
L 535 244
L 535 244
L 535 244
L 535 244
L 535 244
L 535 244
L 535 244
L 535 244
L 536 244
L 536 244
L 536 244
L 536 244
L 536 244
L 536 244
L 536 244
L 536 244
L 536 244
L 536 244
L 536 243
L 536 243
L 536 243
L 536 243
L 536 243
L 536 243
L 536 243
L 536 243
L 536 243
L 536 243
L 536 243
L 536 243
L 536 243
L 536 243
L 536 243
L 536 243
L 536 243
L 536 243
L 536 243
L 536 242
L 536 242
L 536 242
L 536 242
L 536 242
L 536 242
L 536 242
L 536 242
L 537 242
L 537 242
L 537 242
L 537 242
L 537 242
L 537 242
L 537 242
L 537 242
L 537 242
L 537 242
L 537 242
L 537 241
L 537 241
L 537 241
L 537 241
L 537 241
L 538 241
L 538 241
L 538 241
L 538 241
L 538 241
L 538 241
L 538 241
L 538 241
L 538 241
L 538 241
L 538 241
L 538 241
L 538 241
L 538 241
L 538 241
L 538 240
L 538 240
L 538 240
L 538 240
L 538 240
L 538 240
L 539 240
L 539 240
L 539 240
L 539 240
L 539 240
L 539 240
L 539 240
L 539 240
L 539 240
L 539 240
L 539 240
L 539 240
L 540 240
L 540 239
L 540 239
L 540 239
L 540 239
L 540 239
L 540 239
L 540 239
L 540 239
L 541 239
L 541 239
L 541 239
L 541 239
L 542 239
L 542 239
L 542 239
L 542 239
L 545 239
L 545 239
L 546 239
L 546 239
L 546 238
L 546 238
L 546 238
L 546 238
L 546 238
L 546 238
L 546 238
L 546 238
L 546 238
L 546 238
L 546 238
L 546 238
L 546 238
L 546 238
L 546 238
L 546 238
L 546 238
L 546 238
L 546 238
L 546 237
L 546 237
L 546 237
L 546 237
L 546 237
L 546 237
L 546 237
L 546 237
L 546 237
L 546 237
L 546 237
L 546 237
L 546 237
L 546 237
L 546 237
L 546 237
L 546 237
L 546 237
L 546 237
L 546 236
L 546 236
L 546 236
L 546 236
L 547 236
L 547 236
L 547 236
L 547 236
L 547 236
L 547 236
L 547 236
L 547 236
L 547 236
L 547 236
L 547 236
L 547 236
L 547 236
L 547 236
L 547 236
L 547 236
L 547 235
L 547 235
L 547 235
L 547 235
L 547 235
L 547 235
L 547 235
L 547 235
L 547 235
L 547 235
L 547 235
L 547 235
L 547 235
L 547 235
L 547 235
L 547 235
L 547 235
L 547 235
L 547 235
L 547 234
L 547 234
L 548 234
L 548 234
L 548 234
L 548 234
L 548 234
L 548 234
L 548 234
L 548 234
L 548 234
L 548 234
L 548 234
L 548 234
L 548 234
L 549 234
L 549 234
L 549 234
L 549 234
L 549 234
L 549 233
L 549 233
L 549 233
L 549 233
L 549 233
L 549 233
L 549 233
L 549 233
L 549 233
L 549 233
L 549 233
L 549 233
L 549 233
L 549 233
L 549 233
L 549 233
L 549 233
L 549 233
L 549 233
L 549 232
L 549 232
L 549 232
L 549 232
L 549 232
L 549 232
L 549 232
L 549 232
L 549 232
L 549 232
L 549 232
L 549 232
L 549 232
L 549 232
L 549 232
L 549 232
L 549 232
L 549 232
L 549 232
L 549 232
L 549 231
L 550 231
L 550 231
L 550 231
L 550 231
L 550 231
L 550 231
L 550 231
L 550 231
L 550 231
L 550 231
L 550 231
L 550 231
L 550 231
L 550 231
L 550 231
L 550 231
L 550 231
L 550 231
L 550 230
L 550 230
L 550 230
L 550 230
L 550 230
L 550 230
L 550 230
L 550 230
L 550 230
L 550 230
L 550 230
L 550 230
L 550 230
L 550 230
L 550 230
L 550 230
L 550 230
L 550 230
L 550 230
L 550 229
L 550 229
L 550 229
L 550 229
L 550 229
L 550 229
L 550 229
L 550 229
L 550 229
L 550 229
L 550 229
L 551 229
L 551 229
L 551 229
L 551 229
L 551 229
L 551 229
L 551 229
L 551 229
L 551 229
L 551 228
L 551 228
L 551 228
L 551 228
L 551 228
L 551 228
L 551 228
L 551 228
L 551 228
L 551 228
L 551 228
L 551 228
L 551 228
L 551 228
L 551 228
L 551 228
L 551 228
L 551 228
L 551 228
L 552 227
L 552 227
L 552 227
L 552 227
L 552 227
L 552 227
L 552 227
L 552 227
L 552 227
L 552 227
L 552 227
L 552 227
L 552 227
L 552 227
L 552 227
L 553 227
L 553 227
L 553 227
L 553 227
L 553 227
L 553 226
L 553 226
L 553 226
L 553 226
L 553 226
L 553 226
L 553 226
L 554 226
L 554 226
L 554 226
L 554 226
L 554 226
L 554 226
L 554 226
L 554 226
L 554 226
L 554 226
L 554 226
L 554 226
L 554 225
L 554 225
L 554 225
L 554 225
L 554 225
L 554 225
L 555 225
L 555 225
L 555 225
L 555 225
L 555 225
L 555 225
L 555 225
L 555 225
L 555 225
L 555 225
L 555 225
L 557 225
L 557 225
L 557 224
L 558 224
L 560 224
L 560 224
L 560 224
L 560 224
L 560 224
L 560 224
L 560 224
L 560 224
L 560 224
L 560 224
L 560 224
L 560 224
L 560 224
L 560 224
L 560 224
L 560 224
L 560 224
L 560 224
L 560 223
L 560 223
L 560 223
L 560 223
L 561 223
L 561 223
L 561 223
L 561 223
L 561 223
L 561 223
L 561 223
L 561 223
L 561 223
L 561 223
L 561 223
L 561 223
L 561 223
L 561 223
L 561 223
L 561 222
L 561 222
L 561 222
L 561 222
L 561 222
L 561 222
L 561 222
L 561 222
L 561 222
L 561 222
L 561 222
L 561 222
L 561 222
L 561 222
L 561 222
L 561 222
L 561 222
L 561 222
L 561 222
L 561 222
L 561 221
L 561 221
L 561 221
L 561 221
L 561 221
L 561 221
L 561 221
L 561 221
L 561 221
L 561 221
L 561 221
L 561 221
L 561 221
L 561 221
L 561 221
L 561 221
L 561 221
L 562 221
L 562 221
L 562 220
L 562 220
L 562 220
L 562 220
L 562 220
L 562 220
L 562 220
L 562 220
L 562 220
L 562 220
L 562 220
L 562 220
L 562 220
L 562 220
L 562 220
L 562 220
L 562 220
L 562 220
L 562 220
L 562 219
L 562 219
L 562 219
L 562 219
L 562 219
L 562 219
L 562 219
L 562 219
L 562 219
L 562 219
L 562 219
L 562 219
L 562 219
L 563 219
L 563 219
L 563 219
L 563 219
L 563 219
L 563 219
L 563 219
L 563 218
L 563 218
L 563 218
L 563 218
L 563 218
L 563 218
L 563 218
L 563 218
L 563 218
L 563 218
L 563 218
L 563 218
L 563 218
L 563 218
L 563 218
L 563 218
L 563 218
L 563 218
L 563 218
L 563 217
L 563 217
L 563 217
L 563 217
L 564 217
L 564 217
L 564 217
L 564 217
L 564 217
L 564 217
L 564 217
L 564 217
L 564 217
L 564 217
L 564 217
L 564 217
L 564 217
L 564 217
L 564 217
L 564 217
L 564 216
L 564 216
L 564 216
L 564 216
L 564 216
L 564 216
L 564 216
L 564 216
L 564 216
L 564 216
L 564 216
L 564 216
L 564 216
L 564 216
L 564 216
L 564 216
L 564 216
L 564 216
L 564 216
L 564 215
L 564 215
L 564 215
L 564 215
L 564 215
L 564 215
L 564 215
L 564 215
L 564 215
L 564 215
L 564 215
L 565 215
L 565 215
L 565 215
L 565 215
L 565 215
L 565 215
L 565 215
L 565 215
L 565 215
L 565 214
L 565 214
L 565 214
L 565 214
L 565 214
L 565 214
L 565 214
L 565 214
L 565 214
L 565 214
L 565 214
L 565 214
L 565 214
L 565 214
L 565 214
L 565 214
L 565 214
L 565 214
L 565 214
L 565 213
L 565 213
L 565 213
L 565 213
L 565 213
L 565 213
L 565 213
L 565 213
L 565 213
L 565 213
L 566 213
L 566 213
L 566 213
L 566 213
L 566 213
L 566 213
L 566 213
L 566 213
L 566 213
L 566 212
L 566 212
L 566 212
L 566 212
L 566 212
L 566 212
L 566 212
L 566 212
L 566 212
L 566 212
L 567 212
L 567 212
L 567 212
L 567 212
L 567 212
L 567 212
L 567 212
L 567 212
L 567 212
L 567 212
L 567 211
L 567 211
L 568 211
L 568 211
L 568 211
L 568 211
L 568 211
L 568 211
L 568 211
L 568 211
L 568 211
L 568 211
L 568 211
L 569 211
L 569 211
L 569 211
L 569 211
L 569 211
L 569 211
L 569 210
L 569 210
L 569 210
L 570 210
L 570 210
L 570 210
L 570 210
L 570 210
L 570 210
L 571 210
L 573 210
L 573 210
L 573 210
L 574 210
L 574 210
L 574 210
L 575 210
L 575 210
L 575 210
L 575 210
L 575 209
L 575 209
L 575 209
L 576 209
L 576 209
L 576 209
L 576 209
L 576 209
L 576 209
L 576 209
L 576 209
L 576 209
L 576 209
L 576 209
L 576 209
L 576 209
L 576 209
L 577 209
L 577 209
L 577 208
L 577 208
L 577 208
L 577 208
L 577 208
L 577 208
L 577 208
L 577 208
L 578 208
L 578 208
L 578 208
L 578 208
L 578 208
L 579 208
L 579 208
L 579 208
L 579 208
L 579 208
L 579 208
L 579 207
L 579 207
L 580 207
L 580 207
L 580 207
L 580 207
L 580 207
L 580 207
L 581 207
L 581 207
L 581 207
L 581 207
L 581 207
L 582 207
L 582 207
L 582 207
L 582 207
L 582 207
L 582 207
L 582 207
L 583 206
L 583 206
L 583 206
L 583 206
L 583 206
L 583 206
L 583 206
L 583 206
L 584 206
L 584 206
L 584 206
L 584 206
L 584 206
L 584 206
L 584 206
L 584 206
L 585 206
L 586 206
L 586 206
L 587 205
L 587 205
L 587 205
L 587 205
L 588 205
L 588 205
L 589 205
L 589 205
L 590 205
L 590 205
L 590 205
L 590 205
L 590 205
L 590 205
L 590 205
L 590 205
L 590 205
L 591 205
L 591 205
L 591 205
L 591 204
L 591 204
L 591 204
L 591 204
L 592 204
L 592 204
L 592 204
L 592 204
L 592 204
L 593 204
L 593 204
L 593 204
L 593 204
L 593 204
L 593 204
L 593 204
L 593 204
L 594 204
L 594 204
L 595 203
L 595 203
L 595 203
L 595 203
L 595 203
L 595 203
L 595 203
L 595 203
L 596 203
L 596 203
L 596 203
L 597 203
L 597 203
L 597 203
L 597 203
L 597 203
L 597 203
L 597 203
L 597 203
L 597 202
L 598 202
L 598 202
L 598 202
L 598 202
L 598 202
L 598 202
L 598 202
L 598 202
L 598 202
L 598 202
L 599 202
L 599 202
L 599 202
L 599 202
L 600 202
L 600 202
L 600 202
L 602 202
L 602 202
L 603 201
L 604 201
L 604 201
L 604 201
L 604 201
L 604 201
L 605 201
L 605 201
L 605 201
L 605 201
L 605 201
L 605 201
L 606 201
L 606 201
L 606 201
L 606 201
L 606 201
L 607 201
L 607 201
L 607 200
L 607 200
L 607 200
L 607 200
L 607 200
L 607 200
L 607 200
L 607 200
L 607 200
L 608 200
L 608 200
L 608 200
L 608 200
L 608 200
L 609 200
L 609 200
L 609 200
L 609 200
L 609 200
L 609 200
L 609 199
L 609 199
L 609 199
L 610 199
L 610 199
L 610 199
L 610 199
L 610 199
L 610 199
L 610 199
L 610 199
L 610 199
L 610 199
L 611 199
L 611 199
L 611 199
L 611 199
L 611 199
L 611 199
L 611 198
L 611 198
L 611 198
L 611 198
L 611 198
L 612 198
L 612 198
L 612 198
L 612 198
L 612 198
L 612 198
L 612 198
L 612 198
L 612 198
L 612 198
L 612 198
L 613 198
L 613 198
L 613 198
L 613 198
L 613 197
L 614 197
L 614 197
L 614 197
L 614 197
L 618 197
L 618 197
L 618 197
L 618 197
L 619 197
L 619 197
L 619 197
L 619 197
L 619 197
L 619 197
L 619 197
L 619 197
L 619 197
L 619 197
L 619 196
L 619 196
L 619 196
L 619 196
L 619 196
L 619 196
L 619 196
L 619 196
L 619 196
L 619 196
L 619 196
L 619 196
L 619 196
L 619 196
L 619 196
L 619 196
L 619 196
L 619 196
L 619 196
L 619 195
L 619 195
L 619 195
L 619 195
L 619 195
L 619 195
L 619 195
L 619 195
L 619 195
L 619 195
L 619 195
L 620 195
L 620 195
L 620 195
L 620 195
L 620 195
L 620 195
L 620 195
L 620 195
L 620 195
L 620 194
L 620 194
L 620 194
L 620 194
L 620 194
L 620 194
L 620 194
L 620 194
L 620 194
L 620 194
L 620 194
L 620 194
L 620 194
L 620 194
L 620 194
L 620 194
L 620 194
L 621 194
L 621 194
L 621 193
L 621 193
L 621 193
L 621 193
L 621 193
L 621 193
L 621 193
L 621 193
L 621 193
L 621 193
L 621 193
L 621 193
L 621 193
L 621 193
L 621 193
L 622 193
L 622 193
L 622 193
L 622 193
L 622 193
L 622 192
L 622 192
L 622 192
L 622 192
L 622 192
L 622 192
L 622 192
L 622 192
L 622 192
L 622 192
L 622 192
L 622 192
L 622 192
L 622 192
L 622 192
L 622 192
L 622 192
L 622 192
L 622 192
L 622 191
L 622 191
L 622 191
L 622 191
L 622 191
L 622 191
L 622 191
L 623 191
L 623 191
L 623 191
L 623 191
L 623 191
L 623 191
L 623 191
L 623 191
L 623 191
L 623 191
L 623 191
L 623 191
L 623 190
L 623 190
L 623 190
L 623 190
L 623 190
L 623 190
L 623 190
L 623 190
L 623 190
L 623 190
L 623 190
L 623 190
L 623 190
L 623 190
L 623 190
L 623 190
L 623 190
L 624 190
L 624 190
L 624 190
L 624 189
L 624 189
L 624 189
L 624 189
L 624 189
L 624 189
L 624 189
L 624 189
L 624 189
L 624 189
L 624 189
L 624 189
L 625 189
L 625 189
L 625 189
L 625 189
L 625 189
L 625 189
L 625 189
L 625 188
L 625 188
L 625 188
L 625 188
L 625 188
L 626 188
L 626 188
L 626 188
L 626 188
L 626 188
L 626 188
L 626 188
L 626 188
L 626 188
L 626 188
L 626 188
L 626 188
L 626 188
L 626 188
L 626 188
L 626 187
L 626 187
L 626 187
L 626 187
L 626 187
L 627 187
L 627 187
L 627 187
L 627 187
L 627 187
L 627 187
L 627 187
L 627 187
L 627 187
L 627 187
L 627 187
L 627 187
L 627 187
L 627 187
L 627 186
L 627 186
L 627 186
L 628 186
L 628 186
L 628 186
L 628 186
L 628 186
L 628 186
L 628 186
L 629 186
L 629 186
L 629 186
L 629 186
L 630 186
L 631 186
L 632 186
L 632 186
L 632 186
L 633 185
L 633 185
L 633 185
L 633 185
L 633 185
L 633 185
L 633 185
L 633 185
L 633 185
L 633 185
L 633 185
L 633 185
L 633 185
L 633 185
L 633 185
L 633 185
L 633 185
L 633 185
L 633 185
L 633 185
L 633 184
L 633 184
L 633 184
L 633 184
L 633 184
L 633 184
L 633 184
L 633 184
L 634 184
L 634 184
L 634 184
L 634 184
L 634 184
L 634 184
L 634 184
L 634 184
L 634 184
L 634 184
L 634 184
L 634 183
L 634 183
L 634 183
L 634 183
L 634 183
L 634 183
L 634 183
L 634 183
L 634 183
L 634 183
L 634 183
L 634 183
L 634 183
L 634 183
L 634 183
L 634 183
L 634 183
L 634 183
L 634 183
L 634 183
L 634 182
L 634 182
L 634 182
L 634 182
L 634 182
L 634 182
L 634 182
L 634 182
L 634 182
L 635 182
L 635 182
L 635 182
L 635 182
L 635 182
L 635 182
L 635 182
L 635 182
L 635 182
L 635 182
L 635 181
L 635 181
L 636 181
L 636 181
L 636 181
L 636 181
L 636 181
L 636 181
L 636 181
L 636 181
L 636 181
L 636 181
L 636 181
L 636 181
L 636 181
L 636 181
L 636 181
L 636 181
L 636 181
L 636 181
L 636 180
L 636 180
L 636 180
L 636 180
L 636 180
L 636 180
L 636 180
L 636 180
L 636 180
L 636 180
L 636 180
L 636 180
L 636 180
L 637 180
L 637 180
L 637 180
L 637 180
L 637 180
L 637 180
L 637 179
L 637 179
L 637 179
L 637 179
L 637 179
L 637 179
L 637 179
L 637 179
L 637 179
L 637 179
L 637 179
L 637 179
L 637 179
L 637 179
L 637 179
L 637 179
L 637 179
L 637 179
L 637 179
L 638 178
L 638 178
L 638 178
L 638 178
L 638 178
L 638 178
L 638 178
L 638 178
L 638 178
L 638 178
L 638 178
L 638 178
L 638 178
L 638 178
L 638 178
L 638 178
L 638 178
L 638 178
L 638 178
L 638 178
L 638 177
L 638 177
L 638 177
L 638 177
L 638 177
L 638 177
L 638 177
L 638 177
L 638 177
L 638 177
L 638 177
L 638 177
L 638 177
L 638 177
L 638 177
L 638 177
L 638 177
L 638 177
L 638 177
L 638 176
L 638 176
L 638 176
L 638 176
L 638 176
L 638 176
L 638 176
L 638 176
L 638 176
L 638 176
L 638 176
L 639 176
L 639 176
L 639 176
L 639 176
L 639 176
L 639 176
L 639 176
L 639 176
L 639 176
L 639 175
L 639 175
L 639 175
L 639 175
L 639 175
L 639 175
L 639 175
L 639 175
L 639 175
L 639 175
L 639 175
L 639 175
L 639 175
L 639 175
L 639 175
L 640 175
L 640 175
L 640 175
L 640 175
L 640 174
L 640 174
L 640 174
L 640 174
L 640 174
L 640 174
L 640 174
L 640 174
L 640 174
L 640 174
L 640 174
L 640 174
L 640 174
L 640 174
L 640 174
L 641 174
L 641 174
L 641 174
L 641 174
L 641 173
L 641 173
L 641 173
L 641 173
L 641 173
L 641 173
L 641 173
L 641 173
L 641 173
L 641 173
L 641 173
L 641 173
L 641 173
L 641 173
L 641 173
L 642 173
L 642 173
L 642 173
L 642 173
L 642 173
L 642 172
L 642 172
L 642 172
L 642 172
L 642 172
L 642 172
L 642 172
L 642 172
L 643 172
L 643 172
L 643 172
L 643 172
L 643 172
L 643 172
L 643 172
L 644 172
L 644 172
L 645 172
L 646 172
L 647 171
L 647 171
L 647 171
L 647 171
L 647 171
L 647 171
L 647 171
L 647 171
L 647 171
L 647 171
L 647 171
L 648 171
L 648 171
L 648 171
L 648 171
L 648 171
L 648 171
L 648 171
L 648 171
L 648 171
L 648 170
L 648 170
L 648 170
L 648 170
L 648 170
L 648 170
L 648 170
L 648 170
L 648 170
L 648 170
L 648 170
L 648 170
L 648 170
L 648 170
L 649 170
L 649 170
L 649 170
L 649 170
L 649 170
L 649 169
L 649 169
L 649 169
L 649 169
L 649 169
L 649 169
L 649 169
L 649 169
L 649 169
L 649 169
L 649 169
L 649 169
L 649 169
L 649 169
L 649 169
L 649 169
L 649 169
L 649 169
L 649 169
L 649 168
L 649 168
L 649 168
L 649 168
L 649 168
L 649 168
L 650 168
L 650 168
L 650 168
L 650 168
L 650 168
L 650 168
L 650 168
L 650 168
L 650 168
L 650 168
L 650 168
L 650 168
L 650 168
L 650 168
L 651 167
L 651 167
L 651 167
L 651 167
L 651 167
L 651 167
L 651 167
L 651 167
L 651 167
L 651 167
L 651 167
L 651 167
L 651 167
L 651 167
L 651 167
L 651 167
L 651 167
L 652 167
L 652 167
L 652 166
L 652 166
L 652 166
L 652 166
L 652 166
L 652 166
L 652 166
L 652 166
L 652 166
L 652 166
L 652 166
L 652 166
L 652 166
L 652 166
L 652 166
L 652 166
L 652 166
L 652 166
L 652 166
L 652 166
L 652 165
L 652 165
L 652 165
L 652 165
L 652 165
L 652 165
L 652 165
L 652 165
L 652 165
L 652 165
L 653 165
L 653 165
L 653 165
L 653 165
L 653 165
L 653 165
L 653 165
L 653 165
L 653 165
L 653 164
L 653 164
L 653 164
L 653 164
L 653 164
L 653 164
L 653 164
L 653 164
L 653 164
L 653 164
L 653 164
L 653 164
L 653 164
L 653 164
L 653 164
L 653 164
L 653 164
L 653 164
L 654 164
L 654 163
L 654 163
L 654 163
L 654 163
L 654 163
L 654 163
L 654 163
L 655 163
L 655 163
L 655 163
L 655 163
L 655 163
L 655 163
L 655 163
L 655 163
L 655 163
L 655 163
L 655 163
L 655 163
L 655 163
L 655 162
L 656 162
L 656 162
L 656 162
L 656 162
L 656 162
L 656 162
L 656 162
L 656 162
L 656 162
L 656 162
L 656 162
L 656 162
L 657 162
L 657 162
L 658 162
L 658 162
L 658 162
L 659 162
L 659 161
L 660 161
L 660 161
L 660 161
L 660 161
L 661 161
L 662 161
L 662 161
L 662 161
L 662 161
L 662 161
L 662 161
L 663 161
L 663 161
L 663 161
L 663 161
L 663 161
L 663 161
L 663 161
L 663 161
L 663 160
L 663 160
L 663 160
L 663 160
L 663 160
L 663 160
L 663 160
L 663 160
L 663 160
L 663 160
L 663 160
L 664 160
L 664 160
L 664 160
L 664 160
L 664 160
L 664 160
L 664 160
L 664 160
L 664 159
L 664 159
L 664 159
L 664 159
L 664 159
L 664 159
L 664 159
L 664 159
L 664 159
L 665 159
L 665 159
L 665 159
L 665 159
L 665 159
L 665 159
L 665 159
L 665 159
L 666 159
L 666 159
L 666 159
L 666 158
L 666 158
L 666 158
L 666 158
L 666 158
L 666 158
L 666 158
L 667 158
L 667 158
L 667 158
L 667 158
L 667 158
L 667 158
L 667 158
L 667 158
L 668 158
L 668 158
L 668 158
L 668 158
L 668 157
L 668 157
L 668 157
L 668 157
L 669 157
L 669 157
L 669 157
L 669 157
L 669 157
L 669 157
L 669 157
L 669 157
L 669 157
L 669 157
L 669 157
L 669 157
L 670 157
L 670 157
L 670 157
L 670 156
L 670 156
L 670 156
L 670 156
L 670 156
L 670 156
L 670 156
L 670 156
L 671 156
L 671 156
L 671 156
L 671 156
L 671 156
L 671 156
L 672 156
L 672 156
L 672 156
L 677 156
L 677 156
L 678 156
L 678 155
L 678 155
L 678 155
L 678 155
L 678 155
L 679 155
L 679 155
L 679 155
L 679 155
L 679 155
L 679 155
L 679 155
L 679 155
L 679 155
L 680 155
L 680 155
L 680 155
L 680 155
L 680 155
L 680 154
L 680 154
L 681 154
L 681 154
L 681 154
L 681 154
L 681 154
L 681 154
L 681 154
L 682 154
L 682 154
L 682 154
L 682 154
L 682 154
L 682 154
L 682 154
L 682 154
L 682 154
L 682 154
L 682 154
L 682 153
L 682 153
L 682 153
L 683 153
L 683 153
L 683 153
L 683 153
L 683 153
L 683 153
L 683 153
L 683 153
L 684 153
L 684 153
L 684 153
L 684 153
L 684 153
L 684 153
L 685 153
L 685 153
L 685 152
L 685 152
L 685 152
L 685 152
L 685 152
L 685 152
L 685 152
L 685 152
L 685 152
L 685 152
L 685 152
L 685 152
L 685 152
L 685 152
L 686 152
L 686 152
L 686 152
L 686 152
L 686 152
L 686 151
L 686 151
L 686 151
L 686 151
L 687 151
L 687 151
L 688 151
L 688 151
L 688 151
L 688 151
L 689 151
L 690 151
L 691 151
L 691 151
L 691 151
L 691 151
L 691 151
L 691 151
L 691 151
L 691 151
L 691 150
L 691 150
L 691 150
L 691 150
L 691 150
L 691 150
L 691 150
L 691 150
L 691 150
L 692 150
L 692 150
L 692 150
L 692 150
L 692 150
L 692 150
L 692 150
L 692 150
L 692 150
L 692 150
L 692 149
L 692 149
L 692 149
L 692 149
L 692 149
L 692 149
L 692 149
L 692 149
L 692 149
L 692 149
L 692 149
L 693 149
L 693 149
L 693 149
L 693 149
L 693 149
L 693 149
L 693 149
L 693 149
L 693 149
L 693 148
L 693 148
L 693 148
L 693 148
L 693 148
L 693 148
L 693 148
L 693 148
L 693 148
L 693 148
L 693 148
L 693 148
L 694 148
L 694 148
L 694 148
L 694 148
L 694 148
L 694 148
L 694 148
L 694 147
L 694 147
L 694 147
L 694 147
L 694 147
L 694 147
L 695 147
L 695 147
L 695 147
L 695 147
L 695 147
L 695 147
L 695 147
L 695 147
L 695 147
L 695 147
L 695 147
L 695 147
L 695 147
L 695 147
L 695 146
L 695 146
L 695 146
L 695 146
L 696 146
L 696 146
L 696 146
L 696 146
L 696 146
L 696 146
L 696 146
L 696 146
L 696 146
L 696 146
L 696 146
L 696 146
L 696 146
L 696 146
L 696 146
L 696 145
L 697 145
L 697 145
L 697 145
L 697 145
L 697 145
L 697 145
L 697 145
L 698 145
L 698 145
L 698 145
L 698 145
L 698 145
L 698 145
L 698 145
L 698 145
L 698 145
L 698 145
L 698 145
L 698 144
L 698 144
L 699 144
L 699 144
L 699 144
L 699 144
L 699 144
L 699 144
L 699 144
L 699 144
L 699 144
L 700 144
L 700 144
L 700 144
L 700 144
L 700 144
L 700 144
L 700 144
L 700 144
L 700 144
L 700 143
L 701 143
L 701 143
L 703 143
L 705 143
L 705 143
L 706 143
L 706 143
L 706 143
L 706 143
L 706 143
L 706 143
L 706 143
L 706 143
L 706 143
L 706 143
L 706 143
L 706 143
L 706 143
L 706 142
L 707 142
L 707 142
L 707 142
L 707 142
L 707 142
L 707 142
L 707 142
L 707 142
L 707 142
L 707 142
L 707 142
L 707 142
L 707 142
L 707 142
L 707 142
L 707 142
L 707 142
L 707 142
L 707 142
L 708 141
L 708 141
L 708 141
L 708 141
L 708 141
L 708 141
L 708 141
L 708 141
L 708 141
L 708 141
L 708 141
L 708 141
L 708 141
L 708 141
L 709 141
L 709 141
L 709 141
L 709 141
L 709 141
L 709 140
L 709 140
L 709 140
L 709 140
L 709 140
L 709 140
L 709 140
L 709 140
L 709 140
L 709 140
L 710 140
L 710 140
L 710 140
L 710 140
L 710 140
L 710 140
L 710 140
L 710 140
L 710 140
L 710 139
L 710 139
L 710 139
L 710 139
L 710 139
L 710 139
L 710 139
L 710 139
L 710 139
L 710 139
L 710 139
L 710 139
L 711 139
L 711 139
L 711 139
L 711 139
L 711 139
L 711 139
L 711 139
L 711 139
L 711 138
L 711 138
L 711 138
L 711 138
L 711 138
L 711 138
L 711 138
L 711 138
L 711 138
L 711 138
L 712 138
L 712 138
L 712 138
L 712 138
L 712 138
L 712 138
L 712 138
L 712 138
L 712 138
L 712 137
L 713 137
L 713 137
L 713 137
L 713 137
L 713 137
L 713 137
L 713 137
L 713 137
L 713 137
L 713 137
L 713 137
L 713 137
L 713 137
L 713 137
L 713 137
L 713 137
L 713 137
L 713 137
L 713 137
L 713 136
L 714 136
L 714 136
L 714 136
L 714 136
L 714 136
L 714 136
L 714 136
L 714 136
L 714 136
L 714 136
L 714 136
L 715 136
L 715 136
L 715 136
L 715 136
L 715 136
L 716 136
L 716 136
L 716 135
L 718 135
L 720 135
L 720 135
L 720 135
L 720 135
L 720 135
L 721 135
L 721 135
L 721 135
L 721 135
L 721 135
L 721 135
L 721 135
L 721 135
L 721 135
L 721 135
L 721 135
L 721 135
L 721 134
L 721 134
L 721 134
L 721 134
L 721 134
L 721 134
L 721 134
L 721 134
L 721 134
L 721 134
L 721 134
L 721 134
L 721 134
L 721 134
L 722 134
L 722 134
L 722 134
L 722 134
L 722 134
L 722 134
L 722 133
L 722 133
L 722 133
L 722 133
L 722 133
L 722 133
L 722 133
L 722 133
L 722 133
L 722 133
L 722 133
L 722 133
L 722 133
L 722 133
L 722 133
L 723 133
L 723 133
L 723 133
L 723 133
L 723 132
L 723 132
L 723 132
L 723 132
L 723 132
L 723 132
L 723 132
L 723 132
L 723 132
L 724 132
L 724 132
L 724 132
L 724 132
L 724 132
L 724 132
L 724 132
L 724 132
L 724 132
L 724 132
L 724 132
L 724 131
L 724 131
L 724 131
L 724 131
L 724 131
L 724 131
L 724 131
L 724 131
L 724 131
L 724 131
L 724 131
L 724 131
L 724 131
L 724 131
L 725 131
L 725 131
L 725 131
L 725 131
L 725 131
L 725 130
L 725 130
L 725 130
L 725 130
L 725 130
L 725 130
L 725 130
L 725 130
L 725 130
L 726 130
L 726 130
L 726 130
L 726 130
L 726 130
L 726 130
L 726 130
L 726 130
L 726 130
L 726 130
L 727 130
L 727 129
L 727 129
L 727 129
L 727 129
L 727 129
L 727 129
L 728 129
L 728 129
L 728 129
L 728 129
L 728 129
L 728 129
L 728 129
L 728 129
L 728 129
L 728 129
L 728 129
L 728 129
L 729 129
L 729 128
L 729 128
L 729 128
L 729 128
L 729 128
L 729 128
L 729 128
L 729 128
L 729 128
L 729 128
L 729 128
L 729 128
L 730 128
L 730 128
L 730 128
L 730 128
L 730 128
L 730 128
L 731 128
L 734 127
L 734 127
L 734 127
L 734 127
L 734 127
L 734 127
L 734 127
L 734 127
L 735 127
L 735 127
L 735 127
L 735 127
L 735 127
L 735 127
L 735 127
L 735 127
L 735 127
L 735 127
L 735 127
L 735 127
L 735 126
L 735 126
L 735 126
L 735 126
L 735 126
L 735 126
L 735 126
L 735 126
L 735 126
L 735 126
L 735 126
L 735 126
L 735 126
L 735 126
L 735 126
L 735 126
L 735 126
L 735 126
L 735 126
L 735 125
L 735 125
L 735 125
L 735 125
L 735 125
L 735 125
L 735 125
L 735 125
L 735 125
L 735 125
L 735 125
L 735 125
L 735 125
L 735 125
L 735 125
L 735 125
L 735 125
L 735 125
L 735 125
L 735 125
L 735 124
L 735 124
L 735 124
L 735 124
L 735 124
L 735 124
L 735 124
L 736 124
L 736 124
L 736 124
L 736 124
L 736 124
L 736 124
L 736 124
L 736 124
L 736 124
L 736 124
L 736 124
L 736 124
L 736 123
L 736 123
L 736 123
L 736 123
L 736 123
L 736 123
L 736 123
L 736 123
L 736 123
L 736 123
L 736 123
L 736 123
L 736 123
L 736 123
L 736 123
L 736 123
L 736 123
L 736 123
L 736 123
L 736 122
L 736 122
L 736 122
L 737 122
L 737 122
L 737 122
L 737 122
L 737 122
L 737 122
L 737 122
L 737 122
L 737 122
L 737 122
L 737 122
L 738 122
L 738 122
L 738 122
L 738 122
L 738 122
L 738 122
L 738 121
L 738 121
L 738 121
L 738 121
L 738 121
L 738 121
L 738 121
L 738 121
L 738 121
L 738 121
L 738 121
L 738 121
L 738 121
L 738 121
L 738 121
L 738 121
L 738 121
L 738 121
L 738 121
L 738 120
L 738 120
L 738 120
L 738 120
L 738 120
L 738 120
L 738 120
L 738 120
L 738 120
L 738 120
L 738 120
L 738 120
L 738 120
L 738 120
L 738 120
L 738 120
L 738 120
L 739 120
L 739 120
L 739 120
L 739 119
L 739 119
L 739 119
L 739 119
L 739 119
L 739 119
L 739 119
L 739 119
L 739 119
L 739 119
L 739 119
L 739 119
L 739 119
L 739 119
L 739 119
L 739 119
L 739 119
L 739 119
L 739 119
L 739 118
L 739 118
L 739 118
L 739 118
L 739 118
L 739 118
L 739 118
L 740 118
L 740 118
L 740 118
L 740 118
L 740 118
L 740 118
L 740 118
L 740 118
L 740 118
L 740 118
L 740 118
L 740 118
L 740 117
L 740 117
L 740 117
L 740 117
L 740 117
L 740 117
L 740 117
L 740 117
L 740 117
L 740 117
L 740 117
L 740 117
L 740 117
L 740 117
L 740 117
L 740 117
L 740 117
L 740 117
L 741 117
L 741 117
L 741 116
L 741 116
L 741 116
L 741 116
L 741 116
L 741 116
L 741 116
L 741 116
L 741 116
L 741 116
L 741 116
L 741 116
L 741 116
L 741 116
L 741 116
L 741 116
L 742 116
L 742 116
L 742 116
L 742 115
L 742 115
L 742 115
L 742 115
L 742 115
L 742 115
L 742 115
L 742 115
L 742 115
L 742 115
L 742 115
L 742 115
L 742 115
L 742 115
L 742 115
L 742 115
L 742 115
L 742 115
L 742 115
L 742 115
L 742 114
L 742 114
L 743 114
L 743 114
L 743 114
L 743 114
L 743 114
L 743 114
L 743 114
L 743 114
L 743 114
L 743 114
L 743 114
L 743 114
L 743 114
L 743 114
L 744 114
L 744 114
L 744 114
L 744 113
L 744 113
L 744 113
L 744 113
L 744 113
L 745 113
L 745 113
L 745 113
L 745 113
L 745 113
L 745 113
L 746 113
L 746 113
L 746 113
L 746 113
L 746 113
L 747 113
L 748 113
L 748 113
L 749 113
L 749 112
L 749 112
L 749 112
L 749 112
L 749 112
L 749 112
L 749 112
L 750 112
L 750 112
L 750 112
L 750 112
L 750 112
L 750 112
L 750 112
L 750 112
L 750 112
L 750 112
L 750 112
L 750 112
L 750 111
L 750 111
L 750 111
L 750 111
L 750 111
L 750 111
L 750 111
L 750 111
L 750 111
L 750 111
L 750 111
L 750 111
L 750 111
L 750 111
L 750 111
L 750 111
L 750 111
L 750 111
L 750 111
L 750 110
L 750 110
L 750 110
L 751 110
L 751 110
L 751 110
L 751 110
L 751 110
L 751 110
L 751 110
L 751 110
L 751 110
L 751 110
L 751 110
L 752 110
L 752 110
L 752 110
L 752 110
L 752 110
L 752 110
L 752 109
L 752 109
L 752 109
L 752 109
L 752 109
L 752 109
L 752 109
L 752 109
L 752 109
L 752 109
L 752 109
L 752 109
L 752 109
L 752 109
L 752 109
L 752 109
L 753 109
L 753 109
L 753 109
L 753 108
L 753 108
L 753 108
L 753 108
L 753 108
L 753 108
L 753 108
L 753 108
L 753 108
L 753 108
L 753 108
L 753 108
L 753 108
L 753 108
L 753 108
L 753 108
L 753 108
L 753 108
L 753 108
L 753 108
L 753 107
L 753 107
L 753 107
L 753 107
L 753 107
L 753 107
L 753 107
L 753 107
L 753 107
L 754 107
L 754 107
L 754 107
L 754 107
L 754 107
L 754 107
L 754 107
L 754 107
L 754 107
L 754 107
L 754 106
L 754 106
L 754 106
L 754 106
L 754 106
L 754 106
L 754 106
L 754 106
L 754 106
L 754 106
L 754 106
L 754 106
L 754 106
L 755 106
L 755 106
L 755 106
L 755 106
L 755 106
L 755 106
L 755 105
L 755 105
L 755 105
L 755 105
L 755 105
L 755 105
L 755 105
L 755 105
L 756 105
L 756 105
L 756 105
L 756 105
L 756 105
L 756 105
L 756 105
L 757 105
L 757 105
L 757 105
L 757 105
L 757 105
L 757 104
L 757 104
L 757 104
L 757 104
L 757 104
L 757 104
L 757 104
L 758 104
L 758 104
L 758 104
L 758 104
L 758 104
L 758 104
L 759 104
L 759 104
L 759 104
L 759 104
L 759 104
L 759 104
L 759 103
L 759 103
L 760 103
L 761 103
L 761 103
L 761 103
L 763 103
L 764 103
L 764 103
L 765 103
L 765 103
L 765 103
L 765 103
L 765 103
L 765 103
L 765 103
L 765 103
L 765 103
L 765 103
L 765 103
L 766 102
L 766 102
L 766 102
L 766 102
L 767 102
L 767 102
L 767 102
L 767 102
L 767 102
L 767 102
L 768 102
L 768 102
L 768 102
L 768 102
L 768 102
L 768 102
L 768 102
L 768 102
L 768 102
L 768 101
L 769 101
L 769 101
L 769 101
L 769 101
L 769 101
L 769 101
L 769 101
L 769 101
L 769 101
L 770 101
L 770 101
L 770 101
L 771 101
L 771 101
L 771 101
L 772 101
L 772 101
L 772 101
L 773 100
L 773 100
L 773 100
L 773 100
L 773 100
L 774 100
L 774 100
L 774 100
L 774 100
L 776 100
L 778 100
L 778 100
L 780 100
L 780 100
L 780 100
L 780 100
L 781 100
L 781 100
L 781 100
L 781 100
L 781 99
L 781 99
L 782 99
L 782 99
L 782 99
L 783 99
L 783 99
L 783 99
L 783 99
L 783 99
L 783 99
L 783 99
L 784 99
L 784 99
L 784 99
L 785 99
L 785 99
L 785 99
L 785 99
L 785 98
L 785 98
L 785 98
L 786 98
L 786 98
L 786 98
L 786 98
L 787 98
L 787 98
L 787 98
L 787 98
L 787 98
L 788 98
L 788 98
L 788 98
L 788 98
L 789 98
L 793 98
L 793 98
L 793 98
L 793 97
L 793 97
L 793 97
L 793 97
L 793 97
L 793 97
L 794 97
L 794 97
L 794 97
L 794 97
L 794 97
L 794 97
L 794 97
L 794 97
L 794 97
L 794 97
L 794 97
L 794 97
L 794 97
L 794 96
L 794 96
L 794 96
L 794 96
L 794 96
L 795 96
L 795 96
L 795 96
L 795 96
L 795 96
L 795 96
L 795 96
L 795 96
L 796 96
L 796 96
L 796 96
L 796 96
L 796 96
L 796 96
L 796 96
L 796 95
L 797 95
L 797 95
L 797 95
L 797 95
L 797 95
L 797 95
L 797 95
L 797 95
L 797 95
L 797 95
L 797 95
L 797 95
L 798 95
L 798 95
L 798 95
L 798 95
L 798 95
L 798 95
L 798 94
L 798 94
L 798 94
L 798 94
L 798 94
L 798 94
L 798 94
L 798 94
L 798 94
L 798 94
L 799 94
L 799 94
L 799 94
L 799 94
L 799 94
L 799 94
L 799 94
L 799 94
L 799 94
L 799 93
L 800 93
L 800 93
L 800 93
L 800 93
L 800 93
L 800 93
L 800 93
L 800 93
L 800 93
L 800 93
L 800 93
L 801 93
L 801 93
L 801 93
L 801 93
L 801 93
L 801 93
L 801 93
L 802 93
L 802 92
L 802 92
L 802 92
L 802 92
L 802 92
L 802 92
L 802 92
L 802 92
L 802 92
L 803 92
L 803 92
L 803 92
L 805 92
L 805 92
L 807 92
L 808 92
L 808 92
L 808 92
L 808 92
L 808 91
L 808 91
L 808 91
L 808 91
L 808 91
L 808 91
L 808 91
L 808 91
L 808 91
L 808 91
L 808 91
L 808 91
L 809 91
L 809 91
L 809 91
L 809 91
L 809 91
L 809 91
L 809 91
L 809 91
L 809 90
L 809 90
L 809 90
L 809 90
L 809 90
L 809 90
L 809 90
L 809 90
L 809 90
L 809 90
L 809 90
L 809 90
L 809 90
L 809 90
L 809 90
L 809 90
L 809 90
L 809 90
L 809 90
L 809 89
L 809 89
L 809 89
L 809 89
L 809 89
L 809 89
L 809 89
L 809 89
L 809 89
L 809 89
L 809 89
L 809 89
L 809 89
L 809 89
L 809 89
L 809 89
L 809 89
L 809 89
L 809 89
L 809 88
L 809 88
L 809 88
L 809 88
L 809 88
L 809 88
L 809 88
L 809 88
L 809 88
L 809 88
L 809 88
L 809 88
L 809 88
L 809 88
L 809 88
L 809 88
L 809 88
L 809 88
L 809 88
L 809 88
L 809 87
L 809 87
L 809 87
L 809 87
L 810 87
L 810 87
L 810 87
L 810 87
L 810 87
L 810 87
L 810 87
L 810 87
L 810 87
L 810 87
L 810 87
L 810 87
L 810 87
L 810 87
L 810 87
L 810 86
L 810 86
L 810 86
L 811 86
L 811 86
L 811 86
L 811 86
L 811 86
L 811 86
L 811 86
L 811 86
L 811 86
L 811 86
L 811 86
L 811 86
L 811 86
L 811 86
L 811 86
L 811 86
L 811 86
L 812 85
L 812 85
L 812 85
L 812 85
L 812 85
L 812 85
L 812 85
L 812 85
L 812 85
L 812 85
L 812 85
L 812 85
L 812 85
L 812 85
L 812 85
L 812 85
L 812 85
L 812 85
L 812 85
L 812 84
L 813 84
L 813 84
L 813 84
L 813 84
L 813 84
L 813 84
L 813 84
L 813 84
L 813 84
L 813 84
L 813 84
L 813 84
L 813 84
L 813 84
L 813 84
L 813 84
L 813 84
L 813 84
L 813 83
L 813 83
L 813 83
L 813 83
L 813 83
L 813 83
L 813 83
L 813 83
L 813 83
L 814 83
L 814 83
L 814 83
L 814 83
L 814 83
L 814 83
L 814 83
L 814 83
L 814 83
L 814 83
L 814 83
L 814 82
L 814 82
L 814 82
L 814 82
L 814 82
L 814 82
L 814 82
L 814 82
L 814 82
L 814 82
L 815 82
L 815 82
L 815 82
L 815 82
L 815 82
L 815 82
L 815 82
L 815 82
L 815 82
L 815 81
L 815 81
L 815 81
L 815 81
L 815 81
L 816 81
L 816 81
L 816 81
L 816 81
L 816 81
L 816 81
L 816 81
L 816 81
L 817 81
L 817 81
L 818 81
L 818 81
L 818 81
L 818 81
L 820 81
L 820 80
L 822 80
L 822 80
L 822 80
L 822 80
L 822 80
L 822 80
L 822 80
L 822 80
L 822 80
L 822 80
L 822 80
L 822 80
L 823 80
L 823 80
L 823 80
L 823 80
L 823 80
L 823 80
L 823 79
L 823 79
L 823 79
L 823 79
L 823 79
L 823 79
L 823 79
L 823 79
L 823 79
L 823 79
L 823 79
L 823 79
L 823 79
L 823 79
L 823 79
L 823 79
L 823 79
L 823 79
L 823 79
L 823 79
L 823 78
L 823 78
L 823 78
L 823 78
L 823 78
L 823 78
L 823 78
L 823 78
L 823 78
L 823 78
L 823 78
L 823 78
L 823 78
L 823 78
L 823 78
L 823 78
L 823 78
L 823 78
L 823 78
L 823 77
L 823 77
L 823 77
L 823 77
L 823 77
L 823 77
L 823 77
L 824 77
L 824 77
L 824 77
L 824 77
L 824 77
L 824 77
L 824 77
L 824 77
L 824 77
L 824 77
L 824 77
L 824 77
L 824 76
L 824 76
L 824 76
L 824 76
L 824 76
L 824 76
L 824 76
L 824 76
L 824 76
L 824 76
L 824 76
L 824 76
L 824 76
L 824 76
L 824 76
L 825 76
L 825 76
L 825 76
L 825 76
L 825 76
L 825 75
L 825 75
L 825 75
L 825 75
L 825 75
L 825 75
L 825 75
L 825 75
L 825 75
L 825 75
L 825 75
L 825 75
L 825 75
L 825 75
L 825 75
L 825 75
L 825 75
L 825 75
L 825 75
L 825 74
L 825 74
L 825 74
L 825 74
L 825 74
L 826 74
L 826 74
L 826 74
L 826 74
L 826 74
L 826 74
L 826 74
L 826 74
L 826 74
L 826 74
L 826 74
L 826 74
L 826 74
L 826 74
L 826 74
L 826 73
L 826 73
L 826 73
L 826 73
L 826 73
L 826 73
L 826 73
L 826 73
L 826 73
L 826 73
L 826 73
L 826 73
L 826 73
L 827 73
L 827 73
L 827 73
L 827 73
L 827 73
L 827 73
L 827 72
L 827 72
L 827 72
L 827 72
L 827 72
L 827 72
L 827 72
L 827 72
L 827 72
L 827 72
L 827 72
L 827 72
L 827 72
L 827 72
L 827 72
L 827 72
L 827 72
L 827 72
L 827 72
L 827 71
L 827 71
L 827 71
L 827 71
L 827 71
L 827 71
L 828 71
L 828 71
L 828 71
L 828 71
L 828 71
L 828 71
L 828 71
L 828 71
L 828 71
L 828 71
L 828 71
L 828 71
L 828 71
L 828 71
L 828 70
L 828 70
L 828 70
L 829 70
L 829 70
L 829 70
L 829 70
L 829 70
L 829 70
L 829 70
L 829 70
L 829 70
L 829 70
L 829 70
L 829 70
L 829 70
L 830 70
L 830 70
L 830 70
L 830 69
L 830 69
L 830 69
L 830 69
L 830 69
L 831 69
L 831 69
L 831 69
L 831 69
L 831 69
L 831 69
L 831 69
L 831 69
L 831 69
L 831 69
L 832 69
L 832 69
L 832 69
L 833 69
L 833 69
L 835 68
L 835 68
L 835 68
L 836 68
L 836 68
L 836 68
L 837 68
L 837 68
L 837 68
L 837 68
L 837 68
L 837 68
L 837 68
L 837 68
L 837 68
L 837 68
L 837 68
L 837 68
L 837 68
L 837 67
L 837 67
L 837 67
L 837 67
L 837 67
L 837 67
L 837 67
L 837 67
L 838 67
L 838 67
L 838 67
L 838 67
L 838 67
L 838 67
L 838 67
L 838 67
L 838 67
L 838 67
L 838 67
L 838 66
L 838 66
L 838 66
L 838 66
L 838 66
L 838 66
L 838 66
L 838 66
L 838 66
L 838 66
L 838 66
L 838 66
L 838 66
L 838 66
L 838 66
L 838 66
L 838 66
L 838 66
L 838 66
L 838 66
L 839 65
L 839 65
L 839 65
L 839 65
L 839 65
L 839 65
L 839 65
L 839 65
L 839 65
L 839 65
L 839 65
L 839 65
L 839 65
L 839 65
L 839 65
L 839 65
L 840 65
L 840 65
L 840 65
L 840 64
L 840 64
L 840 64
L 840 64
L 840 64
L 840 64
L 840 64
L 840 64
L 840 64
L 840 64
L 840 64
L 840 64
L 840 64
L 840 64
L 840 64
L 840 64
L 840 64
L 841 64
L 841 64
L 841 64
L 841 63
L 841 63
L 841 63
L 841 63
L 841 63
L 841 63
L 841 63
L 841 63
L 841 63
L 841 63
L 841 63
L 841 63
L 841 63
L 841 63
L 841 63
L 842 63
L 842 63
L 842 63
L 842 63
L 842 62
L 842 62
L 842 62
L 842 62
L 842 62
L 842 62
L 842 62
L 842 62
L 842 62
L 842 62
L 842 62
L 842 62
L 842 62
L 842 62
L 842 62
L 842 62
L 842 62
L 842 62
L 843 62
L 843 62
L 843 61
L 843 61
L 843 61
L 843 61
L 843 61
L 843 61
L 843 61
L 843 61
L 843 61
L 843 61
L 844 61
L 844 61
L 844 61
L 844 61
L 844 61
L 844 61
L 845 61
L 845 61
L 845 61
L 845 60
L 845 60
L 845 60
L 845 60
L 845 60
L 846 60
L 846 60
L 846 60
L 846 60
L 846 60
L 846 60
L 846 60
L 847 60
L 847 60
L 847 60
L 848 60
L 850 60
L 851 60
L 851 60
L 851 59
L 851 59
L 851 59
L 852 59
L 852 59
L 852 59
L 852 59
L 852 59
L 852 59
L 852 59
L 852 59
L 852 59
L 852 59
L 852 59
L 852 59
L 852 59
L 852 59
L 852 59
L 852 59
L 852 59
L 852 58
L 852 58
L 852 58
L 852 58
L 852 58
L 852 58
L 852 58
L 853 58
L 853 58
L 853 58
L 853 58
L 853 58
L 853 58
L 853 58
L 853 58
L 853 58
L 853 58
L 853 58
L 853 58
L 853 57
L 853 57
L 853 57
L 853 57
L 853 57
L 853 57
L 853 57
L 853 57
L 853 57
L 853 57
L 853 57
L 854 57
L 854 57
L 854 57
L 854 57
L 854 57
L 854 57
L 854 57
L 854 57
L 854 57
L 855 56
L 855 56
L 855 56
L 855 56
L 855 56
L 855 56
L 855 56
L 855 56
L 855 56
L 855 56
L 855 56
L 855 56
L 855 56
L 855 56
L 855 56
L 855 56
L 855 56
L 855 56
L 856 56
L 856 55
L 856 55
L 856 55
L 856 55
L 856 55
L 856 55
L 856 55
L 856 55
L 856 55
L 856 55
L 856 55
L 856 55
L 856 55
L 856 55
L 856 55
L 856 55
L 856 55
L 857 55
L 857 55
L 857 54
L 857 54
L 857 54
L 857 54
L 857 54
L 857 54
L 857 54
L 857 54
L 857 54
L 857 54
L 857 54
L 857 54
L 857 54
L 858 54
L 858 54
L 858 54
L 858 54
L 858 54
L 858 54
L 858 54
L 858 53
L 858 53
L 859 53
L 859 53
L 859 53
L 860 53
L 860 53
L 860 53
L 860 53
L 861 53
L 861 53
L 861 53
L 864 53
L 866 53
L 866 53
L 867 53
L 867 53
L 867 53
L 868 53
L 868 52
L 868 52
L 868 52
L 868 52
L 869 52
L 869 52
L 869 52
L 869 52
L 869 52
L 869 52
L 869 52
L 870 52
L 870 52
L 870 52
L 870 52
L 871 52
L 871 52
L 871 52
L 871 52
L 872 52
L 872 51
L 873 51
L 873 51
L 873 51
L 873 51
L 873 51
L 873 51
L 873 51
L 873 51
L 873 51
L 873 51
L 874 51
L 874 51
L 874 51
L 874 51
L 874 51
L 874 51
L 874 51
L 874 51
L 874 50
L 874 50
L 874 50
L 874 50
L 874 50
L 875 50
L 875 50
L 875 50
L 875 50
L 875 50
L 875 50
L 875 50
L 875 50
L 875 50
L 876 50
L 876 50
L 876 50
L 876 50
L 876 50
L 876 49
L 877 49
L 877 49
L 880 49
L 880 49
L 881 49
L 881 49
L 881 49
L 881 49
L 882 49
L 882 49
L 882 49
L 882 49
L 882 49
L 882 49
L 883 49
L 883 49
L 883 49
L 883 49
L 883 49
L 883 48
L 883 48
L 884 48
L 884 48
L 885 48
L 885 48
L 886 48
L 887 48
L 887 48
L 888 48
L 888 48
L 888 48
L 888 48
L 888 48
L 888 48
L 888 48
L 888 48
L 888 48
L 889 48
L 889 47
L 889 47
L 889 47
L 889 47
L 889 47
L 889 47
L 889 47
L 889 47
L 889 47
L 890 47
L 890 47
L 890 47
L 893 47
L 893 47
L 895 47
L 895 47
L 895 47
L 895 47
L 895 47
L 895 47
L 895 46
L 895 46
L 895 46
L 895 46
L 895 46
L 895 46
L 896 46
L 896 46
L 896 46
L 896 46
L 896 46
L 896 46
L 896 46
L 896 46
L 896 46
L 896 46
L 896 46
L 896 46
L 896 46
L 896 45
L 896 45
L 896 45
L 896 45
L 896 45
L 896 45
L 896 45
L 897 45
L 897 45
L 897 45
L 897 45
L 897 45
L 897 45
L 897 45
L 897 45
L 897 45
L 897 45
L 897 45
L 897 45
L 897 45
L 897 44
L 898 44
L 898 44
L 898 44
L 898 44
L 898 44
L 898 44
L 898 44
L 898 44
L 898 44
L 898 44
L 898 44
L 898 44
L 898 44
L 899 44
L 899 44
L 899 44
L 899 44
L 899 44
L 899 43
L 899 43
L 899 43
L 899 43
L 899 43
L 899 43
L 899 43
L 899 43
L 899 43
L 899 43
L 899 43
L 899 43
L 899 43
L 899 43
L 899 43
L 899 43
L 899 43
L 899 43
L 899 43
L 899 42
L 900 42
L 900 42
L 900 42
L 900 42
L 900 42
L 900 42
L 900 42
L 900 42
L 900 42
L 900 42
L 900 42
L 900 42
L 900 42
L 900 42
L 900 42
L 900 42
L 900 42
L 900 42
L 901 42
L 901 41
L 901 41
L 901 41
L 901 41
L 901 41
L 901 41
L 901 41
L 901 41
L 902 41
L 902 41
L 902 41
L 902 41
L 902 41
L 902 41
L 902 41
L 902 41
L 902 41
L 902 41
L 903 41
L 903 40
L 903 40
L 903 40
L 903 40
L 904 40
L 904 40
L 904 40
L 904 40
L 904 40
L 904 40
L 905 40
L 907 40
L 909 40
L 909 40
L 909 40
L 910 40
L 910 40
L 910 40
L 910 40
L 910 40
L 910 39
L 910 39
L 910 39
L 910 39
L 910 39
L 910 39
L 910 39
L 910 39
L 911 39
L 911 39
L 911 39
L 911 39
L 911 39
L 911 39
L 911 39
L 911 39
L 911 39
L 911 39
L 911 39
L 911 38
L 911 38
L 911 38
L 911 38
L 911 38
L 911 38
L 911 38
L 911 38
L 912 38
L 912 38
L 912 38
L 912 38
L 912 38
L 912 38
L 912 38
L 912 38
L 912 38
L 912 38
L 912 38
L 912 37
L 913 37
L 913 37
L 913 37
L 913 37
L 913 37
L 913 37
L 913 37
L 913 37
L 913 37
L 913 37
L 913 37
L 913 37
L 913 37
L 913 37
L 913 37
L 913 37
L 913 37
L 913 37
L 913 37
L 913 36
L 914 36
L 914 36
L 914 36
L 914 36
L 914 36
L 914 36
L 914 36
L 914 36
L 914 36
L 914 36
L 914 36
L 914 36
L 914 36
L 914 36
L 914 36
L 914 36
L 915 36
L 915 36
L 915 35
L 915 35
L 915 35
L 915 35
L 915 35
L 915 35
L 915 35
L 915 35
L 915 35
L 915 35
L 915 35
L 915 35
L 915 35
L 915 35
L 915 35
L 915 35
L 915 35
L 915 35
L 916 35
L 916 35
L 916 34
L 916 34
L 916 34
L 916 34
L 916 34
L 916 34
L 916 34
L 916 34
L 916 34
L 916 34
L 916 34
L 917 34
L 917 34
L 917 34
L 917 34
L 917 34
L 917 34
L 917 34
L 917 34
L 917 33
L 917 33
L 917 33
L 917 33
L 918 33
L 918 33
L 918 33
L 918 33
L 918 33
L 918 33
L 918 33
L 918 33
L 918 33
L 918 33
L 918 33
L 918 33
L 918 33
L 918 33
L 918 33
L 918 32
L 918 32
L 919 32
L 919 32
L 919 32
L 919 32
L 919 32
L 919 32
L 919 32
L 920 32
L 920 32
L 920 32
L 920 32
L 920 32
L 921 32
L 921 32
L 922 32
L 924 32
L 924 32
L 924 32
L 924 31
L 924 31
L 924 31
L 924 31
L 924 31
L 924 31
L 924 31
L 924 31
L 924 31
L 924 31
L 924 31
L 924 31
L 924 31
L 925 31
L 925 31
L 925 31
L 925 31
L 925 31
L 925 31
L 925 30
L 925 30
L 925 30
L 925 30
L 925 30
L 925 30
L 925 30
L 925 30
L 925 30
L 925 30
L 925 30
L 925 30
L 925 30
L 925 30
L 925 30
L 925 30
L 925 30
L 925 30
L 925 30
L 925 30
L 925 29
L 925 29
L 925 29
L 926 29
L 926 29
L 926 29
L 926 29
L 926 29
L 926 29
L 926 29
L 926 29
L 926 29
L 926 29
L 926 29
L 926 29
L 926 29
L 926 29
L 926 29
L 927 29
L 927 28
L 927 28
L 927 28
L 927 28
L 927 28
L 927 28
L 927 28
L 927 28
L 927 28
L 927 28
L 927 28
L 927 28
L 927 28
L 927 28
L 927 28
L 927 28
L 927 28
L 927 28
L 927 28
L 927 28
L 927 27
L 927 27
L 927 27
L 927 27
L 927 27
L 927 27
L 927 27
L 928 27
L 928 27
L 928 27
L 928 27
L 928 27
L 928 27
L 928 27
L 928 27
L 928 27
L 928 27
L 928 27
L 928 27
L 928 26
L 928 26
L 928 26
L 928 26
L 928 26
L 928 26
L 928 26
L 928 26
L 928 26
L 928 26
L 928 26
L 928 26
L 929 26
L 929 26
L 929 26
L 929 26
L 929 26
L 929 26
L 929 26
L 929 25
L 929 25
L 929 25
L 929 25
L 929 25
L 929 25
L 929 25
L 929 25
L 929 25
L 929 25
L 929 25
L 929 25
L 929 25
L 929 25
L 929 25
L 929 25
L 929 25
L 929 25
L 929 25
L 929 25
L 929 24
L 929 24
L 929 24
L 930 24
L 930 24
L 930 24
L 930 24
L 930 24
L 930 24
L 930 24
L 930 24
L 930 24
L 930 24
L 930 24
L 930 24
L 930 24
L 930 24
L 930 24
L 930 24
L 930 23
L 930 23
L 930 23
L 930 23
L 930 23
L 930 23
L 931 23
L 931 23
L 931 23
L 931 23
L 931 23
L 931 23
L 931 23
L 931 23
L 931 23
L 931 23
L 931 23
L 932 23
L 932 23
L 932 23
L 932 22
L 932 22
L 932 22
L 932 22
L 932 22
L 932 22
L 933 22
L 933 22
L 933 22
L 933 22
L 933 22
L 933 22
L 933 22
L 934 22
L 934 22
L 934 22
L 934 22
L 935 22
L 935 22
L 936 21
L 938 21
L 938 21
L 939 21
L 939 21
L 939 21
L 939 21
L 939 21
L 939 21
L 939 21
L 939 21
L 939 21
L 939 21
L 939 21
L 939 21
L 939 21
L 939 21
L 939 21
L 939 21
L 939 20
L 939 20
L 939 20
L 939 20
L 939 20
L 940 20
L 940 20
L 940 20
L 940 20
L 940 20
L 940 20
L 940 20
L 940 20
L 940 20
L 940 20
L 940 20
L 940 20
L 940 20
L 940 20
L 940 20
L 940 19
L 940 19
L 940 19
L 940 19
L 940 19
L 940 19
L 940 19
L 940 19
L 940 19
L 941 19
L 941 19
L 941 19
L 941 19
L 941 19
L 941 19
L 941 19
L 941 19
L 941 19
L 941 19
L 941 18
L 941 18
L 941 18
L 941 18
L 942 18
L 942 18
L 942 18
L 942 18
L 942 18
L 942 18
L 942 18
L 942 18
L 942 18
L 942 18
L 942 18
L 942 18
L 942 18
L 942 18
L 942 18
L 942 18
L 942 17
L 942 17
L 942 17
L 942 17
L 942 17
L 942 17
L 943 17
L 943 17
L 943 17
L 943 17
L 943 17
L 943 17
L 943 17
L 943 17
L 943 17
L 943 17
L 943 17
L 943 17
L 943 17
L 943 16
L 943 16
L 943 16
L 944 16
L 944 16
L 944 16
L 944 16
L 944 16
L 944 16
L 944 16
L 944 16
L 944 16
L 944 16
L 944 16
L 944 16
L 944 16
L 944 16
L 944 16
L 944 16
L 944 15
L 944 15
L 944 15
L 944 15
L 944 15
L 944 15
L 944 15
L 944 15
L 944 15
L 945 15
L 945 15
L 945 15
L 945 15
L 945 15
L 945 15
L 945 15
L 945 15
L 946 15
L 946 15
L 946 15
L 947 14
L 947 14
L 947 14
L 947 14
L 948 14
L 948 14
L 948 14
L 948 14
L 948 14
L 948 14
L 948 14
L 949 14
L 949 14
L 949 14
L 949 14
L 950 14
L 951 14
L 952 14
L 953 14
L 953 13
L 953 13
L 954 13
L 954 13
L 954 13
L 954 13
L 954 13
L 954 13
L 954 13
L 954 13
L 954 13
L 954 13
L 954 13
L 954 13
L 954 13
L 954 13
L 954 13
L 954 13
L 954 13
L 954 13
L 954 12
L 954 12
L 954 12
L 954 12
L 955 12
L 955 12
L 955 12
L 955 12
L 955 12
L 955 12
L 955 12
L 955 12
L 955 12
L 955 12
L 955 12
L 955 12
L 955 12
L 956 12
L 956 12
L 956 11
L 956 11
L 956 11
L 956 11
L 956 11
L 957 11
L 957 11
L 957 11
L 957 11
L 957 11
L 957 11
L 957 11
L 957 11
L 957 11
L 957 11
L 957 11
L 957 11
L 957 11
L 957 11" style="stroke-width:2;stroke:rgba(129,199,239,1.0);fill:none"/></svg>