<svg xmlns="http://www.w3.org/2000/svg" xmlns:xlink="http://www.w3.org/1999/xlink" width="1024" height="400">\n<path  d="M 0 0
L 1024 0
L 1024 400
L 0 400
L 0 0" style="stroke-width:0;stroke:rgba(255,255,255,1.0);fill:rgba(255,255,255,1.0)"/><path  d="M 38 11
L 957 11
L 957 351
L 38 351
L 38 11" style="stroke-width:0;stroke:rgba(255,255,255,1.0);fill:rgba(255,255,255,1.0)"/><path  d="M 38 351
L 957 351" style="stroke-width:2;stroke:rgba(85,85,85,1.0);fill:none"/><path  d="M 38 351
L 38 356" style="stroke-width:2;stroke:rgba(85,85,85,1.0);fill:none"/><text x="5" y="373" style="stroke-width:0;stroke:none;fill:rgba(51,51,51,1.0);font-size:12.8px;font-family:'Roboto Medium',sans-serif">2018-11-23</text><path  d="M 153 351
L 153 356" style="stroke-width:2;stroke:rgba(85,85,85,1.0);fill:none"/><text x="120" y="373" style="stroke-width:0;stroke:none;fill:rgba(51,51,51,1.0);font-size:12.8px;font-family:'Roboto Medium',sans-serif">2018-11-30</text><path  d="M 268 351
L 268 356" style="stroke-width:2;stroke:rgba(85,85,85,1.0);fill:none"/><text x="235" y="373" style="stroke-width:0;stroke:none;fill:rgba(51,51,51,1.0);font-size:12.8px;font-family:'Roboto Medium',sans-serif">2018-12-08</text><path  d="M 383 351
L 383 356" style="stroke-width:2;stroke:rgba(85,85,85,1.0);fill:none"/><text x="350" y="373" style="stroke-width:0;stroke:none;fill:rgba(51,51,51,1.0);font-size:12.8px;font-family:'Roboto Medium',sans-serif">2018-12-16</text><path  d="M 498 351
L 498 356" style="stroke-width:2;stroke:rgba(85,85,85,1.0);fill:none"/><text x="465" y="373" style="stroke-width:0;stroke:none;fill:rgba(51,51,51,1.0);font-size:12.8px;font-family:'Roboto Medium',sans-serif">2018-12-24</text><path  d="M 613 351
L 613 356" style="stroke-width:2;stroke:rgba(85,85,85,1.0);fill:none"/><text x="580" y="373" style="stroke-width:0;stroke:none;fill:rgba(51,51,51,1.0);font-size:12.8px;font-family:'Roboto Medium',sans-serif">2019-01-01</text><path  d="M 728 351
L 728 356" style="stroke-width:2;stroke:rgba(85,85,85,1.0);fill:none"/><text x="695" y="373" style="stroke-width:0;stroke:none;fill:rgba(51,51,51,1.0);font-size:12.8px;font-family:'Roboto Medium',sans-serif">2019-01-08</text><path  d="M 843 351
L 843 356" style="stroke-width:2;stroke:rgba(85,85,85,1.0);fill:none"/><text x="810" y="373" style="stroke-width:0;stroke:none;fill:rgba(51,51,51,1.0);font-size:12.8px;font-family:'Roboto Medium',sans-serif">2019-01-16</text><path  d="M 957 351
L 957 356" style="stroke-width:2;stroke:rgba(85,85,85,1.0);fill:none"/><text x="924" y="373" style="stroke-width:0;stroke:none;fill:rgba(51,51,51,1.0);font-size:12.8px;font-family:'Roboto Medium',sans-serif">2019-01-24</text><text x="483" y="395" style="stroke-width:0;stroke:none;fill:rgba(51,51,51,1.0);font-size:12.8px;font-family:'Roboto Medium',sans-serif">Time</text><path  d="M 959 351
L 959 11" style="stroke-width:2;stroke:rgba(85,85,85,1.0);fill:none"/><path  d="M 959 351
L 964 351" style="stroke-width:2;stroke:rgba(85,85,85,1.0);fill:none"/><text x="969" y="357" style="stroke-width:0;stroke:none;fill:rgba(51,51,51,1.0);font-size:12.8px;font-family:'Roboto Medium',sans-serif">0</text><path  d="M 959 308
L 964 308" style="stroke-width:2;stroke:rgba(85,85,85,1.0);fill:none"/><text x="969" y="314" style="stroke-width:0;stroke:none;fill:rgba(51,51,51,1.0);font-size:12.8px;font-family:'Roboto Medium',sans-serif">820</text><path  d="M 959 265
L 964 265" style="stroke-width:2;stroke:rgba(85,85,85,1.0);fill:none"/><text x="969" y="271" style="stroke-width:0;stroke:none;fill:rgba(51,51,51,1.0);font-size:12.8px;font-family:'Roboto Medium',sans-serif">1630</text><path  d="M 959 223
L 964 223" style="stroke-width:2;stroke:rgba(85,85,85,1.0);fill:none"/><text x="969" y="229" style="stroke-width:0;stroke:none;fill:rgba(51,51,51,1.0);font-size:12.8px;font-family:'Roboto Medium',sans-serif">2440</text><path  d="M 959 181
L 964 181" style="stroke-width:2;stroke:rgba(85,85,85,1.0);fill:none"/><text x="969" y="187" style="stroke-width:0;stroke:none;fill:rgba(51,51,51,1.0);font-size:12.8px;font-family:'Roboto Medium',sans-serif">3250</text><path  d="M 959 138
L 964 138" style="stroke-width:2;stroke:rgba(85,85,85,1.0);fill:none"/><text x="969" y="144" style="stroke-width:0;stroke:none;fill:rgba(51,51,51,1.0);font-size:12.8px;font-family:'Roboto Medium',sans-serif">4070</text><path  d="M 959 95
L 964 95" style="stroke-width:2;stroke:rgba(85,85,85,1.0);fill:none"/><text x="969" y="101" style="stroke-width:0;stroke:none;fill:rgba(51,51,51,1.0);font-size:12.8px;font-family:'Roboto Medium',sans-serif">4880</text><path  d="M 959 53
L 964 53" style="stroke-width:2;stroke:rgba(85,85,85,1.0);fill:none"/><text x="969" y="59" style="stroke-width:0;stroke:none;fill:rgba(51,51,51,1.0);font-size:12.8px;font-family:'Roboto Medium',sans-serif">5690</text><path  d="M 959 11
L 964 11" style="stroke-width:2;stroke:rgba(85,85,85,1.0);fill:none"/><text x="969" y="17" style="stroke-width:0;stroke:none;fill:rgba(51,51,51,1.0);font-size:12.8px;font-family:'Roboto Medium',sans-serif">6500</text><text x="1009" y="150" style="stroke-width:0;stroke:none;fill:rgba(51,51,51,1.0);font-size:12.8px;font-family:'Roboto Medium',sans-serif" transform="rotate(90.00,1009,150)">Stargazers</text><path  d="M 38 351
L 116 350
L 170 350
L 173 350
L 185 350
L 185 350
L 185 350
L 186 350
L 186 350
L 186 350
L 186 350
L 187 350
L 187 350
L 187 350
L 187 350
L 187 350
L 187 350
L 187 350
L 187 350
L 188 350
L 188 349
L 188 349
L 190 349
L 191 349
L 199 349
L 200 349
L 200 349
L 200 349
L 201 349
L 202 349
L 204 349
L 205 349
L 206 349
L 206 349
L 206 349
L 207 349
L 207 349
L 207 349
L 211 349
L 213 348
L 214 348
L 214 348
L 214 348
L 214 348
L 214 348
L 214 348
L 214 348
L 215 348
L 215 348
L 215 348
L 217 348
L 218 348
L 218 348
L 218 348
L 218 348
L 219 348
L 219 348
L 219 348
L 220 347
L 220 347
L 220 347
L 220 347
L 221 347
L 221 347
L 222 347
L 222 347
L 222 347
L 222 347
L 223 347
L 227 347
L 229 347
L 229 347
L 229 347
L 229 347
L 229 347
L 229 347
L 230 347
L 230 346
L 231 346
L 231 346
L 231 346
L 231 346
L 231 346
L 231 346
L 231 346
L 231 346
L 231 346
L 231 346
L 231 346
L 231 346
L 231 346
L 231 346
L 231 346
L 231 346
L 231 346
L 231 346
L 231 345
L 231 345
L 231 345
L 231 345
L 231 345
L 231 345
L 231 345
L 231 345
L 231 345
L 231 345
L 231 345
L 231 345
L 231 345
L 231 345
L 231 345
L 231 345
L 232 345
L 232 345
L 232 345
L 232 344
L 232 344
L 232 344
L 232 344
L 232 344
L 232 344
L 232 344
L 232 344
L 232 344
L 232 344
L 232 344
L 232 344
L 232 344
L 232 344
L 232 344
L 233 344
L 233 344
L 233 344
L 233 344
L 233 343
L 233 343
L 234 343
L 234 343
L 234 343
L 234 343
L 234 343
L 234 343
L 235 343
L 235 343
L 235 343
L 235 343
L 235 343
L 235 343
L 235 343
L 235 343
L 235 343
L 235 343
L 235 343
L 235 342
L 237 342
L 238 342
L 242 342
L 242 342
L 243 342
L 243 342
L 243 342
L 243 342
L 244 342
L 244 342
L 244 342
L 245 342
L 246 342
L 246 342
L 246 342
L 246 342
L 246 342
L 247 342
L 247 342
L 247 341
L 247 341
L 248 341
L 248 341
L 248 341
L 248 341
L 249 341
L 249 341
L 250 341
L 258 341
L 259 341
L 259 341
L 259 341
L 259 341
L 259 341
L 260 341
L 262 341
L 263 341
L 266 341
L 267 340
L 267 340
L 270 340
L 274 340
L 274 340
L 276 340
L 277 340
L 277 340
L 278 340
L 278 340
L 279 340
L 279 340
L 279 340
L 279 340
L 279 340
L 280 340
L 280 340
L 283 340
L 287 340
L 287 339
L 287 339
L 288 339
L 288 339
L 289 339
L 290 339
L 292 339
L 292 339
L 296 339
L 296 339
L 302 339
L 305 339
L 305 339
L 306 339
L 306 339
L 308 339
L 309 339
L 317 339
L 317 339
L 318 338
L 318 338
L 318 338
L 320 338
L 320 338
L 322 338
L 323 338
L 323 338
L 326 338
L 327 338
L 332 338
L 338 338
L 339 338
L 345 338
L 348 338
L 348 338
L 350 338
L 350 338
L 350 338
L 351 337
L 353 337
L 353 337
L 354 337
L 354 337
L 355 337
L 357 337
L 359 337
L 362 337
L 364 337
L 364 337
L 365 337
L 365 337
L 365 337
L 366 337
L 367 337
L 368 337
L 369 337
L 370 337
L 370 336
L 371 336
L 376 336
L 376 336
L 377 336
L 378 336
L 380 336
L 382 336
L 383 336
L 383 336
L 385 336
L 390 336
L 391 336
L 391 336
L 391 336
L 392 336
L 392 336
L 396 336
L 396 336
L 398 335
L 399 335
L 406 335
L 407 335
L 409 335
L 409 335
L 411 335
L 411 335
L 411 335
L 413 335
L 413 335
L 415 335
L 415 335
L 421 335
L 421 335
L 423 335
L 423 335
L 423 335
L 424 335
L 424 334
L 424 334
L 427 334
L 435 334
L 435 334
L 436 334
L 436 334
L 438 334
L 438 334
L 440 334
L 440 334
L 440 334
L 443 334
L 443 334
L 443 334
L 443 334
L 443 334
L 445 334
L 450 334
L 451 334
L 451 333
L 451 333
L 451 333
L 451 333
L 451 333
L 452 333
L 452 333
L 452 333
L 453 333
L 453 333
L 453 333
L 453 333
L 453 333
L 453 333
L 453 333
L 454 333
L 454 333
L 454 333
L 454 333
L 454 332
L 454 332
L 454 332
L 454 332
L 454 332
L 454 332
L 454 332
L 454 332
L 454 332
L 454 332
L 454 332
L 454 332
L 455 332
L 455 332
L 455 332
L 455 332
L 455 332
L 455 332
L 455 332
L 455 331
L 455 331
L 455 331
L 455 331
L 455 331
L 455 331
L 455 331
L 455 331
L 455 331
L 455 331
L 455 331
L 455 331
L 455 331
L 456 331
L 456 331
L 456 331
L 456 331
L 456 331
L 456 331
L 456 330
L 456 330
L 456 330
L 457 330
L 457 330
L 457 330
L 457 330
L 457 330
L 457 330
L 457 330
L 457 330
L 458 330
L 458 330
L 458 330
L 458 330
L 458 330
L 458 330
L 458 330
L 459 330
L 459 329
L 459 329
L 460 329
L 460 329
L 460 329
L 465 329
L 465 329
L 465 329
L 466 329
L 466 329
L 466 329
L 466 329
L 466 329
L 466 329
L 466 329
L 466 329
L 466 329
L 466 329
L 466 329
L 466 328
L 466 328
L 466 328
L 466 328
L 467 328
L 467 328
L 467 328
L 467 328
L 467 328
L 467 328
L 467 328
L 467 328
L 468 328
L 468 328
L 468 328
L 468 328
L 468 328
L 468 328
L 468 328
L 468 327
L 468 327
L 468 327
L 469 327
L 469 327
L 469 327
L 469 327
L 469 327
L 469 327
L 469 327
L 469 327
L 469 327
L 469 327
L 469 327
L 469 327
L 469 327
L 469 327
L 469 327
L 470 327
L 470 326
L 470 326
L 470 326
L 470 326
L 470 326
L 470 326
L 470 326
L 470 326
L 470 326
L 470 326
L 470 326
L 470 326
L 470 326
L 470 326
L 470 326
L 470 326
L 470 326
L 470 326
L 470 326
L 471 325
L 471 325
L 471 325
L 471 325
L 472 325
L 472 325
L 472 325
L 472 325
L 472 325
L 472 325
L 472 325
L 472 325
L 472 325
L 472 325
L 472 325
L 472 325
L 472 325
L 472 325
L 472 325
L 472 325
L 473 324
L 473 324
L 473 324
L 473 324
L 473 324
L 473 324
L 473 324
L 473 324
L 473 324
L 473 324
L 473 324
L 473 324
L 473 324
L 473 324
L 473 324
L 473 324
L 474 324
L 474 324
L 474 324
L 474 323
L 474 323
L 474 323
L 474 323
L 474 323
L 474 323
L 474 323
L 474 323
L 474 323
L 474 323
L 474 323
L 474 323
L 474 323
L 475 323
L 475 323
L 475 323
L 476 323
L 476 323
L 477 323
L 478 322
L 479 322
L 479 322
L 479 322
L 479 322
L 479 322
L 479 322
L 480 322
L 480 322
L 480 322
L 480 322
L 480 322
L 480 322
L 480 322
L 480 322
L 480 322
L 480 322
L 480 322
L 480 322
L 480 321
L 481 321
L 481 321
L 481 321
L 481 321
L 481 321
L 481 321
L 481 321
L 481 321
L 481 321
L 481 321
L 481 321
L 481 321
L 481 321
L 481 321
L 481 321
L 482 321
L 482 321
L 482 321
L 482 320
L 482 320
L 482 320
L 482 320
L 482 320
L 482 320
L 482 320
L 482 320
L 482 320
L 482 320
L 482 320
L 482 320
L 483 320
L 483 320
L 483 320
L 483 320
L 483 320
L 483 320
L 483 320
L 483 319
L 483 319
L 483 319
L 483 319
L 483 319
L 483 319
L 483 319
L 483 319
L 483 319
L 483 319
L 484 319
L 484 319
L 484 319
L 484 319
L 484 319
L 484 319
L 484 319
L 484 319
L 484 319
L 484 318
L 484 318
L 484 318
L 484 318
L 484 318
L 484 318
L 484 318
L 484 318
L 484 318
L 484 318
L 485 318
L 485 318
L 485 318
L 485 318
L 485 318
L 485 318
L 485 318
L 485 318
L 485 318
L 485 317
L 485 317
L 485 317
L 486 317
L 486 317
L 486 317
L 486 317
L 486 317
L 486 317
L 486 317
L 486 317
L 486 317
L 486 317
L 486 317
L 486 317
L 486 317
L 486 317
L 486 317
L 487 317
L 487 317
L 487 316
L 487 316
L 487 316
L 487 316
L 487 316
L 487 316
L 487 316
L 487 316
L 487 316
L 487 316
L 487 316
L 487 316
L 487 316
L 487 316
L 488 316
L 488 316
L 488 316
L 488 316
L 488 316
L 488 315
L 488 315
L 488 315
L 488 315
L 488 315
L 488 315
L 488 315
L 488 315
L 488 315
L 488 315
L 488 315
L 488 315
L 488 315
L 488 315
L 488 315
L 488 315
L 488 315
L 489 315
L 489 315
L 489 314
L 489 314
L 489 314
L 489 314
L 489 314
L 489 314
L 489 314
L 489 314
L 489 314
L 490 314
L 490 314
L 490 314
L 490 314
L 490 314
L 490 314
L 491 314
L 491 314
L 492 314
L 493 314
L 494 313
L 494 313
L 494 313
L 494 313
L 494 313
L 494 313
L 494 313
L 494 313
L 494 313
L 494 313
L 494 313
L 494 313
L 494 313
L 494 313
L 494 313
L 494 313
L 494 313
L 494 313
L 494 313
L 494 312
L 494 312
L 494 312
L 494 312
L 494 312
L 494 312
L 494 312
L 494 312
L 494 312
L 494 312
L 494 312
L 494 312
L 494 312
L 494 312
L 494 312
L 494 312
L 494 312
L 495 312
L 495 312
L 495 311
L 495 311
L 495 311
L 495 311
L 495 311
L 495 311
L 495 311
L 495 311
L 495 311
L 495 311
L 495 311
L 495 311
L 495 311
L 495 311
L 495 311
L 495 311
L 495 311
L 495 311
L 495 311
L 495 310
L 495 310
L 495 310
L 495 310
L 495 310
L 495 310
L 495 310
L 495 310
L 495 310
L 495 310
L 495 310
L 495 310
L 495 310
L 495 310
L 495 310
L 495 310
L 495 310
L 495 310
L 495 310
L 495 309
L 495 309
L 495 309
L 495 309
L 495 309
L 495 309
L 495 309
L 495 309
L 495 309
L 495 309
L 495 309
L 495 309
L 495 309
L 495 309
L 495 309
L 495 309
L 495 309
L 495 309
L 495 309
L 495 308
L 495 308
L 495 308
L 495 308
L 495 308
L 495 308
L 495 308
L 495 308
L 495 308
L 495 308
L 495 308
L 495 308
L 495 308
L 495 308
L 496 308
L 496 308
L 496 308
L 496 308
L 496 308
L 496 308
L 496 307
L 496 307
L 496 307
L 496 307
L 496 307
L 496 307
L 496 307
L 496 307
L 496 307
L 496 307
L 496 307
L 496 307
L 496 307
L 496 307
L 496 307
L 496 307
L 496 307
L 496 307
L 496 307
L 496 306
L 496 306
L 496 306
L 496 306
L 496 306
L 496 306
L 496 306
L 496 306
L 496 306
L 496 306
L 496 306
L 497 306
L 497 306
L 497 306
L 497 306
L 497 306
L 497 306
L 497 306
L 497 306
L 497 305
L 497 305
L 497 305
L 497 305
L 497 305
L 497 305
L 497 305
L 497 305
L 497 305
L 497 305
L 497 305
L 497 305
L 497 305
L 497 305
L 497 305
L 497 305
L 497 305
L 497 305
L 497 305
L 497 304
L 497 304
L 497 304
L 497 304
L 497 304
L 497 304
L 497 304
L 497 304
L 497 304
L 497 304
L 497 304
L 497 304
L 497 304
L 497 304
L 497 304
L 497 304
L 498 304
L 498 304
L 498 304
L 498 303
L 498 303
L 498 303
L 498 303
L 498 303
L 498 303
L 498 303
L 498 303
L 498 303
L 498 303
L 498 303
L 498 303
L 498 303
L 498 303
L 498 303
L 498 303
L 498 303
L 498 303
L 498 303
L 498 302
L 498 302
L 498 302
L 498 302
L 498 302
L 498 302
L 498 302
L 498 302
L 498 302
L 498 302
L 498 302
L 498 302
L 498 302
L 498 302
L 498 302
L 498 302
L 498 302
L 498 302
L 498 302
L 498 301
L 498 301
L 498 301
L 498 301
L 498 301
L 498 301
L 498 301
L 498 301
L 498 301
L 498 301
L 498 301
L 498 301
L 498 301
L 498 301
L 498 301
L 498 301
L 498 301
L 498 301
L 498 301
L 498 300
L 498 300
L 498 300
L 498 300
L 498 300
L 498 300
L 498 300
L 498 300
L 499 300
L 499 300
L 499 300
L 499 300
L 499 300
L 499 300
L 499 300
L 499 300
L 499 300
L 499 300
L 499 300
L 499 300
L 499 299
L 499 299
L 499 299
L 499 299
L 499 299
L 499 299
L 499 299
L 499 299
L 499 299
L 499 299
L 499 299
L 499 299
L 499 299
L 499 299
L 499 299
L 499 299
L 499 299
L 499 299
L 499 299
L 499 298
L 499 298
L 499 298
L 499 298
L 499 298
L 499 298
L 499 298
L 499 298
L 500 298
L 500 298
L 500 298
L 500 298
L 500 298
L 500 298
L 500 298
L 500 298
L 500 298
L 500 298
L 500 298
L 500 297
L 500 297
L 500 297
L 500 297
L 500 297
L 500 297
L 500 297
L 500 297
L 500 297
L 500 297
L 500 297
L 500 297
L 500 297
L 500 297
L 500 297
L 500 297
L 500 297
L 500 297
L 500 297
L 500 296
L 500 296
L 500 296
L 500 296
L 500 296
L 500 296
L 500 296
L 500 296
L 500 296
L 500 296
L 500 296
L 500 296
L 500 296
L 500 296
L 501 296
L 501 296
L 501 296
L 501 296
L 501 296
L 501 295
L 501 295
L 501 295
L 501 295
L 501 295
L 501 295
L 501 295
L 501 295
L 501 295
L 501 295
L 501 295
L 501 295
L 501 295
L 501 295
L 501 295
L 501 295
L 502 295
L 502 295
L 502 295
L 502 294
L 502 294
L 502 294
L 502 294
L 502 294
L 502 294
L 502 294
L 502 294
L 502 294
L 502 294
L 502 294
L 502 294
L 502 294
L 502 294
L 503 294
L 503 294
L 503 294
L 503 294
L 503 294
L 503 293
L 503 293
L 503 293
L 503 293
L 503 293
L 503 293
L 503 293
L 503 293
L 503 293
L 503 293
L 503 293
L 503 293
L 503 293
L 503 293
L 503 293
L 503 293
L 503 293
L 504 293
L 504 293
L 504 292
L 504 292
L 504 292
L 504 292
L 504 292
L 504 292
L 504 292
L 505 292
L 505 292
L 505 292
L 506 292
L 508 292
L 509 292
L 509 292
L 509 292
L 509 292
L 509 292
L 509 292
L 509 292
L 509 291
L 509 291
L 509 291
L 509 291
L 509 291
L 509 291
L 509 291
L 509 291
L 509 291
L 509 291
L 509 291
L 509 291
L 509 291
L 509 291
L 509 291
L 509 291
L 509 291
L 509 291
L 509 291
L 509 291
L 509 290
L 509 290
L 509 290
L 509 290
L 509 290
L 510 290
L 510 290
L 510 290
L 510 290
L 510 290
L 510 290
L 510 290
L 510 290
L 510 290
L 510 290
L 510 290
L 510 290
L 510 290
L 510 290
L 510 289
L 510 289
L 510 289
L 510 289
L 510 289
L 510 289
L 510 289
L 510 289
L 510 289
L 510 289
L 510 289
L 510 289
L 510 289
L 510 289
L 510 289
L 510 289
L 510 289
L 510 289
L 510 289
L 510 288
L 510 288
L 510 288
L 510 288
L 510 288
L 510 288
L 510 288
L 510 288
L 510 288
L 510 288
L 510 288
L 510 288
L 510 288
L 510 288
L 510 288
L 510 288
L 510 288
L 510 288
L 510 288
L 510 287
L 510 287
L 510 287
L 510 287
L 510 287
L 510 287
L 510 287
L 510 287
L 510 287
L 510 287
L 510 287
L 510 287
L 510 287
L 510 287
L 510 287
L 510 287
L 510 287
L 510 287
L 510 287
L 510 286
L 510 286
L 510 286
L 510 286
L 510 286
L 510 286
L 510 286
L 510 286
L 510 286
L 510 286
L 510 286
L 510 286
L 510 286
L 510 286
L 510 286
L 510 286
L 510 286
L 510 286
L 510 286
L 511 285
L 511 285
L 511 285
L 511 285
L 511 285
L 511 285
L 511 285
L 511 285
L 511 285
L 511 285
L 511 285
L 511 285
L 511 285
L 511 285
L 511 285
L 511 285
L 511 285
L 511 285
L 511 285
L 511 284
L 511 284
L 511 284
L 511 284
L 511 284
L 511 284
L 511 284
L 511 284
L 511 284
L 511 284
L 511 284
L 511 284
L 511 284
L 511 284
L 511 284
L 512 284
L 512 284
L 512 284
L 512 284
L 512 283
L 512 283
L 512 283
L 512 283
L 512 283
L 512 283
L 512 283
L 512 283
L 512 283
L 512 283
L 512 283
L 512 283
L 512 283
L 512 283
L 512 283
L 512 283
L 512 283
L 512 283
L 512 283
L 512 283
L 512 282
L 512 282
L 512 282
L 512 282
L 512 282
L 512 282
L 512 282
L 512 282
L 512 282
L 512 282
L 512 282
L 512 282
L 512 282
L 512 282
L 512 282
L 512 282
L 512 282
L 512 282
L 512 282
L 513 281
L 513 281
L 513 281
L 513 281
L 513 281
L 513 281
L 513 281
L 513 281
L 513 281
L 513 281
L 513 281
L 513 281
L 513 281
L 513 281
L 513 281
L 513 281
L 513 281
L 513 281
L 513 281
L 513 280
L 513 280
L 513 280
L 513 280
L 513 280
L 513 280
L 513 280
L 513 280
L 513 280
L 513 280
L 513 280
L 513 280
L 513 280
L 513 280
L 513 280
L 513 280
L 513 280
L 513 280
L 513 280
L 513 279
L 513 279
L 514 279
L 514 279
L 514 279
L 514 279
L 514 279
L 514 279
L 514 279
L 514 279
L 514 279
L 514 279
L 514 279
L 514 279
L 514 279
L 514 279
L 514 279
L 514 279
L 514 279
L 514 278
L 514 278
L 514 278
L 514 278
L 514 278
L 514 278
L 514 278
L 514 278
L 514 278
L 514 278
L 514 278
L 514 278
L 514 278
L 514 278
L 514 278
L 514 278
L 514 278
L 514 278
L 514 278
L 514 277
L 514 277
L 514 277
L 514 277
L 514 277
L 514 277
L 514 277
L 514 277
L 514 277
L 514 277
L 514 277
L 514 277
L 514 277
L 515 277
L 515 277
L 515 277
L 515 277
L 515 277
L 515 277
L 515 276
L 515 276
L 515 276
L 515 276
L 515 276
L 515 276
L 515 276
L 515 276
L 515 276
L 515 276
L 515 276
L 515 276
L 515 276
L 515 276
L 515 276
L 515 276
L 515 276
L 515 276
L 515 276
L 515 275
L 515 275
L 515 275
L 515 275
L 515 275
L 515 275
L 515 275
L 515 275
L 515 275
L 515 275
L 515 275
L 515 275
L 515 275
L 515 275
L 515 275
L 515 275
L 515 275
L 515 275
L 515 275
L 515 274
L 515 274
L 515 274
L 515 274
L 515 274
L 515 274
L 515 274
L 515 274
L 515 274
L 515 274
L 515 274
L 516 274
L 516 274
L 516 274
L 516 274
L 516 274
L 516 274
L 516 274
L 516 274
L 516 274
L 516 273
L 516 273
L 516 273
L 516 273
L 516 273
L 516 273
L 516 273
L 516 273
L 516 273
L 516 273
L 516 273
L 516 273
L 516 273
L 516 273
L 516 273
L 516 273
L 516 273
L 516 273
L 516 273
L 517 272
L 517 272
L 517 272
L 517 272
L 517 272
L 517 272
L 517 272
L 517 272
L 517 272
L 517 272
L 517 272
L 517 272
L 517 272
L 517 272
L 517 272
L 517 272
L 517 272
L 517 272
L 517 272
L 517 271
L 517 271
L 517 271
L 517 271
L 517 271
L 517 271
L 517 271
L 517 271
L 517 271
L 517 271
L 517 271
L 517 271
L 517 271
L 517 271
L 517 271
L 517 271
L 517 271
L 517 271
L 518 271
L 518 270
L 518 270
L 518 270
L 518 270
L 518 270
L 518 270
L 518 270
L 518 270
L 518 270
L 518 270
L 518 270
L 518 270
L 518 270
L 518 270
L 518 270
L 518 270
L 518 270
L 518 270
L 519 270
L 519 269
L 519 269
L 519 269
L 519 269
L 519 269
L 519 269
L 519 269
L 519 269
L 519 269
L 519 269
L 520 269
L 520 269
L 520 269
L 520 269
L 520 269
L 521 269
L 522 269
L 523 269
L 523 269
L 523 268
L 524 268
L 524 268
L 524 268
L 524 268
L 524 268
L 524 268
L 524 268
L 524 268
L 524 268
L 524 268
L 524 268
L 524 268
L 524 268
L 524 268
L 524 268
L 524 268
L 524 268
L 524 268
L 524 267
L 524 267
L 524 267
L 524 267
L 524 267
L 524 267
L 524 267
L 524 267
L 524 267
L 524 267
L 524 267
L 524 267
L 524 267
L 524 267
L 524 267
L 524 267
L 524 267
L 524 267
L 524 267
L 524 266
L 524 266
L 524 266
L 524 266
L 524 266
L 524 266
L 524 266
L 524 266
L 524 266
L 524 266
L 524 266
L 524 266
L 524 266
L 524 266
L 524 266
L 524 266
L 524 266
L 524 266
L 524 266
L 524 266
L 524 265
L 524 265
L 524 265
L 524 265
L 525 265
L 525 265
L 525 265
L 525 265
L 525 265
L 525 265
L 525 265
L 525 265
L 525 265
L 525 265
L 525 265
L 525 265
L 525 265
L 525 265
L 525 265
L 525 264
L 525 264
L 525 264
L 525 264
L 525 264
L 525 264
L 525 264
L 525 264
L 525 264
L 525 264
L 525 264
L 525 264
L 525 264
L 525 264
L 525 264
L 525 264
L 525 264
L 525 264
L 525 264
L 525 263
L 525 263
L 525 263
L 525 263
L 525 263
L 525 263
L 525 263
L 525 263
L 525 263
L 525 263
L 525 263
L 525 263
L 525 263
L 525 263
L 525 263
L 525 263
L 525 263
L 525 263
L 525 263
L 525 262
L 525 262
L 525 262
L 525 262
L 525 262
L 525 262
L 525 262
L 525 262
L 525 262
L 526 262
L 526 262
L 526 262
L 526 262
L 526 262
L 526 262
L 526 262
L 526 262
L 526 262
L 526 262
L 526 261
L 526 261
L 526 261
L 526 261
L 526 261
L 526 261
L 526 261
L 526 261
L 527 261
L 527 261
L 527 261
L 527 261
L 527 261
L 527 261
L 527 261
L 527 261
L 527 261
L 527 261
L 527 261
L 527 260
L 527 260
L 527 260
L 527 260
L 527 260
L 527 260
L 527 260
L 527 260
L 527 260
L 527 260
L 527 260
L 527 260
L 527 260
L 527 260
L 527 260
L 527 260
L 527 260
L 527 260
L 527 260
L 527 259
L 527 259
L 527 259
L 527 259
L 527 259
L 527 259
L 528 259
L 528 259
L 528 259
L 528 259
L 528 259
L 528 259
L 528 259
L 528 259
L 528 259
L 528 259
L 528 259
L 528 259
L 528 259
L 528 258
L 528 258
L 528 258
L 528 258
L 528 258
L 528 258
L 528 258
L 528 258
L 528 258
L 528 258
L 528 258
L 528 258
L 528 258
L 528 258
L 528 258
L 528 258
L 528 258
L 528 258
L 528 258
L 528 257
L 528 257
L 528 257
L 528 257
L 528 257
L 528 257
L 529 257
L 529 257
L 529 257
L 529 257
L 529 257
L 529 257
L 529 257
L 529 257
L 529 257
L 529 257
L 529 257
L 529 257
L 529 257
L 529 257
L 529 256
L 529 256
L 529 256
L 529 256
L 529 256
L 529 256
L 529 256
L 529 256
L 529 256
L 529 256
L 529 256
L 529 256
L 529 256
L 529 256
L 529 256
L 529 256
L 529 256
L 529 256
L 529 256
L 529 255
L 529 255
L 529 255
L 529 255
L 529 255
L 529 255
L 529 255
L 529 255
L 529 255
L 529 255
L 529 255
L 529 255
L 529 255
L 529 255
L 529 255
L 529 255
L 529 255
L 530 255
L 530 255
L 530 254
L 530 254
L 530 254
L 530 254
L 530 254
L 530 254
L 530 254
L 530 254
L 530 254
L 530 254
L 530 254
L 530 254
L 530 254
L 530 254
L 530 254
L 530 254
L 530 254
L 530 254
L 530 254
L 530 253
L 530 253
L 531 253
L 531 253
L 531 253
L 531 253
L 531 253
L 531 253
L 531 253
L 531 253
L 531 253
L 531 253
L 531 253
L 531 253
L 531 253
L 531 253
L 531 253
L 531 253
L 531 253
L 531 252
L 531 252
L 531 252
L 531 252
L 531 252
L 531 252
L 531 252
L 531 252
L 532 252
L 532 252
L 532 252
L 532 252
L 532 252
L 532 252
L 532 252
L 532 252
L 532 252
L 532 252
L 532 252
L 532 251
L 532 251
L 532 251
L 532 251
L 532 251
L 532 251
L 532 251
L 533 251
L 533 251
L 533 251
L 533 251
L 533 251
L 533 251
L 533 251
L 533 251
L 533 251
L 533 251
L 533 251
L 533 251
L 533 250
L 533 250
L 533 250
L 533 250
L 533 250
L 533 250
L 533 250
L 533 250
L 534 250
L 534 250
L 535 250
L 538 250
L 538 250
L 538 250
L 538 250
L 538 250
L 538 250
L 538 250
L 538 250
L 538 249
L 539 249
L 539 249
L 539 249
L 539 249
L 539 249
L 539 249
L 539 249
L 539 249
L 539 249
L 539 249
L 539 249
L 539 249
L 539 249
L 539 249
L 539 249
L 539 249
L 539 249
L 539 249
L 539 249
L 539 248
L 539 248
L 539 248
L 539 248
L 539 248
L 539 248
L 539 248
L 539 248
L 539 248
L 539 248
L 539 248
L 539 248
L 539 248
L 539 248
L 539 248
L 539 248
L 539 248
L 539 248
L 539 248
L 539 247
L 539 247
L 539 247
L 539 247
L 539 247
L 539 247
L 540 247
L 540 247
L 540 247
L 540 247
L 540 247
L 540 247
L 540 247
L 540 247
L 540 247
L 540 247
L 540 247
L 540 247
L 540 247
L 540 246
L 540 246
L 540 246
L 540 246
L 540 246
L 540 246
L 540 246
L 540 246
L 540 246
L 540 246
L 540 246
L 540 246
L 540 246
L 540 246
L 540 246
L 540 246
L 540 246
L 540 246
L 540 246
L 540 245
L 540 245
L 540 245
L 540 245
L 540 245
L 540 245
L 540 245
L 541 245
L 541 245
L 541 245
L 541 245
L 541 245
L 541 245
L 541 245
L 541 245
L 541 245
L 541 245
L 542 245
L 542 245
L 542 244
L 542 244
L 542 244
L 542 244
L 542 244
L 542 244
L 542 244
L 542 244
L 542 244
L 542 244
L 542 244
L 542 244
L 542 244
L 542 244
L 542 244
L 542 244
L 542 244
L 542 244
L 542 244
L 542 243
L 542 243
L 542 243
L 543 243
L 543 243
L 543 243
L 543 243
L 543 243
L 543 243
L 543 243
L 543 243
L 543 243
L 543 243
L 543 243
L 543 243
L 543 243
L 543 243
L 543 243
L 543 243
L 543 242
L 543 242
L 543 242
L 543 242
L 543 242
L 543 242
L 543 242
L 543 242
L 543 242
L 543 242
L 543 242
L 543 242
L 543 242
L 543 242
L 543 242
L 543 242
L 543 242
L 543 242
L 543 242
L 544 241
L 544 241
L 544 241
L 544 241
L 544 241
L 544 241
L 544 241
L 544 241
L 544 241
L 544 241
L 544 241
L 544 241
L 544 241
L 544 241
L 544 241
L 544 241
L 544 241
L 544 241
L 544 241
L 544 240
L 544 240
L 544 240
L 544 240
L 544 240
L 544 240
L 544 240
L 544 240
L 544 240
L 544 240
L 544 240
L 544 240
L 545 240
L 545 240
L 545 240
L 545 240
L 545 240
L 545 240
L 545 240
L 545 240
L 545 239
L 545 239
L 545 239
L 545 239
L 545 239
L 545 239
L 545 239
L 546 239
L 546 239
L 546 239
L 546 239
L 546 239
L 546 239
L 546 239
L 546 239
L 546 239
L 546 239
L 546 239
L 546 239
L 546 238
L 546 238
L 546 238
L 546 238
L 546 238
L 546 238
L 547 238
L 547 238
L 547 238
L 547 238
L 547 238
L 547 238
L 547 238
L 547 238
L 547 238
L 547 238
L 547 238
L 547 238
L 548 238
L 548 237
L 548 237
L 548 237
L 548 237
L 548 237
L 548 237
L 549 237
L 549 237
L 549 237
L 549 237
L 549 237
L 550 237
L 550 237
L 553 237
L 553 237
L 553 237
L 553 237
L 553 237
L 553 237
L 554 236
L 554 236
L 554 236
L 554 236
L 554 236
L 554 236
L 554 236
L 554 236
L 554 236
L 554 236
L 554 236
L 554 236
L 554 236
L 554 236
L 554 236
L 554 236
L 554 236
L 554 236
L 554 236
L 554 235
L 554 235
L 554 235
L 554 235
L 554 235
L 554 235
L 554 235
L 554 235
L 554 235
L 554 235
L 554 235
L 554 235
L 554 235
L 554 235
L 554 235
L 554 235
L 554 235
L 554 235
L 554 235
L 554 234
L 554 234
L 554 234
L 554 234
L 554 234
L 554 234
L 554 234
L 554 234
L 554 234
L 555 234
L 555 234
L 555 234
L 555 234
L 555 234
L 555 234
L 555 234
L 555 234
L 555 234
L 555 234
L 555 233
L 555 233
L 555 233
L 555 233
L 555 233
L 555 233
L 555 233
L 555 233
L 555 233
L 555 233
L 555 233
L 555 233
L 555 233
L 555 233
L 555 233
L 555 233
L 555 233
L 555 233
L 555 233
L 555 232
L 556 232
L 556 232
L 556 232
L 556 232
L 556 232
L 556 232
L 556 232
L 556 232
L 556 232
L 556 232
L 556 232
L 556 232
L 556 232
L 556 232
L 556 232
L 556 232
L 556 232
L 556 232
L 556 232
L 556 231
L 556 231
L 557 231
L 557 231
L 557 231
L 557 231
L 557 231
L 557 231
L 557 231
L 557 231
L 557 231
L 557 231
L 557 231
L 557 231
L 557 231
L 557 231
L 557 231
L 557 231
L 557 231
L 557 230
L 557 230
L 557 230
L 557 230
L 557 230
L 557 230
L 557 230
L 557 230
L 557 230
L 557 230
L 557 230
L 557 230
L 557 230
L 557 230
L 557 230
L 557 230
L 557 230
L 557 230
L 557 230
L 557 229
L 557 229
L 557 229
L 557 229
L 557 229
L 557 229
L 557 229
L 558 229
L 558 229
L 558 229
L 558 229
L 558 229
L 558 229
L 558 229
L 558 229
L 558 229
L 558 229
L 558 229
L 558 229
L 558 228
L 558 228
L 558 228
L 558 228
L 558 228
L 558 228
L 558 228
L 558 228
L 558 228
L 558 228
L 558 228
L 558 228
L 558 228
L 558 228
L 558 228
L 558 228
L 558 228
L 558 228
L 558 228
L 558 227
L 558 227
L 558 227
L 558 227
L 558 227
L 558 227
L 558 227
L 558 227
L 558 227
L 558 227
L 558 227
L 558 227
L 558 227
L 558 227
L 558 227
L 558 227
L 559 227
L 559 227
L 559 227
L 559 226
L 559 226
L 559 226
L 559 226
L 559 226
L 559 226
L 559 226
L 559 226
L 559 226
L 559 226
L 559 226
L 559 226
L 559 226
L 559 226
L 559 226
L 559 226
L 559 226
L 559 226
L 559 226
L 559 225
L 560 225
L 560 225
L 560 225
L 560 225
L 560 225
L 560 225
L 560 225
L 560 225
L 560 225
L 560 225
L 560 225
L 560 225
L 560 225
L 560 225
L 560 225
L 561 225
L 561 225
L 561 225
L 561 224
L 561 224
L 561 224
L 561 224
L 561 224
L 561 224
L 561 224
L 561 224
L 561 224
L 562 224
L 562 224
L 562 224
L 562 224
L 562 224
L 562 224
L 562 224
L 562 224
L 562 224
L 562 224
L 562 223
L 562 223
L 562 223
L 562 223
L 562 223
L 562 223
L 562 223
L 562 223
L 562 223
L 563 223
L 563 223
L 563 223
L 563 223
L 563 223
L 563 223
L 563 223
L 563 223
L 563 223
L 563 223
L 563 223
L 565 222
L 565 222
L 565 222
L 566 222
L 568 222
L 568 222
L 568 222
L 568 222
L 568 222
L 568 222
L 568 222
L 568 222
L 568 222
L 568 222
L 568 222
L 568 222
L 568 222
L 568 222
L 568 222
L 568 221
L 568 221
L 568 221
L 568 221
L 568 221
L 569 221
L 569 221
L 569 221
L 569 221
L 569 221
L 569 221
L 569 221
L 569 221
L 569 221
L 569 221
L 569 221
L 569 221
L 569 221
L 569 221
L 569 220
L 569 220
L 569 220
L 569 220
L 569 220
L 569 220
L 569 220
L 569 220
L 569 220
L 569 220
L 569 220
L 569 220
L 569 220
L 569 220
L 569 220
L 569 220
L 569 220
L 569 220
L 569 220
L 569 219
L 569 219
L 569 219
L 569 219
L 569 219
L 569 219
L 569 219
L 569 219
L 569 219
L 569 219
L 569 219
L 569 219
L 569 219
L 569 219
L 569 219
L 570 219
L 570 219
L 570 219
L 570 219
L 570 218
L 570 218
L 570 218
L 570 218
L 570 218
L 570 218
L 570 218
L 570 218
L 570 218
L 570 218
L 570 218
L 570 218
L 570 218
L 570 218
L 570 218
L 570 218
L 570 218
L 570 218
L 570 218
L 570 217
L 570 217
L 570 217
L 570 217
L 570 217
L 570 217
L 570 217
L 570 217
L 570 217
L 570 217
L 570 217
L 570 217
L 570 217
L 570 217
L 570 217
L 570 217
L 570 217
L 571 217
L 571 217
L 571 216
L 571 216
L 571 216
L 571 216
L 571 216
L 571 216
L 571 216
L 571 216
L 571 216
L 571 216
L 571 216
L 571 216
L 571 216
L 571 216
L 571 216
L 571 216
L 571 216
L 571 216
L 571 216
L 571 215
L 571 215
L 571 215
L 571 215
L 571 215
L 572 215
L 572 215
L 572 215
L 572 215
L 572 215
L 572 215
L 572 215
L 572 215
L 572 215
L 572 215
L 572 215
L 572 215
L 572 215
L 572 215
L 572 215
L 572 214
L 572 214
L 572 214
L 572 214
L 572 214
L 572 214
L 572 214
L 572 214
L 572 214
L 572 214
L 572 214
L 572 214
L 572 214
L 572 214
L 572 214
L 572 214
L 572 214
L 572 214
L 572 214
L 572 213
L 572 213
L 572 213
L 572 213
L 572 213
L 572 213
L 572 213
L 573 213
L 573 213
L 573 213
L 573 213
L 573 213
L 573 213
L 573 213
L 573 213
L 573 213
L 573 213
L 573 213
L 573 213
L 573 212
L 573 212
L 573 212
L 573 212
L 573 212
L 573 212
L 573 212
L 573 212
L 573 212
L 573 212
L 573 212
L 573 212
L 573 212
L 573 212
L 573 212
L 573 212
L 573 212
L 573 212
L 573 212
L 573 211
L 573 211
L 573 211
L 573 211
L 573 211
L 573 211
L 573 211
L 573 211
L 573 211
L 573 211
L 573 211
L 573 211
L 574 211
L 574 211
L 574 211
L 574 211
L 574 211
L 574 211
L 574 211
L 574 210
L 574 210
L 574 210
L 574 210
L 574 210
L 574 210
L 574 210
L 574 210
L 574 210
L 574 210
L 574 210
L 574 210
L 574 210
L 574 210
L 574 210
L 575 210
L 575 210
L 575 210
L 575 210
L 575 209
L 575 209
L 575 209
L 575 209
L 576 209
L 576 209
L 576 209
L 576 209
L 576 209
L 576 209
L 576 209
L 576 209
L 576 209
L 576 209
L 576 209
L 577 209
L 577 209
L 577 209
L 577 209
L 577 208
L 577 208
L 577 208
L 577 208
L 577 208
L 577 208
L 577 208
L 577 208
L 578 208
L 578 208
L 578 208
L 578 208
L 578 208
L 578 208
L 578 208
L 579 208
L 579 208
L 581 208
L 581 208
L 582 207
L 582 207
L 582 207
L 583 207
L 583 207
L 583 207
L 583 207
L 583 207
L 584 207
L 584 207
L 584 207
L 584 207
L 584 207
L 584 207
L 584 207
L 584 207
L 584 207
L 584 207
L 584 207
L 584 206
L 584 206
L 585 206
L 585 206
L 585 206
L 585 206
L 585 206
L 585 206
L 585 206
L 585 206
L 585 206
L 586 206
L 586 206
L 586 206
L 586 206
L 586 206
L 586 206
L 586 206
L 586 206
L 587 206
L 587 205
L 587 205
L 587 205
L 587 205
L 587 205
L 587 205
L 587 205
L 588 205
L 588 205
L 588 205
L 588 205
L 588 205
L 588 205
L 588 205
L 588 205
L 589 205
L 589 205
L 590 205
L 590 205
L 590 204
L 590 204
L 590 204
L 590 204
L 590 204
L 590 204
L 591 204
L 591 204
L 591 204
L 591 204
L 591 204
L 591 204
L 591 204
L 592 204
L 592 204
L 592 204
L 592 204
L 592 204
L 592 204
L 592 203
L 592 203
L 593 203
L 593 203
L 593 203
L 593 203
L 595 203
L 595 203
L 595 203
L 595 203
L 596 203
L 596 203
L 597 203
L 597 203
L 597 203
L 598 203
L 598 203
L 598 203
L 598 203
L 598 202
L 599 202
L 599 202
L 599 202
L 599 202
L 599 202
L 599 202
L 599 202
L 599 202
L 599 202
L 600 202
L 600 202
L 600 202
L 600 202
L 600 202
L 601 202
L 601 202
L 601 202
L 601 202
L 601 201
L 601 201
L 602 201
L 602 201
L 602 201
L 602 201
L 602 201
L 602 201
L 602 201
L 603 201
L 603 201
L 603 201
L 603 201
L 604 201
L 604 201
L 604 201
L 604 201
L 604 201
L 604 201
L 605 200
L 605 200
L 605 200
L 605 200
L 605 200
L 605 200
L 606 200
L 606 200
L 606 200
L 606 200
L 606 200
L 606 200
L 606 200
L 607 200
L 607 200
L 607 200
L 607 200
L 607 200
L 607 200
L 607 199
L 608 199
L 608 199
L 608 199
L 608 199
L 609 199
L 609 199
L 609 199
L 610 199
L 611 199
L 612 199
L 612 199
L 613 199
L 613 199
L 613 199
L 613 199
L 613 199
L 613 199
L 613 199
L 614 198
L 614 198
L 614 198
L 614 198
L 615 198
L 615 198
L 615 198
L 615 198
L 615 198
L 615 198
L 615 198
L 616 198
L 616 198
L 616 198
L 616 198
L 616 198
L 616 198
L 616 198
L 616 198
L 616 198
L 616 197
L 617 197
L 617 197
L 617 197
L 617 197
L 618 197
L 618 197
L 618 197
L 618 197
L 618 197
L 618 197
L 618 197
L 618 197
L 618 197
L 618 197
L 619 197
L 619 197
L 619 197
L 619 197
L 619 196
L 619 196
L 619 196
L 619 196
L 619 196
L 619 196
L 620 196
L 620 196
L 620 196
L 620 196
L 620 196
L 620 196
L 620 196
L 620 196
L 620 196
L 621 196
L 621 196
L 621 196
L 621 196
L 621 195
L 621 195
L 621 195
L 621 195
L 621 195
L 621 195
L 621 195
L 621 195
L 621 195
L 622 195
L 622 195
L 622 195
L 622 195
L 623 195
L 623 195
L 623 195
L 627 195
L 627 195
L 627 195
L 627 194
L 628 194
L 628 194
L 628 194
L 628 194
L 628 194
L 628 194
L 628 194
L 628 194
L 628 194
L 628 194
L 628 194
L 628 194
L 628 194
L 628 194
L 628 194
L 628 194
L 628 194
L 628 194
L 628 193
L 628 193
L 628 193
L 628 193
L 628 193
L 628 193
L 628 193
L 628 193
L 628 193
L 628 193
L 628 193
L 628 193
L 628 193
L 628 193
L 628 193
L 628 193
L 628 193
L 628 193
L 628 193
L 628 192
L 628 192
L 628 192
L 628 192
L 628 192
L 629 192
L 629 192
L 629 192
L 629 192
L 629 192
L 629 192
L 629 192
L 629 192
L 629 192
L 629 192
L 629 192
L 629 192
L 629 192
L 629 192
L 629 191
L 629 191
L 629 191
L 629 191
L 629 191
L 629 191
L 629 191
L 629 191
L 629 191
L 629 191
L 629 191
L 630 191
L 630 191
L 630 191
L 630 191
L 630 191
L 630 191
L 630 191
L 630 191
L 630 190
L 630 190
L 630 190
L 630 190
L 630 190
L 630 190
L 630 190
L 630 190
L 630 190
L 631 190
L 631 190
L 631 190
L 631 190
L 631 190
L 631 190
L 631 190
L 631 190
L 631 190
L 631 190
L 631 189
L 631 189
L 631 189
L 631 189
L 631 189
L 631 189
L 631 189
L 631 189
L 631 189
L 631 189
L 631 189
L 631 189
L 631 189
L 631 189
L 631 189
L 631 189
L 631 189
L 631 189
L 631 189
L 631 189
L 632 188
L 632 188
L 632 188
L 632 188
L 632 188
L 632 188
L 632 188
L 632 188
L 632 188
L 632 188
L 632 188
L 632 188
L 632 188
L 632 188
L 632 188
L 632 188
L 632 188
L 632 188
L 632 188
L 632 187
L 632 187
L 632 187
L 632 187
L 632 187
L 632 187
L 632 187
L 632 187
L 632 187
L 632 187
L 632 187
L 633 187
L 633 187
L 633 187
L 633 187
L 633 187
L 633 187
L 633 187
L 633 187
L 633 186
L 633 186
L 633 186
L 633 186
L 633 186
L 633 186
L 633 186
L 634 186
L 634 186
L 634 186
L 634 186
L 634 186
L 634 186
L 634 186
L 634 186
L 634 186
L 634 186
L 635 186
L 635 186
L 635 185
L 635 185
L 635 185
L 635 185
L 635 185
L 635 185
L 635 185
L 635 185
L 635 185
L 635 185
L 635 185
L 635 185
L 635 185
L 635 185
L 635 185
L 635 185
L 635 185
L 635 185
L 635 185
L 636 184
L 636 184
L 636 184
L 636 184
L 636 184
L 636 184
L 636 184
L 636 184
L 636 184
L 636 184
L 636 184
L 636 184
L 636 184
L 636 184
L 636 184
L 636 184
L 636 184
L 637 184
L 637 184
L 637 183
L 637 183
L 637 183
L 637 183
L 637 183
L 637 183
L 638 183
L 638 183
L 638 183
L 639 183
L 639 183
L 641 183
L 641 183
L 641 183
L 642 183
L 642 183
L 642 183
L 642 183
L 642 183
L 642 182
L 642 182
L 642 182
L 642 182
L 642 182
L 642 182
L 642 182
L 642 182
L 642 182
L 642 182
L 642 182
L 642 182
L 642 182
L 642 182
L 642 182
L 642 182
L 642 182
L 642 182
L 643 182
L 643 181
L 643 181
L 643 181
L 643 181
L 643 181
L 643 181
L 643 181
L 643 181
L 643 181
L 643 181
L 643 181
L 643 181
L 643 181
L 643 181
L 643 181
L 643 181
L 643 181
L 643 181
L 643 181
L 643 181
L 643 180
L 643 180
L 643 180
L 643 180
L 643 180
L 643 180
L 643 180
L 643 180
L 643 180
L 643 180
L 643 180
L 643 180
L 643 180
L 643 180
L 643 180
L 643 180
L 643 180
L 643 180
L 643 180
L 643 179
L 643 179
L 643 179
L 644 179
L 644 179
L 644 179
L 644 179
L 644 179
L 644 179
L 644 179
L 644 179
L 644 179
L 644 179
L 644 179
L 644 179
L 644 179
L 645 179
L 645 179
L 645 179
L 645 178
L 645 178
L 645 178
L 645 178
L 645 178
L 645 178
L 645 178
L 645 178
L 645 178
L 645 178
L 645 178
L 645 178
L 645 178
L 645 178
L 645 178
L 645 178
L 645 178
L 645 178
L 646 178
L 646 177
L 646 177
L 646 177
L 646 177
L 646 177
L 646 177
L 646 177
L 646 177
L 646 177
L 646 177
L 646 177
L 646 177
L 646 177
L 646 177
L 646 177
L 646 177
L 646 177
L 646 177
L 646 177
L 646 176
L 646 176
L 646 176
L 646 176
L 646 176
L 646 176
L 646 176
L 646 176
L 646 176
L 646 176
L 646 176
L 646 176
L 647 176
L 647 176
L 647 176
L 647 176
L 647 176
L 647 176
L 647 176
L 647 175
L 647 175
L 647 175
L 647 175
L 647 175
L 647 175
L 647 175
L 647 175
L 647 175
L 647 175
L 647 175
L 647 175
L 647 175
L 647 175
L 647 175
L 647 175
L 647 175
L 647 175
L 647 175
L 647 174
L 647 174
L 647 174
L 647 174
L 647 174
L 647 174
L 647 174
L 647 174
L 647 174
L 647 174
L 647 174
L 647 174
L 647 174
L 647 174
L 648 174
L 648 174
L 648 174
L 648 174
L 648 174
L 648 173
L 648 173
L 648 173
L 648 173
L 648 173
L 648 173
L 648 173
L 648 173
L 648 173
L 648 173
L 648 173
L 648 173
L 648 173
L 648 173
L 648 173
L 648 173
L 648 173
L 648 173
L 648 173
L 648 172
L 648 172
L 648 172
L 648 172
L 648 172
L 648 172
L 648 172
L 648 172
L 648 172
L 649 172
L 649 172
L 649 172
L 649 172
L 649 172
L 649 172
L 649 172
L 649 172
L 649 172
L 649 172
L 649 172
L 649 171
L 649 171
L 649 171
L 649 171
L 649 171
L 649 171
L 649 171
L 649 171
L 650 171
L 650 171
L 650 171
L 650 171
L 650 171
L 650 171
L 650 171
L 650 171
L 650 171
L 650 171
L 650 171
L 650 170
L 650 170
L 650 170
L 650 170
L 650 170
L 650 170
L 650 170
L 651 170
L 651 170
L 651 170
L 651 170
L 651 170
L 651 170
L 651 170
L 651 170
L 651 170
L 651 170
L 651 170
L 651 170
L 651 169
L 651 169
L 651 169
L 651 169
L 651 169
L 651 169
L 652 169
L 652 169
L 652 169
L 652 169
L 652 169
L 652 169
L 652 169
L 653 169
L 653 169
L 653 169
L 654 169
L 655 169
L 655 169
L 656 168
L 656 168
L 657 168
L 657 168
L 657 168
L 657 168
L 657 168
L 657 168
L 657 168
L 657 168
L 657 168
L 657 168
L 657 168
L 657 168
L 657 168
L 657 168
L 657 168
L 657 168
L 657 168
L 657 167
L 657 167
L 657 167
L 657 167
L 657 167
L 658 167
L 658 167
L 658 167
L 658 167
L 658 167
L 658 167
L 658 167
L 658 167
L 658 167
L 658 167
L 658 167
L 658 167
L 658 167
L 658 167
L 658 166
L 658 166
L 658 166
L 658 166
L 658 166
L 658 166
L 658 166
L 658 166
L 658 166
L 658 166
L 658 166
L 658 166
L 658 166
L 658 166
L 658 166
L 658 166
L 658 166
L 659 166
L 659 166
L 659 165
L 659 165
L 659 165
L 659 165
L 659 165
L 659 165
L 659 165
L 659 165
L 659 165
L 659 165
L 660 165
L 660 165
L 660 165
L 660 165
L 660 165
L 660 165
L 660 165
L 660 165
L 660 165
L 660 164
L 660 164
L 660 164
L 660 164
L 660 164
L 660 164
L 660 164
L 660 164
L 660 164
L 660 164
L 660 164
L 660 164
L 660 164
L 660 164
L 660 164
L 661 164
L 661 164
L 661 164
L 661 164
L 661 163
L 661 163
L 661 163
L 661 163
L 661 163
L 661 163
L 661 163
L 661 163
L 661 163
L 661 163
L 661 163
L 661 163
L 661 163
L 661 163
L 661 163
L 662 163
L 662 163
L 662 163
L 662 163
L 662 163
L 662 162
L 662 162
L 662 162
L 662 162
L 662 162
L 662 162
L 662 162
L 662 162
L 662 162
L 662 162
L 662 162
L 662 162
L 662 162
L 662 162
L 662 162
L 662 162
L 662 162
L 662 162
L 662 162
L 662 161
L 662 161
L 662 161
L 662 161
L 662 161
L 662 161
L 662 161
L 662 161
L 663 161
L 663 161
L 663 161
L 663 161
L 663 161
L 663 161
L 663 161
L 663 161
L 663 161
L 663 161
L 663 161
L 663 160
L 663 160
L 663 160
L 663 160
L 664 160
L 664 160
L 664 160
L 664 160
L 664 160
L 664 160
L 664 160
L 664 160
L 664 160
L 665 160
L 665 160
L 665 160
L 665 160
L 665 160
L 665 160
L 665 159
L 665 159
L 665 159
L 665 159
L 665 159
L 665 159
L 665 159
L 665 159
L 665 159
L 666 159
L 666 159
L 666 159
L 666 159
L 666 159
L 666 159
L 666 159
L 667 159
L 667 159
L 667 159
L 667 158
L 668 158
L 668 158
L 668 158
L 669 158
L 669 158
L 669 158
L 670 158
L 671 158
L 672 158
L 672 158
L 672 158
L 672 158
L 672 158
L 672 158
L 672 158
L 672 158
L 672 158
L 672 158
L 672 157
L 672 157
L 672 157
L 672 157
L 672 157
L 673 157
L 673 157
L 673 157
L 673 157
L 673 157
L 673 157
L 673 157
L 673 157
L 673 157
L 673 157
L 673 157
L 673 157
L 673 157
L 673 157
L 673 156
L 673 156
L 673 156
L 673 156
L 673 156
L 674 156
L 674 156
L 674 156
L 674 156
L 674 156
L 674 156
L 674 156
L 674 156
L 674 156
L 674 156
L 675 156
L 675 156
L 675 156
L 675 156
L 675 155
L 675 155
L 675 155
L 675 155
L 675 155
L 675 155
L 676 155
L 676 155
L 676 155
L 676 155
L 676 155
L 676 155
L 676 155
L 676 155
L 676 155
L 677 155
L 677 155
L 677 155
L 677 155
L 677 155
L 677 154
L 677 154
L 677 154
L 678 154
L 678 154
L 678 154
L 678 154
L 678 154
L 678 154
L 678 154
L 679 154
L 679 154
L 679 154
L 679 154
L 679 154
L 679 154
L 679 154
L 679 154
L 679 154
L 679 153
L 679 153
L 679 153
L 679 153
L 679 153
L 680 153
L 680 153
L 680 153
L 680 153
L 680 153
L 680 153
L 680 153
L 680 153
L 680 153
L 681 153
L 681 153
L 681 153
L 681 153
L 681 153
L 681 152
L 682 152
L 682 152
L 687 152
L 687 152
L 688 152
L 688 152
L 688 152
L 688 152
L 688 152
L 688 152
L 688 152
L 688 152
L 689 152
L 689 152
L 689 152
L 689 152
L 689 152
L 689 152
L 689 151
L 690 151
L 690 151
L 690 151
L 690 151
L 690 151
L 690 151
L 690 151
L 690 151
L 691 151
L 691 151
L 691 151
L 691 151
L 691 151
L 691 151
L 691 151
L 691 151
L 692 151
L 692 151
L 692 150
L 692 150
L 692 150
L 692 150
L 692 150
L 692 150
L 692 150
L 692 150
L 692 150
L 692 150
L 693 150
L 693 150
L 693 150
L 693 150
L 693 150
L 693 150
L 693 150
L 693 150
L 694 150
L 694 149
L 694 149
L 694 149
L 694 149
L 694 149
L 695 149
L 695 149
L 695 149
L 695 149
L 695 149
L 695 149
L 695 149
L 695 149
L 695 149
L 695 149
L 695 149
L 695 149
L 695 149
L 695 149
L 695 148
L 695 148
L 696 148
L 696 148
L 696 148
L 696 148
L 696 148
L 696 148
L 696 148
L 696 148
L 696 148
L 697 148
L 697 148
L 698 148
L 698 148
L 699 148
L 699 148
L 699 148
L 700 148
L 701 147
L 701 147
L 701 147
L 701 147
L 701 147
L 701 147
L 701 147
L 701 147
L 701 147
L 701 147
L 701 147
L 701 147
L 701 147
L 701 147
L 701 147
L 702 147
L 702 147
L 702 147
L 702 147
L 702 147
L 702 146
L 702 146
L 702 146
L 702 146
L 702 146
L 702 146
L 702 146
L 702 146
L 702 146
L 702 146
L 702 146
L 702 146
L 702 146
L 702 146
L 703 146
L 703 146
L 703 146
L 703 146
L 703 146
L 703 145
L 703 145
L 703 145
L 703 145
L 703 145
L 703 145
L 703 145
L 703 145
L 703 145
L 703 145
L 703 145
L 703 145
L 703 145
L 703 145
L 703 145
L 703 145
L 703 145
L 703 145
L 703 145
L 704 144
L 704 144
L 704 144
L 704 144
L 704 144
L 704 144
L 704 144
L 704 144
L 704 144
L 704 144
L 705 144
L 705 144
L 705 144
L 705 144
L 705 144
L 705 144
L 705 144
L 705 144
L 705 144
L 705 143
L 705 143
L 705 143
L 705 143
L 705 143
L 705 143
L 705 143
L 705 143
L 705 143
L 706 143
L 706 143
L 706 143
L 706 143
L 706 143
L 706 143
L 706 143
L 706 143
L 706 143
L 706 143
L 706 142
L 706 142
L 706 142
L 706 142
L 706 142
L 707 142
L 707 142
L 707 142
L 707 142
L 707 142
L 707 142
L 707 142
L 707 142
L 707 142
L 707 142
L 707 142
L 708 142
L 708 142
L 708 142
L 708 141
L 708 141
L 708 141
L 708 141
L 708 141
L 708 141
L 708 141
L 708 141
L 709 141
L 709 141
L 709 141
L 709 141
L 709 141
L 709 141
L 709 141
L 709 141
L 709 141
L 709 141
L 709 141
L 709 140
L 710 140
L 710 140
L 710 140
L 710 140
L 710 140
L 710 140
L 710 140
L 710 140
L 711 140
L 711 140
L 711 140
L 711 140
L 713 140
L 715 140
L 716 140
L 716 140
L 716 140
L 716 140
L 716 139
L 716 139
L 716 139
L 716 139
L 716 139
L 716 139
L 717 139
L 717 139
L 717 139
L 717 139
L 717 139
L 717 139
L 717 139
L 717 139
L 717 139
L 717 139
L 717 139
L 717 139
L 717 139
L 717 138
L 717 138
L 717 138
L 717 138
L 717 138
L 717 138
L 717 138
L 718 138
L 718 138
L 718 138
L 718 138
L 718 138
L 718 138
L 718 138
L 718 138
L 718 138
L 718 138
L 719 138
L 719 138
L 719 138
L 719 137
L 719 137
L 719 137
L 719 137
L 719 137
L 719 137
L 719 137
L 719 137
L 719 137
L 719 137
L 719 137
L 719 137
L 720 137
L 720 137
L 720 137
L 720 137
L 720 137
L 720 137
L 720 137
L 720 136
L 720 136
L 720 136
L 720 136
L 720 136
L 720 136
L 721 136
L 721 136
L 721 136
L 721 136
L 721 136
L 721 136
L 721 136
L 721 136
L 721 136
L 721 136
L 721 136
L 721 136
L 721 136
L 721 135
L 721 135
L 721 135
L 721 135
L 721 135
L 721 135
L 721 135
L 721 135
L 721 135
L 721 135
L 721 135
L 721 135
L 721 135
L 722 135
L 722 135
L 722 135
L 722 135
L 722 135
L 722 135
L 722 134
L 722 134
L 722 134
L 722 134
L 722 134
L 722 134
L 722 134
L 722 134
L 723 134
L 723 134
L 723 134
L 723 134
L 723 134
L 723 134
L 723 134
L 723 134
L 723 134
L 723 134
L 723 134
L 723 133
L 723 133
L 723 133
L 723 133
L 723 133
L 723 133
L 723 133
L 724 133
L 724 133
L 724 133
L 724 133
L 724 133
L 724 133
L 724 133
L 724 133
L 724 133
L 724 133
L 724 133
L 724 133
L 724 132
L 725 132
L 725 132
L 725 132
L 725 132
L 725 132
L 725 132
L 725 132
L 725 132
L 725 132
L 726 132
L 726 132
L 727 132
L 729 132
L 731 132
L 731 132
L 731 132
L 731 132
L 731 132
L 731 131
L 731 131
L 731 131
L 731 131
L 731 131
L 731 131
L 731 131
L 731 131
L 731 131
L 731 131
L 731 131
L 731 131
L 731 131
L 731 131
L 732 131
L 732 131
L 732 131
L 732 131
L 732 131
L 732 130
L 732 130
L 732 130
L 732 130
L 732 130
L 732 130
L 732 130
L 732 130
L 732 130
L 732 130
L 732 130
L 732 130
L 732 130
L 732 130
L 732 130
L 732 130
L 732 130
L 732 130
L 732 130
L 733 130
L 733 129
L 733 129
L 733 129
L 733 129
L 733 129
L 733 129
L 733 129
L 733 129
L 733 129
L 733 129
L 734 129
L 734 129
L 734 129
L 734 129
L 734 129
L 734 129
L 734 129
L 734 129
L 734 129
L 734 128
L 734 128
L 734 128
L 734 128
L 734 128
L 734 128
L 734 128
L 734 128
L 734 128
L 734 128
L 734 128
L 734 128
L 735 128
L 735 128
L 735 128
L 735 128
L 735 128
L 735 128
L 735 128
L 735 127
L 735 127
L 735 127
L 735 127
L 735 127
L 735 127
L 735 127
L 735 127
L 735 127
L 735 127
L 735 127
L 735 127
L 735 127
L 735 127
L 736 127
L 736 127
L 736 127
L 736 127
L 736 127
L 736 126
L 736 126
L 736 126
L 736 126
L 736 126
L 736 126
L 736 126
L 736 126
L 736 126
L 736 126
L 737 126
L 737 126
L 737 126
L 737 126
L 737 126
L 737 126
L 737 126
L 738 126
L 738 126
L 738 125
L 738 125
L 738 125
L 738 125
L 739 125
L 739 125
L 739 125
L 739 125
L 739 125
L 739 125
L 739 125
L 739 125
L 739 125
L 739 125
L 739 125
L 739 125
L 739 125
L 739 125
L 739 125
L 740 124
L 740 124
L 740 124
L 740 124
L 740 124
L 740 124
L 740 124
L 740 124
L 740 124
L 740 124
L 740 124
L 741 124
L 741 124
L 741 124
L 742 124
L 744 124
L 745 124
L 745 124
L 745 124
L 745 123
L 745 123
L 745 123
L 745 123
L 745 123
L 745 123
L 745 123
L 745 123
L 745 123
L 745 123
L 745 123
L 745 123
L 745 123
L 746 123
L 746 123
L 746 123
L 746 123
L 746 123
L 746 123
L 746 122
L 746 122
L 746 122
L 746 122
L 746 122
L 746 122
L 746 122
L 746 122
L 746 122
L 746 122
L 746 122
L 746 122
L 746 122
L 746 122
L 746 122
L 746 122
L 746 122
L 746 122
L 746 122
L 746 121
L 746 121
L 746 121
L 746 121
L 746 121
L 746 121
L 746 121
L 746 121
L 746 121
L 746 121
L 746 121
L 746 121
L 746 121
L 746 121
L 746 121
L 746 121
L 746 121
L 746 121
L 746 121
L 746 121
L 746 120
L 746 120
L 746 120
L 746 120
L 746 120
L 746 120
L 746 120
L 746 120
L 746 120
L 746 120
L 746 120
L 747 120
L 747 120
L 747 120
L 747 120
L 747 120
L 747 120
L 747 120
L 747 120
L 747 119
L 747 119
L 747 119
L 747 119
L 747 119
L 747 119
L 747 119
L 747 119
L 747 119
L 747 119
L 747 119
L 747 119
L 747 119
L 747 119
L 747 119
L 747 119
L 747 119
L 747 119
L 747 119
L 747 118
L 747 118
L 747 118
L 747 118
L 748 118
L 748 118
L 748 118
L 748 118
L 748 118
L 748 118
L 748 118
L 748 118
L 748 118
L 748 118
L 748 118
L 748 118
L 748 118
L 748 118
L 749 118
L 749 117
L 749 117
L 749 117
L 749 117
L 749 117
L 749 117
L 749 117
L 749 117
L 749 117
L 749 117
L 749 117
L 749 117
L 749 117
L 749 117
L 749 117
L 749 117
L 749 117
L 749 117
L 749 117
L 749 116
L 749 116
L 749 116
L 749 116
L 749 116
L 749 116
L 749 116
L 749 116
L 749 116
L 749 116
L 749 116
L 749 116
L 749 116
L 749 116
L 749 116
L 749 116
L 749 116
L 749 116
L 749 116
L 749 115
L 749 115
L 749 115
L 749 115
L 750 115
L 750 115
L 750 115
L 750 115
L 750 115
L 750 115
L 750 115
L 750 115
L 750 115
L 750 115
L 750 115
L 750 115
L 750 115
L 750 115
L 750 115
L 750 114
L 750 114
L 750 114
L 750 114
L 750 114
L 750 114
L 750 114
L 750 114
L 750 114
L 750 114
L 750 114
L 750 114
L 750 114
L 751 114
L 751 114
L 751 114
L 751 114
L 751 114
L 751 114
L 751 113
L 751 113
L 751 113
L 751 113
L 751 113
L 751 113
L 751 113
L 751 113
L 751 113
L 751 113
L 751 113
L 751 113
L 751 113
L 751 113
L 751 113
L 751 113
L 751 113
L 751 113
L 751 113
L 751 113
L 752 112
L 752 112
L 752 112
L 752 112
L 752 112
L 752 112
L 752 112
L 752 112
L 752 112
L 752 112
L 752 112
L 752 112
L 752 112
L 752 112
L 752 112
L 752 112
L 753 112
L 753 112
L 753 112
L 753 111
L 753 111
L 753 111
L 753 111
L 753 111
L 753 111
L 753 111
L 753 111
L 753 111
L 753 111
L 753 111
L 753 111
L 753 111
L 753 111
L 753 111
L 753 111
L 753 111
L 753 111
L 753 111
L 753 110
L 753 110
L 753 110
L 753 110
L 753 110
L 754 110
L 754 110
L 754 110
L 754 110
L 754 110
L 754 110
L 754 110
L 754 110
L 754 110
L 754 110
L 754 110
L 755 110
L 755 110
L 755 110
L 755 109
L 755 109
L 755 109
L 755 109
L 755 109
L 755 109
L 756 109
L 756 109
L 756 109
L 756 109
L 756 109
L 756 109
L 756 109
L 757 109
L 757 109
L 757 109
L 757 109
L 758 109
L 759 109
L 759 108
L 760 108
L 760 108
L 760 108
L 760 108
L 760 108
L 760 108
L 760 108
L 760 108
L 761 108
L 761 108
L 761 108
L 761 108
L 761 108
L 761 108
L 761 108
L 761 108
L 761 108
L 761 108
L 761 107
L 761 107
L 761 107
L 761 107
L 761 107
L 761 107
L 761 107
L 761 107
L 761 107
L 761 107
L 761 107
L 761 107
L 761 107
L 761 107
L 761 107
L 761 107
L 761 107
L 761 107
L 761 107
L 761 106
L 761 106
L 761 106
L 761 106
L 761 106
L 762 106
L 762 106
L 762 106
L 762 106
L 762 106
L 762 106
L 762 106
L 762 106
L 762 106
L 762 106
L 762 106
L 763 106
L 763 106
L 763 106
L 763 105
L 763 105
L 763 105
L 763 105
L 763 105
L 763 105
L 763 105
L 763 105
L 763 105
L 763 105
L 763 105
L 763 105
L 763 105
L 763 105
L 763 105
L 763 105
L 763 105
L 763 105
L 764 105
L 764 104
L 764 104
L 764 104
L 764 104
L 764 104
L 764 104
L 764 104
L 764 104
L 764 104
L 764 104
L 764 104
L 764 104
L 764 104
L 764 104
L 764 104
L 764 104
L 764 104
L 764 104
L 764 104
L 764 104
L 764 103
L 764 103
L 764 103
L 764 103
L 764 103
L 764 103
L 764 103
L 764 103
L 764 103
L 764 103
L 764 103
L 765 103
L 765 103
L 765 103
L 765 103
L 765 103
L 765 103
L 765 103
L 765 103
L 765 102
L 765 102
L 765 102
L 765 102
L 765 102
L 765 102
L 765 102
L 765 102
L 765 102
L 765 102
L 765 102
L 765 102
L 766 102
L 766 102
L 766 102
L 766 102
L 766 102
L 766 102
L 766 102
L 766 101
L 766 101
L 766 101
L 766 101
L 766 101
L 766 101
L 766 101
L 766 101
L 766 101
L 766 101
L 767 101
L 767 101
L 767 101
L 767 101
L 767 101
L 767 101
L 768 101
L 768 101
L 768 101
L 768 100
L 768 100
L 768 100
L 768 100
L 768 100
L 768 100
L 768 100
L 768 100
L 768 100
L 768 100
L 769 100
L 769 100
L 769 100
L 769 100
L 770 100
L 770 100
L 770 100
L 770 100
L 770 100
L 770 99
L 770 99
L 770 99
L 770 99
L 770 99
L 770 99
L 772 99
L 772 99
L 772 99
L 772 99
L 775 99
L 776 99
L 776 99
L 776 99
L 776 99
L 776 99
L 776 99
L 776 99
L 776 99
L 776 98
L 776 98
L 777 98
L 777 98
L 777 98
L 777 98
L 777 98
L 777 98
L 778 98
L 778 98
L 778 98
L 778 98
L 779 98
L 779 98
L 779 98
L 779 98
L 779 98
L 779 98
L 779 98
L 779 97
L 779 97
L 780 97
L 780 97
L 780 97
L 780 97
L 780 97
L 780 97
L 780 97
L 780 97
L 780 97
L 780 97
L 780 97
L 781 97
L 781 97
L 781 97
L 781 97
L 782 97
L 782 97
L 782 96
L 783 96
L 783 96
L 783 96
L 783 96
L 784 96
L 784 96
L 785 96
L 785 96
L 785 96
L 785 96
L 786 96
L 786 96
L 786 96
L 787 96
L 789 96
L 790 96
L 791 96
L 791 96
L 792 96
L 792 95
L 792 95
L 792 95
L 792 95
L 793 95
L 793 95
L 793 95
L 793 95
L 793 95
L 793 95
L 794 95
L 794 95
L 794 95
L 794 95
L 794 95
L 794 95
L 795 95
L 795 95
L 796 95
L 796 94
L 796 94
L 796 94
L 796 94
L 797 94
L 797 94
L 797 94
L 797 94
L 797 94
L 798 94
L 798 94
L 798 94
L 798 94
L 798 94
L 798 94
L 798 94
L 799 94
L 799 94
L 799 94
L 799 93
L 800 93
L 801 93
L 804 93
L 804 93
L 805 93
L 805 93
L 805 93
L 805 93
L 805 93
L 805 93
L 805 93
L 805 93
L 805 93
L 805 93
L 805 93
L 805 93
L 805 93
L 805 93
L 806 92
L 806 92
L 806 92
L 806 92
L 806 92
L 806 92
L 806 92
L 806 92
L 806 92
L 806 92
L 806 92
L 806 92
L 806 92
L 806 92
L 806 92
L 807 92
L 807 92
L 807 92
L 807 92
L 807 91
L 807 91
L 808 91
L 808 91
L 808 91
L 808 91
L 808 91
L 808 91
L 808 91
L 808 91
L 808 91
L 808 91
L 808 91
L 808 91
L 809 91
L 809 91
L 809 91
L 809 91
L 809 91
L 809 90
L 809 90
L 809 90
L 809 90
L 809 90
L 809 90
L 809 90
L 809 90
L 810 90
L 810 90
L 810 90
L 810 90
L 810 90
L 810 90
L 810 90
L 810 90
L 810 90
L 810 90
L 810 90
L 810 89
L 810 89
L 811 89
L 811 89
L 811 89
L 811 89
L 811 89
L 811 89
L 811 89
L 811 89
L 812 89
L 812 89
L 812 89
L 812 89
L 812 89
L 812 89
L 812 89
L 812 89
L 812 89
L 812 88
L 812 88
L 813 88
L 813 88
L 813 88
L 813 88
L 813 88
L 813 88
L 813 88
L 813 88
L 813 88
L 814 88
L 814 88
L 814 88
L 814 88
L 814 88
L 814 88
L 814 88
L 814 88
L 815 87
L 815 87
L 817 87
L 817 87
L 819 87
L 820 87
L 820 87
L 820 87
L 820 87
L 820 87
L 820 87
L 820 87
L 820 87
L 820 87
L 820 87
L 820 87
L 820 87
L 820 87
L 820 87
L 820 87
L 820 86
L 820 86
L 820 86
L 821 86
L 821 86
L 821 86
L 821 86
L 821 86
L 821 86
L 821 86
L 821 86
L 821 86
L 821 86
L 821 86
L 821 86
L 821 86
L 821 86
L 821 86
L 821 86
L 821 85
L 821 85
L 821 85
L 821 85
L 821 85
L 821 85
L 821 85
L 821 85
L 821 85
L 821 85
L 821 85
L 821 85
L 821 85
L 821 85
L 821 85
L 821 85
L 821 85
L 821 85
L 821 85
L 821 84
L 821 84
L 821 84
L 821 84
L 821 84
L 821 84
L 821 84
L 821 84
L 821 84
L 821 84
L 821 84
L 821 84
L 821 84
L 821 84
L 821 84
L 821 84
L 821 84
L 821 84
L 821 84
L 821 83
L 821 83
L 821 83
L 821 83
L 821 83
L 821 83
L 821 83
L 821 83
L 821 83
L 821 83
L 821 83
L 821 83
L 821 83
L 821 83
L 821 83
L 821 83
L 821 83
L 822 83
L 822 83
L 822 82
L 822 82
L 822 82
L 822 82
L 822 82
L 822 82
L 822 82
L 822 82
L 822 82
L 822 82
L 822 82
L 822 82
L 822 82
L 822 82
L 823 82
L 823 82
L 823 82
L 823 82
L 823 82
L 823 81
L 823 81
L 823 81
L 823 81
L 823 81
L 823 81
L 823 81
L 823 81
L 823 81
L 823 81
L 823 81
L 823 81
L 823 81
L 824 81
L 824 81
L 824 81
L 824 81
L 824 81
L 824 81
L 824 80
L 824 80
L 824 80
L 824 80
L 824 80
L 824 80
L 824 80
L 824 80
L 824 80
L 824 80
L 824 80
L 824 80
L 824 80
L 824 80
L 825 80
L 825 80
L 825 80
L 825 80
L 825 80
L 825 79
L 825 79
L 825 79
L 825 79
L 825 79
L 825 79
L 825 79
L 825 79
L 825 79
L 825 79
L 825 79
L 825 79
L 825 79
L 825 79
L 825 79
L 825 79
L 825 79
L 825 79
L 825 79
L 825 79
L 825 78
L 826 78
L 826 78
L 826 78
L 826 78
L 826 78
L 826 78
L 826 78
L 826 78
L 826 78
L 826 78
L 826 78
L 826 78
L 826 78
L 826 78
L 826 78
L 826 78
L 826 78
L 826 78
L 826 77
L 826 77
L 827 77
L 827 77
L 827 77
L 827 77
L 827 77
L 827 77
L 827 77
L 827 77
L 827 77
L 827 77
L 827 77
L 827 77
L 827 77
L 827 77
L 828 77
L 828 77
L 828 77
L 828 76
L 828 76
L 828 76
L 828 76
L 828 76
L 829 76
L 829 76
L 830 76
L 830 76
L 830 76
L 830 76
L 832 76
L 832 76
L 834 76
L 834 76
L 834 76
L 834 76
L 835 76
L 835 76
L 835 75
L 835 75
L 835 75
L 835 75
L 835 75
L 835 75
L 835 75
L 835 75
L 835 75
L 835 75
L 835 75
L 835 75
L 835 75
L 835 75
L 835 75
L 835 75
L 835 75
L 835 75
L 835 75
L 835 74
L 835 74
L 835 74
L 835 74
L 835 74
L 835 74
L 835 74
L 835 74
L 835 74
L 835 74
L 835 74
L 835 74
L 835 74
L 835 74
L 835 74
L 835 74
L 835 74
L 835 74
L 835 74
L 835 73
L 835 73
L 835 73
L 835 73
L 835 73
L 835 73
L 835 73
L 835 73
L 836 73
L 836 73
L 836 73
L 836 73
L 836 73
L 836 73
L 836 73
L 836 73
L 836 73
L 836 73
L 836 73
L 836 72
L 836 72
L 836 72
L 836 72
L 836 72
L 836 72
L 836 72
L 836 72
L 836 72
L 836 72
L 836 72
L 836 72
L 836 72
L 836 72
L 836 72
L 836 72
L 836 72
L 836 72
L 836 72
L 836 71
L 836 71
L 836 71
L 836 71
L 836 71
L 836 71
L 836 71
L 837 71
L 837 71
L 837 71
L 837 71
L 837 71
L 837 71
L 837 71
L 837 71
L 837 71
L 837 71
L 837 71
L 837 71
L 837 70
L 837 70
L 837 70
L 837 70
L 837 70
L 837 70
L 837 70
L 837 70
L 837 70
L 837 70
L 837 70
L 837 70
L 837 70
L 838 70
L 838 70
L 838 70
L 838 70
L 838 70
L 838 70
L 838 70
L 838 69
L 838 69
L 838 69
L 838 69
L 838 69
L 838 69
L 838 69
L 838 69
L 838 69
L 838 69
L 838 69
L 838 69
L 838 69
L 838 69
L 838 69
L 838 69
L 838 69
L 838 69
L 838 69
L 838 68
L 838 68
L 838 68
L 838 68
L 839 68
L 839 68
L 839 68
L 839 68
L 839 68
L 839 68
L 839 68
L 839 68
L 839 68
L 839 68
L 839 68
L 839 68
L 839 68
L 839 68
L 839 68
L 839 67
L 839 67
L 839 67
L 839 67
L 839 67
L 839 67
L 839 67
L 839 67
L 839 67
L 839 67
L 839 67
L 839 67
L 839 67
L 839 67
L 840 67
L 840 67
L 840 67
L 840 67
L 840 67
L 840 66
L 840 66
L 840 66
L 840 66
L 840 66
L 840 66
L 840 66
L 840 66
L 840 66
L 840 66
L 840 66
L 840 66
L 840 66
L 840 66
L 840 66
L 840 66
L 840 66
L 841 66
L 841 66
L 841 65
L 841 65
L 841 65
L 841 65
L 841 65
L 841 65
L 841 65
L 841 65
L 841 65
L 841 65
L 842 65
L 842 65
L 842 65
L 842 65
L 842 65
L 842 65
L 842 65
L 842 65
L 843 65
L 843 64
L 843 64
L 843 64
L 843 64
L 843 64
L 843 64
L 843 64
L 843 64
L 844 64
L 844 64
L 844 64
L 844 64
L 844 64
L 844 64
L 845 64
L 845 64
L 847 64
L 847 64
L 847 64
L 848 63
L 848 63
L 848 63
L 849 63
L 849 63
L 849 63
L 849 63
L 849 63
L 849 63
L 849 63
L 849 63
L 849 63
L 849 63
L 850 63
L 850 63
L 850 63
L 850 63
L 850 63
L 850 63
L 850 62
L 850 62
L 850 62
L 850 62
L 850 62
L 850 62
L 850 62
L 850 62
L 850 62
L 850 62
L 850 62
L 850 62
L 850 62
L 850 62
L 850 62
L 850 62
L 850 62
L 850 62
L 850 62
L 850 62
L 850 61
L 850 61
L 851 61
L 851 61
L 851 61
L 851 61
L 851 61
L 851 61
L 851 61
L 851 61
L 851 61
L 851 61
L 851 61
L 851 61
L 851 61
L 851 61
L 851 61
L 851 61
L 851 61
L 851 60
L 851 60
L 851 60
L 851 60
L 851 60
L 852 60
L 852 60
L 852 60
L 852 60
L 852 60
L 852 60
L 852 60
L 852 60
L 852 60
L 852 60
L 852 60
L 852 60
L 852 60
L 852 60
L 852 59
L 852 59
L 852 59
L 852 59
L 852 59
L 853 59
L 853 59
L 853 59
L 853 59
L 853 59
L 853 59
L 853 59
L 853 59
L 853 59
L 853 59
L 853 59
L 853 59
L 853 59
L 853 59
L 853 58
L 853 58
L 853 58
L 853 58
L 853 58
L 854 58
L 854 58
L 854 58
L 854 58
L 854 58
L 854 58
L 854 58
L 854 58
L 854 58
L 854 58
L 854 58
L 854 58
L 854 58
L 854 58
L 854 57
L 854 57
L 854 57
L 854 57
L 854 57
L 854 57
L 854 57
L 854 57
L 855 57
L 855 57
L 855 57
L 855 57
L 855 57
L 855 57
L 855 57
L 855 57
L 855 57
L 855 57
L 855 57
L 855 56
L 855 56
L 855 56
L 855 56
L 855 56
L 856 56
L 856 56
L 856 56
L 856 56
L 856 56
L 856 56
L 856 56
L 857 56
L 857 56
L 857 56
L 857 56
L 857 56
L 857 56
L 857 56
L 858 55
L 858 55
L 858 55
L 858 55
L 858 55
L 858 55
L 858 55
L 858 55
L 859 55
L 859 55
L 859 55
L 859 55
L 859 55
L 860 55
L 860 55
L 863 55
L 863 55
L 864 55
L 864 55
L 864 54
L 864 54
L 864 54
L 864 54
L 864 54
L 864 54
L 864 54
L 864 54
L 864 54
L 864 54
L 864 54
L 864 54
L 864 54
L 864 54
L 864 54
L 865 54
L 865 54
L 865 54
L 865 54
L 865 53
L 865 53
L 865 53
L 865 53
L 865 53
L 865 53
L 865 53
L 865 53
L 865 53
L 865 53
L 865 53
L 865 53
L 865 53
L 865 53
L 865 53
L 865 53
L 865 53
L 865 53
L 865 53
L 866 53
L 866 52
L 866 52
L 866 52
L 866 52
L 866 52
L 866 52
L 866 52
L 866 52
L 866 52
L 866 52
L 866 52
L 866 52
L 867 52
L 867 52
L 867 52
L 867 52
L 867 52
L 867 52
L 867 52
L 867 51
L 867 51
L 867 51
L 867 51
L 868 51
L 868 51
L 868 51
L 868 51
L 868 51
L 868 51
L 868 51
L 868 51
L 868 51
L 868 51
L 868 51
L 868 51
L 868 51
L 868 51
L 868 51
L 868 50
L 868 50
L 868 50
L 869 50
L 869 50
L 869 50
L 869 50
L 869 50
L 869 50
L 869 50
L 869 50
L 869 50
L 869 50
L 869 50
L 869 50
L 869 50
L 869 50
L 869 50
L 869 50
L 869 49
L 869 49
L 870 49
L 870 49
L 870 49
L 870 49
L 870 49
L 870 49
L 870 49
L 870 49
L 870 49
L 870 49
L 870 49
L 870 49
L 870 49
L 871 49
L 871 49
L 871 49
L 871 49
L 871 48
L 871 48
L 871 48
L 872 48
L 872 48
L 872 48
L 873 48
L 873 48
L 873 48
L 873 48
L 873 48
L 873 48
L 873 48
L 877 48
L 879 48
L 879 48
L 879 48
L 880 48
L 880 48
L 880 47
L 880 47
L 881 47
L 881 47
L 881 47
L 881 47
L 882 47
L 882 47
L 882 47
L 882 47
L 882 47
L 882 47
L 883 47
L 883 47
L 883 47
L 883 47
L 883 47
L 884 47
L 884 47
L 884 46
L 885 46
L 885 46
L 885 46
L 886 46
L 886 46
L 886 46
L 886 46
L 886 46
L 886 46
L 886 46
L 886 46
L 886 46
L 886 46
L 886 46
L 886 46
L 887 46
L 887 46
L 887 46
L 887 45
L 887 45
L 887 45
L 887 45
L 887 45
L 887 45
L 887 45
L 887 45
L 887 45
L 888 45
L 888 45
L 888 45
L 888 45
L 888 45
L 888 45
L 888 45
L 888 45
L 889 45
L 889 45
L 889 45
L 889 44
L 889 44
L 890 44
L 890 44
L 893 44
L 893 44
L 894 44
L 894 44
L 894 44
L 894 44
L 895 44
L 895 44
L 895 44
L 895 44
L 895 44
L 895 44
L 896 44
L 896 44
L 896 44
L 896 43
L 896 43
L 896 43
L 896 43
L 897 43
L 897 43
L 898 43
L 898 43
L 899 43
L 900 43
L 900 43
L 901 43
L 901 43
L 901 43
L 901 43
L 901 43
L 901 43
L 901 43
L 901 43
L 901 42
L 902 42
L 902 42
L 902 42
L 902 42
L 902 42
L 902 42
L 902 42
L 902 42
L 902 42
L 903 42
L 903 42
L 903 42
L 903 42
L 906 42
L 906 42
L 908 42
L 908 42
L 908 42
L 908 41
L 908 41
L 908 41
L 908 41
L 909 41
L 909 41
L 909 41
L 909 41
L 909 41
L 909 41
L 909 41
L 909 41
L 909 41
L 909 41
L 909 41
L 909 41
L 909 41
L 909 41
L 909 41
L 909 40
L 909 40
L 909 40
L 909 40
L 909 40
L 909 40
L 909 40
L 910 40
L 910 40
L 910 40
L 910 40
L 910 40
L 910 40
L 910 40
L 910 40
L 910 40
L 910 40
L 910 40
L 910 40
L 910 39
L 910 39
L 910 39
L 910 39
L 911 39
L 911 39
L 911 39
L 911 39
L 911 39
L 911 39
L 911 39
L 911 39
L 911 39
L 911 39
L 911 39
L 912 39
L 912 39
L 912 39
L 912 39
L 912 38
L 912 38
L 912 38
L 912 38
L 912 38
L 912 38
L 912 38
L 912 38
L 912 38
L 912 38
L 912 38
L 912 38
L 912 38
L 913 38
L 913 38
L 913 38
L 913 38
L 913 38
L 913 38
L 913 37
L 913 37
L 913 37
L 913 37
L 913 37
L 913 37
L 913 37
L 913 37
L 913 37
L 913 37
L 913 37
L 913 37
L 913 37
L 913 37
L 913 37
L 913 37
L 913 37
L 913 37
L 913 37
L 913 36
L 913 36
L 914 36
L 914 36
L 914 36
L 914 36
L 914 36
L 914 36
L 914 36
L 914 36
L 914 36
L 915 36
L 915 36
L 915 36
L 915 36
L 915 36
L 915 36
L 915 36
L 915 36
L 916 36
L 916 35
L 916 35
L 916 35
L 916 35
L 916 35
L 916 35
L 916 35
L 917 35
L 917 35
L 917 35
L 917 35
L 917 35
L 917 35
L 917 35
L 918 35
L 918 35
L 920 35
L 923 35
L 923 35
L 923 34
L 923 34
L 923 34
L 923 34
L 923 34
L 923 34
L 924 34
L 924 34
L 924 34
L 924 34
L 924 34
L 924 34
L 924 34
L 924 34
L 924 34
L 924 34
L 924 34
L 924 34
L 924 34
L 924 33
L 924 33
L 924 33
L 924 33
L 924 33
L 924 33
L 924 33
L 925 33
L 925 33
L 925 33
L 925 33
L 925 33
L 925 33
L 925 33
L 925 33
L 925 33
L 925 33
L 925 33
L 925 33
L 925 32
L 925 32
L 925 32
L 926 32
L 926 32
L 926 32
L 926 32
L 926 32
L 926 32
L 926 32
L 926 32
L 926 32
L 926 32
L 926 32
L 926 32
L 926 32
L 927 32
L 927 32
L 927 32
L 927 31
L 927 31
L 927 31
L 927 31
L 927 31
L 927 31
L 927 31
L 927 31
L 927 31
L 927 31
L 927 31
L 927 31
L 927 31
L 927 31
L 927 31
L 928 31
L 928 31
L 928 31
L 928 31
L 928 30
L 928 30
L 928 30
L 928 30
L 928 30
L 928 30
L 928 30
L 928 30
L 928 30
L 928 30
L 928 30
L 928 30
L 928 30
L 928 30
L 928 30
L 928 30
L 929 30
L 929 30
L 929 30
L 929 29
L 929 29
L 929 29
L 929 29
L 929 29
L 929 29
L 929 29
L 929 29
L 929 29
L 929 29
L 929 29
L 930 29
L 930 29
L 930 29
L 930 29
L 930 29
L 930 29
L 930 29
L 930 29
L 930 28
L 930 28
L 930 28
L 930 28
L 930 28
L 931 28
L 931 28
L 931 28
L 931 28
L 931 28
L 931 28
L 931 28
L 931 28
L 931 28
L 931 28
L 931 28
L 932 28
L 932 28
L 932 28
L 932 28
L 932 27
L 932 27
L 932 27
L 932 27
L 932 27
L 932 27
L 932 27
L 932 27
L 932 27
L 932 27
L 932 27
L 932 27
L 932 27
L 932 27
L 933 27
L 933 27
L 933 27
L 934 27
L 934 27
L 934 26
L 934 26
L 934 26
L 935 26
L 936 26
L 938 26
L 938 26
L 938 26
L 938 26
L 938 26
L 938 26
L 938 26
L 938 26
L 938 26
L 938 26
L 938 26
L 938 26
L 938 26
L 938 26
L 938 25
L 938 25
L 938 25
L 938 25
L 938 25
L 938 25
L 938 25
L 938 25
L 938 25
L 938 25
L 938 25
L 938 25
L 938 25
L 938 25
L 938 25
L 938 25
L 939 25
L 939 25
L 939 25
L 939 24
L 939 24
L 939 24
L 939 24
L 939 24
L 939 24
L 939 24
L 939 24
L 939 24
L 939 24
L 939 24
L 939 24
L 939 24
L 939 24
L 939 24
L 940 24
L 940 24
L 940 24
L 940 24
L 940 23
L 940 23
L 940 23
L 940 23
L 940 23
L 940 23
L 940 23
L 940 23
L 940 23
L 940 23
L 940 23
L 940 23
L 940 23
L 941 23
L 941 23
L 941 23
L 941 23
L 941 23
L 941 23
L 941 22
L 941 22
L 941 22
L 941 22
L 941 22
L 941 22
L 941 22
L 941 22
L 941 22
L 941 22
L 941 22
L 941 22
L 941 22
L 941 22
L 941 22
L 941 22
L 941 22
L 941 22
L 941 22
L 941 21
L 941 21
L 941 21
L 942 21
L 942 21
L 942 21
L 942 21
L 942 21
L 942 21
L 942 21
L 942 21
L 942 21
L 942 21
L 942 21
L 942 21
L 942 21
L 942 21
L 942 21
L 942 21
L 942 20
L 942 20
L 942 20
L 942 20
L 942 20
L 942 20
L 942 20
L 942 20
L 942 20
L 942 20
L 942 20
L 942 20
L 943 20
L 943 20
L 943 20
L 943 20
L 943 20
L 943 20
L 943 20
L 943 19
L 943 19
L 943 19
L 943 19
L 943 19
L 943 19
L 943 19
L 943 19
L 943 19
L 943 19
L 943 19
L 943 19
L 943 19
L 943 19
L 943 19
L 943 19
L 943 19
L 943 19
L 943 19
L 943 19
L 943 18
L 943 18
L 943 18
L 944 18
L 944 18
L 944 18
L 944 18
L 944 18
L 944 18
L 944 18
L 944 18
L 944 18
L 944 18
L 944 18
L 944 18
L 944 18
L 944 18
L 944 18
L 944 18
L 944 17
L 945 17
L 945 17
L 945 17
L 945 17
L 945 17
L 945 17
L 945 17
L 945 17
L 945 17
L 945 17
L 945 17
L 946 17
L 946 17
L 946 17
L 946 17
L 946 17
L 946 17
L 946 17
L 947 16
L 947 16
L 947 16
L 947 16
L 947 16
L 947 16
L 947 16
L 947 16
L 948 16
L 948 16
L 949 16
L 949 16
L 950 16
L 952 16
L 952 16
L 952 16
L 952 16
L 953 16
L 953 16
L 953 15
L 953 15
L 953 15
L 953 15
L 953 15
L 953 15
L 953 15
L 953 15
L 953 15
L 953 15
L 953 15
L 953 15
L 953 15
L 953 15
L 953 15
L 953 15
L 953 15
L 953 15
L 953 15
L 953 14
L 954 14
L 954 14
L 954 14
L 954 14
L 954 14
L 954 14
L 954 14
L 954 14
L 954 14
L 954 14
L 954 14
L 954 14
L 954 14
L 954 14
L 954 14
L 954 14
L 954 14
L 954 14
L 954 13
L 954 13
L 954 13
L 955 13
L 955 13
L 955 13
L 955 13
L 955 13
L 955 13
L 955 13
L 955 13
L 955 13
L 955 13
L 955 13
L 955 13
L 955 13
L 955 13
L 956 13
L 956 13
L 956 12
L 956 12
L 956 12
L 956 12
L 956 12
L 956 12
L 956 12
L 956 12
L 956 12
L 956 12
L 956 12
L 956 12
L 956 12
L 956 12
L 956 12
L 956 12
L 956 12
L 956 12
L 956 12
L 956 11
L 956 11
L 957 11
L 957 11
L 957 11
L 957 11
L 957 11
L 957 11
L 957 11
L 957 11
L 957 11
L 957 11
L 957 11
L 957 11
L 957 11
L 957 11
L 957 11
L 957 11
L 957 11" style="stroke-width:2;stroke:rgba(129,199,239,1.0);fill:none"/></svg>