<svg xmlns="http://www.w3.org/2000/svg" xmlns:xlink="http://www.w3.org/1999/xlink" width="1024" height="400">\n<path  d="M 0 0
L 1024 0
L 1024 400
L 0 400
L 0 0" style="stroke-width:0;stroke:rgba(255,255,255,1.0);fill:rgba(255,255,255,1.0)"/><path  d="M 38 11
L 957 11
L 957 351
L 38 351
L 38 11" style="stroke-width:0;stroke:rgba(255,255,255,1.0);fill:rgba(255,255,255,1.0)"/><path  d="M 38 351
L 957 351" style="stroke-width:2;stroke:rgba(85,85,85,1.0);fill:none"/><path  d="M 38 351
L 38 356" style="stroke-width:2;stroke:rgba(85,85,85,1.0);fill:none"/><text x="5" y="373" style="stroke-width:0;stroke:none;fill:rgba(51,51,51,1.0);font-size:12.8px;font-family:'Roboto Medium',sans-serif">2018-11-23</text><path  d="M 153 351
L 153 356" style="stroke-width:2;stroke:rgba(85,85,85,1.0);fill:none"/><text x="120" y="373" style="stroke-width:0;stroke:none;fill:rgba(51,51,51,1.0);font-size:12.8px;font-family:'Roboto Medium',sans-serif">2018-12-02</text><path  d="M 268 351
L 268 356" style="stroke-width:2;stroke:rgba(85,85,85,1.0);fill:none"/><text x="235" y="373" style="stroke-width:0;stroke:none;fill:rgba(51,51,51,1.0);font-size:12.8px;font-family:'Roboto Medium',sans-serif">2018-12-12</text><path  d="M 383 351
L 383 356" style="stroke-width:2;stroke:rgba(85,85,85,1.0);fill:none"/><text x="350" y="373" style="stroke-width:0;stroke:none;fill:rgba(51,51,51,1.0);font-size:12.8px;font-family:'Roboto Medium',sans-serif">2018-12-22</text><path  d="M 498 351
L 498 356" style="stroke-width:2;stroke:rgba(85,85,85,1.0);fill:none"/><text x="465" y="373" style="stroke-width:0;stroke:none;fill:rgba(51,51,51,1.0);font-size:12.8px;font-family:'Roboto Medium',sans-serif">2018-12-31</text><path  d="M 613 351
L 613 356" style="stroke-width:2;stroke:rgba(85,85,85,1.0);fill:none"/><text x="580" y="373" style="stroke-width:0;stroke:none;fill:rgba(51,51,51,1.0);font-size:12.8px;font-family:'Roboto Medium',sans-serif">2019-01-10</text><path  d="M 728 351
L 728 356" style="stroke-width:2;stroke:rgba(85,85,85,1.0);fill:none"/><text x="695" y="373" style="stroke-width:0;stroke:none;fill:rgba(51,51,51,1.0);font-size:12.8px;font-family:'Roboto Medium',sans-serif">2019-01-20</text><path  d="M 843 351
L 843 356" style="stroke-width:2;stroke:rgba(85,85,85,1.0);fill:none"/><text x="810" y="373" style="stroke-width:0;stroke:none;fill:rgba(51,51,51,1.0);font-size:12.8px;font-family:'Roboto Medium',sans-serif">2019-01-29</text><path  d="M 957 351
L 957 356" style="stroke-width:2;stroke:rgba(85,85,85,1.0);fill:none"/><text x="924" y="373" style="stroke-width:0;stroke:none;fill:rgba(51,51,51,1.0);font-size:12.8px;font-family:'Roboto Medium',sans-serif">2019-02-08</text><text x="483" y="395" style="stroke-width:0;stroke:none;fill:rgba(51,51,51,1.0);font-size:12.8px;font-family:'Roboto Medium',sans-serif">Time</text><path  d="M 959 351
L 959 11" style="stroke-width:2;stroke:rgba(85,85,85,1.0);fill:none"/><path  d="M 959 351
L 964 351" style="stroke-width:2;stroke:rgba(85,85,85,1.0);fill:none"/><text x="969" y="357" style="stroke-width:0;stroke:none;fill:rgba(51,51,51,1.0);font-size:12.8px;font-family:'Roboto Medium',sans-serif">0</text><path  d="M 959 308
L 964 308" style="stroke-width:2;stroke:rgba(85,85,85,1.0);fill:none"/><text x="969" y="314" style="stroke-width:0;stroke:none;fill:rgba(51,51,51,1.0);font-size:12.8px;font-family:'Roboto Medium',sans-serif">930</text><path  d="M 959 266
L 964 266" style="stroke-width:2;stroke:rgba(85,85,85,1.0);fill:none"/><text x="969" y="272" style="stroke-width:0;stroke:none;fill:rgba(51,51,51,1.0);font-size:12.8px;font-family:'Roboto Medium',sans-serif">1850</text><path  d="M 959 223
L 964 223" style="stroke-width:2;stroke:rgba(85,85,85,1.0);fill:none"/><text x="969" y="229" style="stroke-width:0;stroke:none;fill:rgba(51,51,51,1.0);font-size:12.8px;font-family:'Roboto Medium',sans-serif">2780</text><path  d="M 959 181
L 964 181" style="stroke-width:2;stroke:rgba(85,85,85,1.0);fill:none"/><text x="969" y="187" style="stroke-width:0;stroke:none;fill:rgba(51,51,51,1.0);font-size:12.8px;font-family:'Roboto Medium',sans-serif">3700</text><path  d="M 959 138
L 964 138" style="stroke-width:2;stroke:rgba(85,85,85,1.0);fill:none"/><text x="969" y="144" style="stroke-width:0;stroke:none;fill:rgba(51,51,51,1.0);font-size:12.8px;font-family:'Roboto Medium',sans-serif">4630</text><path  d="M 959 96
L 964 96" style="stroke-width:2;stroke:rgba(85,85,85,1.0);fill:none"/><text x="969" y="102" style="stroke-width:0;stroke:none;fill:rgba(51,51,51,1.0);font-size:12.8px;font-family:'Roboto Medium',sans-serif">5550</text><path  d="M 959 53
L 964 53" style="stroke-width:2;stroke:rgba(85,85,85,1.0);fill:none"/><text x="969" y="59" style="stroke-width:0;stroke:none;fill:rgba(51,51,51,1.0);font-size:12.8px;font-family:'Roboto Medium',sans-serif">6480</text><path  d="M 959 11
L 964 11" style="stroke-width:2;stroke:rgba(85,85,85,1.0);fill:none"/><text x="969" y="17" style="stroke-width:0;stroke:none;fill:rgba(51,51,51,1.0);font-size:12.8px;font-family:'Roboto Medium',sans-serif">7400</text><text x="1009" y="150" style="stroke-width:0;stroke:none;fill:rgba(51,51,51,1.0);font-size:12.8px;font-family:'Roboto Medium',sans-serif" transform="rotate(90.00,1009,150)">Stargazers</text><path  d="M 38 351
L 101 350
L 145 350
L 147 350
L 156 350
L 156 350
L 156 350
L 157 350
L 157 350
L 157 350
L 158 350
L 158 350
L 158 350
L 158 350
L 158 350
L 158 350
L 158 350
L 158 350
L 159 350
L 159 350
L 159 350
L 159 350
L 161 349
L 161 349
L 168 349
L 168 349
L 168 349
L 168 349
L 169 349
L 170 349
L 172 349
L 173 349
L 174 349
L 174 349
L 174 349
L 174 349
L 174 349
L 174 349
L 178 349
L 179 349
L 180 349
L 180 349
L 180 349
L 180 349
L 180 348
L 180 348
L 180 348
L 181 348
L 181 348
L 181 348
L 183 348
L 183 348
L 183 348
L 183 348
L 183 348
L 184 348
L 184 348
L 184 348
L 185 348
L 185 348
L 185 348
L 185 348
L 185 348
L 186 348
L 186 348
L 187 348
L 187 347
L 187 347
L 187 347
L 190 347
L 192 347
L 192 347
L 192 347
L 192 347
L 192 347
L 192 347
L 193 347
L 193 347
L 193 347
L 193 347
L 193 347
L 193 347
L 194 347
L 194 347
L 194 347
L 194 347
L 194 347
L 194 347
L 194 346
L 194 346
L 194 346
L 194 346
L 194 346
L 194 346
L 194 346
L 194 346
L 194 346
L 194 346
L 194 346
L 194 346
L 194 346
L 194 346
L 194 346
L 194 346
L 194 346
L 194 346
L 194 346
L 194 346
L 194 346
L 194 345
L 194 345
L 194 345
L 194 345
L 194 345
L 194 345
L 194 345
L 194 345
L 194 345
L 194 345
L 194 345
L 194 345
L 194 345
L 195 345
L 195 345
L 195 345
L 195 345
L 195 345
L 195 345
L 195 345
L 195 345
L 195 345
L 195 344
L 196 344
L 196 344
L 196 344
L 196 344
L 196 344
L 196 344
L 196 344
L 196 344
L 197 344
L 197 344
L 197 344
L 197 344
L 197 344
L 197 344
L 197 344
L 197 344
L 197 344
L 197 344
L 197 344
L 197 344
L 199 344
L 199 343
L 203 343
L 204 343
L 204 343
L 204 343
L 204 343
L 204 343
L 204 343
L 204 343
L 205 343
L 206 343
L 206 343
L 206 343
L 206 343
L 206 343
L 206 343
L 206 343
L 207 343
L 207 343
L 207 343
L 207 343
L 208 343
L 208 342
L 208 342
L 208 342
L 209 342
L 215 342
L 216 342
L 216 342
L 216 342
L 216 342
L 217 342
L 219 342
L 219 342
L 222 342
L 223 342
L 223 342
L 225 342
L 228 342
L 228 342
L 230 342
L 231 342
L 231 342
L 232 341
L 232 341
L 232 341
L 232 341
L 232 341
L 233 341
L 233 341
L 233 341
L 233 341
L 235 341
L 239 341
L 239 341
L 239 341
L 240 341
L 240 341
L 240 341
L 242 341
L 243 341
L 246 341
L 246 341
L 251 341
L 253 341
L 254 340
L 254 340
L 254 340
L 256 340
L 256 340
L 263 340
L 263 340
L 264 340
L 264 340
L 264 340
L 266 340
L 266 340
L 267 340
L 268 340
L 270 340
L 271 340
L 275 340
L 280 340
L 281 340
L 286 340
L 288 340
L 288 340
L 289 339
L 289 339
L 290 339
L 290 339
L 292 339
L 292 339
L 293 339
L 293 339
L 293 339
L 295 339
L 297 339
L 299 339
L 301 339
L 302 339
L 302 339
L 302 339
L 303 339
L 303 339
L 304 339
L 305 339
L 305 339
L 306 339
L 306 338
L 311 338
L 311 338
L 311 338
L 312 338
L 314 338
L 316 338
L 316 338
L 316 338
L 318 338
L 322 338
L 323 338
L 323 338
L 323 338
L 323 338
L 324 338
L 326 338
L 327 338
L 328 338
L 329 338
L 335 338
L 336 337
L 337 337
L 337 337
L 338 337
L 339 337
L 339 337
L 340 337
L 340 337
L 342 337
L 342 337
L 347 337
L 347 337
L 348 337
L 349 337
L 349 337
L 349 337
L 349 337
L 350 337
L 352 337
L 358 337
L 358 337
L 359 337
L 359 336
L 360 336
L 361 336
L 362 336
L 362 336
L 362 336
L 364 336
L 364 336
L 364 336
L 365 336
L 365 336
L 366 336
L 370 336
L 371 336
L 371 336
L 371 336
L 371 336
L 371 336
L 371 336
L 372 336
L 372 336
L 372 336
L 373 335
L 373 335
L 373 335
L 373 335
L 373 335
L 373 335
L 373 335
L 373 335
L 373 335
L 373 335
L 373 335
L 373 335
L 373 335
L 373 335
L 373 335
L 373 335
L 374 335
L 374 335
L 374 335
L 374 335
L 374 335
L 374 335
L 374 334
L 374 334
L 374 334
L 374 334
L 374 334
L 374 334
L 374 334
L 374 334
L 374 334
L 374 334
L 374 334
L 374 334
L 374 334
L 374 334
L 374 334
L 374 334
L 375 334
L 375 334
L 375 334
L 375 334
L 375 334
L 375 334
L 375 333
L 375 333
L 375 333
L 375 333
L 375 333
L 375 333
L 375 333
L 375 333
L 376 333
L 376 333
L 376 333
L 376 333
L 376 333
L 376 333
L 376 333
L 376 333
L 376 333
L 376 333
L 376 333
L 377 333
L 377 333
L 377 332
L 377 332
L 377 332
L 377 332
L 378 332
L 378 332
L 378 332
L 378 332
L 382 332
L 382 332
L 383 332
L 383 332
L 383 332
L 383 332
L 383 332
L 383 332
L 383 332
L 383 332
L 383 332
L 383 332
L 383 332
L 383 332
L 383 331
L 383 331
L 383 331
L 383 331
L 384 331
L 384 331
L 384 331
L 384 331
L 384 331
L 384 331
L 384 331
L 384 331
L 385 331
L 385 331
L 385 331
L 385 331
L 385 331
L 385 331
L 385 331
L 385 331
L 385 331
L 385 331
L 385 330
L 385 330
L 385 330
L 385 330
L 385 330
L 386 330
L 386 330
L 386 330
L 386 330
L 386 330
L 386 330
L 386 330
L 386 330
L 386 330
L 386 330
L 386 330
L 386 330
L 386 330
L 386 330
L 386 330
L 386 330
L 386 330
L 386 329
L 386 329
L 386 329
L 386 329
L 386 329
L 386 329
L 386 329
L 387 329
L 387 329
L 387 329
L 387 329
L 387 329
L 387 329
L 387 329
L 387 329
L 387 329
L 388 329
L 388 329
L 388 329
L 388 329
L 388 329
L 388 328
L 388 328
L 388 328
L 388 328
L 388 328
L 388 328
L 388 328
L 388 328
L 388 328
L 388 328
L 388 328
L 388 328
L 388 328
L 389 328
L 389 328
L 389 328
L 389 328
L 389 328
L 389 328
L 389 328
L 389 328
L 389 328
L 389 327
L 389 327
L 389 327
L 389 327
L 389 327
L 389 327
L 389 327
L 389 327
L 389 327
L 389 327
L 389 327
L 390 327
L 390 327
L 390 327
L 390 327
L 390 327
L 390 327
L 390 327
L 390 327
L 390 327
L 390 327
L 390 327
L 390 326
L 391 326
L 391 326
L 392 326
L 393 326
L 394 326
L 394 326
L 394 326
L 394 326
L 394 326
L 394 326
L 394 326
L 394 326
L 394 326
L 394 326
L 394 326
L 394 326
L 395 326
L 395 326
L 395 326
L 395 326
L 395 326
L 395 325
L 395 325
L 395 325
L 395 325
L 395 325
L 395 325
L 395 325
L 395 325
L 395 325
L 395 325
L 395 325
L 395 325
L 395 325
L 395 325
L 396 325
L 396 325
L 396 325
L 396 325
L 396 325
L 396 325
L 396 325
L 396 324
L 396 324
L 396 324
L 396 324
L 396 324
L 396 324
L 396 324
L 396 324
L 396 324
L 396 324
L 396 324
L 397 324
L 397 324
L 397 324
L 397 324
L 397 324
L 397 324
L 397 324
L 397 324
L 397 324
L 397 324
L 397 324
L 397 323
L 397 323
L 397 323
L 397 323
L 397 323
L 397 323
L 397 323
L 397 323
L 397 323
L 397 323
L 397 323
L 397 323
L 398 323
L 398 323
L 398 323
L 398 323
L 398 323
L 398 323
L 398 323
L 398 323
L 398 323
L 398 323
L 398 322
L 398 322
L 398 322
L 398 322
L 398 322
L 398 322
L 398 322
L 399 322
L 399 322
L 399 322
L 399 322
L 399 322
L 399 322
L 399 322
L 399 322
L 399 322
L 399 322
L 399 322
L 399 322
L 399 322
L 399 322
L 399 322
L 399 321
L 399 321
L 399 321
L 399 321
L 400 321
L 400 321
L 400 321
L 400 321
L 400 321
L 400 321
L 400 321
L 400 321
L 400 321
L 400 321
L 400 321
L 400 321
L 400 321
L 400 321
L 400 321
L 400 321
L 400 321
L 400 320
L 400 320
L 401 320
L 401 320
L 401 320
L 401 320
L 401 320
L 401 320
L 401 320
L 401 320
L 401 320
L 401 320
L 401 320
L 401 320
L 401 320
L 401 320
L 401 320
L 401 320
L 401 320
L 401 320
L 401 320
L 401 320
L 401 319
L 401 319
L 401 319
L 401 319
L 401 319
L 402 319
L 402 319
L 402 319
L 402 319
L 402 319
L 402 319
L 402 319
L 402 319
L 402 319
L 402 319
L 402 319
L 403 319
L 403 319
L 403 319
L 403 319
L 403 319
L 404 319
L 405 318
L 405 318
L 405 318
L 406 318
L 406 318
L 406 318
L 406 318
L 406 318
L 406 318
L 406 318
L 406 318
L 406 318
L 406 318
L 406 318
L 406 318
L 406 318
L 406 318
L 406 318
L 406 318
L 406 318
L 406 318
L 406 318
L 406 317
L 406 317
L 406 317
L 406 317
L 406 317
L 406 317
L 406 317
L 406 317
L 406 317
L 406 317
L 406 317
L 406 317
L 406 317
L 406 317
L 406 317
L 406 317
L 406 317
L 406 317
L 406 317
L 406 317
L 406 317
L 406 317
L 406 316
L 406 316
L 406 316
L 406 316
L 406 316
L 406 316
L 406 316
L 406 316
L 406 316
L 406 316
L 406 316
L 406 316
L 406 316
L 406 316
L 406 316
L 406 316
L 406 316
L 406 316
L 406 316
L 406 316
L 406 316
L 406 315
L 406 315
L 406 315
L 406 315
L 406 315
L 407 315
L 407 315
L 407 315
L 407 315
L 407 315
L 407 315
L 407 315
L 407 315
L 407 315
L 407 315
L 407 315
L 407 315
L 407 315
L 407 315
L 407 315
L 407 315
L 407 315
L 407 314
L 407 314
L 407 314
L 407 314
L 407 314
L 407 314
L 407 314
L 407 314
L 407 314
L 407 314
L 407 314
L 407 314
L 407 314
L 407 314
L 407 314
L 407 314
L 407 314
L 407 314
L 407 314
L 407 314
L 407 314
L 407 314
L 407 313
L 407 313
L 407 313
L 407 313
L 407 313
L 407 313
L 407 313
L 407 313
L 407 313
L 407 313
L 407 313
L 407 313
L 407 313
L 407 313
L 407 313
L 407 313
L 407 313
L 407 313
L 407 313
L 407 313
L 407 313
L 407 313
L 407 312
L 407 312
L 407 312
L 407 312
L 407 312
L 407 312
L 408 312
L 408 312
L 408 312
L 408 312
L 408 312
L 408 312
L 408 312
L 408 312
L 408 312
L 408 312
L 408 312
L 408 312
L 408 312
L 408 312
L 408 312
L 408 311
L 408 311
L 408 311
L 408 311
L 408 311
L 408 311
L 408 311
L 408 311
L 408 311
L 408 311
L 408 311
L 408 311
L 408 311
L 408 311
L 408 311
L 408 311
L 408 311
L 408 311
L 408 311
L 408 311
L 408 311
L 408 311
L 408 310
L 408 310
L 408 310
L 408 310
L 408 310
L 408 310
L 408 310
L 408 310
L 408 310
L 409 310
L 409 310
L 409 310
L 409 310
L 409 310
L 409 310
L 409 310
L 409 310
L 409 310
L 409 310
L 409 310
L 409 310
L 409 310
L 409 309
L 409 309
L 409 309
L 409 309
L 409 309
L 409 309
L 409 309
L 409 309
L 409 309
L 409 309
L 409 309
L 409 309
L 409 309
L 409 309
L 409 309
L 409 309
L 409 309
L 409 309
L 409 309
L 409 309
L 409 309
L 409 309
L 409 308
L 409 308
L 409 308
L 409 308
L 409 308
L 409 308
L 409 308
L 409 308
L 409 308
L 409 308
L 409 308
L 409 308
L 409 308
L 409 308
L 409 308
L 409 308
L 409 308
L 409 308
L 409 308
L 409 308
L 409 308
L 409 307
L 409 307
L 409 307
L 409 307
L 409 307
L 409 307
L 409 307
L 409 307
L 409 307
L 409 307
L 409 307
L 409 307
L 409 307
L 409 307
L 409 307
L 409 307
L 409 307
L 409 307
L 409 307
L 410 307
L 410 307
L 410 307
L 410 306
L 410 306
L 410 306
L 410 306
L 410 306
L 410 306
L 410 306
L 410 306
L 410 306
L 410 306
L 410 306
L 410 306
L 410 306
L 410 306
L 410 306
L 410 306
L 410 306
L 410 306
L 410 306
L 410 306
L 410 306
L 410 306
L 410 305
L 410 305
L 410 305
L 410 305
L 410 305
L 410 305
L 410 305
L 410 305
L 410 305
L 410 305
L 410 305
L 410 305
L 410 305
L 410 305
L 410 305
L 410 305
L 410 305
L 410 305
L 410 305
L 410 305
L 410 305
L 410 305
L 410 304
L 410 304
L 410 304
L 410 304
L 410 304
L 410 304
L 410 304
L 411 304
L 411 304
L 411 304
L 411 304
L 411 304
L 411 304
L 411 304
L 411 304
L 411 304
L 411 304
L 411 304
L 411 304
L 411 304
L 411 304
L 411 303
L 411 303
L 411 303
L 411 303
L 411 303
L 411 303
L 411 303
L 411 303
L 411 303
L 411 303
L 411 303
L 411 303
L 411 303
L 411 303
L 411 303
L 411 303
L 411 303
L 411 303
L 411 303
L 411 303
L 411 303
L 412 303
L 412 302
L 412 302
L 412 302
L 412 302
L 412 302
L 412 302
L 412 302
L 412 302
L 412 302
L 412 302
L 412 302
L 412 302
L 412 302
L 412 302
L 412 302
L 412 302
L 412 302
L 412 302
L 412 302
L 413 302
L 413 302
L 413 302
L 413 301
L 413 301
L 413 301
L 413 301
L 413 301
L 413 301
L 413 301
L 413 301
L 413 301
L 413 301
L 413 301
L 413 301
L 413 301
L 413 301
L 413 301
L 413 301
L 413 301
L 413 301
L 413 301
L 413 301
L 413 301
L 413 301
L 413 300
L 414 300
L 414 300
L 414 300
L 414 300
L 414 300
L 414 300
L 414 300
L 414 300
L 414 300
L 414 300
L 416 300
L 417 300
L 417 300
L 417 300
L 417 300
L 418 300
L 418 300
L 418 300
L 418 300
L 418 300
L 418 300
L 418 299
L 418 299
L 418 299
L 418 299
L 418 299
L 418 299
L 418 299
L 418 299
L 418 299
L 418 299
L 418 299
L 418 299
L 418 299
L 418 299
L 418 299
L 418 299
L 418 299
L 418 299
L 418 299
L 418 299
L 418 299
L 418 298
L 418 298
L 418 298
L 418 298
L 418 298
L 418 298
L 418 298
L 418 298
L 418 298
L 418 298
L 418 298
L 418 298
L 418 298
L 418 298
L 418 298
L 418 298
L 418 298
L 418 298
L 418 298
L 418 298
L 418 298
L 418 298
L 418 297
L 418 297
L 418 297
L 418 297
L 418 297
L 418 297
L 418 297
L 418 297
L 418 297
L 418 297
L 418 297
L 418 297
L 418 297
L 418 297
L 418 297
L 418 297
L 418 297
L 418 297
L 419 297
L 419 297
L 419 297
L 419 297
L 419 296
L 419 296
L 419 296
L 419 296
L 419 296
L 419 296
L 419 296
L 419 296
L 419 296
L 419 296
L 419 296
L 419 296
L 419 296
L 419 296
L 419 296
L 419 296
L 419 296
L 419 296
L 419 296
L 419 296
L 419 296
L 419 296
L 419 295
L 419 295
L 419 295
L 419 295
L 419 295
L 419 295
L 419 295
L 419 295
L 419 295
L 419 295
L 419 295
L 419 295
L 419 295
L 419 295
L 419 295
L 419 295
L 419 295
L 419 295
L 419 295
L 419 295
L 419 295
L 419 294
L 419 294
L 419 294
L 419 294
L 419 294
L 419 294
L 419 294
L 419 294
L 419 294
L 419 294
L 419 294
L 419 294
L 419 294
L 419 294
L 419 294
L 419 294
L 419 294
L 419 294
L 419 294
L 419 294
L 419 294
L 419 294
L 419 293
L 419 293
L 419 293
L 419 293
L 420 293
L 420 293
L 420 293
L 420 293
L 420 293
L 420 293
L 420 293
L 420 293
L 420 293
L 420 293
L 420 293
L 420 293
L 420 293
L 420 293
L 420 293
L 420 293
L 420 293
L 420 293
L 420 292
L 420 292
L 420 292
L 420 292
L 420 292
L 420 292
L 420 292
L 420 292
L 420 292
L 420 292
L 420 292
L 420 292
L 420 292
L 420 292
L 420 292
L 420 292
L 420 292
L 420 292
L 420 292
L 420 292
L 420 292
L 420 292
L 420 291
L 420 291
L 420 291
L 421 291
L 421 291
L 421 291
L 421 291
L 421 291
L 421 291
L 421 291
L 421 291
L 421 291
L 421 291
L 421 291
L 421 291
L 421 291
L 421 291
L 421 291
L 421 291
L 421 291
L 421 291
L 421 290
L 421 290
L 421 290
L 421 290
L 421 290
L 421 290
L 421 290
L 421 290
L 421 290
L 421 290
L 421 290
L 421 290
L 421 290
L 421 290
L 421 290
L 421 290
L 421 290
L 421 290
L 421 290
L 421 290
L 421 290
L 421 290
L 421 289
L 421 289
L 421 289
L 421 289
L 421 289
L 421 289
L 421 289
L 421 289
L 421 289
L 421 289
L 421 289
L 421 289
L 421 289
L 422 289
L 422 289
L 422 289
L 422 289
L 422 289
L 422 289
L 422 289
L 422 289
L 422 289
L 422 288
L 422 288
L 422 288
L 422 288
L 422 288
L 422 288
L 422 288
L 422 288
L 422 288
L 422 288
L 422 288
L 422 288
L 422 288
L 422 288
L 422 288
L 422 288
L 422 288
L 422 288
L 422 288
L 422 288
L 422 288
L 422 288
L 422 287
L 422 287
L 422 287
L 422 287
L 422 287
L 422 287
L 422 287
L 422 287
L 422 287
L 422 287
L 422 287
L 422 287
L 422 287
L 422 287
L 422 287
L 422 287
L 422 287
L 422 287
L 422 287
L 422 287
L 422 287
L 422 286
L 423 286
L 423 286
L 423 286
L 423 286
L 423 286
L 423 286
L 423 286
L 423 286
L 423 286
L 423 286
L 423 286
L 423 286
L 423 286
L 423 286
L 423 286
L 423 286
L 423 286
L 423 286
L 423 286
L 423 286
L 423 286
L 423 285
L 423 285
L 423 285
L 423 285
L 423 285
L 423 285
L 423 285
L 423 285
L 423 285
L 423 285
L 423 285
L 423 285
L 423 285
L 423 285
L 423 285
L 423 285
L 423 285
L 423 285
L 423 285
L 423 285
L 423 285
L 423 285
L 423 284
L 423 284
L 423 284
L 423 284
L 423 284
L 423 284
L 423 284
L 423 284
L 423 284
L 423 284
L 423 284
L 423 284
L 423 284
L 423 284
L 423 284
L 423 284
L 423 284
L 423 284
L 424 284
L 424 284
L 424 284
L 424 284
L 424 283
L 424 283
L 424 283
L 424 283
L 424 283
L 424 283
L 424 283
L 424 283
L 424 283
L 424 283
L 424 283
L 424 283
L 424 283
L 424 283
L 424 283
L 424 283
L 424 283
L 424 283
L 424 283
L 424 283
L 424 283
L 424 283
L 424 282
L 424 282
L 424 282
L 424 282
L 424 282
L 424 282
L 424 282
L 424 282
L 424 282
L 424 282
L 424 282
L 424 282
L 424 282
L 424 282
L 424 282
L 424 282
L 424 282
L 425 282
L 425 282
L 425 282
L 425 282
L 425 281
L 425 281
L 425 281
L 425 281
L 425 281
L 425 281
L 425 281
L 425 281
L 425 281
L 425 281
L 425 281
L 425 281
L 425 281
L 425 281
L 425 281
L 425 281
L 425 281
L 425 281
L 425 281
L 425 281
L 425 281
L 426 281
L 426 280
L 426 280
L 426 280
L 426 280
L 426 280
L 426 280
L 426 280
L 426 280
L 426 280
L 426 280
L 426 280
L 427 280
L 427 280
L 427 280
L 427 280
L 428 280
L 429 280
L 429 280
L 429 280
L 430 280
L 430 280
L 430 280
L 430 279
L 430 279
L 430 279
L 430 279
L 430 279
L 430 279
L 430 279
L 430 279
L 430 279
L 430 279
L 430 279
L 430 279
L 430 279
L 430 279
L 430 279
L 430 279
L 430 279
L 430 279
L 430 279
L 430 279
L 430 279
L 430 279
L 430 278
L 430 278
L 430 278
L 430 278
L 430 278
L 430 278
L 430 278
L 430 278
L 430 278
L 430 278
L 430 278
L 430 278
L 430 278
L 430 278
L 430 278
L 430 278
L 430 278
L 430 278
L 430 278
L 430 278
L 430 278
L 430 277
L 430 277
L 430 277
L 430 277
L 430 277
L 430 277
L 430 277
L 430 277
L 430 277
L 430 277
L 430 277
L 430 277
L 430 277
L 430 277
L 430 277
L 430 277
L 430 277
L 430 277
L 430 277
L 430 277
L 430 277
L 430 277
L 430 276
L 430 276
L 430 276
L 430 276
L 430 276
L 430 276
L 430 276
L 431 276
L 431 276
L 431 276
L 431 276
L 431 276
L 431 276
L 431 276
L 431 276
L 431 276
L 431 276
L 431 276
L 431 276
L 431 276
L 431 276
L 431 276
L 431 275
L 431 275
L 431 275
L 431 275
L 431 275
L 431 275
L 431 275
L 431 275
L 431 275
L 431 275
L 431 275
L 431 275
L 431 275
L 431 275
L 431 275
L 431 275
L 431 275
L 431 275
L 431 275
L 431 275
L 431 275
L 431 275
L 431 274
L 431 274
L 431 274
L 431 274
L 431 274
L 431 274
L 431 274
L 431 274
L 431 274
L 431 274
L 431 274
L 431 274
L 431 274
L 431 274
L 432 274
L 432 274
L 432 274
L 432 274
L 432 274
L 432 274
L 432 274
L 432 273
L 432 273
L 432 273
L 432 273
L 432 273
L 432 273
L 432 273
L 432 273
L 432 273
L 432 273
L 432 273
L 432 273
L 432 273
L 432 273
L 432 273
L 432 273
L 432 273
L 432 273
L 432 273
L 432 273
L 432 273
L 432 273
L 432 272
L 432 272
L 432 272
L 432 272
L 432 272
L 433 272
L 433 272
L 433 272
L 433 272
L 433 272
L 433 272
L 433 272
L 433 272
L 433 272
L 433 272
L 433 272
L 433 272
L 433 272
L 433 272
L 433 272
L 433 272
L 433 272
L 433 271
L 433 271
L 433 271
L 433 271
L 433 271
L 433 271
L 433 271
L 433 271
L 433 271
L 433 271
L 433 271
L 433 271
L 433 271
L 433 271
L 433 271
L 433 271
L 433 271
L 433 271
L 433 271
L 433 271
L 433 271
L 433 271
L 433 270
L 433 270
L 433 270
L 433 270
L 433 270
L 433 270
L 433 270
L 433 270
L 433 270
L 433 270
L 433 270
L 434 270
L 434 270
L 434 270
L 434 270
L 434 270
L 434 270
L 434 270
L 434 270
L 434 270
L 434 270
L 434 269
L 434 269
L 434 269
L 434 269
L 434 269
L 434 269
L 434 269
L 434 269
L 434 269
L 434 269
L 434 269
L 434 269
L 434 269
L 434 269
L 434 269
L 434 269
L 434 269
L 434 269
L 434 269
L 434 269
L 434 269
L 434 269
L 434 268
L 434 268
L 434 268
L 434 268
L 434 268
L 434 268
L 434 268
L 434 268
L 434 268
L 434 268
L 434 268
L 434 268
L 434 268
L 434 268
L 434 268
L 434 268
L 434 268
L 434 268
L 434 268
L 434 268
L 434 268
L 434 268
L 434 267
L 434 267
L 434 267
L 434 267
L 435 267
L 435 267
L 435 267
L 435 267
L 435 267
L 435 267
L 435 267
L 435 267
L 435 267
L 435 267
L 435 267
L 435 267
L 435 267
L 435 267
L 435 267
L 435 267
L 435 267
L 435 267
L 435 266
L 435 266
L 435 266
L 435 266
L 435 266
L 435 266
L 435 266
L 436 266
L 436 266
L 436 266
L 436 266
L 436 266
L 436 266
L 436 266
L 436 266
L 436 266
L 436 266
L 436 266
L 436 266
L 436 266
L 436 266
L 436 266
L 436 265
L 436 265
L 436 265
L 436 265
L 436 265
L 436 265
L 436 265
L 436 265
L 436 265
L 436 265
L 436 265
L 437 265
L 437 265
L 437 265
L 437 265
L 437 265
L 437 265
L 437 265
L 437 265
L 437 265
L 437 265
L 437 264
L 437 264
L 437 264
L 437 264
L 437 264
L 437 264
L 437 264
L 437 264
L 437 264
L 437 264
L 437 264
L 437 264
L 438 264
L 438 264
L 438 264
L 438 264
L 438 264
L 439 264
L 441 264
L 441 264
L 441 264
L 441 264
L 441 263
L 441 263
L 441 263
L 442 263
L 442 263
L 442 263
L 442 263
L 442 263
L 442 263
L 442 263
L 442 263
L 442 263
L 442 263
L 442 263
L 442 263
L 442 263
L 442 263
L 442 263
L 442 263
L 442 263
L 442 263
L 442 263
L 442 262
L 442 262
L 442 262
L 442 262
L 442 262
L 442 262
L 442 262
L 442 262
L 442 262
L 442 262
L 442 262
L 442 262
L 442 262
L 442 262
L 442 262
L 442 262
L 442 262
L 442 262
L 442 262
L 442 262
L 442 262
L 442 262
L 442 261
L 442 261
L 442 261
L 442 261
L 442 261
L 442 261
L 442 261
L 443 261
L 443 261
L 443 261
L 443 261
L 443 261
L 443 261
L 443 261
L 443 261
L 443 261
L 443 261
L 443 261
L 443 261
L 443 261
L 443 261
L 443 260
L 443 260
L 443 260
L 443 260
L 443 260
L 443 260
L 443 260
L 443 260
L 443 260
L 443 260
L 443 260
L 443 260
L 443 260
L 443 260
L 443 260
L 443 260
L 443 260
L 443 260
L 443 260
L 443 260
L 443 260
L 443 260
L 443 259
L 443 259
L 443 259
L 444 259
L 444 259
L 444 259
L 444 259
L 444 259
L 444 259
L 444 259
L 444 259
L 444 259
L 444 259
L 444 259
L 444 259
L 444 259
L 444 259
L 444 259
L 444 259
L 444 259
L 444 259
L 444 259
L 444 258
L 444 258
L 445 258
L 445 258
L 445 258
L 445 258
L 445 258
L 445 258
L 445 258
L 445 258
L 445 258
L 445 258
L 445 258
L 445 258
L 445 258
L 445 258
L 445 258
L 445 258
L 445 258
L 445 258
L 445 258
L 445 258
L 445 257
L 445 257
L 445 257
L 445 257
L 445 257
L 445 257
L 445 257
L 445 257
L 445 257
L 445 257
L 445 257
L 445 257
L 445 257
L 445 257
L 445 257
L 445 257
L 445 257
L 445 257
L 446 257
L 446 257
L 446 257
L 446 256
L 446 256
L 446 256
L 446 256
L 446 256
L 446 256
L 446 256
L 446 256
L 446 256
L 446 256
L 446 256
L 446 256
L 446 256
L 446 256
L 446 256
L 446 256
L 446 256
L 446 256
L 446 256
L 446 256
L 446 256
L 446 256
L 446 255
L 446 255
L 446 255
L 446 255
L 446 255
L 446 255
L 446 255
L 446 255
L 446 255
L 446 255
L 446 255
L 446 255
L 447 255
L 447 255
L 447 255
L 447 255
L 447 255
L 447 255
L 447 255
L 447 255
L 447 255
L 447 255
L 447 254
L 447 254
L 447 254
L 447 254
L 447 254
L 447 254
L 447 254
L 447 254
L 447 254
L 447 254
L 448 254
L 448 254
L 448 254
L 448 254
L 448 254
L 448 254
L 448 254
L 448 254
L 448 254
L 448 254
L 448 254
L 448 254
L 448 253
L 448 253
L 448 253
L 448 253
L 449 253
L 449 253
L 449 253
L 449 253
L 449 253
L 449 253
L 449 253
L 449 253
L 449 253
L 449 253
L 449 253
L 449 253
L 449 253
L 450 253
L 450 253
L 450 253
L 450 253
L 450 252
L 451 252
L 451 252
L 453 252
L 453 252
L 454 252
L 454 252
L 454 252
L 454 252
L 454 252
L 454 252
L 454 252
L 454 252
L 454 252
L 454 252
L 454 252
L 454 252
L 454 252
L 454 252
L 454 252
L 454 252
L 454 252
L 454 251
L 454 251
L 454 251
L 454 251
L 454 251
L 454 251
L 454 251
L 454 251
L 454 251
L 454 251
L 454 251
L 454 251
L 454 251
L 454 251
L 454 251
L 454 251
L 454 251
L 454 251
L 454 251
L 454 251
L 454 251
L 454 251
L 454 250
L 454 250
L 454 250
L 454 250
L 454 250
L 454 250
L 454 250
L 454 250
L 454 250
L 454 250
L 455 250
L 455 250
L 455 250
L 455 250
L 455 250
L 455 250
L 455 250
L 455 250
L 455 250
L 455 250
L 455 250
L 455 250
L 455 249
L 455 249
L 455 249
L 455 249
L 455 249
L 455 249
L 455 249
L 455 249
L 455 249
L 455 249
L 455 249
L 455 249
L 455 249
L 455 249
L 455 249
L 455 249
L 455 249
L 455 249
L 455 249
L 455 249
L 455 249
L 455 249
L 455 248
L 456 248
L 456 248
L 456 248
L 456 248
L 456 248
L 456 248
L 456 248
L 456 248
L 456 248
L 456 248
L 456 248
L 456 248
L 456 248
L 456 248
L 456 248
L 456 248
L 456 248
L 456 248
L 456 248
L 456 248
L 456 247
L 456 247
L 456 247
L 456 247
L 456 247
L 456 247
L 456 247
L 456 247
L 456 247
L 456 247
L 456 247
L 456 247
L 456 247
L 456 247
L 456 247
L 456 247
L 456 247
L 456 247
L 457 247
L 457 247
L 457 247
L 457 247
L 457 246
L 457 246
L 457 246
L 457 246
L 457 246
L 457 246
L 457 246
L 457 246
L 457 246
L 457 246
L 457 246
L 457 246
L 457 246
L 457 246
L 457 246
L 457 246
L 457 246
L 457 246
L 457 246
L 457 246
L 457 246
L 457 246
L 457 245
L 457 245
L 457 245
L 457 245
L 457 245
L 457 245
L 457 245
L 457 245
L 457 245
L 457 245
L 457 245
L 457 245
L 457 245
L 457 245
L 457 245
L 457 245
L 457 245
L 457 245
L 457 245
L 457 245
L 457 245
L 457 245
L 457 244
L 458 244
L 458 244
L 458 244
L 458 244
L 458 244
L 458 244
L 458 244
L 458 244
L 458 244
L 458 244
L 458 244
L 458 244
L 458 244
L 458 244
L 458 244
L 458 244
L 458 244
L 458 244
L 458 244
L 458 244
L 458 243
L 458 243
L 458 243
L 458 243
L 458 243
L 458 243
L 458 243
L 458 243
L 458 243
L 458 243
L 458 243
L 458 243
L 458 243
L 458 243
L 458 243
L 458 243
L 458 243
L 458 243
L 458 243
L 458 243
L 458 243
L 459 243
L 459 242
L 459 242
L 459 242
L 459 242
L 459 242
L 459 242
L 459 242
L 459 242
L 459 242
L 459 242
L 459 242
L 459 242
L 459 242
L 459 242
L 459 242
L 459 242
L 459 242
L 459 242
L 459 242
L 460 242
L 460 242
L 460 242
L 460 241
L 460 241
L 460 241
L 460 241
L 460 241
L 460 241
L 460 241
L 460 241
L 460 241
L 460 241
L 460 241
L 460 241
L 460 241
L 461 241
L 461 241
L 461 241
L 461 241
L 461 241
L 461 241
L 461 241
L 461 241
L 461 241
L 461 240
L 461 240
L 461 240
L 461 240
L 461 240
L 461 240
L 461 240
L 461 240
L 461 240
L 462 240
L 462 240
L 463 240
L 463 240
L 463 240
L 464 240
L 465 240
L 465 240
L 465 240
L 465 240
L 465 240
L 465 240
L 466 239
L 466 239
L 466 239
L 466 239
L 466 239
L 466 239
L 466 239
L 466 239
L 466 239
L 466 239
L 466 239
L 466 239
L 466 239
L 466 239
L 466 239
L 466 239
L 466 239
L 466 239
L 466 239
L 466 239
L 466 239
L 466 239
L 466 238
L 466 238
L 466 238
L 466 238
L 466 238
L 466 238
L 466 238
L 466 238
L 466 238
L 466 238
L 466 238
L 466 238
L 466 238
L 466 238
L 466 238
L 466 238
L 466 238
L 466 238
L 466 238
L 466 238
L 466 238
L 466 238
L 466 237
L 466 237
L 466 237
L 466 237
L 466 237
L 466 237
L 466 237
L 466 237
L 467 237
L 467 237
L 467 237
L 467 237
L 467 237
L 467 237
L 467 237
L 467 237
L 467 237
L 467 237
L 467 237
L 467 237
L 467 237
L 467 237
L 467 236
L 467 236
L 467 236
L 467 236
L 467 236
L 467 236
L 467 236
L 467 236
L 467 236
L 467 236
L 467 236
L 467 236
L 467 236
L 467 236
L 467 236
L 467 236
L 467 236
L 467 236
L 467 236
L 467 236
L 467 236
L 467 235
L 467 235
L 467 235
L 467 235
L 467 235
L 467 235
L 467 235
L 467 235
L 467 235
L 467 235
L 467 235
L 467 235
L 467 235
L 468 235
L 468 235
L 468 235
L 468 235
L 468 235
L 468 235
L 468 235
L 468 235
L 468 235
L 468 234
L 468 234
L 468 234
L 468 234
L 468 234
L 468 234
L 468 234
L 468 234
L 468 234
L 468 234
L 468 234
L 468 234
L 468 234
L 468 234
L 468 234
L 468 234
L 468 234
L 468 234
L 468 234
L 468 234
L 468 234
L 468 234
L 468 233
L 468 233
L 468 233
L 468 233
L 468 233
L 468 233
L 468 233
L 468 233
L 468 233
L 468 233
L 468 233
L 469 233
L 469 233
L 469 233
L 469 233
L 469 233
L 469 233
L 469 233
L 469 233
L 469 233
L 469 233
L 469 233
L 469 232
L 469 232
L 469 232
L 469 232
L 469 232
L 469 232
L 469 232
L 469 232
L 469 232
L 469 232
L 469 232
L 469 232
L 469 232
L 469 232
L 469 232
L 469 232
L 469 232
L 469 232
L 469 232
L 469 232
L 469 232
L 469 232
L 469 231
L 469 231
L 469 231
L 469 231
L 469 231
L 469 231
L 469 231
L 469 231
L 469 231
L 469 231
L 469 231
L 469 231
L 469 231
L 469 231
L 469 231
L 469 231
L 469 231
L 469 231
L 469 231
L 469 231
L 469 231
L 469 230
L 469 230
L 469 230
L 469 230
L 469 230
L 469 230
L 470 230
L 470 230
L 470 230
L 470 230
L 470 230
L 470 230
L 470 230
L 470 230
L 470 230
L 470 230
L 470 230
L 470 230
L 470 230
L 470 230
L 470 230
L 470 230
L 470 229
L 470 229
L 470 229
L 470 229
L 470 229
L 470 229
L 470 229
L 471 229
L 471 229
L 471 229
L 471 229
L 471 229
L 471 229
L 471 229
L 471 229
L 471 229
L 471 229
L 471 229
L 471 229
L 471 229
L 471 229
L 471 229
L 472 228
L 472 228
L 472 228
L 472 228
L 472 228
L 472 228
L 472 228
L 472 228
L 472 228
L 472 228
L 472 228
L 472 228
L 472 228
L 472 228
L 472 228
L 473 228
L 473 228
L 473 228
L 473 228
L 473 228
L 473 228
L 473 228
L 473 227
L 473 227
L 473 227
L 473 227
L 473 227
L 474 227
L 474 227
L 474 227
L 474 227
L 476 227
L 476 227
L 476 227
L 477 227
L 477 227
L 477 227
L 478 227
L 478 227
L 478 227
L 478 227
L 478 227
L 478 227
L 478 226
L 478 226
L 478 226
L 478 226
L 478 226
L 478 226
L 479 226
L 479 226
L 479 226
L 479 226
L 479 226
L 479 226
L 479 226
L 479 226
L 479 226
L 479 226
L 479 226
L 479 226
L 479 226
L 480 226
L 480 226
L 480 226
L 480 225
L 480 225
L 480 225
L 480 225
L 480 225
L 480 225
L 480 225
L 481 225
L 481 225
L 481 225
L 481 225
L 481 225
L 481 225
L 481 225
L 481 225
L 482 225
L 482 225
L 482 225
L 482 225
L 482 225
L 482 225
L 482 225
L 483 224
L 483 224
L 483 224
L 483 224
L 483 224
L 483 224
L 483 224
L 483 224
L 483 224
L 484 224
L 484 224
L 484 224
L 484 224
L 484 224
L 484 224
L 484 224
L 484 224
L 484 224
L 485 224
L 485 224
L 485 224
L 485 224
L 485 223
L 485 223
L 485 223
L 485 223
L 485 223
L 486 223
L 487 223
L 487 223
L 487 223
L 487 223
L 488 223
L 488 223
L 488 223
L 489 223
L 489 223
L 489 223
L 490 223
L 490 223
L 490 223
L 490 223
L 490 223
L 490 222
L 490 222
L 490 222
L 490 222
L 491 222
L 491 222
L 491 222
L 491 222
L 491 222
L 491 222
L 491 222
L 491 222
L 491 222
L 492 222
L 492 222
L 492 222
L 492 222
L 492 222
L 492 222
L 492 222
L 493 222
L 493 222
L 493 221
L 493 221
L 493 221
L 493 221
L 494 221
L 494 221
L 494 221
L 494 221
L 494 221
L 494 221
L 494 221
L 494 221
L 495 221
L 495 221
L 495 221
L 495 221
L 495 221
L 495 221
L 496 221
L 496 221
L 496 221
L 496 221
L 496 220
L 496 220
L 496 220
L 496 220
L 496 220
L 497 220
L 497 220
L 497 220
L 497 220
L 497 220
L 497 220
L 497 220
L 498 220
L 498 220
L 498 220
L 498 220
L 498 220
L 498 220
L 500 220
L 500 220
L 501 220
L 501 220
L 501 219
L 502 219
L 502 219
L 502 219
L 502 219
L 502 219
L 502 219
L 502 219
L 502 219
L 503 219
L 503 219
L 503 219
L 503 219
L 503 219
L 503 219
L 504 219
L 504 219
L 504 219
L 504 219
L 504 219
L 504 219
L 504 218
L 504 218
L 504 218
L 504 218
L 504 218
L 504 218
L 504 218
L 505 218
L 505 218
L 505 218
L 505 218
L 505 218
L 505 218
L 505 218
L 506 218
L 506 218
L 506 218
L 506 218
L 506 218
L 506 218
L 506 218
L 506 218
L 506 217
L 506 217
L 506 217
L 506 217
L 506 217
L 507 217
L 507 217
L 507 217
L 507 217
L 507 217
L 507 217
L 507 217
L 507 217
L 507 217
L 507 217
L 507 217
L 507 217
L 508 217
L 508 217
L 508 217
L 508 217
L 508 217
L 508 216
L 508 216
L 508 216
L 508 216
L 508 216
L 508 216
L 508 216
L 509 216
L 509 216
L 509 216
L 509 216
L 509 216
L 509 216
L 510 216
L 510 216
L 510 216
L 513 216
L 513 216
L 513 216
L 513 216
L 513 216
L 513 216
L 513 215
L 513 215
L 513 215
L 513 215
L 514 215
L 514 215
L 514 215
L 514 215
L 514 215
L 514 215
L 514 215
L 514 215
L 514 215
L 514 215
L 514 215
L 514 215
L 514 215
L 514 215
L 514 215
L 514 215
L 514 215
L 514 215
L 514 214
L 514 214
L 514 214
L 514 214
L 514 214
L 514 214
L 514 214
L 514 214
L 514 214
L 514 214
L 514 214
L 514 214
L 514 214
L 514 214
L 514 214
L 514 214
L 514 214
L 514 214
L 514 214
L 514 214
L 514 214
L 514 213
L 514 213
L 514 213
L 514 213
L 514 213
L 514 213
L 514 213
L 514 213
L 514 213
L 515 213
L 515 213
L 515 213
L 515 213
L 515 213
L 515 213
L 515 213
L 515 213
L 515 213
L 515 213
L 515 213
L 515 213
L 515 213
L 515 212
L 515 212
L 515 212
L 515 212
L 515 212
L 515 212
L 515 212
L 515 212
L 515 212
L 516 212
L 516 212
L 516 212
L 516 212
L 516 212
L 516 212
L 516 212
L 516 212
L 516 212
L 516 212
L 516 212
L 516 212
L 516 212
L 516 211
L 516 211
L 516 211
L 516 211
L 516 211
L 516 211
L 516 211
L 516 211
L 516 211
L 516 211
L 516 211
L 516 211
L 516 211
L 516 211
L 516 211
L 516 211
L 516 211
L 516 211
L 516 211
L 517 211
L 517 211
L 517 211
L 517 210
L 517 210
L 517 210
L 517 210
L 517 210
L 517 210
L 517 210
L 517 210
L 517 210
L 517 210
L 517 210
L 517 210
L 517 210
L 517 210
L 517 210
L 517 210
L 517 210
L 517 210
L 517 210
L 517 210
L 517 210
L 517 209
L 517 209
L 517 209
L 517 209
L 517 209
L 517 209
L 517 209
L 517 209
L 517 209
L 517 209
L 517 209
L 518 209
L 518 209
L 518 209
L 518 209
L 518 209
L 518 209
L 518 209
L 518 209
L 518 209
L 518 209
L 518 209
L 518 208
L 518 208
L 518 208
L 518 208
L 518 208
L 519 208
L 519 208
L 519 208
L 519 208
L 519 208
L 519 208
L 519 208
L 519 208
L 519 208
L 519 208
L 519 208
L 519 208
L 519 208
L 519 208
L 519 208
L 519 208
L 519 208
L 519 207
L 519 207
L 520 207
L 520 207
L 520 207
L 520 207
L 520 207
L 520 207
L 520 207
L 520 207
L 520 207
L 520 207
L 520 207
L 520 207
L 520 207
L 520 207
L 520 207
L 520 207
L 520 207
L 520 207
L 520 207
L 520 207
L 520 206
L 520 206
L 520 206
L 520 206
L 520 206
L 521 206
L 521 206
L 521 206
L 521 206
L 521 206
L 521 206
L 521 206
L 521 206
L 521 206
L 522 206
L 522 206
L 522 206
L 522 206
L 523 206
L 524 206
L 524 206
L 524 205
L 525 205
L 525 205
L 525 205
L 525 205
L 525 205
L 525 205
L 525 205
L 525 205
L 525 205
L 525 205
L 525 205
L 525 205
L 525 205
L 525 205
L 525 205
L 525 205
L 525 205
L 525 205
L 525 205
L 525 205
L 525 205
L 525 204
L 525 204
L 525 204
L 525 204
L 525 204
L 526 204
L 526 204
L 526 204
L 526 204
L 526 204
L 526 204
L 526 204
L 526 204
L 526 204
L 526 204
L 526 204
L 526 204
L 526 204
L 526 204
L 526 204
L 526 204
L 526 204
L 526 203
L 526 203
L 526 203
L 526 203
L 526 203
L 526 203
L 526 203
L 526 203
L 526 203
L 526 203
L 526 203
L 526 203
L 526 203
L 526 203
L 526 203
L 526 203
L 526 203
L 526 203
L 526 203
L 526 203
L 526 203
L 526 203
L 526 202
L 526 202
L 526 202
L 527 202
L 527 202
L 527 202
L 527 202
L 527 202
L 527 202
L 527 202
L 527 202
L 527 202
L 527 202
L 527 202
L 527 202
L 527 202
L 527 202
L 527 202
L 527 202
L 528 202
L 528 202
L 528 201
L 528 201
L 528 201
L 528 201
L 528 201
L 528 201
L 528 201
L 528 201
L 528 201
L 528 201
L 528 201
L 528 201
L 528 201
L 528 201
L 528 201
L 528 201
L 528 201
L 528 201
L 528 201
L 528 201
L 528 201
L 528 201
L 528 200
L 528 200
L 528 200
L 528 200
L 528 200
L 528 200
L 528 200
L 528 200
L 528 200
L 529 200
L 529 200
L 529 200
L 529 200
L 529 200
L 529 200
L 529 200
L 529 200
L 529 200
L 529 200
L 529 200
L 529 200
L 529 200
L 529 199
L 529 199
L 529 199
L 529 199
L 529 199
L 529 199
L 529 199
L 529 199
L 529 199
L 529 199
L 529 199
L 529 199
L 529 199
L 529 199
L 529 199
L 529 199
L 529 199
L 529 199
L 529 199
L 529 199
L 529 199
L 529 199
L 529 198
L 529 198
L 529 198
L 529 198
L 529 198
L 529 198
L 529 198
L 529 198
L 529 198
L 529 198
L 529 198
L 529 198
L 529 198
L 529 198
L 529 198
L 530 198
L 530 198
L 530 198
L 530 198
L 530 198
L 530 198
L 530 198
L 530 197
L 530 197
L 530 197
L 530 197
L 530 197
L 530 197
L 530 197
L 530 197
L 530 197
L 530 197
L 530 197
L 530 197
L 530 197
L 530 197
L 530 197
L 530 197
L 530 197
L 530 197
L 530 197
L 530 197
L 530 197
L 530 196
L 530 196
L 530 196
L 530 196
L 530 196
L 530 196
L 530 196
L 530 196
L 530 196
L 531 196
L 531 196
L 531 196
L 531 196
L 531 196
L 531 196
L 531 196
L 531 196
L 531 196
L 531 196
L 531 196
L 531 196
L 531 196
L 531 195
L 531 195
L 531 195
L 531 195
L 531 195
L 531 195
L 531 195
L 531 195
L 531 195
L 532 195
L 532 195
L 532 195
L 532 195
L 532 195
L 532 195
L 532 195
L 532 195
L 532 195
L 532 195
L 532 195
L 532 195
L 532 195
L 532 194
L 532 194
L 532 194
L 532 194
L 532 194
L 532 194
L 532 194
L 532 194
L 532 194
L 532 194
L 533 194
L 533 194
L 533 194
L 533 194
L 533 194
L 533 194
L 533 194
L 533 194
L 533 194
L 533 194
L 533 194
L 534 194
L 534 193
L 534 193
L 535 193
L 535 193
L 536 193
L 537 193
L 537 193
L 537 193
L 537 193
L 537 193
L 537 193
L 537 193
L 537 193
L 537 193
L 537 193
L 537 193
L 537 193
L 537 193
L 537 193
L 537 193
L 537 193
L 537 192
L 537 192
L 537 192
L 537 192
L 537 192
L 537 192
L 538 192
L 538 192
L 538 192
L 538 192
L 538 192
L 538 192
L 538 192
L 538 192
L 538 192
L 538 192
L 538 192
L 538 192
L 538 192
L 538 192
L 538 192
L 538 192
L 538 191
L 538 191
L 538 191
L 538 191
L 538 191
L 538 191
L 538 191
L 538 191
L 538 191
L 538 191
L 538 191
L 538 191
L 538 191
L 538 191
L 538 191
L 538 191
L 538 191
L 538 191
L 539 191
L 539 191
L 539 191
L 539 191
L 539 190
L 539 190
L 539 190
L 539 190
L 539 190
L 539 190
L 539 190
L 539 190
L 539 190
L 539 190
L 539 190
L 539 190
L 539 190
L 539 190
L 539 190
L 540 190
L 540 190
L 540 190
L 540 190
L 540 190
L 540 190
L 540 190
L 540 189
L 540 189
L 540 189
L 540 189
L 540 189
L 540 189
L 540 189
L 540 189
L 540 189
L 540 189
L 540 189
L 540 189
L 540 189
L 540 189
L 540 189
L 540 189
L 540 189
L 540 189
L 541 189
L 541 189
L 541 189
L 541 188
L 541 188
L 541 188
L 541 188
L 541 188
L 541 188
L 541 188
L 541 188
L 541 188
L 541 188
L 541 188
L 541 188
L 541 188
L 541 188
L 541 188
L 541 188
L 541 188
L 541 188
L 541 188
L 541 188
L 541 188
L 541 188
L 541 187
L 541 187
L 541 187
L 541 187
L 541 187
L 541 187
L 541 187
L 541 187
L 541 187
L 541 187
L 541 187
L 541 187
L 542 187
L 542 187
L 542 187
L 542 187
L 542 187
L 542 187
L 542 187
L 542 187
L 542 187
L 542 187
L 542 186
L 542 186
L 542 186
L 542 186
L 542 186
L 542 186
L 542 186
L 542 186
L 542 186
L 543 186
L 543 186
L 543 186
L 543 186
L 543 186
L 543 186
L 543 186
L 543 186
L 543 186
L 543 186
L 543 186
L 543 186
L 543 186
L 543 185
L 543 185
L 543 185
L 544 185
L 544 185
L 544 185
L 544 185
L 544 185
L 544 185
L 544 185
L 544 185
L 544 185
L 544 185
L 544 185
L 544 185
L 544 185
L 544 185
L 544 185
L 545 185
L 545 185
L 545 185
L 546 184
L 546 184
L 546 184
L 546 184
L 547 184
L 547 184
L 547 184
L 547 184
L 548 184
L 549 184
L 549 184
L 549 184
L 549 184
L 549 184
L 549 184
L 549 184
L 549 184
L 549 184
L 549 184
L 549 184
L 549 184
L 549 184
L 549 183
L 550 183
L 550 183
L 550 183
L 550 183
L 550 183
L 550 183
L 550 183
L 550 183
L 550 183
L 550 183
L 550 183
L 550 183
L 550 183
L 550 183
L 550 183
L 550 183
L 550 183
L 550 183
L 550 183
L 550 183
L 550 183
L 551 182
L 551 182
L 551 182
L 551 182
L 551 182
L 551 182
L 551 182
L 551 182
L 551 182
L 551 182
L 552 182
L 552 182
L 552 182
L 552 182
L 552 182
L 552 182
L 552 182
L 552 182
L 552 182
L 552 182
L 552 182
L 552 182
L 552 181
L 553 181
L 553 181
L 553 181
L 553 181
L 553 181
L 553 181
L 553 181
L 553 181
L 553 181
L 553 181
L 554 181
L 554 181
L 554 181
L 554 181
L 554 181
L 554 181
L 554 181
L 554 181
L 554 181
L 555 181
L 555 181
L 555 180
L 555 180
L 555 180
L 555 180
L 555 180
L 555 180
L 555 180
L 555 180
L 555 180
L 555 180
L 555 180
L 555 180
L 556 180
L 556 180
L 556 180
L 556 180
L 556 180
L 556 180
L 556 180
L 556 180
L 557 180
L 557 179
L 557 179
L 557 179
L 557 179
L 557 179
L 557 179
L 561 179
L 561 179
L 562 179
L 562 179
L 562 179
L 562 179
L 562 179
L 562 179
L 563 179
L 563 179
L 563 179
L 563 179
L 563 179
L 563 179
L 563 179
L 563 179
L 563 178
L 563 178
L 563 178
L 563 178
L 564 178
L 564 178
L 564 178
L 564 178
L 564 178
L 564 178
L 564 178
L 564 178
L 564 178
L 565 178
L 565 178
L 565 178
L 565 178
L 565 178
L 565 178
L 565 178
L 565 178
L 565 178
L 565 177
L 565 177
L 566 177
L 566 177
L 566 177
L 566 177
L 566 177
L 566 177
L 566 177
L 566 177
L 566 177
L 566 177
L 566 177
L 567 177
L 567 177
L 567 177
L 567 177
L 567 177
L 567 177
L 567 177
L 568 177
L 568 177
L 568 176
L 568 176
L 568 176
L 568 176
L 568 176
L 568 176
L 568 176
L 568 176
L 568 176
L 568 176
L 568 176
L 568 176
L 568 176
L 568 176
L 568 176
L 568 176
L 569 176
L 569 176
L 569 176
L 569 176
L 569 176
L 569 175
L 569 175
L 569 175
L 570 175
L 570 175
L 571 175
L 571 175
L 571 175
L 572 175
L 572 175
L 572 175
L 573 175
L 573 175
L 573 175
L 573 175
L 573 175
L 573 175
L 573 175
L 573 175
L 573 175
L 573 175
L 573 175
L 573 174
L 573 174
L 573 174
L 573 174
L 573 174
L 573 174
L 573 174
L 573 174
L 573 174
L 573 174
L 573 174
L 573 174
L 573 174
L 573 174
L 574 174
L 574 174
L 574 174
L 574 174
L 574 174
L 574 174
L 574 174
L 574 174
L 574 173
L 574 173
L 574 173
L 574 173
L 574 173
L 574 173
L 574 173
L 574 173
L 574 173
L 574 173
L 574 173
L 574 173
L 574 173
L 574 173
L 574 173
L 574 173
L 574 173
L 574 173
L 574 173
L 574 173
L 574 173
L 575 173
L 575 172
L 575 172
L 575 172
L 575 172
L 575 172
L 575 172
L 575 172
L 575 172
L 575 172
L 575 172
L 575 172
L 575 172
L 576 172
L 576 172
L 576 172
L 576 172
L 576 172
L 576 172
L 576 172
L 576 172
L 576 172
L 576 171
L 576 171
L 576 171
L 576 171
L 576 171
L 576 171
L 576 171
L 576 171
L 576 171
L 576 171
L 576 171
L 577 171
L 577 171
L 577 171
L 577 171
L 577 171
L 577 171
L 577 171
L 577 171
L 577 171
L 577 171
L 577 171
L 577 170
L 577 170
L 577 170
L 577 170
L 577 170
L 577 170
L 577 170
L 577 170
L 577 170
L 578 170
L 578 170
L 578 170
L 578 170
L 578 170
L 578 170
L 578 170
L 578 170
L 578 170
L 579 170
L 579 170
L 579 170
L 579 170
L 579 169
L 579 169
L 579 169
L 579 169
L 579 169
L 579 169
L 579 169
L 579 169
L 579 169
L 579 169
L 580 169
L 580 169
L 580 169
L 580 169
L 580 169
L 580 169
L 580 169
L 580 169
L 580 169
L 580 169
L 581 169
L 581 169
L 583 168
L 584 168
L 584 168
L 585 168
L 585 168
L 585 168
L 585 168
L 585 168
L 585 168
L 585 168
L 585 168
L 585 168
L 585 168
L 585 168
L 585 168
L 585 168
L 585 168
L 585 168
L 585 168
L 586 168
L 586 168
L 586 167
L 586 167
L 586 167
L 586 167
L 586 167
L 586 167
L 586 167
L 586 167
L 586 167
L 586 167
L 586 167
L 586 167
L 586 167
L 586 167
L 586 167
L 586 167
L 586 167
L 586 167
L 586 167
L 587 167
L 587 167
L 587 167
L 587 166
L 587 166
L 587 166
L 587 166
L 587 166
L 587 166
L 587 166
L 587 166
L 587 166
L 587 166
L 587 166
L 587 166
L 588 166
L 588 166
L 588 166
L 588 166
L 588 166
L 588 166
L 588 166
L 588 166
L 588 166
L 588 166
L 588 165
L 588 165
L 588 165
L 588 165
L 588 165
L 588 165
L 588 165
L 589 165
L 589 165
L 589 165
L 589 165
L 589 165
L 589 165
L 589 165
L 589 165
L 589 165
L 589 165
L 589 165
L 589 165
L 589 165
L 589 165
L 589 165
L 589 164
L 589 164
L 589 164
L 589 164
L 589 164
L 589 164
L 589 164
L 589 164
L 589 164
L 589 164
L 589 164
L 589 164
L 589 164
L 589 164
L 589 164
L 589 164
L 590 164
L 590 164
L 590 164
L 590 164
L 590 164
L 590 163
L 590 163
L 590 163
L 590 163
L 590 163
L 590 163
L 590 163
L 591 163
L 591 163
L 591 163
L 591 163
L 591 163
L 591 163
L 591 163
L 591 163
L 591 163
L 591 163
L 591 163
L 591 163
L 591 163
L 591 163
L 591 163
L 591 162
L 591 162
L 591 162
L 591 162
L 591 162
L 592 162
L 592 162
L 592 162
L 592 162
L 592 162
L 592 162
L 592 162
L 592 162
L 592 162
L 592 162
L 592 162
L 592 162
L 592 162
L 593 162
L 593 162
L 593 162
L 595 162
L 597 161
L 597 161
L 597 161
L 597 161
L 597 161
L 597 161
L 597 161
L 597 161
L 597 161
L 597 161
L 597 161
L 597 161
L 597 161
L 597 161
L 597 161
L 597 161
L 597 161
L 597 161
L 597 161
L 597 161
L 597 161
L 597 161
L 597 160
L 597 160
L 597 160
L 597 160
L 597 160
L 598 160
L 598 160
L 598 160
L 598 160
L 598 160
L 598 160
L 598 160
L 598 160
L 598 160
L 598 160
L 598 160
L 598 160
L 598 160
L 598 160
L 598 160
L 598 160
L 598 160
L 598 159
L 598 159
L 598 159
L 598 159
L 598 159
L 598 159
L 598 159
L 599 159
L 599 159
L 599 159
L 599 159
L 599 159
L 599 159
L 599 159
L 599 159
L 599 159
L 599 159
L 599 159
L 599 159
L 599 159
L 599 159
L 599 158
L 599 158
L 599 158
L 599 158
L 599 158
L 600 158
L 600 158
L 600 158
L 600 158
L 600 158
L 600 158
L 600 158
L 600 158
L 600 158
L 600 158
L 600 158
L 600 158
L 600 158
L 600 158
L 600 158
L 600 158
L 600 158
L 600 157
L 600 157
L 600 157
L 600 157
L 600 157
L 600 157
L 601 157
L 601 157
L 601 157
L 601 157
L 601 157
L 601 157
L 601 157
L 601 157
L 601 157
L 601 157
L 601 157
L 601 157
L 601 157
L 601 157
L 601 157
L 602 157
L 602 156
L 602 156
L 602 156
L 602 156
L 602 156
L 602 156
L 602 156
L 602 156
L 603 156
L 603 156
L 603 156
L 603 156
L 603 156
L 603 156
L 603 156
L 603 156
L 603 156
L 603 156
L 603 156
L 603 156
L 603 156
L 603 156
L 604 155
L 604 155
L 604 155
L 604 155
L 604 155
L 604 155
L 604 155
L 604 155
L 604 155
L 604 155
L 604 155
L 604 155
L 604 155
L 605 155
L 605 155
L 605 155
L 606 155
L 607 155
L 608 155
L 608 155
L 608 155
L 608 154
L 608 154
L 608 154
L 608 154
L 608 154
L 608 154
L 608 154
L 608 154
L 608 154
L 608 154
L 608 154
L 608 154
L 608 154
L 609 154
L 609 154
L 609 154
L 609 154
L 609 154
L 609 154
L 609 154
L 609 154
L 609 154
L 609 153
L 609 153
L 609 153
L 609 153
L 609 153
L 609 153
L 609 153
L 609 153
L 609 153
L 609 153
L 609 153
L 609 153
L 609 153
L 609 153
L 609 153
L 609 153
L 609 153
L 609 153
L 609 153
L 609 153
L 609 153
L 609 153
L 609 152
L 609 152
L 609 152
L 609 152
L 609 152
L 609 152
L 609 152
L 609 152
L 609 152
L 609 152
L 609 152
L 609 152
L 609 152
L 609 152
L 609 152
L 609 152
L 609 152
L 609 152
L 609 152
L 609 152
L 609 152
L 609 152
L 609 151
L 609 151
L 609 151
L 609 151
L 609 151
L 609 151
L 609 151
L 609 151
L 609 151
L 610 151
L 610 151
L 610 151
L 610 151
L 610 151
L 610 151
L 610 151
L 610 151
L 610 151
L 610 151
L 610 151
L 610 151
L 610 150
L 610 150
L 610 150
L 610 150
L 610 150
L 610 150
L 610 150
L 610 150
L 610 150
L 610 150
L 610 150
L 610 150
L 610 150
L 610 150
L 610 150
L 610 150
L 610 150
L 611 150
L 611 150
L 611 150
L 611 150
L 611 150
L 611 149
L 611 149
L 611 149
L 611 149
L 611 149
L 611 149
L 611 149
L 611 149
L 611 149
L 611 149
L 611 149
L 611 149
L 611 149
L 611 149
L 611 149
L 611 149
L 611 149
L 611 149
L 611 149
L 611 149
L 611 149
L 611 149
L 611 148
L 611 148
L 611 148
L 611 148
L 611 148
L 611 148
L 611 148
L 611 148
L 611 148
L 611 148
L 611 148
L 611 148
L 612 148
L 612 148
L 612 148
L 612 148
L 612 148
L 612 148
L 612 148
L 612 148
L 612 148
L 612 148
L 612 147
L 612 147
L 612 147
L 612 147
L 612 147
L 612 147
L 612 147
L 612 147
L 612 147
L 612 147
L 612 147
L 612 147
L 612 147
L 612 147
L 612 147
L 612 147
L 612 147
L 612 147
L 612 147
L 612 147
L 612 147
L 612 147
L 612 146
L 612 146
L 612 146
L 612 146
L 612 146
L 612 146
L 612 146
L 612 146
L 612 146
L 613 146
L 613 146
L 613 146
L 613 146
L 613 146
L 613 146
L 613 146
L 613 146
L 613 146
L 613 146
L 613 146
L 613 146
L 613 145
L 613 145
L 613 145
L 613 145
L 613 145
L 613 145
L 613 145
L 613 145
L 613 145
L 613 145
L 613 145
L 613 145
L 613 145
L 613 145
L 613 145
L 613 145
L 614 145
L 614 145
L 614 145
L 614 145
L 614 145
L 614 145
L 614 144
L 614 144
L 614 144
L 614 144
L 614 144
L 614 144
L 614 144
L 614 144
L 614 144
L 614 144
L 614 144
L 614 144
L 614 144
L 614 144
L 614 144
L 614 144
L 614 144
L 614 144
L 614 144
L 614 144
L 614 144
L 615 144
L 615 143
L 615 143
L 615 143
L 615 143
L 615 143
L 615 143
L 615 143
L 615 143
L 615 143
L 615 143
L 615 143
L 615 143
L 615 143
L 615 143
L 615 143
L 615 143
L 615 143
L 615 143
L 615 143
L 615 143
L 615 143
L 615 143
L 616 142
L 616 142
L 616 142
L 616 142
L 616 142
L 616 142
L 616 142
L 616 142
L 616 142
L 616 142
L 616 142
L 617 142
L 617 142
L 617 142
L 617 142
L 617 142
L 617 142
L 617 142
L 618 142
L 618 142
L 618 142
L 618 141
L 618 141
L 620 141
L 620 141
L 620 141
L 620 141
L 620 141
L 620 141
L 620 141
L 620 141
L 621 141
L 621 141
L 621 141
L 621 141
L 621 141
L 621 141
L 621 141
L 621 141
L 621 141
L 621 141
L 621 141
L 621 141
L 621 140
L 621 140
L 621 140
L 621 140
L 621 140
L 621 140
L 621 140
L 621 140
L 621 140
L 621 140
L 621 140
L 621 140
L 621 140
L 621 140
L 621 140
L 621 140
L 621 140
L 621 140
L 621 140
L 621 140
L 621 140
L 621 140
L 621 139
L 621 139
L 621 139
L 622 139
L 622 139
L 622 139
L 622 139
L 622 139
L 622 139
L 622 139
L 622 139
L 622 139
L 622 139
L 622 139
L 622 139
L 622 139
L 623 139
L 623 139
L 623 139
L 623 139
L 623 139
L 623 139
L 623 138
L 623 138
L 623 138
L 623 138
L 623 138
L 623 138
L 623 138
L 623 138
L 623 138
L 623 138
L 623 138
L 623 138
L 623 138
L 623 138
L 623 138
L 623 138
L 623 138
L 623 138
L 623 138
L 623 138
L 623 138
L 623 137
L 623 137
L 623 137
L 623 137
L 623 137
L 623 137
L 623 137
L 623 137
L 624 137
L 624 137
L 624 137
L 624 137
L 624 137
L 624 137
L 624 137
L 624 137
L 624 137
L 624 137
L 624 137
L 624 137
L 624 137
L 624 137
L 624 136
L 624 136
L 624 136
L 624 136
L 624 136
L 624 136
L 624 136
L 624 136
L 624 136
L 624 136
L 624 136
L 624 136
L 624 136
L 624 136
L 624 136
L 624 136
L 625 136
L 625 136
L 625 136
L 625 136
L 625 136
L 625 136
L 625 135
L 625 135
L 625 135
L 625 135
L 625 135
L 625 135
L 625 135
L 625 135
L 625 135
L 625 135
L 625 135
L 625 135
L 625 135
L 625 135
L 625 135
L 625 135
L 626 135
L 626 135
L 626 135
L 626 135
L 626 135
L 626 135
L 626 134
L 626 134
L 626 134
L 626 134
L 627 134
L 627 134
L 627 134
L 627 134
L 627 134
L 627 134
L 627 134
L 627 134
L 627 134
L 627 134
L 627 134
L 628 134
L 628 134
L 628 134
L 628 134
L 628 134
L 628 134
L 628 133
L 628 133
L 628 133
L 628 133
L 629 133
L 629 133
L 630 133
L 630 133
L 630 133
L 630 133
L 632 133
L 633 133
L 633 133
L 633 133
L 633 133
L 633 133
L 633 133
L 633 133
L 633 133
L 633 133
L 633 133
L 634 133
L 634 132
L 634 132
L 634 132
L 634 132
L 634 132
L 634 132
L 635 132
L 635 132
L 635 132
L 635 132
L 635 132
L 635 132
L 635 132
L 635 132
L 635 132
L 635 132
L 636 132
L 636 132
L 636 132
L 636 132
L 636 132
L 636 132
L 636 131
L 636 131
L 636 131
L 636 131
L 637 131
L 637 131
L 637 131
L 637 131
L 637 131
L 637 131
L 638 131
L 638 131
L 638 131
L 639 131
L 639 131
L 639 131
L 639 131
L 640 131
L 640 131
L 640 131
L 640 131
L 640 131
L 641 130
L 641 130
L 641 130
L 642 130
L 644 130
L 644 130
L 645 130
L 645 130
L 646 130
L 646 130
L 646 130
L 646 130
L 646 130
L 647 130
L 647 130
L 647 130
L 647 130
L 647 130
L 647 130
L 648 130
L 648 130
L 648 130
L 648 129
L 648 129
L 648 129
L 648 129
L 648 129
L 649 129
L 649 129
L 649 129
L 649 129
L 650 129
L 650 129
L 650 129
L 650 129
L 650 129
L 650 129
L 651 129
L 651 129
L 651 129
L 651 129
L 651 129
L 651 129
L 651 128
L 651 128
L 652 128
L 652 128
L 652 128
L 653 128
L 656 128
L 656 128
L 656 128
L 656 128
L 656 128
L 656 128
L 657 128
L 657 128
L 657 128
L 657 128
L 657 128
L 657 128
L 657 128
L 657 128
L 657 128
L 657 128
L 657 127
L 657 127
L 657 127
L 657 127
L 657 127
L 657 127
L 657 127
L 657 127
L 657 127
L 657 127
L 657 127
L 657 127
L 658 127
L 658 127
L 658 127
L 658 127
L 658 127
L 658 127
L 658 127
L 658 127
L 659 127
L 659 127
L 659 126
L 659 126
L 659 126
L 659 126
L 659 126
L 659 126
L 659 126
L 659 126
L 659 126
L 659 126
L 659 126
L 660 126
L 660 126
L 660 126
L 660 126
L 660 126
L 660 126
L 660 126
L 660 126
L 660 126
L 660 126
L 660 126
L 660 125
L 660 125
L 660 125
L 660 125
L 660 125
L 660 125
L 660 125
L 660 125
L 660 125
L 661 125
L 661 125
L 661 125
L 661 125
L 661 125
L 661 125
L 661 125
L 661 125
L 661 125
L 661 125
L 661 125
L 661 125
L 662 124
L 662 124
L 662 124
L 662 124
L 662 124
L 662 124
L 662 124
L 662 124
L 662 124
L 662 124
L 662 124
L 662 124
L 663 124
L 663 124
L 663 124
L 663 124
L 663 124
L 663 124
L 663 124
L 663 124
L 663 124
L 663 124
L 663 123
L 664 123
L 664 123
L 664 123
L 664 123
L 664 123
L 664 123
L 664 123
L 664 123
L 666 123
L 666 123
L 667 123
L 668 123
L 668 123
L 668 123
L 668 123
L 668 123
L 668 123
L 669 123
L 669 123
L 669 123
L 669 123
L 669 122
L 669 122
L 669 122
L 669 122
L 669 122
L 669 122
L 669 122
L 669 122
L 669 122
L 669 122
L 669 122
L 669 122
L 669 122
L 669 122
L 669 122
L 669 122
L 669 122
L 669 122
L 669 122
L 669 122
L 669 122
L 669 122
L 669 121
L 669 121
L 669 121
L 669 121
L 669 121
L 669 121
L 669 121
L 669 121
L 669 121
L 669 121
L 669 121
L 669 121
L 669 121
L 669 121
L 669 121
L 669 121
L 669 121
L 669 121
L 669 121
L 669 121
L 669 121
L 669 120
L 669 120
L 669 120
L 669 120
L 669 120
L 669 120
L 669 120
L 669 120
L 669 120
L 669 120
L 669 120
L 669 120
L 670 120
L 670 120
L 670 120
L 670 120
L 670 120
L 670 120
L 670 120
L 670 120
L 670 120
L 670 120
L 670 119
L 670 119
L 670 119
L 670 119
L 670 119
L 670 119
L 670 119
L 670 119
L 670 119
L 670 119
L 670 119
L 670 119
L 670 119
L 670 119
L 670 119
L 670 119
L 670 119
L 670 119
L 670 119
L 670 119
L 670 119
L 670 119
L 670 118
L 670 118
L 670 118
L 671 118
L 671 118
L 671 118
L 671 118
L 671 118
L 671 118
L 671 118
L 671 118
L 671 118
L 671 118
L 671 118
L 671 118
L 671 118
L 671 118
L 671 118
L 671 118
L 671 118
L 671 118
L 671 118
L 671 117
L 671 117
L 671 117
L 672 117
L 672 117
L 672 117
L 672 117
L 672 117
L 672 117
L 672 117
L 672 117
L 672 117
L 672 117
L 672 117
L 672 117
L 672 117
L 672 117
L 672 117
L 672 117
L 672 117
L 672 117
L 672 116
L 672 116
L 672 116
L 672 116
L 672 116
L 672 116
L 672 116
L 672 116
L 673 116
L 673 116
L 673 116
L 673 116
L 673 116
L 673 116
L 673 116
L 673 116
L 673 116
L 673 116
L 673 116
L 673 116
L 673 116
L 673 116
L 673 115
L 673 115
L 673 115
L 673 115
L 673 115
L 673 115
L 673 115
L 673 115
L 673 115
L 673 115
L 673 115
L 673 115
L 673 115
L 673 115
L 674 115
L 674 115
L 674 115
L 674 115
L 674 115
L 674 115
L 674 115
L 674 115
L 674 114
L 674 114
L 674 114
L 674 114
L 674 114
L 674 114
L 674 114
L 674 114
L 674 114
L 674 114
L 674 114
L 674 114
L 674 114
L 675 114
L 675 114
L 675 114
L 675 114
L 675 114
L 675 114
L 675 114
L 675 114
L 675 114
L 676 113
L 676 113
L 676 113
L 677 113
L 677 113
L 677 113
L 678 113
L 678 113
L 680 113
L 680 113
L 680 113
L 680 113
L 680 113
L 680 113
L 680 113
L 680 113
L 680 113
L 680 113
L 680 113
L 680 113
L 680 113
L 680 113
L 680 112
L 680 112
L 680 112
L 680 112
L 680 112
L 680 112
L 681 112
L 681 112
L 681 112
L 681 112
L 681 112
L 681 112
L 681 112
L 681 112
L 681 112
L 681 112
L 681 112
L 681 112
L 681 112
L 681 112
L 681 112
L 681 111
L 681 111
L 681 111
L 681 111
L 681 111
L 681 111
L 681 111
L 681 111
L 681 111
L 681 111
L 681 111
L 681 111
L 681 111
L 681 111
L 681 111
L 681 111
L 681 111
L 681 111
L 681 111
L 681 111
L 681 111
L 681 111
L 681 110
L 681 110
L 681 110
L 681 110
L 681 110
L 681 110
L 681 110
L 681 110
L 681 110
L 681 110
L 681 110
L 681 110
L 681 110
L 681 110
L 681 110
L 681 110
L 682 110
L 682 110
L 682 110
L 682 110
L 682 110
L 682 110
L 682 109
L 682 109
L 682 109
L 682 109
L 682 109
L 682 109
L 682 109
L 682 109
L 682 109
L 682 109
L 682 109
L 682 109
L 682 109
L 682 109
L 682 109
L 682 109
L 682 109
L 682 109
L 682 109
L 682 109
L 682 109
L 682 109
L 682 108
L 682 108
L 682 108
L 683 108
L 683 108
L 683 108
L 683 108
L 683 108
L 683 108
L 683 108
L 683 108
L 683 108
L 683 108
L 683 108
L 683 108
L 683 108
L 683 108
L 683 108
L 683 108
L 683 108
L 683 108
L 683 107
L 683 107
L 683 107
L 683 107
L 683 107
L 683 107
L 683 107
L 683 107
L 683 107
L 683 107
L 683 107
L 683 107
L 683 107
L 683 107
L 683 107
L 683 107
L 683 107
L 683 107
L 683 107
L 684 107
L 684 107
L 684 107
L 684 106
L 684 106
L 684 106
L 684 106
L 684 106
L 684 106
L 684 106
L 684 106
L 684 106
L 684 106
L 684 106
L 684 106
L 684 106
L 684 106
L 684 106
L 684 106
L 684 106
L 684 106
L 684 106
L 684 106
L 684 106
L 684 106
L 684 105
L 684 105
L 684 105
L 684 105
L 684 105
L 684 105
L 684 105
L 684 105
L 684 105
L 684 105
L 684 105
L 685 105
L 685 105
L 685 105
L 685 105
L 685 105
L 685 105
L 685 105
L 685 105
L 685 105
L 685 105
L 685 105
L 685 104
L 685 104
L 685 104
L 685 104
L 685 104
L 685 104
L 685 104
L 685 104
L 685 104
L 685 104
L 686 104
L 686 104
L 686 104
L 686 104
L 686 104
L 686 104
L 686 104
L 686 104
L 686 104
L 687 104
L 687 104
L 687 103
L 687 103
L 687 103
L 687 103
L 687 103
L 687 103
L 687 103
L 687 103
L 687 103
L 687 103
L 688 103
L 688 103
L 688 103
L 688 103
L 688 103
L 688 103
L 689 103
L 689 103
L 691 103
L 691 103
L 691 103
L 691 103
L 691 102
L 691 102
L 692 102
L 692 102
L 692 102
L 692 102
L 692 102
L 692 102
L 692 102
L 692 102
L 692 102
L 692 102
L 692 102
L 692 102
L 692 102
L 692 102
L 692 102
L 693 102
L 693 102
L 693 102
L 693 102
L 693 102
L 693 101
L 693 101
L 693 101
L 693 101
L 693 101
L 693 101
L 693 101
L 693 101
L 693 101
L 693 101
L 693 101
L 693 101
L 693 101
L 693 101
L 693 101
L 693 101
L 693 101
L 693 101
L 693 101
L 693 101
L 693 101
L 693 101
L 693 100
L 693 100
L 693 100
L 693 100
L 693 100
L 693 100
L 693 100
L 693 100
L 693 100
L 693 100
L 693 100
L 694 100
L 694 100
L 694 100
L 694 100
L 694 100
L 694 100
L 694 100
L 694 100
L 694 100
L 694 100
L 694 99
L 694 99
L 694 99
L 694 99
L 694 99
L 694 99
L 694 99
L 694 99
L 694 99
L 694 99
L 695 99
L 695 99
L 695 99
L 695 99
L 695 99
L 695 99
L 695 99
L 695 99
L 695 99
L 695 99
L 695 99
L 695 99
L 695 98
L 695 98
L 695 98
L 695 98
L 695 98
L 695 98
L 695 98
L 695 98
L 695 98
L 695 98
L 696 98
L 696 98
L 696 98
L 696 98
L 696 98
L 696 98
L 696 98
L 696 98
L 696 98
L 696 98
L 696 98
L 696 98
L 696 97
L 696 97
L 696 97
L 696 97
L 696 97
L 696 97
L 696 97
L 696 97
L 696 97
L 696 97
L 696 97
L 696 97
L 696 97
L 696 97
L 696 97
L 697 97
L 697 97
L 697 97
L 697 97
L 697 97
L 697 97
L 697 97
L 697 96
L 697 96
L 697 96
L 697 96
L 697 96
L 697 96
L 697 96
L 697 96
L 697 96
L 697 96
L 698 96
L 698 96
L 698 96
L 698 96
L 698 96
L 698 96
L 699 96
L 699 96
L 699 96
L 699 96
L 699 96
L 699 96
L 699 95
L 699 95
L 699 95
L 699 95
L 700 95
L 700 95
L 700 95
L 700 95
L 700 95
L 700 95
L 700 95
L 700 95
L 701 95
L 703 95
L 704 95
L 704 95
L 704 95
L 704 95
L 704 95
L 704 95
L 704 95
L 704 94
L 704 94
L 704 94
L 704 94
L 704 94
L 704 94
L 704 94
L 704 94
L 704 94
L 704 94
L 704 94
L 704 94
L 705 94
L 705 94
L 705 94
L 705 94
L 705 94
L 705 94
L 705 94
L 705 94
L 705 94
L 705 94
L 705 93
L 705 93
L 705 93
L 705 93
L 705 93
L 705 93
L 705 93
L 705 93
L 705 93
L 705 93
L 705 93
L 705 93
L 705 93
L 705 93
L 705 93
L 705 93
L 705 93
L 705 93
L 705 93
L 705 93
L 705 93
L 706 93
L 706 92
L 706 92
L 706 92
L 706 92
L 706 92
L 706 92
L 706 92
L 706 92
L 706 92
L 707 92
L 707 92
L 707 92
L 707 92
L 707 92
L 707 92
L 707 92
L 707 92
L 707 92
L 707 92
L 707 92
L 707 92
L 707 92
L 707 91
L 707 91
L 707 91
L 707 91
L 707 91
L 707 91
L 707 91
L 708 91
L 708 91
L 708 91
L 708 91
L 708 91
L 708 91
L 708 91
L 708 91
L 708 91
L 708 91
L 708 91
L 708 91
L 708 91
L 708 91
L 708 90
L 708 90
L 708 90
L 708 90
L 708 90
L 709 90
L 709 90
L 709 90
L 709 90
L 709 90
L 709 90
L 709 90
L 709 90
L 709 90
L 709 90
L 709 90
L 709 90
L 709 90
L 709 90
L 709 90
L 709 90
L 710 90
L 710 89
L 710 89
L 710 89
L 710 89
L 710 89
L 711 89
L 711 89
L 711 89
L 711 89
L 711 89
L 712 89
L 712 89
L 712 89
L 714 89
L 716 89
L 716 89
L 716 89
L 717 89
L 717 89
L 717 89
L 717 89
L 717 89
L 718 88
L 718 88
L 718 88
L 718 88
L 719 88
L 719 88
L 719 88
L 719 88
L 719 88
L 719 88
L 719 88
L 719 88
L 719 88
L 720 88
L 720 88
L 720 88
L 720 88
L 721 88
L 721 88
L 721 88
L 722 88
L 722 88
L 722 87
L 722 87
L 722 87
L 722 87
L 722 87
L 722 87
L 722 87
L 722 87
L 722 87
L 722 87
L 722 87
L 722 87
L 722 87
L 722 87
L 723 87
L 723 87
L 723 87
L 723 87
L 723 87
L 723 87
L 723 87
L 723 86
L 723 86
L 723 86
L 724 86
L 724 86
L 724 86
L 724 86
L 724 86
L 724 86
L 724 86
L 724 86
L 724 86
L 724 86
L 725 86
L 725 86
L 728 86
L 728 86
L 728 86
L 728 86
L 728 86
L 728 86
L 729 86
L 729 85
L 729 85
L 729 85
L 729 85
L 729 85
L 730 85
L 730 85
L 730 85
L 730 85
L 730 85
L 730 85
L 730 85
L 731 85
L 731 85
L 731 85
L 732 85
L 732 85
L 733 85
L 733 85
L 734 85
L 734 85
L 734 85
L 734 84
L 734 84
L 734 84
L 734 84
L 734 84
L 734 84
L 734 84
L 735 84
L 735 84
L 735 84
L 735 84
L 735 84
L 735 84
L 735 84
L 735 84
L 735 84
L 735 84
L 736 84
L 736 84
L 738 84
L 738 84
L 739 84
L 740 83
L 740 83
L 740 83
L 740 83
L 740 83
L 740 83
L 740 83
L 740 83
L 740 83
L 740 83
L 740 83
L 740 83
L 740 83
L 740 83
L 740 83
L 740 83
L 740 83
L 740 83
L 740 83
L 740 83
L 740 83
L 740 82
L 741 82
L 741 82
L 741 82
L 741 82
L 741 82
L 741 82
L 741 82
L 741 82
L 741 82
L 741 82
L 741 82
L 741 82
L 741 82
L 741 82
L 741 82
L 741 82
L 741 82
L 741 82
L 741 82
L 741 82
L 741 82
L 742 81
L 742 81
L 742 81
L 742 81
L 742 81
L 742 81
L 742 81
L 742 81
L 742 81
L 742 81
L 742 81
L 742 81
L 742 81
L 743 81
L 743 81
L 743 81
L 743 81
L 743 81
L 743 81
L 743 81
L 743 81
L 743 81
L 743 80
L 743 80
L 743 80
L 743 80
L 743 80
L 743 80
L 743 80
L 743 80
L 743 80
L 743 80
L 743 80
L 743 80
L 743 80
L 743 80
L 743 80
L 743 80
L 743 80
L 743 80
L 743 80
L 743 80
L 744 80
L 744 80
L 744 79
L 744 79
L 744 79
L 744 79
L 744 79
L 744 79
L 744 79
L 744 79
L 744 79
L 744 79
L 744 79
L 744 79
L 744 79
L 744 79
L 744 79
L 744 79
L 744 79
L 745 79
L 745 79
L 745 79
L 745 79
L 745 79
L 745 78
L 745 78
L 745 78
L 745 78
L 746 78
L 746 78
L 746 78
L 746 78
L 746 78
L 746 78
L 746 78
L 746 78
L 746 78
L 746 78
L 747 78
L 747 78
L 747 78
L 747 78
L 747 78
L 747 78
L 747 78
L 748 77
L 749 77
L 751 77
L 751 77
L 751 77
L 752 77
L 752 77
L 752 77
L 752 77
L 752 77
L 752 77
L 752 77
L 752 77
L 752 77
L 752 77
L 752 77
L 752 77
L 752 77
L 752 77
L 752 77
L 753 77
L 753 77
L 753 76
L 753 76
L 753 76
L 753 76
L 753 76
L 753 76
L 753 76
L 753 76
L 753 76
L 753 76
L 753 76
L 753 76
L 753 76
L 753 76
L 753 76
L 753 76
L 753 76
L 753 76
L 753 76
L 753 76
L 753 76
L 753 76
L 754 75
L 754 75
L 754 75
L 754 75
L 754 75
L 754 75
L 754 75
L 754 75
L 754 75
L 754 75
L 754 75
L 754 75
L 754 75
L 754 75
L 754 75
L 755 75
L 755 75
L 755 75
L 755 75
L 755 75
L 755 75
L 755 75
L 755 74
L 755 74
L 755 74
L 755 74
L 755 74
L 755 74
L 755 74
L 755 74
L 755 74
L 755 74
L 755 74
L 755 74
L 755 74
L 755 74
L 755 74
L 755 74
L 756 74
L 756 74
L 756 74
L 756 74
L 756 74
L 756 73
L 756 73
L 756 73
L 756 73
L 756 73
L 756 73
L 756 73
L 756 73
L 756 73
L 756 73
L 756 73
L 756 73
L 756 73
L 756 73
L 756 73
L 756 73
L 757 73
L 757 73
L 757 73
L 757 73
L 757 73
L 757 73
L 757 72
L 757 72
L 757 72
L 757 72
L 757 72
L 757 72
L 757 72
L 757 72
L 757 72
L 758 72
L 758 72
L 758 72
L 758 72
L 758 72
L 758 72
L 758 72
L 758 72
L 758 72
L 758 72
L 758 72
L 758 72
L 758 72
L 759 71
L 759 71
L 759 71
L 759 71
L 759 71
L 759 71
L 759 71
L 759 71
L 759 71
L 759 71
L 759 71
L 759 71
L 759 71
L 759 71
L 759 71
L 759 71
L 759 71
L 759 71
L 759 71
L 760 71
L 760 71
L 760 71
L 760 70
L 760 70
L 761 70
L 761 70
L 761 70
L 762 70
L 763 70
L 763 70
L 763 70
L 764 70
L 764 70
L 764 70
L 764 70
L 764 70
L 764 70
L 764 70
L 764 70
L 764 70
L 764 70
L 764 70
L 764 70
L 764 69
L 764 69
L 764 69
L 764 69
L 764 69
L 764 69
L 764 69
L 764 69
L 764 69
L 764 69
L 764 69
L 764 69
L 764 69
L 764 69
L 764 69
L 764 69
L 764 69
L 764 69
L 764 69
L 764 69
L 764 69
L 764 69
L 764 68
L 764 68
L 764 68
L 765 68
L 765 68
L 765 68
L 765 68
L 765 68
L 765 68
L 765 68
L 765 68
L 765 68
L 765 68
L 765 68
L 765 68
L 765 68
L 765 68
L 765 68
L 765 68
L 765 68
L 765 68
L 765 68
L 766 67
L 766 67
L 766 67
L 766 67
L 766 67
L 766 67
L 766 67
L 766 67
L 766 67
L 766 67
L 766 67
L 766 67
L 766 67
L 766 67
L 766 67
L 766 67
L 766 67
L 766 67
L 766 67
L 766 67
L 766 67
L 766 67
L 766 66
L 766 66
L 766 66
L 766 66
L 766 66
L 766 66
L 766 66
L 767 66
L 767 66
L 767 66
L 767 66
L 767 66
L 767 66
L 767 66
L 767 66
L 767 66
L 767 66
L 767 66
L 767 66
L 767 66
L 767 66
L 767 65
L 767 65
L 767 65
L 767 65
L 767 65
L 767 65
L 767 65
L 767 65
L 767 65
L 767 65
L 767 65
L 767 65
L 767 65
L 767 65
L 767 65
L 767 65
L 767 65
L 767 65
L 767 65
L 768 65
L 768 65
L 768 65
L 768 64
L 768 64
L 768 64
L 768 64
L 768 64
L 768 64
L 768 64
L 768 64
L 768 64
L 768 64
L 768 64
L 768 64
L 768 64
L 768 64
L 768 64
L 768 64
L 768 64
L 768 64
L 768 64
L 768 64
L 768 64
L 768 64
L 768 63
L 768 63
L 768 63
L 768 63
L 768 63
L 768 63
L 768 63
L 768 63
L 768 63
L 768 63
L 768 63
L 769 63
L 769 63
L 769 63
L 769 63
L 769 63
L 769 63
L 769 63
L 769 63
L 769 63
L 769 63
L 769 63
L 769 62
L 769 62
L 769 62
L 769 62
L 770 62
L 770 62
L 770 62
L 770 62
L 770 62
L 770 62
L 770 62
L 770 62
L 770 62
L 770 62
L 771 62
L 771 62
L 771 62
L 771 62
L 771 62
L 771 62
L 771 62
L 771 62
L 771 61
L 772 61
L 772 61
L 773 61
L 773 61
L 775 61
L 775 61
L 775 61
L 775 61
L 775 61
L 776 61
L 776 61
L 776 61
L 776 61
L 776 61
L 776 61
L 776 61
L 776 61
L 776 61
L 776 61
L 776 61
L 776 60
L 776 60
L 776 60
L 776 60
L 776 60
L 776 60
L 776 60
L 776 60
L 776 60
L 776 60
L 776 60
L 776 60
L 776 60
L 776 60
L 776 60
L 776 60
L 777 60
L 777 60
L 777 60
L 777 60
L 777 60
L 777 60
L 777 59
L 777 59
L 777 59
L 777 59
L 777 59
L 777 59
L 777 59
L 777 59
L 777 59
L 777 59
L 777 59
L 777 59
L 777 59
L 777 59
L 777 59
L 777 59
L 777 59
L 777 59
L 778 59
L 778 59
L 778 59
L 778 59
L 778 58
L 778 58
L 778 58
L 778 58
L 778 58
L 778 58
L 778 58
L 778 58
L 778 58
L 778 58
L 778 58
L 778 58
L 778 58
L 778 58
L 778 58
L 778 58
L 778 58
L 778 58
L 779 58
L 779 58
L 779 58
L 779 58
L 779 57
L 779 57
L 779 57
L 779 57
L 779 57
L 779 57
L 779 57
L 779 57
L 779 57
L 779 57
L 779 57
L 779 57
L 779 57
L 779 57
L 779 57
L 779 57
L 780 57
L 780 57
L 780 57
L 780 57
L 780 57
L 780 56
L 780 56
L 780 56
L 780 56
L 780 56
L 780 56
L 780 56
L 780 56
L 780 56
L 780 56
L 780 56
L 780 56
L 780 56
L 780 56
L 780 56
L 780 56
L 780 56
L 780 56
L 780 56
L 780 56
L 780 56
L 780 56
L 780 55
L 780 55
L 781 55
L 781 55
L 781 55
L 782 55
L 782 55
L 782 55
L 782 55
L 782 55
L 782 55
L 783 55
L 783 55
L 783 55
L 783 55
L 783 55
L 783 55
L 783 55
L 784 55
L 784 55
L 784 55
L 785 55
L 786 54
L 786 54
L 787 54
L 787 54
L 788 54
L 788 54
L 788 54
L 788 54
L 788 54
L 788 54
L 788 54
L 788 54
L 788 54
L 788 54
L 788 54
L 788 54
L 788 54
L 788 54
L 788 54
L 788 54
L 788 54
L 788 54
L 788 53
L 788 53
L 788 53
L 788 53
L 789 53
L 789 53
L 789 53
L 789 53
L 789 53
L 789 53
L 789 53
L 789 53
L 789 53
L 789 53
L 789 53
L 789 53
L 789 53
L 790 53
L 790 53
L 790 53
L 790 53
L 790 52
L 790 52
L 790 52
L 790 52
L 790 52
L 790 52
L 790 52
L 790 52
L 790 52
L 790 52
L 790 52
L 790 52
L 790 52
L 791 52
L 791 52
L 791 52
L 791 52
L 791 52
L 791 52
L 791 52
L 791 52
L 791 52
L 791 51
L 791 51
L 791 51
L 791 51
L 791 51
L 791 51
L 791 51
L 791 51
L 791 51
L 791 51
L 791 51
L 791 51
L 792 51
L 792 51
L 792 51
L 792 51
L 792 51
L 792 51
L 792 51
L 792 51
L 792 51
L 792 51
L 792 50
L 792 50
L 792 50
L 792 50
L 792 50
L 792 50
L 792 50
L 792 50
L 792 50
L 792 50
L 792 50
L 792 50
L 792 50
L 792 50
L 793 50
L 793 50
L 793 50
L 793 50
L 793 50
L 793 50
L 793 50
L 793 50
L 793 49
L 794 49
L 794 49
L 794 49
L 794 49
L 795 49
L 795 49
L 795 49
L 796 49
L 796 49
L 799 49
L 799 49
L 799 49
L 800 49
L 800 49
L 800 49
L 800 49
L 800 49
L 801 49
L 801 49
L 801 49
L 801 48
L 801 48
L 801 48
L 801 48
L 802 48
L 802 48
L 803 48
L 803 48
L 803 48
L 803 48
L 803 48
L 804 48
L 804 48
L 804 48
L 804 48
L 804 48
L 805 48
L 805 48
L 805 48
L 805 48
L 806 48
L 806 48
L 806 47
L 807 47
L 807 47
L 807 47
L 807 47
L 807 47
L 808 47
L 808 47
L 808 47
L 809 47
L 811 47
L 811 47
L 812 47
L 812 47
L 812 47
L 812 47
L 812 47
L 813 47
L 813 47
L 813 47
L 813 47
L 813 47
L 813 46
L 813 46
L 814 46
L 814 46
L 814 46
L 814 46
L 815 46
L 815 46
L 815 46
L 815 46
L 815 46
L 816 46
L 816 46
L 816 46
L 816 46
L 816 46
L 816 46
L 816 46
L 817 46
L 817 46
L 817 46
L 817 46
L 817 45
L 818 45
L 818 45
L 819 45
L 819 45
L 819 45
L 820 45
L 820 45
L 822 45
L 823 45
L 823 45
L 823 45
L 823 45
L 824 45
L 824 45
L 824 45
L 824 45
L 824 45
L 824 45
L 824 45
L 824 45
L 824 45
L 824 44
L 824 44
L 824 44
L 824 44
L 825 44
L 825 44
L 825 44
L 825 44
L 825 44
L 825 44
L 825 44
L 825 44
L 826 44
L 826 44
L 826 44
L 826 44
L 826 44
L 826 44
L 826 44
L 826 44
L 826 44
L 826 43
L 826 43
L 826 43
L 826 43
L 826 43
L 826 43
L 826 43
L 826 43
L 826 43
L 827 43
L 827 43
L 827 43
L 827 43
L 827 43
L 827 43
L 827 43
L 827 43
L 827 43
L 827 43
L 827 43
L 827 43
L 827 43
L 827 42
L 827 42
L 827 42
L 828 42
L 828 42
L 828 42
L 828 42
L 828 42
L 828 42
L 828 42
L 828 42
L 828 42
L 828 42
L 828 42
L 828 42
L 828 42
L 829 42
L 829 42
L 829 42
L 829 42
L 829 42
L 829 42
L 829 41
L 829 41
L 830 41
L 830 41
L 830 41
L 830 41
L 830 41
L 831 41
L 831 41
L 831 41
L 831 41
L 832 41
L 832 41
L 832 41
L 832 41
L 833 41
L 834 41
L 835 41
L 835 41
L 835 41
L 835 41
L 836 41
L 836 40
L 836 40
L 836 40
L 836 40
L 836 40
L 836 40
L 836 40
L 836 40
L 836 40
L 836 40
L 836 40
L 836 40
L 836 40
L 836 40
L 836 40
L 836 40
L 836 40
L 836 40
L 837 40
L 837 40
L 837 40
L 837 39
L 837 39
L 837 39
L 837 39
L 837 39
L 837 39
L 837 39
L 838 39
L 838 39
L 838 39
L 838 39
L 838 39
L 838 39
L 838 39
L 838 39
L 838 39
L 838 39
L 838 39
L 838 39
L 838 39
L 838 39
L 839 39
L 839 38
L 839 38
L 839 38
L 839 38
L 839 38
L 839 38
L 839 38
L 839 38
L 839 38
L 839 38
L 839 38
L 839 38
L 839 38
L 839 38
L 840 38
L 840 38
L 840 38
L 840 38
L 840 38
L 841 38
L 841 38
L 841 38
L 842 37
L 842 37
L 842 37
L 842 37
L 842 37
L 842 37
L 843 37
L 843 37
L 843 37
L 845 37
L 847 37
L 847 37
L 847 37
L 847 37
L 847 37
L 847 37
L 847 37
L 848 37
L 848 37
L 848 37
L 848 37
L 848 37
L 848 36
L 848 36
L 848 36
L 848 36
L 849 36
L 849 36
L 850 36
L 850 36
L 850 36
L 850 36
L 850 36
L 850 36
L 850 36
L 850 36
L 850 36
L 850 36
L 850 36
L 850 36
L 851 36
L 851 36
L 851 36
L 851 35
L 851 35
L 851 35
L 851 35
L 851 35
L 851 35
L 851 35
L 851 35
L 851 35
L 851 35
L 851 35
L 851 35
L 852 35
L 852 35
L 852 35
L 852 35
L 852 35
L 853 35
L 853 35
L 853 35
L 853 35
L 853 35
L 853 34
L 854 34
L 855 34
L 855 34
L 855 34
L 855 34
L 856 34
L 859 34
L 860 34
L 860 34
L 860 34
L 860 34
L 860 34
L 860 34
L 860 34
L 860 34
L 860 34
L 860 34
L 860 34
L 860 34
L 860 34
L 860 34
L 860 33
L 861 33
L 861 33
L 861 33
L 861 33
L 861 33
L 862 33
L 862 33
L 862 33
L 862 33
L 862 33
L 862 33
L 862 33
L 862 33
L 862 33
L 862 33
L 862 33
L 862 33
L 862 33
L 863 33
L 863 33
L 863 33
L 863 32
L 863 32
L 863 32
L 863 32
L 863 32
L 863 32
L 863 32
L 863 32
L 864 32
L 864 32
L 864 32
L 864 32
L 865 32
L 866 32
L 866 32
L 867 32
L 868 32
L 870 32
L 871 32
L 871 32
L 871 32
L 871 31
L 871 31
L 871 31
L 871 31
L 872 31
L 872 31
L 872 31
L 872 31
L 872 31
L 872 31
L 872 31
L 872 31
L 872 31
L 872 31
L 872 31
L 872 31
L 872 31
L 872 31
L 872 31
L 872 31
L 872 31
L 872 31
L 872 30
L 872 30
L 872 30
L 872 30
L 872 30
L 872 30
L 872 30
L 872 30
L 872 30
L 872 30
L 872 30
L 872 30
L 872 30
L 873 30
L 873 30
L 873 30
L 873 30
L 873 30
L 873 30
L 873 30
L 873 30
L 873 30
L 873 29
L 873 29
L 873 29
L 873 29
L 873 29
L 873 29
L 873 29
L 873 29
L 873 29
L 873 29
L 873 29
L 873 29
L 873 29
L 873 29
L 873 29
L 873 29
L 873 29
L 874 29
L 874 29
L 874 29
L 874 29
L 874 29
L 874 28
L 874 28
L 874 28
L 874 28
L 874 28
L 874 28
L 874 28
L 874 28
L 874 28
L 874 28
L 874 28
L 874 28
L 874 28
L 874 28
L 874 28
L 874 28
L 874 28
L 874 28
L 874 28
L 874 28
L 874 28
L 874 28
L 874 27
L 874 27
L 874 27
L 874 27
L 874 27
L 874 27
L 874 27
L 874 27
L 874 27
L 874 27
L 874 27
L 874 27
L 874 27
L 874 27
L 874 27
L 874 27
L 875 27
L 875 27
L 875 27
L 875 27
L 875 27
L 875 26
L 875 26
L 875 26
L 875 26
L 875 26
L 875 26
L 875 26
L 875 26
L 875 26
L 875 26
L 875 26
L 875 26
L 875 26
L 875 26
L 875 26
L 875 26
L 875 26
L 875 26
L 875 26
L 876 26
L 876 26
L 876 26
L 876 25
L 876 25
L 876 25
L 876 25
L 876 25
L 876 25
L 876 25
L 876 25
L 876 25
L 876 25
L 876 25
L 876 25
L 876 25
L 876 25
L 876 25
L 876 25
L 876 25
L 876 25
L 876 25
L 876 25
L 876 25
L 877 25
L 877 24
L 877 24
L 877 24
L 877 24
L 877 24
L 877 24
L 877 24
L 877 24
L 877 24
L 877 24
L 877 24
L 877 24
L 878 24
L 878 24
L 878 24
L 878 24
L 878 24
L 878 24
L 878 24
L 878 24
L 878 24
L 878 24
L 878 23
L 878 23
L 878 23
L 878 23
L 878 23
L 879 23
L 879 23
L 879 23
L 879 23
L 879 23
L 880 23
L 881 23
L 881 23
L 881 23
L 881 23
L 882 23
L 882 23
L 883 23
L 883 23
L 883 23
L 883 23
L 883 22
L 883 22
L 883 22
L 883 22
L 883 22
L 883 22
L 883 22
L 883 22
L 883 22
L 883 22
L 883 22
L 883 22
L 883 22
L 883 22
L 883 22
L 883 22
L 883 22
L 883 22
L 883 22
L 884 22
L 884 22
L 884 22
L 884 21
L 884 21
L 884 21
L 884 21
L 884 21
L 884 21
L 884 21
L 884 21
L 884 21
L 884 21
L 884 21
L 884 21
L 884 21
L 884 21
L 884 21
L 885 21
L 885 21
L 885 21
L 885 21
L 885 21
L 885 21
L 885 21
L 885 20
L 885 20
L 885 20
L 885 20
L 885 20
L 885 20
L 886 20
L 886 20
L 886 20
L 886 20
L 886 20
L 886 20
L 886 20
L 886 20
L 886 20
L 886 20
L 886 20
L 886 20
L 886 20
L 886 20
L 886 20
L 886 20
L 886 19
L 886 19
L 886 19
L 886 19
L 886 19
L 886 19
L 886 19
L 886 19
L 886 19
L 886 19
L 887 19
L 887 19
L 887 19
L 887 19
L 887 19
L 887 19
L 887 19
L 887 19
L 887 19
L 888 19
L 888 19
L 888 18
L 888 18
L 889 18
L 889 18
L 889 18
L 889 18
L 889 18
L 889 18
L 889 18
L 889 18
L 889 18
L 889 18
L 890 18
L 890 18
L 890 18
L 890 18
L 890 18
L 891 18
L 891 18
L 892 18
L 895 18
L 895 18
L 895 17
L 896 17
L 896 17
L 896 17
L 896 17
L 896 17
L 896 17
L 896 17
L 896 17
L 897 17
L 897 17
L 897 17
L 897 17
L 897 17
L 897 17
L 897 17
L 897 17
L 898 17
L 898 17
L 898 17
L 898 17
L 898 17
L 898 16
L 898 16
L 898 16
L 898 16
L 899 16
L 899 16
L 899 16
L 899 16
L 899 16
L 899 16
L 899 16
L 900 16
L 900 16
L 900 16
L 900 16
L 901 16
L 901 16
L 901 16
L 901 16
L 901 16
L 901 16
L 901 16
L 902 15
L 902 15
L 902 15
L 902 15
L 902 15
L 903 15
L 903 15
L 904 15
L 906 15
L 907 15
L 907 15
L 907 15
L 908 15
L 908 15
L 908 15
L 908 15
L 909 15
L 909 15
L 910 15
L 910 15
L 910 15
L 910 14
L 910 14
L 912 14
L 912 14
L 913 14
L 913 14
L 913 14
L 914 14
L 916 14
L 917 14
L 920 14
L 920 14
L 920 14
L 921 14
L 921 14
L 921 14
L 924 14
L 924 14
L 924 14
L 924 14
L 925 14
L 925 14
L 925 13
L 925 13
L 925 13
L 926 13
L 926 13
L 926 13
L 926 13
L 926 13
L 926 13
L 926 13
L 927 13
L 927 13
L 930 13
L 932 13
L 932 13
L 932 13
L 933 13
L 933 13
L 933 13
L 933 13
L 934 13
L 935 13
L 935 12
L 935 12
L 936 12
L 936 12
L 936 12
L 937 12
L 937 12
L 937 12
L 937 12
L 937 12
L 937 12
L 937 12
L 938 12
L 939 12
L 941 12
L 942 12
L 943 12
L 944 12
L 945 12
L 945 12
L 945 12
L 945 12
L 946 11
L 947 11
L 947 11
L 947 11
L 947 11
L 948 11
L 949 11
L 949 11
L 950 11
L 950 11
L 951 11
L 951 11
L 951 11
L 952 11
L 955 11
L 956 11
L 956 11
L 956 11
L 956 11
L 957 11
L 957 11" style="stroke-width:2;stroke:rgba(129,199,239,1.0);fill:none"/></svg>