<svg xmlns="http://www.w3.org/2000/svg" xmlns:xlink="http://www.w3.org/1999/xlink" width="1024" height="400">\n<path  d="M 0 0
L 1024 0
L 1024 400
L 0 400
L 0 0" style="stroke-width:0;stroke:rgba(255,255,255,1.0);fill:rgba(255,255,255,1.0)"/><path  d="M 38 11
L 957 11
L 957 351
L 38 351
L 38 11" style="stroke-width:0;stroke:rgba(255,255,255,1.0);fill:rgba(255,255,255,1.0)"/><path  d="M 38 351
L 957 351" style="stroke-width:2;stroke:rgba(85,85,85,1.0);fill:none"/><path  d="M 38 351
L 38 356" style="stroke-width:2;stroke:rgba(85,85,85,1.0);fill:none"/><text x="5" y="373" style="stroke-width:0;stroke:none;fill:rgba(51,51,51,1.0);font-size:12.8px;font-family:'Roboto Medium',sans-serif">2018-11-23</text><path  d="M 153 351
L 153 356" style="stroke-width:2;stroke:rgba(85,85,85,1.0);fill:none"/><text x="120" y="373" style="stroke-width:0;stroke:none;fill:rgba(51,51,51,1.0);font-size:12.8px;font-family:'Roboto Medium',sans-serif">2018-12-03</text><path  d="M 268 351
L 268 356" style="stroke-width:2;stroke:rgba(85,85,85,1.0);fill:none"/><text x="235" y="373" style="stroke-width:0;stroke:none;fill:rgba(51,51,51,1.0);font-size:12.8px;font-family:'Roboto Medium',sans-serif">2018-12-13</text><path  d="M 383 351
L 383 356" style="stroke-width:2;stroke:rgba(85,85,85,1.0);fill:none"/><text x="350" y="373" style="stroke-width:0;stroke:none;fill:rgba(51,51,51,1.0);font-size:12.8px;font-family:'Roboto Medium',sans-serif">2018-12-24</text><path  d="M 498 351
L 498 356" style="stroke-width:2;stroke:rgba(85,85,85,1.0);fill:none"/><text x="465" y="373" style="stroke-width:0;stroke:none;fill:rgba(51,51,51,1.0);font-size:12.8px;font-family:'Roboto Medium',sans-serif">2019-01-03</text><path  d="M 613 351
L 613 356" style="stroke-width:2;stroke:rgba(85,85,85,1.0);fill:none"/><text x="580" y="373" style="stroke-width:0;stroke:none;fill:rgba(51,51,51,1.0);font-size:12.8px;font-family:'Roboto Medium',sans-serif">2019-01-14</text><path  d="M 728 351
L 728 356" style="stroke-width:2;stroke:rgba(85,85,85,1.0);fill:none"/><text x="695" y="373" style="stroke-width:0;stroke:none;fill:rgba(51,51,51,1.0);font-size:12.8px;font-family:'Roboto Medium',sans-serif">2019-01-24</text><path  d="M 843 351
L 843 356" style="stroke-width:2;stroke:rgba(85,85,85,1.0);fill:none"/><text x="810" y="373" style="stroke-width:0;stroke:none;fill:rgba(51,51,51,1.0);font-size:12.8px;font-family:'Roboto Medium',sans-serif">2019-02-03</text><path  d="M 957 351
L 957 356" style="stroke-width:2;stroke:rgba(85,85,85,1.0);fill:none"/><text x="924" y="373" style="stroke-width:0;stroke:none;fill:rgba(51,51,51,1.0);font-size:12.8px;font-family:'Roboto Medium',sans-serif">2019-02-14</text><text x="483" y="395" style="stroke-width:0;stroke:none;fill:rgba(51,51,51,1.0);font-size:12.8px;font-family:'Roboto Medium',sans-serif">Time</text><path  d="M 959 351
L 959 11" style="stroke-width:2;stroke:rgba(85,85,85,1.0);fill:none"/><path  d="M 959 351
L 964 351" style="stroke-width:2;stroke:rgba(85,85,85,1.0);fill:none"/><text x="969" y="357" style="stroke-width:0;stroke:none;fill:rgba(51,51,51,1.0);font-size:12.8px;font-family:'Roboto Medium',sans-serif">0</text><path  d="M 959 308
L 964 308" style="stroke-width:2;stroke:rgba(85,85,85,1.0);fill:none"/><text x="969" y="314" style="stroke-width:0;stroke:none;fill:rgba(51,51,51,1.0);font-size:12.8px;font-family:'Roboto Medium',sans-serif">990</text><path  d="M 959 265
L 964 265" style="stroke-width:2;stroke:rgba(85,85,85,1.0);fill:none"/><text x="969" y="271" style="stroke-width:0;stroke:none;fill:rgba(51,51,51,1.0);font-size:12.8px;font-family:'Roboto Medium',sans-serif">1980</text><path  d="M 959 223
L 964 223" style="stroke-width:2;stroke:rgba(85,85,85,1.0);fill:none"/><text x="969" y="229" style="stroke-width:0;stroke:none;fill:rgba(51,51,51,1.0);font-size:12.8px;font-family:'Roboto Medium',sans-serif">2970</text><path  d="M 959 181
L 964 181" style="stroke-width:2;stroke:rgba(85,85,85,1.0);fill:none"/><text x="969" y="187" style="stroke-width:0;stroke:none;fill:rgba(51,51,51,1.0);font-size:12.8px;font-family:'Roboto Medium',sans-serif">3950</text><path  d="M 959 138
L 964 138" style="stroke-width:2;stroke:rgba(85,85,85,1.0);fill:none"/><text x="969" y="144" style="stroke-width:0;stroke:none;fill:rgba(51,51,51,1.0);font-size:12.8px;font-family:'Roboto Medium',sans-serif">4940</text><path  d="M 959 95
L 964 95" style="stroke-width:2;stroke:rgba(85,85,85,1.0);fill:none"/><text x="969" y="101" style="stroke-width:0;stroke:none;fill:rgba(51,51,51,1.0);font-size:12.8px;font-family:'Roboto Medium',sans-serif">5930</text><path  d="M 959 53
L 964 53" style="stroke-width:2;stroke:rgba(85,85,85,1.0);fill:none"/><text x="969" y="59" style="stroke-width:0;stroke:none;fill:rgba(51,51,51,1.0);font-size:12.8px;font-family:'Roboto Medium',sans-serif">6920</text><path  d="M 959 11
L 964 11" style="stroke-width:2;stroke:rgba(85,85,85,1.0);fill:none"/><text x="969" y="17" style="stroke-width:0;stroke:none;fill:rgba(51,51,51,1.0);font-size:12.8px;font-family:'Roboto Medium',sans-serif">7900</text><text x="1009" y="150" style="stroke-width:0;stroke:none;fill:rgba(51,51,51,1.0);font-size:12.8px;font-family:'Roboto Medium',sans-serif" transform="rotate(90.00,1009,150)">Stargazers</text><path  d="M 38 351
L 97 350
L 137 350
L 139 350
L 148 350
L 148 350
L 148 350
L 149 350
L 149 350
L 149 350
L 149 350
L 149 350
L 149 350
L 149 350
L 149 350
L 150 350
L 150 350
L 150 350
L 150 350
L 150 350
L 150 350
L 151 350
L 152 350
L 153 350
L 159 349
L 159 349
L 159 349
L 159 349
L 160 349
L 161 349
L 162 349
L 163 349
L 164 349
L 164 349
L 164 349
L 164 349
L 164 349
L 164 349
L 168 349
L 169 349
L 170 349
L 170 349
L 170 349
L 170 349
L 170 349
L 170 349
L 170 349
L 170 348
L 171 348
L 171 348
L 172 348
L 173 348
L 173 348
L 173 348
L 173 348
L 173 348
L 173 348
L 173 348
L 174 348
L 174 348
L 175 348
L 175 348
L 175 348
L 175 348
L 176 348
L 176 348
L 176 348
L 176 348
L 177 348
L 180 348
L 181 347
L 181 347
L 181 347
L 181 347
L 181 347
L 181 347
L 182 347
L 182 347
L 182 347
L 182 347
L 182 347
L 182 347
L 182 347
L 182 347
L 183 347
L 183 347
L 183 347
L 183 347
L 183 347
L 183 347
L 183 347
L 183 347
L 183 347
L 183 346
L 183 346
L 183 346
L 183 346
L 183 346
L 183 346
L 183 346
L 183 346
L 183 346
L 183 346
L 183 346
L 183 346
L 183 346
L 183 346
L 183 346
L 183 346
L 183 346
L 183 346
L 183 346
L 183 346
L 183 346
L 183 346
L 183 346
L 183 346
L 183 345
L 183 345
L 183 345
L 183 345
L 184 345
L 184 345
L 184 345
L 184 345
L 184 345
L 184 345
L 184 345
L 184 345
L 184 345
L 184 345
L 184 345
L 185 345
L 185 345
L 185 345
L 185 345
L 185 345
L 185 345
L 185 345
L 185 345
L 185 344
L 185 344
L 185 344
L 185 344
L 186 344
L 186 344
L 186 344
L 186 344
L 186 344
L 186 344
L 187 344
L 188 344
L 191 344
L 192 344
L 192 344
L 192 344
L 192 344
L 192 344
L 192 344
L 193 344
L 193 344
L 194 344
L 194 344
L 194 343
L 194 343
L 194 343
L 194 343
L 194 343
L 195 343
L 195 343
L 195 343
L 195 343
L 195 343
L 195 343
L 196 343
L 196 343
L 197 343
L 203 343
L 203 343
L 203 343
L 203 343
L 205 343
L 206 343
L 206 343
L 209 343
L 210 343
L 210 342
L 211 342
L 215 342
L 215 342
L 216 342
L 217 342
L 217 342
L 218 342
L 218 342
L 218 342
L 218 342
L 219 342
L 219 342
L 219 342
L 219 342
L 219 342
L 221 342
L 225 342
L 225 342
L 225 342
L 226 342
L 226 342
L 226 342
L 227 342
L 231 341
L 231 341
L 236 341
L 238 341
L 238 341
L 239 341
L 239 341
L 241 341
L 241 341
L 247 341
L 247 341
L 247 341
L 248 341
L 248 341
L 249 341
L 249 341
L 251 341
L 251 341
L 253 341
L 255 341
L 258 341
L 262 341
L 263 341
L 268 340
L 270 340
L 270 340
L 272 340
L 272 340
L 272 340
L 272 340
L 274 340
L 274 340
L 275 340
L 275 340
L 275 340
L 277 340
L 278 340
L 281 340
L 282 340
L 283 340
L 283 340
L 283 340
L 284 340
L 285 340
L 285 340
L 286 340
L 286 339
L 286 339
L 287 339
L 291 339
L 291 339
L 292 339
L 293 339
L 294 339
L 296 339
L 296 339
L 297 339
L 298 339
L 302 339
L 302 339
L 302 339
L 303 339
L 303 339
L 303 339
L 306 339
L 306 339
L 307 339
L 309 339
L 314 339
L 314 338
L 316 338
L 316 338
L 317 338
L 317 338
L 317 338
L 319 338
L 319 338
L 320 338
L 321 338
L 325 338
L 325 338
L 326 338
L 327 338
L 327 338
L 327 338
L 327 338
L 327 338
L 329 338
L 335 338
L 336 338
L 336 338
L 336 338
L 337 338
L 338 337
L 339 337
L 339 337
L 339 337
L 341 337
L 341 337
L 341 337
L 341 337
L 342 337
L 343 337
L 347 337
L 348 337
L 348 337
L 348 337
L 348 337
L 348 337
L 348 337
L 348 337
L 348 337
L 348 337
L 349 337
L 349 337
L 349 337
L 349 336
L 349 336
L 349 336
L 349 336
L 349 336
L 349 336
L 349 336
L 349 336
L 349 336
L 349 336
L 350 336
L 350 336
L 350 336
L 350 336
L 350 336
L 350 336
L 350 336
L 350 336
L 350 336
L 350 336
L 350 336
L 350 336
L 350 336
L 350 335
L 350 335
L 350 335
L 350 335
L 350 335
L 350 335
L 350 335
L 350 335
L 350 335
L 350 335
L 350 335
L 351 335
L 351 335
L 351 335
L 351 335
L 351 335
L 351 335
L 351 335
L 351 335
L 351 335
L 351 335
L 351 335
L 351 335
L 351 334
L 351 334
L 351 334
L 352 334
L 352 334
L 352 334
L 352 334
L 352 334
L 352 334
L 352 334
L 352 334
L 352 334
L 352 334
L 352 334
L 352 334
L 352 334
L 353 334
L 353 334
L 353 334
L 353 334
L 353 334
L 354 334
L 354 334
L 354 334
L 358 333
L 358 333
L 358 333
L 358 333
L 358 333
L 358 333
L 358 333
L 358 333
L 358 333
L 359 333
L 359 333
L 359 333
L 359 333
L 359 333
L 359 333
L 359 333
L 359 333
L 359 333
L 359 333
L 359 333
L 359 333
L 359 333
L 360 333
L 360 332
L 360 332
L 360 332
L 360 332
L 360 332
L 360 332
L 360 332
L 360 332
L 360 332
L 360 332
L 360 332
L 360 332
L 360 332
L 361 332
L 361 332
L 361 332
L 361 332
L 361 332
L 361 332
L 361 332
L 361 332
L 361 332
L 361 332
L 361 331
L 361 331
L 361 331
L 361 331
L 361 331
L 361 331
L 361 331
L 361 331
L 361 331
L 361 331
L 361 331
L 361 331
L 361 331
L 361 331
L 362 331
L 362 331
L 362 331
L 362 331
L 362 331
L 362 331
L 362 331
L 362 331
L 362 331
L 362 330
L 362 330
L 362 330
L 363 330
L 363 330
L 363 330
L 363 330
L 363 330
L 363 330
L 363 330
L 363 330
L 363 330
L 363 330
L 363 330
L 363 330
L 363 330
L 363 330
L 363 330
L 363 330
L 363 330
L 363 330
L 363 330
L 364 330
L 364 329
L 364 329
L 364 329
L 364 329
L 364 329
L 364 329
L 364 329
L 364 329
L 364 329
L 364 329
L 364 329
L 364 329
L 364 329
L 364 329
L 364 329
L 364 329
L 364 329
L 364 329
L 364 329
L 364 329
L 364 329
L 365 329
L 365 329
L 365 329
L 365 328
L 365 328
L 365 328
L 365 328
L 365 328
L 365 328
L 365 328
L 366 328
L 366 328
L 367 328
L 368 328
L 368 328
L 368 328
L 368 328
L 368 328
L 368 328
L 369 328
L 369 328
L 369 328
L 369 328
L 369 328
L 369 328
L 369 328
L 369 327
L 369 327
L 369 327
L 369 327
L 369 327
L 369 327
L 369 327
L 370 327
L 370 327
L 370 327
L 370 327
L 370 327
L 370 327
L 370 327
L 370 327
L 370 327
L 370 327
L 370 327
L 370 327
L 370 327
L 370 327
L 370 327
L 370 327
L 370 326
L 370 326
L 370 326
L 370 326
L 371 326
L 371 326
L 371 326
L 371 326
L 371 326
L 371 326
L 371 326
L 371 326
L 371 326
L 371 326
L 371 326
L 371 326
L 371 326
L 371 326
L 371 326
L 371 326
L 371 326
L 371 326
L 371 326
L 371 325
L 371 325
L 371 325
L 371 325
L 372 325
L 372 325
L 372 325
L 372 325
L 372 325
L 372 325
L 372 325
L 372 325
L 372 325
L 372 325
L 372 325
L 372 325
L 372 325
L 372 325
L 372 325
L 372 325
L 372 325
L 372 325
L 372 325
L 373 325
L 373 324
L 373 324
L 373 324
L 373 324
L 373 324
L 373 324
L 373 324
L 373 324
L 373 324
L 373 324
L 373 324
L 373 324
L 373 324
L 373 324
L 374 324
L 374 324
L 374 324
L 374 324
L 374 324
L 374 324
L 374 324
L 374 324
L 374 324
L 374 323
L 374 323
L 374 323
L 374 323
L 374 323
L 374 323
L 374 323
L 374 323
L 374 323
L 374 323
L 374 323
L 374 323
L 374 323
L 374 323
L 375 323
L 375 323
L 375 323
L 375 323
L 375 323
L 375 323
L 375 323
L 375 323
L 375 323
L 375 322
L 375 322
L 375 322
L 375 322
L 375 322
L 375 322
L 375 322
L 375 322
L 375 322
L 375 322
L 375 322
L 375 322
L 375 322
L 375 322
L 375 322
L 375 322
L 375 322
L 375 322
L 376 322
L 376 322
L 376 322
L 376 322
L 376 322
L 376 321
L 376 321
L 376 321
L 376 321
L 376 321
L 376 321
L 376 321
L 376 321
L 377 321
L 377 321
L 377 321
L 377 321
L 377 321
L 378 321
L 379 321
L 379 321
L 379 321
L 379 321
L 379 321
L 379 321
L 380 321
L 380 321
L 380 321
L 380 321
L 380 320
L 380 320
L 380 320
L 380 320
L 380 320
L 380 320
L 380 320
L 380 320
L 380 320
L 380 320
L 380 320
L 380 320
L 380 320
L 380 320
L 380 320
L 380 320
L 380 320
L 380 320
L 380 320
L 380 320
L 380 320
L 380 320
L 380 320
L 380 319
L 380 319
L 380 319
L 380 319
L 380 319
L 380 319
L 380 319
L 380 319
L 380 319
L 380 319
L 380 319
L 380 319
L 380 319
L 380 319
L 380 319
L 380 319
L 380 319
L 380 319
L 380 319
L 380 319
L 380 319
L 380 319
L 380 319
L 380 318
L 380 318
L 380 318
L 380 318
L 380 318
L 380 318
L 380 318
L 380 318
L 380 318
L 380 318
L 380 318
L 380 318
L 380 318
L 380 318
L 380 318
L 380 318
L 380 318
L 380 318
L 380 318
L 380 318
L 380 318
L 380 318
L 380 318
L 380 317
L 380 317
L 380 317
L 380 317
L 380 317
L 380 317
L 380 317
L 380 317
L 380 317
L 380 317
L 380 317
L 380 317
L 380 317
L 380 317
L 380 317
L 380 317
L 380 317
L 380 317
L 380 317
L 381 317
L 381 317
L 381 317
L 381 317
L 381 317
L 381 316
L 381 316
L 381 316
L 381 316
L 381 316
L 381 316
L 381 316
L 381 316
L 381 316
L 381 316
L 381 316
L 381 316
L 381 316
L 381 316
L 381 316
L 381 316
L 381 316
L 381 316
L 381 316
L 381 316
L 381 316
L 381 316
L 381 316
L 381 315
L 381 315
L 381 315
L 381 315
L 381 315
L 381 315
L 381 315
L 381 315
L 381 315
L 381 315
L 381 315
L 381 315
L 381 315
L 381 315
L 381 315
L 381 315
L 381 315
L 381 315
L 381 315
L 381 315
L 381 315
L 381 315
L 381 315
L 382 314
L 382 314
L 382 314
L 382 314
L 382 314
L 382 314
L 382 314
L 382 314
L 382 314
L 382 314
L 382 314
L 382 314
L 382 314
L 382 314
L 382 314
L 382 314
L 382 314
L 382 314
L 382 314
L 382 314
L 382 314
L 382 314
L 382 314
L 382 313
L 382 313
L 382 313
L 382 313
L 382 313
L 382 313
L 382 313
L 382 313
L 382 313
L 382 313
L 382 313
L 382 313
L 382 313
L 382 313
L 382 313
L 382 313
L 382 313
L 382 313
L 382 313
L 382 313
L 382 313
L 382 313
L 382 313
L 382 312
L 382 312
L 382 312
L 382 312
L 382 312
L 382 312
L 382 312
L 382 312
L 382 312
L 382 312
L 382 312
L 382 312
L 382 312
L 382 312
L 382 312
L 382 312
L 382 312
L 382 312
L 382 312
L 382 312
L 382 312
L 382 312
L 382 312
L 382 312
L 382 311
L 382 311
L 383 311
L 383 311
L 383 311
L 383 311
L 383 311
L 383 311
L 383 311
L 383 311
L 383 311
L 383 311
L 383 311
L 383 311
L 383 311
L 383 311
L 383 311
L 383 311
L 383 311
L 383 311
L 383 311
L 383 311
L 383 311
L 383 310
L 383 310
L 383 310
L 383 310
L 383 310
L 383 310
L 383 310
L 383 310
L 383 310
L 383 310
L 383 310
L 383 310
L 383 310
L 383 310
L 383 310
L 383 310
L 383 310
L 383 310
L 383 310
L 383 310
L 383 310
L 383 310
L 383 310
L 383 309
L 383 309
L 383 309
L 383 309
L 383 309
L 383 309
L 383 309
L 383 309
L 383 309
L 383 309
L 383 309
L 383 309
L 383 309
L 383 309
L 383 309
L 384 309
L 384 309
L 384 309
L 384 309
L 384 309
L 384 309
L 384 309
L 384 309
L 384 308
L 384 308
L 384 308
L 384 308
L 384 308
L 384 308
L 384 308
L 384 308
L 384 308
L 384 308
L 384 308
L 384 308
L 384 308
L 384 308
L 384 308
L 384 308
L 384 308
L 384 308
L 384 308
L 384 308
L 384 308
L 384 308
L 384 308
L 384 308
L 384 307
L 384 307
L 384 307
L 384 307
L 384 307
L 384 307
L 384 307
L 384 307
L 384 307
L 384 307
L 384 307
L 384 307
L 384 307
L 384 307
L 384 307
L 384 307
L 384 307
L 384 307
L 384 307
L 385 307
L 385 307
L 385 307
L 385 307
L 385 306
L 385 306
L 385 306
L 385 306
L 385 306
L 385 306
L 385 306
L 385 306
L 385 306
L 385 306
L 385 306
L 385 306
L 385 306
L 385 306
L 385 306
L 385 306
L 385 306
L 385 306
L 385 306
L 385 306
L 385 306
L 385 306
L 386 306
L 386 305
L 386 305
L 386 305
L 386 305
L 386 305
L 386 305
L 386 305
L 386 305
L 386 305
L 386 305
L 386 305
L 386 305
L 386 305
L 386 305
L 386 305
L 386 305
L 386 305
L 386 305
L 386 305
L 386 305
L 386 305
L 386 305
L 386 305
L 386 304
L 386 304
L 386 304
L 387 304
L 387 304
L 387 304
L 387 304
L 387 304
L 387 304
L 387 304
L 387 304
L 387 304
L 387 304
L 387 304
L 387 304
L 387 304
L 388 304
L 388 304
L 389 304
L 390 304
L 390 304
L 390 304
L 390 304
L 390 304
L 391 303
L 391 303
L 391 303
L 391 303
L 391 303
L 391 303
L 391 303
L 391 303
L 391 303
L 391 303
L 391 303
L 391 303
L 391 303
L 391 303
L 391 303
L 391 303
L 391 303
L 391 303
L 391 303
L 391 303
L 391 303
L 391 303
L 391 303
L 391 302
L 391 302
L 391 302
L 391 302
L 391 302
L 391 302
L 391 302
L 391 302
L 391 302
L 391 302
L 391 302
L 391 302
L 391 302
L 391 302
L 391 302
L 391 302
L 391 302
L 391 302
L 391 302
L 391 302
L 391 302
L 391 302
L 391 302
L 391 301
L 391 301
L 391 301
L 391 301
L 391 301
L 391 301
L 391 301
L 391 301
L 391 301
L 391 301
L 391 301
L 391 301
L 391 301
L 391 301
L 391 301
L 391 301
L 391 301
L 391 301
L 391 301
L 391 301
L 391 301
L 391 301
L 391 301
L 391 300
L 391 300
L 391 300
L 391 300
L 391 300
L 391 300
L 391 300
L 391 300
L 391 300
L 391 300
L 391 300
L 392 300
L 392 300
L 392 300
L 392 300
L 392 300
L 392 300
L 392 300
L 392 300
L 392 300
L 392 300
L 392 300
L 392 300
L 392 300
L 392 299
L 392 299
L 392 299
L 392 299
L 392 299
L 392 299
L 392 299
L 392 299
L 392 299
L 392 299
L 392 299
L 392 299
L 392 299
L 392 299
L 392 299
L 392 299
L 392 299
L 392 299
L 392 299
L 392 299
L 392 299
L 392 299
L 392 299
L 392 298
L 392 298
L 392 298
L 392 298
L 392 298
L 392 298
L 392 298
L 392 298
L 392 298
L 392 298
L 392 298
L 392 298
L 392 298
L 392 298
L 392 298
L 392 298
L 392 298
L 392 298
L 392 298
L 392 298
L 392 298
L 392 298
L 392 298
L 392 297
L 392 297
L 392 297
L 392 297
L 392 297
L 393 297
L 393 297
L 393 297
L 393 297
L 393 297
L 393 297
L 393 297
L 393 297
L 393 297
L 393 297
L 393 297
L 393 297
L 393 297
L 393 297
L 393 297
L 393 297
L 393 297
L 393 297
L 393 296
L 393 296
L 393 296
L 393 296
L 393 296
L 393 296
L 393 296
L 393 296
L 393 296
L 393 296
L 393 296
L 393 296
L 393 296
L 393 296
L 393 296
L 393 296
L 393 296
L 393 296
L 393 296
L 393 296
L 393 296
L 393 296
L 393 296
L 393 295
L 393 295
L 393 295
L 393 295
L 393 295
L 393 295
L 393 295
L 393 295
L 393 295
L 393 295
L 394 295
L 394 295
L 394 295
L 394 295
L 394 295
L 394 295
L 394 295
L 394 295
L 394 295
L 394 295
L 394 295
L 394 295
L 394 295
L 394 295
L 394 294
L 394 294
L 394 294
L 394 294
L 394 294
L 394 294
L 394 294
L 394 294
L 394 294
L 394 294
L 394 294
L 394 294
L 394 294
L 394 294
L 394 294
L 394 294
L 394 294
L 394 294
L 394 294
L 394 294
L 394 294
L 394 294
L 394 294
L 394 293
L 394 293
L 394 293
L 394 293
L 394 293
L 394 293
L 394 293
L 394 293
L 394 293
L 394 293
L 394 293
L 394 293
L 394 293
L 394 293
L 394 293
L 394 293
L 394 293
L 394 293
L 394 293
L 394 293
L 394 293
L 395 293
L 395 293
L 395 292
L 395 292
L 395 292
L 395 292
L 395 292
L 395 292
L 395 292
L 395 292
L 395 292
L 395 292
L 395 292
L 395 292
L 395 292
L 395 292
L 395 292
L 395 292
L 395 292
L 395 292
L 395 292
L 395 292
L 395 292
L 395 292
L 395 292
L 395 291
L 395 291
L 395 291
L 395 291
L 395 291
L 395 291
L 395 291
L 395 291
L 395 291
L 395 291
L 395 291
L 395 291
L 395 291
L 395 291
L 395 291
L 395 291
L 395 291
L 395 291
L 395 291
L 395 291
L 395 291
L 395 291
L 395 291
L 395 291
L 395 290
L 395 290
L 395 290
L 395 290
L 395 290
L 395 290
L 395 290
L 395 290
L 395 290
L 395 290
L 395 290
L 395 290
L 395 290
L 395 290
L 395 290
L 395 290
L 395 290
L 395 290
L 395 290
L 396 290
L 396 290
L 396 290
L 396 290
L 396 289
L 396 289
L 396 289
L 396 289
L 396 289
L 396 289
L 396 289
L 396 289
L 396 289
L 396 289
L 396 289
L 396 289
L 396 289
L 396 289
L 396 289
L 396 289
L 396 289
L 396 289
L 396 289
L 396 289
L 396 289
L 396 289
L 396 289
L 396 288
L 396 288
L 396 288
L 396 288
L 396 288
L 396 288
L 396 288
L 396 288
L 396 288
L 396 288
L 396 288
L 396 288
L 396 288
L 396 288
L 397 288
L 397 288
L 397 288
L 397 288
L 397 288
L 397 288
L 397 288
L 397 288
L 397 288
L 397 287
L 397 287
L 397 287
L 397 287
L 397 287
L 397 287
L 397 287
L 397 287
L 397 287
L 397 287
L 397 287
L 397 287
L 397 287
L 397 287
L 397 287
L 397 287
L 397 287
L 397 287
L 397 287
L 397 287
L 397 287
L 397 287
L 397 287
L 397 287
L 397 286
L 397 286
L 397 286
L 398 286
L 398 286
L 398 286
L 398 286
L 398 286
L 398 286
L 398 286
L 398 286
L 398 286
L 398 286
L 398 286
L 398 286
L 398 286
L 398 286
L 398 286
L 398 286
L 398 286
L 398 286
L 398 286
L 398 286
L 398 285
L 399 285
L 399 285
L 399 285
L 399 285
L 399 285
L 400 285
L 400 285
L 401 285
L 401 285
L 402 285
L 402 285
L 402 285
L 402 285
L 402 285
L 402 285
L 402 285
L 402 285
L 402 285
L 402 285
L 402 285
L 402 285
L 402 285
L 402 284
L 402 284
L 402 284
L 402 284
L 402 284
L 402 284
L 402 284
L 402 284
L 402 284
L 402 284
L 402 284
L 402 284
L 402 284
L 402 284
L 402 284
L 402 284
L 402 284
L 402 284
L 402 284
L 402 284
L 402 284
L 402 284
L 402 284
L 402 283
L 402 283
L 402 283
L 402 283
L 402 283
L 402 283
L 402 283
L 402 283
L 402 283
L 402 283
L 402 283
L 402 283
L 402 283
L 402 283
L 402 283
L 402 283
L 402 283
L 402 283
L 402 283
L 402 283
L 402 283
L 402 283
L 402 283
L 402 283
L 402 282
L 402 282
L 402 282
L 402 282
L 402 282
L 402 282
L 402 282
L 402 282
L 402 282
L 402 282
L 402 282
L 402 282
L 402 282
L 403 282
L 403 282
L 403 282
L 403 282
L 403 282
L 403 282
L 403 282
L 403 282
L 403 282
L 403 282
L 403 281
L 403 281
L 403 281
L 403 281
L 403 281
L 403 281
L 403 281
L 403 281
L 403 281
L 403 281
L 403 281
L 403 281
L 403 281
L 403 281
L 403 281
L 403 281
L 403 281
L 403 281
L 403 281
L 403 281
L 403 281
L 403 281
L 403 281
L 403 280
L 403 280
L 403 280
L 403 280
L 403 280
L 403 280
L 403 280
L 403 280
L 403 280
L 403 280
L 403 280
L 403 280
L 403 280
L 403 280
L 403 280
L 403 280
L 403 280
L 403 280
L 403 280
L 403 280
L 403 280
L 404 280
L 404 280
L 404 279
L 404 279
L 404 279
L 404 279
L 404 279
L 404 279
L 404 279
L 404 279
L 404 279
L 404 279
L 404 279
L 404 279
L 404 279
L 404 279
L 404 279
L 404 279
L 404 279
L 404 279
L 404 279
L 404 279
L 404 279
L 404 279
L 404 279
L 404 278
L 404 278
L 404 278
L 404 278
L 404 278
L 404 278
L 404 278
L 404 278
L 404 278
L 404 278
L 404 278
L 404 278
L 404 278
L 404 278
L 404 278
L 404 278
L 405 278
L 405 278
L 405 278
L 405 278
L 405 278
L 405 278
L 405 278
L 405 278
L 405 277
L 405 277
L 405 277
L 405 277
L 405 277
L 405 277
L 405 277
L 405 277
L 405 277
L 405 277
L 405 277
L 405 277
L 405 277
L 405 277
L 405 277
L 405 277
L 405 277
L 405 277
L 405 277
L 405 277
L 405 277
L 405 277
L 405 277
L 405 276
L 405 276
L 405 276
L 405 276
L 405 276
L 405 276
L 405 276
L 405 276
L 405 276
L 405 276
L 405 276
L 405 276
L 405 276
L 405 276
L 405 276
L 405 276
L 405 276
L 405 276
L 405 276
L 405 276
L 405 276
L 405 276
L 405 276
L 405 275
L 406 275
L 406 275
L 406 275
L 406 275
L 406 275
L 406 275
L 406 275
L 406 275
L 406 275
L 406 275
L 406 275
L 406 275
L 406 275
L 406 275
L 406 275
L 406 275
L 406 275
L 406 275
L 406 275
L 406 275
L 406 275
L 406 275
L 406 274
L 406 274
L 406 274
L 406 274
L 406 274
L 406 274
L 406 274
L 406 274
L 406 274
L 406 274
L 406 274
L 406 274
L 406 274
L 406 274
L 406 274
L 406 274
L 406 274
L 406 274
L 406 274
L 406 274
L 406 274
L 406 274
L 406 274
L 406 274
L 406 273
L 406 273
L 406 273
L 406 273
L 406 273
L 406 273
L 407 273
L 407 273
L 407 273
L 407 273
L 407 273
L 407 273
L 407 273
L 407 273
L 407 273
L 407 273
L 407 273
L 407 273
L 407 273
L 407 273
L 407 273
L 407 273
L 407 273
L 407 272
L 407 272
L 407 272
L 407 272
L 407 272
L 407 272
L 407 272
L 407 272
L 407 272
L 407 272
L 407 272
L 407 272
L 407 272
L 408 272
L 408 272
L 408 272
L 408 272
L 408 272
L 408 272
L 408 272
L 408 272
L 408 272
L 408 272
L 408 271
L 408 271
L 408 271
L 408 271
L 408 271
L 408 271
L 408 271
L 408 271
L 408 271
L 408 271
L 408 271
L 408 271
L 409 271
L 409 271
L 409 271
L 409 271
L 409 271
L 409 271
L 409 271
L 409 271
L 409 271
L 409 271
L 409 271
L 409 270
L 409 270
L 409 270
L 409 270
L 409 270
L 409 270
L 409 270
L 410 270
L 410 270
L 412 270
L 412 270
L 413 270
L 413 270
L 413 270
L 413 270
L 413 270
L 413 270
L 413 270
L 413 270
L 413 270
L 413 270
L 413 270
L 413 270
L 413 270
L 413 269
L 413 269
L 413 269
L 413 269
L 413 269
L 413 269
L 413 269
L 413 269
L 413 269
L 413 269
L 413 269
L 413 269
L 413 269
L 413 269
L 413 269
L 413 269
L 413 269
L 413 269
L 413 269
L 413 269
L 413 269
L 413 269
L 413 269
L 413 268
L 413 268
L 413 268
L 413 268
L 413 268
L 413 268
L 413 268
L 413 268
L 413 268
L 413 268
L 414 268
L 414 268
L 414 268
L 414 268
L 414 268
L 414 268
L 414 268
L 414 268
L 414 268
L 414 268
L 414 268
L 414 268
L 414 268
L 414 267
L 414 267
L 414 267
L 414 267
L 414 267
L 414 267
L 414 267
L 414 267
L 414 267
L 414 267
L 414 267
L 414 267
L 414 267
L 414 267
L 414 267
L 414 267
L 414 267
L 414 267
L 414 267
L 414 267
L 414 267
L 414 267
L 414 267
L 414 266
L 414 266
L 414 266
L 414 266
L 414 266
L 414 266
L 414 266
L 414 266
L 414 266
L 415 266
L 415 266
L 415 266
L 415 266
L 415 266
L 415 266
L 415 266
L 415 266
L 415 266
L 415 266
L 415 266
L 415 266
L 415 266
L 415 266
L 415 266
L 415 265
L 415 265
L 415 265
L 416 265
L 416 265
L 416 265
L 416 265
L 416 265
L 416 265
L 416 265
L 416 265
L 416 265
L 416 265
L 416 265
L 416 265
L 416 265
L 416 265
L 416 265
L 416 265
L 416 265
L 416 265
L 416 265
L 416 265
L 416 264
L 416 264
L 416 264
L 416 264
L 416 264
L 416 264
L 416 264
L 416 264
L 416 264
L 416 264
L 416 264
L 416 264
L 416 264
L 416 264
L 416 264
L 416 264
L 416 264
L 416 264
L 416 264
L 416 264
L 416 264
L 417 264
L 417 264
L 417 263
L 417 263
L 417 263
L 417 263
L 417 263
L 417 263
L 417 263
L 417 263
L 417 263
L 417 263
L 417 263
L 417 263
L 417 263
L 417 263
L 417 263
L 417 263
L 417 263
L 417 263
L 417 263
L 417 263
L 417 263
L 417 263
L 417 263
L 417 262
L 417 262
L 417 262
L 417 262
L 417 262
L 417 262
L 417 262
L 417 262
L 417 262
L 417 262
L 418 262
L 418 262
L 418 262
L 418 262
L 418 262
L 418 262
L 418 262
L 418 262
L 418 262
L 418 262
L 418 262
L 418 262
L 418 262
L 418 261
L 418 261
L 418 261
L 418 261
L 418 261
L 418 261
L 418 261
L 418 261
L 418 261
L 418 261
L 418 261
L 419 261
L 419 261
L 419 261
L 419 261
L 419 261
L 419 261
L 419 261
L 419 261
L 419 261
L 419 261
L 419 261
L 419 261
L 419 261
L 419 260
L 419 260
L 419 260
L 419 260
L 419 260
L 419 260
L 420 260
L 420 260
L 420 260
L 420 260
L 420 260
L 420 260
L 420 260
L 420 260
L 421 260
L 421 260
L 421 260
L 422 260
L 424 260
L 424 260
L 424 260
L 424 260
L 424 260
L 424 259
L 424 259
L 424 259
L 424 259
L 424 259
L 424 259
L 424 259
L 424 259
L 424 259
L 424 259
L 424 259
L 424 259
L 424 259
L 424 259
L 424 259
L 424 259
L 424 259
L 424 259
L 424 259
L 424 259
L 425 259
L 425 259
L 425 259
L 425 258
L 425 258
L 425 258
L 425 258
L 425 258
L 425 258
L 425 258
L 425 258
L 425 258
L 425 258
L 425 258
L 425 258
L 425 258
L 425 258
L 425 258
L 425 258
L 425 258
L 425 258
L 425 258
L 425 258
L 425 258
L 425 258
L 425 258
L 425 257
L 425 257
L 425 257
L 425 257
L 425 257
L 425 257
L 425 257
L 425 257
L 425 257
L 425 257
L 425 257
L 425 257
L 425 257
L 425 257
L 425 257
L 425 257
L 425 257
L 425 257
L 425 257
L 425 257
L 425 257
L 425 257
L 425 257
L 425 257
L 425 256
L 425 256
L 425 256
L 425 256
L 425 256
L 425 256
L 425 256
L 426 256
L 426 256
L 426 256
L 426 256
L 426 256
L 426 256
L 426 256
L 426 256
L 426 256
L 426 256
L 426 256
L 426 256
L 426 256
L 426 256
L 426 256
L 426 256
L 426 255
L 426 255
L 426 255
L 426 255
L 426 255
L 426 255
L 426 255
L 426 255
L 426 255
L 426 255
L 426 255
L 426 255
L 427 255
L 427 255
L 427 255
L 427 255
L 427 255
L 427 255
L 427 255
L 427 255
L 427 255
L 427 255
L 427 255
L 427 254
L 427 254
L 427 254
L 427 254
L 427 254
L 427 254
L 427 254
L 427 254
L 427 254
L 427 254
L 427 254
L 427 254
L 427 254
L 427 254
L 427 254
L 427 254
L 427 254
L 427 254
L 427 254
L 427 254
L 427 254
L 427 254
L 427 254
L 427 253
L 427 253
L 427 253
L 427 253
L 427 253
L 427 253
L 427 253
L 427 253
L 427 253
L 427 253
L 427 253
L 427 253
L 427 253
L 427 253
L 427 253
L 427 253
L 427 253
L 427 253
L 427 253
L 427 253
L 427 253
L 427 253
L 427 253
L 427 253
L 427 252
L 427 252
L 428 252
L 428 252
L 428 252
L 428 252
L 428 252
L 428 252
L 428 252
L 428 252
L 428 252
L 428 252
L 428 252
L 428 252
L 428 252
L 428 252
L 428 252
L 428 252
L 428 252
L 428 252
L 428 252
L 428 252
L 428 252
L 428 251
L 428 251
L 428 251
L 428 251
L 428 251
L 428 251
L 428 251
L 428 251
L 428 251
L 428 251
L 428 251
L 428 251
L 428 251
L 428 251
L 428 251
L 428 251
L 428 251
L 428 251
L 428 251
L 428 251
L 428 251
L 428 251
L 428 251
L 429 250
L 429 250
L 429 250
L 429 250
L 429 250
L 429 250
L 429 250
L 429 250
L 429 250
L 429 250
L 429 250
L 429 250
L 429 250
L 429 250
L 429 250
L 429 250
L 429 250
L 429 250
L 429 250
L 429 250
L 429 250
L 430 250
L 430 250
L 430 249
L 430 249
L 430 249
L 430 249
L 430 249
L 430 249
L 430 249
L 430 249
L 430 249
L 430 249
L 430 249
L 430 249
L 430 249
L 431 249
L 431 249
L 431 249
L 431 249
L 431 249
L 431 249
L 431 249
L 431 249
L 431 249
L 431 249
L 431 249
L 431 248
L 431 248
L 431 248
L 431 248
L 431 248
L 431 248
L 431 248
L 432 248
L 433 248
L 433 248
L 433 248
L 433 248
L 435 248
L 435 248
L 435 248
L 435 248
L 435 248
L 435 248
L 435 248
L 435 248
L 435 248
L 435 248
L 435 248
L 435 247
L 435 247
L 435 247
L 435 247
L 435 247
L 435 247
L 435 247
L 435 247
L 435 247
L 435 247
L 435 247
L 435 247
L 435 247
L 435 247
L 436 247
L 436 247
L 436 247
L 436 247
L 436 247
L 436 247
L 436 247
L 436 247
L 436 247
L 436 246
L 436 246
L 436 246
L 436 246
L 436 246
L 436 246
L 436 246
L 436 246
L 436 246
L 436 246
L 436 246
L 436 246
L 436 246
L 436 246
L 436 246
L 436 246
L 436 246
L 436 246
L 436 246
L 436 246
L 436 246
L 436 246
L 436 246
L 436 245
L 436 245
L 436 245
L 436 245
L 436 245
L 436 245
L 436 245
L 436 245
L 436 245
L 436 245
L 436 245
L 436 245
L 436 245
L 436 245
L 436 245
L 436 245
L 436 245
L 436 245
L 436 245
L 436 245
L 436 245
L 436 245
L 436 245
L 436 244
L 436 244
L 436 244
L 436 244
L 436 244
L 436 244
L 436 244
L 436 244
L 436 244
L 436 244
L 436 244
L 436 244
L 436 244
L 436 244
L 436 244
L 436 244
L 436 244
L 436 244
L 436 244
L 436 244
L 437 244
L 437 244
L 437 244
L 437 244
L 437 243
L 437 243
L 437 243
L 437 243
L 437 243
L 437 243
L 437 243
L 437 243
L 437 243
L 437 243
L 437 243
L 437 243
L 437 243
L 437 243
L 437 243
L 437 243
L 437 243
L 437 243
L 437 243
L 437 243
L 437 243
L 437 243
L 437 243
L 437 242
L 437 242
L 437 242
L 437 242
L 438 242
L 438 242
L 438 242
L 438 242
L 438 242
L 438 242
L 438 242
L 438 242
L 438 242
L 438 242
L 438 242
L 438 242
L 438 242
L 438 242
L 438 242
L 438 242
L 438 242
L 438 242
L 438 242
L 438 241
L 438 241
L 438 241
L 438 241
L 438 241
L 438 241
L 438 241
L 438 241
L 438 241
L 438 241
L 438 241
L 438 241
L 438 241
L 438 241
L 438 241
L 438 241
L 438 241
L 438 241
L 438 241
L 438 241
L 438 241
L 438 241
L 438 241
L 438 240
L 438 240
L 438 240
L 438 240
L 438 240
L 438 240
L 438 240
L 438 240
L 438 240
L 438 240
L 438 240
L 438 240
L 438 240
L 438 240
L 438 240
L 438 240
L 438 240
L 438 240
L 438 240
L 438 240
L 438 240
L 438 240
L 438 240
L 439 240
L 439 239
L 439 239
L 439 239
L 439 239
L 439 239
L 439 239
L 439 239
L 439 239
L 439 239
L 439 239
L 439 239
L 439 239
L 439 239
L 439 239
L 439 239
L 439 239
L 439 239
L 439 239
L 439 239
L 439 239
L 439 239
L 439 239
L 439 239
L 439 238
L 439 238
L 439 238
L 439 238
L 439 238
L 439 238
L 440 238
L 440 238
L 440 238
L 440 238
L 440 238
L 440 238
L 440 238
L 440 238
L 440 238
L 440 238
L 440 238
L 440 238
L 440 238
L 440 238
L 440 238
L 440 238
L 440 238
L 440 237
L 441 237
L 441 237
L 441 237
L 441 237
L 441 237
L 441 237
L 441 237
L 441 237
L 441 237
L 441 237
L 441 237
L 441 237
L 441 237
L 441 237
L 441 237
L 441 237
L 442 237
L 442 237
L 442 237
L 442 237
L 442 237
L 442 237
L 442 236
L 442 236
L 442 236
L 442 236
L 442 236
L 442 236
L 442 236
L 443 236
L 443 236
L 443 236
L 445 236
L 445 236
L 445 236
L 445 236
L 446 236
L 446 236
L 446 236
L 446 236
L 446 236
L 446 236
L 447 236
L 447 236
L 447 236
L 447 236
L 447 235
L 447 235
L 447 235
L 447 235
L 447 235
L 447 235
L 447 235
L 447 235
L 447 235
L 447 235
L 447 235
L 447 235
L 448 235
L 448 235
L 448 235
L 448 235
L 448 235
L 448 235
L 448 235
L 448 235
L 448 235
L 448 235
L 448 235
L 448 234
L 449 234
L 449 234
L 449 234
L 449 234
L 449 234
L 449 234
L 449 234
L 449 234
L 449 234
L 450 234
L 450 234
L 450 234
L 450 234
L 450 234
L 450 234
L 450 234
L 451 234
L 451 234
L 451 234
L 451 234
L 451 234
L 451 234
L 452 233
L 452 233
L 452 233
L 452 233
L 452 233
L 452 233
L 452 233
L 452 233
L 452 233
L 452 233
L 453 233
L 453 233
L 453 233
L 453 233
L 453 233
L 453 233
L 453 233
L 453 233
L 453 233
L 454 233
L 454 233
L 454 233
L 455 233
L 455 232
L 455 232
L 455 232
L 456 232
L 456 232
L 456 232
L 456 232
L 457 232
L 457 232
L 457 232
L 457 232
L 457 232
L 458 232
L 458 232
L 458 232
L 458 232
L 458 232
L 458 232
L 458 232
L 458 232
L 458 232
L 458 232
L 459 232
L 459 232
L 459 231
L 459 231
L 459 231
L 459 231
L 460 231
L 460 231
L 460 231
L 460 231
L 460 231
L 460 231
L 460 231
L 460 231
L 460 231
L 460 231
L 461 231
L 461 231
L 461 231
L 461 231
L 461 231
L 461 231
L 462 231
L 462 231
L 462 231
L 462 230
L 462 230
L 462 230
L 462 230
L 463 230
L 463 230
L 463 230
L 463 230
L 463 230
L 463 230
L 463 230
L 463 230
L 464 230
L 464 230
L 464 230
L 464 230
L 464 230
L 464 230
L 464 230
L 464 230
L 464 230
L 464 230
L 465 230
L 465 229
L 465 229
L 465 229
L 465 229
L 465 229
L 466 229
L 467 229
L 467 229
L 468 229
L 468 229
L 468 229
L 469 229
L 469 229
L 469 229
L 469 229
L 469 229
L 469 229
L 469 229
L 469 229
L 469 229
L 470 229
L 470 229
L 470 229
L 470 228
L 470 228
L 470 228
L 470 228
L 470 228
L 471 228
L 471 228
L 471 228
L 471 228
L 471 228
L 471 228
L 471 228
L 471 228
L 471 228
L 471 228
L 471 228
L 472 228
L 472 228
L 472 228
L 472 228
L 472 228
L 472 228
L 472 228
L 472 227
L 472 227
L 472 227
L 473 227
L 473 227
L 473 227
L 473 227
L 473 227
L 473 227
L 473 227
L 473 227
L 473 227
L 473 227
L 473 227
L 473 227
L 473 227
L 473 227
L 473 227
L 473 227
L 474 227
L 474 227
L 474 227
L 474 227
L 474 227
L 474 226
L 474 226
L 474 226
L 474 226
L 474 226
L 474 226
L 475 226
L 475 226
L 475 226
L 475 226
L 475 226
L 475 226
L 475 226
L 475 226
L 475 226
L 475 226
L 476 226
L 476 226
L 476 226
L 476 226
L 476 226
L 479 226
L 479 226
L 479 225
L 479 225
L 479 225
L 480 225
L 480 225
L 480 225
L 480 225
L 480 225
L 480 225
L 480 225
L 480 225
L 480 225
L 480 225
L 480 225
L 480 225
L 480 225
L 480 225
L 480 225
L 480 225
L 480 225
L 480 225
L 480 225
L 480 225
L 480 224
L 480 224
L 480 224
L 480 224
L 480 224
L 480 224
L 480 224
L 480 224
L 480 224
L 480 224
L 480 224
L 480 224
L 480 224
L 480 224
L 480 224
L 480 224
L 480 224
L 480 224
L 480 224
L 480 224
L 480 224
L 480 224
L 480 224
L 480 223
L 480 223
L 480 223
L 480 223
L 480 223
L 480 223
L 480 223
L 481 223
L 481 223
L 481 223
L 481 223
L 481 223
L 481 223
L 481 223
L 481 223
L 481 223
L 481 223
L 481 223
L 481 223
L 481 223
L 481 223
L 481 223
L 481 223
L 481 223
L 481 222
L 481 222
L 481 222
L 481 222
L 481 222
L 482 222
L 482 222
L 482 222
L 482 222
L 482 222
L 482 222
L 482 222
L 482 222
L 482 222
L 482 222
L 482 222
L 482 222
L 482 222
L 482 222
L 482 222
L 482 222
L 482 222
L 482 222
L 482 221
L 482 221
L 482 221
L 482 221
L 482 221
L 482 221
L 482 221
L 482 221
L 482 221
L 482 221
L 482 221
L 482 221
L 482 221
L 482 221
L 482 221
L 482 221
L 482 221
L 482 221
L 482 221
L 482 221
L 482 221
L 483 221
L 483 221
L 483 220
L 483 220
L 483 220
L 483 220
L 483 220
L 483 220
L 483 220
L 483 220
L 483 220
L 483 220
L 483 220
L 483 220
L 483 220
L 483 220
L 483 220
L 483 220
L 483 220
L 483 220
L 483 220
L 483 220
L 483 220
L 483 220
L 483 220
L 483 219
L 483 219
L 483 219
L 483 219
L 483 219
L 483 219
L 483 219
L 483 219
L 483 219
L 484 219
L 484 219
L 484 219
L 484 219
L 484 219
L 484 219
L 484 219
L 484 219
L 484 219
L 484 219
L 484 219
L 484 219
L 484 219
L 484 219
L 484 219
L 485 218
L 485 218
L 485 218
L 485 218
L 485 218
L 485 218
L 485 218
L 485 218
L 485 218
L 485 218
L 485 218
L 485 218
L 485 218
L 485 218
L 485 218
L 485 218
L 485 218
L 485 218
L 485 218
L 485 218
L 485 218
L 485 218
L 486 218
L 486 217
L 486 217
L 486 217
L 486 217
L 486 217
L 486 217
L 486 217
L 486 217
L 486 217
L 486 217
L 486 217
L 486 217
L 486 217
L 486 217
L 486 217
L 486 217
L 486 217
L 486 217
L 486 217
L 486 217
L 487 217
L 487 217
L 487 217
L 487 216
L 487 216
L 487 216
L 488 216
L 488 216
L 488 216
L 489 216
L 490 216
L 490 216
L 490 216
L 490 216
L 490 216
L 490 216
L 490 216
L 490 216
L 490 216
L 490 216
L 490 216
L 491 216
L 491 216
L 491 216
L 491 216
L 491 216
L 491 215
L 491 215
L 491 215
L 491 215
L 491 215
L 491 215
L 491 215
L 491 215
L 491 215
L 491 215
L 491 215
L 491 215
L 491 215
L 491 215
L 491 215
L 491 215
L 491 215
L 491 215
L 491 215
L 491 215
L 491 215
L 491 215
L 491 215
L 491 215
L 491 214
L 491 214
L 491 214
L 491 214
L 491 214
L 491 214
L 491 214
L 491 214
L 491 214
L 491 214
L 491 214
L 491 214
L 491 214
L 491 214
L 491 214
L 491 214
L 491 214
L 491 214
L 491 214
L 491 214
L 491 214
L 491 214
L 491 214
L 491 213
L 491 213
L 492 213
L 492 213
L 492 213
L 492 213
L 492 213
L 492 213
L 492 213
L 492 213
L 492 213
L 492 213
L 492 213
L 492 213
L 492 213
L 492 213
L 492 213
L 492 213
L 492 213
L 492 213
L 492 213
L 493 213
L 493 213
L 493 212
L 493 212
L 493 212
L 493 212
L 493 212
L 493 212
L 493 212
L 493 212
L 493 212
L 493 212
L 493 212
L 493 212
L 493 212
L 493 212
L 493 212
L 493 212
L 493 212
L 493 212
L 493 212
L 493 212
L 493 212
L 493 212
L 493 212
L 493 211
L 493 211
L 493 211
L 493 211
L 493 211
L 493 211
L 493 211
L 493 211
L 493 211
L 493 211
L 494 211
L 494 211
L 494 211
L 494 211
L 494 211
L 494 211
L 494 211
L 494 211
L 494 211
L 494 211
L 494 211
L 494 211
L 494 211
L 494 210
L 494 210
L 494 210
L 494 210
L 494 210
L 494 210
L 494 210
L 494 210
L 494 210
L 494 210
L 494 210
L 494 210
L 494 210
L 494 210
L 494 210
L 494 210
L 494 210
L 494 210
L 494 210
L 494 210
L 494 210
L 494 210
L 494 210
L 494 210
L 494 209
L 494 209
L 494 209
L 494 209
L 494 209
L 494 209
L 494 209
L 494 209
L 494 209
L 494 209
L 494 209
L 494 209
L 494 209
L 494 209
L 495 209
L 495 209
L 495 209
L 495 209
L 495 209
L 495 209
L 495 209
L 495 209
L 495 209
L 495 208
L 495 208
L 495 208
L 495 208
L 495 208
L 495 208
L 495 208
L 495 208
L 495 208
L 495 208
L 495 208
L 495 208
L 495 208
L 495 208
L 495 208
L 495 208
L 495 208
L 495 208
L 495 208
L 495 208
L 495 208
L 495 208
L 495 208
L 495 207
L 495 207
L 495 207
L 495 207
L 495 207
L 495 207
L 496 207
L 496 207
L 496 207
L 496 207
L 496 207
L 496 207
L 496 207
L 496 207
L 496 207
L 496 207
L 496 207
L 496 207
L 496 207
L 496 207
L 496 207
L 496 207
L 496 207
L 496 206
L 496 206
L 496 206
L 496 206
L 496 206
L 497 206
L 497 206
L 497 206
L 497 206
L 497 206
L 497 206
L 497 206
L 497 206
L 497 206
L 497 206
L 497 206
L 497 206
L 497 206
L 497 206
L 497 206
L 497 206
L 497 206
L 497 206
L 497 206
L 497 205
L 497 205
L 497 205
L 497 205
L 498 205
L 498 205
L 498 205
L 498 205
L 498 205
L 498 205
L 498 205
L 498 205
L 499 205
L 499 205
L 500 205
L 500 205
L 501 205
L 501 205
L 501 205
L 501 205
L 501 205
L 501 205
L 501 205
L 501 204
L 501 204
L 501 204
L 502 204
L 502 204
L 502 204
L 502 204
L 502 204
L 502 204
L 502 204
L 502 204
L 502 204
L 502 204
L 502 204
L 502 204
L 502 204
L 502 204
L 502 204
L 502 204
L 502 204
L 502 204
L 502 204
L 502 204
L 502 203
L 502 203
L 502 203
L 502 203
L 502 203
L 502 203
L 502 203
L 502 203
L 502 203
L 502 203
L 502 203
L 502 203
L 502 203
L 502 203
L 503 203
L 503 203
L 503 203
L 503 203
L 503 203
L 503 203
L 503 203
L 503 203
L 503 203
L 503 202
L 503 202
L 503 202
L 503 202
L 503 202
L 503 202
L 503 202
L 503 202
L 503 202
L 503 202
L 503 202
L 503 202
L 503 202
L 503 202
L 503 202
L 504 202
L 504 202
L 504 202
L 504 202
L 504 202
L 504 202
L 504 202
L 504 202
L 504 202
L 504 201
L 504 201
L 504 201
L 504 201
L 504 201
L 504 201
L 504 201
L 504 201
L 504 201
L 504 201
L 504 201
L 504 201
L 504 201
L 504 201
L 505 201
L 505 201
L 505 201
L 505 201
L 505 201
L 505 201
L 505 201
L 505 201
L 505 201
L 505 200
L 505 200
L 505 200
L 505 200
L 505 200
L 505 200
L 505 200
L 505 200
L 505 200
L 505 200
L 505 200
L 505 200
L 505 200
L 505 200
L 505 200
L 505 200
L 505 200
L 505 200
L 505 200
L 505 200
L 505 200
L 505 200
L 505 200
L 505 199
L 505 199
L 505 199
L 505 199
L 505 199
L 505 199
L 505 199
L 505 199
L 505 199
L 505 199
L 505 199
L 506 199
L 506 199
L 506 199
L 506 199
L 506 199
L 506 199
L 506 199
L 506 199
L 506 199
L 506 199
L 506 199
L 506 199
L 506 198
L 506 198
L 506 198
L 506 198
L 506 198
L 506 198
L 507 198
L 507 198
L 507 198
L 507 198
L 507 198
L 507 198
L 507 198
L 507 198
L 507 198
L 507 198
L 507 198
L 507 198
L 507 198
L 507 198
L 507 198
L 507 198
L 507 198
L 508 198
L 508 197
L 508 197
L 508 197
L 508 197
L 508 197
L 508 197
L 508 197
L 508 197
L 508 197
L 508 197
L 508 197
L 508 197
L 508 197
L 509 197
L 509 197
L 509 197
L 509 197
L 509 197
L 510 197
L 510 197
L 511 197
L 511 197
L 511 197
L 511 196
L 512 196
L 512 196
L 512 196
L 513 196
L 513 196
L 513 196
L 513 196
L 513 196
L 513 196
L 513 196
L 513 196
L 513 196
L 513 196
L 513 196
L 513 196
L 513 196
L 513 196
L 513 196
L 513 196
L 513 196
L 513 196
L 513 196
L 513 195
L 514 195
L 514 195
L 514 195
L 514 195
L 514 195
L 514 195
L 514 195
L 514 195
L 514 195
L 514 195
L 514 195
L 514 195
L 514 195
L 514 195
L 514 195
L 514 195
L 514 195
L 514 195
L 514 195
L 515 195
L 515 195
L 515 195
L 515 194
L 515 194
L 515 194
L 515 194
L 515 194
L 515 194
L 515 194
L 515 194
L 515 194
L 515 194
L 515 194
L 516 194
L 516 194
L 516 194
L 516 194
L 516 194
L 516 194
L 516 194
L 516 194
L 516 194
L 516 194
L 517 194
L 517 194
L 517 193
L 517 193
L 517 193
L 517 193
L 517 193
L 517 193
L 517 193
L 517 193
L 518 193
L 518 193
L 518 193
L 518 193
L 518 193
L 518 193
L 518 193
L 518 193
L 518 193
L 518 193
L 518 193
L 518 193
L 518 193
L 518 193
L 519 193
L 519 193
L 519 192
L 519 192
L 519 192
L 519 192
L 519 192
L 520 192
L 520 192
L 520 192
L 520 192
L 520 192
L 520 192
L 520 192
L 524 192
L 524 192
L 524 192
L 524 192
L 525 192
L 525 192
L 525 192
L 525 192
L 525 192
L 525 192
L 525 192
L 525 191
L 525 191
L 525 191
L 525 191
L 526 191
L 526 191
L 526 191
L 526 191
L 526 191
L 526 191
L 526 191
L 527 191
L 527 191
L 527 191
L 527 191
L 527 191
L 527 191
L 527 191
L 527 191
L 527 191
L 527 191
L 527 191
L 527 191
L 527 190
L 528 190
L 528 190
L 528 190
L 528 190
L 528 190
L 528 190
L 528 190
L 528 190
L 528 190
L 528 190
L 528 190
L 528 190
L 528 190
L 528 190
L 529 190
L 529 190
L 529 190
L 529 190
L 529 190
L 529 190
L 530 190
L 530 190
L 530 189
L 530 189
L 530 189
L 530 189
L 530 189
L 530 189
L 530 189
L 530 189
L 530 189
L 530 189
L 530 189
L 530 189
L 530 189
L 530 189
L 530 189
L 530 189
L 530 189
L 531 189
L 531 189
L 531 189
L 531 189
L 531 189
L 531 189
L 531 189
L 531 188
L 531 188
L 532 188
L 532 188
L 533 188
L 533 188
L 533 188
L 534 188
L 534 188
L 534 188
L 534 188
L 534 188
L 535 188
L 535 188
L 535 188
L 535 188
L 535 188
L 535 188
L 535 188
L 535 188
L 535 188
L 535 188
L 535 188
L 535 187
L 535 187
L 535 187
L 535 187
L 535 187
L 535 187
L 535 187
L 535 187
L 535 187
L 535 187
L 535 187
L 535 187
L 535 187
L 535 187
L 535 187
L 535 187
L 535 187
L 535 187
L 535 187
L 536 187
L 536 187
L 536 187
L 536 187
L 536 186
L 536 186
L 536 186
L 536 186
L 536 186
L 536 186
L 536 186
L 536 186
L 536 186
L 536 186
L 536 186
L 536 186
L 536 186
L 536 186
L 536 186
L 536 186
L 536 186
L 536 186
L 536 186
L 537 186
L 537 186
L 537 186
L 537 186
L 537 185
L 537 185
L 537 185
L 537 185
L 537 185
L 537 185
L 537 185
L 537 185
L 537 185
L 537 185
L 537 185
L 537 185
L 537 185
L 537 185
L 538 185
L 538 185
L 538 185
L 538 185
L 538 185
L 538 185
L 538 185
L 538 185
L 538 185
L 538 185
L 538 184
L 538 184
L 538 184
L 538 184
L 538 184
L 538 184
L 538 184
L 538 184
L 538 184
L 539 184
L 539 184
L 539 184
L 539 184
L 539 184
L 539 184
L 539 184
L 539 184
L 539 184
L 539 184
L 539 184
L 539 184
L 539 184
L 539 184
L 539 183
L 539 183
L 540 183
L 540 183
L 540 183
L 540 183
L 540 183
L 540 183
L 540 183
L 540 183
L 540 183
L 540 183
L 540 183
L 540 183
L 540 183
L 540 183
L 540 183
L 541 183
L 541 183
L 541 183
L 541 183
L 541 183
L 541 183
L 541 182
L 541 182
L 541 182
L 541 182
L 541 182
L 541 182
L 542 182
L 542 182
L 542 182
L 542 182
L 542 182
L 542 182
L 544 182
L 545 182
L 545 182
L 546 182
L 546 182
L 546 182
L 546 182
L 546 182
L 546 182
L 546 182
L 546 182
L 546 181
L 546 181
L 546 181
L 546 181
L 546 181
L 546 181
L 546 181
L 546 181
L 546 181
L 547 181
L 547 181
L 547 181
L 547 181
L 547 181
L 547 181
L 547 181
L 547 181
L 547 181
L 547 181
L 547 181
L 547 181
L 547 181
L 547 181
L 547 181
L 547 180
L 547 180
L 547 180
L 547 180
L 547 180
L 548 180
L 548 180
L 548 180
L 548 180
L 548 180
L 548 180
L 548 180
L 548 180
L 548 180
L 548 180
L 548 180
L 548 180
L 548 180
L 548 180
L 548 180
L 548 180
L 548 180
L 548 180
L 549 179
L 549 179
L 549 179
L 549 179
L 549 179
L 549 179
L 549 179
L 549 179
L 549 179
L 549 179
L 549 179
L 549 179
L 549 179
L 549 179
L 549 179
L 549 179
L 549 179
L 549 179
L 549 179
L 549 179
L 549 179
L 549 179
L 549 179
L 549 178
L 549 178
L 549 178
L 549 178
L 549 178
L 550 178
L 550 178
L 550 178
L 550 178
L 550 178
L 550 178
L 550 178
L 550 178
L 550 178
L 550 178
L 550 178
L 550 178
L 550 178
L 550 178
L 550 178
L 550 178
L 550 178
L 550 178
L 550 177
L 550 177
L 550 177
L 550 177
L 551 177
L 551 177
L 551 177
L 551 177
L 551 177
L 551 177
L 551 177
L 551 177
L 551 177
L 551 177
L 551 177
L 551 177
L 551 177
L 551 177
L 551 177
L 551 177
L 551 177
L 551 177
L 551 177
L 551 176
L 551 176
L 552 176
L 552 176
L 552 176
L 552 176
L 552 176
L 552 176
L 552 176
L 552 176
L 552 176
L 552 176
L 552 176
L 552 176
L 552 176
L 552 176
L 552 176
L 553 176
L 553 176
L 553 176
L 553 176
L 553 176
L 553 176
L 554 176
L 555 175
L 557 175
L 557 175
L 557 175
L 557 175
L 557 175
L 557 175
L 557 175
L 557 175
L 557 175
L 557 175
L 557 175
L 557 175
L 557 175
L 557 175
L 557 175
L 557 175
L 557 175
L 557 175
L 557 175
L 557 175
L 557 175
L 557 175
L 557 174
L 557 174
L 558 174
L 558 174
L 558 174
L 558 174
L 558 174
L 558 174
L 558 174
L 558 174
L 558 174
L 558 174
L 558 174
L 558 174
L 558 174
L 558 174
L 558 174
L 558 174
L 558 174
L 558 174
L 558 174
L 558 174
L 558 174
L 558 173
L 558 173
L 558 173
L 558 173
L 558 173
L 559 173
L 559 173
L 559 173
L 559 173
L 559 173
L 559 173
L 559 173
L 559 173
L 559 173
L 559 173
L 559 173
L 559 173
L 559 173
L 559 173
L 559 173
L 559 173
L 559 173
L 559 173
L 559 172
L 559 172
L 559 172
L 559 172
L 559 172
L 560 172
L 560 172
L 560 172
L 560 172
L 560 172
L 560 172
L 560 172
L 560 172
L 560 172
L 560 172
L 560 172
L 560 172
L 560 172
L 560 172
L 560 172
L 560 172
L 560 172
L 560 172
L 560 172
L 561 171
L 561 171
L 561 171
L 561 171
L 561 171
L 561 171
L 561 171
L 561 171
L 561 171
L 561 171
L 561 171
L 561 171
L 561 171
L 561 171
L 561 171
L 561 171
L 562 171
L 562 171
L 562 171
L 562 171
L 562 171
L 562 171
L 562 171
L 562 170
L 563 170
L 563 170
L 563 170
L 563 170
L 563 170
L 563 170
L 563 170
L 563 170
L 563 170
L 563 170
L 563 170
L 563 170
L 563 170
L 563 170
L 563 170
L 563 170
L 563 170
L 564 170
L 564 170
L 564 170
L 564 170
L 564 170
L 564 169
L 564 169
L 564 169
L 564 169
L 564 169
L 564 169
L 564 169
L 564 169
L 565 169
L 567 169
L 567 169
L 567 169
L 568 169
L 568 169
L 568 169
L 568 169
L 568 169
L 568 169
L 568 169
L 568 169
L 568 169
L 568 169
L 568 169
L 568 168
L 568 168
L 568 168
L 568 168
L 568 168
L 568 168
L 568 168
L 568 168
L 568 168
L 568 168
L 568 168
L 568 168
L 568 168
L 568 168
L 568 168
L 568 168
L 568 168
L 568 168
L 568 168
L 568 168
L 568 168
L 568 168
L 568 168
L 568 168
L 568 167
L 568 167
L 568 167
L 568 167
L 568 167
L 568 167
L 568 167
L 568 167
L 568 167
L 568 167
L 568 167
L 568 167
L 568 167
L 568 167
L 568 167
L 568 167
L 568 167
L 568 167
L 568 167
L 568 167
L 568 167
L 568 167
L 568 167
L 568 166
L 568 166
L 568 166
L 568 166
L 568 166
L 568 166
L 568 166
L 568 166
L 568 166
L 568 166
L 569 166
L 569 166
L 569 166
L 569 166
L 569 166
L 569 166
L 569 166
L 569 166
L 569 166
L 569 166
L 569 166
L 569 166
L 569 166
L 569 165
L 569 165
L 569 165
L 569 165
L 569 165
L 569 165
L 569 165
L 569 165
L 569 165
L 569 165
L 569 165
L 569 165
L 569 165
L 569 165
L 569 165
L 569 165
L 569 165
L 569 165
L 569 165
L 569 165
L 569 165
L 569 165
L 570 165
L 570 164
L 570 164
L 570 164
L 570 164
L 570 164
L 570 164
L 570 164
L 570 164
L 570 164
L 570 164
L 570 164
L 570 164
L 570 164
L 570 164
L 570 164
L 570 164
L 570 164
L 570 164
L 570 164
L 570 164
L 570 164
L 570 164
L 570 164
L 570 163
L 570 163
L 570 163
L 570 163
L 570 163
L 570 163
L 570 163
L 570 163
L 571 163
L 571 163
L 571 163
L 571 163
L 571 163
L 571 163
L 571 163
L 571 163
L 571 163
L 571 163
L 571 163
L 571 163
L 571 163
L 571 163
L 571 163
L 571 163
L 571 162
L 571 162
L 571 162
L 571 162
L 571 162
L 571 162
L 571 162
L 571 162
L 571 162
L 571 162
L 571 162
L 571 162
L 571 162
L 571 162
L 571 162
L 571 162
L 571 162
L 571 162
L 571 162
L 571 162
L 571 162
L 571 162
L 571 162
L 571 161
L 571 161
L 571 161
L 571 161
L 571 161
L 571 161
L 572 161
L 572 161
L 572 161
L 572 161
L 572 161
L 572 161
L 572 161
L 572 161
L 572 161
L 572 161
L 572 161
L 572 161
L 572 161
L 572 161
L 572 161
L 572 161
L 572 161
L 572 160
L 572 160
L 572 160
L 572 160
L 572 160
L 572 160
L 572 160
L 572 160
L 572 160
L 572 160
L 572 160
L 572 160
L 572 160
L 573 160
L 573 160
L 573 160
L 573 160
L 573 160
L 573 160
L 573 160
L 573 160
L 573 160
L 573 160
L 573 159
L 573 159
L 573 159
L 573 159
L 573 159
L 573 159
L 573 159
L 573 159
L 573 159
L 573 159
L 573 159
L 573 159
L 573 159
L 573 159
L 573 159
L 573 159
L 573 159
L 573 159
L 573 159
L 574 159
L 574 159
L 574 159
L 574 159
L 574 159
L 574 158
L 574 158
L 574 158
L 574 158
L 574 158
L 574 158
L 574 158
L 574 158
L 574 158
L 574 158
L 574 158
L 574 158
L 574 158
L 574 158
L 574 158
L 574 158
L 574 158
L 574 158
L 574 158
L 575 158
L 575 158
L 575 158
L 575 158
L 575 157
L 575 157
L 575 157
L 575 157
L 575 157
L 575 157
L 575 157
L 575 157
L 575 157
L 576 157
L 576 157
L 576 157
L 577 157
L 577 157
L 577 157
L 577 157
L 578 157
L 578 157
L 578 157
L 579 157
L 579 157
L 579 157
L 579 157
L 579 156
L 579 156
L 579 156
L 579 156
L 579 156
L 579 156
L 579 156
L 579 156
L 579 156
L 579 156
L 579 156
L 579 156
L 579 156
L 579 156
L 579 156
L 579 156
L 579 156
L 579 156
L 579 156
L 579 156
L 579 156
L 579 156
L 580 156
L 580 155
L 580 155
L 580 155
L 580 155
L 580 155
L 580 155
L 580 155
L 580 155
L 580 155
L 580 155
L 580 155
L 580 155
L 580 155
L 580 155
L 580 155
L 580 155
L 580 155
L 580 155
L 580 155
L 580 155
L 580 155
L 580 155
L 580 155
L 580 155
L 581 154
L 581 154
L 581 154
L 581 154
L 581 154
L 581 154
L 581 154
L 581 154
L 581 154
L 581 154
L 581 154
L 581 154
L 581 154
L 581 154
L 581 154
L 581 154
L 581 154
L 581 154
L 581 154
L 581 154
L 581 154
L 581 154
L 581 154
L 581 153
L 581 153
L 581 153
L 581 153
L 581 153
L 581 153
L 581 153
L 581 153
L 581 153
L 582 153
L 582 153
L 582 153
L 582 153
L 582 153
L 582 153
L 582 153
L 582 153
L 582 153
L 582 153
L 582 153
L 582 153
L 582 153
L 582 153
L 582 152
L 582 152
L 582 152
L 582 152
L 582 152
L 582 152
L 582 152
L 582 152
L 582 152
L 582 152
L 582 152
L 582 152
L 582 152
L 582 152
L 582 152
L 582 152
L 582 152
L 582 152
L 582 152
L 583 152
L 583 152
L 583 152
L 583 152
L 583 151
L 583 151
L 583 151
L 583 151
L 583 151
L 583 151
L 583 151
L 583 151
L 583 151
L 583 151
L 583 151
L 583 151
L 583 151
L 583 151
L 583 151
L 583 151
L 583 151
L 583 151
L 583 151
L 583 151
L 584 151
L 584 151
L 584 151
L 584 151
L 584 150
L 584 150
L 584 150
L 584 150
L 584 150
L 584 150
L 584 150
L 585 150
L 585 150
L 585 150
L 585 150
L 585 150
L 585 150
L 585 150
L 585 150
L 585 150
L 585 150
L 585 150
L 585 150
L 586 150
L 586 150
L 586 150
L 586 150
L 586 149
L 586 149
L 586 149
L 586 149
L 586 149
L 586 149
L 587 149
L 587 149
L 587 149
L 587 149
L 590 149
L 590 149
L 591 149
L 591 149
L 591 149
L 591 149
L 591 149
L 591 149
L 591 149
L 591 149
L 591 149
L 591 149
L 591 149
L 591 148
L 591 148
L 592 148
L 592 148
L 592 148
L 592 148
L 592 148
L 593 148
L 593 148
L 593 148
L 593 148
L 593 148
L 593 148
L 593 148
L 593 148
L 593 148
L 593 148
L 593 148
L 593 148
L 593 148
L 594 148
L 594 148
L 594 148
L 594 147
L 594 147
L 594 147
L 594 147
L 594 147
L 594 147
L 595 147
L 595 147
L 595 147
L 595 147
L 596 147
L 596 147
L 596 147
L 597 147
L 597 147
L 597 147
L 597 147
L 597 147
L 598 147
L 598 147
L 598 147
L 599 147
L 601 147
L 601 147
L 602 146
L 602 146
L 602 146
L 602 146
L 603 146
L 603 146
L 603 146
L 603 146
L 603 146
L 603 146
L 603 146
L 604 146
L 604 146
L 604 146
L 604 146
L 604 146
L 604 146
L 604 146
L 604 146
L 605 146
L 605 146
L 605 146
L 606 146
L 606 145
L 606 145
L 606 145
L 606 145
L 606 145
L 606 145
L 606 145
L 606 145
L 607 145
L 607 145
L 607 145
L 607 145
L 607 145
L 607 145
L 607 145
L 608 145
L 608 145
L 608 145
L 608 145
L 609 145
L 612 145
L 612 145
L 612 145
L 612 144
L 612 144
L 612 144
L 612 144
L 612 144
L 612 144
L 613 144
L 613 144
L 613 144
L 613 144
L 613 144
L 613 144
L 613 144
L 613 144
L 613 144
L 613 144
L 613 144
L 613 144
L 613 144
L 613 144
L 613 144
L 613 144
L 613 144
L 613 143
L 613 143
L 613 143
L 613 143
L 614 143
L 614 143
L 614 143
L 614 143
L 614 143
L 614 143
L 614 143
L 614 143
L 614 143
L 614 143
L 615 143
L 615 143
L 615 143
L 615 143
L 615 143
L 615 143
L 615 143
L 615 143
L 615 143
L 615 142
L 615 142
L 615 142
L 615 142
L 615 142
L 615 142
L 616 142
L 616 142
L 616 142
L 616 142
L 616 142
L 616 142
L 616 142
L 616 142
L 616 142
L 616 142
L 616 142
L 616 142
L 616 142
L 616 142
L 616 142
L 616 142
L 616 142
L 616 142
L 616 141
L 617 141
L 617 141
L 617 141
L 617 141
L 617 141
L 617 141
L 617 141
L 617 141
L 617 141
L 618 141
L 618 141
L 618 141
L 618 141
L 618 141
L 618 141
L 618 141
L 618 141
L 618 141
L 618 141
L 618 141
L 618 141
L 618 141
L 618 140
L 618 140
L 619 140
L 619 140
L 619 140
L 619 140
L 619 140
L 619 140
L 619 140
L 619 140
L 619 140
L 619 140
L 619 140
L 619 140
L 620 140
L 620 140
L 621 140
L 621 140
L 623 140
L 623 140
L 623 140
L 623 140
L 623 140
L 623 139
L 624 139
L 624 139
L 624 139
L 624 139
L 624 139
L 624 139
L 624 139
L 624 139
L 624 139
L 624 139
L 624 139
L 624 139
L 624 139
L 624 139
L 624 139
L 624 139
L 624 139
L 624 139
L 624 139
L 624 139
L 624 139
L 624 139
L 624 138
L 624 138
L 624 138
L 624 138
L 624 138
L 624 138
L 624 138
L 624 138
L 624 138
L 624 138
L 624 138
L 624 138
L 624 138
L 624 138
L 624 138
L 624 138
L 624 138
L 624 138
L 624 138
L 624 138
L 624 138
L 624 138
L 624 138
L 624 138
L 624 137
L 624 137
L 624 137
L 624 137
L 624 137
L 624 137
L 624 137
L 624 137
L 624 137
L 624 137
L 624 137
L 624 137
L 624 137
L 624 137
L 624 137
L 624 137
L 624 137
L 624 137
L 624 137
L 625 137
L 625 137
L 625 137
L 625 137
L 625 136
L 625 136
L 625 136
L 625 136
L 625 136
L 625 136
L 625 136
L 625 136
L 625 136
L 625 136
L 625 136
L 625 136
L 625 136
L 625 136
L 625 136
L 625 136
L 625 136
L 625 136
L 625 136
L 625 136
L 625 136
L 625 136
L 625 136
L 625 135
L 625 135
L 625 135
L 626 135
L 626 135
L 626 135
L 626 135
L 626 135
L 626 135
L 626 135
L 626 135
L 626 135
L 626 135
L 626 135
L 626 135
L 626 135
L 626 135
L 626 135
L 626 135
L 626 135
L 626 135
L 626 135
L 626 135
L 626 134
L 626 134
L 626 134
L 626 134
L 626 134
L 626 134
L 626 134
L 627 134
L 627 134
L 627 134
L 627 134
L 627 134
L 627 134
L 627 134
L 627 134
L 627 134
L 627 134
L 627 134
L 627 134
L 627 134
L 627 134
L 627 134
L 627 134
L 627 134
L 627 133
L 627 133
L 627 133
L 627 133
L 627 133
L 627 133
L 627 133
L 627 133
L 627 133
L 627 133
L 627 133
L 627 133
L 627 133
L 628 133
L 628 133
L 628 133
L 628 133
L 628 133
L 628 133
L 628 133
L 628 133
L 628 133
L 628 133
L 628 132
L 628 132
L 628 132
L 628 132
L 628 132
L 628 132
L 628 132
L 628 132
L 628 132
L 628 132
L 628 132
L 628 132
L 628 132
L 628 132
L 629 132
L 629 132
L 629 132
L 629 132
L 629 132
L 629 132
L 629 132
L 629 132
L 629 132
L 629 131
L 629 131
L 629 131
L 629 131
L 629 131
L 629 131
L 629 131
L 629 131
L 629 131
L 630 131
L 630 131
L 630 131
L 630 131
L 630 131
L 631 131
L 631 131
L 631 131
L 631 131
L 632 131
L 633 131
L 634 131
L 634 131
L 634 131
L 634 130
L 634 130
L 634 130
L 634 130
L 634 130
L 634 130
L 635 130
L 635 130
L 635 130
L 635 130
L 635 130
L 635 130
L 635 130
L 635 130
L 635 130
L 635 130
L 635 130
L 635 130
L 635 130
L 635 130
L 635 130
L 635 130
L 635 130
L 635 130
L 635 129
L 635 129
L 635 129
L 635 129
L 635 129
L 635 129
L 635 129
L 635 129
L 635 129
L 635 129
L 635 129
L 635 129
L 635 129
L 635 129
L 635 129
L 635 129
L 635 129
L 635 129
L 635 129
L 635 129
L 635 129
L 635 129
L 635 129
L 635 128
L 635 128
L 635 128
L 635 128
L 635 128
L 635 128
L 635 128
L 635 128
L 635 128
L 635 128
L 635 128
L 635 128
L 635 128
L 635 128
L 635 128
L 635 128
L 635 128
L 635 128
L 635 128
L 635 128
L 635 128
L 636 128
L 636 128
L 636 127
L 636 127
L 636 127
L 636 127
L 636 127
L 636 127
L 636 127
L 636 127
L 636 127
L 636 127
L 636 127
L 636 127
L 636 127
L 636 127
L 636 127
L 636 127
L 636 127
L 636 127
L 636 127
L 636 127
L 636 127
L 636 127
L 636 127
L 636 126
L 636 126
L 636 126
L 636 126
L 637 126
L 637 126
L 637 126
L 637 126
L 637 126
L 637 126
L 637 126
L 637 126
L 637 126
L 637 126
L 637 126
L 637 126
L 637 126
L 637 126
L 637 126
L 637 126
L 637 126
L 637 126
L 637 126
L 637 125
L 637 125
L 637 125
L 637 125
L 637 125
L 637 125
L 637 125
L 637 125
L 637 125
L 637 125
L 637 125
L 637 125
L 637 125
L 637 125
L 637 125
L 637 125
L 637 125
L 637 125
L 637 125
L 637 125
L 638 125
L 638 125
L 638 125
L 638 125
L 638 124
L 638 124
L 638 124
L 638 124
L 638 124
L 638 124
L 638 124
L 638 124
L 638 124
L 638 124
L 638 124
L 638 124
L 638 124
L 638 124
L 638 124
L 638 124
L 638 124
L 638 124
L 638 124
L 638 124
L 638 124
L 638 124
L 638 124
L 638 123
L 638 123
L 638 123
L 638 123
L 638 123
L 638 123
L 638 123
L 638 123
L 638 123
L 638 123
L 638 123
L 638 123
L 639 123
L 639 123
L 639 123
L 639 123
L 639 123
L 639 123
L 639 123
L 639 123
L 639 123
L 639 123
L 639 123
L 639 122
L 639 122
L 639 122
L 639 122
L 639 122
L 639 122
L 639 122
L 639 122
L 639 122
L 639 122
L 640 122
L 640 122
L 640 122
L 640 122
L 640 122
L 640 122
L 640 122
L 640 122
L 640 122
L 640 122
L 641 122
L 641 122
L 641 122
L 641 121
L 641 121
L 641 121
L 641 121
L 641 121
L 641 121
L 641 121
L 641 121
L 641 121
L 642 121
L 642 121
L 642 121
L 642 121
L 644 121
L 644 121
L 644 121
L 645 121
L 645 121
L 645 121
L 645 121
L 645 121
L 645 121
L 646 121
L 646 121
L 646 120
L 646 120
L 646 120
L 646 120
L 646 120
L 646 120
L 646 120
L 646 120
L 646 120
L 646 120
L 646 120
L 646 120
L 646 120
L 646 120
L 646 120
L 646 120
L 646 120
L 646 120
L 646 120
L 646 120
L 646 120
L 646 120
L 646 120
L 646 119
L 646 119
L 646 119
L 646 119
L 646 119
L 646 119
L 646 119
L 646 119
L 646 119
L 646 119
L 646 119
L 646 119
L 646 119
L 647 119
L 647 119
L 647 119
L 647 119
L 647 119
L 647 119
L 647 119
L 647 119
L 647 119
L 647 119
L 647 118
L 647 118
L 647 118
L 647 118
L 647 118
L 647 118
L 647 118
L 647 118
L 647 118
L 647 118
L 647 118
L 647 118
L 647 118
L 647 118
L 647 118
L 647 118
L 647 118
L 648 118
L 648 118
L 648 118
L 648 118
L 648 118
L 648 118
L 648 117
L 648 117
L 648 117
L 648 117
L 648 117
L 648 117
L 648 117
L 648 117
L 648 117
L 648 117
L 648 117
L 648 117
L 648 117
L 648 117
L 648 117
L 648 117
L 648 117
L 648 117
L 648 117
L 648 117
L 649 117
L 649 117
L 649 117
L 649 117
L 649 116
L 649 116
L 649 116
L 649 116
L 649 116
L 649 116
L 649 116
L 649 116
L 649 116
L 649 116
L 649 116
L 649 116
L 649 116
L 649 116
L 649 116
L 649 116
L 649 116
L 649 116
L 649 116
L 649 116
L 649 116
L 649 116
L 650 116
L 650 115
L 650 115
L 650 115
L 650 115
L 650 115
L 650 115
L 650 115
L 650 115
L 650 115
L 650 115
L 650 115
L 650 115
L 650 115
L 650 115
L 650 115
L 651 115
L 651 115
L 651 115
L 651 115
L 651 115
L 651 115
L 652 115
L 652 115
L 652 114
L 652 114
L 652 114
L 652 114
L 652 114
L 652 114
L 652 114
L 652 114
L 652 114
L 652 114
L 653 114
L 653 114
L 653 114
L 653 114
L 653 114
L 654 114
L 656 114
L 656 114
L 656 114
L 656 114
L 656 114
L 656 114
L 657 114
L 657 113
L 657 113
L 657 113
L 657 113
L 657 113
L 657 113
L 657 113
L 657 113
L 657 113
L 657 113
L 657 113
L 657 113
L 657 113
L 657 113
L 657 113
L 657 113
L 657 113
L 657 113
L 657 113
L 657 113
L 657 113
L 657 113
L 657 113
L 657 113
L 657 112
L 657 112
L 657 112
L 657 112
L 657 112
L 657 112
L 658 112
L 658 112
L 658 112
L 658 112
L 658 112
L 658 112
L 658 112
L 658 112
L 658 112
L 658 112
L 658 112
L 658 112
L 658 112
L 658 112
L 658 112
L 658 112
L 658 112
L 658 111
L 658 111
L 659 111
L 659 111
L 659 111
L 659 111
L 659 111
L 659 111
L 659 111
L 659 111
L 659 111
L 659 111
L 659 111
L 659 111
L 659 111
L 659 111
L 659 111
L 659 111
L 659 111
L 659 111
L 659 111
L 660 111
L 660 111
L 660 110
L 660 110
L 660 110
L 660 110
L 660 110
L 660 110
L 660 110
L 660 110
L 660 110
L 660 110
L 660 110
L 660 110
L 660 110
L 660 110
L 660 110
L 660 110
L 660 110
L 660 110
L 660 110
L 660 110
L 660 110
L 661 110
L 661 110
L 661 109
L 661 109
L 661 109
L 661 109
L 661 109
L 661 109
L 661 109
L 661 109
L 661 109
L 661 109
L 661 109
L 661 109
L 661 109
L 661 109
L 661 109
L 661 109
L 662 109
L 662 109
L 662 109
L 662 109
L 662 109
L 662 109
L 663 109
L 663 108
L 663 108
L 663 108
L 663 108
L 663 108
L 663 108
L 664 108
L 666 108
L 668 108
L 668 108
L 668 108
L 668 108
L 669 108
L 669 108
L 669 108
L 669 108
L 669 108
L 669 108
L 670 108
L 670 108
L 670 108
L 670 108
L 670 108
L 670 108
L 670 107
L 671 107
L 671 107
L 671 107
L 671 107
L 671 107
L 671 107
L 672 107
L 672 107
L 672 107
L 673 107
L 673 107
L 673 107
L 673 107
L 673 107
L 673 107
L 673 107
L 673 107
L 673 107
L 673 107
L 673 107
L 673 107
L 673 107
L 673 106
L 673 106
L 674 106
L 674 106
L 674 106
L 674 106
L 674 106
L 674 106
L 674 106
L 674 106
L 674 106
L 674 106
L 674 106
L 674 106
L 675 106
L 675 106
L 675 106
L 675 106
L 675 106
L 675 106
L 675 106
L 675 106
L 675 106
L 675 105
L 676 105
L 676 105
L 678 105
L 678 105
L 679 105
L 679 105
L 679 105
L 679 105
L 679 105
L 680 105
L 680 105
L 680 105
L 680 105
L 680 105
L 680 105
L 680 105
L 681 105
L 681 105
L 681 105
L 681 105
L 681 105
L 681 105
L 681 104
L 682 104
L 683 104
L 684 104
L 684 104
L 684 104
L 684 104
L 684 104
L 684 104
L 684 104
L 684 104
L 684 104
L 684 104
L 685 104
L 685 104
L 685 104
L 685 104
L 685 104
L 685 104
L 685 104
L 685 104
L 685 104
L 685 104
L 685 104
L 686 103
L 686 103
L 686 103
L 688 103
L 688 103
L 689 103
L 689 103
L 690 103
L 690 103
L 690 103
L 690 103
L 690 103
L 690 103
L 690 103
L 690 103
L 690 103
L 690 103
L 690 103
L 690 103
L 690 103
L 690 103
L 690 103
L 690 103
L 690 102
L 690 102
L 690 102
L 690 102
L 690 102
L 690 102
L 690 102
L 690 102
L 690 102
L 691 102
L 691 102
L 691 102
L 691 102
L 691 102
L 691 102
L 691 102
L 691 102
L 691 102
L 691 102
L 691 102
L 691 102
L 691 102
L 691 102
L 691 101
L 691 101
L 691 101
L 692 101
L 692 101
L 692 101
L 692 101
L 692 101
L 692 101
L 692 101
L 692 101
L 692 101
L 692 101
L 692 101
L 692 101
L 692 101
L 692 101
L 692 101
L 692 101
L 692 101
L 692 101
L 692 101
L 692 101
L 692 100
L 693 100
L 693 100
L 693 100
L 693 100
L 693 100
L 693 100
L 693 100
L 693 100
L 693 100
L 693 100
L 693 100
L 693 100
L 693 100
L 693 100
L 693 100
L 693 100
L 693 100
L 693 100
L 693 100
L 693 100
L 693 100
L 693 100
L 693 100
L 693 99
L 693 99
L 693 99
L 693 99
L 693 99
L 693 99
L 694 99
L 694 99
L 694 99
L 694 99
L 694 99
L 694 99
L 694 99
L 694 99
L 694 99
L 694 99
L 694 99
L 694 99
L 694 99
L 694 99
L 694 99
L 695 99
L 695 99
L 695 98
L 695 98
L 695 98
L 695 98
L 695 98
L 695 98
L 695 98
L 695 98
L 695 98
L 696 98
L 696 98
L 696 98
L 696 98
L 696 98
L 696 98
L 696 98
L 697 98
L 697 98
L 697 98
L 697 98
L 699 98
L 700 98
L 700 98
L 700 97
L 701 97
L 701 97
L 701 97
L 701 97
L 701 97
L 701 97
L 701 97
L 701 97
L 701 97
L 701 97
L 701 97
L 701 97
L 701 97
L 701 97
L 702 97
L 702 97
L 702 97
L 702 97
L 702 97
L 702 97
L 702 97
L 702 97
L 702 96
L 702 96
L 702 96
L 702 96
L 702 96
L 702 96
L 702 96
L 702 96
L 702 96
L 702 96
L 702 96
L 702 96
L 702 96
L 702 96
L 702 96
L 702 96
L 702 96
L 703 96
L 703 96
L 703 96
L 703 96
L 703 96
L 703 96
L 703 96
L 703 95
L 703 95
L 703 95
L 703 95
L 703 95
L 703 95
L 703 95
L 703 95
L 703 95
L 703 95
L 703 95
L 703 95
L 704 95
L 704 95
L 704 95
L 704 95
L 704 95
L 704 95
L 704 95
L 704 95
L 704 95
L 704 95
L 704 95
L 704 94
L 704 94
L 704 94
L 704 94
L 704 94
L 704 94
L 704 94
L 704 94
L 705 94
L 705 94
L 705 94
L 705 94
L 705 94
L 705 94
L 705 94
L 705 94
L 705 94
L 705 94
L 705 94
L 705 94
L 705 94
L 705 94
L 705 94
L 705 93
L 705 93
L 705 93
L 705 93
L 705 93
L 705 93
L 705 93
L 705 93
L 705 93
L 706 93
L 706 93
L 706 93
L 706 93
L 706 93
L 706 93
L 706 93
L 706 93
L 706 93
L 706 93
L 706 93
L 706 93
L 706 93
L 706 93
L 706 92
L 706 92
L 706 92
L 706 92
L 707 92
L 707 92
L 707 92
L 707 92
L 707 92
L 707 92
L 707 92
L 707 92
L 707 92
L 707 92
L 707 92
L 707 92
L 707 92
L 707 92
L 707 92
L 707 92
L 707 92
L 707 92
L 708 92
L 708 91
L 708 91
L 708 91
L 708 91
L 708 91
L 708 91
L 708 91
L 708 91
L 709 91
L 709 91
L 709 91
L 709 91
L 709 91
L 710 91
L 710 91
L 712 91
L 712 91
L 712 91
L 712 91
L 712 91
L 712 91
L 712 91
L 712 91
L 712 91
L 712 90
L 712 90
L 712 90
L 712 90
L 712 90
L 712 90
L 712 90
L 712 90
L 712 90
L 712 90
L 712 90
L 712 90
L 712 90
L 712 90
L 712 90
L 712 90
L 712 90
L 712 90
L 712 90
L 712 90
L 712 90
L 712 90
L 712 90
L 712 89
L 713 89
L 713 89
L 713 89
L 713 89
L 713 89
L 713 89
L 713 89
L 713 89
L 713 89
L 713 89
L 713 89
L 713 89
L 713 89
L 713 89
L 713 89
L 713 89
L 713 89
L 713 89
L 713 89
L 713 89
L 713 89
L 713 89
L 714 88
L 714 88
L 714 88
L 714 88
L 714 88
L 714 88
L 714 88
L 714 88
L 714 88
L 714 88
L 714 88
L 714 88
L 714 88
L 714 88
L 714 88
L 714 88
L 714 88
L 714 88
L 714 88
L 714 88
L 714 88
L 714 88
L 714 88
L 714 87
L 714 87
L 714 87
L 714 87
L 714 87
L 714 87
L 714 87
L 714 87
L 714 87
L 714 87
L 715 87
L 715 87
L 715 87
L 715 87
L 715 87
L 715 87
L 715 87
L 715 87
L 715 87
L 715 87
L 715 87
L 715 87
L 715 87
L 715 87
L 715 86
L 715 86
L 715 86
L 715 86
L 715 86
L 715 86
L 715 86
L 715 86
L 715 86
L 715 86
L 715 86
L 715 86
L 715 86
L 715 86
L 715 86
L 715 86
L 715 86
L 715 86
L 715 86
L 715 86
L 716 86
L 716 86
L 716 86
L 716 85
L 716 85
L 716 85
L 716 85
L 716 85
L 716 85
L 716 85
L 716 85
L 716 85
L 716 85
L 716 85
L 716 85
L 716 85
L 716 85
L 716 85
L 716 85
L 716 85
L 716 85
L 716 85
L 716 85
L 716 85
L 716 85
L 716 85
L 716 84
L 716 84
L 716 84
L 716 84
L 716 84
L 716 84
L 716 84
L 716 84
L 716 84
L 716 84
L 716 84
L 717 84
L 717 84
L 717 84
L 717 84
L 717 84
L 717 84
L 717 84
L 717 84
L 717 84
L 717 84
L 717 84
L 717 84
L 717 83
L 718 83
L 718 83
L 718 83
L 718 83
L 718 83
L 718 83
L 718 83
L 718 83
L 718 83
L 718 83
L 718 83
L 719 83
L 719 83
L 719 83
L 719 83
L 719 83
L 719 83
L 719 83
L 719 83
L 720 83
L 720 83
L 721 83
L 722 83
L 722 82
L 723 82
L 723 82
L 723 82
L 723 82
L 723 82
L 723 82
L 723 82
L 723 82
L 723 82
L 723 82
L 723 82
L 723 82
L 723 82
L 723 82
L 723 82
L 723 82
L 723 82
L 723 82
L 723 82
L 723 82
L 723 82
L 723 82
L 724 81
L 724 81
L 724 81
L 724 81
L 724 81
L 724 81
L 724 81
L 724 81
L 724 81
L 724 81
L 724 81
L 724 81
L 724 81
L 724 81
L 724 81
L 724 81
L 724 81
L 724 81
L 724 81
L 724 81
L 724 81
L 724 81
L 724 81
L 724 80
L 725 80
L 725 80
L 725 80
L 725 80
L 725 80
L 725 80
L 725 80
L 725 80
L 725 80
L 725 80
L 725 80
L 725 80
L 725 80
L 725 80
L 725 80
L 725 80
L 725 80
L 725 80
L 725 80
L 726 80
L 726 80
L 726 80
L 726 79
L 726 79
L 726 79
L 726 79
L 726 79
L 726 79
L 726 79
L 726 79
L 726 79
L 726 79
L 726 79
L 726 79
L 726 79
L 726 79
L 726 79
L 726 79
L 726 79
L 726 79
L 726 79
L 726 79
L 726 79
L 726 79
L 726 79
L 726 79
L 726 78
L 726 78
L 727 78
L 727 78
L 727 78
L 727 78
L 727 78
L 727 78
L 727 78
L 727 78
L 727 78
L 727 78
L 727 78
L 727 78
L 727 78
L 727 78
L 727 78
L 727 78
L 727 78
L 727 78
L 727 78
L 727 78
L 727 78
L 727 77
L 727 77
L 727 77
L 727 77
L 727 77
L 727 77
L 727 77
L 727 77
L 728 77
L 728 77
L 728 77
L 729 77
L 729 77
L 729 77
L 729 77
L 729 77
L 729 77
L 730 77
L 730 77
L 730 77
L 730 77
L 730 77
L 730 77
L 730 76
L 730 76
L 731 76
L 731 76
L 732 76
L 732 76
L 733 76
L 734 76
L 734 76
L 734 76
L 734 76
L 734 76
L 734 76
L 734 76
L 734 76
L 734 76
L 734 76
L 734 76
L 735 76
L 735 76
L 735 76
L 735 76
L 735 76
L 735 75
L 735 75
L 735 75
L 735 75
L 735 75
L 735 75
L 735 75
L 735 75
L 735 75
L 735 75
L 735 75
L 735 75
L 735 75
L 735 75
L 735 75
L 735 75
L 735 75
L 735 75
L 735 75
L 735 75
L 736 75
L 736 75
L 736 75
L 736 74
L 736 74
L 736 74
L 736 74
L 736 74
L 736 74
L 737 74
L 737 74
L 737 74
L 737 74
L 737 74
L 737 74
L 737 74
L 737 74
L 737 74
L 737 74
L 737 74
L 737 74
L 737 74
L 737 74
L 737 74
L 737 74
L 737 74
L 737 74
L 737 73
L 737 73
L 737 73
L 737 73
L 737 73
L 738 73
L 738 73
L 738 73
L 738 73
L 738 73
L 738 73
L 738 73
L 738 73
L 738 73
L 738 73
L 738 73
L 738 73
L 738 73
L 738 73
L 738 73
L 738 73
L 738 73
L 738 73
L 738 72
L 738 72
L 738 72
L 738 72
L 738 72
L 738 72
L 738 72
L 738 72
L 738 72
L 738 72
L 738 72
L 739 72
L 739 72
L 739 72
L 739 72
L 739 72
L 739 72
L 739 72
L 739 72
L 739 72
L 740 72
L 740 72
L 740 72
L 740 71
L 740 71
L 741 71
L 741 71
L 741 71
L 742 71
L 742 71
L 744 71
L 745 71
L 745 71
L 746 71
L 746 71
L 746 71
L 746 71
L 746 71
L 746 71
L 746 71
L 746 71
L 746 71
L 746 71
L 746 71
L 747 71
L 747 71
L 748 70
L 748 70
L 748 70
L 748 70
L 748 70
L 748 70
L 749 70
L 749 70
L 749 70
L 750 70
L 750 70
L 750 70
L 750 70
L 750 70
L 750 70
L 751 70
L 752 70
L 752 70
L 752 70
L 752 70
L 752 70
L 752 70
L 753 70
L 753 70
L 753 69
L 754 69
L 756 69
L 756 69
L 757 69
L 757 69
L 757 69
L 757 69
L 757 69
L 757 69
L 757 69
L 757 69
L 757 69
L 758 69
L 758 69
L 758 69
L 759 69
L 759 69
L 759 69
L 759 69
L 759 69
L 759 69
L 760 69
L 760 68
L 760 68
L 760 68
L 760 68
L 760 68
L 760 68
L 760 68
L 760 68
L 760 68
L 761 68
L 761 68
L 761 68
L 762 68
L 762 68
L 762 68
L 763 68
L 763 68
L 763 68
L 763 68
L 764 68
L 764 68
L 766 68
L 767 68
L 767 67
L 767 67
L 767 67
L 768 67
L 768 67
L 768 67
L 768 67
L 768 67
L 768 67
L 768 67
L 768 67
L 768 67
L 768 67
L 768 67
L 768 67
L 768 67
L 768 67
L 768 67
L 768 67
L 768 67
L 769 67
L 769 67
L 769 67
L 769 66
L 769 66
L 770 66
L 770 66
L 770 66
L 770 66
L 770 66
L 770 66
L 770 66
L 770 66
L 770 66
L 770 66
L 770 66
L 770 66
L 770 66
L 770 66
L 770 66
L 770 66
L 770 66
L 770 66
L 770 66
L 770 66
L 770 66
L 770 66
L 771 65
L 771 65
L 771 65
L 771 65
L 771 65
L 771 65
L 771 65
L 771 65
L 771 65
L 771 65
L 771 65
L 771 65
L 771 65
L 771 65
L 771 65
L 771 65
L 771 65
L 772 65
L 772 65
L 772 65
L 772 65
L 772 65
L 772 65
L 772 64
L 772 64
L 772 64
L 772 64
L 772 64
L 773 64
L 773 64
L 773 64
L 773 64
L 773 64
L 773 64
L 773 64
L 774 64
L 774 64
L 774 64
L 774 64
L 774 64
L 775 64
L 775 64
L 775 64
L 775 64
L 775 64
L 777 64
L 778 63
L 778 63
L 778 63
L 779 63
L 779 63
L 779 63
L 779 63
L 779 63
L 779 63
L 779 63
L 779 63
L 779 63
L 779 63
L 779 63
L 779 63
L 779 63
L 779 63
L 779 63
L 779 63
L 779 63
L 779 63
L 779 63
L 780 63
L 780 62
L 780 62
L 780 62
L 780 62
L 780 62
L 780 62
L 780 62
L 780 62
L 780 62
L 780 62
L 781 62
L 781 62
L 781 62
L 781 62
L 781 62
L 781 62
L 781 62
L 781 62
L 781 62
L 781 62
L 781 62
L 781 62
L 781 62
L 781 62
L 781 61
L 781 61
L 782 61
L 782 61
L 782 61
L 782 61
L 782 61
L 782 61
L 782 61
L 782 61
L 782 61
L 782 61
L 782 61
L 782 61
L 782 61
L 782 61
L 782 61
L 783 61
L 783 61
L 783 61
L 783 61
L 784 61
L 784 61
L 784 60
L 784 60
L 784 60
L 785 60
L 785 60
L 785 60
L 785 60
L 785 60
L 785 60
L 788 60
L 789 60
L 789 60
L 789 60
L 789 60
L 790 60
L 790 60
L 790 60
L 790 60
L 790 60
L 790 60
L 790 60
L 790 60
L 790 60
L 790 59
L 791 59
L 791 59
L 791 59
L 791 59
L 792 59
L 792 59
L 792 59
L 792 59
L 792 59
L 792 59
L 792 59
L 792 59
L 792 59
L 792 59
L 792 59
L 792 59
L 793 59
L 793 59
L 793 59
L 793 59
L 793 59
L 793 59
L 793 58
L 793 58
L 793 58
L 793 58
L 793 58
L 793 58
L 793 58
L 793 58
L 793 58
L 794 58
L 794 58
L 794 58
L 794 58
L 794 58
L 795 58
L 795 58
L 795 58
L 795 58
L 795 58
L 795 58
L 795 58
L 797 58
L 797 58
L 797 57
L 797 57
L 798 57
L 801 57
L 801 57
L 801 57
L 801 57
L 801 57
L 801 57
L 801 57
L 801 57
L 801 57
L 801 57
L 801 57
L 802 57
L 802 57
L 802 57
L 802 57
L 802 57
L 802 57
L 803 57
L 803 57
L 803 57
L 803 57
L 803 56
L 803 56
L 803 56
L 803 56
L 803 56
L 803 56
L 804 56
L 804 56
L 804 56
L 804 56
L 804 56
L 804 56
L 804 56
L 804 56
L 804 56
L 804 56
L 804 56
L 804 56
L 804 56
L 805 56
L 805 56
L 805 56
L 805 56
L 805 55
L 805 55
L 805 55
L 806 55
L 807 55
L 807 55
L 807 55
L 809 55
L 810 55
L 811 55
L 812 55
L 812 55
L 812 55
L 812 55
L 812 55
L 812 55
L 812 55
L 812 55
L 812 55
L 812 55
L 812 55
L 812 55
L 812 55
L 812 54
L 812 54
L 812 54
L 813 54
L 813 54
L 813 54
L 813 54
L 813 54
L 813 54
L 813 54
L 813 54
L 813 54
L 813 54
L 813 54
L 813 54
L 813 54
L 813 54
L 813 54
L 813 54
L 813 54
L 813 54
L 813 54
L 813 54
L 813 53
L 813 53
L 813 53
L 813 53
L 813 53
L 813 53
L 813 53
L 813 53
L 813 53
L 813 53
L 813 53
L 813 53
L 813 53
L 813 53
L 814 53
L 814 53
L 814 53
L 814 53
L 814 53
L 814 53
L 814 53
L 814 53
L 814 53
L 814 53
L 814 52
L 814 52
L 814 52
L 814 52
L 814 52
L 814 52
L 814 52
L 814 52
L 814 52
L 814 52
L 814 52
L 814 52
L 814 52
L 814 52
L 814 52
L 814 52
L 814 52
L 814 52
L 814 52
L 814 52
L 814 52
L 814 52
L 814 52
L 814 51
L 814 51
L 814 51
L 814 51
L 814 51
L 814 51
L 814 51
L 814 51
L 814 51
L 814 51
L 815 51
L 815 51
L 815 51
L 815 51
L 815 51
L 815 51
L 815 51
L 815 51
L 815 51
L 815 51
L 815 51
L 815 51
L 815 51
L 815 50
L 815 50
L 815 50
L 815 50
L 815 50
L 815 50
L 815 50
L 815 50
L 815 50
L 815 50
L 815 50
L 815 50
L 815 50
L 815 50
L 815 50
L 815 50
L 815 50
L 815 50
L 816 50
L 816 50
L 816 50
L 816 50
L 816 50
L 816 49
L 816 49
L 816 49
L 816 49
L 816 49
L 816 49
L 816 49
L 816 49
L 816 49
L 816 49
L 816 49
L 816 49
L 816 49
L 816 49
L 816 49
L 816 49
L 816 49
L 816 49
L 816 49
L 816 49
L 816 49
L 817 49
L 817 49
L 817 49
L 817 48
L 817 48
L 817 48
L 817 48
L 817 48
L 817 48
L 817 48
L 817 48
L 817 48
L 817 48
L 818 48
L 818 48
L 818 48
L 818 48
L 818 48
L 818 48
L 818 48
L 818 48
L 818 48
L 818 48
L 818 48
L 818 48
L 818 48
L 818 47
L 818 47
L 819 47
L 819 47
L 819 47
L 819 47
L 819 47
L 819 47
L 820 47
L 820 47
L 821 47
L 821 47
L 821 47
L 822 47
L 822 47
L 822 47
L 822 47
L 823 47
L 823 47
L 823 47
L 823 47
L 823 47
L 823 47
L 823 46
L 823 46
L 823 46
L 823 46
L 823 46
L 823 46
L 823 46
L 823 46
L 823 46
L 823 46
L 823 46
L 823 46
L 823 46
L 823 46
L 823 46
L 823 46
L 823 46
L 823 46
L 823 46
L 823 46
L 823 46
L 823 46
L 824 46
L 824 45
L 824 45
L 824 45
L 824 45
L 824 45
L 824 45
L 824 45
L 824 45
L 824 45
L 824 45
L 824 45
L 824 45
L 824 45
L 824 45
L 825 45
L 825 45
L 825 45
L 825 45
L 825 45
L 825 45
L 825 45
L 825 45
L 825 45
L 825 45
L 825 44
L 825 44
L 825 44
L 825 44
L 825 44
L 825 44
L 825 44
L 825 44
L 825 44
L 825 44
L 825 44
L 825 44
L 825 44
L 825 44
L 826 44
L 826 44
L 826 44
L 826 44
L 826 44
L 826 44
L 826 44
L 826 44
L 826 44
L 826 43
L 826 43
L 826 43
L 826 43
L 826 43
L 826 43
L 826 43
L 826 43
L 826 43
L 827 43
L 827 43
L 827 43
L 827 43
L 828 43
L 828 43
L 828 43
L 828 43
L 828 43
L 828 43
L 828 43
L 828 43
L 829 43
L 829 43
L 829 42
L 829 42
L 829 42
L 829 42
L 829 42
L 829 42
L 830 42
L 830 42
L 830 42
L 831 42
L 834 42
L 834 42
L 834 42
L 834 42
L 835 42
L 835 42
L 835 42
L 835 42
L 835 42
L 835 42
L 835 42
L 836 42
L 836 42
L 836 41
L 836 41
L 836 41
L 836 41
L 836 41
L 836 41
L 837 41
L 837 41
L 837 41
L 837 41
L 837 41
L 837 41
L 837 41
L 837 41
L 837 41
L 837 41
L 837 41
L 838 41
L 838 41
L 838 41
L 838 41
L 839 41
L 839 41
L 839 40
L 839 40
L 839 40
L 839 40
L 839 40
L 840 40
L 840 40
L 840 40
L 840 40
L 840 40
L 840 40
L 840 40
L 841 40
L 841 40
L 841 40
L 842 40
L 844 40
L 845 40
L 845 40
L 845 40
L 846 40
L 846 40
L 846 40
L 846 40
L 847 39
L 847 39
L 847 39
L 848 39
L 848 39
L 848 39
L 848 39
L 849 39
L 850 39
L 851 39
L 851 39
L 851 39
L 852 39
L 854 39
L 854 39
L 857 39
L 857 39
L 858 39
L 858 39
L 858 39
L 858 39
L 860 39
L 861 39
L 861 38
L 861 38
L 862 38
L 862 38
L 862 38
L 862 38
L 862 38
L 862 38
L 862 38
L 862 38
L 862 38
L 862 38
L 863 38
L 863 38
L 863 38
L 864 38
L 867 38
L 868 38
L 868 38
L 868 38
L 869 38
L 869 38
L 869 38
L 869 37
L 870 37
L 871 37
L 871 37
L 871 37
L 871 37
L 871 37
L 872 37
L 873 37
L 873 37
L 873 37
L 873 37
L 873 37
L 873 37
L 873 37
L 874 37
L 874 37
L 876 37
L 878 37
L 878 37
L 879 37
L 880 37
L 880 37
L 880 36
L 881 36
L 882 36
L 882 36
L 882 36
L 882 36
L 882 36
L 883 36
L 884 36
L 884 36
L 885 36
L 885 36
L 885 36
L 886 36
L 886 36
L 887 36
L 890 36
L 890 36
L 890 36
L 890 36
L 891 36
L 892 36
L 892 36
L 893 36
L 894 35
L 894 35
L 895 35
L 895 35
L 895 35
L 895 35
L 896 35
L 897 35
L 898 35
L 898 35
L 900 35
L 901 35
L 903 35
L 903 35
L 903 35
L 905 35
L 905 35
L 906 35
L 906 35
L 906 35
L 907 35
L 907 35
L 907 35
L 907 34
L 907 34
L 907 34
L 909 34
L 911 34
L 911 34
L 911 34
L 912 34
L 912 34
L 912 34
L 912 34
L 912 34
L 912 34
L 912 34
L 913 34
L 913 34
L 913 34
L 913 34
L 914 34
L 914 34
L 914 34
L 914 34
L 915 34
L 915 33
L 915 33
L 915 33
L 916 33
L 916 33
L 917 33
L 917 33
L 917 33
L 917 33
L 917 33
L 918 33
L 919 33
L 919 33
L 921 33
L 921 33
L 922 33
L 922 33
L 922 33
L 923 33
L 923 33
L 923 33
L 923 33
L 923 33
L 923 32
L 923 32
L 923 32
L 923 32
L 923 32
L 923 32
L 923 32
L 923 32
L 923 32
L 923 32
L 923 32
L 923 32
L 923 32
L 923 32
L 923 32
L 923 32
L 923 32
L 923 32
L 923 32
L 923 32
L 923 32
L 923 32
L 923 32
L 923 32
L 924 31
L 924 31
L 924 31
L 924 31
L 924 31
L 924 31
L 924 31
L 924 31
L 924 31
L 924 31
L 924 31
L 924 31
L 925 31
L 925 31
L 925 31
L 925 31
L 925 31
L 925 31
L 925 31
L 925 31
L 925 31
L 925 31
L 925 31
L 925 30
L 925 30
L 925 30
L 925 30
L 925 30
L 925 30
L 925 30
L 925 30
L 925 30
L 925 30
L 925 30
L 926 30
L 926 30
L 926 30
L 926 30
L 926 30
L 926 30
L 926 30
L 926 30
L 926 30
L 926 30
L 926 30
L 926 30
L 926 29
L 926 29
L 926 29
L 926 29
L 926 29
L 926 29
L 926 29
L 926 29
L 926 29
L 926 29
L 926 29
L 926 29
L 926 29
L 927 29
L 927 29
L 927 29
L 927 29
L 927 29
L 927 29
L 927 29
L 927 29
L 927 29
L 928 29
L 928 28
L 928 28
L 928 28
L 928 28
L 929 28
L 929 28
L 929 28
L 929 28
L 929 28
L 929 28
L 930 28
L 930 28
L 932 28
L 933 28
L 933 28
L 933 28
L 933 28
L 933 28
L 934 28
L 934 28
L 934 28
L 934 28
L 934 28
L 934 28
L 934 27
L 934 27
L 934 27
L 934 27
L 934 27
L 934 27
L 934 27
L 934 27
L 934 27
L 934 27
L 934 27
L 934 27
L 934 27
L 934 27
L 934 27
L 934 27
L 934 27
L 934 27
L 934 27
L 934 27
L 934 27
L 934 27
L 934 27
L 934 26
L 934 26
L 934 26
L 934 26
L 935 26
L 935 26
L 935 26
L 935 26
L 935 26
L 935 26
L 935 26
L 935 26
L 935 26
L 935 26
L 935 26
L 936 26
L 936 26
L 936 26
L 936 26
L 936 26
L 936 26
L 936 26
L 936 26
L 936 25
L 936 25
L 936 25
L 936 25
L 936 25
L 936 25
L 936 25
L 936 25
L 936 25
L 936 25
L 936 25
L 936 25
L 936 25
L 936 25
L 936 25
L 936 25
L 936 25
L 936 25
L 936 25
L 936 25
L 936 25
L 936 25
L 936 25
L 936 24
L 936 24
L 936 24
L 936 24
L 937 24
L 937 24
L 937 24
L 937 24
L 937 24
L 937 24
L 937 24
L 937 24
L 937 24
L 937 24
L 937 24
L 937 24
L 937 24
L 937 24
L 937 24
L 937 24
L 937 24
L 937 24
L 937 24
L 937 23
L 937 23
L 937 23
L 937 23
L 937 23
L 937 23
L 937 23
L 937 23
L 937 23
L 937 23
L 937 23
L 937 23
L 938 23
L 938 23
L 938 23
L 938 23
L 938 23
L 938 23
L 938 23
L 938 23
L 938 23
L 938 23
L 938 23
L 938 23
L 938 22
L 938 22
L 938 22
L 939 22
L 939 22
L 939 22
L 939 22
L 939 22
L 939 22
L 940 22
L 940 22
L 940 22
L 940 22
L 940 22
L 940 22
L 941 22
L 941 22
L 941 22
L 942 22
L 943 22
L 944 22
L 944 22
L 944 22
L 944 21
L 944 21
L 944 21
L 944 21
L 944 21
L 944 21
L 945 21
L 945 21
L 945 21
L 945 21
L 945 21
L 945 21
L 945 21
L 945 21
L 945 21
L 945 21
L 945 21
L 945 21
L 945 21
L 945 21
L 945 21
L 945 21
L 945 21
L 945 20
L 945 20
L 945 20
L 945 20
L 945 20
L 945 20
L 945 20
L 945 20
L 945 20
L 945 20
L 945 20
L 945 20
L 945 20
L 945 20
L 945 20
L 945 20
L 945 20
L 945 20
L 945 20
L 945 20
L 945 20
L 945 20
L 945 20
L 945 19
L 945 19
L 945 19
L 945 19
L 945 19
L 945 19
L 945 19
L 945 19
L 945 19
L 945 19
L 945 19
L 945 19
L 945 19
L 945 19
L 945 19
L 945 19
L 946 19
L 946 19
L 946 19
L 946 19
L 946 19
L 946 19
L 946 19
L 946 19
L 946 18
L 946 18
L 946 18
L 946 18
L 946 18
L 946 18
L 947 18
L 947 18
L 947 18
L 947 18
L 947 18
L 947 18
L 947 18
L 947 18
L 947 18
L 947 18
L 947 18
L 947 18
L 947 18
L 947 18
L 947 18
L 947 18
L 947 18
L 947 17
L 947 17
L 947 17
L 947 17
L 947 17
L 947 17
L 947 17
L 947 17
L 947 17
L 947 17
L 947 17
L 947 17
L 947 17
L 947 17
L 947 17
L 947 17
L 947 17
L 947 17
L 947 17
L 948 17
L 948 17
L 948 17
L 948 17
L 948 16
L 948 16
L 948 16
L 948 16
L 948 16
L 948 16
L 948 16
L 948 16
L 948 16
L 948 16
L 948 16
L 948 16
L 948 16
L 948 16
L 948 16
L 948 16
L 948 16
L 948 16
L 948 16
L 948 16
L 948 16
L 948 16
L 948 16
L 948 15
L 948 15
L 949 15
L 949 15
L 949 15
L 949 15
L 949 15
L 949 15
L 949 15
L 949 15
L 949 15
L 949 15
L 949 15
L 949 15
L 949 15
L 949 15
L 949 15
L 949 15
L 949 15
L 949 15
L 949 15
L 949 15
L 949 15
L 950 15
L 950 14
L 950 14
L 950 14
L 950 14
L 950 14
L 950 14
L 950 14
L 950 14
L 951 14
L 951 14
L 951 14
L 951 14
L 951 14
L 951 14
L 951 14
L 951 14
L 952 14
L 952 14
L 952 14
L 952 14
L 953 14
L 953 14
L 954 14
L 954 13
L 955 13
L 955 13
L 955 13
L 955 13
L 955 13
L 956 13
L 956 13
L 956 13
L 956 13
L 956 13
L 956 13
L 956 13
L 956 13
L 956 13
L 956 13
L 956 13
L 956 13
L 956 13
L 956 13
L 956 13
L 956 13
L 956 13
L 956 12
L 956 12
L 956 12
L 956 12
L 956 12
L 956 12
L 956 12
L 956 12
L 956 12
L 956 12
L 956 12
L 956 12
L 956 12
L 956 12
L 956 12
L 956 12
L 957 12
L 957 12
L 957 12
L 957 12
L 957 12
L 957 12
L 957 12
L 957 11
L 957 11
L 957 11
L 957 11
L 957 11
L 957 11
L 957 11
L 957 11
L 957 11
L 957 11
L 957 11
L 957 11
L 957 11
L 957 11
L 957 11
L 957 11
L 957 11
L 957 11
L 957 11
L 957 11
L 957 11
L 957 11
L 957 11" style="stroke-width:2;stroke:rgba(129,199,239,1.0);fill:none"/></svg>