<svg xmlns="http://www.w3.org/2000/svg" xmlns:xlink="http://www.w3.org/1999/xlink" width="1024" height="400">\n<path  d="M 0 0
L 1024 0
L 1024 400
L 0 400
L 0 0" style="stroke-width:0;stroke:rgba(255,255,255,1.0);fill:rgba(255,255,255,1.0)"/><path  d="M 38 11
L 957 11
L 957 351
L 38 351
L 38 11" style="stroke-width:0;stroke:rgba(255,255,255,1.0);fill:rgba(255,255,255,1.0)"/><path  d="M 38 351
L 957 351" style="stroke-width:2;stroke:rgba(85,85,85,1.0);fill:none"/><path  d="M 38 351
L 38 356" style="stroke-width:2;stroke:rgba(85,85,85,1.0);fill:none"/><text x="5" y="373" style="stroke-width:0;stroke:none;fill:rgba(51,51,51,1.0);font-size:12.8px;font-family:'Roboto Medium',sans-serif">2018-11-23</text><path  d="M 153 351
L 153 356" style="stroke-width:2;stroke:rgba(85,85,85,1.0);fill:none"/><text x="120" y="373" style="stroke-width:0;stroke:none;fill:rgba(51,51,51,1.0);font-size:12.8px;font-family:'Roboto Medium',sans-serif">2018-12-03</text><path  d="M 268 351
L 268 356" style="stroke-width:2;stroke:rgba(85,85,85,1.0);fill:none"/><text x="235" y="373" style="stroke-width:0;stroke:none;fill:rgba(51,51,51,1.0);font-size:12.8px;font-family:'Roboto Medium',sans-serif">2018-12-13</text><path  d="M 383 351
L 383 356" style="stroke-width:2;stroke:rgba(85,85,85,1.0);fill:none"/><text x="350" y="373" style="stroke-width:0;stroke:none;fill:rgba(51,51,51,1.0);font-size:12.8px;font-family:'Roboto Medium',sans-serif">2018-12-23</text><path  d="M 498 351
L 498 356" style="stroke-width:2;stroke:rgba(85,85,85,1.0);fill:none"/><text x="465" y="373" style="stroke-width:0;stroke:none;fill:rgba(51,51,51,1.0);font-size:12.8px;font-family:'Roboto Medium',sans-serif">2019-01-03</text><path  d="M 613 351
L 613 356" style="stroke-width:2;stroke:rgba(85,85,85,1.0);fill:none"/><text x="580" y="373" style="stroke-width:0;stroke:none;fill:rgba(51,51,51,1.0);font-size:12.8px;font-family:'Roboto Medium',sans-serif">2019-01-13</text><path  d="M 728 351
L 728 356" style="stroke-width:2;stroke:rgba(85,85,85,1.0);fill:none"/><text x="695" y="373" style="stroke-width:0;stroke:none;fill:rgba(51,51,51,1.0);font-size:12.8px;font-family:'Roboto Medium',sans-serif">2019-01-23</text><path  d="M 843 351
L 843 356" style="stroke-width:2;stroke:rgba(85,85,85,1.0);fill:none"/><text x="810" y="373" style="stroke-width:0;stroke:none;fill:rgba(51,51,51,1.0);font-size:12.8px;font-family:'Roboto Medium',sans-serif">2019-02-02</text><path  d="M 957 351
L 957 356" style="stroke-width:2;stroke:rgba(85,85,85,1.0);fill:none"/><text x="924" y="373" style="stroke-width:0;stroke:none;fill:rgba(51,51,51,1.0);font-size:12.8px;font-family:'Roboto Medium',sans-serif">2019-02-13</text><text x="483" y="395" style="stroke-width:0;stroke:none;fill:rgba(51,51,51,1.0);font-size:12.8px;font-family:'Roboto Medium',sans-serif">Time</text><path  d="M 959 351
L 959 11" style="stroke-width:2;stroke:rgba(85,85,85,1.0);fill:none"/><path  d="M 959 351
L 964 351" style="stroke-width:2;stroke:rgba(85,85,85,1.0);fill:none"/><text x="969" y="357" style="stroke-width:0;stroke:none;fill:rgba(51,51,51,1.0);font-size:12.8px;font-family:'Roboto Medium',sans-serif">0</text><path  d="M 959 308
L 964 308" style="stroke-width:2;stroke:rgba(85,85,85,1.0);fill:none"/><text x="969" y="314" style="stroke-width:0;stroke:none;fill:rgba(51,51,51,1.0);font-size:12.8px;font-family:'Roboto Medium',sans-serif">970</text><path  d="M 959 265
L 964 265" style="stroke-width:2;stroke:rgba(85,85,85,1.0);fill:none"/><text x="969" y="271" style="stroke-width:0;stroke:none;fill:rgba(51,51,51,1.0);font-size:12.8px;font-family:'Roboto Medium',sans-serif">1930</text><path  d="M 959 223
L 964 223" style="stroke-width:2;stroke:rgba(85,85,85,1.0);fill:none"/><text x="969" y="229" style="stroke-width:0;stroke:none;fill:rgba(51,51,51,1.0);font-size:12.8px;font-family:'Roboto Medium',sans-serif">2890</text><path  d="M 959 181
L 964 181" style="stroke-width:2;stroke:rgba(85,85,85,1.0);fill:none"/><text x="969" y="187" style="stroke-width:0;stroke:none;fill:rgba(51,51,51,1.0);font-size:12.8px;font-family:'Roboto Medium',sans-serif">3850</text><path  d="M 959 138
L 964 138" style="stroke-width:2;stroke:rgba(85,85,85,1.0);fill:none"/><text x="969" y="144" style="stroke-width:0;stroke:none;fill:rgba(51,51,51,1.0);font-size:12.8px;font-family:'Roboto Medium',sans-serif">4820</text><path  d="M 959 95
L 964 95" style="stroke-width:2;stroke:rgba(85,85,85,1.0);fill:none"/><text x="969" y="101" style="stroke-width:0;stroke:none;fill:rgba(51,51,51,1.0);font-size:12.8px;font-family:'Roboto Medium',sans-serif">5780</text><path  d="M 959 53
L 964 53" style="stroke-width:2;stroke:rgba(85,85,85,1.0);fill:none"/><text x="969" y="59" style="stroke-width:0;stroke:none;fill:rgba(51,51,51,1.0);font-size:12.8px;font-family:'Roboto Medium',sans-serif">6740</text><path  d="M 959 11
L 964 11" style="stroke-width:2;stroke:rgba(85,85,85,1.0);fill:none"/><text x="969" y="17" style="stroke-width:0;stroke:none;fill:rgba(51,51,51,1.0);font-size:12.8px;font-family:'Roboto Medium',sans-serif">7700</text><text x="1009" y="150" style="stroke-width:0;stroke:none;fill:rgba(51,51,51,1.0);font-size:12.8px;font-family:'Roboto Medium',sans-serif" transform="rotate(90.00,1009,150)">Stargazers</text><path  d="M 38 351
L 97 350
L 139 350
L 141 350
L 149 350
L 149 350
L 149 350
L 150 350
L 150 350
L 150 350
L 151 350
L 151 350
L 151 350
L 151 350
L 151 350
L 151 350
L 151 350
L 151 350
L 152 350
L 152 350
L 152 350
L 152 350
L 154 350
L 154 349
L 161 349
L 161 349
L 161 349
L 161 349
L 162 349
L 163 349
L 164 349
L 165 349
L 166 349
L 166 349
L 166 349
L 166 349
L 166 349
L 166 349
L 169 349
L 171 349
L 171 349
L 172 349
L 172 349
L 172 349
L 172 349
L 172 349
L 172 348
L 172 348
L 173 348
L 173 348
L 174 348
L 174 348
L 175 348
L 175 348
L 175 348
L 175 348
L 175 348
L 175 348
L 176 348
L 176 348
L 176 348
L 177 348
L 177 348
L 177 348
L 178 348
L 178 348
L 178 348
L 178 348
L 178 347
L 182 347
L 183 347
L 183 347
L 183 347
L 183 347
L 183 347
L 183 347
L 184 347
L 184 347
L 184 347
L 184 347
L 184 347
L 184 347
L 184 347
L 185 347
L 185 347
L 185 347
L 185 347
L 185 347
L 185 347
L 185 347
L 185 347
L 185 346
L 185 346
L 185 346
L 185 346
L 185 346
L 185 346
L 185 346
L 185 346
L 185 346
L 185 346
L 185 346
L 185 346
L 185 346
L 185 346
L 185 346
L 185 346
L 185 346
L 185 346
L 185 346
L 185 346
L 185 346
L 185 346
L 185 346
L 185 345
L 185 345
L 185 345
L 185 345
L 185 345
L 185 345
L 185 345
L 185 345
L 186 345
L 186 345
L 186 345
L 186 345
L 186 345
L 186 345
L 186 345
L 186 345
L 186 345
L 186 345
L 186 345
L 187 345
L 187 345
L 187 345
L 187 344
L 187 344
L 187 344
L 187 344
L 187 344
L 187 344
L 187 344
L 187 344
L 188 344
L 188 344
L 188 344
L 188 344
L 188 344
L 188 344
L 188 344
L 190 344
L 190 344
L 193 344
L 194 344
L 194 344
L 194 344
L 194 344
L 194 344
L 194 343
L 195 343
L 195 343
L 196 343
L 196 343
L 196 343
L 196 343
L 196 343
L 197 343
L 197 343
L 197 343
L 197 343
L 198 343
L 198 343
L 198 343
L 198 343
L 198 343
L 198 343
L 199 343
L 205 343
L 206 343
L 206 343
L 206 343
L 207 342
L 208 342
L 209 342
L 212 342
L 212 342
L 212 342
L 214 342
L 217 342
L 217 342
L 219 342
L 219 342
L 220 342
L 220 342
L 221 342
L 221 342
L 221 342
L 221 342
L 221 342
L 221 342
L 222 342
L 222 342
L 224 342
L 227 341
L 227 341
L 227 341
L 228 341
L 228 341
L 228 341
L 230 341
L 234 341
L 234 341
L 239 341
L 241 341
L 241 341
L 241 341
L 242 341
L 243 341
L 244 341
L 250 341
L 250 341
L 250 341
L 251 341
L 251 341
L 252 341
L 252 341
L 254 340
L 254 340
L 256 340
L 258 340
L 261 340
L 265 340
L 266 340
L 271 340
L 273 340
L 273 340
L 275 340
L 275 340
L 275 340
L 275 340
L 277 340
L 278 340
L 278 340
L 278 340
L 279 340
L 280 340
L 282 340
L 284 340
L 286 340
L 286 339
L 286 339
L 286 339
L 287 339
L 288 339
L 288 339
L 289 339
L 290 339
L 290 339
L 291 339
L 295 339
L 295 339
L 295 339
L 296 339
L 298 339
L 300 339
L 300 339
L 300 339
L 301 339
L 305 339
L 306 339
L 306 339
L 306 338
L 307 338
L 307 338
L 310 338
L 310 338
L 311 338
L 312 338
L 317 338
L 318 338
L 320 338
L 320 338
L 321 338
L 321 338
L 321 338
L 322 338
L 323 338
L 324 338
L 324 338
L 329 338
L 329 338
L 330 338
L 331 338
L 331 338
L 331 337
L 331 337
L 332 337
L 333 337
L 340 337
L 340 337
L 340 337
L 340 337
L 342 337
L 342 337
L 343 337
L 343 337
L 343 337
L 345 337
L 345 337
L 345 337
L 346 337
L 346 337
L 347 337
L 351 337
L 352 337
L 352 337
L 352 337
L 352 336
L 352 336
L 352 336
L 352 336
L 352 336
L 352 336
L 353 336
L 353 336
L 353 336
L 353 336
L 353 336
L 353 336
L 354 336
L 354 336
L 354 336
L 354 336
L 354 336
L 354 336
L 354 336
L 354 336
L 354 336
L 354 336
L 354 335
L 354 335
L 354 335
L 354 335
L 354 335
L 354 335
L 354 335
L 354 335
L 355 335
L 355 335
L 355 335
L 355 335
L 355 335
L 355 335
L 355 335
L 355 335
L 355 335
L 355 335
L 355 335
L 355 335
L 355 335
L 355 335
L 355 335
L 355 334
L 355 334
L 355 334
L 355 334
L 355 334
L 355 334
L 355 334
L 355 334
L 355 334
L 355 334
L 355 334
L 355 334
L 356 334
L 356 334
L 356 334
L 356 334
L 356 334
L 356 334
L 356 334
L 357 334
L 357 334
L 357 334
L 357 334
L 357 333
L 357 333
L 357 333
L 357 333
L 357 333
L 357 333
L 357 333
L 358 333
L 358 333
L 358 333
L 358 333
L 362 333
L 362 333
L 363 333
L 363 333
L 363 333
L 363 333
L 363 333
L 363 333
L 363 333
L 363 333
L 363 333
L 363 332
L 363 332
L 363 332
L 363 332
L 363 332
L 363 332
L 363 332
L 364 332
L 364 332
L 364 332
L 364 332
L 364 332
L 364 332
L 364 332
L 364 332
L 364 332
L 364 332
L 364 332
L 365 332
L 365 332
L 365 332
L 365 332
L 365 332
L 365 331
L 365 331
L 365 331
L 365 331
L 365 331
L 365 331
L 365 331
L 365 331
L 365 331
L 365 331
L 365 331
L 365 331
L 365 331
L 366 331
L 366 331
L 366 331
L 366 331
L 366 331
L 366 331
L 366 331
L 366 331
L 366 331
L 366 330
L 366 330
L 366 330
L 366 330
L 366 330
L 366 330
L 366 330
L 366 330
L 366 330
L 366 330
L 366 330
L 366 330
L 366 330
L 366 330
L 367 330
L 367 330
L 367 330
L 367 330
L 367 330
L 367 330
L 367 330
L 367 330
L 367 330
L 368 329
L 368 329
L 368 329
L 368 329
L 368 329
L 368 329
L 368 329
L 368 329
L 368 329
L 368 329
L 368 329
L 368 329
L 368 329
L 368 329
L 368 329
L 368 329
L 368 329
L 368 329
L 368 329
L 368 329
L 369 329
L 369 329
L 369 329
L 369 328
L 369 328
L 369 328
L 369 328
L 369 328
L 369 328
L 369 328
L 369 328
L 369 328
L 369 328
L 369 328
L 369 328
L 369 328
L 369 328
L 369 328
L 369 328
L 369 328
L 369 328
L 369 328
L 370 328
L 370 328
L 370 328
L 371 327
L 371 327
L 372 327
L 373 327
L 373 327
L 373 327
L 373 327
L 373 327
L 373 327
L 373 327
L 374 327
L 374 327
L 374 327
L 374 327
L 374 327
L 374 327
L 374 327
L 374 327
L 374 327
L 374 327
L 374 327
L 374 327
L 374 327
L 374 326
L 374 326
L 374 326
L 374 326
L 374 326
L 374 326
L 374 326
L 375 326
L 375 326
L 375 326
L 375 326
L 375 326
L 375 326
L 375 326
L 375 326
L 375 326
L 375 326
L 375 326
L 375 326
L 375 326
L 375 326
L 375 326
L 375 326
L 375 325
L 375 325
L 375 325
L 375 325
L 375 325
L 375 325
L 376 325
L 376 325
L 376 325
L 376 325
L 376 325
L 376 325
L 376 325
L 376 325
L 376 325
L 376 325
L 376 325
L 376 325
L 376 325
L 376 325
L 376 325
L 376 325
L 376 324
L 376 324
L 376 324
L 376 324
L 376 324
L 376 324
L 377 324
L 377 324
L 377 324
L 377 324
L 377 324
L 377 324
L 377 324
L 377 324
L 377 324
L 377 324
L 377 324
L 377 324
L 377 324
L 377 324
L 377 324
L 377 324
L 377 324
L 377 323
L 378 323
L 378 323
L 378 323
L 378 323
L 378 323
L 378 323
L 378 323
L 378 323
L 378 323
L 378 323
L 378 323
L 378 323
L 378 323
L 378 323
L 378 323
L 378 323
L 378 323
L 378 323
L 378 323
L 378 323
L 378 323
L 378 323
L 379 322
L 379 322
L 379 322
L 379 322
L 379 322
L 379 322
L 379 322
L 379 322
L 379 322
L 379 322
L 379 322
L 379 322
L 379 322
L 379 322
L 379 322
L 379 322
L 379 322
L 379 322
L 379 322
L 379 322
L 379 322
L 379 322
L 379 321
L 380 321
L 380 321
L 380 321
L 380 321
L 380 321
L 380 321
L 380 321
L 380 321
L 380 321
L 380 321
L 380 321
L 380 321
L 380 321
L 380 321
L 380 321
L 380 321
L 380 321
L 380 321
L 380 321
L 380 321
L 380 321
L 380 321
L 380 320
L 381 320
L 381 320
L 381 320
L 381 320
L 381 320
L 381 320
L 382 320
L 382 320
L 382 320
L 382 320
L 382 320
L 383 320
L 384 320
L 384 320
L 384 320
L 384 320
L 384 320
L 384 320
L 384 320
L 384 320
L 384 320
L 384 320
L 384 319
L 384 319
L 384 319
L 384 319
L 384 319
L 384 319
L 384 319
L 385 319
L 385 319
L 385 319
L 385 319
L 385 319
L 385 319
L 385 319
L 385 319
L 385 319
L 385 319
L 385 319
L 385 319
L 385 319
L 385 319
L 385 319
L 385 318
L 385 318
L 385 318
L 385 318
L 385 318
L 385 318
L 385 318
L 385 318
L 385 318
L 385 318
L 385 318
L 385 318
L 385 318
L 385 318
L 385 318
L 385 318
L 385 318
L 385 318
L 385 318
L 385 318
L 385 318
L 385 318
L 385 318
L 385 317
L 385 317
L 385 317
L 385 317
L 385 317
L 385 317
L 385 317
L 385 317
L 385 317
L 385 317
L 385 317
L 385 317
L 385 317
L 385 317
L 385 317
L 385 317
L 385 317
L 385 317
L 385 317
L 385 317
L 385 317
L 385 317
L 385 317
L 385 316
L 385 316
L 385 316
L 385 316
L 385 316
L 385 316
L 385 316
L 385 316
L 385 316
L 385 316
L 385 316
L 385 316
L 385 316
L 385 316
L 385 316
L 385 316
L 385 316
L 385 316
L 385 316
L 385 316
L 385 316
L 385 316
L 385 315
L 385 315
L 385 315
L 385 315
L 385 315
L 385 315
L 385 315
L 385 315
L 385 315
L 385 315
L 385 315
L 385 315
L 386 315
L 386 315
L 386 315
L 386 315
L 386 315
L 386 315
L 386 315
L 386 315
L 386 315
L 386 315
L 386 315
L 386 314
L 386 314
L 386 314
L 386 314
L 386 314
L 386 314
L 386 314
L 386 314
L 386 314
L 386 314
L 386 314
L 386 314
L 386 314
L 386 314
L 386 314
L 386 314
L 386 314
L 386 314
L 386 314
L 386 314
L 386 314
L 386 314
L 386 313
L 386 313
L 386 313
L 386 313
L 386 313
L 386 313
L 386 313
L 386 313
L 386 313
L 386 313
L 386 313
L 387 313
L 387 313
L 387 313
L 387 313
L 387 313
L 387 313
L 387 313
L 387 313
L 387 313
L 387 313
L 387 313
L 387 313
L 387 312
L 387 312
L 387 312
L 387 312
L 387 312
L 387 312
L 387 312
L 387 312
L 387 312
L 387 312
L 387 312
L 387 312
L 387 312
L 387 312
L 387 312
L 387 312
L 387 312
L 387 312
L 387 312
L 387 312
L 387 312
L 387 312
L 387 312
L 387 311
L 387 311
L 387 311
L 387 311
L 387 311
L 387 311
L 387 311
L 387 311
L 387 311
L 387 311
L 387 311
L 387 311
L 387 311
L 387 311
L 387 311
L 387 311
L 387 311
L 387 311
L 387 311
L 387 311
L 387 311
L 387 311
L 387 310
L 387 310
L 387 310
L 387 310
L 387 310
L 387 310
L 387 310
L 387 310
L 387 310
L 387 310
L 387 310
L 387 310
L 387 310
L 387 310
L 387 310
L 387 310
L 387 310
L 387 310
L 387 310
L 387 310
L 388 310
L 388 310
L 388 310
L 388 309
L 388 309
L 388 309
L 388 309
L 388 309
L 388 309
L 388 309
L 388 309
L 388 309
L 388 309
L 388 309
L 388 309
L 388 309
L 388 309
L 388 309
L 388 309
L 388 309
L 388 309
L 388 309
L 388 309
L 388 309
L 388 309
L 388 309
L 388 308
L 388 308
L 388 308
L 388 308
L 388 308
L 388 308
L 388 308
L 388 308
L 388 308
L 388 308
L 388 308
L 388 308
L 388 308
L 388 308
L 388 308
L 388 308
L 388 308
L 388 308
L 388 308
L 388 308
L 388 308
L 388 308
L 388 307
L 388 307
L 388 307
L 388 307
L 388 307
L 388 307
L 388 307
L 388 307
L 388 307
L 389 307
L 389 307
L 389 307
L 389 307
L 389 307
L 389 307
L 389 307
L 389 307
L 389 307
L 389 307
L 389 307
L 389 307
L 389 307
L 389 307
L 389 306
L 389 306
L 389 306
L 389 306
L 389 306
L 389 306
L 389 306
L 389 306
L 389 306
L 389 306
L 389 306
L 389 306
L 389 306
L 389 306
L 389 306
L 389 306
L 389 306
L 389 306
L 389 306
L 389 306
L 389 306
L 389 306
L 389 306
L 389 305
L 389 305
L 389 305
L 389 305
L 389 305
L 389 305
L 389 305
L 389 305
L 389 305
L 389 305
L 390 305
L 390 305
L 390 305
L 390 305
L 390 305
L 390 305
L 390 305
L 390 305
L 390 305
L 390 305
L 390 305
L 390 305
L 390 304
L 390 304
L 390 304
L 390 304
L 390 304
L 390 304
L 390 304
L 390 304
L 390 304
L 390 304
L 391 304
L 391 304
L 391 304
L 391 304
L 391 304
L 391 304
L 391 304
L 391 304
L 391 304
L 391 304
L 391 304
L 391 304
L 391 304
L 391 303
L 391 303
L 391 303
L 391 303
L 391 303
L 391 303
L 391 303
L 391 303
L 391 303
L 391 303
L 391 303
L 391 303
L 391 303
L 391 303
L 392 303
L 392 303
L 392 303
L 392 303
L 392 303
L 392 303
L 392 303
L 392 303
L 392 303
L 392 302
L 392 302
L 393 302
L 393 302
L 394 302
L 395 302
L 395 302
L 395 302
L 395 302
L 395 302
L 395 302
L 396 302
L 396 302
L 396 302
L 396 302
L 396 302
L 396 302
L 396 302
L 396 302
L 396 302
L 396 302
L 396 302
L 396 301
L 396 301
L 396 301
L 396 301
L 396 301
L 396 301
L 396 301
L 396 301
L 396 301
L 396 301
L 396 301
L 396 301
L 396 301
L 396 301
L 396 301
L 396 301
L 396 301
L 396 301
L 396 301
L 396 301
L 396 301
L 396 301
L 396 301
L 396 300
L 396 300
L 396 300
L 396 300
L 396 300
L 396 300
L 396 300
L 396 300
L 396 300
L 396 300
L 396 300
L 396 300
L 396 300
L 396 300
L 396 300
L 396 300
L 396 300
L 396 300
L 396 300
L 396 300
L 396 300
L 396 300
L 396 300
L 396 299
L 396 299
L 396 299
L 396 299
L 396 299
L 396 299
L 396 299
L 396 299
L 396 299
L 396 299
L 396 299
L 396 299
L 396 299
L 396 299
L 396 299
L 396 299
L 396 299
L 396 299
L 396 299
L 396 299
L 396 299
L 396 299
L 396 298
L 396 298
L 396 298
L 397 298
L 397 298
L 397 298
L 397 298
L 397 298
L 397 298
L 397 298
L 397 298
L 397 298
L 397 298
L 397 298
L 397 298
L 397 298
L 397 298
L 397 298
L 397 298
L 397 298
L 397 298
L 397 298
L 397 298
L 397 297
L 397 297
L 397 297
L 397 297
L 397 297
L 397 297
L 397 297
L 397 297
L 397 297
L 397 297
L 397 297
L 397 297
L 397 297
L 397 297
L 397 297
L 397 297
L 397 297
L 397 297
L 397 297
L 397 297
L 397 297
L 397 297
L 397 296
L 397 296
L 397 296
L 397 296
L 397 296
L 397 296
L 397 296
L 397 296
L 397 296
L 397 296
L 397 296
L 397 296
L 397 296
L 397 296
L 397 296
L 397 296
L 397 296
L 397 296
L 397 296
L 397 296
L 397 296
L 397 296
L 398 296
L 398 295
L 398 295
L 398 295
L 398 295
L 398 295
L 398 295
L 398 295
L 398 295
L 398 295
L 398 295
L 398 295
L 398 295
L 398 295
L 398 295
L 398 295
L 398 295
L 398 295
L 398 295
L 398 295
L 398 295
L 398 295
L 398 295
L 398 295
L 398 294
L 398 294
L 398 294
L 398 294
L 398 294
L 398 294
L 398 294
L 398 294
L 398 294
L 398 294
L 398 294
L 398 294
L 398 294
L 398 294
L 398 294
L 398 294
L 398 294
L 398 294
L 398 294
L 398 294
L 398 294
L 398 294
L 398 293
L 398 293
L 398 293
L 398 293
L 398 293
L 399 293
L 399 293
L 399 293
L 399 293
L 399 293
L 399 293
L 399 293
L 399 293
L 399 293
L 399 293
L 399 293
L 399 293
L 399 293
L 399 293
L 399 293
L 399 293
L 399 293
L 399 293
L 399 292
L 399 292
L 399 292
L 399 292
L 399 292
L 399 292
L 399 292
L 399 292
L 399 292
L 399 292
L 399 292
L 399 292
L 399 292
L 399 292
L 399 292
L 399 292
L 399 292
L 399 292
L 399 292
L 399 292
L 399 292
L 399 292
L 399 292
L 399 291
L 399 291
L 399 291
L 399 291
L 399 291
L 399 291
L 399 291
L 399 291
L 399 291
L 399 291
L 399 291
L 399 291
L 399 291
L 399 291
L 399 291
L 399 291
L 400 291
L 400 291
L 400 291
L 400 291
L 400 291
L 400 291
L 400 290
L 400 290
L 400 290
L 400 290
L 400 290
L 400 290
L 400 290
L 400 290
L 400 290
L 400 290
L 400 290
L 400 290
L 400 290
L 400 290
L 400 290
L 400 290
L 400 290
L 400 290
L 400 290
L 400 290
L 400 290
L 400 290
L 400 290
L 400 289
L 400 289
L 400 289
L 400 289
L 400 289
L 400 289
L 400 289
L 400 289
L 400 289
L 400 289
L 400 289
L 400 289
L 400 289
L 400 289
L 400 289
L 400 289
L 400 289
L 400 289
L 400 289
L 400 289
L 400 289
L 400 289
L 400 289
L 400 288
L 400 288
L 400 288
L 400 288
L 400 288
L 400 288
L 400 288
L 400 288
L 400 288
L 400 288
L 400 288
L 400 288
L 400 288
L 400 288
L 400 288
L 400 288
L 401 288
L 401 288
L 401 288
L 401 288
L 401 288
L 401 288
L 401 287
L 401 287
L 401 287
L 401 287
L 401 287
L 401 287
L 401 287
L 401 287
L 401 287
L 401 287
L 401 287
L 401 287
L 401 287
L 401 287
L 401 287
L 401 287
L 401 287
L 401 287
L 401 287
L 401 287
L 401 287
L 401 287
L 401 287
L 401 286
L 401 286
L 401 286
L 401 286
L 401 286
L 401 286
L 401 286
L 401 286
L 401 286
L 401 286
L 401 286
L 402 286
L 402 286
L 402 286
L 402 286
L 402 286
L 402 286
L 402 286
L 402 286
L 402 286
L 402 286
L 402 286
L 402 286
L 402 285
L 402 285
L 402 285
L 402 285
L 402 285
L 402 285
L 402 285
L 402 285
L 402 285
L 402 285
L 402 285
L 402 285
L 402 285
L 402 285
L 402 285
L 402 285
L 402 285
L 402 285
L 402 285
L 402 285
L 402 285
L 402 285
L 402 284
L 402 284
L 402 284
L 403 284
L 403 284
L 403 284
L 403 284
L 403 284
L 403 284
L 403 284
L 403 284
L 403 284
L 403 284
L 403 284
L 403 284
L 403 284
L 403 284
L 403 284
L 403 284
L 403 284
L 403 284
L 403 284
L 403 284
L 403 283
L 404 283
L 404 283
L 404 283
L 404 283
L 404 283
L 405 283
L 405 283
L 406 283
L 407 283
L 407 283
L 407 283
L 407 283
L 407 283
L 407 283
L 407 283
L 407 283
L 407 283
L 407 283
L 407 283
L 407 283
L 407 283
L 407 283
L 407 282
L 407 282
L 407 282
L 407 282
L 407 282
L 407 282
L 407 282
L 407 282
L 407 282
L 407 282
L 407 282
L 407 282
L 407 282
L 407 282
L 407 282
L 407 282
L 407 282
L 407 282
L 407 282
L 407 282
L 407 282
L 407 282
L 407 281
L 407 281
L 407 281
L 407 281
L 407 281
L 407 281
L 407 281
L 407 281
L 407 281
L 407 281
L 407 281
L 407 281
L 407 281
L 407 281
L 407 281
L 407 281
L 407 281
L 407 281
L 407 281
L 407 281
L 407 281
L 407 281
L 407 281
L 407 280
L 407 280
L 407 280
L 407 280
L 407 280
L 407 280
L 407 280
L 407 280
L 408 280
L 408 280
L 408 280
L 408 280
L 408 280
L 408 280
L 408 280
L 408 280
L 408 280
L 408 280
L 408 280
L 408 280
L 408 280
L 408 280
L 408 279
L 408 279
L 408 279
L 408 279
L 408 279
L 408 279
L 408 279
L 408 279
L 408 279
L 408 279
L 408 279
L 408 279
L 408 279
L 408 279
L 408 279
L 408 279
L 408 279
L 408 279
L 408 279
L 408 279
L 408 279
L 408 279
L 408 279
L 408 278
L 408 278
L 408 278
L 408 278
L 408 278
L 408 278
L 408 278
L 408 278
L 408 278
L 408 278
L 408 278
L 408 278
L 408 278
L 408 278
L 408 278
L 408 278
L 408 278
L 408 278
L 408 278
L 408 278
L 408 278
L 408 278
L 409 278
L 409 277
L 409 277
L 409 277
L 409 277
L 409 277
L 409 277
L 409 277
L 409 277
L 409 277
L 409 277
L 409 277
L 409 277
L 409 277
L 409 277
L 409 277
L 409 277
L 409 277
L 409 277
L 409 277
L 409 277
L 409 277
L 409 277
L 409 276
L 409 276
L 409 276
L 409 276
L 409 276
L 409 276
L 409 276
L 409 276
L 409 276
L 409 276
L 409 276
L 409 276
L 409 276
L 410 276
L 410 276
L 410 276
L 410 276
L 410 276
L 410 276
L 410 276
L 410 276
L 410 276
L 410 276
L 410 275
L 410 275
L 410 275
L 410 275
L 410 275
L 410 275
L 410 275
L 410 275
L 410 275
L 410 275
L 410 275
L 410 275
L 410 275
L 410 275
L 410 275
L 410 275
L 410 275
L 410 275
L 410 275
L 410 275
L 410 275
L 410 275
L 410 275
L 410 274
L 410 274
L 410 274
L 410 274
L 410 274
L 410 274
L 410 274
L 410 274
L 410 274
L 410 274
L 410 274
L 410 274
L 410 274
L 410 274
L 410 274
L 410 274
L 410 274
L 410 274
L 410 274
L 410 274
L 411 274
L 411 274
L 411 273
L 411 273
L 411 273
L 411 273
L 411 273
L 411 273
L 411 273
L 411 273
L 411 273
L 411 273
L 411 273
L 411 273
L 411 273
L 411 273
L 411 273
L 411 273
L 411 273
L 411 273
L 411 273
L 411 273
L 411 273
L 411 273
L 411 273
L 411 272
L 411 272
L 411 272
L 411 272
L 411 272
L 411 272
L 411 272
L 411 272
L 411 272
L 411 272
L 411 272
L 411 272
L 411 272
L 411 272
L 411 272
L 411 272
L 411 272
L 411 272
L 411 272
L 411 272
L 411 272
L 411 272
L 411 272
L 411 271
L 411 271
L 411 271
L 411 271
L 411 271
L 411 271
L 411 271
L 411 271
L 411 271
L 412 271
L 412 271
L 412 271
L 412 271
L 412 271
L 412 271
L 412 271
L 412 271
L 412 271
L 412 271
L 412 271
L 412 271
L 412 271
L 412 270
L 412 270
L 412 270
L 412 270
L 412 270
L 412 270
L 412 270
L 412 270
L 412 270
L 412 270
L 412 270
L 412 270
L 412 270
L 412 270
L 412 270
L 413 270
L 413 270
L 413 270
L 413 270
L 413 270
L 413 270
L 413 270
L 413 270
L 413 269
L 413 269
L 413 269
L 413 269
L 413 269
L 413 269
L 413 269
L 413 269
L 413 269
L 413 269
L 413 269
L 413 269
L 413 269
L 413 269
L 413 269
L 413 269
L 413 269
L 413 269
L 414 269
L 414 269
L 414 269
L 414 269
L 414 269
L 414 268
L 414 268
L 414 268
L 414 268
L 414 268
L 414 268
L 414 268
L 414 268
L 414 268
L 414 268
L 414 268
L 414 268
L 414 268
L 414 268
L 414 268
L 415 268
L 415 268
L 417 268
L 418 268
L 418 268
L 418 268
L 418 268
L 418 267
L 418 267
L 418 267
L 418 267
L 418 267
L 418 267
L 418 267
L 418 267
L 418 267
L 418 267
L 418 267
L 418 267
L 418 267
L 418 267
L 418 267
L 418 267
L 418 267
L 418 267
L 418 267
L 418 267
L 418 267
L 419 267
L 419 267
L 419 266
L 419 266
L 419 266
L 419 266
L 419 266
L 419 266
L 419 266
L 419 266
L 419 266
L 419 266
L 419 266
L 419 266
L 419 266
L 419 266
L 419 266
L 419 266
L 419 266
L 419 266
L 419 266
L 419 266
L 419 266
L 419 266
L 419 266
L 419 265
L 419 265
L 419 265
L 419 265
L 419 265
L 419 265
L 419 265
L 419 265
L 419 265
L 419 265
L 419 265
L 419 265
L 419 265
L 419 265
L 419 265
L 419 265
L 419 265
L 419 265
L 419 265
L 419 265
L 419 265
L 419 265
L 419 264
L 419 264
L 419 264
L 419 264
L 419 264
L 419 264
L 419 264
L 419 264
L 419 264
L 419 264
L 419 264
L 419 264
L 419 264
L 420 264
L 420 264
L 420 264
L 420 264
L 420 264
L 420 264
L 420 264
L 420 264
L 420 264
L 420 264
L 420 263
L 420 263
L 420 263
L 420 263
L 420 263
L 420 263
L 420 263
L 420 263
L 421 263
L 421 263
L 421 263
L 421 263
L 421 263
L 421 263
L 421 263
L 421 263
L 421 263
L 421 263
L 421 263
L 421 263
L 421 263
L 421 263
L 421 262
L 421 262
L 421 262
L 421 262
L 421 262
L 421 262
L 421 262
L 421 262
L 421 262
L 421 262
L 421 262
L 421 262
L 421 262
L 421 262
L 421 262
L 421 262
L 421 262
L 421 262
L 421 262
L 421 262
L 422 262
L 422 262
L 422 262
L 422 261
L 422 261
L 422 261
L 422 261
L 422 261
L 422 261
L 422 261
L 422 261
L 422 261
L 422 261
L 422 261
L 422 261
L 422 261
L 422 261
L 422 261
L 422 261
L 422 261
L 422 261
L 422 261
L 422 261
L 422 261
L 422 261
L 422 261
L 422 260
L 422 260
L 422 260
L 422 260
L 422 260
L 422 260
L 422 260
L 422 260
L 422 260
L 422 260
L 422 260
L 422 260
L 422 260
L 422 260
L 422 260
L 422 260
L 422 260
L 422 260
L 422 260
L 422 260
L 423 260
L 423 260
L 423 259
L 423 259
L 423 259
L 423 259
L 423 259
L 423 259
L 423 259
L 423 259
L 423 259
L 423 259
L 423 259
L 423 259
L 423 259
L 423 259
L 423 259
L 423 259
L 423 259
L 424 259
L 424 259
L 424 259
L 424 259
L 424 259
L 424 259
L 424 258
L 424 258
L 424 258
L 424 258
L 424 258
L 424 258
L 424 258
L 424 258
L 424 258
L 424 258
L 424 258
L 424 258
L 424 258
L 425 258
L 425 258
L 425 258
L 425 258
L 425 258
L 425 258
L 425 258
L 425 258
L 425 258
L 425 258
L 425 257
L 425 257
L 425 257
L 425 257
L 426 257
L 426 257
L 426 257
L 426 257
L 426 257
L 427 257
L 427 257
L 429 257
L 429 257
L 429 257
L 429 257
L 429 257
L 429 257
L 430 257
L 430 257
L 430 257
L 430 257
L 430 257
L 430 256
L 430 256
L 430 256
L 430 256
L 430 256
L 430 256
L 430 256
L 430 256
L 430 256
L 430 256
L 430 256
L 430 256
L 430 256
L 430 256
L 430 256
L 430 256
L 430 256
L 430 256
L 430 256
L 430 256
L 430 256
L 430 256
L 430 256
L 430 255
L 430 255
L 430 255
L 430 255
L 430 255
L 430 255
L 430 255
L 430 255
L 430 255
L 430 255
L 430 255
L 430 255
L 430 255
L 430 255
L 430 255
L 430 255
L 430 255
L 430 255
L 430 255
L 430 255
L 430 255
L 430 255
L 430 255
L 430 254
L 430 254
L 430 254
L 430 254
L 430 254
L 430 254
L 430 254
L 430 254
L 430 254
L 430 254
L 430 254
L 430 254
L 431 254
L 431 254
L 431 254
L 431 254
L 431 254
L 431 254
L 431 254
L 431 254
L 431 254
L 431 254
L 431 253
L 431 253
L 431 253
L 431 253
L 431 253
L 431 253
L 431 253
L 431 253
L 431 253
L 431 253
L 431 253
L 431 253
L 432 253
L 432 253
L 432 253
L 432 253
L 432 253
L 432 253
L 432 253
L 432 253
L 432 253
L 432 253
L 432 253
L 432 252
L 432 252
L 432 252
L 432 252
L 432 252
L 432 252
L 432 252
L 432 252
L 432 252
L 432 252
L 432 252
L 432 252
L 432 252
L 432 252
L 432 252
L 432 252
L 432 252
L 432 252
L 432 252
L 432 252
L 432 252
L 432 252
L 432 252
L 432 251
L 432 251
L 432 251
L 432 251
L 432 251
L 432 251
L 432 251
L 432 251
L 432 251
L 432 251
L 432 251
L 432 251
L 432 251
L 432 251
L 432 251
L 432 251
L 432 251
L 432 251
L 432 251
L 432 251
L 432 251
L 433 251
L 433 250
L 433 250
L 433 250
L 433 250
L 433 250
L 433 250
L 433 250
L 433 250
L 433 250
L 433 250
L 433 250
L 433 250
L 433 250
L 433 250
L 433 250
L 433 250
L 433 250
L 433 250
L 433 250
L 433 250
L 433 250
L 433 250
L 433 250
L 433 249
L 433 249
L 433 249
L 433 249
L 433 249
L 433 249
L 433 249
L 433 249
L 433 249
L 433 249
L 433 249
L 433 249
L 433 249
L 433 249
L 433 249
L 433 249
L 433 249
L 433 249
L 433 249
L 433 249
L 433 249
L 433 249
L 433 249
L 433 248
L 433 248
L 433 248
L 434 248
L 434 248
L 434 248
L 434 248
L 434 248
L 434 248
L 434 248
L 434 248
L 434 248
L 434 248
L 434 248
L 434 248
L 434 248
L 434 248
L 434 248
L 434 248
L 434 248
L 434 248
L 434 248
L 434 247
L 434 247
L 434 247
L 434 247
L 434 247
L 434 247
L 434 247
L 434 247
L 434 247
L 435 247
L 435 247
L 435 247
L 435 247
L 435 247
L 435 247
L 435 247
L 435 247
L 435 247
L 435 247
L 435 247
L 435 247
L 435 247
L 435 247
L 435 246
L 435 246
L 436 246
L 436 246
L 436 246
L 436 246
L 436 246
L 436 246
L 436 246
L 436 246
L 436 246
L 436 246
L 436 246
L 436 246
L 436 246
L 436 246
L 436 246
L 436 246
L 436 246
L 436 246
L 436 246
L 436 246
L 437 245
L 437 245
L 437 245
L 437 245
L 437 245
L 437 245
L 437 245
L 437 245
L 437 245
L 438 245
L 438 245
L 439 245
L 439 245
L 440 245
L 440 245
L 440 245
L 440 245
L 440 245
L 441 245
L 441 245
L 441 245
L 441 245
L 441 245
L 441 244
L 441 244
L 441 244
L 441 244
L 441 244
L 441 244
L 441 244
L 441 244
L 441 244
L 441 244
L 441 244
L 441 244
L 441 244
L 441 244
L 441 244
L 441 244
L 441 244
L 441 244
L 441 244
L 441 244
L 441 244
L 441 244
L 441 244
L 441 243
L 441 243
L 441 243
L 441 243
L 441 243
L 441 243
L 441 243
L 441 243
L 441 243
L 441 243
L 441 243
L 441 243
L 441 243
L 441 243
L 441 243
L 441 243
L 441 243
L 441 243
L 441 243
L 441 243
L 441 243
L 441 243
L 441 242
L 442 242
L 442 242
L 442 242
L 442 242
L 442 242
L 442 242
L 442 242
L 442 242
L 442 242
L 442 242
L 442 242
L 442 242
L 442 242
L 442 242
L 442 242
L 442 242
L 442 242
L 442 242
L 442 242
L 442 242
L 442 242
L 442 242
L 442 241
L 442 241
L 442 241
L 442 241
L 442 241
L 442 241
L 442 241
L 442 241
L 442 241
L 442 241
L 442 241
L 442 241
L 442 241
L 442 241
L 442 241
L 442 241
L 442 241
L 442 241
L 442 241
L 442 241
L 442 241
L 442 241
L 442 241
L 442 240
L 442 240
L 442 240
L 442 240
L 442 240
L 442 240
L 442 240
L 443 240
L 443 240
L 443 240
L 443 240
L 443 240
L 443 240
L 443 240
L 443 240
L 443 240
L 443 240
L 443 240
L 443 240
L 443 240
L 443 240
L 443 240
L 443 239
L 443 239
L 443 239
L 443 239
L 443 239
L 443 239
L 443 239
L 443 239
L 443 239
L 443 239
L 443 239
L 443 239
L 443 239
L 443 239
L 443 239
L 443 239
L 443 239
L 443 239
L 443 239
L 443 239
L 443 239
L 443 239
L 443 239
L 443 238
L 443 238
L 443 238
L 443 238
L 443 238
L 443 238
L 443 238
L 443 238
L 444 238
L 444 238
L 444 238
L 444 238
L 444 238
L 444 238
L 444 238
L 444 238
L 444 238
L 444 238
L 444 238
L 444 238
L 444 238
L 444 238
L 444 238
L 444 237
L 444 237
L 444 237
L 444 237
L 444 237
L 444 237
L 444 237
L 444 237
L 444 237
L 444 237
L 444 237
L 444 237
L 444 237
L 444 237
L 444 237
L 444 237
L 444 237
L 444 237
L 444 237
L 444 237
L 444 237
L 444 237
L 444 236
L 444 236
L 444 236
L 444 236
L 444 236
L 444 236
L 444 236
L 444 236
L 444 236
L 444 236
L 444 236
L 444 236
L 444 236
L 444 236
L 444 236
L 444 236
L 444 236
L 444 236
L 444 236
L 444 236
L 444 236
L 444 236
L 445 236
L 445 235
L 445 235
L 445 235
L 445 235
L 445 235
L 445 235
L 445 235
L 445 235
L 445 235
L 445 235
L 445 235
L 445 235
L 445 235
L 445 235
L 445 235
L 445 235
L 445 235
L 445 235
L 445 235
L 445 235
L 445 235
L 445 235
L 445 235
L 446 234
L 446 234
L 446 234
L 446 234
L 446 234
L 446 234
L 446 234
L 446 234
L 446 234
L 446 234
L 446 234
L 446 234
L 446 234
L 446 234
L 447 234
L 447 234
L 447 234
L 447 234
L 447 234
L 447 234
L 447 234
L 447 234
L 447 233
L 447 233
L 447 233
L 447 233
L 447 233
L 447 233
L 447 233
L 448 233
L 448 233
L 448 233
L 448 233
L 448 233
L 448 233
L 448 233
L 448 233
L 448 233
L 449 233
L 450 233
L 450 233
L 451 233
L 451 233
L 451 233
L 452 233
L 452 232
L 452 232
L 452 232
L 452 232
L 452 232
L 452 232
L 452 232
L 453 232
L 453 232
L 453 232
L 453 232
L 453 232
L 453 232
L 453 232
L 453 232
L 453 232
L 453 232
L 453 232
L 453 232
L 453 232
L 453 232
L 453 232
L 453 232
L 453 231
L 454 231
L 454 231
L 454 231
L 454 231
L 454 231
L 454 231
L 454 231
L 454 231
L 454 231
L 455 231
L 455 231
L 455 231
L 455 231
L 455 231
L 455 231
L 455 231
L 455 231
L 455 231
L 456 231
L 456 231
L 456 231
L 456 230
L 456 230
L 456 230
L 456 230
L 456 230
L 457 230
L 457 230
L 457 230
L 457 230
L 457 230
L 457 230
L 457 230
L 457 230
L 457 230
L 458 230
L 458 230
L 458 230
L 458 230
L 458 230
L 458 230
L 458 230
L 458 230
L 459 230
L 459 229
L 459 229
L 459 229
L 459 229
L 459 229
L 459 229
L 459 229
L 459 229
L 460 229
L 461 229
L 461 229
L 461 229
L 461 229
L 461 229
L 461 229
L 462 229
L 462 229
L 463 229
L 463 229
L 463 229
L 463 229
L 463 229
L 464 228
L 464 228
L 464 228
L 464 228
L 464 228
L 464 228
L 464 228
L 464 228
L 464 228
L 464 228
L 465 228
L 465 228
L 465 228
L 465 228
L 465 228
L 465 228
L 465 228
L 465 228
L 466 228
L 466 228
L 466 228
L 466 228
L 466 228
L 466 227
L 466 227
L 466 227
L 466 227
L 467 227
L 467 227
L 467 227
L 467 227
L 467 227
L 468 227
L 468 227
L 468 227
L 468 227
L 468 227
L 468 227
L 468 227
L 469 227
L 469 227
L 469 227
L 469 227
L 469 227
L 469 227
L 469 227
L 469 226
L 470 226
L 470 226
L 470 226
L 470 226
L 470 226
L 470 226
L 470 226
L 470 226
L 470 226
L 470 226
L 470 226
L 471 226
L 471 226
L 471 226
L 471 226
L 471 226
L 472 226
L 473 226
L 473 226
L 474 226
L 474 226
L 474 225
L 475 225
L 475 225
L 475 225
L 475 225
L 475 225
L 475 225
L 475 225
L 475 225
L 475 225
L 476 225
L 476 225
L 476 225
L 476 225
L 476 225
L 476 225
L 477 225
L 477 225
L 477 225
L 477 225
L 477 225
L 477 225
L 477 225
L 477 224
L 477 224
L 477 224
L 477 224
L 477 224
L 477 224
L 478 224
L 478 224
L 478 224
L 478 224
L 478 224
L 478 224
L 478 224
L 478 224
L 478 224
L 479 224
L 479 224
L 479 224
L 479 224
L 479 224
L 479 224
L 479 224
L 479 224
L 479 223
L 479 223
L 479 223
L 479 223
L 480 223
L 480 223
L 480 223
L 480 223
L 480 223
L 480 223
L 480 223
L 480 223
L 480 223
L 480 223
L 480 223
L 480 223
L 480 223
L 480 223
L 480 223
L 481 223
L 481 223
L 481 223
L 481 222
L 481 222
L 481 222
L 481 222
L 481 222
L 481 222
L 481 222
L 481 222
L 482 222
L 482 222
L 482 222
L 482 222
L 482 222
L 485 222
L 486 222
L 486 222
L 486 222
L 486 222
L 486 222
L 486 222
L 486 222
L 486 222
L 486 222
L 486 221
L 486 221
L 486 221
L 486 221
L 486 221
L 486 221
L 486 221
L 486 221
L 486 221
L 486 221
L 486 221
L 486 221
L 486 221
L 486 221
L 486 221
L 486 221
L 486 221
L 486 221
L 486 221
L 486 221
L 486 221
L 486 221
L 486 221
L 486 220
L 486 220
L 486 220
L 486 220
L 486 220
L 486 220
L 486 220
L 486 220
L 486 220
L 486 220
L 486 220
L 486 220
L 486 220
L 486 220
L 486 220
L 486 220
L 486 220
L 487 220
L 487 220
L 487 220
L 487 220
L 487 220
L 487 219
L 487 219
L 487 219
L 487 219
L 487 219
L 487 219
L 487 219
L 487 219
L 487 219
L 487 219
L 487 219
L 487 219
L 487 219
L 487 219
L 487 219
L 487 219
L 487 219
L 487 219
L 487 219
L 487 219
L 487 219
L 488 219
L 488 219
L 488 218
L 488 218
L 488 218
L 488 218
L 488 218
L 488 218
L 488 218
L 488 218
L 488 218
L 488 218
L 488 218
L 488 218
L 488 218
L 488 218
L 488 218
L 488 218
L 488 218
L 488 218
L 488 218
L 488 218
L 488 218
L 488 218
L 488 218
L 488 217
L 488 217
L 488 217
L 488 217
L 488 217
L 488 217
L 488 217
L 488 217
L 488 217
L 489 217
L 489 217
L 489 217
L 489 217
L 489 217
L 489 217
L 489 217
L 489 217
L 489 217
L 489 217
L 489 217
L 489 217
L 489 217
L 489 216
L 489 216
L 489 216
L 489 216
L 489 216
L 489 216
L 489 216
L 489 216
L 489 216
L 489 216
L 489 216
L 489 216
L 489 216
L 489 216
L 489 216
L 489 216
L 489 216
L 489 216
L 489 216
L 489 216
L 489 216
L 489 216
L 489 216
L 490 215
L 490 215
L 490 215
L 490 215
L 490 215
L 490 215
L 490 215
L 490 215
L 490 215
L 490 215
L 490 215
L 490 215
L 490 215
L 490 215
L 490 215
L 490 215
L 491 215
L 491 215
L 491 215
L 491 215
L 491 215
L 491 215
L 491 215
L 491 214
L 491 214
L 491 214
L 491 214
L 491 214
L 491 214
L 491 214
L 491 214
L 491 214
L 491 214
L 491 214
L 491 214
L 491 214
L 491 214
L 492 214
L 492 214
L 492 214
L 492 214
L 492 214
L 492 214
L 492 214
L 492 214
L 492 213
L 492 213
L 492 213
L 492 213
L 492 213
L 492 213
L 492 213
L 492 213
L 492 213
L 492 213
L 492 213
L 492 213
L 492 213
L 492 213
L 492 213
L 492 213
L 493 213
L 493 213
L 493 213
L 493 213
L 493 213
L 493 213
L 493 213
L 493 212
L 493 212
L 494 212
L 494 212
L 494 212
L 495 212
L 496 212
L 496 212
L 496 212
L 496 212
L 496 212
L 496 212
L 496 212
L 497 212
L 497 212
L 497 212
L 497 212
L 497 212
L 497 212
L 497 212
L 497 212
L 497 212
L 497 211
L 497 211
L 497 211
L 497 211
L 497 211
L 497 211
L 497 211
L 497 211
L 497 211
L 497 211
L 497 211
L 497 211
L 497 211
L 497 211
L 497 211
L 497 211
L 497 211
L 497 211
L 497 211
L 497 211
L 497 211
L 497 211
L 497 211
L 497 210
L 497 210
L 497 210
L 497 210
L 497 210
L 497 210
L 497 210
L 497 210
L 498 210
L 498 210
L 498 210
L 498 210
L 498 210
L 498 210
L 498 210
L 498 210
L 498 210
L 498 210
L 498 210
L 498 210
L 498 210
L 498 210
L 498 210
L 498 209
L 498 209
L 498 209
L 498 209
L 498 209
L 498 209
L 498 209
L 498 209
L 498 209
L 498 209
L 498 209
L 498 209
L 498 209
L 498 209
L 498 209
L 498 209
L 499 209
L 499 209
L 499 209
L 499 209
L 499 209
L 499 209
L 499 208
L 499 208
L 499 208
L 499 208
L 499 208
L 499 208
L 499 208
L 499 208
L 499 208
L 499 208
L 499 208
L 499 208
L 499 208
L 499 208
L 499 208
L 499 208
L 499 208
L 499 208
L 499 208
L 499 208
L 499 208
L 499 208
L 499 208
L 499 207
L 499 207
L 499 207
L 500 207
L 500 207
L 500 207
L 500 207
L 500 207
L 500 207
L 500 207
L 500 207
L 500 207
L 500 207
L 500 207
L 500 207
L 500 207
L 500 207
L 500 207
L 500 207
L 500 207
L 500 207
L 500 207
L 500 207
L 500 206
L 500 206
L 500 206
L 500 206
L 500 206
L 500 206
L 500 206
L 500 206
L 500 206
L 500 206
L 500 206
L 500 206
L 500 206
L 500 206
L 500 206
L 501 206
L 501 206
L 501 206
L 501 206
L 501 206
L 501 206
L 501 206
L 501 205
L 501 205
L 501 205
L 501 205
L 501 205
L 501 205
L 501 205
L 501 205
L 501 205
L 501 205
L 501 205
L 501 205
L 501 205
L 501 205
L 501 205
L 501 205
L 501 205
L 501 205
L 501 205
L 501 205
L 501 205
L 501 205
L 501 205
L 501 204
L 501 204
L 501 204
L 501 204
L 501 204
L 501 204
L 501 204
L 501 204
L 501 204
L 501 204
L 501 204
L 501 204
L 501 204
L 501 204
L 501 204
L 501 204
L 501 204
L 501 204
L 501 204
L 501 204
L 501 204
L 502 204
L 502 204
L 502 203
L 502 203
L 502 203
L 502 203
L 502 203
L 502 203
L 502 203
L 502 203
L 502 203
L 502 203
L 502 203
L 502 203
L 502 203
L 502 203
L 502 203
L 502 203
L 502 203
L 502 203
L 502 203
L 502 203
L 502 203
L 502 203
L 502 202
L 502 202
L 502 202
L 503 202
L 503 202
L 503 202
L 503 202
L 503 202
L 503 202
L 503 202
L 503 202
L 503 202
L 503 202
L 503 202
L 503 202
L 503 202
L 503 202
L 503 202
L 503 202
L 503 202
L 503 202
L 503 202
L 503 202
L 503 201
L 503 201
L 503 201
L 504 201
L 504 201
L 504 201
L 504 201
L 504 201
L 504 201
L 504 201
L 504 201
L 504 201
L 504 201
L 504 201
L 504 201
L 504 201
L 504 201
L 505 201
L 505 201
L 505 201
L 506 201
L 506 201
L 507 201
L 508 200
L 508 200
L 508 200
L 508 200
L 508 200
L 508 200
L 508 200
L 508 200
L 508 200
L 508 200
L 508 200
L 508 200
L 508 200
L 508 200
L 508 200
L 508 200
L 508 200
L 508 200
L 508 200
L 508 200
L 508 200
L 508 200
L 508 199
L 508 199
L 509 199
L 509 199
L 509 199
L 509 199
L 509 199
L 509 199
L 509 199
L 509 199
L 509 199
L 509 199
L 509 199
L 509 199
L 509 199
L 509 199
L 509 199
L 509 199
L 509 199
L 509 199
L 509 199
L 509 199
L 509 199
L 509 198
L 509 198
L 509 198
L 509 198
L 509 198
L 509 198
L 509 198
L 509 198
L 509 198
L 509 198
L 509 198
L 509 198
L 509 198
L 509 198
L 509 198
L 509 198
L 509 198
L 510 198
L 510 198
L 510 198
L 510 198
L 510 198
L 510 198
L 510 197
L 510 197
L 510 197
L 510 197
L 510 197
L 510 197
L 510 197
L 510 197
L 510 197
L 510 197
L 510 197
L 510 197
L 510 197
L 510 197
L 511 197
L 511 197
L 511 197
L 511 197
L 511 197
L 511 197
L 511 197
L 511 197
L 511 196
L 511 196
L 511 196
L 511 196
L 511 196
L 511 196
L 511 196
L 511 196
L 511 196
L 511 196
L 511 196
L 511 196
L 511 196
L 511 196
L 511 196
L 511 196
L 511 196
L 511 196
L 512 196
L 512 196
L 512 196
L 512 196
L 512 196
L 512 195
L 512 195
L 512 195
L 512 195
L 512 195
L 512 195
L 512 195
L 512 195
L 512 195
L 512 195
L 512 195
L 512 195
L 512 195
L 512 195
L 512 195
L 512 195
L 512 195
L 512 195
L 512 195
L 512 195
L 512 195
L 512 195
L 512 194
L 512 194
L 512 194
L 512 194
L 512 194
L 512 194
L 512 194
L 512 194
L 512 194
L 512 194
L 512 194
L 512 194
L 513 194
L 513 194
L 513 194
L 513 194
L 513 194
L 513 194
L 513 194
L 513 194
L 513 194
L 513 194
L 513 194
L 513 193
L 513 193
L 514 193
L 514 193
L 514 193
L 514 193
L 514 193
L 514 193
L 514 193
L 514 193
L 514 193
L 514 193
L 514 193
L 514 193
L 514 193
L 514 193
L 514 193
L 514 193
L 514 193
L 514 193
L 515 193
L 515 193
L 515 193
L 515 192
L 515 192
L 515 192
L 515 192
L 515 192
L 515 192
L 516 192
L 516 192
L 516 192
L 516 192
L 517 192
L 517 192
L 517 192
L 517 192
L 518 192
L 519 192
L 519 192
L 519 192
L 519 192
L 519 192
L 519 192
L 519 192
L 520 191
L 520 191
L 520 191
L 520 191
L 520 191
L 520 191
L 520 191
L 520 191
L 520 191
L 520 191
L 520 191
L 520 191
L 520 191
L 520 191
L 520 191
L 520 191
L 520 191
L 520 191
L 520 191
L 520 191
L 520 191
L 520 191
L 520 191
L 520 190
L 520 190
L 521 190
L 521 190
L 521 190
L 521 190
L 521 190
L 521 190
L 521 190
L 521 190
L 521 190
L 521 190
L 521 190
L 521 190
L 522 190
L 522 190
L 522 190
L 522 190
L 522 190
L 522 190
L 522 190
L 522 190
L 522 190
L 522 189
L 522 189
L 522 189
L 522 189
L 522 189
L 522 189
L 523 189
L 523 189
L 523 189
L 523 189
L 523 189
L 523 189
L 523 189
L 523 189
L 523 189
L 523 189
L 523 189
L 524 189
L 524 189
L 524 189
L 524 189
L 524 189
L 524 188
L 524 188
L 524 188
L 525 188
L 525 188
L 525 188
L 525 188
L 525 188
L 525 188
L 525 188
L 525 188
L 525 188
L 525 188
L 525 188
L 525 188
L 525 188
L 525 188
L 525 188
L 525 188
L 525 188
L 526 188
L 526 188
L 526 188
L 526 187
L 526 187
L 526 187
L 526 187
L 526 187
L 526 187
L 527 187
L 527 187
L 531 187
L 531 187
L 531 187
L 531 187
L 531 187
L 531 187
L 531 187
L 532 187
L 532 187
L 532 187
L 532 187
L 532 187
L 532 187
L 532 187
L 532 187
L 532 186
L 532 186
L 533 186
L 533 186
L 533 186
L 533 186
L 533 186
L 533 186
L 533 186
L 533 186
L 534 186
L 534 186
L 534 186
L 534 186
L 534 186
L 534 186
L 534 186
L 534 186
L 534 186
L 534 186
L 534 186
L 534 186
L 534 185
L 535 185
L 535 185
L 535 185
L 535 185
L 535 185
L 535 185
L 535 185
L 535 185
L 535 185
L 535 185
L 535 185
L 536 185
L 536 185
L 536 185
L 536 185
L 536 185
L 536 185
L 536 185
L 537 185
L 537 185
L 537 185
L 537 185
L 537 184
L 537 184
L 537 184
L 537 184
L 537 184
L 537 184
L 537 184
L 537 184
L 537 184
L 537 184
L 537 184
L 537 184
L 537 184
L 537 184
L 537 184
L 538 184
L 538 184
L 538 184
L 538 184
L 538 184
L 538 184
L 538 184
L 538 184
L 539 183
L 539 183
L 540 183
L 540 183
L 540 183
L 541 183
L 541 183
L 541 183
L 541 183
L 541 183
L 542 183
L 542 183
L 542 183
L 542 183
L 542 183
L 542 183
L 542 183
L 542 183
L 542 183
L 542 183
L 542 183
L 542 183
L 542 182
L 542 182
L 542 182
L 542 182
L 542 182
L 542 182
L 542 182
L 542 182
L 542 182
L 542 182
L 542 182
L 542 182
L 542 182
L 542 182
L 542 182
L 542 182
L 542 182
L 542 182
L 543 182
L 543 182
L 543 182
L 543 182
L 543 182
L 543 181
L 543 181
L 543 181
L 543 181
L 543 181
L 543 181
L 543 181
L 543 181
L 543 181
L 543 181
L 543 181
L 543 181
L 543 181
L 543 181
L 543 181
L 543 181
L 543 181
L 543 181
L 544 181
L 544 181
L 544 181
L 544 181
L 544 181
L 544 180
L 544 180
L 544 180
L 544 180
L 544 180
L 544 180
L 544 180
L 544 180
L 544 180
L 544 180
L 544 180
L 544 180
L 544 180
L 545 180
L 545 180
L 545 180
L 545 180
L 545 180
L 545 180
L 545 180
L 545 180
L 545 180
L 545 179
L 545 179
L 545 179
L 545 179
L 545 179
L 545 179
L 545 179
L 545 179
L 545 179
L 545 179
L 546 179
L 546 179
L 546 179
L 546 179
L 546 179
L 546 179
L 546 179
L 546 179
L 546 179
L 546 179
L 546 179
L 546 179
L 546 179
L 546 178
L 546 178
L 546 178
L 547 178
L 547 178
L 547 178
L 547 178
L 547 178
L 547 178
L 547 178
L 547 178
L 547 178
L 547 178
L 547 178
L 547 178
L 547 178
L 547 178
L 547 178
L 547 178
L 548 178
L 548 178
L 548 178
L 548 177
L 548 177
L 548 177
L 548 177
L 548 177
L 548 177
L 548 177
L 548 177
L 549 177
L 549 177
L 549 177
L 549 177
L 549 177
L 549 177
L 549 177
L 551 177
L 552 177
L 553 177
L 553 177
L 553 177
L 553 177
L 553 177
L 553 177
L 553 176
L 553 176
L 553 176
L 553 176
L 553 176
L 553 176
L 553 176
L 553 176
L 553 176
L 553 176
L 554 176
L 554 176
L 554 176
L 554 176
L 554 176
L 554 176
L 554 176
L 554 176
L 554 176
L 554 176
L 554 176
L 554 176
L 554 176
L 554 175
L 554 175
L 554 175
L 554 175
L 554 175
L 554 175
L 554 175
L 554 175
L 554 175
L 555 175
L 555 175
L 555 175
L 555 175
L 555 175
L 555 175
L 555 175
L 555 175
L 555 175
L 555 175
L 555 175
L 555 175
L 555 175
L 555 174
L 555 174
L 556 174
L 556 174
L 556 174
L 556 174
L 556 174
L 556 174
L 556 174
L 556 174
L 556 174
L 556 174
L 556 174
L 556 174
L 556 174
L 556 174
L 556 174
L 556 174
L 556 174
L 556 174
L 556 174
L 556 174
L 556 174
L 556 173
L 556 173
L 556 173
L 556 173
L 556 173
L 556 173
L 557 173
L 557 173
L 557 173
L 557 173
L 557 173
L 557 173
L 557 173
L 557 173
L 557 173
L 557 173
L 557 173
L 557 173
L 557 173
L 557 173
L 557 173
L 557 173
L 557 173
L 557 172
L 557 172
L 557 172
L 557 172
L 557 172
L 557 172
L 558 172
L 558 172
L 558 172
L 558 172
L 558 172
L 558 172
L 558 172
L 558 172
L 558 172
L 558 172
L 558 172
L 558 172
L 558 172
L 558 172
L 558 172
L 558 172
L 558 171
L 558 171
L 558 171
L 558 171
L 558 171
L 559 171
L 559 171
L 559 171
L 559 171
L 559 171
L 559 171
L 559 171
L 559 171
L 559 171
L 559 171
L 559 171
L 559 171
L 559 171
L 559 171
L 559 171
L 559 171
L 559 171
L 560 171
L 560 170
L 560 170
L 560 170
L 560 170
L 561 170
L 561 170
L 561 170
L 562 170
L 564 170
L 564 170
L 564 170
L 564 170
L 564 170
L 564 170
L 564 170
L 564 170
L 564 170
L 564 170
L 564 170
L 564 170
L 564 170
L 564 170
L 565 170
L 565 169
L 565 169
L 565 169
L 565 169
L 565 169
L 565 169
L 565 169
L 565 169
L 565 169
L 565 169
L 565 169
L 565 169
L 565 169
L 565 169
L 565 169
L 565 169
L 565 169
L 565 169
L 565 169
L 565 169
L 565 169
L 565 169
L 565 168
L 565 168
L 565 168
L 565 168
L 565 168
L 565 168
L 565 168
L 565 168
L 565 168
L 566 168
L 566 168
L 566 168
L 566 168
L 566 168
L 566 168
L 566 168
L 566 168
L 566 168
L 566 168
L 566 168
L 566 168
L 566 168
L 566 168
L 566 167
L 567 167
L 567 167
L 567 167
L 567 167
L 567 167
L 567 167
L 567 167
L 567 167
L 567 167
L 567 167
L 567 167
L 567 167
L 567 167
L 567 167
L 567 167
L 567 167
L 567 167
L 567 167
L 567 167
L 567 167
L 567 167
L 567 167
L 567 166
L 567 166
L 567 166
L 567 166
L 567 166
L 567 166
L 567 166
L 568 166
L 568 166
L 568 166
L 568 166
L 568 166
L 568 166
L 568 166
L 568 166
L 568 166
L 568 166
L 568 166
L 568 166
L 568 166
L 568 166
L 568 166
L 568 165
L 568 165
L 569 165
L 569 165
L 569 165
L 569 165
L 569 165
L 569 165
L 569 165
L 569 165
L 570 165
L 570 165
L 570 165
L 570 165
L 570 165
L 570 165
L 570 165
L 570 165
L 570 165
L 570 165
L 570 165
L 570 165
L 570 165
L 570 164
L 570 164
L 570 164
L 571 164
L 571 164
L 571 164
L 571 164
L 571 164
L 571 164
L 571 164
L 571 164
L 571 164
L 571 164
L 571 164
L 571 164
L 571 164
L 571 164
L 572 164
L 572 164
L 572 164
L 573 164
L 574 164
L 575 163
L 575 163
L 575 163
L 575 163
L 575 163
L 575 163
L 575 163
L 575 163
L 575 163
L 575 163
L 575 163
L 575 163
L 575 163
L 575 163
L 575 163
L 575 163
L 575 163
L 575 163
L 575 163
L 575 163
L 575 163
L 575 163
L 575 163
L 575 162
L 575 162
L 575 162
L 575 162
L 575 162
L 575 162
L 575 162
L 575 162
L 575 162
L 575 162
L 575 162
L 575 162
L 575 162
L 575 162
L 575 162
L 575 162
L 575 162
L 575 162
L 575 162
L 576 162
L 576 162
L 576 162
L 576 162
L 576 161
L 576 161
L 576 161
L 576 161
L 576 161
L 576 161
L 576 161
L 576 161
L 576 161
L 576 161
L 576 161
L 576 161
L 576 161
L 576 161
L 576 161
L 576 161
L 576 161
L 576 161
L 576 161
L 576 161
L 576 161
L 576 161
L 576 160
L 576 160
L 576 160
L 576 160
L 576 160
L 576 160
L 576 160
L 576 160
L 576 160
L 576 160
L 576 160
L 576 160
L 576 160
L 576 160
L 576 160
L 576 160
L 576 160
L 576 160
L 576 160
L 576 160
L 576 160
L 576 160
L 576 160
L 576 159
L 576 159
L 576 159
L 576 159
L 576 159
L 576 159
L 576 159
L 577 159
L 577 159
L 577 159
L 577 159
L 577 159
L 577 159
L 577 159
L 577 159
L 577 159
L 577 159
L 577 159
L 577 159
L 577 159
L 577 159
L 577 159
L 577 159
L 577 158
L 577 158
L 577 158
L 578 158
L 578 158
L 578 158
L 578 158
L 578 158
L 578 158
L 578 158
L 578 158
L 578 158
L 578 158
L 578 158
L 578 158
L 578 158
L 578 158
L 578 158
L 578 158
L 578 158
L 578 158
L 578 158
L 578 157
L 578 157
L 578 157
L 578 157
L 578 157
L 578 157
L 578 157
L 578 157
L 578 157
L 578 157
L 578 157
L 578 157
L 578 157
L 578 157
L 578 157
L 578 157
L 578 157
L 578 157
L 578 157
L 578 157
L 578 157
L 578 157
L 578 157
L 578 156
L 578 156
L 578 156
L 578 156
L 578 156
L 578 156
L 578 156
L 578 156
L 578 156
L 579 156
L 579 156
L 579 156
L 579 156
L 579 156
L 579 156
L 579 156
L 579 156
L 579 156
L 579 156
L 579 156
L 579 156
L 579 156
L 579 156
L 579 155
L 579 155
L 579 155
L 579 155
L 579 155
L 579 155
L 579 155
L 579 155
L 579 155
L 579 155
L 579 155
L 579 155
L 579 155
L 579 155
L 579 155
L 579 155
L 579 155
L 579 155
L 579 155
L 579 155
L 579 155
L 579 155
L 579 154
L 579 154
L 579 154
L 580 154
L 580 154
L 580 154
L 580 154
L 580 154
L 580 154
L 580 154
L 580 154
L 580 154
L 580 154
L 580 154
L 580 154
L 580 154
L 580 154
L 580 154
L 580 154
L 580 154
L 580 154
L 580 154
L 580 154
L 580 153
L 580 153
L 581 153
L 581 153
L 581 153
L 581 153
L 581 153
L 581 153
L 581 153
L 581 153
L 581 153
L 581 153
L 581 153
L 581 153
L 581 153
L 581 153
L 581 153
L 581 153
L 581 153
L 581 153
L 581 153
L 581 153
L 581 153
L 581 152
L 581 152
L 581 152
L 581 152
L 581 152
L 581 152
L 581 152
L 581 152
L 581 152
L 581 152
L 582 152
L 582 152
L 582 152
L 582 152
L 582 152
L 582 152
L 582 152
L 582 152
L 582 152
L 582 152
L 582 152
L 582 152
L 582 151
L 582 151
L 583 151
L 583 151
L 583 151
L 583 151
L 583 151
L 583 151
L 583 151
L 584 151
L 584 151
L 584 151
L 584 151
L 584 151
L 584 151
L 586 151
L 586 151
L 586 151
L 586 151
L 586 151
L 586 151
L 586 151
L 586 151
L 587 150
L 587 150
L 587 150
L 587 150
L 587 150
L 587 150
L 587 150
L 587 150
L 587 150
L 587 150
L 587 150
L 587 150
L 587 150
L 587 150
L 587 150
L 587 150
L 587 150
L 587 150
L 587 150
L 587 150
L 587 150
L 587 150
L 587 150
L 587 149
L 587 149
L 587 149
L 587 149
L 587 149
L 587 149
L 587 149
L 587 149
L 587 149
L 587 149
L 587 149
L 587 149
L 587 149
L 587 149
L 587 149
L 588 149
L 588 149
L 588 149
L 588 149
L 588 149
L 588 149
L 588 149
L 588 148
L 588 148
L 588 148
L 588 148
L 588 148
L 588 148
L 588 148
L 588 148
L 588 148
L 588 148
L 589 148
L 589 148
L 589 148
L 589 148
L 589 148
L 589 148
L 589 148
L 589 148
L 589 148
L 589 148
L 589 148
L 589 148
L 589 148
L 589 147
L 589 147
L 589 147
L 589 147
L 589 147
L 589 147
L 589 147
L 589 147
L 589 147
L 589 147
L 589 147
L 589 147
L 589 147
L 589 147
L 589 147
L 589 147
L 589 147
L 589 147
L 589 147
L 589 147
L 589 147
L 589 147
L 589 147
L 589 146
L 590 146
L 590 146
L 590 146
L 590 146
L 590 146
L 590 146
L 590 146
L 590 146
L 590 146
L 590 146
L 590 146
L 590 146
L 590 146
L 590 146
L 590 146
L 590 146
L 590 146
L 590 146
L 590 146
L 590 146
L 590 146
L 590 145
L 590 145
L 590 145
L 590 145
L 590 145
L 590 145
L 590 145
L 590 145
L 590 145
L 590 145
L 590 145
L 591 145
L 591 145
L 591 145
L 591 145
L 591 145
L 591 145
L 591 145
L 591 145
L 591 145
L 591 145
L 591 145
L 591 145
L 591 144
L 591 144
L 592 144
L 592 144
L 592 144
L 592 144
L 592 144
L 592 144
L 592 144
L 592 144
L 592 144
L 592 144
L 592 144
L 592 144
L 592 144
L 592 144
L 592 144
L 593 144
L 593 144
L 593 144
L 593 144
L 593 144
L 593 143
L 594 143
L 594 143
L 594 143
L 594 143
L 594 143
L 594 143
L 594 143
L 594 143
L 594 143
L 595 143
L 595 143
L 595 143
L 595 143
L 597 143
L 598 143
L 598 143
L 598 143
L 599 143
L 599 143
L 599 143
L 599 143
L 599 143
L 599 142
L 599 142
L 599 142
L 599 142
L 599 142
L 599 142
L 599 142
L 600 142
L 600 142
L 600 142
L 600 142
L 600 142
L 600 142
L 600 142
L 601 142
L 601 142
L 601 142
L 601 142
L 601 142
L 601 142
L 601 142
L 601 142
L 601 142
L 601 141
L 601 141
L 601 141
L 601 141
L 601 141
L 602 141
L 602 141
L 602 141
L 602 141
L 602 141
L 602 141
L 603 141
L 603 141
L 603 141
L 604 141
L 604 141
L 604 141
L 604 141
L 605 141
L 605 141
L 605 141
L 605 141
L 606 140
L 606 140
L 606 140
L 607 140
L 609 140
L 609 140
L 610 140
L 610 140
L 610 140
L 610 140
L 611 140
L 611 140
L 611 140
L 611 140
L 611 140
L 611 140
L 611 140
L 611 140
L 612 140
L 612 140
L 612 140
L 612 140
L 612 140
L 612 139
L 612 139
L 613 139
L 613 139
L 613 139
L 613 139
L 614 139
L 614 139
L 614 139
L 614 139
L 614 139
L 614 139
L 614 139
L 614 139
L 615 139
L 615 139
L 615 139
L 615 139
L 615 139
L 615 139
L 615 139
L 616 139
L 616 139
L 616 138
L 616 138
L 617 138
L 620 138
L 620 138
L 620 138
L 620 138
L 620 138
L 620 138
L 620 138
L 620 138
L 621 138
L 621 138
L 621 138
L 621 138
L 621 138
L 621 138
L 621 138
L 621 138
L 621 138
L 621 138
L 621 138
L 621 137
L 621 137
L 621 137
L 621 137
L 621 137
L 621 137
L 621 137
L 621 137
L 621 137
L 621 137
L 622 137
L 622 137
L 622 137
L 622 137
L 622 137
L 622 137
L 622 137
L 622 137
L 622 137
L 622 137
L 623 137
L 623 137
L 623 137
L 623 136
L 623 136
L 623 136
L 623 136
L 623 136
L 623 136
L 623 136
L 623 136
L 623 136
L 623 136
L 623 136
L 624 136
L 624 136
L 624 136
L 624 136
L 624 136
L 624 136
L 624 136
L 624 136
L 624 136
L 624 136
L 624 136
L 624 136
L 624 135
L 624 135
L 624 135
L 624 135
L 624 135
L 624 135
L 624 135
L 624 135
L 625 135
L 625 135
L 625 135
L 625 135
L 625 135
L 625 135
L 625 135
L 625 135
L 625 135
L 626 135
L 626 135
L 626 135
L 626 135
L 626 135
L 626 134
L 626 134
L 626 134
L 626 134
L 626 134
L 626 134
L 626 134
L 626 134
L 626 134
L 627 134
L 627 134
L 627 134
L 627 134
L 627 134
L 627 134
L 627 134
L 627 134
L 627 134
L 627 134
L 627 134
L 627 134
L 627 134
L 628 134
L 628 133
L 628 133
L 629 133
L 629 133
L 631 133
L 631 133
L 632 133
L 632 133
L 632 133
L 632 133
L 632 133
L 632 133
L 632 133
L 632 133
L 632 133
L 632 133
L 632 133
L 632 133
L 632 133
L 632 133
L 632 133
L 632 133
L 632 133
L 632 132
L 632 132
L 632 132
L 632 132
L 632 132
L 632 132
L 632 132
L 632 132
L 632 132
L 632 132
L 632 132
L 632 132
L 632 132
L 632 132
L 632 132
L 632 132
L 632 132
L 632 132
L 632 132
L 632 132
L 632 132
L 632 132
L 632 131
L 632 131
L 632 131
L 632 131
L 632 131
L 632 131
L 632 131
L 632 131
L 632 131
L 632 131
L 632 131
L 632 131
L 632 131
L 633 131
L 633 131
L 633 131
L 633 131
L 633 131
L 633 131
L 633 131
L 633 131
L 633 131
L 633 131
L 633 130
L 633 130
L 633 130
L 633 130
L 633 130
L 633 130
L 633 130
L 633 130
L 633 130
L 633 130
L 633 130
L 633 130
L 633 130
L 633 130
L 633 130
L 633 130
L 633 130
L 633 130
L 633 130
L 633 130
L 633 130
L 633 130
L 633 130
L 633 129
L 633 129
L 633 129
L 633 129
L 633 129
L 633 129
L 633 129
L 633 129
L 633 129
L 633 129
L 634 129
L 634 129
L 634 129
L 634 129
L 634 129
L 634 129
L 634 129
L 634 129
L 634 129
L 634 129
L 634 129
L 634 129
L 634 128
L 634 128
L 634 128
L 634 128
L 634 128
L 634 128
L 634 128
L 634 128
L 634 128
L 634 128
L 634 128
L 634 128
L 635 128
L 635 128
L 635 128
L 635 128
L 635 128
L 635 128
L 635 128
L 635 128
L 635 128
L 635 128
L 635 128
L 635 127
L 635 127
L 635 127
L 635 127
L 635 127
L 635 127
L 635 127
L 635 127
L 635 127
L 635 127
L 635 127
L 635 127
L 635 127
L 635 127
L 635 127
L 635 127
L 636 127
L 636 127
L 636 127
L 636 127
L 636 127
L 636 127
L 636 126
L 636 126
L 636 126
L 636 126
L 636 126
L 636 126
L 636 126
L 636 126
L 636 126
L 636 126
L 636 126
L 636 126
L 636 126
L 636 126
L 636 126
L 636 126
L 636 126
L 636 126
L 636 126
L 636 126
L 636 126
L 636 126
L 636 126
L 636 125
L 636 125
L 637 125
L 637 125
L 637 125
L 637 125
L 637 125
L 637 125
L 637 125
L 637 125
L 637 125
L 637 125
L 637 125
L 637 125
L 637 125
L 637 125
L 637 125
L 637 125
L 637 125
L 638 125
L 638 125
L 638 125
L 638 125
L 638 124
L 638 124
L 638 124
L 638 124
L 638 124
L 638 124
L 639 124
L 640 124
L 640 124
L 640 124
L 641 124
L 641 124
L 643 124
L 643 124
L 643 124
L 643 124
L 643 124
L 643 124
L 643 124
L 643 124
L 643 124
L 643 124
L 643 123
L 643 123
L 643 123
L 643 123
L 643 123
L 643 123
L 643 123
L 643 123
L 643 123
L 643 123
L 643 123
L 643 123
L 643 123
L 643 123
L 643 123
L 643 123
L 643 123
L 643 123
L 643 123
L 643 123
L 643 123
L 643 123
L 643 123
L 643 122
L 643 122
L 643 122
L 643 122
L 643 122
L 643 122
L 643 122
L 643 122
L 643 122
L 643 122
L 643 122
L 643 122
L 643 122
L 644 122
L 644 122
L 644 122
L 644 122
L 644 122
L 644 122
L 644 122
L 644 122
L 644 122
L 644 122
L 644 121
L 644 121
L 644 121
L 644 121
L 644 121
L 644 121
L 644 121
L 644 121
L 644 121
L 644 121
L 644 121
L 644 121
L 644 121
L 644 121
L 644 121
L 644 121
L 644 121
L 644 121
L 644 121
L 644 121
L 644 121
L 644 121
L 644 120
L 644 120
L 644 120
L 644 120
L 644 120
L 644 120
L 644 120
L 644 120
L 644 120
L 644 120
L 644 120
L 644 120
L 644 120
L 645 120
L 645 120
L 645 120
L 645 120
L 645 120
L 645 120
L 645 120
L 645 120
L 645 120
L 645 120
L 645 119
L 645 119
L 645 119
L 645 119
L 645 119
L 645 119
L 645 119
L 645 119
L 645 119
L 645 119
L 645 119
L 645 119
L 645 119
L 645 119
L 645 119
L 645 119
L 645 119
L 645 119
L 645 119
L 645 119
L 645 119
L 645 119
L 645 119
L 645 118
L 645 118
L 645 118
L 645 118
L 646 118
L 646 118
L 646 118
L 646 118
L 646 118
L 646 118
L 646 118
L 646 118
L 646 118
L 646 118
L 646 118
L 646 118
L 646 118
L 646 118
L 646 118
L 646 118
L 646 118
L 646 118
L 646 117
L 646 117
L 646 117
L 646 117
L 646 117
L 646 117
L 646 117
L 646 117
L 646 117
L 646 117
L 646 117
L 646 117
L 646 117
L 646 117
L 646 117
L 646 117
L 646 117
L 646 117
L 647 117
L 647 117
L 647 117
L 647 117
L 647 117
L 647 116
L 647 116
L 647 116
L 647 116
L 647 116
L 647 116
L 647 116
L 647 116
L 647 116
L 647 116
L 647 116
L 647 116
L 647 116
L 647 116
L 647 116
L 647 116
L 647 116
L 647 116
L 647 116
L 647 116
L 648 116
L 648 116
L 648 116
L 648 115
L 648 115
L 648 115
L 648 115
L 648 115
L 648 115
L 648 115
L 648 115
L 648 115
L 648 115
L 648 115
L 648 115
L 649 115
L 649 115
L 649 115
L 649 115
L 649 115
L 649 115
L 649 115
L 649 115
L 649 115
L 649 115
L 649 114
L 649 114
L 649 114
L 650 114
L 650 114
L 650 114
L 650 114
L 650 114
L 650 114
L 650 114
L 651 114
L 651 114
L 652 114
L 652 114
L 652 114
L 653 114
L 653 114
L 653 114
L 654 114
L 654 114
L 654 114
L 654 114
L 654 114
L 654 113
L 654 113
L 654 113
L 654 113
L 654 113
L 654 113
L 654 113
L 654 113
L 654 113
L 654 113
L 654 113
L 654 113
L 654 113
L 654 113
L 654 113
L 654 113
L 654 113
L 654 113
L 654 113
L 654 113
L 655 113
L 655 113
L 655 113
L 655 112
L 655 112
L 655 112
L 655 112
L 655 112
L 655 112
L 655 112
L 655 112
L 655 112
L 655 112
L 655 112
L 655 112
L 655 112
L 655 112
L 655 112
L 655 112
L 655 112
L 655 112
L 655 112
L 655 112
L 655 112
L 655 112
L 655 111
L 655 111
L 655 111
L 655 111
L 655 111
L 655 111
L 655 111
L 655 111
L 655 111
L 656 111
L 656 111
L 656 111
L 656 111
L 656 111
L 656 111
L 656 111
L 656 111
L 656 111
L 656 111
L 656 111
L 656 111
L 656 111
L 656 111
L 656 110
L 656 110
L 656 110
L 656 110
L 656 110
L 657 110
L 657 110
L 657 110
L 657 110
L 657 110
L 657 110
L 657 110
L 657 110
L 657 110
L 657 110
L 657 110
L 657 110
L 657 110
L 657 110
L 657 110
L 657 110
L 657 110
L 657 109
L 657 109
L 657 109
L 657 109
L 657 109
L 657 109
L 657 109
L 657 109
L 658 109
L 658 109
L 658 109
L 658 109
L 658 109
L 658 109
L 658 109
L 658 109
L 658 109
L 658 109
L 658 109
L 658 109
L 658 109
L 658 109
L 658 109
L 658 108
L 658 108
L 658 108
L 658 108
L 658 108
L 658 108
L 658 108
L 658 108
L 658 108
L 658 108
L 658 108
L 658 108
L 658 108
L 658 108
L 659 108
L 659 108
L 659 108
L 659 108
L 659 108
L 659 108
L 659 108
L 659 108
L 660 108
L 660 107
L 660 107
L 660 107
L 660 107
L 660 107
L 660 107
L 660 107
L 661 107
L 661 107
L 661 107
L 661 107
L 661 107
L 661 107
L 661 107
L 661 107
L 661 107
L 661 107
L 661 107
L 662 107
L 662 107
L 664 107
L 665 107
L 665 106
L 665 106
L 665 106
L 665 106
L 665 106
L 665 106
L 665 106
L 665 106
L 665 106
L 665 106
L 665 106
L 665 106
L 665 106
L 665 106
L 666 106
L 666 106
L 666 106
L 666 106
L 666 106
L 666 106
L 666 106
L 666 106
L 666 106
L 666 105
L 666 105
L 666 105
L 666 105
L 666 105
L 666 105
L 666 105
L 666 105
L 666 105
L 666 105
L 666 105
L 666 105
L 666 105
L 666 105
L 666 105
L 666 105
L 666 105
L 666 105
L 666 105
L 666 105
L 666 105
L 666 105
L 666 105
L 666 104
L 666 104
L 667 104
L 667 104
L 667 104
L 667 104
L 667 104
L 667 104
L 667 104
L 667 104
L 667 104
L 667 104
L 667 104
L 668 104
L 668 104
L 668 104
L 668 104
L 668 104
L 668 104
L 668 104
L 668 104
L 668 104
L 668 103
L 668 103
L 668 103
L 668 103
L 668 103
L 668 103
L 668 103
L 668 103
L 668 103
L 668 103
L 668 103
L 669 103
L 669 103
L 669 103
L 669 103
L 669 103
L 669 103
L 669 103
L 669 103
L 669 103
L 669 103
L 669 103
L 669 103
L 669 102
L 669 102
L 669 102
L 669 102
L 669 102
L 669 102
L 669 102
L 669 102
L 670 102
L 670 102
L 670 102
L 670 102
L 670 102
L 670 102
L 670 102
L 670 102
L 670 102
L 670 102
L 670 102
L 670 102
L 670 102
L 670 102
L 670 102
L 670 101
L 671 101
L 671 101
L 671 101
L 671 101
L 671 101
L 671 101
L 672 101
L 672 101
L 672 101
L 672 101
L 672 101
L 672 101
L 672 101
L 675 101
L 677 101
L 677 101
L 677 101
L 677 101
L 677 101
L 678 101
L 678 101
L 678 100
L 678 100
L 678 100
L 678 100
L 679 100
L 679 100
L 679 100
L 679 100
L 679 100
L 679 100
L 679 100
L 680 100
L 680 100
L 680 100
L 680 100
L 680 100
L 680 100
L 680 100
L 681 100
L 681 100
L 681 100
L 682 100
L 682 100
L 682 99
L 682 99
L 682 99
L 682 99
L 682 99
L 682 99
L 682 99
L 682 99
L 682 99
L 682 99
L 682 99
L 682 99
L 682 99
L 683 99
L 683 99
L 683 99
L 683 99
L 683 99
L 683 99
L 683 99
L 683 99
L 683 99
L 683 99
L 683 98
L 684 98
L 684 98
L 684 98
L 684 98
L 684 98
L 684 98
L 684 98
L 684 98
L 684 98
L 684 98
L 685 98
L 685 98
L 687 98
L 687 98
L 688 98
L 688 98
L 688 98
L 688 98
L 688 98
L 689 98
L 689 98
L 689 97
L 689 97
L 689 97
L 689 97
L 689 97
L 690 97
L 690 97
L 690 97
L 690 97
L 690 97
L 690 97
L 690 97
L 691 97
L 691 97
L 692 97
L 693 97
L 693 97
L 693 97
L 693 97
L 693 97
L 693 97
L 693 97
L 693 97
L 693 96
L 694 96
L 694 96
L 694 96
L 694 96
L 694 96
L 694 96
L 694 96
L 694 96
L 694 96
L 694 96
L 694 96
L 694 96
L 695 96
L 695 96
L 695 96
L 697 96
L 697 96
L 699 96
L 699 96
L 699 96
L 699 96
L 699 96
L 699 95
L 699 95
L 699 95
L 699 95
L 699 95
L 699 95
L 699 95
L 699 95
L 699 95
L 699 95
L 699 95
L 699 95
L 699 95
L 699 95
L 699 95
L 699 95
L 699 95
L 700 95
L 700 95
L 700 95
L 700 95
L 700 95
L 700 94
L 700 94
L 700 94
L 700 94
L 700 94
L 700 94
L 700 94
L 700 94
L 700 94
L 700 94
L 700 94
L 700 94
L 700 94
L 700 94
L 700 94
L 700 94
L 701 94
L 701 94
L 701 94
L 701 94
L 701 94
L 701 94
L 701 94
L 701 93
L 701 93
L 701 93
L 701 93
L 701 93
L 701 93
L 701 93
L 701 93
L 702 93
L 702 93
L 702 93
L 702 93
L 702 93
L 702 93
L 702 93
L 702 93
L 702 93
L 702 93
L 702 93
L 702 93
L 702 93
L 702 93
L 702 92
L 702 92
L 702 92
L 702 92
L 702 92
L 702 92
L 702 92
L 702 92
L 702 92
L 702 92
L 702 92
L 702 92
L 702 92
L 702 92
L 703 92
L 703 92
L 703 92
L 703 92
L 703 92
L 703 92
L 703 92
L 703 92
L 703 92
L 703 91
L 703 91
L 703 91
L 703 91
L 703 91
L 703 91
L 703 91
L 703 91
L 703 91
L 703 91
L 703 91
L 704 91
L 704 91
L 704 91
L 704 91
L 704 91
L 704 91
L 704 91
L 704 91
L 704 91
L 704 91
L 704 91
L 704 91
L 704 90
L 705 90
L 705 90
L 705 90
L 705 90
L 705 90
L 705 90
L 706 90
L 706 90
L 706 90
L 706 90
L 706 90
L 706 90
L 708 90
L 710 90
L 710 90
L 710 90
L 710 90
L 710 90
L 710 90
L 710 90
L 710 90
L 710 89
L 710 89
L 710 89
L 710 89
L 710 89
L 711 89
L 711 89
L 711 89
L 711 89
L 711 89
L 711 89
L 711 89
L 711 89
L 711 89
L 711 89
L 711 89
L 711 89
L 711 89
L 711 89
L 711 89
L 711 89
L 711 89
L 711 89
L 711 88
L 711 88
L 711 88
L 711 88
L 712 88
L 712 88
L 712 88
L 712 88
L 712 88
L 712 88
L 712 88
L 712 88
L 712 88
L 712 88
L 712 88
L 712 88
L 712 88
L 712 88
L 712 88
L 712 88
L 713 88
L 713 88
L 713 88
L 713 87
L 713 87
L 713 87
L 713 87
L 713 87
L 713 87
L 713 87
L 713 87
L 713 87
L 713 87
L 713 87
L 713 87
L 713 87
L 713 87
L 713 87
L 713 87
L 713 87
L 713 87
L 713 87
L 713 87
L 714 87
L 714 87
L 714 86
L 714 86
L 714 86
L 714 86
L 714 86
L 714 86
L 714 86
L 714 86
L 714 86
L 714 86
L 714 86
L 714 86
L 714 86
L 714 86
L 714 86
L 714 86
L 714 86
L 714 86
L 714 86
L 714 86
L 714 86
L 714 86
L 714 86
L 714 85
L 715 85
L 715 85
L 715 85
L 715 85
L 715 85
L 715 85
L 715 85
L 715 85
L 715 85
L 715 85
L 715 85
L 715 85
L 715 85
L 715 85
L 716 85
L 716 85
L 716 85
L 716 85
L 716 85
L 716 85
L 716 85
L 716 85
L 716 84
L 716 84
L 716 84
L 716 84
L 716 84
L 716 84
L 716 84
L 717 84
L 717 84
L 717 84
L 717 84
L 717 84
L 717 84
L 717 84
L 717 84
L 717 84
L 717 84
L 717 84
L 717 84
L 717 84
L 717 84
L 717 84
L 717 83
L 717 83
L 717 83
L 717 83
L 718 83
L 718 83
L 718 83
L 718 83
L 718 83
L 719 83
L 719 83
L 719 83
L 721 83
L 721 83
L 721 83
L 721 83
L 721 83
L 721 83
L 721 83
L 721 83
L 721 83
L 721 83
L 721 83
L 721 82
L 721 82
L 721 82
L 721 82
L 721 82
L 722 82
L 722 82
L 722 82
L 722 82
L 722 82
L 722 82
L 722 82
L 722 82
L 722 82
L 722 82
L 722 82
L 722 82
L 722 82
L 722 82
L 722 82
L 722 82
L 722 82
L 722 82
L 722 81
L 722 81
L 722 81
L 722 81
L 722 81
L 722 81
L 722 81
L 722 81
L 722 81
L 722 81
L 722 81
L 722 81
L 723 81
L 723 81
L 723 81
L 723 81
L 723 81
L 723 81
L 723 81
L 723 81
L 723 81
L 723 81
L 723 80
L 723 80
L 723 80
L 723 80
L 723 80
L 723 80
L 723 80
L 723 80
L 723 80
L 723 80
L 723 80
L 723 80
L 723 80
L 723 80
L 723 80
L 723 80
L 723 80
L 724 80
L 724 80
L 724 80
L 724 80
L 724 80
L 724 80
L 724 79
L 724 79
L 724 79
L 724 79
L 724 79
L 724 79
L 724 79
L 724 79
L 724 79
L 724 79
L 724 79
L 724 79
L 724 79
L 724 79
L 724 79
L 724 79
L 724 79
L 724 79
L 724 79
L 724 79
L 724 79
L 724 79
L 724 79
L 724 78
L 724 78
L 724 78
L 724 78
L 725 78
L 725 78
L 725 78
L 725 78
L 725 78
L 725 78
L 725 78
L 725 78
L 725 78
L 725 78
L 725 78
L 725 78
L 725 78
L 725 78
L 725 78
L 725 78
L 725 78
L 725 78
L 725 77
L 725 77
L 725 77
L 725 77
L 725 77
L 725 77
L 725 77
L 725 77
L 725 77
L 725 77
L 725 77
L 725 77
L 725 77
L 725 77
L 725 77
L 725 77
L 725 77
L 725 77
L 725 77
L 725 77
L 725 77
L 725 77
L 726 77
L 726 76
L 726 76
L 726 76
L 726 76
L 726 76
L 726 76
L 726 76
L 726 76
L 726 76
L 726 76
L 726 76
L 726 76
L 726 76
L 726 76
L 726 76
L 726 76
L 726 76
L 726 76
L 726 76
L 726 76
L 727 76
L 727 76
L 727 75
L 727 75
L 727 75
L 727 75
L 727 75
L 727 75
L 727 75
L 727 75
L 727 75
L 728 75
L 728 75
L 728 75
L 728 75
L 728 75
L 728 75
L 728 75
L 728 75
L 728 75
L 728 75
L 729 75
L 729 75
L 729 75
L 730 75
L 730 74
L 730 74
L 732 74
L 732 74
L 732 74
L 732 74
L 732 74
L 733 74
L 733 74
L 733 74
L 733 74
L 733 74
L 733 74
L 733 74
L 733 74
L 733 74
L 733 74
L 733 74
L 733 74
L 733 74
L 733 74
L 733 74
L 733 74
L 733 73
L 733 73
L 733 73
L 733 73
L 733 73
L 733 73
L 733 73
L 733 73
L 733 73
L 733 73
L 733 73
L 734 73
L 734 73
L 734 73
L 734 73
L 734 73
L 734 73
L 734 73
L 734 73
L 734 73
L 734 73
L 734 73
L 734 72
L 734 72
L 734 72
L 734 72
L 734 72
L 734 72
L 734 72
L 734 72
L 734 72
L 734 72
L 734 72
L 734 72
L 734 72
L 735 72
L 735 72
L 735 72
L 735 72
L 735 72
L 735 72
L 735 72
L 735 72
L 735 72
L 735 72
L 735 71
L 735 71
L 735 71
L 735 71
L 735 71
L 735 71
L 735 71
L 735 71
L 735 71
L 735 71
L 735 71
L 735 71
L 735 71
L 735 71
L 736 71
L 736 71
L 736 71
L 736 71
L 736 71
L 736 71
L 736 71
L 736 71
L 736 71
L 736 70
L 736 70
L 736 70
L 736 70
L 736 70
L 736 70
L 736 70
L 736 70
L 736 70
L 736 70
L 736 70
L 736 70
L 736 70
L 736 70
L 736 70
L 736 70
L 736 70
L 737 70
L 737 70
L 737 70
L 737 70
L 737 70
L 737 69
L 737 69
L 737 69
L 737 69
L 737 69
L 737 69
L 737 69
L 737 69
L 737 69
L 737 69
L 737 69
L 737 69
L 737 69
L 737 69
L 737 69
L 737 69
L 737 69
L 738 69
L 738 69
L 738 69
L 739 69
L 739 69
L 739 69
L 739 68
L 739 68
L 739 68
L 740 68
L 740 68
L 740 68
L 740 68
L 740 68
L 740 68
L 740 68
L 741 68
L 741 68
L 742 68
L 742 68
L 743 68
L 744 68
L 744 68
L 744 68
L 744 68
L 744 68
L 744 68
L 744 68
L 744 68
L 744 67
L 744 67
L 744 67
L 744 67
L 744 67
L 744 67
L 744 67
L 744 67
L 744 67
L 744 67
L 744 67
L 744 67
L 745 67
L 745 67
L 745 67
L 745 67
L 745 67
L 745 67
L 745 67
L 745 67
L 745 67
L 745 67
L 745 66
L 745 66
L 745 66
L 745 66
L 745 66
L 746 66
L 746 66
L 746 66
L 746 66
L 746 66
L 746 66
L 746 66
L 746 66
L 746 66
L 746 66
L 746 66
L 746 66
L 746 66
L 746 66
L 746 66
L 747 66
L 747 66
L 747 66
L 747 65
L 747 65
L 747 65
L 747 65
L 747 65
L 747 65
L 747 65
L 747 65
L 747 65
L 747 65
L 747 65
L 747 65
L 747 65
L 747 65
L 747 65
L 747 65
L 747 65
L 747 65
L 748 65
L 748 65
L 748 65
L 748 65
L 748 65
L 748 64
L 748 64
L 748 64
L 748 64
L 748 64
L 748 64
L 748 64
L 748 64
L 748 64
L 748 64
L 748 64
L 748 64
L 748 64
L 748 64
L 748 64
L 748 64
L 748 64
L 748 64
L 748 64
L 748 64
L 748 64
L 749 64
L 749 63
L 749 63
L 749 63
L 749 63
L 749 63
L 749 63
L 749 63
L 749 63
L 750 63
L 750 63
L 750 63
L 750 63
L 751 63
L 751 63
L 751 63
L 751 63
L 751 63
L 754 63
L 755 63
L 755 63
L 755 63
L 756 63
L 756 63
L 756 62
L 756 62
L 756 62
L 756 62
L 756 62
L 756 62
L 756 62
L 756 62
L 757 62
L 757 62
L 757 62
L 758 62
L 758 62
L 758 62
L 758 62
L 758 62
L 759 62
L 759 62
L 759 62
L 760 62
L 760 62
L 760 62
L 760 62
L 760 61
L 760 61
L 761 61
L 762 61
L 762 61
L 762 61
L 762 61
L 762 61
L 762 61
L 763 61
L 763 61
L 763 61
L 764 61
L 766 61
L 766 61
L 767 61
L 767 61
L 767 61
L 767 61
L 767 61
L 767 61
L 767 61
L 767 60
L 768 60
L 768 60
L 768 60
L 768 60
L 769 60
L 769 60
L 769 60
L 769 60
L 769 60
L 769 60
L 770 60
L 770 60
L 770 60
L 770 60
L 770 60
L 770 60
L 770 60
L 771 60
L 771 60
L 771 60
L 772 60
L 772 60
L 772 59
L 772 59
L 772 59
L 772 59
L 773 59
L 773 59
L 773 59
L 774 59
L 774 59
L 775 59
L 776 59
L 777 59
L 778 59
L 778 59
L 778 59
L 778 59
L 778 59
L 778 59
L 778 59
L 778 59
L 778 59
L 778 59
L 778 58
L 778 58
L 778 58
L 779 58
L 779 58
L 779 58
L 779 58
L 779 58
L 779 58
L 779 58
L 779 58
L 779 58
L 779 58
L 779 58
L 780 58
L 780 58
L 780 58
L 780 58
L 780 58
L 780 58
L 780 58
L 780 58
L 780 58
L 780 57
L 780 57
L 780 57
L 780 57
L 780 57
L 780 57
L 780 57
L 780 57
L 780 57
L 781 57
L 781 57
L 781 57
L 781 57
L 781 57
L 781 57
L 781 57
L 781 57
L 781 57
L 781 57
L 781 57
L 781 57
L 781 57
L 781 57
L 781 56
L 781 56
L 781 56
L 782 56
L 782 56
L 782 56
L 782 56
L 782 56
L 782 56
L 782 56
L 782 56
L 782 56
L 782 56
L 782 56
L 782 56
L 783 56
L 783 56
L 783 56
L 783 56
L 783 56
L 783 56
L 783 56
L 783 55
L 784 55
L 784 55
L 784 55
L 784 55
L 784 55
L 784 55
L 784 55
L 784 55
L 785 55
L 785 55
L 785 55
L 786 55
L 786 55
L 787 55
L 788 55
L 789 55
L 789 55
L 789 55
L 789 55
L 789 55
L 789 55
L 789 55
L 789 54
L 789 54
L 789 54
L 789 54
L 789 54
L 789 54
L 789 54
L 789 54
L 789 54
L 790 54
L 790 54
L 790 54
L 790 54
L 790 54
L 790 54
L 790 54
L 790 54
L 790 54
L 790 54
L 790 54
L 790 54
L 791 54
L 791 54
L 791 53
L 791 53
L 791 53
L 791 53
L 791 53
L 791 53
L 791 53
L 791 53
L 791 53
L 791 53
L 791 53
L 792 53
L 792 53
L 792 53
L 792 53
L 792 53
L 792 53
L 792 53
L 792 53
L 792 53
L 792 53
L 792 53
L 792 52
L 792 52
L 792 52
L 792 52
L 792 52
L 793 52
L 793 52
L 793 52
L 793 52
L 793 52
L 793 52
L 793 52
L 793 52
L 793 52
L 793 52
L 794 52
L 794 52
L 795 52
L 795 52
L 795 52
L 795 52
L 795 52
L 795 52
L 795 51
L 796 51
L 796 51
L 796 51
L 798 51
L 800 51
L 800 51
L 800 51
L 800 51
L 800 51
L 800 51
L 800 51
L 800 51
L 800 51
L 801 51
L 801 51
L 801 51
L 801 51
L 801 51
L 801 51
L 801 51
L 802 51
L 802 51
L 802 50
L 802 50
L 802 50
L 802 50
L 802 50
L 802 50
L 802 50
L 803 50
L 803 50
L 803 50
L 803 50
L 803 50
L 803 50
L 803 50
L 803 50
L 803 50
L 803 50
L 803 50
L 803 50
L 804 50
L 804 50
L 804 50
L 804 49
L 804 49
L 804 49
L 804 49
L 804 49
L 804 49
L 804 49
L 804 49
L 805 49
L 805 49
L 805 49
L 805 49
L 805 49
L 806 49
L 806 49
L 806 49
L 806 49
L 807 49
L 807 49
L 808 49
L 808 49
L 809 49
L 812 49
L 812 48
L 812 48
L 812 48
L 812 48
L 812 48
L 812 48
L 812 48
L 812 48
L 812 48
L 812 48
L 812 48
L 812 48
L 812 48
L 813 48
L 813 48
L 813 48
L 813 48
L 813 48
L 814 48
L 814 48
L 814 48
L 814 48
L 814 48
L 814 47
L 814 47
L 814 47
L 814 47
L 814 47
L 814 47
L 814 47
L 814 47
L 814 47
L 815 47
L 815 47
L 815 47
L 815 47
L 815 47
L 815 47
L 815 47
L 815 47
L 815 47
L 815 47
L 815 47
L 816 47
L 816 47
L 816 46
L 817 46
L 818 46
L 818 46
L 818 46
L 819 46
L 821 46
L 822 46
L 822 46
L 823 46
L 823 46
L 823 46
L 823 46
L 823 46
L 823 46
L 823 46
L 823 46
L 823 46
L 823 46
L 823 46
L 823 46
L 823 46
L 823 46
L 823 45
L 823 45
L 824 45
L 824 45
L 824 45
L 824 45
L 824 45
L 824 45
L 824 45
L 824 45
L 824 45
L 824 45
L 824 45
L 824 45
L 824 45
L 824 45
L 824 45
L 824 45
L 824 45
L 824 45
L 824 45
L 824 45
L 824 45
L 824 44
L 824 44
L 824 44
L 824 44
L 824 44
L 824 44
L 824 44
L 824 44
L 824 44
L 824 44
L 824 44
L 824 44
L 824 44
L 824 44
L 824 44
L 824 44
L 824 44
L 825 44
L 825 44
L 825 44
L 825 44
L 825 44
L 825 43
L 825 43
L 825 43
L 825 43
L 825 43
L 825 43
L 825 43
L 825 43
L 825 43
L 825 43
L 825 43
L 825 43
L 825 43
L 825 43
L 825 43
L 825 43
L 825 43
L 825 43
L 825 43
L 825 43
L 825 43
L 825 43
L 825 43
L 825 42
L 825 42
L 825 42
L 825 42
L 825 42
L 825 42
L 825 42
L 825 42
L 825 42
L 825 42
L 825 42
L 825 42
L 825 42
L 826 42
L 826 42
L 826 42
L 826 42
L 826 42
L 826 42
L 826 42
L 826 42
L 826 42
L 826 41
L 826 41
L 826 41
L 826 41
L 826 41
L 826 41
L 826 41
L 826 41
L 826 41
L 826 41
L 826 41
L 826 41
L 826 41
L 826 41
L 826 41
L 826 41
L 826 41
L 826 41
L 826 41
L 826 41
L 826 41
L 826 41
L 826 41
L 827 40
L 827 40
L 827 40
L 827 40
L 827 40
L 827 40
L 827 40
L 827 40
L 827 40
L 827 40
L 827 40
L 827 40
L 827 40
L 827 40
L 827 40
L 827 40
L 827 40
L 827 40
L 827 40
L 827 40
L 827 40
L 827 40
L 827 40
L 827 39
L 827 39
L 828 39
L 828 39
L 828 39
L 828 39
L 828 39
L 828 39
L 828 39
L 828 39
L 828 39
L 828 39
L 828 39
L 828 39
L 828 39
L 829 39
L 829 39
L 829 39
L 829 39
L 829 39
L 829 39
L 829 39
L 829 38
L 829 38
L 829 38
L 829 38
L 829 38
L 829 38
L 829 38
L 829 38
L 830 38
L 830 38
L 830 38
L 830 38
L 830 38
L 831 38
L 831 38
L 832 38
L 832 38
L 832 38
L 833 38
L 833 38
L 833 38
L 833 38
L 834 38
L 834 37
L 834 37
L 834 37
L 834 37
L 834 37
L 834 37
L 834 37
L 834 37
L 834 37
L 834 37
L 834 37
L 834 37
L 834 37
L 834 37
L 834 37
L 834 37
L 834 37
L 834 37
L 834 37
L 834 37
L 834 37
L 834 37
L 834 37
L 834 36
L 834 36
L 834 36
L 834 36
L 835 36
L 835 36
L 835 36
L 835 36
L 835 36
L 835 36
L 835 36
L 835 36
L 835 36
L 835 36
L 835 36
L 835 36
L 835 36
L 835 36
L 835 36
L 836 36
L 836 36
L 836 36
L 836 35
L 836 35
L 836 35
L 836 35
L 836 35
L 836 35
L 836 35
L 836 35
L 836 35
L 836 35
L 836 35
L 836 35
L 836 35
L 836 35
L 836 35
L 836 35
L 836 35
L 836 35
L 836 35
L 836 35
L 836 35
L 837 35
L 837 35
L 837 34
L 837 34
L 837 34
L 837 34
L 837 34
L 837 34
L 837 34
L 837 34
L 837 34
L 837 34
L 837 34
L 837 34
L 837 34
L 837 34
L 837 34
L 837 34
L 838 34
L 838 34
L 838 34
L 838 34
L 839 34
L 839 34
L 839 34
L 839 33
L 839 33
L 839 33
L 839 33
L 839 33
L 840 33
L 840 33
L 840 33
L 840 33
L 840 33
L 840 33
L 840 33
L 840 33
L 841 33
L 841 33
L 841 33
L 842 33
L 845 33
L 845 33
L 845 33
L 846 33
L 846 33
L 846 32
L 846 32
L 846 32
L 846 32
L 846 32
L 846 32
L 847 32
L 847 32
L 847 32
L 847 32
L 847 32
L 847 32
L 847 32
L 847 32
L 847 32
L 848 32
L 848 32
L 848 32
L 848 32
L 848 32
L 848 32
L 848 32
L 848 32
L 848 31
L 849 31
L 849 31
L 849 31
L 849 31
L 849 31
L 849 31
L 850 31
L 850 31
L 850 31
L 850 31
L 850 31
L 850 31
L 851 31
L 851 31
L 851 31
L 851 31
L 851 31
L 851 31
L 851 31
L 852 31
L 852 31
L 852 31
L 852 30
L 852 30
L 853 30
L 855 30
L 856 30
L 856 30
L 856 30
L 857 30
L 857 30
L 857 30
L 857 30
L 858 30
L 858 30
L 859 30
L 859 30
L 859 30
L 859 30
L 860 30
L 861 30
L 861 30
L 862 30
L 862 30
L 862 29
L 863 29
L 865 29
L 866 29
L 868 29
L 868 29
L 869 29
L 869 29
L 870 29
L 870 29
L 872 29
L 872 29
L 872 29
L 873 29
L 873 29
L 873 29
L 873 29
L 874 29
L 874 29
L 874 29
L 874 29
L 874 29
L 874 29
L 874 28
L 874 28
L 874 28
L 875 28
L 875 28
L 878 28
L 879 28
L 880 28
L 880 28
L 880 28
L 881 28
L 881 28
L 881 28
L 882 28
L 882 28
L 883 28
L 883 28
L 883 28
L 883 28
L 883 28
L 884 28
L 884 28
L 884 28
L 884 27
L 885 27
L 885 27
L 885 27
L 886 27
L 886 27
L 888 27
L 890 27
L 890 27
L 891 27
L 892 27
L 892 27
L 892 27
L 892 27
L 893 27
L 894 27
L 894 27
L 894 27
L 894 27
L 895 27
L 895 27
L 896 27
L 897 26
L 897 26
L 897 26
L 898 26
L 898 26
L 899 26
L 901 26
L 902 26
L 902 26
L 902 26
L 903 26
L 904 26
L 904 26
L 905 26
L 906 26
L 906 26
L 907 26
L 907 26
L 907 26
L 907 26
L 908 26
L 909 26
L 910 26
L 910 25
L 912 25
L 913 25
L 915 25
L 915 25
L 915 25
L 917 25
L 917 25
L 918 25
L 919 25
L 919 25
L 919 25
L 919 25
L 919 25
L 919 25
L 919 25
L 919 25
L 921 25
L 923 25
L 923 25
L 923 25
L 924 25
L 924 24
L 924 24
L 924 24
L 925 24
L 925 24
L 925 24
L 925 24
L 925 24
L 925 24
L 925 24
L 926 24
L 927 24
L 927 24
L 927 24
L 927 24
L 927 24
L 927 24
L 927 24
L 929 24
L 929 24
L 929 24
L 929 24
L 930 24
L 930 23
L 930 23
L 931 23
L 931 23
L 931 23
L 933 23
L 934 23
L 934 23
L 935 23
L 935 23
L 935 23
L 935 23
L 935 23
L 935 23
L 935 23
L 935 23
L 935 23
L 935 23
L 935 23
L 935 23
L 935 23
L 935 23
L 935 23
L 935 22
L 935 22
L 935 22
L 935 22
L 935 22
L 935 22
L 935 22
L 936 22
L 936 22
L 936 22
L 936 22
L 936 22
L 936 22
L 936 22
L 936 22
L 936 22
L 936 22
L 936 22
L 936 22
L 936 22
L 937 22
L 937 22
L 937 21
L 937 21
L 937 21
L 937 21
L 937 21
L 937 21
L 937 21
L 937 21
L 937 21
L 937 21
L 937 21
L 937 21
L 937 21
L 937 21
L 937 21
L 937 21
L 937 21
L 937 21
L 937 21
L 937 21
L 938 21
L 938 21
L 938 21
L 938 20
L 938 20
L 938 20
L 938 20
L 938 20
L 938 20
L 938 20
L 938 20
L 938 20
L 938 20
L 938 20
L 938 20
L 938 20
L 938 20
L 938 20
L 938 20
L 938 20
L 939 20
L 939 20
L 939 20
L 939 20
L 939 20
L 939 20
L 939 19
L 939 19
L 939 19
L 939 19
L 939 19
L 939 19
L 939 19
L 939 19
L 939 19
L 939 19
L 939 19
L 939 19
L 939 19
L 940 19
L 940 19
L 940 19
L 940 19
L 940 19
L 940 19
L 941 19
L 941 19
L 941 19
L 941 18
L 941 18
L 941 18
L 941 18
L 941 18
L 942 18
L 943 18
L 945 18
L 946 18
L 946 18
L 946 18
L 946 18
L 946 18
L 946 18
L 946 18
L 946 18
L 946 18
L 946 18
L 946 18
L 946 18
L 946 18
L 946 18
L 946 18
L 946 17
L 946 17
L 946 17
L 946 17
L 946 17
L 946 17
L 946 17
L 946 17
L 946 17
L 947 17
L 947 17
L 947 17
L 947 17
L 947 17
L 947 17
L 947 17
L 947 17
L 947 17
L 947 17
L 947 17
L 947 17
L 947 17
L 947 17
L 947 16
L 947 16
L 947 16
L 947 16
L 947 16
L 947 16
L 948 16
L 948 16
L 948 16
L 948 16
L 948 16
L 948 16
L 948 16
L 948 16
L 948 16
L 948 16
L 948 16
L 948 16
L 948 16
L 948 16
L 948 16
L 948 16
L 948 15
L 948 15
L 948 15
L 948 15
L 948 15
L 948 15
L 948 15
L 948 15
L 948 15
L 949 15
L 949 15
L 949 15
L 949 15
L 949 15
L 949 15
L 949 15
L 949 15
L 949 15
L 949 15
L 949 15
L 949 15
L 949 15
L 949 15
L 949 14
L 949 14
L 949 14
L 949 14
L 949 14
L 949 14
L 949 14
L 949 14
L 949 14
L 949 14
L 949 14
L 949 14
L 949 14
L 949 14
L 949 14
L 949 14
L 950 14
L 950 14
L 950 14
L 950 14
L 950 14
L 950 14
L 950 14
L 950 13
L 950 13
L 950 13
L 950 13
L 950 13
L 950 13
L 950 13
L 950 13
L 950 13
L 950 13
L 950 13
L 950 13
L 950 13
L 950 13
L 950 13
L 950 13
L 951 13
L 951 13
L 951 13
L 951 13
L 951 13
L 951 13
L 951 12
L 951 12
L 951 12
L 951 12
L 951 12
L 952 12
L 952 12
L 952 12
L 952 12
L 952 12
L 952 12
L 952 12
L 953 12
L 953 12
L 953 12
L 953 12
L 954 12
L 954 12
L 954 12
L 955 12
L 957 12
L 957 12
L 957 12
L 957 11
L 957 11
L 957 11
L 957 11
L 957 11
L 957 11
L 957 11
L 957 11
L 957 11
L 957 11
L 957 11
L 957 11
L 957 11
L 957 11
L 957 11
L 957 11
L 957 11
L 957 11
L 957 11
L 957 11
L 957 11
L 957 11" style="stroke-width:2;stroke:rgba(129,199,239,1.0);fill:none"/></svg>