<svg xmlns="http://www.w3.org/2000/svg" xmlns:xlink="http://www.w3.org/1999/xlink" width="1024" height="400">\n<path  d="M 0 0
L 1024 0
L 1024 400
L 0 400
L 0 0" style="stroke-width:0;stroke:rgba(255,255,255,1.0);fill:rgba(255,255,255,1.0)"/><path  d="M 38 11
L 957 11
L 957 351
L 38 351
L 38 11" style="stroke-width:0;stroke:rgba(255,255,255,1.0);fill:rgba(255,255,255,1.0)"/><path  d="M 38 351
L 957 351" style="stroke-width:2;stroke:rgba(85,85,85,1.0);fill:none"/><path  d="M 38 351
L 38 356" style="stroke-width:2;stroke:rgba(85,85,85,1.0);fill:none"/><text x="5" y="373" style="stroke-width:0;stroke:none;fill:rgba(51,51,51,1.0);font-size:12.8px;font-family:'Roboto Medium',sans-serif">2018-11-23</text><path  d="M 153 351
L 153 356" style="stroke-width:2;stroke:rgba(85,85,85,1.0);fill:none"/><text x="120" y="373" style="stroke-width:0;stroke:none;fill:rgba(51,51,51,1.0);font-size:12.8px;font-family:'Roboto Medium',sans-serif">2018-12-01</text><path  d="M 268 351
L 268 356" style="stroke-width:2;stroke:rgba(85,85,85,1.0);fill:none"/><text x="235" y="373" style="stroke-width:0;stroke:none;fill:rgba(51,51,51,1.0);font-size:12.8px;font-family:'Roboto Medium',sans-serif">2018-12-09</text><path  d="M 383 351
L 383 356" style="stroke-width:2;stroke:rgba(85,85,85,1.0);fill:none"/><text x="350" y="373" style="stroke-width:0;stroke:none;fill:rgba(51,51,51,1.0);font-size:12.8px;font-family:'Roboto Medium',sans-serif">2018-12-17</text><path  d="M 498 351
L 498 356" style="stroke-width:2;stroke:rgba(85,85,85,1.0);fill:none"/><text x="465" y="373" style="stroke-width:0;stroke:none;fill:rgba(51,51,51,1.0);font-size:12.8px;font-family:'Roboto Medium',sans-serif">2018-12-25</text><path  d="M 613 351
L 613 356" style="stroke-width:2;stroke:rgba(85,85,85,1.0);fill:none"/><text x="580" y="373" style="stroke-width:0;stroke:none;fill:rgba(51,51,51,1.0);font-size:12.8px;font-family:'Roboto Medium',sans-serif">2019-01-02</text><path  d="M 728 351
L 728 356" style="stroke-width:2;stroke:rgba(85,85,85,1.0);fill:none"/><text x="695" y="373" style="stroke-width:0;stroke:none;fill:rgba(51,51,51,1.0);font-size:12.8px;font-family:'Roboto Medium',sans-serif">2019-01-10</text><path  d="M 843 351
L 843 356" style="stroke-width:2;stroke:rgba(85,85,85,1.0);fill:none"/><text x="810" y="373" style="stroke-width:0;stroke:none;fill:rgba(51,51,51,1.0);font-size:12.8px;font-family:'Roboto Medium',sans-serif">2019-01-18</text><path  d="M 957 351
L 957 356" style="stroke-width:2;stroke:rgba(85,85,85,1.0);fill:none"/><text x="924" y="373" style="stroke-width:0;stroke:none;fill:rgba(51,51,51,1.0);font-size:12.8px;font-family:'Roboto Medium',sans-serif">2019-01-27</text><text x="483" y="395" style="stroke-width:0;stroke:none;fill:rgba(51,51,51,1.0);font-size:12.8px;font-family:'Roboto Medium',sans-serif">Time</text><path  d="M 959 351
L 959 11" style="stroke-width:2;stroke:rgba(85,85,85,1.0);fill:none"/><path  d="M 959 351
L 964 351" style="stroke-width:2;stroke:rgba(85,85,85,1.0);fill:none"/><text x="969" y="357" style="stroke-width:0;stroke:none;fill:rgba(51,51,51,1.0);font-size:12.8px;font-family:'Roboto Medium',sans-serif">0</text><path  d="M 959 308
L 964 308" style="stroke-width:2;stroke:rgba(85,85,85,1.0);fill:none"/><text x="969" y="314" style="stroke-width:0;stroke:none;fill:rgba(51,51,51,1.0);font-size:12.8px;font-family:'Roboto Medium',sans-serif">840</text><path  d="M 959 265
L 964 265" style="stroke-width:2;stroke:rgba(85,85,85,1.0);fill:none"/><text x="969" y="271" style="stroke-width:0;stroke:none;fill:rgba(51,51,51,1.0);font-size:12.8px;font-family:'Roboto Medium',sans-serif">1680</text><path  d="M 959 223
L 964 223" style="stroke-width:2;stroke:rgba(85,85,85,1.0);fill:none"/><text x="969" y="229" style="stroke-width:0;stroke:none;fill:rgba(51,51,51,1.0);font-size:12.8px;font-family:'Roboto Medium',sans-serif">2520</text><path  d="M 959 181
L 964 181" style="stroke-width:2;stroke:rgba(85,85,85,1.0);fill:none"/><text x="969" y="187" style="stroke-width:0;stroke:none;fill:rgba(51,51,51,1.0);font-size:12.8px;font-family:'Roboto Medium',sans-serif">3350</text><path  d="M 959 138
L 964 138" style="stroke-width:2;stroke:rgba(85,85,85,1.0);fill:none"/><text x="969" y="144" style="stroke-width:0;stroke:none;fill:rgba(51,51,51,1.0);font-size:12.8px;font-family:'Roboto Medium',sans-serif">4190</text><path  d="M 959 95
L 964 95" style="stroke-width:2;stroke:rgba(85,85,85,1.0);fill:none"/><text x="969" y="101" style="stroke-width:0;stroke:none;fill:rgba(51,51,51,1.0);font-size:12.8px;font-family:'Roboto Medium',sans-serif">5030</text><path  d="M 959 53
L 964 53" style="stroke-width:2;stroke:rgba(85,85,85,1.0);fill:none"/><text x="969" y="59" style="stroke-width:0;stroke:none;fill:rgba(51,51,51,1.0);font-size:12.8px;font-family:'Roboto Medium',sans-serif">5870</text><path  d="M 959 11
L 964 11" style="stroke-width:2;stroke:rgba(85,85,85,1.0);fill:none"/><text x="969" y="17" style="stroke-width:0;stroke:none;fill:rgba(51,51,51,1.0);font-size:12.8px;font-family:'Roboto Medium',sans-serif">6700</text><text x="1009" y="150" style="stroke-width:0;stroke:none;fill:rgba(51,51,51,1.0);font-size:12.8px;font-family:'Roboto Medium',sans-serif" transform="rotate(90.00,1009,150)">Stargazers</text><path  d="M 38 351
L 113 350
L 165 350
L 167 350
L 178 350
L 178 350
L 178 350
L 179 350
L 179 350
L 180 350
L 180 350
L 180 350
L 180 350
L 180 350
L 180 350
L 181 350
L 181 350
L 181 350
L 181 350
L 181 350
L 182 349
L 182 349
L 184 349
L 185 349
L 192 349
L 193 349
L 193 349
L 193 349
L 194 349
L 195 349
L 197 349
L 198 349
L 199 349
L 199 349
L 199 349
L 199 349
L 200 349
L 200 349
L 204 349
L 205 349
L 206 348
L 206 348
L 206 348
L 206 348
L 207 348
L 207 348
L 207 348
L 207 348
L 208 348
L 208 348
L 210 348
L 210 348
L 210 348
L 210 348
L 211 348
L 211 348
L 211 348
L 211 348
L 212 348
L 212 348
L 212 347
L 213 347
L 213 347
L 213 347
L 214 347
L 214 347
L 214 347
L 214 347
L 215 347
L 219 347
L 221 347
L 221 347
L 221 347
L 221 347
L 221 347
L 221 347
L 221 347
L 221 347
L 223 347
L 223 346
L 223 346
L 223 346
L 223 346
L 223 346
L 223 346
L 223 346
L 223 346
L 223 346
L 223 346
L 223 346
L 223 346
L 223 346
L 223 346
L 223 346
L 223 346
L 223 346
L 223 346
L 223 346
L 223 346
L 223 345
L 223 345
L 223 345
L 223 345
L 223 345
L 223 345
L 223 345
L 223 345
L 223 345
L 223 345
L 223 345
L 223 345
L 223 345
L 223 345
L 223 345
L 223 345
L 223 345
L 223 345
L 224 345
L 224 345
L 224 344
L 224 344
L 224 344
L 224 344
L 224 344
L 224 344
L 224 344
L 224 344
L 224 344
L 224 344
L 224 344
L 224 344
L 225 344
L 225 344
L 225 344
L 225 344
L 225 344
L 225 344
L 225 344
L 225 343
L 226 343
L 226 343
L 226 343
L 226 343
L 226 343
L 226 343
L 226 343
L 227 343
L 227 343
L 227 343
L 227 343
L 227 343
L 227 343
L 227 343
L 229 343
L 230 343
L 234 343
L 234 343
L 235 343
L 235 342
L 235 342
L 235 342
L 235 342
L 235 342
L 236 342
L 236 342
L 237 342
L 237 342
L 237 342
L 237 342
L 238 342
L 238 342
L 238 342
L 238 342
L 239 342
L 239 342
L 239 342
L 239 342
L 239 342
L 240 341
L 240 341
L 241 341
L 248 341
L 249 341
L 249 341
L 249 341
L 250 341
L 251 341
L 252 341
L 253 341
L 257 341
L 257 341
L 258 341
L 260 341
L 264 341
L 264 341
L 266 341
L 267 341
L 267 341
L 268 340
L 268 340
L 269 340
L 269 340
L 269 340
L 269 340
L 269 340
L 270 340
L 270 340
L 272 340
L 277 340
L 277 340
L 277 340
L 278 340
L 278 340
L 278 340
L 280 340
L 281 340
L 281 340
L 285 339
L 285 339
L 291 339
L 294 339
L 294 339
L 294 339
L 295 339
L 297 339
L 297 339
L 305 339
L 306 339
L 306 339
L 306 339
L 306 339
L 308 339
L 308 339
L 310 339
L 311 339
L 311 339
L 313 339
L 315 338
L 320 338
L 325 338
L 326 338
L 332 338
L 335 338
L 335 338
L 337 338
L 337 338
L 337 338
L 337 338
L 339 338
L 340 338
L 341 338
L 341 338
L 341 338
L 343 338
L 345 338
L 348 338
L 350 338
L 350 337
L 351 337
L 351 337
L 351 337
L 352 337
L 353 337
L 354 337
L 355 337
L 356 337
L 356 337
L 357 337
L 362 337
L 362 337
L 362 337
L 363 337
L 365 337
L 368 337
L 368 337
L 369 337
L 370 336
L 375 336
L 376 336
L 376 336
L 377 336
L 377 336
L 377 336
L 380 336
L 381 336
L 383 336
L 384 336
L 390 336
L 391 336
L 393 336
L 394 336
L 395 336
L 395 336
L 395 336
L 397 336
L 397 336
L 399 335
L 399 335
L 404 335
L 405 335
L 407 335
L 407 335
L 407 335
L 408 335
L 408 335
L 408 335
L 410 335
L 418 335
L 418 335
L 419 335
L 419 335
L 421 335
L 421 335
L 423 335
L 423 335
L 423 335
L 425 334
L 426 334
L 426 334
L 426 334
L 426 334
L 428 334
L 433 334
L 434 334
L 434 334
L 434 334
L 434 334
L 434 334
L 434 334
L 434 334
L 434 334
L 434 334
L 436 334
L 436 334
L 436 334
L 436 334
L 436 333
L 436 333
L 436 333
L 436 333
L 436 333
L 436 333
L 436 333
L 436 333
L 436 333
L 436 333
L 436 333
L 436 333
L 436 333
L 436 333
L 436 333
L 436 333
L 437 333
L 437 333
L 437 333
L 437 332
L 437 332
L 437 332
L 437 332
L 437 332
L 437 332
L 437 332
L 437 332
L 437 332
L 437 332
L 437 332
L 438 332
L 438 332
L 438 332
L 438 332
L 438 332
L 438 332
L 438 332
L 438 332
L 438 332
L 438 331
L 438 331
L 438 331
L 438 331
L 438 331
L 438 331
L 438 331
L 438 331
L 439 331
L 439 331
L 439 331
L 439 331
L 439 331
L 440 331
L 440 331
L 440 331
L 440 331
L 440 331
L 440 331
L 440 331
L 440 330
L 440 330
L 440 330
L 441 330
L 441 330
L 441 330
L 441 330
L 442 330
L 442 330
L 442 330
L 447 330
L 447 330
L 447 330
L 447 330
L 447 330
L 447 330
L 448 330
L 448 330
L 448 330
L 448 329
L 448 329
L 448 329
L 448 329
L 448 329
L 448 329
L 448 329
L 448 329
L 448 329
L 449 329
L 449 329
L 449 329
L 449 329
L 449 329
L 449 329
L 449 329
L 449 329
L 449 329
L 450 329
L 450 329
L 450 328
L 450 328
L 450 328
L 450 328
L 450 328
L 450 328
L 450 328
L 450 328
L 450 328
L 450 328
L 450 328
L 450 328
L 451 328
L 451 328
L 451 328
L 451 328
L 451 328
L 451 328
L 451 328
L 451 328
L 451 327
L 451 327
L 451 327
L 451 327
L 451 327
L 451 327
L 451 327
L 451 327
L 451 327
L 452 327
L 452 327
L 452 327
L 452 327
L 452 327
L 452 327
L 452 327
L 452 327
L 452 327
L 452 327
L 452 326
L 452 326
L 452 326
L 452 326
L 453 326
L 453 326
L 453 326
L 453 326
L 453 326
L 453 326
L 453 326
L 453 326
L 454 326
L 454 326
L 454 326
L 454 326
L 454 326
L 454 326
L 454 326
L 454 326
L 454 325
L 454 325
L 454 325
L 454 325
L 454 325
L 454 325
L 454 325
L 454 325
L 454 325
L 455 325
L 455 325
L 455 325
L 455 325
L 455 325
L 455 325
L 455 325
L 455 325
L 455 325
L 455 325
L 455 325
L 455 324
L 455 324
L 455 324
L 455 324
L 455 324
L 455 324
L 455 324
L 456 324
L 456 324
L 456 324
L 456 324
L 456 324
L 456 324
L 456 324
L 456 324
L 456 324
L 456 324
L 457 324
L 457 324
L 457 324
L 458 323
L 460 323
L 460 323
L 460 323
L 460 323
L 460 323
L 461 323
L 461 323
L 461 323
L 461 323
L 461 323
L 461 323
L 461 323
L 461 323
L 461 323
L 461 323
L 462 323
L 462 323
L 462 323
L 462 322
L 462 322
L 462 322
L 462 322
L 462 322
L 462 322
L 462 322
L 462 322
L 462 322
L 462 322
L 462 322
L 462 322
L 462 322
L 462 322
L 463 322
L 463 322
L 463 322
L 463 322
L 463 322
L 463 322
L 463 321
L 463 321
L 463 321
L 463 321
L 463 321
L 463 321
L 463 321
L 463 321
L 463 321
L 463 321
L 463 321
L 463 321
L 464 321
L 464 321
L 464 321
L 464 321
L 464 321
L 464 321
L 464 321
L 464 321
L 464 320
L 464 320
L 464 320
L 464 320
L 464 320
L 464 320
L 464 320
L 464 320
L 464 320
L 465 320
L 465 320
L 465 320
L 465 320
L 465 320
L 465 320
L 465 320
L 465 320
L 465 320
L 465 320
L 465 319
L 465 319
L 465 319
L 465 319
L 465 319
L 465 319
L 465 319
L 465 319
L 466 319
L 466 319
L 466 319
L 466 319
L 466 319
L 466 319
L 466 319
L 466 319
L 466 319
L 466 319
L 466 319
L 467 319
L 467 318
L 467 318
L 467 318
L 467 318
L 467 318
L 467 318
L 467 318
L 467 318
L 467 318
L 467 318
L 467 318
L 467 318
L 467 318
L 467 318
L 467 318
L 467 318
L 468 318
L 468 318
L 468 318
L 468 318
L 468 317
L 468 317
L 468 317
L 468 317
L 468 317
L 468 317
L 468 317
L 468 317
L 468 317
L 468 317
L 468 317
L 468 317
L 468 317
L 469 317
L 469 317
L 469 317
L 469 317
L 469 317
L 469 317
L 469 317
L 469 316
L 469 316
L 469 316
L 469 316
L 469 316
L 469 316
L 469 316
L 469 316
L 469 316
L 469 316
L 469 316
L 469 316
L 469 316
L 469 316
L 469 316
L 470 316
L 470 316
L 470 316
L 470 316
L 470 315
L 470 315
L 470 315
L 470 315
L 470 315
L 470 315
L 470 315
L 471 315
L 471 315
L 471 315
L 471 315
L 471 315
L 472 315
L 472 315
L 473 315
L 474 315
L 474 315
L 474 315
L 474 315
L 474 315
L 475 314
L 475 314
L 475 314
L 475 314
L 475 314
L 475 314
L 475 314
L 475 314
L 475 314
L 475 314
L 475 314
L 475 314
L 475 314
L 475 314
L 475 314
L 475 314
L 475 314
L 475 314
L 475 314
L 475 314
L 475 313
L 475 313
L 475 313
L 475 313
L 475 313
L 475 313
L 475 313
L 475 313
L 475 313
L 475 313
L 475 313
L 475 313
L 475 313
L 475 313
L 475 313
L 475 313
L 475 313
L 475 313
L 475 313
L 475 312
L 475 312
L 475 312
L 475 312
L 475 312
L 475 312
L 475 312
L 475 312
L 475 312
L 475 312
L 475 312
L 475 312
L 475 312
L 475 312
L 475 312
L 475 312
L 475 312
L 475 312
L 475 312
L 475 312
L 475 311
L 475 311
L 476 311
L 476 311
L 476 311
L 476 311
L 476 311
L 476 311
L 476 311
L 476 311
L 476 311
L 476 311
L 476 311
L 476 311
L 476 311
L 476 311
L 476 311
L 476 311
L 476 311
L 476 311
L 476 310
L 476 310
L 476 310
L 476 310
L 476 310
L 476 310
L 476 310
L 476 310
L 476 310
L 476 310
L 476 310
L 476 310
L 476 310
L 476 310
L 476 310
L 476 310
L 476 310
L 476 310
L 476 310
L 476 309
L 476 309
L 476 309
L 476 309
L 476 309
L 476 309
L 476 309
L 476 309
L 476 309
L 476 309
L 476 309
L 476 309
L 476 309
L 476 309
L 476 309
L 476 309
L 476 309
L 476 309
L 476 309
L 476 309
L 476 308
L 476 308
L 476 308
L 476 308
L 477 308
L 477 308
L 477 308
L 477 308
L 477 308
L 477 308
L 477 308
L 477 308
L 477 308
L 477 308
L 477 308
L 477 308
L 477 308
L 477 308
L 477 308
L 477 308
L 477 307
L 477 307
L 477 307
L 477 307
L 477 307
L 477 307
L 477 307
L 477 307
L 477 307
L 477 307
L 477 307
L 477 307
L 477 307
L 477 307
L 477 307
L 477 307
L 477 307
L 477 307
L 478 307
L 478 307
L 478 306
L 478 306
L 478 306
L 478 306
L 478 306
L 478 306
L 478 306
L 478 306
L 478 306
L 478 306
L 478 306
L 478 306
L 478 306
L 478 306
L 478 306
L 478 306
L 478 306
L 478 306
L 478 306
L 478 305
L 478 305
L 478 305
L 478 305
L 478 305
L 478 305
L 478 305
L 478 305
L 478 305
L 478 305
L 478 305
L 478 305
L 478 305
L 478 305
L 478 305
L 478 305
L 478 305
L 478 305
L 478 305
L 478 305
L 478 304
L 478 304
L 478 304
L 478 304
L 478 304
L 478 304
L 478 304
L 478 304
L 478 304
L 478 304
L 478 304
L 478 304
L 478 304
L 478 304
L 478 304
L 478 304
L 478 304
L 478 304
L 478 304
L 478 304
L 478 303
L 478 303
L 478 303
L 479 303
L 479 303
L 479 303
L 479 303
L 479 303
L 479 303
L 479 303
L 479 303
L 479 303
L 479 303
L 479 303
L 479 303
L 479 303
L 479 303
L 479 303
L 479 303
L 479 302
L 479 302
L 479 302
L 479 302
L 479 302
L 479 302
L 479 302
L 479 302
L 479 302
L 479 302
L 479 302
L 479 302
L 479 302
L 479 302
L 479 302
L 479 302
L 479 302
L 479 302
L 479 302
L 479 302
L 479 301
L 479 301
L 479 301
L 479 301
L 479 301
L 479 301
L 479 301
L 479 301
L 479 301
L 479 301
L 479 301
L 479 301
L 479 301
L 480 301
L 480 301
L 480 301
L 480 301
L 480 301
L 480 301
L 480 301
L 480 300
L 480 300
L 480 300
L 480 300
L 480 300
L 480 300
L 480 300
L 480 300
L 480 300
L 480 300
L 480 300
L 480 300
L 480 300
L 480 300
L 480 300
L 480 300
L 480 300
L 480 300
L 480 300
L 480 300
L 480 299
L 480 299
L 480 299
L 480 299
L 480 299
L 480 299
L 480 299
L 480 299
L 480 299
L 480 299
L 480 299
L 480 299
L 480 299
L 480 299
L 480 299
L 480 299
L 480 299
L 480 299
L 480 299
L 480 298
L 480 298
L 480 298
L 480 298
L 481 298
L 481 298
L 481 298
L 481 298
L 481 298
L 481 298
L 481 298
L 481 298
L 481 298
L 481 298
L 481 298
L 481 298
L 481 298
L 481 298
L 481 298
L 481 298
L 481 297
L 481 297
L 481 297
L 481 297
L 481 297
L 481 297
L 481 297
L 481 297
L 481 297
L 481 297
L 481 297
L 482 297
L 482 297
L 482 297
L 482 297
L 482 297
L 482 297
L 482 297
L 482 297
L 482 297
L 482 296
L 482 296
L 482 296
L 482 296
L 482 296
L 482 296
L 482 296
L 483 296
L 483 296
L 483 296
L 483 296
L 483 296
L 483 296
L 483 296
L 483 296
L 483 296
L 483 296
L 483 296
L 483 296
L 483 295
L 483 295
L 483 295
L 483 295
L 483 295
L 483 295
L 483 295
L 483 295
L 483 295
L 483 295
L 483 295
L 483 295
L 483 295
L 484 295
L 484 295
L 484 295
L 484 295
L 484 295
L 484 295
L 484 295
L 484 294
L 484 294
L 484 294
L 484 294
L 484 294
L 484 294
L 485 294
L 485 294
L 485 294
L 485 294
L 487 294
L 488 294
L 489 294
L 489 294
L 489 294
L 489 294
L 489 294
L 489 294
L 489 294
L 489 294
L 489 293
L 489 293
L 489 293
L 489 293
L 489 293
L 489 293
L 489 293
L 489 293
L 489 293
L 489 293
L 489 293
L 489 293
L 489 293
L 489 293
L 489 293
L 489 293
L 489 293
L 489 293
L 489 293
L 489 292
L 489 292
L 489 292
L 490 292
L 490 292
L 490 292
L 490 292
L 490 292
L 490 292
L 490 292
L 490 292
L 490 292
L 490 292
L 490 292
L 490 292
L 490 292
L 490 292
L 490 292
L 490 292
L 490 292
L 490 291
L 490 291
L 490 291
L 490 291
L 490 291
L 490 291
L 490 291
L 490 291
L 490 291
L 490 291
L 490 291
L 490 291
L 490 291
L 490 291
L 490 291
L 490 291
L 490 291
L 490 291
L 490 291
L 490 291
L 490 290
L 490 290
L 490 290
L 490 290
L 490 290
L 490 290
L 490 290
L 490 290
L 490 290
L 490 290
L 490 290
L 490 290
L 490 290
L 490 290
L 490 290
L 490 290
L 490 290
L 490 290
L 490 290
L 490 290
L 490 289
L 490 289
L 490 289
L 490 289
L 490 289
L 490 289
L 490 289
L 490 289
L 490 289
L 490 289
L 490 289
L 490 289
L 490 289
L 490 289
L 490 289
L 490 289
L 490 289
L 490 289
L 490 289
L 490 288
L 490 288
L 490 288
L 490 288
L 490 288
L 490 288
L 490 288
L 490 288
L 490 288
L 490 288
L 490 288
L 490 288
L 490 288
L 490 288
L 490 288
L 490 288
L 491 288
L 491 288
L 491 288
L 491 288
L 491 287
L 491 287
L 491 287
L 491 287
L 491 287
L 491 287
L 491 287
L 491 287
L 491 287
L 491 287
L 491 287
L 491 287
L 491 287
L 491 287
L 491 287
L 491 287
L 491 287
L 491 287
L 491 287
L 491 287
L 491 286
L 491 286
L 491 286
L 491 286
L 491 286
L 491 286
L 491 286
L 491 286
L 491 286
L 491 286
L 492 286
L 492 286
L 492 286
L 492 286
L 492 286
L 492 286
L 492 286
L 492 286
L 492 286
L 492 285
L 492 285
L 492 285
L 492 285
L 492 285
L 492 285
L 492 285
L 492 285
L 492 285
L 492 285
L 492 285
L 492 285
L 492 285
L 492 285
L 492 285
L 492 285
L 492 285
L 492 285
L 492 285
L 492 285
L 492 284
L 492 284
L 492 284
L 492 284
L 492 284
L 492 284
L 492 284
L 492 284
L 492 284
L 492 284
L 492 284
L 492 284
L 492 284
L 492 284
L 492 284
L 492 284
L 492 284
L 493 284
L 493 284
L 493 284
L 493 283
L 493 283
L 493 283
L 493 283
L 493 283
L 493 283
L 493 283
L 493 283
L 493 283
L 493 283
L 493 283
L 493 283
L 493 283
L 493 283
L 493 283
L 493 283
L 493 283
L 493 283
L 493 283
L 493 283
L 493 282
L 493 282
L 493 282
L 493 282
L 493 282
L 493 282
L 493 282
L 493 282
L 493 282
L 493 282
L 493 282
L 493 282
L 493 282
L 493 282
L 493 282
L 493 282
L 493 282
L 493 282
L 493 282
L 493 281
L 493 281
L 494 281
L 494 281
L 494 281
L 494 281
L 494 281
L 494 281
L 494 281
L 494 281
L 494 281
L 494 281
L 494 281
L 494 281
L 494 281
L 494 281
L 494 281
L 494 281
L 494 281
L 494 281
L 494 280
L 494 280
L 494 280
L 494 280
L 494 280
L 494 280
L 494 280
L 494 280
L 494 280
L 494 280
L 494 280
L 494 280
L 494 280
L 494 280
L 494 280
L 494 280
L 494 280
L 494 280
L 494 280
L 494 280
L 494 279
L 494 279
L 494 279
L 494 279
L 494 279
L 494 279
L 494 279
L 495 279
L 495 279
L 495 279
L 495 279
L 495 279
L 495 279
L 495 279
L 495 279
L 495 279
L 495 279
L 495 279
L 495 279
L 495 278
L 495 278
L 495 278
L 495 278
L 495 278
L 495 278
L 495 278
L 495 278
L 495 278
L 495 278
L 495 278
L 495 278
L 495 278
L 495 278
L 495 278
L 495 278
L 495 278
L 495 278
L 495 278
L 495 278
L 495 277
L 495 277
L 495 277
L 495 277
L 495 277
L 495 277
L 495 277
L 495 277
L 495 277
L 495 277
L 495 277
L 495 277
L 495 277
L 495 277
L 495 277
L 495 277
L 495 277
L 495 277
L 495 277
L 495 277
L 495 276
L 495 276
L 495 276
L 495 276
L 495 276
L 496 276
L 496 276
L 496 276
L 496 276
L 496 276
L 496 276
L 496 276
L 496 276
L 496 276
L 496 276
L 496 276
L 496 276
L 496 276
L 496 276
L 496 275
L 496 275
L 496 275
L 496 275
L 496 275
L 496 275
L 496 275
L 496 275
L 496 275
L 496 275
L 496 275
L 496 275
L 496 275
L 496 275
L 496 275
L 496 275
L 496 275
L 496 275
L 496 275
L 497 275
L 497 274
L 497 274
L 497 274
L 497 274
L 497 274
L 497 274
L 497 274
L 497 274
L 497 274
L 497 274
L 497 274
L 497 274
L 497 274
L 497 274
L 497 274
L 497 274
L 497 274
L 497 274
L 497 274
L 497 274
L 497 273
L 497 273
L 497 273
L 497 273
L 497 273
L 497 273
L 497 273
L 497 273
L 497 273
L 498 273
L 498 273
L 498 273
L 498 273
L 498 273
L 498 273
L 498 273
L 498 273
L 498 273
L 498 273
L 498 273
L 498 272
L 498 272
L 498 272
L 498 272
L 498 272
L 498 272
L 498 272
L 498 272
L 498 272
L 498 272
L 499 272
L 499 272
L 499 272
L 499 272
L 499 272
L 499 272
L 499 272
L 500 272
L 500 272
L 500 271
L 501 271
L 503 271
L 503 271
L 503 271
L 503 271
L 503 271
L 503 271
L 503 271
L 503 271
L 503 271
L 503 271
L 503 271
L 503 271
L 503 271
L 503 271
L 503 271
L 503 271
L 503 271
L 503 271
L 503 270
L 503 270
L 503 270
L 503 270
L 503 270
L 503 270
L 503 270
L 503 270
L 503 270
L 504 270
L 504 270
L 504 270
L 504 270
L 504 270
L 504 270
L 504 270
L 504 270
L 504 270
L 504 270
L 504 270
L 504 269
L 504 269
L 504 269
L 504 269
L 504 269
L 504 269
L 504 269
L 504 269
L 504 269
L 504 269
L 504 269
L 504 269
L 504 269
L 504 269
L 504 269
L 504 269
L 504 269
L 504 269
L 504 269
L 504 268
L 504 268
L 504 268
L 504 268
L 504 268
L 504 268
L 504 268
L 504 268
L 504 268
L 504 268
L 504 268
L 504 268
L 504 268
L 504 268
L 504 268
L 504 268
L 504 268
L 504 268
L 504 268
L 504 268
L 504 267
L 504 267
L 504 267
L 504 267
L 504 267
L 504 267
L 504 267
L 504 267
L 504 267
L 504 267
L 504 267
L 504 267
L 504 267
L 504 267
L 504 267
L 504 267
L 504 267
L 504 267
L 504 267
L 504 267
L 504 266
L 504 266
L 504 266
L 504 266
L 504 266
L 504 266
L 504 266
L 504 266
L 505 266
L 505 266
L 505 266
L 505 266
L 505 266
L 505 266
L 505 266
L 505 266
L 505 266
L 505 266
L 505 266
L 505 266
L 505 265
L 505 265
L 505 265
L 505 265
L 505 265
L 505 265
L 505 265
L 505 265
L 505 265
L 505 265
L 505 265
L 505 265
L 505 265
L 505 265
L 505 265
L 505 265
L 505 265
L 506 265
L 506 265
L 506 264
L 506 264
L 506 264
L 506 264
L 506 264
L 506 264
L 506 264
L 506 264
L 506 264
L 506 264
L 506 264
L 506 264
L 506 264
L 506 264
L 506 264
L 506 264
L 506 264
L 506 264
L 506 264
L 506 264
L 506 263
L 506 263
L 506 263
L 506 263
L 506 263
L 506 263
L 506 263
L 506 263
L 506 263
L 506 263
L 507 263
L 507 263
L 507 263
L 507 263
L 507 263
L 507 263
L 507 263
L 507 263
L 507 263
L 507 263
L 507 262
L 507 262
L 507 262
L 507 262
L 507 262
L 507 262
L 507 262
L 507 262
L 507 262
L 507 262
L 507 262
L 507 262
L 507 262
L 507 262
L 507 262
L 507 262
L 507 262
L 507 262
L 507 262
L 507 261
L 507 261
L 507 261
L 507 261
L 507 261
L 507 261
L 507 261
L 507 261
L 507 261
L 507 261
L 507 261
L 507 261
L 507 261
L 507 261
L 507 261
L 508 261
L 508 261
L 508 261
L 508 261
L 508 261
L 508 260
L 508 260
L 508 260
L 508 260
L 508 260
L 508 260
L 508 260
L 508 260
L 508 260
L 508 260
L 508 260
L 508 260
L 508 260
L 508 260
L 508 260
L 508 260
L 508 260
L 508 260
L 508 260
L 508 260
L 508 259
L 508 259
L 508 259
L 508 259
L 508 259
L 508 259
L 508 259
L 508 259
L 508 259
L 508 259
L 508 259
L 508 259
L 508 259
L 508 259
L 508 259
L 508 259
L 508 259
L 508 259
L 508 259
L 508 258
L 508 258
L 508 258
L 509 258
L 509 258
L 509 258
L 509 258
L 509 258
L 509 258
L 509 258
L 509 258
L 509 258
L 509 258
L 509 258
L 509 258
L 509 258
L 509 258
L 509 258
L 509 258
L 509 258
L 509 257
L 509 257
L 509 257
L 509 257
L 509 257
L 509 257
L 509 257
L 509 257
L 509 257
L 509 257
L 509 257
L 509 257
L 509 257
L 510 257
L 510 257
L 510 257
L 510 257
L 510 257
L 510 257
L 510 257
L 510 256
L 510 256
L 510 256
L 510 256
L 510 256
L 510 256
L 510 256
L 510 256
L 510 256
L 510 256
L 510 256
L 510 256
L 510 256
L 510 256
L 510 256
L 510 256
L 510 256
L 510 256
L 510 256
L 511 256
L 511 255
L 511 255
L 511 255
L 511 255
L 511 255
L 511 255
L 511 255
L 511 255
L 511 255
L 511 255
L 511 255
L 511 255
L 511 255
L 511 255
L 511 255
L 511 255
L 511 255
L 511 255
L 511 255
L 511 254
L 512 254
L 512 254
L 512 254
L 512 254
L 512 254
L 512 254
L 512 254
L 512 254
L 512 254
L 512 254
L 512 254
L 512 254
L 512 254
L 512 254
L 512 254
L 512 254
L 512 254
L 512 254
L 512 254
L 512 253
L 513 253
L 513 253
L 514 253
L 516 253
L 517 253
L 517 253
L 517 253
L 517 253
L 517 253
L 517 253
L 517 253
L 517 253
L 517 253
L 517 253
L 517 253
L 517 253
L 518 253
L 518 253
L 518 253
L 518 252
L 518 252
L 518 252
L 518 252
L 518 252
L 518 252
L 518 252
L 518 252
L 518 252
L 518 252
L 518 252
L 518 252
L 518 252
L 518 252
L 518 252
L 518 252
L 518 252
L 518 252
L 518 252
L 518 251
L 518 251
L 518 251
L 518 251
L 518 251
L 518 251
L 518 251
L 518 251
L 518 251
L 518 251
L 518 251
L 518 251
L 518 251
L 518 251
L 518 251
L 518 251
L 518 251
L 518 251
L 518 251
L 518 251
L 518 250
L 518 250
L 518 250
L 518 250
L 518 250
L 518 250
L 518 250
L 518 250
L 518 250
L 518 250
L 519 250
L 519 250
L 519 250
L 519 250
L 519 250
L 519 250
L 519 250
L 519 250
L 519 250
L 519 250
L 519 249
L 519 249
L 519 249
L 519 249
L 519 249
L 519 249
L 519 249
L 519 249
L 519 249
L 519 249
L 519 249
L 519 249
L 519 249
L 519 249
L 519 249
L 519 249
L 519 249
L 519 249
L 519 249
L 519 249
L 520 248
L 520 248
L 520 248
L 520 248
L 520 248
L 520 248
L 520 248
L 520 248
L 520 248
L 520 248
L 520 248
L 520 248
L 520 248
L 520 248
L 520 248
L 520 248
L 521 248
L 521 248
L 521 248
L 521 247
L 521 247
L 521 247
L 521 247
L 521 247
L 521 247
L 521 247
L 521 247
L 521 247
L 521 247
L 521 247
L 521 247
L 521 247
L 521 247
L 521 247
L 521 247
L 521 247
L 521 247
L 521 247
L 521 247
L 521 246
L 521 246
L 521 246
L 522 246
L 522 246
L 522 246
L 522 246
L 522 246
L 522 246
L 522 246
L 522 246
L 522 246
L 522 246
L 522 246
L 522 246
L 522 246
L 522 246
L 522 246
L 522 246
L 522 246
L 522 245
L 522 245
L 522 245
L 522 245
L 522 245
L 522 245
L 522 245
L 522 245
L 522 245
L 522 245
L 522 245
L 522 245
L 522 245
L 522 245
L 522 245
L 522 245
L 523 245
L 523 245
L 523 245
L 523 244
L 523 244
L 523 244
L 523 244
L 523 244
L 523 244
L 523 244
L 523 244
L 523 244
L 523 244
L 523 244
L 523 244
L 523 244
L 523 244
L 523 244
L 523 244
L 523 244
L 523 244
L 523 244
L 523 244
L 523 243
L 523 243
L 523 243
L 523 243
L 523 243
L 523 243
L 524 243
L 524 243
L 524 243
L 524 243
L 524 243
L 524 243
L 524 243
L 524 243
L 524 243
L 524 243
L 524 243
L 524 243
L 524 243
L 524 243
L 524 242
L 524 242
L 524 242
L 524 242
L 525 242
L 525 242
L 525 242
L 525 242
L 525 242
L 525 242
L 525 242
L 525 242
L 525 242
L 525 242
L 525 242
L 525 242
L 525 242
L 526 242
L 526 242
L 526 241
L 526 241
L 526 241
L 526 241
L 526 241
L 526 241
L 526 241
L 526 241
L 526 241
L 526 241
L 527 241
L 527 241
L 527 241
L 527 241
L 527 241
L 528 241
L 528 241
L 528 241
L 528 241
L 531 241
L 531 240
L 532 240
L 532 240
L 532 240
L 532 240
L 532 240
L 532 240
L 532 240
L 532 240
L 532 240
L 532 240
L 532 240
L 532 240
L 532 240
L 532 240
L 532 240
L 532 240
L 532 240
L 532 240
L 532 240
L 532 239
L 532 239
L 532 239
L 532 239
L 532 239
L 532 239
L 532 239
L 532 239
L 532 239
L 532 239
L 532 239
L 532 239
L 532 239
L 532 239
L 532 239
L 532 239
L 532 239
L 532 239
L 532 239
L 532 239
L 532 238
L 532 238
L 532 238
L 532 238
L 532 238
L 533 238
L 533 238
L 533 238
L 533 238
L 533 238
L 533 238
L 533 238
L 533 238
L 533 238
L 533 238
L 533 238
L 533 238
L 533 238
L 533 238
L 533 237
L 533 237
L 533 237
L 533 237
L 533 237
L 533 237
L 533 237
L 533 237
L 533 237
L 533 237
L 533 237
L 533 237
L 533 237
L 533 237
L 533 237
L 533 237
L 533 237
L 533 237
L 533 237
L 533 237
L 533 236
L 533 236
L 533 236
L 534 236
L 534 236
L 534 236
L 534 236
L 534 236
L 534 236
L 534 236
L 534 236
L 534 236
L 534 236
L 534 236
L 534 236
L 534 236
L 534 236
L 534 236
L 534 236
L 534 236
L 535 235
L 535 235
L 535 235
L 535 235
L 535 235
L 535 235
L 535 235
L 535 235
L 535 235
L 535 235
L 535 235
L 535 235
L 535 235
L 535 235
L 535 235
L 535 235
L 535 235
L 535 235
L 535 235
L 535 234
L 535 234
L 535 234
L 535 234
L 535 234
L 535 234
L 535 234
L 535 234
L 535 234
L 535 234
L 535 234
L 535 234
L 535 234
L 535 234
L 535 234
L 535 234
L 535 234
L 535 234
L 535 234
L 535 234
L 535 233
L 535 233
L 535 233
L 535 233
L 535 233
L 535 233
L 535 233
L 535 233
L 536 233
L 536 233
L 536 233
L 536 233
L 536 233
L 536 233
L 536 233
L 536 233
L 536 233
L 536 233
L 536 233
L 536 233
L 536 232
L 536 232
L 536 232
L 536 232
L 536 232
L 536 232
L 536 232
L 536 232
L 536 232
L 536 232
L 536 232
L 536 232
L 536 232
L 536 232
L 536 232
L 536 232
L 536 232
L 536 232
L 536 232
L 536 232
L 536 231
L 536 231
L 536 231
L 536 231
L 536 231
L 536 231
L 536 231
L 536 231
L 536 231
L 536 231
L 536 231
L 536 231
L 536 231
L 536 231
L 536 231
L 536 231
L 537 231
L 537 231
L 537 231
L 537 230
L 537 230
L 537 230
L 537 230
L 537 230
L 537 230
L 537 230
L 537 230
L 537 230
L 537 230
L 537 230
L 537 230
L 537 230
L 537 230
L 537 230
L 537 230
L 537 230
L 537 230
L 537 230
L 537 230
L 537 229
L 537 229
L 538 229
L 538 229
L 538 229
L 538 229
L 538 229
L 538 229
L 538 229
L 538 229
L 538 229
L 538 229
L 538 229
L 538 229
L 538 229
L 538 229
L 538 229
L 539 229
L 539 229
L 539 229
L 539 228
L 539 228
L 539 228
L 539 228
L 539 228
L 539 228
L 539 228
L 539 228
L 540 228
L 540 228
L 540 228
L 540 228
L 540 228
L 540 228
L 540 228
L 540 228
L 540 228
L 540 228
L 540 228
L 540 227
L 540 227
L 540 227
L 540 227
L 540 227
L 540 227
L 540 227
L 541 227
L 541 227
L 541 227
L 541 227
L 541 227
L 541 227
L 541 227
L 541 227
L 541 227
L 543 227
L 543 227
L 543 227
L 544 227
L 545 226
L 545 226
L 545 226
L 545 226
L 546 226
L 546 226
L 546 226
L 546 226
L 546 226
L 546 226
L 546 226
L 546 226
L 546 226
L 546 226
L 546 226
L 546 226
L 546 226
L 546 226
L 546 226
L 546 226
L 546 225
L 546 225
L 546 225
L 546 225
L 546 225
L 546 225
L 546 225
L 546 225
L 546 225
L 546 225
L 546 225
L 546 225
L 546 225
L 546 225
L 546 225
L 546 225
L 546 225
L 547 225
L 547 225
L 547 224
L 547 224
L 547 224
L 547 224
L 547 224
L 547 224
L 547 224
L 547 224
L 547 224
L 547 224
L 547 224
L 547 224
L 547 224
L 547 224
L 547 224
L 547 224
L 547 224
L 547 224
L 547 224
L 547 224
L 547 223
L 547 223
L 547 223
L 547 223
L 547 223
L 547 223
L 547 223
L 547 223
L 547 223
L 547 223
L 547 223
L 547 223
L 547 223
L 547 223
L 547 223
L 547 223
L 547 223
L 547 223
L 547 223
L 547 223
L 547 222
L 547 222
L 547 222
L 547 222
L 547 222
L 547 222
L 547 222
L 547 222
L 547 222
L 547 222
L 547 222
L 547 222
L 547 222
L 547 222
L 547 222
L 547 222
L 547 222
L 547 222
L 548 222
L 548 222
L 548 221
L 548 221
L 548 221
L 548 221
L 548 221
L 548 221
L 548 221
L 548 221
L 548 221
L 548 221
L 548 221
L 548 221
L 548 221
L 548 221
L 548 221
L 548 221
L 548 221
L 548 221
L 548 221
L 548 220
L 548 220
L 548 220
L 548 220
L 549 220
L 549 220
L 549 220
L 549 220
L 549 220
L 549 220
L 549 220
L 549 220
L 549 220
L 549 220
L 549 220
L 549 220
L 549 220
L 549 220
L 549 220
L 549 220
L 549 219
L 549 219
L 549 219
L 549 219
L 549 219
L 549 219
L 549 219
L 549 219
L 549 219
L 549 219
L 549 219
L 549 219
L 549 219
L 549 219
L 549 219
L 549 219
L 549 219
L 549 219
L 549 219
L 549 219
L 549 218
L 549 218
L 549 218
L 549 218
L 549 218
L 550 218
L 550 218
L 550 218
L 550 218
L 550 218
L 550 218
L 550 218
L 550 218
L 550 218
L 550 218
L 550 218
L 550 218
L 550 218
L 550 218
L 550 217
L 550 217
L 550 217
L 550 217
L 550 217
L 550 217
L 550 217
L 550 217
L 550 217
L 550 217
L 550 217
L 550 217
L 550 217
L 550 217
L 550 217
L 550 217
L 550 217
L 550 217
L 550 217
L 550 217
L 550 216
L 550 216
L 550 216
L 550 216
L 550 216
L 550 216
L 550 216
L 550 216
L 550 216
L 550 216
L 550 216
L 550 216
L 550 216
L 550 216
L 551 216
L 551 216
L 551 216
L 551 216
L 551 216
L 551 216
L 551 215
L 551 215
L 551 215
L 551 215
L 551 215
L 551 215
L 551 215
L 551 215
L 551 215
L 551 215
L 551 215
L 551 215
L 551 215
L 551 215
L 552 215
L 552 215
L 552 215
L 552 215
L 552 215
L 552 215
L 552 214
L 552 214
L 552 214
L 552 214
L 552 214
L 552 214
L 552 214
L 552 214
L 552 214
L 553 214
L 553 214
L 553 214
L 553 214
L 553 214
L 553 214
L 553 214
L 553 214
L 553 214
L 553 214
L 553 213
L 553 213
L 554 213
L 554 213
L 554 213
L 554 213
L 554 213
L 554 213
L 554 213
L 554 213
L 554 213
L 554 213
L 554 213
L 554 213
L 554 213
L 555 213
L 555 213
L 555 213
L 555 213
L 555 213
L 555 212
L 555 212
L 556 212
L 556 212
L 558 212
L 558 212
L 558 212
L 559 212
L 559 212
L 560 212
L 560 212
L 560 212
L 560 212
L 560 212
L 560 212
L 561 212
L 561 212
L 561 212
L 561 212
L 561 212
L 561 211
L 561 211
L 561 211
L 561 211
L 561 211
L 561 211
L 561 211
L 561 211
L 561 211
L 562 211
L 562 211
L 562 211
L 562 211
L 562 211
L 562 211
L 562 211
L 562 211
L 562 211
L 562 211
L 562 210
L 563 210
L 563 210
L 563 210
L 563 210
L 563 210
L 563 210
L 564 210
L 564 210
L 564 210
L 564 210
L 564 210
L 564 210
L 564 210
L 565 210
L 565 210
L 565 210
L 565 210
L 565 210
L 565 210
L 565 209
L 566 209
L 566 209
L 566 209
L 566 209
L 566 209
L 567 209
L 567 209
L 567 209
L 567 209
L 567 209
L 567 209
L 567 209
L 568 209
L 568 209
L 568 209
L 568 209
L 568 209
L 568 209
L 568 209
L 568 208
L 569 208
L 569 208
L 569 208
L 569 208
L 569 208
L 569 208
L 569 208
L 569 208
L 570 208
L 571 208
L 571 208
L 571 208
L 571 208
L 572 208
L 572 208
L 573 208
L 573 208
L 573 208
L 574 207
L 574 207
L 574 207
L 574 207
L 575 207
L 575 207
L 575 207
L 575 207
L 575 207
L 575 207
L 576 207
L 576 207
L 576 207
L 576 207
L 576 207
L 576 207
L 576 207
L 576 207
L 576 207
L 577 207
L 577 206
L 577 206
L 577 206
L 577 206
L 578 206
L 578 206
L 578 206
L 578 206
L 578 206
L 578 206
L 578 206
L 578 206
L 579 206
L 579 206
L 579 206
L 579 206
L 580 206
L 580 206
L 580 206
L 580 206
L 580 205
L 580 205
L 581 205
L 581 205
L 581 205
L 581 205
L 581 205
L 581 205
L 582 205
L 582 205
L 582 205
L 582 205
L 582 205
L 582 205
L 582 205
L 582 205
L 583 205
L 583 205
L 583 205
L 583 205
L 583 204
L 583 204
L 583 204
L 584 204
L 584 204
L 584 204
L 584 204
L 585 204
L 585 204
L 586 204
L 587 204
L 588 204
L 588 204
L 588 204
L 589 204
L 589 204
L 589 204
L 589 204
L 589 204
L 589 203
L 589 203
L 589 203
L 590 203
L 590 203
L 590 203
L 590 203
L 590 203
L 590 203
L 591 203
L 591 203
L 591 203
L 591 203
L 591 203
L 591 203
L 591 203
L 591 203
L 591 203
L 592 203
L 592 203
L 592 202
L 592 202
L 592 202
L 592 202
L 593 202
L 593 202
L 593 202
L 593 202
L 593 202
L 593 202
L 593 202
L 594 202
L 594 202
L 594 202
L 594 202
L 594 202
L 594 202
L 594 202
L 594 202
L 594 202
L 594 201
L 594 201
L 595 201
L 595 201
L 595 201
L 595 201
L 595 201
L 595 201
L 595 201
L 595 201
L 595 201
L 595 201
L 595 201
L 595 201
L 596 201
L 596 201
L 596 201
L 596 201
L 596 201
L 596 200
L 596 200
L 596 200
L 596 200
L 596 200
L 596 200
L 597 200
L 597 200
L 597 200
L 597 200
L 597 200
L 598 200
L 598 200
L 598 200
L 598 200
L 598 200
L 602 200
L 602 200
L 602 200
L 602 200
L 603 199
L 603 199
L 603 199
L 603 199
L 603 199
L 603 199
L 603 199
L 603 199
L 603 199
L 603 199
L 603 199
L 603 199
L 603 199
L 603 199
L 603 199
L 603 199
L 603 199
L 603 199
L 603 199
L 603 199
L 603 198
L 603 198
L 603 198
L 603 198
L 603 198
L 603 198
L 603 198
L 603 198
L 603 198
L 603 198
L 603 198
L 603 198
L 603 198
L 603 198
L 603 198
L 603 198
L 603 198
L 603 198
L 603 198
L 603 198
L 603 197
L 603 197
L 604 197
L 604 197
L 604 197
L 604 197
L 604 197
L 604 197
L 604 197
L 604 197
L 604 197
L 604 197
L 604 197
L 604 197
L 604 197
L 604 197
L 604 197
L 604 197
L 604 197
L 604 196
L 604 196
L 604 196
L 604 196
L 604 196
L 604 196
L 604 196
L 604 196
L 604 196
L 605 196
L 605 196
L 605 196
L 605 196
L 605 196
L 605 196
L 605 196
L 605 196
L 605 196
L 605 196
L 605 196
L 605 195
L 605 195
L 605 195
L 605 195
L 605 195
L 605 195
L 605 195
L 605 195
L 605 195
L 606 195
L 606 195
L 606 195
L 606 195
L 606 195
L 606 195
L 606 195
L 606 195
L 606 195
L 606 195
L 606 195
L 606 194
L 606 194
L 606 194
L 606 194
L 606 194
L 606 194
L 606 194
L 606 194
L 606 194
L 606 194
L 606 194
L 606 194
L 606 194
L 606 194
L 606 194
L 606 194
L 606 194
L 606 194
L 606 194
L 606 193
L 606 193
L 606 193
L 607 193
L 607 193
L 607 193
L 607 193
L 607 193
L 607 193
L 607 193
L 607 193
L 607 193
L 607 193
L 607 193
L 607 193
L 607 193
L 607 193
L 607 193
L 607 193
L 607 193
L 607 192
L 607 192
L 607 192
L 607 192
L 607 192
L 607 192
L 607 192
L 608 192
L 608 192
L 608 192
L 608 192
L 608 192
L 608 192
L 608 192
L 608 192
L 608 192
L 608 192
L 608 192
L 608 192
L 608 192
L 608 191
L 608 191
L 609 191
L 609 191
L 609 191
L 609 191
L 609 191
L 609 191
L 609 191
L 609 191
L 609 191
L 609 191
L 609 191
L 610 191
L 610 191
L 610 191
L 610 191
L 610 191
L 610 191
L 610 190
L 610 190
L 610 190
L 610 190
L 610 190
L 610 190
L 610 190
L 610 190
L 610 190
L 610 190
L 610 190
L 610 190
L 610 190
L 610 190
L 610 190
L 610 190
L 610 190
L 610 190
L 610 190
L 611 190
L 611 189
L 611 189
L 611 189
L 611 189
L 611 189
L 611 189
L 611 189
L 611 189
L 611 189
L 611 189
L 611 189
L 611 189
L 612 189
L 612 189
L 612 189
L 612 189
L 612 189
L 613 189
L 613 189
L 613 189
L 614 188
L 615 188
L 616 188
L 616 188
L 616 188
L 616 188
L 616 188
L 616 188
L 616 188
L 616 188
L 616 188
L 617 188
L 617 188
L 617 188
L 617 188
L 617 188
L 617 188
L 617 188
L 617 188
L 617 188
L 617 187
L 617 187
L 617 187
L 617 187
L 617 187
L 617 187
L 617 187
L 617 187
L 617 187
L 617 187
L 617 187
L 617 187
L 617 187
L 617 187
L 617 187
L 617 187
L 617 187
L 617 187
L 617 187
L 617 186
L 617 186
L 617 186
L 617 186
L 617 186
L 617 186
L 617 186
L 617 186
L 617 186
L 617 186
L 617 186
L 618 186
L 618 186
L 618 186
L 618 186
L 618 186
L 618 186
L 618 186
L 618 186
L 618 186
L 618 185
L 618 185
L 618 185
L 618 185
L 618 185
L 618 185
L 618 185
L 618 185
L 618 185
L 618 185
L 618 185
L 618 185
L 618 185
L 618 185
L 618 185
L 618 185
L 618 185
L 618 185
L 618 185
L 618 185
L 618 184
L 619 184
L 619 184
L 619 184
L 619 184
L 619 184
L 619 184
L 619 184
L 619 184
L 619 184
L 619 184
L 619 184
L 619 184
L 619 184
L 619 184
L 619 184
L 619 184
L 619 184
L 619 184
L 619 183
L 619 183
L 620 183
L 620 183
L 620 183
L 620 183
L 620 183
L 620 183
L 620 183
L 620 183
L 620 183
L 620 183
L 620 183
L 620 183
L 620 183
L 620 183
L 620 183
L 620 183
L 620 183
L 620 183
L 620 182
L 620 182
L 620 182
L 620 182
L 620 182
L 620 182
L 620 182
L 620 182
L 621 182
L 621 182
L 621 182
L 621 182
L 621 182
L 621 182
L 621 182
L 621 182
L 621 182
L 621 182
L 621 182
L 621 182
L 621 181
L 621 181
L 621 181
L 621 181
L 621 181
L 621 181
L 621 181
L 621 181
L 621 181
L 621 181
L 621 181
L 621 181
L 621 181
L 621 181
L 621 181
L 621 181
L 621 181
L 621 181
L 621 181
L 621 181
L 621 180
L 621 180
L 621 180
L 621 180
L 621 180
L 621 180
L 621 180
L 621 180
L 621 180
L 621 180
L 622 180
L 622 180
L 622 180
L 622 180
L 622 180
L 622 180
L 622 180
L 622 180
L 622 180
L 622 179
L 622 179
L 622 179
L 622 179
L 622 179
L 622 179
L 622 179
L 622 179
L 622 179
L 622 179
L 622 179
L 622 179
L 622 179
L 622 179
L 622 179
L 622 179
L 622 179
L 622 179
L 622 179
L 622 179
L 622 178
L 622 178
L 622 178
L 622 178
L 622 178
L 622 178
L 622 178
L 623 178
L 623 178
L 623 178
L 623 178
L 623 178
L 623 178
L 623 178
L 623 178
L 623 178
L 623 178
L 623 178
L 623 178
L 623 178
L 623 177
L 623 177
L 623 177
L 623 177
L 623 177
L 623 177
L 623 177
L 623 177
L 623 177
L 624 177
L 624 177
L 624 177
L 624 177
L 624 177
L 624 177
L 624 177
L 624 177
L 624 177
L 624 177
L 624 176
L 624 176
L 624 176
L 624 176
L 624 176
L 624 176
L 624 176
L 624 176
L 625 176
L 625 176
L 625 176
L 625 176
L 625 176
L 625 176
L 625 176
L 625 176
L 625 176
L 625 176
L 625 176
L 625 176
L 625 175
L 625 175
L 625 175
L 625 175
L 625 175
L 625 175
L 625 175
L 625 175
L 626 175
L 626 175
L 626 175
L 626 175
L 626 175
L 626 175
L 626 175
L 627 175
L 627 175
L 627 175
L 628 175
L 629 175
L 629 174
L 630 174
L 630 174
L 630 174
L 630 174
L 630 174
L 630 174
L 631 174
L 631 174
L 631 174
L 631 174
L 631 174
L 631 174
L 631 174
L 631 174
L 631 174
L 631 174
L 631 174
L 631 174
L 631 173
L 631 173
L 631 173
L 631 173
L 631 173
L 631 173
L 631 173
L 631 173
L 631 173
L 631 173
L 631 173
L 631 173
L 631 173
L 632 173
L 632 173
L 632 173
L 632 173
L 632 173
L 632 173
L 632 173
L 632 172
L 632 172
L 632 172
L 632 172
L 632 172
L 632 172
L 632 172
L 632 172
L 632 172
L 632 172
L 632 172
L 632 172
L 632 172
L 632 172
L 632 172
L 632 172
L 632 172
L 632 172
L 632 172
L 632 172
L 632 171
L 632 171
L 633 171
L 633 171
L 633 171
L 633 171
L 633 171
L 633 171
L 633 171
L 633 171
L 633 171
L 633 171
L 633 171
L 633 171
L 633 171
L 633 171
L 633 171
L 634 171
L 634 171
L 634 171
L 634 170
L 634 170
L 634 170
L 634 170
L 634 170
L 634 170
L 634 170
L 634 170
L 634 170
L 634 170
L 634 170
L 634 170
L 634 170
L 634 170
L 634 170
L 634 170
L 635 170
L 635 170
L 635 170
L 635 169
L 635 169
L 635 169
L 635 169
L 635 169
L 635 169
L 635 169
L 635 169
L 635 169
L 635 169
L 635 169
L 635 169
L 635 169
L 635 169
L 635 169
L 635 169
L 635 169
L 635 169
L 635 169
L 635 169
L 635 168
L 635 168
L 635 168
L 635 168
L 635 168
L 635 168
L 635 168
L 635 168
L 635 168
L 635 168
L 636 168
L 636 168
L 636 168
L 636 168
L 636 168
L 636 168
L 636 168
L 636 168
L 636 168
L 636 168
L 636 167
L 636 167
L 636 167
L 636 167
L 636 167
L 636 167
L 636 167
L 636 167
L 636 167
L 636 167
L 636 167
L 636 167
L 636 167
L 636 167
L 636 167
L 636 167
L 636 167
L 637 167
L 637 167
L 637 166
L 637 166
L 637 166
L 637 166
L 637 166
L 637 166
L 638 166
L 638 166
L 638 166
L 638 166
L 638 166
L 638 166
L 638 166
L 638 166
L 638 166
L 638 166
L 638 166
L 638 166
L 638 166
L 638 166
L 638 165
L 639 165
L 639 165
L 639 165
L 639 165
L 639 165
L 639 165
L 639 165
L 639 165
L 639 165
L 639 165
L 639 165
L 640 165
L 640 165
L 641 165
L 641 165
L 641 165
L 641 165
L 642 165
L 642 165
L 643 164
L 643 164
L 643 164
L 644 164
L 645 164
L 645 164
L 645 164
L 645 164
L 645 164
L 645 164
L 645 164
L 645 164
L 645 164
L 645 164
L 645 164
L 645 164
L 645 164
L 645 164
L 646 164
L 646 163
L 646 163
L 646 163
L 646 163
L 646 163
L 646 163
L 646 163
L 646 163
L 646 163
L 646 163
L 646 163
L 646 163
L 646 163
L 646 163
L 646 163
L 646 163
L 646 163
L 647 163
L 647 163
L 647 163
L 647 162
L 647 162
L 647 162
L 647 162
L 647 162
L 647 162
L 647 162
L 647 162
L 647 162
L 648 162
L 648 162
L 648 162
L 648 162
L 648 162
L 648 162
L 648 162
L 648 162
L 648 162
L 648 162
L 649 162
L 649 161
L 649 161
L 649 161
L 649 161
L 649 161
L 649 161
L 649 161
L 649 161
L 650 161
L 650 161
L 650 161
L 650 161
L 650 161
L 650 161
L 650 161
L 650 161
L 651 161
L 651 161
L 651 161
L 651 161
L 651 160
L 651 160
L 651 160
L 652 160
L 652 160
L 652 160
L 652 160
L 652 160
L 652 160
L 652 160
L 652 160
L 652 160
L 652 160
L 652 160
L 652 160
L 652 160
L 652 160
L 653 160
L 653 160
L 653 159
L 653 159
L 653 159
L 653 159
L 653 159
L 653 159
L 653 159
L 654 159
L 654 159
L 654 159
L 654 159
L 654 159
L 655 159
L 655 159
L 659 159
L 659 159
L 660 159
L 660 159
L 660 159
L 660 159
L 660 158
L 661 158
L 661 158
L 661 158
L 661 158
L 661 158
L 661 158
L 661 158
L 661 158
L 662 158
L 662 158
L 662 158
L 662 158
L 662 158
L 662 158
L 662 158
L 663 158
L 663 158
L 663 158
L 663 158
L 663 157
L 663 157
L 663 157
L 664 157
L 664 157
L 664 157
L 664 157
L 664 157
L 664 157
L 664 157
L 664 157
L 664 157
L 664 157
L 664 157
L 664 157
L 665 157
L 665 157
L 665 157
L 665 157
L 665 156
L 665 156
L 665 156
L 665 156
L 665 156
L 665 156
L 666 156
L 666 156
L 666 156
L 666 156
L 666 156
L 666 156
L 667 156
L 667 156
L 667 156
L 667 156
L 667 156
L 667 156
L 667 156
L 667 156
L 667 155
L 667 155
L 667 155
L 667 155
L 667 155
L 667 155
L 667 155
L 667 155
L 667 155
L 668 155
L 668 155
L 668 155
L 668 155
L 668 155
L 668 155
L 668 155
L 668 155
L 668 155
L 669 155
L 669 155
L 669 154
L 670 154
L 670 154
L 671 154
L 671 154
L 671 154
L 672 154
L 673 154
L 673 154
L 673 154
L 673 154
L 673 154
L 673 154
L 673 154
L 673 154
L 673 154
L 673 154
L 673 154
L 673 154
L 673 154
L 673 153
L 673 153
L 673 153
L 673 153
L 673 153
L 673 153
L 674 153
L 674 153
L 674 153
L 674 153
L 674 153
L 674 153
L 674 153
L 674 153
L 674 153
L 674 153
L 674 153
L 674 153
L 674 153
L 674 152
L 674 152
L 674 152
L 674 152
L 674 152
L 674 152
L 674 152
L 674 152
L 675 152
L 675 152
L 675 152
L 675 152
L 675 152
L 675 152
L 675 152
L 675 152
L 675 152
L 675 152
L 675 152
L 675 152
L 675 151
L 675 151
L 675 151
L 675 151
L 675 151
L 675 151
L 676 151
L 676 151
L 676 151
L 676 151
L 676 151
L 676 151
L 676 151
L 676 151
L 676 151
L 676 151
L 676 151
L 676 151
L 676 151
L 676 151
L 676 150
L 677 150
L 677 150
L 677 150
L 677 150
L 677 150
L 677 150
L 677 150
L 677 150
L 677 150
L 677 150
L 677 150
L 677 150
L 677 150
L 677 150
L 677 150
L 677 150
L 677 150
L 677 150
L 678 149
L 678 149
L 678 149
L 678 149
L 678 149
L 678 149
L 678 149
L 678 149
L 678 149
L 678 149
L 678 149
L 678 149
L 678 149
L 678 149
L 678 149
L 679 149
L 679 149
L 679 149
L 679 149
L 679 149
L 679 148
L 679 148
L 679 148
L 679 148
L 680 148
L 680 148
L 680 148
L 680 148
L 680 148
L 680 148
L 680 148
L 680 148
L 680 148
L 680 148
L 680 148
L 680 148
L 680 148
L 681 148
L 681 148
L 681 148
L 681 147
L 681 147
L 681 147
L 681 147
L 682 147
L 682 147
L 682 147
L 682 147
L 682 147
L 682 147
L 682 147
L 682 147
L 682 147
L 682 147
L 682 147
L 685 147
L 687 147
L 687 147
L 687 147
L 687 147
L 687 146
L 687 146
L 687 146
L 688 146
L 688 146
L 688 146
L 688 146
L 688 146
L 688 146
L 688 146
L 688 146
L 688 146
L 688 146
L 688 146
L 688 146
L 688 146
L 688 146
L 688 146
L 688 146
L 688 145
L 688 145
L 689 145
L 689 145
L 689 145
L 689 145
L 689 145
L 689 145
L 689 145
L 689 145
L 689 145
L 689 145
L 689 145
L 689 145
L 689 145
L 689 145
L 689 145
L 689 145
L 690 145
L 690 145
L 690 144
L 690 144
L 690 144
L 690 144
L 690 144
L 690 144
L 690 144
L 690 144
L 690 144
L 690 144
L 690 144
L 690 144
L 691 144
L 691 144
L 691 144
L 691 144
L 691 144
L 691 144
L 691 144
L 691 144
L 691 143
L 691 143
L 691 143
L 691 143
L 691 143
L 692 143
L 692 143
L 692 143
L 692 143
L 692 143
L 692 143
L 692 143
L 692 143
L 692 143
L 692 143
L 692 143
L 692 143
L 692 143
L 692 143
L 692 142
L 692 142
L 692 142
L 692 142
L 692 142
L 692 142
L 692 142
L 692 142
L 692 142
L 692 142
L 692 142
L 692 142
L 692 142
L 693 142
L 693 142
L 693 142
L 693 142
L 693 142
L 693 142
L 693 142
L 693 141
L 693 141
L 693 141
L 693 141
L 693 141
L 693 141
L 693 141
L 694 141
L 694 141
L 694 141
L 694 141
L 694 141
L 694 141
L 694 141
L 694 141
L 694 141
L 694 141
L 694 141
L 694 141
L 694 141
L 694 140
L 694 140
L 694 140
L 694 140
L 694 140
L 695 140
L 695 140
L 695 140
L 695 140
L 695 140
L 695 140
L 695 140
L 695 140
L 695 140
L 695 140
L 695 140
L 695 140
L 695 140
L 695 140
L 695 139
L 696 139
L 696 139
L 696 139
L 696 139
L 696 139
L 696 139
L 696 139
L 697 139
L 697 139
L 697 139
L 699 139
L 701 139
L 701 139
L 702 139
L 702 139
L 702 139
L 702 139
L 702 139
L 702 139
L 702 138
L 702 138
L 702 138
L 702 138
L 702 138
L 702 138
L 702 138
L 702 138
L 702 138
L 702 138
L 702 138
L 702 138
L 702 138
L 702 138
L 702 138
L 702 138
L 702 138
L 702 138
L 702 138
L 702 138
L 703 137
L 703 137
L 703 137
L 703 137
L 703 137
L 703 137
L 703 137
L 703 137
L 703 137
L 703 137
L 703 137
L 703 137
L 703 137
L 703 137
L 703 137
L 703 137
L 703 137
L 703 137
L 703 137
L 703 137
L 703 136
L 703 136
L 704 136
L 704 136
L 704 136
L 704 136
L 704 136
L 704 136
L 704 136
L 704 136
L 704 136
L 704 136
L 704 136
L 704 136
L 705 136
L 705 136
L 705 136
L 705 136
L 705 136
L 705 135
L 705 135
L 705 135
L 705 135
L 705 135
L 705 135
L 705 135
L 705 135
L 705 135
L 705 135
L 705 135
L 705 135
L 705 135
L 705 135
L 705 135
L 705 135
L 705 135
L 705 135
L 705 135
L 705 135
L 705 134
L 705 134
L 706 134
L 706 134
L 706 134
L 706 134
L 706 134
L 706 134
L 706 134
L 706 134
L 706 134
L 706 134
L 706 134
L 706 134
L 706 134
L 706 134
L 707 134
L 707 134
L 707 134
L 707 134
L 707 133
L 707 133
L 707 133
L 707 133
L 707 133
L 707 133
L 707 133
L 708 133
L 708 133
L 708 133
L 708 133
L 708 133
L 708 133
L 708 133
L 709 133
L 709 133
L 709 133
L 709 133
L 709 133
L 709 132
L 709 132
L 709 132
L 709 132
L 709 132
L 709 132
L 709 132
L 710 132
L 710 132
L 710 132
L 710 132
L 710 132
L 710 132
L 710 132
L 710 132
L 710 132
L 710 132
L 710 132
L 710 132
L 710 132
L 710 131
L 711 131
L 711 131
L 711 131
L 711 131
L 711 131
L 712 131
L 714 131
L 715 131
L 715 131
L 715 131
L 715 131
L 715 131
L 715 131
L 715 131
L 715 131
L 715 131
L 715 131
L 715 131
L 715 131
L 715 130
L 715 130
L 715 130
L 716 130
L 716 130
L 716 130
L 716 130
L 716 130
L 716 130
L 716 130
L 716 130
L 716 130
L 716 130
L 716 130
L 716 130
L 716 130
L 716 130
L 716 130
L 716 130
L 716 130
L 716 129
L 716 129
L 716 129
L 716 129
L 716 129
L 716 129
L 716 129
L 716 129
L 716 129
L 716 129
L 716 129
L 716 129
L 716 129
L 716 129
L 716 129
L 716 129
L 716 129
L 716 129
L 716 129
L 716 128
L 716 128
L 716 128
L 716 128
L 716 128
L 716 128
L 716 128
L 716 128
L 716 128
L 716 128
L 716 128
L 716 128
L 716 128
L 716 128
L 716 128
L 716 128
L 716 128
L 716 128
L 716 128
L 716 128
L 716 127
L 717 127
L 717 127
L 717 127
L 717 127
L 717 127
L 717 127
L 717 127
L 717 127
L 717 127
L 717 127
L 717 127
L 717 127
L 717 127
L 717 127
L 717 127
L 717 127
L 717 127
L 717 127
L 717 127
L 717 126
L 717 126
L 717 126
L 717 126
L 717 126
L 717 126
L 717 126
L 717 126
L 717 126
L 717 126
L 717 126
L 717 126
L 718 126
L 718 126
L 718 126
L 718 126
L 718 126
L 718 126
L 718 126
L 718 125
L 718 125
L 718 125
L 718 125
L 718 125
L 718 125
L 718 125
L 718 125
L 719 125
L 719 125
L 719 125
L 719 125
L 719 125
L 719 125
L 719 125
L 719 125
L 719 125
L 719 125
L 719 125
L 719 125
L 719 124
L 719 124
L 719 124
L 719 124
L 719 124
L 719 124
L 719 124
L 719 124
L 719 124
L 719 124
L 719 124
L 719 124
L 719 124
L 719 124
L 719 124
L 719 124
L 719 124
L 719 124
L 719 124
L 719 124
L 719 123
L 719 123
L 719 123
L 719 123
L 719 123
L 719 123
L 719 123
L 719 123
L 719 123
L 719 123
L 720 123
L 720 123
L 720 123
L 720 123
L 720 123
L 720 123
L 720 123
L 720 123
L 720 123
L 720 122
L 720 122
L 720 122
L 720 122
L 720 122
L 720 122
L 720 122
L 720 122
L 720 122
L 720 122
L 720 122
L 720 122
L 720 122
L 720 122
L 720 122
L 720 122
L 720 122
L 720 122
L 720 122
L 720 122
L 720 121
L 720 121
L 720 121
L 720 121
L 720 121
L 720 121
L 720 121
L 720 121
L 720 121
L 720 121
L 720 121
L 720 121
L 720 121
L 721 121
L 721 121
L 721 121
L 721 121
L 721 121
L 721 121
L 721 121
L 721 120
L 721 120
L 721 120
L 721 120
L 721 120
L 721 120
L 722 120
L 722 120
L 722 120
L 722 120
L 722 120
L 722 120
L 722 120
L 722 120
L 722 120
L 722 120
L 722 120
L 722 120
L 722 120
L 722 120
L 722 119
L 722 119
L 722 119
L 722 119
L 722 119
L 722 119
L 722 119
L 722 119
L 722 119
L 722 119
L 723 119
L 723 119
L 723 119
L 723 119
L 723 119
L 723 119
L 723 119
L 723 119
L 723 119
L 723 118
L 723 118
L 723 118
L 723 118
L 723 118
L 723 118
L 723 118
L 723 118
L 723 118
L 723 118
L 723 118
L 723 118
L 723 118
L 723 118
L 724 118
L 724 118
L 724 118
L 724 118
L 724 118
L 724 118
L 724 117
L 724 117
L 724 117
L 724 117
L 724 117
L 725 117
L 725 117
L 725 117
L 725 117
L 725 117
L 725 117
L 725 117
L 725 117
L 725 117
L 726 117
L 727 117
L 727 117
L 727 117
L 727 117
L 727 117
L 729 116
L 729 116
L 729 116
L 729 116
L 729 116
L 730 116
L 730 116
L 730 116
L 730 116
L 730 116
L 730 116
L 730 116
L 730 116
L 730 116
L 730 116
L 730 116
L 730 116
L 730 116
L 730 116
L 730 115
L 730 115
L 730 115
L 730 115
L 730 115
L 730 115
L 730 115
L 730 115
L 730 115
L 730 115
L 731 115
L 731 115
L 731 115
L 731 115
L 731 115
L 731 115
L 731 115
L 731 115
L 731 115
L 731 115
L 731 114
L 731 114
L 731 114
L 731 114
L 731 114
L 731 114
L 731 114
L 731 114
L 731 114
L 731 114
L 731 114
L 731 114
L 731 114
L 731 114
L 731 114
L 732 114
L 732 114
L 732 114
L 732 114
L 732 114
L 732 113
L 732 113
L 732 113
L 732 113
L 732 113
L 732 113
L 732 113
L 732 113
L 732 113
L 732 113
L 733 113
L 733 113
L 733 113
L 733 113
L 733 113
L 733 113
L 733 113
L 733 113
L 733 113
L 733 113
L 733 112
L 733 112
L 733 112
L 733 112
L 733 112
L 733 112
L 733 112
L 733 112
L 733 112
L 733 112
L 733 112
L 733 112
L 733 112
L 733 112
L 733 112
L 733 112
L 733 112
L 733 112
L 733 112
L 733 111
L 734 111
L 734 111
L 734 111
L 734 111
L 734 111
L 734 111
L 734 111
L 734 111
L 734 111
L 734 111
L 734 111
L 734 111
L 734 111
L 734 111
L 734 111
L 734 111
L 734 111
L 734 111
L 734 111
L 734 110
L 734 110
L 734 110
L 734 110
L 735 110
L 735 110
L 735 110
L 735 110
L 735 110
L 735 110
L 735 110
L 735 110
L 735 110
L 735 110
L 735 110
L 735 110
L 735 110
L 735 110
L 735 110
L 735 110
L 735 109
L 735 109
L 735 109
L 735 109
L 735 109
L 735 109
L 736 109
L 736 109
L 736 109
L 736 109
L 736 109
L 737 109
L 737 109
L 737 109
L 737 109
L 737 109
L 737 109
L 737 109
L 737 109
L 737 108
L 737 108
L 737 108
L 737 108
L 737 108
L 737 108
L 738 108
L 738 108
L 738 108
L 738 108
L 739 108
L 739 108
L 739 108
L 739 108
L 739 108
L 739 108
L 739 108
L 739 108
L 739 108
L 739 108
L 739 107
L 741 107
L 741 107
L 741 107
L 741 107
L 743 107
L 744 107
L 744 107
L 745 107
L 745 107
L 745 107
L 745 107
L 745 107
L 745 107
L 745 107
L 745 107
L 745 107
L 745 107
L 745 107
L 746 107
L 746 106
L 746 106
L 746 106
L 747 106
L 747 106
L 747 106
L 747 106
L 747 106
L 747 106
L 747 106
L 748 106
L 748 106
L 748 106
L 748 106
L 748 106
L 748 106
L 748 106
L 748 106
L 748 106
L 748 105
L 749 105
L 749 105
L 749 105
L 749 105
L 749 105
L 749 105
L 749 105
L 749 105
L 749 105
L 750 105
L 750 105
L 751 105
L 751 105
L 751 105
L 751 105
L 752 105
L 752 105
L 752 105
L 753 105
L 753 104
L 753 104
L 753 104
L 753 104
L 754 104
L 754 104
L 754 104
L 756 104
L 758 104
L 758 104
L 759 104
L 759 104
L 760 104
L 760 104
L 760 104
L 760 104
L 761 104
L 761 104
L 761 104
L 761 104
L 761 103
L 761 103
L 761 103
L 762 103
L 762 103
L 762 103
L 762 103
L 762 103
L 762 103
L 763 103
L 763 103
L 764 103
L 764 103
L 764 103
L 764 103
L 764 103
L 765 103
L 765 103
L 765 103
L 765 103
L 765 102
L 765 102
L 766 102
L 766 102
L 766 102
L 766 102
L 766 102
L 766 102
L 767 102
L 767 102
L 767 102
L 767 102
L 767 102
L 768 102
L 772 102
L 772 102
L 772 102
L 772 102
L 772 102
L 773 101
L 773 101
L 773 101
L 773 101
L 773 101
L 773 101
L 773 101
L 773 101
L 773 101
L 773 101
L 773 101
L 773 101
L 773 101
L 773 101
L 773 101
L 773 101
L 773 101
L 773 101
L 774 101
L 774 101
L 774 100
L 774 100
L 774 100
L 774 100
L 774 100
L 774 100
L 774 100
L 774 100
L 774 100
L 774 100
L 775 100
L 775 100
L 775 100
L 775 100
L 775 100
L 775 100
L 775 100
L 776 100
L 776 100
L 776 100
L 776 99
L 776 99
L 776 99
L 776 99
L 776 99
L 776 99
L 776 99
L 776 99
L 776 99
L 776 99
L 777 99
L 777 99
L 777 99
L 777 99
L 777 99
L 777 99
L 777 99
L 777 99
L 777 99
L 777 98
L 777 98
L 777 98
L 777 98
L 777 98
L 777 98
L 778 98
L 778 98
L 778 98
L 778 98
L 778 98
L 778 98
L 778 98
L 778 98
L 778 98
L 778 98
L 778 98
L 779 98
L 779 98
L 779 98
L 779 97
L 779 97
L 779 97
L 779 97
L 779 97
L 779 97
L 779 97
L 779 97
L 780 97
L 780 97
L 780 97
L 780 97
L 780 97
L 780 97
L 780 97
L 780 97
L 781 97
L 781 97
L 781 97
L 781 97
L 781 96
L 781 96
L 781 96
L 781 96
L 781 96
L 782 96
L 782 96
L 782 96
L 784 96
L 784 96
L 785 96
L 786 96
L 787 96
L 787 96
L 787 96
L 787 96
L 787 96
L 787 96
L 787 96
L 787 96
L 787 95
L 787 95
L 787 95
L 787 95
L 787 95
L 787 95
L 787 95
L 787 95
L 787 95
L 787 95
L 787 95
L 788 95
L 788 95
L 788 95
L 788 95
L 788 95
L 788 95
L 788 95
L 788 95
L 788 94
L 788 94
L 788 94
L 788 94
L 788 94
L 788 94
L 788 94
L 788 94
L 788 94
L 788 94
L 788 94
L 788 94
L 788 94
L 788 94
L 788 94
L 788 94
L 788 94
L 788 94
L 788 94
L 788 94
L 788 93
L 788 93
L 788 93
L 788 93
L 788 93
L 788 93
L 788 93
L 788 93
L 788 93
L 788 93
L 788 93
L 788 93
L 788 93
L 788 93
L 788 93
L 788 93
L 788 93
L 788 93
L 788 93
L 788 93
L 788 92
L 788 92
L 788 92
L 788 92
L 788 92
L 788 92
L 788 92
L 788 92
L 788 92
L 788 92
L 788 92
L 788 92
L 788 92
L 788 92
L 788 92
L 788 92
L 788 92
L 788 92
L 788 92
L 788 91
L 788 91
L 788 91
L 788 91
L 789 91
L 789 91
L 789 91
L 789 91
L 789 91
L 789 91
L 789 91
L 789 91
L 789 91
L 789 91
L 789 91
L 789 91
L 789 91
L 789 91
L 789 91
L 789 91
L 789 90
L 789 90
L 789 90
L 789 90
L 790 90
L 790 90
L 790 90
L 790 90
L 790 90
L 790 90
L 790 90
L 790 90
L 790 90
L 790 90
L 790 90
L 790 90
L 790 90
L 790 90
L 790 90
L 790 90
L 790 89
L 790 89
L 791 89
L 791 89
L 791 89
L 791 89
L 791 89
L 791 89
L 791 89
L 791 89
L 791 89
L 791 89
L 791 89
L 791 89
L 791 89
L 791 89
L 791 89
L 791 89
L 791 89
L 791 88
L 791 88
L 791 88
L 791 88
L 791 88
L 792 88
L 792 88
L 792 88
L 792 88
L 792 88
L 792 88
L 792 88
L 792 88
L 792 88
L 792 88
L 792 88
L 792 88
L 792 88
L 792 88
L 792 88
L 792 87
L 792 87
L 792 87
L 792 87
L 792 87
L 792 87
L 792 87
L 792 87
L 792 87
L 792 87
L 793 87
L 793 87
L 793 87
L 793 87
L 793 87
L 793 87
L 793 87
L 793 87
L 793 87
L 793 87
L 793 86
L 793 86
L 793 86
L 793 86
L 793 86
L 793 86
L 793 86
L 793 86
L 793 86
L 793 86
L 793 86
L 793 86
L 794 86
L 794 86
L 794 86
L 794 86
L 794 86
L 794 86
L 794 86
L 794 86
L 794 85
L 794 85
L 794 85
L 795 85
L 795 85
L 795 85
L 795 85
L 796 85
L 797 85
L 797 85
L 797 85
L 798 85
L 799 85
L 801 85
L 801 85
L 801 85
L 801 85
L 801 85
L 801 85
L 801 84
L 801 84
L 801 84
L 801 84
L 801 84
L 801 84
L 801 84
L 801 84
L 801 84
L 801 84
L 801 84
L 801 84
L 801 84
L 801 84
L 801 84
L 801 84
L 801 84
L 801 84
L 801 84
L 801 84
L 801 83
L 801 83
L 801 83
L 801 83
L 801 83
L 801 83
L 801 83
L 801 83
L 801 83
L 801 83
L 801 83
L 801 83
L 801 83
L 802 83
L 802 83
L 802 83
L 802 83
L 802 83
L 802 83
L 802 83
L 802 82
L 802 82
L 802 82
L 802 82
L 802 82
L 802 82
L 802 82
L 802 82
L 802 82
L 802 82
L 802 82
L 802 82
L 802 82
L 802 82
L 802 82
L 802 82
L 802 82
L 802 82
L 802 82
L 802 81
L 802 81
L 802 81
L 802 81
L 802 81
L 802 81
L 802 81
L 802 81
L 802 81
L 802 81
L 802 81
L 802 81
L 802 81
L 802 81
L 802 81
L 802 81
L 802 81
L 802 81
L 802 81
L 802 81
L 802 80
L 803 80
L 803 80
L 803 80
L 803 80
L 803 80
L 803 80
L 803 80
L 803 80
L 803 80
L 803 80
L 803 80
L 803 80
L 803 80
L 803 80
L 803 80
L 803 80
L 803 80
L 803 80
L 803 80
L 803 79
L 803 79
L 803 79
L 803 79
L 804 79
L 804 79
L 804 79
L 804 79
L 804 79
L 804 79
L 804 79
L 804 79
L 804 79
L 804 79
L 804 79
L 804 79
L 804 79
L 804 79
L 804 79
L 804 79
L 804 78
L 804 78
L 804 78
L 804 78
L 804 78
L 804 78
L 804 78
L 804 78
L 804 78
L 804 78
L 804 78
L 804 78
L 804 78
L 804 78
L 804 78
L 804 78
L 805 78
L 805 78
L 805 78
L 805 77
L 805 77
L 805 77
L 805 77
L 805 77
L 805 77
L 805 77
L 805 77
L 805 77
L 805 77
L 805 77
L 805 77
L 805 77
L 805 77
L 805 77
L 805 77
L 805 77
L 805 77
L 805 77
L 805 77
L 805 76
L 805 76
L 805 76
L 805 76
L 805 76
L 806 76
L 806 76
L 806 76
L 806 76
L 806 76
L 806 76
L 806 76
L 806 76
L 806 76
L 806 76
L 806 76
L 806 76
L 806 76
L 806 76
L 806 76
L 806 75
L 806 75
L 806 75
L 806 75
L 806 75
L 806 75
L 806 75
L 806 75
L 806 75
L 806 75
L 807 75
L 807 75
L 807 75
L 807 75
L 807 75
L 807 75
L 807 75
L 807 75
L 807 75
L 807 74
L 807 74
L 807 74
L 807 74
L 808 74
L 808 74
L 808 74
L 808 74
L 808 74
L 808 74
L 808 74
L 808 74
L 809 74
L 809 74
L 809 74
L 809 74
L 809 74
L 809 74
L 809 74
L 809 74
L 809 73
L 810 73
L 810 73
L 810 73
L 810 73
L 810 73
L 811 73
L 811 73
L 813 73
L 813 73
L 813 73
L 814 73
L 814 73
L 814 73
L 815 73
L 815 73
L 815 73
L 815 73
L 815 73
L 815 73
L 815 72
L 815 72
L 815 72
L 815 72
L 815 72
L 815 72
L 815 72
L 815 72
L 815 72
L 815 72
L 815 72
L 815 72
L 815 72
L 815 72
L 815 72
L 815 72
L 815 72
L 815 72
L 816 72
L 816 71
L 816 71
L 816 71
L 816 71
L 816 71
L 816 71
L 816 71
L 816 71
L 816 71
L 816 71
L 816 71
L 816 71
L 816 71
L 816 71
L 816 71
L 816 71
L 816 71
L 816 71
L 816 71
L 816 71
L 816 70
L 816 70
L 816 70
L 816 70
L 816 70
L 816 70
L 816 70
L 816 70
L 817 70
L 817 70
L 817 70
L 817 70
L 817 70
L 817 70
L 817 70
L 817 70
L 817 70
L 817 70
L 817 70
L 817 70
L 817 69
L 817 69
L 817 69
L 818 69
L 818 69
L 818 69
L 818 69
L 818 69
L 818 69
L 818 69
L 818 69
L 818 69
L 818 69
L 818 69
L 818 69
L 818 69
L 818 69
L 818 69
L 818 69
L 818 69
L 818 68
L 818 68
L 818 68
L 818 68
L 819 68
L 819 68
L 819 68
L 819 68
L 819 68
L 819 68
L 819 68
L 819 68
L 819 68
L 819 68
L 819 68
L 819 68
L 819 68
L 819 68
L 819 68
L 819 67
L 819 67
L 819 67
L 819 67
L 819 67
L 819 67
L 819 67
L 819 67
L 819 67
L 820 67
L 820 67
L 820 67
L 820 67
L 820 67
L 820 67
L 820 67
L 820 67
L 820 67
L 820 67
L 820 67
L 820 66
L 820 66
L 820 66
L 820 66
L 820 66
L 820 66
L 820 66
L 820 66
L 820 66
L 820 66
L 821 66
L 821 66
L 821 66
L 821 66
L 821 66
L 821 66
L 821 66
L 822 66
L 822 66
L 822 66
L 822 65
L 822 65
L 823 65
L 823 65
L 823 65
L 823 65
L 823 65
L 823 65
L 823 65
L 823 65
L 823 65
L 823 65
L 824 65
L 824 65
L 824 65
L 824 65
L 824 65
L 824 65
L 824 65
L 825 64
L 825 64
L 828 64
L 828 64
L 829 64
L 829 64
L 829 64
L 829 64
L 829 64
L 829 64
L 829 64
L 829 64
L 829 64
L 829 64
L 829 64
L 829 64
L 829 64
L 829 64
L 829 64
L 829 64
L 829 63
L 830 63
L 830 63
L 830 63
L 830 63
L 830 63
L 830 63
L 830 63
L 830 63
L 830 63
L 830 63
L 830 63
L 830 63
L 830 63
L 830 63
L 830 63
L 830 63
L 830 63
L 830 63
L 830 63
L 830 62
L 830 62
L 830 62
L 830 62
L 830 62
L 830 62
L 830 62
L 831 62
L 831 62
L 831 62
L 831 62
L 831 62
L 831 62
L 831 62
L 831 62
L 831 62
L 831 62
L 831 62
L 832 62
L 832 62
L 832 61
L 832 61
L 832 61
L 832 61
L 832 61
L 832 61
L 832 61
L 832 61
L 832 61
L 832 61
L 832 61
L 833 61
L 833 61
L 833 61
L 833 61
L 833 61
L 833 61
L 833 61
L 833 61
L 833 60
L 833 60
L 833 60
L 833 60
L 833 60
L 833 60
L 833 60
L 833 60
L 833 60
L 833 60
L 833 60
L 833 60
L 833 60
L 834 60
L 834 60
L 834 60
L 834 60
L 834 60
L 834 60
L 834 60
L 834 59
L 834 59
L 834 59
L 834 59
L 834 59
L 834 59
L 835 59
L 835 59
L 835 59
L 835 59
L 835 59
L 835 59
L 835 59
L 835 59
L 835 59
L 835 59
L 835 59
L 835 59
L 835 59
L 835 59
L 835 58
L 836 58
L 836 58
L 836 58
L 836 58
L 836 58
L 837 58
L 837 58
L 837 58
L 837 58
L 837 58
L 837 58
L 838 58
L 838 58
L 838 58
L 841 58
L 843 58
L 844 58
L 844 58
L 844 57
L 845 57
L 845 57
L 845 57
L 845 57
L 845 57
L 845 57
L 846 57
L 846 57
L 846 57
L 846 57
L 846 57
L 846 57
L 847 57
L 847 57
L 847 57
L 847 57
L 847 57
L 848 57
L 848 57
L 848 56
L 848 56
L 849 56
L 849 56
L 850 56
L 850 56
L 850 56
L 850 56
L 850 56
L 850 56
L 850 56
L 850 56
L 850 56
L 850 56
L 850 56
L 850 56
L 851 56
L 851 56
L 851 56
L 851 56
L 851 55
L 851 55
L 851 55
L 851 55
L 851 55
L 851 55
L 851 55
L 851 55
L 851 55
L 852 55
L 852 55
L 852 55
L 852 55
L 852 55
L 852 55
L 852 55
L 852 55
L 853 55
L 853 55
L 853 54
L 853 54
L 853 54
L 854 54
L 854 54
L 857 54
L 857 54
L 858 54
L 858 54
L 858 54
L 858 54
L 858 54
L 858 54
L 859 54
L 859 54
L 859 54
L 859 54
L 859 54
L 859 54
L 860 54
L 860 53
L 860 53
L 860 53
L 860 53
L 861 53
L 861 53
L 861 53
L 862 53
L 862 53
L 864 53
L 864 53
L 864 53
L 864 53
L 864 53
L 864 53
L 864 53
L 865 53
L 865 53
L 865 53
L 865 53
L 865 52
L 865 52
L 865 52
L 865 52
L 865 52
L 865 52
L 865 52
L 866 52
L 866 52
L 866 52
L 866 52
L 867 52
L 867 52
L 870 52
L 870 52
L 871 52
L 871 52
L 872 52
L 872 52
L 872 52
L 872 51
L 872 51
L 872 51
L 872 51
L 872 51
L 872 51
L 872 51
L 872 51
L 872 51
L 872 51
L 872 51
L 872 51
L 872 51
L 872 51
L 872 51
L 872 51
L 872 51
L 872 51
L 872 51
L 872 50
L 872 50
L 872 50
L 872 50
L 873 50
L 873 50
L 873 50
L 873 50
L 873 50
L 873 50
L 873 50
L 873 50
L 873 50
L 873 50
L 873 50
L 873 50
L 873 50
L 873 50
L 873 50
L 873 50
L 873 49
L 874 49
L 874 49
L 874 49
L 874 49
L 874 49
L 874 49
L 874 49
L 874 49
L 874 49
L 874 49
L 874 49
L 875 49
L 875 49
L 875 49
L 875 49
L 875 49
L 875 49
L 875 49
L 875 49
L 875 48
L 875 48
L 875 48
L 875 48
L 875 48
L 875 48
L 875 48
L 875 48
L 875 48
L 876 48
L 876 48
L 876 48
L 876 48
L 876 48
L 876 48
L 876 48
L 876 48
L 876 48
L 876 48
L 876 47
L 876 47
L 876 47
L 876 47
L 876 47
L 876 47
L 876 47
L 876 47
L 876 47
L 876 47
L 876 47
L 876 47
L 876 47
L 876 47
L 876 47
L 876 47
L 876 47
L 877 47
L 877 47
L 877 47
L 877 46
L 877 46
L 877 46
L 877 46
L 877 46
L 877 46
L 877 46
L 877 46
L 878 46
L 878 46
L 878 46
L 878 46
L 878 46
L 878 46
L 879 46
L 879 46
L 879 46
L 879 46
L 879 46
L 879 46
L 879 45
L 879 45
L 879 45
L 880 45
L 880 45
L 880 45
L 880 45
L 880 45
L 881 45
L 881 45
L 883 45
L 885 45
L 885 45
L 885 45
L 886 45
L 886 45
L 886 45
L 886 45
L 886 45
L 886 45
L 886 44
L 886 44
L 886 44
L 886 44
L 886 44
L 886 44
L 886 44
L 886 44
L 887 44
L 887 44
L 887 44
L 887 44
L 887 44
L 887 44
L 887 44
L 887 44
L 887 44
L 887 44
L 887 44
L 887 43
L 887 43
L 887 43
L 887 43
L 887 43
L 887 43
L 887 43
L 887 43
L 888 43
L 888 43
L 888 43
L 888 43
L 888 43
L 888 43
L 888 43
L 888 43
L 888 43
L 888 43
L 888 43
L 888 43
L 889 42
L 889 42
L 889 42
L 889 42
L 889 42
L 889 42
L 889 42
L 889 42
L 889 42
L 889 42
L 889 42
L 889 42
L 889 42
L 889 42
L 889 42
L 889 42
L 889 42
L 889 42
L 889 42
L 889 42
L 889 41
L 889 41
L 890 41
L 890 41
L 890 41
L 890 41
L 890 41
L 890 41
L 890 41
L 890 41
L 890 41
L 890 41
L 890 41
L 890 41
L 890 41
L 890 41
L 891 41
L 891 41
L 891 41
L 891 40
L 891 40
L 891 40
L 891 40
L 891 40
L 891 40
L 891 40
L 891 40
L 891 40
L 891 40
L 891 40
L 891 40
L 891 40
L 891 40
L 891 40
L 891 40
L 891 40
L 891 40
L 891 40
L 892 40
L 892 39
L 892 39
L 892 39
L 892 39
L 892 39
L 892 39
L 892 39
L 892 39
L 892 39
L 892 39
L 892 39
L 892 39
L 893 39
L 893 39
L 893 39
L 893 39
L 893 39
L 893 39
L 893 39
L 893 39
L 893 38
L 893 38
L 893 38
L 893 38
L 894 38
L 894 38
L 894 38
L 894 38
L 894 38
L 894 38
L 894 38
L 894 38
L 894 38
L 894 38
L 894 38
L 894 38
L 894 38
L 894 38
L 894 38
L 894 37
L 894 37
L 894 37
L 895 37
L 895 37
L 895 37
L 895 37
L 896 37
L 896 37
L 896 37
L 896 37
L 896 37
L 897 37
L 897 37
L 899 37
L 899 37
L 900 37
L 900 37
L 900 37
L 900 37
L 900 36
L 900 36
L 900 36
L 900 36
L 900 36
L 900 36
L 900 36
L 900 36
L 900 36
L 900 36
L 900 36
L 900 36
L 900 36
L 900 36
L 900 36
L 900 36
L 900 36
L 900 36
L 900 36
L 900 36
L 900 35
L 900 35
L 900 35
L 900 35
L 900 35
L 901 35
L 901 35
L 901 35
L 901 35
L 901 35
L 901 35
L 901 35
L 901 35
L 901 35
L 901 35
L 901 35
L 901 35
L 901 35
L 901 35
L 901 35
L 901 34
L 901 34
L 901 34
L 901 34
L 901 34
L 901 34
L 901 34
L 902 34
L 902 34
L 902 34
L 902 34
L 902 34
L 902 34
L 902 34
L 902 34
L 902 34
L 902 34
L 902 34
L 902 34
L 902 33
L 902 33
L 902 33
L 902 33
L 902 33
L 902 33
L 902 33
L 902 33
L 903 33
L 903 33
L 903 33
L 903 33
L 903 33
L 903 33
L 903 33
L 903 33
L 903 33
L 903 33
L 903 33
L 903 33
L 903 32
L 903 32
L 903 32
L 903 32
L 903 32
L 903 32
L 903 32
L 903 32
L 903 32
L 903 32
L 903 32
L 903 32
L 903 32
L 904 32
L 904 32
L 904 32
L 904 32
L 904 32
L 904 32
L 904 32
L 904 31
L 904 31
L 904 31
L 904 31
L 904 31
L 904 31
L 904 31
L 904 31
L 904 31
L 904 31
L 904 31
L 904 31
L 904 31
L 904 31
L 904 31
L 904 31
L 904 31
L 904 31
L 904 31
L 904 30
L 904 30
L 904 30
L 905 30
L 905 30
L 905 30
L 905 30
L 905 30
L 905 30
L 905 30
L 905 30
L 905 30
L 905 30
L 905 30
L 905 30
L 905 30
L 905 30
L 905 30
L 905 30
L 905 30
L 905 29
L 905 29
L 905 29
L 905 29
L 905 29
L 905 29
L 905 29
L 905 29
L 905 29
L 905 29
L 905 29
L 905 29
L 905 29
L 905 29
L 905 29
L 906 29
L 906 29
L 906 29
L 906 29
L 906 29
L 906 28
L 906 28
L 906 28
L 906 28
L 906 28
L 906 28
L 906 28
L 906 28
L 907 28
L 907 28
L 907 28
L 907 28
L 907 28
L 907 28
L 907 28
L 907 28
L 907 28
L 908 28
L 908 28
L 908 28
L 908 27
L 908 27
L 909 27
L 909 27
L 909 27
L 909 27
L 909 27
L 909 27
L 909 27
L 909 27
L 910 27
L 910 27
L 911 27
L 913 27
L 913 27
L 914 27
L 914 27
L 914 27
L 914 27
L 914 26
L 914 26
L 914 26
L 914 26
L 914 26
L 914 26
L 914 26
L 914 26
L 914 26
L 914 26
L 914 26
L 914 26
L 914 26
L 914 26
L 914 26
L 915 26
L 915 26
L 915 26
L 915 26
L 915 26
L 915 25
L 915 25
L 915 25
L 915 25
L 915 25
L 915 25
L 915 25
L 915 25
L 915 25
L 915 25
L 915 25
L 915 25
L 915 25
L 915 25
L 915 25
L 915 25
L 915 25
L 916 25
L 916 25
L 916 25
L 916 24
L 916 24
L 916 24
L 916 24
L 916 24
L 916 24
L 916 24
L 916 24
L 916 24
L 916 24
L 916 24
L 916 24
L 916 24
L 917 24
L 917 24
L 917 24
L 917 24
L 917 24
L 917 24
L 917 23
L 917 23
L 917 23
L 917 23
L 917 23
L 917 23
L 917 23
L 917 23
L 917 23
L 917 23
L 917 23
L 917 23
L 917 23
L 917 23
L 917 23
L 918 23
L 918 23
L 918 23
L 918 23
L 918 23
L 918 22
L 918 22
L 918 22
L 918 22
L 918 22
L 918 22
L 918 22
L 918 22
L 918 22
L 918 22
L 918 22
L 918 22
L 918 22
L 919 22
L 919 22
L 919 22
L 919 22
L 919 22
L 919 22
L 919 22
L 919 21
L 919 21
L 919 21
L 919 21
L 919 21
L 919 21
L 919 21
L 919 21
L 919 21
L 919 21
L 919 21
L 919 21
L 919 21
L 919 21
L 919 21
L 919 21
L 919 21
L 920 21
L 920 21
L 920 20
L 920 20
L 920 20
L 920 20
L 920 20
L 920 20
L 920 20
L 921 20
L 921 20
L 921 20
L 922 20
L 922 20
L 922 20
L 922 20
L 923 20
L 923 20
L 923 20
L 923 20
L 923 20
L 923 20
L 923 19
L 924 19
L 924 19
L 924 19
L 924 19
L 925 19
L 926 19
L 927 19
L 928 19
L 928 19
L 928 19
L 928 19
L 928 19
L 928 19
L 928 19
L 928 19
L 928 19
L 929 19
L 929 19
L 929 19
L 929 18
L 929 18
L 929 18
L 929 18
L 929 18
L 929 18
L 929 18
L 929 18
L 929 18
L 929 18
L 929 18
L 929 18
L 929 18
L 929 18
L 929 18
L 929 18
L 929 18
L 930 18
L 930 18
L 930 18
L 930 17
L 930 17
L 930 17
L 930 17
L 930 17
L 930 17
L 930 17
L 931 17
L 931 17
L 931 17
L 931 17
L 931 17
L 931 17
L 931 17
L 931 17
L 931 17
L 931 17
L 931 17
L 931 17
L 931 16
L 931 16
L 932 16
L 932 16
L 932 16
L 932 16
L 932 16
L 932 16
L 932 16
L 932 16
L 932 16
L 932 16
L 932 16
L 932 16
L 932 16
L 932 16
L 932 16
L 932 16
L 932 16
L 933 16
L 933 15
L 933 15
L 933 15
L 933 15
L 933 15
L 933 15
L 933 15
L 933 15
L 933 15
L 933 15
L 933 15
L 933 15
L 933 15
L 933 15
L 933 15
L 933 15
L 933 15
L 933 15
L 933 15
L 933 15
L 933 14
L 933 14
L 933 14
L 933 14
L 933 14
L 933 14
L 933 14
L 934 14
L 934 14
L 934 14
L 934 14
L 934 14
L 934 14
L 934 14
L 935 14
L 935 14
L 935 14
L 935 14
L 935 14
L 935 13
L 935 13
L 936 13
L 936 13
L 936 13
L 936 13
L 937 13
L 937 13
L 937 13
L 938 13
L 938 13
L 942 13
L 942 13
L 942 13
L 943 13
L 943 13
L 943 13
L 943 13
L 943 13
L 944 13
L 944 12
L 944 12
L 944 12
L 944 12
L 944 12
L 945 12
L 945 12
L 945 12
L 946 12
L 946 12
L 946 12
L 947 12
L 947 12
L 948 12
L 948 12
L 948 12
L 948 12
L 948 12
L 948 12
L 949 12
L 949 11
L 949 11
L 950 11
L 950 11
L 951 11
L 951 11
L 951 11
L 951 11
L 951 11
L 951 11
L 952 11
L 952 11
L 953 11
L 953 11
L 956 11
L 957 11
L 957 11
L 957 11
L 957 11" style="stroke-width:2;stroke:rgba(129,199,239,1.0);fill:none"/></svg>