<svg xmlns="http://www.w3.org/2000/svg" xmlns:xlink="http://www.w3.org/1999/xlink" width="1024" height="400">\n<path  d="M 0 0
L 1024 0
L 1024 400
L 0 400
L 0 0" style="stroke-width:0;stroke:rgba(255,255,255,1.0);fill:rgba(255,255,255,1.0)"/><path  d="M 38 11
L 957 11
L 957 351
L 38 351
L 38 11" style="stroke-width:0;stroke:rgba(255,255,255,1.0);fill:rgba(255,255,255,1.0)"/><path  d="M 38 351
L 957 351" style="stroke-width:2;stroke:rgba(85,85,85,1.0);fill:none"/><path  d="M 38 351
L 38 356" style="stroke-width:2;stroke:rgba(85,85,85,1.0);fill:none"/><text x="5" y="373" style="stroke-width:0;stroke:none;fill:rgba(51,51,51,1.0);font-size:12.8px;font-family:'Roboto Medium',sans-serif">2018-11-23</text><path  d="M 153 351
L 153 356" style="stroke-width:2;stroke:rgba(85,85,85,1.0);fill:none"/><text x="120" y="373" style="stroke-width:0;stroke:none;fill:rgba(51,51,51,1.0);font-size:12.8px;font-family:'Roboto Medium',sans-serif">2018-12-02</text><path  d="M 268 351
L 268 356" style="stroke-width:2;stroke:rgba(85,85,85,1.0);fill:none"/><text x="235" y="373" style="stroke-width:0;stroke:none;fill:rgba(51,51,51,1.0);font-size:12.8px;font-family:'Roboto Medium',sans-serif">2018-12-12</text><path  d="M 383 351
L 383 356" style="stroke-width:2;stroke:rgba(85,85,85,1.0);fill:none"/><text x="350" y="373" style="stroke-width:0;stroke:none;fill:rgba(51,51,51,1.0);font-size:12.8px;font-family:'Roboto Medium',sans-serif">2018-12-22</text><path  d="M 498 351
L 498 356" style="stroke-width:2;stroke:rgba(85,85,85,1.0);fill:none"/><text x="465" y="373" style="stroke-width:0;stroke:none;fill:rgba(51,51,51,1.0);font-size:12.8px;font-family:'Roboto Medium',sans-serif">2018-12-31</text><path  d="M 613 351
L 613 356" style="stroke-width:2;stroke:rgba(85,85,85,1.0);fill:none"/><text x="580" y="373" style="stroke-width:0;stroke:none;fill:rgba(51,51,51,1.0);font-size:12.8px;font-family:'Roboto Medium',sans-serif">2019-01-10</text><path  d="M 728 351
L 728 356" style="stroke-width:2;stroke:rgba(85,85,85,1.0);fill:none"/><text x="695" y="373" style="stroke-width:0;stroke:none;fill:rgba(51,51,51,1.0);font-size:12.8px;font-family:'Roboto Medium',sans-serif">2019-01-20</text><path  d="M 843 351
L 843 356" style="stroke-width:2;stroke:rgba(85,85,85,1.0);fill:none"/><text x="810" y="373" style="stroke-width:0;stroke:none;fill:rgba(51,51,51,1.0);font-size:12.8px;font-family:'Roboto Medium',sans-serif">2019-01-29</text><path  d="M 957 351
L 957 356" style="stroke-width:2;stroke:rgba(85,85,85,1.0);fill:none"/><text x="924" y="373" style="stroke-width:0;stroke:none;fill:rgba(51,51,51,1.0);font-size:12.8px;font-family:'Roboto Medium',sans-serif">2019-02-08</text><text x="483" y="395" style="stroke-width:0;stroke:none;fill:rgba(51,51,51,1.0);font-size:12.8px;font-family:'Roboto Medium',sans-serif">Time</text><path  d="M 959 351
L 959 11" style="stroke-width:2;stroke:rgba(85,85,85,1.0);fill:none"/><path  d="M 959 351
L 964 351" style="stroke-width:2;stroke:rgba(85,85,85,1.0);fill:none"/><text x="969" y="357" style="stroke-width:0;stroke:none;fill:rgba(51,51,51,1.0);font-size:12.8px;font-family:'Roboto Medium',sans-serif">0</text><path  d="M 959 308
L 964 308" style="stroke-width:2;stroke:rgba(85,85,85,1.0);fill:none"/><text x="969" y="314" style="stroke-width:0;stroke:none;fill:rgba(51,51,51,1.0);font-size:12.8px;font-family:'Roboto Medium',sans-serif">930</text><path  d="M 959 266
L 964 266" style="stroke-width:2;stroke:rgba(85,85,85,1.0);fill:none"/><text x="969" y="272" style="stroke-width:0;stroke:none;fill:rgba(51,51,51,1.0);font-size:12.8px;font-family:'Roboto Medium',sans-serif">1850</text><path  d="M 959 223
L 964 223" style="stroke-width:2;stroke:rgba(85,85,85,1.0);fill:none"/><text x="969" y="229" style="stroke-width:0;stroke:none;fill:rgba(51,51,51,1.0);font-size:12.8px;font-family:'Roboto Medium',sans-serif">2780</text><path  d="M 959 181
L 964 181" style="stroke-width:2;stroke:rgba(85,85,85,1.0);fill:none"/><text x="969" y="187" style="stroke-width:0;stroke:none;fill:rgba(51,51,51,1.0);font-size:12.8px;font-family:'Roboto Medium',sans-serif">3700</text><path  d="M 959 138
L 964 138" style="stroke-width:2;stroke:rgba(85,85,85,1.0);fill:none"/><text x="969" y="144" style="stroke-width:0;stroke:none;fill:rgba(51,51,51,1.0);font-size:12.8px;font-family:'Roboto Medium',sans-serif">4630</text><path  d="M 959 96
L 964 96" style="stroke-width:2;stroke:rgba(85,85,85,1.0);fill:none"/><text x="969" y="102" style="stroke-width:0;stroke:none;fill:rgba(51,51,51,1.0);font-size:12.8px;font-family:'Roboto Medium',sans-serif">5550</text><path  d="M 959 53
L 964 53" style="stroke-width:2;stroke:rgba(85,85,85,1.0);fill:none"/><text x="969" y="59" style="stroke-width:0;stroke:none;fill:rgba(51,51,51,1.0);font-size:12.8px;font-family:'Roboto Medium',sans-serif">6480</text><path  d="M 959 11
L 964 11" style="stroke-width:2;stroke:rgba(85,85,85,1.0);fill:none"/><text x="969" y="17" style="stroke-width:0;stroke:none;fill:rgba(51,51,51,1.0);font-size:12.8px;font-family:'Roboto Medium',sans-serif">7400</text><text x="1009" y="150" style="stroke-width:0;stroke:none;fill:rgba(51,51,51,1.0);font-size:12.8px;font-family:'Roboto Medium',sans-serif" transform="rotate(90.00,1009,150)">Stargazers</text><path  d="M 38 351
L 101 350
L 144 350
L 147 350
L 156 350
L 156 350
L 156 350
L 157 350
L 157 350
L 157 350
L 157 350
L 157 350
L 157 350
L 158 350
L 158 350
L 158 350
L 158 350
L 158 350
L 158 350
L 158 350
L 158 350
L 159 350
L 160 349
L 161 349
L 168 349
L 168 349
L 168 349
L 168 349
L 169 349
L 170 349
L 171 349
L 172 349
L 173 349
L 173 349
L 173 349
L 174 349
L 174 349
L 174 349
L 177 349
L 178 349
L 179 349
L 179 349
L 179 349
L 179 349
L 179 348
L 180 348
L 180 348
L 180 348
L 180 348
L 180 348
L 182 348
L 182 348
L 183 348
L 183 348
L 183 348
L 183 348
L 183 348
L 183 348
L 184 348
L 184 348
L 184 348
L 185 348
L 185 348
L 185 348
L 186 348
L 186 348
L 186 347
L 186 347
L 187 347
L 190 347
L 191 347
L 191 347
L 191 347
L 192 347
L 192 347
L 192 347
L 192 347
L 192 347
L 193 347
L 193 347
L 193 347
L 193 347
L 193 347
L 193 347
L 193 347
L 193 347
L 193 347
L 193 347
L 193 346
L 193 346
L 193 346
L 193 346
L 193 346
L 193 346
L 193 346
L 193 346
L 193 346
L 193 346
L 193 346
L 193 346
L 193 346
L 193 346
L 193 346
L 193 346
L 193 346
L 193 346
L 193 346
L 193 346
L 193 346
L 194 345
L 194 345
L 194 345
L 194 345
L 194 345
L 194 345
L 194 345
L 194 345
L 194 345
L 194 345
L 194 345
L 194 345
L 194 345
L 194 345
L 194 345
L 194 345
L 194 345
L 194 345
L 194 345
L 194 345
L 195 345
L 195 345
L 195 344
L 195 344
L 195 344
L 195 344
L 195 344
L 195 344
L 195 344
L 195 344
L 196 344
L 196 344
L 196 344
L 196 344
L 196 344
L 196 344
L 196 344
L 196 344
L 196 344
L 197 344
L 197 344
L 197 344
L 198 344
L 199 344
L 202 343
L 203 343
L 203 343
L 203 343
L 203 343
L 203 343
L 204 343
L 204 343
L 205 343
L 205 343
L 205 343
L 205 343
L 205 343
L 205 343
L 206 343
L 206 343
L 206 343
L 206 343
L 207 343
L 207 343
L 207 343
L 207 343
L 207 342
L 207 342
L 208 342
L 215 342
L 215 342
L 215 342
L 215 342
L 217 342
L 218 342
L 218 342
L 222 342
L 222 342
L 222 342
L 224 342
L 227 342
L 228 342
L 229 342
L 230 342
L 230 342
L 231 342
L 231 342
L 231 341
L 231 341
L 232 341
L 232 341
L 232 341
L 232 341
L 232 341
L 235 341
L 238 341
L 238 341
L 238 341
L 239 341
L 239 341
L 239 341
L 241 341
L 245 341
L 245 341
L 250 341
L 253 341
L 253 341
L 253 341
L 253 341
L 255 340
L 255 340
L 262 340
L 263 340
L 263 340
L 263 340
L 263 340
L 265 340
L 265 340
L 266 340
L 267 340
L 269 340
L 270 340
L 274 340
L 279 340
L 280 340
L 285 340
L 287 340
L 287 340
L 288 340
L 288 340
L 289 340
L 289 339
L 291 339
L 291 339
L 292 339
L 292 339
L 292 339
L 294 339
L 296 339
L 298 339
L 300 339
L 300 339
L 301 339
L 301 339
L 302 339
L 302 339
L 303 339
L 304 339
L 304 339
L 304 339
L 305 339
L 310 339
L 310 339
L 310 338
L 311 338
L 313 338
L 315 338
L 315 338
L 315 338
L 316 338
L 321 338
L 322 338
L 322 338
L 322 338
L 322 338
L 322 338
L 325 338
L 325 338
L 327 338
L 328 338
L 333 338
L 334 338
L 336 338
L 336 338
L 337 337
L 337 337
L 338 337
L 339 337
L 339 337
L 341 337
L 341 337
L 345 337
L 346 337
L 347 337
L 348 337
L 348 337
L 348 337
L 348 337
L 348 337
L 350 337
L 357 337
L 357 337
L 357 337
L 357 337
L 359 337
L 359 337
L 361 336
L 361 336
L 361 336
L 363 336
L 363 336
L 363 336
L 364 336
L 364 336
L 365 336
L 369 336
L 370 336
L 370 336
L 370 336
L 370 336
L 370 336
L 370 336
L 370 336
L 370 336
L 370 336
L 371 336
L 372 336
L 372 336
L 372 335
L 372 335
L 372 335
L 372 335
L 372 335
L 372 335
L 372 335
L 372 335
L 372 335
L 372 335
L 372 335
L 372 335
L 372 335
L 372 335
L 372 335
L 372 335
L 372 335
L 372 335
L 373 335
L 373 335
L 373 335
L 373 335
L 373 334
L 373 334
L 373 334
L 373 334
L 373 334
L 373 334
L 373 334
L 373 334
L 373 334
L 373 334
L 373 334
L 373 334
L 373 334
L 373 334
L 373 334
L 373 334
L 373 334
L 373 334
L 373 334
L 373 334
L 374 334
L 374 334
L 374 333
L 374 333
L 374 333
L 374 333
L 374 333
L 374 333
L 374 333
L 375 333
L 375 333
L 375 333
L 375 333
L 375 333
L 375 333
L 375 333
L 375 333
L 375 333
L 375 333
L 375 333
L 376 333
L 376 333
L 376 333
L 376 332
L 376 332
L 377 332
L 377 332
L 377 332
L 381 332
L 381 332
L 381 332
L 381 332
L 381 332
L 381 332
L 382 332
L 382 332
L 382 332
L 382 332
L 382 332
L 382 332
L 382 332
L 382 332
L 382 332
L 382 332
L 382 332
L 382 331
L 382 331
L 382 331
L 383 331
L 383 331
L 383 331
L 383 331
L 383 331
L 383 331
L 383 331
L 383 331
L 383 331
L 383 331
L 384 331
L 384 331
L 384 331
L 384 331
L 384 331
L 384 331
L 384 331
L 384 331
L 384 331
L 384 330
L 384 330
L 384 330
L 384 330
L 384 330
L 384 330
L 384 330
L 384 330
L 384 330
L 384 330
L 385 330
L 385 330
L 385 330
L 385 330
L 385 330
L 385 330
L 385 330
L 385 330
L 385 330
L 385 330
L 385 330
L 385 330
L 385 329
L 385 329
L 385 329
L 385 329
L 385 329
L 385 329
L 385 329
L 385 329
L 385 329
L 386 329
L 386 329
L 386 329
L 386 329
L 386 329
L 386 329
L 386 329
L 386 329
L 386 329
L 387 329
L 387 329
L 387 329
L 387 328
L 387 328
L 387 328
L 387 328
L 387 328
L 387 328
L 387 328
L 387 328
L 387 328
L 387 328
L 387 328
L 387 328
L 387 328
L 387 328
L 387 328
L 387 328
L 388 328
L 388 328
L 388 328
L 388 328
L 388 328
L 388 328
L 388 327
L 388 327
L 388 327
L 388 327
L 388 327
L 388 327
L 388 327
L 388 327
L 388 327
L 388 327
L 388 327
L 388 327
L 388 327
L 388 327
L 388 327
L 389 327
L 389 327
L 389 327
L 389 327
L 389 327
L 389 327
L 390 327
L 390 326
L 392 326
L 392 326
L 392 326
L 392 326
L 392 326
L 392 326
L 393 326
L 393 326
L 393 326
L 393 326
L 393 326
L 393 326
L 393 326
L 393 326
L 393 326
L 393 326
L 393 326
L 393 326
L 393 326
L 393 326
L 394 326
L 394 325
L 394 325
L 394 325
L 394 325
L 394 325
L 394 325
L 394 325
L 394 325
L 394 325
L 394 325
L 394 325
L 394 325
L 394 325
L 394 325
L 394 325
L 394 325
L 394 325
L 394 325
L 394 325
L 395 325
L 395 325
L 395 324
L 395 324
L 395 324
L 395 324
L 395 324
L 395 324
L 395 324
L 395 324
L 395 324
L 395 324
L 395 324
L 395 324
L 395 324
L 395 324
L 395 324
L 395 324
L 395 324
L 395 324
L 396 324
L 396 324
L 396 324
L 396 324
L 396 323
L 396 323
L 396 323
L 396 323
L 396 323
L 396 323
L 396 323
L 396 323
L 396 323
L 396 323
L 396 323
L 396 323
L 396 323
L 396 323
L 396 323
L 396 323
L 396 323
L 396 323
L 396 323
L 396 323
L 397 323
L 397 323
L 397 322
L 397 322
L 397 322
L 397 322
L 397 322
L 397 322
L 397 322
L 397 322
L 397 322
L 397 322
L 397 322
L 398 322
L 398 322
L 398 322
L 398 322
L 398 322
L 398 322
L 398 322
L 398 322
L 398 322
L 398 322
L 398 322
L 398 321
L 398 321
L 398 321
L 398 321
L 398 321
L 398 321
L 398 321
L 398 321
L 399 321
L 399 321
L 399 321
L 399 321
L 399 321
L 399 321
L 399 321
L 399 321
L 399 321
L 399 321
L 399 321
L 399 321
L 399 321
L 399 320
L 399 320
L 399 320
L 399 320
L 399 320
L 399 320
L 399 320
L 399 320
L 399 320
L 399 320
L 399 320
L 399 320
L 399 320
L 399 320
L 400 320
L 400 320
L 400 320
L 400 320
L 400 320
L 400 320
L 400 320
L 400 320
L 400 319
L 400 319
L 400 319
L 400 319
L 400 319
L 400 319
L 400 319
L 400 319
L 400 319
L 400 319
L 401 319
L 401 319
L 401 319
L 401 319
L 401 319
L 401 319
L 402 319
L 402 319
L 403 319
L 404 319
L 404 319
L 404 319
L 404 318
L 404 318
L 404 318
L 404 318
L 404 318
L 404 318
L 404 318
L 404 318
L 404 318
L 404 318
L 404 318
L 404 318
L 405 318
L 405 318
L 405 318
L 405 318
L 405 318
L 405 318
L 405 318
L 405 318
L 405 318
L 405 318
L 405 317
L 405 317
L 405 317
L 405 317
L 405 317
L 405 317
L 405 317
L 405 317
L 405 317
L 405 317
L 405 317
L 405 317
L 405 317
L 405 317
L 405 317
L 405 317
L 405 317
L 405 317
L 405 317
L 405 317
L 405 317
L 405 317
L 405 316
L 405 316
L 405 316
L 405 316
L 405 316
L 405 316
L 405 316
L 405 316
L 405 316
L 405 316
L 405 316
L 405 316
L 405 316
L 405 316
L 405 316
L 405 316
L 405 316
L 405 316
L 405 316
L 405 316
L 405 316
L 405 315
L 405 315
L 405 315
L 405 315
L 405 315
L 405 315
L 405 315
L 405 315
L 405 315
L 405 315
L 405 315
L 405 315
L 405 315
L 405 315
L 405 315
L 405 315
L 405 315
L 405 315
L 405 315
L 405 315
L 405 315
L 405 315
L 405 314
L 405 314
L 405 314
L 405 314
L 405 314
L 405 314
L 405 314
L 405 314
L 405 314
L 405 314
L 405 314
L 405 314
L 405 314
L 405 314
L 405 314
L 405 314
L 405 314
L 406 314
L 406 314
L 406 314
L 406 314
L 406 314
L 406 313
L 406 313
L 406 313
L 406 313
L 406 313
L 406 313
L 406 313
L 406 313
L 406 313
L 406 313
L 406 313
L 406 313
L 406 313
L 406 313
L 406 313
L 406 313
L 406 313
L 406 313
L 406 313
L 406 313
L 406 313
L 406 313
L 406 312
L 406 312
L 406 312
L 406 312
L 406 312
L 406 312
L 406 312
L 406 312
L 406 312
L 406 312
L 406 312
L 406 312
L 406 312
L 406 312
L 406 312
L 406 312
L 406 312
L 406 312
L 407 312
L 407 312
L 407 312
L 407 311
L 407 311
L 407 311
L 407 311
L 407 311
L 407 311
L 407 311
L 407 311
L 407 311
L 407 311
L 407 311
L 407 311
L 407 311
L 407 311
L 407 311
L 407 311
L 407 311
L 407 311
L 407 311
L 407 311
L 407 311
L 407 311
L 407 310
L 407 310
L 407 310
L 407 310
L 407 310
L 407 310
L 407 310
L 407 310
L 407 310
L 407 310
L 407 310
L 407 310
L 407 310
L 407 310
L 407 310
L 407 310
L 407 310
L 407 310
L 407 310
L 407 310
L 407 310
L 407 310
L 407 309
L 407 309
L 407 309
L 407 309
L 407 309
L 407 309
L 407 309
L 407 309
L 407 309
L 407 309
L 407 309
L 407 309
L 407 309
L 407 309
L 407 309
L 407 309
L 407 309
L 407 309
L 407 309
L 407 309
L 407 309
L 407 309
L 407 308
L 407 308
L 408 308
L 408 308
L 408 308
L 408 308
L 408 308
L 408 308
L 408 308
L 408 308
L 408 308
L 408 308
L 408 308
L 408 308
L 408 308
L 408 308
L 408 308
L 408 308
L 408 308
L 408 308
L 408 308
L 408 307
L 408 307
L 408 307
L 408 307
L 408 307
L 408 307
L 408 307
L 408 307
L 408 307
L 408 307
L 408 307
L 408 307
L 408 307
L 408 307
L 408 307
L 408 307
L 408 307
L 408 307
L 408 307
L 408 307
L 408 307
L 408 307
L 408 306
L 408 306
L 408 306
L 408 306
L 408 306
L 408 306
L 408 306
L 408 306
L 408 306
L 408 306
L 408 306
L 408 306
L 408 306
L 408 306
L 408 306
L 409 306
L 409 306
L 409 306
L 409 306
L 409 306
L 409 306
L 409 306
L 409 305
L 409 305
L 409 305
L 409 305
L 409 305
L 409 305
L 409 305
L 409 305
L 409 305
L 409 305
L 409 305
L 409 305
L 409 305
L 409 305
L 409 305
L 409 305
L 409 305
L 409 305
L 409 305
L 409 305
L 409 305
L 409 305
L 409 304
L 409 304
L 409 304
L 409 304
L 409 304
L 409 304
L 409 304
L 409 304
L 409 304
L 409 304
L 409 304
L 409 304
L 409 304
L 409 304
L 409 304
L 409 304
L 409 304
L 409 304
L 409 304
L 409 304
L 409 304
L 409 303
L 409 303
L 409 303
L 410 303
L 410 303
L 410 303
L 410 303
L 410 303
L 410 303
L 410 303
L 410 303
L 410 303
L 410 303
L 410 303
L 410 303
L 410 303
L 410 303
L 410 303
L 410 303
L 410 303
L 410 303
L 410 303
L 410 302
L 410 302
L 410 302
L 410 302
L 410 302
L 410 302
L 411 302
L 411 302
L 411 302
L 411 302
L 411 302
L 411 302
L 411 302
L 411 302
L 411 302
L 411 302
L 411 302
L 411 302
L 411 302
L 411 302
L 411 302
L 411 302
L 411 301
L 411 301
L 411 301
L 411 301
L 411 301
L 412 301
L 412 301
L 412 301
L 412 301
L 412 301
L 412 301
L 412 301
L 412 301
L 412 301
L 412 301
L 412 301
L 412 301
L 412 301
L 412 301
L 412 301
L 412 301
L 412 301
L 412 300
L 412 300
L 412 300
L 413 300
L 413 300
L 413 300
L 413 300
L 414 300
L 416 300
L 416 300
L 416 300
L 416 300
L 416 300
L 416 300
L 416 300
L 416 300
L 416 300
L 416 300
L 416 300
L 416 300
L 416 300
L 416 300
L 416 299
L 416 299
L 417 299
L 417 299
L 417 299
L 417 299
L 417 299
L 417 299
L 417 299
L 417 299
L 417 299
L 417 299
L 417 299
L 417 299
L 417 299
L 417 299
L 417 299
L 417 299
L 417 299
L 417 299
L 417 299
L 417 298
L 417 298
L 417 298
L 417 298
L 417 298
L 417 298
L 417 298
L 417 298
L 417 298
L 417 298
L 417 298
L 417 298
L 417 298
L 417 298
L 417 298
L 417 298
L 417 298
L 417 298
L 417 298
L 417 298
L 417 298
L 417 298
L 417 297
L 417 297
L 417 297
L 417 297
L 417 297
L 417 297
L 417 297
L 417 297
L 417 297
L 417 297
L 417 297
L 417 297
L 417 297
L 417 297
L 417 297
L 417 297
L 417 297
L 417 297
L 417 297
L 417 297
L 417 297
L 417 297
L 417 296
L 417 296
L 417 296
L 417 296
L 417 296
L 417 296
L 417 296
L 417 296
L 417 296
L 417 296
L 417 296
L 417 296
L 417 296
L 417 296
L 417 296
L 417 296
L 417 296
L 417 296
L 417 296
L 417 296
L 417 296
L 417 296
L 417 295
L 417 295
L 417 295
L 417 295
L 417 295
L 417 295
L 417 295
L 417 295
L 417 295
L 417 295
L 417 295
L 417 295
L 417 295
L 417 295
L 417 295
L 417 295
L 417 295
L 417 295
L 417 295
L 418 295
L 418 295
L 418 294
L 418 294
L 418 294
L 418 294
L 418 294
L 418 294
L 418 294
L 418 294
L 418 294
L 418 294
L 418 294
L 418 294
L 418 294
L 418 294
L 418 294
L 418 294
L 418 294
L 418 294
L 418 294
L 418 294
L 418 294
L 418 294
L 418 293
L 418 293
L 418 293
L 418 293
L 418 293
L 418 293
L 418 293
L 418 293
L 418 293
L 418 293
L 418 293
L 418 293
L 418 293
L 418 293
L 418 293
L 419 293
L 419 293
L 419 293
L 419 293
L 419 293
L 419 293
L 419 293
L 419 292
L 419 292
L 419 292
L 419 292
L 419 292
L 419 292
L 419 292
L 419 292
L 419 292
L 419 292
L 419 292
L 419 292
L 419 292
L 419 292
L 419 292
L 419 292
L 419 292
L 419 292
L 419 292
L 419 292
L 419 292
L 419 292
L 419 291
L 419 291
L 419 291
L 419 291
L 419 291
L 419 291
L 419 291
L 419 291
L 419 291
L 419 291
L 419 291
L 419 291
L 419 291
L 419 291
L 419 291
L 419 291
L 419 291
L 419 291
L 419 291
L 419 291
L 419 291
L 419 290
L 419 290
L 419 290
L 419 290
L 419 290
L 420 290
L 420 290
L 420 290
L 420 290
L 420 290
L 420 290
L 420 290
L 420 290
L 420 290
L 420 290
L 420 290
L 420 290
L 420 290
L 420 290
L 420 290
L 420 290
L 420 290
L 420 289
L 420 289
L 420 289
L 420 289
L 420 289
L 420 289
L 420 289
L 420 289
L 420 289
L 420 289
L 420 289
L 420 289
L 420 289
L 420 289
L 420 289
L 420 289
L 420 289
L 420 289
L 420 289
L 420 289
L 420 289
L 420 289
L 420 288
L 420 288
L 420 288
L 420 288
L 420 288
L 420 288
L 420 288
L 420 288
L 420 288
L 420 288
L 420 288
L 420 288
L 420 288
L 420 288
L 420 288
L 420 288
L 420 288
L 421 288
L 421 288
L 421 288
L 421 288
L 421 288
L 421 287
L 421 287
L 421 287
L 421 287
L 421 287
L 421 287
L 421 287
L 421 287
L 421 287
L 421 287
L 421 287
L 421 287
L 421 287
L 421 287
L 421 287
L 421 287
L 421 287
L 421 287
L 421 287
L 421 287
L 421 287
L 421 286
L 421 286
L 421 286
L 421 286
L 421 286
L 421 286
L 421 286
L 421 286
L 421 286
L 421 286
L 421 286
L 421 286
L 421 286
L 421 286
L 421 286
L 421 286
L 421 286
L 421 286
L 421 286
L 421 286
L 421 286
L 421 286
L 421 285
L 421 285
L 421 285
L 421 285
L 421 285
L 421 285
L 421 285
L 421 285
L 421 285
L 421 285
L 421 285
L 421 285
L 421 285
L 421 285
L 421 285
L 421 285
L 422 285
L 422 285
L 422 285
L 422 285
L 422 285
L 422 285
L 422 284
L 422 284
L 422 284
L 422 284
L 422 284
L 422 284
L 422 284
L 422 284
L 422 284
L 422 284
L 422 284
L 422 284
L 422 284
L 422 284
L 422 284
L 422 284
L 422 284
L 422 284
L 422 284
L 422 284
L 422 284
L 422 284
L 422 283
L 422 283
L 422 283
L 422 283
L 422 283
L 422 283
L 422 283
L 422 283
L 422 283
L 422 283
L 422 283
L 423 283
L 423 283
L 423 283
L 423 283
L 423 283
L 423 283
L 423 283
L 423 283
L 423 283
L 423 283
L 423 283
L 423 282
L 423 282
L 423 282
L 423 282
L 423 282
L 423 282
L 423 282
L 423 282
L 423 282
L 423 282
L 423 282
L 423 282
L 423 282
L 423 282
L 423 282
L 423 282
L 423 282
L 423 282
L 423 282
L 423 282
L 423 282
L 423 281
L 423 281
L 423 281
L 424 281
L 424 281
L 424 281
L 424 281
L 424 281
L 424 281
L 424 281
L 424 281
L 424 281
L 424 281
L 424 281
L 424 281
L 424 281
L 424 281
L 424 281
L 424 281
L 424 281
L 424 281
L 424 281
L 424 280
L 424 280
L 424 280
L 424 280
L 425 280
L 425 280
L 425 280
L 425 280
L 425 280
L 426 280
L 427 280
L 428 280
L 428 280
L 428 280
L 428 280
L 428 280
L 428 280
L 428 280
L 428 280
L 428 280
L 428 280
L 428 280
L 428 279
L 428 279
L 428 279
L 428 279
L 428 279
L 428 279
L 428 279
L 428 279
L 428 279
L 428 279
L 428 279
L 428 279
L 428 279
L 428 279
L 428 279
L 428 279
L 428 279
L 428 279
L 428 279
L 429 279
L 429 279
L 429 279
L 429 278
L 429 278
L 429 278
L 429 278
L 429 278
L 429 278
L 429 278
L 429 278
L 429 278
L 429 278
L 429 278
L 429 278
L 429 278
L 429 278
L 429 278
L 429 278
L 429 278
L 429 278
L 429 278
L 429 278
L 429 278
L 429 277
L 429 277
L 429 277
L 429 277
L 429 277
L 429 277
L 429 277
L 429 277
L 429 277
L 429 277
L 429 277
L 429 277
L 429 277
L 429 277
L 429 277
L 429 277
L 429 277
L 429 277
L 429 277
L 429 277
L 429 277
L 429 277
L 429 276
L 429 276
L 429 276
L 429 276
L 429 276
L 429 276
L 429 276
L 429 276
L 429 276
L 429 276
L 429 276
L 429 276
L 429 276
L 429 276
L 429 276
L 429 276
L 429 276
L 429 276
L 429 276
L 429 276
L 429 276
L 429 276
L 429 275
L 429 275
L 429 275
L 429 275
L 429 275
L 429 275
L 429 275
L 429 275
L 429 275
L 429 275
L 429 275
L 429 275
L 429 275
L 429 275
L 429 275
L 429 275
L 429 275
L 429 275
L 429 275
L 430 275
L 430 275
L 430 275
L 430 274
L 430 274
L 430 274
L 430 274
L 430 274
L 430 274
L 430 274
L 430 274
L 430 274
L 430 274
L 430 274
L 430 274
L 430 274
L 430 274
L 430 274
L 430 274
L 430 274
L 430 274
L 430 274
L 430 274
L 430 274
L 430 273
L 430 273
L 430 273
L 431 273
L 431 273
L 431 273
L 431 273
L 431 273
L 431 273
L 431 273
L 431 273
L 431 273
L 431 273
L 431 273
L 431 273
L 431 273
L 431 273
L 431 273
L 431 273
L 431 273
L 431 273
L 431 273
L 431 272
L 431 272
L 431 272
L 431 272
L 431 272
L 431 272
L 431 272
L 431 272
L 431 272
L 431 272
L 431 272
L 431 272
L 431 272
L 431 272
L 431 272
L 431 272
L 431 272
L 431 272
L 431 272
L 431 272
L 431 272
L 431 272
L 431 271
L 431 271
L 431 271
L 431 271
L 431 271
L 431 271
L 431 271
L 431 271
L 431 271
L 432 271
L 432 271
L 432 271
L 432 271
L 432 271
L 432 271
L 432 271
L 432 271
L 432 271
L 432 271
L 432 271
L 432 271
L 432 271
L 432 270
L 432 270
L 432 270
L 432 270
L 432 270
L 432 270
L 432 270
L 432 270
L 432 270
L 432 270
L 432 270
L 432 270
L 432 270
L 432 270
L 432 270
L 432 270
L 432 270
L 432 270
L 432 270
L 432 270
L 432 270
L 432 269
L 432 269
L 432 269
L 432 269
L 432 269
L 432 269
L 432 269
L 432 269
L 432 269
L 432 269
L 432 269
L 432 269
L 432 269
L 432 269
L 432 269
L 432 269
L 432 269
L 432 269
L 432 269
L 433 269
L 433 269
L 433 269
L 433 268
L 433 268
L 433 268
L 433 268
L 433 268
L 433 268
L 433 268
L 433 268
L 433 268
L 433 268
L 433 268
L 433 268
L 433 268
L 433 268
L 433 268
L 433 268
L 433 268
L 433 268
L 433 268
L 433 268
L 433 268
L 433 268
L 433 267
L 433 267
L 433 267
L 433 267
L 433 267
L 433 267
L 433 267
L 433 267
L 433 267
L 433 267
L 433 267
L 433 267
L 434 267
L 434 267
L 434 267
L 434 267
L 434 267
L 434 267
L 434 267
L 434 267
L 434 267
L 434 267
L 434 266
L 434 266
L 434 266
L 434 266
L 434 266
L 434 266
L 434 266
L 434 266
L 434 266
L 434 266
L 434 266
L 434 266
L 434 266
L 434 266
L 434 266
L 434 266
L 434 266
L 434 266
L 435 266
L 435 266
L 435 266
L 435 266
L 435 265
L 435 265
L 435 265
L 435 265
L 435 265
L 435 265
L 435 265
L 435 265
L 435 265
L 435 265
L 435 265
L 435 265
L 435 265
L 435 265
L 435 265
L 436 265
L 436 265
L 436 265
L 436 265
L 436 265
L 436 265
L 436 264
L 436 264
L 436 264
L 436 264
L 436 264
L 436 264
L 436 264
L 436 264
L 436 264
L 436 264
L 436 264
L 437 264
L 437 264
L 439 264
L 440 264
L 440 264
L 440 264
L 440 264
L 440 264
L 440 264
L 440 264
L 440 264
L 440 263
L 440 263
L 440 263
L 440 263
L 440 263
L 440 263
L 440 263
L 440 263
L 440 263
L 440 263
L 440 263
L 440 263
L 440 263
L 440 263
L 440 263
L 440 263
L 440 263
L 440 263
L 441 263
L 441 263
L 441 263
L 441 263
L 441 262
L 441 262
L 441 262
L 441 262
L 441 262
L 441 262
L 441 262
L 441 262
L 441 262
L 441 262
L 441 262
L 441 262
L 441 262
L 441 262
L 441 262
L 441 262
L 441 262
L 441 262
L 441 262
L 441 262
L 441 262
L 441 262
L 441 261
L 441 261
L 441 261
L 441 261
L 441 261
L 441 261
L 441 261
L 441 261
L 441 261
L 441 261
L 441 261
L 441 261
L 441 261
L 441 261
L 441 261
L 441 261
L 441 261
L 441 261
L 441 261
L 441 261
L 441 261
L 441 260
L 441 260
L 441 260
L 441 260
L 441 260
L 441 260
L 441 260
L 442 260
L 442 260
L 442 260
L 442 260
L 442 260
L 442 260
L 442 260
L 442 260
L 442 260
L 442 260
L 442 260
L 442 260
L 442 260
L 442 260
L 442 260
L 442 259
L 442 259
L 442 259
L 442 259
L 442 259
L 442 259
L 443 259
L 443 259
L 443 259
L 443 259
L 443 259
L 443 259
L 443 259
L 443 259
L 443 259
L 443 259
L 443 259
L 443 259
L 443 259
L 443 259
L 443 259
L 443 259
L 443 258
L 443 258
L 443 258
L 443 258
L 443 258
L 443 258
L 443 258
L 443 258
L 443 258
L 443 258
L 443 258
L 443 258
L 443 258
L 443 258
L 443 258
L 443 258
L 443 258
L 444 258
L 444 258
L 444 258
L 444 258
L 444 258
L 444 257
L 444 257
L 444 257
L 444 257
L 444 257
L 444 257
L 444 257
L 444 257
L 444 257
L 444 257
L 444 257
L 444 257
L 444 257
L 444 257
L 444 257
L 444 257
L 444 257
L 444 257
L 444 257
L 444 257
L 444 257
L 444 256
L 444 256
L 444 256
L 444 256
L 444 256
L 444 256
L 444 256
L 444 256
L 444 256
L 444 256
L 444 256
L 444 256
L 444 256
L 444 256
L 444 256
L 444 256
L 444 256
L 445 256
L 445 256
L 445 256
L 445 256
L 445 256
L 445 255
L 445 255
L 445 255
L 445 255
L 445 255
L 445 255
L 445 255
L 445 255
L 445 255
L 445 255
L 445 255
L 445 255
L 445 255
L 445 255
L 445 255
L 445 255
L 446 255
L 446 255
L 446 255
L 446 255
L 446 255
L 446 255
L 446 254
L 446 254
L 446 254
L 446 254
L 446 254
L 446 254
L 446 254
L 446 254
L 446 254
L 446 254
L 446 254
L 446 254
L 446 254
L 446 254
L 446 254
L 446 254
L 446 254
L 447 254
L 447 254
L 447 254
L 447 254
L 447 254
L 447 253
L 447 253
L 447 253
L 447 253
L 447 253
L 447 253
L 447 253
L 448 253
L 448 253
L 448 253
L 448 253
L 448 253
L 448 253
L 448 253
L 448 253
L 449 253
L 449 253
L 449 253
L 449 253
L 452 253
L 452 253
L 452 252
L 452 252
L 452 252
L 452 252
L 452 252
L 452 252
L 452 252
L 452 252
L 452 252
L 452 252
L 452 252
L 452 252
L 452 252
L 452 252
L 452 252
L 452 252
L 452 252
L 452 252
L 452 252
L 452 252
L 453 252
L 453 252
L 453 251
L 453 251
L 453 251
L 453 251
L 453 251
L 453 251
L 453 251
L 453 251
L 453 251
L 453 251
L 453 251
L 453 251
L 453 251
L 453 251
L 453 251
L 453 251
L 453 251
L 453 251
L 453 251
L 453 251
L 453 251
L 453 251
L 453 250
L 453 250
L 453 250
L 453 250
L 453 250
L 453 250
L 453 250
L 453 250
L 453 250
L 453 250
L 453 250
L 453 250
L 453 250
L 453 250
L 453 250
L 453 250
L 453 250
L 453 250
L 453 250
L 453 250
L 453 250
L 453 250
L 453 249
L 453 249
L 453 249
L 453 249
L 453 249
L 453 249
L 453 249
L 453 249
L 453 249
L 453 249
L 453 249
L 453 249
L 453 249
L 453 249
L 454 249
L 454 249
L 454 249
L 454 249
L 454 249
L 454 249
L 454 249
L 454 249
L 454 248
L 454 248
L 454 248
L 454 248
L 454 248
L 454 248
L 454 248
L 454 248
L 454 248
L 454 248
L 454 248
L 454 248
L 454 248
L 455 248
L 455 248
L 455 248
L 455 248
L 455 248
L 455 248
L 455 248
L 455 248
L 455 247
L 455 247
L 455 247
L 455 247
L 455 247
L 455 247
L 455 247
L 455 247
L 455 247
L 455 247
L 455 247
L 455 247
L 455 247
L 455 247
L 455 247
L 455 247
L 455 247
L 455 247
L 455 247
L 455 247
L 455 247
L 455 247
L 455 246
L 455 246
L 455 246
L 455 246
L 455 246
L 455 246
L 455 246
L 455 246
L 455 246
L 455 246
L 455 246
L 455 246
L 455 246
L 455 246
L 455 246
L 455 246
L 455 246
L 455 246
L 455 246
L 455 246
L 455 246
L 455 246
L 455 245
L 455 245
L 456 245
L 456 245
L 456 245
L 456 245
L 456 245
L 456 245
L 456 245
L 456 245
L 456 245
L 456 245
L 456 245
L 456 245
L 456 245
L 456 245
L 456 245
L 456 245
L 456 245
L 456 245
L 456 245
L 456 245
L 456 244
L 456 244
L 456 244
L 456 244
L 456 244
L 456 244
L 456 244
L 456 244
L 456 244
L 456 244
L 456 244
L 456 244
L 456 244
L 456 244
L 456 244
L 456 244
L 456 244
L 456 244
L 456 244
L 456 244
L 456 244
L 456 243
L 456 243
L 456 243
L 456 243
L 456 243
L 456 243
L 456 243
L 456 243
L 456 243
L 456 243
L 456 243
L 457 243
L 457 243
L 457 243
L 457 243
L 457 243
L 457 243
L 457 243
L 457 243
L 457 243
L 457 243
L 457 243
L 457 242
L 457 242
L 457 242
L 457 242
L 457 242
L 457 242
L 458 242
L 458 242
L 458 242
L 458 242
L 458 242
L 458 242
L 458 242
L 458 242
L 458 242
L 458 242
L 458 242
L 458 242
L 458 242
L 458 242
L 458 242
L 459 242
L 459 241
L 459 241
L 459 241
L 459 241
L 459 241
L 459 241
L 459 241
L 459 241
L 459 241
L 459 241
L 459 241
L 459 241
L 459 241
L 459 241
L 459 241
L 459 241
L 459 241
L 459 241
L 459 241
L 460 241
L 460 241
L 460 241
L 460 240
L 460 240
L 460 240
L 460 240
L 460 240
L 460 240
L 461 240
L 462 240
L 462 240
L 462 240
L 464 240
L 464 240
L 464 240
L 464 240
L 464 240
L 464 240
L 464 240
L 464 240
L 464 240
L 464 240
L 464 240
L 464 239
L 464 239
L 464 239
L 464 239
L 464 239
L 464 239
L 464 239
L 464 239
L 464 239
L 464 239
L 464 239
L 464 239
L 464 239
L 464 239
L 464 239
L 464 239
L 464 239
L 464 239
L 464 239
L 464 239
L 464 239
L 464 239
L 464 238
L 464 238
L 464 238
L 465 238
L 465 238
L 465 238
L 465 238
L 465 238
L 465 238
L 465 238
L 465 238
L 465 238
L 465 238
L 465 238
L 465 238
L 465 238
L 465 238
L 465 238
L 465 238
L 465 238
L 465 238
L 465 238
L 465 237
L 465 237
L 465 237
L 465 237
L 465 237
L 465 237
L 465 237
L 465 237
L 465 237
L 465 237
L 465 237
L 465 237
L 465 237
L 465 237
L 465 237
L 465 237
L 465 237
L 465 237
L 465 237
L 465 237
L 465 237
L 465 237
L 465 236
L 465 236
L 465 236
L 465 236
L 465 236
L 465 236
L 465 236
L 465 236
L 465 236
L 465 236
L 465 236
L 465 236
L 465 236
L 465 236
L 465 236
L 465 236
L 465 236
L 465 236
L 465 236
L 465 236
L 465 236
L 465 235
L 465 235
L 465 235
L 466 235
L 466 235
L 466 235
L 466 235
L 466 235
L 466 235
L 466 235
L 466 235
L 466 235
L 466 235
L 466 235
L 466 235
L 466 235
L 466 235
L 466 235
L 466 235
L 466 235
L 466 235
L 466 235
L 466 234
L 466 234
L 466 234
L 466 234
L 466 234
L 466 234
L 466 234
L 466 234
L 466 234
L 466 234
L 466 234
L 467 234
L 467 234
L 467 234
L 467 234
L 467 234
L 467 234
L 467 234
L 467 234
L 467 234
L 467 234
L 467 234
L 467 233
L 467 233
L 467 233
L 467 233
L 467 233
L 467 233
L 467 233
L 467 233
L 467 233
L 467 233
L 467 233
L 467 233
L 467 233
L 467 233
L 467 233
L 467 233
L 467 233
L 467 233
L 467 233
L 467 233
L 467 233
L 467 233
L 467 232
L 467 232
L 467 232
L 467 232
L 467 232
L 467 232
L 467 232
L 467 232
L 467 232
L 467 232
L 467 232
L 467 232
L 467 232
L 467 232
L 467 232
L 467 232
L 467 232
L 467 232
L 467 232
L 467 232
L 467 232
L 467 232
L 467 231
L 467 231
L 467 231
L 467 231
L 468 231
L 468 231
L 468 231
L 468 231
L 468 231
L 468 231
L 468 231
L 468 231
L 468 231
L 468 231
L 468 231
L 468 231
L 468 231
L 468 231
L 468 231
L 468 231
L 468 231
L 468 230
L 468 230
L 468 230
L 468 230
L 468 230
L 468 230
L 468 230
L 468 230
L 468 230
L 468 230
L 468 230
L 468 230
L 468 230
L 468 230
L 468 230
L 468 230
L 468 230
L 468 230
L 469 230
L 469 230
L 469 230
L 469 230
L 469 229
L 469 229
L 469 229
L 469 229
L 469 229
L 469 229
L 469 229
L 469 229
L 469 229
L 469 229
L 469 229
L 469 229
L 469 229
L 470 229
L 470 229
L 470 229
L 470 229
L 470 229
L 470 229
L 470 229
L 470 229
L 470 229
L 470 228
L 470 228
L 470 228
L 470 228
L 471 228
L 471 228
L 471 228
L 471 228
L 471 228
L 471 228
L 471 228
L 471 228
L 471 228
L 471 228
L 471 228
L 471 228
L 471 228
L 471 228
L 471 228
L 472 228
L 472 228
L 472 228
L 472 227
L 472 227
L 472 227
L 472 227
L 474 227
L 474 227
L 475 227
L 475 227
L 475 227
L 475 227
L 476 227
L 476 227
L 476 227
L 476 227
L 476 227
L 476 227
L 476 227
L 477 227
L 477 227
L 477 227
L 477 227
L 477 226
L 477 226
L 477 226
L 477 226
L 477 226
L 477 226
L 477 226
L 477 226
L 477 226
L 477 226
L 477 226
L 477 226
L 478 226
L 478 226
L 478 226
L 478 226
L 478 226
L 478 226
L 478 226
L 478 226
L 478 226
L 478 226
L 479 225
L 479 225
L 479 225
L 479 225
L 479 225
L 479 225
L 479 225
L 479 225
L 479 225
L 480 225
L 480 225
L 480 225
L 480 225
L 480 225
L 480 225
L 480 225
L 481 225
L 481 225
L 481 225
L 481 225
L 481 225
L 481 225
L 482 224
L 482 224
L 482 224
L 482 224
L 482 224
L 482 224
L 482 224
L 482 224
L 482 224
L 482 224
L 483 224
L 483 224
L 483 224
L 483 224
L 483 224
L 483 224
L 483 224
L 483 224
L 483 224
L 483 224
L 484 224
L 484 224
L 484 223
L 485 223
L 485 223
L 485 223
L 485 223
L 486 223
L 486 223
L 487 223
L 487 223
L 487 223
L 488 223
L 488 223
L 488 223
L 488 223
L 488 223
L 488 223
L 488 223
L 489 223
L 489 223
L 489 223
L 489 223
L 489 222
L 489 222
L 489 222
L 489 222
L 489 222
L 489 222
L 490 222
L 490 222
L 490 222
L 490 222
L 490 222
L 490 222
L 490 222
L 491 222
L 491 222
L 491 222
L 491 222
L 491 222
L 491 222
L 491 222
L 491 222
L 492 222
L 492 221
L 492 221
L 492 221
L 492 221
L 493 221
L 493 221
L 493 221
L 493 221
L 493 221
L 493 221
L 494 221
L 494 221
L 494 221
L 494 221
L 494 221
L 494 221
L 494 221
L 494 221
L 495 221
L 495 221
L 495 221
L 495 221
L 495 220
L 495 220
L 495 220
L 495 220
L 495 220
L 495 220
L 495 220
L 496 220
L 496 220
L 496 220
L 496 220
L 496 220
L 497 220
L 498 220
L 498 220
L 499 220
L 499 220
L 499 220
L 500 220
L 500 220
L 500 220
L 500 220
L 500 219
L 500 219
L 500 219
L 501 219
L 501 219
L 501 219
L 501 219
L 501 219
L 501 219
L 501 219
L 502 219
L 502 219
L 502 219
L 502 219
L 502 219
L 502 219
L 502 219
L 502 219
L 502 219
L 502 219
L 502 219
L 503 218
L 503 218
L 503 218
L 503 218
L 503 218
L 503 218
L 504 218
L 504 218
L 504 218
L 504 218
L 504 218
L 504 218
L 504 218
L 504 218
L 504 218
L 504 218
L 504 218
L 504 218
L 504 218
L 505 218
L 505 218
L 505 218
L 505 217
L 505 217
L 505 217
L 505 217
L 505 217
L 505 217
L 505 217
L 505 217
L 505 217
L 505 217
L 505 217
L 505 217
L 506 217
L 506 217
L 506 217
L 506 217
L 506 217
L 506 217
L 506 217
L 506 217
L 506 217
L 506 217
L 506 216
L 506 216
L 507 216
L 507 216
L 507 216
L 507 216
L 507 216
L 507 216
L 508 216
L 508 216
L 508 216
L 511 216
L 511 216
L 511 216
L 511 216
L 512 216
L 512 216
L 512 216
L 512 216
L 512 216
L 512 216
L 512 216
L 512 215
L 512 215
L 512 215
L 512 215
L 512 215
L 512 215
L 512 215
L 512 215
L 512 215
L 512 215
L 512 215
L 512 215
L 512 215
L 512 215
L 512 215
L 512 215
L 512 215
L 512 215
L 512 215
L 512 215
L 512 215
L 512 215
L 512 214
L 512 214
L 512 214
L 512 214
L 512 214
L 512 214
L 512 214
L 512 214
L 512 214
L 512 214
L 512 214
L 512 214
L 512 214
L 512 214
L 512 214
L 512 214
L 512 214
L 512 214
L 512 214
L 512 214
L 513 214
L 513 213
L 513 213
L 513 213
L 513 213
L 513 213
L 513 213
L 513 213
L 513 213
L 513 213
L 513 213
L 513 213
L 513 213
L 513 213
L 513 213
L 513 213
L 513 213
L 513 213
L 513 213
L 513 213
L 513 213
L 513 213
L 513 213
L 513 212
L 514 212
L 514 212
L 514 212
L 514 212
L 514 212
L 514 212
L 514 212
L 514 212
L 514 212
L 514 212
L 514 212
L 514 212
L 514 212
L 514 212
L 514 212
L 514 212
L 514 212
L 514 212
L 514 212
L 514 212
L 514 212
L 514 211
L 514 211
L 514 211
L 514 211
L 514 211
L 514 211
L 514 211
L 514 211
L 514 211
L 514 211
L 514 211
L 514 211
L 515 211
L 515 211
L 515 211
L 515 211
L 515 211
L 515 211
L 515 211
L 515 211
L 515 211
L 515 211
L 515 210
L 515 210
L 515 210
L 515 210
L 515 210
L 515 210
L 515 210
L 515 210
L 515 210
L 515 210
L 515 210
L 515 210
L 515 210
L 515 210
L 515 210
L 515 210
L 515 210
L 515 210
L 515 210
L 515 210
L 515 210
L 515 209
L 515 209
L 515 209
L 515 209
L 515 209
L 515 209
L 516 209
L 516 209
L 516 209
L 516 209
L 516 209
L 516 209
L 516 209
L 516 209
L 516 209
L 516 209
L 516 209
L 516 209
L 516 209
L 516 209
L 516 209
L 516 209
L 517 208
L 517 208
L 517 208
L 517 208
L 517 208
L 517 208
L 517 208
L 517 208
L 517 208
L 517 208
L 517 208
L 517 208
L 517 208
L 517 208
L 517 208
L 517 208
L 518 208
L 518 208
L 518 208
L 518 208
L 518 208
L 518 208
L 518 207
L 518 207
L 518 207
L 518 207
L 518 207
L 518 207
L 518 207
L 518 207
L 518 207
L 518 207
L 518 207
L 518 207
L 518 207
L 518 207
L 518 207
L 518 207
L 518 207
L 518 207
L 518 207
L 518 207
L 518 207
L 518 207
L 519 206
L 519 206
L 519 206
L 519 206
L 519 206
L 519 206
L 519 206
L 519 206
L 519 206
L 520 206
L 520 206
L 520 206
L 520 206
L 521 206
L 522 206
L 523 206
L 523 206
L 523 206
L 523 206
L 523 206
L 523 206
L 523 205
L 523 205
L 523 205
L 523 205
L 523 205
L 523 205
L 523 205
L 523 205
L 523 205
L 523 205
L 523 205
L 523 205
L 523 205
L 523 205
L 524 205
L 524 205
L 524 205
L 524 205
L 524 205
L 524 205
L 524 205
L 524 205
L 524 204
L 524 204
L 524 204
L 524 204
L 524 204
L 524 204
L 524 204
L 524 204
L 524 204
L 524 204
L 524 204
L 524 204
L 524 204
L 524 204
L 524 204
L 524 204
L 524 204
L 524 204
L 524 204
L 524 204
L 524 204
L 524 204
L 524 203
L 524 203
L 524 203
L 524 203
L 524 203
L 524 203
L 524 203
L 524 203
L 524 203
L 524 203
L 524 203
L 524 203
L 524 203
L 524 203
L 524 203
L 524 203
L 524 203
L 524 203
L 525 203
L 525 203
L 525 203
L 525 203
L 525 202
L 525 202
L 525 202
L 525 202
L 525 202
L 525 202
L 525 202
L 525 202
L 525 202
L 525 202
L 525 202
L 525 202
L 525 202
L 526 202
L 526 202
L 526 202
L 526 202
L 526 202
L 526 202
L 526 202
L 526 202
L 526 201
L 526 201
L 526 201
L 526 201
L 526 201
L 526 201
L 526 201
L 526 201
L 526 201
L 526 201
L 526 201
L 526 201
L 526 201
L 526 201
L 526 201
L 526 201
L 526 201
L 526 201
L 526 201
L 526 201
L 526 201
L 526 201
L 526 200
L 526 200
L 526 200
L 527 200
L 527 200
L 527 200
L 527 200
L 527 200
L 527 200
L 527 200
L 527 200
L 527 200
L 527 200
L 527 200
L 527 200
L 527 200
L 527 200
L 527 200
L 527 200
L 527 200
L 527 200
L 527 200
L 527 199
L 527 199
L 527 199
L 527 199
L 527 199
L 527 199
L 527 199
L 527 199
L 527 199
L 527 199
L 527 199
L 527 199
L 527 199
L 527 199
L 527 199
L 527 199
L 527 199
L 527 199
L 527 199
L 527 199
L 527 199
L 527 199
L 527 198
L 527 198
L 527 198
L 527 198
L 527 198
L 527 198
L 527 198
L 528 198
L 528 198
L 528 198
L 528 198
L 528 198
L 528 198
L 528 198
L 528 198
L 528 198
L 528 198
L 528 198
L 528 198
L 528 198
L 528 198
L 528 198
L 528 197
L 528 197
L 528 197
L 528 197
L 528 197
L 528 197
L 528 197
L 528 197
L 528 197
L 528 197
L 528 197
L 528 197
L 528 197
L 528 197
L 528 197
L 528 197
L 528 197
L 528 197
L 528 197
L 529 197
L 529 197
L 529 196
L 529 196
L 529 196
L 529 196
L 529 196
L 529 196
L 529 196
L 529 196
L 529 196
L 529 196
L 529 196
L 529 196
L 529 196
L 529 196
L 529 196
L 529 196
L 529 196
L 529 196
L 529 196
L 529 196
L 529 196
L 529 196
L 529 195
L 530 195
L 530 195
L 530 195
L 530 195
L 530 195
L 530 195
L 530 195
L 530 195
L 530 195
L 530 195
L 530 195
L 530 195
L 530 195
L 530 195
L 530 195
L 530 195
L 530 195
L 530 195
L 530 195
L 530 195
L 530 195
L 530 194
L 530 194
L 530 194
L 530 194
L 530 194
L 531 194
L 531 194
L 531 194
L 531 194
L 531 194
L 531 194
L 531 194
L 531 194
L 531 194
L 531 194
L 531 194
L 532 194
L 532 194
L 532 194
L 533 194
L 533 194
L 534 194
L 535 193
L 535 193
L 535 193
L 535 193
L 535 193
L 535 193
L 535 193
L 535 193
L 535 193
L 535 193
L 535 193
L 535 193
L 535 193
L 535 193
L 535 193
L 535 193
L 535 193
L 535 193
L 535 193
L 535 193
L 535 193
L 535 192
L 536 192
L 536 192
L 536 192
L 536 192
L 536 192
L 536 192
L 536 192
L 536 192
L 536 192
L 536 192
L 536 192
L 536 192
L 536 192
L 536 192
L 536 192
L 536 192
L 536 192
L 536 192
L 536 192
L 536 192
L 536 192
L 536 191
L 536 191
L 536 191
L 536 191
L 536 191
L 536 191
L 536 191
L 536 191
L 536 191
L 536 191
L 536 191
L 536 191
L 536 191
L 537 191
L 537 191
L 537 191
L 537 191
L 537 191
L 537 191
L 537 191
L 537 191
L 537 191
L 537 190
L 537 190
L 537 190
L 537 190
L 537 190
L 537 190
L 537 190
L 537 190
L 537 190
L 537 190
L 538 190
L 538 190
L 538 190
L 538 190
L 538 190
L 538 190
L 538 190
L 538 190
L 538 190
L 538 190
L 538 190
L 538 190
L 538 189
L 538 189
L 538 189
L 538 189
L 538 189
L 538 189
L 538 189
L 538 189
L 538 189
L 538 189
L 538 189
L 538 189
L 539 189
L 539 189
L 539 189
L 539 189
L 539 189
L 539 189
L 539 189
L 539 189
L 539 189
L 539 188
L 539 188
L 539 188
L 539 188
L 539 188
L 539 188
L 539 188
L 539 188
L 539 188
L 539 188
L 539 188
L 539 188
L 539 188
L 539 188
L 539 188
L 539 188
L 539 188
L 539 188
L 539 188
L 539 188
L 539 188
L 539 188
L 539 187
L 539 187
L 539 187
L 539 187
L 539 187
L 539 187
L 539 187
L 540 187
L 540 187
L 540 187
L 540 187
L 540 187
L 540 187
L 540 187
L 540 187
L 540 187
L 540 187
L 540 187
L 540 187
L 540 187
L 540 187
L 540 187
L 540 186
L 540 186
L 540 186
L 540 186
L 541 186
L 541 186
L 541 186
L 541 186
L 541 186
L 541 186
L 541 186
L 541 186
L 541 186
L 541 186
L 541 186
L 541 186
L 541 186
L 541 186
L 541 186
L 542 186
L 542 186
L 542 186
L 542 185
L 542 185
L 542 185
L 542 185
L 542 185
L 542 185
L 542 185
L 542 185
L 542 185
L 542 185
L 542 185
L 542 185
L 542 185
L 543 185
L 543 185
L 543 185
L 544 185
L 544 185
L 544 185
L 544 185
L 545 185
L 545 184
L 545 184
L 545 184
L 547 184
L 547 184
L 547 184
L 547 184
L 547 184
L 547 184
L 547 184
L 547 184
L 547 184
L 547 184
L 547 184
L 547 184
L 547 184
L 547 184
L 547 184
L 548 184
L 548 184
L 548 184
L 548 184
L 548 183
L 548 183
L 548 183
L 548 183
L 548 183
L 548 183
L 548 183
L 548 183
L 548 183
L 548 183
L 548 183
L 548 183
L 548 183
L 548 183
L 548 183
L 548 183
L 548 183
L 549 183
L 549 183
L 549 183
L 549 183
L 549 183
L 549 182
L 549 182
L 549 182
L 549 182
L 549 182
L 550 182
L 550 182
L 550 182
L 550 182
L 550 182
L 550 182
L 550 182
L 550 182
L 550 182
L 550 182
L 550 182
L 550 182
L 550 182
L 551 182
L 551 182
L 551 182
L 551 182
L 551 181
L 551 181
L 551 181
L 551 181
L 551 181
L 551 181
L 552 181
L 552 181
L 552 181
L 552 181
L 552 181
L 552 181
L 552 181
L 552 181
L 552 181
L 553 181
L 553 181
L 553 181
L 553 181
L 553 181
L 553 181
L 553 181
L 553 180
L 553 180
L 553 180
L 553 180
L 553 180
L 553 180
L 553 180
L 554 180
L 554 180
L 554 180
L 554 180
L 554 180
L 554 180
L 554 180
L 554 180
L 554 180
L 555 180
L 555 180
L 555 180
L 555 180
L 555 180
L 559 179
L 559 179
L 560 179
L 560 179
L 560 179
L 560 179
L 560 179
L 560 179
L 560 179
L 560 179
L 561 179
L 561 179
L 561 179
L 561 179
L 561 179
L 561 179
L 561 179
L 561 179
L 561 179
L 561 179
L 562 179
L 562 179
L 562 178
L 562 178
L 562 178
L 562 178
L 562 178
L 562 178
L 562 178
L 563 178
L 563 178
L 563 178
L 563 178
L 563 178
L 563 178
L 563 178
L 563 178
L 563 178
L 563 178
L 563 178
L 563 178
L 563 178
L 564 178
L 564 178
L 564 177
L 564 177
L 564 177
L 564 177
L 564 177
L 564 177
L 564 177
L 565 177
L 565 177
L 565 177
L 565 177
L 565 177
L 565 177
L 565 177
L 565 177
L 565 177
L 565 177
L 566 177
L 566 177
L 566 177
L 566 177
L 566 177
L 566 176
L 566 176
L 566 176
L 566 176
L 566 176
L 566 176
L 566 176
L 566 176
L 566 176
L 566 176
L 567 176
L 567 176
L 567 176
L 567 176
L 567 176
L 567 176
L 567 176
L 567 176
L 568 176
L 568 176
L 569 176
L 569 175
L 569 175
L 570 175
L 570 175
L 570 175
L 570 175
L 571 175
L 571 175
L 571 175
L 571 175
L 571 175
L 571 175
L 571 175
L 571 175
L 571 175
L 571 175
L 571 175
L 571 175
L 571 175
L 571 175
L 571 175
L 571 175
L 571 174
L 571 174
L 571 174
L 571 174
L 571 174
L 571 174
L 571 174
L 571 174
L 571 174
L 571 174
L 571 174
L 572 174
L 572 174
L 572 174
L 572 174
L 572 174
L 572 174
L 572 174
L 572 174
L 572 174
L 572 174
L 572 174
L 572 173
L 572 173
L 572 173
L 572 173
L 572 173
L 572 173
L 572 173
L 572 173
L 572 173
L 572 173
L 572 173
L 572 173
L 572 173
L 572 173
L 572 173
L 573 173
L 573 173
L 573 173
L 573 173
L 573 173
L 573 173
L 573 173
L 573 172
L 573 172
L 573 172
L 573 172
L 573 172
L 573 172
L 573 172
L 573 172
L 573 172
L 574 172
L 574 172
L 574 172
L 574 172
L 574 172
L 574 172
L 574 172
L 574 172
L 574 172
L 574 172
L 574 172
L 574 172
L 574 171
L 574 171
L 574 171
L 574 171
L 574 171
L 574 171
L 574 171
L 575 171
L 575 171
L 575 171
L 575 171
L 575 171
L 575 171
L 575 171
L 575 171
L 575 171
L 575 171
L 575 171
L 575 171
L 575 171
L 575 171
L 575 171
L 575 170
L 575 170
L 575 170
L 576 170
L 576 170
L 576 170
L 576 170
L 576 170
L 576 170
L 576 170
L 576 170
L 576 170
L 576 170
L 576 170
L 577 170
L 577 170
L 577 170
L 577 170
L 577 170
L 577 170
L 577 170
L 577 170
L 577 169
L 577 169
L 577 169
L 577 169
L 578 169
L 578 169
L 578 169
L 578 169
L 578 169
L 578 169
L 578 169
L 578 169
L 578 169
L 578 169
L 578 169
L 578 169
L 581 169
L 582 169
L 582 169
L 582 169
L 582 169
L 583 169
L 583 168
L 583 168
L 583 168
L 583 168
L 583 168
L 583 168
L 583 168
L 583 168
L 583 168
L 583 168
L 583 168
L 583 168
L 583 168
L 583 168
L 583 168
L 583 168
L 584 168
L 584 168
L 584 168
L 584 168
L 584 168
L 584 167
L 584 167
L 584 167
L 584 167
L 584 167
L 584 167
L 584 167
L 584 167
L 584 167
L 584 167
L 584 167
L 584 167
L 584 167
L 585 167
L 585 167
L 585 167
L 585 167
L 585 167
L 585 167
L 585 167
L 585 167
L 585 167
L 585 166
L 585 166
L 585 166
L 585 166
L 585 166
L 585 166
L 585 166
L 586 166
L 586 166
L 586 166
L 586 166
L 586 166
L 586 166
L 586 166
L 586 166
L 586 166
L 586 166
L 586 166
L 586 166
L 586 166
L 586 166
L 586 166
L 586 165
L 586 165
L 586 165
L 586 165
L 586 165
L 586 165
L 586 165
L 586 165
L 586 165
L 586 165
L 586 165
L 586 165
L 587 165
L 587 165
L 587 165
L 587 165
L 587 165
L 587 165
L 587 165
L 587 165
L 587 165
L 587 165
L 587 164
L 587 164
L 587 164
L 587 164
L 587 164
L 587 164
L 587 164
L 587 164
L 587 164
L 587 164
L 587 164
L 587 164
L 588 164
L 588 164
L 588 164
L 588 164
L 588 164
L 588 164
L 588 164
L 588 164
L 588 164
L 588 163
L 588 163
L 588 163
L 588 163
L 589 163
L 589 163
L 589 163
L 589 163
L 589 163
L 589 163
L 589 163
L 589 163
L 589 163
L 589 163
L 589 163
L 589 163
L 589 163
L 589 163
L 589 163
L 589 163
L 589 163
L 589 163
L 589 162
L 589 162
L 589 162
L 589 162
L 589 162
L 589 162
L 589 162
L 590 162
L 590 162
L 590 162
L 590 162
L 590 162
L 591 162
L 591 162
L 591 162
L 593 162
L 594 162
L 594 162
L 595 162
L 595 162
L 595 162
L 595 162
L 595 161
L 595 161
L 595 161
L 595 161
L 595 161
L 595 161
L 595 161
L 595 161
L 595 161
L 595 161
L 595 161
L 595 161
L 595 161
L 595 161
L 595 161
L 595 161
L 595 161
L 595 161
L 595 161
L 595 161
L 595 161
L 595 161
L 595 160
L 595 160
L 595 160
L 596 160
L 596 160
L 596 160
L 596 160
L 596 160
L 596 160
L 596 160
L 596 160
L 596 160
L 596 160
L 596 160
L 596 160
L 596 160
L 596 160
L 596 160
L 596 160
L 596 160
L 596 160
L 596 160
L 596 159
L 596 159
L 596 159
L 597 159
L 597 159
L 597 159
L 597 159
L 597 159
L 597 159
L 597 159
L 597 159
L 597 159
L 597 159
L 597 159
L 597 159
L 597 159
L 597 159
L 597 159
L 597 159
L 597 159
L 597 159
L 597 158
L 597 158
L 597 158
L 598 158
L 598 158
L 598 158
L 598 158
L 598 158
L 598 158
L 598 158
L 598 158
L 598 158
L 598 158
L 598 158
L 598 158
L 598 158
L 598 158
L 598 158
L 598 158
L 598 158
L 598 158
L 598 158
L 598 157
L 598 157
L 598 157
L 598 157
L 599 157
L 599 157
L 599 157
L 599 157
L 599 157
L 599 157
L 599 157
L 599 157
L 599 157
L 599 157
L 599 157
L 599 157
L 599 157
L 600 157
L 600 157
L 600 157
L 600 157
L 600 157
L 600 156
L 600 156
L 600 156
L 601 156
L 601 156
L 601 156
L 601 156
L 601 156
L 601 156
L 601 156
L 601 156
L 601 156
L 601 156
L 601 156
L 601 156
L 601 156
L 601 156
L 601 156
L 601 156
L 602 156
L 602 156
L 602 156
L 602 155
L 602 155
L 602 155
L 602 155
L 602 155
L 602 155
L 602 155
L 602 155
L 602 155
L 603 155
L 603 155
L 603 155
L 605 155
L 606 155
L 606 155
L 606 155
L 606 155
L 606 155
L 606 155
L 606 155
L 606 155
L 606 154
L 606 154
L 606 154
L 606 154
L 606 154
L 606 154
L 606 154
L 606 154
L 606 154
L 606 154
L 606 154
L 606 154
L 606 154
L 606 154
L 606 154
L 606 154
L 606 154
L 606 154
L 606 154
L 606 154
L 606 154
L 606 154
L 606 153
L 606 153
L 606 153
L 606 153
L 606 153
L 606 153
L 607 153
L 607 153
L 607 153
L 607 153
L 607 153
L 607 153
L 607 153
L 607 153
L 607 153
L 607 153
L 607 153
L 607 153
L 607 153
L 607 153
L 607 153
L 607 153
L 607 152
L 607 152
L 607 152
L 607 152
L 607 152
L 607 152
L 607 152
L 607 152
L 607 152
L 607 152
L 607 152
L 607 152
L 607 152
L 607 152
L 607 152
L 607 152
L 607 152
L 607 152
L 607 152
L 607 152
L 607 152
L 607 152
L 607 151
L 607 151
L 607 151
L 607 151
L 607 151
L 607 151
L 607 151
L 607 151
L 607 151
L 607 151
L 607 151
L 607 151
L 607 151
L 607 151
L 607 151
L 607 151
L 607 151
L 607 151
L 607 151
L 607 151
L 608 151
L 608 150
L 608 150
L 608 150
L 608 150
L 608 150
L 608 150
L 608 150
L 608 150
L 608 150
L 608 150
L 608 150
L 608 150
L 608 150
L 608 150
L 608 150
L 609 150
L 609 150
L 609 150
L 609 150
L 609 150
L 609 150
L 609 150
L 609 149
L 609 149
L 609 149
L 609 149
L 609 149
L 609 149
L 609 149
L 609 149
L 609 149
L 609 149
L 609 149
L 609 149
L 609 149
L 609 149
L 609 149
L 609 149
L 609 149
L 609 149
L 609 149
L 609 149
L 609 149
L 609 149
L 609 148
L 609 148
L 609 148
L 609 148
L 609 148
L 609 148
L 609 148
L 609 148
L 609 148
L 609 148
L 609 148
L 609 148
L 609 148
L 609 148
L 609 148
L 609 148
L 609 148
L 609 148
L 609 148
L 609 148
L 609 148
L 610 148
L 610 147
L 610 147
L 610 147
L 610 147
L 610 147
L 610 147
L 610 147
L 610 147
L 610 147
L 610 147
L 610 147
L 610 147
L 610 147
L 610 147
L 610 147
L 610 147
L 610 147
L 610 147
L 610 147
L 610 147
L 610 147
L 610 147
L 610 146
L 610 146
L 610 146
L 610 146
L 610 146
L 610 146
L 610 146
L 610 146
L 610 146
L 610 146
L 610 146
L 610 146
L 610 146
L 610 146
L 610 146
L 610 146
L 610 146
L 610 146
L 610 146
L 611 146
L 611 146
L 611 145
L 611 145
L 611 145
L 611 145
L 611 145
L 611 145
L 611 145
L 611 145
L 611 145
L 611 145
L 611 145
L 611 145
L 611 145
L 611 145
L 611 145
L 611 145
L 612 145
L 612 145
L 612 145
L 612 145
L 612 145
L 612 145
L 612 144
L 612 144
L 612 144
L 612 144
L 612 144
L 612 144
L 612 144
L 612 144
L 612 144
L 612 144
L 612 144
L 612 144
L 612 144
L 612 144
L 612 144
L 612 144
L 612 144
L 612 144
L 612 144
L 612 144
L 612 144
L 612 144
L 612 143
L 613 143
L 613 143
L 613 143
L 613 143
L 613 143
L 613 143
L 613 143
L 613 143
L 613 143
L 613 143
L 613 143
L 613 143
L 613 143
L 613 143
L 613 143
L 613 143
L 613 143
L 613 143
L 613 143
L 614 143
L 614 143
L 614 142
L 614 142
L 614 142
L 614 142
L 614 142
L 614 142
L 614 142
L 614 142
L 614 142
L 614 142
L 615 142
L 615 142
L 615 142
L 615 142
L 616 142
L 616 142
L 616 142
L 616 142
L 617 142
L 617 142
L 618 142
L 618 141
L 618 141
L 618 141
L 618 141
L 618 141
L 618 141
L 618 141
L 618 141
L 618 141
L 618 141
L 618 141
L 618 141
L 618 141
L 619 141
L 619 141
L 619 141
L 619 141
L 619 141
L 619 141
L 619 141
L 619 141
L 619 141
L 619 140
L 619 140
L 619 140
L 619 140
L 619 140
L 619 140
L 619 140
L 619 140
L 619 140
L 619 140
L 619 140
L 619 140
L 619 140
L 619 140
L 619 140
L 619 140
L 619 140
L 619 140
L 619 140
L 619 140
L 619 140
L 619 140
L 619 139
L 619 139
L 619 139
L 619 139
L 620 139
L 620 139
L 620 139
L 620 139
L 620 139
L 620 139
L 620 139
L 620 139
L 620 139
L 620 139
L 620 139
L 620 139
L 620 139
L 620 139
L 620 139
L 620 139
L 620 139
L 620 139
L 621 138
L 621 138
L 621 138
L 621 138
L 621 138
L 621 138
L 621 138
L 621 138
L 621 138
L 621 138
L 621 138
L 621 138
L 621 138
L 621 138
L 621 138
L 621 138
L 621 138
L 621 138
L 621 138
L 621 138
L 621 138
L 621 137
L 621 137
L 621 137
L 621 137
L 621 137
L 621 137
L 621 137
L 621 137
L 621 137
L 621 137
L 621 137
L 621 137
L 621 137
L 621 137
L 621 137
L 622 137
L 622 137
L 622 137
L 622 137
L 622 137
L 622 137
L 622 137
L 622 136
L 622 136
L 622 136
L 622 136
L 622 136
L 622 136
L 622 136
L 622 136
L 622 136
L 622 136
L 622 136
L 622 136
L 622 136
L 622 136
L 622 136
L 622 136
L 622 136
L 622 136
L 622 136
L 622 136
L 623 136
L 623 136
L 623 135
L 623 135
L 623 135
L 623 135
L 623 135
L 623 135
L 623 135
L 623 135
L 623 135
L 623 135
L 623 135
L 623 135
L 624 135
L 624 135
L 624 135
L 624 135
L 624 135
L 624 135
L 624 135
L 624 135
L 624 135
L 624 135
L 624 134
L 624 134
L 624 134
L 624 134
L 624 134
L 625 134
L 625 134
L 625 134
L 625 134
L 625 134
L 626 134
L 626 134
L 626 134
L 626 134
L 626 134
L 626 134
L 626 134
L 626 134
L 626 134
L 626 134
L 627 134
L 627 133
L 627 133
L 627 133
L 630 133
L 630 133
L 631 133
L 631 133
L 631 133
L 631 133
L 631 133
L 631 133
L 631 133
L 631 133
L 631 133
L 631 133
L 631 133
L 631 133
L 631 133
L 632 133
L 632 133
L 632 133
L 632 133
L 633 132
L 633 132
L 633 132
L 633 132
L 633 132
L 633 132
L 633 132
L 633 132
L 633 132
L 633 132
L 634 132
L 634 132
L 634 132
L 634 132
L 634 132
L 634 132
L 634 132
L 634 132
L 634 132
L 634 132
L 634 132
L 634 132
L 634 131
L 635 131
L 635 131
L 635 131
L 636 131
L 636 131
L 636 131
L 637 131
L 637 131
L 637 131
L 637 131
L 638 131
L 638 131
L 638 131
L 638 131
L 638 131
L 639 131
L 639 131
L 640 131
L 642 131
L 642 131
L 643 131
L 643 130
L 643 130
L 643 130
L 644 130
L 644 130
L 644 130
L 644 130
L 644 130
L 644 130
L 644 130
L 645 130
L 645 130
L 645 130
L 645 130
L 645 130
L 646 130
L 646 130
L 646 130
L 646 130
L 646 130
L 647 130
L 647 130
L 647 129
L 647 129
L 647 129
L 647 129
L 647 129
L 648 129
L 648 129
L 648 129
L 648 129
L 648 129
L 648 129
L 649 129
L 649 129
L 649 129
L 649 129
L 649 129
L 649 129
L 649 129
L 650 129
L 651 129
L 653 129
L 654 128
L 654 128
L 654 128
L 654 128
L 654 128
L 654 128
L 654 128
L 654 128
L 654 128
L 654 128
L 654 128
L 654 128
L 654 128
L 654 128
L 655 128
L 655 128
L 655 128
L 655 128
L 655 128
L 655 128
L 655 128
L 655 128
L 655 127
L 655 127
L 655 127
L 655 127
L 655 127
L 655 127
L 655 127
L 655 127
L 655 127
L 655 127
L 656 127
L 656 127
L 656 127
L 656 127
L 656 127
L 656 127
L 656 127
L 656 127
L 656 127
L 657 127
L 657 127
L 657 127
L 657 126
L 657 126
L 657 126
L 657 126
L 657 126
L 657 126
L 657 126
L 657 126
L 657 126
L 657 126
L 657 126
L 658 126
L 658 126
L 658 126
L 658 126
L 658 126
L 658 126
L 658 126
L 658 126
L 658 126
L 658 126
L 658 126
L 658 125
L 658 125
L 658 125
L 658 125
L 658 125
L 658 125
L 658 125
L 659 125
L 659 125
L 659 125
L 659 125
L 659 125
L 659 125
L 659 125
L 659 125
L 660 125
L 660 125
L 660 125
L 660 125
L 660 125
L 660 125
L 660 124
L 660 124
L 660 124
L 660 124
L 660 124
L 660 124
L 660 124
L 660 124
L 661 124
L 661 124
L 661 124
L 661 124
L 661 124
L 661 124
L 661 124
L 661 124
L 661 124
L 661 124
L 661 124
L 661 124
L 661 124
L 662 124
L 662 123
L 662 123
L 663 123
L 664 123
L 665 123
L 666 123
L 666 123
L 666 123
L 666 123
L 666 123
L 666 123
L 666 123
L 666 123
L 666 123
L 666 123
L 666 123
L 666 123
L 666 123
L 666 123
L 666 123
L 666 123
L 666 123
L 667 122
L 667 122
L 667 122
L 667 122
L 667 122
L 667 122
L 667 122
L 667 122
L 667 122
L 667 122
L 667 122
L 667 122
L 667 122
L 667 122
L 667 122
L 667 122
L 667 122
L 667 122
L 667 122
L 667 122
L 667 122
L 667 122
L 667 121
L 667 121
L 667 121
L 667 121
L 667 121
L 667 121
L 667 121
L 667 121
L 667 121
L 667 121
L 667 121
L 667 121
L 667 121
L 667 121
L 667 121
L 667 121
L 667 121
L 667 121
L 667 121
L 667 121
L 667 121
L 667 120
L 667 120
L 667 120
L 667 120
L 667 120
L 667 120
L 667 120
L 667 120
L 667 120
L 667 120
L 667 120
L 667 120
L 667 120
L 667 120
L 667 120
L 667 120
L 667 120
L 667 120
L 667 120
L 667 120
L 667 120
L 667 120
L 667 119
L 667 119
L 667 119
L 667 119
L 667 119
L 667 119
L 667 119
L 668 119
L 668 119
L 668 119
L 668 119
L 668 119
L 668 119
L 668 119
L 668 119
L 668 119
L 668 119
L 668 119
L 668 119
L 668 119
L 668 119
L 668 119
L 668 118
L 668 118
L 668 118
L 668 118
L 668 118
L 668 118
L 668 118
L 668 118
L 668 118
L 669 118
L 669 118
L 669 118
L 669 118
L 669 118
L 669 118
L 669 118
L 669 118
L 669 118
L 669 118
L 669 118
L 669 118
L 669 118
L 669 117
L 669 117
L 669 117
L 669 117
L 669 117
L 669 117
L 669 117
L 669 117
L 669 117
L 669 117
L 670 117
L 670 117
L 670 117
L 670 117
L 670 117
L 670 117
L 670 117
L 670 117
L 670 117
L 670 117
L 670 117
L 670 116
L 670 116
L 670 116
L 670 116
L 670 116
L 670 116
L 670 116
L 670 116
L 670 116
L 670 116
L 670 116
L 670 116
L 670 116
L 670 116
L 670 116
L 670 116
L 670 116
L 671 116
L 671 116
L 671 116
L 671 116
L 671 116
L 671 115
L 671 115
L 671 115
L 671 115
L 671 115
L 671 115
L 671 115
L 671 115
L 671 115
L 671 115
L 671 115
L 671 115
L 671 115
L 671 115
L 671 115
L 671 115
L 671 115
L 671 115
L 672 115
L 672 115
L 672 115
L 672 115
L 672 114
L 672 114
L 672 114
L 672 114
L 672 114
L 672 114
L 672 114
L 672 114
L 672 114
L 672 114
L 672 114
L 672 114
L 672 114
L 673 114
L 673 114
L 673 114
L 673 114
L 674 114
L 674 114
L 674 114
L 674 114
L 675 114
L 676 113
L 678 113
L 678 113
L 678 113
L 678 113
L 678 113
L 678 113
L 678 113
L 678 113
L 678 113
L 678 113
L 678 113
L 678 113
L 678 113
L 678 113
L 678 113
L 678 113
L 678 113
L 678 113
L 678 113
L 678 113
L 678 113
L 678 112
L 678 112
L 678 112
L 678 112
L 678 112
L 678 112
L 678 112
L 678 112
L 678 112
L 678 112
L 678 112
L 678 112
L 678 112
L 678 112
L 678 112
L 678 112
L 678 112
L 678 112
L 678 112
L 678 112
L 678 112
L 678 111
L 678 111
L 678 111
L 678 111
L 678 111
L 679 111
L 679 111
L 679 111
L 679 111
L 679 111
L 679 111
L 679 111
L 679 111
L 679 111
L 679 111
L 679 111
L 679 111
L 679 111
L 679 111
L 679 111
L 679 111
L 679 111
L 679 110
L 679 110
L 679 110
L 679 110
L 679 110
L 679 110
L 679 110
L 679 110
L 679 110
L 679 110
L 679 110
L 679 110
L 679 110
L 679 110
L 679 110
L 679 110
L 679 110
L 679 110
L 679 110
L 679 110
L 679 110
L 679 110
L 679 109
L 679 109
L 679 109
L 679 109
L 679 109
L 680 109
L 680 109
L 680 109
L 680 109
L 680 109
L 680 109
L 680 109
L 680 109
L 680 109
L 680 109
L 680 109
L 680 109
L 680 109
L 680 109
L 680 109
L 680 109
L 680 109
L 680 108
L 680 108
L 680 108
L 680 108
L 680 108
L 680 108
L 680 108
L 680 108
L 680 108
L 680 108
L 680 108
L 680 108
L 680 108
L 680 108
L 680 108
L 680 108
L 680 108
L 681 108
L 681 108
L 681 108
L 681 108
L 681 107
L 681 107
L 681 107
L 681 107
L 681 107
L 681 107
L 681 107
L 681 107
L 681 107
L 681 107
L 681 107
L 681 107
L 681 107
L 681 107
L 681 107
L 681 107
L 681 107
L 681 107
L 681 107
L 681 107
L 681 107
L 681 107
L 681 106
L 681 106
L 681 106
L 681 106
L 681 106
L 681 106
L 681 106
L 681 106
L 682 106
L 682 106
L 682 106
L 682 106
L 682 106
L 682 106
L 682 106
L 682 106
L 682 106
L 682 106
L 682 106
L 682 106
L 682 106
L 682 106
L 682 105
L 682 105
L 682 105
L 682 105
L 682 105
L 682 105
L 682 105
L 682 105
L 682 105
L 682 105
L 682 105
L 682 105
L 682 105
L 682 105
L 682 105
L 682 105
L 683 105
L 683 105
L 683 105
L 683 105
L 683 105
L 683 105
L 683 104
L 683 104
L 683 104
L 683 104
L 683 104
L 683 104
L 683 104
L 683 104
L 683 104
L 684 104
L 684 104
L 684 104
L 684 104
L 684 104
L 684 104
L 684 104
L 684 104
L 685 104
L 685 104
L 685 104
L 685 104
L 685 103
L 685 103
L 685 103
L 685 103
L 685 103
L 685 103
L 685 103
L 685 103
L 686 103
L 686 103
L 686 103
L 688 103
L 688 103
L 688 103
L 689 103
L 689 103
L 689 103
L 689 103
L 689 103
L 690 103
L 690 103
L 690 103
L 690 102
L 690 102
L 690 102
L 690 102
L 690 102
L 690 102
L 690 102
L 690 102
L 690 102
L 690 102
L 690 102
L 690 102
L 690 102
L 690 102
L 690 102
L 690 102
L 690 102
L 690 102
L 690 102
L 690 102
L 690 102
L 690 102
L 690 101
L 690 101
L 690 101
L 690 101
L 690 101
L 690 101
L 690 101
L 690 101
L 690 101
L 691 101
L 691 101
L 691 101
L 691 101
L 691 101
L 691 101
L 691 101
L 691 101
L 691 101
L 691 101
L 691 101
L 691 101
L 691 101
L 691 100
L 691 100
L 691 100
L 691 100
L 691 100
L 691 100
L 691 100
L 691 100
L 691 100
L 691 100
L 691 100
L 692 100
L 692 100
L 692 100
L 692 100
L 692 100
L 692 100
L 692 100
L 692 100
L 692 100
L 692 100
L 692 99
L 692 99
L 692 99
L 692 99
L 692 99
L 692 99
L 692 99
L 692 99
L 692 99
L 692 99
L 692 99
L 692 99
L 692 99
L 692 99
L 692 99
L 692 99
L 692 99
L 693 99
L 693 99
L 693 99
L 693 99
L 693 99
L 693 98
L 693 98
L 693 98
L 693 98
L 693 98
L 693 98
L 693 98
L 693 98
L 693 98
L 693 98
L 693 98
L 693 98
L 693 98
L 693 98
L 693 98
L 693 98
L 693 98
L 693 98
L 693 98
L 693 98
L 694 98
L 694 98
L 694 97
L 694 97
L 694 97
L 694 97
L 694 97
L 694 97
L 694 97
L 694 97
L 694 97
L 694 97
L 694 97
L 694 97
L 694 97
L 694 97
L 694 97
L 694 97
L 694 97
L 694 97
L 694 97
L 694 97
L 694 97
L 695 97
L 695 96
L 695 96
L 695 96
L 695 96
L 695 96
L 695 96
L 696 96
L 696 96
L 696 96
L 696 96
L 696 96
L 696 96
L 696 96
L 696 96
L 696 96
L 697 96
L 697 96
L 697 96
L 697 96
L 697 96
L 697 96
L 697 96
L 697 95
L 697 95
L 697 95
L 697 95
L 698 95
L 698 95
L 700 95
L 701 95
L 701 95
L 701 95
L 701 95
L 701 95
L 701 95
L 702 95
L 702 95
L 702 95
L 702 95
L 702 95
L 702 95
L 702 95
L 702 95
L 702 94
L 702 94
L 702 94
L 702 94
L 702 94
L 702 94
L 702 94
L 702 94
L 702 94
L 702 94
L 702 94
L 702 94
L 702 94
L 702 94
L 702 94
L 702 94
L 702 94
L 702 94
L 702 94
L 702 94
L 702 94
L 702 94
L 702 93
L 703 93
L 703 93
L 703 93
L 703 93
L 703 93
L 703 93
L 703 93
L 703 93
L 703 93
L 703 93
L 703 93
L 703 93
L 703 93
L 703 93
L 703 93
L 703 93
L 704 93
L 704 93
L 704 93
L 704 93
L 704 93
L 704 92
L 704 92
L 704 92
L 704 92
L 704 92
L 704 92
L 704 92
L 704 92
L 704 92
L 704 92
L 704 92
L 704 92
L 704 92
L 704 92
L 705 92
L 705 92
L 705 92
L 705 92
L 705 92
L 705 92
L 705 92
L 705 92
L 705 91
L 705 91
L 705 91
L 705 91
L 705 91
L 705 91
L 705 91
L 705 91
L 705 91
L 705 91
L 705 91
L 705 91
L 705 91
L 706 91
L 706 91
L 706 91
L 706 91
L 706 91
L 706 91
L 706 91
L 706 91
L 706 90
L 706 90
L 706 90
L 706 90
L 706 90
L 706 90
L 706 90
L 706 90
L 706 90
L 706 90
L 707 90
L 707 90
L 707 90
L 707 90
L 707 90
L 707 90
L 707 90
L 707 90
L 708 90
L 708 90
L 708 90
L 708 90
L 708 89
L 708 89
L 708 89
L 709 89
L 709 89
L 709 89
L 712 89
L 714 89
L 714 89
L 714 89
L 714 89
L 714 89
L 715 89
L 715 89
L 715 89
L 715 89
L 715 89
L 715 89
L 716 89
L 716 89
L 716 89
L 716 89
L 716 88
L 716 88
L 716 88
L 717 88
L 717 88
L 717 88
L 717 88
L 717 88
L 717 88
L 718 88
L 718 88
L 719 88
L 719 88
L 719 88
L 719 88
L 719 88
L 719 88
L 719 88
L 719 88
L 719 88
L 719 88
L 719 88
L 719 87
L 719 87
L 719 87
L 720 87
L 720 87
L 720 87
L 720 87
L 720 87
L 720 87
L 720 87
L 720 87
L 720 87
L 720 87
L 720 87
L 720 87
L 721 87
L 721 87
L 721 87
L 721 87
L 721 87
L 721 87
L 721 86
L 721 86
L 721 86
L 722 86
L 722 86
L 722 86
L 722 86
L 722 86
L 725 86
L 725 86
L 725 86
L 725 86
L 726 86
L 726 86
L 726 86
L 726 86
L 726 86
L 726 86
L 726 86
L 726 86
L 727 86
L 727 86
L 727 85
L 727 85
L 727 85
L 727 85
L 727 85
L 728 85
L 728 85
L 729 85
L 729 85
L 729 85
L 730 85
L 731 85
L 731 85
L 731 85
L 731 85
L 731 85
L 731 85
L 731 85
L 731 85
L 731 85
L 731 85
L 732 85
L 732 84
L 732 84
L 732 84
L 732 84
L 732 84
L 732 84
L 732 84
L 732 84
L 732 84
L 733 84
L 733 84
L 733 84
L 736 84
L 736 84
L 737 84
L 737 84
L 737 84
L 737 84
L 737 84
L 737 84
L 737 84
L 737 84
L 737 83
L 737 83
L 737 83
L 737 83
L 737 83
L 737 83
L 737 83
L 737 83
L 737 83
L 738 83
L 738 83
L 738 83
L 738 83
L 738 83
L 738 83
L 738 83
L 738 83
L 738 83
L 738 83
L 738 83
L 738 83
L 738 82
L 738 82
L 738 82
L 738 82
L 738 82
L 738 82
L 738 82
L 738 82
L 738 82
L 738 82
L 738 82
L 739 82
L 739 82
L 739 82
L 739 82
L 739 82
L 739 82
L 739 82
L 739 82
L 739 82
L 739 82
L 739 82
L 739 81
L 739 81
L 740 81
L 740 81
L 740 81
L 740 81
L 740 81
L 740 81
L 740 81
L 740 81
L 740 81
L 740 81
L 740 81
L 740 81
L 740 81
L 740 81
L 740 81
L 740 81
L 740 81
L 740 81
L 740 81
L 740 81
L 740 80
L 740 80
L 740 80
L 741 80
L 741 80
L 741 80
L 741 80
L 741 80
L 741 80
L 741 80
L 741 80
L 741 80
L 741 80
L 741 80
L 741 80
L 741 80
L 741 80
L 741 80
L 741 80
L 741 80
L 741 80
L 741 80
L 741 79
L 741 79
L 741 79
L 741 79
L 741 79
L 741 79
L 741 79
L 742 79
L 742 79
L 742 79
L 742 79
L 742 79
L 742 79
L 742 79
L 742 79
L 742 79
L 743 79
L 743 79
L 743 79
L 743 79
L 743 79
L 743 79
L 743 78
L 743 78
L 743 78
L 743 78
L 743 78
L 744 78
L 744 78
L 744 78
L 744 78
L 744 78
L 744 78
L 744 78
L 744 78
L 745 78
L 745 78
L 747 78
L 748 78
L 749 78
L 749 78
L 749 78
L 749 78
L 749 77
L 749 77
L 749 77
L 749 77
L 749 77
L 749 77
L 749 77
L 749 77
L 749 77
L 749 77
L 750 77
L 750 77
L 750 77
L 750 77
L 750 77
L 750 77
L 750 77
L 750 77
L 750 77
L 750 77
L 750 77
L 750 77
L 750 76
L 750 76
L 750 76
L 750 76
L 750 76
L 750 76
L 750 76
L 750 76
L 750 76
L 751 76
L 751 76
L 751 76
L 751 76
L 751 76
L 751 76
L 751 76
L 751 76
L 751 76
L 751 76
L 751 76
L 751 76
L 751 76
L 751 75
L 751 75
L 752 75
L 752 75
L 752 75
L 752 75
L 752 75
L 752 75
L 752 75
L 752 75
L 752 75
L 752 75
L 752 75
L 752 75
L 752 75
L 752 75
L 752 75
L 752 75
L 752 75
L 752 75
L 752 75
L 752 75
L 752 74
L 752 74
L 752 74
L 752 74
L 753 74
L 753 74
L 753 74
L 753 74
L 753 74
L 753 74
L 753 74
L 753 74
L 753 74
L 753 74
L 753 74
L 753 74
L 753 74
L 753 74
L 753 74
L 753 74
L 753 74
L 753 73
L 753 73
L 753 73
L 753 73
L 753 73
L 753 73
L 754 73
L 754 73
L 754 73
L 754 73
L 754 73
L 754 73
L 754 73
L 754 73
L 754 73
L 754 73
L 754 73
L 754 73
L 754 73
L 754 73
L 754 73
L 755 73
L 755 72
L 755 72
L 755 72
L 755 72
L 755 72
L 755 72
L 755 72
L 755 72
L 755 72
L 755 72
L 755 72
L 755 72
L 755 72
L 755 72
L 756 72
L 756 72
L 756 72
L 756 72
L 756 72
L 756 72
L 756 72
L 756 72
L 756 71
L 756 71
L 756 71
L 756 71
L 756 71
L 756 71
L 756 71
L 756 71
L 756 71
L 756 71
L 756 71
L 757 71
L 757 71
L 757 71
L 757 71
L 758 71
L 758 71
L 758 71
L 758 71
L 758 71
L 759 71
L 761 71
L 761 70
L 761 70
L 761 70
L 761 70
L 761 70
L 761 70
L 761 70
L 761 70
L 761 70
L 761 70
L 761 70
L 761 70
L 761 70
L 761 70
L 761 70
L 761 70
L 761 70
L 761 70
L 761 70
L 761 70
L 761 70
L 761 69
L 761 69
L 761 69
L 761 69
L 761 69
L 761 69
L 761 69
L 761 69
L 761 69
L 761 69
L 761 69
L 761 69
L 761 69
L 762 69
L 762 69
L 762 69
L 762 69
L 762 69
L 762 69
L 762 69
L 762 69
L 762 69
L 762 68
L 762 68
L 762 68
L 762 68
L 762 68
L 762 68
L 762 68
L 762 68
L 762 68
L 763 68
L 763 68
L 763 68
L 763 68
L 763 68
L 763 68
L 763 68
L 763 68
L 763 68
L 763 68
L 763 68
L 763 68
L 763 68
L 763 67
L 763 67
L 763 67
L 763 67
L 763 67
L 763 67
L 763 67
L 763 67
L 763 67
L 763 67
L 763 67
L 763 67
L 763 67
L 763 67
L 763 67
L 763 67
L 763 67
L 763 67
L 763 67
L 763 67
L 764 67
L 764 67
L 764 66
L 764 66
L 764 66
L 764 66
L 764 66
L 764 66
L 764 66
L 764 66
L 764 66
L 764 66
L 764 66
L 764 66
L 764 66
L 764 66
L 764 66
L 764 66
L 764 66
L 764 66
L 764 66
L 764 66
L 764 66
L 764 65
L 764 65
L 764 65
L 764 65
L 764 65
L 764 65
L 764 65
L 764 65
L 764 65
L 765 65
L 765 65
L 765 65
L 765 65
L 765 65
L 765 65
L 765 65
L 765 65
L 765 65
L 765 65
L 765 65
L 765 65
L 765 65
L 765 64
L 765 64
L 765 64
L 765 64
L 765 64
L 765 64
L 765 64
L 765 64
L 765 64
L 765 64
L 765 64
L 765 64
L 765 64
L 765 64
L 765 64
L 765 64
L 765 64
L 765 64
L 765 64
L 765 64
L 765 64
L 765 64
L 765 63
L 765 63
L 765 63
L 766 63
L 766 63
L 766 63
L 766 63
L 766 63
L 766 63
L 766 63
L 766 63
L 766 63
L 766 63
L 766 63
L 766 63
L 766 63
L 766 63
L 766 63
L 767 63
L 767 63
L 767 63
L 767 63
L 767 62
L 767 62
L 767 62
L 767 62
L 767 62
L 768 62
L 768 62
L 768 62
L 768 62
L 768 62
L 768 62
L 768 62
L 768 62
L 768 62
L 768 62
L 769 62
L 769 62
L 770 62
L 770 62
L 770 62
L 772 62
L 772 62
L 772 61
L 772 61
L 773 61
L 773 61
L 773 61
L 773 61
L 773 61
L 773 61
L 773 61
L 773 61
L 773 61
L 773 61
L 773 61
L 773 61
L 773 61
L 773 61
L 773 61
L 773 61
L 773 61
L 773 61
L 773 61
L 773 60
L 773 60
L 773 60
L 773 60
L 773 60
L 773 60
L 773 60
L 773 60
L 774 60
L 774 60
L 774 60
L 774 60
L 774 60
L 774 60
L 774 60
L 774 60
L 774 60
L 774 60
L 774 60
L 774 60
L 774 60
L 774 60
L 774 59
L 774 59
L 774 59
L 774 59
L 774 59
L 775 59
L 775 59
L 775 59
L 775 59
L 775 59
L 775 59
L 775 59
L 775 59
L 775 59
L 775 59
L 775 59
L 775 59
L 775 59
L 775 59
L 775 59
L 775 59
L 775 59
L 775 58
L 775 58
L 775 58
L 775 58
L 775 58
L 775 58
L 776 58
L 776 58
L 776 58
L 776 58
L 776 58
L 776 58
L 776 58
L 776 58
L 776 58
L 776 58
L 776 58
L 776 58
L 776 58
L 776 58
L 776 58
L 776 58
L 776 57
L 776 57
L 776 57
L 776 57
L 776 57
L 776 57
L 776 57
L 776 57
L 777 57
L 777 57
L 777 57
L 777 57
L 777 57
L 777 57
L 777 57
L 777 57
L 777 57
L 777 57
L 777 57
L 777 57
L 777 57
L 777 56
L 777 56
L 777 56
L 777 56
L 777 56
L 777 56
L 777 56
L 777 56
L 777 56
L 777 56
L 777 56
L 777 56
L 777 56
L 777 56
L 777 56
L 777 56
L 778 56
L 778 56
L 778 56
L 778 56
L 779 56
L 779 56
L 779 55
L 779 55
L 779 55
L 779 55
L 780 55
L 780 55
L 780 55
L 780 55
L 780 55
L 780 55
L 780 55
L 781 55
L 781 55
L 781 55
L 782 55
L 783 55
L 783 55
L 784 55
L 785 55
L 785 55
L 785 55
L 785 55
L 785 54
L 785 54
L 785 54
L 785 54
L 785 54
L 785 54
L 785 54
L 785 54
L 785 54
L 785 54
L 785 54
L 785 54
L 785 54
L 785 54
L 785 54
L 785 54
L 785 54
L 785 54
L 786 54
L 786 54
L 786 54
L 786 54
L 786 53
L 786 53
L 786 53
L 786 53
L 786 53
L 786 53
L 786 53
L 786 53
L 786 53
L 786 53
L 787 53
L 787 53
L 787 53
L 787 53
L 787 53
L 787 53
L 787 53
L 787 53
L 787 53
L 787 53
L 787 53
L 787 52
L 787 52
L 787 52
L 787 52
L 787 52
L 788 52
L 788 52
L 788 52
L 788 52
L 788 52
L 788 52
L 788 52
L 788 52
L 788 52
L 788 52
L 788 52
L 788 52
L 788 52
L 788 52
L 788 52
L 788 52
L 788 52
L 788 51
L 788 51
L 788 51
L 789 51
L 789 51
L 789 51
L 789 51
L 789 51
L 789 51
L 789 51
L 789 51
L 789 51
L 789 51
L 789 51
L 789 51
L 789 51
L 789 51
L 789 51
L 789 51
L 789 51
L 789 51
L 789 51
L 789 50
L 789 50
L 789 50
L 789 50
L 789 50
L 789 50
L 789 50
L 790 50
L 790 50
L 790 50
L 790 50
L 790 50
L 790 50
L 790 50
L 790 50
L 790 50
L 791 50
L 791 50
L 791 50
L 791 50
L 792 50
L 792 50
L 792 49
L 793 49
L 793 49
L 796 49
L 796 49
L 796 49
L 797 49
L 797 49
L 797 49
L 797 49
L 797 49
L 798 49
L 798 49
L 798 49
L 798 49
L 798 49
L 798 49
L 798 49
L 799 49
L 799 49
L 800 49
L 800 48
L 800 48
L 800 48
L 800 48
L 801 48
L 801 48
L 801 48
L 801 48
L 801 48
L 802 48
L 802 48
L 802 48
L 802 48
L 803 48
L 803 48
L 803 48
L 804 48
L 804 48
L 804 48
L 804 48
L 804 48
L 805 48
L 805 47
L 805 47
L 806 47
L 808 47
L 808 47
L 809 47
L 809 47
L 809 47
L 809 47
L 809 47
L 809 47
L 809 47
L 810 47
L 810 47
L 810 47
L 810 47
L 810 47
L 811 47
L 811 47
L 811 47
L 811 47
L 812 47
L 812 46
L 812 46
L 812 46
L 812 46
L 813 46
L 813 46
L 813 46
L 813 46
L 813 46
L 813 46
L 813 46
L 814 46
L 814 46
L 814 46
L 814 46
L 814 46
L 815 46
L 815 46
L 816 46
L 816 46
L 816 46
L 817 46
L 817 45
L 819 45
L 820 45
L 820 45
L 820 45
L 820 45
L 821 45
L 821 45
L 821 45
L 821 45
L 821 45
L 821 45
L 821 45
L 821 45
L 821 45
L 821 45
L 821 45
L 821 45
L 821 45
L 821 45
L 821 45
L 821 45
L 822 44
L 822 44
L 822 44
L 822 44
L 822 44
L 823 44
L 823 44
L 823 44
L 823 44
L 823 44
L 823 44
L 823 44
L 823 44
L 823 44
L 823 44
L 823 44
L 823 44
L 823 44
L 823 44
L 823 44
L 823 44
L 823 43
L 823 43
L 823 43
L 823 43
L 824 43
L 824 43
L 824 43
L 824 43
L 824 43
L 824 43
L 824 43
L 824 43
L 824 43
L 824 43
L 824 43
L 824 43
L 824 43
L 824 43
L 824 43
L 825 43
L 825 43
L 825 43
L 825 42
L 825 42
L 825 42
L 825 42
L 825 42
L 825 42
L 825 42
L 825 42
L 825 42
L 826 42
L 826 42
L 826 42
L 826 42
L 826 42
L 826 42
L 826 42
L 826 42
L 827 42
L 827 42
L 827 42
L 827 42
L 827 42
L 827 41
L 828 41
L 828 41
L 828 41
L 828 41
L 829 41
L 829 41
L 829 41
L 830 41
L 831 41
L 832 41
L 832 41
L 832 41
L 832 41
L 832 41
L 832 41
L 833 41
L 833 41
L 833 41
L 833 41
L 833 41
L 833 41
L 833 40
L 833 40
L 833 40
L 833 40
L 833 40
L 833 40
L 833 40
L 833 40
L 833 40
L 833 40
L 833 40
L 833 40
L 833 40
L 833 40
L 834 40
L 834 40
L 834 40
L 834 40
L 834 40
L 834 40
L 834 40
L 835 39
L 835 39
L 835 39
L 835 39
L 835 39
L 835 39
L 835 39
L 835 39
L 835 39
L 835 39
L 835 39
L 835 39
L 835 39
L 835 39
L 835 39
L 835 39
L 836 39
L 836 39
L 836 39
L 836 39
L 836 39
L 836 39
L 836 38
L 836 38
L 836 38
L 836 38
L 836 38
L 836 38
L 836 38
L 836 38
L 837 38
L 837 38
L 837 38
L 837 38
L 837 38
L 838 38
L 838 38
L 838 38
L 839 38
L 839 38
L 839 38
L 839 38
L 839 38
L 840 38
L 840 37
L 840 37
L 842 37
L 844 37
L 844 37
L 844 37
L 844 37
L 844 37
L 844 37
L 844 37
L 844 37
L 844 37
L 845 37
L 845 37
L 845 37
L 845 37
L 845 37
L 845 37
L 845 37
L 846 37
L 846 37
L 846 37
L 846 36
L 847 36
L 847 36
L 847 36
L 847 36
L 847 36
L 847 36
L 847 36
L 847 36
L 847 36
L 847 36
L 847 36
L 847 36
L 848 36
L 848 36
L 848 36
L 848 36
L 848 36
L 848 36
L 848 36
L 848 36
L 848 35
L 848 35
L 848 35
L 848 35
L 848 35
L 848 35
L 849 35
L 849 35
L 849 35
L 849 35
L 850 35
L 850 35
L 850 35
L 850 35
L 850 35
L 850 35
L 850 35
L 852 35
L 852 35
L 852 35
L 852 35
L 853 35
L 856 34
L 856 34
L 856 34
L 857 34
L 857 34
L 857 34
L 857 34
L 857 34
L 857 34
L 857 34
L 857 34
L 857 34
L 857 34
L 857 34
L 857 34
L 857 34
L 857 34
L 857 34
L 858 34
L 858 34
L 858 34
L 858 34
L 858 33
L 859 33
L 859 33
L 859 33
L 859 33
L 859 33
L 859 33
L 859 33
L 859 33
L 859 33
L 859 33
L 859 33
L 859 33
L 859 33
L 860 33
L 860 33
L 860 33
L 860 33
L 860 33
L 860 33
L 860 33
L 860 33
L 860 32
L 860 32
L 860 32
L 861 32
L 861 32
L 862 32
L 863 32
L 863 32
L 863 32
L 865 32
L 867 32
L 868 32
L 868 32
L 868 32
L 868 32
L 868 32
L 868 32
L 868 32
L 868 32
L 868 32
L 868 32
L 869 31
L 869 31
L 869 31
L 869 31
L 869 31
L 869 31
L 869 31
L 869 31
L 869 31
L 869 31
L 869 31
L 869 31
L 869 31
L 869 31
L 869 31
L 869 31
L 869 31
L 869 31
L 869 31
L 869 31
L 869 31
L 869 31
L 869 30
L 869 30
L 869 30
L 869 30
L 869 30
L 869 30
L 869 30
L 869 30
L 869 30
L 869 30
L 869 30
L 869 30
L 869 30
L 869 30
L 869 30
L 870 30
L 870 30
L 870 30
L 870 30
L 870 30
L 870 30
L 870 30
L 870 29
L 870 29
L 870 29
L 870 29
L 870 29
L 870 29
L 870 29
L 870 29
L 870 29
L 870 29
L 870 29
L 870 29
L 870 29
L 870 29
L 870 29
L 870 29
L 870 29
L 870 29
L 870 29
L 870 29
L 870 29
L 870 29
L 870 28
L 870 28
L 871 28
L 871 28
L 871 28
L 871 28
L 871 28
L 871 28
L 871 28
L 871 28
L 871 28
L 871 28
L 871 28
L 871 28
L 871 28
L 871 28
L 871 28
L 871 28
L 871 28
L 871 28
L 871 28
L 871 28
L 871 27
L 871 27
L 871 27
L 871 27
L 871 27
L 871 27
L 871 27
L 871 27
L 871 27
L 871 27
L 871 27
L 871 27
L 871 27
L 871 27
L 872 27
L 872 27
L 872 27
L 872 27
L 872 27
L 872 27
L 872 27
L 872 26
L 872 26
L 872 26
L 872 26
L 872 26
L 872 26
L 872 26
L 872 26
L 872 26
L 872 26
L 872 26
L 872 26
L 872 26
L 872 26
L 872 26
L 872 26
L 872 26
L 872 26
L 872 26
L 872 26
L 872 26
L 872 26
L 872 25
L 872 25
L 873 25
L 873 25
L 873 25
L 873 25
L 873 25
L 873 25
L 873 25
L 873 25
L 873 25
L 873 25
L 873 25
L 873 25
L 873 25
L 873 25
L 873 25
L 874 25
L 874 25
L 874 25
L 874 25
L 874 25
L 874 24
L 874 24
L 874 24
L 874 24
L 874 24
L 874 24
L 874 24
L 875 24
L 875 24
L 875 24
L 875 24
L 875 24
L 875 24
L 875 24
L 875 24
L 875 24
L 875 24
L 875 24
L 875 24
L 875 24
L 875 24
L 876 24
L 876 23
L 876 23
L 876 23
L 876 23
L 877 23
L 878 23
L 878 23
L 878 23
L 879 23
L 879 23
L 879 23
L 879 23
L 880 23
L 880 23
L 880 23
L 880 23
L 880 23
L 880 23
L 880 23
L 880 23
L 880 23
L 880 22
L 880 22
L 880 22
L 880 22
L 880 22
L 880 22
L 880 22
L 880 22
L 880 22
L 880 22
L 880 22
L 880 22
L 880 22
L 880 22
L 880 22
L 880 22
L 881 22
L 881 22
L 881 22
L 881 22
L 881 22
L 881 22
L 881 21
L 881 21
L 881 21
L 881 21
L 881 21
L 881 21
L 881 21
L 881 21
L 881 21
L 881 21
L 881 21
L 881 21
L 882 21
L 882 21
L 882 21
L 882 21
L 882 21
L 882 21
L 882 21
L 882 21
L 882 21
L 882 21
L 882 20
L 882 20
L 882 20
L 882 20
L 882 20
L 882 20
L 882 20
L 882 20
L 882 20
L 883 20
L 883 20
L 883 20
L 883 20
L 883 20
L 883 20
L 883 20
L 883 20
L 883 20
L 883 20
L 883 20
L 883 20
L 883 20
L 883 19
L 883 19
L 883 19
L 883 19
L 883 19
L 883 19
L 883 19
L 883 19
L 884 19
L 884 19
L 884 19
L 884 19
L 884 19
L 885 19
L 885 19
L 885 19
L 885 19
L 886 19
L 886 19
L 886 19
L 886 19
L 886 18
L 886 18
L 886 18
L 886 18
L 886 18
L 887 18
L 887 18
L 887 18
L 887 18
L 887 18
L 887 18
L 888 18
L 889 18
L 892 18
L 892 18
L 892 18
L 892 18
L 892 18
L 892 18
L 893 18
L 893 18
L 893 18
L 893 17
L 893 17
L 893 17
L 893 17
L 893 17
L 893 17
L 894 17
L 894 17
L 894 17
L 894 17
L 894 17
L 894 17
L 895 17
L 895 17
L 895 17
L 895 17
L 895 17
L 895 17
L 895 17
L 895 17
L 895 17
L 895 17
L 895 16
L 896 16
L 896 16
L 896 16
L 896 16
L 897 16
L 897 16
L 897 16
L 897 16
L 897 16
L 898 16
L 898 16
L 898 16
L 898 16
L 898 16
L 898 16
L 899 16
L 899 16
L 899 16
L 899 16
L 899 16
L 899 16
L 900 15
L 903 15
L 903 15
L 904 15
L 904 15
L 904 15
L 904 15
L 904 15
L 905 15
L 905 15
L 906 15
L 906 15
L 906 15
L 907 15
L 907 15
L 907 15
L 908 15
L 909 15
L 910 15
L 910 15
L 910 15
L 911 14
L 913 14
L 913 14
L 916 14
L 916 14
L 917 14
L 918 14
L 918 14
L 918 14
L 920 14
L 920 14
L 920 14
L 921 14
L 921 14
L 921 14
L 922 14
L 922 14
L 922 14
L 922 14
L 922 14
L 922 14
L 922 14
L 922 13
L 922 13
L 923 13
L 923 13
L 924 13
L 927 13
L 928 13
L 928 13
L 929 13
L 929 13
L 929 13
L 929 13
L 930 13
L 931 13
L 931 13
L 932 13
L 932 13
L 932 13
L 932 13
L 932 13
L 933 13
L 933 13
L 933 12
L 933 12
L 934 12
L 934 12
L 934 12
L 935 12
L 935 12
L 937 12
L 939 12
L 939 12
L 940 12
L 941 12
L 941 12
L 942 12
L 942 12
L 943 12
L 943 12
L 943 12
L 943 12
L 944 12
L 945 12
L 945 12
L 946 11
L 947 11
L 947 11
L 947 11
L 947 11
L 947 11
L 948 11
L 951 11
L 952 11
L 952 11
L 952 11
L 953 11
L 954 11
L 954 11
L 955 11
L 957 11
L 957 11
L 957 11
L 957 11
L 957 11
L 957 11" style="stroke-width:2;stroke:rgba(129,199,239,1.0);fill:none"/></svg>