<svg xmlns="http://www.w3.org/2000/svg" xmlns:xlink="http://www.w3.org/1999/xlink" width="1024" height="400">\n<path  d="M 0 0
L 1024 0
L 1024 400
L 0 400
L 0 0" style="stroke-width:0;stroke:rgba(255,255,255,1.0);fill:rgba(255,255,255,1.0)"/><path  d="M 38 11
L 957 11
L 957 351
L 38 351
L 38 11" style="stroke-width:0;stroke:rgba(255,255,255,1.0);fill:rgba(255,255,255,1.0)"/><path  d="M 38 351
L 957 351" style="stroke-width:2;stroke:rgba(85,85,85,1.0);fill:none"/><path  d="M 38 351
L 38 356" style="stroke-width:2;stroke:rgba(85,85,85,1.0);fill:none"/><text x="5" y="373" style="stroke-width:0;stroke:none;fill:rgba(51,51,51,1.0);font-size:12.8px;font-family:'Roboto Medium',sans-serif">2018-11-23</text><path  d="M 153 351
L 153 356" style="stroke-width:2;stroke:rgba(85,85,85,1.0);fill:none"/><text x="120" y="373" style="stroke-width:0;stroke:none;fill:rgba(51,51,51,1.0);font-size:12.8px;font-family:'Roboto Medium',sans-serif">2018-12-01</text><path  d="M 268 351
L 268 356" style="stroke-width:2;stroke:rgba(85,85,85,1.0);fill:none"/><text x="235" y="373" style="stroke-width:0;stroke:none;fill:rgba(51,51,51,1.0);font-size:12.8px;font-family:'Roboto Medium',sans-serif">2018-12-10</text><path  d="M 383 351
L 383 356" style="stroke-width:2;stroke:rgba(85,85,85,1.0);fill:none"/><text x="350" y="373" style="stroke-width:0;stroke:none;fill:rgba(51,51,51,1.0);font-size:12.8px;font-family:'Roboto Medium',sans-serif">2018-12-19</text><path  d="M 498 351
L 498 356" style="stroke-width:2;stroke:rgba(85,85,85,1.0);fill:none"/><text x="465" y="373" style="stroke-width:0;stroke:none;fill:rgba(51,51,51,1.0);font-size:12.8px;font-family:'Roboto Medium',sans-serif">2018-12-28</text><path  d="M 613 351
L 613 356" style="stroke-width:2;stroke:rgba(85,85,85,1.0);fill:none"/><text x="580" y="373" style="stroke-width:0;stroke:none;fill:rgba(51,51,51,1.0);font-size:12.8px;font-family:'Roboto Medium',sans-serif">2019-01-05</text><path  d="M 728 351
L 728 356" style="stroke-width:2;stroke:rgba(85,85,85,1.0);fill:none"/><text x="695" y="373" style="stroke-width:0;stroke:none;fill:rgba(51,51,51,1.0);font-size:12.8px;font-family:'Roboto Medium',sans-serif">2019-01-14</text><path  d="M 843 351
L 843 356" style="stroke-width:2;stroke:rgba(85,85,85,1.0);fill:none"/><text x="810" y="373" style="stroke-width:0;stroke:none;fill:rgba(51,51,51,1.0);font-size:12.8px;font-family:'Roboto Medium',sans-serif">2019-01-23</text><path  d="M 957 351
L 957 356" style="stroke-width:2;stroke:rgba(85,85,85,1.0);fill:none"/><text x="924" y="373" style="stroke-width:0;stroke:none;fill:rgba(51,51,51,1.0);font-size:12.8px;font-family:'Roboto Medium',sans-serif">2019-02-01</text><text x="483" y="395" style="stroke-width:0;stroke:none;fill:rgba(51,51,51,1.0);font-size:12.8px;font-family:'Roboto Medium',sans-serif">Time</text><path  d="M 959 351
L 959 11" style="stroke-width:2;stroke:rgba(85,85,85,1.0);fill:none"/><path  d="M 959 351
L 964 351" style="stroke-width:2;stroke:rgba(85,85,85,1.0);fill:none"/><text x="969" y="357" style="stroke-width:0;stroke:none;fill:rgba(51,51,51,1.0);font-size:12.8px;font-family:'Roboto Medium',sans-serif">0</text><path  d="M 959 308
L 964 308" style="stroke-width:2;stroke:rgba(85,85,85,1.0);fill:none"/><text x="969" y="314" style="stroke-width:0;stroke:none;fill:rgba(51,51,51,1.0);font-size:12.8px;font-family:'Roboto Medium',sans-serif">880</text><path  d="M 959 266
L 964 266" style="stroke-width:2;stroke:rgba(85,85,85,1.0);fill:none"/><text x="969" y="272" style="stroke-width:0;stroke:none;fill:rgba(51,51,51,1.0);font-size:12.8px;font-family:'Roboto Medium',sans-serif">1750</text><path  d="M 959 223
L 964 223" style="stroke-width:2;stroke:rgba(85,85,85,1.0);fill:none"/><text x="969" y="229" style="stroke-width:0;stroke:none;fill:rgba(51,51,51,1.0);font-size:12.8px;font-family:'Roboto Medium',sans-serif">2630</text><path  d="M 959 181
L 964 181" style="stroke-width:2;stroke:rgba(85,85,85,1.0);fill:none"/><text x="969" y="187" style="stroke-width:0;stroke:none;fill:rgba(51,51,51,1.0);font-size:12.8px;font-family:'Roboto Medium',sans-serif">3500</text><path  d="M 959 138
L 964 138" style="stroke-width:2;stroke:rgba(85,85,85,1.0);fill:none"/><text x="969" y="144" style="stroke-width:0;stroke:none;fill:rgba(51,51,51,1.0);font-size:12.8px;font-family:'Roboto Medium',sans-serif">4380</text><path  d="M 959 96
L 964 96" style="stroke-width:2;stroke:rgba(85,85,85,1.0);fill:none"/><text x="969" y="102" style="stroke-width:0;stroke:none;fill:rgba(51,51,51,1.0);font-size:12.8px;font-family:'Roboto Medium',sans-serif">5250</text><path  d="M 959 53
L 964 53" style="stroke-width:2;stroke:rgba(85,85,85,1.0);fill:none"/><text x="969" y="59" style="stroke-width:0;stroke:none;fill:rgba(51,51,51,1.0);font-size:12.8px;font-family:'Roboto Medium',sans-serif">6130</text><path  d="M 959 11
L 964 11" style="stroke-width:2;stroke:rgba(85,85,85,1.0);fill:none"/><text x="969" y="17" style="stroke-width:0;stroke:none;fill:rgba(51,51,51,1.0);font-size:12.8px;font-family:'Roboto Medium',sans-serif">7000</text><text x="1009" y="150" style="stroke-width:0;stroke:none;fill:rgba(51,51,51,1.0);font-size:12.8px;font-family:'Roboto Medium',sans-serif" transform="rotate(90.00,1009,150)">Stargazers</text><path  d="M 38 351
L 107 350
L 156 350
L 158 350
L 168 350
L 168 350
L 168 350
L 169 350
L 169 350
L 170 350
L 170 350
L 170 350
L 170 350
L 170 350
L 170 350
L 171 350
L 171 350
L 171 350
L 171 350
L 171 350
L 171 350
L 172 349
L 173 349
L 174 349
L 182 349
L 182 349
L 182 349
L 182 349
L 183 349
L 184 349
L 186 349
L 186 349
L 188 349
L 188 349
L 188 349
L 188 349
L 188 349
L 188 349
L 192 349
L 193 349
L 194 349
L 194 349
L 194 348
L 195 348
L 195 348
L 195 348
L 195 348
L 195 348
L 196 348
L 196 348
L 197 348
L 198 348
L 198 348
L 198 348
L 198 348
L 199 348
L 199 348
L 199 348
L 200 348
L 200 348
L 200 348
L 200 348
L 201 347
L 201 347
L 202 347
L 202 347
L 202 347
L 202 347
L 203 347
L 206 347
L 208 347
L 208 347
L 208 347
L 208 347
L 208 347
L 208 347
L 208 347
L 209 347
L 209 347
L 209 347
L 209 347
L 209 347
L 210 347
L 210 346
L 210 346
L 210 346
L 210 346
L 210 346
L 210 346
L 210 346
L 210 346
L 210 346
L 210 346
L 210 346
L 210 346
L 210 346
L 210 346
L 210 346
L 210 346
L 210 346
L 210 346
L 210 346
L 210 346
L 210 345
L 210 345
L 210 345
L 210 345
L 210 345
L 210 345
L 210 345
L 210 345
L 210 345
L 210 345
L 210 345
L 210 345
L 210 345
L 210 345
L 210 345
L 210 345
L 210 345
L 211 345
L 211 345
L 211 345
L 211 345
L 211 344
L 211 344
L 211 344
L 211 344
L 211 344
L 211 344
L 211 344
L 211 344
L 211 344
L 212 344
L 212 344
L 212 344
L 212 344
L 212 344
L 212 344
L 212 344
L 212 344
L 213 344
L 213 344
L 213 344
L 213 344
L 213 343
L 213 343
L 213 343
L 213 343
L 213 343
L 214 343
L 214 343
L 214 343
L 216 343
L 216 343
L 220 343
L 221 343
L 221 343
L 221 343
L 221 343
L 221 343
L 221 343
L 222 343
L 222 343
L 223 343
L 223 342
L 223 342
L 223 342
L 223 342
L 224 342
L 224 342
L 224 342
L 224 342
L 225 342
L 225 342
L 225 342
L 225 342
L 225 342
L 225 342
L 226 342
L 234 342
L 234 342
L 234 342
L 234 342
L 235 342
L 236 342
L 237 341
L 238 341
L 241 341
L 242 341
L 242 341
L 244 341
L 248 341
L 248 341
L 250 341
L 250 341
L 251 341
L 252 341
L 252 341
L 252 341
L 252 341
L 252 341
L 253 341
L 253 341
L 253 341
L 253 341
L 256 340
L 260 340
L 260 340
L 260 340
L 261 340
L 261 340
L 261 340
L 263 340
L 264 340
L 264 340
L 267 340
L 268 340
L 273 340
L 276 340
L 276 340
L 276 340
L 276 340
L 279 340
L 279 340
L 286 340
L 287 340
L 287 339
L 287 339
L 287 339
L 289 339
L 289 339
L 291 339
L 292 339
L 292 339
L 294 339
L 295 339
L 300 339
L 305 339
L 306 339
L 311 339
L 314 339
L 314 339
L 315 339
L 315 339
L 316 339
L 316 339
L 318 339
L 319 338
L 319 338
L 320 338
L 320 338
L 322 338
L 324 338
L 326 338
L 328 338
L 329 338
L 329 338
L 329 338
L 330 338
L 331 338
L 331 338
L 332 338
L 333 338
L 333 338
L 334 338
L 339 338
L 339 338
L 339 337
L 340 337
L 342 337
L 344 337
L 345 337
L 345 337
L 346 337
L 351 337
L 352 337
L 352 337
L 353 337
L 353 337
L 353 337
L 356 337
L 356 337
L 358 337
L 359 337
L 365 337
L 366 337
L 368 337
L 368 337
L 370 336
L 370 336
L 370 336
L 371 336
L 372 336
L 373 336
L 374 336
L 378 336
L 379 336
L 380 336
L 381 336
L 381 336
L 381 336
L 381 336
L 382 336
L 384 336
L 391 336
L 391 336
L 392 336
L 392 336
L 394 335
L 394 335
L 395 335
L 396 335
L 396 335
L 398 335
L 398 335
L 398 335
L 399 335
L 399 335
L 400 335
L 405 335
L 406 335
L 406 335
L 406 335
L 406 335
L 406 335
L 406 335
L 406 335
L 406 335
L 406 335
L 407 334
L 407 334
L 408 334
L 408 334
L 408 334
L 408 334
L 408 334
L 408 334
L 408 334
L 408 334
L 408 334
L 408 334
L 408 334
L 408 334
L 408 334
L 408 334
L 408 334
L 408 334
L 408 334
L 408 334
L 408 334
L 409 333
L 409 333
L 409 333
L 409 333
L 409 333
L 409 333
L 409 333
L 409 333
L 409 333
L 409 333
L 409 333
L 409 333
L 409 333
L 409 333
L 409 333
L 409 333
L 409 333
L 409 333
L 409 333
L 409 333
L 409 332
L 409 332
L 410 332
L 410 332
L 410 332
L 410 332
L 410 332
L 410 332
L 410 332
L 410 332
L 410 332
L 410 332
L 410 332
L 411 332
L 411 332
L 411 332
L 411 332
L 411 332
L 411 332
L 411 332
L 411 332
L 411 331
L 412 331
L 412 331
L 412 331
L 412 331
L 412 331
L 412 331
L 413 331
L 413 331
L 413 331
L 413 331
L 418 331
L 418 331
L 418 331
L 418 331
L 418 331
L 418 331
L 419 331
L 419 331
L 419 331
L 419 330
L 419 330
L 419 330
L 419 330
L 419 330
L 419 330
L 419 330
L 419 330
L 419 330
L 419 330
L 420 330
L 420 330
L 420 330
L 420 330
L 420 330
L 420 330
L 420 330
L 420 330
L 420 330
L 420 330
L 421 330
L 421 329
L 421 329
L 421 329
L 421 329
L 421 329
L 421 329
L 421 329
L 421 329
L 421 329
L 421 329
L 421 329
L 421 329
L 422 329
L 422 329
L 422 329
L 422 329
L 422 329
L 422 329
L 422 329
L 422 329
L 422 328
L 422 328
L 422 328
L 422 328
L 422 328
L 422 328
L 422 328
L 422 328
L 422 328
L 422 328
L 422 328
L 422 328
L 422 328
L 422 328
L 422 328
L 423 328
L 423 328
L 423 328
L 423 328
L 423 328
L 423 328
L 423 327
L 424 327
L 424 327
L 424 327
L 424 327
L 424 327
L 424 327
L 424 327
L 424 327
L 424 327
L 424 327
L 424 327
L 424 327
L 424 327
L 424 327
L 424 327
L 424 327
L 424 327
L 424 327
L 425 327
L 425 327
L 425 326
L 425 326
L 425 326
L 425 326
L 425 326
L 425 326
L 425 326
L 425 326
L 425 326
L 425 326
L 425 326
L 425 326
L 425 326
L 425 326
L 426 326
L 426 326
L 426 326
L 426 326
L 426 326
L 426 326
L 426 325
L 426 325
L 426 325
L 426 325
L 426 325
L 426 325
L 426 325
L 426 325
L 426 325
L 426 325
L 427 325
L 427 325
L 427 325
L 428 325
L 428 325
L 430 325
L 430 325
L 430 325
L 431 325
L 431 325
L 431 325
L 431 324
L 431 324
L 431 324
L 431 324
L 431 324
L 431 324
L 431 324
L 431 324
L 431 324
L 431 324
L 431 324
L 432 324
L 432 324
L 432 324
L 432 324
L 432 324
L 432 324
L 432 324
L 432 324
L 432 324
L 432 323
L 432 323
L 432 323
L 432 323
L 432 323
L 432 323
L 432 323
L 432 323
L 433 323
L 433 323
L 433 323
L 433 323
L 433 323
L 433 323
L 433 323
L 433 323
L 433 323
L 433 323
L 433 323
L 433 323
L 433 323
L 433 322
L 433 322
L 433 322
L 434 322
L 434 322
L 434 322
L 434 322
L 434 322
L 434 322
L 434 322
L 434 322
L 434 322
L 434 322
L 434 322
L 434 322
L 434 322
L 434 322
L 434 322
L 434 322
L 434 322
L 434 322
L 434 321
L 434 321
L 434 321
L 435 321
L 435 321
L 435 321
L 435 321
L 435 321
L 435 321
L 435 321
L 435 321
L 435 321
L 435 321
L 435 321
L 435 321
L 435 321
L 435 321
L 435 321
L 435 321
L 436 321
L 436 320
L 436 320
L 436 320
L 436 320
L 436 320
L 436 320
L 436 320
L 436 320
L 436 320
L 436 320
L 436 320
L 437 320
L 437 320
L 437 320
L 437 320
L 437 320
L 437 320
L 437 320
L 437 320
L 437 320
L 437 320
L 437 319
L 437 319
L 437 319
L 437 319
L 437 319
L 437 319
L 437 319
L 437 319
L 437 319
L 437 319
L 437 319
L 437 319
L 437 319
L 438 319
L 438 319
L 438 319
L 438 319
L 438 319
L 438 319
L 438 319
L 438 318
L 438 318
L 438 318
L 438 318
L 438 318
L 438 318
L 438 318
L 438 318
L 438 318
L 438 318
L 438 318
L 438 318
L 438 318
L 438 318
L 438 318
L 439 318
L 439 318
L 439 318
L 439 318
L 439 318
L 439 318
L 439 317
L 439 317
L 439 317
L 439 317
L 439 317
L 439 317
L 439 317
L 439 317
L 439 317
L 439 317
L 439 317
L 439 317
L 440 317
L 440 317
L 440 317
L 440 317
L 440 317
L 441 317
L 441 317
L 441 317
L 442 317
L 443 316
L 443 316
L 443 316
L 444 316
L 444 316
L 444 316
L 444 316
L 444 316
L 444 316
L 444 316
L 444 316
L 444 316
L 444 316
L 444 316
L 444 316
L 444 316
L 444 316
L 444 316
L 444 316
L 444 316
L 444 315
L 444 315
L 444 315
L 444 315
L 444 315
L 444 315
L 444 315
L 444 315
L 444 315
L 444 315
L 444 315
L 444 315
L 444 315
L 444 315
L 444 315
L 444 315
L 444 315
L 444 315
L 444 315
L 444 315
L 444 315
L 444 314
L 444 314
L 444 314
L 444 314
L 444 314
L 444 314
L 444 314
L 444 314
L 444 314
L 444 314
L 444 314
L 444 314
L 444 314
L 444 314
L 444 314
L 444 314
L 444 314
L 444 314
L 444 314
L 444 314
L 444 313
L 444 313
L 444 313
L 444 313
L 445 313
L 445 313
L 445 313
L 445 313
L 445 313
L 445 313
L 445 313
L 445 313
L 445 313
L 445 313
L 445 313
L 445 313
L 445 313
L 445 313
L 445 313
L 445 313
L 445 313
L 445 312
L 445 312
L 445 312
L 445 312
L 445 312
L 445 312
L 445 312
L 445 312
L 445 312
L 445 312
L 445 312
L 445 312
L 445 312
L 445 312
L 445 312
L 445 312
L 445 312
L 445 312
L 445 312
L 445 312
L 445 311
L 445 311
L 445 311
L 445 311
L 445 311
L 445 311
L 445 311
L 445 311
L 445 311
L 445 311
L 445 311
L 445 311
L 445 311
L 445 311
L 445 311
L 445 311
L 445 311
L 445 311
L 445 311
L 445 311
L 445 311
L 445 310
L 445 310
L 445 310
L 445 310
L 445 310
L 445 310
L 445 310
L 445 310
L 445 310
L 445 310
L 446 310
L 446 310
L 446 310
L 446 310
L 446 310
L 446 310
L 446 310
L 446 310
L 446 310
L 446 310
L 446 310
L 446 309
L 446 309
L 446 309
L 446 309
L 446 309
L 446 309
L 446 309
L 446 309
L 446 309
L 446 309
L 446 309
L 446 309
L 446 309
L 446 309
L 446 309
L 446 309
L 446 309
L 446 309
L 446 309
L 447 309
L 447 308
L 447 308
L 447 308
L 447 308
L 447 308
L 447 308
L 447 308
L 447 308
L 447 308
L 447 308
L 447 308
L 447 308
L 447 308
L 447 308
L 447 308
L 447 308
L 447 308
L 447 308
L 447 308
L 447 308
L 447 308
L 447 307
L 447 307
L 447 307
L 447 307
L 447 307
L 447 307
L 447 307
L 447 307
L 447 307
L 447 307
L 447 307
L 447 307
L 447 307
L 447 307
L 447 307
L 447 307
L 447 307
L 447 307
L 447 307
L 447 307
L 447 306
L 447 306
L 447 306
L 447 306
L 447 306
L 447 306
L 447 306
L 447 306
L 447 306
L 447 306
L 447 306
L 447 306
L 447 306
L 447 306
L 447 306
L 447 306
L 447 306
L 447 306
L 447 306
L 447 306
L 447 306
L 447 305
L 447 305
L 447 305
L 447 305
L 447 305
L 447 305
L 447 305
L 447 305
L 447 305
L 447 305
L 447 305
L 447 305
L 448 305
L 448 305
L 448 305
L 448 305
L 448 305
L 448 305
L 448 305
L 448 305
L 448 305
L 448 304
L 448 304
L 448 304
L 448 304
L 448 304
L 448 304
L 448 304
L 448 304
L 448 304
L 448 304
L 448 304
L 448 304
L 448 304
L 448 304
L 448 304
L 448 304
L 448 304
L 448 304
L 448 304
L 448 304
L 448 303
L 448 303
L 448 303
L 448 303
L 448 303
L 448 303
L 448 303
L 448 303
L 448 303
L 448 303
L 448 303
L 448 303
L 448 303
L 448 303
L 448 303
L 448 303
L 448 303
L 448 303
L 448 303
L 449 303
L 449 303
L 449 302
L 449 302
L 449 302
L 449 302
L 449 302
L 449 302
L 449 302
L 449 302
L 449 302
L 449 302
L 449 302
L 449 302
L 449 302
L 449 302
L 449 302
L 449 302
L 449 302
L 449 302
L 449 302
L 449 302
L 449 301
L 449 301
L 449 301
L 449 301
L 449 301
L 449 301
L 449 301
L 449 301
L 449 301
L 449 301
L 449 301
L 449 301
L 449 301
L 449 301
L 449 301
L 449 301
L 449 301
L 449 301
L 449 301
L 449 301
L 449 301
L 449 300
L 449 300
L 449 300
L 449 300
L 449 300
L 450 300
L 450 300
L 450 300
L 450 300
L 450 300
L 450 300
L 450 300
L 450 300
L 450 300
L 450 300
L 450 300
L 450 300
L 450 300
L 450 300
L 450 300
L 450 300
L 450 299
L 450 299
L 450 299
L 450 299
L 450 299
L 450 299
L 450 299
L 450 299
L 450 299
L 451 299
L 451 299
L 451 299
L 451 299
L 451 299
L 451 299
L 451 299
L 451 299
L 451 299
L 451 299
L 451 299
L 451 298
L 451 298
L 451 298
L 451 298
L 452 298
L 452 298
L 452 298
L 452 298
L 452 298
L 452 298
L 452 298
L 452 298
L 452 298
L 452 298
L 452 298
L 452 298
L 452 298
L 452 298
L 452 298
L 452 298
L 452 298
L 452 297
L 452 297
L 452 297
L 452 297
L 452 297
L 452 297
L 453 297
L 453 297
L 453 297
L 453 297
L 453 297
L 453 297
L 453 297
L 455 297
L 456 297
L 457 297
L 457 297
L 457 297
L 457 297
L 457 297
L 457 296
L 457 296
L 457 296
L 457 296
L 457 296
L 457 296
L 457 296
L 457 296
L 457 296
L 457 296
L 457 296
L 457 296
L 457 296
L 457 296
L 457 296
L 457 296
L 457 296
L 457 296
L 457 296
L 457 296
L 457 296
L 457 295
L 457 295
L 457 295
L 457 295
L 458 295
L 458 295
L 458 295
L 458 295
L 458 295
L 458 295
L 458 295
L 458 295
L 458 295
L 458 295
L 458 295
L 458 295
L 458 295
L 458 295
L 458 295
L 458 295
L 458 294
L 458 294
L 458 294
L 458 294
L 458 294
L 458 294
L 458 294
L 458 294
L 458 294
L 458 294
L 458 294
L 458 294
L 458 294
L 458 294
L 458 294
L 458 294
L 458 294
L 458 294
L 458 294
L 458 294
L 458 294
L 458 293
L 458 293
L 458 293
L 458 293
L 458 293
L 458 293
L 458 293
L 458 293
L 458 293
L 458 293
L 458 293
L 458 293
L 458 293
L 458 293
L 458 293
L 458 293
L 458 293
L 458 293
L 458 293
L 458 293
L 458 293
L 458 292
L 458 292
L 458 292
L 458 292
L 458 292
L 458 292
L 458 292
L 458 292
L 458 292
L 458 292
L 458 292
L 458 292
L 458 292
L 458 292
L 458 292
L 458 292
L 458 292
L 458 292
L 458 292
L 458 292
L 458 291
L 458 291
L 458 291
L 458 291
L 458 291
L 458 291
L 458 291
L 458 291
L 458 291
L 458 291
L 458 291
L 458 291
L 458 291
L 458 291
L 458 291
L 458 291
L 458 291
L 458 291
L 458 291
L 458 291
L 458 291
L 458 290
L 458 290
L 459 290
L 459 290
L 459 290
L 459 290
L 459 290
L 459 290
L 459 290
L 459 290
L 459 290
L 459 290
L 459 290
L 459 290
L 459 290
L 459 290
L 459 290
L 459 290
L 459 290
L 459 290
L 459 289
L 459 289
L 459 289
L 459 289
L 459 289
L 459 289
L 459 289
L 459 289
L 459 289
L 459 289
L 460 289
L 460 289
L 460 289
L 460 289
L 460 289
L 460 289
L 460 289
L 460 289
L 460 289
L 460 289
L 460 289
L 460 288
L 460 288
L 460 288
L 460 288
L 460 288
L 460 288
L 460 288
L 460 288
L 460 288
L 460 288
L 460 288
L 460 288
L 460 288
L 460 288
L 460 288
L 460 288
L 460 288
L 460 288
L 460 288
L 460 288
L 460 288
L 460 287
L 460 287
L 460 287
L 460 287
L 460 287
L 460 287
L 460 287
L 460 287
L 460 287
L 460 287
L 460 287
L 460 287
L 460 287
L 460 287
L 460 287
L 460 287
L 460 287
L 460 287
L 460 287
L 460 287
L 460 286
L 461 286
L 461 286
L 461 286
L 461 286
L 461 286
L 461 286
L 461 286
L 461 286
L 461 286
L 461 286
L 461 286
L 461 286
L 461 286
L 461 286
L 461 286
L 461 286
L 461 286
L 461 286
L 461 286
L 461 286
L 461 285
L 461 285
L 461 285
L 461 285
L 461 285
L 461 285
L 461 285
L 461 285
L 461 285
L 461 285
L 461 285
L 461 285
L 461 285
L 461 285
L 461 285
L 461 285
L 461 285
L 461 285
L 461 285
L 461 285
L 461 284
L 461 284
L 461 284
L 461 284
L 461 284
L 461 284
L 461 284
L 461 284
L 461 284
L 461 284
L 462 284
L 462 284
L 462 284
L 462 284
L 462 284
L 462 284
L 462 284
L 462 284
L 462 284
L 462 284
L 462 284
L 462 283
L 462 283
L 462 283
L 462 283
L 462 283
L 462 283
L 462 283
L 462 283
L 462 283
L 462 283
L 462 283
L 462 283
L 462 283
L 462 283
L 462 283
L 462 283
L 462 283
L 462 283
L 462 283
L 462 283
L 462 283
L 462 282
L 462 282
L 462 282
L 462 282
L 462 282
L 462 282
L 462 282
L 462 282
L 462 282
L 462 282
L 462 282
L 462 282
L 462 282
L 462 282
L 462 282
L 462 282
L 462 282
L 462 282
L 462 282
L 462 282
L 462 281
L 462 281
L 462 281
L 462 281
L 463 281
L 463 281
L 463 281
L 463 281
L 463 281
L 463 281
L 463 281
L 463 281
L 463 281
L 463 281
L 463 281
L 463 281
L 463 281
L 463 281
L 463 281
L 463 281
L 463 281
L 463 280
L 463 280
L 463 280
L 463 280
L 463 280
L 463 280
L 463 280
L 463 280
L 463 280
L 463 280
L 463 280
L 463 280
L 463 280
L 463 280
L 463 280
L 463 280
L 463 280
L 463 280
L 463 280
L 463 280
L 463 279
L 463 279
L 463 279
L 463 279
L 463 279
L 463 279
L 463 279
L 463 279
L 464 279
L 464 279
L 464 279
L 464 279
L 464 279
L 464 279
L 464 279
L 464 279
L 464 279
L 464 279
L 464 279
L 464 279
L 464 279
L 464 278
L 464 278
L 464 278
L 464 278
L 464 278
L 464 278
L 464 278
L 464 278
L 464 278
L 464 278
L 464 278
L 464 278
L 464 278
L 464 278
L 464 278
L 464 278
L 464 278
L 464 278
L 464 278
L 464 278
L 464 277
L 464 277
L 464 277
L 464 277
L 464 277
L 465 277
L 465 277
L 465 277
L 465 277
L 465 277
L 465 277
L 465 277
L 465 277
L 465 277
L 465 277
L 465 277
L 465 277
L 465 277
L 465 277
L 465 277
L 465 277
L 465 276
L 465 276
L 465 276
L 465 276
L 465 276
L 465 276
L 466 276
L 466 276
L 466 276
L 466 276
L 466 276
L 466 276
L 466 276
L 466 276
L 466 276
L 466 276
L 466 276
L 466 276
L 467 276
L 467 276
L 467 276
L 467 275
L 468 275
L 468 275
L 470 275
L 470 275
L 470 275
L 470 275
L 470 275
L 470 275
L 470 275
L 470 275
L 470 275
L 470 275
L 470 275
L 470 275
L 470 275
L 470 275
L 470 275
L 470 275
L 470 275
L 470 274
L 470 274
L 470 274
L 470 274
L 470 274
L 470 274
L 470 274
L 470 274
L 470 274
L 470 274
L 470 274
L 470 274
L 471 274
L 471 274
L 471 274
L 471 274
L 471 274
L 471 274
L 471 274
L 471 274
L 471 274
L 471 273
L 471 273
L 471 273
L 471 273
L 471 273
L 471 273
L 471 273
L 471 273
L 471 273
L 471 273
L 471 273
L 471 273
L 471 273
L 471 273
L 471 273
L 471 273
L 471 273
L 471 273
L 471 273
L 471 273
L 471 272
L 471 272
L 471 272
L 471 272
L 471 272
L 471 272
L 471 272
L 471 272
L 471 272
L 471 272
L 471 272
L 471 272
L 471 272
L 471 272
L 471 272
L 471 272
L 471 272
L 471 272
L 471 272
L 471 272
L 471 272
L 471 271
L 471 271
L 471 271
L 471 271
L 471 271
L 471 271
L 471 271
L 471 271
L 471 271
L 471 271
L 471 271
L 471 271
L 471 271
L 471 271
L 471 271
L 471 271
L 471 271
L 471 271
L 471 271
L 471 271
L 471 271
L 471 270
L 471 270
L 471 270
L 471 270
L 471 270
L 471 270
L 471 270
L 472 270
L 472 270
L 472 270
L 472 270
L 472 270
L 472 270
L 472 270
L 472 270
L 472 270
L 472 270
L 472 270
L 472 270
L 472 270
L 472 269
L 472 269
L 472 269
L 472 269
L 472 269
L 472 269
L 472 269
L 472 269
L 472 269
L 472 269
L 472 269
L 472 269
L 472 269
L 472 269
L 472 269
L 472 269
L 472 269
L 472 269
L 472 269
L 473 269
L 473 269
L 473 268
L 473 268
L 473 268
L 473 268
L 473 268
L 473 268
L 473 268
L 473 268
L 473 268
L 473 268
L 473 268
L 473 268
L 473 268
L 473 268
L 473 268
L 473 268
L 473 268
L 473 268
L 473 268
L 473 268
L 473 267
L 473 267
L 473 267
L 473 267
L 473 267
L 473 267
L 473 267
L 473 267
L 473 267
L 473 267
L 473 267
L 473 267
L 473 267
L 473 267
L 473 267
L 473 267
L 474 267
L 474 267
L 474 267
L 474 267
L 474 267
L 474 266
L 474 266
L 474 266
L 474 266
L 474 266
L 474 266
L 474 266
L 474 266
L 474 266
L 474 266
L 474 266
L 474 266
L 474 266
L 474 266
L 474 266
L 474 266
L 474 266
L 474 266
L 474 266
L 474 266
L 474 266
L 474 265
L 474 265
L 474 265
L 474 265
L 474 265
L 474 265
L 474 265
L 474 265
L 474 265
L 474 265
L 474 265
L 474 265
L 474 265
L 474 265
L 474 265
L 474 265
L 474 265
L 474 265
L 474 265
L 475 265
L 475 264
L 475 264
L 475 264
L 475 264
L 475 264
L 475 264
L 475 264
L 475 264
L 475 264
L 475 264
L 475 264
L 475 264
L 475 264
L 475 264
L 475 264
L 475 264
L 475 264
L 475 264
L 475 264
L 475 264
L 475 264
L 475 263
L 475 263
L 475 263
L 475 263
L 475 263
L 475 263
L 475 263
L 475 263
L 475 263
L 475 263
L 475 263
L 475 263
L 475 263
L 475 263
L 475 263
L 475 263
L 475 263
L 475 263
L 475 263
L 475 263
L 475 262
L 475 262
L 475 262
L 475 262
L 475 262
L 475 262
L 475 262
L 475 262
L 475 262
L 475 262
L 476 262
L 476 262
L 476 262
L 476 262
L 476 262
L 476 262
L 476 262
L 476 262
L 476 262
L 476 262
L 476 262
L 476 261
L 476 261
L 476 261
L 476 261
L 476 261
L 476 261
L 476 261
L 476 261
L 476 261
L 476 261
L 476 261
L 476 261
L 476 261
L 476 261
L 477 261
L 477 261
L 477 261
L 477 261
L 477 261
L 477 261
L 477 260
L 477 260
L 477 260
L 477 260
L 477 260
L 477 260
L 477 260
L 477 260
L 477 260
L 477 260
L 477 260
L 477 260
L 477 260
L 477 260
L 477 260
L 477 260
L 477 260
L 478 260
L 478 260
L 478 260
L 478 260
L 478 259
L 478 259
L 478 259
L 478 259
L 478 259
L 478 259
L 478 259
L 478 259
L 478 259
L 478 259
L 478 259
L 478 259
L 478 259
L 478 259
L 478 259
L 478 259
L 479 259
L 479 259
L 479 259
L 479 259
L 479 259
L 479 258
L 479 258
L 479 258
L 479 258
L 479 258
L 480 258
L 480 258
L 483 258
L 483 258
L 483 258
L 483 258
L 483 258
L 483 258
L 483 258
L 483 258
L 483 258
L 483 258
L 483 258
L 483 258
L 483 258
L 484 257
L 484 257
L 484 257
L 484 257
L 484 257
L 484 257
L 484 257
L 484 257
L 484 257
L 484 257
L 484 257
L 484 257
L 484 257
L 484 257
L 484 257
L 484 257
L 484 257
L 484 257
L 484 257
L 484 257
L 484 257
L 484 256
L 484 256
L 484 256
L 484 256
L 484 256
L 484 256
L 484 256
L 484 256
L 484 256
L 484 256
L 484 256
L 484 256
L 484 256
L 484 256
L 484 256
L 484 256
L 484 256
L 484 256
L 484 256
L 484 256
L 484 255
L 484 255
L 484 255
L 484 255
L 484 255
L 484 255
L 484 255
L 484 255
L 484 255
L 484 255
L 484 255
L 484 255
L 484 255
L 484 255
L 485 255
L 485 255
L 485 255
L 485 255
L 485 255
L 485 255
L 485 255
L 485 254
L 485 254
L 485 254
L 485 254
L 485 254
L 485 254
L 485 254
L 485 254
L 485 254
L 485 254
L 485 254
L 485 254
L 485 254
L 485 254
L 485 254
L 485 254
L 485 254
L 485 254
L 485 254
L 486 254
L 486 254
L 486 253
L 486 253
L 486 253
L 486 253
L 486 253
L 486 253
L 486 253
L 486 253
L 486 253
L 486 253
L 486 253
L 486 253
L 486 253
L 486 253
L 486 253
L 486 253
L 486 253
L 486 253
L 486 253
L 487 253
L 487 252
L 487 252
L 487 252
L 487 252
L 487 252
L 487 252
L 487 252
L 487 252
L 487 252
L 487 252
L 487 252
L 487 252
L 487 252
L 487 252
L 487 252
L 487 252
L 487 252
L 487 252
L 487 252
L 487 252
L 487 252
L 487 251
L 487 251
L 487 251
L 487 251
L 487 251
L 487 251
L 487 251
L 487 251
L 487 251
L 487 251
L 488 251
L 488 251
L 488 251
L 488 251
L 488 251
L 488 251
L 488 251
L 488 251
L 488 251
L 488 251
L 488 250
L 488 250
L 488 250
L 488 250
L 488 250
L 488 250
L 488 250
L 488 250
L 488 250
L 488 250
L 488 250
L 488 250
L 488 250
L 488 250
L 488 250
L 488 250
L 488 250
L 488 250
L 488 250
L 488 250
L 488 250
L 488 249
L 488 249
L 488 249
L 488 249
L 488 249
L 488 249
L 488 249
L 488 249
L 488 249
L 488 249
L 489 249
L 489 249
L 489 249
L 489 249
L 489 249
L 489 249
L 489 249
L 489 249
L 489 249
L 489 249
L 489 249
L 489 248
L 489 248
L 489 248
L 489 248
L 490 248
L 490 248
L 490 248
L 490 248
L 490 248
L 490 248
L 490 248
L 490 248
L 490 248
L 490 248
L 490 248
L 490 248
L 490 248
L 490 248
L 490 248
L 490 248
L 490 247
L 490 247
L 490 247
L 490 247
L 491 247
L 491 247
L 491 247
L 491 247
L 491 247
L 491 247
L 491 247
L 491 247
L 491 247
L 491 247
L 491 247
L 491 247
L 492 247
L 492 247
L 492 247
L 492 247
L 492 247
L 492 246
L 492 246
L 493 246
L 493 246
L 493 246
L 493 246
L 493 246
L 494 246
L 496 246
L 496 246
L 497 246
L 497 246
L 497 246
L 497 246
L 497 246
L 497 246
L 497 246
L 497 246
L 497 246
L 497 246
L 497 245
L 497 245
L 497 245
L 497 245
L 497 245
L 497 245
L 497 245
L 497 245
L 497 245
L 497 245
L 497 245
L 497 245
L 497 245
L 497 245
L 497 245
L 497 245
L 497 245
L 497 245
L 497 245
L 497 245
L 497 245
L 497 244
L 497 244
L 497 244
L 497 244
L 497 244
L 497 244
L 497 244
L 497 244
L 497 244
L 497 244
L 497 244
L 497 244
L 497 244
L 497 244
L 497 244
L 497 244
L 498 244
L 498 244
L 498 244
L 498 244
L 498 243
L 498 243
L 498 243
L 498 243
L 498 243
L 498 243
L 498 243
L 498 243
L 498 243
L 498 243
L 498 243
L 498 243
L 498 243
L 498 243
L 498 243
L 498 243
L 498 243
L 498 243
L 498 243
L 498 243
L 498 243
L 498 242
L 498 242
L 498 242
L 498 242
L 498 242
L 498 242
L 498 242
L 498 242
L 498 242
L 498 242
L 498 242
L 499 242
L 499 242
L 499 242
L 499 242
L 499 242
L 499 242
L 499 242
L 499 242
L 499 242
L 499 242
L 499 241
L 499 241
L 499 241
L 499 241
L 499 241
L 499 241
L 499 241
L 499 241
L 499 241
L 499 241
L 499 241
L 499 241
L 499 241
L 499 241
L 499 241
L 500 241
L 500 241
L 500 241
L 500 241
L 500 241
L 500 240
L 500 240
L 500 240
L 500 240
L 500 240
L 500 240
L 500 240
L 500 240
L 500 240
L 500 240
L 500 240
L 500 240
L 500 240
L 500 240
L 500 240
L 500 240
L 500 240
L 500 240
L 500 240
L 500 240
L 500 240
L 500 239
L 500 239
L 500 239
L 500 239
L 500 239
L 500 239
L 500 239
L 500 239
L 500 239
L 500 239
L 500 239
L 500 239
L 500 239
L 500 239
L 500 239
L 500 239
L 500 239
L 500 239
L 500 239
L 500 239
L 500 238
L 500 238
L 500 238
L 500 238
L 500 238
L 501 238
L 501 238
L 501 238
L 501 238
L 501 238
L 501 238
L 501 238
L 501 238
L 501 238
L 501 238
L 501 238
L 501 238
L 501 238
L 501 238
L 501 238
L 501 238
L 501 237
L 501 237
L 501 237
L 501 237
L 501 237
L 501 237
L 501 237
L 501 237
L 501 237
L 501 237
L 501 237
L 501 237
L 501 237
L 501 237
L 501 237
L 501 237
L 501 237
L 501 237
L 501 237
L 501 237
L 501 237
L 501 236
L 501 236
L 501 236
L 501 236
L 501 236
L 501 236
L 502 236
L 502 236
L 502 236
L 502 236
L 502 236
L 502 236
L 502 236
L 502 236
L 502 236
L 502 236
L 502 236
L 502 236
L 502 236
L 502 236
L 502 235
L 502 235
L 502 235
L 502 235
L 502 235
L 502 235
L 502 235
L 503 235
L 503 235
L 503 235
L 503 235
L 503 235
L 503 235
L 503 235
L 503 235
L 503 235
L 503 235
L 503 235
L 503 235
L 503 235
L 503 235
L 504 234
L 504 234
L 504 234
L 504 234
L 504 234
L 504 234
L 504 234
L 504 234
L 504 234
L 504 234
L 504 234
L 504 234
L 504 234
L 504 234
L 504 234
L 504 234
L 504 234
L 504 234
L 504 234
L 505 234
L 505 233
L 505 233
L 505 233
L 505 233
L 505 233
L 505 233
L 505 233
L 505 233
L 505 233
L 505 233
L 505 233
L 506 233
L 507 233
L 507 233
L 507 233
L 508 233
L 509 233
L 509 233
L 509 233
L 509 233
L 510 233
L 510 232
L 510 232
L 510 232
L 510 232
L 510 232
L 510 232
L 510 232
L 510 232
L 510 232
L 510 232
L 510 232
L 510 232
L 510 232
L 510 232
L 510 232
L 510 232
L 510 232
L 510 232
L 510 232
L 510 232
L 510 232
L 510 231
L 510 231
L 510 231
L 510 231
L 510 231
L 510 231
L 510 231
L 510 231
L 510 231
L 510 231
L 510 231
L 510 231
L 510 231
L 510 231
L 511 231
L 511 231
L 511 231
L 511 231
L 511 231
L 511 231
L 511 230
L 511 230
L 511 230
L 511 230
L 511 230
L 511 230
L 511 230
L 511 230
L 511 230
L 511 230
L 511 230
L 511 230
L 511 230
L 511 230
L 511 230
L 511 230
L 511 230
L 511 230
L 511 230
L 511 230
L 511 230
L 511 229
L 511 229
L 511 229
L 511 229
L 511 229
L 511 229
L 511 229
L 511 229
L 511 229
L 511 229
L 511 229
L 511 229
L 511 229
L 511 229
L 511 229
L 511 229
L 511 229
L 511 229
L 511 229
L 511 229
L 511 228
L 511 228
L 511 228
L 511 228
L 511 228
L 511 228
L 511 228
L 511 228
L 511 228
L 511 228
L 511 228
L 511 228
L 511 228
L 511 228
L 511 228
L 511 228
L 512 228
L 512 228
L 512 228
L 512 228
L 512 228
L 512 227
L 512 227
L 512 227
L 512 227
L 512 227
L 512 227
L 512 227
L 512 227
L 512 227
L 512 227
L 512 227
L 512 227
L 512 227
L 512 227
L 512 227
L 512 227
L 512 227
L 512 227
L 512 227
L 513 227
L 513 226
L 513 226
L 513 226
L 513 226
L 513 226
L 513 226
L 513 226
L 513 226
L 513 226
L 513 226
L 513 226
L 513 226
L 513 226
L 513 226
L 513 226
L 513 226
L 513 226
L 513 226
L 513 226
L 513 226
L 513 226
L 513 225
L 513 225
L 513 225
L 513 225
L 513 225
L 513 225
L 513 225
L 513 225
L 513 225
L 513 225
L 513 225
L 513 225
L 513 225
L 513 225
L 513 225
L 513 225
L 513 225
L 513 225
L 513 225
L 513 225
L 513 225
L 513 224
L 513 224
L 513 224
L 513 224
L 514 224
L 514 224
L 514 224
L 514 224
L 514 224
L 514 224
L 514 224
L 514 224
L 514 224
L 514 224
L 514 224
L 514 224
L 514 224
L 514 224
L 514 224
L 514 224
L 514 223
L 514 223
L 514 223
L 514 223
L 514 223
L 514 223
L 514 223
L 514 223
L 514 223
L 514 223
L 514 223
L 514 223
L 514 223
L 514 223
L 514 223
L 514 223
L 514 223
L 514 223
L 514 223
L 514 223
L 514 223
L 514 222
L 514 222
L 514 222
L 514 222
L 514 222
L 514 222
L 514 222
L 514 222
L 515 222
L 515 222
L 515 222
L 515 222
L 515 222
L 515 222
L 515 222
L 515 222
L 515 222
L 515 222
L 515 222
L 515 222
L 515 221
L 515 221
L 515 221
L 515 221
L 515 221
L 515 221
L 515 221
L 515 221
L 515 221
L 515 221
L 516 221
L 516 221
L 516 221
L 516 221
L 516 221
L 516 221
L 516 221
L 516 221
L 516 221
L 516 221
L 516 221
L 516 220
L 516 220
L 517 220
L 517 220
L 517 220
L 517 220
L 517 220
L 517 220
L 517 220
L 517 220
L 517 220
L 517 220
L 517 220
L 517 220
L 518 220
L 518 220
L 518 220
L 518 220
L 518 220
L 518 220
L 518 220
L 518 219
L 518 219
L 518 219
L 519 219
L 519 219
L 519 219
L 519 219
L 521 219
L 521 219
L 522 219
L 522 219
L 522 219
L 523 219
L 523 219
L 523 219
L 523 219
L 523 219
L 523 219
L 523 219
L 523 219
L 524 218
L 524 218
L 524 218
L 524 218
L 524 218
L 524 218
L 524 218
L 524 218
L 524 218
L 524 218
L 524 218
L 524 218
L 524 218
L 524 218
L 525 218
L 525 218
L 525 218
L 525 218
L 525 218
L 525 218
L 525 218
L 525 217
L 525 217
L 525 217
L 526 217
L 526 217
L 526 217
L 526 217
L 526 217
L 527 217
L 527 217
L 527 217
L 527 217
L 527 217
L 527 217
L 527 217
L 527 217
L 527 217
L 527 217
L 527 217
L 528 217
L 528 216
L 528 216
L 528 216
L 529 216
L 529 216
L 529 216
L 529 216
L 529 216
L 529 216
L 529 216
L 529 216
L 529 216
L 530 216
L 530 216
L 530 216
L 530 216
L 530 216
L 530 216
L 530 216
L 530 216
L 531 216
L 531 215
L 531 215
L 531 215
L 531 215
L 531 215
L 531 215
L 531 215
L 532 215
L 532 215
L 532 215
L 533 215
L 533 215
L 534 215
L 534 215
L 534 215
L 534 215
L 535 215
L 535 215
L 535 215
L 536 215
L 536 215
L 536 214
L 536 214
L 537 214
L 537 214
L 537 214
L 537 214
L 537 214
L 537 214
L 537 214
L 537 214
L 538 214
L 538 214
L 538 214
L 538 214
L 538 214
L 538 214
L 538 214
L 539 214
L 539 214
L 539 214
L 539 213
L 539 213
L 539 213
L 539 213
L 540 213
L 540 213
L 540 213
L 540 213
L 540 213
L 540 213
L 541 213
L 541 213
L 541 213
L 541 213
L 541 213
L 542 213
L 542 213
L 542 213
L 542 213
L 542 213
L 542 213
L 543 212
L 543 212
L 543 212
L 543 212
L 543 212
L 543 212
L 543 212
L 543 212
L 544 212
L 544 212
L 544 212
L 544 212
L 544 212
L 544 212
L 544 212
L 544 212
L 544 212
L 544 212
L 545 212
L 545 212
L 545 211
L 545 211
L 546 211
L 546 211
L 546 211
L 547 211
L 548 211
L 549 211
L 549 211
L 549 211
L 549 211
L 550 211
L 550 211
L 550 211
L 550 211
L 550 211
L 550 211
L 550 211
L 551 211
L 551 211
L 551 211
L 551 210
L 551 210
L 551 210
L 552 210
L 552 210
L 552 210
L 552 210
L 552 210
L 552 210
L 552 210
L 552 210
L 552 210
L 552 210
L 552 210
L 553 210
L 553 210
L 553 210
L 553 210
L 553 210
L 553 210
L 554 209
L 554 209
L 554 209
L 554 209
L 554 209
L 554 209
L 554 209
L 554 209
L 554 209
L 554 209
L 554 209
L 555 209
L 555 209
L 555 209
L 555 209
L 555 209
L 555 209
L 555 209
L 555 209
L 555 209
L 555 209
L 555 208
L 555 208
L 555 208
L 555 208
L 556 208
L 556 208
L 556 208
L 556 208
L 556 208
L 556 208
L 556 208
L 556 208
L 556 208
L 557 208
L 557 208
L 557 208
L 557 208
L 557 208
L 557 208
L 557 208
L 557 208
L 557 207
L 558 207
L 558 207
L 558 207
L 558 207
L 559 207
L 559 207
L 562 207
L 562 207
L 562 207
L 562 207
L 563 207
L 563 207
L 563 207
L 563 207
L 563 207
L 563 207
L 563 207
L 563 207
L 563 207
L 563 206
L 563 206
L 563 206
L 563 206
L 563 206
L 563 206
L 563 206
L 563 206
L 563 206
L 563 206
L 563 206
L 563 206
L 563 206
L 563 206
L 563 206
L 563 206
L 563 206
L 563 206
L 563 206
L 563 206
L 563 206
L 563 205
L 563 205
L 563 205
L 563 205
L 563 205
L 563 205
L 563 205
L 563 205
L 563 205
L 563 205
L 563 205
L 563 205
L 563 205
L 563 205
L 563 205
L 563 205
L 563 205
L 564 205
L 564 205
L 564 205
L 564 204
L 564 204
L 564 204
L 564 204
L 564 204
L 564 204
L 564 204
L 564 204
L 564 204
L 564 204
L 564 204
L 564 204
L 564 204
L 564 204
L 564 204
L 564 204
L 564 204
L 564 204
L 564 204
L 564 204
L 565 204
L 565 203
L 565 203
L 565 203
L 565 203
L 565 203
L 565 203
L 565 203
L 565 203
L 565 203
L 565 203
L 565 203
L 565 203
L 565 203
L 565 203
L 565 203
L 565 203
L 565 203
L 565 203
L 565 203
L 565 203
L 565 203
L 565 202
L 565 202
L 565 202
L 565 202
L 565 202
L 565 202
L 565 202
L 565 202
L 565 202
L 565 202
L 565 202
L 566 202
L 566 202
L 566 202
L 566 202
L 566 202
L 566 202
L 566 202
L 566 202
L 566 202
L 566 201
L 566 201
L 566 201
L 566 201
L 566 201
L 566 201
L 566 201
L 566 201
L 566 201
L 566 201
L 566 201
L 566 201
L 566 201
L 566 201
L 566 201
L 566 201
L 566 201
L 566 201
L 566 201
L 567 201
L 567 201
L 567 200
L 567 200
L 567 200
L 567 200
L 567 200
L 567 200
L 567 200
L 567 200
L 567 200
L 567 200
L 567 200
L 567 200
L 567 200
L 567 200
L 567 200
L 567 200
L 567 200
L 567 200
L 568 200
L 568 200
L 568 199
L 568 199
L 568 199
L 568 199
L 568 199
L 568 199
L 568 199
L 568 199
L 568 199
L 568 199
L 568 199
L 569 199
L 569 199
L 569 199
L 569 199
L 569 199
L 569 199
L 569 199
L 569 199
L 569 199
L 569 199
L 569 198
L 569 198
L 569 198
L 569 198
L 569 198
L 569 198
L 569 198
L 569 198
L 569 198
L 570 198
L 570 198
L 570 198
L 570 198
L 570 198
L 570 198
L 570 198
L 570 198
L 570 198
L 570 198
L 570 198
L 570 198
L 570 197
L 570 197
L 570 197
L 570 197
L 570 197
L 570 197
L 570 197
L 570 197
L 570 197
L 571 197
L 571 197
L 571 197
L 571 197
L 571 197
L 571 197
L 571 197
L 571 197
L 572 197
L 572 197
L 572 197
L 572 196
L 573 196
L 574 196
L 575 196
L 575 196
L 575 196
L 575 196
L 575 196
L 575 196
L 575 196
L 575 196
L 575 196
L 576 196
L 576 196
L 576 196
L 576 196
L 576 196
L 576 196
L 576 196
L 576 196
L 576 196
L 576 195
L 576 195
L 576 195
L 576 195
L 576 195
L 576 195
L 576 195
L 576 195
L 576 195
L 576 195
L 576 195
L 576 195
L 576 195
L 576 195
L 576 195
L 576 195
L 576 195
L 576 195
L 576 195
L 576 195
L 576 194
L 576 194
L 576 194
L 576 194
L 576 194
L 576 194
L 576 194
L 576 194
L 576 194
L 576 194
L 576 194
L 576 194
L 576 194
L 576 194
L 576 194
L 576 194
L 576 194
L 576 194
L 576 194
L 576 194
L 576 194
L 577 193
L 577 193
L 577 193
L 577 193
L 577 193
L 577 193
L 577 193
L 577 193
L 577 193
L 577 193
L 577 193
L 577 193
L 577 193
L 577 193
L 577 193
L 577 193
L 577 193
L 577 193
L 577 193
L 577 193
L 577 192
L 578 192
L 578 192
L 578 192
L 578 192
L 578 192
L 578 192
L 578 192
L 578 192
L 578 192
L 578 192
L 578 192
L 578 192
L 578 192
L 578 192
L 578 192
L 578 192
L 578 192
L 578 192
L 578 192
L 578 192
L 578 191
L 579 191
L 579 191
L 579 191
L 579 191
L 579 191
L 579 191
L 579 191
L 579 191
L 579 191
L 579 191
L 579 191
L 579 191
L 579 191
L 579 191
L 579 191
L 579 191
L 579 191
L 579 191
L 579 191
L 579 191
L 579 190
L 579 190
L 579 190
L 579 190
L 579 190
L 579 190
L 579 190
L 579 190
L 579 190
L 579 190
L 579 190
L 579 190
L 579 190
L 579 190
L 580 190
L 580 190
L 580 190
L 580 190
L 580 190
L 580 190
L 580 189
L 580 189
L 580 189
L 580 189
L 580 189
L 580 189
L 580 189
L 580 189
L 580 189
L 580 189
L 580 189
L 580 189
L 580 189
L 580 189
L 580 189
L 580 189
L 580 189
L 580 189
L 580 189
L 580 189
L 580 189
L 580 188
L 580 188
L 580 188
L 580 188
L 580 188
L 580 188
L 580 188
L 580 188
L 580 188
L 580 188
L 580 188
L 580 188
L 580 188
L 580 188
L 580 188
L 580 188
L 580 188
L 580 188
L 580 188
L 580 188
L 580 187
L 580 187
L 580 187
L 580 187
L 580 187
L 581 187
L 581 187
L 581 187
L 581 187
L 581 187
L 581 187
L 581 187
L 581 187
L 581 187
L 581 187
L 581 187
L 581 187
L 581 187
L 581 187
L 581 187
L 581 187
L 581 186
L 581 186
L 581 186
L 581 186
L 581 186
L 581 186
L 581 186
L 581 186
L 581 186
L 581 186
L 581 186
L 581 186
L 582 186
L 582 186
L 582 186
L 582 186
L 582 186
L 582 186
L 582 186
L 582 186
L 582 186
L 582 185
L 582 185
L 582 185
L 582 185
L 582 185
L 582 185
L 582 185
L 582 185
L 582 185
L 582 185
L 583 185
L 583 185
L 583 185
L 583 185
L 583 185
L 583 185
L 583 185
L 583 185
L 583 185
L 583 185
L 583 184
L 583 184
L 583 184
L 583 184
L 583 184
L 583 184
L 583 184
L 583 184
L 583 184
L 583 184
L 583 184
L 583 184
L 583 184
L 584 184
L 584 184
L 584 184
L 584 184
L 584 184
L 584 184
L 584 184
L 584 184
L 584 183
L 584 183
L 584 183
L 585 183
L 585 183
L 585 183
L 586 183
L 587 183
L 587 183
L 588 183
L 588 183
L 588 183
L 588 183
L 588 183
L 588 183
L 589 183
L 589 183
L 589 183
L 589 183
L 589 183
L 589 182
L 589 182
L 589 182
L 589 182
L 589 182
L 589 182
L 589 182
L 589 182
L 589 182
L 589 182
L 589 182
L 589 182
L 589 182
L 589 182
L 589 182
L 589 182
L 589 182
L 589 182
L 589 182
L 589 182
L 589 182
L 589 181
L 589 181
L 590 181
L 590 181
L 590 181
L 590 181
L 590 181
L 590 181
L 590 181
L 590 181
L 590 181
L 590 181
L 590 181
L 590 181
L 590 181
L 590 181
L 590 181
L 590 181
L 590 181
L 590 181
L 590 181
L 590 180
L 590 180
L 590 180
L 590 180
L 590 180
L 590 180
L 590 180
L 590 180
L 590 180
L 590 180
L 590 180
L 590 180
L 591 180
L 591 180
L 591 180
L 591 180
L 591 180
L 591 180
L 591 180
L 591 180
L 591 179
L 591 179
L 591 179
L 591 179
L 591 179
L 591 179
L 592 179
L 592 179
L 592 179
L 592 179
L 592 179
L 592 179
L 592 179
L 592 179
L 592 179
L 592 179
L 592 179
L 592 179
L 592 179
L 592 179
L 592 179
L 592 178
L 592 178
L 592 178
L 592 178
L 592 178
L 592 178
L 592 178
L 592 178
L 592 178
L 592 178
L 593 178
L 593 178
L 593 178
L 593 178
L 593 178
L 593 178
L 593 178
L 593 178
L 593 178
L 593 178
L 593 177
L 593 177
L 593 177
L 593 177
L 593 177
L 593 177
L 593 177
L 593 177
L 593 177
L 593 177
L 593 177
L 593 177
L 593 177
L 593 177
L 593 177
L 593 177
L 593 177
L 593 177
L 593 177
L 593 177
L 593 177
L 593 176
L 593 176
L 593 176
L 594 176
L 594 176
L 594 176
L 594 176
L 594 176
L 594 176
L 594 176
L 594 176
L 594 176
L 594 176
L 594 176
L 594 176
L 594 176
L 594 176
L 594 176
L 594 176
L 594 176
L 594 175
L 594 175
L 595 175
L 595 175
L 595 175
L 595 175
L 595 175
L 595 175
L 595 175
L 595 175
L 595 175
L 595 175
L 596 175
L 596 175
L 596 175
L 596 175
L 596 175
L 596 175
L 596 175
L 596 175
L 596 175
L 596 174
L 596 174
L 596 174
L 596 174
L 596 174
L 596 174
L 596 174
L 596 174
L 596 174
L 597 174
L 597 174
L 597 174
L 597 174
L 597 174
L 598 174
L 598 174
L 598 174
L 599 174
L 599 174
L 600 174
L 600 174
L 600 173
L 600 173
L 601 173
L 602 173
L 602 173
L 602 173
L 602 173
L 602 173
L 602 173
L 602 173
L 602 173
L 602 173
L 602 173
L 602 173
L 602 173
L 602 173
L 602 173
L 602 173
L 603 173
L 603 173
L 603 172
L 603 172
L 603 172
L 603 172
L 603 172
L 603 172
L 603 172
L 603 172
L 603 172
L 603 172
L 603 172
L 603 172
L 603 172
L 603 172
L 603 172
L 603 172
L 603 172
L 603 172
L 603 172
L 603 172
L 604 172
L 604 171
L 604 171
L 604 171
L 604 171
L 604 171
L 604 171
L 605 171
L 605 171
L 605 171
L 605 171
L 605 171
L 605 171
L 605 171
L 605 171
L 605 171
L 605 171
L 605 171
L 605 171
L 605 171
L 606 171
L 606 170
L 606 170
L 606 170
L 606 170
L 606 170
L 606 170
L 606 170
L 606 170
L 606 170
L 607 170
L 607 170
L 607 170
L 607 170
L 607 170
L 607 170
L 607 170
L 608 170
L 608 170
L 608 170
L 608 170
L 608 170
L 608 169
L 608 169
L 608 169
L 608 169
L 608 169
L 608 169
L 608 169
L 608 169
L 609 169
L 609 169
L 609 169
L 609 169
L 609 169
L 609 169
L 609 169
L 609 169
L 609 169
L 609 169
L 609 169
L 610 169
L 610 169
L 610 168
L 610 168
L 610 168
L 610 168
L 610 168
L 611 168
L 611 168
L 615 168
L 615 168
L 616 168
L 616 168
L 616 168
L 616 168
L 616 168
L 616 168
L 617 168
L 617 168
L 617 168
L 617 168
L 617 168
L 617 167
L 617 167
L 617 167
L 617 167
L 618 167
L 618 167
L 618 167
L 618 167
L 618 167
L 618 167
L 618 167
L 619 167
L 619 167
L 619 167
L 619 167
L 619 167
L 619 167
L 619 167
L 619 167
L 619 167
L 619 167
L 620 166
L 620 166
L 620 166
L 620 166
L 620 166
L 620 166
L 620 166
L 620 166
L 620 166
L 620 166
L 620 166
L 620 166
L 620 166
L 621 166
L 621 166
L 621 166
L 621 166
L 621 166
L 621 166
L 621 166
L 622 165
L 622 165
L 622 165
L 622 165
L 622 165
L 622 165
L 622 165
L 622 165
L 622 165
L 622 165
L 622 165
L 622 165
L 622 165
L 622 165
L 622 165
L 623 165
L 623 165
L 623 165
L 623 165
L 623 165
L 623 165
L 623 164
L 623 164
L 623 164
L 623 164
L 623 164
L 624 164
L 624 164
L 624 164
L 624 164
L 624 164
L 624 164
L 625 164
L 625 164
L 626 164
L 626 164
L 626 164
L 627 164
L 628 164
L 628 164
L 628 164
L 628 163
L 628 163
L 628 163
L 628 163
L 628 163
L 628 163
L 628 163
L 628 163
L 628 163
L 628 163
L 628 163
L 628 163
L 628 163
L 628 163
L 628 163
L 628 163
L 628 163
L 629 163
L 629 163
L 629 163
L 629 163
L 629 162
L 629 162
L 629 162
L 629 162
L 629 162
L 629 162
L 629 162
L 629 162
L 629 162
L 629 162
L 629 162
L 629 162
L 629 162
L 629 162
L 629 162
L 629 162
L 629 162
L 629 162
L 629 162
L 629 162
L 629 162
L 629 161
L 630 161
L 630 161
L 630 161
L 630 161
L 630 161
L 630 161
L 630 161
L 630 161
L 630 161
L 630 161
L 630 161
L 630 161
L 631 161
L 631 161
L 631 161
L 631 161
L 631 161
L 631 161
L 631 161
L 631 160
L 631 160
L 631 160
L 631 160
L 631 160
L 631 160
L 631 160
L 631 160
L 631 160
L 631 160
L 631 160
L 631 160
L 632 160
L 632 160
L 632 160
L 632 160
L 632 160
L 632 160
L 632 160
L 632 160
L 632 160
L 632 159
L 632 159
L 632 159
L 632 159
L 632 159
L 632 159
L 632 159
L 632 159
L 633 159
L 633 159
L 633 159
L 633 159
L 633 159
L 633 159
L 633 159
L 633 159
L 633 159
L 633 159
L 633 159
L 633 159
L 633 158
L 633 158
L 633 158
L 633 158
L 634 158
L 634 158
L 634 158
L 634 158
L 634 158
L 634 158
L 634 158
L 634 158
L 634 158
L 634 158
L 634 158
L 635 158
L 635 158
L 635 158
L 635 158
L 635 158
L 635 158
L 635 157
L 635 157
L 635 157
L 635 157
L 635 157
L 635 157
L 636 157
L 636 157
L 636 157
L 636 157
L 636 157
L 636 157
L 636 157
L 636 157
L 637 157
L 637 157
L 637 157
L 637 157
L 639 157
L 641 157
L 641 157
L 641 156
L 641 156
L 641 156
L 641 156
L 641 156
L 641 156
L 642 156
L 642 156
L 642 156
L 642 156
L 642 156
L 642 156
L 642 156
L 642 156
L 642 156
L 642 156
L 642 156
L 642 156
L 642 156
L 642 156
L 642 155
L 642 155
L 642 155
L 642 155
L 642 155
L 642 155
L 642 155
L 642 155
L 643 155
L 643 155
L 643 155
L 643 155
L 643 155
L 643 155
L 643 155
L 643 155
L 643 155
L 643 155
L 643 155
L 644 155
L 644 155
L 644 154
L 644 154
L 644 154
L 644 154
L 644 154
L 644 154
L 644 154
L 644 154
L 644 154
L 644 154
L 644 154
L 644 154
L 644 154
L 644 154
L 645 154
L 645 154
L 645 154
L 645 154
L 645 154
L 645 154
L 645 153
L 645 153
L 645 153
L 645 153
L 645 153
L 645 153
L 645 153
L 645 153
L 645 153
L 645 153
L 645 153
L 645 153
L 645 153
L 645 153
L 645 153
L 646 153
L 646 153
L 646 153
L 646 153
L 646 153
L 646 153
L 646 152
L 646 152
L 646 152
L 646 152
L 646 152
L 646 152
L 646 152
L 646 152
L 646 152
L 646 152
L 646 152
L 646 152
L 646 152
L 646 152
L 646 152
L 646 152
L 646 152
L 646 152
L 646 152
L 647 152
L 647 152
L 647 151
L 647 151
L 647 151
L 647 151
L 647 151
L 647 151
L 647 151
L 647 151
L 647 151
L 647 151
L 648 151
L 648 151
L 648 151
L 648 151
L 648 151
L 648 151
L 648 151
L 648 151
L 648 151
L 648 151
L 648 150
L 648 150
L 648 150
L 648 150
L 648 150
L 648 150
L 648 150
L 648 150
L 648 150
L 649 150
L 649 150
L 649 150
L 649 150
L 649 150
L 649 150
L 649 150
L 649 150
L 649 150
L 649 150
L 649 150
L 650 150
L 650 149
L 650 149
L 650 149
L 650 149
L 651 149
L 652 149
L 654 149
L 654 149
L 654 149
L 654 149
L 655 149
L 655 149
L 655 149
L 655 149
L 655 149
L 655 149
L 655 149
L 655 149
L 655 149
L 655 149
L 655 148
L 655 148
L 655 148
L 655 148
L 655 148
L 655 148
L 655 148
L 655 148
L 655 148
L 655 148
L 655 148
L 655 148
L 655 148
L 655 148
L 655 148
L 655 148
L 655 148
L 656 148
L 656 148
L 656 148
L 656 148
L 656 147
L 656 147
L 656 147
L 656 147
L 656 147
L 656 147
L 656 147
L 656 147
L 656 147
L 656 147
L 656 147
L 656 147
L 656 147
L 656 147
L 656 147
L 656 147
L 656 147
L 657 147
L 657 147
L 657 147
L 657 147
L 657 146
L 657 146
L 657 146
L 657 146
L 657 146
L 657 146
L 657 146
L 657 146
L 657 146
L 657 146
L 657 146
L 657 146
L 657 146
L 657 146
L 657 146
L 658 146
L 658 146
L 658 146
L 658 146
L 658 146
L 658 145
L 658 145
L 658 145
L 658 145
L 658 145
L 658 145
L 658 145
L 658 145
L 658 145
L 658 145
L 658 145
L 658 145
L 658 145
L 658 145
L 658 145
L 659 145
L 659 145
L 659 145
L 659 145
L 659 145
L 659 145
L 659 144
L 659 144
L 659 144
L 659 144
L 659 144
L 659 144
L 659 144
L 659 144
L 659 144
L 659 144
L 659 144
L 659 144
L 660 144
L 660 144
L 660 144
L 660 144
L 660 144
L 660 144
L 661 144
L 661 144
L 661 143
L 661 143
L 661 143
L 661 143
L 661 143
L 661 143
L 661 143
L 661 143
L 661 143
L 661 143
L 662 143
L 662 143
L 662 143
L 662 143
L 662 143
L 662 143
L 662 143
L 662 143
L 662 143
L 662 143
L 662 143
L 662 142
L 663 142
L 663 142
L 663 142
L 663 142
L 663 142
L 663 142
L 663 142
L 663 142
L 663 142
L 663 142
L 663 142
L 664 142
L 666 142
L 667 142
L 667 142
L 667 142
L 667 142
L 667 142
L 667 142
L 667 141
L 667 141
L 667 141
L 667 141
L 667 141
L 667 141
L 667 141
L 667 141
L 667 141
L 667 141
L 667 141
L 667 141
L 667 141
L 667 141
L 667 141
L 667 141
L 668 141
L 668 141
L 668 141
L 668 141
L 668 141
L 668 140
L 668 140
L 668 140
L 668 140
L 668 140
L 668 140
L 668 140
L 668 140
L 668 140
L 668 140
L 668 140
L 668 140
L 668 140
L 668 140
L 668 140
L 668 140
L 668 140
L 668 140
L 668 140
L 668 140
L 668 140
L 668 139
L 668 139
L 668 139
L 668 139
L 668 139
L 668 139
L 668 139
L 668 139
L 668 139
L 668 139
L 668 139
L 668 139
L 668 139
L 668 139
L 668 139
L 668 139
L 668 139
L 668 139
L 668 139
L 668 139
L 668 138
L 668 138
L 668 138
L 668 138
L 668 138
L 668 138
L 668 138
L 668 138
L 668 138
L 668 138
L 669 138
L 669 138
L 669 138
L 669 138
L 669 138
L 669 138
L 669 138
L 669 138
L 669 138
L 669 138
L 669 138
L 669 137
L 669 137
L 669 137
L 669 137
L 669 137
L 669 137
L 669 137
L 669 137
L 669 137
L 669 137
L 669 137
L 669 137
L 669 137
L 669 137
L 669 137
L 669 137
L 669 137
L 670 137
L 670 137
L 670 137
L 670 136
L 670 136
L 670 136
L 670 136
L 670 136
L 670 136
L 670 136
L 670 136
L 670 136
L 670 136
L 670 136
L 670 136
L 670 136
L 670 136
L 670 136
L 670 136
L 670 136
L 670 136
L 670 136
L 670 136
L 670 136
L 671 135
L 671 135
L 671 135
L 671 135
L 671 135
L 671 135
L 671 135
L 671 135
L 671 135
L 671 135
L 671 135
L 671 135
L 671 135
L 671 135
L 671 135
L 671 135
L 671 135
L 671 135
L 671 135
L 671 135
L 671 135
L 671 134
L 671 134
L 671 134
L 671 134
L 671 134
L 671 134
L 671 134
L 671 134
L 671 134
L 671 134
L 671 134
L 671 134
L 671 134
L 671 134
L 671 134
L 671 134
L 671 134
L 671 134
L 671 134
L 671 134
L 671 133
L 671 133
L 671 133
L 671 133
L 671 133
L 671 133
L 671 133
L 672 133
L 672 133
L 672 133
L 672 133
L 672 133
L 672 133
L 672 133
L 672 133
L 672 133
L 672 133
L 672 133
L 672 133
L 672 133
L 672 133
L 672 132
L 672 132
L 672 132
L 672 132
L 672 132
L 672 132
L 672 132
L 672 132
L 672 132
L 672 132
L 672 132
L 672 132
L 672 132
L 672 132
L 672 132
L 672 132
L 673 132
L 673 132
L 673 132
L 673 132
L 673 131
L 673 131
L 673 131
L 673 131
L 673 131
L 673 131
L 673 131
L 673 131
L 673 131
L 673 131
L 673 131
L 673 131
L 673 131
L 673 131
L 673 131
L 674 131
L 674 131
L 674 131
L 674 131
L 674 131
L 674 131
L 674 130
L 674 130
L 674 130
L 674 130
L 674 130
L 674 130
L 674 130
L 674 130
L 674 130
L 674 130
L 674 130
L 674 130
L 674 130
L 674 130
L 674 130
L 674 130
L 674 130
L 674 130
L 674 130
L 674 130
L 674 130
L 675 129
L 675 129
L 675 129
L 675 129
L 675 129
L 675 129
L 675 129
L 675 129
L 675 129
L 675 129
L 675 129
L 675 129
L 675 129
L 675 129
L 675 129
L 676 129
L 676 129
L 676 129
L 676 129
L 676 129
L 676 128
L 676 128
L 676 128
L 676 128
L 676 128
L 676 128
L 677 128
L 677 128
L 677 128
L 678 128
L 678 128
L 678 128
L 678 128
L 678 128
L 680 128
L 680 128
L 680 128
L 680 128
L 680 128
L 680 128
L 681 128
L 681 127
L 681 127
L 681 127
L 681 127
L 681 127
L 681 127
L 681 127
L 681 127
L 681 127
L 681 127
L 681 127
L 681 127
L 681 127
L 681 127
L 681 127
L 681 127
L 681 127
L 681 127
L 681 127
L 681 127
L 681 126
L 681 126
L 681 126
L 681 126
L 681 126
L 681 126
L 681 126
L 682 126
L 682 126
L 682 126
L 682 126
L 682 126
L 682 126
L 682 126
L 682 126
L 682 126
L 682 126
L 682 126
L 682 126
L 682 126
L 682 126
L 682 125
L 682 125
L 682 125
L 682 125
L 682 125
L 682 125
L 683 125
L 683 125
L 683 125
L 683 125
L 683 125
L 683 125
L 683 125
L 683 125
L 683 125
L 683 125
L 683 125
L 683 125
L 683 125
L 683 125
L 683 124
L 683 124
L 683 124
L 683 124
L 683 124
L 683 124
L 683 124
L 683 124
L 684 124
L 684 124
L 684 124
L 684 124
L 684 124
L 684 124
L 684 124
L 684 124
L 684 124
L 684 124
L 684 124
L 684 124
L 684 124
L 684 123
L 684 123
L 684 123
L 684 123
L 684 123
L 684 123
L 684 123
L 684 123
L 684 123
L 684 123
L 684 123
L 684 123
L 684 123
L 684 123
L 684 123
L 684 123
L 684 123
L 684 123
L 684 123
L 684 123
L 685 123
L 685 122
L 685 122
L 685 122
L 685 122
L 685 122
L 685 122
L 685 122
L 685 122
L 685 122
L 685 122
L 685 122
L 685 122
L 685 122
L 685 122
L 685 122
L 685 122
L 685 122
L 685 122
L 685 122
L 685 122
L 685 121
L 685 121
L 685 121
L 685 121
L 685 121
L 685 121
L 686 121
L 686 121
L 686 121
L 686 121
L 686 121
L 686 121
L 686 121
L 686 121
L 686 121
L 686 121
L 686 121
L 687 121
L 687 121
L 687 121
L 687 121
L 687 120
L 687 120
L 687 120
L 687 120
L 687 120
L 687 120
L 687 120
L 687 120
L 688 120
L 688 120
L 688 120
L 688 120
L 688 120
L 688 120
L 688 120
L 688 120
L 689 120
L 689 120
L 689 120
L 689 120
L 689 119
L 689 119
L 689 119
L 689 119
L 689 119
L 690 119
L 690 119
L 691 119
L 691 119
L 691 119
L 691 119
L 693 119
L 694 119
L 694 119
L 694 119
L 695 119
L 695 119
L 695 119
L 695 119
L 695 119
L 695 119
L 695 118
L 695 118
L 695 118
L 695 118
L 695 118
L 695 118
L 696 118
L 696 118
L 696 118
L 697 118
L 697 118
L 697 118
L 697 118
L 697 118
L 697 118
L 697 118
L 697 118
L 697 118
L 697 118
L 698 118
L 698 118
L 698 117
L 698 117
L 698 117
L 698 117
L 698 117
L 698 117
L 698 117
L 699 117
L 699 117
L 699 117
L 699 117
L 699 117
L 699 117
L 700 117
L 700 117
L 700 117
L 701 117
L 701 117
L 701 117
L 701 117
L 702 116
L 702 116
L 702 116
L 702 116
L 702 116
L 703 116
L 703 116
L 703 116
L 703 116
L 705 116
L 707 116
L 707 116
L 708 116
L 708 116
L 709 116
L 709 116
L 709 116
L 709 116
L 709 116
L 709 116
L 710 116
L 710 115
L 710 115
L 710 115
L 710 115
L 711 115
L 711 115
L 711 115
L 711 115
L 711 115
L 711 115
L 711 115
L 712 115
L 712 115
L 712 115
L 712 115
L 713 115
L 713 115
L 713 115
L 713 115
L 713 115
L 713 114
L 713 114
L 714 114
L 714 114
L 714 114
L 714 114
L 714 114
L 714 114
L 715 114
L 715 114
L 715 114
L 715 114
L 715 114
L 716 114
L 717 114
L 720 114
L 720 114
L 720 114
L 720 114
L 720 114
L 720 114
L 720 113
L 721 113
L 721 113
L 721 113
L 721 113
L 721 113
L 721 113
L 721 113
L 721 113
L 721 113
L 721 113
L 721 113
L 721 113
L 721 113
L 721 113
L 721 113
L 721 113
L 721 113
L 721 113
L 721 113
L 721 113
L 721 112
L 722 112
L 722 112
L 722 112
L 722 112
L 722 112
L 722 112
L 722 112
L 723 112
L 723 112
L 723 112
L 723 112
L 723 112
L 723 112
L 723 112
L 723 112
L 723 112
L 723 112
L 723 112
L 723 112
L 724 111
L 724 111
L 724 111
L 724 111
L 724 111
L 724 111
L 724 111
L 724 111
L 724 111
L 724 111
L 724 111
L 724 111
L 724 111
L 724 111
L 724 111
L 725 111
L 725 111
L 725 111
L 725 111
L 725 111
L 725 111
L 725 110
L 725 110
L 725 110
L 725 110
L 725 110
L 725 110
L 725 110
L 725 110
L 726 110
L 726 110
L 726 110
L 726 110
L 726 110
L 726 110
L 726 110
L 727 110
L 727 110
L 727 110
L 727 110
L 727 110
L 727 109
L 727 109
L 727 109
L 727 109
L 727 109
L 727 109
L 727 109
L 727 109
L 728 109
L 728 109
L 728 109
L 728 109
L 728 109
L 728 109
L 728 109
L 728 109
L 728 109
L 728 109
L 728 109
L 728 109
L 728 109
L 729 108
L 729 108
L 729 108
L 731 108
L 731 108
L 732 108
L 733 108
L 734 108
L 734 108
L 734 108
L 734 108
L 734 108
L 734 108
L 734 108
L 734 108
L 734 108
L 734 108
L 734 108
L 734 108
L 734 108
L 734 107
L 734 107
L 734 107
L 734 107
L 734 107
L 734 107
L 734 107
L 734 107
L 734 107
L 734 107
L 734 107
L 734 107
L 734 107
L 734 107
L 734 107
L 734 107
L 734 107
L 734 107
L 734 107
L 734 107
L 734 107
L 734 106
L 734 106
L 734 106
L 734 106
L 734 106
L 734 106
L 734 106
L 735 106
L 735 106
L 735 106
L 735 106
L 735 106
L 735 106
L 735 106
L 735 106
L 735 106
L 735 106
L 735 106
L 735 106
L 735 106
L 735 106
L 735 105
L 735 105
L 735 105
L 735 105
L 735 105
L 735 105
L 735 105
L 735 105
L 735 105
L 735 105
L 735 105
L 735 105
L 735 105
L 735 105
L 735 105
L 735 105
L 735 105
L 735 105
L 735 105
L 735 105
L 735 104
L 735 104
L 735 104
L 735 104
L 735 104
L 735 104
L 735 104
L 735 104
L 735 104
L 735 104
L 735 104
L 735 104
L 735 104
L 735 104
L 735 104
L 735 104
L 735 104
L 735 104
L 735 104
L 735 104
L 736 104
L 736 103
L 736 103
L 736 103
L 736 103
L 736 103
L 736 103
L 736 103
L 736 103
L 736 103
L 736 103
L 736 103
L 736 103
L 736 103
L 736 103
L 736 103
L 736 103
L 736 103
L 736 103
L 737 103
L 737 103
L 737 102
L 737 102
L 737 102
L 737 102
L 737 102
L 737 102
L 737 102
L 737 102
L 737 102
L 737 102
L 737 102
L 737 102
L 737 102
L 737 102
L 737 102
L 737 102
L 737 102
L 737 102
L 737 102
L 737 102
L 738 102
L 738 101
L 738 101
L 738 101
L 738 101
L 738 101
L 738 101
L 738 101
L 738 101
L 738 101
L 738 101
L 738 101
L 738 101
L 738 101
L 738 101
L 738 101
L 738 101
L 738 101
L 738 101
L 738 101
L 738 101
L 738 101
L 738 100
L 738 100
L 738 100
L 738 100
L 739 100
L 739 100
L 739 100
L 739 100
L 739 100
L 739 100
L 739 100
L 739 100
L 739 100
L 739 100
L 739 100
L 739 100
L 739 100
L 739 100
L 739 100
L 739 100
L 739 99
L 739 99
L 739 99
L 739 99
L 739 99
L 739 99
L 739 99
L 740 99
L 740 99
L 740 99
L 740 99
L 740 99
L 740 99
L 740 99
L 740 99
L 740 99
L 740 99
L 740 99
L 740 99
L 740 99
L 740 99
L 740 98
L 740 98
L 741 98
L 741 98
L 741 98
L 741 98
L 741 98
L 741 98
L 741 98
L 742 98
L 742 98
L 743 98
L 743 98
L 743 98
L 744 98
L 745 98
L 746 98
L 746 98
L 747 98
L 747 98
L 747 97
L 747 97
L 747 97
L 747 97
L 747 97
L 747 97
L 747 97
L 747 97
L 747 97
L 747 97
L 747 97
L 747 97
L 747 97
L 747 97
L 747 97
L 747 97
L 747 97
L 747 97
L 747 97
L 747 97
L 747 97
L 747 96
L 747 96
L 747 96
L 747 96
L 747 96
L 747 96
L 747 96
L 747 96
L 747 96
L 747 96
L 747 96
L 747 96
L 747 96
L 747 96
L 747 96
L 747 96
L 747 96
L 747 96
L 747 96
L 747 96
L 747 96
L 747 95
L 747 95
L 747 95
L 747 95
L 748 95
L 748 95
L 748 95
L 748 95
L 748 95
L 748 95
L 748 95
L 748 95
L 748 95
L 748 95
L 748 95
L 748 95
L 748 95
L 748 95
L 748 95
L 748 95
L 748 94
L 748 94
L 748 94
L 748 94
L 748 94
L 748 94
L 748 94
L 748 94
L 748 94
L 748 94
L 748 94
L 748 94
L 748 94
L 748 94
L 748 94
L 748 94
L 748 94
L 748 94
L 748 94
L 748 94
L 748 94
L 748 93
L 748 93
L 748 93
L 748 93
L 749 93
L 749 93
L 749 93
L 749 93
L 749 93
L 749 93
L 749 93
L 749 93
L 749 93
L 749 93
L 749 93
L 749 93
L 749 93
L 749 93
L 749 93
L 749 93
L 749 92
L 749 92
L 749 92
L 749 92
L 749 92
L 749 92
L 749 92
L 749 92
L 749 92
L 749 92
L 749 92
L 749 92
L 750 92
L 750 92
L 750 92
L 750 92
L 750 92
L 750 92
L 750 92
L 750 92
L 750 92
L 750 91
L 750 91
L 750 91
L 750 91
L 750 91
L 750 91
L 750 91
L 750 91
L 750 91
L 750 91
L 750 91
L 750 91
L 750 91
L 750 91
L 750 91
L 750 91
L 750 91
L 750 91
L 750 91
L 750 91
L 750 90
L 751 90
L 751 90
L 751 90
L 751 90
L 751 90
L 751 90
L 751 90
L 751 90
L 751 90
L 751 90
L 751 90
L 751 90
L 751 90
L 751 90
L 751 90
L 751 90
L 751 90
L 751 90
L 751 90
L 751 90
L 751 89
L 751 89
L 751 89
L 751 89
L 751 89
L 751 89
L 751 89
L 751 89
L 751 89
L 751 89
L 751 89
L 751 89
L 751 89
L 751 89
L 752 89
L 752 89
L 752 89
L 752 89
L 752 89
L 752 89
L 752 89
L 752 88
L 752 88
L 752 88
L 752 88
L 752 88
L 752 88
L 752 88
L 752 88
L 752 88
L 752 88
L 752 88
L 753 88
L 753 88
L 753 88
L 753 88
L 753 88
L 753 88
L 753 88
L 753 88
L 754 88
L 754 87
L 754 87
L 754 87
L 754 87
L 754 87
L 754 87
L 754 87
L 754 87
L 754 87
L 754 87
L 755 87
L 755 87
L 755 87
L 755 87
L 755 87
L 755 87
L 755 87
L 756 87
L 756 87
L 758 87
L 758 87
L 758 86
L 759 86
L 759 86
L 759 86
L 760 86
L 760 86
L 760 86
L 760 86
L 760 86
L 760 86
L 760 86
L 760 86
L 760 86
L 760 86
L 760 86
L 760 86
L 760 86
L 760 86
L 760 86
L 760 86
L 760 85
L 760 85
L 760 85
L 760 85
L 760 85
L 760 85
L 760 85
L 760 85
L 760 85
L 760 85
L 760 85
L 761 85
L 761 85
L 761 85
L 761 85
L 761 85
L 761 85
L 761 85
L 761 85
L 761 85
L 761 85
L 761 84
L 761 84
L 761 84
L 761 84
L 761 84
L 761 84
L 761 84
L 761 84
L 761 84
L 761 84
L 761 84
L 761 84
L 761 84
L 761 84
L 761 84
L 761 84
L 761 84
L 761 84
L 761 84
L 761 84
L 761 84
L 761 83
L 762 83
L 762 83
L 762 83
L 762 83
L 762 83
L 762 83
L 762 83
L 762 83
L 762 83
L 762 83
L 762 83
L 762 83
L 762 83
L 762 83
L 762 83
L 762 83
L 762 83
L 762 83
L 763 83
L 763 82
L 763 82
L 763 82
L 763 82
L 763 82
L 763 82
L 763 82
L 763 82
L 763 82
L 763 82
L 763 82
L 763 82
L 763 82
L 763 82
L 763 82
L 763 82
L 763 82
L 763 82
L 763 82
L 763 82
L 764 82
L 764 81
L 764 81
L 764 81
L 764 81
L 764 81
L 764 81
L 764 81
L 764 81
L 764 81
L 764 81
L 764 81
L 764 81
L 764 81
L 764 81
L 764 81
L 764 81
L 764 81
L 764 81
L 764 81
L 764 81
L 764 80
L 764 80
L 764 80
L 765 80
L 765 80
L 765 80
L 765 80
L 765 80
L 765 80
L 765 80
L 765 80
L 765 80
L 765 80
L 765 80
L 765 80
L 765 80
L 765 80
L 765 80
L 765 80
L 765 80
L 766 80
L 766 79
L 766 79
L 766 79
L 766 79
L 766 79
L 766 79
L 767 79
L 767 79
L 767 79
L 767 79
L 767 79
L 767 79
L 767 79
L 768 79
L 768 79
L 768 79
L 768 79
L 768 79
L 768 79
L 768 79
L 768 79
L 768 78
L 768 78
L 769 78
L 770 78
L 772 78
L 772 78
L 772 78
L 773 78
L 773 78
L 773 78
L 773 78
L 773 78
L 773 78
L 773 78
L 773 78
L 773 78
L 773 78
L 773 78
L 773 78
L 773 78
L 773 77
L 773 77
L 773 77
L 773 77
L 774 77
L 774 77
L 774 77
L 774 77
L 774 77
L 774 77
L 774 77
L 774 77
L 774 77
L 774 77
L 774 77
L 774 77
L 774 77
L 774 77
L 774 77
L 774 77
L 774 77
L 774 76
L 774 76
L 774 76
L 774 76
L 774 76
L 774 76
L 774 76
L 774 76
L 774 76
L 774 76
L 774 76
L 774 76
L 774 76
L 774 76
L 774 76
L 775 76
L 775 76
L 775 76
L 775 76
L 775 76
L 775 75
L 775 75
L 775 75
L 776 75
L 776 75
L 776 75
L 776 75
L 776 75
L 776 75
L 776 75
L 776 75
L 776 75
L 776 75
L 776 75
L 776 75
L 776 75
L 776 75
L 776 75
L 776 75
L 776 75
L 776 75
L 776 74
L 777 74
L 777 74
L 777 74
L 777 74
L 777 74
L 777 74
L 777 74
L 777 74
L 777 74
L 777 74
L 777 74
L 777 74
L 777 74
L 777 74
L 777 74
L 777 74
L 777 74
L 777 74
L 777 74
L 778 73
L 778 73
L 778 73
L 778 73
L 778 73
L 778 73
L 778 73
L 778 73
L 778 73
L 778 73
L 778 73
L 778 73
L 778 73
L 778 73
L 778 73
L 778 73
L 779 73
L 779 73
L 779 73
L 779 73
L 779 73
L 779 72
L 779 72
L 779 72
L 780 72
L 780 72
L 780 72
L 781 72
L 781 72
L 781 72
L 781 72
L 781 72
L 781 72
L 781 72
L 784 72
L 786 72
L 786 72
L 787 72
L 787 72
L 787 72
L 787 72
L 787 72
L 788 71
L 788 71
L 788 71
L 788 71
L 789 71
L 789 71
L 789 71
L 789 71
L 789 71
L 789 71
L 789 71
L 790 71
L 790 71
L 790 71
L 790 71
L 791 71
L 791 71
L 791 71
L 791 71
L 792 71
L 792 70
L 792 70
L 792 70
L 792 70
L 792 70
L 792 70
L 792 70
L 793 70
L 793 70
L 793 70
L 793 70
L 793 70
L 793 70
L 793 70
L 793 70
L 793 70
L 793 70
L 793 70
L 793 70
L 793 70
L 793 70
L 794 69
L 794 69
L 794 69
L 794 69
L 794 69
L 794 69
L 794 69
L 794 69
L 795 69
L 795 69
L 795 69
L 795 69
L 795 69
L 795 69
L 795 69
L 795 69
L 796 69
L 796 69
L 799 69
L 799 69
L 799 68
L 799 68
L 800 68
L 800 68
L 800 68
L 800 68
L 800 68
L 800 68
L 801 68
L 801 68
L 801 68
L 801 68
L 801 68
L 801 68
L 801 68
L 802 68
L 802 68
L 802 68
L 802 68
L 803 68
L 803 68
L 804 67
L 805 67
L 805 67
L 806 67
L 806 67
L 806 67
L 806 67
L 806 67
L 806 67
L 806 67
L 806 67
L 806 67
L 806 67
L 807 67
L 807 67
L 807 67
L 807 67
L 807 67
L 807 67
L 807 67
L 807 67
L 807 66
L 807 66
L 808 66
L 808 66
L 811 66
L 811 66
L 812 66
L 812 66
L 812 66
L 812 66
L 812 66
L 812 66
L 812 66
L 812 66
L 812 66
L 813 66
L 813 66
L 813 66
L 813 66
L 813 66
L 813 65
L 813 65
L 813 65
L 813 65
L 813 65
L 813 65
L 813 65
L 813 65
L 813 65
L 813 65
L 813 65
L 813 65
L 813 65
L 813 65
L 813 65
L 813 65
L 814 65
L 814 65
L 814 65
L 814 65
L 814 65
L 814 64
L 814 64
L 814 64
L 814 64
L 814 64
L 814 64
L 814 64
L 814 64
L 814 64
L 814 64
L 814 64
L 815 64
L 815 64
L 815 64
L 815 64
L 815 64
L 815 64
L 815 64
L 815 64
L 815 64
L 815 63
L 815 63
L 815 63
L 815 63
L 815 63
L 815 63
L 815 63
L 815 63
L 815 63
L 816 63
L 816 63
L 816 63
L 816 63
L 816 63
L 816 63
L 816 63
L 816 63
L 816 63
L 816 63
L 816 63
L 816 63
L 816 62
L 816 62
L 816 62
L 816 62
L 816 62
L 816 62
L 816 62
L 816 62
L 816 62
L 816 62
L 816 62
L 816 62
L 817 62
L 817 62
L 817 62
L 817 62
L 817 62
L 817 62
L 817 62
L 817 62
L 817 62
L 817 61
L 817 61
L 817 61
L 817 61
L 817 61
L 817 61
L 817 61
L 817 61
L 817 61
L 818 61
L 818 61
L 818 61
L 818 61
L 818 61
L 818 61
L 818 61
L 819 61
L 819 61
L 819 61
L 819 61
L 819 60
L 819 60
L 819 60
L 819 60
L 819 60
L 819 60
L 820 60
L 820 60
L 820 60
L 820 60
L 820 60
L 820 60
L 820 60
L 820 60
L 821 60
L 821 60
L 823 60
L 825 60
L 825 60
L 825 60
L 825 60
L 826 59
L 826 59
L 826 59
L 826 59
L 826 59
L 826 59
L 826 59
L 826 59
L 826 59
L 826 59
L 826 59
L 826 59
L 826 59
L 826 59
L 826 59
L 826 59
L 827 59
L 827 59
L 827 59
L 827 59
L 827 58
L 827 58
L 827 58
L 827 58
L 827 58
L 827 58
L 827 58
L 827 58
L 827 58
L 827 58
L 827 58
L 827 58
L 827 58
L 827 58
L 827 58
L 827 58
L 827 58
L 827 58
L 828 58
L 828 58
L 828 58
L 828 57
L 828 57
L 828 57
L 828 57
L 828 57
L 828 57
L 828 57
L 828 57
L 828 57
L 828 57
L 828 57
L 829 57
L 829 57
L 829 57
L 829 57
L 829 57
L 829 57
L 829 57
L 829 57
L 829 57
L 829 56
L 829 56
L 829 56
L 829 56
L 829 56
L 829 56
L 829 56
L 829 56
L 829 56
L 829 56
L 829 56
L 829 56
L 830 56
L 830 56
L 830 56
L 830 56
L 830 56
L 830 56
L 830 56
L 830 56
L 830 56
L 830 55
L 830 55
L 830 55
L 830 55
L 830 55
L 830 55
L 830 55
L 830 55
L 830 55
L 830 55
L 830 55
L 830 55
L 830 55
L 831 55
L 831 55
L 831 55
L 831 55
L 831 55
L 831 55
L 831 55
L 831 55
L 831 54
L 831 54
L 831 54
L 831 54
L 831 54
L 832 54
L 832 54
L 832 54
L 832 54
L 832 54
L 832 54
L 832 54
L 832 54
L 832 54
L 832 54
L 832 54
L 832 54
L 832 54
L 832 54
L 833 54
L 833 53
L 833 53
L 833 53
L 833 53
L 833 53
L 833 53
L 833 53
L 833 53
L 833 53
L 833 53
L 833 53
L 833 53
L 833 53
L 833 53
L 833 53
L 833 53
L 833 53
L 833 53
L 834 53
L 834 53
L 834 53
L 834 52
L 834 52
L 834 52
L 835 52
L 835 52
L 835 52
L 835 52
L 835 52
L 836 52
L 836 52
L 836 52
L 838 52
L 838 52
L 838 52
L 839 52
L 839 52
L 839 52
L 839 52
L 839 52
L 839 52
L 839 51
L 839 51
L 839 51
L 839 51
L 839 51
L 839 51
L 839 51
L 839 51
L 839 51
L 839 51
L 839 51
L 839 51
L 839 51
L 839 51
L 839 51
L 839 51
L 839 51
L 839 51
L 839 51
L 839 51
L 839 51
L 839 50
L 839 50
L 839 50
L 839 50
L 839 50
L 839 50
L 839 50
L 839 50
L 840 50
L 840 50
L 840 50
L 840 50
L 840 50
L 840 50
L 840 50
L 840 50
L 840 50
L 840 50
L 840 50
L 840 50
L 840 50
L 840 49
L 840 49
L 840 49
L 840 49
L 841 49
L 841 49
L 841 49
L 841 49
L 841 49
L 841 49
L 841 49
L 841 49
L 841 49
L 841 49
L 841 49
L 841 49
L 841 49
L 841 49
L 841 49
L 841 49
L 841 48
L 841 48
L 841 48
L 841 48
L 841 48
L 841 48
L 841 48
L 841 48
L 841 48
L 841 48
L 841 48
L 841 48
L 841 48
L 842 48
L 842 48
L 842 48
L 842 48
L 842 48
L 842 48
L 842 48
L 842 48
L 842 47
L 842 47
L 842 47
L 842 47
L 842 47
L 842 47
L 842 47
L 842 47
L 842 47
L 842 47
L 842 47
L 842 47
L 842 47
L 842 47
L 842 47
L 842 47
L 842 47
L 842 47
L 842 47
L 843 47
L 843 46
L 843 46
L 843 46
L 843 46
L 843 46
L 843 46
L 843 46
L 843 46
L 843 46
L 843 46
L 843 46
L 843 46
L 843 46
L 843 46
L 843 46
L 843 46
L 843 46
L 843 46
L 843 46
L 843 46
L 843 46
L 843 45
L 843 45
L 843 45
L 843 45
L 843 45
L 843 45
L 843 45
L 843 45
L 843 45
L 843 45
L 843 45
L 843 45
L 843 45
L 843 45
L 843 45
L 844 45
L 844 45
L 844 45
L 844 45
L 844 45
L 844 45
L 844 44
L 844 44
L 844 44
L 844 44
L 844 44
L 844 44
L 844 44
L 844 44
L 844 44
L 844 44
L 844 44
L 844 44
L 845 44
L 845 44
L 845 44
L 845 44
L 845 44
L 845 44
L 845 44
L 845 44
L 845 43
L 845 43
L 845 43
L 845 43
L 845 43
L 846 43
L 846 43
L 846 43
L 846 43
L 846 43
L 846 43
L 846 43
L 847 43
L 847 43
L 847 43
L 847 43
L 847 43
L 847 43
L 847 43
L 847 43
L 848 43
L 849 42
L 849 42
L 851 42
L 851 42
L 852 42
L 852 42
L 852 42
L 852 42
L 852 42
L 852 42
L 852 42
L 852 42
L 852 42
L 852 42
L 852 42
L 852 42
L 852 42
L 852 42
L 852 42
L 852 42
L 852 41
L 852 41
L 852 41
L 852 41
L 852 41
L 852 41
L 852 41
L 852 41
L 853 41
L 853 41
L 853 41
L 853 41
L 853 41
L 853 41
L 853 41
L 853 41
L 853 41
L 853 41
L 853 41
L 853 41
L 853 41
L 853 40
L 853 40
L 853 40
L 853 40
L 853 40
L 853 40
L 853 40
L 853 40
L 853 40
L 854 40
L 854 40
L 854 40
L 854 40
L 854 40
L 854 40
L 854 40
L 854 40
L 854 40
L 854 40
L 854 40
L 854 39
L 855 39
L 855 39
L 855 39
L 855 39
L 855 39
L 855 39
L 855 39
L 855 39
L 855 39
L 855 39
L 855 39
L 855 39
L 855 39
L 855 39
L 855 39
L 855 39
L 855 39
L 855 39
L 855 39
L 855 39
L 855 38
L 855 38
L 855 38
L 855 38
L 856 38
L 856 38
L 856 38
L 856 38
L 856 38
L 856 38
L 856 38
L 856 38
L 856 38
L 856 38
L 856 38
L 856 38
L 856 38
L 856 38
L 856 38
L 856 38
L 856 38
L 856 37
L 856 37
L 856 37
L 856 37
L 856 37
L 856 37
L 857 37
L 857 37
L 857 37
L 857 37
L 857 37
L 857 37
L 857 37
L 857 37
L 857 37
L 857 37
L 857 37
L 857 37
L 857 37
L 857 37
L 857 36
L 857 36
L 857 36
L 857 36
L 857 36
L 857 36
L 857 36
L 857 36
L 858 36
L 858 36
L 858 36
L 859 36
L 859 36
L 859 36
L 859 36
L 859 36
L 860 36
L 860 36
L 860 36
L 860 36
L 860 36
L 860 35
L 860 35
L 861 35
L 861 35
L 861 35
L 861 35
L 862 35
L 863 35
L 863 35
L 865 35
L 865 35
L 865 35
L 865 35
L 865 35
L 865 35
L 865 35
L 865 35
L 865 35
L 865 35
L 865 35
L 866 34
L 866 34
L 866 34
L 866 34
L 866 34
L 866 34
L 866 34
L 866 34
L 866 34
L 866 34
L 866 34
L 866 34
L 866 34
L 866 34
L 866 34
L 866 34
L 866 34
L 866 34
L 866 34
L 866 34
L 866 34
L 866 33
L 866 33
L 866 33
L 867 33
L 867 33
L 867 33
L 867 33
L 867 33
L 868 33
L 868 33
L 868 33
L 868 33
L 868 33
L 868 33
L 868 33
L 868 33
L 868 33
L 868 33
L 868 33
L 868 33
L 868 33
L 868 32
L 868 32
L 868 32
L 869 32
L 869 32
L 869 32
L 869 32
L 869 32
L 869 32
L 869 32
L 869 32
L 869 32
L 869 32
L 869 32
L 869 32
L 869 32
L 869 32
L 869 32
L 869 32
L 869 32
L 869 31
L 869 31
L 869 31
L 869 31
L 869 31
L 869 31
L 869 31
L 870 31
L 870 31
L 870 31
L 870 31
L 870 31
L 870 31
L 870 31
L 870 31
L 870 31
L 870 31
L 870 31
L 870 31
L 870 31
L 870 31
L 870 30
L 870 30
L 870 30
L 870 30
L 870 30
L 870 30
L 870 30
L 871 30
L 871 30
L 871 30
L 871 30
L 871 30
L 871 30
L 871 30
L 871 30
L 872 30
L 872 30
L 872 30
L 872 30
L 873 30
L 873 29
L 873 29
L 873 29
L 874 29
L 874 29
L 877 29
L 878 29
L 878 29
L 879 29
L 879 29
L 879 29
L 879 29
L 879 29
L 879 29
L 879 29
L 879 29
L 880 29
L 880 29
L 880 29
L 880 29
L 881 29
L 881 28
L 882 28
L 882 28
L 882 28
L 882 28
L 882 28
L 883 28
L 883 28
L 883 28
L 884 28
L 884 28
L 884 28
L 884 28
L 884 28
L 884 28
L 885 28
L 886 28
L 886 28
L 886 28
L 886 28
L 886 28
L 886 27
L 887 27
L 887 27
L 888 27
L 888 27
L 888 27
L 891 27
L 891 27
L 892 27
L 892 27
L 892 27
L 892 27
L 892 27
L 893 27
L 893 27
L 893 27
L 893 27
L 893 27
L 893 27
L 893 27
L 894 26
L 894 26
L 895 26
L 895 26
L 895 26
L 895 26
L 895 26
L 896 26
L 896 26
L 896 26
L 896 26
L 896 26
L 896 26
L 896 26
L 896 26
L 896 26
L 898 26
L 898 26
L 898 26
L 898 26
L 898 26
L 898 25
L 899 25
L 899 25
L 900 25
L 900 25
L 900 25
L 901 25
L 903 25
L 904 25
L 905 25
L 905 25
L 905 25
L 905 25
L 905 25
L 905 25
L 905 25
L 905 25
L 905 25
L 905 25
L 905 25
L 905 24
L 906 24
L 906 24
L 906 24
L 906 24
L 906 24
L 906 24
L 906 24
L 906 24
L 906 24
L 906 24
L 907 24
L 907 24
L 907 24
L 907 24
L 907 24
L 907 24
L 907 24
L 907 24
L 907 24
L 908 24
L 908 23
L 908 23
L 908 23
L 908 23
L 908 23
L 908 23
L 908 23
L 908 23
L 908 23
L 908 23
L 908 23
L 908 23
L 908 23
L 908 23
L 908 23
L 908 23
L 908 23
L 908 23
L 908 23
L 908 23
L 909 22
L 909 22
L 909 22
L 909 22
L 909 22
L 909 22
L 909 22
L 909 22
L 909 22
L 909 22
L 909 22
L 909 22
L 910 22
L 910 22
L 910 22
L 910 22
L 910 22
L 910 22
L 910 22
L 910 22
L 910 22
L 910 21
L 910 21
L 911 21
L 911 21
L 911 21
L 911 21
L 912 21
L 912 21
L 912 21
L 912 21
L 912 21
L 912 21
L 913 21
L 913 21
L 913 21
L 914 21
L 914 21
L 914 21
L 914 21
L 915 21
L 917 21
L 918 20
L 918 20
L 918 20
L 918 20
L 918 20
L 918 20
L 918 20
L 918 20
L 918 20
L 918 20
L 918 20
L 918 20
L 918 20
L 918 20
L 918 20
L 919 20
L 919 20
L 919 20
L 919 20
L 919 20
L 919 19
L 919 19
L 919 19
L 919 19
L 919 19
L 919 19
L 919 19
L 919 19
L 919 19
L 919 19
L 920 19
L 920 19
L 920 19
L 920 19
L 920 19
L 920 19
L 920 19
L 921 19
L 921 19
L 921 19
L 921 19
L 921 18
L 921 18
L 921 18
L 921 18
L 921 18
L 921 18
L 921 18
L 921 18
L 921 18
L 921 18
L 921 18
L 922 18
L 922 18
L 922 18
L 922 18
L 922 18
L 922 18
L 922 18
L 922 18
L 922 18
L 922 17
L 922 17
L 922 17
L 922 17
L 923 17
L 923 17
L 923 17
L 923 17
L 924 17
L 924 17
L 924 17
L 925 17
L 925 17
L 925 17
L 925 17
L 925 17
L 926 17
L 926 17
L 926 17
L 926 17
L 929 17
L 931 16
L 931 16
L 931 16
L 931 16
L 931 16
L 931 16
L 931 16
L 931 16
L 931 16
L 931 16
L 932 16
L 932 16
L 932 16
L 932 16
L 932 16
L 932 16
L 933 16
L 933 16
L 933 16
L 934 16
L 934 16
L 934 15
L 934 15
L 934 15
L 934 15
L 934 15
L 934 15
L 934 15
L 934 15
L 934 15
L 935 15
L 935 15
L 935 15
L 935 15
L 935 15
L 935 15
L 935 15
L 935 15
L 935 15
L 935 15
L 935 15
L 935 14
L 935 14
L 935 14
L 936 14
L 936 14
L 936 14
L 936 14
L 936 14
L 936 14
L 937 14
L 937 14
L 937 14
L 937 14
L 938 14
L 938 14
L 938 14
L 939 14
L 939 14
L 940 14
L 940 14
L 941 14
L 944 13
L 944 13
L 944 13
L 945 13
L 945 13
L 945 13
L 945 13
L 945 13
L 945 13
L 945 13
L 945 13
L 945 13
L 945 13
L 945 13
L 945 13
L 946 13
L 946 13
L 946 13
L 946 13
L 946 13
L 946 12
L 947 12
L 947 12
L 947 12
L 947 12
L 947 12
L 947 12
L 947 12
L 947 12
L 948 12
L 948 12
L 948 12
L 948 12
L 948 12
L 948 12
L 948 12
L 948 12
L 948 12
L 949 12
L 949 12
L 949 12
L 949 11
L 949 11
L 949 11
L 949 11
L 949 11
L 949 11
L 949 11
L 950 11
L 951 11
L 952 11
L 952 11
L 952 11
L 954 11
L 956 11
L 957 11
L 957 11
L 957 11
L 957 11
L 957 11
L 957 11" style="stroke-width:2;stroke:rgba(129,199,239,1.0);fill:none"/></svg>