<svg xmlns="http://www.w3.org/2000/svg" xmlns:xlink="http://www.w3.org/1999/xlink" width="1024" height="400">\n<path  d="M 0 0
L 1024 0
L 1024 400
L 0 400
L 0 0" style="stroke-width:0;stroke:rgba(255,255,255,1.0);fill:rgba(255,255,255,1.0)"/><path  d="M 38 11
L 957 11
L 957 351
L 38 351
L 38 11" style="stroke-width:0;stroke:rgba(255,255,255,1.0);fill:rgba(255,255,255,1.0)"/><path  d="M 38 351
L 957 351" style="stroke-width:2;stroke:rgba(85,85,85,1.0);fill:none"/><path  d="M 38 351
L 38 356" style="stroke-width:2;stroke:rgba(85,85,85,1.0);fill:none"/><text x="5" y="373" style="stroke-width:0;stroke:none;fill:rgba(51,51,51,1.0);font-size:12.8px;font-family:'Roboto Medium',sans-serif">2018-11-23</text><path  d="M 153 351
L 153 356" style="stroke-width:2;stroke:rgba(85,85,85,1.0);fill:none"/><text x="120" y="373" style="stroke-width:0;stroke:none;fill:rgba(51,51,51,1.0);font-size:12.8px;font-family:'Roboto Medium',sans-serif">2018-11-30</text><path  d="M 268 351
L 268 356" style="stroke-width:2;stroke:rgba(85,85,85,1.0);fill:none"/><text x="235" y="373" style="stroke-width:0;stroke:none;fill:rgba(51,51,51,1.0);font-size:12.8px;font-family:'Roboto Medium',sans-serif">2018-12-07</text><path  d="M 383 351
L 383 356" style="stroke-width:2;stroke:rgba(85,85,85,1.0);fill:none"/><text x="350" y="373" style="stroke-width:0;stroke:none;fill:rgba(51,51,51,1.0);font-size:12.8px;font-family:'Roboto Medium',sans-serif">2018-12-15</text><path  d="M 498 351
L 498 356" style="stroke-width:2;stroke:rgba(85,85,85,1.0);fill:none"/><text x="465" y="373" style="stroke-width:0;stroke:none;fill:rgba(51,51,51,1.0);font-size:12.8px;font-family:'Roboto Medium',sans-serif">2018-12-22</text><path  d="M 613 351
L 613 356" style="stroke-width:2;stroke:rgba(85,85,85,1.0);fill:none"/><text x="580" y="373" style="stroke-width:0;stroke:none;fill:rgba(51,51,51,1.0);font-size:12.8px;font-family:'Roboto Medium',sans-serif">2018-12-30</text><path  d="M 728 351
L 728 356" style="stroke-width:2;stroke:rgba(85,85,85,1.0);fill:none"/><text x="695" y="373" style="stroke-width:0;stroke:none;fill:rgba(51,51,51,1.0);font-size:12.8px;font-family:'Roboto Medium',sans-serif">2019-01-06</text><path  d="M 843 351
L 843 356" style="stroke-width:2;stroke:rgba(85,85,85,1.0);fill:none"/><text x="810" y="373" style="stroke-width:0;stroke:none;fill:rgba(51,51,51,1.0);font-size:12.8px;font-family:'Roboto Medium',sans-serif">2019-01-13</text><path  d="M 957 351
L 957 356" style="stroke-width:2;stroke:rgba(85,85,85,1.0);fill:none"/><text x="924" y="373" style="stroke-width:0;stroke:none;fill:rgba(51,51,51,1.0);font-size:12.8px;font-family:'Roboto Medium',sans-serif">2019-01-21</text><text x="483" y="395" style="stroke-width:0;stroke:none;fill:rgba(51,51,51,1.0);font-size:12.8px;font-family:'Roboto Medium',sans-serif">Time</text><path  d="M 959 351
L 959 11" style="stroke-width:2;stroke:rgba(85,85,85,1.0);fill:none"/><path  d="M 959 351
L 964 351" style="stroke-width:2;stroke:rgba(85,85,85,1.0);fill:none"/><text x="969" y="357" style="stroke-width:0;stroke:none;fill:rgba(51,51,51,1.0);font-size:12.8px;font-family:'Roboto Medium',sans-serif">0</text><path  d="M 959 308
L 964 308" style="stroke-width:2;stroke:rgba(85,85,85,1.0);fill:none"/><text x="969" y="314" style="stroke-width:0;stroke:none;fill:rgba(51,51,51,1.0);font-size:12.8px;font-family:'Roboto Medium',sans-serif">750</text><path  d="M 959 266
L 964 266" style="stroke-width:2;stroke:rgba(85,85,85,1.0);fill:none"/><text x="969" y="272" style="stroke-width:0;stroke:none;fill:rgba(51,51,51,1.0);font-size:12.8px;font-family:'Roboto Medium',sans-serif">1500</text><path  d="M 959 223
L 964 223" style="stroke-width:2;stroke:rgba(85,85,85,1.0);fill:none"/><text x="969" y="229" style="stroke-width:0;stroke:none;fill:rgba(51,51,51,1.0);font-size:12.8px;font-family:'Roboto Medium',sans-serif">2250</text><path  d="M 959 181
L 964 181" style="stroke-width:2;stroke:rgba(85,85,85,1.0);fill:none"/><text x="969" y="187" style="stroke-width:0;stroke:none;fill:rgba(51,51,51,1.0);font-size:12.8px;font-family:'Roboto Medium',sans-serif">3000</text><path  d="M 959 138
L 964 138" style="stroke-width:2;stroke:rgba(85,85,85,1.0);fill:none"/><text x="969" y="144" style="stroke-width:0;stroke:none;fill:rgba(51,51,51,1.0);font-size:12.8px;font-family:'Roboto Medium',sans-serif">3750</text><path  d="M 959 96
L 964 96" style="stroke-width:2;stroke:rgba(85,85,85,1.0);fill:none"/><text x="969" y="102" style="stroke-width:0;stroke:none;fill:rgba(51,51,51,1.0);font-size:12.8px;font-family:'Roboto Medium',sans-serif">4500</text><path  d="M 959 53
L 964 53" style="stroke-width:2;stroke:rgba(85,85,85,1.0);fill:none"/><text x="969" y="59" style="stroke-width:0;stroke:none;fill:rgba(51,51,51,1.0);font-size:12.8px;font-family:'Roboto Medium',sans-serif">5250</text><path  d="M 959 11
L 964 11" style="stroke-width:2;stroke:rgba(85,85,85,1.0);fill:none"/><text x="969" y="17" style="stroke-width:0;stroke:none;fill:rgba(51,51,51,1.0);font-size:12.8px;font-family:'Roboto Medium',sans-serif">6000</text><text x="1009" y="150" style="stroke-width:0;stroke:none;fill:rgba(51,51,51,1.0);font-size:12.8px;font-family:'Roboto Medium',sans-serif" transform="rotate(90.00,1009,150)">Stargazers</text><path  d="M 38 351
L 120 350
L 177 350
L 181 350
L 193 350
L 193 350
L 193 350
L 194 350
L 194 350
L 194 350
L 195 350
L 195 350
L 195 350
L 195 350
L 195 350
L 195 350
L 195 350
L 195 350
L 196 349
L 196 349
L 196 349
L 196 349
L 198 349
L 199 349
L 208 349
L 208 349
L 208 349
L 209 349
L 210 349
L 211 349
L 213 349
L 214 349
L 216 349
L 216 349
L 216 349
L 216 349
L 216 348
L 216 348
L 220 348
L 222 348
L 223 348
L 223 348
L 223 348
L 224 348
L 224 348
L 224 348
L 224 348
L 224 348
L 225 348
L 225 348
L 227 348
L 227 348
L 228 348
L 228 347
L 228 347
L 228 347
L 228 347
L 228 347
L 229 347
L 230 347
L 230 347
L 230 347
L 230 347
L 230 347
L 230 347
L 231 347
L 231 347
L 232 347
L 232 347
L 232 347
L 232 347
L 233 346
L 237 346
L 239 346
L 239 346
L 239 346
L 240 346
L 240 346
L 240 346
L 240 346
L 240 346
L 241 346
L 241 346
L 241 346
L 241 346
L 241 346
L 241 346
L 241 346
L 241 346
L 241 345
L 241 345
L 241 345
L 242 345
L 242 345
L 242 345
L 242 345
L 242 345
L 242 345
L 242 345
L 242 345
L 242 345
L 242 345
L 242 345
L 242 345
L 242 345
L 242 345
L 242 344
L 242 344
L 242 344
L 242 344
L 242 344
L 242 344
L 242 344
L 242 344
L 242 344
L 242 344
L 242 344
L 242 344
L 242 344
L 242 344
L 242 344
L 242 344
L 242 344
L 242 344
L 242 343
L 243 343
L 243 343
L 243 343
L 243 343
L 243 343
L 243 343
L 243 343
L 243 343
L 243 343
L 243 343
L 243 343
L 244 343
L 244 343
L 244 343
L 244 343
L 244 343
L 244 343
L 244 342
L 244 342
L 244 342
L 245 342
L 245 342
L 245 342
L 245 342
L 245 342
L 245 342
L 245 342
L 246 342
L 246 342
L 246 342
L 246 342
L 246 342
L 246 342
L 246 342
L 248 341
L 249 341
L 254 341
L 254 341
L 254 341
L 254 341
L 254 341
L 255 341
L 255 341
L 255 341
L 256 341
L 257 341
L 257 341
L 257 341
L 257 341
L 258 341
L 258 341
L 258 341
L 258 340
L 259 340
L 259 340
L 260 340
L 260 340
L 260 340
L 260 340
L 260 340
L 260 340
L 261 340
L 270 340
L 271 340
L 271 340
L 271 340
L 271 340
L 271 340
L 273 340
L 274 340
L 275 339
L 279 339
L 279 339
L 280 339
L 282 339
L 286 339
L 287 339
L 289 339
L 290 339
L 291 339
L 291 339
L 291 339
L 292 339
L 292 339
L 292 339
L 293 339
L 293 339
L 293 338
L 293 338
L 296 338
L 301 338
L 301 338
L 301 338
L 302 338
L 302 338
L 302 338
L 304 338
L 306 338
L 306 338
L 310 338
L 310 338
L 317 338
L 320 338
L 320 338
L 321 338
L 321 337
L 323 337
L 324 337
L 332 337
L 333 337
L 333 337
L 333 337
L 334 337
L 336 337
L 336 337
L 338 337
L 339 337
L 339 337
L 341 337
L 343 337
L 348 337
L 354 337
L 355 337
L 362 336
L 365 336
L 365 336
L 367 336
L 367 336
L 367 336
L 368 336
L 370 336
L 371 336
L 371 336
L 372 336
L 372 336
L 374 336
L 377 336
L 380 336
L 382 336
L 382 336
L 383 335
L 383 335
L 383 335
L 384 335
L 385 335
L 386 335
L 387 335
L 388 335
L 388 335
L 389 335
L 395 335
L 395 335
L 395 335
L 396 335
L 399 335
L 401 335
L 402 335
L 402 335
L 404 334
L 409 334
L 410 334
L 410 334
L 411 334
L 411 334
L 412 334
L 415 334
L 415 334
L 418 334
L 419 334
L 426 334
L 427 334
L 430 334
L 430 334
L 431 334
L 431 334
L 431 334
L 433 333
L 434 333
L 435 333
L 436 333
L 442 333
L 442 333
L 444 333
L 444 333
L 445 333
L 445 333
L 445 333
L 446 333
L 448 333
L 457 333
L 457 333
L 457 333
L 458 333
L 460 332
L 460 332
L 462 332
L 462 332
L 462 332
L 465 332
L 465 332
L 465 332
L 465 332
L 465 332
L 467 332
L 473 332
L 474 332
L 474 332
L 474 332
L 474 332
L 474 332
L 474 332
L 474 331
L 474 331
L 475 331
L 476 331
L 476 331
L 476 331
L 476 331
L 476 331
L 476 331
L 476 331
L 476 331
L 477 331
L 477 331
L 477 331
L 477 331
L 477 331
L 477 331
L 477 330
L 477 330
L 477 330
L 477 330
L 477 330
L 477 330
L 477 330
L 477 330
L 477 330
L 477 330
L 478 330
L 478 330
L 478 330
L 478 330
L 478 330
L 478 330
L 478 330
L 478 330
L 478 329
L 478 329
L 478 329
L 478 329
L 478 329
L 478 329
L 478 329
L 478 329
L 478 329
L 478 329
L 478 329
L 478 329
L 479 329
L 479 329
L 479 329
L 479 329
L 479 329
L 479 329
L 479 328
L 479 328
L 479 328
L 480 328
L 480 328
L 480 328
L 480 328
L 480 328
L 480 328
L 480 328
L 480 328
L 481 328
L 481 328
L 481 328
L 481 328
L 481 328
L 481 328
L 482 327
L 482 327
L 482 327
L 482 327
L 483 327
L 483 327
L 483 327
L 488 327
L 489 327
L 489 327
L 489 327
L 489 327
L 489 327
L 489 327
L 489 327
L 489 327
L 489 327
L 489 327
L 489 326
L 490 326
L 490 326
L 490 326
L 490 326
L 490 326
L 490 326
L 490 326
L 490 326
L 490 326
L 491 326
L 491 326
L 491 326
L 491 326
L 491 326
L 491 326
L 491 326
L 491 326
L 491 325
L 491 325
L 492 325
L 492 325
L 492 325
L 492 325
L 492 325
L 492 325
L 492 325
L 492 325
L 492 325
L 492 325
L 492 325
L 492 325
L 493 325
L 493 325
L 493 325
L 493 324
L 493 324
L 493 324
L 493 324
L 493 324
L 493 324
L 493 324
L 493 324
L 493 324
L 493 324
L 493 324
L 493 324
L 493 324
L 494 324
L 494 324
L 494 324
L 494 324
L 494 324
L 494 323
L 494 323
L 494 323
L 494 323
L 494 323
L 494 323
L 494 323
L 494 323
L 494 323
L 495 323
L 495 323
L 495 323
L 495 323
L 495 323
L 495 323
L 495 323
L 496 323
L 496 323
L 496 322
L 496 322
L 496 322
L 496 322
L 496 322
L 496 322
L 496 322
L 496 322
L 496 322
L 496 322
L 496 322
L 496 322
L 496 322
L 496 322
L 497 322
L 497 322
L 497 322
L 497 321
L 497 321
L 497 321
L 497 321
L 497 321
L 497 321
L 497 321
L 497 321
L 497 321
L 497 321
L 497 321
L 497 321
L 498 321
L 498 321
L 498 321
L 498 321
L 498 321
L 498 321
L 498 320
L 498 320
L 498 320
L 498 320
L 498 320
L 498 320
L 498 320
L 498 320
L 498 320
L 499 320
L 499 320
L 499 320
L 500 320
L 500 320
L 501 320
L 502 320
L 503 320
L 503 320
L 503 319
L 503 319
L 503 319
L 503 319
L 504 319
L 504 319
L 504 319
L 504 319
L 504 319
L 504 319
L 504 319
L 504 319
L 504 319
L 505 319
L 505 319
L 505 319
L 505 319
L 505 318
L 505 318
L 505 318
L 505 318
L 505 318
L 505 318
L 505 318
L 505 318
L 505 318
L 505 318
L 505 318
L 506 318
L 506 318
L 506 318
L 506 318
L 506 318
L 506 318
L 506 318
L 506 317
L 506 317
L 506 317
L 506 317
L 506 317
L 506 317
L 506 317
L 506 317
L 507 317
L 507 317
L 507 317
L 507 317
L 507 317
L 507 317
L 507 317
L 507 317
L 507 317
L 507 317
L 507 316
L 507 316
L 507 316
L 507 316
L 507 316
L 507 316
L 507 316
L 508 316
L 508 316
L 508 316
L 508 316
L 508 316
L 508 316
L 508 316
L 508 316
L 508 316
L 508 316
L 508 315
L 508 315
L 508 315
L 508 315
L 508 315
L 508 315
L 508 315
L 508 315
L 509 315
L 509 315
L 509 315
L 509 315
L 509 315
L 509 315
L 509 315
L 509 315
L 509 315
L 509 315
L 509 314
L 510 314
L 510 314
L 510 314
L 510 314
L 510 314
L 510 314
L 510 314
L 510 314
L 510 314
L 511 314
L 511 314
L 511 314
L 511 314
L 511 314
L 511 314
L 511 314
L 511 313
L 511 313
L 511 313
L 511 313
L 511 313
L 511 313
L 511 313
L 511 313
L 511 313
L 511 313
L 511 313
L 511 313
L 512 313
L 512 313
L 512 313
L 512 313
L 512 313
L 512 313
L 512 312
L 512 312
L 512 312
L 512 312
L 512 312
L 512 312
L 512 312
L 512 312
L 512 312
L 512 312
L 512 312
L 512 312
L 512 312
L 512 312
L 513 312
L 513 312
L 513 312
L 513 312
L 513 311
L 513 311
L 513 311
L 513 311
L 513 311
L 513 311
L 513 311
L 513 311
L 513 311
L 513 311
L 513 311
L 514 311
L 514 311
L 514 311
L 514 311
L 514 311
L 514 311
L 514 310
L 514 310
L 514 310
L 515 310
L 515 310
L 515 310
L 515 310
L 515 310
L 516 310
L 516 310
L 517 310
L 518 310
L 519 310
L 519 310
L 519 310
L 519 310
L 519 310
L 519 310
L 519 309
L 519 309
L 519 309
L 519 309
L 519 309
L 519 309
L 519 309
L 519 309
L 519 309
L 519 309
L 519 309
L 519 309
L 519 309
L 519 309
L 519 309
L 519 309
L 519 309
L 519 309
L 519 308
L 519 308
L 519 308
L 519 308
L 519 308
L 519 308
L 519 308
L 519 308
L 519 308
L 519 308
L 520 308
L 520 308
L 520 308
L 520 308
L 520 308
L 520 308
L 520 308
L 520 307
L 520 307
L 520 307
L 520 307
L 520 307
L 520 307
L 520 307
L 520 307
L 520 307
L 520 307
L 520 307
L 520 307
L 520 307
L 520 307
L 520 307
L 520 307
L 520 307
L 520 307
L 520 306
L 520 306
L 520 306
L 520 306
L 520 306
L 520 306
L 520 306
L 520 306
L 520 306
L 520 306
L 520 306
L 520 306
L 520 306
L 520 306
L 520 306
L 520 306
L 520 306
L 520 306
L 520 305
L 520 305
L 520 305
L 520 305
L 520 305
L 520 305
L 520 305
L 520 305
L 520 305
L 520 305
L 520 305
L 520 305
L 520 305
L 520 305
L 520 305
L 520 305
L 520 305
L 520 304
L 520 304
L 520 304
L 520 304
L 520 304
L 520 304
L 520 304
L 520 304
L 520 304
L 520 304
L 521 304
L 521 304
L 521 304
L 521 304
L 521 304
L 521 304
L 521 304
L 521 304
L 521 303
L 521 303
L 521 303
L 521 303
L 521 303
L 521 303
L 521 303
L 521 303
L 521 303
L 521 303
L 521 303
L 521 303
L 521 303
L 521 303
L 521 303
L 521 303
L 521 303
L 521 303
L 521 302
L 521 302
L 521 302
L 521 302
L 521 302
L 521 302
L 521 302
L 521 302
L 521 302
L 521 302
L 521 302
L 521 302
L 521 302
L 521 302
L 522 302
L 522 302
L 522 302
L 522 301
L 522 301
L 522 301
L 522 301
L 522 301
L 522 301
L 522 301
L 522 301
L 522 301
L 522 301
L 522 301
L 522 301
L 522 301
L 522 301
L 522 301
L 522 301
L 522 301
L 522 301
L 522 300
L 522 300
L 522 300
L 522 300
L 522 300
L 522 300
L 522 300
L 522 300
L 522 300
L 522 300
L 522 300
L 522 300
L 522 300
L 522 300
L 522 300
L 522 300
L 523 300
L 523 300
L 523 299
L 523 299
L 523 299
L 523 299
L 523 299
L 523 299
L 523 299
L 523 299
L 523 299
L 523 299
L 523 299
L 523 299
L 523 299
L 523 299
L 523 299
L 523 299
L 523 299
L 523 298
L 523 298
L 523 298
L 523 298
L 523 298
L 523 298
L 523 298
L 523 298
L 523 298
L 523 298
L 523 298
L 523 298
L 523 298
L 523 298
L 523 298
L 523 298
L 523 298
L 523 298
L 523 297
L 523 297
L 523 297
L 523 297
L 523 297
L 523 297
L 523 297
L 523 297
L 523 297
L 523 297
L 523 297
L 523 297
L 523 297
L 523 297
L 523 297
L 523 297
L 523 297
L 523 296
L 523 296
L 523 296
L 523 296
L 523 296
L 523 296
L 523 296
L 523 296
L 523 296
L 523 296
L 524 296
L 524 296
L 524 296
L 524 296
L 524 296
L 524 296
L 524 296
L 524 296
L 524 295
L 524 295
L 524 295
L 524 295
L 524 295
L 524 295
L 524 295
L 524 295
L 524 295
L 524 295
L 524 295
L 524 295
L 524 295
L 524 295
L 524 295
L 524 295
L 524 295
L 524 295
L 524 294
L 524 294
L 524 294
L 524 294
L 524 294
L 524 294
L 524 294
L 524 294
L 524 294
L 524 294
L 524 294
L 524 294
L 524 294
L 524 294
L 525 294
L 525 294
L 525 294
L 525 293
L 525 293
L 525 293
L 525 293
L 525 293
L 525 293
L 525 293
L 525 293
L 525 293
L 525 293
L 525 293
L 525 293
L 525 293
L 525 293
L 525 293
L 525 293
L 525 293
L 525 293
L 525 292
L 525 292
L 525 292
L 525 292
L 525 292
L 525 292
L 525 292
L 525 292
L 525 292
L 525 292
L 525 292
L 525 292
L 525 292
L 525 292
L 525 292
L 525 292
L 525 292
L 525 292
L 525 291
L 525 291
L 525 291
L 525 291
L 525 291
L 525 291
L 525 291
L 525 291
L 525 291
L 525 291
L 525 291
L 526 291
L 526 291
L 526 291
L 526 291
L 526 291
L 526 291
L 526 290
L 526 290
L 526 290
L 526 290
L 526 290
L 526 290
L 526 290
L 526 290
L 526 290
L 526 290
L 526 290
L 526 290
L 526 290
L 526 290
L 526 290
L 527 290
L 527 290
L 527 290
L 527 289
L 527 289
L 527 289
L 527 289
L 527 289
L 527 289
L 527 289
L 527 289
L 527 289
L 527 289
L 527 289
L 527 289
L 527 289
L 528 289
L 528 289
L 528 289
L 528 289
L 528 289
L 528 288
L 528 288
L 528 288
L 528 288
L 528 288
L 528 288
L 528 288
L 528 288
L 528 288
L 528 288
L 528 288
L 528 288
L 528 288
L 528 288
L 528 288
L 529 288
L 529 288
L 529 287
L 529 287
L 529 287
L 529 287
L 529 287
L 529 287
L 529 287
L 529 287
L 529 287
L 529 287
L 529 287
L 529 287
L 529 287
L 529 287
L 529 287
L 530 287
L 530 287
L 530 287
L 530 286
L 530 286
L 530 286
L 530 286
L 532 286
L 534 286
L 534 286
L 534 286
L 534 286
L 534 286
L 535 286
L 535 286
L 535 286
L 535 286
L 535 286
L 535 286
L 535 286
L 535 286
L 535 285
L 535 285
L 535 285
L 535 285
L 535 285
L 535 285
L 535 285
L 535 285
L 535 285
L 535 285
L 535 285
L 535 285
L 535 285
L 535 285
L 535 285
L 535 285
L 535 285
L 535 284
L 535 284
L 535 284
L 535 284
L 535 284
L 535 284
L 535 284
L 535 284
L 535 284
L 535 284
L 535 284
L 535 284
L 536 284
L 536 284
L 536 284
L 536 284
L 536 284
L 536 284
L 536 283
L 536 283
L 536 283
L 536 283
L 536 283
L 536 283
L 536 283
L 536 283
L 536 283
L 536 283
L 536 283
L 536 283
L 536 283
L 536 283
L 536 283
L 536 283
L 536 283
L 536 283
L 536 282
L 536 282
L 536 282
L 536 282
L 536 282
L 536 282
L 536 282
L 536 282
L 536 282
L 536 282
L 536 282
L 536 282
L 536 282
L 536 282
L 536 282
L 536 282
L 536 282
L 536 281
L 536 281
L 536 281
L 536 281
L 536 281
L 536 281
L 536 281
L 536 281
L 536 281
L 536 281
L 536 281
L 536 281
L 536 281
L 536 281
L 536 281
L 536 281
L 536 281
L 536 281
L 536 280
L 536 280
L 536 280
L 536 280
L 536 280
L 536 280
L 536 280
L 536 280
L 536 280
L 536 280
L 536 280
L 536 280
L 536 280
L 536 280
L 536 280
L 536 280
L 536 280
L 536 279
L 536 279
L 536 279
L 536 279
L 536 279
L 536 279
L 536 279
L 536 279
L 536 279
L 536 279
L 536 279
L 536 279
L 536 279
L 537 279
L 537 279
L 537 279
L 537 279
L 537 279
L 537 278
L 537 278
L 537 278
L 537 278
L 537 278
L 537 278
L 537 278
L 537 278
L 537 278
L 537 278
L 537 278
L 537 278
L 537 278
L 537 278
L 537 278
L 537 278
L 537 278
L 537 278
L 537 277
L 537 277
L 537 277
L 537 277
L 537 277
L 538 277
L 538 277
L 538 277
L 538 277
L 538 277
L 538 277
L 538 277
L 538 277
L 538 277
L 538 277
L 538 277
L 538 277
L 538 276
L 538 276
L 538 276
L 538 276
L 538 276
L 538 276
L 538 276
L 538 276
L 538 276
L 538 276
L 538 276
L 538 276
L 538 276
L 538 276
L 538 276
L 538 276
L 538 276
L 538 276
L 538 275
L 538 275
L 538 275
L 538 275
L 538 275
L 538 275
L 538 275
L 538 275
L 538 275
L 538 275
L 538 275
L 538 275
L 538 275
L 539 275
L 539 275
L 539 275
L 539 275
L 539 275
L 539 274
L 539 274
L 539 274
L 539 274
L 539 274
L 539 274
L 539 274
L 539 274
L 539 274
L 539 274
L 539 274
L 539 274
L 539 274
L 539 274
L 539 274
L 539 274
L 539 274
L 539 273
L 539 273
L 539 273
L 539 273
L 539 273
L 539 273
L 539 273
L 539 273
L 539 273
L 539 273
L 539 273
L 539 273
L 539 273
L 539 273
L 539 273
L 540 273
L 540 273
L 540 273
L 540 272
L 540 272
L 540 272
L 540 272
L 540 272
L 540 272
L 540 272
L 540 272
L 540 272
L 540 272
L 540 272
L 540 272
L 540 272
L 540 272
L 540 272
L 540 272
L 540 272
L 540 272
L 540 271
L 540 271
L 540 271
L 540 271
L 540 271
L 540 271
L 540 271
L 540 271
L 540 271
L 540 271
L 540 271
L 540 271
L 540 271
L 540 271
L 540 271
L 540 271
L 540 271
L 540 270
L 540 270
L 540 270
L 540 270
L 540 270
L 540 270
L 540 270
L 540 270
L 540 270
L 540 270
L 540 270
L 540 270
L 541 270
L 541 270
L 541 270
L 541 270
L 541 270
L 541 270
L 541 269
L 541 269
L 541 269
L 541 269
L 541 269
L 541 269
L 541 269
L 541 269
L 541 269
L 541 269
L 541 269
L 541 269
L 541 269
L 541 269
L 541 269
L 541 269
L 541 269
L 541 269
L 541 268
L 541 268
L 541 268
L 541 268
L 541 268
L 541 268
L 541 268
L 541 268
L 541 268
L 541 268
L 541 268
L 541 268
L 541 268
L 541 268
L 541 268
L 541 268
L 541 268
L 541 267
L 541 267
L 541 267
L 541 267
L 541 267
L 541 267
L 541 267
L 541 267
L 541 267
L 541 267
L 541 267
L 542 267
L 542 267
L 542 267
L 542 267
L 542 267
L 542 267
L 542 267
L 542 266
L 542 266
L 542 266
L 542 266
L 542 266
L 542 266
L 542 266
L 542 266
L 542 266
L 542 266
L 542 266
L 542 266
L 542 266
L 542 266
L 542 266
L 542 266
L 542 266
L 542 266
L 542 265
L 542 265
L 542 265
L 542 265
L 542 265
L 542 265
L 542 265
L 543 265
L 543 265
L 543 265
L 543 265
L 543 265
L 543 265
L 543 265
L 543 265
L 543 265
L 543 265
L 543 264
L 543 264
L 543 264
L 543 264
L 543 264
L 543 264
L 543 264
L 543 264
L 543 264
L 543 264
L 543 264
L 543 264
L 543 264
L 543 264
L 543 264
L 543 264
L 543 264
L 543 264
L 543 263
L 543 263
L 543 263
L 543 263
L 543 263
L 543 263
L 544 263
L 544 263
L 544 263
L 544 263
L 544 263
L 544 263
L 544 263
L 544 263
L 544 263
L 544 263
L 544 263
L 544 262
L 544 262
L 544 262
L 544 262
L 544 262
L 544 262
L 544 262
L 544 262
L 545 262
L 545 262
L 545 262
L 545 262
L 545 262
L 545 262
L 545 262
L 545 262
L 545 262
L 545 262
L 545 261
L 545 261
L 545 261
L 545 261
L 545 261
L 545 261
L 545 261
L 545 261
L 545 261
L 546 261
L 546 261
L 546 261
L 546 261
L 547 261
L 547 261
L 548 261
L 550 261
L 550 261
L 550 260
L 550 260
L 550 260
L 550 260
L 550 260
L 550 260
L 550 260
L 550 260
L 550 260
L 550 260
L 550 260
L 550 260
L 550 260
L 551 260
L 551 260
L 551 260
L 551 260
L 551 259
L 551 259
L 551 259
L 551 259
L 551 259
L 551 259
L 551 259
L 551 259
L 551 259
L 551 259
L 551 259
L 551 259
L 551 259
L 551 259
L 551 259
L 551 259
L 551 259
L 551 259
L 551 258
L 551 258
L 551 258
L 551 258
L 551 258
L 551 258
L 551 258
L 551 258
L 551 258
L 551 258
L 551 258
L 551 258
L 551 258
L 551 258
L 551 258
L 551 258
L 551 258
L 551 258
L 551 257
L 551 257
L 551 257
L 551 257
L 551 257
L 551 257
L 551 257
L 551 257
L 551 257
L 551 257
L 551 257
L 551 257
L 551 257
L 551 257
L 551 257
L 551 257
L 551 257
L 551 256
L 551 256
L 551 256
L 551 256
L 551 256
L 551 256
L 551 256
L 551 256
L 551 256
L 551 256
L 551 256
L 551 256
L 551 256
L 551 256
L 551 256
L 552 256
L 552 256
L 552 256
L 552 255
L 552 255
L 552 255
L 552 255
L 552 255
L 552 255
L 552 255
L 552 255
L 552 255
L 552 255
L 552 255
L 552 255
L 552 255
L 552 255
L 552 255
L 552 255
L 552 255
L 552 255
L 552 254
L 552 254
L 552 254
L 552 254
L 552 254
L 552 254
L 552 254
L 552 254
L 552 254
L 552 254
L 552 254
L 552 254
L 552 254
L 552 254
L 552 254
L 552 254
L 552 254
L 552 253
L 552 253
L 552 253
L 552 253
L 553 253
L 553 253
L 553 253
L 553 253
L 553 253
L 553 253
L 553 253
L 553 253
L 553 253
L 553 253
L 553 253
L 553 253
L 553 253
L 553 253
L 553 252
L 553 252
L 553 252
L 553 252
L 553 252
L 553 252
L 553 252
L 553 252
L 554 252
L 554 252
L 554 252
L 554 252
L 554 252
L 554 252
L 554 252
L 554 252
L 554 252
L 554 252
L 554 251
L 554 251
L 554 251
L 554 251
L 554 251
L 554 251
L 554 251
L 554 251
L 554 251
L 554 251
L 554 251
L 554 251
L 554 251
L 554 251
L 554 251
L 554 251
L 554 251
L 554 250
L 554 250
L 554 250
L 554 250
L 554 250
L 554 250
L 554 250
L 554 250
L 554 250
L 554 250
L 554 250
L 554 250
L 555 250
L 555 250
L 555 250
L 555 250
L 555 250
L 555 250
L 555 249
L 555 249
L 555 249
L 555 249
L 555 249
L 555 249
L 555 249
L 555 249
L 555 249
L 555 249
L 555 249
L 555 249
L 555 249
L 555 249
L 555 249
L 555 249
L 555 249
L 555 249
L 555 248
L 555 248
L 555 248
L 555 248
L 555 248
L 555 248
L 555 248
L 555 248
L 555 248
L 555 248
L 555 248
L 555 248
L 555 248
L 555 248
L 556 248
L 556 248
L 556 248
L 556 247
L 556 247
L 556 247
L 556 247
L 556 247
L 556 247
L 556 247
L 556 247
L 556 247
L 556 247
L 556 247
L 556 247
L 556 247
L 556 247
L 556 247
L 556 247
L 556 247
L 556 247
L 556 246
L 556 246
L 556 246
L 556 246
L 556 246
L 556 246
L 556 246
L 556 246
L 556 246
L 556 246
L 556 246
L 556 246
L 556 246
L 556 246
L 556 246
L 556 246
L 556 246
L 556 245
L 556 245
L 556 245
L 556 245
L 556 245
L 556 245
L 556 245
L 556 245
L 557 245
L 557 245
L 557 245
L 557 245
L 557 245
L 557 245
L 557 245
L 557 245
L 557 245
L 557 245
L 557 244
L 557 244
L 557 244
L 557 244
L 557 244
L 557 244
L 557 244
L 557 244
L 557 244
L 557 244
L 557 244
L 557 244
L 558 244
L 558 244
L 558 244
L 558 244
L 558 244
L 558 244
L 558 243
L 558 243
L 558 243
L 558 243
L 558 243
L 558 243
L 558 243
L 558 243
L 558 243
L 558 243
L 558 243
L 558 243
L 558 243
L 558 243
L 558 243
L 558 243
L 558 243
L 558 242
L 559 242
L 559 242
L 559 242
L 559 242
L 559 242
L 559 242
L 559 242
L 559 242
L 559 242
L 559 242
L 559 242
L 559 242
L 559 242
L 559 242
L 559 242
L 559 242
L 559 242
L 559 241
L 560 241
L 560 241
L 560 241
L 560 241
L 560 241
L 560 241
L 560 241
L 560 241
L 560 241
L 560 241
L 560 241
L 560 241
L 560 241
L 560 241
L 560 241
L 560 241
L 560 241
L 561 240
L 561 240
L 561 240
L 561 240
L 561 240
L 562 240
L 562 240
L 565 240
L 565 240
L 565 240
L 565 240
L 566 240
L 566 240
L 566 240
L 566 240
L 566 240
L 566 240
L 566 239
L 566 239
L 566 239
L 566 239
L 566 239
L 566 239
L 566 239
L 566 239
L 566 239
L 566 239
L 566 239
L 566 239
L 567 239
L 567 239
L 567 239
L 567 239
L 567 239
L 567 239
L 567 238
L 567 238
L 567 238
L 567 238
L 567 238
L 567 238
L 567 238
L 567 238
L 567 238
L 567 238
L 567 238
L 567 238
L 567 238
L 567 238
L 567 238
L 567 238
L 567 238
L 567 238
L 567 237
L 567 237
L 567 237
L 567 237
L 567 237
L 567 237
L 567 237
L 567 237
L 567 237
L 567 237
L 567 237
L 567 237
L 567 237
L 567 237
L 567 237
L 567 237
L 567 237
L 567 236
L 567 236
L 567 236
L 567 236
L 567 236
L 567 236
L 567 236
L 567 236
L 567 236
L 568 236
L 568 236
L 568 236
L 568 236
L 568 236
L 568 236
L 568 236
L 568 236
L 568 236
L 568 235
L 568 235
L 568 235
L 568 235
L 568 235
L 568 235
L 568 235
L 568 235
L 568 235
L 568 235
L 568 235
L 568 235
L 568 235
L 568 235
L 568 235
L 569 235
L 569 235
L 569 235
L 569 234
L 569 234
L 569 234
L 569 234
L 569 234
L 569 234
L 569 234
L 569 234
L 569 234
L 569 234
L 569 234
L 569 234
L 569 234
L 569 234
L 570 234
L 570 234
L 570 234
L 570 233
L 570 233
L 570 233
L 570 233
L 570 233
L 570 233
L 570 233
L 570 233
L 570 233
L 570 233
L 570 233
L 570 233
L 570 233
L 570 233
L 570 233
L 570 233
L 570 233
L 570 233
L 570 232
L 570 232
L 570 232
L 570 232
L 571 232
L 571 232
L 571 232
L 571 232
L 571 232
L 571 232
L 571 232
L 571 232
L 571 232
L 571 232
L 571 232
L 571 232
L 571 232
L 571 232
L 571 231
L 571 231
L 571 231
L 571 231
L 571 231
L 571 231
L 571 231
L 571 231
L 571 231
L 571 231
L 571 231
L 571 231
L 571 231
L 571 231
L 571 231
L 572 231
L 572 231
L 572 230
L 572 230
L 572 230
L 572 230
L 572 230
L 572 230
L 572 230
L 572 230
L 572 230
L 572 230
L 572 230
L 572 230
L 572 230
L 572 230
L 572 230
L 572 230
L 572 230
L 572 230
L 572 229
L 572 229
L 572 229
L 572 229
L 572 229
L 572 229
L 572 229
L 572 229
L 572 229
L 573 229
L 573 229
L 573 229
L 573 229
L 573 229
L 573 229
L 573 229
L 573 229
L 573 228
L 573 228
L 573 228
L 573 228
L 573 228
L 573 228
L 573 228
L 573 228
L 573 228
L 573 228
L 574 228
L 574 228
L 574 228
L 574 228
L 574 228
L 574 228
L 574 228
L 574 228
L 574 227
L 574 227
L 574 227
L 574 227
L 574 227
L 574 227
L 574 227
L 574 227
L 574 227
L 575 227
L 575 227
L 575 227
L 575 227
L 575 227
L 575 227
L 575 227
L 575 227
L 575 227
L 575 226
L 576 226
L 576 226
L 576 226
L 576 226
L 576 226
L 576 226
L 576 226
L 577 226
L 577 226
L 577 226
L 577 226
L 577 226
L 578 226
L 578 226
L 581 226
L 581 226
L 581 225
L 582 225
L 582 225
L 582 225
L 582 225
L 582 225
L 582 225
L 582 225
L 582 225
L 582 225
L 582 225
L 582 225
L 582 225
L 582 225
L 582 225
L 582 225
L 582 225
L 582 225
L 582 224
L 582 224
L 582 224
L 582 224
L 582 224
L 582 224
L 582 224
L 582 224
L 582 224
L 582 224
L 582 224
L 582 224
L 582 224
L 582 224
L 582 224
L 582 224
L 582 224
L 582 224
L 582 223
L 582 223
L 583 223
L 583 223
L 583 223
L 583 223
L 583 223
L 583 223
L 583 223
L 583 223
L 583 223
L 583 223
L 583 223
L 583 223
L 583 223
L 583 223
L 583 223
L 583 222
L 583 222
L 583 222
L 583 222
L 583 222
L 583 222
L 583 222
L 583 222
L 583 222
L 583 222
L 583 222
L 583 222
L 583 222
L 583 222
L 583 222
L 583 222
L 583 222
L 583 222
L 583 221
L 583 221
L 583 221
L 583 221
L 583 221
L 583 221
L 583 221
L 583 221
L 583 221
L 584 221
L 584 221
L 584 221
L 584 221
L 584 221
L 584 221
L 584 221
L 584 221
L 584 221
L 584 220
L 585 220
L 585 220
L 585 220
L 585 220
L 585 220
L 585 220
L 585 220
L 585 220
L 585 220
L 585 220
L 585 220
L 585 220
L 585 220
L 585 220
L 585 220
L 585 220
L 585 219
L 585 219
L 585 219
L 585 219
L 585 219
L 585 219
L 585 219
L 585 219
L 585 219
L 585 219
L 585 219
L 585 219
L 585 219
L 585 219
L 585 219
L 585 219
L 585 219
L 585 219
L 585 218
L 585 218
L 585 218
L 585 218
L 586 218
L 586 218
L 586 218
L 586 218
L 586 218
L 586 218
L 586 218
L 586 218
L 586 218
L 586 218
L 586 218
L 586 218
L 586 218
L 586 218
L 586 217
L 586 217
L 586 217
L 586 217
L 586 217
L 586 217
L 586 217
L 586 217
L 586 217
L 586 217
L 586 217
L 586 217
L 586 217
L 586 217
L 586 217
L 586 217
L 586 217
L 586 216
L 586 216
L 586 216
L 586 216
L 586 216
L 586 216
L 586 216
L 586 216
L 587 216
L 587 216
L 587 216
L 587 216
L 587 216
L 587 216
L 587 216
L 587 216
L 587 216
L 587 216
L 587 215
L 587 215
L 587 215
L 587 215
L 587 215
L 587 215
L 587 215
L 587 215
L 587 215
L 587 215
L 587 215
L 587 215
L 587 215
L 587 215
L 587 215
L 587 215
L 587 215
L 587 215
L 587 214
L 587 214
L 587 214
L 587 214
L 587 214
L 587 214
L 587 214
L 587 214
L 587 214
L 587 214
L 587 214
L 588 214
L 588 214
L 588 214
L 588 214
L 588 214
L 588 214
L 588 213
L 588 213
L 588 213
L 588 213
L 588 213
L 588 213
L 588 213
L 588 213
L 588 213
L 588 213
L 588 213
L 589 213
L 589 213
L 589 213
L 589 213
L 589 213
L 589 213
L 589 213
L 589 212
L 589 212
L 589 212
L 589 212
L 589 212
L 589 212
L 589 212
L 589 212
L 590 212
L 590 212
L 590 212
L 590 212
L 590 212
L 590 212
L 590 212
L 590 212
L 590 212
L 590 211
L 590 211
L 591 211
L 591 211
L 591 211
L 591 211
L 591 211
L 591 211
L 591 211
L 591 211
L 591 211
L 591 211
L 591 211
L 591 211
L 591 211
L 591 211
L 591 211
L 591 211
L 592 210
L 592 210
L 592 210
L 592 210
L 592 210
L 592 210
L 592 210
L 592 210
L 592 210
L 594 210
L 594 210
L 594 210
L 595 210
L 597 210
L 597 210
L 597 210
L 597 210
L 597 210
L 597 209
L 597 209
L 597 209
L 597 209
L 597 209
L 597 209
L 597 209
L 597 209
L 597 209
L 597 209
L 597 209
L 598 209
L 598 209
L 598 209
L 598 209
L 598 209
L 598 209
L 598 208
L 598 208
L 598 208
L 598 208
L 598 208
L 598 208
L 598 208
L 598 208
L 598 208
L 598 208
L 598 208
L 598 208
L 598 208
L 598 208
L 598 208
L 598 208
L 598 208
L 598 208
L 598 207
L 598 207
L 598 207
L 598 207
L 598 207
L 598 207
L 598 207
L 598 207
L 598 207
L 598 207
L 598 207
L 598 207
L 598 207
L 598 207
L 598 207
L 598 207
L 598 207
L 598 207
L 598 206
L 599 206
L 599 206
L 599 206
L 599 206
L 599 206
L 599 206
L 599 206
L 599 206
L 599 206
L 599 206
L 599 206
L 599 206
L 599 206
L 599 206
L 599 206
L 599 206
L 599 205
L 599 205
L 599 205
L 599 205
L 599 205
L 599 205
L 599 205
L 599 205
L 599 205
L 599 205
L 599 205
L 599 205
L 599 205
L 599 205
L 599 205
L 599 205
L 599 205
L 599 205
L 599 204
L 599 204
L 599 204
L 599 204
L 599 204
L 599 204
L 599 204
L 599 204
L 599 204
L 599 204
L 599 204
L 599 204
L 599 204
L 600 204
L 600 204
L 600 204
L 600 204
L 600 204
L 600 203
L 600 203
L 600 203
L 600 203
L 600 203
L 600 203
L 600 203
L 600 203
L 600 203
L 600 203
L 600 203
L 600 203
L 600 203
L 600 203
L 600 203
L 600 203
L 600 203
L 601 202
L 601 202
L 601 202
L 601 202
L 601 202
L 601 202
L 601 202
L 601 202
L 601 202
L 601 202
L 601 202
L 601 202
L 601 202
L 601 202
L 601 202
L 601 202
L 601 202
L 601 202
L 601 201
L 601 201
L 601 201
L 601 201
L 601 201
L 601 201
L 601 201
L 601 201
L 601 201
L 601 201
L 601 201
L 601 201
L 601 201
L 601 201
L 601 201
L 601 201
L 601 201
L 601 201
L 601 200
L 601 200
L 601 200
L 601 200
L 601 200
L 601 200
L 602 200
L 602 200
L 602 200
L 602 200
L 602 200
L 602 200
L 602 200
L 602 200
L 602 200
L 602 200
L 602 200
L 602 199
L 602 199
L 602 199
L 602 199
L 602 199
L 602 199
L 602 199
L 602 199
L 602 199
L 602 199
L 602 199
L 602 199
L 602 199
L 602 199
L 602 199
L 602 199
L 602 199
L 602 199
L 602 198
L 602 198
L 602 198
L 602 198
L 602 198
L 602 198
L 602 198
L 602 198
L 602 198
L 602 198
L 602 198
L 602 198
L 602 198
L 602 198
L 602 198
L 603 198
L 603 198
L 603 198
L 603 197
L 603 197
L 603 197
L 603 197
L 603 197
L 603 197
L 603 197
L 603 197
L 603 197
L 603 197
L 603 197
L 603 197
L 603 197
L 603 197
L 603 197
L 604 197
L 604 197
L 604 196
L 604 196
L 604 196
L 604 196
L 604 196
L 604 196
L 604 196
L 604 196
L 604 196
L 604 196
L 604 196
L 604 196
L 605 196
L 605 196
L 605 196
L 605 196
L 605 196
L 605 196
L 605 195
L 605 195
L 605 195
L 605 195
L 605 195
L 605 195
L 606 195
L 606 195
L 606 195
L 606 195
L 606 195
L 606 195
L 606 195
L 606 195
L 606 195
L 606 195
L 606 195
L 607 194
L 607 194
L 607 194
L 607 194
L 607 194
L 607 194
L 607 194
L 607 194
L 607 194
L 608 194
L 608 194
L 608 194
L 608 194
L 608 194
L 611 194
L 611 194
L 611 194
L 612 194
L 612 193
L 612 193
L 613 193
L 613 193
L 613 193
L 613 193
L 613 193
L 614 193
L 614 193
L 614 193
L 614 193
L 614 193
L 614 193
L 614 193
L 614 193
L 614 193
L 614 193
L 614 193
L 614 192
L 614 192
L 615 192
L 615 192
L 615 192
L 615 192
L 615 192
L 615 192
L 615 192
L 615 192
L 616 192
L 616 192
L 616 192
L 616 192
L 616 192
L 616 192
L 616 192
L 616 191
L 617 191
L 617 191
L 617 191
L 617 191
L 617 191
L 617 191
L 617 191
L 618 191
L 618 191
L 618 191
L 618 191
L 618 191
L 618 191
L 618 191
L 618 191
L 619 191
L 619 191
L 620 190
L 620 190
L 620 190
L 620 190
L 620 190
L 620 190
L 620 190
L 620 190
L 621 190
L 621 190
L 621 190
L 621 190
L 621 190
L 621 190
L 621 190
L 622 190
L 622 190
L 622 190
L 622 189
L 622 189
L 622 189
L 622 189
L 623 189
L 623 189
L 623 189
L 623 189
L 623 189
L 623 189
L 623 189
L 624 189
L 625 189
L 625 189
L 626 189
L 626 189
L 626 189
L 626 188
L 627 188
L 627 188
L 628 188
L 628 188
L 629 188
L 629 188
L 629 188
L 629 188
L 629 188
L 630 188
L 630 188
L 630 188
L 630 188
L 630 188
L 630 188
L 630 188
L 630 188
L 631 187
L 631 187
L 631 187
L 631 187
L 631 187
L 631 187
L 632 187
L 632 187
L 632 187
L 632 187
L 632 187
L 632 187
L 633 187
L 633 187
L 633 187
L 633 187
L 633 187
L 633 187
L 634 186
L 634 186
L 634 186
L 634 186
L 635 186
L 635 186
L 635 186
L 635 186
L 635 186
L 636 186
L 636 186
L 636 186
L 636 186
L 636 186
L 636 186
L 637 186
L 637 186
L 637 185
L 637 185
L 637 185
L 638 185
L 638 185
L 638 185
L 638 185
L 638 185
L 638 185
L 638 185
L 638 185
L 638 185
L 638 185
L 639 185
L 639 185
L 639 185
L 639 185
L 640 185
L 640 184
L 640 184
L 642 184
L 642 184
L 644 184
L 644 184
L 644 184
L 644 184
L 645 184
L 645 184
L 645 184
L 645 184
L 645 184
L 645 184
L 645 184
L 646 184
L 646 184
L 646 184
L 646 183
L 646 183
L 647 183
L 647 183
L 647 183
L 647 183
L 647 183
L 648 183
L 648 183
L 648 183
L 648 183
L 648 183
L 648 183
L 648 183
L 648 183
L 648 183
L 648 183
L 649 182
L 649 182
L 649 182
L 649 182
L 649 182
L 649 182
L 650 182
L 650 182
L 650 182
L 650 182
L 650 182
L 650 182
L 650 182
L 650 182
L 651 182
L 651 182
L 651 182
L 651 182
L 651 181
L 651 181
L 651 181
L 651 181
L 651 181
L 651 181
L 651 181
L 651 181
L 651 181
L 652 181
L 652 181
L 652 181
L 652 181
L 652 181
L 652 181
L 653 181
L 653 181
L 653 181
L 653 180
L 653 180
L 653 180
L 653 180
L 653 180
L 653 180
L 653 180
L 653 180
L 653 180
L 654 180
L 654 180
L 654 180
L 654 180
L 655 180
L 655 180
L 655 180
L 659 180
L 660 179
L 660 179
L 660 179
L 660 179
L 660 179
L 660 179
L 660 179
L 660 179
L 660 179
L 660 179
L 660 179
L 660 179
L 660 179
L 660 179
L 660 179
L 660 179
L 660 179
L 660 179
L 660 178
L 660 178
L 660 178
L 660 178
L 660 178
L 660 178
L 660 178
L 660 178
L 660 178
L 660 178
L 660 178
L 661 178
L 661 178
L 661 178
L 661 178
L 661 178
L 661 178
L 661 177
L 661 177
L 661 177
L 661 177
L 661 177
L 661 177
L 661 177
L 661 177
L 661 177
L 661 177
L 661 177
L 661 177
L 661 177
L 661 177
L 661 177
L 661 177
L 661 177
L 661 177
L 661 176
L 661 176
L 661 176
L 661 176
L 661 176
L 661 176
L 661 176
L 661 176
L 661 176
L 661 176
L 661 176
L 661 176
L 661 176
L 662 176
L 662 176
L 662 176
L 662 176
L 662 176
L 662 175
L 662 175
L 662 175
L 662 175
L 662 175
L 662 175
L 662 175
L 663 175
L 663 175
L 663 175
L 663 175
L 663 175
L 663 175
L 663 175
L 663 175
L 663 175
L 663 175
L 663 174
L 663 174
L 663 174
L 663 174
L 663 174
L 663 174
L 663 174
L 663 174
L 663 174
L 663 174
L 663 174
L 663 174
L 663 174
L 663 174
L 663 174
L 663 174
L 663 174
L 663 174
L 663 173
L 663 173
L 663 173
L 664 173
L 664 173
L 664 173
L 664 173
L 664 173
L 664 173
L 664 173
L 664 173
L 664 173
L 664 173
L 664 173
L 664 173
L 664 173
L 664 173
L 664 173
L 664 172
L 664 172
L 664 172
L 664 172
L 664 172
L 664 172
L 664 172
L 664 172
L 665 172
L 665 172
L 665 172
L 665 172
L 665 172
L 665 172
L 665 172
L 665 172
L 665 172
L 665 171
L 665 171
L 665 171
L 665 171
L 665 171
L 665 171
L 665 171
L 665 171
L 665 171
L 665 171
L 665 171
L 665 171
L 665 171
L 666 171
L 666 171
L 666 171
L 666 171
L 666 171
L 666 170
L 666 170
L 666 170
L 666 170
L 666 170
L 666 170
L 666 170
L 666 170
L 667 170
L 667 170
L 667 170
L 667 170
L 667 170
L 667 170
L 667 170
L 667 170
L 667 170
L 667 170
L 667 169
L 668 169
L 668 169
L 668 169
L 668 169
L 668 169
L 668 169
L 668 169
L 668 169
L 668 169
L 668 169
L 668 169
L 668 169
L 668 169
L 668 169
L 668 169
L 668 169
L 668 168
L 668 168
L 668 168
L 668 168
L 668 168
L 668 168
L 668 168
L 669 168
L 669 168
L 669 168
L 669 168
L 669 168
L 669 168
L 669 168
L 669 168
L 669 168
L 669 168
L 669 168
L 669 167
L 669 167
L 670 167
L 670 167
L 670 167
L 670 167
L 670 167
L 670 167
L 671 167
L 671 167
L 671 167
L 671 167
L 672 167
L 674 167
L 674 167
L 674 167
L 675 167
L 675 167
L 675 166
L 675 166
L 675 166
L 675 166
L 675 166
L 675 166
L 675 166
L 675 166
L 675 166
L 675 166
L 675 166
L 675 166
L 676 166
L 676 166
L 676 166
L 676 166
L 676 166
L 676 165
L 676 165
L 676 165
L 676 165
L 676 165
L 676 165
L 676 165
L 676 165
L 676 165
L 676 165
L 676 165
L 676 165
L 676 165
L 676 165
L 676 165
L 676 165
L 676 165
L 676 165
L 676 164
L 676 164
L 676 164
L 676 164
L 676 164
L 676 164
L 676 164
L 676 164
L 676 164
L 676 164
L 676 164
L 676 164
L 676 164
L 676 164
L 676 164
L 676 164
L 676 164
L 676 163
L 676 163
L 676 163
L 676 163
L 676 163
L 677 163
L 677 163
L 677 163
L 677 163
L 677 163
L 677 163
L 677 163
L 677 163
L 677 163
L 677 163
L 677 163
L 677 163
L 677 163
L 677 162
L 677 162
L 677 162
L 677 162
L 677 162
L 678 162
L 678 162
L 678 162
L 678 162
L 678 162
L 678 162
L 678 162
L 678 162
L 678 162
L 678 162
L 678 162
L 678 162
L 678 162
L 678 161
L 678 161
L 678 161
L 678 161
L 678 161
L 678 161
L 679 161
L 679 161
L 679 161
L 679 161
L 679 161
L 679 161
L 679 161
L 679 161
L 679 161
L 679 161
L 679 161
L 679 160
L 679 160
L 679 160
L 679 160
L 679 160
L 679 160
L 679 160
L 679 160
L 679 160
L 679 160
L 679 160
L 679 160
L 679 160
L 680 160
L 680 160
L 680 160
L 680 160
L 680 160
L 680 159
L 680 159
L 680 159
L 680 159
L 680 159
L 680 159
L 680 159
L 680 159
L 680 159
L 680 159
L 680 159
L 680 159
L 680 159
L 680 159
L 680 159
L 680 159
L 680 159
L 680 159
L 680 158
L 680 158
L 680 158
L 680 158
L 680 158
L 680 158
L 680 158
L 681 158
L 681 158
L 681 158
L 681 158
L 681 158
L 681 158
L 681 158
L 681 158
L 681 158
L 681 158
L 681 157
L 681 157
L 681 157
L 681 157
L 681 157
L 681 157
L 681 157
L 681 157
L 681 157
L 681 157
L 681 157
L 681 157
L 681 157
L 681 157
L 681 157
L 681 157
L 681 157
L 681 157
L 681 156
L 681 156
L 681 156
L 681 156
L 681 156
L 681 156
L 681 156
L 681 156
L 681 156
L 681 156
L 681 156
L 681 156
L 681 156
L 681 156
L 681 156
L 681 156
L 681 156
L 682 156
L 682 155
L 682 155
L 682 155
L 682 155
L 682 155
L 682 155
L 682 155
L 682 155
L 682 155
L 682 155
L 682 155
L 682 155
L 682 155
L 682 155
L 682 155
L 682 155
L 682 155
L 682 154
L 682 154
L 682 154
L 682 154
L 682 154
L 683 154
L 683 154
L 683 154
L 683 154
L 683 154
L 683 154
L 683 154
L 683 154
L 683 154
L 683 154
L 683 154
L 683 154
L 683 154
L 683 153
L 684 153
L 684 153
L 684 153
L 684 153
L 684 153
L 684 153
L 684 153
L 684 153
L 684 153
L 684 153
L 684 153
L 684 153
L 684 153
L 684 153
L 684 153
L 684 153
L 684 153
L 684 152
L 684 152
L 685 152
L 685 152
L 685 152
L 685 152
L 685 152
L 685 152
L 685 152
L 685 152
L 685 152
L 685 152
L 685 152
L 685 152
L 685 152
L 686 152
L 686 152
L 686 151
L 686 151
L 686 151
L 686 151
L 686 151
L 687 151
L 688 151
L 689 151
L 689 151
L 690 151
L 690 151
L 690 151
L 691 151
L 691 151
L 691 151
L 691 151
L 691 151
L 691 151
L 691 150
L 691 150
L 691 150
L 691 150
L 691 150
L 691 150
L 691 150
L 691 150
L 691 150
L 691 150
L 691 150
L 691 150
L 691 150
L 691 150
L 691 150
L 691 150
L 692 150
L 692 150
L 692 149
L 692 149
L 692 149
L 692 149
L 692 149
L 692 149
L 692 149
L 692 149
L 692 149
L 692 149
L 692 149
L 692 149
L 692 149
L 692 149
L 692 149
L 692 149
L 692 149
L 692 148
L 692 148
L 692 148
L 692 148
L 692 148
L 692 148
L 692 148
L 692 148
L 693 148
L 693 148
L 693 148
L 693 148
L 693 148
L 693 148
L 693 148
L 693 148
L 693 148
L 693 148
L 693 147
L 693 147
L 693 147
L 693 147
L 693 147
L 694 147
L 694 147
L 694 147
L 694 147
L 694 147
L 694 147
L 694 147
L 694 147
L 694 147
L 694 147
L 694 147
L 694 147
L 694 147
L 694 146
L 694 146
L 694 146
L 694 146
L 694 146
L 694 146
L 694 146
L 694 146
L 694 146
L 695 146
L 695 146
L 695 146
L 695 146
L 695 146
L 695 146
L 695 146
L 695 146
L 695 145
L 695 145
L 695 145
L 695 145
L 695 145
L 695 145
L 695 145
L 695 145
L 696 145
L 696 145
L 696 145
L 696 145
L 696 145
L 696 145
L 696 145
L 696 145
L 696 145
L 696 145
L 696 144
L 696 144
L 696 144
L 696 144
L 696 144
L 696 144
L 696 144
L 696 144
L 696 144
L 696 144
L 696 144
L 696 144
L 696 144
L 696 144
L 696 144
L 696 144
L 696 144
L 696 143
L 696 143
L 696 143
L 696 143
L 696 143
L 696 143
L 697 143
L 697 143
L 697 143
L 697 143
L 697 143
L 697 143
L 697 143
L 697 143
L 697 143
L 697 143
L 697 143
L 697 143
L 697 142
L 697 142
L 697 142
L 697 142
L 697 142
L 698 142
L 698 142
L 698 142
L 698 142
L 698 142
L 698 142
L 698 142
L 698 142
L 699 142
L 699 142
L 699 142
L 699 142
L 699 142
L 699 141
L 699 141
L 699 141
L 699 141
L 699 141
L 699 141
L 699 141
L 699 141
L 699 141
L 700 141
L 700 141
L 700 141
L 700 141
L 700 141
L 700 141
L 700 141
L 700 141
L 700 140
L 700 140
L 700 140
L 701 140
L 701 140
L 702 140
L 702 140
L 702 140
L 703 140
L 703 140
L 704 140
L 704 140
L 704 140
L 704 140
L 706 140
L 706 140
L 706 140
L 707 140
L 707 139
L 707 139
L 707 139
L 707 139
L 707 139
L 707 139
L 707 139
L 707 139
L 707 139
L 707 139
L 707 139
L 707 139
L 707 139
L 707 139
L 707 139
L 707 139
L 708 139
L 708 139
L 708 138
L 708 138
L 708 138
L 708 138
L 708 138
L 708 138
L 708 138
L 708 138
L 708 138
L 708 138
L 708 138
L 708 138
L 708 138
L 708 138
L 708 138
L 708 138
L 708 138
L 709 137
L 709 137
L 709 137
L 709 137
L 709 137
L 709 137
L 709 137
L 710 137
L 710 137
L 710 137
L 710 137
L 710 137
L 710 137
L 710 137
L 710 137
L 710 137
L 710 137
L 710 137
L 711 136
L 711 136
L 711 136
L 711 136
L 711 136
L 711 136
L 711 136
L 711 136
L 712 136
L 712 136
L 712 136
L 712 136
L 712 136
L 712 136
L 712 136
L 713 136
L 713 136
L 713 136
L 713 135
L 713 135
L 713 135
L 713 135
L 713 135
L 714 135
L 714 135
L 714 135
L 714 135
L 714 135
L 714 135
L 714 135
L 714 135
L 714 135
L 714 135
L 714 135
L 715 135
L 715 134
L 715 134
L 715 134
L 715 134
L 715 134
L 715 134
L 715 134
L 715 134
L 715 134
L 715 134
L 716 134
L 716 134
L 716 134
L 716 134
L 716 134
L 716 134
L 717 134
L 717 134
L 717 133
L 722 133
L 722 133
L 723 133
L 723 133
L 723 133
L 723 133
L 723 133
L 724 133
L 724 133
L 724 133
L 724 133
L 724 133
L 724 133
L 725 133
L 725 133
L 725 133
L 725 133
L 725 132
L 725 132
L 725 132
L 726 132
L 726 132
L 726 132
L 726 132
L 726 132
L 726 132
L 727 132
L 727 132
L 727 132
L 727 132
L 727 132
L 727 132
L 727 132
L 727 132
L 727 131
L 728 131
L 728 131
L 728 131
L 728 131
L 728 131
L 728 131
L 728 131
L 728 131
L 728 131
L 728 131
L 729 131
L 729 131
L 729 131
L 729 131
L 729 131
L 729 131
L 729 131
L 729 130
L 729 130
L 730 130
L 730 130
L 730 130
L 730 130
L 730 130
L 731 130
L 731 130
L 731 130
L 731 130
L 731 130
L 731 130
L 731 130
L 731 130
L 731 130
L 731 130
L 731 130
L 731 129
L 731 129
L 731 129
L 731 129
L 732 129
L 732 129
L 732 129
L 732 129
L 732 129
L 732 129
L 732 129
L 732 129
L 732 129
L 733 129
L 733 129
L 733 129
L 734 129
L 734 128
L 735 128
L 735 128
L 735 128
L 737 128
L 737 128
L 737 128
L 737 128
L 737 128
L 737 128
L 737 128
L 738 128
L 738 128
L 738 128
L 738 128
L 738 128
L 738 128
L 738 128
L 738 127
L 738 127
L 738 127
L 738 127
L 738 127
L 738 127
L 738 127
L 738 127
L 738 127
L 738 127
L 738 127
L 738 127
L 738 127
L 738 127
L 738 127
L 739 127
L 739 127
L 739 126
L 739 126
L 739 126
L 739 126
L 739 126
L 739 126
L 739 126
L 739 126
L 739 126
L 739 126
L 739 126
L 739 126
L 739 126
L 739 126
L 739 126
L 739 126
L 739 126
L 739 126
L 739 125
L 739 125
L 739 125
L 740 125
L 740 125
L 740 125
L 740 125
L 740 125
L 740 125
L 740 125
L 740 125
L 740 125
L 740 125
L 740 125
L 741 125
L 741 125
L 741 125
L 741 125
L 741 124
L 741 124
L 741 124
L 741 124
L 741 124
L 741 124
L 741 124
L 741 124
L 741 124
L 741 124
L 741 124
L 741 124
L 741 124
L 742 124
L 742 124
L 742 124
L 742 124
L 742 123
L 742 123
L 742 123
L 742 123
L 742 123
L 742 123
L 742 123
L 742 123
L 742 123
L 742 123
L 742 123
L 742 123
L 742 123
L 743 123
L 743 123
L 743 123
L 743 123
L 743 123
L 743 122
L 743 122
L 743 122
L 743 122
L 743 122
L 743 122
L 743 122
L 743 122
L 743 122
L 744 122
L 744 122
L 744 122
L 744 122
L 744 122
L 744 122
L 744 122
L 744 122
L 744 122
L 745 121
L 745 121
L 745 121
L 745 121
L 745 121
L 745 121
L 745 121
L 745 121
L 745 121
L 745 121
L 745 121
L 746 121
L 746 121
L 746 121
L 746 121
L 746 121
L 746 121
L 746 120
L 746 120
L 746 120
L 747 120
L 747 120
L 747 120
L 747 120
L 747 120
L 747 120
L 747 120
L 747 120
L 748 120
L 748 120
L 748 120
L 748 120
L 751 120
L 752 120
L 753 120
L 753 119
L 753 119
L 753 119
L 753 119
L 753 119
L 753 119
L 754 119
L 754 119
L 754 119
L 754 119
L 754 119
L 754 119
L 754 119
L 754 119
L 754 119
L 754 119
L 754 119
L 754 119
L 754 118
L 754 118
L 754 118
L 754 118
L 755 118
L 755 118
L 755 118
L 755 118
L 755 118
L 755 118
L 755 118
L 755 118
L 755 118
L 755 118
L 755 118
L 755 118
L 755 118
L 755 117
L 755 117
L 755 117
L 756 117
L 756 117
L 756 117
L 756 117
L 756 117
L 756 117
L 756 117
L 756 117
L 756 117
L 756 117
L 756 117
L 757 117
L 757 117
L 757 117
L 757 117
L 757 116
L 757 116
L 757 116
L 757 116
L 757 116
L 757 116
L 757 116
L 757 116
L 757 116
L 757 116
L 758 116
L 758 116
L 758 116
L 758 116
L 758 116
L 758 116
L 758 116
L 758 116
L 758 115
L 758 115
L 758 115
L 758 115
L 758 115
L 758 115
L 758 115
L 758 115
L 758 115
L 758 115
L 758 115
L 758 115
L 758 115
L 758 115
L 759 115
L 759 115
L 759 115
L 759 114
L 759 114
L 759 114
L 759 114
L 759 114
L 759 114
L 759 114
L 759 114
L 759 114
L 759 114
L 759 114
L 759 114
L 759 114
L 759 114
L 759 114
L 759 114
L 760 114
L 760 114
L 760 113
L 760 113
L 760 113
L 760 113
L 760 113
L 760 113
L 761 113
L 761 113
L 761 113
L 761 113
L 761 113
L 761 113
L 761 113
L 761 113
L 761 113
L 761 113
L 761 113
L 761 113
L 761 112
L 761 112
L 761 112
L 761 112
L 761 112
L 761 112
L 761 112
L 762 112
L 762 112
L 762 112
L 762 112
L 762 112
L 762 112
L 762 112
L 762 112
L 762 112
L 762 112
L 762 111
L 762 111
L 763 111
L 763 111
L 763 111
L 763 111
L 763 111
L 764 111
L 764 111
L 764 111
L 767 111
L 769 111
L 769 111
L 769 111
L 769 111
L 769 111
L 769 111
L 769 111
L 769 110
L 769 110
L 769 110
L 769 110
L 769 110
L 769 110
L 769 110
L 769 110
L 769 110
L 769 110
L 770 110
L 770 110
L 770 110
L 770 110
L 770 110
L 770 110
L 770 110
L 770 109
L 770 109
L 770 109
L 770 109
L 770 109
L 770 109
L 770 109
L 770 109
L 770 109
L 770 109
L 770 109
L 770 109
L 770 109
L 770 109
L 770 109
L 770 109
L 771 109
L 771 109
L 771 108
L 771 108
L 771 108
L 771 108
L 771 108
L 771 108
L 771 108
L 771 108
L 771 108
L 771 108
L 771 108
L 771 108
L 771 108
L 772 108
L 772 108
L 772 108
L 772 108
L 772 108
L 772 107
L 772 107
L 772 107
L 772 107
L 772 107
L 772 107
L 772 107
L 772 107
L 772 107
L 772 107
L 772 107
L 772 107
L 772 107
L 773 107
L 773 107
L 773 107
L 773 107
L 773 106
L 773 106
L 773 106
L 773 106
L 773 106
L 773 106
L 773 106
L 773 106
L 773 106
L 773 106
L 773 106
L 773 106
L 773 106
L 773 106
L 773 106
L 773 106
L 773 106
L 773 106
L 774 105
L 774 105
L 774 105
L 774 105
L 774 105
L 774 105
L 774 105
L 774 105
L 774 105
L 774 105
L 774 105
L 774 105
L 774 105
L 774 105
L 774 105
L 775 105
L 775 105
L 775 105
L 775 104
L 775 104
L 775 104
L 775 104
L 776 104
L 776 104
L 776 104
L 776 104
L 776 104
L 776 104
L 776 104
L 777 104
L 777 104
L 777 104
L 777 104
L 777 104
L 777 104
L 777 103
L 777 103
L 777 103
L 777 103
L 777 103
L 778 103
L 778 103
L 778 103
L 778 103
L 778 103
L 778 103
L 778 103
L 778 103
L 778 103
L 778 103
L 778 103
L 779 103
L 779 103
L 779 102
L 779 102
L 779 102
L 779 102
L 779 102
L 779 102
L 780 102
L 781 102
L 783 102
L 783 102
L 784 102
L 784 102
L 784 102
L 784 102
L 784 102
L 784 102
L 784 102
L 784 102
L 784 101
L 784 101
L 784 101
L 784 101
L 784 101
L 784 101
L 784 101
L 784 101
L 784 101
L 784 101
L 784 101
L 784 101
L 784 101
L 784 101
L 784 101
L 784 101
L 784 101
L 784 100
L 784 100
L 784 100
L 785 100
L 785 100
L 785 100
L 785 100
L 785 100
L 785 100
L 785 100
L 785 100
L 785 100
L 785 100
L 785 100
L 785 100
L 785 100
L 785 100
L 785 100
L 785 99
L 785 99
L 785 99
L 785 99
L 785 99
L 785 99
L 785 99
L 785 99
L 785 99
L 785 99
L 785 99
L 785 99
L 785 99
L 785 99
L 785 99
L 785 99
L 785 99
L 785 99
L 785 98
L 785 98
L 785 98
L 785 98
L 785 98
L 785 98
L 785 98
L 785 98
L 785 98
L 785 98
L 785 98
L 785 98
L 785 98
L 785 98
L 786 98
L 786 98
L 786 98
L 786 97
L 786 97
L 786 97
L 786 97
L 786 97
L 786 97
L 786 97
L 786 97
L 786 97
L 786 97
L 786 97
L 786 97
L 786 97
L 786 97
L 786 97
L 786 97
L 786 97
L 786 97
L 786 96
L 786 96
L 786 96
L 786 96
L 786 96
L 786 96
L 786 96
L 787 96
L 787 96
L 787 96
L 787 96
L 787 96
L 787 96
L 787 96
L 787 96
L 787 96
L 787 96
L 787 96
L 787 95
L 787 95
L 788 95
L 788 95
L 788 95
L 788 95
L 788 95
L 788 95
L 788 95
L 788 95
L 788 95
L 788 95
L 788 95
L 788 95
L 788 95
L 788 95
L 788 95
L 788 94
L 788 94
L 788 94
L 788 94
L 788 94
L 788 94
L 788 94
L 788 94
L 788 94
L 788 94
L 788 94
L 788 94
L 788 94
L 788 94
L 788 94
L 788 94
L 788 94
L 788 94
L 788 93
L 788 93
L 788 93
L 788 93
L 788 93
L 788 93
L 788 93
L 788 93
L 788 93
L 788 93
L 789 93
L 789 93
L 789 93
L 789 93
L 789 93
L 789 93
L 789 93
L 789 92
L 789 92
L 789 92
L 789 92
L 789 92
L 789 92
L 789 92
L 789 92
L 789 92
L 789 92
L 789 92
L 789 92
L 789 92
L 789 92
L 789 92
L 789 92
L 789 92
L 789 92
L 789 91
L 790 91
L 790 91
L 790 91
L 790 91
L 790 91
L 790 91
L 790 91
L 790 91
L 790 91
L 790 91
L 790 91
L 790 91
L 790 91
L 790 91
L 790 91
L 790 91
L 790 91
L 790 90
L 790 90
L 790 90
L 790 90
L 790 90
L 790 90
L 790 90
L 790 90
L 790 90
L 791 90
L 791 90
L 791 90
L 791 90
L 791 90
L 791 90
L 791 90
L 791 90
L 791 89
L 791 89
L 791 89
L 791 89
L 791 89
L 791 89
L 791 89
L 791 89
L 791 89
L 792 89
L 792 89
L 792 89
L 792 89
L 792 89
L 792 89
L 792 89
L 792 89
L 792 89
L 792 88
L 792 88
L 792 88
L 792 88
L 792 88
L 792 88
L 792 88
L 792 88
L 792 88
L 792 88
L 792 88
L 792 88
L 792 88
L 793 88
L 793 88
L 793 88
L 793 88
L 793 88
L 793 87
L 793 87
L 793 87
L 793 87
L 793 87
L 793 87
L 793 87
L 793 87
L 793 87
L 793 87
L 793 87
L 793 87
L 794 87
L 794 87
L 794 87
L 794 87
L 794 87
L 794 86
L 794 86
L 794 86
L 794 86
L 794 86
L 794 86
L 795 86
L 795 86
L 795 86
L 795 86
L 795 86
L 795 86
L 795 86
L 796 86
L 796 86
L 797 86
L 797 86
L 797 86
L 797 85
L 799 85
L 799 85
L 799 85
L 800 85
L 800 85
L 800 85
L 800 85
L 800 85
L 800 85
L 800 85
L 800 85
L 800 85
L 800 85
L 800 85
L 800 85
L 800 85
L 800 85
L 800 84
L 800 84
L 800 84
L 800 84
L 800 84
L 801 84
L 801 84
L 801 84
L 801 84
L 801 84
L 801 84
L 801 84
L 801 84
L 801 84
L 801 84
L 801 84
L 801 84
L 801 83
L 801 83
L 801 83
L 801 83
L 801 83
L 801 83
L 801 83
L 801 83
L 801 83
L 801 83
L 801 83
L 801 83
L 801 83
L 801 83
L 801 83
L 801 83
L 802 83
L 802 83
L 802 82
L 802 82
L 802 82
L 802 82
L 802 82
L 803 82
L 803 82
L 803 82
L 803 82
L 803 82
L 803 82
L 803 82
L 803 82
L 803 82
L 803 82
L 803 82
L 803 82
L 803 82
L 803 81
L 803 81
L 803 81
L 803 81
L 803 81
L 803 81
L 803 81
L 803 81
L 803 81
L 803 81
L 803 81
L 803 81
L 803 81
L 804 81
L 804 81
L 804 81
L 804 81
L 804 80
L 804 80
L 804 80
L 804 80
L 804 80
L 804 80
L 804 80
L 804 80
L 804 80
L 804 80
L 804 80
L 804 80
L 804 80
L 804 80
L 804 80
L 804 80
L 804 80
L 804 80
L 804 79
L 804 79
L 804 79
L 804 79
L 804 79
L 804 79
L 805 79
L 805 79
L 805 79
L 805 79
L 805 79
L 805 79
L 805 79
L 805 79
L 805 79
L 805 79
L 805 79
L 805 79
L 805 78
L 805 78
L 805 78
L 805 78
L 805 78
L 805 78
L 805 78
L 805 78
L 805 78
L 805 78
L 806 78
L 806 78
L 806 78
L 806 78
L 806 78
L 806 78
L 806 78
L 806 77
L 806 77
L 806 77
L 806 77
L 806 77
L 806 77
L 806 77
L 807 77
L 807 77
L 807 77
L 807 77
L 807 77
L 807 77
L 808 77
L 808 77
L 808 77
L 808 77
L 808 77
L 808 76
L 808 76
L 808 76
L 808 76
L 808 76
L 808 76
L 808 76
L 808 76
L 809 76
L 809 76
L 809 76
L 809 76
L 810 76
L 810 76
L 810 76
L 810 76
L 810 76
L 810 75
L 810 75
L 810 75
L 810 75
L 810 75
L 811 75
L 812 75
L 812 75
L 812 75
L 812 75
L 815 75
L 816 75
L 816 75
L 816 75
L 817 75
L 817 75
L 817 75
L 817 75
L 817 74
L 817 74
L 817 74
L 817 74
L 817 74
L 817 74
L 817 74
L 818 74
L 818 74
L 818 74
L 819 74
L 819 74
L 819 74
L 819 74
L 819 74
L 819 74
L 819 74
L 820 74
L 820 73
L 820 73
L 820 73
L 820 73
L 820 73
L 820 73
L 820 73
L 820 73
L 821 73
L 821 73
L 821 73
L 821 73
L 821 73
L 821 73
L 821 73
L 821 73
L 821 73
L 822 72
L 822 72
L 822 72
L 822 72
L 822 72
L 823 72
L 823 72
L 824 72
L 824 72
L 824 72
L 824 72
L 825 72
L 825 72
L 826 72
L 826 72
L 826 72
L 826 72
L 827 72
L 827 71
L 827 71
L 829 71
L 831 71
L 831 71
L 832 71
L 832 71
L 833 71
L 833 71
L 834 71
L 834 71
L 834 71
L 834 71
L 834 71
L 834 71
L 834 71
L 835 71
L 835 71
L 836 70
L 836 70
L 836 70
L 836 70
L 836 70
L 836 70
L 836 70
L 837 70
L 837 70
L 837 70
L 838 70
L 838 70
L 838 70
L 838 70
L 838 70
L 839 70
L 839 70
L 839 69
L 839 69
L 839 69
L 840 69
L 840 69
L 840 69
L 840 69
L 840 69
L 840 69
L 841 69
L 841 69
L 841 69
L 842 69
L 843 69
L 846 69
L 846 69
L 846 69
L 847 69
L 847 68
L 847 68
L 847 68
L 847 68
L 847 68
L 847 68
L 847 68
L 847 68
L 847 68
L 847 68
L 847 68
L 848 68
L 848 68
L 848 68
L 848 68
L 848 68
L 848 68
L 848 68
L 848 67
L 848 67
L 848 67
L 848 67
L 848 67
L 848 67
L 848 67
L 848 67
L 849 67
L 849 67
L 849 67
L 849 67
L 849 67
L 849 67
L 849 67
L 850 67
L 850 67
L 850 66
L 850 66
L 850 66
L 850 66
L 850 66
L 850 66
L 850 66
L 851 66
L 851 66
L 851 66
L 851 66
L 851 66
L 851 66
L 851 66
L 851 66
L 851 66
L 851 66
L 851 66
L 852 65
L 852 65
L 852 65
L 852 65
L 852 65
L 852 65
L 852 65
L 852 65
L 852 65
L 852 65
L 852 65
L 852 65
L 852 65
L 852 65
L 852 65
L 853 65
L 853 65
L 853 65
L 853 64
L 853 64
L 853 64
L 853 64
L 853 64
L 854 64
L 854 64
L 854 64
L 854 64
L 854 64
L 854 64
L 854 64
L 854 64
L 854 64
L 854 64
L 855 64
L 855 64
L 855 63
L 855 63
L 855 63
L 855 63
L 855 63
L 855 63
L 855 63
L 856 63
L 856 63
L 856 63
L 856 63
L 856 63
L 856 63
L 856 63
L 856 63
L 856 63
L 856 63
L 857 63
L 857 62
L 857 62
L 857 62
L 857 62
L 857 62
L 859 62
L 860 62
L 861 62
L 862 62
L 863 62
L 863 62
L 863 62
L 863 62
L 863 62
L 863 62
L 863 62
L 863 62
L 863 62
L 863 61
L 863 61
L 863 61
L 863 61
L 863 61
L 863 61
L 863 61
L 863 61
L 863 61
L 863 61
L 864 61
L 864 61
L 864 61
L 864 61
L 864 61
L 864 61
L 864 61
L 864 60
L 864 60
L 864 60
L 864 60
L 864 60
L 864 60
L 864 60
L 864 60
L 864 60
L 864 60
L 864 60
L 864 60
L 864 60
L 864 60
L 864 60
L 864 60
L 864 60
L 864 60
L 864 59
L 864 59
L 864 59
L 864 59
L 864 59
L 864 59
L 864 59
L 864 59
L 864 59
L 864 59
L 864 59
L 864 59
L 864 59
L 864 59
L 864 59
L 864 59
L 864 59
L 864 58
L 864 58
L 864 58
L 864 58
L 864 58
L 864 58
L 864 58
L 864 58
L 864 58
L 864 58
L 864 58
L 864 58
L 864 58
L 864 58
L 864 58
L 864 58
L 864 58
L 864 58
L 864 57
L 864 57
L 864 57
L 864 57
L 864 57
L 864 57
L 864 57
L 864 57
L 864 57
L 865 57
L 865 57
L 865 57
L 865 57
L 865 57
L 865 57
L 865 57
L 865 57
L 865 57
L 865 56
L 865 56
L 865 56
L 865 56
L 865 56
L 865 56
L 866 56
L 866 56
L 866 56
L 866 56
L 866 56
L 866 56
L 866 56
L 866 56
L 866 56
L 866 56
L 866 56
L 866 55
L 866 55
L 866 55
L 866 55
L 866 55
L 866 55
L 867 55
L 867 55
L 867 55
L 867 55
L 867 55
L 867 55
L 867 55
L 867 55
L 867 55
L 867 55
L 867 55
L 867 55
L 867 54
L 867 54
L 867 54
L 867 54
L 867 54
L 867 54
L 867 54
L 868 54
L 868 54
L 868 54
L 868 54
L 868 54
L 868 54
L 868 54
L 868 54
L 868 54
L 868 54
L 868 54
L 868 53
L 868 53
L 868 53
L 868 53
L 868 53
L 868 53
L 868 53
L 868 53
L 868 53
L 868 53
L 868 53
L 868 53
L 868 53
L 868 53
L 868 53
L 868 53
L 869 53
L 869 52
L 869 52
L 869 52
L 869 52
L 869 52
L 869 52
L 869 52
L 869 52
L 869 52
L 869 52
L 869 52
L 869 52
L 869 52
L 869 52
L 869 52
L 869 52
L 869 52
L 869 52
L 870 51
L 870 51
L 870 51
L 870 51
L 870 51
L 870 51
L 870 51
L 870 51
L 870 51
L 870 51
L 870 51
L 870 51
L 870 51
L 870 51
L 870 51
L 870 51
L 870 51
L 870 51
L 871 50
L 871 50
L 871 50
L 871 50
L 871 50
L 871 50
L 871 50
L 871 50
L 872 50
L 872 50
L 872 50
L 873 50
L 874 50
L 874 50
L 874 50
L 875 50
L 876 50
L 878 49
L 878 49
L 878 49
L 878 49
L 878 49
L 878 49
L 878 49
L 878 49
L 878 49
L 878 49
L 878 49
L 878 49
L 878 49
L 878 49
L 878 49
L 878 49
L 878 49
L 878 49
L 878 48
L 878 48
L 879 48
L 879 48
L 879 48
L 879 48
L 879 48
L 879 48
L 879 48
L 879 48
L 879 48
L 879 48
L 879 48
L 879 48
L 879 48
L 879 48
L 879 48
L 879 48
L 879 47
L 879 47
L 879 47
L 879 47
L 879 47
L 879 47
L 879 47
L 879 47
L 879 47
L 879 47
L 879 47
L 879 47
L 879 47
L 879 47
L 879 47
L 879 47
L 879 47
L 879 46
L 879 46
L 879 46
L 879 46
L 879 46
L 879 46
L 879 46
L 879 46
L 879 46
L 879 46
L 879 46
L 879 46
L 879 46
L 879 46
L 879 46
L 880 46
L 880 46
L 880 46
L 880 45
L 880 45
L 880 45
L 880 45
L 880 45
L 880 45
L 880 45
L 880 45
L 880 45
L 880 45
L 880 45
L 880 45
L 880 45
L 880 45
L 880 45
L 880 45
L 880 45
L 880 45
L 880 44
L 880 44
L 880 44
L 881 44
L 881 44
L 881 44
L 881 44
L 881 44
L 881 44
L 881 44
L 881 44
L 881 44
L 881 44
L 881 44
L 881 44
L 881 44
L 881 44
L 881 43
L 881 43
L 881 43
L 881 43
L 881 43
L 881 43
L 881 43
L 881 43
L 881 43
L 881 43
L 881 43
L 881 43
L 881 43
L 881 43
L 882 43
L 882 43
L 882 43
L 882 43
L 882 42
L 882 42
L 882 42
L 882 42
L 882 42
L 882 42
L 882 42
L 882 42
L 882 42
L 882 42
L 882 42
L 882 42
L 882 42
L 882 42
L 882 42
L 882 42
L 882 42
L 882 41
L 882 41
L 882 41
L 882 41
L 883 41
L 883 41
L 883 41
L 883 41
L 883 41
L 883 41
L 883 41
L 883 41
L 883 41
L 883 41
L 883 41
L 883 41
L 883 41
L 883 41
L 883 40
L 883 40
L 883 40
L 883 40
L 883 40
L 883 40
L 883 40
L 883 40
L 883 40
L 883 40
L 883 40
L 883 40
L 883 40
L 883 40
L 883 40
L 884 40
L 884 40
L 884 40
L 884 39
L 884 39
L 884 39
L 884 39
L 884 39
L 884 39
L 884 39
L 884 39
L 884 39
L 884 39
L 884 39
L 884 39
L 884 39
L 884 39
L 884 39
L 884 39
L 884 39
L 884 38
L 885 38
L 885 38
L 885 38
L 885 38
L 885 38
L 885 38
L 885 38
L 885 38
L 885 38
L 885 38
L 885 38
L 885 38
L 886 38
L 886 38
L 886 38
L 886 38
L 886 38
L 887 37
L 887 37
L 887 37
L 887 37
L 887 37
L 887 37
L 887 37
L 887 37
L 887 37
L 887 37
L 887 37
L 888 37
L 888 37
L 888 37
L 888 37
L 888 37
L 888 37
L 889 37
L 889 36
L 889 36
L 892 36
L 892 36
L 892 36
L 892 36
L 893 36
L 893 36
L 894 36
L 894 36
L 894 36
L 894 36
L 894 36
L 894 36
L 894 36
L 894 36
L 894 36
L 894 35
L 894 35
L 894 35
L 894 35
L 894 35
L 894 35
L 894 35
L 894 35
L 894 35
L 894 35
L 894 35
L 894 35
L 894 35
L 894 35
L 894 35
L 894 35
L 895 35
L 895 35
L 895 34
L 895 34
L 895 34
L 895 34
L 895 34
L 895 34
L 895 34
L 895 34
L 895 34
L 895 34
L 895 34
L 895 34
L 895 34
L 895 34
L 895 34
L 895 34
L 895 34
L 895 34
L 895 33
L 895 33
L 895 33
L 895 33
L 895 33
L 895 33
L 895 33
L 896 33
L 896 33
L 896 33
L 896 33
L 896 33
L 896 33
L 896 33
L 896 33
L 896 33
L 896 33
L 896 32
L 896 32
L 896 32
L 896 32
L 897 32
L 897 32
L 897 32
L 897 32
L 897 32
L 897 32
L 897 32
L 897 32
L 897 32
L 897 32
L 897 32
L 897 32
L 897 32
L 897 32
L 897 31
L 897 31
L 897 31
L 897 31
L 897 31
L 897 31
L 898 31
L 898 31
L 898 31
L 898 31
L 898 31
L 898 31
L 898 31
L 898 31
L 898 31
L 898 31
L 898 31
L 898 31
L 898 30
L 898 30
L 898 30
L 898 30
L 898 30
L 898 30
L 898 30
L 899 30
L 899 30
L 899 30
L 899 30
L 899 30
L 899 30
L 899 30
L 899 30
L 899 30
L 899 30
L 899 29
L 899 29
L 899 29
L 899 29
L 899 29
L 899 29
L 899 29
L 899 29
L 899 29
L 899 29
L 900 29
L 900 29
L 900 29
L 900 29
L 900 29
L 900 29
L 900 29
L 900 29
L 900 28
L 900 28
L 900 28
L 900 28
L 900 28
L 900 28
L 901 28
L 901 28
L 901 28
L 901 28
L 901 28
L 902 28
L 902 28
L 902 28
L 902 28
L 902 28
L 902 28
L 902 28
L 903 27
L 903 27
L 903 27
L 903 27
L 903 27
L 903 27
L 903 27
L 903 27
L 904 27
L 904 27
L 904 27
L 904 27
L 904 27
L 905 27
L 905 27
L 908 27
L 909 27
L 909 26
L 909 26
L 909 26
L 909 26
L 909 26
L 909 26
L 909 26
L 910 26
L 910 26
L 910 26
L 910 26
L 910 26
L 910 26
L 910 26
L 910 26
L 910 26
L 910 26
L 910 26
L 910 25
L 910 25
L 910 25
L 910 25
L 910 25
L 910 25
L 910 25
L 910 25
L 910 25
L 910 25
L 910 25
L 910 25
L 911 25
L 911 25
L 911 25
L 911 25
L 911 25
L 911 24
L 911 24
L 911 24
L 911 24
L 911 24
L 911 24
L 911 24
L 911 24
L 911 24
L 911 24
L 911 24
L 911 24
L 911 24
L 911 24
L 911 24
L 911 24
L 912 24
L 912 24
L 912 23
L 912 23
L 912 23
L 912 23
L 912 23
L 913 23
L 913 23
L 913 23
L 913 23
L 913 23
L 913 23
L 913 23
L 913 23
L 913 23
L 913 23
L 913 23
L 913 23
L 913 23
L 913 22
L 913 22
L 913 22
L 914 22
L 914 22
L 914 22
L 914 22
L 914 22
L 914 22
L 914 22
L 914 22
L 914 22
L 914 22
L 914 22
L 914 22
L 914 22
L 914 22
L 914 21
L 914 21
L 914 21
L 915 21
L 915 21
L 915 21
L 915 21
L 915 21
L 915 21
L 915 21
L 915 21
L 915 21
L 915 21
L 915 21
L 915 21
L 916 21
L 916 21
L 916 21
L 916 20
L 916 20
L 916 20
L 916 20
L 916 20
L 916 20
L 916 20
L 916 20
L 916 20
L 916 20
L 917 20
L 917 20
L 917 20
L 917 20
L 917 20
L 918 20
L 918 20
L 918 20
L 918 19
L 919 19
L 919 19
L 919 19
L 919 19
L 919 19
L 923 19
L 925 19
L 925 19
L 926 19
L 926 19
L 926 19
L 927 19
L 927 19
L 927 19
L 927 19
L 927 19
L 928 18
L 928 18
L 928 18
L 928 18
L 928 18
L 928 18
L 929 18
L 929 18
L 929 18
L 929 18
L 929 18
L 930 18
L 930 18
L 930 18
L 931 18
L 931 18
L 932 18
L 932 18
L 932 17
L 932 17
L 932 17
L 932 17
L 932 17
L 932 17
L 933 17
L 933 17
L 933 17
L 933 17
L 933 17
L 933 17
L 933 17
L 933 17
L 933 17
L 933 17
L 934 17
L 934 17
L 934 16
L 934 16
L 934 16
L 934 16
L 934 16
L 934 16
L 934 16
L 934 16
L 935 16
L 935 16
L 935 16
L 935 16
L 935 16
L 935 16
L 935 16
L 936 16
L 936 16
L 936 15
L 936 15
L 937 15
L 937 15
L 939 15
L 940 15
L 940 15
L 941 15
L 941 15
L 941 15
L 941 15
L 942 15
L 942 15
L 942 15
L 942 15
L 942 15
L 942 15
L 943 15
L 943 14
L 943 14
L 943 14
L 943 14
L 943 14
L 943 14
L 944 14
L 944 14
L 945 14
L 945 14
L 946 14
L 947 14
L 948 14
L 948 14
L 948 14
L 948 14
L 948 14
L 948 14
L 949 13
L 949 13
L 949 13
L 949 13
L 949 13
L 949 13
L 949 13
L 949 13
L 949 13
L 949 13
L 950 13
L 950 13
L 950 13
L 950 13
L 950 13
L 951 13
L 951 13
L 954 12
L 954 12
L 956 12
L 956 12
L 956 12
L 956 12
L 956 12
L 956 12
L 956 12
L 956 12
L 956 12
L 956 12
L 956 12
L 956 12
L 957 12
L 957 12
L 957 12
L 957 12
L 957 11
L 957 11
L 957 11
L 957 11
L 957 11
L 957 11
L 957 11
L 957 11
L 957 11
L 957 11
L 957 11
L 957 11
L 957 11
L 957 11
L 957 11
L 957 11
L 957 11" style="stroke-width:2;stroke:rgba(129,199,239,1.0);fill:none"/></svg>