<svg xmlns="http://www.w3.org/2000/svg" xmlns:xlink="http://www.w3.org/1999/xlink" width="1024" height="400">\n<path  d="M 0 0
L 1024 0
L 1024 400
L 0 400
L 0 0" style="stroke-width:0;stroke:rgba(255,255,255,1.0);fill:rgba(255,255,255,1.0)"/><path  d="M 38 11
L 957 11
L 957 351
L 38 351
L 38 11" style="stroke-width:0;stroke:rgba(255,255,255,1.0);fill:rgba(255,255,255,1.0)"/><path  d="M 38 351
L 957 351" style="stroke-width:2;stroke:rgba(85,85,85,1.0);fill:none"/><path  d="M 38 351
L 38 356" style="stroke-width:2;stroke:rgba(85,85,85,1.0);fill:none"/><text x="5" y="373" style="stroke-width:0;stroke:none;fill:rgba(51,51,51,1.0);font-size:12.8px;font-family:'Roboto Medium',sans-serif">2018-11-23</text><path  d="M 153 351
L 153 356" style="stroke-width:2;stroke:rgba(85,85,85,1.0);fill:none"/><text x="120" y="373" style="stroke-width:0;stroke:none;fill:rgba(51,51,51,1.0);font-size:12.8px;font-family:'Roboto Medium',sans-serif">2018-11-30</text><path  d="M 268 351
L 268 356" style="stroke-width:2;stroke:rgba(85,85,85,1.0);fill:none"/><text x="235" y="373" style="stroke-width:0;stroke:none;fill:rgba(51,51,51,1.0);font-size:12.8px;font-family:'Roboto Medium',sans-serif">2018-12-08</text><path  d="M 383 351
L 383 356" style="stroke-width:2;stroke:rgba(85,85,85,1.0);fill:none"/><text x="350" y="373" style="stroke-width:0;stroke:none;fill:rgba(51,51,51,1.0);font-size:12.8px;font-family:'Roboto Medium',sans-serif">2018-12-16</text><path  d="M 498 351
L 498 356" style="stroke-width:2;stroke:rgba(85,85,85,1.0);fill:none"/><text x="465" y="373" style="stroke-width:0;stroke:none;fill:rgba(51,51,51,1.0);font-size:12.8px;font-family:'Roboto Medium',sans-serif">2018-12-23</text><path  d="M 613 351
L 613 356" style="stroke-width:2;stroke:rgba(85,85,85,1.0);fill:none"/><text x="580" y="373" style="stroke-width:0;stroke:none;fill:rgba(51,51,51,1.0);font-size:12.8px;font-family:'Roboto Medium',sans-serif">2018-12-31</text><path  d="M 728 351
L 728 356" style="stroke-width:2;stroke:rgba(85,85,85,1.0);fill:none"/><text x="695" y="373" style="stroke-width:0;stroke:none;fill:rgba(51,51,51,1.0);font-size:12.8px;font-family:'Roboto Medium',sans-serif">2019-01-08</text><path  d="M 843 351
L 843 356" style="stroke-width:2;stroke:rgba(85,85,85,1.0);fill:none"/><text x="810" y="373" style="stroke-width:0;stroke:none;fill:rgba(51,51,51,1.0);font-size:12.8px;font-family:'Roboto Medium',sans-serif">2019-01-15</text><path  d="M 957 351
L 957 356" style="stroke-width:2;stroke:rgba(85,85,85,1.0);fill:none"/><text x="924" y="373" style="stroke-width:0;stroke:none;fill:rgba(51,51,51,1.0);font-size:12.8px;font-family:'Roboto Medium',sans-serif">2019-01-23</text><text x="483" y="395" style="stroke-width:0;stroke:none;fill:rgba(51,51,51,1.0);font-size:12.8px;font-family:'Roboto Medium',sans-serif">Time</text><path  d="M 959 351
L 959 11" style="stroke-width:2;stroke:rgba(85,85,85,1.0);fill:none"/><path  d="M 959 351
L 964 351" style="stroke-width:2;stroke:rgba(85,85,85,1.0);fill:none"/><text x="969" y="357" style="stroke-width:0;stroke:none;fill:rgba(51,51,51,1.0);font-size:12.8px;font-family:'Roboto Medium',sans-serif">0</text><path  d="M 959 308
L 964 308" style="stroke-width:2;stroke:rgba(85,85,85,1.0);fill:none"/><text x="969" y="314" style="stroke-width:0;stroke:none;fill:rgba(51,51,51,1.0);font-size:12.8px;font-family:'Roboto Medium',sans-serif">800</text><path  d="M 959 266
L 964 266" style="stroke-width:2;stroke:rgba(85,85,85,1.0);fill:none"/><text x="969" y="272" style="stroke-width:0;stroke:none;fill:rgba(51,51,51,1.0);font-size:12.8px;font-family:'Roboto Medium',sans-serif">1600</text><path  d="M 959 223
L 964 223" style="stroke-width:2;stroke:rgba(85,85,85,1.0);fill:none"/><text x="969" y="229" style="stroke-width:0;stroke:none;fill:rgba(51,51,51,1.0);font-size:12.8px;font-family:'Roboto Medium',sans-serif">2400</text><path  d="M 959 181
L 964 181" style="stroke-width:2;stroke:rgba(85,85,85,1.0);fill:none"/><text x="969" y="187" style="stroke-width:0;stroke:none;fill:rgba(51,51,51,1.0);font-size:12.8px;font-family:'Roboto Medium',sans-serif">3200</text><path  d="M 959 138
L 964 138" style="stroke-width:2;stroke:rgba(85,85,85,1.0);fill:none"/><text x="969" y="144" style="stroke-width:0;stroke:none;fill:rgba(51,51,51,1.0);font-size:12.8px;font-family:'Roboto Medium',sans-serif">4000</text><path  d="M 959 96
L 964 96" style="stroke-width:2;stroke:rgba(85,85,85,1.0);fill:none"/><text x="969" y="102" style="stroke-width:0;stroke:none;fill:rgba(51,51,51,1.0);font-size:12.8px;font-family:'Roboto Medium',sans-serif">4800</text><path  d="M 959 53
L 964 53" style="stroke-width:2;stroke:rgba(85,85,85,1.0);fill:none"/><text x="969" y="59" style="stroke-width:0;stroke:none;fill:rgba(51,51,51,1.0);font-size:12.8px;font-family:'Roboto Medium',sans-serif">5600</text><path  d="M 959 11
L 964 11" style="stroke-width:2;stroke:rgba(85,85,85,1.0);fill:none"/><text x="969" y="17" style="stroke-width:0;stroke:none;fill:rgba(51,51,51,1.0);font-size:12.8px;font-family:'Roboto Medium',sans-serif">6400</text><text x="1009" y="150" style="stroke-width:0;stroke:none;fill:rgba(51,51,51,1.0);font-size:12.8px;font-family:'Roboto Medium',sans-serif" transform="rotate(90.00,1009,150)">Stargazers</text><path  d="M 38 351
L 117 350
L 172 350
L 175 350
L 186 350
L 186 350
L 186 350
L 187 350
L 188 350
L 188 350
L 188 350
L 188 350
L 188 350
L 189 350
L 189 350
L 189 350
L 189 350
L 189 350
L 189 350
L 189 349
L 190 349
L 190 349
L 192 349
L 193 349
L 201 349
L 202 349
L 202 349
L 202 349
L 203 349
L 204 349
L 206 349
L 207 349
L 208 349
L 208 349
L 208 349
L 209 349
L 209 349
L 209 349
L 213 348
L 215 348
L 216 348
L 216 348
L 216 348
L 216 348
L 216 348
L 217 348
L 217 348
L 217 348
L 217 348
L 217 348
L 219 348
L 220 348
L 220 348
L 220 348
L 220 348
L 221 348
L 221 348
L 221 347
L 222 347
L 222 347
L 222 347
L 223 347
L 223 347
L 223 347
L 224 347
L 224 347
L 225 347
L 225 347
L 225 347
L 229 347
L 231 347
L 231 347
L 231 347
L 231 347
L 232 347
L 232 347
L 232 346
L 232 346
L 233 346
L 233 346
L 233 346
L 233 346
L 233 346
L 233 346
L 233 346
L 233 346
L 233 346
L 233 346
L 233 346
L 233 346
L 233 346
L 233 346
L 233 346
L 233 346
L 233 346
L 233 345
L 233 345
L 233 345
L 234 345
L 234 345
L 234 345
L 234 345
L 234 345
L 234 345
L 234 345
L 234 345
L 234 345
L 234 345
L 234 345
L 234 345
L 234 345
L 234 345
L 234 345
L 234 344
L 234 344
L 234 344
L 234 344
L 234 344
L 234 344
L 234 344
L 234 344
L 234 344
L 234 344
L 234 344
L 234 344
L 235 344
L 235 344
L 235 344
L 235 344
L 235 344
L 235 344
L 235 344
L 235 343
L 235 343
L 236 343
L 236 343
L 236 343
L 236 343
L 236 343
L 236 343
L 236 343
L 236 343
L 236 343
L 237 343
L 237 343
L 237 343
L 237 343
L 237 343
L 237 343
L 237 343
L 237 343
L 238 342
L 238 342
L 238 342
L 238 342
L 240 342
L 241 342
L 245 342
L 245 342
L 246 342
L 246 342
L 246 342
L 246 342
L 246 342
L 247 342
L 247 342
L 248 342
L 248 342
L 248 342
L 248 342
L 249 341
L 249 341
L 249 341
L 249 341
L 250 341
L 250 341
L 251 341
L 251 341
L 251 341
L 251 341
L 251 341
L 251 341
L 252 341
L 260 341
L 261 341
L 261 341
L 261 341
L 261 341
L 262 341
L 263 340
L 265 340
L 265 340
L 269 340
L 270 340
L 270 340
L 272 340
L 277 340
L 277 340
L 279 340
L 280 340
L 280 340
L 281 340
L 281 340
L 282 340
L 282 340
L 282 340
L 282 340
L 282 340
L 283 339
L 283 339
L 286 339
L 290 339
L 290 339
L 290 339
L 292 339
L 292 339
L 292 339
L 294 339
L 295 339
L 295 339
L 299 339
L 299 339
L 306 339
L 308 339
L 309 339
L 309 339
L 309 338
L 312 338
L 312 338
L 320 338
L 321 338
L 321 338
L 321 338
L 322 338
L 324 338
L 324 338
L 326 338
L 327 338
L 327 338
L 329 338
L 331 338
L 336 338
L 341 338
L 342 338
L 349 338
L 351 337
L 352 337
L 354 337
L 354 337
L 354 337
L 355 337
L 357 337
L 357 337
L 358 337
L 358 337
L 359 337
L 361 337
L 363 337
L 366 337
L 368 337
L 368 337
L 369 337
L 369 337
L 369 337
L 370 336
L 371 336
L 372 336
L 373 336
L 374 336
L 374 336
L 375 336
L 381 336
L 381 336
L 381 336
L 382 336
L 384 336
L 387 336
L 387 336
L 388 336
L 389 336
L 394 336
L 395 336
L 395 336
L 396 335
L 396 335
L 397 335
L 400 335
L 400 335
L 402 335
L 404 335
L 410 335
L 412 335
L 414 335
L 414 335
L 415 335
L 415 335
L 416 335
L 417 335
L 418 335
L 419 335
L 420 335
L 425 335
L 426 334
L 428 334
L 428 334
L 428 334
L 429 334
L 429 334
L 429 334
L 432 334
L 440 334
L 440 334
L 440 334
L 441 334
L 443 334
L 443 334
L 445 334
L 445 334
L 445 334
L 448 334
L 448 334
L 448 333
L 448 333
L 448 333
L 450 333
L 455 333
L 456 333
L 456 333
L 456 333
L 456 333
L 457 333
L 457 333
L 457 333
L 457 333
L 457 333
L 458 333
L 458 333
L 459 333
L 459 333
L 459 332
L 459 332
L 459 332
L 459 332
L 459 332
L 459 332
L 459 332
L 459 332
L 459 332
L 459 332
L 459 332
L 459 332
L 459 332
L 459 332
L 459 332
L 459 332
L 459 332
L 460 332
L 460 332
L 460 331
L 460 331
L 460 331
L 460 331
L 460 331
L 460 331
L 460 331
L 460 331
L 460 331
L 460 331
L 460 331
L 460 331
L 460 331
L 460 331
L 460 331
L 460 331
L 461 331
L 461 331
L 461 331
L 461 330
L 461 330
L 461 330
L 461 330
L 461 330
L 461 330
L 461 330
L 461 330
L 461 330
L 461 330
L 462 330
L 462 330
L 462 330
L 462 330
L 462 330
L 463 330
L 463 330
L 463 330
L 463 330
L 463 329
L 463 329
L 463 329
L 463 329
L 463 329
L 463 329
L 464 329
L 464 329
L 464 329
L 464 329
L 465 329
L 465 329
L 465 329
L 470 329
L 470 329
L 471 329
L 471 329
L 471 329
L 471 329
L 471 328
L 471 328
L 471 328
L 471 328
L 471 328
L 471 328
L 471 328
L 471 328
L 472 328
L 472 328
L 472 328
L 472 328
L 472 328
L 472 328
L 472 328
L 472 328
L 472 328
L 473 328
L 473 327
L 473 327
L 473 327
L 473 327
L 473 327
L 473 327
L 473 327
L 473 327
L 474 327
L 474 327
L 474 327
L 474 327
L 474 327
L 474 327
L 474 327
L 474 327
L 474 327
L 474 327
L 474 327
L 474 326
L 474 326
L 474 326
L 474 326
L 475 326
L 475 326
L 475 326
L 475 326
L 475 326
L 475 326
L 475 326
L 475 326
L 475 326
L 475 326
L 475 326
L 475 326
L 475 326
L 475 326
L 475 326
L 475 325
L 475 325
L 475 325
L 476 325
L 476 325
L 476 325
L 476 325
L 476 325
L 476 325
L 476 325
L 476 325
L 477 325
L 477 325
L 477 325
L 477 325
L 477 325
L 477 325
L 477 325
L 477 325
L 477 324
L 477 324
L 477 324
L 478 324
L 478 324
L 478 324
L 478 324
L 478 324
L 478 324
L 478 324
L 478 324
L 478 324
L 478 324
L 478 324
L 478 324
L 478 324
L 478 324
L 478 324
L 479 324
L 479 323
L 479 323
L 479 323
L 479 323
L 479 323
L 479 323
L 479 323
L 479 323
L 479 323
L 479 323
L 479 323
L 479 323
L 479 323
L 479 323
L 479 323
L 479 323
L 479 323
L 480 323
L 480 323
L 480 322
L 480 322
L 480 322
L 480 322
L 480 322
L 480 322
L 481 322
L 481 322
L 481 322
L 482 322
L 484 322
L 484 322
L 485 322
L 485 322
L 485 322
L 485 322
L 485 322
L 485 322
L 485 321
L 485 321
L 486 321
L 486 321
L 486 321
L 486 321
L 486 321
L 486 321
L 486 321
L 486 321
L 486 321
L 486 321
L 486 321
L 486 321
L 486 321
L 486 321
L 486 321
L 486 321
L 486 321
L 487 320
L 487 320
L 487 320
L 487 320
L 487 320
L 487 320
L 487 320
L 487 320
L 487 320
L 487 320
L 487 320
L 487 320
L 487 320
L 487 320
L 487 320
L 487 320
L 488 320
L 488 320
L 488 320
L 488 319
L 488 319
L 488 319
L 488 319
L 488 319
L 488 319
L 488 319
L 488 319
L 488 319
L 488 319
L 488 319
L 488 319
L 489 319
L 489 319
L 489 319
L 489 319
L 489 319
L 489 319
L 489 319
L 489 318
L 489 318
L 489 318
L 489 318
L 489 318
L 489 318
L 489 318
L 489 318
L 489 318
L 489 318
L 489 318
L 489 318
L 489 318
L 490 318
L 490 318
L 490 318
L 490 318
L 490 318
L 490 318
L 490 317
L 490 317
L 490 317
L 490 317
L 490 317
L 490 317
L 490 317
L 491 317
L 491 317
L 491 317
L 491 317
L 491 317
L 491 317
L 491 317
L 491 317
L 492 317
L 492 317
L 492 317
L 492 317
L 492 316
L 492 316
L 492 316
L 492 316
L 492 316
L 492 316
L 492 316
L 492 316
L 492 316
L 492 316
L 492 316
L 492 316
L 492 316
L 492 316
L 492 316
L 492 316
L 492 316
L 493 316
L 493 315
L 493 315
L 493 315
L 493 315
L 493 315
L 493 315
L 493 315
L 493 315
L 493 315
L 493 315
L 493 315
L 493 315
L 493 315
L 493 315
L 493 315
L 493 315
L 493 315
L 493 315
L 493 315
L 493 314
L 494 314
L 494 314
L 494 314
L 494 314
L 494 314
L 494 314
L 494 314
L 494 314
L 494 314
L 494 314
L 494 314
L 494 314
L 494 314
L 494 314
L 494 314
L 495 314
L 495 314
L 495 314
L 495 313
L 495 313
L 495 313
L 495 313
L 495 313
L 495 313
L 496 313
L 496 313
L 496 313
L 496 313
L 496 313
L 498 313
L 499 313
L 499 313
L 499 313
L 499 313
L 499 313
L 500 313
L 500 313
L 500 312
L 500 312
L 500 312
L 500 312
L 500 312
L 500 312
L 500 312
L 500 312
L 500 312
L 500 312
L 500 312
L 500 312
L 500 312
L 500 312
L 500 312
L 500 312
L 500 312
L 500 312
L 500 312
L 500 311
L 500 311
L 500 311
L 500 311
L 500 311
L 500 311
L 500 311
L 500 311
L 500 311
L 500 311
L 500 311
L 500 311
L 500 311
L 500 311
L 500 311
L 500 311
L 500 311
L 500 311
L 500 310
L 500 310
L 500 310
L 500 310
L 500 310
L 500 310
L 500 310
L 500 310
L 500 310
L 500 310
L 500 310
L 500 310
L 500 310
L 500 310
L 500 310
L 500 310
L 500 310
L 500 310
L 500 310
L 500 309
L 500 309
L 501 309
L 501 309
L 501 309
L 501 309
L 501 309
L 501 309
L 501 309
L 501 309
L 501 309
L 501 309
L 501 309
L 501 309
L 501 309
L 501 309
L 501 309
L 501 309
L 501 309
L 501 308
L 501 308
L 501 308
L 501 308
L 501 308
L 501 308
L 501 308
L 501 308
L 501 308
L 501 308
L 501 308
L 501 308
L 501 308
L 501 308
L 501 308
L 501 308
L 501 308
L 501 308
L 501 308
L 501 307
L 501 307
L 501 307
L 501 307
L 501 307
L 501 307
L 501 307
L 501 307
L 501 307
L 501 307
L 501 307
L 501 307
L 501 307
L 501 307
L 501 307
L 501 307
L 501 307
L 501 307
L 501 307
L 501 306
L 501 306
L 501 306
L 502 306
L 502 306
L 502 306
L 502 306
L 502 306
L 502 306
L 502 306
L 502 306
L 502 306
L 502 306
L 502 306
L 502 306
L 502 306
L 502 306
L 502 306
L 502 306
L 502 305
L 502 305
L 502 305
L 502 305
L 502 305
L 502 305
L 502 305
L 502 305
L 502 305
L 502 305
L 502 305
L 502 305
L 502 305
L 502 305
L 502 305
L 502 305
L 502 305
L 502 305
L 503 304
L 503 304
L 503 304
L 503 304
L 503 304
L 503 304
L 503 304
L 503 304
L 503 304
L 503 304
L 503 304
L 503 304
L 503 304
L 503 304
L 503 304
L 503 304
L 503 304
L 503 304
L 503 304
L 503 303
L 503 303
L 503 303
L 503 303
L 503 303
L 503 303
L 503 303
L 503 303
L 503 303
L 503 303
L 503 303
L 503 303
L 503 303
L 503 303
L 503 303
L 503 303
L 503 303
L 503 303
L 503 303
L 503 302
L 503 302
L 503 302
L 503 302
L 503 302
L 503 302
L 503 302
L 503 302
L 503 302
L 503 302
L 503 302
L 503 302
L 503 302
L 503 302
L 503 302
L 503 302
L 503 302
L 503 302
L 503 302
L 504 301
L 504 301
L 504 301
L 504 301
L 504 301
L 504 301
L 504 301
L 504 301
L 504 301
L 504 301
L 504 301
L 504 301
L 504 301
L 504 301
L 504 301
L 504 301
L 504 301
L 504 301
L 504 301
L 504 300
L 504 300
L 504 300
L 504 300
L 504 300
L 504 300
L 504 300
L 504 300
L 504 300
L 504 300
L 504 300
L 504 300
L 504 300
L 504 300
L 504 300
L 504 300
L 504 300
L 504 300
L 504 300
L 504 299
L 504 299
L 504 299
L 504 299
L 504 299
L 504 299
L 504 299
L 504 299
L 504 299
L 504 299
L 504 299
L 504 299
L 504 299
L 504 299
L 505 299
L 505 299
L 505 299
L 505 299
L 505 298
L 505 298
L 505 298
L 505 298
L 505 298
L 505 298
L 505 298
L 505 298
L 505 298
L 505 298
L 505 298
L 505 298
L 505 298
L 505 298
L 505 298
L 505 298
L 505 298
L 505 298
L 505 298
L 505 297
L 505 297
L 505 297
L 505 297
L 505 297
L 505 297
L 505 297
L 505 297
L 505 297
L 505 297
L 505 297
L 505 297
L 505 297
L 505 297
L 505 297
L 505 297
L 505 297
L 505 297
L 506 297
L 506 296
L 506 296
L 506 296
L 506 296
L 506 296
L 506 296
L 506 296
L 506 296
L 506 296
L 506 296
L 506 296
L 506 296
L 506 296
L 506 296
L 506 296
L 506 296
L 506 296
L 506 296
L 506 296
L 506 295
L 506 295
L 506 295
L 506 295
L 506 295
L 506 295
L 506 295
L 506 295
L 506 295
L 506 295
L 506 295
L 506 295
L 506 295
L 506 295
L 506 295
L 507 295
L 507 295
L 507 295
L 507 295
L 507 294
L 507 294
L 507 294
L 507 294
L 507 294
L 507 294
L 507 294
L 507 294
L 507 294
L 507 294
L 507 294
L 507 294
L 507 294
L 507 294
L 507 294
L 507 294
L 507 294
L 507 294
L 507 293
L 507 293
L 508 293
L 508 293
L 508 293
L 508 293
L 508 293
L 508 293
L 508 293
L 508 293
L 508 293
L 508 293
L 508 293
L 508 293
L 508 293
L 508 293
L 508 293
L 508 293
L 509 293
L 509 292
L 509 292
L 509 292
L 509 292
L 509 292
L 509 292
L 509 292
L 509 292
L 509 292
L 509 292
L 509 292
L 509 292
L 509 292
L 509 292
L 509 292
L 509 292
L 509 292
L 509 292
L 509 292
L 509 291
L 510 291
L 510 291
L 510 291
L 510 291
L 510 291
L 510 291
L 510 291
L 511 291
L 511 291
L 512 291
L 514 291
L 514 291
L 514 291
L 514 291
L 514 291
L 515 291
L 515 291
L 515 291
L 515 290
L 515 290
L 515 290
L 515 290
L 515 290
L 515 290
L 515 290
L 515 290
L 515 290
L 515 290
L 515 290
L 515 290
L 515 290
L 515 290
L 515 290
L 515 290
L 515 290
L 515 290
L 515 290
L 515 289
L 515 289
L 515 289
L 515 289
L 515 289
L 515 289
L 515 289
L 515 289
L 515 289
L 515 289
L 515 289
L 515 289
L 515 289
L 515 289
L 515 289
L 516 289
L 516 289
L 516 289
L 516 289
L 516 288
L 516 288
L 516 288
L 516 288
L 516 288
L 516 288
L 516 288
L 516 288
L 516 288
L 516 288
L 516 288
L 516 288
L 516 288
L 516 288
L 516 288
L 516 288
L 516 288
L 516 288
L 516 287
L 516 287
L 516 287
L 516 287
L 516 287
L 516 287
L 516 287
L 516 287
L 516 287
L 516 287
L 516 287
L 516 287
L 516 287
L 516 287
L 516 287
L 516 287
L 516 287
L 516 287
L 516 287
L 516 286
L 516 286
L 516 286
L 516 286
L 516 286
L 516 286
L 516 286
L 516 286
L 516 286
L 516 286
L 516 286
L 516 286
L 516 286
L 516 286
L 516 286
L 516 286
L 516 286
L 516 286
L 516 286
L 516 285
L 516 285
L 516 285
L 516 285
L 516 285
L 516 285
L 516 285
L 516 285
L 516 285
L 516 285
L 516 285
L 516 285
L 516 285
L 516 285
L 516 285
L 516 285
L 516 285
L 516 285
L 516 285
L 516 284
L 516 284
L 516 284
L 516 284
L 516 284
L 516 284
L 516 284
L 516 284
L 516 284
L 516 284
L 516 284
L 516 284
L 516 284
L 517 284
L 517 284
L 517 284
L 517 284
L 517 284
L 517 284
L 517 283
L 517 283
L 517 283
L 517 283
L 517 283
L 517 283
L 517 283
L 517 283
L 517 283
L 517 283
L 517 283
L 517 283
L 517 283
L 517 283
L 517 283
L 517 283
L 517 283
L 517 283
L 517 283
L 517 282
L 517 282
L 518 282
L 518 282
L 518 282
L 518 282
L 518 282
L 518 282
L 518 282
L 518 282
L 518 282
L 518 282
L 518 282
L 518 282
L 518 282
L 518 282
L 518 282
L 518 282
L 518 281
L 518 281
L 518 281
L 518 281
L 518 281
L 518 281
L 518 281
L 518 281
L 518 281
L 518 281
L 518 281
L 518 281
L 518 281
L 518 281
L 518 281
L 518 281
L 518 281
L 518 281
L 518 281
L 518 280
L 518 280
L 518 280
L 518 280
L 518 280
L 518 280
L 518 280
L 518 280
L 518 280
L 518 280
L 519 280
L 519 280
L 519 280
L 519 280
L 519 280
L 519 280
L 519 280
L 519 280
L 519 280
L 519 279
L 519 279
L 519 279
L 519 279
L 519 279
L 519 279
L 519 279
L 519 279
L 519 279
L 519 279
L 519 279
L 519 279
L 519 279
L 519 279
L 519 279
L 519 279
L 519 279
L 519 279
L 519 279
L 519 278
L 519 278
L 519 278
L 519 278
L 519 278
L 519 278
L 519 278
L 519 278
L 519 278
L 519 278
L 519 278
L 519 278
L 520 278
L 520 278
L 520 278
L 520 278
L 520 278
L 520 278
L 520 278
L 520 277
L 520 277
L 520 277
L 520 277
L 520 277
L 520 277
L 520 277
L 520 277
L 520 277
L 520 277
L 520 277
L 520 277
L 520 277
L 520 277
L 520 277
L 520 277
L 520 277
L 520 277
L 520 276
L 520 276
L 520 276
L 520 276
L 520 276
L 520 276
L 520 276
L 520 276
L 520 276
L 520 276
L 520 276
L 520 276
L 520 276
L 520 276
L 520 276
L 520 276
L 520 276
L 520 276
L 520 276
L 520 275
L 520 275
L 520 275
L 521 275
L 521 275
L 521 275
L 521 275
L 521 275
L 521 275
L 521 275
L 521 275
L 521 275
L 521 275
L 521 275
L 521 275
L 521 275
L 521 275
L 521 275
L 521 275
L 521 274
L 521 274
L 521 274
L 521 274
L 521 274
L 521 274
L 521 274
L 521 274
L 521 274
L 521 274
L 521 274
L 521 274
L 521 274
L 521 274
L 521 274
L 521 274
L 521 274
L 521 274
L 521 274
L 521 273
L 521 273
L 521 273
L 521 273
L 521 273
L 521 273
L 521 273
L 521 273
L 521 273
L 521 273
L 521 273
L 521 273
L 521 273
L 521 273
L 521 273
L 521 273
L 521 273
L 521 273
L 521 273
L 521 272
L 521 272
L 522 272
L 522 272
L 522 272
L 522 272
L 522 272
L 522 272
L 522 272
L 522 272
L 522 272
L 522 272
L 522 272
L 522 272
L 522 272
L 522 272
L 522 272
L 522 272
L 522 272
L 522 271
L 522 271
L 522 271
L 522 271
L 522 271
L 522 271
L 522 271
L 522 271
L 522 271
L 522 271
L 522 271
L 522 271
L 522 271
L 522 271
L 523 271
L 523 271
L 523 271
L 523 271
L 523 270
L 523 270
L 523 270
L 523 270
L 523 270
L 523 270
L 523 270
L 523 270
L 523 270
L 523 270
L 523 270
L 523 270
L 523 270
L 523 270
L 523 270
L 523 270
L 523 270
L 523 270
L 523 270
L 523 269
L 523 269
L 523 269
L 523 269
L 523 269
L 523 269
L 523 269
L 523 269
L 523 269
L 523 269
L 524 269
L 524 269
L 524 269
L 524 269
L 524 269
L 524 269
L 524 269
L 524 269
L 524 269
L 524 268
L 524 268
L 524 268
L 524 268
L 524 268
L 524 268
L 524 268
L 524 268
L 524 268
L 524 268
L 524 268
L 525 268
L 525 268
L 525 268
L 525 268
L 525 268
L 525 268
L 525 268
L 525 268
L 525 267
L 526 267
L 526 267
L 526 267
L 526 267
L 526 267
L 527 267
L 528 267
L 529 267
L 529 267
L 529 267
L 530 267
L 530 267
L 530 267
L 530 267
L 530 267
L 530 267
L 530 267
L 530 267
L 530 266
L 530 266
L 530 266
L 530 266
L 530 266
L 530 266
L 530 266
L 530 266
L 530 266
L 530 266
L 530 266
L 530 266
L 530 266
L 530 266
L 530 266
L 530 266
L 530 266
L 530 266
L 530 266
L 530 265
L 530 265
L 530 265
L 530 265
L 530 265
L 530 265
L 530 265
L 530 265
L 530 265
L 530 265
L 530 265
L 530 265
L 530 265
L 530 265
L 530 265
L 530 265
L 530 265
L 530 265
L 530 264
L 530 264
L 530 264
L 530 264
L 530 264
L 530 264
L 530 264
L 530 264
L 530 264
L 530 264
L 530 264
L 530 264
L 530 264
L 530 264
L 531 264
L 531 264
L 531 264
L 531 264
L 531 264
L 531 263
L 531 263
L 531 263
L 531 263
L 531 263
L 531 263
L 531 263
L 531 263
L 531 263
L 531 263
L 531 263
L 531 263
L 531 263
L 531 263
L 531 263
L 531 263
L 531 263
L 531 263
L 531 263
L 531 262
L 531 262
L 531 262
L 531 262
L 531 262
L 531 262
L 531 262
L 531 262
L 531 262
L 531 262
L 531 262
L 531 262
L 531 262
L 531 262
L 531 262
L 531 262
L 531 262
L 531 262
L 531 262
L 531 261
L 531 261
L 531 261
L 531 261
L 531 261
L 531 261
L 531 261
L 531 261
L 531 261
L 531 261
L 531 261
L 531 261
L 531 261
L 531 261
L 531 261
L 531 261
L 531 261
L 531 261
L 532 261
L 532 260
L 532 260
L 532 260
L 532 260
L 532 260
L 532 260
L 532 260
L 532 260
L 532 260
L 532 260
L 532 260
L 532 260
L 532 260
L 532 260
L 532 260
L 532 260
L 532 260
L 532 260
L 532 259
L 532 259
L 533 259
L 533 259
L 533 259
L 533 259
L 533 259
L 533 259
L 533 259
L 533 259
L 533 259
L 533 259
L 533 259
L 533 259
L 533 259
L 533 259
L 533 259
L 533 259
L 533 259
L 533 258
L 533 258
L 533 258
L 533 258
L 533 258
L 533 258
L 533 258
L 533 258
L 533 258
L 533 258
L 533 258
L 533 258
L 533 258
L 534 258
L 534 258
L 534 258
L 534 258
L 534 258
L 534 258
L 534 257
L 534 257
L 534 257
L 534 257
L 534 257
L 534 257
L 534 257
L 534 257
L 534 257
L 534 257
L 534 257
L 534 257
L 534 257
L 534 257
L 534 257
L 534 257
L 534 257
L 534 257
L 534 257
L 534 256
L 534 256
L 534 256
L 534 256
L 534 256
L 534 256
L 534 256
L 534 256
L 534 256
L 534 256
L 534 256
L 534 256
L 534 256
L 534 256
L 534 256
L 534 256
L 534 256
L 534 256
L 535 256
L 535 255
L 535 255
L 535 255
L 535 255
L 535 255
L 535 255
L 535 255
L 535 255
L 535 255
L 535 255
L 535 255
L 535 255
L 535 255
L 535 255
L 535 255
L 535 255
L 535 255
L 535 255
L 535 255
L 535 254
L 535 254
L 535 254
L 535 254
L 535 254
L 535 254
L 535 254
L 535 254
L 535 254
L 535 254
L 535 254
L 535 254
L 535 254
L 535 254
L 535 254
L 535 254
L 535 254
L 535 254
L 535 253
L 535 253
L 535 253
L 535 253
L 535 253
L 535 253
L 535 253
L 535 253
L 535 253
L 536 253
L 536 253
L 536 253
L 536 253
L 536 253
L 536 253
L 536 253
L 536 253
L 536 253
L 536 253
L 536 252
L 536 252
L 536 252
L 536 252
L 536 252
L 536 252
L 536 252
L 536 252
L 536 252
L 536 252
L 536 252
L 536 252
L 536 252
L 536 252
L 536 252
L 537 252
L 537 252
L 537 252
L 537 252
L 537 251
L 537 251
L 537 251
L 537 251
L 537 251
L 537 251
L 537 251
L 537 251
L 537 251
L 537 251
L 537 251
L 537 251
L 537 251
L 537 251
L 537 251
L 537 251
L 537 251
L 537 251
L 537 251
L 538 250
L 538 250
L 538 250
L 538 250
L 538 250
L 538 250
L 538 250
L 538 250
L 538 250
L 538 250
L 538 250
L 538 250
L 538 250
L 538 250
L 538 250
L 538 250
L 538 250
L 538 250
L 538 250
L 538 249
L 539 249
L 539 249
L 539 249
L 539 249
L 539 249
L 539 249
L 539 249
L 539 249
L 539 249
L 539 249
L 539 249
L 539 249
L 539 249
L 539 249
L 539 249
L 539 249
L 539 249
L 539 249
L 540 248
L 540 248
L 540 248
L 540 248
L 540 248
L 541 248
L 541 248
L 544 248
L 544 248
L 544 248
L 544 248
L 544 248
L 544 248
L 545 248
L 545 248
L 545 248
L 545 248
L 545 248
L 545 247
L 545 247
L 545 247
L 545 247
L 545 247
L 545 247
L 545 247
L 545 247
L 545 247
L 545 247
L 545 247
L 545 247
L 545 247
L 545 247
L 545 247
L 545 247
L 545 247
L 545 247
L 545 247
L 545 246
L 545 246
L 545 246
L 545 246
L 545 246
L 545 246
L 545 246
L 545 246
L 545 246
L 545 246
L 545 246
L 545 246
L 545 246
L 545 246
L 546 246
L 546 246
L 546 246
L 546 246
L 546 246
L 546 245
L 546 245
L 546 245
L 546 245
L 546 245
L 546 245
L 546 245
L 546 245
L 546 245
L 546 245
L 546 245
L 546 245
L 546 245
L 546 245
L 546 245
L 546 245
L 546 245
L 546 245
L 546 245
L 546 244
L 546 244
L 546 244
L 546 244
L 546 244
L 546 244
L 546 244
L 546 244
L 546 244
L 546 244
L 546 244
L 546 244
L 547 244
L 547 244
L 547 244
L 547 244
L 547 244
L 547 244
L 547 244
L 547 243
L 547 243
L 547 243
L 547 243
L 547 243
L 547 243
L 547 243
L 547 243
L 547 243
L 547 243
L 547 243
L 548 243
L 548 243
L 548 243
L 548 243
L 548 243
L 548 243
L 548 243
L 548 242
L 548 242
L 548 242
L 548 242
L 548 242
L 548 242
L 548 242
L 548 242
L 548 242
L 548 242
L 548 242
L 548 242
L 548 242
L 548 242
L 549 242
L 549 242
L 549 242
L 549 242
L 549 242
L 549 241
L 549 241
L 549 241
L 549 241
L 549 241
L 549 241
L 549 241
L 549 241
L 549 241
L 549 241
L 549 241
L 549 241
L 549 241
L 549 241
L 549 241
L 549 241
L 549 241
L 549 241
L 549 241
L 549 240
L 549 240
L 549 240
L 549 240
L 549 240
L 549 240
L 549 240
L 550 240
L 550 240
L 550 240
L 550 240
L 550 240
L 550 240
L 550 240
L 550 240
L 550 240
L 550 240
L 550 240
L 550 240
L 550 239
L 550 239
L 550 239
L 550 239
L 550 239
L 550 239
L 550 239
L 550 239
L 550 239
L 550 239
L 550 239
L 550 239
L 550 239
L 550 239
L 550 239
L 550 239
L 550 239
L 550 239
L 550 239
L 550 238
L 550 238
L 550 238
L 550 238
L 550 238
L 550 238
L 551 238
L 551 238
L 551 238
L 551 238
L 551 238
L 551 238
L 551 238
L 551 238
L 551 238
L 551 238
L 551 238
L 551 238
L 551 238
L 551 237
L 551 237
L 552 237
L 552 237
L 552 237
L 552 237
L 552 237
L 552 237
L 552 237
L 552 237
L 552 237
L 552 237
L 552 237
L 552 237
L 552 237
L 552 237
L 552 237
L 552 237
L 552 236
L 552 236
L 552 236
L 552 236
L 552 236
L 553 236
L 553 236
L 553 236
L 553 236
L 553 236
L 553 236
L 553 236
L 553 236
L 553 236
L 553 236
L 554 236
L 554 236
L 554 236
L 554 236
L 554 235
L 554 235
L 554 235
L 554 235
L 554 235
L 554 235
L 555 235
L 555 235
L 555 235
L 555 235
L 555 235
L 556 235
L 556 235
L 556 235
L 556 235
L 559 235
L 560 235
L 560 235
L 560 235
L 560 234
L 560 234
L 560 234
L 560 234
L 560 234
L 560 234
L 560 234
L 560 234
L 560 234
L 560 234
L 560 234
L 560 234
L 560 234
L 560 234
L 560 234
L 560 234
L 560 234
L 560 234
L 560 234
L 560 233
L 560 233
L 560 233
L 560 233
L 560 233
L 560 233
L 560 233
L 561 233
L 561 233
L 561 233
L 561 233
L 561 233
L 561 233
L 561 233
L 561 233
L 561 233
L 561 233
L 561 233
L 561 233
L 561 232
L 561 232
L 561 232
L 561 232
L 561 232
L 561 232
L 561 232
L 561 232
L 561 232
L 561 232
L 561 232
L 561 232
L 561 232
L 561 232
L 561 232
L 561 232
L 561 232
L 561 232
L 561 232
L 561 231
L 561 231
L 561 231
L 561 231
L 561 231
L 561 231
L 561 231
L 561 231
L 561 231
L 561 231
L 561 231
L 561 231
L 561 231
L 561 231
L 561 231
L 561 231
L 562 231
L 562 231
L 562 230
L 562 230
L 562 230
L 562 230
L 562 230
L 562 230
L 562 230
L 562 230
L 562 230
L 562 230
L 562 230
L 562 230
L 563 230
L 563 230
L 563 230
L 563 230
L 563 230
L 563 230
L 563 230
L 563 229
L 563 229
L 563 229
L 563 229
L 563 229
L 563 229
L 563 229
L 563 229
L 563 229
L 563 229
L 563 229
L 563 229
L 563 229
L 563 229
L 563 229
L 563 229
L 563 229
L 563 229
L 563 229
L 563 228
L 563 228
L 563 228
L 563 228
L 563 228
L 563 228
L 563 228
L 563 228
L 563 228
L 563 228
L 563 228
L 563 228
L 563 228
L 563 228
L 564 228
L 564 228
L 564 228
L 564 228
L 564 228
L 564 227
L 564 227
L 564 227
L 564 227
L 564 227
L 564 227
L 564 227
L 564 227
L 564 227
L 564 227
L 564 227
L 564 227
L 564 227
L 564 227
L 564 227
L 564 227
L 564 227
L 564 227
L 564 227
L 564 226
L 564 226
L 564 226
L 564 226
L 564 226
L 564 226
L 564 226
L 564 226
L 564 226
L 564 226
L 564 226
L 564 226
L 564 226
L 564 226
L 564 226
L 565 226
L 565 226
L 565 226
L 565 225
L 565 225
L 565 225
L 565 225
L 565 225
L 565 225
L 565 225
L 565 225
L 565 225
L 565 225
L 565 225
L 565 225
L 565 225
L 565 225
L 565 225
L 565 225
L 565 225
L 565 225
L 565 225
L 565 224
L 565 224
L 565 224
L 565 224
L 565 224
L 565 224
L 565 224
L 565 224
L 565 224
L 565 224
L 565 224
L 565 224
L 565 224
L 565 224
L 565 224
L 565 224
L 565 224
L 565 224
L 565 224
L 565 223
L 565 223
L 566 223
L 566 223
L 566 223
L 566 223
L 566 223
L 566 223
L 566 223
L 566 223
L 566 223
L 566 223
L 566 223
L 566 223
L 566 223
L 567 223
L 567 223
L 567 223
L 567 223
L 567 222
L 567 222
L 567 222
L 567 222
L 567 222
L 567 222
L 567 222
L 567 222
L 567 222
L 567 222
L 567 222
L 568 222
L 568 222
L 568 222
L 568 222
L 568 222
L 568 222
L 568 222
L 568 222
L 568 221
L 568 221
L 568 221
L 568 221
L 568 221
L 568 221
L 569 221
L 569 221
L 569 221
L 569 221
L 569 221
L 569 221
L 569 221
L 569 221
L 569 221
L 569 221
L 569 221
L 569 221
L 569 221
L 569 220
L 570 220
L 570 220
L 570 220
L 570 220
L 570 220
L 570 220
L 572 220
L 572 220
L 572 220
L 573 220
L 574 220
L 574 220
L 574 220
L 575 220
L 575 220
L 575 220
L 575 220
L 575 219
L 575 219
L 575 219
L 575 219
L 575 219
L 575 219
L 575 219
L 575 219
L 575 219
L 575 219
L 575 219
L 575 219
L 575 219
L 575 219
L 575 219
L 575 219
L 575 219
L 575 219
L 575 219
L 575 218
L 575 218
L 575 218
L 575 218
L 575 218
L 575 218
L 576 218
L 576 218
L 576 218
L 576 218
L 576 218
L 576 218
L 576 218
L 576 218
L 576 218
L 576 218
L 576 218
L 576 218
L 576 218
L 576 217
L 576 217
L 576 217
L 576 217
L 576 217
L 576 217
L 576 217
L 576 217
L 576 217
L 576 217
L 576 217
L 576 217
L 576 217
L 576 217
L 576 217
L 576 217
L 576 217
L 576 217
L 576 217
L 576 216
L 576 216
L 576 216
L 576 216
L 576 216
L 576 216
L 576 216
L 576 216
L 576 216
L 576 216
L 576 216
L 576 216
L 576 216
L 576 216
L 576 216
L 576 216
L 576 216
L 576 216
L 576 216
L 576 215
L 576 215
L 576 215
L 576 215
L 576 215
L 576 215
L 576 215
L 576 215
L 576 215
L 576 215
L 577 215
L 577 215
L 577 215
L 577 215
L 577 215
L 577 215
L 577 215
L 577 215
L 577 215
L 577 214
L 577 214
L 577 214
L 577 214
L 577 214
L 577 214
L 577 214
L 577 214
L 577 214
L 577 214
L 577 214
L 577 214
L 577 214
L 577 214
L 577 214
L 578 214
L 578 214
L 578 214
L 578 213
L 578 213
L 578 213
L 578 213
L 578 213
L 578 213
L 578 213
L 578 213
L 578 213
L 578 213
L 578 213
L 578 213
L 578 213
L 578 213
L 578 213
L 578 213
L 578 213
L 578 213
L 578 213
L 578 212
L 578 212
L 578 212
L 578 212
L 578 212
L 578 212
L 578 212
L 578 212
L 578 212
L 578 212
L 578 212
L 578 212
L 578 212
L 579 212
L 579 212
L 579 212
L 579 212
L 579 212
L 579 212
L 579 211
L 579 211
L 579 211
L 579 211
L 579 211
L 579 211
L 579 211
L 579 211
L 579 211
L 579 211
L 579 211
L 579 211
L 579 211
L 579 211
L 579 211
L 579 211
L 579 211
L 579 211
L 579 211
L 579 210
L 579 210
L 579 210
L 579 210
L 579 210
L 579 210
L 579 210
L 579 210
L 579 210
L 579 210
L 579 210
L 579 210
L 579 210
L 579 210
L 579 210
L 579 210
L 579 210
L 579 210
L 579 210
L 579 209
L 579 209
L 579 209
L 580 209
L 580 209
L 580 209
L 580 209
L 580 209
L 580 209
L 580 209
L 580 209
L 580 209
L 580 209
L 580 209
L 580 209
L 580 209
L 580 209
L 580 209
L 580 208
L 580 208
L 580 208
L 580 208
L 580 208
L 580 208
L 580 208
L 580 208
L 580 208
L 580 208
L 580 208
L 580 208
L 580 208
L 580 208
L 581 208
L 581 208
L 581 208
L 581 208
L 581 208
L 581 207
L 581 207
L 581 207
L 581 207
L 581 207
L 581 207
L 581 207
L 581 207
L 581 207
L 581 207
L 582 207
L 582 207
L 582 207
L 582 207
L 582 207
L 582 207
L 582 207
L 582 207
L 582 207
L 582 206
L 582 206
L 582 206
L 583 206
L 583 206
L 583 206
L 583 206
L 583 206
L 583 206
L 583 206
L 583 206
L 583 206
L 583 206
L 584 206
L 584 206
L 584 206
L 584 206
L 584 206
L 584 206
L 584 205
L 584 205
L 584 205
L 585 205
L 585 205
L 585 205
L 585 205
L 585 205
L 585 205
L 586 205
L 588 205
L 588 205
L 588 205
L 589 205
L 589 205
L 589 205
L 590 205
L 590 205
L 590 205
L 590 204
L 590 204
L 590 204
L 590 204
L 591 204
L 591 204
L 591 204
L 591 204
L 591 204
L 591 204
L 591 204
L 591 204
L 591 204
L 591 204
L 591 204
L 591 204
L 591 204
L 592 204
L 592 204
L 592 203
L 592 203
L 592 203
L 592 203
L 592 203
L 592 203
L 592 203
L 592 203
L 593 203
L 593 203
L 593 203
L 593 203
L 593 203
L 594 203
L 594 203
L 594 203
L 594 203
L 594 203
L 594 202
L 594 202
L 594 202
L 595 202
L 595 202
L 595 202
L 595 202
L 595 202
L 595 202
L 595 202
L 596 202
L 596 202
L 597 202
L 597 202
L 597 202
L 597 202
L 597 202
L 597 202
L 597 202
L 597 201
L 598 201
L 598 201
L 598 201
L 598 201
L 598 201
L 598 201
L 598 201
L 598 201
L 598 201
L 599 201
L 599 201
L 599 201
L 599 201
L 599 201
L 599 201
L 599 201
L 600 201
L 600 201
L 600 200
L 600 200
L 602 200
L 602 200
L 602 200
L 602 200
L 603 200
L 603 200
L 603 200
L 604 200
L 604 200
L 605 200
L 605 200
L 605 200
L 605 200
L 605 200
L 606 200
L 606 200
L 606 200
L 606 199
L 606 199
L 606 199
L 606 199
L 606 199
L 606 199
L 607 199
L 607 199
L 607 199
L 607 199
L 607 199
L 608 199
L 608 199
L 608 199
L 608 199
L 608 199
L 608 199
L 609 199
L 609 199
L 609 198
L 609 198
L 609 198
L 609 198
L 609 198
L 610 198
L 610 198
L 610 198
L 610 198
L 611 198
L 611 198
L 611 198
L 611 198
L 611 198
L 611 198
L 612 198
L 612 198
L 612 198
L 612 198
L 612 197
L 613 197
L 613 197
L 613 197
L 613 197
L 613 197
L 613 197
L 613 197
L 614 197
L 614 197
L 614 197
L 614 197
L 614 197
L 614 197
L 614 197
L 614 197
L 615 197
L 615 197
L 615 196
L 615 196
L 616 196
L 616 196
L 616 196
L 617 196
L 618 196
L 619 196
L 620 196
L 620 196
L 620 196
L 620 196
L 620 196
L 621 196
L 621 196
L 621 196
L 621 196
L 621 196
L 621 196
L 622 195
L 622 195
L 622 195
L 622 195
L 622 195
L 622 195
L 623 195
L 623 195
L 623 195
L 623 195
L 623 195
L 623 195
L 623 195
L 623 195
L 623 195
L 623 195
L 623 195
L 624 195
L 624 195
L 624 194
L 624 194
L 625 194
L 625 194
L 625 194
L 625 194
L 625 194
L 625 194
L 625 194
L 625 194
L 625 194
L 626 194
L 626 194
L 626 194
L 626 194
L 626 194
L 626 194
L 626 194
L 626 194
L 626 193
L 626 193
L 627 193
L 627 193
L 627 193
L 627 193
L 627 193
L 627 193
L 627 193
L 627 193
L 627 193
L 627 193
L 628 193
L 628 193
L 628 193
L 628 193
L 628 193
L 628 193
L 628 193
L 628 192
L 628 192
L 628 192
L 628 192
L 628 192
L 629 192
L 629 192
L 629 192
L 629 192
L 630 192
L 630 192
L 630 192
L 630 192
L 631 192
L 634 192
L 635 192
L 635 192
L 635 192
L 635 191
L 635 191
L 635 191
L 635 191
L 635 191
L 635 191
L 635 191
L 635 191
L 635 191
L 635 191
L 635 191
L 635 191
L 635 191
L 635 191
L 635 191
L 635 191
L 635 191
L 635 191
L 635 191
L 635 190
L 635 190
L 635 190
L 635 190
L 635 190
L 635 190
L 635 190
L 636 190
L 636 190
L 636 190
L 636 190
L 636 190
L 636 190
L 636 190
L 636 190
L 636 190
L 636 190
L 636 190
L 636 190
L 636 189
L 636 189
L 636 189
L 636 189
L 636 189
L 636 189
L 636 189
L 636 189
L 636 189
L 636 189
L 636 189
L 636 189
L 636 189
L 636 189
L 636 189
L 636 189
L 636 189
L 636 189
L 636 189
L 636 188
L 636 188
L 636 188
L 636 188
L 636 188
L 636 188
L 637 188
L 637 188
L 637 188
L 637 188
L 637 188
L 637 188
L 637 188
L 637 188
L 637 188
L 637 188
L 637 188
L 637 188
L 637 188
L 637 187
L 638 187
L 638 187
L 638 187
L 638 187
L 638 187
L 638 187
L 638 187
L 638 187
L 638 187
L 638 187
L 638 187
L 638 187
L 638 187
L 638 187
L 638 187
L 638 187
L 638 187
L 638 187
L 638 186
L 638 186
L 638 186
L 638 186
L 638 186
L 638 186
L 638 186
L 638 186
L 638 186
L 638 186
L 638 186
L 638 186
L 639 186
L 639 186
L 639 186
L 639 186
L 639 186
L 639 186
L 639 185
L 639 185
L 639 185
L 639 185
L 639 185
L 639 185
L 639 185
L 639 185
L 639 185
L 639 185
L 639 185
L 639 185
L 639 185
L 639 185
L 639 185
L 639 185
L 639 185
L 639 185
L 639 185
L 639 184
L 639 184
L 640 184
L 640 184
L 640 184
L 640 184
L 640 184
L 640 184
L 640 184
L 640 184
L 640 184
L 640 184
L 640 184
L 640 184
L 640 184
L 640 184
L 640 184
L 640 184
L 640 184
L 640 183
L 640 183
L 640 183
L 640 183
L 641 183
L 641 183
L 641 183
L 641 183
L 641 183
L 641 183
L 641 183
L 641 183
L 641 183
L 641 183
L 641 183
L 642 183
L 642 183
L 642 183
L 642 183
L 642 182
L 642 182
L 642 182
L 642 182
L 642 182
L 642 182
L 642 182
L 642 182
L 642 182
L 642 182
L 642 182
L 643 182
L 643 182
L 643 182
L 643 182
L 643 182
L 643 182
L 643 182
L 643 182
L 643 181
L 643 181
L 643 181
L 643 181
L 643 181
L 643 181
L 643 181
L 643 181
L 643 181
L 643 181
L 643 181
L 643 181
L 643 181
L 643 181
L 643 181
L 643 181
L 644 181
L 644 181
L 644 181
L 644 180
L 644 180
L 644 180
L 644 180
L 644 180
L 645 180
L 645 180
L 645 180
L 645 180
L 646 180
L 646 180
L 646 180
L 647 180
L 648 180
L 649 180
L 649 180
L 649 180
L 649 180
L 649 179
L 649 179
L 649 179
L 649 179
L 650 179
L 650 179
L 650 179
L 650 179
L 650 179
L 650 179
L 650 179
L 650 179
L 650 179
L 650 179
L 650 179
L 650 179
L 650 179
L 650 179
L 650 179
L 650 178
L 650 178
L 650 178
L 650 178
L 650 178
L 650 178
L 650 178
L 650 178
L 650 178
L 650 178
L 650 178
L 650 178
L 650 178
L 650 178
L 650 178
L 650 178
L 650 178
L 650 178
L 651 178
L 651 177
L 651 177
L 651 177
L 651 177
L 651 177
L 651 177
L 651 177
L 651 177
L 651 177
L 651 177
L 651 177
L 651 177
L 651 177
L 651 177
L 651 177
L 651 177
L 651 177
L 651 177
L 651 177
L 651 176
L 651 176
L 651 176
L 651 176
L 651 176
L 651 176
L 651 176
L 651 176
L 651 176
L 651 176
L 651 176
L 651 176
L 651 176
L 651 176
L 651 176
L 652 176
L 652 176
L 652 176
L 652 176
L 652 175
L 652 175
L 652 175
L 652 175
L 652 175
L 652 175
L 652 175
L 652 175
L 652 175
L 652 175
L 653 175
L 653 175
L 653 175
L 653 175
L 653 175
L 653 175
L 653 175
L 653 175
L 653 174
L 653 174
L 653 174
L 653 174
L 653 174
L 653 174
L 653 174
L 653 174
L 653 174
L 653 174
L 653 174
L 653 174
L 653 174
L 653 174
L 653 174
L 653 174
L 653 174
L 653 174
L 653 174
L 653 173
L 653 173
L 654 173
L 654 173
L 654 173
L 654 173
L 654 173
L 654 173
L 654 173
L 654 173
L 654 173
L 654 173
L 654 173
L 654 173
L 654 173
L 654 173
L 654 173
L 654 173
L 654 173
L 654 172
L 654 172
L 654 172
L 654 172
L 655 172
L 655 172
L 655 172
L 655 172
L 655 172
L 655 172
L 655 172
L 655 172
L 655 172
L 655 172
L 655 172
L 655 172
L 655 172
L 655 172
L 655 172
L 655 171
L 655 171
L 655 171
L 655 171
L 655 171
L 655 171
L 655 171
L 655 171
L 655 171
L 655 171
L 655 171
L 655 171
L 655 171
L 655 171
L 655 171
L 655 171
L 655 171
L 655 171
L 655 171
L 655 170
L 655 170
L 655 170
L 655 170
L 655 170
L 655 170
L 655 170
L 655 170
L 655 170
L 655 170
L 655 170
L 655 170
L 655 170
L 655 170
L 655 170
L 655 170
L 655 170
L 655 170
L 655 170
L 656 169
L 656 169
L 656 169
L 656 169
L 656 169
L 656 169
L 656 169
L 656 169
L 656 169
L 656 169
L 656 169
L 656 169
L 656 169
L 656 169
L 656 169
L 656 169
L 656 169
L 656 169
L 656 168
L 656 168
L 656 168
L 656 168
L 656 168
L 656 168
L 656 168
L 657 168
L 657 168
L 657 168
L 657 168
L 657 168
L 657 168
L 657 168
L 657 168
L 657 168
L 657 168
L 657 168
L 657 168
L 657 167
L 657 167
L 657 167
L 658 167
L 658 167
L 658 167
L 658 167
L 658 167
L 658 167
L 658 167
L 658 167
L 658 167
L 658 167
L 658 167
L 658 167
L 658 167
L 658 167
L 658 167
L 658 167
L 658 166
L 658 166
L 658 166
L 658 166
L 659 166
L 659 166
L 659 166
L 659 166
L 659 166
L 659 166
L 659 166
L 659 166
L 659 166
L 659 166
L 659 166
L 659 166
L 660 166
L 660 166
L 660 166
L 660 165
L 660 165
L 660 165
L 660 165
L 661 165
L 661 165
L 662 165
L 663 165
L 664 165
L 664 165
L 664 165
L 664 165
L 664 165
L 664 165
L 664 165
L 664 165
L 665 165
L 665 165
L 665 165
L 665 164
L 665 164
L 665 164
L 665 164
L 665 164
L 665 164
L 665 164
L 665 164
L 665 164
L 665 164
L 665 164
L 665 164
L 665 164
L 665 164
L 665 164
L 665 164
L 665 164
L 665 164
L 665 163
L 665 163
L 665 163
L 666 163
L 666 163
L 666 163
L 666 163
L 666 163
L 666 163
L 666 163
L 666 163
L 666 163
L 666 163
L 666 163
L 666 163
L 666 163
L 666 163
L 666 163
L 666 163
L 666 162
L 666 162
L 666 162
L 666 162
L 666 162
L 666 162
L 666 162
L 666 162
L 666 162
L 666 162
L 666 162
L 667 162
L 667 162
L 667 162
L 667 162
L 667 162
L 667 162
L 667 162
L 667 162
L 667 161
L 667 161
L 667 161
L 667 161
L 667 161
L 667 161
L 667 161
L 668 161
L 668 161
L 668 161
L 668 161
L 668 161
L 668 161
L 668 161
L 668 161
L 668 161
L 668 161
L 668 161
L 668 161
L 668 160
L 668 160
L 668 160
L 668 160
L 668 160
L 668 160
L 668 160
L 669 160
L 669 160
L 669 160
L 669 160
L 669 160
L 669 160
L 669 160
L 669 160
L 669 160
L 669 160
L 669 160
L 669 160
L 669 159
L 669 159
L 669 159
L 669 159
L 669 159
L 669 159
L 669 159
L 669 159
L 669 159
L 669 159
L 669 159
L 669 159
L 670 159
L 670 159
L 670 159
L 670 159
L 670 159
L 670 159
L 670 159
L 670 158
L 670 158
L 670 158
L 670 158
L 670 158
L 670 158
L 670 158
L 670 158
L 670 158
L 670 158
L 670 158
L 670 158
L 670 158
L 670 158
L 670 158
L 670 158
L 670 158
L 670 158
L 670 157
L 670 157
L 670 157
L 670 157
L 671 157
L 671 157
L 671 157
L 671 157
L 671 157
L 671 157
L 671 157
L 671 157
L 671 157
L 671 157
L 671 157
L 671 157
L 672 157
L 672 157
L 672 157
L 672 156
L 672 156
L 672 156
L 672 156
L 672 156
L 672 156
L 673 156
L 673 156
L 673 156
L 673 156
L 673 156
L 673 156
L 673 156
L 673 156
L 673 156
L 673 156
L 673 156
L 673 156
L 673 156
L 673 155
L 673 155
L 673 155
L 674 155
L 674 155
L 674 155
L 674 155
L 674 155
L 675 155
L 675 155
L 675 155
L 675 155
L 676 155
L 676 155
L 677 155
L 677 155
L 677 155
L 678 155
L 679 155
L 679 154
L 679 154
L 680 154
L 680 154
L 680 154
L 680 154
L 680 154
L 680 154
L 680 154
L 680 154
L 680 154
L 680 154
L 680 154
L 680 154
L 680 154
L 680 154
L 680 154
L 681 154
L 681 154
L 681 153
L 681 153
L 681 153
L 681 153
L 681 153
L 681 153
L 681 153
L 681 153
L 681 153
L 681 153
L 681 153
L 681 153
L 681 153
L 681 153
L 681 153
L 681 153
L 681 153
L 681 153
L 682 153
L 682 152
L 682 152
L 682 152
L 682 152
L 682 152
L 682 152
L 683 152
L 683 152
L 683 152
L 683 152
L 683 152
L 683 152
L 683 152
L 683 152
L 683 152
L 683 152
L 683 152
L 684 152
L 684 151
L 684 151
L 684 151
L 684 151
L 684 151
L 684 151
L 684 151
L 685 151
L 685 151
L 685 151
L 685 151
L 685 151
L 685 151
L 685 151
L 685 151
L 685 151
L 686 151
L 686 151
L 686 151
L 686 150
L 686 150
L 686 150
L 686 150
L 687 150
L 687 150
L 687 150
L 687 150
L 687 150
L 687 150
L 687 150
L 687 150
L 687 150
L 687 150
L 687 150
L 687 150
L 687 150
L 688 150
L 688 150
L 688 149
L 688 149
L 688 149
L 688 149
L 688 149
L 688 149
L 688 149
L 689 149
L 689 149
L 689 149
L 689 149
L 689 149
L 689 149
L 690 149
L 690 149
L 695 149
L 695 149
L 696 149
L 696 149
L 696 148
L 696 148
L 696 148
L 696 148
L 697 148
L 697 148
L 697 148
L 697 148
L 697 148
L 697 148
L 697 148
L 697 148
L 697 148
L 698 148
L 698 148
L 698 148
L 698 148
L 698 148
L 698 148
L 699 147
L 699 147
L 699 147
L 699 147
L 699 147
L 699 147
L 700 147
L 700 147
L 700 147
L 700 147
L 700 147
L 700 147
L 700 147
L 700 147
L 700 147
L 700 147
L 700 147
L 700 147
L 700 147
L 700 146
L 701 146
L 701 146
L 701 146
L 701 146
L 701 146
L 701 146
L 701 146
L 701 146
L 701 146
L 702 146
L 702 146
L 702 146
L 702 146
L 702 146
L 702 146
L 703 146
L 703 146
L 703 145
L 703 145
L 703 145
L 703 145
L 703 145
L 703 145
L 703 145
L 703 145
L 703 145
L 703 145
L 703 145
L 703 145
L 703 145
L 704 145
L 704 145
L 704 145
L 704 145
L 704 145
L 704 145
L 704 144
L 704 144
L 704 144
L 705 144
L 705 144
L 705 144
L 705 144
L 706 144
L 706 144
L 707 144
L 707 144
L 707 144
L 708 144
L 709 144
L 709 144
L 709 144
L 709 144
L 709 144
L 709 144
L 709 143
L 709 143
L 710 143
L 710 143
L 710 143
L 710 143
L 710 143
L 710 143
L 710 143
L 710 143
L 710 143
L 710 143
L 710 143
L 710 143
L 710 143
L 710 143
L 710 143
L 710 143
L 710 143
L 710 142
L 710 142
L 710 142
L 710 142
L 710 142
L 710 142
L 711 142
L 711 142
L 711 142
L 711 142
L 711 142
L 711 142
L 711 142
L 711 142
L 711 142
L 711 142
L 711 142
L 711 142
L 711 142
L 711 141
L 711 141
L 711 141
L 711 141
L 711 141
L 711 141
L 711 141
L 711 141
L 711 141
L 711 141
L 711 141
L 711 141
L 711 141
L 712 141
L 712 141
L 712 141
L 712 141
L 712 141
L 713 140
L 713 140
L 713 140
L 713 140
L 713 140
L 713 140
L 713 140
L 713 140
L 713 140
L 713 140
L 713 140
L 713 140
L 713 140
L 713 140
L 713 140
L 713 140
L 713 140
L 713 140
L 714 140
L 714 139
L 714 139
L 714 139
L 714 139
L 714 139
L 714 139
L 714 139
L 714 139
L 714 139
L 714 139
L 714 139
L 714 139
L 714 139
L 714 139
L 714 139
L 715 139
L 715 139
L 715 139
L 715 139
L 715 138
L 715 138
L 715 138
L 715 138
L 715 138
L 715 138
L 715 138
L 715 138
L 715 138
L 715 138
L 715 138
L 715 138
L 716 138
L 716 138
L 716 138
L 716 138
L 716 138
L 716 138
L 717 138
L 717 137
L 717 137
L 717 137
L 717 137
L 717 137
L 717 137
L 717 137
L 717 137
L 717 137
L 717 137
L 717 137
L 718 137
L 718 137
L 718 137
L 718 137
L 718 137
L 718 137
L 718 137
L 718 137
L 718 136
L 719 136
L 719 136
L 719 136
L 719 136
L 719 136
L 719 136
L 719 136
L 719 136
L 722 136
L 724 136
L 724 136
L 724 136
L 724 136
L 724 136
L 725 136
L 725 136
L 725 136
L 725 136
L 725 135
L 725 135
L 725 135
L 725 135
L 725 135
L 725 135
L 725 135
L 725 135
L 725 135
L 725 135
L 725 135
L 725 135
L 726 135
L 726 135
L 726 135
L 726 135
L 726 135
L 726 135
L 726 134
L 726 134
L 726 134
L 726 134
L 726 134
L 726 134
L 726 134
L 726 134
L 726 134
L 726 134
L 726 134
L 726 134
L 727 134
L 727 134
L 727 134
L 727 134
L 727 134
L 727 134
L 727 134
L 727 133
L 727 133
L 727 133
L 727 133
L 727 133
L 728 133
L 728 133
L 728 133
L 728 133
L 728 133
L 728 133
L 728 133
L 728 133
L 728 133
L 728 133
L 728 133
L 728 133
L 728 133
L 728 133
L 729 132
L 729 132
L 729 132
L 729 132
L 729 132
L 729 132
L 729 132
L 729 132
L 729 132
L 729 132
L 729 132
L 729 132
L 729 132
L 729 132
L 729 132
L 729 132
L 729 132
L 729 132
L 729 132
L 729 131
L 729 131
L 730 131
L 730 131
L 730 131
L 730 131
L 730 131
L 730 131
L 730 131
L 730 131
L 730 131
L 730 131
L 730 131
L 730 131
L 730 131
L 730 131
L 730 131
L 730 131
L 730 131
L 730 130
L 730 130
L 731 130
L 731 130
L 731 130
L 731 130
L 731 130
L 731 130
L 731 130
L 731 130
L 731 130
L 731 130
L 732 130
L 732 130
L 732 130
L 732 130
L 732 130
L 732 130
L 732 130
L 732 129
L 732 129
L 732 129
L 732 129
L 732 129
L 732 129
L 732 129
L 732 129
L 732 129
L 732 129
L 732 129
L 733 129
L 733 129
L 733 129
L 733 129
L 733 129
L 733 129
L 733 129
L 733 128
L 733 128
L 733 128
L 733 128
L 734 128
L 734 128
L 734 128
L 734 128
L 734 128
L 735 128
L 735 128
L 735 128
L 737 128
L 739 128
L 739 128
L 739 128
L 740 128
L 740 128
L 740 128
L 740 127
L 740 127
L 740 127
L 740 127
L 740 127
L 740 127
L 740 127
L 740 127
L 740 127
L 740 127
L 740 127
L 740 127
L 740 127
L 740 127
L 740 127
L 740 127
L 740 127
L 740 127
L 740 127
L 740 126
L 740 126
L 740 126
L 741 126
L 741 126
L 741 126
L 741 126
L 741 126
L 741 126
L 741 126
L 741 126
L 741 126
L 741 126
L 741 126
L 741 126
L 741 126
L 741 126
L 741 126
L 741 126
L 741 125
L 741 125
L 741 125
L 741 125
L 742 125
L 742 125
L 742 125
L 742 125
L 742 125
L 742 125
L 742 125
L 742 125
L 742 125
L 742 125
L 743 125
L 743 125
L 743 125
L 743 125
L 743 125
L 743 124
L 743 124
L 743 124
L 743 124
L 743 124
L 743 124
L 743 124
L 743 124
L 743 124
L 743 124
L 743 124
L 743 124
L 743 124
L 743 124
L 743 124
L 743 124
L 743 124
L 743 124
L 743 123
L 743 123
L 743 123
L 744 123
L 744 123
L 744 123
L 744 123
L 744 123
L 744 123
L 744 123
L 744 123
L 744 123
L 744 123
L 744 123
L 744 123
L 744 123
L 744 123
L 744 123
L 744 123
L 744 122
L 744 122
L 745 122
L 745 122
L 745 122
L 745 122
L 745 122
L 745 122
L 745 122
L 745 122
L 745 122
L 745 122
L 745 122
L 746 122
L 746 122
L 746 122
L 746 122
L 746 122
L 746 122
L 747 121
L 747 121
L 747 121
L 747 121
L 747 121
L 747 121
L 747 121
L 747 121
L 747 121
L 748 121
L 748 121
L 748 121
L 748 121
L 748 121
L 748 121
L 748 121
L 748 121
L 748 121
L 748 121
L 748 120
L 748 120
L 749 120
L 749 120
L 749 120
L 749 120
L 749 120
L 749 120
L 749 120
L 749 120
L 749 120
L 749 120
L 750 120
L 750 120
L 750 120
L 751 120
L 753 120
L 753 120
L 754 120
L 754 119
L 754 119
L 754 119
L 754 119
L 754 119
L 754 119
L 754 119
L 754 119
L 754 119
L 754 119
L 754 119
L 754 119
L 754 119
L 754 119
L 754 119
L 754 119
L 754 119
L 754 119
L 754 119
L 754 118
L 754 118
L 754 118
L 754 118
L 754 118
L 754 118
L 754 118
L 754 118
L 754 118
L 755 118
L 755 118
L 755 118
L 755 118
L 755 118
L 755 118
L 755 118
L 755 118
L 755 118
L 755 117
L 755 117
L 755 117
L 755 117
L 755 117
L 755 117
L 755 117
L 755 117
L 755 117
L 755 117
L 755 117
L 755 117
L 755 117
L 755 117
L 755 117
L 755 117
L 755 117
L 755 117
L 755 117
L 755 116
L 755 116
L 755 116
L 755 116
L 755 116
L 755 116
L 755 116
L 755 116
L 755 116
L 755 116
L 755 116
L 755 116
L 755 116
L 755 116
L 755 116
L 755 116
L 755 116
L 755 116
L 755 116
L 755 115
L 756 115
L 756 115
L 756 115
L 756 115
L 756 115
L 756 115
L 756 115
L 756 115
L 756 115
L 756 115
L 756 115
L 756 115
L 756 115
L 756 115
L 756 115
L 756 115
L 756 115
L 756 115
L 756 114
L 756 114
L 756 114
L 756 114
L 756 114
L 756 114
L 756 114
L 756 114
L 756 114
L 756 114
L 757 114
L 757 114
L 757 114
L 757 114
L 757 114
L 757 114
L 757 114
L 757 114
L 757 114
L 757 113
L 757 113
L 757 113
L 757 113
L 757 113
L 758 113
L 758 113
L 758 113
L 758 113
L 758 113
L 758 113
L 758 113
L 758 113
L 758 113
L 758 113
L 758 113
L 758 113
L 758 113
L 758 113
L 758 112
L 758 112
L 758 112
L 758 112
L 758 112
L 758 112
L 758 112
L 758 112
L 758 112
L 758 112
L 758 112
L 758 112
L 758 112
L 758 112
L 758 112
L 758 112
L 758 112
L 758 112
L 758 111
L 758 111
L 758 111
L 758 111
L 758 111
L 758 111
L 758 111
L 758 111
L 758 111
L 759 111
L 759 111
L 759 111
L 759 111
L 759 111
L 759 111
L 759 111
L 759 111
L 759 111
L 759 111
L 759 110
L 759 110
L 759 110
L 759 110
L 759 110
L 759 110
L 759 110
L 759 110
L 759 110
L 759 110
L 759 110
L 759 110
L 759 110
L 759 110
L 759 110
L 759 110
L 759 110
L 759 110
L 759 110
L 759 109
L 759 109
L 759 109
L 759 109
L 759 109
L 759 109
L 759 109
L 760 109
L 760 109
L 760 109
L 760 109
L 760 109
L 760 109
L 760 109
L 760 109
L 760 109
L 760 109
L 760 109
L 760 109
L 760 108
L 760 108
L 760 108
L 760 108
L 760 108
L 760 108
L 760 108
L 761 108
L 761 108
L 761 108
L 761 108
L 761 108
L 761 108
L 761 108
L 761 108
L 761 108
L 761 108
L 761 108
L 761 108
L 761 107
L 761 107
L 761 107
L 761 107
L 761 107
L 762 107
L 762 107
L 762 107
L 762 107
L 762 107
L 762 107
L 762 107
L 762 107
L 762 107
L 762 107
L 762 107
L 762 107
L 762 107
L 762 106
L 762 106
L 762 106
L 762 106
L 762 106
L 762 106
L 762 106
L 762 106
L 762 106
L 762 106
L 762 106
L 762 106
L 763 106
L 763 106
L 763 106
L 763 106
L 763 106
L 763 106
L 763 106
L 763 105
L 763 105
L 763 105
L 763 105
L 763 105
L 764 105
L 764 105
L 764 105
L 764 105
L 764 105
L 764 105
L 764 105
L 764 105
L 764 105
L 765 105
L 765 105
L 765 105
L 765 105
L 765 105
L 765 104
L 766 104
L 766 104
L 766 104
L 766 104
L 767 104
L 768 104
L 768 104
L 769 104
L 769 104
L 769 104
L 769 104
L 769 104
L 769 104
L 769 104
L 769 104
L 769 104
L 770 104
L 770 104
L 770 103
L 770 103
L 770 103
L 770 103
L 770 103
L 770 103
L 770 103
L 770 103
L 770 103
L 770 103
L 770 103
L 770 103
L 770 103
L 770 103
L 770 103
L 770 103
L 770 103
L 770 103
L 770 103
L 770 102
L 770 102
L 770 102
L 770 102
L 770 102
L 770 102
L 770 102
L 770 102
L 770 102
L 770 102
L 770 102
L 770 102
L 771 102
L 771 102
L 771 102
L 771 102
L 771 102
L 771 102
L 771 102
L 771 101
L 771 101
L 771 101
L 771 101
L 772 101
L 772 101
L 772 101
L 772 101
L 772 101
L 772 101
L 772 101
L 772 101
L 772 101
L 772 101
L 772 101
L 772 101
L 772 101
L 772 101
L 772 100
L 772 100
L 772 100
L 772 100
L 772 100
L 772 100
L 772 100
L 773 100
L 773 100
L 773 100
L 773 100
L 773 100
L 773 100
L 773 100
L 773 100
L 773 100
L 773 100
L 773 100
L 773 100
L 773 99
L 773 99
L 773 99
L 773 99
L 773 99
L 773 99
L 773 99
L 773 99
L 773 99
L 773 99
L 773 99
L 773 99
L 773 99
L 773 99
L 773 99
L 773 99
L 773 99
L 773 99
L 774 99
L 774 98
L 774 98
L 774 98
L 774 98
L 774 98
L 774 98
L 774 98
L 774 98
L 774 98
L 774 98
L 774 98
L 774 98
L 774 98
L 774 98
L 774 98
L 774 98
L 774 98
L 774 98
L 774 98
L 775 97
L 775 97
L 775 97
L 775 97
L 775 97
L 775 97
L 775 97
L 775 97
L 775 97
L 775 97
L 775 97
L 775 97
L 775 97
L 775 97
L 775 97
L 775 97
L 775 97
L 775 97
L 775 97
L 776 96
L 776 96
L 776 96
L 776 96
L 776 96
L 776 96
L 777 96
L 777 96
L 777 96
L 777 96
L 777 96
L 777 96
L 777 96
L 777 96
L 777 96
L 777 96
L 777 96
L 777 96
L 777 96
L 778 95
L 778 95
L 778 95
L 778 95
L 779 95
L 779 95
L 779 95
L 779 95
L 779 95
L 779 95
L 779 95
L 779 95
L 779 95
L 779 95
L 780 95
L 781 95
L 781 95
L 781 95
L 781 94
L 784 94
L 785 94
L 785 94
L 785 94
L 785 94
L 785 94
L 785 94
L 785 94
L 786 94
L 786 94
L 786 94
L 786 94
L 786 94
L 786 94
L 786 94
L 786 94
L 787 94
L 787 94
L 787 93
L 787 93
L 788 93
L 788 93
L 788 93
L 788 93
L 788 93
L 788 93
L 788 93
L 788 93
L 788 93
L 789 93
L 789 93
L 789 93
L 789 93
L 789 93
L 789 93
L 789 93
L 789 93
L 789 92
L 790 92
L 790 92
L 790 92
L 790 92
L 790 92
L 790 92
L 790 92
L 791 92
L 791 92
L 792 92
L 792 92
L 792 92
L 792 92
L 793 92
L 793 92
L 794 92
L 794 92
L 794 92
L 794 91
L 794 91
L 795 91
L 795 91
L 795 91
L 797 91
L 799 91
L 799 91
L 800 91
L 800 91
L 801 91
L 801 91
L 802 91
L 802 91
L 802 91
L 802 91
L 802 91
L 802 91
L 802 91
L 803 90
L 803 90
L 804 90
L 804 90
L 804 90
L 804 90
L 804 90
L 804 90
L 804 90
L 804 90
L 805 90
L 805 90
L 805 90
L 806 90
L 806 90
L 806 90
L 806 90
L 806 90
L 806 89
L 807 89
L 807 89
L 807 89
L 807 89
L 808 89
L 808 89
L 808 89
L 808 89
L 808 89
L 809 89
L 809 89
L 809 89
L 809 89
L 810 89
L 814 89
L 814 89
L 814 89
L 814 89
L 814 88
L 815 88
L 815 88
L 815 88
L 815 88
L 815 88
L 815 88
L 815 88
L 815 88
L 815 88
L 815 88
L 815 88
L 815 88
L 815 88
L 815 88
L 815 88
L 815 88
L 815 88
L 815 88
L 815 87
L 816 87
L 816 87
L 816 87
L 816 87
L 816 87
L 816 87
L 816 87
L 816 87
L 816 87
L 816 87
L 816 87
L 817 87
L 817 87
L 817 87
L 817 87
L 817 87
L 817 87
L 817 87
L 818 86
L 818 86
L 818 86
L 818 86
L 818 86
L 818 86
L 818 86
L 818 86
L 818 86
L 819 86
L 819 86
L 819 86
L 819 86
L 819 86
L 819 86
L 819 86
L 819 86
L 819 86
L 819 86
L 819 85
L 819 85
L 819 85
L 819 85
L 819 85
L 819 85
L 819 85
L 819 85
L 820 85
L 820 85
L 820 85
L 820 85
L 820 85
L 820 85
L 820 85
L 820 85
L 821 85
L 821 85
L 821 85
L 821 84
L 821 84
L 821 84
L 821 84
L 822 84
L 822 84
L 822 84
L 822 84
L 822 84
L 822 84
L 822 84
L 822 84
L 822 84
L 822 84
L 822 84
L 822 84
L 822 84
L 823 84
L 823 83
L 823 83
L 823 83
L 823 83
L 823 83
L 823 83
L 823 83
L 823 83
L 823 83
L 823 83
L 824 83
L 824 83
L 824 83
L 824 83
L 824 83
L 824 83
L 826 83
L 827 83
L 828 83
L 829 82
L 829 82
L 830 82
L 830 82
L 830 82
L 830 82
L 830 82
L 830 82
L 830 82
L 830 82
L 830 82
L 830 82
L 830 82
L 830 82
L 830 82
L 830 82
L 830 82
L 830 82
L 830 82
L 830 81
L 830 81
L 830 81
L 830 81
L 830 81
L 830 81
L 830 81
L 830 81
L 830 81
L 830 81
L 830 81
L 830 81
L 830 81
L 830 81
L 831 81
L 831 81
L 831 81
L 831 81
L 831 81
L 831 80
L 831 80
L 831 80
L 831 80
L 831 80
L 831 80
L 831 80
L 831 80
L 831 80
L 831 80
L 831 80
L 831 80
L 831 80
L 831 80
L 831 80
L 831 80
L 831 80
L 831 80
L 831 80
L 831 79
L 831 79
L 831 79
L 831 79
L 831 79
L 831 79
L 831 79
L 831 79
L 831 79
L 831 79
L 831 79
L 831 79
L 831 79
L 831 79
L 831 79
L 831 79
L 831 79
L 831 79
L 831 79
L 831 78
L 831 78
L 831 78
L 831 78
L 831 78
L 831 78
L 831 78
L 831 78
L 831 78
L 831 78
L 831 78
L 831 78
L 831 78
L 831 78
L 831 78
L 831 78
L 832 78
L 832 78
L 832 77
L 832 77
L 832 77
L 832 77
L 832 77
L 832 77
L 832 77
L 832 77
L 832 77
L 832 77
L 832 77
L 832 77
L 832 77
L 832 77
L 832 77
L 832 77
L 832 77
L 833 77
L 833 77
L 833 76
L 833 76
L 833 76
L 833 76
L 833 76
L 833 76
L 833 76
L 833 76
L 833 76
L 833 76
L 833 76
L 833 76
L 833 76
L 833 76
L 833 76
L 833 76
L 834 76
L 834 76
L 834 76
L 834 75
L 834 75
L 834 75
L 834 75
L 834 75
L 834 75
L 834 75
L 834 75
L 834 75
L 834 75
L 834 75
L 834 75
L 834 75
L 834 75
L 834 75
L 834 75
L 834 75
L 835 75
L 835 75
L 835 74
L 835 74
L 835 74
L 835 74
L 835 74
L 835 74
L 835 74
L 835 74
L 835 74
L 835 74
L 835 74
L 835 74
L 835 74
L 835 74
L 835 74
L 835 74
L 835 74
L 835 74
L 835 74
L 835 73
L 835 73
L 835 73
L 836 73
L 836 73
L 836 73
L 836 73
L 836 73
L 836 73
L 836 73
L 836 73
L 836 73
L 836 73
L 836 73
L 836 73
L 836 73
L 836 73
L 836 73
L 836 72
L 836 72
L 836 72
L 836 72
L 836 72
L 836 72
L 837 72
L 837 72
L 837 72
L 837 72
L 837 72
L 837 72
L 837 72
L 837 72
L 837 72
L 837 72
L 837 72
L 837 72
L 837 72
L 837 71
L 838 71
L 838 71
L 838 71
L 838 71
L 838 71
L 839 71
L 839 71
L 839 71
L 840 71
L 840 71
L 840 71
L 842 71
L 842 71
L 844 71
L 844 71
L 844 71
L 844 71
L 844 71
L 844 70
L 844 70
L 844 70
L 844 70
L 844 70
L 844 70
L 845 70
L 845 70
L 845 70
L 845 70
L 845 70
L 845 70
L 845 70
L 845 70
L 845 70
L 845 70
L 845 70
L 845 70
L 845 70
L 845 69
L 845 69
L 845 69
L 845 69
L 845 69
L 845 69
L 845 69
L 845 69
L 845 69
L 845 69
L 845 69
L 845 69
L 845 69
L 845 69
L 845 69
L 845 69
L 845 69
L 845 69
L 845 69
L 845 68
L 845 68
L 845 68
L 845 68
L 845 68
L 845 68
L 845 68
L 845 68
L 845 68
L 845 68
L 845 68
L 845 68
L 845 68
L 845 68
L 845 68
L 845 68
L 845 68
L 846 68
L 846 68
L 846 67
L 846 67
L 846 67
L 846 67
L 846 67
L 846 67
L 846 67
L 846 67
L 846 67
L 846 67
L 846 67
L 846 67
L 846 67
L 846 67
L 846 67
L 846 67
L 846 67
L 846 67
L 846 66
L 846 66
L 846 66
L 846 66
L 846 66
L 846 66
L 846 66
L 846 66
L 846 66
L 846 66
L 847 66
L 847 66
L 847 66
L 847 66
L 847 66
L 847 66
L 847 66
L 847 66
L 847 66
L 847 65
L 847 65
L 847 65
L 847 65
L 847 65
L 847 65
L 847 65
L 847 65
L 847 65
L 847 65
L 847 65
L 847 65
L 847 65
L 847 65
L 847 65
L 847 65
L 847 65
L 847 65
L 848 65
L 848 64
L 848 64
L 848 64
L 848 64
L 848 64
L 848 64
L 848 64
L 848 64
L 848 64
L 848 64
L 848 64
L 848 64
L 848 64
L 848 64
L 848 64
L 848 64
L 848 64
L 848 64
L 848 64
L 848 63
L 848 63
L 848 63
L 848 63
L 848 63
L 848 63
L 848 63
L 848 63
L 849 63
L 849 63
L 849 63
L 849 63
L 849 63
L 849 63
L 849 63
L 849 63
L 849 63
L 849 63
L 849 63
L 849 62
L 849 62
L 849 62
L 849 62
L 849 62
L 849 62
L 849 62
L 849 62
L 849 62
L 849 62
L 849 62
L 849 62
L 849 62
L 849 62
L 849 62
L 849 62
L 849 62
L 849 62
L 850 62
L 850 61
L 850 61
L 850 61
L 850 61
L 850 61
L 850 61
L 850 61
L 850 61
L 850 61
L 850 61
L 850 61
L 850 61
L 850 61
L 850 61
L 850 61
L 850 61
L 850 61
L 850 61
L 850 60
L 850 60
L 851 60
L 851 60
L 851 60
L 851 60
L 851 60
L 851 60
L 851 60
L 851 60
L 851 60
L 851 60
L 851 60
L 851 60
L 851 60
L 852 60
L 852 60
L 852 60
L 852 60
L 852 59
L 852 59
L 852 59
L 853 59
L 853 59
L 853 59
L 853 59
L 853 59
L 853 59
L 853 59
L 853 59
L 853 59
L 854 59
L 854 59
L 854 59
L 854 59
L 854 59
L 854 59
L 855 59
L 855 58
L 857 58
L 857 58
L 857 58
L 858 58
L 858 58
L 858 58
L 859 58
L 859 58
L 859 58
L 859 58
L 859 58
L 859 58
L 860 58
L 860 58
L 860 58
L 860 58
L 860 58
L 860 58
L 860 57
L 860 57
L 860 57
L 860 57
L 860 57
L 860 57
L 860 57
L 860 57
L 860 57
L 860 57
L 860 57
L 860 57
L 860 57
L 860 57
L 860 57
L 860 57
L 860 57
L 860 57
L 860 57
L 860 56
L 860 56
L 860 56
L 860 56
L 860 56
L 861 56
L 861 56
L 861 56
L 861 56
L 861 56
L 861 56
L 861 56
L 861 56
L 861 56
L 861 56
L 861 56
L 861 56
L 861 56
L 861 55
L 861 55
L 861 55
L 861 55
L 861 55
L 861 55
L 861 55
L 861 55
L 861 55
L 861 55
L 861 55
L 862 55
L 862 55
L 862 55
L 862 55
L 862 55
L 862 55
L 862 55
L 862 55
L 862 54
L 862 54
L 862 54
L 862 54
L 862 54
L 862 54
L 862 54
L 862 54
L 862 54
L 863 54
L 863 54
L 863 54
L 863 54
L 863 54
L 863 54
L 863 54
L 863 54
L 863 54
L 863 54
L 863 53
L 863 53
L 863 53
L 863 53
L 863 53
L 863 53
L 863 53
L 863 53
L 864 53
L 864 53
L 864 53
L 864 53
L 864 53
L 864 53
L 864 53
L 864 53
L 864 53
L 864 53
L 864 53
L 864 52
L 864 52
L 864 52
L 864 52
L 864 52
L 864 52
L 864 52
L 864 52
L 864 52
L 864 52
L 864 52
L 864 52
L 865 52
L 865 52
L 865 52
L 865 52
L 865 52
L 865 52
L 865 52
L 865 51
L 865 51
L 865 51
L 865 51
L 865 51
L 865 51
L 865 51
L 865 51
L 865 51
L 865 51
L 865 51
L 866 51
L 866 51
L 866 51
L 866 51
L 866 51
L 866 51
L 866 51
L 867 51
L 867 50
L 867 50
L 867 50
L 868 50
L 868 50
L 868 50
L 868 50
L 868 50
L 868 50
L 868 50
L 868 50
L 868 50
L 869 50
L 869 50
L 869 50
L 869 50
L 869 50
L 869 50
L 869 49
L 870 49
L 870 49
L 873 49
L 874 49
L 874 49
L 874 49
L 874 49
L 874 49
L 874 49
L 874 49
L 874 49
L 874 49
L 875 49
L 875 49
L 875 49
L 875 49
L 875 49
L 875 49
L 875 48
L 875 48
L 875 48
L 875 48
L 875 48
L 875 48
L 875 48
L 875 48
L 875 48
L 875 48
L 875 48
L 875 48
L 875 48
L 875 48
L 875 48
L 875 48
L 875 48
L 875 48
L 875 48
L 875 47
L 876 47
L 876 47
L 876 47
L 876 47
L 876 47
L 876 47
L 876 47
L 876 47
L 876 47
L 876 47
L 876 47
L 876 47
L 876 47
L 876 47
L 876 47
L 876 47
L 876 47
L 876 47
L 877 46
L 877 46
L 877 46
L 877 46
L 877 46
L 877 46
L 877 46
L 877 46
L 877 46
L 878 46
L 878 46
L 878 46
L 878 46
L 878 46
L 878 46
L 878 46
L 878 46
L 878 46
L 878 46
L 878 45
L 878 45
L 878 45
L 878 45
L 878 45
L 878 45
L 878 45
L 878 45
L 879 45
L 879 45
L 879 45
L 879 45
L 879 45
L 879 45
L 879 45
L 879 45
L 879 45
L 879 45
L 879 45
L 879 44
L 879 44
L 879 44
L 879 44
L 879 44
L 879 44
L 880 44
L 880 44
L 880 44
L 880 44
L 880 44
L 880 44
L 880 44
L 880 44
L 880 44
L 880 44
L 880 44
L 880 44
L 880 43
L 880 43
L 880 43
L 881 43
L 881 43
L 881 43
L 881 43
L 881 43
L 881 43
L 881 43
L 881 43
L 881 43
L 882 43
L 882 43
L 883 43
L 883 43
L 883 43
L 883 43
L 883 43
L 884 42
L 884 42
L 884 42
L 887 42
L 890 42
L 890 42
L 890 42
L 890 42
L 891 42
L 891 42
L 891 42
L 891 42
L 891 42
L 892 42
L 892 42
L 892 42
L 893 42
L 893 42
L 893 42
L 893 41
L 893 41
L 893 41
L 893 41
L 894 41
L 894 41
L 894 41
L 894 41
L 894 41
L 895 41
L 895 41
L 896 41
L 896 41
L 896 41
L 896 41
L 896 41
L 896 41
L 896 41
L 896 41
L 897 40
L 897 40
L 897 40
L 897 40
L 897 40
L 897 40
L 897 40
L 897 40
L 897 40
L 897 40
L 898 40
L 898 40
L 898 40
L 898 40
L 898 40
L 898 40
L 898 40
L 898 40
L 898 40
L 898 39
L 898 39
L 899 39
L 899 39
L 899 39
L 899 39
L 899 39
L 899 39
L 899 39
L 900 39
L 900 39
L 900 39
L 900 39
L 901 39
L 904 39
L 904 39
L 904 39
L 905 39
L 905 38
L 905 38
L 905 38
L 905 38
L 906 38
L 906 38
L 906 38
L 906 38
L 906 38
L 906 38
L 907 38
L 907 38
L 907 38
L 907 38
L 907 38
L 908 38
L 908 38
L 909 38
L 909 38
L 910 37
L 911 37
L 911 37
L 911 37
L 912 37
L 912 37
L 912 37
L 912 37
L 912 37
L 912 37
L 912 37
L 912 37
L 912 37
L 913 37
L 913 37
L 913 37
L 913 37
L 913 37
L 913 37
L 913 36
L 913 36
L 913 36
L 913 36
L 914 36
L 914 36
L 917 36
L 917 36
L 919 36
L 919 36
L 919 36
L 919 36
L 919 36
L 919 36
L 919 36
L 919 36
L 919 36
L 919 36
L 919 36
L 920 35
L 920 35
L 920 35
L 920 35
L 920 35
L 920 35
L 920 35
L 920 35
L 920 35
L 920 35
L 920 35
L 920 35
L 920 35
L 920 35
L 920 35
L 920 35
L 920 35
L 920 35
L 920 35
L 920 34
L 921 34
L 921 34
L 921 34
L 921 34
L 921 34
L 921 34
L 921 34
L 921 34
L 921 34
L 921 34
L 921 34
L 921 34
L 921 34
L 921 34
L 921 34
L 921 34
L 922 34
L 922 34
L 922 33
L 922 33
L 922 33
L 922 33
L 922 33
L 922 33
L 922 33
L 922 33
L 922 33
L 922 33
L 923 33
L 923 33
L 923 33
L 923 33
L 923 33
L 923 33
L 923 33
L 923 33
L 923 32
L 923 32
L 923 32
L 923 32
L 923 32
L 923 32
L 923 32
L 923 32
L 923 32
L 923 32
L 924 32
L 924 32
L 924 32
L 924 32
L 924 32
L 924 32
L 924 32
L 924 32
L 924 32
L 924 31
L 924 31
L 924 31
L 924 31
L 924 31
L 924 31
L 924 31
L 924 31
L 924 31
L 924 31
L 924 31
L 924 31
L 924 31
L 924 31
L 924 31
L 924 31
L 924 31
L 925 31
L 925 31
L 925 30
L 925 30
L 925 30
L 925 30
L 925 30
L 925 30
L 926 30
L 926 30
L 926 30
L 926 30
L 926 30
L 926 30
L 926 30
L 927 30
L 927 30
L 927 30
L 927 30
L 927 30
L 927 30
L 927 29
L 927 29
L 928 29
L 928 29
L 928 29
L 928 29
L 928 29
L 928 29
L 928 29
L 929 29
L 929 29
L 931 29
L 934 29
L 934 29
L 934 29
L 934 29
L 934 29
L 934 29
L 934 29
L 934 28
L 935 28
L 935 28
L 935 28
L 935 28
L 935 28
L 935 28
L 935 28
L 935 28
L 935 28
L 935 28
L 935 28
L 935 28
L 935 28
L 935 28
L 935 28
L 935 28
L 935 28
L 935 28
L 935 27
L 935 27
L 936 27
L 936 27
L 936 27
L 936 27
L 936 27
L 936 27
L 936 27
L 936 27
L 936 27
L 936 27
L 936 27
L 936 27
L 936 27
L 936 27
L 936 27
L 937 27
L 937 26
L 937 26
L 937 26
L 937 26
L 937 26
L 937 26
L 937 26
L 937 26
L 937 26
L 937 26
L 937 26
L 938 26
L 938 26
L 938 26
L 938 26
L 938 26
L 938 26
L 938 26
L 938 26
L 938 25
L 938 25
L 938 25
L 938 25
L 938 25
L 938 25
L 938 25
L 938 25
L 938 25
L 938 25
L 939 25
L 939 25
L 939 25
L 939 25
L 939 25
L 939 25
L 939 25
L 939 25
L 939 25
L 939 24
L 939 24
L 939 24
L 939 24
L 939 24
L 939 24
L 939 24
L 939 24
L 939 24
L 940 24
L 940 24
L 940 24
L 940 24
L 940 24
L 940 24
L 940 24
L 940 24
L 940 24
L 940 24
L 940 23
L 940 23
L 940 23
L 940 23
L 940 23
L 940 23
L 941 23
L 941 23
L 941 23
L 941 23
L 941 23
L 941 23
L 941 23
L 941 23
L 941 23
L 941 23
L 941 23
L 941 23
L 942 23
L 942 22
L 942 22
L 942 22
L 942 22
L 942 22
L 942 22
L 942 22
L 942 22
L 942 22
L 942 22
L 942 22
L 943 22
L 943 22
L 943 22
L 943 22
L 943 22
L 943 22
L 943 22
L 943 21
L 943 21
L 943 21
L 943 21
L 943 21
L 943 21
L 943 21
L 943 21
L 943 21
L 943 21
L 943 21
L 944 21
L 944 21
L 944 21
L 944 21
L 945 21
L 945 21
L 945 21
L 945 21
L 945 20
L 946 20
L 946 20
L 947 20
L 949 20
L 949 20
L 949 20
L 949 20
L 949 20
L 949 20
L 949 20
L 949 20
L 949 20
L 949 20
L 949 20
L 949 20
L 949 20
L 949 20
L 949 20
L 949 19
L 949 19
L 949 19
L 949 19
L 949 19
L 950 19
L 950 19
L 950 19
L 950 19
L 950 19
L 950 19
L 950 19
L 950 19
L 950 19
L 950 19
L 950 19
L 950 19
L 950 19
L 950 19
L 950 18
L 950 18
L 950 18
L 950 18
L 950 18
L 950 18
L 950 18
L 950 18
L 950 18
L 950 18
L 950 18
L 950 18
L 951 18
L 951 18
L 951 18
L 951 18
L 951 18
L 951 18
L 951 18
L 951 17
L 951 17
L 951 17
L 951 17
L 951 17
L 951 17
L 951 17
L 951 17
L 951 17
L 951 17
L 952 17
L 952 17
L 952 17
L 952 17
L 952 17
L 952 17
L 952 17
L 952 17
L 952 17
L 952 16
L 952 16
L 952 16
L 952 16
L 952 16
L 952 16
L 952 16
L 952 16
L 952 16
L 952 16
L 952 16
L 952 16
L 952 16
L 952 16
L 952 16
L 952 16
L 952 16
L 953 16
L 953 15
L 953 15
L 953 15
L 953 15
L 953 15
L 953 15
L 953 15
L 953 15
L 953 15
L 953 15
L 953 15
L 953 15
L 953 15
L 953 15
L 953 15
L 953 15
L 953 15
L 953 15
L 953 15
L 953 14
L 953 14
L 953 14
L 953 14
L 954 14
L 954 14
L 954 14
L 954 14
L 954 14
L 954 14
L 954 14
L 954 14
L 954 14
L 954 14
L 954 14
L 954 14
L 954 14
L 954 14
L 954 14
L 954 13
L 954 13
L 954 13
L 954 13
L 954 13
L 954 13
L 954 13
L 954 13
L 954 13
L 954 13
L 954 13
L 954 13
L 954 13
L 954 13
L 954 13
L 955 13
L 955 13
L 955 13
L 955 13
L 955 12
L 955 12
L 955 12
L 955 12
L 955 12
L 955 12
L 955 12
L 955 12
L 955 12
L 955 12
L 955 12
L 955 12
L 955 12
L 955 12
L 955 12
L 955 12
L 955 12
L 956 12
L 956 12
L 956 11
L 956 11
L 956 11
L 956 11
L 956 11
L 956 11
L 956 11
L 956 11
L 956 11
L 956 11
L 957 11
L 957 11
L 957 11
L 957 11
L 957 11
L 957 11
L 957 11
L 957 11" style="stroke-width:2;stroke:rgba(129,199,239,1.0);fill:none"/></svg>