<svg xmlns="http://www.w3.org/2000/svg" xmlns:xlink="http://www.w3.org/1999/xlink" width="1024" height="400">\n<path  d="M 0 0
L 1024 0
L 1024 400
L 0 400
L 0 0" style="stroke-width:0;stroke:rgba(255,255,255,1.0);fill:rgba(255,255,255,1.0)"/><path  d="M 38 11
L 957 11
L 957 351
L 38 351
L 38 11" style="stroke-width:0;stroke:rgba(255,255,255,1.0);fill:rgba(255,255,255,1.0)"/><path  d="M 38 351
L 957 351" style="stroke-width:2;stroke:rgba(85,85,85,1.0);fill:none"/><path  d="M 38 351
L 38 356" style="stroke-width:2;stroke:rgba(85,85,85,1.0);fill:none"/><text x="5" y="373" style="stroke-width:0;stroke:none;fill:rgba(51,51,51,1.0);font-size:12.8px;font-family:'Roboto Medium',sans-serif">2018-11-23</text><path  d="M 153 351
L 153 356" style="stroke-width:2;stroke:rgba(85,85,85,1.0);fill:none"/><text x="120" y="373" style="stroke-width:0;stroke:none;fill:rgba(51,51,51,1.0);font-size:12.8px;font-family:'Roboto Medium',sans-serif">2018-12-02</text><path  d="M 268 351
L 268 356" style="stroke-width:2;stroke:rgba(85,85,85,1.0);fill:none"/><text x="235" y="373" style="stroke-width:0;stroke:none;fill:rgba(51,51,51,1.0);font-size:12.8px;font-family:'Roboto Medium',sans-serif">2018-12-12</text><path  d="M 383 351
L 383 356" style="stroke-width:2;stroke:rgba(85,85,85,1.0);fill:none"/><text x="350" y="373" style="stroke-width:0;stroke:none;fill:rgba(51,51,51,1.0);font-size:12.8px;font-family:'Roboto Medium',sans-serif">2018-12-22</text><path  d="M 498 351
L 498 356" style="stroke-width:2;stroke:rgba(85,85,85,1.0);fill:none"/><text x="465" y="373" style="stroke-width:0;stroke:none;fill:rgba(51,51,51,1.0);font-size:12.8px;font-family:'Roboto Medium',sans-serif">2018-12-31</text><path  d="M 613 351
L 613 356" style="stroke-width:2;stroke:rgba(85,85,85,1.0);fill:none"/><text x="580" y="373" style="stroke-width:0;stroke:none;fill:rgba(51,51,51,1.0);font-size:12.8px;font-family:'Roboto Medium',sans-serif">2019-01-10</text><path  d="M 728 351
L 728 356" style="stroke-width:2;stroke:rgba(85,85,85,1.0);fill:none"/><text x="695" y="373" style="stroke-width:0;stroke:none;fill:rgba(51,51,51,1.0);font-size:12.8px;font-family:'Roboto Medium',sans-serif">2019-01-20</text><path  d="M 843 351
L 843 356" style="stroke-width:2;stroke:rgba(85,85,85,1.0);fill:none"/><text x="810" y="373" style="stroke-width:0;stroke:none;fill:rgba(51,51,51,1.0);font-size:12.8px;font-family:'Roboto Medium',sans-serif">2019-01-29</text><path  d="M 957 351
L 957 356" style="stroke-width:2;stroke:rgba(85,85,85,1.0);fill:none"/><text x="924" y="373" style="stroke-width:0;stroke:none;fill:rgba(51,51,51,1.0);font-size:12.8px;font-family:'Roboto Medium',sans-serif">2019-02-08</text><text x="483" y="395" style="stroke-width:0;stroke:none;fill:rgba(51,51,51,1.0);font-size:12.8px;font-family:'Roboto Medium',sans-serif">Time</text><path  d="M 959 351
L 959 11" style="stroke-width:2;stroke:rgba(85,85,85,1.0);fill:none"/><path  d="M 959 351
L 964 351" style="stroke-width:2;stroke:rgba(85,85,85,1.0);fill:none"/><text x="969" y="357" style="stroke-width:0;stroke:none;fill:rgba(51,51,51,1.0);font-size:12.8px;font-family:'Roboto Medium',sans-serif">0</text><path  d="M 959 308
L 964 308" style="stroke-width:2;stroke:rgba(85,85,85,1.0);fill:none"/><text x="969" y="314" style="stroke-width:0;stroke:none;fill:rgba(51,51,51,1.0);font-size:12.8px;font-family:'Roboto Medium',sans-serif">930</text><path  d="M 959 266
L 964 266" style="stroke-width:2;stroke:rgba(85,85,85,1.0);fill:none"/><text x="969" y="272" style="stroke-width:0;stroke:none;fill:rgba(51,51,51,1.0);font-size:12.8px;font-family:'Roboto Medium',sans-serif">1850</text><path  d="M 959 223
L 964 223" style="stroke-width:2;stroke:rgba(85,85,85,1.0);fill:none"/><text x="969" y="229" style="stroke-width:0;stroke:none;fill:rgba(51,51,51,1.0);font-size:12.8px;font-family:'Roboto Medium',sans-serif">2780</text><path  d="M 959 181
L 964 181" style="stroke-width:2;stroke:rgba(85,85,85,1.0);fill:none"/><text x="969" y="187" style="stroke-width:0;stroke:none;fill:rgba(51,51,51,1.0);font-size:12.8px;font-family:'Roboto Medium',sans-serif">3700</text><path  d="M 959 138
L 964 138" style="stroke-width:2;stroke:rgba(85,85,85,1.0);fill:none"/><text x="969" y="144" style="stroke-width:0;stroke:none;fill:rgba(51,51,51,1.0);font-size:12.8px;font-family:'Roboto Medium',sans-serif">4630</text><path  d="M 959 96
L 964 96" style="stroke-width:2;stroke:rgba(85,85,85,1.0);fill:none"/><text x="969" y="102" style="stroke-width:0;stroke:none;fill:rgba(51,51,51,1.0);font-size:12.8px;font-family:'Roboto Medium',sans-serif">5550</text><path  d="M 959 53
L 964 53" style="stroke-width:2;stroke:rgba(85,85,85,1.0);fill:none"/><text x="969" y="59" style="stroke-width:0;stroke:none;fill:rgba(51,51,51,1.0);font-size:12.8px;font-family:'Roboto Medium',sans-serif">6480</text><path  d="M 959 11
L 964 11" style="stroke-width:2;stroke:rgba(85,85,85,1.0);fill:none"/><text x="969" y="17" style="stroke-width:0;stroke:none;fill:rgba(51,51,51,1.0);font-size:12.8px;font-family:'Roboto Medium',sans-serif">7400</text><text x="1009" y="150" style="stroke-width:0;stroke:none;fill:rgba(51,51,51,1.0);font-size:12.8px;font-family:'Roboto Medium',sans-serif" transform="rotate(90.00,1009,150)">Stargazers</text><path  d="M 38 351
L 101 350
L 145 350
L 147 350
L 156 350
L 156 350
L 156 350
L 157 350
L 157 350
L 157 350
L 158 350
L 158 350
L 158 350
L 158 350
L 158 350
L 158 350
L 158 350
L 158 350
L 158 350
L 159 350
L 159 350
L 159 350
L 161 349
L 161 349
L 168 349
L 168 349
L 168 349
L 168 349
L 169 349
L 170 349
L 172 349
L 172 349
L 174 349
L 174 349
L 174 349
L 174 349
L 174 349
L 174 349
L 177 349
L 179 349
L 180 349
L 180 349
L 180 349
L 180 349
L 180 348
L 180 348
L 180 348
L 180 348
L 181 348
L 181 348
L 182 348
L 183 348
L 183 348
L 183 348
L 183 348
L 183 348
L 183 348
L 184 348
L 184 348
L 185 348
L 185 348
L 185 348
L 185 348
L 185 348
L 186 348
L 186 348
L 186 347
L 186 347
L 187 347
L 190 347
L 192 347
L 192 347
L 192 347
L 192 347
L 192 347
L 192 347
L 192 347
L 192 347
L 193 347
L 193 347
L 193 347
L 193 347
L 193 347
L 193 347
L 193 347
L 193 347
L 193 347
L 193 347
L 193 346
L 193 346
L 193 346
L 193 346
L 194 346
L 194 346
L 194 346
L 194 346
L 194 346
L 194 346
L 194 346
L 194 346
L 194 346
L 194 346
L 194 346
L 194 346
L 194 346
L 194 346
L 194 346
L 194 346
L 194 346
L 194 345
L 194 345
L 194 345
L 194 345
L 194 345
L 194 345
L 194 345
L 194 345
L 194 345
L 194 345
L 194 345
L 194 345
L 194 345
L 194 345
L 194 345
L 195 345
L 195 345
L 195 345
L 195 345
L 195 345
L 195 345
L 195 345
L 195 344
L 195 344
L 195 344
L 196 344
L 196 344
L 196 344
L 196 344
L 196 344
L 196 344
L 196 344
L 196 344
L 196 344
L 196 344
L 196 344
L 197 344
L 197 344
L 197 344
L 197 344
L 197 344
L 197 344
L 197 344
L 199 344
L 199 343
L 203 343
L 203 343
L 203 343
L 203 343
L 203 343
L 204 343
L 204 343
L 204 343
L 205 343
L 205 343
L 205 343
L 205 343
L 206 343
L 206 343
L 206 343
L 206 343
L 207 343
L 207 343
L 207 343
L 207 343
L 207 343
L 207 342
L 208 342
L 208 342
L 209 342
L 215 342
L 216 342
L 216 342
L 216 342
L 216 342
L 217 342
L 218 342
L 219 342
L 222 342
L 222 342
L 223 342
L 225 342
L 228 342
L 228 342
L 230 342
L 230 342
L 231 342
L 231 341
L 232 341
L 232 341
L 232 341
L 232 341
L 232 341
L 232 341
L 233 341
L 233 341
L 235 341
L 239 341
L 239 341
L 239 341
L 240 341
L 240 341
L 240 341
L 241 341
L 246 341
L 246 341
L 251 341
L 253 341
L 253 341
L 254 340
L 254 340
L 256 340
L 256 340
L 263 340
L 263 340
L 263 340
L 263 340
L 264 340
L 265 340
L 265 340
L 267 340
L 268 340
L 270 340
L 271 340
L 275 340
L 279 340
L 280 340
L 286 340
L 287 340
L 287 340
L 289 340
L 289 339
L 289 339
L 290 339
L 291 339
L 292 339
L 293 339
L 293 339
L 293 339
L 295 339
L 296 339
L 299 339
L 301 339
L 301 339
L 301 339
L 301 339
L 302 339
L 303 339
L 304 339
L 305 339
L 305 339
L 305 339
L 306 339
L 310 338
L 311 338
L 311 338
L 312 338
L 313 338
L 315 338
L 316 338
L 316 338
L 317 338
L 321 338
L 322 338
L 322 338
L 323 338
L 323 338
L 323 338
L 326 338
L 326 338
L 328 338
L 329 338
L 334 338
L 335 338
L 337 337
L 337 337
L 338 337
L 338 337
L 338 337
L 340 337
L 340 337
L 341 337
L 342 337
L 346 337
L 347 337
L 348 337
L 348 337
L 348 337
L 349 337
L 349 337
L 349 337
L 351 337
L 358 337
L 358 337
L 358 337
L 358 337
L 360 336
L 360 336
L 361 336
L 362 336
L 362 336
L 364 336
L 364 336
L 364 336
L 364 336
L 364 336
L 366 336
L 370 336
L 371 336
L 371 336
L 371 336
L 371 336
L 371 336
L 371 336
L 371 336
L 371 336
L 371 336
L 372 336
L 372 335
L 373 335
L 373 335
L 373 335
L 373 335
L 373 335
L 373 335
L 373 335
L 373 335
L 373 335
L 373 335
L 373 335
L 373 335
L 373 335
L 373 335
L 373 335
L 373 335
L 373 335
L 373 335
L 373 335
L 373 335
L 373 335
L 373 334
L 374 334
L 374 334
L 374 334
L 374 334
L 374 334
L 374 334
L 374 334
L 374 334
L 374 334
L 374 334
L 374 334
L 374 334
L 374 334
L 374 334
L 374 334
L 374 334
L 374 334
L 374 334
L 374 334
L 374 334
L 374 334
L 374 333
L 374 333
L 375 333
L 375 333
L 375 333
L 375 333
L 375 333
L 375 333
L 375 333
L 375 333
L 376 333
L 376 333
L 376 333
L 376 333
L 376 333
L 376 333
L 376 333
L 376 333
L 376 333
L 376 333
L 376 333
L 377 332
L 377 332
L 377 332
L 377 332
L 378 332
L 378 332
L 378 332
L 382 332
L 382 332
L 382 332
L 382 332
L 382 332
L 382 332
L 382 332
L 383 332
L 383 332
L 383 332
L 383 332
L 383 332
L 383 332
L 383 332
L 383 332
L 383 331
L 383 331
L 383 331
L 383 331
L 383 331
L 383 331
L 384 331
L 384 331
L 384 331
L 384 331
L 384 331
L 384 331
L 384 331
L 384 331
L 384 331
L 384 331
L 384 331
L 385 331
L 385 331
L 385 331
L 385 331
L 385 331
L 385 330
L 385 330
L 385 330
L 385 330
L 385 330
L 385 330
L 385 330
L 385 330
L 385 330
L 385 330
L 385 330
L 385 330
L 385 330
L 385 330
L 386 330
L 386 330
L 386 330
L 386 330
L 386 330
L 386 330
L 386 330
L 386 330
L 386 329
L 386 329
L 386 329
L 386 329
L 386 329
L 386 329
L 386 329
L 386 329
L 386 329
L 386 329
L 386 329
L 387 329
L 387 329
L 387 329
L 387 329
L 387 329
L 387 329
L 387 329
L 387 329
L 387 329
L 387 329
L 387 328
L 387 328
L 388 328
L 388 328
L 388 328
L 388 328
L 388 328
L 388 328
L 388 328
L 388 328
L 388 328
L 388 328
L 388 328
L 388 328
L 388 328
L 388 328
L 388 328
L 388 328
L 388 328
L 388 328
L 388 328
L 389 328
L 389 327
L 389 327
L 389 327
L 389 327
L 389 327
L 389 327
L 389 327
L 389 327
L 389 327
L 389 327
L 389 327
L 389 327
L 389 327
L 389 327
L 389 327
L 389 327
L 389 327
L 389 327
L 389 327
L 390 327
L 390 327
L 390 327
L 390 326
L 391 326
L 391 326
L 393 326
L 393 326
L 393 326
L 393 326
L 393 326
L 393 326
L 393 326
L 394 326
L 394 326
L 394 326
L 394 326
L 394 326
L 394 326
L 394 326
L 394 326
L 394 326
L 394 326
L 394 326
L 394 326
L 394 325
L 395 325
L 395 325
L 395 325
L 395 325
L 395 325
L 395 325
L 395 325
L 395 325
L 395 325
L 395 325
L 395 325
L 395 325
L 395 325
L 395 325
L 395 325
L 395 325
L 395 325
L 395 325
L 395 325
L 395 325
L 395 324
L 395 324
L 395 324
L 396 324
L 396 324
L 396 324
L 396 324
L 396 324
L 396 324
L 396 324
L 396 324
L 396 324
L 396 324
L 396 324
L 396 324
L 396 324
L 396 324
L 396 324
L 396 324
L 396 324
L 396 324
L 396 324
L 396 323
L 397 323
L 397 323
L 397 323
L 397 323
L 397 323
L 397 323
L 397 323
L 397 323
L 397 323
L 397 323
L 397 323
L 397 323
L 397 323
L 397 323
L 397 323
L 397 323
L 397 323
L 397 323
L 397 323
L 397 323
L 397 323
L 397 322
L 398 322
L 398 322
L 398 322
L 398 322
L 398 322
L 398 322
L 398 322
L 398 322
L 398 322
L 398 322
L 398 322
L 398 322
L 399 322
L 399 322
L 399 322
L 399 322
L 399 322
L 399 322
L 399 322
L 399 322
L 399 322
L 399 321
L 399 321
L 399 321
L 399 321
L 399 321
L 399 321
L 399 321
L 399 321
L 399 321
L 399 321
L 399 321
L 399 321
L 400 321
L 400 321
L 400 321
L 400 321
L 400 321
L 400 321
L 400 321
L 400 321
L 400 321
L 400 320
L 400 320
L 400 320
L 400 320
L 400 320
L 400 320
L 400 320
L 400 320
L 400 320
L 400 320
L 400 320
L 400 320
L 400 320
L 400 320
L 400 320
L 400 320
L 401 320
L 401 320
L 401 320
L 401 320
L 401 320
L 401 320
L 401 319
L 401 319
L 401 319
L 401 319
L 401 319
L 401 319
L 401 319
L 401 319
L 401 319
L 401 319
L 401 319
L 401 319
L 402 319
L 402 319
L 402 319
L 402 319
L 402 319
L 402 319
L 403 319
L 403 319
L 404 319
L 405 319
L 405 318
L 405 318
L 405 318
L 405 318
L 405 318
L 405 318
L 405 318
L 405 318
L 405 318
L 405 318
L 405 318
L 405 318
L 405 318
L 405 318
L 405 318
L 405 318
L 405 318
L 405 318
L 405 318
L 405 318
L 405 318
L 405 318
L 405 317
L 406 317
L 406 317
L 406 317
L 406 317
L 406 317
L 406 317
L 406 317
L 406 317
L 406 317
L 406 317
L 406 317
L 406 317
L 406 317
L 406 317
L 406 317
L 406 317
L 406 317
L 406 317
L 406 317
L 406 317
L 406 317
L 406 316
L 406 316
L 406 316
L 406 316
L 406 316
L 406 316
L 406 316
L 406 316
L 406 316
L 406 316
L 406 316
L 406 316
L 406 316
L 406 316
L 406 316
L 406 316
L 406 316
L 406 316
L 406 316
L 406 316
L 406 316
L 406 315
L 406 315
L 406 315
L 406 315
L 406 315
L 406 315
L 406 315
L 406 315
L 406 315
L 406 315
L 406 315
L 406 315
L 406 315
L 406 315
L 406 315
L 406 315
L 406 315
L 406 315
L 406 315
L 406 315
L 406 315
L 406 315
L 406 314
L 406 314
L 406 314
L 406 314
L 406 314
L 406 314
L 406 314
L 406 314
L 406 314
L 406 314
L 406 314
L 406 314
L 406 314
L 406 314
L 406 314
L 406 314
L 406 314
L 406 314
L 406 314
L 406 314
L 406 314
L 406 314
L 406 313
L 406 313
L 406 313
L 406 313
L 407 313
L 407 313
L 407 313
L 407 313
L 407 313
L 407 313
L 407 313
L 407 313
L 407 313
L 407 313
L 407 313
L 407 313
L 407 313
L 407 313
L 407 313
L 407 313
L 407 313
L 407 313
L 407 312
L 407 312
L 407 312
L 407 312
L 407 312
L 407 312
L 407 312
L 407 312
L 407 312
L 407 312
L 407 312
L 407 312
L 407 312
L 407 312
L 407 312
L 407 312
L 407 312
L 407 312
L 407 312
L 407 312
L 407 312
L 407 311
L 408 311
L 408 311
L 408 311
L 408 311
L 408 311
L 408 311
L 408 311
L 408 311
L 408 311
L 408 311
L 408 311
L 408 311
L 408 311
L 408 311
L 408 311
L 408 311
L 408 311
L 408 311
L 408 311
L 408 311
L 408 311
L 408 310
L 408 310
L 408 310
L 408 310
L 408 310
L 408 310
L 408 310
L 408 310
L 408 310
L 408 310
L 408 310
L 408 310
L 408 310
L 408 310
L 408 310
L 408 310
L 408 310
L 408 310
L 408 310
L 408 310
L 408 310
L 408 310
L 408 309
L 408 309
L 408 309
L 408 309
L 408 309
L 408 309
L 408 309
L 408 309
L 408 309
L 408 309
L 408 309
L 408 309
L 408 309
L 408 309
L 408 309
L 408 309
L 408 309
L 408 309
L 408 309
L 408 309
L 408 309
L 408 309
L 408 308
L 408 308
L 408 308
L 408 308
L 408 308
L 408 308
L 408 308
L 409 308
L 409 308
L 409 308
L 409 308
L 409 308
L 409 308
L 409 308
L 409 308
L 409 308
L 409 308
L 409 308
L 409 308
L 409 308
L 409 308
L 409 307
L 409 307
L 409 307
L 409 307
L 409 307
L 409 307
L 409 307
L 409 307
L 409 307
L 409 307
L 409 307
L 409 307
L 409 307
L 409 307
L 409 307
L 409 307
L 409 307
L 409 307
L 409 307
L 409 307
L 409 307
L 409 307
L 409 306
L 409 306
L 409 306
L 409 306
L 409 306
L 409 306
L 409 306
L 409 306
L 409 306
L 409 306
L 409 306
L 409 306
L 409 306
L 409 306
L 409 306
L 409 306
L 409 306
L 409 306
L 409 306
L 409 306
L 409 306
L 410 306
L 410 305
L 410 305
L 410 305
L 410 305
L 410 305
L 410 305
L 410 305
L 410 305
L 410 305
L 410 305
L 410 305
L 410 305
L 410 305
L 410 305
L 410 305
L 410 305
L 410 305
L 410 305
L 410 305
L 410 305
L 410 305
L 410 305
L 410 304
L 410 304
L 410 304
L 410 304
L 410 304
L 410 304
L 410 304
L 410 304
L 410 304
L 410 304
L 410 304
L 410 304
L 410 304
L 410 304
L 410 304
L 410 304
L 410 304
L 410 304
L 410 304
L 410 304
L 410 304
L 410 303
L 410 303
L 410 303
L 410 303
L 410 303
L 410 303
L 411 303
L 411 303
L 411 303
L 411 303
L 411 303
L 411 303
L 411 303
L 411 303
L 411 303
L 411 303
L 411 303
L 411 303
L 411 303
L 411 303
L 411 303
L 411 303
L 411 302
L 411 302
L 411 302
L 411 302
L 411 302
L 411 302
L 411 302
L 411 302
L 411 302
L 412 302
L 412 302
L 412 302
L 412 302
L 412 302
L 412 302
L 412 302
L 412 302
L 412 302
L 412 302
L 412 302
L 412 302
L 412 302
L 412 301
L 412 301
L 412 301
L 412 301
L 412 301
L 412 301
L 412 301
L 412 301
L 412 301
L 412 301
L 413 301
L 413 301
L 413 301
L 413 301
L 413 301
L 413 301
L 413 301
L 413 301
L 413 301
L 413 301
L 413 301
L 413 301
L 413 300
L 413 300
L 413 300
L 413 300
L 413 300
L 413 300
L 414 300
L 414 300
L 414 300
L 414 300
L 415 300
L 416 300
L 417 300
L 417 300
L 417 300
L 417 300
L 417 300
L 417 300
L 417 300
L 417 300
L 417 300
L 417 300
L 417 299
L 417 299
L 417 299
L 417 299
L 417 299
L 417 299
L 417 299
L 417 299
L 417 299
L 417 299
L 418 299
L 418 299
L 418 299
L 418 299
L 418 299
L 418 299
L 418 299
L 418 299
L 418 299
L 418 299
L 418 299
L 418 298
L 418 298
L 418 298
L 418 298
L 418 298
L 418 298
L 418 298
L 418 298
L 418 298
L 418 298
L 418 298
L 418 298
L 418 298
L 418 298
L 418 298
L 418 298
L 418 298
L 418 298
L 418 298
L 418 298
L 418 298
L 418 298
L 418 297
L 418 297
L 418 297
L 418 297
L 418 297
L 418 297
L 418 297
L 418 297
L 418 297
L 418 297
L 418 297
L 418 297
L 418 297
L 418 297
L 418 297
L 418 297
L 418 297
L 418 297
L 418 297
L 418 297
L 418 297
L 418 297
L 418 296
L 418 296
L 418 296
L 418 296
L 418 296
L 418 296
L 418 296
L 418 296
L 418 296
L 418 296
L 418 296
L 418 296
L 418 296
L 418 296
L 418 296
L 418 296
L 418 296
L 418 296
L 418 296
L 418 296
L 418 296
L 418 296
L 418 295
L 418 295
L 418 295
L 418 295
L 418 295
L 418 295
L 418 295
L 418 295
L 418 295
L 418 295
L 418 295
L 418 295
L 418 295
L 418 295
L 418 295
L 418 295
L 418 295
L 418 295
L 418 295
L 418 295
L 418 295
L 418 294
L 418 294
L 418 294
L 419 294
L 419 294
L 419 294
L 419 294
L 419 294
L 419 294
L 419 294
L 419 294
L 419 294
L 419 294
L 419 294
L 419 294
L 419 294
L 419 294
L 419 294
L 419 294
L 419 294
L 419 294
L 419 294
L 419 293
L 419 293
L 419 293
L 419 293
L 419 293
L 419 293
L 419 293
L 419 293
L 419 293
L 419 293
L 419 293
L 419 293
L 419 293
L 419 293
L 419 293
L 419 293
L 419 293
L 419 293
L 420 293
L 420 293
L 420 293
L 420 293
L 420 292
L 420 292
L 420 292
L 420 292
L 420 292
L 420 292
L 420 292
L 420 292
L 420 292
L 420 292
L 420 292
L 420 292
L 420 292
L 420 292
L 420 292
L 420 292
L 420 292
L 420 292
L 420 292
L 420 292
L 420 292
L 420 292
L 420 291
L 420 291
L 420 291
L 420 291
L 420 291
L 420 291
L 420 291
L 420 291
L 420 291
L 420 291
L 420 291
L 420 291
L 420 291
L 420 291
L 420 291
L 420 291
L 420 291
L 420 291
L 420 291
L 420 291
L 420 291
L 420 290
L 420 290
L 420 290
L 420 290
L 420 290
L 420 290
L 420 290
L 420 290
L 420 290
L 420 290
L 420 290
L 421 290
L 421 290
L 421 290
L 421 290
L 421 290
L 421 290
L 421 290
L 421 290
L 421 290
L 421 290
L 421 290
L 421 289
L 421 289
L 421 289
L 421 289
L 421 289
L 421 289
L 421 289
L 421 289
L 421 289
L 421 289
L 421 289
L 421 289
L 421 289
L 421 289
L 421 289
L 421 289
L 421 289
L 421 289
L 421 289
L 421 289
L 421 289
L 421 289
L 421 288
L 421 288
L 421 288
L 421 288
L 421 288
L 421 288
L 421 288
L 421 288
L 421 288
L 421 288
L 421 288
L 421 288
L 421 288
L 421 288
L 421 288
L 421 288
L 421 288
L 421 288
L 421 288
L 421 288
L 421 288
L 422 288
L 422 287
L 422 287
L 422 287
L 422 287
L 422 287
L 422 287
L 422 287
L 422 287
L 422 287
L 422 287
L 422 287
L 422 287
L 422 287
L 422 287
L 422 287
L 422 287
L 422 287
L 422 287
L 422 287
L 422 287
L 422 287
L 422 286
L 422 286
L 422 286
L 422 286
L 422 286
L 422 286
L 422 286
L 422 286
L 422 286
L 422 286
L 422 286
L 422 286
L 422 286
L 422 286
L 422 286
L 422 286
L 422 286
L 422 286
L 422 286
L 422 286
L 422 286
L 422 286
L 422 285
L 422 285
L 422 285
L 422 285
L 422 285
L 422 285
L 422 285
L 422 285
L 422 285
L 422 285
L 422 285
L 422 285
L 422 285
L 422 285
L 422 285
L 422 285
L 422 285
L 422 285
L 422 285
L 422 285
L 422 285
L 422 285
L 423 284
L 423 284
L 423 284
L 423 284
L 423 284
L 423 284
L 423 284
L 423 284
L 423 284
L 423 284
L 423 284
L 423 284
L 423 284
L 423 284
L 423 284
L 423 284
L 423 284
L 423 284
L 423 284
L 423 284
L 423 284
L 423 284
L 423 283
L 423 283
L 423 283
L 423 283
L 423 283
L 423 283
L 423 283
L 423 283
L 423 283
L 423 283
L 423 283
L 423 283
L 423 283
L 423 283
L 423 283
L 424 283
L 424 283
L 424 283
L 424 283
L 424 283
L 424 283
L 424 283
L 424 282
L 424 282
L 424 282
L 424 282
L 424 282
L 424 282
L 424 282
L 424 282
L 424 282
L 424 282
L 424 282
L 424 282
L 424 282
L 424 282
L 424 282
L 424 282
L 424 282
L 424 282
L 424 282
L 424 282
L 424 282
L 424 281
L 424 281
L 424 281
L 424 281
L 424 281
L 424 281
L 424 281
L 424 281
L 425 281
L 425 281
L 425 281
L 425 281
L 425 281
L 425 281
L 425 281
L 425 281
L 425 281
L 425 281
L 425 281
L 425 281
L 425 281
L 425 281
L 425 280
L 425 280
L 425 280
L 425 280
L 425 280
L 425 280
L 425 280
L 426 280
L 426 280
L 426 280
L 426 280
L 426 280
L 427 280
L 428 280
L 429 280
L 429 280
L 429 280
L 429 280
L 429 280
L 429 280
L 429 280
L 429 280
L 429 279
L 429 279
L 429 279
L 429 279
L 429 279
L 429 279
L 429 279
L 429 279
L 429 279
L 429 279
L 429 279
L 429 279
L 429 279
L 429 279
L 429 279
L 429 279
L 429 279
L 429 279
L 429 279
L 429 279
L 429 279
L 429 279
L 429 278
L 430 278
L 430 278
L 430 278
L 430 278
L 430 278
L 430 278
L 430 278
L 430 278
L 430 278
L 430 278
L 430 278
L 430 278
L 430 278
L 430 278
L 430 278
L 430 278
L 430 278
L 430 278
L 430 278
L 430 278
L 430 277
L 430 277
L 430 277
L 430 277
L 430 277
L 430 277
L 430 277
L 430 277
L 430 277
L 430 277
L 430 277
L 430 277
L 430 277
L 430 277
L 430 277
L 430 277
L 430 277
L 430 277
L 430 277
L 430 277
L 430 277
L 430 277
L 430 276
L 430 276
L 430 276
L 430 276
L 430 276
L 430 276
L 430 276
L 430 276
L 430 276
L 430 276
L 430 276
L 430 276
L 430 276
L 430 276
L 430 276
L 430 276
L 430 276
L 430 276
L 430 276
L 430 276
L 430 276
L 430 276
L 430 275
L 430 275
L 430 275
L 430 275
L 430 275
L 430 275
L 430 275
L 430 275
L 430 275
L 430 275
L 430 275
L 430 275
L 430 275
L 430 275
L 430 275
L 430 275
L 430 275
L 430 275
L 430 275
L 430 275
L 430 275
L 430 275
L 430 274
L 430 274
L 431 274
L 431 274
L 431 274
L 431 274
L 431 274
L 431 274
L 431 274
L 431 274
L 431 274
L 431 274
L 431 274
L 431 274
L 431 274
L 431 274
L 431 274
L 431 274
L 431 274
L 431 274
L 431 274
L 431 273
L 431 273
L 431 273
L 431 273
L 431 273
L 431 273
L 432 273
L 432 273
L 432 273
L 432 273
L 432 273
L 432 273
L 432 273
L 432 273
L 432 273
L 432 273
L 432 273
L 432 273
L 432 273
L 432 273
L 432 273
L 432 273
L 432 272
L 432 272
L 432 272
L 432 272
L 432 272
L 432 272
L 432 272
L 432 272
L 432 272
L 432 272
L 432 272
L 432 272
L 432 272
L 432 272
L 432 272
L 432 272
L 432 272
L 432 272
L 432 272
L 432 272
L 432 272
L 432 272
L 432 271
L 432 271
L 432 271
L 432 271
L 432 271
L 432 271
L 432 271
L 432 271
L 432 271
L 432 271
L 432 271
L 432 271
L 433 271
L 433 271
L 433 271
L 433 271
L 433 271
L 433 271
L 433 271
L 433 271
L 433 271
L 433 271
L 433 270
L 433 270
L 433 270
L 433 270
L 433 270
L 433 270
L 433 270
L 433 270
L 433 270
L 433 270
L 433 270
L 433 270
L 433 270
L 433 270
L 433 270
L 433 270
L 433 270
L 433 270
L 433 270
L 433 270
L 433 270
L 433 269
L 433 269
L 433 269
L 433 269
L 433 269
L 433 269
L 433 269
L 433 269
L 433 269
L 433 269
L 433 269
L 433 269
L 433 269
L 433 269
L 433 269
L 433 269
L 433 269
L 433 269
L 433 269
L 433 269
L 433 269
L 433 269
L 433 268
L 434 268
L 434 268
L 434 268
L 434 268
L 434 268
L 434 268
L 434 268
L 434 268
L 434 268
L 434 268
L 434 268
L 434 268
L 434 268
L 434 268
L 434 268
L 434 268
L 434 268
L 434 268
L 434 268
L 434 268
L 434 268
L 434 267
L 434 267
L 434 267
L 434 267
L 434 267
L 434 267
L 434 267
L 434 267
L 434 267
L 434 267
L 434 267
L 434 267
L 434 267
L 434 267
L 434 267
L 435 267
L 435 267
L 435 267
L 435 267
L 435 267
L 435 267
L 435 267
L 435 266
L 435 266
L 435 266
L 435 266
L 435 266
L 435 266
L 435 266
L 435 266
L 435 266
L 435 266
L 435 266
L 435 266
L 435 266
L 435 266
L 435 266
L 435 266
L 435 266
L 435 266
L 435 266
L 435 266
L 435 266
L 436 266
L 436 265
L 436 265
L 436 265
L 436 265
L 436 265
L 436 265
L 436 265
L 436 265
L 436 265
L 436 265
L 436 265
L 436 265
L 436 265
L 436 265
L 436 265
L 436 265
L 436 265
L 436 265
L 437 265
L 437 265
L 437 265
L 437 264
L 437 264
L 437 264
L 437 264
L 437 264
L 437 264
L 437 264
L 437 264
L 437 264
L 437 264
L 437 264
L 437 264
L 437 264
L 437 264
L 438 264
L 438 264
L 440 264
L 441 264
L 441 264
L 441 264
L 441 264
L 441 264
L 441 263
L 441 263
L 441 263
L 441 263
L 441 263
L 441 263
L 441 263
L 441 263
L 441 263
L 441 263
L 441 263
L 441 263
L 441 263
L 441 263
L 441 263
L 441 263
L 441 263
L 441 263
L 441 263
L 441 263
L 442 263
L 442 263
L 442 262
L 442 262
L 442 262
L 442 262
L 442 262
L 442 262
L 442 262
L 442 262
L 442 262
L 442 262
L 442 262
L 442 262
L 442 262
L 442 262
L 442 262
L 442 262
L 442 262
L 442 262
L 442 262
L 442 262
L 442 262
L 442 262
L 442 261
L 442 261
L 442 261
L 442 261
L 442 261
L 442 261
L 442 261
L 442 261
L 442 261
L 442 261
L 442 261
L 442 261
L 442 261
L 442 261
L 442 261
L 442 261
L 442 261
L 442 261
L 442 261
L 442 261
L 442 261
L 442 260
L 442 260
L 442 260
L 442 260
L 442 260
L 442 260
L 442 260
L 442 260
L 442 260
L 442 260
L 443 260
L 443 260
L 443 260
L 443 260
L 443 260
L 443 260
L 443 260
L 443 260
L 443 260
L 443 260
L 443 260
L 443 260
L 443 259
L 443 259
L 443 259
L 443 259
L 443 259
L 443 259
L 443 259
L 443 259
L 443 259
L 444 259
L 444 259
L 444 259
L 444 259
L 444 259
L 444 259
L 444 259
L 444 259
L 444 259
L 444 259
L 444 259
L 444 259
L 444 259
L 444 258
L 444 258
L 444 258
L 444 258
L 444 258
L 444 258
L 444 258
L 444 258
L 444 258
L 444 258
L 444 258
L 444 258
L 444 258
L 444 258
L 444 258
L 444 258
L 444 258
L 444 258
L 444 258
L 445 258
L 445 258
L 445 258
L 445 257
L 445 257
L 445 257
L 445 257
L 445 257
L 445 257
L 445 257
L 445 257
L 445 257
L 445 257
L 445 257
L 445 257
L 445 257
L 445 257
L 445 257
L 445 257
L 445 257
L 445 257
L 445 257
L 445 257
L 445 257
L 445 256
L 445 256
L 445 256
L 445 256
L 445 256
L 445 256
L 445 256
L 445 256
L 445 256
L 445 256
L 445 256
L 445 256
L 445 256
L 445 256
L 445 256
L 445 256
L 445 256
L 445 256
L 445 256
L 446 256
L 446 256
L 446 256
L 446 255
L 446 255
L 446 255
L 446 255
L 446 255
L 446 255
L 446 255
L 446 255
L 446 255
L 446 255
L 446 255
L 446 255
L 446 255
L 446 255
L 446 255
L 446 255
L 446 255
L 446 255
L 446 255
L 447 255
L 447 255
L 447 255
L 447 254
L 447 254
L 447 254
L 447 254
L 447 254
L 447 254
L 447 254
L 447 254
L 447 254
L 447 254
L 447 254
L 447 254
L 447 254
L 447 254
L 447 254
L 447 254
L 447 254
L 447 254
L 447 254
L 447 254
L 448 254
L 448 254
L 448 253
L 448 253
L 448 253
L 448 253
L 448 253
L 448 253
L 448 253
L 448 253
L 448 253
L 448 253
L 449 253
L 449 253
L 449 253
L 449 253
L 449 253
L 449 253
L 449 253
L 449 253
L 450 253
L 450 253
L 450 253
L 450 252
L 453 252
L 453 252
L 453 252
L 453 252
L 453 252
L 453 252
L 453 252
L 453 252
L 453 252
L 453 252
L 453 252
L 453 252
L 453 252
L 453 252
L 453 252
L 453 252
L 453 252
L 453 252
L 453 252
L 453 252
L 453 252
L 454 251
L 454 251
L 454 251
L 454 251
L 454 251
L 454 251
L 454 251
L 454 251
L 454 251
L 454 251
L 454 251
L 454 251
L 454 251
L 454 251
L 454 251
L 454 251
L 454 251
L 454 251
L 454 251
L 454 251
L 454 251
L 454 251
L 454 250
L 454 250
L 454 250
L 454 250
L 454 250
L 454 250
L 454 250
L 454 250
L 454 250
L 454 250
L 454 250
L 454 250
L 454 250
L 454 250
L 454 250
L 454 250
L 454 250
L 454 250
L 454 250
L 454 250
L 454 250
L 454 250
L 454 249
L 454 249
L 454 249
L 454 249
L 454 249
L 454 249
L 454 249
L 454 249
L 454 249
L 454 249
L 454 249
L 454 249
L 454 249
L 454 249
L 454 249
L 455 249
L 455 249
L 455 249
L 455 249
L 455 249
L 455 249
L 455 249
L 455 248
L 455 248
L 455 248
L 455 248
L 455 248
L 455 248
L 455 248
L 455 248
L 455 248
L 455 248
L 455 248
L 455 248
L 456 248
L 456 248
L 456 248
L 456 248
L 456 248
L 456 248
L 456 248
L 456 248
L 456 248
L 456 247
L 456 247
L 456 247
L 456 247
L 456 247
L 456 247
L 456 247
L 456 247
L 456 247
L 456 247
L 456 247
L 456 247
L 456 247
L 456 247
L 456 247
L 456 247
L 456 247
L 456 247
L 456 247
L 456 247
L 456 247
L 456 247
L 456 246
L 456 246
L 456 246
L 456 246
L 456 246
L 456 246
L 456 246
L 456 246
L 456 246
L 456 246
L 456 246
L 456 246
L 456 246
L 456 246
L 456 246
L 456 246
L 456 246
L 456 246
L 456 246
L 456 246
L 456 246
L 456 246
L 456 245
L 456 245
L 456 245
L 456 245
L 457 245
L 457 245
L 457 245
L 457 245
L 457 245
L 457 245
L 457 245
L 457 245
L 457 245
L 457 245
L 457 245
L 457 245
L 457 245
L 457 245
L 457 245
L 457 245
L 457 245
L 457 245
L 457 244
L 457 244
L 457 244
L 457 244
L 457 244
L 457 244
L 457 244
L 457 244
L 457 244
L 457 244
L 457 244
L 457 244
L 457 244
L 457 244
L 457 244
L 457 244
L 457 244
L 457 244
L 457 244
L 457 244
L 457 244
L 457 243
L 457 243
L 457 243
L 457 243
L 457 243
L 457 243
L 457 243
L 457 243
L 458 243
L 458 243
L 458 243
L 458 243
L 458 243
L 458 243
L 458 243
L 458 243
L 458 243
L 458 243
L 458 243
L 458 243
L 458 243
L 458 243
L 458 242
L 458 242
L 458 242
L 458 242
L 458 242
L 458 242
L 458 242
L 459 242
L 459 242
L 459 242
L 459 242
L 459 242
L 459 242
L 459 242
L 459 242
L 459 242
L 459 242
L 459 242
L 459 242
L 459 242
L 459 242
L 459 242
L 459 241
L 460 241
L 460 241
L 460 241
L 460 241
L 460 241
L 460 241
L 460 241
L 460 241
L 460 241
L 460 241
L 460 241
L 460 241
L 460 241
L 460 241
L 460 241
L 460 241
L 460 241
L 460 241
L 460 241
L 460 241
L 460 241
L 461 240
L 461 240
L 461 240
L 461 240
L 461 240
L 461 240
L 461 240
L 461 240
L 461 240
L 462 240
L 463 240
L 463 240
L 463 240
L 465 240
L 465 240
L 465 240
L 465 240
L 465 240
L 465 240
L 465 240
L 465 240
L 465 239
L 465 239
L 465 239
L 465 239
L 465 239
L 465 239
L 465 239
L 465 239
L 465 239
L 465 239
L 465 239
L 465 239
L 465 239
L 465 239
L 465 239
L 465 239
L 465 239
L 465 239
L 465 239
L 465 239
L 465 239
L 465 239
L 465 238
L 466 238
L 466 238
L 466 238
L 466 238
L 466 238
L 466 238
L 466 238
L 466 238
L 466 238
L 466 238
L 466 238
L 466 238
L 466 238
L 466 238
L 466 238
L 466 238
L 466 238
L 466 238
L 466 238
L 466 238
L 466 238
L 466 237
L 466 237
L 466 237
L 466 237
L 466 237
L 466 237
L 466 237
L 466 237
L 466 237
L 466 237
L 466 237
L 466 237
L 466 237
L 466 237
L 466 237
L 466 237
L 466 237
L 466 237
L 466 237
L 466 237
L 466 237
L 466 237
L 466 236
L 466 236
L 466 236
L 466 236
L 466 236
L 466 236
L 466 236
L 466 236
L 466 236
L 466 236
L 466 236
L 466 236
L 466 236
L 466 236
L 466 236
L 466 236
L 466 236
L 466 236
L 466 236
L 466 236
L 466 236
L 466 235
L 466 235
L 466 235
L 466 235
L 466 235
L 467 235
L 467 235
L 467 235
L 467 235
L 467 235
L 467 235
L 467 235
L 467 235
L 467 235
L 467 235
L 467 235
L 467 235
L 467 235
L 467 235
L 467 235
L 467 235
L 467 235
L 467 234
L 467 234
L 467 234
L 467 234
L 467 234
L 467 234
L 467 234
L 467 234
L 467 234
L 467 234
L 467 234
L 468 234
L 468 234
L 468 234
L 468 234
L 468 234
L 468 234
L 468 234
L 468 234
L 468 234
L 468 234
L 468 234
L 468 233
L 468 233
L 468 233
L 468 233
L 468 233
L 468 233
L 468 233
L 468 233
L 468 233
L 468 233
L 468 233
L 468 233
L 468 233
L 468 233
L 468 233
L 468 233
L 468 233
L 468 233
L 468 233
L 468 233
L 468 233
L 468 233
L 468 232
L 468 232
L 468 232
L 468 232
L 468 232
L 468 232
L 468 232
L 468 232
L 468 232
L 468 232
L 468 232
L 468 232
L 468 232
L 468 232
L 468 232
L 468 232
L 468 232
L 468 232
L 468 232
L 469 232
L 469 232
L 469 232
L 469 231
L 469 231
L 469 231
L 469 231
L 469 231
L 469 231
L 469 231
L 469 231
L 469 231
L 469 231
L 469 231
L 469 231
L 469 231
L 469 231
L 469 231
L 469 231
L 469 231
L 469 231
L 469 231
L 469 231
L 469 231
L 469 230
L 469 230
L 469 230
L 469 230
L 469 230
L 469 230
L 469 230
L 469 230
L 469 230
L 469 230
L 469 230
L 469 230
L 469 230
L 469 230
L 469 230
L 469 230
L 469 230
L 469 230
L 469 230
L 469 230
L 470 230
L 470 230
L 470 229
L 470 229
L 470 229
L 470 229
L 470 229
L 470 229
L 470 229
L 470 229
L 470 229
L 470 229
L 470 229
L 470 229
L 470 229
L 470 229
L 470 229
L 471 229
L 471 229
L 471 229
L 471 229
L 471 229
L 471 229
L 471 229
L 471 228
L 471 228
L 471 228
L 471 228
L 471 228
L 471 228
L 471 228
L 472 228
L 472 228
L 472 228
L 472 228
L 472 228
L 472 228
L 472 228
L 472 228
L 472 228
L 472 228
L 472 228
L 472 228
L 472 228
L 473 228
L 473 228
L 473 227
L 473 227
L 473 227
L 473 227
L 473 227
L 473 227
L 473 227
L 475 227
L 475 227
L 476 227
L 476 227
L 476 227
L 477 227
L 477 227
L 477 227
L 477 227
L 477 227
L 477 227
L 477 227
L 477 227
L 478 227
L 478 226
L 478 226
L 478 226
L 478 226
L 478 226
L 478 226
L 478 226
L 478 226
L 478 226
L 478 226
L 478 226
L 478 226
L 478 226
L 478 226
L 479 226
L 479 226
L 479 226
L 479 226
L 479 226
L 479 226
L 479 226
L 479 226
L 479 225
L 479 225
L 480 225
L 480 225
L 480 225
L 480 225
L 480 225
L 480 225
L 480 225
L 480 225
L 480 225
L 481 225
L 481 225
L 481 225
L 481 225
L 481 225
L 481 225
L 481 225
L 481 225
L 482 225
L 482 225
L 482 225
L 482 224
L 482 224
L 482 224
L 483 224
L 483 224
L 483 224
L 483 224
L 483 224
L 483 224
L 483 224
L 483 224
L 483 224
L 484 224
L 484 224
L 484 224
L 484 224
L 484 224
L 484 224
L 484 224
L 484 224
L 484 224
L 484 224
L 485 223
L 485 223
L 485 223
L 485 223
L 486 223
L 486 223
L 487 223
L 487 223
L 487 223
L 487 223
L 488 223
L 488 223
L 488 223
L 489 223
L 489 223
L 489 223
L 489 223
L 489 223
L 489 223
L 490 223
L 490 223
L 490 222
L 490 222
L 490 222
L 490 222
L 490 222
L 490 222
L 490 222
L 490 222
L 491 222
L 491 222
L 491 222
L 491 222
L 491 222
L 491 222
L 491 222
L 492 222
L 492 222
L 492 222
L 492 222
L 492 222
L 492 222
L 492 222
L 492 221
L 492 221
L 493 221
L 493 221
L 493 221
L 493 221
L 494 221
L 494 221
L 494 221
L 494 221
L 494 221
L 494 221
L 494 221
L 495 221
L 495 221
L 495 221
L 495 221
L 495 221
L 495 221
L 495 221
L 495 221
L 496 221
L 496 220
L 496 220
L 496 220
L 496 220
L 496 220
L 496 220
L 496 220
L 496 220
L 496 220
L 497 220
L 497 220
L 497 220
L 497 220
L 497 220
L 498 220
L 498 220
L 499 220
L 499 220
L 500 220
L 501 220
L 501 220
L 501 220
L 501 219
L 501 219
L 501 219
L 501 219
L 501 219
L 502 219
L 502 219
L 502 219
L 502 219
L 502 219
L 502 219
L 502 219
L 503 219
L 503 219
L 503 219
L 503 219
L 503 219
L 503 219
L 503 219
L 503 219
L 503 219
L 503 218
L 504 218
L 504 218
L 504 218
L 504 218
L 504 218
L 504 218
L 504 218
L 505 218
L 505 218
L 505 218
L 505 218
L 505 218
L 505 218
L 505 218
L 505 218
L 505 218
L 505 218
L 505 218
L 505 218
L 506 218
L 506 218
L 506 217
L 506 217
L 506 217
L 506 217
L 506 217
L 506 217
L 506 217
L 506 217
L 506 217
L 506 217
L 506 217
L 506 217
L 506 217
L 506 217
L 507 217
L 507 217
L 507 217
L 507 217
L 507 217
L 507 217
L 507 217
L 507 217
L 507 216
L 507 216
L 507 216
L 508 216
L 508 216
L 508 216
L 508 216
L 508 216
L 508 216
L 509 216
L 509 216
L 509 216
L 509 216
L 509 216
L 512 216
L 513 216
L 513 216
L 513 216
L 513 216
L 513 216
L 513 216
L 513 216
L 513 215
L 513 215
L 513 215
L 513 215
L 513 215
L 513 215
L 513 215
L 513 215
L 513 215
L 513 215
L 513 215
L 513 215
L 513 215
L 513 215
L 513 215
L 513 215
L 513 215
L 513 215
L 513 215
L 513 215
L 513 215
L 513 215
L 513 214
L 513 214
L 513 214
L 513 214
L 513 214
L 513 214
L 513 214
L 513 214
L 513 214
L 513 214
L 513 214
L 513 214
L 513 214
L 513 214
L 514 214
L 514 214
L 514 214
L 514 214
L 514 214
L 514 214
L 514 214
L 514 213
L 514 213
L 514 213
L 514 213
L 514 213
L 514 213
L 514 213
L 514 213
L 514 213
L 514 213
L 514 213
L 514 213
L 514 213
L 514 213
L 514 213
L 514 213
L 514 213
L 514 213
L 514 213
L 514 213
L 514 213
L 514 213
L 514 212
L 515 212
L 515 212
L 515 212
L 515 212
L 515 212
L 515 212
L 515 212
L 515 212
L 515 212
L 515 212
L 515 212
L 515 212
L 515 212
L 515 212
L 515 212
L 515 212
L 515 212
L 515 212
L 515 212
L 515 212
L 515 212
L 515 211
L 515 211
L 515 211
L 515 211
L 515 211
L 515 211
L 515 211
L 515 211
L 515 211
L 515 211
L 515 211
L 515 211
L 516 211
L 516 211
L 516 211
L 516 211
L 516 211
L 516 211
L 516 211
L 516 211
L 516 211
L 516 211
L 516 210
L 516 210
L 516 210
L 516 210
L 516 210
L 516 210
L 516 210
L 516 210
L 516 210
L 516 210
L 516 210
L 516 210
L 516 210
L 516 210
L 516 210
L 516 210
L 516 210
L 516 210
L 516 210
L 517 210
L 517 210
L 517 209
L 517 209
L 517 209
L 517 209
L 517 209
L 517 209
L 517 209
L 517 209
L 517 209
L 517 209
L 517 209
L 517 209
L 517 209
L 517 209
L 517 209
L 517 209
L 517 209
L 517 209
L 517 209
L 517 209
L 517 209
L 518 209
L 518 208
L 518 208
L 518 208
L 518 208
L 518 208
L 518 208
L 518 208
L 518 208
L 518 208
L 518 208
L 518 208
L 518 208
L 519 208
L 519 208
L 519 208
L 519 208
L 519 208
L 519 208
L 519 208
L 519 208
L 519 208
L 519 208
L 519 207
L 519 207
L 519 207
L 519 207
L 519 207
L 519 207
L 519 207
L 519 207
L 519 207
L 519 207
L 519 207
L 519 207
L 519 207
L 519 207
L 519 207
L 519 207
L 519 207
L 519 207
L 519 207
L 519 207
L 519 207
L 520 207
L 520 206
L 520 206
L 520 206
L 520 206
L 520 206
L 520 206
L 520 206
L 520 206
L 520 206
L 520 206
L 520 206
L 520 206
L 521 206
L 521 206
L 522 206
L 522 206
L 522 206
L 523 206
L 524 206
L 524 206
L 524 206
L 524 205
L 524 205
L 524 205
L 524 205
L 524 205
L 524 205
L 524 205
L 524 205
L 525 205
L 525 205
L 525 205
L 525 205
L 525 205
L 525 205
L 525 205
L 525 205
L 525 205
L 525 205
L 525 205
L 525 205
L 525 205
L 525 205
L 525 204
L 525 204
L 525 204
L 525 204
L 525 204
L 525 204
L 525 204
L 525 204
L 525 204
L 525 204
L 525 204
L 525 204
L 525 204
L 525 204
L 525 204
L 525 204
L 525 204
L 525 204
L 525 204
L 525 204
L 525 204
L 525 204
L 525 203
L 525 203
L 525 203
L 525 203
L 525 203
L 525 203
L 525 203
L 525 203
L 525 203
L 525 203
L 525 203
L 525 203
L 525 203
L 525 203
L 525 203
L 525 203
L 525 203
L 526 203
L 526 203
L 526 203
L 526 203
L 526 203
L 526 202
L 526 202
L 526 202
L 526 202
L 526 202
L 526 202
L 526 202
L 526 202
L 526 202
L 526 202
L 527 202
L 527 202
L 527 202
L 527 202
L 527 202
L 527 202
L 527 202
L 527 202
L 527 202
L 527 202
L 527 202
L 527 201
L 527 201
L 527 201
L 527 201
L 527 201
L 527 201
L 527 201
L 527 201
L 527 201
L 527 201
L 527 201
L 527 201
L 527 201
L 527 201
L 527 201
L 527 201
L 527 201
L 527 201
L 527 201
L 527 201
L 527 201
L 527 201
L 527 200
L 527 200
L 527 200
L 528 200
L 528 200
L 528 200
L 528 200
L 528 200
L 528 200
L 528 200
L 528 200
L 528 200
L 528 200
L 528 200
L 528 200
L 528 200
L 528 200
L 528 200
L 528 200
L 528 200
L 528 200
L 528 200
L 528 199
L 528 199
L 528 199
L 528 199
L 528 199
L 528 199
L 528 199
L 528 199
L 528 199
L 528 199
L 528 199
L 528 199
L 528 199
L 528 199
L 529 199
L 529 199
L 529 199
L 529 199
L 529 199
L 529 199
L 529 199
L 529 199
L 529 198
L 529 198
L 529 198
L 529 198
L 529 198
L 529 198
L 529 198
L 529 198
L 529 198
L 529 198
L 529 198
L 529 198
L 529 198
L 529 198
L 529 198
L 529 198
L 529 198
L 529 198
L 529 198
L 529 198
L 529 198
L 529 198
L 529 197
L 529 197
L 529 197
L 529 197
L 529 197
L 529 197
L 529 197
L 529 197
L 529 197
L 529 197
L 529 197
L 529 197
L 529 197
L 529 197
L 529 197
L 529 197
L 529 197
L 529 197
L 529 197
L 530 197
L 530 197
L 530 196
L 530 196
L 530 196
L 530 196
L 530 196
L 530 196
L 530 196
L 530 196
L 530 196
L 530 196
L 530 196
L 530 196
L 530 196
L 530 196
L 530 196
L 530 196
L 530 196
L 530 196
L 530 196
L 530 196
L 530 196
L 530 196
L 531 195
L 531 195
L 531 195
L 531 195
L 531 195
L 531 195
L 531 195
L 531 195
L 531 195
L 531 195
L 531 195
L 531 195
L 531 195
L 531 195
L 531 195
L 531 195
L 531 195
L 531 195
L 531 195
L 531 195
L 531 195
L 531 195
L 531 194
L 531 194
L 531 194
L 532 194
L 532 194
L 532 194
L 532 194
L 532 194
L 532 194
L 532 194
L 532 194
L 532 194
L 532 194
L 532 194
L 532 194
L 532 194
L 532 194
L 532 194
L 532 194
L 533 194
L 533 194
L 533 194
L 533 193
L 534 193
L 535 193
L 535 193
L 536 193
L 536 193
L 536 193
L 536 193
L 536 193
L 536 193
L 536 193
L 536 193
L 536 193
L 536 193
L 536 193
L 536 193
L 537 193
L 537 193
L 537 193
L 537 193
L 537 193
L 537 192
L 537 192
L 537 192
L 537 192
L 537 192
L 537 192
L 537 192
L 537 192
L 537 192
L 537 192
L 537 192
L 537 192
L 537 192
L 537 192
L 537 192
L 537 192
L 537 192
L 537 192
L 537 192
L 537 192
L 537 192
L 537 192
L 537 191
L 537 191
L 537 191
L 537 191
L 537 191
L 537 191
L 537 191
L 538 191
L 538 191
L 538 191
L 538 191
L 538 191
L 538 191
L 538 191
L 538 191
L 538 191
L 538 191
L 538 191
L 538 191
L 538 191
L 538 191
L 538 191
L 538 190
L 538 190
L 538 190
L 538 190
L 538 190
L 538 190
L 539 190
L 539 190
L 539 190
L 539 190
L 539 190
L 539 190
L 539 190
L 539 190
L 539 190
L 539 190
L 539 190
L 539 190
L 539 190
L 539 190
L 539 190
L 539 190
L 539 189
L 539 189
L 539 189
L 539 189
L 539 189
L 539 189
L 539 189
L 539 189
L 539 189
L 539 189
L 540 189
L 540 189
L 540 189
L 540 189
L 540 189
L 540 189
L 540 189
L 540 189
L 540 189
L 540 189
L 540 189
L 540 188
L 540 188
L 540 188
L 540 188
L 540 188
L 540 188
L 540 188
L 540 188
L 540 188
L 540 188
L 540 188
L 540 188
L 540 188
L 540 188
L 540 188
L 540 188
L 540 188
L 540 188
L 540 188
L 540 188
L 540 188
L 540 188
L 541 187
L 541 187
L 541 187
L 541 187
L 541 187
L 541 187
L 541 187
L 541 187
L 541 187
L 541 187
L 541 187
L 541 187
L 541 187
L 541 187
L 541 187
L 541 187
L 541 187
L 541 187
L 541 187
L 541 187
L 541 187
L 541 187
L 541 186
L 541 186
L 541 186
L 541 186
L 541 186
L 541 186
L 542 186
L 542 186
L 542 186
L 542 186
L 542 186
L 542 186
L 542 186
L 542 186
L 542 186
L 542 186
L 542 186
L 543 186
L 543 186
L 543 186
L 543 186
L 543 186
L 543 185
L 543 185
L 543 185
L 543 185
L 543 185
L 543 185
L 543 185
L 543 185
L 543 185
L 543 185
L 543 185
L 543 185
L 543 185
L 543 185
L 544 185
L 544 185
L 544 185
L 544 185
L 544 185
L 545 185
L 545 185
L 545 184
L 545 184
L 546 184
L 546 184
L 546 184
L 546 184
L 547 184
L 548 184
L 548 184
L 548 184
L 548 184
L 549 184
L 549 184
L 549 184
L 549 184
L 549 184
L 549 184
L 549 184
L 549 184
L 549 184
L 549 184
L 549 184
L 549 183
L 549 183
L 549 183
L 549 183
L 549 183
L 549 183
L 549 183
L 549 183
L 549 183
L 549 183
L 549 183
L 549 183
L 550 183
L 550 183
L 550 183
L 550 183
L 550 183
L 550 183
L 550 183
L 550 183
L 550 183
L 550 183
L 550 182
L 550 182
L 550 182
L 550 182
L 550 182
L 550 182
L 551 182
L 551 182
L 551 182
L 551 182
L 551 182
L 551 182
L 551 182
L 551 182
L 551 182
L 551 182
L 551 182
L 551 182
L 551 182
L 552 182
L 552 182
L 552 182
L 552 181
L 552 181
L 552 181
L 552 181
L 552 181
L 552 181
L 552 181
L 552 181
L 553 181
L 553 181
L 553 181
L 553 181
L 553 181
L 553 181
L 553 181
L 553 181
L 554 181
L 554 181
L 554 181
L 554 181
L 554 181
L 554 181
L 554 180
L 554 180
L 554 180
L 554 180
L 554 180
L 554 180
L 554 180
L 554 180
L 555 180
L 555 180
L 555 180
L 555 180
L 555 180
L 555 180
L 555 180
L 555 180
L 555 180
L 555 180
L 555 180
L 556 180
L 556 180
L 556 179
L 556 179
L 556 179
L 556 179
L 557 179
L 560 179
L 560 179
L 561 179
L 561 179
L 561 179
L 561 179
L 561 179
L 562 179
L 562 179
L 562 179
L 562 179
L 562 179
L 562 179
L 562 179
L 562 179
L 562 179
L 562 179
L 563 178
L 563 178
L 563 178
L 563 178
L 563 178
L 563 178
L 563 178
L 563 178
L 563 178
L 564 178
L 564 178
L 564 178
L 564 178
L 564 178
L 564 178
L 564 178
L 564 178
L 564 178
L 564 178
L 564 178
L 564 178
L 565 178
L 565 177
L 565 177
L 565 177
L 565 177
L 565 177
L 565 177
L 565 177
L 565 177
L 565 177
L 565 177
L 566 177
L 566 177
L 566 177
L 566 177
L 566 177
L 566 177
L 566 177
L 567 177
L 567 177
L 567 177
L 567 177
L 567 177
L 567 176
L 567 176
L 567 176
L 567 176
L 567 176
L 567 176
L 567 176
L 567 176
L 567 176
L 567 176
L 567 176
L 567 176
L 567 176
L 568 176
L 568 176
L 568 176
L 568 176
L 568 176
L 568 176
L 568 176
L 568 176
L 568 175
L 569 175
L 569 175
L 570 175
L 570 175
L 570 175
L 570 175
L 571 175
L 572 175
L 572 175
L 572 175
L 572 175
L 572 175
L 572 175
L 572 175
L 572 175
L 572 175
L 572 175
L 572 175
L 572 175
L 572 175
L 572 175
L 572 174
L 572 174
L 572 174
L 572 174
L 572 174
L 572 174
L 572 174
L 572 174
L 573 174
L 573 174
L 573 174
L 573 174
L 573 174
L 573 174
L 573 174
L 573 174
L 573 174
L 573 174
L 573 174
L 573 174
L 573 174
L 573 174
L 573 173
L 573 173
L 573 173
L 573 173
L 573 173
L 573 173
L 573 173
L 573 173
L 573 173
L 573 173
L 573 173
L 573 173
L 573 173
L 573 173
L 574 173
L 574 173
L 574 173
L 574 173
L 574 173
L 574 173
L 574 173
L 574 173
L 574 172
L 574 172
L 574 172
L 575 172
L 575 172
L 575 172
L 575 172
L 575 172
L 575 172
L 575 172
L 575 172
L 575 172
L 575 172
L 575 172
L 575 172
L 575 172
L 575 172
L 575 172
L 575 172
L 575 172
L 575 172
L 575 171
L 575 171
L 575 171
L 575 171
L 576 171
L 576 171
L 576 171
L 576 171
L 576 171
L 576 171
L 576 171
L 576 171
L 576 171
L 576 171
L 576 171
L 576 171
L 576 171
L 576 171
L 576 171
L 576 171
L 576 171
L 576 171
L 576 170
L 576 170
L 577 170
L 577 170
L 577 170
L 577 170
L 577 170
L 577 170
L 577 170
L 577 170
L 577 170
L 577 170
L 577 170
L 577 170
L 578 170
L 578 170
L 578 170
L 578 170
L 578 170
L 578 170
L 578 170
L 578 170
L 578 169
L 578 169
L 578 169
L 578 169
L 578 169
L 579 169
L 579 169
L 579 169
L 579 169
L 579 169
L 579 169
L 579 169
L 579 169
L 579 169
L 579 169
L 579 169
L 580 169
L 580 169
L 580 169
L 580 169
L 580 169
L 582 169
L 583 168
L 584 168
L 584 168
L 584 168
L 584 168
L 584 168
L 584 168
L 584 168
L 584 168
L 584 168
L 584 168
L 584 168
L 585 168
L 585 168
L 585 168
L 585 168
L 585 168
L 585 168
L 585 168
L 585 168
L 585 168
L 585 167
L 585 167
L 585 167
L 585 167
L 585 167
L 585 167
L 585 167
L 585 167
L 585 167
L 585 167
L 585 167
L 585 167
L 585 167
L 585 167
L 586 167
L 586 167
L 586 167
L 586 167
L 586 167
L 586 167
L 586 167
L 586 167
L 586 166
L 586 166
L 586 166
L 586 166
L 586 166
L 586 166
L 587 166
L 587 166
L 587 166
L 587 166
L 587 166
L 587 166
L 587 166
L 587 166
L 587 166
L 587 166
L 587 166
L 587 166
L 587 166
L 587 166
L 587 166
L 587 166
L 587 165
L 588 165
L 588 165
L 588 165
L 588 165
L 588 165
L 588 165
L 588 165
L 588 165
L 588 165
L 588 165
L 588 165
L 588 165
L 588 165
L 588 165
L 588 165
L 588 165
L 588 165
L 588 165
L 588 165
L 588 165
L 588 165
L 588 164
L 588 164
L 588 164
L 588 164
L 588 164
L 588 164
L 588 164
L 588 164
L 588 164
L 588 164
L 589 164
L 589 164
L 589 164
L 589 164
L 589 164
L 589 164
L 589 164
L 589 164
L 589 164
L 589 164
L 589 164
L 589 163
L 589 163
L 589 163
L 590 163
L 590 163
L 590 163
L 590 163
L 590 163
L 590 163
L 590 163
L 590 163
L 590 163
L 590 163
L 590 163
L 590 163
L 590 163
L 590 163
L 590 163
L 590 163
L 590 163
L 590 163
L 590 163
L 590 162
L 590 162
L 590 162
L 591 162
L 591 162
L 591 162
L 591 162
L 591 162
L 591 162
L 591 162
L 591 162
L 591 162
L 591 162
L 591 162
L 591 162
L 592 162
L 592 162
L 592 162
L 592 162
L 592 162
L 594 162
L 596 162
L 596 161
L 596 161
L 596 161
L 596 161
L 596 161
L 596 161
L 596 161
L 596 161
L 596 161
L 596 161
L 596 161
L 596 161
L 596 161
L 596 161
L 596 161
L 596 161
L 596 161
L 596 161
L 597 161
L 597 161
L 597 161
L 597 161
L 597 160
L 597 160
L 597 160
L 597 160
L 597 160
L 597 160
L 597 160
L 597 160
L 597 160
L 597 160
L 597 160
L 597 160
L 597 160
L 597 160
L 597 160
L 597 160
L 597 160
L 597 160
L 597 160
L 597 160
L 597 160
L 597 160
L 597 159
L 598 159
L 598 159
L 598 159
L 598 159
L 598 159
L 598 159
L 598 159
L 598 159
L 598 159
L 598 159
L 598 159
L 598 159
L 598 159
L 598 159
L 598 159
L 598 159
L 598 159
L 598 159
L 599 159
L 599 159
L 599 158
L 599 158
L 599 158
L 599 158
L 599 158
L 599 158
L 599 158
L 599 158
L 599 158
L 599 158
L 599 158
L 599 158
L 599 158
L 599 158
L 599 158
L 599 158
L 599 158
L 599 158
L 599 158
L 599 158
L 599 158
L 599 158
L 599 157
L 599 157
L 600 157
L 600 157
L 600 157
L 600 157
L 600 157
L 600 157
L 600 157
L 600 157
L 600 157
L 600 157
L 600 157
L 600 157
L 600 157
L 600 157
L 600 157
L 600 157
L 600 157
L 601 157
L 601 157
L 601 157
L 601 156
L 601 156
L 601 156
L 602 156
L 602 156
L 602 156
L 602 156
L 602 156
L 602 156
L 602 156
L 602 156
L 602 156
L 602 156
L 602 156
L 602 156
L 602 156
L 602 156
L 603 156
L 603 156
L 603 156
L 603 156
L 603 156
L 603 155
L 603 155
L 603 155
L 603 155
L 603 155
L 603 155
L 603 155
L 603 155
L 603 155
L 603 155
L 603 155
L 603 155
L 604 155
L 604 155
L 604 155
L 604 155
L 605 155
L 607 155
L 607 155
L 607 155
L 607 155
L 607 154
L 607 154
L 607 154
L 608 154
L 608 154
L 608 154
L 608 154
L 608 154
L 608 154
L 608 154
L 608 154
L 608 154
L 608 154
L 608 154
L 608 154
L 608 154
L 608 154
L 608 154
L 608 154
L 608 154
L 608 154
L 608 154
L 608 153
L 608 153
L 608 153
L 608 153
L 608 153
L 608 153
L 608 153
L 608 153
L 608 153
L 608 153
L 608 153
L 608 153
L 608 153
L 608 153
L 608 153
L 608 153
L 608 153
L 608 153
L 608 153
L 608 153
L 608 153
L 608 153
L 608 152
L 608 152
L 608 152
L 608 152
L 608 152
L 608 152
L 608 152
L 608 152
L 608 152
L 608 152
L 608 152
L 608 152
L 608 152
L 608 152
L 608 152
L 608 152
L 608 152
L 608 152
L 608 152
L 608 152
L 608 152
L 608 152
L 608 151
L 608 151
L 608 151
L 609 151
L 609 151
L 609 151
L 609 151
L 609 151
L 609 151
L 609 151
L 609 151
L 609 151
L 609 151
L 609 151
L 609 151
L 609 151
L 609 151
L 609 151
L 609 151
L 609 151
L 609 151
L 609 150
L 609 150
L 609 150
L 609 150
L 609 150
L 609 150
L 609 150
L 609 150
L 609 150
L 609 150
L 609 150
L 609 150
L 609 150
L 609 150
L 609 150
L 609 150
L 610 150
L 610 150
L 610 150
L 610 150
L 610 150
L 610 150
L 610 149
L 610 149
L 610 149
L 610 149
L 610 149
L 610 149
L 610 149
L 610 149
L 610 149
L 610 149
L 610 149
L 610 149
L 610 149
L 610 149
L 610 149
L 610 149
L 610 149
L 610 149
L 610 149
L 611 149
L 611 149
L 611 149
L 611 148
L 611 148
L 611 148
L 611 148
L 611 148
L 611 148
L 611 148
L 611 148
L 611 148
L 611 148
L 611 148
L 611 148
L 611 148
L 611 148
L 611 148
L 611 148
L 611 148
L 611 148
L 611 148
L 611 148
L 611 148
L 611 148
L 611 147
L 611 147
L 611 147
L 611 147
L 611 147
L 611 147
L 611 147
L 611 147
L 611 147
L 611 147
L 611 147
L 611 147
L 611 147
L 611 147
L 611 147
L 611 147
L 611 147
L 611 147
L 611 147
L 611 147
L 611 147
L 611 147
L 611 146
L 611 146
L 612 146
L 612 146
L 612 146
L 612 146
L 612 146
L 612 146
L 612 146
L 612 146
L 612 146
L 612 146
L 612 146
L 612 146
L 612 146
L 612 146
L 612 146
L 612 146
L 612 146
L 612 146
L 612 146
L 612 145
L 612 145
L 612 145
L 612 145
L 612 145
L 612 145
L 612 145
L 612 145
L 612 145
L 612 145
L 612 145
L 612 145
L 612 145
L 612 145
L 613 145
L 613 145
L 613 145
L 613 145
L 613 145
L 613 145
L 613 145
L 613 145
L 613 144
L 613 144
L 613 144
L 613 144
L 613 144
L 613 144
L 613 144
L 613 144
L 613 144
L 613 144
L 613 144
L 613 144
L 613 144
L 613 144
L 613 144
L 614 144
L 614 144
L 614 144
L 614 144
L 614 144
L 614 144
L 614 144
L 614 143
L 614 143
L 614 143
L 614 143
L 614 143
L 614 143
L 614 143
L 614 143
L 614 143
L 614 143
L 614 143
L 614 143
L 614 143
L 614 143
L 614 143
L 614 143
L 614 143
L 614 143
L 614 143
L 614 143
L 615 143
L 615 143
L 615 142
L 615 142
L 615 142
L 615 142
L 615 142
L 615 142
L 615 142
L 615 142
L 615 142
L 615 142
L 616 142
L 616 142
L 616 142
L 616 142
L 616 142
L 616 142
L 616 142
L 617 142
L 617 142
L 617 142
L 617 142
L 617 141
L 618 141
L 619 141
L 619 141
L 619 141
L 619 141
L 619 141
L 619 141
L 620 141
L 620 141
L 620 141
L 620 141
L 620 141
L 620 141
L 620 141
L 620 141
L 620 141
L 620 141
L 620 141
L 620 141
L 620 141
L 620 141
L 620 140
L 620 140
L 620 140
L 620 140
L 620 140
L 620 140
L 620 140
L 620 140
L 620 140
L 620 140
L 620 140
L 620 140
L 620 140
L 620 140
L 620 140
L 620 140
L 620 140
L 620 140
L 620 140
L 620 140
L 621 140
L 621 140
L 621 139
L 621 139
L 621 139
L 621 139
L 621 139
L 621 139
L 621 139
L 621 139
L 621 139
L 621 139
L 621 139
L 621 139
L 621 139
L 621 139
L 622 139
L 622 139
L 622 139
L 622 139
L 622 139
L 622 139
L 622 139
L 622 139
L 622 138
L 622 138
L 622 138
L 622 138
L 622 138
L 622 138
L 622 138
L 622 138
L 622 138
L 622 138
L 622 138
L 622 138
L 622 138
L 622 138
L 622 138
L 622 138
L 622 138
L 622 138
L 622 138
L 622 138
L 622 138
L 622 137
L 622 137
L 622 137
L 622 137
L 622 137
L 623 137
L 623 137
L 623 137
L 623 137
L 623 137
L 623 137
L 623 137
L 623 137
L 623 137
L 623 137
L 623 137
L 623 137
L 623 137
L 623 137
L 623 137
L 623 137
L 623 137
L 623 136
L 623 136
L 623 136
L 623 136
L 623 136
L 623 136
L 623 136
L 623 136
L 623 136
L 623 136
L 623 136
L 623 136
L 624 136
L 624 136
L 624 136
L 624 136
L 624 136
L 624 136
L 624 136
L 624 136
L 624 136
L 624 136
L 624 135
L 624 135
L 624 135
L 624 135
L 624 135
L 624 135
L 624 135
L 624 135
L 624 135
L 624 135
L 624 135
L 624 135
L 624 135
L 624 135
L 625 135
L 625 135
L 625 135
L 625 135
L 625 135
L 625 135
L 625 135
L 625 135
L 625 134
L 626 134
L 626 134
L 626 134
L 626 134
L 626 134
L 626 134
L 626 134
L 626 134
L 626 134
L 626 134
L 626 134
L 627 134
L 627 134
L 627 134
L 627 134
L 627 134
L 627 134
L 627 134
L 627 134
L 627 134
L 627 133
L 627 133
L 627 133
L 628 133
L 628 133
L 629 133
L 629 133
L 629 133
L 629 133
L 631 133
L 632 133
L 632 133
L 632 133
L 632 133
L 632 133
L 632 133
L 633 133
L 633 133
L 633 133
L 633 133
L 633 133
L 633 133
L 633 132
L 633 132
L 633 132
L 633 132
L 634 132
L 634 132
L 634 132
L 634 132
L 634 132
L 634 132
L 634 132
L 635 132
L 635 132
L 635 132
L 635 132
L 635 132
L 635 132
L 635 132
L 635 132
L 635 132
L 635 132
L 635 132
L 636 131
L 636 131
L 636 131
L 636 131
L 636 131
L 636 131
L 636 131
L 636 131
L 636 131
L 637 131
L 637 131
L 637 131
L 638 131
L 638 131
L 638 131
L 639 131
L 639 131
L 639 131
L 639 131
L 639 131
L 639 131
L 640 131
L 640 130
L 640 130
L 642 130
L 643 130
L 643 130
L 644 130
L 644 130
L 645 130
L 645 130
L 645 130
L 645 130
L 646 130
L 646 130
L 646 130
L 646 130
L 646 130
L 646 130
L 646 130
L 647 130
L 647 130
L 647 130
L 647 130
L 647 129
L 647 129
L 647 129
L 648 129
L 648 129
L 648 129
L 648 129
L 649 129
L 649 129
L 649 129
L 649 129
L 649 129
L 649 129
L 649 129
L 650 129
L 650 129
L 650 129
L 650 129
L 650 129
L 650 129
L 650 129
L 651 128
L 651 128
L 651 128
L 651 128
L 652 128
L 655 128
L 655 128
L 655 128
L 655 128
L 656 128
L 656 128
L 656 128
L 656 128
L 656 128
L 656 128
L 656 128
L 656 128
L 656 128
L 656 128
L 656 128
L 656 128
L 656 128
L 656 127
L 656 127
L 656 127
L 656 127
L 656 127
L 656 127
L 656 127
L 656 127
L 656 127
L 657 127
L 657 127
L 657 127
L 657 127
L 657 127
L 657 127
L 657 127
L 657 127
L 657 127
L 658 127
L 658 127
L 658 127
L 658 127
L 658 126
L 658 126
L 658 126
L 658 126
L 658 126
L 658 126
L 658 126
L 658 126
L 658 126
L 658 126
L 659 126
L 659 126
L 659 126
L 659 126
L 659 126
L 659 126
L 659 126
L 659 126
L 659 126
L 659 126
L 659 126
L 659 126
L 659 125
L 659 125
L 659 125
L 659 125
L 659 125
L 659 125
L 660 125
L 660 125
L 660 125
L 660 125
L 660 125
L 660 125
L 660 125
L 660 125
L 660 125
L 660 125
L 660 125
L 661 125
L 661 125
L 661 125
L 661 125
L 661 124
L 661 124
L 661 124
L 661 124
L 661 124
L 661 124
L 661 124
L 661 124
L 661 124
L 661 124
L 662 124
L 662 124
L 662 124
L 662 124
L 662 124
L 662 124
L 662 124
L 662 124
L 662 124
L 662 124
L 663 124
L 663 124
L 663 123
L 663 123
L 663 123
L 663 123
L 663 123
L 663 123
L 663 123
L 663 123
L 665 123
L 665 123
L 667 123
L 667 123
L 667 123
L 668 123
L 668 123
L 668 123
L 668 123
L 668 123
L 668 123
L 668 123
L 668 123
L 668 123
L 668 122
L 668 122
L 668 122
L 668 122
L 668 122
L 668 122
L 668 122
L 668 122
L 668 122
L 668 122
L 668 122
L 668 122
L 668 122
L 668 122
L 668 122
L 668 122
L 668 122
L 668 122
L 668 122
L 668 122
L 668 122
L 668 122
L 668 121
L 668 121
L 668 121
L 668 121
L 668 121
L 668 121
L 668 121
L 668 121
L 668 121
L 668 121
L 668 121
L 668 121
L 668 121
L 668 121
L 668 121
L 668 121
L 668 121
L 668 121
L 668 121
L 668 121
L 668 121
L 668 120
L 668 120
L 668 120
L 669 120
L 669 120
L 669 120
L 669 120
L 669 120
L 669 120
L 669 120
L 669 120
L 669 120
L 669 120
L 669 120
L 669 120
L 669 120
L 669 120
L 669 120
L 669 120
L 669 120
L 669 120
L 669 120
L 669 119
L 669 119
L 669 119
L 669 119
L 669 119
L 669 119
L 669 119
L 669 119
L 669 119
L 669 119
L 669 119
L 669 119
L 669 119
L 669 119
L 669 119
L 669 119
L 669 119
L 669 119
L 669 119
L 669 119
L 669 119
L 670 119
L 670 118
L 670 118
L 670 118
L 670 118
L 670 118
L 670 118
L 670 118
L 670 118
L 670 118
L 670 118
L 670 118
L 670 118
L 670 118
L 670 118
L 670 118
L 670 118
L 670 118
L 670 118
L 670 118
L 670 118
L 670 118
L 670 118
L 671 117
L 671 117
L 671 117
L 671 117
L 671 117
L 671 117
L 671 117
L 671 117
L 671 117
L 671 117
L 671 117
L 671 117
L 671 117
L 671 117
L 671 117
L 671 117
L 671 117
L 671 117
L 671 117
L 671 117
L 671 117
L 671 116
L 671 116
L 671 116
L 671 116
L 672 116
L 672 116
L 672 116
L 672 116
L 672 116
L 672 116
L 672 116
L 672 116
L 672 116
L 672 116
L 672 116
L 672 116
L 672 116
L 672 116
L 672 116
L 672 116
L 672 116
L 672 116
L 672 115
L 672 115
L 672 115
L 672 115
L 672 115
L 672 115
L 672 115
L 672 115
L 672 115
L 672 115
L 673 115
L 673 115
L 673 115
L 673 115
L 673 115
L 673 115
L 673 115
L 673 115
L 673 115
L 673 115
L 673 115
L 673 115
L 673 114
L 673 114
L 673 114
L 673 114
L 673 114
L 673 114
L 673 114
L 673 114
L 673 114
L 673 114
L 673 114
L 673 114
L 674 114
L 674 114
L 674 114
L 674 114
L 674 114
L 674 114
L 674 114
L 674 114
L 674 114
L 675 114
L 675 113
L 675 113
L 676 113
L 676 113
L 676 113
L 677 113
L 677 113
L 679 113
L 679 113
L 679 113
L 679 113
L 679 113
L 679 113
L 679 113
L 679 113
L 679 113
L 679 113
L 679 113
L 679 113
L 679 113
L 679 113
L 679 113
L 679 112
L 680 112
L 680 112
L 680 112
L 680 112
L 680 112
L 680 112
L 680 112
L 680 112
L 680 112
L 680 112
L 680 112
L 680 112
L 680 112
L 680 112
L 680 112
L 680 112
L 680 112
L 680 112
L 680 112
L 680 112
L 680 111
L 680 111
L 680 111
L 680 111
L 680 111
L 680 111
L 680 111
L 680 111
L 680 111
L 680 111
L 680 111
L 680 111
L 680 111
L 680 111
L 680 111
L 680 111
L 680 111
L 680 111
L 680 111
L 680 111
L 680 111
L 680 111
L 680 110
L 680 110
L 680 110
L 680 110
L 680 110
L 680 110
L 680 110
L 680 110
L 680 110
L 680 110
L 680 110
L 680 110
L 680 110
L 680 110
L 681 110
L 681 110
L 681 110
L 681 110
L 681 110
L 681 110
L 681 110
L 681 110
L 681 109
L 681 109
L 681 109
L 681 109
L 681 109
L 681 109
L 681 109
L 681 109
L 681 109
L 681 109
L 681 109
L 681 109
L 681 109
L 681 109
L 681 109
L 681 109
L 681 109
L 681 109
L 681 109
L 681 109
L 682 109
L 682 109
L 682 108
L 682 108
L 682 108
L 682 108
L 682 108
L 682 108
L 682 108
L 682 108
L 682 108
L 682 108
L 682 108
L 682 108
L 682 108
L 682 108
L 682 108
L 682 108
L 682 108
L 682 108
L 682 108
L 682 108
L 682 108
L 682 107
L 682 107
L 682 107
L 682 107
L 682 107
L 682 107
L 682 107
L 682 107
L 682 107
L 682 107
L 682 107
L 682 107
L 682 107
L 682 107
L 682 107
L 683 107
L 683 107
L 683 107
L 683 107
L 683 107
L 683 107
L 683 107
L 683 106
L 683 106
L 683 106
L 683 106
L 683 106
L 683 106
L 683 106
L 683 106
L 683 106
L 683 106
L 683 106
L 683 106
L 683 106
L 683 106
L 683 106
L 683 106
L 683 106
L 683 106
L 683 106
L 683 106
L 683 106
L 683 106
L 683 105
L 683 105
L 683 105
L 683 105
L 683 105
L 684 105
L 684 105
L 684 105
L 684 105
L 684 105
L 684 105
L 684 105
L 684 105
L 684 105
L 684 105
L 684 105
L 684 105
L 684 105
L 684 105
L 684 105
L 684 105
L 684 105
L 684 104
L 684 104
L 684 104
L 684 104
L 684 104
L 684 104
L 685 104
L 685 104
L 685 104
L 685 104
L 685 104
L 685 104
L 685 104
L 685 104
L 685 104
L 685 104
L 685 104
L 686 104
L 686 104
L 686 104
L 686 104
L 686 103
L 686 103
L 686 103
L 686 103
L 686 103
L 686 103
L 686 103
L 686 103
L 687 103
L 687 103
L 687 103
L 687 103
L 687 103
L 687 103
L 687 103
L 688 103
L 688 103
L 690 103
L 690 103
L 690 103
L 690 103
L 690 103
L 690 102
L 691 102
L 691 102
L 691 102
L 691 102
L 691 102
L 691 102
L 691 102
L 691 102
L 691 102
L 691 102
L 691 102
L 691 102
L 692 102
L 692 102
L 692 102
L 692 102
L 692 102
L 692 102
L 692 102
L 692 102
L 692 102
L 692 101
L 692 101
L 692 101
L 692 101
L 692 101
L 692 101
L 692 101
L 692 101
L 692 101
L 692 101
L 692 101
L 692 101
L 692 101
L 692 101
L 692 101
L 692 101
L 692 101
L 692 101
L 692 101
L 692 101
L 692 101
L 692 101
L 692 100
L 692 100
L 692 100
L 692 100
L 692 100
L 692 100
L 692 100
L 693 100
L 693 100
L 693 100
L 693 100
L 693 100
L 693 100
L 693 100
L 693 100
L 693 100
L 693 100
L 693 100
L 693 100
L 693 100
L 693 100
L 693 99
L 693 99
L 693 99
L 693 99
L 693 99
L 694 99
L 694 99
L 694 99
L 694 99
L 694 99
L 694 99
L 694 99
L 694 99
L 694 99
L 694 99
L 694 99
L 694 99
L 694 99
L 694 99
L 694 99
L 694 99
L 694 99
L 694 98
L 694 98
L 694 98
L 694 98
L 694 98
L 694 98
L 694 98
L 694 98
L 694 98
L 695 98
L 695 98
L 695 98
L 695 98
L 695 98
L 695 98
L 695 98
L 695 98
L 695 98
L 695 98
L 695 98
L 695 98
L 695 98
L 695 97
L 695 97
L 695 97
L 695 97
L 695 97
L 695 97
L 695 97
L 695 97
L 695 97
L 695 97
L 695 97
L 696 97
L 696 97
L 696 97
L 696 97
L 696 97
L 696 97
L 696 97
L 696 97
L 696 97
L 696 97
L 696 97
L 696 96
L 696 96
L 696 96
L 696 96
L 696 96
L 696 96
L 696 96
L 696 96
L 697 96
L 697 96
L 697 96
L 697 96
L 697 96
L 697 96
L 697 96
L 698 96
L 698 96
L 698 96
L 698 96
L 698 96
L 698 96
L 698 96
L 698 95
L 698 95
L 698 95
L 699 95
L 699 95
L 699 95
L 699 95
L 699 95
L 699 95
L 699 95
L 700 95
L 700 95
L 702 95
L 703 95
L 703 95
L 703 95
L 703 95
L 703 95
L 703 95
L 703 95
L 703 95
L 703 94
L 703 94
L 703 94
L 703 94
L 703 94
L 703 94
L 703 94
L 703 94
L 703 94
L 703 94
L 704 94
L 704 94
L 704 94
L 704 94
L 704 94
L 704 94
L 704 94
L 704 94
L 704 94
L 704 94
L 704 94
L 704 94
L 704 93
L 704 93
L 704 93
L 704 93
L 704 93
L 704 93
L 704 93
L 704 93
L 704 93
L 704 93
L 704 93
L 704 93
L 704 93
L 704 93
L 704 93
L 704 93
L 704 93
L 704 93
L 704 93
L 705 93
L 705 93
L 705 93
L 705 92
L 705 92
L 705 92
L 705 92
L 705 92
L 705 92
L 706 92
L 706 92
L 706 92
L 706 92
L 706 92
L 706 92
L 706 92
L 706 92
L 706 92
L 706 92
L 706 92
L 706 92
L 706 92
L 706 92
L 706 92
L 706 92
L 706 91
L 706 91
L 706 91
L 706 91
L 706 91
L 706 91
L 707 91
L 707 91
L 707 91
L 707 91
L 707 91
L 707 91
L 707 91
L 707 91
L 707 91
L 707 91
L 707 91
L 707 91
L 707 91
L 707 91
L 707 91
L 707 90
L 707 90
L 707 90
L 707 90
L 708 90
L 708 90
L 708 90
L 708 90
L 708 90
L 708 90
L 708 90
L 708 90
L 708 90
L 708 90
L 708 90
L 708 90
L 708 90
L 708 90
L 708 90
L 708 90
L 709 90
L 709 90
L 709 89
L 709 89
L 709 89
L 709 89
L 710 89
L 710 89
L 710 89
L 710 89
L 710 89
L 711 89
L 711 89
L 711 89
L 713 89
L 715 89
L 715 89
L 715 89
L 716 89
L 716 89
L 716 89
L 716 89
L 716 89
L 717 89
L 717 88
L 717 88
L 717 88
L 718 88
L 718 88
L 718 88
L 718 88
L 718 88
L 718 88
L 718 88
L 718 88
L 718 88
L 719 88
L 719 88
L 719 88
L 719 88
L 720 88
L 720 88
L 720 88
L 721 88
L 721 88
L 721 88
L 721 87
L 721 87
L 721 87
L 721 87
L 721 87
L 721 87
L 721 87
L 721 87
L 721 87
L 721 87
L 721 87
L 721 87
L 722 87
L 722 87
L 722 87
L 722 87
L 722 87
L 722 87
L 722 87
L 722 87
L 722 87
L 722 86
L 722 86
L 723 86
L 723 86
L 723 86
L 723 86
L 723 86
L 723 86
L 723 86
L 723 86
L 723 86
L 723 86
L 724 86
L 724 86
L 727 86
L 727 86
L 727 86
L 727 86
L 727 86
L 727 86
L 728 86
L 728 86
L 728 85
L 728 85
L 728 85
L 728 85
L 729 85
L 729 85
L 729 85
L 729 85
L 729 85
L 729 85
L 729 85
L 730 85
L 730 85
L 730 85
L 731 85
L 731 85
L 732 85
L 732 85
L 733 85
L 733 85
L 733 85
L 733 85
L 733 84
L 733 84
L 733 84
L 733 84
L 733 84
L 733 84
L 734 84
L 734 84
L 734 84
L 734 84
L 734 84
L 734 84
L 734 84
L 734 84
L 734 84
L 734 84
L 735 84
L 735 84
L 737 84
L 737 84
L 738 84
L 739 84
L 739 83
L 739 83
L 739 83
L 739 83
L 739 83
L 739 83
L 739 83
L 739 83
L 739 83
L 739 83
L 739 83
L 739 83
L 739 83
L 739 83
L 739 83
L 739 83
L 739 83
L 739 83
L 739 83
L 739 83
L 739 83
L 740 82
L 740 82
L 740 82
L 740 82
L 740 82
L 740 82
L 740 82
L 740 82
L 740 82
L 740 82
L 740 82
L 740 82
L 740 82
L 740 82
L 740 82
L 740 82
L 740 82
L 740 82
L 740 82
L 740 82
L 740 82
L 741 82
L 741 81
L 741 81
L 741 81
L 741 81
L 741 81
L 741 81
L 741 81
L 741 81
L 741 81
L 741 81
L 741 81
L 741 81
L 742 81
L 742 81
L 742 81
L 742 81
L 742 81
L 742 81
L 742 81
L 742 81
L 742 81
L 742 81
L 742 80
L 742 80
L 742 80
L 742 80
L 742 80
L 742 80
L 742 80
L 742 80
L 742 80
L 742 80
L 742 80
L 742 80
L 742 80
L 742 80
L 742 80
L 742 80
L 742 80
L 742 80
L 742 80
L 743 80
L 743 80
L 743 80
L 743 79
L 743 79
L 743 79
L 743 79
L 743 79
L 743 79
L 743 79
L 743 79
L 743 79
L 743 79
L 743 79
L 743 79
L 743 79
L 743 79
L 743 79
L 743 79
L 744 79
L 744 79
L 744 79
L 744 79
L 744 79
L 744 79
L 744 78
L 744 78
L 744 78
L 745 78
L 745 78
L 745 78
L 745 78
L 745 78
L 745 78
L 745 78
L 745 78
L 745 78
L 745 78
L 746 78
L 746 78
L 746 78
L 746 78
L 746 78
L 746 78
L 746 78
L 747 78
L 748 77
L 750 77
L 750 77
L 750 77
L 751 77
L 751 77
L 751 77
L 751 77
L 751 77
L 751 77
L 751 77
L 751 77
L 751 77
L 751 77
L 751 77
L 751 77
L 751 77
L 751 77
L 751 77
L 752 77
L 752 77
L 752 77
L 752 76
L 752 76
L 752 76
L 752 76
L 752 76
L 752 76
L 752 76
L 752 76
L 752 76
L 752 76
L 752 76
L 752 76
L 752 76
L 752 76
L 752 76
L 752 76
L 752 76
L 752 76
L 752 76
L 752 76
L 752 76
L 753 76
L 753 75
L 753 75
L 753 75
L 753 75
L 753 75
L 753 75
L 753 75
L 753 75
L 753 75
L 753 75
L 753 75
L 753 75
L 753 75
L 753 75
L 754 75
L 754 75
L 754 75
L 754 75
L 754 75
L 754 75
L 754 75
L 754 75
L 754 74
L 754 74
L 754 74
L 754 74
L 754 74
L 754 74
L 754 74
L 754 74
L 754 74
L 754 74
L 754 74
L 754 74
L 754 74
L 754 74
L 754 74
L 755 74
L 755 74
L 755 74
L 755 74
L 755 74
L 755 74
L 755 73
L 755 73
L 755 73
L 755 73
L 755 73
L 755 73
L 755 73
L 755 73
L 755 73
L 755 73
L 755 73
L 755 73
L 755 73
L 755 73
L 755 73
L 756 73
L 756 73
L 756 73
L 756 73
L 756 73
L 756 73
L 756 73
L 756 72
L 756 72
L 756 72
L 756 72
L 756 72
L 756 72
L 756 72
L 756 72
L 757 72
L 757 72
L 757 72
L 757 72
L 757 72
L 757 72
L 757 72
L 757 72
L 757 72
L 757 72
L 757 72
L 757 72
L 757 72
L 758 72
L 758 71
L 758 71
L 758 71
L 758 71
L 758 71
L 758 71
L 758 71
L 758 71
L 758 71
L 758 71
L 758 71
L 758 71
L 758 71
L 758 71
L 758 71
L 758 71
L 758 71
L 758 71
L 759 71
L 759 71
L 759 71
L 759 71
L 759 70
L 760 70
L 760 70
L 760 70
L 761 70
L 762 70
L 762 70
L 762 70
L 763 70
L 763 70
L 763 70
L 763 70
L 763 70
L 763 70
L 763 70
L 763 70
L 763 70
L 763 70
L 763 70
L 763 70
L 763 70
L 763 69
L 763 69
L 763 69
L 763 69
L 763 69
L 763 69
L 763 69
L 763 69
L 763 69
L 763 69
L 763 69
L 763 69
L 763 69
L 763 69
L 763 69
L 763 69
L 763 69
L 763 69
L 763 69
L 763 69
L 763 69
L 763 69
L 763 68
L 763 68
L 764 68
L 764 68
L 764 68
L 764 68
L 764 68
L 764 68
L 764 68
L 764 68
L 764 68
L 764 68
L 764 68
L 764 68
L 764 68
L 764 68
L 764 68
L 764 68
L 764 68
L 764 68
L 764 68
L 764 68
L 765 67
L 765 67
L 765 67
L 765 67
L 765 67
L 765 67
L 765 67
L 765 67
L 765 67
L 765 67
L 765 67
L 765 67
L 765 67
L 765 67
L 765 67
L 765 67
L 765 67
L 765 67
L 765 67
L 765 67
L 765 67
L 765 67
L 765 66
L 765 66
L 765 66
L 765 66
L 765 66
L 765 66
L 766 66
L 766 66
L 766 66
L 766 66
L 766 66
L 766 66
L 766 66
L 766 66
L 766 66
L 766 66
L 766 66
L 766 66
L 766 66
L 766 66
L 766 66
L 766 65
L 766 65
L 766 65
L 766 65
L 766 65
L 766 65
L 766 65
L 766 65
L 766 65
L 766 65
L 766 65
L 766 65
L 766 65
L 766 65
L 766 65
L 766 65
L 766 65
L 766 65
L 766 65
L 766 65
L 767 65
L 767 65
L 767 64
L 767 64
L 767 64
L 767 64
L 767 64
L 767 64
L 767 64
L 767 64
L 767 64
L 767 64
L 767 64
L 767 64
L 767 64
L 767 64
L 767 64
L 767 64
L 767 64
L 767 64
L 767 64
L 767 64
L 767 64
L 767 64
L 767 63
L 767 63
L 767 63
L 767 63
L 767 63
L 767 63
L 767 63
L 767 63
L 767 63
L 767 63
L 768 63
L 768 63
L 768 63
L 768 63
L 768 63
L 768 63
L 768 63
L 768 63
L 768 63
L 768 63
L 768 63
L 768 63
L 768 62
L 768 62
L 768 62
L 769 62
L 769 62
L 769 62
L 769 62
L 769 62
L 769 62
L 769 62
L 769 62
L 769 62
L 769 62
L 770 62
L 770 62
L 770 62
L 770 62
L 770 62
L 770 62
L 770 62
L 770 62
L 770 62
L 770 61
L 771 61
L 772 61
L 772 61
L 774 61
L 774 61
L 774 61
L 774 61
L 774 61
L 775 61
L 775 61
L 775 61
L 775 61
L 775 61
L 775 61
L 775 61
L 775 61
L 775 61
L 775 61
L 775 61
L 775 61
L 775 60
L 775 60
L 775 60
L 775 60
L 775 60
L 775 60
L 775 60
L 775 60
L 775 60
L 775 60
L 775 60
L 775 60
L 775 60
L 775 60
L 775 60
L 776 60
L 776 60
L 776 60
L 776 60
L 776 60
L 776 60
L 776 60
L 776 59
L 776 59
L 776 59
L 776 59
L 776 59
L 776 59
L 776 59
L 776 59
L 776 59
L 776 59
L 776 59
L 776 59
L 776 59
L 776 59
L 776 59
L 776 59
L 776 59
L 777 59
L 777 59
L 777 59
L 777 59
L 777 59
L 777 58
L 777 58
L 777 58
L 777 58
L 777 58
L 777 58
L 777 58
L 777 58
L 777 58
L 777 58
L 777 58
L 777 58
L 777 58
L 777 58
L 777 58
L 777 58
L 777 58
L 777 58
L 778 58
L 778 58
L 778 58
L 778 58
L 778 57
L 778 57
L 778 57
L 778 57
L 778 57
L 778 57
L 778 57
L 778 57
L 778 57
L 778 57
L 778 57
L 778 57
L 778 57
L 778 57
L 778 57
L 778 57
L 779 57
L 779 57
L 779 57
L 779 57
L 779 57
L 779 56
L 779 56
L 779 56
L 779 56
L 779 56
L 779 56
L 779 56
L 779 56
L 779 56
L 779 56
L 779 56
L 779 56
L 779 56
L 779 56
L 779 56
L 779 56
L 779 56
L 779 56
L 779 56
L 779 56
L 779 56
L 779 56
L 779 55
L 780 55
L 780 55
L 780 55
L 781 55
L 781 55
L 781 55
L 781 55
L 781 55
L 781 55
L 782 55
L 782 55
L 782 55
L 782 55
L 782 55
L 782 55
L 782 55
L 783 55
L 783 55
L 783 55
L 784 55
L 785 55
L 785 54
L 786 54
L 786 54
L 787 54
L 787 54
L 787 54
L 787 54
L 787 54
L 787 54
L 787 54
L 787 54
L 787 54
L 787 54
L 787 54
L 787 54
L 787 54
L 787 54
L 787 54
L 787 54
L 787 54
L 787 54
L 787 54
L 787 53
L 787 53
L 787 53
L 787 53
L 788 53
L 788 53
L 788 53
L 788 53
L 788 53
L 788 53
L 788 53
L 788 53
L 788 53
L 788 53
L 788 53
L 788 53
L 789 53
L 789 53
L 789 53
L 789 53
L 789 53
L 789 52
L 789 52
L 789 52
L 789 52
L 789 52
L 789 52
L 789 52
L 789 52
L 789 52
L 789 52
L 789 52
L 789 52
L 790 52
L 790 52
L 790 52
L 790 52
L 790 52
L 790 52
L 790 52
L 790 52
L 790 52
L 790 52
L 790 51
L 790 51
L 790 51
L 790 51
L 790 51
L 790 51
L 790 51
L 790 51
L 790 51
L 790 51
L 790 51
L 790 51
L 791 51
L 791 51
L 791 51
L 791 51
L 791 51
L 791 51
L 791 51
L 791 51
L 791 51
L 791 51
L 791 50
L 791 50
L 791 50
L 791 50
L 791 50
L 791 50
L 791 50
L 791 50
L 791 50
L 791 50
L 791 50
L 791 50
L 791 50
L 792 50
L 792 50
L 792 50
L 792 50
L 792 50
L 792 50
L 792 50
L 792 50
L 792 50
L 793 49
L 793 49
L 793 49
L 793 49
L 794 49
L 794 49
L 794 49
L 794 49
L 795 49
L 798 49
L 798 49
L 798 49
L 799 49
L 799 49
L 799 49
L 799 49
L 799 49
L 799 49
L 800 49
L 800 49
L 800 49
L 800 48
L 800 48
L 800 48
L 801 48
L 801 48
L 801 48
L 802 48
L 802 48
L 802 48
L 802 48
L 803 48
L 803 48
L 803 48
L 803 48
L 803 48
L 803 48
L 804 48
L 804 48
L 804 48
L 805 48
L 805 48
L 805 48
L 806 47
L 806 47
L 806 47
L 806 47
L 806 47
L 807 47
L 807 47
L 807 47
L 808 47
L 810 47
L 810 47
L 811 47
L 811 47
L 811 47
L 811 47
L 811 47
L 811 47
L 811 47
L 812 47
L 812 47
L 812 47
L 812 47
L 812 46
L 813 46
L 813 46
L 813 46
L 813 46
L 814 46
L 814 46
L 814 46
L 814 46
L 814 46
L 815 46
L 815 46
L 815 46
L 815 46
L 815 46
L 815 46
L 815 46
L 816 46
L 816 46
L 816 46
L 816 46
L 816 46
L 817 45
L 817 45
L 818 45
L 818 45
L 818 45
L 818 45
L 819 45
L 821 45
L 822 45
L 822 45
L 822 45
L 822 45
L 823 45
L 823 45
L 823 45
L 823 45
L 823 45
L 823 45
L 823 45
L 823 45
L 823 45
L 823 45
L 823 44
L 823 44
L 823 44
L 823 44
L 823 44
L 823 44
L 823 44
L 824 44
L 824 44
L 824 44
L 824 44
L 825 44
L 825 44
L 825 44
L 825 44
L 825 44
L 825 44
L 825 44
L 825 44
L 825 44
L 825 44
L 825 43
L 825 43
L 825 43
L 825 43
L 825 43
L 825 43
L 825 43
L 825 43
L 825 43
L 825 43
L 826 43
L 826 43
L 826 43
L 826 43
L 826 43
L 826 43
L 826 43
L 826 43
L 826 43
L 826 43
L 826 43
L 826 43
L 826 42
L 826 42
L 826 42
L 826 42
L 826 42
L 827 42
L 827 42
L 827 42
L 827 42
L 827 42
L 827 42
L 827 42
L 827 42
L 827 42
L 827 42
L 828 42
L 828 42
L 828 42
L 828 42
L 828 42
L 828 42
L 828 42
L 828 41
L 829 41
L 829 41
L 829 41
L 829 41
L 829 41
L 829 41
L 830 41
L 830 41
L 830 41
L 830 41
L 831 41
L 831 41
L 831 41
L 832 41
L 833 41
L 834 41
L 834 41
L 834 41
L 834 41
L 834 41
L 834 41
L 835 40
L 835 40
L 835 40
L 835 40
L 835 40
L 835 40
L 835 40
L 835 40
L 835 40
L 835 40
L 835 40
L 835 40
L 835 40
L 835 40
L 835 40
L 835 40
L 835 40
L 835 40
L 835 40
L 835 40
L 836 40
L 836 39
L 836 39
L 836 39
L 836 39
L 836 39
L 836 39
L 837 39
L 837 39
L 837 39
L 837 39
L 837 39
L 837 39
L 837 39
L 837 39
L 837 39
L 837 39
L 837 39
L 837 39
L 837 39
L 837 39
L 837 39
L 837 39
L 838 38
L 838 38
L 838 38
L 838 38
L 838 38
L 838 38
L 838 38
L 838 38
L 838 38
L 838 38
L 838 38
L 838 38
L 838 38
L 838 38
L 839 38
L 839 38
L 839 38
L 839 38
L 839 38
L 840 38
L 840 38
L 840 38
L 841 37
L 841 37
L 841 37
L 841 37
L 841 37
L 842 37
L 842 37
L 842 37
L 844 37
L 846 37
L 846 37
L 846 37
L 846 37
L 846 37
L 846 37
L 846 37
L 846 37
L 846 37
L 847 37
L 847 37
L 847 37
L 847 37
L 847 36
L 847 36
L 847 36
L 848 36
L 848 36
L 848 36
L 849 36
L 849 36
L 849 36
L 849 36
L 849 36
L 849 36
L 849 36
L 849 36
L 849 36
L 849 36
L 849 36
L 849 36
L 849 36
L 850 36
L 850 36
L 850 35
L 850 35
L 850 35
L 850 35
L 850 35
L 850 35
L 850 35
L 850 35
L 850 35
L 850 35
L 850 35
L 850 35
L 851 35
L 851 35
L 851 35
L 851 35
L 852 35
L 852 35
L 852 35
L 852 35
L 852 35
L 852 35
L 852 34
L 854 34
L 854 34
L 854 34
L 854 34
L 855 34
L 858 34
L 858 34
L 858 34
L 859 34
L 859 34
L 859 34
L 859 34
L 859 34
L 859 34
L 859 34
L 859 34
L 859 34
L 859 34
L 859 34
L 859 34
L 859 34
L 859 33
L 860 33
L 860 33
L 860 33
L 860 33
L 861 33
L 861 33
L 861 33
L 861 33
L 861 33
L 861 33
L 861 33
L 861 33
L 861 33
L 861 33
L 861 33
L 861 33
L 861 33
L 861 33
L 861 33
L 862 33
L 862 33
L 862 32
L 862 32
L 862 32
L 862 32
L 862 32
L 862 32
L 862 32
L 862 32
L 863 32
L 863 32
L 863 32
L 864 32
L 865 32
L 865 32
L 865 32
L 867 32
L 869 32
L 870 32
L 870 32
L 870 32
L 870 32
L 870 31
L 870 31
L 870 31
L 870 31
L 870 31
L 871 31
L 871 31
L 871 31
L 871 31
L 871 31
L 871 31
L 871 31
L 871 31
L 871 31
L 871 31
L 871 31
L 871 31
L 871 31
L 871 31
L 871 31
L 871 31
L 871 31
L 871 30
L 871 30
L 871 30
L 871 30
L 871 30
L 871 30
L 871 30
L 871 30
L 871 30
L 871 30
L 871 30
L 871 30
L 871 30
L 871 30
L 871 30
L 871 30
L 871 30
L 871 30
L 871 30
L 872 30
L 872 30
L 872 30
L 872 29
L 872 29
L 872 29
L 872 29
L 872 29
L 872 29
L 872 29
L 872 29
L 872 29
L 872 29
L 872 29
L 872 29
L 872 29
L 872 29
L 872 29
L 872 29
L 872 29
L 872 29
L 872 29
L 872 29
L 872 29
L 872 29
L 872 28
L 872 28
L 872 28
L 872 28
L 872 28
L 873 28
L 873 28
L 873 28
L 873 28
L 873 28
L 873 28
L 873 28
L 873 28
L 873 28
L 873 28
L 873 28
L 873 28
L 873 28
L 873 28
L 873 28
L 873 28
L 873 28
L 873 27
L 873 27
L 873 27
L 873 27
L 873 27
L 873 27
L 873 27
L 873 27
L 873 27
L 873 27
L 873 27
L 873 27
L 873 27
L 873 27
L 873 27
L 873 27
L 873 27
L 874 27
L 874 27
L 874 27
L 874 27
L 874 26
L 874 26
L 874 26
L 874 26
L 874 26
L 874 26
L 874 26
L 874 26
L 874 26
L 874 26
L 874 26
L 874 26
L 874 26
L 874 26
L 874 26
L 874 26
L 874 26
L 874 26
L 874 26
L 874 26
L 874 26
L 874 26
L 874 25
L 874 25
L 874 25
L 874 25
L 874 25
L 874 25
L 874 25
L 875 25
L 875 25
L 875 25
L 875 25
L 875 25
L 875 25
L 875 25
L 875 25
L 875 25
L 875 25
L 875 25
L 875 25
L 875 25
L 875 25
L 876 25
L 876 24
L 876 24
L 876 24
L 876 24
L 876 24
L 876 24
L 876 24
L 876 24
L 876 24
L 876 24
L 876 24
L 876 24
L 876 24
L 877 24
L 877 24
L 877 24
L 877 24
L 877 24
L 877 24
L 877 24
L 877 24
L 877 24
L 877 23
L 877 23
L 877 23
L 877 23
L 878 23
L 878 23
L 878 23
L 878 23
L 878 23
L 878 23
L 879 23
L 880 23
L 880 23
L 880 23
L 881 23
L 881 23
L 882 23
L 882 23
L 882 23
L 882 23
L 882 23
L 882 22
L 882 22
L 882 22
L 882 22
L 882 22
L 882 22
L 882 22
L 882 22
L 882 22
L 882 22
L 882 22
L 882 22
L 882 22
L 882 22
L 882 22
L 882 22
L 882 22
L 882 22
L 882 22
L 882 22
L 882 22
L 882 22
L 883 21
L 883 21
L 883 21
L 883 21
L 883 21
L 883 21
L 883 21
L 883 21
L 883 21
L 883 21
L 883 21
L 883 21
L 883 21
L 883 21
L 883 21
L 883 21
L 883 21
L 884 21
L 884 21
L 884 21
L 884 21
L 884 21
L 884 20
L 884 20
L 884 20
L 884 20
L 884 20
L 884 20
L 884 20
L 884 20
L 884 20
L 884 20
L 884 20
L 884 20
L 884 20
L 885 20
L 885 20
L 885 20
L 885 20
L 885 20
L 885 20
L 885 20
L 885 20
L 885 20
L 885 19
L 885 19
L 885 19
L 885 19
L 885 19
L 885 19
L 885 19
L 885 19
L 885 19
L 885 19
L 885 19
L 886 19
L 886 19
L 886 19
L 886 19
L 886 19
L 886 19
L 886 19
L 886 19
L 887 19
L 887 19
L 887 18
L 888 18
L 888 18
L 888 18
L 888 18
L 888 18
L 888 18
L 888 18
L 888 18
L 888 18
L 888 18
L 889 18
L 889 18
L 889 18
L 889 18
L 889 18
L 890 18
L 890 18
L 891 18
L 894 18
L 894 18
L 894 18
L 894 17
L 894 17
L 895 17
L 895 17
L 895 17
L 895 17
L 895 17
L 895 17
L 895 17
L 896 17
L 896 17
L 896 17
L 896 17
L 896 17
L 896 17
L 896 17
L 896 17
L 896 17
L 897 17
L 897 17
L 897 17
L 897 17
L 897 16
L 897 16
L 897 16
L 897 16
L 898 16
L 898 16
L 898 16
L 898 16
L 898 16
L 898 16
L 899 16
L 899 16
L 899 16
L 899 16
L 899 16
L 900 16
L 900 16
L 900 16
L 900 16
L 900 16
L 900 16
L 901 16
L 901 15
L 901 15
L 901 15
L 901 15
L 901 15
L 902 15
L 903 15
L 905 15
L 906 15
L 906 15
L 906 15
L 906 15
L 907 15
L 907 15
L 907 15
L 907 15
L 908 15
L 908 15
L 909 15
L 909 15
L 909 15
L 909 14
L 910 14
L 911 14
L 912 14
L 912 14
L 912 14
L 913 14
L 915 14
L 916 14
L 918 14
L 918 14
L 919 14
L 920 14
L 920 14
L 920 14
L 922 14
L 922 14
L 923 14
L 923 14
L 924 14
L 924 14
L 924 14
L 924 13
L 924 13
L 924 13
L 924 13
L 924 13
L 924 13
L 924 13
L 925 13
L 925 13
L 926 13
L 926 13
L 929 13
L 930 13
L 930 13
L 931 13
L 931 13
L 931 13
L 932 13
L 932 13
L 933 13
L 934 13
L 934 13
L 934 12
L 934 12
L 934 12
L 934 12
L 935 12
L 935 12
L 936 12
L 936 12
L 936 12
L 936 12
L 936 12
L 937 12
L 937 12
L 940 12
L 941 12
L 941 12
L 942 12
L 943 12
L 943 12
L 944 12
L 944 12
L 945 12
L 945 11
L 945 11
L 946 11
L 946 11
L 947 11
L 947 11
L 948 11
L 949 11
L 949 11
L 949 11
L 950 11
L 950 11
L 951 11
L 954 11
L 954 11
L 954 11
L 955 11
L 955 11
L 956 11
L 956 11
L 957 11" style="stroke-width:2;stroke:rgba(129,199,239,1.0);fill:none"/></svg>