<svg xmlns="http://www.w3.org/2000/svg" xmlns:xlink="http://www.w3.org/1999/xlink" width="1024" height="400">\n<path  d="M 0 0
L 1024 0
L 1024 400
L 0 400
L 0 0" style="stroke-width:0;stroke:rgba(255,255,255,1.0);fill:rgba(255,255,255,1.0)"/><path  d="M 38 11
L 957 11
L 957 351
L 38 351
L 38 11" style="stroke-width:0;stroke:rgba(255,255,255,1.0);fill:rgba(255,255,255,1.0)"/><path  d="M 38 351
L 957 351" style="stroke-width:2;stroke:rgba(85,85,85,1.0);fill:none"/><path  d="M 38 351
L 38 356" style="stroke-width:2;stroke:rgba(85,85,85,1.0);fill:none"/><text x="5" y="373" style="stroke-width:0;stroke:none;fill:rgba(51,51,51,1.0);font-size:12.8px;font-family:'Roboto Medium',sans-serif">2018-11-23</text><path  d="M 153 351
L 153 356" style="stroke-width:2;stroke:rgba(85,85,85,1.0);fill:none"/><text x="120" y="373" style="stroke-width:0;stroke:none;fill:rgba(51,51,51,1.0);font-size:12.8px;font-family:'Roboto Medium',sans-serif">2018-12-03</text><path  d="M 268 351
L 268 356" style="stroke-width:2;stroke:rgba(85,85,85,1.0);fill:none"/><text x="235" y="373" style="stroke-width:0;stroke:none;fill:rgba(51,51,51,1.0);font-size:12.8px;font-family:'Roboto Medium',sans-serif">2018-12-13</text><path  d="M 383 351
L 383 356" style="stroke-width:2;stroke:rgba(85,85,85,1.0);fill:none"/><text x="350" y="373" style="stroke-width:0;stroke:none;fill:rgba(51,51,51,1.0);font-size:12.8px;font-family:'Roboto Medium',sans-serif">2018-12-23</text><path  d="M 498 351
L 498 356" style="stroke-width:2;stroke:rgba(85,85,85,1.0);fill:none"/><text x="465" y="373" style="stroke-width:0;stroke:none;fill:rgba(51,51,51,1.0);font-size:12.8px;font-family:'Roboto Medium',sans-serif">2019-01-02</text><path  d="M 613 351
L 613 356" style="stroke-width:2;stroke:rgba(85,85,85,1.0);fill:none"/><text x="580" y="373" style="stroke-width:0;stroke:none;fill:rgba(51,51,51,1.0);font-size:12.8px;font-family:'Roboto Medium',sans-serif">2019-01-12</text><path  d="M 728 351
L 728 356" style="stroke-width:2;stroke:rgba(85,85,85,1.0);fill:none"/><text x="695" y="373" style="stroke-width:0;stroke:none;fill:rgba(51,51,51,1.0);font-size:12.8px;font-family:'Roboto Medium',sans-serif">2019-01-22</text><path  d="M 843 351
L 843 356" style="stroke-width:2;stroke:rgba(85,85,85,1.0);fill:none"/><text x="810" y="373" style="stroke-width:0;stroke:none;fill:rgba(51,51,51,1.0);font-size:12.8px;font-family:'Roboto Medium',sans-serif">2019-02-01</text><path  d="M 957 351
L 957 356" style="stroke-width:2;stroke:rgba(85,85,85,1.0);fill:none"/><text x="924" y="373" style="stroke-width:0;stroke:none;fill:rgba(51,51,51,1.0);font-size:12.8px;font-family:'Roboto Medium',sans-serif">2019-02-11</text><text x="483" y="395" style="stroke-width:0;stroke:none;fill:rgba(51,51,51,1.0);font-size:12.8px;font-family:'Roboto Medium',sans-serif">Time</text><path  d="M 959 351
L 959 11" style="stroke-width:2;stroke:rgba(85,85,85,1.0);fill:none"/><path  d="M 959 351
L 964 351" style="stroke-width:2;stroke:rgba(85,85,85,1.0);fill:none"/><text x="969" y="357" style="stroke-width:0;stroke:none;fill:rgba(51,51,51,1.0);font-size:12.8px;font-family:'Roboto Medium',sans-serif">0</text><path  d="M 959 308
L 964 308" style="stroke-width:2;stroke:rgba(85,85,85,1.0);fill:none"/><text x="969" y="314" style="stroke-width:0;stroke:none;fill:rgba(51,51,51,1.0);font-size:12.8px;font-family:'Roboto Medium',sans-serif">940</text><path  d="M 959 265
L 964 265" style="stroke-width:2;stroke:rgba(85,85,85,1.0);fill:none"/><text x="969" y="271" style="stroke-width:0;stroke:none;fill:rgba(51,51,51,1.0);font-size:12.8px;font-family:'Roboto Medium',sans-serif">1880</text><path  d="M 959 223
L 964 223" style="stroke-width:2;stroke:rgba(85,85,85,1.0);fill:none"/><text x="969" y="229" style="stroke-width:0;stroke:none;fill:rgba(51,51,51,1.0);font-size:12.8px;font-family:'Roboto Medium',sans-serif">2820</text><path  d="M 959 181
L 964 181" style="stroke-width:2;stroke:rgba(85,85,85,1.0);fill:none"/><text x="969" y="187" style="stroke-width:0;stroke:none;fill:rgba(51,51,51,1.0);font-size:12.8px;font-family:'Roboto Medium',sans-serif">3750</text><path  d="M 959 138
L 964 138" style="stroke-width:2;stroke:rgba(85,85,85,1.0);fill:none"/><text x="969" y="144" style="stroke-width:0;stroke:none;fill:rgba(51,51,51,1.0);font-size:12.8px;font-family:'Roboto Medium',sans-serif">4690</text><path  d="M 959 95
L 964 95" style="stroke-width:2;stroke:rgba(85,85,85,1.0);fill:none"/><text x="969" y="101" style="stroke-width:0;stroke:none;fill:rgba(51,51,51,1.0);font-size:12.8px;font-family:'Roboto Medium',sans-serif">5630</text><path  d="M 959 53
L 964 53" style="stroke-width:2;stroke:rgba(85,85,85,1.0);fill:none"/><text x="969" y="59" style="stroke-width:0;stroke:none;fill:rgba(51,51,51,1.0);font-size:12.8px;font-family:'Roboto Medium',sans-serif">6570</text><path  d="M 959 11
L 964 11" style="stroke-width:2;stroke:rgba(85,85,85,1.0);fill:none"/><text x="969" y="17" style="stroke-width:0;stroke:none;fill:rgba(51,51,51,1.0);font-size:12.8px;font-family:'Roboto Medium',sans-serif">7500</text><text x="1009" y="150" style="stroke-width:0;stroke:none;fill:rgba(51,51,51,1.0);font-size:12.8px;font-family:'Roboto Medium',sans-serif" transform="rotate(90.00,1009,150)">Stargazers</text><path  d="M 38 351
L 99 350
L 141 350
L 143 350
L 152 350
L 152 350
L 152 350
L 153 350
L 153 350
L 153 350
L 153 350
L 153 350
L 153 350
L 154 350
L 154 350
L 154 350
L 154 350
L 154 350
L 154 350
L 154 350
L 155 350
L 155 350
L 156 350
L 157 349
L 163 349
L 164 349
L 164 349
L 164 349
L 164 349
L 166 349
L 167 349
L 168 349
L 169 349
L 169 349
L 169 349
L 169 349
L 169 349
L 169 349
L 172 349
L 174 349
L 175 349
L 175 349
L 175 349
L 175 349
L 175 349
L 175 348
L 175 348
L 175 348
L 176 348
L 176 348
L 177 348
L 178 348
L 178 348
L 178 348
L 178 348
L 178 348
L 178 348
L 178 348
L 179 348
L 179 348
L 180 348
L 180 348
L 180 348
L 180 348
L 181 348
L 181 348
L 181 348
L 181 347
L 182 347
L 185 347
L 186 347
L 186 347
L 186 347
L 186 347
L 187 347
L 187 347
L 187 347
L 187 347
L 188 347
L 188 347
L 188 347
L 188 347
L 188 347
L 188 347
L 188 347
L 188 347
L 188 347
L 188 347
L 188 347
L 188 346
L 188 346
L 188 346
L 188 346
L 188 346
L 188 346
L 188 346
L 188 346
L 188 346
L 188 346
L 188 346
L 188 346
L 188 346
L 188 346
L 188 346
L 188 346
L 188 346
L 188 346
L 188 346
L 188 346
L 188 346
L 188 346
L 188 345
L 188 345
L 188 345
L 188 345
L 189 345
L 189 345
L 189 345
L 189 345
L 189 345
L 189 345
L 189 345
L 189 345
L 189 345
L 189 345
L 189 345
L 189 345
L 189 345
L 189 345
L 189 345
L 189 345
L 190 345
L 190 345
L 190 344
L 190 344
L 190 344
L 190 344
L 190 344
L 190 344
L 191 344
L 191 344
L 191 344
L 191 344
L 191 344
L 191 344
L 191 344
L 191 344
L 191 344
L 191 344
L 191 344
L 191 344
L 193 344
L 193 344
L 197 344
L 197 344
L 197 343
L 197 343
L 198 343
L 198 343
L 198 343
L 198 343
L 199 343
L 199 343
L 199 343
L 199 343
L 200 343
L 200 343
L 200 343
L 200 343
L 201 343
L 201 343
L 201 343
L 201 343
L 201 343
L 201 343
L 202 343
L 202 343
L 203 342
L 209 342
L 209 342
L 209 342
L 210 342
L 211 342
L 212 342
L 212 342
L 216 342
L 216 342
L 216 342
L 218 342
L 221 342
L 221 342
L 223 342
L 223 342
L 224 342
L 224 342
L 225 342
L 225 342
L 225 342
L 225 342
L 225 341
L 225 341
L 226 341
L 226 341
L 228 341
L 232 341
L 232 341
L 232 341
L 233 341
L 233 341
L 233 341
L 234 341
L 238 341
L 238 341
L 243 341
L 245 341
L 246 341
L 246 341
L 246 341
L 248 341
L 248 341
L 255 341
L 255 340
L 255 340
L 255 340
L 256 340
L 257 340
L 257 340
L 259 340
L 259 340
L 261 340
L 263 340
L 266 340
L 271 340
L 272 340
L 277 340
L 279 340
L 279 340
L 280 340
L 280 340
L 280 340
L 281 340
L 282 340
L 283 340
L 283 339
L 284 339
L 284 339
L 286 339
L 287 339
L 290 339
L 291 339
L 292 339
L 292 339
L 292 339
L 293 339
L 294 339
L 294 339
L 295 339
L 296 339
L 296 339
L 297 339
L 301 339
L 301 339
L 301 339
L 302 339
L 303 339
L 306 338
L 306 338
L 306 338
L 307 338
L 311 338
L 312 338
L 312 338
L 313 338
L 313 338
L 313 338
L 316 338
L 316 338
L 317 338
L 319 338
L 324 338
L 325 338
L 326 338
L 326 338
L 327 338
L 328 338
L 328 338
L 329 338
L 329 337
L 331 337
L 331 337
L 335 337
L 336 337
L 337 337
L 337 337
L 337 337
L 338 337
L 338 337
L 338 337
L 340 337
L 347 337
L 347 337
L 347 337
L 347 337
L 349 337
L 349 337
L 350 337
L 350 337
L 350 337
L 352 337
L 352 336
L 352 336
L 353 336
L 353 336
L 354 336
L 358 336
L 359 336
L 359 336
L 359 336
L 359 336
L 359 336
L 359 336
L 359 336
L 359 336
L 359 336
L 360 336
L 360 336
L 361 336
L 361 336
L 361 336
L 361 336
L 361 336
L 361 335
L 361 335
L 361 335
L 361 335
L 361 335
L 361 335
L 361 335
L 361 335
L 361 335
L 361 335
L 361 335
L 361 335
L 361 335
L 361 335
L 361 335
L 361 335
L 362 335
L 362 335
L 362 335
L 362 335
L 362 335
L 362 335
L 362 334
L 362 334
L 362 334
L 362 334
L 362 334
L 362 334
L 362 334
L 362 334
L 362 334
L 362 334
L 362 334
L 362 334
L 362 334
L 362 334
L 362 334
L 362 334
L 362 334
L 362 334
L 363 334
L 363 334
L 363 334
L 363 334
L 363 334
L 363 333
L 363 333
L 363 333
L 364 333
L 364 333
L 364 333
L 364 333
L 364 333
L 364 333
L 364 333
L 364 333
L 364 333
L 364 333
L 364 333
L 365 333
L 365 333
L 365 333
L 365 333
L 365 333
L 366 333
L 366 333
L 369 333
L 370 332
L 370 332
L 370 332
L 370 332
L 370 332
L 370 332
L 370 332
L 370 332
L 370 332
L 370 332
L 370 332
L 370 332
L 371 332
L 371 332
L 371 332
L 371 332
L 371 332
L 371 332
L 371 332
L 371 332
L 371 332
L 372 332
L 372 331
L 372 331
L 372 331
L 372 331
L 372 331
L 372 331
L 372 331
L 372 331
L 372 331
L 372 331
L 372 331
L 372 331
L 372 331
L 372 331
L 372 331
L 373 331
L 373 331
L 373 331
L 373 331
L 373 331
L 373 331
L 373 331
L 373 330
L 373 330
L 373 330
L 373 330
L 373 330
L 373 330
L 373 330
L 373 330
L 373 330
L 373 330
L 373 330
L 373 330
L 373 330
L 373 330
L 373 330
L 374 330
L 374 330
L 374 330
L 374 330
L 374 330
L 374 330
L 374 330
L 374 329
L 374 329
L 374 329
L 374 329
L 374 329
L 375 329
L 375 329
L 375 329
L 375 329
L 375 329
L 375 329
L 375 329
L 375 329
L 375 329
L 375 329
L 375 329
L 375 329
L 375 329
L 375 329
L 375 329
L 375 329
L 375 329
L 375 328
L 376 328
L 376 328
L 376 328
L 376 328
L 376 328
L 376 328
L 376 328
L 376 328
L 376 328
L 376 328
L 376 328
L 376 328
L 376 328
L 376 328
L 376 328
L 376 328
L 376 328
L 376 328
L 376 328
L 377 328
L 377 328
L 377 327
L 377 327
L 377 327
L 377 327
L 377 327
L 377 327
L 377 327
L 377 327
L 377 327
L 377 327
L 377 327
L 377 327
L 377 327
L 378 327
L 378 327
L 379 327
L 380 327
L 380 327
L 381 327
L 381 327
L 381 327
L 381 327
L 381 326
L 381 326
L 381 326
L 381 326
L 381 326
L 381 326
L 381 326
L 381 326
L 381 326
L 382 326
L 382 326
L 382 326
L 382 326
L 382 326
L 382 326
L 382 326
L 382 326
L 382 326
L 382 326
L 382 326
L 382 326
L 382 326
L 382 325
L 382 325
L 382 325
L 382 325
L 382 325
L 382 325
L 382 325
L 382 325
L 383 325
L 383 325
L 383 325
L 383 325
L 383 325
L 383 325
L 383 325
L 383 325
L 383 325
L 383 325
L 383 325
L 383 325
L 383 325
L 383 325
L 383 324
L 383 324
L 383 324
L 383 324
L 384 324
L 384 324
L 384 324
L 384 324
L 384 324
L 384 324
L 384 324
L 384 324
L 384 324
L 384 324
L 384 324
L 384 324
L 384 324
L 384 324
L 384 324
L 384 324
L 384 324
L 384 324
L 384 323
L 384 323
L 384 323
L 384 323
L 384 323
L 384 323
L 384 323
L 384 323
L 384 323
L 384 323
L 385 323
L 385 323
L 385 323
L 385 323
L 385 323
L 385 323
L 385 323
L 385 323
L 385 323
L 385 323
L 385 323
L 385 323
L 386 322
L 386 322
L 386 322
L 386 322
L 386 322
L 386 322
L 386 322
L 386 322
L 386 322
L 386 322
L 386 322
L 386 322
L 386 322
L 386 322
L 386 322
L 386 322
L 386 322
L 386 322
L 386 322
L 386 322
L 387 322
L 387 322
L 387 321
L 387 321
L 387 321
L 387 321
L 387 321
L 387 321
L 387 321
L 387 321
L 387 321
L 387 321
L 387 321
L 387 321
L 387 321
L 387 321
L 387 321
L 387 321
L 387 321
L 387 321
L 387 321
L 387 321
L 387 321
L 387 321
L 387 320
L 387 320
L 387 320
L 387 320
L 388 320
L 388 320
L 388 320
L 388 320
L 388 320
L 388 320
L 388 320
L 388 320
L 388 320
L 388 320
L 388 320
L 388 320
L 388 320
L 388 320
L 388 320
L 388 320
L 388 320
L 388 320
L 388 319
L 389 319
L 389 319
L 389 319
L 389 319
L 389 319
L 389 319
L 390 319
L 390 319
L 391 319
L 392 319
L 392 319
L 392 319
L 392 319
L 392 319
L 392 319
L 392 319
L 392 319
L 392 319
L 392 319
L 392 319
L 392 319
L 392 318
L 392 318
L 392 318
L 392 318
L 392 318
L 392 318
L 392 318
L 392 318
L 392 318
L 392 318
L 392 318
L 392 318
L 392 318
L 392 318
L 392 318
L 392 318
L 392 318
L 393 318
L 393 318
L 393 318
L 393 318
L 393 318
L 393 317
L 393 317
L 393 317
L 393 317
L 393 317
L 393 317
L 393 317
L 393 317
L 393 317
L 393 317
L 393 317
L 393 317
L 393 317
L 393 317
L 393 317
L 393 317
L 393 317
L 393 317
L 393 317
L 393 317
L 393 317
L 393 317
L 393 317
L 393 316
L 393 316
L 393 316
L 393 316
L 393 316
L 393 316
L 393 316
L 393 316
L 393 316
L 393 316
L 393 316
L 393 316
L 393 316
L 393 316
L 393 316
L 393 316
L 393 316
L 393 316
L 393 316
L 393 316
L 393 316
L 393 316
L 393 315
L 393 315
L 393 315
L 393 315
L 393 315
L 393 315
L 393 315
L 393 315
L 393 315
L 393 315
L 393 315
L 393 315
L 393 315
L 393 315
L 393 315
L 393 315
L 393 315
L 393 315
L 393 315
L 393 315
L 393 315
L 393 315
L 393 314
L 393 314
L 393 314
L 393 314
L 393 314
L 393 314
L 393 314
L 393 314
L 393 314
L 393 314
L 393 314
L 393 314
L 393 314
L 393 314
L 393 314
L 393 314
L 394 314
L 394 314
L 394 314
L 394 314
L 394 314
L 394 314
L 394 313
L 394 313
L 394 313
L 394 313
L 394 313
L 394 313
L 394 313
L 394 313
L 394 313
L 394 313
L 394 313
L 394 313
L 394 313
L 394 313
L 394 313
L 394 313
L 394 313
L 394 313
L 394 313
L 394 313
L 394 313
L 394 313
L 394 312
L 394 312
L 394 312
L 394 312
L 394 312
L 394 312
L 394 312
L 394 312
L 394 312
L 394 312
L 394 312
L 394 312
L 394 312
L 394 312
L 394 312
L 394 312
L 395 312
L 395 312
L 395 312
L 395 312
L 395 312
L 395 312
L 395 311
L 395 311
L 395 311
L 395 311
L 395 311
L 395 311
L 395 311
L 395 311
L 395 311
L 395 311
L 395 311
L 395 311
L 395 311
L 395 311
L 395 311
L 395 311
L 395 311
L 395 311
L 395 311
L 395 311
L 395 311
L 395 311
L 395 310
L 395 310
L 395 310
L 395 310
L 395 310
L 395 310
L 395 310
L 395 310
L 395 310
L 395 310
L 395 310
L 395 310
L 395 310
L 395 310
L 395 310
L 395 310
L 395 310
L 395 310
L 395 310
L 395 310
L 395 310
L 395 310
L 395 309
L 395 309
L 395 309
L 395 309
L 395 309
L 395 309
L 395 309
L 395 309
L 395 309
L 395 309
L 395 309
L 395 309
L 395 309
L 395 309
L 395 309
L 395 309
L 395 309
L 395 309
L 395 309
L 395 309
L 395 309
L 395 309
L 395 308
L 395 308
L 395 308
L 395 308
L 395 308
L 396 308
L 396 308
L 396 308
L 396 308
L 396 308
L 396 308
L 396 308
L 396 308
L 396 308
L 396 308
L 396 308
L 396 308
L 396 308
L 396 308
L 396 308
L 396 308
L 396 308
L 396 307
L 396 307
L 396 307
L 396 307
L 396 307
L 396 307
L 396 307
L 396 307
L 396 307
L 396 307
L 396 307
L 396 307
L 396 307
L 396 307
L 396 307
L 396 307
L 396 307
L 396 307
L 396 307
L 396 307
L 396 307
L 396 307
L 396 306
L 396 306
L 396 306
L 396 306
L 396 306
L 396 306
L 396 306
L 396 306
L 396 306
L 396 306
L 396 306
L 396 306
L 396 306
L 396 306
L 396 306
L 396 306
L 397 306
L 397 306
L 397 306
L 397 306
L 397 306
L 397 306
L 397 305
L 397 305
L 397 305
L 397 305
L 397 305
L 397 305
L 397 305
L 397 305
L 397 305
L 397 305
L 397 305
L 397 305
L 397 305
L 397 305
L 397 305
L 397 305
L 397 305
L 397 305
L 397 305
L 397 305
L 397 305
L 397 305
L 397 304
L 397 304
L 397 304
L 397 304
L 397 304
L 397 304
L 397 304
L 397 304
L 397 304
L 397 304
L 397 304
L 397 304
L 397 304
L 397 304
L 397 304
L 397 304
L 397 304
L 397 304
L 398 304
L 398 304
L 398 304
L 398 304
L 398 303
L 398 303
L 398 303
L 398 303
L 398 303
L 398 303
L 398 303
L 398 303
L 398 303
L 398 303
L 398 303
L 398 303
L 398 303
L 398 303
L 398 303
L 398 303
L 398 303
L 399 303
L 399 303
L 399 303
L 399 303
L 399 303
L 399 302
L 399 302
L 399 302
L 399 302
L 399 302
L 399 302
L 399 302
L 399 302
L 399 302
L 399 302
L 399 302
L 399 302
L 399 302
L 399 302
L 399 302
L 399 302
L 399 302
L 399 302
L 399 302
L 399 302
L 399 302
L 399 302
L 399 301
L 399 301
L 400 301
L 400 301
L 400 301
L 400 301
L 400 301
L 400 301
L 400 301
L 400 301
L 400 301
L 400 301
L 400 301
L 401 301
L 401 301
L 402 301
L 403 301
L 403 301
L 403 301
L 404 301
L 404 301
L 404 301
L 404 300
L 404 300
L 404 300
L 404 300
L 404 300
L 404 300
L 404 300
L 404 300
L 404 300
L 404 300
L 404 300
L 404 300
L 404 300
L 404 300
L 404 300
L 404 300
L 404 300
L 404 300
L 404 300
L 404 300
L 404 300
L 404 300
L 404 300
L 404 299
L 404 299
L 404 299
L 404 299
L 404 299
L 404 299
L 404 299
L 404 299
L 404 299
L 404 299
L 404 299
L 404 299
L 404 299
L 404 299
L 404 299
L 404 299
L 404 299
L 404 299
L 404 299
L 404 299
L 404 299
L 404 299
L 404 298
L 404 298
L 404 298
L 404 298
L 404 298
L 404 298
L 404 298
L 404 298
L 404 298
L 404 298
L 404 298
L 404 298
L 404 298
L 404 298
L 404 298
L 404 298
L 404 298
L 404 298
L 404 298
L 404 298
L 404 298
L 404 298
L 404 297
L 404 297
L 405 297
L 405 297
L 405 297
L 405 297
L 405 297
L 405 297
L 405 297
L 405 297
L 405 297
L 405 297
L 405 297
L 405 297
L 405 297
L 405 297
L 405 297
L 405 297
L 405 297
L 405 297
L 405 297
L 405 297
L 405 296
L 405 296
L 405 296
L 405 296
L 405 296
L 405 296
L 405 296
L 405 296
L 405 296
L 405 296
L 405 296
L 405 296
L 405 296
L 405 296
L 405 296
L 405 296
L 405 296
L 405 296
L 405 296
L 405 296
L 405 296
L 405 296
L 405 295
L 405 295
L 405 295
L 405 295
L 405 295
L 405 295
L 405 295
L 405 295
L 405 295
L 405 295
L 405 295
L 405 295
L 405 295
L 405 295
L 405 295
L 405 295
L 405 295
L 405 295
L 405 295
L 405 295
L 405 295
L 405 295
L 405 294
L 405 294
L 405 294
L 405 294
L 405 294
L 405 294
L 405 294
L 405 294
L 405 294
L 406 294
L 406 294
L 406 294
L 406 294
L 406 294
L 406 294
L 406 294
L 406 294
L 406 294
L 406 294
L 406 294
L 406 294
L 406 294
L 406 293
L 406 293
L 406 293
L 406 293
L 406 293
L 406 293
L 406 293
L 406 293
L 406 293
L 406 293
L 406 293
L 406 293
L 406 293
L 406 293
L 406 293
L 406 293
L 406 293
L 406 293
L 406 293
L 406 293
L 406 293
L 406 293
L 406 292
L 406 292
L 406 292
L 406 292
L 406 292
L 406 292
L 406 292
L 406 292
L 406 292
L 406 292
L 406 292
L 407 292
L 407 292
L 407 292
L 407 292
L 407 292
L 407 292
L 407 292
L 407 292
L 407 292
L 407 292
L 407 292
L 407 291
L 407 291
L 407 291
L 407 291
L 407 291
L 407 291
L 407 291
L 407 291
L 407 291
L 407 291
L 407 291
L 407 291
L 407 291
L 407 291
L 407 291
L 407 291
L 407 291
L 407 291
L 407 291
L 407 291
L 407 291
L 407 291
L 407 290
L 407 290
L 407 290
L 407 290
L 407 290
L 407 290
L 407 290
L 407 290
L 407 290
L 407 290
L 407 290
L 407 290
L 407 290
L 407 290
L 407 290
L 407 290
L 407 290
L 407 290
L 407 290
L 407 290
L 407 290
L 407 290
L 407 289
L 407 289
L 408 289
L 408 289
L 408 289
L 408 289
L 408 289
L 408 289
L 408 289
L 408 289
L 408 289
L 408 289
L 408 289
L 408 289
L 408 289
L 408 289
L 408 289
L 408 289
L 408 289
L 408 289
L 408 289
L 408 289
L 408 288
L 408 288
L 408 288
L 408 288
L 408 288
L 408 288
L 408 288
L 408 288
L 408 288
L 408 288
L 408 288
L 408 288
L 408 288
L 408 288
L 408 288
L 408 288
L 408 288
L 408 288
L 408 288
L 408 288
L 408 288
L 408 288
L 408 287
L 408 287
L 408 287
L 408 287
L 408 287
L 408 287
L 408 287
L 408 287
L 408 287
L 408 287
L 408 287
L 409 287
L 409 287
L 409 287
L 409 287
L 409 287
L 409 287
L 409 287
L 409 287
L 409 287
L 409 287
L 409 287
L 409 286
L 409 286
L 409 286
L 409 286
L 409 286
L 409 286
L 409 286
L 409 286
L 409 286
L 409 286
L 409 286
L 409 286
L 409 286
L 409 286
L 409 286
L 409 286
L 409 286
L 409 286
L 409 286
L 409 286
L 409 286
L 409 286
L 409 285
L 409 285
L 409 285
L 409 285
L 409 285
L 409 285
L 409 285
L 409 285
L 409 285
L 409 285
L 409 285
L 409 285
L 409 285
L 409 285
L 409 285
L 409 285
L 409 285
L 409 285
L 409 285
L 409 285
L 409 285
L 409 285
L 410 284
L 410 284
L 410 284
L 410 284
L 410 284
L 410 284
L 410 284
L 410 284
L 410 284
L 410 284
L 410 284
L 410 284
L 410 284
L 410 284
L 410 284
L 410 284
L 410 284
L 410 284
L 410 284
L 410 284
L 410 284
L 410 284
L 410 283
L 410 283
L 410 283
L 410 283
L 410 283
L 410 283
L 410 283
L 410 283
L 410 283
L 410 283
L 410 283
L 410 283
L 410 283
L 410 283
L 410 283
L 410 283
L 410 283
L 410 283
L 410 283
L 410 283
L 411 283
L 411 283
L 411 283
L 411 282
L 411 282
L 411 282
L 411 282
L 411 282
L 411 282
L 411 282
L 411 282
L 411 282
L 411 282
L 411 282
L 411 282
L 411 282
L 411 282
L 411 282
L 411 282
L 411 282
L 411 282
L 411 282
L 411 282
L 411 282
L 411 282
L 412 281
L 412 281
L 412 281
L 412 281
L 412 281
L 412 281
L 412 281
L 412 281
L 413 281
L 413 281
L 414 281
L 415 281
L 415 281
L 415 281
L 415 281
L 415 281
L 415 281
L 415 281
L 415 281
L 415 281
L 415 281
L 415 281
L 415 280
L 415 280
L 415 280
L 415 280
L 415 280
L 415 280
L 415 280
L 415 280
L 415 280
L 415 280
L 415 280
L 415 280
L 416 280
L 416 280
L 416 280
L 416 280
L 416 280
L 416 280
L 416 280
L 416 280
L 416 280
L 416 280
L 416 279
L 416 279
L 416 279
L 416 279
L 416 279
L 416 279
L 416 279
L 416 279
L 416 279
L 416 279
L 416 279
L 416 279
L 416 279
L 416 279
L 416 279
L 416 279
L 416 279
L 416 279
L 416 279
L 416 279
L 416 279
L 416 279
L 416 278
L 416 278
L 416 278
L 416 278
L 416 278
L 416 278
L 416 278
L 416 278
L 416 278
L 416 278
L 416 278
L 416 278
L 416 278
L 416 278
L 416 278
L 416 278
L 416 278
L 416 278
L 416 278
L 416 278
L 416 278
L 416 278
L 416 277
L 416 277
L 416 277
L 416 277
L 416 277
L 416 277
L 416 277
L 416 277
L 416 277
L 416 277
L 416 277
L 416 277
L 416 277
L 416 277
L 416 277
L 416 277
L 416 277
L 416 277
L 416 277
L 416 277
L 416 277
L 416 277
L 416 276
L 416 276
L 416 276
L 416 276
L 416 276
L 416 276
L 416 276
L 416 276
L 416 276
L 416 276
L 416 276
L 416 276
L 416 276
L 416 276
L 416 276
L 417 276
L 417 276
L 417 276
L 417 276
L 417 276
L 417 276
L 417 276
L 417 275
L 417 275
L 417 275
L 417 275
L 417 275
L 417 275
L 417 275
L 417 275
L 417 275
L 417 275
L 417 275
L 417 275
L 417 275
L 417 275
L 417 275
L 417 275
L 417 275
L 417 275
L 417 275
L 417 275
L 417 275
L 417 275
L 418 274
L 418 274
L 418 274
L 418 274
L 418 274
L 418 274
L 418 274
L 418 274
L 418 274
L 418 274
L 418 274
L 418 274
L 418 274
L 418 274
L 418 274
L 418 274
L 418 274
L 418 274
L 418 274
L 418 274
L 418 274
L 418 274
L 418 273
L 418 273
L 418 273
L 418 273
L 418 273
L 418 273
L 418 273
L 418 273
L 418 273
L 418 273
L 418 273
L 418 273
L 418 273
L 418 273
L 418 273
L 418 273
L 418 273
L 418 273
L 418 273
L 418 273
L 418 273
L 418 273
L 418 272
L 418 272
L 418 272
L 418 272
L 418 272
L 418 272
L 418 272
L 418 272
L 419 272
L 419 272
L 419 272
L 419 272
L 419 272
L 419 272
L 419 272
L 419 272
L 419 272
L 419 272
L 419 272
L 419 272
L 419 272
L 419 272
L 419 271
L 419 271
L 419 271
L 419 271
L 419 271
L 419 271
L 419 271
L 419 271
L 419 271
L 419 271
L 419 271
L 419 271
L 419 271
L 419 271
L 419 271
L 419 271
L 419 271
L 419 271
L 419 271
L 419 271
L 419 271
L 419 271
L 419 270
L 419 270
L 419 270
L 419 270
L 419 270
L 419 270
L 419 270
L 419 270
L 419 270
L 419 270
L 419 270
L 419 270
L 419 270
L 419 270
L 419 270
L 419 270
L 419 270
L 420 270
L 420 270
L 420 270
L 420 270
L 420 270
L 420 269
L 420 269
L 420 269
L 420 269
L 420 269
L 420 269
L 420 269
L 420 269
L 420 269
L 420 269
L 420 269
L 420 269
L 420 269
L 420 269
L 420 269
L 420 269
L 420 269
L 420 269
L 420 269
L 420 269
L 420 269
L 420 269
L 420 268
L 420 268
L 420 268
L 420 268
L 420 268
L 420 268
L 420 268
L 420 268
L 420 268
L 420 268
L 420 268
L 421 268
L 421 268
L 421 268
L 421 268
L 421 268
L 421 268
L 421 268
L 421 268
L 421 268
L 421 268
L 421 268
L 421 267
L 421 267
L 421 267
L 421 267
L 421 267
L 421 267
L 421 267
L 421 267
L 421 267
L 421 267
L 421 267
L 421 267
L 421 267
L 421 267
L 421 267
L 421 267
L 421 267
L 422 267
L 422 267
L 422 267
L 422 267
L 422 267
L 422 266
L 422 266
L 422 266
L 422 266
L 422 266
L 422 266
L 422 266
L 422 266
L 422 266
L 422 266
L 422 266
L 422 266
L 422 266
L 422 266
L 422 266
L 422 266
L 422 266
L 422 266
L 423 266
L 423 266
L 423 266
L 423 266
L 423 266
L 423 265
L 423 265
L 423 265
L 423 265
L 423 265
L 423 265
L 424 265
L 424 265
L 426 265
L 426 265
L 426 265
L 426 265
L 426 265
L 427 265
L 427 265
L 427 265
L 427 265
L 427 265
L 427 265
L 427 265
L 427 265
L 427 265
L 427 264
L 427 264
L 427 264
L 427 264
L 427 264
L 427 264
L 427 264
L 427 264
L 427 264
L 427 264
L 427 264
L 427 264
L 427 264
L 427 264
L 427 264
L 427 264
L 427 264
L 427 264
L 427 264
L 427 264
L 427 264
L 427 264
L 427 263
L 427 263
L 427 263
L 427 263
L 427 263
L 427 263
L 427 263
L 427 263
L 427 263
L 427 263
L 427 263
L 427 263
L 427 263
L 427 263
L 427 263
L 427 263
L 428 263
L 428 263
L 428 263
L 428 263
L 428 263
L 428 263
L 428 262
L 428 262
L 428 262
L 428 262
L 428 262
L 428 262
L 428 262
L 428 262
L 428 262
L 428 262
L 428 262
L 428 262
L 428 262
L 428 262
L 428 262
L 428 262
L 428 262
L 428 262
L 428 262
L 428 262
L 428 262
L 428 262
L 428 261
L 428 261
L 428 261
L 428 261
L 428 261
L 428 261
L 428 261
L 428 261
L 428 261
L 428 261
L 428 261
L 428 261
L 428 261
L 428 261
L 429 261
L 429 261
L 429 261
L 429 261
L 429 261
L 429 261
L 429 261
L 429 261
L 429 260
L 429 260
L 429 260
L 429 260
L 429 260
L 429 260
L 429 260
L 429 260
L 429 260
L 429 260
L 429 260
L 430 260
L 430 260
L 430 260
L 430 260
L 430 260
L 430 260
L 430 260
L 430 260
L 430 260
L 430 260
L 430 260
L 430 259
L 430 259
L 430 259
L 430 259
L 430 259
L 430 259
L 430 259
L 430 259
L 430 259
L 430 259
L 430 259
L 430 259
L 430 259
L 430 259
L 430 259
L 430 259
L 430 259
L 430 259
L 430 259
L 430 259
L 430 259
L 430 259
L 430 258
L 430 258
L 430 258
L 430 258
L 430 258
L 430 258
L 430 258
L 430 258
L 431 258
L 431 258
L 431 258
L 431 258
L 431 258
L 431 258
L 431 258
L 431 258
L 431 258
L 431 258
L 431 258
L 431 258
L 431 258
L 431 258
L 431 257
L 431 257
L 431 257
L 431 257
L 431 257
L 431 257
L 431 257
L 431 257
L 431 257
L 431 257
L 431 257
L 431 257
L 431 257
L 431 257
L 431 257
L 431 257
L 431 257
L 431 257
L 431 257
L 431 257
L 431 257
L 431 257
L 432 256
L 432 256
L 432 256
L 432 256
L 432 256
L 432 256
L 432 256
L 432 256
L 432 256
L 432 256
L 432 256
L 432 256
L 432 256
L 432 256
L 432 256
L 432 256
L 432 256
L 432 256
L 432 256
L 432 256
L 432 256
L 432 256
L 433 255
L 433 255
L 433 255
L 433 255
L 433 255
L 433 255
L 433 255
L 433 255
L 433 255
L 433 255
L 433 255
L 433 255
L 433 255
L 433 255
L 433 255
L 433 255
L 433 255
L 434 255
L 434 255
L 434 255
L 434 255
L 434 255
L 434 254
L 434 254
L 434 254
L 434 254
L 434 254
L 434 254
L 435 254
L 435 254
L 435 254
L 435 254
L 435 254
L 436 254
L 438 254
L 438 254
L 438 254
L 438 254
L 438 254
L 438 254
L 438 254
L 439 254
L 439 254
L 439 254
L 439 253
L 439 253
L 439 253
L 439 253
L 439 253
L 439 253
L 439 253
L 439 253
L 439 253
L 439 253
L 439 253
L 439 253
L 439 253
L 439 253
L 439 253
L 439 253
L 439 253
L 439 253
L 439 253
L 439 253
L 439 253
L 439 253
L 439 252
L 439 252
L 439 252
L 439 252
L 439 252
L 439 252
L 439 252
L 439 252
L 439 252
L 439 252
L 439 252
L 439 252
L 439 252
L 439 252
L 439 252
L 439 252
L 439 252
L 439 252
L 439 252
L 439 252
L 439 252
L 439 252
L 439 251
L 439 251
L 439 251
L 439 251
L 439 251
L 439 251
L 439 251
L 439 251
L 439 251
L 439 251
L 439 251
L 439 251
L 439 251
L 439 251
L 439 251
L 439 251
L 439 251
L 439 251
L 440 251
L 440 251
L 440 251
L 440 251
L 440 250
L 440 250
L 440 250
L 440 250
L 440 250
L 440 250
L 440 250
L 440 250
L 440 250
L 440 250
L 440 250
L 440 250
L 440 250
L 440 250
L 440 250
L 440 250
L 441 250
L 441 250
L 441 250
L 441 250
L 441 250
L 441 250
L 441 249
L 441 249
L 441 249
L 441 249
L 441 249
L 441 249
L 441 249
L 441 249
L 441 249
L 441 249
L 441 249
L 441 249
L 441 249
L 441 249
L 441 249
L 441 249
L 441 249
L 441 249
L 441 249
L 441 249
L 441 249
L 441 249
L 441 249
L 441 248
L 441 248
L 441 248
L 441 248
L 441 248
L 441 248
L 441 248
L 441 248
L 441 248
L 441 248
L 441 248
L 441 248
L 441 248
L 441 248
L 441 248
L 441 248
L 441 248
L 441 248
L 441 248
L 441 248
L 441 248
L 441 248
L 441 247
L 441 247
L 441 247
L 442 247
L 442 247
L 442 247
L 442 247
L 442 247
L 442 247
L 442 247
L 442 247
L 442 247
L 442 247
L 442 247
L 442 247
L 442 247
L 442 247
L 442 247
L 442 247
L 442 247
L 442 247
L 442 247
L 442 246
L 442 246
L 442 246
L 442 246
L 442 246
L 442 246
L 442 246
L 442 246
L 442 246
L 442 246
L 442 246
L 442 246
L 442 246
L 442 246
L 442 246
L 442 246
L 442 246
L 442 246
L 442 246
L 442 246
L 442 246
L 442 246
L 442 245
L 442 245
L 442 245
L 442 245
L 442 245
L 442 245
L 442 245
L 442 245
L 442 245
L 443 245
L 443 245
L 443 245
L 443 245
L 443 245
L 443 245
L 443 245
L 443 245
L 443 245
L 443 245
L 443 245
L 443 245
L 443 245
L 443 244
L 443 244
L 443 244
L 443 244
L 443 244
L 443 244
L 443 244
L 443 244
L 443 244
L 443 244
L 443 244
L 443 244
L 443 244
L 443 244
L 443 244
L 444 244
L 444 244
L 444 244
L 444 244
L 444 244
L 444 244
L 444 244
L 444 243
L 444 243
L 444 243
L 444 243
L 444 243
L 444 243
L 444 243
L 444 243
L 444 243
L 445 243
L 445 243
L 445 243
L 445 243
L 445 243
L 445 243
L 445 243
L 445 243
L 445 243
L 445 243
L 445 243
L 445 243
L 445 243
L 445 242
L 445 242
L 445 242
L 445 242
L 445 242
L 445 242
L 445 242
L 445 242
L 446 242
L 446 242
L 446 242
L 446 242
L 446 242
L 446 242
L 446 242
L 446 242
L 446 242
L 447 242
L 448 242
L 448 242
L 448 242
L 449 242
L 449 241
L 450 241
L 450 241
L 450 241
L 450 241
L 450 241
L 450 241
L 450 241
L 450 241
L 450 241
L 450 241
L 450 241
L 450 241
L 450 241
L 450 241
L 450 241
L 450 241
L 450 241
L 450 241
L 450 241
L 450 241
L 450 241
L 450 240
L 450 240
L 450 240
L 450 240
L 450 240
L 450 240
L 450 240
L 450 240
L 450 240
L 450 240
L 450 240
L 450 240
L 450 240
L 450 240
L 450 240
L 450 240
L 450 240
L 450 240
L 450 240
L 451 240
L 451 240
L 451 240
L 451 239
L 451 239
L 451 239
L 451 239
L 451 239
L 451 239
L 451 239
L 451 239
L 451 239
L 451 239
L 451 239
L 451 239
L 451 239
L 451 239
L 451 239
L 451 239
L 451 239
L 451 239
L 451 239
L 451 239
L 451 239
L 451 239
L 451 238
L 451 238
L 451 238
L 451 238
L 451 238
L 451 238
L 451 238
L 451 238
L 451 238
L 451 238
L 451 238
L 451 238
L 451 238
L 451 238
L 451 238
L 451 238
L 451 238
L 451 238
L 451 238
L 451 238
L 451 238
L 451 238
L 451 237
L 451 237
L 451 237
L 451 237
L 451 237
L 451 237
L 451 237
L 451 237
L 451 237
L 451 237
L 451 237
L 451 237
L 451 237
L 451 237
L 452 237
L 452 237
L 452 237
L 452 237
L 452 237
L 452 237
L 452 237
L 452 237
L 452 236
L 452 236
L 452 236
L 452 236
L 452 236
L 452 236
L 452 236
L 452 236
L 452 236
L 452 236
L 452 236
L 452 236
L 452 236
L 452 236
L 452 236
L 452 236
L 452 236
L 452 236
L 452 236
L 452 236
L 452 236
L 452 236
L 452 235
L 452 235
L 452 235
L 452 235
L 452 235
L 452 235
L 452 235
L 452 235
L 453 235
L 453 235
L 453 235
L 453 235
L 453 235
L 453 235
L 453 235
L 453 235
L 453 235
L 453 235
L 453 235
L 453 235
L 453 235
L 453 235
L 453 234
L 453 234
L 453 234
L 453 234
L 453 234
L 453 234
L 453 234
L 453 234
L 453 234
L 453 234
L 453 234
L 453 234
L 453 234
L 453 234
L 453 234
L 453 234
L 453 234
L 453 234
L 453 234
L 453 234
L 453 234
L 453 234
L 453 233
L 453 233
L 453 233
L 453 233
L 453 233
L 453 233
L 453 233
L 453 233
L 453 233
L 453 233
L 453 233
L 453 233
L 453 233
L 453 233
L 453 233
L 453 233
L 453 233
L 453 233
L 453 233
L 453 233
L 453 233
L 453 233
L 453 232
L 453 232
L 454 232
L 454 232
L 454 232
L 454 232
L 454 232
L 454 232
L 454 232
L 454 232
L 454 232
L 454 232
L 454 232
L 454 232
L 454 232
L 454 232
L 454 232
L 454 232
L 454 232
L 454 232
L 454 232
L 454 232
L 454 232
L 454 231
L 454 231
L 454 231
L 454 231
L 454 231
L 454 231
L 454 231
L 454 231
L 455 231
L 455 231
L 455 231
L 455 231
L 455 231
L 455 231
L 455 231
L 455 231
L 455 231
L 455 231
L 455 231
L 455 231
L 455 231
L 455 231
L 455 230
L 455 230
L 456 230
L 456 230
L 456 230
L 456 230
L 456 230
L 456 230
L 456 230
L 456 230
L 456 230
L 456 230
L 456 230
L 456 230
L 456 230
L 456 230
L 456 230
L 457 230
L 457 230
L 457 230
L 457 230
L 457 230
L 457 229
L 457 229
L 457 229
L 457 229
L 457 229
L 457 229
L 457 229
L 457 229
L 458 229
L 458 229
L 458 229
L 460 229
L 460 229
L 460 229
L 460 229
L 461 229
L 461 229
L 461 229
L 461 229
L 462 229
L 462 229
L 462 229
L 462 228
L 462 228
L 462 228
L 462 228
L 462 228
L 462 228
L 462 228
L 462 228
L 462 228
L 462 228
L 462 228
L 462 228
L 463 228
L 463 228
L 463 228
L 463 228
L 463 228
L 463 228
L 463 228
L 463 228
L 463 228
L 463 228
L 463 227
L 463 227
L 463 227
L 464 227
L 464 227
L 464 227
L 464 227
L 464 227
L 464 227
L 464 227
L 465 227
L 465 227
L 465 227
L 465 227
L 465 227
L 465 227
L 465 227
L 465 227
L 465 227
L 465 227
L 465 227
L 465 227
L 466 226
L 466 226
L 466 226
L 466 226
L 467 226
L 467 226
L 467 226
L 467 226
L 467 226
L 467 226
L 467 226
L 467 226
L 468 226
L 468 226
L 468 226
L 468 226
L 468 226
L 468 226
L 468 226
L 468 226
L 468 226
L 468 226
L 468 225
L 468 225
L 469 225
L 469 225
L 469 225
L 469 225
L 470 225
L 470 225
L 471 225
L 471 225
L 471 225
L 471 225
L 472 225
L 472 225
L 472 225
L 473 225
L 473 225
L 473 225
L 473 225
L 473 225
L 473 225
L 474 225
L 474 224
L 474 224
L 474 224
L 474 224
L 474 224
L 474 224
L 474 224
L 474 224
L 474 224
L 475 224
L 475 224
L 475 224
L 475 224
L 475 224
L 475 224
L 475 224
L 475 224
L 476 224
L 476 224
L 476 224
L 476 224
L 476 224
L 476 223
L 476 223
L 476 223
L 477 223
L 477 223
L 477 223
L 477 223
L 477 223
L 478 223
L 478 223
L 478 223
L 478 223
L 478 223
L 478 223
L 479 223
L 479 223
L 479 223
L 479 223
L 479 223
L 479 223
L 479 223
L 479 223
L 479 222
L 479 222
L 480 222
L 480 222
L 480 222
L 480 222
L 480 222
L 480 222
L 480 222
L 480 222
L 480 222
L 481 222
L 481 222
L 481 222
L 481 222
L 481 222
L 481 222
L 483 222
L 483 222
L 484 222
L 484 222
L 484 222
L 484 221
L 485 221
L 485 221
L 485 221
L 485 221
L 485 221
L 485 221
L 485 221
L 485 221
L 486 221
L 486 221
L 486 221
L 486 221
L 486 221
L 486 221
L 487 221
L 487 221
L 487 221
L 487 221
L 487 221
L 487 221
L 487 221
L 487 220
L 487 220
L 487 220
L 487 220
L 487 220
L 487 220
L 488 220
L 488 220
L 488 220
L 488 220
L 488 220
L 488 220
L 488 220
L 489 220
L 489 220
L 489 220
L 489 220
L 489 220
L 489 220
L 489 220
L 489 220
L 489 220
L 489 219
L 489 219
L 489 219
L 489 219
L 489 219
L 490 219
L 490 219
L 490 219
L 490 219
L 490 219
L 490 219
L 490 219
L 490 219
L 490 219
L 490 219
L 490 219
L 490 219
L 490 219
L 491 219
L 491 219
L 491 219
L 491 219
L 491 218
L 491 218
L 491 218
L 491 218
L 491 218
L 491 218
L 491 218
L 491 218
L 492 218
L 492 218
L 492 218
L 492 218
L 492 218
L 493 218
L 495 218
L 496 218
L 496 218
L 496 218
L 496 218
L 496 218
L 496 218
L 496 218
L 496 217
L 496 217
L 496 217
L 496 217
L 496 217
L 496 217
L 496 217
L 496 217
L 496 217
L 496 217
L 496 217
L 496 217
L 496 217
L 496 217
L 496 217
L 496 217
L 496 217
L 496 217
L 496 217
L 496 217
L 496 217
L 496 217
L 496 216
L 496 216
L 496 216
L 496 216
L 496 216
L 496 216
L 496 216
L 496 216
L 497 216
L 497 216
L 497 216
L 497 216
L 497 216
L 497 216
L 497 216
L 497 216
L 497 216
L 497 216
L 497 216
L 497 216
L 497 216
L 497 216
L 497 215
L 497 215
L 497 215
L 497 215
L 497 215
L 497 215
L 497 215
L 497 215
L 497 215
L 497 215
L 497 215
L 497 215
L 497 215
L 497 215
L 497 215
L 497 215
L 497 215
L 497 215
L 497 215
L 497 215
L 497 215
L 498 215
L 498 215
L 498 214
L 498 214
L 498 214
L 498 214
L 498 214
L 498 214
L 498 214
L 498 214
L 498 214
L 498 214
L 498 214
L 498 214
L 498 214
L 498 214
L 498 214
L 498 214
L 498 214
L 498 214
L 498 214
L 498 214
L 498 214
L 498 214
L 498 213
L 498 213
L 498 213
L 498 213
L 498 213
L 498 213
L 498 213
L 498 213
L 498 213
L 498 213
L 499 213
L 499 213
L 499 213
L 499 213
L 499 213
L 499 213
L 499 213
L 499 213
L 499 213
L 499 213
L 499 213
L 499 213
L 499 212
L 499 212
L 499 212
L 499 212
L 499 212
L 499 212
L 499 212
L 499 212
L 499 212
L 499 212
L 499 212
L 499 212
L 499 212
L 499 212
L 499 212
L 499 212
L 499 212
L 500 212
L 500 212
L 500 212
L 500 212
L 500 212
L 500 211
L 500 211
L 500 211
L 500 211
L 500 211
L 500 211
L 500 211
L 500 211
L 500 211
L 500 211
L 500 211
L 500 211
L 500 211
L 500 211
L 500 211
L 500 211
L 500 211
L 500 211
L 501 211
L 501 211
L 501 211
L 501 211
L 501 210
L 501 210
L 501 210
L 501 210
L 501 210
L 501 210
L 501 210
L 501 210
L 501 210
L 501 210
L 501 210
L 502 210
L 502 210
L 502 210
L 502 210
L 502 210
L 502 210
L 502 210
L 502 210
L 502 210
L 502 210
L 502 210
L 502 209
L 502 209
L 502 209
L 502 209
L 502 209
L 502 209
L 502 209
L 502 209
L 502 209
L 502 209
L 502 209
L 502 209
L 502 209
L 502 209
L 502 209
L 502 209
L 502 209
L 502 209
L 502 209
L 502 209
L 503 209
L 503 209
L 503 208
L 503 208
L 503 208
L 503 208
L 503 208
L 503 208
L 503 208
L 503 208
L 503 208
L 504 208
L 504 208
L 504 208
L 504 208
L 505 208
L 506 208
L 507 208
L 507 208
L 507 208
L 507 208
L 507 208
L 507 208
L 507 208
L 507 207
L 507 207
L 507 207
L 507 207
L 507 207
L 507 207
L 507 207
L 507 207
L 507 207
L 507 207
L 507 207
L 507 207
L 507 207
L 507 207
L 507 207
L 507 207
L 507 207
L 507 207
L 508 207
L 508 207
L 508 207
L 508 207
L 508 206
L 508 206
L 508 206
L 508 206
L 508 206
L 508 206
L 508 206
L 508 206
L 508 206
L 508 206
L 508 206
L 508 206
L 508 206
L 508 206
L 508 206
L 508 206
L 508 206
L 508 206
L 508 206
L 508 206
L 508 206
L 508 206
L 508 205
L 508 205
L 508 205
L 508 205
L 508 205
L 508 205
L 508 205
L 508 205
L 508 205
L 508 205
L 508 205
L 508 205
L 508 205
L 508 205
L 508 205
L 508 205
L 508 205
L 508 205
L 508 205
L 508 205
L 509 205
L 509 205
L 509 204
L 509 204
L 509 204
L 509 204
L 509 204
L 509 204
L 509 204
L 509 204
L 509 204
L 509 204
L 509 204
L 509 204
L 509 204
L 509 204
L 509 204
L 510 204
L 510 204
L 510 204
L 510 204
L 510 204
L 510 204
L 510 204
L 510 203
L 510 203
L 510 203
L 510 203
L 510 203
L 510 203
L 510 203
L 510 203
L 510 203
L 510 203
L 510 203
L 510 203
L 510 203
L 510 203
L 510 203
L 510 203
L 510 203
L 510 203
L 510 203
L 510 203
L 510 203
L 510 203
L 510 202
L 510 202
L 510 202
L 510 202
L 510 202
L 510 202
L 511 202
L 511 202
L 511 202
L 511 202
L 511 202
L 511 202
L 511 202
L 511 202
L 511 202
L 511 202
L 511 202
L 511 202
L 511 202
L 511 202
L 511 202
L 511 202
L 511 201
L 511 201
L 511 201
L 511 201
L 511 201
L 511 201
L 511 201
L 511 201
L 511 201
L 511 201
L 511 201
L 511 201
L 511 201
L 511 201
L 511 201
L 511 201
L 511 201
L 511 201
L 511 201
L 511 201
L 511 201
L 511 201
L 511 200
L 511 200
L 511 200
L 511 200
L 511 200
L 511 200
L 511 200
L 511 200
L 511 200
L 511 200
L 511 200
L 511 200
L 511 200
L 511 200
L 511 200
L 512 200
L 512 200
L 512 200
L 512 200
L 512 200
L 512 200
L 512 200
L 512 199
L 512 199
L 512 199
L 512 199
L 512 199
L 512 199
L 512 199
L 512 199
L 512 199
L 512 199
L 512 199
L 512 199
L 512 199
L 512 199
L 512 199
L 512 199
L 512 199
L 512 199
L 512 199
L 512 199
L 512 199
L 512 199
L 512 198
L 512 198
L 512 198
L 512 198
L 512 198
L 512 198
L 513 198
L 513 198
L 513 198
L 513 198
L 513 198
L 513 198
L 513 198
L 513 198
L 513 198
L 513 198
L 513 198
L 513 198
L 513 198
L 513 198
L 513 198
L 513 198
L 513 198
L 513 197
L 513 197
L 513 197
L 513 197
L 514 197
L 514 197
L 514 197
L 514 197
L 514 197
L 514 197
L 514 197
L 514 197
L 514 197
L 514 197
L 514 197
L 514 197
L 514 197
L 514 197
L 514 197
L 514 197
L 514 197
L 514 197
L 514 196
L 514 196
L 514 196
L 514 196
L 514 196
L 515 196
L 515 196
L 515 196
L 515 196
L 515 196
L 515 196
L 515 196
L 515 196
L 515 196
L 516 196
L 516 196
L 517 196
L 518 196
L 518 196
L 518 196
L 518 196
L 518 196
L 518 195
L 519 195
L 519 195
L 519 195
L 519 195
L 519 195
L 519 195
L 519 195
L 519 195
L 519 195
L 519 195
L 519 195
L 519 195
L 519 195
L 519 195
L 519 195
L 519 195
L 519 195
L 519 195
L 519 195
L 519 195
L 519 195
L 519 194
L 519 194
L 519 194
L 519 194
L 519 194
L 519 194
L 519 194
L 520 194
L 520 194
L 520 194
L 520 194
L 520 194
L 520 194
L 520 194
L 520 194
L 520 194
L 520 194
L 520 194
L 520 194
L 520 194
L 520 194
L 520 194
L 520 193
L 520 193
L 520 193
L 520 193
L 520 193
L 520 193
L 520 193
L 520 193
L 520 193
L 520 193
L 520 193
L 520 193
L 520 193
L 520 193
L 520 193
L 520 193
L 521 193
L 521 193
L 521 193
L 521 193
L 521 193
L 521 193
L 521 192
L 521 192
L 521 192
L 521 192
L 521 192
L 521 192
L 521 192
L 521 192
L 521 192
L 521 192
L 521 192
L 521 192
L 521 192
L 521 192
L 521 192
L 521 192
L 521 192
L 521 192
L 521 192
L 521 192
L 521 192
L 522 192
L 522 191
L 522 191
L 522 191
L 522 191
L 522 191
L 522 191
L 522 191
L 522 191
L 522 191
L 522 191
L 522 191
L 522 191
L 522 191
L 522 191
L 522 191
L 522 191
L 522 191
L 522 191
L 522 191
L 522 191
L 522 191
L 522 191
L 522 190
L 522 190
L 522 190
L 522 190
L 522 190
L 522 190
L 522 190
L 522 190
L 523 190
L 523 190
L 523 190
L 523 190
L 523 190
L 523 190
L 523 190
L 523 190
L 523 190
L 523 190
L 523 190
L 523 190
L 523 190
L 523 190
L 523 189
L 523 189
L 523 189
L 523 189
L 523 189
L 523 189
L 523 189
L 523 189
L 523 189
L 523 189
L 523 189
L 523 189
L 523 189
L 523 189
L 523 189
L 523 189
L 523 189
L 524 189
L 524 189
L 524 189
L 524 189
L 524 189
L 524 188
L 524 188
L 524 188
L 524 188
L 524 188
L 524 188
L 525 188
L 525 188
L 525 188
L 525 188
L 525 188
L 525 188
L 525 188
L 525 188
L 525 188
L 525 188
L 525 188
L 525 188
L 525 188
L 525 188
L 525 188
L 525 188
L 525 187
L 525 187
L 525 187
L 526 187
L 526 187
L 526 187
L 526 187
L 526 187
L 526 187
L 527 187
L 527 187
L 527 187
L 527 187
L 528 187
L 528 187
L 528 187
L 528 187
L 529 187
L 530 187
L 530 187
L 530 187
L 530 187
L 530 186
L 530 186
L 530 186
L 531 186
L 531 186
L 531 186
L 531 186
L 531 186
L 531 186
L 531 186
L 531 186
L 531 186
L 531 186
L 531 186
L 531 186
L 531 186
L 531 186
L 531 186
L 531 186
L 531 186
L 531 186
L 531 186
L 531 185
L 531 185
L 531 185
L 531 185
L 531 185
L 531 185
L 532 185
L 532 185
L 532 185
L 532 185
L 532 185
L 532 185
L 532 185
L 532 185
L 532 185
L 532 185
L 532 185
L 532 185
L 533 185
L 533 185
L 533 185
L 533 185
L 533 184
L 533 184
L 533 184
L 533 184
L 533 184
L 533 184
L 533 184
L 533 184
L 533 184
L 533 184
L 534 184
L 534 184
L 534 184
L 534 184
L 534 184
L 534 184
L 534 184
L 534 184
L 534 184
L 534 184
L 535 184
L 535 184
L 535 183
L 535 183
L 535 183
L 535 183
L 535 183
L 535 183
L 535 183
L 535 183
L 536 183
L 536 183
L 536 183
L 536 183
L 536 183
L 536 183
L 536 183
L 536 183
L 536 183
L 536 183
L 536 183
L 536 183
L 536 183
L 536 183
L 537 182
L 537 182
L 537 182
L 537 182
L 537 182
L 537 182
L 537 182
L 537 182
L 537 182
L 537 182
L 538 182
L 538 182
L 538 182
L 538 182
L 542 182
L 542 182
L 543 182
L 543 182
L 543 182
L 543 182
L 543 182
L 543 182
L 543 181
L 543 181
L 543 181
L 543 181
L 543 181
L 544 181
L 544 181
L 544 181
L 544 181
L 544 181
L 544 181
L 544 181
L 544 181
L 544 181
L 545 181
L 545 181
L 545 181
L 545 181
L 545 181
L 545 181
L 545 181
L 545 181
L 545 181
L 546 180
L 546 180
L 546 180
L 546 180
L 546 180
L 546 180
L 546 180
L 546 180
L 546 180
L 546 180
L 546 180
L 546 180
L 546 180
L 546 180
L 546 180
L 547 180
L 547 180
L 547 180
L 547 180
L 547 180
L 547 180
L 547 180
L 548 179
L 548 179
L 548 179
L 548 179
L 548 179
L 548 179
L 548 179
L 548 179
L 548 179
L 548 179
L 548 179
L 548 179
L 548 179
L 548 179
L 548 179
L 548 179
L 548 179
L 548 179
L 549 179
L 549 179
L 549 179
L 549 179
L 549 178
L 549 178
L 549 178
L 549 178
L 549 178
L 549 178
L 549 178
L 550 178
L 550 178
L 550 178
L 551 178
L 551 178
L 551 178
L 551 178
L 552 178
L 553 178
L 553 178
L 553 178
L 553 178
L 553 178
L 553 178
L 553 178
L 553 177
L 553 177
L 553 177
L 553 177
L 553 177
L 553 177
L 553 177
L 553 177
L 553 177
L 553 177
L 553 177
L 553 177
L 553 177
L 554 177
L 554 177
L 554 177
L 554 177
L 554 177
L 554 177
L 554 177
L 554 177
L 554 177
L 554 176
L 554 176
L 554 176
L 554 176
L 554 176
L 554 176
L 554 176
L 554 176
L 554 176
L 554 176
L 554 176
L 554 176
L 554 176
L 554 176
L 554 176
L 554 176
L 554 176
L 554 176
L 554 176
L 554 176
L 554 176
L 555 176
L 555 175
L 555 175
L 555 175
L 555 175
L 555 175
L 555 175
L 555 175
L 555 175
L 555 175
L 555 175
L 555 175
L 556 175
L 556 175
L 556 175
L 556 175
L 556 175
L 556 175
L 556 175
L 556 175
L 556 175
L 556 175
L 556 175
L 556 174
L 556 174
L 556 174
L 556 174
L 556 174
L 556 174
L 556 174
L 556 174
L 556 174
L 556 174
L 556 174
L 556 174
L 556 174
L 557 174
L 557 174
L 557 174
L 557 174
L 557 174
L 557 174
L 557 174
L 557 174
L 557 174
L 557 173
L 557 173
L 557 173
L 557 173
L 557 173
L 557 173
L 557 173
L 557 173
L 557 173
L 557 173
L 557 173
L 557 173
L 558 173
L 558 173
L 558 173
L 558 173
L 558 173
L 558 173
L 558 173
L 558 173
L 559 173
L 559 173
L 559 172
L 559 172
L 559 172
L 559 172
L 559 172
L 559 172
L 559 172
L 559 172
L 559 172
L 559 172
L 559 172
L 559 172
L 559 172
L 559 172
L 560 172
L 560 172
L 560 172
L 560 172
L 560 172
L 560 172
L 560 172
L 560 172
L 560 171
L 560 171
L 560 171
L 561 171
L 561 171
L 563 171
L 564 171
L 564 171
L 564 171
L 564 171
L 565 171
L 565 171
L 565 171
L 565 171
L 565 171
L 565 171
L 565 171
L 565 171
L 565 171
L 565 171
L 565 171
L 565 171
L 565 170
L 565 170
L 565 170
L 565 170
L 565 170
L 566 170
L 566 170
L 566 170
L 566 170
L 566 170
L 566 170
L 566 170
L 566 170
L 566 170
L 566 170
L 566 170
L 566 170
L 566 170
L 566 170
L 566 170
L 566 170
L 566 170
L 566 169
L 567 169
L 567 169
L 567 169
L 567 169
L 567 169
L 567 169
L 567 169
L 567 169
L 567 169
L 567 169
L 567 169
L 567 169
L 567 169
L 567 169
L 567 169
L 567 169
L 567 169
L 567 169
L 567 169
L 568 169
L 568 169
L 568 168
L 568 168
L 568 168
L 568 168
L 568 168
L 568 168
L 568 168
L 568 168
L 568 168
L 568 168
L 568 168
L 568 168
L 568 168
L 568 168
L 568 168
L 568 168
L 568 168
L 568 168
L 568 168
L 568 168
L 568 168
L 568 168
L 568 167
L 568 167
L 568 167
L 569 167
L 569 167
L 569 167
L 569 167
L 569 167
L 569 167
L 569 167
L 569 167
L 569 167
L 569 167
L 569 167
L 569 167
L 569 167
L 569 167
L 569 167
L 569 167
L 569 167
L 569 167
L 569 167
L 569 166
L 569 166
L 570 166
L 570 166
L 570 166
L 570 166
L 570 166
L 570 166
L 570 166
L 570 166
L 570 166
L 570 166
L 570 166
L 570 166
L 570 166
L 570 166
L 570 166
L 570 166
L 570 166
L 570 166
L 570 166
L 570 166
L 571 165
L 571 165
L 571 165
L 571 165
L 571 165
L 571 165
L 571 165
L 571 165
L 571 165
L 571 165
L 571 165
L 571 165
L 571 165
L 571 165
L 571 165
L 571 165
L 572 165
L 572 165
L 572 165
L 572 165
L 572 165
L 573 165
L 573 164
L 573 164
L 574 164
L 576 164
L 576 164
L 576 164
L 576 164
L 576 164
L 576 164
L 576 164
L 576 164
L 576 164
L 576 164
L 576 164
L 576 164
L 576 164
L 576 164
L 577 164
L 577 164
L 577 164
L 577 164
L 577 164
L 577 163
L 577 163
L 577 163
L 577 163
L 577 163
L 577 163
L 577 163
L 577 163
L 577 163
L 577 163
L 577 163
L 577 163
L 577 163
L 577 163
L 577 163
L 577 163
L 577 163
L 577 163
L 577 163
L 577 163
L 577 163
L 577 163
L 577 163
L 577 162
L 577 162
L 577 162
L 577 162
L 578 162
L 578 162
L 578 162
L 578 162
L 578 162
L 578 162
L 578 162
L 578 162
L 578 162
L 578 162
L 578 162
L 578 162
L 578 162
L 579 162
L 579 162
L 579 162
L 579 162
L 579 162
L 579 161
L 579 161
L 579 161
L 579 161
L 579 161
L 579 161
L 579 161
L 579 161
L 579 161
L 579 161
L 579 161
L 579 161
L 579 161
L 579 161
L 579 161
L 579 161
L 579 161
L 579 161
L 579 161
L 579 161
L 579 161
L 579 161
L 579 160
L 579 160
L 579 160
L 579 160
L 580 160
L 580 160
L 580 160
L 580 160
L 580 160
L 580 160
L 580 160
L 580 160
L 580 160
L 580 160
L 580 160
L 580 160
L 580 160
L 580 160
L 580 160
L 580 160
L 580 160
L 581 160
L 581 159
L 581 159
L 581 159
L 581 159
L 581 159
L 581 159
L 582 159
L 582 159
L 582 159
L 582 159
L 582 159
L 582 159
L 582 159
L 582 159
L 582 159
L 582 159
L 582 159
L 582 159
L 582 159
L 582 159
L 583 159
L 583 159
L 583 158
L 583 158
L 583 158
L 583 158
L 583 158
L 583 158
L 583 158
L 583 158
L 583 158
L 583 158
L 583 158
L 583 158
L 583 158
L 583 158
L 583 158
L 584 158
L 584 158
L 584 158
L 585 158
L 587 158
L 587 158
L 587 158
L 587 157
L 587 157
L 587 157
L 587 157
L 587 157
L 587 157
L 587 157
L 587 157
L 587 157
L 587 157
L 587 157
L 587 157
L 587 157
L 587 157
L 587 157
L 587 157
L 587 157
L 587 157
L 587 157
L 588 157
L 588 157
L 588 157
L 588 156
L 588 156
L 588 156
L 588 156
L 588 156
L 588 156
L 588 156
L 588 156
L 588 156
L 588 156
L 588 156
L 588 156
L 588 156
L 588 156
L 588 156
L 588 156
L 588 156
L 588 156
L 588 156
L 588 156
L 588 156
L 588 156
L 588 155
L 588 155
L 588 155
L 588 155
L 588 155
L 588 155
L 588 155
L 588 155
L 588 155
L 588 155
L 588 155
L 588 155
L 588 155
L 588 155
L 588 155
L 588 155
L 588 155
L 588 155
L 588 155
L 588 155
L 588 155
L 588 155
L 588 154
L 588 154
L 588 154
L 588 154
L 588 154
L 588 154
L 588 154
L 588 154
L 588 154
L 588 154
L 588 154
L 588 154
L 588 154
L 588 154
L 588 154
L 588 154
L 588 154
L 589 154
L 589 154
L 589 154
L 589 154
L 589 154
L 589 153
L 589 153
L 589 153
L 589 153
L 589 153
L 589 153
L 589 153
L 589 153
L 589 153
L 589 153
L 589 153
L 589 153
L 589 153
L 589 153
L 589 153
L 589 153
L 589 153
L 589 153
L 590 153
L 590 153
L 590 153
L 590 153
L 590 152
L 590 152
L 590 152
L 590 152
L 590 152
L 590 152
L 590 152
L 590 152
L 590 152
L 590 152
L 590 152
L 590 152
L 590 152
L 590 152
L 590 152
L 590 152
L 590 152
L 590 152
L 590 152
L 590 152
L 590 152
L 590 152
L 590 151
L 590 151
L 590 151
L 590 151
L 590 151
L 590 151
L 590 151
L 590 151
L 590 151
L 590 151
L 590 151
L 590 151
L 590 151
L 590 151
L 590 151
L 590 151
L 590 151
L 590 151
L 590 151
L 590 151
L 590 151
L 590 151
L 590 150
L 591 150
L 591 150
L 591 150
L 591 150
L 591 150
L 591 150
L 591 150
L 591 150
L 591 150
L 591 150
L 591 150
L 591 150
L 591 150
L 591 150
L 591 150
L 591 150
L 591 150
L 591 150
L 591 150
L 591 150
L 591 150
L 591 149
L 591 149
L 591 149
L 591 149
L 591 149
L 591 149
L 591 149
L 591 149
L 591 149
L 591 149
L 591 149
L 591 149
L 591 149
L 591 149
L 591 149
L 591 149
L 591 149
L 591 149
L 591 149
L 591 149
L 591 149
L 591 149
L 591 148
L 591 148
L 592 148
L 592 148
L 592 148
L 592 148
L 592 148
L 592 148
L 592 148
L 592 148
L 592 148
L 592 148
L 592 148
L 592 148
L 592 148
L 592 148
L 592 148
L 592 148
L 592 148
L 593 148
L 593 148
L 593 148
L 593 147
L 593 147
L 593 147
L 593 147
L 593 147
L 593 147
L 593 147
L 593 147
L 593 147
L 593 147
L 593 147
L 593 147
L 593 147
L 593 147
L 593 147
L 593 147
L 593 147
L 593 147
L 593 147
L 593 147
L 593 147
L 593 147
L 593 147
L 593 146
L 593 146
L 593 146
L 593 146
L 594 146
L 594 146
L 594 146
L 594 146
L 594 146
L 594 146
L 594 146
L 594 146
L 594 146
L 594 146
L 594 146
L 594 146
L 594 146
L 594 146
L 594 146
L 594 146
L 594 146
L 594 146
L 594 145
L 594 145
L 595 145
L 595 145
L 595 145
L 595 145
L 595 145
L 595 145
L 595 145
L 595 145
L 595 145
L 595 145
L 595 145
L 595 145
L 596 145
L 596 145
L 596 145
L 596 145
L 597 145
L 597 145
L 597 145
L 598 145
L 598 144
L 598 144
L 599 144
L 599 144
L 599 144
L 599 144
L 599 144
L 599 144
L 599 144
L 599 144
L 599 144
L 599 144
L 599 144
L 599 144
L 599 144
L 599 144
L 599 144
L 599 144
L 599 144
L 599 144
L 599 144
L 599 144
L 599 143
L 599 143
L 600 143
L 600 143
L 600 143
L 600 143
L 600 143
L 600 143
L 600 143
L 600 143
L 600 143
L 600 143
L 600 143
L 600 143
L 600 143
L 600 143
L 600 143
L 600 143
L 600 143
L 600 143
L 600 143
L 600 143
L 600 142
L 600 142
L 600 142
L 600 142
L 600 142
L 600 142
L 600 142
L 600 142
L 600 142
L 601 142
L 601 142
L 601 142
L 601 142
L 601 142
L 601 142
L 601 142
L 601 142
L 601 142
L 601 142
L 601 142
L 601 142
L 601 142
L 601 141
L 601 141
L 601 141
L 601 141
L 601 141
L 601 141
L 601 141
L 601 141
L 601 141
L 602 141
L 602 141
L 602 141
L 602 141
L 602 141
L 602 141
L 602 141
L 602 141
L 602 141
L 602 141
L 602 141
L 602 141
L 602 141
L 602 140
L 602 140
L 602 140
L 602 140
L 602 140
L 602 140
L 602 140
L 602 140
L 602 140
L 602 140
L 602 140
L 602 140
L 602 140
L 602 140
L 602 140
L 602 140
L 602 140
L 602 140
L 602 140
L 602 140
L 602 140
L 602 140
L 602 139
L 603 139
L 603 139
L 603 139
L 603 139
L 603 139
L 603 139
L 603 139
L 603 139
L 603 139
L 603 139
L 603 139
L 603 139
L 603 139
L 603 139
L 603 139
L 603 139
L 603 139
L 603 139
L 603 139
L 603 139
L 603 139
L 603 138
L 603 138
L 603 138
L 603 138
L 603 138
L 603 138
L 603 138
L 604 138
L 604 138
L 604 138
L 604 138
L 604 138
L 604 138
L 604 138
L 604 138
L 604 138
L 605 138
L 605 138
L 605 138
L 605 138
L 605 138
L 605 138
L 605 137
L 605 137
L 605 137
L 605 137
L 605 137
L 605 137
L 605 137
L 605 137
L 606 137
L 606 137
L 606 137
L 606 137
L 606 137
L 606 137
L 606 137
L 606 137
L 606 137
L 606 137
L 607 137
L 607 137
L 607 137
L 608 137
L 608 136
L 608 136
L 608 136
L 610 136
L 611 136
L 611 136
L 611 136
L 611 136
L 611 136
L 611 136
L 611 136
L 611 136
L 611 136
L 612 136
L 612 136
L 612 136
L 612 136
L 612 136
L 612 136
L 612 136
L 612 136
L 613 136
L 613 135
L 613 135
L 613 135
L 613 135
L 613 135
L 613 135
L 613 135
L 613 135
L 613 135
L 614 135
L 614 135
L 614 135
L 614 135
L 614 135
L 614 135
L 614 135
L 614 135
L 614 135
L 614 135
L 615 135
L 615 135
L 615 135
L 615 134
L 615 134
L 615 134
L 616 134
L 616 134
L 616 134
L 616 134
L 617 134
L 617 134
L 617 134
L 618 134
L 618 134
L 618 134
L 618 134
L 618 134
L 619 134
L 619 134
L 619 134
L 620 134
L 622 134
L 622 134
L 623 134
L 623 133
L 623 133
L 623 133
L 624 133
L 624 133
L 624 133
L 624 133
L 624 133
L 624 133
L 624 133
L 625 133
L 625 133
L 625 133
L 625 133
L 625 133
L 625 133
L 625 133
L 625 133
L 626 133
L 626 133
L 626 133
L 627 133
L 627 132
L 627 132
L 627 132
L 627 132
L 627 132
L 627 132
L 627 132
L 628 132
L 628 132
L 628 132
L 628 132
L 628 132
L 628 132
L 628 132
L 629 132
L 629 132
L 629 132
L 629 132
L 630 132
L 630 132
L 633 132
L 633 132
L 633 131
L 634 131
L 634 131
L 634 131
L 634 131
L 634 131
L 634 131
L 634 131
L 634 131
L 634 131
L 634 131
L 634 131
L 634 131
L 634 131
L 634 131
L 634 131
L 634 131
L 634 131
L 634 131
L 634 131
L 634 131
L 634 131
L 634 130
L 635 130
L 635 130
L 635 130
L 635 130
L 635 130
L 635 130
L 635 130
L 635 130
L 635 130
L 635 130
L 636 130
L 636 130
L 636 130
L 636 130
L 636 130
L 636 130
L 636 130
L 636 130
L 636 130
L 636 130
L 636 130
L 636 130
L 636 129
L 636 129
L 637 129
L 637 129
L 637 129
L 637 129
L 637 129
L 637 129
L 637 129
L 637 129
L 637 129
L 637 129
L 637 129
L 637 129
L 637 129
L 637 129
L 637 129
L 637 129
L 637 129
L 637 129
L 637 129
L 638 129
L 638 128
L 638 128
L 638 128
L 638 128
L 638 128
L 638 128
L 638 128
L 638 128
L 638 128
L 638 128
L 638 128
L 638 128
L 639 128
L 639 128
L 639 128
L 639 128
L 639 128
L 639 128
L 639 128
L 639 128
L 639 128
L 639 128
L 639 127
L 639 127
L 640 127
L 640 127
L 640 127
L 640 127
L 640 127
L 640 127
L 640 127
L 640 127
L 640 127
L 640 127
L 640 127
L 640 127
L 641 127
L 641 127
L 641 127
L 641 127
L 641 127
L 641 127
L 641 127
L 643 127
L 643 126
L 644 126
L 645 126
L 645 126
L 645 126
L 645 126
L 645 126
L 645 126
L 645 126
L 645 126
L 645 126
L 645 126
L 646 126
L 646 126
L 646 126
L 646 126
L 646 126
L 646 126
L 646 126
L 646 126
L 646 126
L 646 126
L 646 125
L 646 125
L 646 125
L 646 125
L 646 125
L 646 125
L 646 125
L 646 125
L 646 125
L 646 125
L 646 125
L 646 125
L 646 125
L 646 125
L 646 125
L 646 125
L 646 125
L 646 125
L 646 125
L 646 125
L 646 125
L 646 125
L 646 124
L 646 124
L 646 124
L 646 124
L 646 124
L 646 124
L 646 124
L 646 124
L 646 124
L 646 124
L 646 124
L 646 124
L 646 124
L 646 124
L 646 124
L 646 124
L 646 124
L 646 124
L 646 124
L 646 124
L 646 124
L 646 124
L 646 123
L 646 123
L 646 123
L 646 123
L 646 123
L 646 123
L 646 123
L 646 123
L 646 123
L 646 123
L 646 123
L 646 123
L 646 123
L 646 123
L 646 123
L 646 123
L 646 123
L 646 123
L 646 123
L 646 123
L 646 123
L 646 123
L 647 122
L 647 122
L 647 122
L 647 122
L 647 122
L 647 122
L 647 122
L 647 122
L 647 122
L 647 122
L 647 122
L 647 122
L 647 122
L 647 122
L 647 122
L 647 122
L 647 122
L 647 122
L 647 122
L 647 122
L 647 122
L 647 122
L 648 121
L 648 121
L 648 121
L 648 121
L 648 121
L 648 121
L 648 121
L 648 121
L 648 121
L 648 121
L 648 121
L 648 121
L 648 121
L 648 121
L 648 121
L 648 121
L 648 121
L 648 121
L 648 121
L 648 121
L 648 121
L 648 121
L 648 120
L 648 120
L 648 120
L 649 120
L 649 120
L 649 120
L 649 120
L 649 120
L 649 120
L 649 120
L 649 120
L 649 120
L 649 120
L 649 120
L 649 120
L 649 120
L 649 120
L 649 120
L 649 120
L 649 120
L 649 120
L 649 120
L 649 119
L 649 119
L 649 119
L 649 119
L 649 119
L 649 119
L 649 119
L 649 119
L 649 119
L 649 119
L 650 119
L 650 119
L 650 119
L 650 119
L 650 119
L 650 119
L 650 119
L 650 119
L 650 119
L 650 119
L 650 119
L 650 119
L 650 118
L 650 118
L 650 118
L 650 118
L 650 118
L 650 118
L 650 118
L 650 118
L 650 118
L 650 118
L 650 118
L 650 118
L 650 118
L 651 118
L 651 118
L 651 118
L 651 118
L 651 118
L 651 118
L 651 118
L 651 118
L 651 118
L 651 117
L 651 117
L 651 117
L 651 117
L 651 117
L 651 117
L 651 117
L 651 117
L 652 117
L 652 117
L 652 117
L 652 117
L 653 117
L 653 117
L 653 117
L 653 117
L 654 117
L 655 117
L 656 117
L 656 117
L 656 117
L 657 117
L 657 116
L 657 116
L 657 116
L 657 116
L 657 116
L 657 116
L 657 116
L 657 116
L 657 116
L 657 116
L 657 116
L 657 116
L 657 116
L 657 116
L 657 116
L 657 116
L 657 116
L 657 116
L 657 116
L 657 116
L 657 116
L 657 116
L 657 115
L 657 115
L 657 115
L 657 115
L 657 115
L 657 115
L 657 115
L 657 115
L 657 115
L 657 115
L 657 115
L 657 115
L 657 115
L 657 115
L 657 115
L 657 115
L 657 115
L 657 115
L 657 115
L 657 115
L 657 115
L 657 115
L 657 114
L 657 114
L 657 114
L 657 114
L 657 114
L 657 114
L 657 114
L 657 114
L 657 114
L 657 114
L 657 114
L 657 114
L 657 114
L 657 114
L 657 114
L 657 114
L 658 114
L 658 114
L 658 114
L 658 114
L 658 114
L 658 114
L 658 113
L 658 113
L 658 113
L 658 113
L 658 113
L 658 113
L 658 113
L 658 113
L 658 113
L 658 113
L 658 113
L 658 113
L 658 113
L 658 113
L 658 113
L 658 113
L 658 113
L 658 113
L 658 113
L 658 113
L 658 113
L 658 113
L 658 113
L 658 112
L 658 112
L 658 112
L 658 112
L 659 112
L 659 112
L 659 112
L 659 112
L 659 112
L 659 112
L 659 112
L 659 112
L 659 112
L 659 112
L 659 112
L 659 112
L 659 112
L 659 112
L 659 112
L 659 112
L 659 112
L 659 112
L 659 111
L 659 111
L 659 111
L 659 111
L 659 111
L 659 111
L 659 111
L 659 111
L 659 111
L 659 111
L 659 111
L 659 111
L 659 111
L 659 111
L 659 111
L 659 111
L 659 111
L 659 111
L 660 111
L 660 111
L 660 111
L 660 111
L 660 110
L 660 110
L 660 110
L 660 110
L 660 110
L 660 110
L 660 110
L 660 110
L 660 110
L 660 110
L 660 110
L 660 110
L 660 110
L 660 110
L 660 110
L 660 110
L 660 110
L 660 110
L 660 110
L 660 110
L 660 110
L 660 110
L 660 109
L 660 109
L 660 109
L 660 109
L 660 109
L 660 109
L 660 109
L 660 109
L 660 109
L 660 109
L 660 109
L 661 109
L 661 109
L 661 109
L 661 109
L 661 109
L 661 109
L 661 109
L 661 109
L 661 109
L 661 109
L 661 109
L 661 108
L 661 108
L 661 108
L 661 108
L 661 108
L 661 108
L 661 108
L 661 108
L 661 108
L 661 108
L 661 108
L 661 108
L 661 108
L 662 108
L 662 108
L 662 108
L 662 108
L 662 108
L 662 108
L 662 108
L 662 108
L 662 108
L 662 107
L 662 107
L 662 107
L 663 107
L 663 107
L 663 107
L 663 107
L 663 107
L 663 107
L 663 107
L 663 107
L 663 107
L 663 107
L 663 107
L 663 107
L 664 107
L 664 107
L 664 107
L 664 107
L 664 107
L 664 107
L 664 107
L 665 106
L 665 106
L 666 106
L 666 106
L 667 106
L 667 106
L 667 106
L 667 106
L 668 106
L 668 106
L 668 106
L 668 106
L 668 106
L 668 106
L 668 106
L 668 106
L 668 106
L 668 106
L 668 106
L 668 106
L 668 106
L 668 106
L 668 105
L 668 105
L 668 105
L 668 105
L 668 105
L 668 105
L 669 105
L 669 105
L 669 105
L 669 105
L 669 105
L 669 105
L 669 105
L 669 105
L 669 105
L 669 105
L 669 105
L 669 105
L 669 105
L 669 105
L 669 105
L 669 105
L 669 104
L 669 104
L 669 104
L 669 104
L 669 104
L 669 104
L 669 104
L 669 104
L 669 104
L 669 104
L 669 104
L 669 104
L 669 104
L 669 104
L 669 104
L 669 104
L 669 104
L 669 104
L 669 104
L 669 104
L 669 104
L 669 104
L 669 103
L 670 103
L 670 103
L 670 103
L 670 103
L 670 103
L 670 103
L 670 103
L 670 103
L 670 103
L 670 103
L 670 103
L 670 103
L 670 103
L 670 103
L 670 103
L 670 103
L 670 103
L 670 103
L 670 103
L 671 103
L 671 103
L 671 102
L 671 102
L 671 102
L 671 102
L 671 102
L 671 102
L 671 102
L 671 102
L 671 102
L 671 102
L 671 102
L 671 102
L 671 102
L 671 102
L 671 102
L 671 102
L 671 102
L 671 102
L 671 102
L 671 102
L 671 102
L 671 102
L 671 101
L 672 101
L 672 101
L 672 101
L 672 101
L 672 101
L 672 101
L 672 101
L 672 101
L 672 101
L 672 101
L 672 101
L 672 101
L 672 101
L 672 101
L 672 101
L 672 101
L 672 101
L 672 101
L 672 101
L 672 101
L 672 101
L 672 100
L 672 100
L 672 100
L 672 100
L 673 100
L 673 100
L 673 100
L 673 100
L 673 100
L 673 100
L 673 100
L 673 100
L 673 100
L 673 100
L 673 100
L 673 100
L 673 100
L 673 100
L 674 100
L 674 100
L 674 100
L 674 100
L 674 99
L 674 99
L 674 99
L 675 99
L 675 99
L 675 99
L 675 99
L 675 99
L 675 99
L 675 99
L 675 99
L 675 99
L 675 99
L 675 99
L 676 99
L 676 99
L 676 99
L 677 99
L 678 99
L 679 99
L 679 99
L 679 99
L 679 98
L 679 98
L 680 98
L 680 98
L 680 98
L 680 98
L 680 98
L 680 98
L 680 98
L 680 98
L 680 98
L 680 98
L 680 98
L 680 98
L 680 98
L 680 98
L 680 98
L 680 98
L 680 98
L 680 98
L 680 98
L 680 98
L 680 97
L 680 97
L 680 97
L 680 97
L 680 97
L 680 97
L 680 97
L 680 97
L 680 97
L 680 97
L 680 97
L 681 97
L 681 97
L 681 97
L 681 97
L 681 97
L 681 97
L 681 97
L 681 97
L 681 97
L 681 97
L 681 97
L 681 96
L 681 96
L 681 96
L 681 96
L 681 96
L 681 96
L 681 96
L 682 96
L 682 96
L 682 96
L 682 96
L 682 96
L 682 96
L 682 96
L 682 96
L 682 96
L 682 96
L 682 96
L 682 96
L 682 96
L 682 96
L 682 96
L 682 96
L 682 95
L 682 95
L 682 95
L 683 95
L 683 95
L 683 95
L 683 95
L 683 95
L 683 95
L 683 95
L 683 95
L 683 95
L 683 95
L 683 95
L 683 95
L 683 95
L 683 95
L 683 95
L 683 95
L 683 95
L 683 95
L 683 95
L 683 94
L 683 94
L 683 94
L 684 94
L 684 94
L 684 94
L 684 94
L 684 94
L 684 94
L 684 94
L 684 94
L 684 94
L 684 94
L 684 94
L 684 94
L 684 94
L 684 94
L 684 94
L 684 94
L 684 94
L 685 94
L 685 94
L 685 93
L 685 93
L 685 93
L 685 93
L 685 93
L 685 93
L 686 93
L 686 93
L 686 93
L 686 93
L 686 93
L 686 93
L 687 93
L 687 93
L 687 93
L 689 93
L 691 93
L 691 93
L 691 93
L 692 93
L 692 93
L 692 93
L 692 92
L 692 92
L 693 92
L 693 92
L 693 92
L 693 92
L 693 92
L 693 92
L 694 92
L 694 92
L 694 92
L 694 92
L 694 92
L 694 92
L 694 92
L 695 92
L 695 92
L 695 92
L 695 92
L 695 92
L 696 92
L 696 92
L 696 91
L 696 91
L 696 91
L 696 91
L 696 91
L 697 91
L 697 91
L 697 91
L 697 91
L 697 91
L 697 91
L 697 91
L 697 91
L 697 91
L 697 91
L 697 91
L 697 91
L 697 91
L 697 91
L 697 91
L 698 91
L 698 91
L 698 90
L 698 90
L 698 90
L 698 90
L 698 90
L 698 90
L 698 90
L 698 90
L 698 90
L 699 90
L 699 90
L 699 90
L 699 90
L 699 90
L 700 90
L 700 90
L 702 90
L 702 90
L 703 90
L 703 90
L 703 90
L 703 90
L 703 89
L 703 89
L 703 89
L 703 89
L 704 89
L 704 89
L 704 89
L 704 89
L 704 89
L 704 89
L 704 89
L 705 89
L 705 89
L 705 89
L 705 89
L 706 89
L 706 89
L 707 89
L 708 89
L 708 89
L 708 89
L 708 89
L 708 88
L 708 88
L 708 88
L 708 88
L 708 88
L 708 88
L 709 88
L 709 88
L 709 88
L 709 88
L 709 88
L 709 88
L 709 88
L 709 88
L 709 88
L 709 88
L 709 88
L 710 88
L 710 88
L 710 88
L 712 88
L 712 88
L 714 87
L 714 87
L 714 87
L 714 87
L 714 87
L 714 87
L 714 87
L 714 87
L 714 87
L 714 87
L 714 87
L 714 87
L 714 87
L 714 87
L 714 87
L 714 87
L 714 87
L 714 87
L 714 87
L 714 87
L 715 87
L 715 87
L 715 86
L 715 86
L 715 86
L 715 86
L 715 86
L 715 86
L 715 86
L 715 86
L 715 86
L 715 86
L 715 86
L 715 86
L 715 86
L 715 86
L 715 86
L 715 86
L 715 86
L 715 86
L 715 86
L 715 86
L 715 86
L 715 86
L 716 85
L 716 85
L 716 85
L 716 85
L 716 85
L 716 85
L 716 85
L 716 85
L 716 85
L 716 85
L 716 85
L 716 85
L 716 85
L 717 85
L 717 85
L 717 85
L 717 85
L 717 85
L 717 85
L 717 85
L 717 85
L 717 85
L 717 84
L 717 84
L 717 84
L 717 84
L 717 84
L 717 84
L 717 84
L 717 84
L 717 84
L 717 84
L 717 84
L 717 84
L 717 84
L 717 84
L 717 84
L 717 84
L 717 84
L 717 84
L 717 84
L 717 84
L 717 84
L 718 84
L 718 83
L 718 83
L 718 83
L 718 83
L 718 83
L 718 83
L 718 83
L 718 83
L 718 83
L 718 83
L 718 83
L 718 83
L 718 83
L 718 83
L 718 83
L 718 83
L 718 83
L 719 83
L 719 83
L 719 83
L 719 83
L 719 83
L 719 82
L 719 82
L 719 82
L 719 82
L 719 82
L 720 82
L 720 82
L 720 82
L 720 82
L 720 82
L 720 82
L 720 82
L 720 82
L 720 82
L 720 82
L 721 82
L 721 82
L 721 82
L 721 82
L 721 82
L 721 82
L 722 82
L 723 81
L 725 81
L 725 81
L 725 81
L 725 81
L 725 81
L 726 81
L 726 81
L 726 81
L 726 81
L 726 81
L 726 81
L 726 81
L 726 81
L 726 81
L 726 81
L 726 81
L 726 81
L 726 81
L 726 81
L 726 81
L 726 81
L 726 80
L 726 80
L 726 80
L 726 80
L 726 80
L 726 80
L 726 80
L 726 80
L 727 80
L 727 80
L 727 80
L 727 80
L 727 80
L 727 80
L 727 80
L 727 80
L 727 80
L 727 80
L 727 80
L 727 80
L 727 80
L 727 80
L 727 79
L 727 79
L 728 79
L 728 79
L 728 79
L 728 79
L 728 79
L 728 79
L 728 79
L 728 79
L 728 79
L 728 79
L 728 79
L 728 79
L 728 79
L 728 79
L 728 79
L 728 79
L 728 79
L 728 79
L 728 79
L 728 79
L 728 79
L 728 78
L 728 78
L 729 78
L 729 78
L 729 78
L 729 78
L 729 78
L 729 78
L 729 78
L 729 78
L 729 78
L 729 78
L 729 78
L 729 78
L 729 78
L 729 78
L 729 78
L 729 78
L 729 78
L 729 78
L 729 78
L 729 78
L 729 77
L 730 77
L 730 77
L 730 77
L 730 77
L 730 77
L 730 77
L 730 77
L 730 77
L 730 77
L 730 77
L 730 77
L 730 77
L 730 77
L 730 77
L 730 77
L 730 77
L 730 77
L 730 77
L 730 77
L 731 77
L 731 77
L 731 76
L 731 76
L 731 76
L 731 76
L 731 76
L 731 76
L 731 76
L 731 76
L 731 76
L 731 76
L 731 76
L 731 76
L 731 76
L 731 76
L 732 76
L 732 76
L 732 76
L 732 76
L 732 76
L 732 76
L 732 76
L 732 76
L 732 75
L 732 75
L 732 75
L 732 75
L 732 75
L 732 75
L 732 75
L 732 75
L 732 75
L 732 75
L 732 75
L 732 75
L 733 75
L 733 75
L 733 75
L 733 75
L 733 75
L 733 75
L 734 75
L 734 75
L 734 75
L 734 75
L 734 74
L 734 74
L 735 74
L 737 74
L 737 74
L 737 74
L 737 74
L 737 74
L 737 74
L 737 74
L 737 74
L 737 74
L 737 74
L 737 74
L 737 74
L 737 74
L 737 74
L 737 74
L 737 74
L 737 74
L 737 74
L 737 74
L 737 73
L 737 73
L 737 73
L 737 73
L 737 73
L 737 73
L 737 73
L 737 73
L 737 73
L 737 73
L 737 73
L 737 73
L 738 73
L 738 73
L 738 73
L 738 73
L 738 73
L 738 73
L 738 73
L 738 73
L 738 73
L 738 73
L 738 72
L 738 72
L 738 72
L 738 72
L 738 72
L 738 72
L 738 72
L 738 72
L 738 72
L 738 72
L 738 72
L 738 72
L 739 72
L 739 72
L 739 72
L 739 72
L 739 72
L 739 72
L 739 72
L 739 72
L 739 72
L 739 72
L 739 71
L 739 71
L 739 71
L 739 71
L 739 71
L 739 71
L 739 71
L 739 71
L 739 71
L 739 71
L 739 71
L 739 71
L 739 71
L 739 71
L 739 71
L 739 71
L 739 71
L 739 71
L 739 71
L 739 71
L 739 71
L 739 71
L 739 70
L 740 70
L 740 70
L 740 70
L 740 70
L 740 70
L 740 70
L 740 70
L 740 70
L 740 70
L 740 70
L 740 70
L 740 70
L 740 70
L 740 70
L 740 70
L 740 70
L 740 70
L 740 70
L 740 70
L 740 70
L 740 70
L 740 69
L 740 69
L 740 69
L 740 69
L 740 69
L 740 69
L 740 69
L 740 69
L 740 69
L 740 69
L 740 69
L 740 69
L 741 69
L 741 69
L 741 69
L 741 69
L 741 69
L 741 69
L 741 69
L 741 69
L 741 69
L 741 69
L 741 68
L 741 68
L 741 68
L 741 68
L 741 68
L 741 68
L 741 68
L 741 68
L 741 68
L 741 68
L 741 68
L 741 68
L 741 68
L 741 68
L 741 68
L 741 68
L 741 68
L 741 68
L 741 68
L 741 68
L 741 68
L 741 68
L 741 67
L 741 67
L 741 67
L 741 67
L 741 67
L 741 67
L 742 67
L 742 67
L 742 67
L 742 67
L 742 67
L 742 67
L 742 67
L 742 67
L 742 67
L 742 67
L 742 67
L 742 67
L 742 67
L 742 67
L 742 67
L 743 67
L 743 66
L 743 66
L 743 66
L 743 66
L 743 66
L 743 66
L 743 66
L 743 66
L 743 66
L 744 66
L 744 66
L 744 66
L 744 66
L 744 66
L 744 66
L 744 66
L 744 66
L 744 66
L 744 66
L 745 66
L 746 66
L 746 66
L 748 65
L 748 65
L 748 65
L 748 65
L 748 65
L 748 65
L 748 65
L 748 65
L 748 65
L 748 65
L 749 65
L 749 65
L 749 65
L 749 65
L 749 65
L 749 65
L 749 65
L 749 65
L 749 65
L 749 65
L 749 65
L 749 65
L 749 64
L 749 64
L 749 64
L 749 64
L 749 64
L 749 64
L 749 64
L 749 64
L 749 64
L 749 64
L 749 64
L 749 64
L 749 64
L 749 64
L 749 64
L 749 64
L 749 64
L 749 64
L 750 64
L 750 64
L 750 64
L 750 64
L 750 63
L 750 63
L 750 63
L 750 63
L 750 63
L 750 63
L 750 63
L 750 63
L 750 63
L 750 63
L 750 63
L 750 63
L 750 63
L 750 63
L 750 63
L 750 63
L 751 63
L 751 63
L 751 63
L 751 63
L 751 63
L 751 63
L 751 62
L 751 62
L 751 62
L 751 62
L 751 62
L 751 62
L 751 62
L 751 62
L 751 62
L 751 62
L 751 62
L 751 62
L 751 62
L 751 62
L 751 62
L 751 62
L 751 62
L 751 62
L 752 62
L 752 62
L 752 62
L 752 62
L 752 62
L 752 61
L 752 61
L 752 61
L 752 61
L 752 61
L 752 61
L 752 61
L 752 61
L 752 61
L 752 61
L 752 61
L 752 61
L 752 61
L 752 61
L 752 61
L 752 61
L 752 61
L 752 61
L 752 61
L 753 61
L 753 61
L 753 61
L 753 60
L 753 60
L 753 60
L 753 60
L 753 60
L 753 60
L 753 60
L 753 60
L 753 60
L 753 60
L 753 60
L 753 60
L 753 60
L 753 60
L 753 60
L 753 60
L 753 60
L 753 60
L 754 60
L 754 60
L 754 60
L 755 60
L 755 59
L 755 59
L 755 59
L 755 59
L 755 59
L 756 59
L 756 59
L 756 59
L 756 59
L 756 59
L 756 59
L 757 59
L 757 59
L 757 59
L 758 59
L 759 59
L 760 59
L 760 59
L 760 59
L 760 59
L 760 59
L 760 59
L 760 58
L 760 58
L 760 58
L 760 58
L 760 58
L 760 58
L 760 58
L 760 58
L 760 58
L 761 58
L 761 58
L 761 58
L 761 58
L 761 58
L 761 58
L 761 58
L 761 58
L 761 58
L 761 58
L 761 58
L 761 58
L 761 58
L 761 57
L 761 57
L 761 57
L 761 57
L 761 57
L 761 57
L 761 57
L 761 57
L 762 57
L 762 57
L 762 57
L 762 57
L 762 57
L 762 57
L 762 57
L 762 57
L 762 57
L 762 57
L 762 57
L 762 57
L 762 57
L 762 57
L 763 56
L 763 56
L 763 56
L 763 56
L 763 56
L 763 56
L 763 56
L 763 56
L 763 56
L 763 56
L 763 56
L 763 56
L 763 56
L 763 56
L 763 56
L 763 56
L 763 56
L 763 56
L 763 56
L 763 56
L 764 56
L 764 56
L 764 55
L 764 55
L 764 55
L 764 55
L 764 55
L 764 55
L 764 55
L 764 55
L 764 55
L 764 55
L 764 55
L 764 55
L 764 55
L 764 55
L 764 55
L 764 55
L 764 55
L 764 55
L 764 55
L 764 55
L 764 55
L 764 55
L 764 54
L 764 54
L 764 54
L 764 54
L 765 54
L 765 54
L 765 54
L 765 54
L 765 54
L 765 54
L 765 54
L 765 54
L 765 54
L 766 54
L 766 54
L 766 54
L 766 54
L 766 54
L 767 54
L 767 54
L 767 54
L 768 54
L 768 53
L 771 53
L 771 53
L 771 53
L 772 53
L 772 53
L 772 53
L 772 53
L 772 53
L 772 53
L 773 53
L 773 53
L 773 53
L 773 53
L 773 53
L 773 53
L 774 53
L 774 53
L 774 53
L 775 53
L 775 53
L 775 53
L 775 52
L 776 52
L 776 52
L 776 52
L 776 52
L 776 52
L 776 52
L 777 52
L 777 52
L 777 52
L 778 52
L 778 52
L 778 52
L 778 52
L 778 52
L 778 52
L 779 52
L 779 52
L 779 52
L 780 52
L 780 52
L 780 52
L 783 51
L 783 51
L 783 51
L 783 51
L 784 51
L 784 51
L 784 51
L 784 51
L 784 51
L 784 51
L 784 51
L 784 51
L 784 51
L 784 51
L 785 51
L 786 51
L 786 51
L 786 51
L 786 51
L 786 51
L 786 51
L 787 51
L 787 50
L 787 50
L 787 50
L 787 50
L 787 50
L 787 50
L 787 50
L 787 50
L 788 50
L 788 50
L 788 50
L 788 50
L 788 50
L 789 50
L 790 50
L 790 50
L 790 50
L 790 50
L 791 50
L 791 50
L 793 50
L 794 50
L 794 49
L 794 49
L 794 49
L 795 49
L 795 49
L 795 49
L 795 49
L 795 49
L 795 49
L 795 49
L 795 49
L 795 49
L 795 49
L 795 49
L 795 49
L 795 49
L 796 49
L 796 49
L 796 49
L 796 49
L 796 49
L 796 49
L 796 48
L 796 48
L 797 48
L 797 48
L 797 48
L 797 48
L 797 48
L 797 48
L 797 48
L 797 48
L 797 48
L 797 48
L 797 48
L 797 48
L 797 48
L 797 48
L 797 48
L 797 48
L 797 48
L 797 48
L 797 48
L 797 48
L 798 47
L 798 47
L 798 47
L 798 47
L 798 47
L 798 47
L 798 47
L 798 47
L 798 47
L 798 47
L 798 47
L 798 47
L 798 47
L 798 47
L 798 47
L 798 47
L 798 47
L 798 47
L 799 47
L 799 47
L 799 47
L 799 47
L 799 46
L 799 46
L 799 46
L 799 46
L 799 46
L 800 46
L 800 46
L 800 46
L 800 46
L 800 46
L 800 46
L 800 46
L 800 46
L 801 46
L 801 46
L 801 46
L 801 46
L 801 46
L 801 46
L 801 46
L 801 46
L 802 46
L 802 45
L 803 45
L 803 45
L 803 45
L 804 45
L 805 45
L 806 45
L 806 45
L 806 45
L 806 45
L 806 45
L 806 45
L 806 45
L 806 45
L 806 45
L 806 45
L 806 45
L 806 45
L 807 45
L 807 45
L 807 45
L 807 45
L 807 45
L 807 44
L 807 44
L 807 44
L 807 44
L 807 44
L 807 44
L 807 44
L 807 44
L 807 44
L 807 44
L 807 44
L 808 44
L 808 44
L 808 44
L 808 44
L 808 44
L 808 44
L 808 44
L 808 44
L 808 44
L 808 44
L 808 44
L 808 43
L 809 43
L 809 43
L 809 43
L 809 43
L 809 43
L 809 43
L 809 43
L 809 43
L 809 43
L 809 43
L 809 43
L 809 43
L 809 43
L 809 43
L 810 43
L 810 43
L 810 43
L 810 43
L 810 43
L 810 43
L 810 43
L 810 42
L 810 42
L 810 42
L 810 42
L 810 42
L 811 42
L 811 42
L 811 42
L 812 42
L 812 42
L 812 42
L 812 42
L 812 42
L 812 42
L 813 42
L 813 42
L 813 42
L 813 42
L 816 42
L 817 42
L 817 42
L 817 42
L 817 41
L 817 41
L 818 41
L 818 41
L 818 41
L 818 41
L 818 41
L 818 41
L 818 41
L 818 41
L 818 41
L 819 41
L 819 41
L 819 41
L 819 41
L 820 41
L 820 41
L 820 41
L 820 41
L 820 41
L 820 41
L 820 41
L 820 40
L 820 40
L 820 40
L 820 40
L 820 40
L 821 40
L 821 40
L 821 40
L 821 40
L 821 40
L 821 40
L 821 40
L 821 40
L 821 40
L 821 40
L 821 40
L 821 40
L 821 40
L 821 40
L 821 40
L 822 40
L 822 40
L 822 39
L 822 39
L 822 39
L 823 39
L 823 39
L 823 39
L 823 39
L 823 39
L 823 39
L 824 39
L 825 39
L 825 39
L 825 39
L 825 39
L 826 39
L 829 39
L 829 39
L 829 39
L 830 39
L 830 39
L 830 39
L 830 39
L 830 38
L 830 38
L 830 38
L 830 38
L 830 38
L 830 38
L 830 38
L 830 38
L 830 38
L 830 38
L 830 38
L 831 38
L 831 38
L 831 38
L 831 38
L 831 38
L 831 38
L 832 38
L 832 38
L 832 38
L 832 38
L 832 38
L 832 37
L 832 37
L 832 37
L 832 37
L 832 37
L 832 37
L 832 37
L 832 37
L 832 37
L 833 37
L 833 37
L 833 37
L 833 37
L 833 37
L 833 37
L 833 37
L 833 37
L 833 37
L 834 37
L 834 37
L 835 37
L 836 37
L 836 36
L 836 36
L 837 36
L 839 36
L 840 36
L 840 36
L 841 36
L 841 36
L 841 36
L 841 36
L 841 36
L 841 36
L 841 36
L 841 36
L 841 36
L 841 36
L 841 36
L 841 36
L 841 36
L 841 36
L 841 36
L 841 36
L 841 35
L 841 35
L 842 35
L 842 35
L 842 35
L 842 35
L 842 35
L 842 35
L 842 35
L 842 35
L 842 35
L 842 35
L 842 35
L 842 35
L 842 35
L 842 35
L 842 35
L 842 35
L 842 35
L 842 35
L 842 35
L 842 35
L 842 34
L 842 34
L 842 34
L 842 34
L 842 34
L 842 34
L 842 34
L 842 34
L 842 34
L 842 34
L 842 34
L 842 34
L 842 34
L 842 34
L 842 34
L 842 34
L 842 34
L 842 34
L 843 34
L 843 34
L 843 34
L 843 34
L 843 33
L 843 33
L 843 33
L 843 33
L 843 33
L 843 33
L 843 33
L 843 33
L 843 33
L 843 33
L 843 33
L 843 33
L 843 33
L 843 33
L 843 33
L 843 33
L 843 33
L 843 33
L 843 33
L 843 33
L 843 33
L 843 33
L 843 32
L 843 32
L 843 32
L 843 32
L 843 32
L 843 32
L 843 32
L 843 32
L 843 32
L 843 32
L 843 32
L 843 32
L 843 32
L 843 32
L 843 32
L 843 32
L 844 32
L 844 32
L 844 32
L 844 32
L 844 32
L 844 32
L 844 31
L 844 31
L 844 31
L 844 31
L 844 31
L 844 31
L 844 31
L 844 31
L 844 31
L 844 31
L 844 31
L 844 31
L 844 31
L 844 31
L 844 31
L 844 31
L 844 31
L 844 31
L 844 31
L 844 31
L 844 31
L 844 31
L 844 30
L 845 30
L 845 30
L 845 30
L 845 30
L 845 30
L 845 30
L 845 30
L 845 30
L 845 30
L 845 30
L 845 30
L 845 30
L 845 30
L 845 30
L 845 30
L 845 30
L 845 30
L 845 30
L 845 30
L 845 30
L 845 30
L 845 29
L 845 29
L 845 29
L 845 29
L 845 29
L 846 29
L 846 29
L 846 29
L 846 29
L 846 29
L 846 29
L 846 29
L 846 29
L 846 29
L 846 29
L 846 29
L 846 29
L 846 29
L 847 29
L 847 29
L 847 29
L 847 29
L 847 28
L 847 28
L 847 28
L 847 28
L 847 28
L 847 28
L 847 28
L 847 28
L 847 28
L 847 28
L 847 28
L 848 28
L 848 28
L 848 28
L 848 28
L 848 28
L 849 28
L 850 28
L 850 28
L 850 28
L 850 28
L 851 28
L 851 28
L 852 27
L 852 27
L 852 27
L 852 27
L 852 27
L 852 27
L 852 27
L 852 27
L 852 27
L 852 27
L 852 27
L 852 27
L 852 27
L 852 27
L 852 27
L 852 27
L 852 27
L 852 27
L 852 27
L 852 27
L 852 27
L 852 27
L 852 26
L 852 26
L 852 26
L 852 26
L 852 26
L 853 26
L 853 26
L 853 26
L 853 26
L 853 26
L 853 26
L 853 26
L 853 26
L 853 26
L 853 26
L 853 26
L 853 26
L 853 26
L 853 26
L 853 26
L 853 26
L 853 26
L 853 25
L 854 25
L 854 25
L 854 25
L 854 25
L 854 25
L 854 25
L 854 25
L 854 25
L 854 25
L 854 25
L 854 25
L 854 25
L 854 25
L 854 25
L 854 25
L 854 25
L 854 25
L 855 25
L 855 25
L 855 25
L 855 25
L 855 24
L 855 24
L 855 24
L 855 24
L 855 24
L 855 24
L 855 24
L 855 24
L 855 24
L 855 24
L 855 24
L 855 24
L 855 24
L 855 24
L 855 24
L 855 24
L 855 24
L 855 24
L 855 24
L 856 24
L 856 24
L 856 24
L 856 23
L 856 23
L 857 23
L 857 23
L 857 23
L 857 23
L 857 23
L 858 23
L 858 23
L 858 23
L 858 23
L 858 23
L 858 23
L 858 23
L 858 23
L 859 23
L 859 23
L 859 23
L 859 23
L 859 23
L 859 23
L 860 23
L 860 22
L 864 22
L 864 22
L 864 22
L 864 22
L 864 22
L 864 22
L 864 22
L 864 22
L 864 22
L 865 22
L 865 22
L 865 22
L 865 22
L 865 22
L 865 22
L 865 22
L 865 22
L 865 22
L 866 22
L 866 22
L 866 22
L 866 21
L 866 21
L 867 21
L 867 21
L 867 21
L 867 21
L 867 21
L 867 21
L 867 21
L 867 21
L 867 21
L 867 21
L 867 21
L 868 21
L 868 21
L 868 21
L 868 21
L 868 21
L 869 21
L 869 21
L 869 21
L 869 21
L 870 20
L 870 20
L 870 20
L 870 20
L 870 20
L 870 20
L 870 20
L 870 20
L 871 20
L 871 20
L 872 20
L 874 20
L 875 20
L 875 20
L 875 20
L 876 20
L 876 20
L 876 20
L 876 20
L 877 20
L 877 20
L 877 20
L 878 19
L 878 19
L 878 19
L 878 19
L 879 19
L 880 19
L 881 19
L 881 19
L 881 19
L 882 19
L 884 19
L 884 19
L 887 19
L 887 19
L 888 19
L 888 19
L 889 19
L 889 19
L 891 19
L 891 19
L 891 19
L 892 19
L 892 18
L 892 18
L 892 18
L 893 18
L 893 18
L 893 18
L 893 18
L 893 18
L 893 18
L 893 18
L 893 18
L 894 18
L 894 18
L 894 18
L 897 18
L 899 18
L 899 18
L 899 18
L 900 18
L 900 18
L 900 18
L 900 18
L 901 17
L 902 17
L 902 17
L 902 17
L 902 17
L 902 17
L 903 17
L 904 17
L 904 17
L 904 17
L 904 17
L 904 17
L 904 17
L 904 17
L 905 17
L 905 17
L 908 17
L 909 17
L 909 17
L 910 17
L 911 17
L 911 17
L 912 16
L 912 16
L 913 16
L 913 16
L 913 16
L 913 16
L 914 16
L 915 16
L 915 16
L 916 16
L 917 16
L 917 16
L 917 16
L 917 16
L 917 16
L 918 16
L 921 16
L 922 16
L 922 16
L 922 16
L 922 16
L 923 16
L 924 15
L 925 15
L 926 15
L 926 15
L 927 15
L 927 15
L 927 15
L 927 15
L 927 15
L 929 15
L 929 15
L 930 15
L 932 15
L 933 15
L 935 15
L 935 15
L 935 15
L 937 15
L 937 15
L 938 15
L 939 15
L 939 15
L 939 14
L 939 14
L 939 14
L 939 14
L 939 14
L 940 14
L 941 14
L 943 14
L 943 14
L 943 14
L 944 14
L 944 14
L 945 14
L 945 14
L 945 14
L 945 14
L 945 14
L 945 14
L 945 14
L 946 14
L 946 14
L 947 14
L 947 13
L 947 13
L 947 13
L 947 13
L 947 13
L 948 13
L 948 13
L 949 13
L 949 13
L 949 13
L 949 13
L 950 13
L 950 13
L 950 13
L 951 13
L 952 13
L 952 13
L 954 13
L 954 13
L 955 13
L 955 13
L 955 13
L 955 12
L 955 12
L 955 12
L 955 12
L 955 12
L 955 12
L 956 12
L 956 12
L 956 12
L 956 12
L 956 12
L 956 12
L 956 12
L 956 12
L 956 12
L 956 12
L 956 12
L 956 12
L 956 12
L 956 12
L 956 12
L 956 12
L 956 11
L 956 11
L 956 11
L 956 11
L 956 11
L 956 11
L 956 11
L 957 11
L 957 11
L 957 11
L 957 11
L 957 11
L 957 11
L 957 11
L 957 11
L 957 11
L 957 11
L 957 11
L 957 11
L 957 11
L 957 11
L 957 11" style="stroke-width:2;stroke:rgba(129,199,239,1.0);fill:none"/></svg>