<svg xmlns="http://www.w3.org/2000/svg" xmlns:xlink="http://www.w3.org/1999/xlink" width="1024" height="400">\n<path  d="M 0 0
L 1024 0
L 1024 400
L 0 400
L 0 0" style="stroke-width:0;stroke:rgba(255,255,255,1.0);fill:rgba(255,255,255,1.0)"/><path  d="M 38 11
L 957 11
L 957 351
L 38 351
L 38 11" style="stroke-width:0;stroke:rgba(255,255,255,1.0);fill:rgba(255,255,255,1.0)"/><path  d="M 38 351
L 957 351" style="stroke-width:2;stroke:rgba(85,85,85,1.0);fill:none"/><path  d="M 38 351
L 38 356" style="stroke-width:2;stroke:rgba(85,85,85,1.0);fill:none"/><text x="5" y="373" style="stroke-width:0;stroke:none;fill:rgba(51,51,51,1.0);font-size:12.8px;font-family:'Roboto Medium',sans-serif">2018-11-23</text><path  d="M 153 351
L 153 356" style="stroke-width:2;stroke:rgba(85,85,85,1.0);fill:none"/><text x="120" y="373" style="stroke-width:0;stroke:none;fill:rgba(51,51,51,1.0);font-size:12.8px;font-family:'Roboto Medium',sans-serif">2018-12-01</text><path  d="M 268 351
L 268 356" style="stroke-width:2;stroke:rgba(85,85,85,1.0);fill:none"/><text x="235" y="373" style="stroke-width:0;stroke:none;fill:rgba(51,51,51,1.0);font-size:12.8px;font-family:'Roboto Medium',sans-serif">2018-12-10</text><path  d="M 383 351
L 383 356" style="stroke-width:2;stroke:rgba(85,85,85,1.0);fill:none"/><text x="350" y="373" style="stroke-width:0;stroke:none;fill:rgba(51,51,51,1.0);font-size:12.8px;font-family:'Roboto Medium',sans-serif">2018-12-19</text><path  d="M 498 351
L 498 356" style="stroke-width:2;stroke:rgba(85,85,85,1.0);fill:none"/><text x="465" y="373" style="stroke-width:0;stroke:none;fill:rgba(51,51,51,1.0);font-size:12.8px;font-family:'Roboto Medium',sans-serif">2018-12-28</text><path  d="M 613 351
L 613 356" style="stroke-width:2;stroke:rgba(85,85,85,1.0);fill:none"/><text x="580" y="373" style="stroke-width:0;stroke:none;fill:rgba(51,51,51,1.0);font-size:12.8px;font-family:'Roboto Medium',sans-serif">2019-01-06</text><path  d="M 728 351
L 728 356" style="stroke-width:2;stroke:rgba(85,85,85,1.0);fill:none"/><text x="695" y="373" style="stroke-width:0;stroke:none;fill:rgba(51,51,51,1.0);font-size:12.8px;font-family:'Roboto Medium',sans-serif">2019-01-14</text><path  d="M 843 351
L 843 356" style="stroke-width:2;stroke:rgba(85,85,85,1.0);fill:none"/><text x="810" y="373" style="stroke-width:0;stroke:none;fill:rgba(51,51,51,1.0);font-size:12.8px;font-family:'Roboto Medium',sans-serif">2019-01-23</text><path  d="M 957 351
L 957 356" style="stroke-width:2;stroke:rgba(85,85,85,1.0);fill:none"/><text x="924" y="373" style="stroke-width:0;stroke:none;fill:rgba(51,51,51,1.0);font-size:12.8px;font-family:'Roboto Medium',sans-serif">2019-02-01</text><text x="483" y="395" style="stroke-width:0;stroke:none;fill:rgba(51,51,51,1.0);font-size:12.8px;font-family:'Roboto Medium',sans-serif">Time</text><path  d="M 959 351
L 959 11" style="stroke-width:2;stroke:rgba(85,85,85,1.0);fill:none"/><path  d="M 959 351
L 964 351" style="stroke-width:2;stroke:rgba(85,85,85,1.0);fill:none"/><text x="969" y="357" style="stroke-width:0;stroke:none;fill:rgba(51,51,51,1.0);font-size:12.8px;font-family:'Roboto Medium',sans-serif">0</text><path  d="M 959 308
L 964 308" style="stroke-width:2;stroke:rgba(85,85,85,1.0);fill:none"/><text x="969" y="314" style="stroke-width:0;stroke:none;fill:rgba(51,51,51,1.0);font-size:12.8px;font-family:'Roboto Medium',sans-serif">890</text><path  d="M 959 265
L 964 265" style="stroke-width:2;stroke:rgba(85,85,85,1.0);fill:none"/><text x="969" y="271" style="stroke-width:0;stroke:none;fill:rgba(51,51,51,1.0);font-size:12.8px;font-family:'Roboto Medium',sans-serif">1780</text><path  d="M 959 223
L 964 223" style="stroke-width:2;stroke:rgba(85,85,85,1.0);fill:none"/><text x="969" y="229" style="stroke-width:0;stroke:none;fill:rgba(51,51,51,1.0);font-size:12.8px;font-family:'Roboto Medium',sans-serif">2670</text><path  d="M 959 181
L 964 181" style="stroke-width:2;stroke:rgba(85,85,85,1.0);fill:none"/><text x="969" y="187" style="stroke-width:0;stroke:none;fill:rgba(51,51,51,1.0);font-size:12.8px;font-family:'Roboto Medium',sans-serif">3550</text><path  d="M 959 138
L 964 138" style="stroke-width:2;stroke:rgba(85,85,85,1.0);fill:none"/><text x="969" y="144" style="stroke-width:0;stroke:none;fill:rgba(51,51,51,1.0);font-size:12.8px;font-family:'Roboto Medium',sans-serif">4440</text><path  d="M 959 95
L 964 95" style="stroke-width:2;stroke:rgba(85,85,85,1.0);fill:none"/><text x="969" y="101" style="stroke-width:0;stroke:none;fill:rgba(51,51,51,1.0);font-size:12.8px;font-family:'Roboto Medium',sans-serif">5330</text><path  d="M 959 53
L 964 53" style="stroke-width:2;stroke:rgba(85,85,85,1.0);fill:none"/><text x="969" y="59" style="stroke-width:0;stroke:none;fill:rgba(51,51,51,1.0);font-size:12.8px;font-family:'Roboto Medium',sans-serif">6220</text><path  d="M 959 11
L 964 11" style="stroke-width:2;stroke:rgba(85,85,85,1.0);fill:none"/><text x="969" y="17" style="stroke-width:0;stroke:none;fill:rgba(51,51,51,1.0);font-size:12.8px;font-family:'Roboto Medium',sans-serif">7100</text><text x="1009" y="150" style="stroke-width:0;stroke:none;fill:rgba(51,51,51,1.0);font-size:12.8px;font-family:'Roboto Medium',sans-serif" transform="rotate(90.00,1009,150)">Stargazers</text><path  d="M 38 351
L 107 350
L 155 350
L 158 350
L 168 350
L 168 350
L 168 350
L 169 350
L 169 350
L 169 350
L 170 350
L 170 350
L 170 350
L 170 350
L 170 350
L 170 350
L 170 350
L 170 350
L 170 350
L 171 350
L 171 350
L 171 349
L 173 349
L 174 349
L 181 349
L 181 349
L 181 349
L 181 349
L 182 349
L 183 349
L 185 349
L 186 349
L 187 349
L 187 349
L 187 349
L 187 349
L 187 349
L 187 349
L 191 349
L 193 349
L 194 349
L 194 349
L 194 348
L 194 348
L 194 348
L 194 348
L 194 348
L 195 348
L 195 348
L 195 348
L 197 348
L 197 348
L 198 348
L 198 348
L 198 348
L 198 348
L 198 348
L 198 348
L 199 348
L 199 348
L 199 348
L 200 348
L 200 348
L 200 347
L 201 347
L 201 347
L 201 347
L 201 347
L 202 347
L 205 347
L 207 347
L 207 347
L 207 347
L 207 347
L 207 347
L 208 347
L 208 347
L 208 347
L 209 347
L 209 347
L 209 347
L 209 347
L 209 347
L 209 347
L 209 346
L 209 346
L 209 346
L 209 346
L 209 346
L 209 346
L 209 346
L 209 346
L 209 346
L 209 346
L 209 346
L 209 346
L 209 346
L 209 346
L 209 346
L 209 346
L 209 346
L 209 346
L 209 346
L 209 346
L 209 346
L 209 345
L 209 345
L 209 345
L 209 345
L 209 345
L 209 345
L 209 345
L 209 345
L 210 345
L 210 345
L 210 345
L 210 345
L 210 345
L 210 345
L 210 345
L 210 345
L 210 345
L 210 345
L 210 345
L 210 345
L 210 345
L 210 344
L 210 344
L 210 344
L 211 344
L 211 344
L 211 344
L 211 344
L 211 344
L 211 344
L 211 344
L 211 344
L 211 344
L 212 344
L 212 344
L 212 344
L 212 344
L 212 344
L 212 344
L 212 344
L 212 344
L 212 344
L 212 343
L 213 343
L 213 343
L 213 343
L 213 343
L 215 343
L 215 343
L 219 343
L 220 343
L 220 343
L 220 343
L 220 343
L 220 343
L 220 343
L 221 343
L 222 343
L 222 343
L 222 343
L 222 343
L 223 343
L 223 343
L 223 342
L 223 342
L 223 342
L 224 342
L 224 342
L 224 342
L 224 342
L 224 342
L 225 342
L 225 342
L 226 342
L 233 342
L 233 342
L 233 342
L 234 342
L 234 342
L 235 342
L 236 342
L 237 342
L 240 342
L 241 341
L 241 341
L 243 341
L 247 341
L 247 341
L 249 341
L 249 341
L 250 341
L 251 341
L 251 341
L 251 341
L 251 341
L 252 341
L 252 341
L 252 341
L 252 341
L 252 341
L 255 341
L 259 341
L 259 341
L 259 341
L 260 340
L 260 340
L 260 340
L 262 340
L 263 340
L 266 340
L 267 340
L 272 340
L 275 340
L 275 340
L 275 340
L 275 340
L 278 340
L 278 340
L 285 340
L 286 340
L 286 340
L 286 340
L 286 340
L 288 340
L 288 340
L 290 339
L 290 339
L 291 339
L 293 339
L 294 339
L 298 339
L 303 339
L 304 339
L 310 339
L 312 339
L 312 339
L 314 339
L 314 339
L 314 339
L 315 339
L 317 339
L 317 339
L 318 339
L 318 339
L 319 339
L 320 339
L 322 338
L 325 338
L 327 338
L 327 338
L 328 338
L 328 338
L 329 338
L 330 338
L 330 338
L 331 338
L 332 338
L 332 338
L 333 338
L 338 338
L 338 338
L 338 338
L 339 338
L 341 338
L 343 338
L 344 338
L 344 338
L 345 337
L 350 337
L 351 337
L 351 337
L 351 337
L 351 337
L 352 337
L 355 337
L 355 337
L 357 337
L 358 337
L 364 337
L 365 337
L 367 337
L 367 337
L 368 337
L 368 337
L 368 337
L 370 337
L 370 337
L 372 337
L 372 336
L 377 336
L 378 336
L 379 336
L 379 336
L 379 336
L 380 336
L 380 336
L 380 336
L 382 336
L 390 336
L 390 336
L 390 336
L 390 336
L 392 336
L 392 336
L 394 336
L 394 336
L 394 336
L 396 336
L 397 336
L 397 335
L 397 335
L 397 335
L 398 335
L 403 335
L 404 335
L 404 335
L 404 335
L 404 335
L 404 335
L 404 335
L 404 335
L 405 335
L 405 335
L 406 335
L 406 335
L 406 335
L 406 335
L 406 335
L 406 335
L 406 335
L 406 334
L 406 334
L 406 334
L 406 334
L 406 334
L 406 334
L 406 334
L 406 334
L 406 334
L 407 334
L 407 334
L 407 334
L 407 334
L 407 334
L 407 334
L 407 334
L 407 334
L 407 334
L 407 334
L 407 334
L 407 334
L 407 333
L 407 333
L 407 333
L 407 333
L 408 333
L 408 333
L 408 333
L 408 333
L 408 333
L 408 333
L 408 333
L 408 333
L 408 333
L 408 333
L 408 333
L 408 333
L 408 333
L 408 333
L 408 333
L 408 333
L 408 332
L 408 332
L 408 332
L 409 332
L 409 332
L 409 332
L 409 332
L 409 332
L 409 332
L 409 332
L 410 332
L 410 332
L 410 332
L 410 332
L 410 332
L 410 332
L 410 332
L 410 332
L 410 332
L 411 332
L 411 332
L 411 331
L 411 331
L 412 331
L 412 331
L 416 331
L 416 331
L 417 331
L 417 331
L 417 331
L 417 331
L 417 331
L 417 331
L 417 331
L 417 331
L 417 331
L 417 331
L 417 331
L 417 331
L 417 331
L 417 331
L 417 331
L 417 330
L 418 330
L 418 330
L 418 330
L 418 330
L 418 330
L 418 330
L 418 330
L 419 330
L 419 330
L 419 330
L 419 330
L 419 330
L 419 330
L 419 330
L 419 330
L 419 330
L 419 330
L 419 330
L 419 330
L 419 330
L 419 329
L 420 329
L 420 329
L 420 329
L 420 329
L 420 329
L 420 329
L 420 329
L 420 329
L 420 329
L 420 329
L 420 329
L 420 329
L 420 329
L 420 329
L 420 329
L 420 329
L 420 329
L 420 329
L 421 329
L 421 329
L 421 328
L 421 328
L 421 328
L 421 328
L 421 328
L 421 328
L 421 328
L 421 328
L 421 328
L 421 328
L 421 328
L 421 328
L 422 328
L 422 328
L 422 328
L 422 328
L 422 328
L 422 328
L 422 328
L 422 328
L 422 328
L 422 327
L 422 327
L 423 327
L 423 327
L 423 327
L 423 327
L 423 327
L 423 327
L 423 327
L 423 327
L 423 327
L 423 327
L 423 327
L 423 327
L 423 327
L 423 327
L 423 327
L 423 327
L 423 327
L 423 327
L 424 327
L 424 326
L 424 326
L 424 326
L 424 326
L 424 326
L 424 326
L 424 326
L 424 326
L 424 326
L 424 326
L 424 326
L 424 326
L 424 326
L 424 326
L 424 326
L 424 326
L 424 326
L 424 326
L 425 326
L 425 326
L 425 326
L 425 325
L 425 325
L 425 325
L 426 325
L 427 325
L 428 325
L 429 325
L 429 325
L 429 325
L 429 325
L 429 325
L 429 325
L 429 325
L 429 325
L 429 325
L 430 325
L 430 325
L 430 325
L 430 325
L 430 325
L 430 324
L 430 324
L 430 324
L 430 324
L 430 324
L 430 324
L 430 324
L 430 324
L 430 324
L 430 324
L 430 324
L 430 324
L 431 324
L 431 324
L 431 324
L 431 324
L 431 324
L 431 324
L 431 324
L 431 324
L 431 324
L 431 323
L 431 323
L 431 323
L 431 323
L 431 323
L 431 323
L 431 323
L 431 323
L 431 323
L 431 323
L 432 323
L 432 323
L 432 323
L 432 323
L 432 323
L 432 323
L 432 323
L 432 323
L 432 323
L 432 323
L 432 323
L 432 322
L 432 322
L 432 322
L 432 322
L 432 322
L 432 322
L 432 322
L 432 322
L 432 322
L 433 322
L 433 322
L 433 322
L 433 322
L 433 322
L 433 322
L 433 322
L 433 322
L 433 322
L 433 322
L 433 322
L 433 322
L 433 321
L 433 321
L 433 321
L 433 321
L 433 321
L 433 321
L 433 321
L 433 321
L 434 321
L 434 321
L 434 321
L 434 321
L 434 321
L 434 321
L 434 321
L 434 321
L 434 321
L 434 321
L 434 321
L 434 321
L 435 321
L 435 320
L 435 320
L 435 320
L 435 320
L 435 320
L 435 320
L 435 320
L 435 320
L 435 320
L 435 320
L 435 320
L 435 320
L 435 320
L 435 320
L 435 320
L 435 320
L 435 320
L 436 320
L 436 320
L 436 320
L 436 320
L 436 319
L 436 319
L 436 319
L 436 319
L 436 319
L 436 319
L 436 319
L 436 319
L 436 319
L 436 319
L 436 319
L 436 319
L 436 319
L 436 319
L 436 319
L 436 319
L 436 319
L 436 319
L 436 319
L 436 319
L 437 319
L 437 318
L 437 318
L 437 318
L 437 318
L 437 318
L 437 318
L 437 318
L 437 318
L 437 318
L 437 318
L 437 318
L 437 318
L 437 318
L 437 318
L 437 318
L 437 318
L 437 318
L 437 318
L 438 318
L 438 318
L 438 318
L 438 317
L 438 317
L 438 317
L 439 317
L 439 317
L 439 317
L 439 317
L 439 317
L 440 317
L 441 317
L 442 317
L 442 317
L 442 317
L 442 317
L 442 317
L 442 317
L 442 317
L 442 317
L 442 317
L 442 317
L 442 317
L 442 316
L 442 316
L 442 316
L 442 316
L 442 316
L 442 316
L 442 316
L 442 316
L 442 316
L 442 316
L 442 316
L 442 316
L 442 316
L 442 316
L 442 316
L 442 316
L 442 316
L 442 316
L 442 316
L 442 316
L 442 315
L 442 315
L 442 315
L 442 315
L 442 315
L 442 315
L 442 315
L 442 315
L 442 315
L 442 315
L 442 315
L 443 315
L 443 315
L 443 315
L 443 315
L 443 315
L 443 315
L 443 315
L 443 315
L 443 315
L 443 315
L 443 314
L 443 314
L 443 314
L 443 314
L 443 314
L 443 314
L 443 314
L 443 314
L 443 314
L 443 314
L 443 314
L 443 314
L 443 314
L 443 314
L 443 314
L 443 314
L 443 314
L 443 314
L 443 314
L 443 314
L 443 314
L 443 313
L 443 313
L 443 313
L 443 313
L 443 313
L 443 313
L 443 313
L 443 313
L 443 313
L 443 313
L 443 313
L 443 313
L 443 313
L 443 313
L 443 313
L 443 313
L 443 313
L 443 313
L 443 313
L 443 313
L 443 313
L 443 312
L 443 312
L 443 312
L 443 312
L 443 312
L 443 312
L 443 312
L 443 312
L 443 312
L 443 312
L 443 312
L 443 312
L 443 312
L 443 312
L 443 312
L 443 312
L 443 312
L 443 312
L 443 312
L 443 312
L 443 312
L 443 311
L 443 311
L 444 311
L 444 311
L 444 311
L 444 311
L 444 311
L 444 311
L 444 311
L 444 311
L 444 311
L 444 311
L 444 311
L 444 311
L 444 311
L 444 311
L 444 311
L 444 311
L 444 311
L 444 311
L 444 311
L 444 310
L 444 310
L 444 310
L 444 310
L 444 310
L 444 310
L 444 310
L 444 310
L 444 310
L 444 310
L 444 310
L 444 310
L 444 310
L 444 310
L 444 310
L 444 310
L 444 310
L 444 310
L 444 310
L 444 310
L 445 310
L 445 309
L 445 309
L 445 309
L 445 309
L 445 309
L 445 309
L 445 309
L 445 309
L 445 309
L 445 309
L 445 309
L 445 309
L 445 309
L 445 309
L 445 309
L 445 309
L 445 309
L 445 309
L 445 309
L 445 309
L 445 309
L 445 308
L 445 308
L 445 308
L 445 308
L 445 308
L 445 308
L 445 308
L 445 308
L 445 308
L 445 308
L 445 308
L 445 308
L 445 308
L 445 308
L 445 308
L 445 308
L 445 308
L 445 308
L 445 308
L 445 308
L 445 307
L 445 307
L 445 307
L 445 307
L 445 307
L 445 307
L 445 307
L 445 307
L 445 307
L 445 307
L 445 307
L 445 307
L 445 307
L 445 307
L 445 307
L 445 307
L 445 307
L 445 307
L 445 307
L 445 307
L 445 307
L 445 306
L 445 306
L 445 306
L 445 306
L 446 306
L 446 306
L 446 306
L 446 306
L 446 306
L 446 306
L 446 306
L 446 306
L 446 306
L 446 306
L 446 306
L 446 306
L 446 306
L 446 306
L 446 306
L 446 306
L 446 306
L 446 305
L 446 305
L 446 305
L 446 305
L 446 305
L 446 305
L 446 305
L 446 305
L 446 305
L 446 305
L 446 305
L 446 305
L 446 305
L 446 305
L 446 305
L 446 305
L 446 305
L 446 305
L 446 305
L 446 305
L 446 305
L 446 304
L 446 304
L 446 304
L 446 304
L 446 304
L 446 304
L 446 304
L 446 304
L 446 304
L 446 304
L 446 304
L 446 304
L 446 304
L 446 304
L 447 304
L 447 304
L 447 304
L 447 304
L 447 304
L 447 304
L 447 304
L 447 303
L 447 303
L 447 303
L 447 303
L 447 303
L 447 303
L 447 303
L 447 303
L 447 303
L 447 303
L 447 303
L 447 303
L 447 303
L 447 303
L 447 303
L 447 303
L 447 303
L 447 303
L 447 303
L 447 303
L 447 303
L 447 302
L 447 302
L 447 302
L 447 302
L 447 302
L 447 302
L 447 302
L 447 302
L 447 302
L 447 302
L 447 302
L 447 302
L 447 302
L 447 302
L 447 302
L 447 302
L 447 302
L 447 302
L 447 302
L 447 302
L 447 302
L 447 301
L 447 301
L 447 301
L 447 301
L 447 301
L 448 301
L 448 301
L 448 301
L 448 301
L 448 301
L 448 301
L 448 301
L 448 301
L 448 301
L 448 301
L 448 301
L 448 301
L 448 301
L 448 301
L 448 301
L 448 301
L 448 300
L 448 300
L 448 300
L 448 300
L 448 300
L 448 300
L 449 300
L 449 300
L 449 300
L 449 300
L 449 300
L 449 300
L 449 300
L 449 300
L 449 300
L 449 300
L 449 300
L 449 300
L 449 300
L 449 300
L 449 300
L 449 299
L 449 299
L 449 299
L 449 299
L 449 299
L 450 299
L 450 299
L 450 299
L 450 299
L 450 299
L 450 299
L 450 299
L 450 299
L 450 299
L 450 299
L 450 299
L 450 299
L 450 299
L 450 299
L 450 299
L 450 298
L 450 298
L 450 298
L 450 298
L 450 298
L 450 298
L 450 298
L 451 298
L 451 298
L 451 298
L 451 298
L 451 298
L 451 298
L 451 298
L 451 298
L 452 298
L 452 298
L 453 298
L 454 298
L 455 298
L 455 298
L 455 297
L 455 297
L 455 297
L 455 297
L 455 297
L 455 297
L 455 297
L 455 297
L 455 297
L 455 297
L 455 297
L 455 297
L 455 297
L 455 297
L 455 297
L 455 297
L 455 297
L 455 297
L 455 297
L 456 297
L 456 297
L 456 296
L 456 296
L 456 296
L 456 296
L 456 296
L 456 296
L 456 296
L 456 296
L 456 296
L 456 296
L 456 296
L 456 296
L 456 296
L 456 296
L 456 296
L 456 296
L 456 296
L 456 296
L 456 296
L 456 296
L 456 296
L 456 295
L 456 295
L 456 295
L 456 295
L 456 295
L 456 295
L 456 295
L 456 295
L 456 295
L 456 295
L 456 295
L 456 295
L 456 295
L 456 295
L 456 295
L 456 295
L 456 295
L 456 295
L 456 295
L 456 295
L 456 295
L 456 294
L 456 294
L 456 294
L 456 294
L 456 294
L 456 294
L 456 294
L 456 294
L 456 294
L 456 294
L 456 294
L 456 294
L 456 294
L 456 294
L 456 294
L 456 294
L 456 294
L 456 294
L 456 294
L 456 294
L 456 294
L 456 293
L 456 293
L 456 293
L 456 293
L 456 293
L 456 293
L 456 293
L 456 293
L 456 293
L 456 293
L 456 293
L 456 293
L 456 293
L 456 293
L 456 293
L 456 293
L 456 293
L 456 293
L 456 293
L 456 293
L 456 293
L 456 292
L 456 292
L 456 292
L 456 292
L 456 292
L 456 292
L 456 292
L 456 292
L 456 292
L 456 292
L 456 292
L 456 292
L 456 292
L 457 292
L 457 292
L 457 292
L 457 292
L 457 292
L 457 292
L 457 292
L 457 292
L 457 291
L 457 291
L 457 291
L 457 291
L 457 291
L 457 291
L 457 291
L 457 291
L 457 291
L 457 291
L 457 291
L 457 291
L 457 291
L 457 291
L 457 291
L 457 291
L 457 291
L 457 291
L 457 291
L 457 291
L 457 290
L 457 290
L 457 290
L 457 290
L 457 290
L 457 290
L 457 290
L 457 290
L 457 290
L 458 290
L 458 290
L 458 290
L 458 290
L 458 290
L 458 290
L 458 290
L 458 290
L 458 290
L 458 290
L 458 290
L 458 290
L 458 289
L 458 289
L 458 289
L 458 289
L 458 289
L 458 289
L 458 289
L 458 289
L 458 289
L 458 289
L 458 289
L 458 289
L 458 289
L 458 289
L 458 289
L 458 289
L 458 289
L 458 289
L 458 289
L 458 289
L 458 289
L 458 288
L 458 288
L 458 288
L 458 288
L 458 288
L 458 288
L 458 288
L 458 288
L 458 288
L 458 288
L 458 288
L 458 288
L 458 288
L 459 288
L 459 288
L 459 288
L 459 288
L 459 288
L 459 288
L 459 288
L 459 288
L 459 287
L 459 287
L 459 287
L 459 287
L 459 287
L 459 287
L 459 287
L 459 287
L 459 287
L 459 287
L 459 287
L 459 287
L 459 287
L 459 287
L 459 287
L 459 287
L 459 287
L 459 287
L 459 287
L 459 287
L 459 287
L 459 286
L 459 286
L 459 286
L 459 286
L 459 286
L 459 286
L 459 286
L 459 286
L 459 286
L 459 286
L 459 286
L 459 286
L 459 286
L 459 286
L 459 286
L 459 286
L 459 286
L 459 286
L 459 286
L 459 286
L 460 286
L 460 285
L 460 285
L 460 285
L 460 285
L 460 285
L 460 285
L 460 285
L 460 285
L 460 285
L 460 285
L 460 285
L 460 285
L 460 285
L 460 285
L 460 285
L 460 285
L 460 285
L 460 285
L 460 285
L 460 285
L 460 285
L 460 284
L 460 284
L 460 284
L 460 284
L 460 284
L 460 284
L 460 284
L 460 284
L 460 284
L 460 284
L 460 284
L 460 284
L 460 284
L 460 284
L 460 284
L 460 284
L 460 284
L 460 284
L 460 284
L 460 284
L 460 284
L 460 283
L 460 283
L 460 283
L 460 283
L 460 283
L 460 283
L 461 283
L 461 283
L 461 283
L 461 283
L 461 283
L 461 283
L 461 283
L 461 283
L 461 283
L 461 283
L 461 283
L 461 283
L 461 283
L 461 283
L 461 283
L 461 282
L 461 282
L 461 282
L 461 282
L 461 282
L 461 282
L 461 282
L 461 282
L 461 282
L 461 282
L 461 282
L 461 282
L 461 282
L 461 282
L 461 282
L 461 282
L 461 282
L 461 282
L 461 282
L 461 282
L 461 281
L 461 281
L 461 281
L 461 281
L 461 281
L 461 281
L 461 281
L 461 281
L 461 281
L 461 281
L 461 281
L 461 281
L 461 281
L 461 281
L 461 281
L 461 281
L 461 281
L 461 281
L 461 281
L 461 281
L 461 281
L 462 280
L 462 280
L 462 280
L 462 280
L 462 280
L 462 280
L 462 280
L 462 280
L 462 280
L 462 280
L 462 280
L 462 280
L 462 280
L 462 280
L 462 280
L 462 280
L 462 280
L 462 280
L 462 280
L 462 280
L 462 280
L 462 279
L 462 279
L 462 279
L 462 279
L 462 279
L 462 279
L 462 279
L 462 279
L 462 279
L 462 279
L 462 279
L 462 279
L 462 279
L 462 279
L 462 279
L 462 279
L 462 279
L 462 279
L 463 279
L 463 279
L 463 279
L 463 278
L 463 278
L 463 278
L 463 278
L 463 278
L 463 278
L 463 278
L 463 278
L 463 278
L 463 278
L 463 278
L 463 278
L 463 278
L 463 278
L 463 278
L 463 278
L 463 278
L 463 278
L 463 278
L 463 278
L 463 278
L 464 277
L 464 277
L 464 277
L 464 277
L 464 277
L 464 277
L 464 277
L 464 277
L 464 277
L 464 277
L 464 277
L 464 277
L 464 277
L 465 277
L 465 277
L 465 277
L 465 277
L 465 277
L 466 277
L 467 277
L 468 277
L 468 276
L 468 276
L 468 276
L 468 276
L 468 276
L 468 276
L 468 276
L 468 276
L 468 276
L 468 276
L 468 276
L 468 276
L 468 276
L 468 276
L 468 276
L 468 276
L 468 276
L 469 276
L 469 276
L 469 276
L 469 276
L 469 275
L 469 275
L 469 275
L 469 275
L 469 275
L 469 275
L 469 275
L 469 275
L 469 275
L 469 275
L 469 275
L 469 275
L 469 275
L 469 275
L 469 275
L 469 275
L 469 275
L 469 275
L 469 275
L 469 275
L 469 275
L 469 274
L 469 274
L 469 274
L 469 274
L 469 274
L 469 274
L 469 274
L 469 274
L 469 274
L 469 274
L 469 274
L 469 274
L 469 274
L 469 274
L 469 274
L 469 274
L 469 274
L 469 274
L 469 274
L 469 274
L 469 273
L 469 273
L 469 273
L 469 273
L 469 273
L 469 273
L 469 273
L 469 273
L 469 273
L 469 273
L 469 273
L 469 273
L 469 273
L 469 273
L 469 273
L 469 273
L 469 273
L 469 273
L 469 273
L 469 273
L 469 273
L 469 272
L 469 272
L 469 272
L 469 272
L 469 272
L 469 272
L 469 272
L 469 272
L 469 272
L 469 272
L 469 272
L 469 272
L 469 272
L 469 272
L 469 272
L 469 272
L 469 272
L 469 272
L 470 272
L 470 272
L 470 272
L 470 271
L 470 271
L 470 271
L 470 271
L 470 271
L 470 271
L 470 271
L 470 271
L 470 271
L 470 271
L 470 271
L 470 271
L 470 271
L 470 271
L 470 271
L 470 271
L 470 271
L 470 271
L 470 271
L 470 271
L 470 271
L 470 270
L 470 270
L 470 270
L 470 270
L 470 270
L 470 270
L 470 270
L 470 270
L 470 270
L 471 270
L 471 270
L 471 270
L 471 270
L 471 270
L 471 270
L 471 270
L 471 270
L 471 270
L 471 270
L 471 270
L 471 270
L 471 269
L 471 269
L 471 269
L 471 269
L 471 269
L 471 269
L 471 269
L 471 269
L 471 269
L 471 269
L 471 269
L 471 269
L 471 269
L 471 269
L 471 269
L 471 269
L 471 269
L 471 269
L 471 269
L 471 269
L 471 269
L 471 268
L 471 268
L 472 268
L 472 268
L 472 268
L 472 268
L 472 268
L 472 268
L 472 268
L 472 268
L 472 268
L 472 268
L 472 268
L 472 268
L 472 268
L 472 268
L 472 268
L 472 268
L 472 268
L 472 268
L 472 268
L 472 267
L 472 267
L 472 267
L 472 267
L 472 267
L 472 267
L 472 267
L 472 267
L 472 267
L 472 267
L 472 267
L 472 267
L 472 267
L 472 267
L 472 267
L 472 267
L 472 267
L 472 267
L 472 267
L 472 267
L 472 267
L 472 266
L 472 266
L 472 266
L 472 266
L 472 266
L 473 266
L 473 266
L 473 266
L 473 266
L 473 266
L 473 266
L 473 266
L 473 266
L 473 266
L 473 266
L 473 266
L 473 266
L 473 266
L 473 266
L 473 266
L 473 266
L 473 265
L 473 265
L 473 265
L 473 265
L 473 265
L 473 265
L 473 265
L 473 265
L 473 265
L 473 265
L 473 265
L 473 265
L 473 265
L 473 265
L 473 265
L 473 265
L 473 265
L 473 265
L 473 265
L 473 265
L 473 264
L 473 264
L 473 264
L 473 264
L 473 264
L 473 264
L 473 264
L 473 264
L 473 264
L 473 264
L 473 264
L 473 264
L 473 264
L 473 264
L 473 264
L 473 264
L 473 264
L 473 264
L 474 264
L 474 264
L 474 264
L 474 263
L 474 263
L 474 263
L 474 263
L 474 263
L 474 263
L 474 263
L 474 263
L 474 263
L 474 263
L 474 263
L 474 263
L 474 263
L 474 263
L 474 263
L 474 263
L 474 263
L 474 263
L 474 263
L 474 263
L 474 263
L 474 262
L 474 262
L 474 262
L 475 262
L 475 262
L 475 262
L 475 262
L 475 262
L 475 262
L 475 262
L 475 262
L 475 262
L 475 262
L 475 262
L 475 262
L 475 262
L 475 262
L 475 262
L 475 262
L 475 262
L 475 262
L 475 261
L 475 261
L 475 261
L 475 261
L 475 261
L 475 261
L 476 261
L 476 261
L 476 261
L 476 261
L 476 261
L 476 261
L 476 261
L 476 261
L 476 261
L 476 261
L 476 261
L 476 261
L 476 261
L 476 261
L 476 261
L 476 260
L 476 260
L 476 260
L 476 260
L 477 260
L 477 260
L 477 260
L 477 260
L 477 260
L 477 260
L 477 260
L 477 260
L 477 260
L 477 260
L 477 260
L 477 260
L 478 260
L 478 260
L 481 260
L 481 260
L 481 260
L 481 259
L 481 259
L 481 259
L 481 259
L 481 259
L 481 259
L 481 259
L 481 259
L 481 259
L 481 259
L 482 259
L 482 259
L 482 259
L 482 259
L 482 259
L 482 259
L 482 259
L 482 259
L 482 259
L 482 259
L 482 259
L 482 258
L 482 258
L 482 258
L 482 258
L 482 258
L 482 258
L 482 258
L 482 258
L 482 258
L 482 258
L 482 258
L 482 258
L 482 258
L 482 258
L 482 258
L 482 258
L 482 258
L 482 258
L 482 258
L 482 258
L 482 258
L 482 257
L 482 257
L 482 257
L 482 257
L 482 257
L 482 257
L 482 257
L 482 257
L 482 257
L 482 257
L 482 257
L 482 257
L 482 257
L 482 257
L 482 257
L 482 257
L 482 257
L 482 257
L 482 257
L 482 257
L 482 256
L 483 256
L 483 256
L 483 256
L 483 256
L 483 256
L 483 256
L 483 256
L 483 256
L 483 256
L 483 256
L 483 256
L 483 256
L 483 256
L 483 256
L 483 256
L 483 256
L 483 256
L 483 256
L 483 256
L 483 256
L 483 255
L 483 255
L 483 255
L 483 255
L 483 255
L 483 255
L 483 255
L 483 255
L 484 255
L 484 255
L 484 255
L 484 255
L 484 255
L 484 255
L 484 255
L 484 255
L 484 255
L 484 255
L 484 255
L 484 255
L 484 255
L 484 254
L 484 254
L 484 254
L 484 254
L 484 254
L 484 254
L 485 254
L 485 254
L 485 254
L 485 254
L 485 254
L 485 254
L 485 254
L 485 254
L 485 254
L 485 254
L 485 254
L 485 254
L 485 254
L 485 254
L 485 254
L 485 253
L 485 253
L 485 253
L 485 253
L 485 253
L 485 253
L 485 253
L 485 253
L 485 253
L 485 253
L 485 253
L 485 253
L 485 253
L 485 253
L 485 253
L 485 253
L 485 253
L 485 253
L 485 253
L 486 253
L 486 253
L 486 252
L 486 252
L 486 252
L 486 252
L 486 252
L 486 252
L 486 252
L 486 252
L 486 252
L 486 252
L 486 252
L 486 252
L 486 252
L 486 252
L 486 252
L 486 252
L 486 252
L 486 252
L 486 252
L 486 252
L 486 252
L 486 251
L 486 251
L 486 251
L 486 251
L 486 251
L 486 251
L 486 251
L 486 251
L 486 251
L 486 251
L 486 251
L 486 251
L 486 251
L 486 251
L 486 251
L 486 251
L 486 251
L 486 251
L 487 251
L 487 251
L 487 251
L 487 250
L 487 250
L 487 250
L 487 250
L 487 250
L 487 250
L 487 250
L 487 250
L 487 250
L 487 250
L 487 250
L 487 250
L 488 250
L 488 250
L 488 250
L 488 250
L 488 250
L 488 250
L 488 250
L 488 250
L 488 250
L 488 249
L 488 249
L 488 249
L 488 249
L 488 249
L 488 249
L 488 249
L 488 249
L 488 249
L 488 249
L 488 249
L 489 249
L 489 249
L 489 249
L 489 249
L 489 249
L 489 249
L 489 249
L 489 249
L 489 249
L 489 249
L 489 248
L 489 248
L 490 248
L 490 248
L 490 248
L 490 248
L 490 248
L 490 248
L 490 248
L 491 248
L 491 248
L 491 248
L 491 248
L 491 248
L 492 248
L 494 248
L 494 248
L 495 248
L 495 248
L 495 248
L 495 247
L 495 247
L 495 247
L 495 247
L 495 247
L 495 247
L 495 247
L 495 247
L 495 247
L 495 247
L 495 247
L 495 247
L 495 247
L 495 247
L 495 247
L 495 247
L 495 247
L 495 247
L 495 247
L 495 247
L 495 247
L 495 246
L 495 246
L 495 246
L 495 246
L 495 246
L 495 246
L 495 246
L 495 246
L 495 246
L 495 246
L 495 246
L 495 246
L 495 246
L 495 246
L 495 246
L 495 246
L 495 246
L 495 246
L 495 246
L 495 246
L 495 246
L 495 245
L 495 245
L 495 245
L 495 245
L 496 245
L 496 245
L 496 245
L 496 245
L 496 245
L 496 245
L 496 245
L 496 245
L 496 245
L 496 245
L 496 245
L 496 245
L 496 245
L 496 245
L 496 245
L 496 245
L 496 245
L 496 244
L 496 244
L 496 244
L 496 244
L 496 244
L 496 244
L 496 244
L 496 244
L 496 244
L 496 244
L 496 244
L 496 244
L 496 244
L 496 244
L 496 244
L 496 244
L 496 244
L 497 244
L 497 244
L 497 244
L 497 244
L 497 243
L 497 243
L 497 243
L 497 243
L 497 243
L 497 243
L 497 243
L 497 243
L 497 243
L 497 243
L 497 243
L 497 243
L 497 243
L 497 243
L 497 243
L 497 243
L 497 243
L 497 243
L 497 243
L 497 243
L 497 243
L 498 242
L 498 242
L 498 242
L 498 242
L 498 242
L 498 242
L 498 242
L 498 242
L 498 242
L 498 242
L 498 242
L 498 242
L 498 242
L 498 242
L 498 242
L 498 242
L 498 242
L 498 242
L 498 242
L 498 242
L 498 242
L 498 241
L 498 241
L 498 241
L 498 241
L 498 241
L 498 241
L 498 241
L 498 241
L 498 241
L 498 241
L 498 241
L 498 241
L 498 241
L 498 241
L 498 241
L 498 241
L 498 241
L 498 241
L 498 241
L 498 241
L 498 241
L 498 240
L 498 240
L 498 240
L 498 240
L 498 240
L 498 240
L 498 240
L 498 240
L 498 240
L 498 240
L 499 240
L 499 240
L 499 240
L 499 240
L 499 240
L 499 240
L 499 240
L 499 240
L 499 240
L 499 240
L 499 239
L 499 239
L 499 239
L 499 239
L 499 239
L 499 239
L 499 239
L 499 239
L 499 239
L 499 239
L 499 239
L 499 239
L 499 239
L 499 239
L 499 239
L 499 239
L 499 239
L 499 239
L 499 239
L 499 239
L 499 239
L 499 238
L 499 238
L 499 238
L 499 238
L 499 238
L 499 238
L 499 238
L 499 238
L 499 238
L 499 238
L 499 238
L 499 238
L 499 238
L 499 238
L 499 238
L 499 238
L 500 238
L 500 238
L 500 238
L 500 238
L 500 238
L 500 237
L 500 237
L 500 237
L 500 237
L 500 237
L 500 237
L 500 237
L 500 237
L 500 237
L 500 237
L 500 237
L 501 237
L 501 237
L 501 237
L 501 237
L 501 237
L 501 237
L 501 237
L 501 237
L 501 237
L 501 237
L 501 236
L 501 236
L 501 236
L 501 236
L 501 236
L 501 236
L 502 236
L 502 236
L 502 236
L 502 236
L 502 236
L 502 236
L 502 236
L 502 236
L 502 236
L 502 236
L 502 236
L 502 236
L 502 236
L 502 236
L 502 236
L 502 235
L 502 235
L 502 235
L 503 235
L 503 235
L 503 235
L 503 235
L 503 235
L 503 235
L 503 235
L 503 235
L 503 235
L 503 235
L 503 235
L 503 235
L 505 235
L 505 235
L 505 235
L 506 235
L 507 235
L 507 235
L 507 234
L 507 234
L 507 234
L 508 234
L 508 234
L 508 234
L 508 234
L 508 234
L 508 234
L 508 234
L 508 234
L 508 234
L 508 234
L 508 234
L 508 234
L 508 234
L 508 234
L 508 234
L 508 234
L 508 234
L 508 234
L 508 233
L 508 233
L 508 233
L 508 233
L 508 233
L 508 233
L 508 233
L 508 233
L 508 233
L 508 233
L 508 233
L 508 233
L 508 233
L 508 233
L 508 233
L 508 233
L 508 233
L 508 233
L 508 233
L 508 233
L 508 233
L 509 232
L 509 232
L 509 232
L 509 232
L 509 232
L 509 232
L 509 232
L 509 232
L 509 232
L 509 232
L 509 232
L 509 232
L 509 232
L 509 232
L 509 232
L 509 232
L 509 232
L 509 232
L 509 232
L 509 232
L 509 232
L 509 231
L 509 231
L 509 231
L 509 231
L 509 231
L 509 231
L 509 231
L 509 231
L 509 231
L 509 231
L 509 231
L 509 231
L 509 231
L 509 231
L 509 231
L 509 231
L 509 231
L 509 231
L 509 231
L 509 231
L 509 230
L 509 230
L 509 230
L 509 230
L 509 230
L 509 230
L 509 230
L 509 230
L 509 230
L 509 230
L 509 230
L 509 230
L 509 230
L 509 230
L 509 230
L 509 230
L 509 230
L 510 230
L 510 230
L 510 230
L 510 230
L 510 229
L 510 229
L 510 229
L 510 229
L 510 229
L 510 229
L 510 229
L 510 229
L 510 229
L 510 229
L 510 229
L 510 229
L 510 229
L 510 229
L 510 229
L 510 229
L 510 229
L 510 229
L 510 229
L 510 229
L 510 229
L 510 228
L 510 228
L 510 228
L 510 228
L 511 228
L 511 228
L 511 228
L 511 228
L 511 228
L 511 228
L 511 228
L 511 228
L 511 228
L 511 228
L 511 228
L 511 228
L 511 228
L 511 228
L 511 228
L 511 228
L 511 228
L 511 227
L 511 227
L 511 227
L 511 227
L 511 227
L 511 227
L 511 227
L 511 227
L 511 227
L 511 227
L 511 227
L 511 227
L 511 227
L 511 227
L 511 227
L 511 227
L 511 227
L 511 227
L 511 227
L 511 227
L 511 227
L 511 226
L 511 226
L 511 226
L 511 226
L 511 226
L 511 226
L 511 226
L 511 226
L 511 226
L 511 226
L 512 226
L 512 226
L 512 226
L 512 226
L 512 226
L 512 226
L 512 226
L 512 226
L 512 226
L 512 226
L 512 226
L 512 225
L 512 225
L 512 225
L 512 225
L 512 225
L 512 225
L 512 225
L 512 225
L 512 225
L 512 225
L 512 225
L 512 225
L 512 225
L 512 225
L 512 225
L 512 225
L 512 225
L 512 225
L 512 225
L 512 225
L 512 225
L 512 224
L 512 224
L 512 224
L 512 224
L 512 224
L 512 224
L 512 224
L 512 224
L 512 224
L 512 224
L 512 224
L 513 224
L 513 224
L 513 224
L 513 224
L 513 224
L 513 224
L 513 224
L 513 224
L 513 224
L 513 224
L 513 223
L 513 223
L 513 223
L 513 223
L 513 223
L 513 223
L 513 223
L 513 223
L 513 223
L 514 223
L 514 223
L 514 223
L 514 223
L 514 223
L 514 223
L 514 223
L 514 223
L 514 223
L 514 223
L 514 223
L 514 222
L 514 222
L 515 222
L 515 222
L 515 222
L 515 222
L 515 222
L 515 222
L 515 222
L 515 222
L 515 222
L 515 222
L 515 222
L 515 222
L 515 222
L 515 222
L 516 222
L 516 222
L 516 222
L 516 222
L 516 222
L 516 221
L 516 221
L 516 221
L 517 221
L 517 221
L 517 221
L 519 221
L 519 221
L 519 221
L 520 221
L 520 221
L 520 221
L 521 221
L 521 221
L 521 221
L 521 221
L 521 221
L 521 221
L 521 221
L 522 221
L 522 221
L 522 220
L 522 220
L 522 220
L 522 220
L 522 220
L 522 220
L 522 220
L 522 220
L 522 220
L 522 220
L 522 220
L 522 220
L 522 220
L 522 220
L 523 220
L 523 220
L 523 220
L 523 220
L 523 220
L 523 220
L 523 220
L 523 219
L 523 219
L 523 219
L 524 219
L 524 219
L 524 219
L 524 219
L 524 219
L 524 219
L 524 219
L 524 219
L 525 219
L 525 219
L 525 219
L 525 219
L 525 219
L 525 219
L 525 219
L 525 219
L 525 219
L 526 219
L 526 218
L 527 218
L 527 218
L 527 218
L 527 218
L 527 218
L 527 218
L 527 218
L 527 218
L 528 218
L 528 218
L 528 218
L 528 218
L 528 218
L 528 218
L 528 218
L 528 218
L 528 218
L 529 218
L 529 218
L 529 218
L 529 217
L 529 217
L 529 217
L 529 217
L 529 217
L 529 217
L 530 217
L 531 217
L 531 217
L 531 217
L 531 217
L 532 217
L 532 217
L 533 217
L 533 217
L 533 217
L 534 217
L 534 217
L 534 217
L 534 217
L 534 217
L 535 216
L 535 216
L 535 216
L 535 216
L 535 216
L 535 216
L 535 216
L 535 216
L 535 216
L 536 216
L 536 216
L 536 216
L 536 216
L 536 216
L 536 216
L 537 216
L 537 216
L 537 216
L 537 216
L 537 216
L 537 216
L 537 215
L 537 215
L 537 215
L 538 215
L 538 215
L 538 215
L 539 215
L 539 215
L 539 215
L 539 215
L 539 215
L 539 215
L 539 215
L 539 215
L 539 215
L 540 215
L 540 215
L 540 215
L 540 215
L 541 215
L 541 215
L 541 214
L 541 214
L 541 214
L 541 214
L 541 214
L 542 214
L 542 214
L 542 214
L 542 214
L 542 214
L 542 214
L 542 214
L 542 214
L 542 214
L 542 214
L 543 214
L 543 214
L 543 214
L 543 214
L 544 214
L 544 213
L 545 213
L 545 213
L 546 213
L 547 213
L 547 213
L 547 213
L 547 213
L 547 213
L 548 213
L 548 213
L 548 213
L 548 213
L 548 213
L 548 213
L 549 213
L 549 213
L 549 213
L 549 213
L 549 213
L 549 213
L 550 212
L 550 212
L 550 212
L 550 212
L 550 212
L 550 212
L 550 212
L 550 212
L 550 212
L 550 212
L 550 212
L 550 212
L 551 212
L 551 212
L 551 212
L 551 212
L 551 212
L 551 212
L 551 212
L 552 212
L 552 212
L 552 211
L 552 211
L 552 211
L 552 211
L 552 211
L 552 211
L 552 211
L 552 211
L 553 211
L 553 211
L 553 211
L 553 211
L 553 211
L 553 211
L 553 211
L 553 211
L 553 211
L 553 211
L 553 211
L 553 211
L 553 211
L 553 210
L 553 210
L 554 210
L 554 210
L 554 210
L 554 210
L 554 210
L 554 210
L 554 210
L 554 210
L 554 210
L 554 210
L 555 210
L 555 210
L 555 210
L 555 210
L 555 210
L 555 210
L 556 210
L 556 210
L 556 210
L 556 209
L 556 209
L 560 209
L 560 209
L 560 209
L 560 209
L 560 209
L 560 209
L 560 209
L 560 209
L 560 209
L 560 209
L 560 209
L 560 209
L 560 209
L 560 209
L 560 209
L 560 209
L 560 209
L 560 209
L 560 209
L 561 208
L 561 208
L 561 208
L 561 208
L 561 208
L 561 208
L 561 208
L 561 208
L 561 208
L 561 208
L 561 208
L 561 208
L 561 208
L 561 208
L 561 208
L 561 208
L 561 208
L 561 208
L 561 208
L 561 208
L 561 208
L 561 207
L 561 207
L 561 207
L 561 207
L 561 207
L 561 207
L 561 207
L 561 207
L 561 207
L 561 207
L 561 207
L 561 207
L 561 207
L 561 207
L 561 207
L 561 207
L 561 207
L 561 207
L 561 207
L 561 207
L 561 207
L 561 206
L 562 206
L 562 206
L 562 206
L 562 206
L 562 206
L 562 206
L 562 206
L 562 206
L 562 206
L 562 206
L 562 206
L 562 206
L 562 206
L 562 206
L 562 206
L 562 206
L 562 206
L 562 206
L 563 206
L 563 205
L 563 205
L 563 205
L 563 205
L 563 205
L 563 205
L 563 205
L 563 205
L 563 205
L 563 205
L 563 205
L 563 205
L 563 205
L 563 205
L 563 205
L 563 205
L 563 205
L 563 205
L 563 205
L 563 205
L 563 205
L 563 204
L 563 204
L 563 204
L 563 204
L 563 204
L 563 204
L 563 204
L 563 204
L 564 204
L 564 204
L 564 204
L 564 204
L 564 204
L 564 204
L 564 204
L 564 204
L 564 204
L 564 204
L 564 204
L 564 204
L 564 204
L 564 203
L 564 203
L 564 203
L 564 203
L 564 203
L 564 203
L 564 203
L 564 203
L 564 203
L 564 203
L 564 203
L 564 203
L 564 203
L 564 203
L 564 203
L 564 203
L 564 203
L 564 203
L 564 203
L 565 203
L 565 203
L 565 202
L 565 202
L 565 202
L 565 202
L 565 202
L 565 202
L 565 202
L 565 202
L 565 202
L 565 202
L 565 202
L 565 202
L 565 202
L 565 202
L 565 202
L 565 202
L 566 202
L 566 202
L 566 202
L 566 202
L 566 202
L 566 201
L 566 201
L 566 201
L 566 201
L 566 201
L 566 201
L 566 201
L 567 201
L 567 201
L 567 201
L 567 201
L 567 201
L 567 201
L 567 201
L 567 201
L 567 201
L 567 201
L 567 201
L 567 201
L 567 201
L 567 201
L 567 200
L 567 200
L 567 200
L 567 200
L 567 200
L 567 200
L 567 200
L 567 200
L 567 200
L 567 200
L 567 200
L 568 200
L 568 200
L 568 200
L 568 200
L 568 200
L 568 200
L 568 200
L 568 200
L 568 200
L 568 200
L 568 199
L 568 199
L 568 199
L 568 199
L 568 199
L 569 199
L 569 199
L 569 199
L 569 199
L 569 199
L 570 199
L 570 199
L 570 199
L 571 199
L 572 199
L 572 199
L 572 199
L 573 199
L 573 199
L 573 199
L 573 199
L 573 198
L 573 198
L 573 198
L 573 198
L 573 198
L 573 198
L 573 198
L 573 198
L 573 198
L 573 198
L 573 198
L 573 198
L 573 198
L 573 198
L 573 198
L 573 198
L 573 198
L 573 198
L 573 198
L 573 198
L 573 198
L 574 197
L 574 197
L 574 197
L 574 197
L 574 197
L 574 197
L 574 197
L 574 197
L 574 197
L 574 197
L 574 197
L 574 197
L 574 197
L 574 197
L 574 197
L 574 197
L 574 197
L 574 197
L 574 197
L 574 197
L 574 196
L 574 196
L 574 196
L 574 196
L 574 196
L 574 196
L 574 196
L 574 196
L 574 196
L 574 196
L 574 196
L 574 196
L 574 196
L 574 196
L 574 196
L 574 196
L 574 196
L 574 196
L 574 196
L 574 196
L 574 196
L 574 195
L 574 195
L 575 195
L 575 195
L 575 195
L 575 195
L 575 195
L 575 195
L 575 195
L 575 195
L 575 195
L 575 195
L 575 195
L 575 195
L 575 195
L 576 195
L 576 195
L 576 195
L 576 195
L 576 195
L 576 195
L 576 194
L 576 194
L 576 194
L 576 194
L 576 194
L 576 194
L 576 194
L 576 194
L 576 194
L 576 194
L 576 194
L 576 194
L 576 194
L 576 194
L 576 194
L 576 194
L 576 194
L 576 194
L 576 194
L 576 194
L 576 194
L 576 193
L 576 193
L 576 193
L 576 193
L 576 193
L 576 193
L 576 193
L 576 193
L 577 193
L 577 193
L 577 193
L 577 193
L 577 193
L 577 193
L 577 193
L 577 193
L 577 193
L 577 193
L 577 193
L 577 193
L 577 193
L 577 192
L 577 192
L 577 192
L 577 192
L 577 192
L 577 192
L 577 192
L 577 192
L 577 192
L 577 192
L 577 192
L 577 192
L 577 192
L 577 192
L 577 192
L 577 192
L 577 192
L 578 192
L 578 192
L 578 192
L 578 192
L 578 191
L 578 191
L 578 191
L 578 191
L 578 191
L 578 191
L 578 191
L 578 191
L 578 191
L 578 191
L 578 191
L 578 191
L 578 191
L 578 191
L 578 191
L 578 191
L 578 191
L 578 191
L 578 191
L 578 191
L 578 191
L 578 190
L 578 190
L 578 190
L 578 190
L 578 190
L 578 190
L 578 190
L 578 190
L 578 190
L 578 190
L 578 190
L 578 190
L 578 190
L 578 190
L 578 190
L 578 190
L 578 190
L 578 190
L 578 190
L 578 190
L 578 190
L 578 189
L 579 189
L 579 189
L 579 189
L 579 189
L 579 189
L 579 189
L 579 189
L 579 189
L 579 189
L 579 189
L 579 189
L 579 189
L 579 189
L 579 189
L 579 189
L 579 189
L 579 189
L 579 189
L 579 189
L 579 188
L 579 188
L 579 188
L 579 188
L 579 188
L 579 188
L 580 188
L 580 188
L 580 188
L 580 188
L 580 188
L 580 188
L 580 188
L 580 188
L 580 188
L 580 188
L 580 188
L 580 188
L 580 188
L 580 188
L 580 188
L 580 187
L 580 187
L 580 187
L 580 187
L 581 187
L 581 187
L 581 187
L 581 187
L 581 187
L 581 187
L 581 187
L 581 187
L 581 187
L 581 187
L 581 187
L 581 187
L 581 187
L 581 187
L 581 187
L 581 187
L 581 187
L 581 186
L 581 186
L 581 186
L 582 186
L 582 186
L 582 186
L 582 186
L 582 186
L 582 186
L 582 186
L 582 186
L 583 186
L 583 186
L 584 186
L 584 186
L 585 186
L 586 186
L 586 186
L 586 186
L 586 186
L 586 186
L 586 185
L 586 185
L 586 185
L 586 185
L 586 185
L 586 185
L 586 185
L 586 185
L 586 185
L 586 185
L 586 185
L 586 185
L 586 185
L 586 185
L 587 185
L 587 185
L 587 185
L 587 185
L 587 185
L 587 185
L 587 185
L 587 184
L 587 184
L 587 184
L 587 184
L 587 184
L 587 184
L 587 184
L 587 184
L 587 184
L 587 184
L 587 184
L 587 184
L 587 184
L 587 184
L 587 184
L 587 184
L 587 184
L 587 184
L 587 184
L 587 184
L 587 184
L 587 183
L 587 183
L 587 183
L 588 183
L 588 183
L 588 183
L 588 183
L 588 183
L 588 183
L 588 183
L 588 183
L 588 183
L 588 183
L 588 183
L 588 183
L 588 183
L 588 183
L 588 183
L 588 183
L 588 183
L 589 183
L 589 182
L 589 182
L 589 182
L 589 182
L 589 182
L 589 182
L 589 182
L 589 182
L 589 182
L 589 182
L 589 182
L 589 182
L 589 182
L 589 182
L 589 182
L 589 182
L 589 182
L 589 182
L 589 182
L 589 182
L 589 182
L 589 181
L 589 181
L 589 181
L 590 181
L 590 181
L 590 181
L 590 181
L 590 181
L 590 181
L 590 181
L 590 181
L 590 181
L 590 181
L 590 181
L 590 181
L 590 181
L 590 181
L 590 181
L 590 181
L 590 181
L 590 181
L 590 180
L 590 180
L 590 180
L 590 180
L 590 180
L 590 180
L 590 180
L 591 180
L 591 180
L 591 180
L 591 180
L 591 180
L 591 180
L 591 180
L 591 180
L 591 180
L 591 180
L 591 180
L 591 180
L 591 180
L 591 179
L 591 179
L 591 179
L 591 179
L 591 179
L 591 179
L 591 179
L 591 179
L 591 179
L 591 179
L 591 179
L 591 179
L 591 179
L 591 179
L 591 179
L 591 179
L 591 179
L 591 179
L 591 179
L 591 179
L 592 179
L 592 178
L 592 178
L 592 178
L 592 178
L 592 178
L 592 178
L 592 178
L 592 178
L 592 178
L 592 178
L 592 178
L 593 178
L 593 178
L 593 178
L 593 178
L 593 178
L 593 178
L 593 178
L 593 178
L 593 178
L 593 178
L 593 177
L 593 177
L 593 177
L 593 177
L 593 177
L 594 177
L 594 177
L 594 177
L 594 177
L 594 177
L 594 177
L 594 177
L 594 177
L 594 177
L 594 177
L 594 177
L 595 177
L 595 177
L 595 177
L 596 177
L 596 177
L 596 176
L 596 176
L 597 176
L 597 176
L 597 176
L 598 176
L 599 176
L 599 176
L 599 176
L 599 176
L 600 176
L 600 176
L 600 176
L 600 176
L 600 176
L 600 176
L 600 176
L 600 176
L 600 176
L 600 176
L 600 176
L 600 175
L 600 175
L 600 175
L 600 175
L 600 175
L 600 175
L 600 175
L 600 175
L 600 175
L 601 175
L 601 175
L 601 175
L 601 175
L 601 175
L 601 175
L 601 175
L 601 175
L 601 175
L 601 175
L 601 175
L 601 175
L 601 174
L 601 174
L 601 174
L 601 174
L 601 174
L 601 174
L 602 174
L 602 174
L 602 174
L 602 174
L 602 174
L 602 174
L 602 174
L 602 174
L 603 174
L 603 174
L 603 174
L 603 174
L 603 174
L 603 174
L 603 174
L 603 173
L 603 173
L 603 173
L 603 173
L 603 173
L 604 173
L 604 173
L 604 173
L 604 173
L 604 173
L 604 173
L 604 173
L 604 173
L 604 173
L 605 173
L 605 173
L 605 173
L 605 173
L 605 173
L 605 173
L 605 173
L 606 172
L 606 172
L 606 172
L 606 172
L 606 172
L 606 172
L 606 172
L 606 172
L 606 172
L 606 172
L 606 172
L 606 172
L 606 172
L 606 172
L 607 172
L 607 172
L 607 172
L 607 172
L 607 172
L 607 172
L 607 171
L 607 171
L 608 171
L 608 171
L 608 171
L 608 171
L 608 171
L 608 171
L 608 171
L 613 171
L 613 171
L 613 171
L 613 171
L 613 171
L 614 171
L 614 171
L 614 171
L 614 171
L 614 171
L 614 171
L 614 171
L 614 170
L 615 170
L 615 170
L 615 170
L 615 170
L 615 170
L 615 170
L 615 170
L 615 170
L 615 170
L 616 170
L 616 170
L 616 170
L 616 170
L 616 170
L 616 170
L 616 170
L 617 170
L 617 170
L 617 170
L 617 170
L 617 169
L 617 169
L 617 169
L 617 169
L 617 169
L 617 169
L 617 169
L 617 169
L 618 169
L 618 169
L 618 169
L 618 169
L 618 169
L 618 169
L 618 169
L 618 169
L 618 169
L 618 169
L 619 169
L 619 169
L 619 169
L 619 168
L 619 168
L 619 168
L 619 168
L 619 168
L 620 168
L 620 168
L 620 168
L 620 168
L 620 168
L 620 168
L 620 168
L 620 168
L 620 168
L 620 168
L 620 168
L 620 168
L 620 168
L 620 168
L 620 168
L 620 168
L 620 167
L 620 167
L 621 167
L 621 167
L 621 167
L 621 167
L 621 167
L 621 167
L 621 167
L 621 167
L 622 167
L 622 167
L 623 167
L 623 167
L 623 167
L 623 167
L 625 167
L 625 167
L 625 167
L 625 167
L 625 167
L 625 166
L 625 166
L 625 166
L 625 166
L 626 166
L 626 166
L 626 166
L 626 166
L 626 166
L 626 166
L 626 166
L 626 166
L 626 166
L 626 166
L 626 166
L 626 166
L 626 166
L 626 166
L 626 166
L 626 166
L 626 166
L 626 165
L 626 165
L 626 165
L 626 165
L 626 165
L 626 165
L 626 165
L 626 165
L 626 165
L 627 165
L 627 165
L 627 165
L 627 165
L 627 165
L 627 165
L 627 165
L 627 165
L 627 165
L 627 165
L 627 165
L 627 165
L 627 164
L 627 164
L 627 164
L 627 164
L 627 164
L 627 164
L 627 164
L 627 164
L 627 164
L 627 164
L 627 164
L 628 164
L 628 164
L 628 164
L 628 164
L 628 164
L 628 164
L 628 164
L 628 164
L 628 164
L 628 163
L 628 163
L 628 163
L 629 163
L 629 163
L 629 163
L 629 163
L 629 163
L 629 163
L 629 163
L 629 163
L 629 163
L 629 163
L 629 163
L 629 163
L 629 163
L 629 163
L 629 163
L 629 163
L 629 163
L 629 163
L 629 162
L 629 162
L 629 162
L 630 162
L 630 162
L 630 162
L 630 162
L 630 162
L 630 162
L 630 162
L 630 162
L 630 162
L 630 162
L 630 162
L 630 162
L 630 162
L 630 162
L 630 162
L 630 162
L 630 162
L 630 162
L 631 161
L 631 161
L 631 161
L 631 161
L 631 161
L 631 161
L 631 161
L 631 161
L 632 161
L 632 161
L 632 161
L 632 161
L 632 161
L 632 161
L 632 161
L 632 161
L 632 161
L 632 161
L 632 161
L 632 161
L 633 161
L 633 160
L 633 160
L 633 160
L 633 160
L 633 160
L 633 160
L 633 160
L 633 160
L 633 160
L 634 160
L 634 160
L 634 160
L 634 160
L 634 160
L 634 160
L 634 160
L 636 160
L 638 160
L 638 160
L 638 160
L 638 160
L 639 159
L 639 159
L 639 159
L 639 159
L 639 159
L 639 159
L 639 159
L 639 159
L 639 159
L 639 159
L 639 159
L 639 159
L 639 159
L 639 159
L 639 159
L 640 159
L 640 159
L 640 159
L 640 159
L 640 159
L 640 159
L 640 158
L 640 158
L 640 158
L 640 158
L 640 158
L 640 158
L 640 158
L 640 158
L 640 158
L 640 158
L 640 158
L 640 158
L 640 158
L 640 158
L 641 158
L 641 158
L 641 158
L 641 158
L 641 158
L 641 158
L 641 158
L 641 157
L 641 157
L 641 157
L 641 157
L 641 157
L 641 157
L 642 157
L 642 157
L 642 157
L 642 157
L 642 157
L 642 157
L 642 157
L 642 157
L 642 157
L 642 157
L 642 157
L 642 157
L 642 157
L 642 157
L 643 157
L 643 156
L 643 156
L 643 156
L 643 156
L 643 156
L 643 156
L 643 156
L 643 156
L 643 156
L 643 156
L 643 156
L 643 156
L 643 156
L 643 156
L 643 156
L 643 156
L 643 156
L 643 156
L 643 156
L 643 156
L 643 156
L 643 155
L 643 155
L 643 155
L 643 155
L 643 155
L 643 155
L 644 155
L 644 155
L 644 155
L 644 155
L 644 155
L 644 155
L 644 155
L 644 155
L 644 155
L 644 155
L 644 155
L 644 155
L 644 155
L 645 155
L 645 154
L 645 154
L 645 154
L 645 154
L 645 154
L 645 154
L 645 154
L 645 154
L 645 154
L 645 154
L 645 154
L 645 154
L 645 154
L 645 154
L 645 154
L 645 154
L 645 154
L 645 154
L 645 154
L 645 154
L 645 154
L 645 153
L 646 153
L 646 153
L 646 153
L 646 153
L 646 153
L 646 153
L 646 153
L 646 153
L 646 153
L 646 153
L 646 153
L 646 153
L 647 153
L 647 153
L 647 153
L 647 153
L 647 153
L 648 153
L 648 153
L 648 153
L 650 152
L 652 152
L 652 152
L 652 152
L 652 152
L 652 152
L 652 152
L 652 152
L 652 152
L 652 152
L 652 152
L 652 152
L 652 152
L 652 152
L 652 152
L 652 152
L 652 152
L 652 152
L 652 152
L 652 152
L 652 152
L 652 151
L 652 151
L 652 151
L 652 151
L 652 151
L 653 151
L 653 151
L 653 151
L 653 151
L 653 151
L 653 151
L 653 151
L 653 151
L 653 151
L 653 151
L 653 151
L 653 151
L 653 151
L 653 151
L 653 151
L 653 151
L 653 150
L 653 150
L 653 150
L 653 150
L 653 150
L 653 150
L 653 150
L 654 150
L 654 150
L 654 150
L 654 150
L 654 150
L 654 150
L 654 150
L 654 150
L 654 150
L 654 150
L 654 150
L 654 150
L 654 150
L 654 150
L 655 149
L 655 149
L 655 149
L 655 149
L 655 149
L 655 149
L 655 149
L 655 149
L 655 149
L 655 149
L 655 149
L 655 149
L 655 149
L 655 149
L 655 149
L 655 149
L 655 149
L 655 149
L 655 149
L 655 149
L 655 149
L 655 148
L 655 148
L 655 148
L 655 148
L 655 148
L 655 148
L 656 148
L 656 148
L 656 148
L 656 148
L 656 148
L 656 148
L 656 148
L 656 148
L 656 148
L 656 148
L 656 148
L 656 148
L 656 148
L 656 148
L 656 148
L 656 147
L 657 147
L 657 147
L 657 147
L 657 147
L 657 147
L 657 147
L 657 147
L 657 147
L 658 147
L 658 147
L 658 147
L 658 147
L 658 147
L 658 147
L 658 147
L 658 147
L 659 147
L 659 147
L 659 147
L 659 147
L 659 146
L 659 146
L 659 146
L 659 146
L 659 146
L 659 146
L 659 146
L 659 146
L 659 146
L 659 146
L 659 146
L 660 146
L 660 146
L 660 146
L 660 146
L 660 146
L 660 146
L 660 146
L 660 146
L 660 146
L 660 145
L 660 145
L 661 145
L 661 145
L 661 145
L 662 145
L 664 145
L 664 145
L 664 145
L 664 145
L 664 145
L 664 145
L 664 145
L 664 145
L 664 145
L 664 145
L 664 145
L 665 145
L 665 145
L 665 145
L 665 145
L 665 144
L 665 144
L 665 144
L 665 144
L 665 144
L 665 144
L 665 144
L 665 144
L 665 144
L 665 144
L 665 144
L 665 144
L 665 144
L 665 144
L 665 144
L 665 144
L 665 144
L 665 144
L 665 144
L 665 144
L 665 144
L 665 143
L 665 143
L 665 143
L 665 143
L 665 143
L 665 143
L 665 143
L 665 143
L 665 143
L 665 143
L 665 143
L 665 143
L 665 143
L 665 143
L 665 143
L 665 143
L 665 143
L 665 143
L 665 143
L 665 143
L 665 143
L 665 142
L 665 142
L 665 142
L 665 142
L 665 142
L 665 142
L 665 142
L 665 142
L 665 142
L 665 142
L 665 142
L 665 142
L 665 142
L 665 142
L 666 142
L 666 142
L 666 142
L 666 142
L 666 142
L 666 142
L 666 142
L 666 141
L 666 141
L 666 141
L 666 141
L 666 141
L 666 141
L 666 141
L 666 141
L 666 141
L 666 141
L 666 141
L 666 141
L 666 141
L 666 141
L 666 141
L 666 141
L 666 141
L 666 141
L 666 141
L 666 141
L 666 141
L 666 140
L 666 140
L 666 140
L 666 140
L 666 140
L 667 140
L 667 140
L 667 140
L 667 140
L 667 140
L 667 140
L 667 140
L 667 140
L 667 140
L 667 140
L 667 140
L 667 140
L 667 140
L 667 140
L 667 140
L 667 140
L 667 139
L 668 139
L 668 139
L 668 139
L 668 139
L 668 139
L 668 139
L 668 139
L 668 139
L 668 139
L 668 139
L 668 139
L 668 139
L 668 139
L 668 139
L 668 139
L 668 139
L 668 139
L 668 139
L 668 139
L 668 139
L 668 138
L 668 138
L 668 138
L 668 138
L 668 138
L 668 138
L 668 138
L 668 138
L 668 138
L 668 138
L 668 138
L 668 138
L 668 138
L 668 138
L 668 138
L 668 138
L 668 138
L 668 138
L 668 138
L 668 138
L 668 137
L 668 137
L 668 137
L 668 137
L 668 137
L 668 137
L 668 137
L 668 137
L 668 137
L 669 137
L 669 137
L 669 137
L 669 137
L 669 137
L 669 137
L 669 137
L 669 137
L 669 137
L 669 137
L 669 137
L 669 137
L 669 136
L 669 136
L 669 136
L 669 136
L 669 136
L 669 136
L 669 136
L 669 136
L 669 136
L 669 136
L 669 136
L 669 136
L 669 136
L 669 136
L 669 136
L 669 136
L 669 136
L 669 136
L 669 136
L 669 136
L 669 136
L 669 135
L 669 135
L 669 135
L 669 135
L 670 135
L 670 135
L 670 135
L 670 135
L 670 135
L 670 135
L 670 135
L 670 135
L 670 135
L 670 135
L 670 135
L 670 135
L 670 135
L 670 135
L 670 135
L 670 135
L 670 135
L 670 134
L 671 134
L 671 134
L 671 134
L 671 134
L 671 134
L 671 134
L 671 134
L 671 134
L 671 134
L 671 134
L 671 134
L 671 134
L 671 134
L 671 134
L 671 134
L 671 134
L 671 134
L 671 134
L 671 134
L 671 134
L 671 133
L 671 133
L 672 133
L 672 133
L 672 133
L 672 133
L 672 133
L 672 133
L 672 133
L 672 133
L 672 133
L 672 133
L 672 133
L 672 133
L 672 133
L 672 133
L 672 133
L 672 133
L 672 133
L 672 133
L 672 133
L 672 132
L 672 132
L 672 132
L 673 132
L 673 132
L 673 132
L 673 132
L 673 132
L 673 132
L 673 132
L 673 132
L 674 132
L 674 132
L 674 132
L 674 132
L 674 132
L 674 132
L 674 132
L 675 132
L 675 132
L 675 132
L 675 131
L 675 131
L 677 131
L 677 131
L 677 131
L 678 131
L 678 131
L 678 131
L 678 131
L 678 131
L 678 131
L 678 131
L 678 131
L 678 131
L 678 131
L 678 131
L 678 131
L 678 131
L 678 131
L 678 131
L 678 131
L 678 130
L 678 130
L 678 130
L 678 130
L 678 130
L 678 130
L 678 130
L 678 130
L 678 130
L 678 130
L 679 130
L 679 130
L 679 130
L 679 130
L 679 130
L 679 130
L 679 130
L 679 130
L 679 130
L 679 130
L 679 130
L 679 129
L 679 129
L 679 129
L 679 129
L 679 129
L 679 129
L 679 129
L 679 129
L 679 129
L 679 129
L 679 129
L 679 129
L 679 129
L 679 129
L 680 129
L 680 129
L 680 129
L 680 129
L 680 129
L 680 129
L 680 128
L 680 128
L 680 128
L 680 128
L 680 128
L 680 128
L 680 128
L 680 128
L 680 128
L 680 128
L 680 128
L 680 128
L 681 128
L 681 128
L 681 128
L 681 128
L 681 128
L 681 128
L 681 128
L 681 128
L 681 128
L 681 127
L 681 127
L 681 127
L 681 127
L 681 127
L 681 127
L 681 127
L 681 127
L 681 127
L 681 127
L 681 127
L 681 127
L 681 127
L 681 127
L 681 127
L 681 127
L 681 127
L 681 127
L 681 127
L 681 127
L 681 127
L 681 126
L 681 126
L 681 126
L 682 126
L 682 126
L 682 126
L 682 126
L 682 126
L 682 126
L 682 126
L 682 126
L 682 126
L 682 126
L 682 126
L 682 126
L 682 126
L 682 126
L 682 126
L 682 126
L 682 126
L 682 126
L 682 125
L 682 125
L 682 125
L 682 125
L 682 125
L 682 125
L 682 125
L 682 125
L 682 125
L 683 125
L 683 125
L 683 125
L 683 125
L 683 125
L 683 125
L 683 125
L 683 125
L 683 125
L 683 125
L 683 125
L 683 125
L 683 124
L 683 124
L 683 124
L 684 124
L 684 124
L 684 124
L 684 124
L 684 124
L 684 124
L 684 124
L 684 124
L 685 124
L 685 124
L 685 124
L 685 124
L 685 124
L 685 124
L 685 124
L 685 124
L 685 124
L 685 124
L 686 123
L 686 123
L 686 123
L 686 123
L 686 123
L 686 123
L 686 123
L 686 123
L 686 123
L 686 123
L 686 123
L 687 123
L 687 123
L 688 123
L 688 123
L 688 123
L 688 123
L 690 123
L 691 123
L 691 123
L 692 123
L 692 122
L 692 122
L 692 122
L 692 122
L 692 122
L 692 122
L 692 122
L 692 122
L 692 122
L 692 122
L 692 122
L 693 122
L 693 122
L 693 122
L 694 122
L 694 122
L 694 122
L 694 122
L 694 122
L 694 122
L 694 122
L 694 121
L 694 121
L 694 121
L 694 121
L 695 121
L 695 121
L 695 121
L 695 121
L 695 121
L 695 121
L 695 121
L 695 121
L 695 121
L 696 121
L 696 121
L 696 121
L 696 121
L 696 121
L 696 121
L 697 121
L 697 120
L 697 120
L 698 120
L 698 120
L 698 120
L 698 120
L 699 120
L 699 120
L 699 120
L 699 120
L 699 120
L 700 120
L 700 120
L 700 120
L 700 120
L 702 120
L 704 120
L 704 120
L 705 120
L 705 120
L 706 120
L 706 119
L 706 119
L 706 119
L 706 119
L 706 119
L 707 119
L 707 119
L 707 119
L 707 119
L 707 119
L 708 119
L 708 119
L 708 119
L 708 119
L 708 119
L 708 119
L 708 119
L 709 119
L 709 119
L 709 119
L 709 119
L 710 118
L 710 118
L 710 118
L 710 118
L 710 118
L 710 118
L 710 118
L 711 118
L 711 118
L 711 118
L 711 118
L 711 118
L 711 118
L 712 118
L 712 118
L 712 118
L 712 118
L 713 118
L 714 118
L 717 118
L 717 118
L 717 117
L 717 117
L 717 117
L 717 117
L 718 117
L 718 117
L 718 117
L 718 117
L 718 117
L 718 117
L 718 117
L 718 117
L 718 117
L 718 117
L 718 117
L 718 117
L 718 117
L 718 117
L 718 117
L 718 117
L 718 117
L 718 116
L 718 116
L 718 116
L 718 116
L 718 116
L 719 116
L 719 116
L 719 116
L 719 116
L 719 116
L 719 116
L 719 116
L 720 116
L 720 116
L 720 116
L 720 116
L 720 116
L 720 116
L 720 116
L 720 116
L 720 116
L 720 115
L 720 115
L 720 115
L 720 115
L 721 115
L 721 115
L 721 115
L 721 115
L 721 115
L 721 115
L 721 115
L 721 115
L 721 115
L 721 115
L 721 115
L 721 115
L 721 115
L 721 115
L 722 115
L 722 115
L 722 115
L 722 114
L 722 114
L 722 114
L 722 114
L 722 114
L 722 114
L 722 114
L 722 114
L 722 114
L 722 114
L 722 114
L 723 114
L 723 114
L 723 114
L 723 114
L 723 114
L 723 114
L 723 114
L 724 114
L 724 114
L 724 114
L 724 113
L 724 113
L 724 113
L 724 113
L 724 113
L 724 113
L 724 113
L 724 113
L 724 113
L 724 113
L 725 113
L 725 113
L 725 113
L 725 113
L 725 113
L 725 113
L 725 113
L 725 113
L 725 113
L 725 113
L 725 113
L 725 112
L 725 112
L 726 112
L 726 112
L 726 112
L 728 112
L 728 112
L 729 112
L 730 112
L 730 112
L 731 112
L 731 112
L 731 112
L 731 112
L 731 112
L 731 112
L 731 112
L 731 112
L 731 112
L 731 112
L 731 111
L 731 111
L 731 111
L 731 111
L 731 111
L 731 111
L 731 111
L 731 111
L 731 111
L 731 111
L 731 111
L 731 111
L 731 111
L 731 111
L 731 111
L 731 111
L 731 111
L 731 111
L 731 111
L 731 111
L 731 111
L 731 110
L 731 110
L 731 110
L 731 110
L 731 110
L 731 110
L 731 110
L 731 110
L 731 110
L 731 110
L 731 110
L 731 110
L 731 110
L 731 110
L 731 110
L 731 110
L 731 110
L 731 110
L 731 110
L 732 110
L 732 110
L 732 109
L 732 109
L 732 109
L 732 109
L 732 109
L 732 109
L 732 109
L 732 109
L 732 109
L 732 109
L 732 109
L 732 109
L 732 109
L 732 109
L 732 109
L 732 109
L 732 109
L 732 109
L 732 109
L 732 109
L 732 109
L 732 108
L 732 108
L 732 108
L 732 108
L 732 108
L 732 108
L 732 108
L 732 108
L 732 108
L 732 108
L 732 108
L 732 108
L 732 108
L 732 108
L 732 108
L 732 108
L 732 108
L 732 108
L 732 108
L 732 108
L 732 108
L 733 107
L 733 107
L 733 107
L 733 107
L 733 107
L 733 107
L 733 107
L 733 107
L 733 107
L 733 107
L 733 107
L 733 107
L 733 107
L 733 107
L 733 107
L 733 107
L 733 107
L 733 107
L 733 107
L 733 107
L 734 107
L 734 106
L 734 106
L 734 106
L 734 106
L 734 106
L 734 106
L 734 106
L 734 106
L 734 106
L 734 106
L 734 106
L 734 106
L 734 106
L 734 106
L 734 106
L 734 106
L 734 106
L 734 106
L 734 106
L 734 106
L 735 106
L 735 105
L 735 105
L 735 105
L 735 105
L 735 105
L 735 105
L 735 105
L 735 105
L 735 105
L 735 105
L 735 105
L 735 105
L 735 105
L 735 105
L 735 105
L 735 105
L 735 105
L 735 105
L 735 105
L 735 105
L 735 105
L 735 104
L 735 104
L 735 104
L 735 104
L 735 104
L 735 104
L 735 104
L 736 104
L 736 104
L 736 104
L 736 104
L 736 104
L 736 104
L 736 104
L 736 104
L 736 104
L 736 104
L 736 104
L 736 104
L 736 104
L 736 103
L 736 103
L 736 103
L 736 103
L 736 103
L 736 103
L 736 103
L 737 103
L 737 103
L 737 103
L 737 103
L 737 103
L 737 103
L 737 103
L 737 103
L 737 103
L 737 103
L 737 103
L 737 103
L 737 103
L 737 103
L 737 102
L 737 102
L 737 102
L 738 102
L 738 102
L 738 102
L 738 102
L 738 102
L 738 102
L 739 102
L 739 102
L 740 102
L 740 102
L 740 102
L 741 102
L 741 102
L 743 102
L 743 102
L 743 102
L 743 102
L 744 102
L 744 101
L 744 101
L 744 101
L 744 101
L 744 101
L 744 101
L 744 101
L 744 101
L 744 101
L 744 101
L 744 101
L 744 101
L 744 101
L 744 101
L 744 101
L 744 101
L 744 101
L 744 101
L 744 101
L 744 101
L 744 101
L 744 100
L 744 100
L 744 100
L 744 100
L 744 100
L 744 100
L 744 100
L 744 100
L 744 100
L 744 100
L 744 100
L 744 100
L 744 100
L 744 100
L 744 100
L 744 100
L 744 100
L 744 100
L 744 100
L 744 100
L 744 100
L 744 99
L 744 99
L 744 99
L 744 99
L 744 99
L 744 99
L 744 99
L 744 99
L 744 99
L 744 99
L 744 99
L 744 99
L 744 99
L 744 99
L 744 99
L 744 99
L 745 99
L 745 99
L 745 99
L 745 99
L 745 99
L 745 98
L 745 98
L 745 98
L 745 98
L 745 98
L 745 98
L 745 98
L 745 98
L 745 98
L 745 98
L 745 98
L 745 98
L 745 98
L 745 98
L 745 98
L 745 98
L 745 98
L 745 98
L 745 98
L 745 98
L 745 98
L 745 97
L 745 97
L 745 97
L 745 97
L 746 97
L 746 97
L 746 97
L 746 97
L 746 97
L 746 97
L 746 97
L 746 97
L 746 97
L 746 97
L 746 97
L 746 97
L 746 97
L 746 97
L 746 97
L 746 97
L 746 97
L 746 96
L 746 96
L 746 96
L 746 96
L 746 96
L 746 96
L 746 96
L 746 96
L 746 96
L 746 96
L 746 96
L 746 96
L 746 96
L 747 96
L 747 96
L 747 96
L 747 96
L 747 96
L 747 96
L 747 96
L 747 96
L 747 95
L 747 95
L 747 95
L 747 95
L 747 95
L 747 95
L 747 95
L 747 95
L 747 95
L 747 95
L 747 95
L 747 95
L 747 95
L 747 95
L 747 95
L 747 95
L 747 95
L 747 95
L 747 95
L 747 95
L 747 94
L 747 94
L 747 94
L 748 94
L 748 94
L 748 94
L 748 94
L 748 94
L 748 94
L 748 94
L 748 94
L 748 94
L 748 94
L 748 94
L 748 94
L 748 94
L 748 94
L 748 94
L 748 94
L 748 94
L 748 94
L 748 93
L 748 93
L 748 93
L 748 93
L 748 93
L 748 93
L 748 93
L 748 93
L 748 93
L 748 93
L 748 93
L 748 93
L 748 93
L 748 93
L 748 93
L 749 93
L 749 93
L 749 93
L 749 93
L 749 93
L 749 93
L 749 92
L 749 92
L 749 92
L 749 92
L 749 92
L 749 92
L 749 92
L 749 92
L 749 92
L 749 92
L 750 92
L 750 92
L 750 92
L 750 92
L 750 92
L 750 92
L 751 92
L 751 92
L 751 92
L 751 92
L 751 92
L 751 91
L 751 91
L 751 91
L 751 91
L 751 91
L 751 91
L 751 91
L 752 91
L 752 91
L 752 91
L 752 91
L 752 91
L 752 91
L 753 91
L 753 91
L 755 91
L 755 91
L 755 91
L 755 91
L 756 91
L 756 91
L 756 90
L 756 90
L 757 90
L 757 90
L 757 90
L 757 90
L 757 90
L 757 90
L 757 90
L 757 90
L 757 90
L 757 90
L 757 90
L 757 90
L 757 90
L 757 90
L 757 90
L 757 90
L 757 90
L 757 90
L 757 90
L 757 89
L 757 89
L 757 89
L 757 89
L 757 89
L 757 89
L 757 89
L 757 89
L 757 89
L 757 89
L 757 89
L 758 89
L 758 89
L 758 89
L 758 89
L 758 89
L 758 89
L 758 89
L 758 89
L 758 89
L 758 89
L 758 88
L 758 88
L 758 88
L 758 88
L 758 88
L 758 88
L 758 88
L 758 88
L 758 88
L 758 88
L 758 88
L 758 88
L 758 88
L 758 88
L 758 88
L 758 88
L 758 88
L 758 88
L 759 88
L 759 88
L 759 88
L 759 87
L 759 87
L 759 87
L 759 87
L 759 87
L 759 87
L 759 87
L 759 87
L 759 87
L 759 87
L 759 87
L 759 87
L 759 87
L 759 87
L 759 87
L 759 87
L 760 87
L 760 87
L 760 87
L 760 87
L 760 86
L 760 86
L 760 86
L 760 86
L 760 86
L 760 86
L 760 86
L 760 86
L 760 86
L 760 86
L 760 86
L 760 86
L 760 86
L 760 86
L 760 86
L 760 86
L 760 86
L 760 86
L 760 86
L 761 86
L 761 86
L 761 85
L 761 85
L 761 85
L 761 85
L 761 85
L 761 85
L 761 85
L 761 85
L 761 85
L 761 85
L 761 85
L 761 85
L 761 85
L 761 85
L 761 85
L 761 85
L 761 85
L 761 85
L 761 85
L 761 85
L 761 85
L 761 84
L 762 84
L 762 84
L 762 84
L 762 84
L 762 84
L 762 84
L 762 84
L 762 84
L 762 84
L 762 84
L 762 84
L 762 84
L 762 84
L 763 84
L 763 84
L 763 84
L 763 84
L 763 84
L 763 84
L 764 84
L 764 83
L 764 83
L 764 83
L 764 83
L 764 83
L 764 83
L 764 83
L 764 83
L 765 83
L 765 83
L 765 83
L 765 83
L 765 83
L 765 83
L 765 83
L 765 83
L 766 83
L 766 83
L 769 83
L 769 83
L 769 83
L 770 82
L 770 82
L 770 82
L 770 82
L 770 82
L 770 82
L 770 82
L 770 82
L 770 82
L 770 82
L 770 82
L 770 82
L 770 82
L 770 82
L 770 82
L 770 82
L 770 82
L 770 82
L 770 82
L 770 82
L 770 82
L 770 81
L 770 81
L 771 81
L 771 81
L 771 81
L 771 81
L 771 81
L 771 81
L 771 81
L 771 81
L 771 81
L 771 81
L 771 81
L 771 81
L 771 81
L 771 81
L 771 81
L 771 81
L 771 81
L 771 81
L 771 81
L 771 80
L 771 80
L 771 80
L 771 80
L 771 80
L 771 80
L 771 80
L 772 80
L 772 80
L 772 80
L 772 80
L 772 80
L 772 80
L 772 80
L 772 80
L 772 80
L 772 80
L 773 80
L 773 80
L 773 80
L 773 80
L 773 79
L 773 79
L 773 79
L 773 79
L 773 79
L 773 79
L 773 79
L 773 79
L 773 79
L 773 79
L 773 79
L 773 79
L 773 79
L 773 79
L 773 79
L 774 79
L 774 79
L 774 79
L 774 79
L 774 79
L 774 79
L 774 78
L 774 78
L 774 78
L 774 78
L 774 78
L 774 78
L 774 78
L 774 78
L 774 78
L 774 78
L 774 78
L 774 78
L 774 78
L 775 78
L 775 78
L 775 78
L 775 78
L 775 78
L 775 78
L 775 78
L 775 77
L 775 77
L 775 77
L 775 77
L 775 77
L 775 77
L 775 77
L 775 77
L 776 77
L 776 77
L 776 77
L 776 77
L 776 77
L 777 77
L 777 77
L 777 77
L 777 77
L 777 77
L 777 77
L 777 77
L 778 77
L 778 76
L 778 76
L 781 76
L 783 76
L 783 76
L 783 76
L 783 76
L 784 76
L 784 76
L 784 76
L 784 76
L 785 76
L 785 76
L 785 76
L 785 76
L 786 76
L 786 76
L 786 76
L 786 76
L 786 76
L 786 76
L 786 75
L 787 75
L 787 75
L 787 75
L 787 75
L 787 75
L 787 75
L 788 75
L 789 75
L 789 75
L 789 75
L 789 75
L 789 75
L 789 75
L 789 75
L 789 75
L 789 75
L 789 75
L 789 75
L 790 75
L 790 75
L 790 74
L 790 74
L 790 74
L 790 74
L 790 74
L 790 74
L 790 74
L 790 74
L 790 74
L 790 74
L 790 74
L 790 74
L 791 74
L 791 74
L 791 74
L 791 74
L 791 74
L 791 74
L 791 74
L 791 74
L 791 74
L 792 73
L 792 73
L 792 73
L 792 73
L 793 73
L 793 73
L 795 73
L 796 73
L 796 73
L 796 73
L 796 73
L 796 73
L 797 73
L 797 73
L 797 73
L 797 73
L 797 73
L 797 73
L 798 73
L 798 73
L 798 73
L 798 72
L 798 72
L 798 72
L 798 72
L 799 72
L 799 72
L 800 72
L 800 72
L 801 72
L 802 72
L 802 72
L 802 72
L 802 72
L 802 72
L 802 72
L 802 72
L 803 72
L 803 72
L 803 72
L 803 72
L 803 72
L 803 71
L 803 71
L 803 71
L 803 71
L 803 71
L 803 71
L 803 71
L 804 71
L 804 71
L 804 71
L 804 71
L 805 71
L 807 71
L 807 71
L 809 71
L 809 71
L 809 71
L 809 71
L 809 71
L 809 71
L 809 71
L 809 70
L 809 70
L 809 70
L 809 70
L 809 70
L 809 70
L 809 70
L 809 70
L 809 70
L 809 70
L 809 70
L 810 70
L 810 70
L 810 70
L 810 70
L 810 70
L 810 70
L 810 70
L 810 70
L 810 70
L 810 69
L 810 69
L 810 69
L 810 69
L 810 69
L 810 69
L 810 69
L 810 69
L 810 69
L 810 69
L 810 69
L 810 69
L 810 69
L 810 69
L 811 69
L 811 69
L 811 69
L 811 69
L 811 69
L 811 69
L 811 69
L 811 68
L 811 68
L 811 68
L 811 68
L 812 68
L 812 68
L 812 68
L 812 68
L 812 68
L 812 68
L 812 68
L 812 68
L 812 68
L 812 68
L 812 68
L 812 68
L 812 68
L 812 68
L 812 68
L 812 68
L 812 68
L 812 67
L 813 67
L 813 67
L 813 67
L 813 67
L 813 67
L 813 67
L 813 67
L 813 67
L 813 67
L 813 67
L 813 67
L 813 67
L 813 67
L 813 67
L 813 67
L 813 67
L 813 67
L 813 67
L 813 67
L 813 67
L 813 66
L 813 66
L 813 66
L 813 66
L 813 66
L 813 66
L 813 66
L 813 66
L 813 66
L 814 66
L 814 66
L 814 66
L 814 66
L 814 66
L 814 66
L 814 66
L 814 66
L 814 66
L 814 66
L 814 66
L 814 66
L 815 65
L 815 65
L 815 65
L 815 65
L 815 65
L 815 65
L 815 65
L 815 65
L 815 65
L 815 65
L 816 65
L 816 65
L 816 65
L 816 65
L 816 65
L 817 65
L 817 65
L 817 65
L 817 65
L 817 65
L 817 65
L 818 64
L 820 64
L 822 64
L 822 64
L 822 64
L 822 64
L 822 64
L 822 64
L 822 64
L 822 64
L 822 64
L 822 64
L 822 64
L 822 64
L 823 64
L 823 64
L 823 64
L 823 64
L 823 64
L 823 64
L 823 64
L 823 63
L 823 63
L 823 63
L 823 63
L 823 63
L 823 63
L 823 63
L 823 63
L 823 63
L 823 63
L 823 63
L 823 63
L 823 63
L 823 63
L 823 63
L 824 63
L 824 63
L 824 63
L 824 63
L 824 63
L 824 63
L 824 62
L 824 62
L 824 62
L 824 62
L 824 62
L 824 62
L 825 62
L 825 62
L 825 62
L 825 62
L 825 62
L 825 62
L 825 62
L 825 62
L 825 62
L 825 62
L 825 62
L 825 62
L 825 62
L 825 62
L 825 62
L 825 61
L 825 61
L 825 61
L 825 61
L 825 61
L 825 61
L 825 61
L 826 61
L 826 61
L 826 61
L 826 61
L 826 61
L 826 61
L 826 61
L 826 61
L 826 61
L 826 61
L 826 61
L 826 61
L 826 61
L 826 60
L 826 60
L 826 60
L 827 60
L 827 60
L 827 60
L 827 60
L 827 60
L 827 60
L 827 60
L 827 60
L 827 60
L 827 60
L 827 60
L 827 60
L 827 60
L 827 60
L 827 60
L 827 60
L 827 60
L 827 60
L 827 59
L 827 59
L 827 59
L 827 59
L 828 59
L 828 59
L 828 59
L 828 59
L 828 59
L 828 59
L 828 59
L 828 59
L 828 59
L 828 59
L 828 59
L 828 59
L 828 59
L 829 59
L 829 59
L 829 59
L 829 59
L 829 58
L 829 58
L 829 58
L 829 58
L 829 58
L 829 58
L 829 58
L 829 58
L 830 58
L 830 58
L 830 58
L 830 58
L 830 58
L 830 58
L 830 58
L 830 58
L 830 58
L 830 58
L 830 58
L 830 58
L 830 58
L 830 57
L 830 57
L 830 57
L 830 57
L 830 57
L 831 57
L 831 57
L 831 57
L 831 57
L 832 57
L 832 57
L 832 57
L 832 57
L 832 57
L 833 57
L 835 57
L 835 57
L 835 57
L 835 57
L 835 57
L 835 57
L 835 56
L 835 56
L 835 56
L 835 56
L 835 56
L 835 56
L 835 56
L 835 56
L 835 56
L 835 56
L 835 56
L 835 56
L 835 56
L 835 56
L 835 56
L 836 56
L 836 56
L 836 56
L 836 56
L 836 56
L 836 56
L 836 55
L 836 55
L 836 55
L 836 55
L 836 55
L 836 55
L 836 55
L 836 55
L 836 55
L 836 55
L 836 55
L 836 55
L 836 55
L 836 55
L 836 55
L 836 55
L 836 55
L 836 55
L 837 55
L 837 55
L 837 55
L 837 54
L 837 54
L 837 54
L 837 54
L 837 54
L 837 54
L 837 54
L 837 54
L 837 54
L 837 54
L 837 54
L 837 54
L 837 54
L 837 54
L 837 54
L 837 54
L 837 54
L 837 54
L 837 54
L 837 54
L 837 54
L 837 53
L 838 53
L 838 53
L 838 53
L 838 53
L 838 53
L 838 53
L 838 53
L 838 53
L 838 53
L 838 53
L 838 53
L 838 53
L 838 53
L 838 53
L 838 53
L 838 53
L 838 53
L 838 53
L 838 53
L 838 52
L 838 52
L 838 52
L 838 52
L 838 52
L 838 52
L 838 52
L 838 52
L 839 52
L 839 52
L 839 52
L 839 52
L 839 52
L 839 52
L 839 52
L 839 52
L 839 52
L 839 52
L 839 52
L 839 52
L 839 52
L 839 51
L 839 51
L 839 51
L 839 51
L 839 51
L 839 51
L 839 51
L 839 51
L 839 51
L 839 51
L 839 51
L 839 51
L 839 51
L 839 51
L 839 51
L 839 51
L 840 51
L 840 51
L 840 51
L 840 51
L 840 51
L 840 50
L 840 50
L 840 50
L 840 50
L 840 50
L 840 50
L 840 50
L 840 50
L 840 50
L 840 50
L 840 50
L 840 50
L 840 50
L 840 50
L 840 50
L 840 50
L 840 50
L 840 50
L 840 50
L 840 50
L 840 50
L 840 49
L 840 49
L 840 49
L 840 49
L 840 49
L 840 49
L 841 49
L 841 49
L 841 49
L 841 49
L 841 49
L 841 49
L 841 49
L 841 49
L 841 49
L 841 49
L 841 49
L 841 49
L 841 49
L 841 49
L 842 49
L 842 48
L 842 48
L 842 48
L 842 48
L 842 48
L 842 48
L 842 48
L 842 48
L 843 48
L 843 48
L 843 48
L 843 48
L 843 48
L 843 48
L 843 48
L 843 48
L 843 48
L 844 48
L 844 48
L 844 48
L 845 48
L 845 47
L 846 47
L 847 47
L 848 47
L 848 47
L 848 47
L 848 47
L 848 47
L 848 47
L 848 47
L 848 47
L 848 47
L 848 47
L 848 47
L 848 47
L 848 47
L 849 47
L 849 47
L 849 47
L 849 47
L 849 47
L 849 46
L 849 46
L 849 46
L 849 46
L 849 46
L 849 46
L 849 46
L 849 46
L 849 46
L 849 46
L 849 46
L 849 46
L 849 46
L 849 46
L 849 46
L 849 46
L 849 46
L 849 46
L 849 46
L 849 46
L 850 46
L 850 45
L 850 45
L 850 45
L 850 45
L 850 45
L 850 45
L 850 45
L 850 45
L 850 45
L 850 45
L 850 45
L 850 45
L 850 45
L 850 45
L 850 45
L 850 45
L 850 45
L 851 45
L 851 45
L 851 45
L 851 45
L 851 44
L 851 44
L 851 44
L 851 44
L 851 44
L 851 44
L 851 44
L 851 44
L 851 44
L 851 44
L 851 44
L 851 44
L 851 44
L 851 44
L 851 44
L 851 44
L 851 44
L 851 44
L 852 44
L 852 44
L 852 43
L 852 43
L 852 43
L 852 43
L 852 43
L 852 43
L 852 43
L 852 43
L 852 43
L 852 43
L 852 43
L 852 43
L 852 43
L 852 43
L 852 43
L 852 43
L 852 43
L 853 43
L 853 43
L 853 43
L 853 43
L 853 42
L 853 42
L 853 42
L 853 42
L 853 42
L 853 42
L 853 42
L 853 42
L 853 42
L 853 42
L 853 42
L 853 42
L 853 42
L 853 42
L 853 42
L 853 42
L 853 42
L 853 42
L 853 42
L 853 42
L 853 42
L 853 41
L 853 41
L 853 41
L 854 41
L 854 41
L 854 41
L 854 41
L 855 41
L 855 41
L 855 41
L 855 41
L 856 41
L 856 41
L 856 41
L 856 41
L 856 41
L 856 41
L 856 41
L 857 41
L 857 41
L 857 41
L 857 40
L 858 40
L 858 40
L 858 40
L 859 40
L 859 40
L 860 40
L 861 40
L 861 40
L 861 40
L 862 40
L 862 40
L 862 40
L 862 40
L 862 40
L 862 40
L 862 40
L 862 40
L 862 40
L 862 40
L 862 40
L 862 39
L 862 39
L 862 39
L 862 39
L 862 39
L 862 39
L 862 39
L 862 39
L 862 39
L 862 39
L 862 39
L 862 39
L 863 39
L 863 39
L 863 39
L 863 39
L 863 39
L 863 39
L 863 39
L 863 39
L 863 39
L 863 38
L 863 38
L 863 38
L 864 38
L 864 38
L 864 38
L 864 38
L 864 38
L 864 38
L 864 38
L 864 38
L 864 38
L 864 38
L 864 38
L 864 38
L 864 38
L 864 38
L 864 38
L 865 38
L 865 38
L 865 38
L 865 37
L 865 37
L 865 37
L 865 37
L 865 37
L 865 37
L 865 37
L 865 37
L 865 37
L 865 37
L 865 37
L 865 37
L 865 37
L 865 37
L 865 37
L 866 37
L 866 37
L 866 37
L 866 37
L 866 37
L 866 37
L 866 36
L 866 36
L 866 36
L 866 36
L 866 36
L 866 36
L 866 36
L 866 36
L 866 36
L 866 36
L 866 36
L 866 36
L 866 36
L 866 36
L 866 36
L 866 36
L 866 36
L 866 36
L 866 36
L 866 36
L 867 35
L 867 35
L 867 35
L 867 35
L 867 35
L 867 35
L 868 35
L 868 35
L 868 35
L 868 35
L 868 35
L 868 35
L 868 35
L 869 35
L 869 35
L 869 35
L 869 35
L 869 35
L 870 35
L 870 35
L 870 35
L 874 34
L 874 34
L 874 34
L 875 34
L 875 34
L 875 34
L 875 34
L 876 34
L 876 34
L 876 34
L 876 34
L 876 34
L 876 34
L 876 34
L 877 34
L 877 34
L 877 34
L 878 34
L 878 34
L 878 34
L 878 34
L 878 33
L 879 33
L 879 33
L 879 33
L 880 33
L 880 33
L 880 33
L 881 33
L 881 33
L 881 33
L 881 33
L 882 33
L 882 33
L 882 33
L 882 33
L 883 33
L 883 33
L 883 33
L 883 33
L 884 33
L 884 33
L 885 32
L 887 32
L 888 32
L 888 32
L 888 32
L 888 32
L 889 32
L 889 32
L 889 32
L 889 32
L 889 32
L 889 32
L 889 32
L 889 32
L 889 32
L 891 32
L 891 32
L 891 32
L 891 32
L 891 32
L 891 32
L 892 31
L 892 31
L 892 31
L 892 31
L 892 31
L 892 31
L 892 31
L 893 31
L 893 31
L 893 31
L 894 31
L 894 31
L 894 31
L 894 31
L 894 31
L 895 31
L 895 31
L 896 31
L 896 31
L 896 31
L 897 31
L 897 30
L 899 30
L 901 30
L 901 30
L 901 30
L 901 30
L 901 30
L 901 30
L 901 30
L 901 30
L 901 30
L 901 30
L 901 30
L 902 30
L 902 30
L 902 30
L 902 30
L 902 30
L 902 30
L 902 30
L 902 30
L 902 29
L 902 29
L 902 29
L 903 29
L 903 29
L 903 29
L 903 29
L 903 29
L 903 29
L 903 29
L 903 29
L 903 29
L 904 29
L 904 29
L 904 29
L 904 29
L 904 29
L 904 29
L 904 29
L 904 29
L 904 29
L 904 28
L 904 28
L 904 28
L 904 28
L 904 28
L 904 28
L 904 28
L 904 28
L 904 28
L 904 28
L 905 28
L 905 28
L 905 28
L 905 28
L 905 28
L 905 28
L 905 28
L 905 28
L 905 28
L 905 28
L 905 28
L 905 27
L 905 27
L 906 27
L 906 27
L 906 27
L 906 27
L 906 27
L 906 27
L 906 27
L 906 27
L 906 27
L 907 27
L 907 27
L 907 27
L 907 27
L 907 27
L 907 27
L 907 27
L 907 27
L 908 27
L 908 26
L 908 26
L 908 26
L 908 26
L 909 26
L 909 26
L 909 26
L 909 26
L 910 26
L 910 26
L 910 26
L 910 26
L 912 26
L 913 26
L 914 26
L 914 26
L 914 26
L 914 26
L 914 26
L 914 26
L 914 26
L 914 25
L 914 25
L 914 25
L 914 25
L 915 25
L 915 25
L 915 25
L 915 25
L 915 25
L 915 25
L 915 25
L 915 25
L 915 25
L 915 25
L 915 25
L 915 25
L 915 25
L 915 25
L 915 25
L 915 25
L 915 25
L 915 24
L 916 24
L 916 24
L 916 24
L 916 24
L 916 24
L 917 24
L 917 24
L 917 24
L 917 24
L 917 24
L 917 24
L 917 24
L 917 24
L 917 24
L 917 24
L 917 24
L 917 24
L 917 24
L 917 24
L 917 24
L 917 23
L 918 23
L 918 23
L 918 23
L 918 23
L 918 23
L 918 23
L 918 23
L 918 23
L 918 23
L 918 23
L 918 23
L 918 23
L 918 23
L 919 23
L 919 23
L 919 23
L 919 23
L 919 23
L 920 23
L 920 23
L 921 22
L 921 22
L 921 22
L 921 22
L 921 22
L 921 22
L 922 22
L 922 22
L 922 22
L 922 22
L 925 22
L 927 22
L 927 22
L 927 22
L 927 22
L 927 22
L 927 22
L 927 22
L 927 22
L 927 22
L 928 22
L 928 21
L 928 21
L 928 21
L 928 21
L 928 21
L 928 21
L 929 21
L 929 21
L 929 21
L 930 21
L 930 21
L 930 21
L 930 21
L 930 21
L 930 21
L 930 21
L 930 21
L 930 21
L 930 21
L 930 21
L 931 21
L 931 20
L 931 20
L 931 20
L 931 20
L 931 20
L 931 20
L 931 20
L 931 20
L 931 20
L 931 20
L 931 20
L 931 20
L 931 20
L 932 20
L 932 20
L 932 20
L 932 20
L 932 20
L 932 20
L 933 20
L 933 20
L 933 19
L 933 19
L 934 19
L 934 19
L 934 19
L 935 19
L 936 19
L 936 19
L 936 19
L 937 19
L 940 19
L 940 19
L 941 19
L 941 19
L 941 19
L 941 19
L 941 19
L 941 19
L 941 19
L 941 19
L 941 18
L 941 18
L 941 18
L 941 18
L 942 18
L 942 18
L 942 18
L 942 18
L 942 18
L 942 18
L 942 18
L 943 18
L 943 18
L 943 18
L 943 18
L 943 18
L 943 18
L 943 18
L 943 18
L 944 18
L 944 18
L 944 17
L 944 17
L 944 17
L 944 17
L 944 17
L 944 17
L 944 17
L 945 17
L 945 17
L 945 17
L 945 17
L 945 17
L 945 17
L 945 17
L 945 17
L 945 17
L 945 17
L 946 17
L 947 17
L 948 17
L 948 17
L 948 16
L 950 16
L 952 16
L 953 16
L 953 16
L 953 16
L 953 16
L 953 16
L 953 16
L 954 16
L 954 16
L 954 16
L 954 16
L 954 16
L 954 16
L 954 16
L 954 16
L 954 16
L 954 16
L 954 16
L 954 16
L 954 15
L 954 15
L 954 15
L 954 15
L 954 15
L 954 15
L 955 15
L 955 15
L 955 15
L 955 15
L 955 15
L 955 15
L 955 15
L 955 15
L 955 15
L 955 15
L 955 15
L 955 15
L 955 15
L 955 15
L 955 15
L 955 14
L 955 14
L 955 14
L 955 14
L 955 14
L 955 14
L 955 14
L 955 14
L 955 14
L 955 14
L 955 14
L 955 14
L 955 14
L 955 14
L 955 14
L 955 14
L 956 14
L 956 14
L 956 14
L 956 14
L 956 14
L 956 13
L 956 13
L 956 13
L 956 13
L 956 13
L 956 13
L 956 13
L 956 13
L 956 13
L 956 13
L 956 13
L 956 13
L 956 13
L 956 13
L 956 13
L 956 13
L 956 13
L 956 13
L 956 13
L 956 13
L 956 13
L 956 12
L 956 12
L 956 12
L 956 12
L 956 12
L 956 12
L 956 12
L 956 12
L 956 12
L 956 12
L 956 12
L 956 12
L 956 12
L 957 12
L 957 12
L 957 12
L 957 12
L 957 12
L 957 12
L 957 12
L 957 12
L 957 11
L 957 11
L 957 11
L 957 11
L 957 11
L 957 11
L 957 11
L 957 11
L 957 11
L 957 11
L 957 11
L 957 11
L 957 11
L 957 11
L 957 11
L 957 11
L 957 11
L 957 11
L 957 11
L 957 11" style="stroke-width:2;stroke:rgba(129,199,239,1.0);fill:none"/></svg>