<svg xmlns="http://www.w3.org/2000/svg" xmlns:xlink="http://www.w3.org/1999/xlink" width="1024" height="400">\n<path  d="M 0 0
L 1024 0
L 1024 400
L 0 400
L 0 0" style="stroke-width:0;stroke:rgba(255,255,255,1.0);fill:rgba(255,255,255,1.0)"/><path  d="M 38 11
L 957 11
L 957 351
L 38 351
L 38 11" style="stroke-width:0;stroke:rgba(255,255,255,1.0);fill:rgba(255,255,255,1.0)"/><path  d="M 38 351
L 957 351" style="stroke-width:2;stroke:rgba(85,85,85,1.0);fill:none"/><path  d="M 38 351
L 38 356" style="stroke-width:2;stroke:rgba(85,85,85,1.0);fill:none"/><text x="5" y="373" style="stroke-width:0;stroke:none;fill:rgba(51,51,51,1.0);font-size:12.8px;font-family:'Roboto Medium',sans-serif">2018-11-23</text><path  d="M 153 351
L 153 356" style="stroke-width:2;stroke:rgba(85,85,85,1.0);fill:none"/><text x="120" y="373" style="stroke-width:0;stroke:none;fill:rgba(51,51,51,1.0);font-size:12.8px;font-family:'Roboto Medium',sans-serif">2018-12-01</text><path  d="M 268 351
L 268 356" style="stroke-width:2;stroke:rgba(85,85,85,1.0);fill:none"/><text x="235" y="373" style="stroke-width:0;stroke:none;fill:rgba(51,51,51,1.0);font-size:12.8px;font-family:'Roboto Medium',sans-serif">2018-12-10</text><path  d="M 383 351
L 383 356" style="stroke-width:2;stroke:rgba(85,85,85,1.0);fill:none"/><text x="350" y="373" style="stroke-width:0;stroke:none;fill:rgba(51,51,51,1.0);font-size:12.8px;font-family:'Roboto Medium',sans-serif">2018-12-19</text><path  d="M 498 351
L 498 356" style="stroke-width:2;stroke:rgba(85,85,85,1.0);fill:none"/><text x="465" y="373" style="stroke-width:0;stroke:none;fill:rgba(51,51,51,1.0);font-size:12.8px;font-family:'Roboto Medium',sans-serif">2018-12-28</text><path  d="M 613 351
L 613 356" style="stroke-width:2;stroke:rgba(85,85,85,1.0);fill:none"/><text x="580" y="373" style="stroke-width:0;stroke:none;fill:rgba(51,51,51,1.0);font-size:12.8px;font-family:'Roboto Medium',sans-serif">2019-01-05</text><path  d="M 728 351
L 728 356" style="stroke-width:2;stroke:rgba(85,85,85,1.0);fill:none"/><text x="695" y="373" style="stroke-width:0;stroke:none;fill:rgba(51,51,51,1.0);font-size:12.8px;font-family:'Roboto Medium',sans-serif">2019-01-14</text><path  d="M 843 351
L 843 356" style="stroke-width:2;stroke:rgba(85,85,85,1.0);fill:none"/><text x="810" y="373" style="stroke-width:0;stroke:none;fill:rgba(51,51,51,1.0);font-size:12.8px;font-family:'Roboto Medium',sans-serif">2019-01-23</text><path  d="M 957 351
L 957 356" style="stroke-width:2;stroke:rgba(85,85,85,1.0);fill:none"/><text x="924" y="373" style="stroke-width:0;stroke:none;fill:rgba(51,51,51,1.0);font-size:12.8px;font-family:'Roboto Medium',sans-serif">2019-01-31</text><text x="483" y="395" style="stroke-width:0;stroke:none;fill:rgba(51,51,51,1.0);font-size:12.8px;font-family:'Roboto Medium',sans-serif">Time</text><path  d="M 959 351
L 959 11" style="stroke-width:2;stroke:rgba(85,85,85,1.0);fill:none"/><path  d="M 959 351
L 964 351" style="stroke-width:2;stroke:rgba(85,85,85,1.0);fill:none"/><text x="969" y="357" style="stroke-width:0;stroke:none;fill:rgba(51,51,51,1.0);font-size:12.8px;font-family:'Roboto Medium',sans-serif">0</text><path  d="M 959 308
L 964 308" style="stroke-width:2;stroke:rgba(85,85,85,1.0);fill:none"/><text x="969" y="314" style="stroke-width:0;stroke:none;fill:rgba(51,51,51,1.0);font-size:12.8px;font-family:'Roboto Medium',sans-serif">880</text><path  d="M 959 266
L 964 266" style="stroke-width:2;stroke:rgba(85,85,85,1.0);fill:none"/><text x="969" y="272" style="stroke-width:0;stroke:none;fill:rgba(51,51,51,1.0);font-size:12.8px;font-family:'Roboto Medium',sans-serif">1750</text><path  d="M 959 223
L 964 223" style="stroke-width:2;stroke:rgba(85,85,85,1.0);fill:none"/><text x="969" y="229" style="stroke-width:0;stroke:none;fill:rgba(51,51,51,1.0);font-size:12.8px;font-family:'Roboto Medium',sans-serif">2630</text><path  d="M 959 181
L 964 181" style="stroke-width:2;stroke:rgba(85,85,85,1.0);fill:none"/><text x="969" y="187" style="stroke-width:0;stroke:none;fill:rgba(51,51,51,1.0);font-size:12.8px;font-family:'Roboto Medium',sans-serif">3500</text><path  d="M 959 138
L 964 138" style="stroke-width:2;stroke:rgba(85,85,85,1.0);fill:none"/><text x="969" y="144" style="stroke-width:0;stroke:none;fill:rgba(51,51,51,1.0);font-size:12.8px;font-family:'Roboto Medium',sans-serif">4380</text><path  d="M 959 96
L 964 96" style="stroke-width:2;stroke:rgba(85,85,85,1.0);fill:none"/><text x="969" y="102" style="stroke-width:0;stroke:none;fill:rgba(51,51,51,1.0);font-size:12.8px;font-family:'Roboto Medium',sans-serif">5250</text><path  d="M 959 53
L 964 53" style="stroke-width:2;stroke:rgba(85,85,85,1.0);fill:none"/><text x="969" y="59" style="stroke-width:0;stroke:none;fill:rgba(51,51,51,1.0);font-size:12.8px;font-family:'Roboto Medium',sans-serif">6130</text><path  d="M 959 11
L 964 11" style="stroke-width:2;stroke:rgba(85,85,85,1.0);fill:none"/><text x="969" y="17" style="stroke-width:0;stroke:none;fill:rgba(51,51,51,1.0);font-size:12.8px;font-family:'Roboto Medium',sans-serif">7000</text><text x="1009" y="150" style="stroke-width:0;stroke:none;fill:rgba(51,51,51,1.0);font-size:12.8px;font-family:'Roboto Medium',sans-serif" transform="rotate(90.00,1009,150)">Stargazers</text><path  d="M 38 351
L 108 350
L 156 350
L 158 350
L 169 350
L 169 350
L 169 350
L 170 350
L 170 350
L 170 350
L 170 350
L 170 350
L 170 350
L 171 350
L 171 350
L 171 350
L 171 350
L 171 350
L 171 350
L 171 350
L 172 350
L 172 349
L 174 349
L 174 349
L 182 349
L 182 349
L 182 349
L 182 349
L 183 349
L 184 349
L 186 349
L 187 349
L 188 349
L 188 349
L 188 349
L 188 349
L 188 349
L 188 349
L 192 349
L 194 349
L 195 349
L 195 349
L 195 348
L 195 348
L 195 348
L 195 348
L 195 348
L 196 348
L 196 348
L 196 348
L 198 348
L 198 348
L 199 348
L 199 348
L 199 348
L 199 348
L 199 348
L 199 348
L 200 348
L 200 348
L 200 348
L 201 348
L 201 347
L 201 347
L 202 347
L 202 347
L 202 347
L 202 347
L 203 347
L 206 347
L 208 347
L 208 347
L 208 347
L 208 347
L 208 347
L 209 347
L 209 347
L 209 347
L 210 347
L 210 347
L 210 347
L 210 347
L 210 347
L 210 346
L 210 346
L 210 346
L 210 346
L 210 346
L 210 346
L 210 346
L 210 346
L 210 346
L 210 346
L 210 346
L 210 346
L 210 346
L 210 346
L 210 346
L 210 346
L 210 346
L 210 346
L 210 346
L 210 346
L 210 345
L 210 345
L 210 345
L 210 345
L 210 345
L 210 345
L 210 345
L 210 345
L 211 345
L 211 345
L 211 345
L 211 345
L 211 345
L 211 345
L 211 345
L 211 345
L 211 345
L 211 345
L 211 345
L 211 345
L 211 345
L 211 344
L 211 344
L 211 344
L 211 344
L 211 344
L 212 344
L 212 344
L 212 344
L 212 344
L 212 344
L 212 344
L 212 344
L 212 344
L 212 344
L 213 344
L 213 344
L 213 344
L 213 344
L 213 344
L 213 344
L 213 344
L 213 343
L 213 343
L 214 343
L 214 343
L 214 343
L 214 343
L 214 343
L 214 343
L 216 343
L 216 343
L 220 343
L 221 343
L 221 343
L 221 343
L 221 343
L 221 343
L 222 343
L 222 343
L 223 343
L 223 343
L 223 342
L 223 342
L 224 342
L 224 342
L 224 342
L 224 342
L 225 342
L 225 342
L 225 342
L 225 342
L 225 342
L 225 342
L 226 342
L 226 342
L 227 342
L 234 342
L 235 342
L 235 342
L 235 342
L 235 342
L 236 342
L 238 341
L 238 341
L 242 341
L 242 341
L 243 341
L 244 341
L 248 341
L 248 341
L 250 341
L 251 341
L 251 341
L 252 341
L 252 341
L 253 341
L 253 341
L 253 341
L 253 341
L 253 341
L 254 341
L 254 341
L 256 340
L 260 340
L 260 340
L 260 340
L 261 340
L 261 340
L 261 340
L 263 340
L 264 340
L 265 340
L 268 340
L 268 340
L 274 340
L 276 340
L 276 340
L 277 340
L 277 340
L 279 340
L 279 340
L 287 340
L 287 340
L 287 339
L 287 339
L 288 339
L 289 339
L 289 339
L 291 339
L 292 339
L 292 339
L 294 339
L 296 339
L 300 339
L 305 339
L 306 339
L 312 339
L 314 339
L 314 339
L 316 339
L 316 339
L 316 339
L 317 339
L 318 339
L 319 338
L 320 338
L 320 338
L 320 338
L 322 338
L 324 338
L 327 338
L 329 338
L 329 338
L 329 338
L 329 338
L 329 338
L 331 338
L 331 338
L 332 338
L 333 338
L 334 338
L 334 338
L 335 338
L 340 338
L 340 337
L 340 337
L 341 337
L 343 337
L 345 337
L 346 337
L 346 337
L 347 337
L 352 337
L 353 337
L 353 337
L 353 337
L 353 337
L 354 337
L 357 337
L 357 337
L 359 337
L 360 337
L 366 337
L 367 337
L 369 337
L 369 336
L 370 336
L 370 336
L 371 336
L 372 336
L 372 336
L 374 336
L 374 336
L 379 336
L 380 336
L 381 336
L 381 336
L 382 336
L 382 336
L 382 336
L 383 336
L 385 336
L 392 336
L 392 336
L 392 336
L 393 335
L 394 335
L 395 335
L 396 335
L 396 335
L 396 335
L 399 335
L 399 335
L 399 335
L 399 335
L 399 335
L 401 335
L 405 335
L 406 335
L 406 335
L 406 335
L 406 335
L 406 335
L 407 335
L 407 335
L 407 335
L 407 334
L 408 334
L 408 334
L 408 334
L 408 334
L 408 334
L 408 334
L 408 334
L 409 334
L 409 334
L 409 334
L 409 334
L 409 334
L 409 334
L 409 334
L 409 334
L 409 334
L 409 334
L 409 334
L 409 334
L 409 334
L 409 333
L 409 333
L 409 333
L 409 333
L 410 333
L 410 333
L 410 333
L 410 333
L 410 333
L 410 333
L 410 333
L 410 333
L 410 333
L 410 333
L 410 333
L 410 333
L 410 333
L 410 333
L 410 333
L 410 333
L 410 332
L 410 332
L 410 332
L 410 332
L 410 332
L 410 332
L 410 332
L 410 332
L 411 332
L 411 332
L 411 332
L 411 332
L 411 332
L 411 332
L 412 332
L 412 332
L 412 332
L 412 332
L 412 332
L 412 332
L 412 332
L 412 331
L 412 331
L 412 331
L 412 331
L 413 331
L 413 331
L 413 331
L 413 331
L 413 331
L 414 331
L 414 331
L 414 331
L 418 331
L 419 331
L 419 331
L 419 331
L 419 331
L 419 331
L 419 331
L 419 331
L 419 330
L 419 330
L 420 330
L 420 330
L 420 330
L 420 330
L 420 330
L 420 330
L 420 330
L 420 330
L 420 330
L 420 330
L 420 330
L 420 330
L 421 330
L 421 330
L 421 330
L 421 330
L 421 330
L 421 330
L 421 330
L 421 329
L 421 329
L 421 329
L 422 329
L 422 329
L 422 329
L 422 329
L 422 329
L 422 329
L 422 329
L 422 329
L 422 329
L 422 329
L 422 329
L 422 329
L 422 329
L 422 329
L 422 329
L 422 329
L 422 329
L 423 328
L 423 328
L 423 328
L 423 328
L 423 328
L 423 328
L 423 328
L 423 328
L 423 328
L 423 328
L 423 328
L 423 328
L 423 328
L 423 328
L 423 328
L 423 328
L 423 328
L 423 328
L 423 328
L 423 328
L 423 328
L 424 327
L 424 327
L 424 327
L 424 327
L 424 327
L 424 327
L 425 327
L 425 327
L 425 327
L 425 327
L 425 327
L 425 327
L 425 327
L 425 327
L 425 327
L 425 327
L 425 327
L 425 327
L 425 327
L 425 327
L 425 327
L 425 326
L 425 326
L 425 326
L 426 326
L 426 326
L 426 326
L 426 326
L 426 326
L 426 326
L 426 326
L 426 326
L 426 326
L 426 326
L 426 326
L 426 326
L 426 326
L 426 326
L 426 326
L 426 326
L 427 326
L 427 325
L 427 325
L 427 325
L 427 325
L 427 325
L 427 325
L 427 325
L 427 325
L 427 325
L 427 325
L 427 325
L 427 325
L 427 325
L 428 325
L 428 325
L 429 325
L 431 325
L 431 325
L 431 325
L 431 325
L 431 325
L 431 324
L 431 324
L 432 324
L 432 324
L 432 324
L 432 324
L 432 324
L 432 324
L 432 324
L 432 324
L 432 324
L 432 324
L 432 324
L 432 324
L 432 324
L 433 324
L 433 324
L 433 324
L 433 324
L 433 324
L 433 323
L 433 323
L 433 323
L 433 323
L 433 323
L 433 323
L 433 323
L 433 323
L 433 323
L 433 323
L 433 323
L 433 323
L 433 323
L 433 323
L 434 323
L 434 323
L 434 323
L 434 323
L 434 323
L 434 323
L 434 323
L 434 322
L 434 322
L 434 322
L 434 322
L 434 322
L 434 322
L 434 322
L 434 322
L 434 322
L 435 322
L 435 322
L 435 322
L 435 322
L 435 322
L 435 322
L 435 322
L 435 322
L 435 322
L 435 322
L 435 322
L 435 322
L 435 321
L 435 321
L 435 321
L 435 321
L 435 321
L 435 321
L 435 321
L 435 321
L 435 321
L 435 321
L 435 321
L 436 321
L 436 321
L 436 321
L 436 321
L 436 321
L 436 321
L 436 321
L 436 321
L 436 321
L 436 320
L 436 320
L 436 320
L 436 320
L 436 320
L 437 320
L 437 320
L 437 320
L 437 320
L 437 320
L 437 320
L 437 320
L 437 320
L 437 320
L 437 320
L 437 320
L 437 320
L 437 320
L 437 320
L 437 320
L 437 320
L 438 319
L 438 319
L 438 319
L 438 319
L 438 319
L 438 319
L 438 319
L 438 319
L 438 319
L 438 319
L 438 319
L 438 319
L 438 319
L 438 319
L 438 319
L 438 319
L 438 319
L 439 319
L 439 319
L 439 319
L 439 318
L 439 318
L 439 318
L 439 318
L 439 318
L 439 318
L 439 318
L 439 318
L 439 318
L 439 318
L 439 318
L 439 318
L 439 318
L 439 318
L 439 318
L 439 318
L 439 318
L 439 318
L 439 318
L 439 318
L 439 318
L 440 317
L 440 317
L 440 317
L 440 317
L 440 317
L 440 317
L 440 317
L 440 317
L 440 317
L 440 317
L 440 317
L 440 317
L 440 317
L 440 317
L 441 317
L 441 317
L 441 317
L 441 317
L 441 317
L 442 317
L 442 317
L 443 316
L 444 316
L 444 316
L 444 316
L 444 316
L 444 316
L 444 316
L 444 316
L 444 316
L 445 316
L 445 316
L 445 316
L 445 316
L 445 316
L 445 316
L 445 316
L 445 316
L 445 316
L 445 316
L 445 316
L 445 315
L 445 315
L 445 315
L 445 315
L 445 315
L 445 315
L 445 315
L 445 315
L 445 315
L 445 315
L 445 315
L 445 315
L 445 315
L 445 315
L 445 315
L 445 315
L 445 315
L 445 315
L 445 315
L 445 315
L 445 315
L 445 314
L 445 314
L 445 314
L 445 314
L 445 314
L 445 314
L 445 314
L 445 314
L 445 314
L 445 314
L 445 314
L 445 314
L 445 314
L 445 314
L 445 314
L 445 314
L 445 314
L 445 314
L 445 314
L 445 314
L 445 313
L 445 313
L 445 313
L 445 313
L 445 313
L 445 313
L 445 313
L 445 313
L 445 313
L 445 313
L 445 313
L 445 313
L 445 313
L 445 313
L 445 313
L 445 313
L 445 313
L 445 313
L 445 313
L 445 313
L 445 313
L 445 312
L 445 312
L 445 312
L 445 312
L 445 312
L 445 312
L 445 312
L 445 312
L 445 312
L 445 312
L 445 312
L 446 312
L 446 312
L 446 312
L 446 312
L 446 312
L 446 312
L 446 312
L 446 312
L 446 312
L 446 311
L 446 311
L 446 311
L 446 311
L 446 311
L 446 311
L 446 311
L 446 311
L 446 311
L 446 311
L 446 311
L 446 311
L 446 311
L 446 311
L 446 311
L 446 311
L 446 311
L 446 311
L 446 311
L 446 311
L 446 311
L 446 310
L 446 310
L 446 310
L 446 310
L 446 310
L 446 310
L 446 310
L 446 310
L 446 310
L 446 310
L 446 310
L 446 310
L 446 310
L 446 310
L 446 310
L 446 310
L 447 310
L 447 310
L 447 310
L 447 310
L 447 310
L 447 309
L 447 309
L 447 309
L 447 309
L 447 309
L 447 309
L 447 309
L 447 309
L 447 309
L 447 309
L 447 309
L 447 309
L 447 309
L 447 309
L 447 309
L 447 309
L 447 309
L 447 309
L 447 309
L 447 309
L 447 308
L 447 308
L 447 308
L 447 308
L 447 308
L 447 308
L 447 308
L 447 308
L 447 308
L 447 308
L 447 308
L 447 308
L 447 308
L 447 308
L 447 308
L 447 308
L 447 308
L 447 308
L 447 308
L 447 308
L 448 308
L 448 307
L 448 307
L 448 307
L 448 307
L 448 307
L 448 307
L 448 307
L 448 307
L 448 307
L 448 307
L 448 307
L 448 307
L 448 307
L 448 307
L 448 307
L 448 307
L 448 307
L 448 307
L 448 307
L 448 307
L 448 306
L 448 306
L 448 306
L 448 306
L 448 306
L 448 306
L 448 306
L 448 306
L 448 306
L 448 306
L 448 306
L 448 306
L 448 306
L 448 306
L 448 306
L 448 306
L 448 306
L 448 306
L 448 306
L 448 306
L 448 306
L 448 305
L 448 305
L 448 305
L 448 305
L 448 305
L 448 305
L 448 305
L 448 305
L 448 305
L 448 305
L 448 305
L 448 305
L 448 305
L 448 305
L 448 305
L 448 305
L 448 305
L 448 305
L 448 305
L 448 305
L 448 305
L 448 304
L 448 304
L 448 304
L 448 304
L 448 304
L 448 304
L 448 304
L 448 304
L 448 304
L 449 304
L 449 304
L 449 304
L 449 304
L 449 304
L 449 304
L 449 304
L 449 304
L 449 304
L 449 304
L 449 304
L 449 303
L 449 303
L 449 303
L 449 303
L 449 303
L 449 303
L 449 303
L 449 303
L 449 303
L 449 303
L 449 303
L 449 303
L 449 303
L 449 303
L 449 303
L 449 303
L 449 303
L 449 303
L 449 303
L 449 303
L 449 303
L 449 302
L 449 302
L 449 302
L 449 302
L 449 302
L 449 302
L 449 302
L 449 302
L 449 302
L 449 302
L 449 302
L 449 302
L 450 302
L 450 302
L 450 302
L 450 302
L 450 302
L 450 302
L 450 302
L 450 302
L 450 301
L 450 301
L 450 301
L 450 301
L 450 301
L 450 301
L 450 301
L 450 301
L 450 301
L 450 301
L 450 301
L 450 301
L 450 301
L 450 301
L 450 301
L 450 301
L 450 301
L 450 301
L 450 301
L 450 301
L 450 301
L 450 300
L 450 300
L 450 300
L 450 300
L 450 300
L 450 300
L 450 300
L 450 300
L 450 300
L 450 300
L 451 300
L 451 300
L 451 300
L 451 300
L 451 300
L 451 300
L 451 300
L 451 300
L 451 300
L 451 300
L 451 300
L 451 299
L 451 299
L 451 299
L 451 299
L 451 299
L 451 299
L 451 299
L 451 299
L 451 299
L 451 299
L 451 299
L 451 299
L 451 299
L 452 299
L 452 299
L 452 299
L 452 299
L 452 299
L 452 299
L 452 299
L 452 298
L 452 298
L 452 298
L 452 298
L 452 298
L 452 298
L 452 298
L 452 298
L 452 298
L 452 298
L 452 298
L 452 298
L 452 298
L 452 298
L 453 298
L 453 298
L 453 298
L 453 298
L 453 298
L 453 298
L 453 298
L 453 297
L 453 297
L 453 297
L 453 297
L 453 297
L 453 297
L 453 297
L 453 297
L 453 297
L 453 297
L 453 297
L 453 297
L 454 297
L 454 297
L 454 297
L 454 297
L 455 297
L 457 297
L 457 297
L 457 297
L 457 296
L 457 296
L 458 296
L 458 296
L 458 296
L 458 296
L 458 296
L 458 296
L 458 296
L 458 296
L 458 296
L 458 296
L 458 296
L 458 296
L 458 296
L 458 296
L 458 296
L 458 296
L 458 296
L 458 296
L 458 296
L 458 295
L 458 295
L 458 295
L 458 295
L 458 295
L 458 295
L 458 295
L 458 295
L 458 295
L 458 295
L 458 295
L 458 295
L 458 295
L 458 295
L 458 295
L 458 295
L 458 295
L 458 295
L 458 295
L 458 295
L 458 294
L 458 294
L 458 294
L 458 294
L 458 294
L 458 294
L 458 294
L 458 294
L 458 294
L 458 294
L 458 294
L 458 294
L 458 294
L 458 294
L 458 294
L 458 294
L 458 294
L 458 294
L 459 294
L 459 294
L 459 294
L 459 293
L 459 293
L 459 293
L 459 293
L 459 293
L 459 293
L 459 293
L 459 293
L 459 293
L 459 293
L 459 293
L 459 293
L 459 293
L 459 293
L 459 293
L 459 293
L 459 293
L 459 293
L 459 293
L 459 293
L 459 293
L 459 292
L 459 292
L 459 292
L 459 292
L 459 292
L 459 292
L 459 292
L 459 292
L 459 292
L 459 292
L 459 292
L 459 292
L 459 292
L 459 292
L 459 292
L 459 292
L 459 292
L 459 292
L 459 292
L 459 292
L 459 291
L 459 291
L 459 291
L 459 291
L 459 291
L 459 291
L 459 291
L 459 291
L 459 291
L 459 291
L 459 291
L 459 291
L 459 291
L 459 291
L 459 291
L 459 291
L 459 291
L 459 291
L 459 291
L 459 291
L 459 291
L 459 290
L 459 290
L 459 290
L 459 290
L 459 290
L 459 290
L 459 290
L 459 290
L 459 290
L 459 290
L 459 290
L 459 290
L 459 290
L 459 290
L 460 290
L 460 290
L 460 290
L 460 290
L 460 290
L 460 290
L 460 289
L 460 289
L 460 289
L 460 289
L 460 289
L 460 289
L 460 289
L 460 289
L 460 289
L 460 289
L 460 289
L 460 289
L 460 289
L 460 289
L 460 289
L 460 289
L 460 289
L 460 289
L 460 289
L 460 289
L 460 289
L 460 288
L 460 288
L 460 288
L 460 288
L 461 288
L 461 288
L 461 288
L 461 288
L 461 288
L 461 288
L 461 288
L 461 288
L 461 288
L 461 288
L 461 288
L 461 288
L 461 288
L 461 288
L 461 288
L 461 288
L 461 288
L 461 287
L 461 287
L 461 287
L 461 287
L 461 287
L 461 287
L 461 287
L 461 287
L 461 287
L 461 287
L 461 287
L 461 287
L 461 287
L 461 287
L 461 287
L 461 287
L 461 287
L 461 287
L 461 287
L 461 287
L 461 286
L 461 286
L 461 286
L 461 286
L 461 286
L 461 286
L 461 286
L 461 286
L 461 286
L 462 286
L 462 286
L 462 286
L 462 286
L 462 286
L 462 286
L 462 286
L 462 286
L 462 286
L 462 286
L 462 286
L 462 286
L 462 285
L 462 285
L 462 285
L 462 285
L 462 285
L 462 285
L 462 285
L 462 285
L 462 285
L 462 285
L 462 285
L 462 285
L 462 285
L 462 285
L 462 285
L 462 285
L 462 285
L 462 285
L 462 285
L 462 285
L 462 284
L 462 284
L 462 284
L 462 284
L 462 284
L 462 284
L 462 284
L 462 284
L 462 284
L 462 284
L 462 284
L 462 284
L 462 284
L 462 284
L 462 284
L 462 284
L 462 284
L 462 284
L 462 284
L 462 284
L 462 284
L 462 283
L 462 283
L 462 283
L 462 283
L 462 283
L 462 283
L 463 283
L 463 283
L 463 283
L 463 283
L 463 283
L 463 283
L 463 283
L 463 283
L 463 283
L 463 283
L 463 283
L 463 283
L 463 283
L 463 283
L 463 283
L 463 282
L 463 282
L 463 282
L 463 282
L 463 282
L 463 282
L 463 282
L 463 282
L 463 282
L 463 282
L 463 282
L 463 282
L 463 282
L 463 282
L 463 282
L 463 282
L 463 282
L 463 282
L 463 282
L 463 282
L 463 281
L 463 281
L 463 281
L 463 281
L 463 281
L 463 281
L 463 281
L 463 281
L 463 281
L 463 281
L 463 281
L 463 281
L 463 281
L 463 281
L 463 281
L 463 281
L 463 281
L 463 281
L 463 281
L 463 281
L 463 281
L 463 280
L 463 280
L 463 280
L 464 280
L 464 280
L 464 280
L 464 280
L 464 280
L 464 280
L 464 280
L 464 280
L 464 280
L 464 280
L 464 280
L 464 280
L 464 280
L 464 280
L 464 280
L 464 280
L 464 280
L 464 279
L 464 279
L 464 279
L 464 279
L 464 279
L 464 279
L 464 279
L 464 279
L 464 279
L 464 279
L 464 279
L 464 279
L 464 279
L 464 279
L 464 279
L 465 279
L 465 279
L 465 279
L 465 279
L 465 279
L 465 279
L 465 278
L 465 278
L 465 278
L 465 278
L 465 278
L 465 278
L 465 278
L 465 278
L 465 278
L 465 278
L 465 278
L 465 278
L 465 278
L 465 278
L 465 278
L 465 278
L 465 278
L 465 278
L 465 278
L 465 278
L 465 277
L 465 277
L 465 277
L 465 277
L 465 277
L 465 277
L 465 277
L 465 277
L 465 277
L 465 277
L 465 277
L 465 277
L 466 277
L 466 277
L 466 277
L 466 277
L 466 277
L 466 277
L 466 277
L 466 277
L 466 277
L 466 276
L 466 276
L 466 276
L 466 276
L 466 276
L 466 276
L 466 276
L 466 276
L 466 276
L 466 276
L 466 276
L 466 276
L 466 276
L 466 276
L 466 276
L 467 276
L 467 276
L 467 276
L 467 276
L 467 276
L 467 276
L 467 275
L 468 275
L 468 275
L 468 275
L 468 275
L 469 275
L 471 275
L 471 275
L 471 275
L 471 275
L 471 275
L 471 275
L 471 275
L 471 275
L 471 275
L 471 275
L 471 275
L 471 275
L 471 275
L 471 275
L 471 274
L 471 274
L 471 274
L 471 274
L 471 274
L 471 274
L 471 274
L 471 274
L 471 274
L 471 274
L 471 274
L 471 274
L 471 274
L 471 274
L 471 274
L 471 274
L 471 274
L 471 274
L 471 274
L 471 274
L 471 274
L 471 273
L 471 273
L 471 273
L 471 273
L 471 273
L 471 273
L 471 273
L 471 273
L 471 273
L 471 273
L 472 273
L 472 273
L 472 273
L 472 273
L 472 273
L 472 273
L 472 273
L 472 273
L 472 273
L 472 273
L 472 272
L 472 272
L 472 272
L 472 272
L 472 272
L 472 272
L 472 272
L 472 272
L 472 272
L 472 272
L 472 272
L 472 272
L 472 272
L 472 272
L 472 272
L 472 272
L 472 272
L 472 272
L 472 272
L 472 272
L 472 272
L 472 271
L 472 271
L 472 271
L 472 271
L 472 271
L 472 271
L 472 271
L 472 271
L 472 271
L 472 271
L 472 271
L 472 271
L 472 271
L 472 271
L 472 271
L 472 271
L 472 271
L 472 271
L 472 271
L 472 271
L 472 271
L 472 270
L 472 270
L 472 270
L 472 270
L 472 270
L 472 270
L 472 270
L 472 270
L 472 270
L 472 270
L 472 270
L 472 270
L 472 270
L 472 270
L 472 270
L 472 270
L 472 270
L 472 270
L 472 270
L 472 270
L 472 269
L 472 269
L 472 269
L 472 269
L 472 269
L 472 269
L 473 269
L 473 269
L 473 269
L 473 269
L 473 269
L 473 269
L 473 269
L 473 269
L 473 269
L 473 269
L 473 269
L 473 269
L 473 269
L 473 269
L 473 269
L 473 268
L 473 268
L 473 268
L 473 268
L 473 268
L 474 268
L 474 268
L 474 268
L 474 268
L 474 268
L 474 268
L 474 268
L 474 268
L 474 268
L 474 268
L 474 268
L 474 268
L 474 268
L 474 268
L 474 268
L 474 267
L 474 267
L 474 267
L 474 267
L 474 267
L 474 267
L 474 267
L 474 267
L 474 267
L 474 267
L 474 267
L 474 267
L 474 267
L 474 267
L 474 267
L 474 267
L 474 267
L 474 267
L 474 267
L 474 267
L 474 267
L 474 266
L 474 266
L 474 266
L 474 266
L 474 266
L 474 266
L 474 266
L 474 266
L 474 266
L 474 266
L 474 266
L 474 266
L 475 266
L 475 266
L 475 266
L 475 266
L 475 266
L 475 266
L 475 266
L 475 266
L 475 266
L 475 265
L 475 265
L 475 265
L 475 265
L 475 265
L 475 265
L 475 265
L 475 265
L 475 265
L 475 265
L 475 265
L 475 265
L 475 265
L 475 265
L 475 265
L 475 265
L 475 265
L 475 265
L 475 265
L 475 265
L 475 264
L 475 264
L 475 264
L 475 264
L 475 264
L 475 264
L 475 264
L 475 264
L 475 264
L 475 264
L 475 264
L 475 264
L 475 264
L 475 264
L 475 264
L 475 264
L 475 264
L 476 264
L 476 264
L 476 264
L 476 264
L 476 263
L 476 263
L 476 263
L 476 263
L 476 263
L 476 263
L 476 263
L 476 263
L 476 263
L 476 263
L 476 263
L 476 263
L 476 263
L 476 263
L 476 263
L 476 263
L 476 263
L 476 263
L 476 263
L 476 263
L 476 262
L 476 262
L 476 262
L 476 262
L 476 262
L 476 262
L 476 262
L 476 262
L 476 262
L 476 262
L 476 262
L 476 262
L 476 262
L 476 262
L 476 262
L 476 262
L 477 262
L 477 262
L 477 262
L 477 262
L 477 262
L 477 261
L 477 261
L 477 261
L 477 261
L 477 261
L 477 261
L 477 261
L 477 261
L 477 261
L 477 261
L 477 261
L 477 261
L 477 261
L 477 261
L 477 261
L 477 261
L 477 261
L 477 261
L 477 261
L 477 261
L 478 260
L 478 260
L 478 260
L 478 260
L 478 260
L 478 260
L 478 260
L 478 260
L 478 260
L 478 260
L 478 260
L 478 260
L 478 260
L 478 260
L 478 260
L 478 260
L 478 260
L 478 260
L 478 260
L 478 260
L 478 260
L 478 259
L 478 259
L 479 259
L 479 259
L 479 259
L 479 259
L 479 259
L 479 259
L 479 259
L 479 259
L 479 259
L 479 259
L 479 259
L 479 259
L 479 259
L 479 259
L 479 259
L 479 259
L 479 259
L 479 259
L 479 259
L 479 258
L 479 258
L 479 258
L 480 258
L 480 258
L 480 258
L 480 258
L 480 258
L 480 258
L 481 258
L 483 258
L 484 258
L 484 258
L 484 258
L 484 258
L 484 258
L 484 258
L 484 258
L 484 258
L 484 258
L 484 257
L 484 257
L 484 257
L 484 257
L 484 257
L 484 257
L 484 257
L 485 257
L 485 257
L 485 257
L 485 257
L 485 257
L 485 257
L 485 257
L 485 257
L 485 257
L 485 257
L 485 257
L 485 257
L 485 257
L 485 257
L 485 256
L 485 256
L 485 256
L 485 256
L 485 256
L 485 256
L 485 256
L 485 256
L 485 256
L 485 256
L 485 256
L 485 256
L 485 256
L 485 256
L 485 256
L 485 256
L 485 256
L 485 256
L 485 256
L 485 256
L 485 255
L 485 255
L 485 255
L 485 255
L 485 255
L 485 255
L 485 255
L 485 255
L 485 255
L 485 255
L 485 255
L 485 255
L 485 255
L 485 255
L 485 255
L 485 255
L 485 255
L 485 255
L 485 255
L 485 255
L 485 255
L 485 254
L 485 254
L 486 254
L 486 254
L 486 254
L 486 254
L 486 254
L 486 254
L 486 254
L 486 254
L 486 254
L 486 254
L 486 254
L 486 254
L 486 254
L 486 254
L 486 254
L 486 254
L 486 254
L 486 254
L 486 254
L 486 253
L 486 253
L 487 253
L 487 253
L 487 253
L 487 253
L 487 253
L 487 253
L 487 253
L 487 253
L 487 253
L 487 253
L 487 253
L 487 253
L 487 253
L 487 253
L 487 253
L 487 253
L 487 253
L 487 253
L 487 252
L 487 252
L 487 252
L 487 252
L 487 252
L 487 252
L 487 252
L 488 252
L 488 252
L 488 252
L 488 252
L 488 252
L 488 252
L 488 252
L 488 252
L 488 252
L 488 252
L 488 252
L 488 252
L 488 252
L 488 252
L 488 251
L 488 251
L 488 251
L 488 251
L 488 251
L 488 251
L 488 251
L 488 251
L 488 251
L 488 251
L 488 251
L 488 251
L 488 251
L 488 251
L 488 251
L 488 251
L 488 251
L 488 251
L 488 251
L 488 251
L 488 250
L 489 250
L 489 250
L 489 250
L 489 250
L 489 250
L 489 250
L 489 250
L 489 250
L 489 250
L 489 250
L 489 250
L 489 250
L 489 250
L 489 250
L 489 250
L 489 250
L 489 250
L 489 250
L 489 250
L 489 250
L 489 249
L 489 249
L 489 249
L 489 249
L 489 249
L 489 249
L 489 249
L 489 249
L 489 249
L 489 249
L 489 249
L 489 249
L 489 249
L 489 249
L 489 249
L 490 249
L 490 249
L 490 249
L 490 249
L 490 249
L 490 249
L 490 248
L 490 248
L 490 248
L 490 248
L 490 248
L 490 248
L 490 248
L 490 248
L 490 248
L 490 248
L 490 248
L 490 248
L 491 248
L 491 248
L 491 248
L 491 248
L 491 248
L 491 248
L 491 248
L 491 248
L 491 247
L 491 247
L 491 247
L 491 247
L 491 247
L 491 247
L 491 247
L 491 247
L 491 247
L 492 247
L 492 247
L 492 247
L 492 247
L 492 247
L 492 247
L 492 247
L 492 247
L 492 247
L 492 247
L 492 247
L 493 247
L 493 246
L 493 246
L 493 246
L 493 246
L 493 246
L 493 246
L 494 246
L 494 246
L 494 246
L 494 246
L 494 246
L 497 246
L 497 246
L 497 246
L 497 246
L 497 246
L 497 246
L 498 246
L 498 246
L 498 246
L 498 245
L 498 245
L 498 245
L 498 245
L 498 245
L 498 245
L 498 245
L 498 245
L 498 245
L 498 245
L 498 245
L 498 245
L 498 245
L 498 245
L 498 245
L 498 245
L 498 245
L 498 245
L 498 245
L 498 245
L 498 245
L 498 244
L 498 244
L 498 244
L 498 244
L 498 244
L 498 244
L 498 244
L 498 244
L 498 244
L 498 244
L 498 244
L 498 244
L 498 244
L 498 244
L 498 244
L 498 244
L 498 244
L 498 244
L 498 244
L 498 244
L 498 243
L 498 243
L 498 243
L 498 243
L 498 243
L 498 243
L 499 243
L 499 243
L 499 243
L 499 243
L 499 243
L 499 243
L 499 243
L 499 243
L 499 243
L 499 243
L 499 243
L 499 243
L 499 243
L 499 243
L 499 243
L 499 242
L 499 242
L 499 242
L 499 242
L 499 242
L 499 242
L 499 242
L 499 242
L 499 242
L 499 242
L 499 242
L 499 242
L 499 242
L 499 242
L 499 242
L 500 242
L 500 242
L 500 242
L 500 242
L 500 242
L 500 242
L 500 241
L 500 241
L 500 241
L 500 241
L 500 241
L 500 241
L 500 241
L 500 241
L 500 241
L 500 241
L 500 241
L 500 241
L 500 241
L 500 241
L 500 241
L 500 241
L 500 241
L 500 241
L 500 241
L 500 241
L 500 240
L 500 240
L 500 240
L 500 240
L 500 240
L 500 240
L 500 240
L 500 240
L 500 240
L 500 240
L 501 240
L 501 240
L 501 240
L 501 240
L 501 240
L 501 240
L 501 240
L 501 240
L 501 240
L 501 240
L 501 240
L 501 239
L 501 239
L 501 239
L 501 239
L 501 239
L 501 239
L 501 239
L 501 239
L 501 239
L 501 239
L 501 239
L 501 239
L 501 239
L 501 239
L 501 239
L 501 239
L 501 239
L 501 239
L 501 239
L 501 239
L 501 238
L 501 238
L 501 238
L 501 238
L 501 238
L 501 238
L 501 238
L 501 238
L 501 238
L 501 238
L 501 238
L 501 238
L 501 238
L 501 238
L 502 238
L 502 238
L 502 238
L 502 238
L 502 238
L 502 238
L 502 238
L 502 237
L 502 237
L 502 237
L 502 237
L 502 237
L 502 237
L 502 237
L 502 237
L 502 237
L 502 237
L 502 237
L 502 237
L 502 237
L 502 237
L 502 237
L 502 237
L 502 237
L 502 237
L 502 237
L 502 237
L 502 237
L 502 236
L 502 236
L 502 236
L 502 236
L 502 236
L 502 236
L 502 236
L 502 236
L 502 236
L 502 236
L 502 236
L 502 236
L 502 236
L 502 236
L 502 236
L 503 236
L 503 236
L 503 236
L 503 236
L 503 236
L 503 235
L 503 235
L 503 235
L 503 235
L 503 235
L 503 235
L 503 235
L 503 235
L 503 235
L 503 235
L 503 235
L 503 235
L 504 235
L 504 235
L 504 235
L 504 235
L 504 235
L 504 235
L 504 235
L 504 235
L 504 235
L 504 234
L 504 234
L 504 234
L 504 234
L 504 234
L 505 234
L 505 234
L 505 234
L 505 234
L 505 234
L 505 234
L 505 234
L 505 234
L 505 234
L 505 234
L 505 234
L 505 234
L 505 234
L 505 234
L 505 234
L 505 233
L 505 233
L 505 233
L 505 233
L 506 233
L 506 233
L 506 233
L 506 233
L 506 233
L 506 233
L 506 233
L 506 233
L 506 233
L 506 233
L 506 233
L 508 233
L 508 233
L 508 233
L 509 233
L 510 233
L 510 233
L 510 232
L 510 232
L 510 232
L 511 232
L 511 232
L 511 232
L 511 232
L 511 232
L 511 232
L 511 232
L 511 232
L 511 232
L 511 232
L 511 232
L 511 232
L 511 232
L 511 232
L 511 232
L 511 232
L 511 232
L 511 232
L 511 231
L 511 231
L 511 231
L 511 231
L 511 231
L 511 231
L 511 231
L 511 231
L 511 231
L 511 231
L 511 231
L 511 231
L 511 231
L 511 231
L 511 231
L 511 231
L 511 231
L 511 231
L 511 231
L 511 231
L 511 230
L 511 230
L 511 230
L 511 230
L 511 230
L 511 230
L 512 230
L 512 230
L 512 230
L 512 230
L 512 230
L 512 230
L 512 230
L 512 230
L 512 230
L 512 230
L 512 230
L 512 230
L 512 230
L 512 230
L 512 230
L 512 229
L 512 229
L 512 229
L 512 229
L 512 229
L 512 229
L 512 229
L 512 229
L 512 229
L 512 229
L 512 229
L 512 229
L 512 229
L 512 229
L 512 229
L 512 229
L 512 229
L 512 229
L 512 229
L 512 229
L 512 228
L 512 228
L 512 228
L 512 228
L 512 228
L 512 228
L 512 228
L 512 228
L 512 228
L 512 228
L 512 228
L 512 228
L 512 228
L 512 228
L 512 228
L 512 228
L 512 228
L 512 228
L 512 228
L 512 228
L 513 228
L 513 227
L 513 227
L 513 227
L 513 227
L 513 227
L 513 227
L 513 227
L 513 227
L 513 227
L 513 227
L 513 227
L 513 227
L 513 227
L 513 227
L 513 227
L 513 227
L 513 227
L 513 227
L 513 227
L 513 227
L 513 226
L 513 226
L 513 226
L 513 226
L 513 226
L 513 226
L 513 226
L 513 226
L 514 226
L 514 226
L 514 226
L 514 226
L 514 226
L 514 226
L 514 226
L 514 226
L 514 226
L 514 226
L 514 226
L 514 226
L 514 226
L 514 225
L 514 225
L 514 225
L 514 225
L 514 225
L 514 225
L 514 225
L 514 225
L 514 225
L 514 225
L 514 225
L 514 225
L 514 225
L 514 225
L 514 225
L 514 225
L 514 225
L 514 225
L 514 225
L 514 225
L 514 225
L 514 224
L 514 224
L 514 224
L 514 224
L 514 224
L 514 224
L 514 224
L 514 224
L 514 224
L 514 224
L 514 224
L 514 224
L 514 224
L 514 224
L 515 224
L 515 224
L 515 224
L 515 224
L 515 224
L 515 224
L 515 223
L 515 223
L 515 223
L 515 223
L 515 223
L 515 223
L 515 223
L 515 223
L 515 223
L 515 223
L 515 223
L 515 223
L 515 223
L 515 223
L 515 223
L 515 223
L 515 223
L 515 223
L 515 223
L 515 223
L 515 223
L 515 222
L 515 222
L 515 222
L 515 222
L 515 222
L 515 222
L 515 222
L 515 222
L 515 222
L 515 222
L 515 222
L 515 222
L 515 222
L 515 222
L 515 222
L 516 222
L 516 222
L 516 222
L 516 222
L 516 222
L 516 221
L 516 221
L 516 221
L 516 221
L 516 221
L 516 221
L 516 221
L 516 221
L 516 221
L 516 221
L 516 221
L 516 221
L 516 221
L 516 221
L 517 221
L 517 221
L 517 221
L 517 221
L 517 221
L 517 221
L 517 221
L 517 220
L 517 220
L 517 220
L 517 220
L 517 220
L 517 220
L 518 220
L 518 220
L 518 220
L 518 220
L 518 220
L 518 220
L 518 220
L 518 220
L 518 220
L 518 220
L 518 220
L 518 220
L 518 220
L 518 220
L 519 220
L 519 219
L 519 219
L 519 219
L 519 219
L 519 219
L 519 219
L 519 219
L 520 219
L 520 219
L 520 219
L 522 219
L 522 219
L 522 219
L 523 219
L 523 219
L 523 219
L 524 219
L 524 219
L 524 219
L 524 219
L 524 218
L 524 218
L 524 218
L 525 218
L 525 218
L 525 218
L 525 218
L 525 218
L 525 218
L 525 218
L 525 218
L 525 218
L 525 218
L 525 218
L 525 218
L 525 218
L 525 218
L 525 218
L 525 218
L 526 218
L 526 218
L 526 217
L 526 217
L 526 217
L 526 217
L 526 217
L 526 217
L 526 217
L 527 217
L 527 217
L 527 217
L 527 217
L 527 217
L 527 217
L 527 217
L 528 217
L 528 217
L 528 217
L 528 217
L 528 217
L 528 217
L 528 216
L 528 216
L 528 216
L 528 216
L 529 216
L 529 216
L 529 216
L 530 216
L 530 216
L 530 216
L 530 216
L 530 216
L 530 216
L 530 216
L 530 216
L 531 216
L 531 216
L 531 216
L 531 216
L 531 216
L 531 216
L 531 215
L 531 215
L 531 215
L 532 215
L 532 215
L 532 215
L 532 215
L 532 215
L 532 215
L 532 215
L 533 215
L 533 215
L 533 215
L 534 215
L 534 215
L 534 215
L 535 215
L 535 215
L 535 215
L 536 215
L 536 215
L 536 214
L 537 214
L 537 214
L 537 214
L 537 214
L 538 214
L 538 214
L 538 214
L 538 214
L 538 214
L 538 214
L 538 214
L 538 214
L 538 214
L 538 214
L 539 214
L 539 214
L 539 214
L 539 214
L 539 214
L 539 213
L 540 213
L 540 213
L 540 213
L 540 213
L 540 213
L 540 213
L 540 213
L 540 213
L 541 213
L 541 213
L 541 213
L 541 213
L 542 213
L 542 213
L 542 213
L 542 213
L 542 213
L 542 213
L 542 213
L 543 213
L 543 212
L 543 212
L 543 212
L 544 212
L 544 212
L 544 212
L 544 212
L 544 212
L 544 212
L 544 212
L 544 212
L 545 212
L 545 212
L 545 212
L 545 212
L 545 212
L 545 212
L 545 212
L 545 212
L 545 212
L 545 211
L 546 211
L 546 211
L 546 211
L 546 211
L 547 211
L 547 211
L 547 211
L 548 211
L 549 211
L 550 211
L 550 211
L 550 211
L 550 211
L 551 211
L 551 211
L 551 211
L 551 211
L 551 211
L 551 211
L 551 211
L 551 210
L 552 210
L 552 210
L 552 210
L 552 210
L 552 210
L 553 210
L 553 210
L 553 210
L 553 210
L 553 210
L 553 210
L 553 210
L 553 210
L 553 210
L 553 210
L 553 210
L 553 210
L 554 210
L 554 210
L 554 209
L 554 209
L 554 209
L 555 209
L 555 209
L 555 209
L 555 209
L 555 209
L 555 209
L 555 209
L 555 209
L 555 209
L 555 209
L 555 209
L 556 209
L 556 209
L 556 209
L 556 209
L 556 209
L 556 209
L 556 209
L 556 208
L 556 208
L 556 208
L 556 208
L 556 208
L 556 208
L 556 208
L 556 208
L 557 208
L 557 208
L 557 208
L 557 208
L 557 208
L 557 208
L 557 208
L 557 208
L 558 208
L 558 208
L 558 208
L 558 208
L 558 208
L 558 207
L 558 207
L 558 207
L 558 207
L 559 207
L 559 207
L 559 207
L 559 207
L 560 207
L 560 207
L 563 207
L 563 207
L 563 207
L 563 207
L 563 207
L 564 207
L 564 207
L 564 207
L 564 207
L 564 207
L 564 206
L 564 206
L 564 206
L 564 206
L 564 206
L 564 206
L 564 206
L 564 206
L 564 206
L 564 206
L 564 206
L 564 206
L 564 206
L 564 206
L 564 206
L 564 206
L 564 206
L 564 206
L 564 206
L 564 206
L 564 206
L 564 205
L 564 205
L 564 205
L 564 205
L 564 205
L 564 205
L 564 205
L 564 205
L 564 205
L 564 205
L 564 205
L 564 205
L 564 205
L 564 205
L 564 205
L 564 205
L 564 205
L 564 205
L 564 205
L 564 205
L 564 204
L 565 204
L 565 204
L 565 204
L 565 204
L 565 204
L 565 204
L 565 204
L 565 204
L 565 204
L 565 204
L 565 204
L 565 204
L 565 204
L 565 204
L 565 204
L 565 204
L 565 204
L 565 204
L 565 204
L 565 204
L 565 203
L 565 203
L 566 203
L 566 203
L 566 203
L 566 203
L 566 203
L 566 203
L 566 203
L 566 203
L 566 203
L 566 203
L 566 203
L 566 203
L 566 203
L 566 203
L 566 203
L 566 203
L 566 203
L 566 203
L 566 203
L 566 202
L 566 202
L 566 202
L 566 202
L 566 202
L 566 202
L 566 202
L 566 202
L 566 202
L 566 202
L 566 202
L 566 202
L 566 202
L 566 202
L 567 202
L 567 202
L 567 202
L 567 202
L 567 202
L 567 202
L 567 201
L 567 201
L 567 201
L 567 201
L 567 201
L 567 201
L 567 201
L 567 201
L 567 201
L 567 201
L 567 201
L 567 201
L 567 201
L 567 201
L 567 201
L 567 201
L 567 201
L 567 201
L 567 201
L 567 201
L 567 201
L 567 200
L 567 200
L 568 200
L 568 200
L 568 200
L 568 200
L 568 200
L 568 200
L 568 200
L 568 200
L 568 200
L 568 200
L 568 200
L 568 200
L 568 200
L 568 200
L 568 200
L 568 200
L 568 200
L 568 200
L 568 199
L 569 199
L 569 199
L 569 199
L 569 199
L 569 199
L 569 199
L 569 199
L 569 199
L 569 199
L 569 199
L 569 199
L 569 199
L 569 199
L 569 199
L 570 199
L 570 199
L 570 199
L 570 199
L 570 199
L 570 199
L 570 198
L 570 198
L 570 198
L 570 198
L 570 198
L 570 198
L 570 198
L 570 198
L 570 198
L 570 198
L 570 198
L 570 198
L 571 198
L 571 198
L 571 198
L 571 198
L 571 198
L 571 198
L 571 198
L 571 198
L 571 198
L 571 197
L 571 197
L 571 197
L 571 197
L 571 197
L 571 197
L 571 197
L 571 197
L 571 197
L 571 197
L 571 197
L 571 197
L 572 197
L 572 197
L 572 197
L 572 197
L 572 197
L 572 197
L 572 197
L 572 197
L 573 196
L 573 196
L 573 196
L 573 196
L 574 196
L 575 196
L 576 196
L 576 196
L 576 196
L 576 196
L 576 196
L 576 196
L 576 196
L 576 196
L 576 196
L 576 196
L 576 196
L 577 196
L 577 196
L 577 196
L 577 196
L 577 195
L 577 195
L 577 195
L 577 195
L 577 195
L 577 195
L 577 195
L 577 195
L 577 195
L 577 195
L 577 195
L 577 195
L 577 195
L 577 195
L 577 195
L 577 195
L 577 195
L 577 195
L 577 195
L 577 195
L 577 194
L 577 194
L 577 194
L 577 194
L 577 194
L 577 194
L 577 194
L 577 194
L 577 194
L 577 194
L 577 194
L 577 194
L 577 194
L 577 194
L 577 194
L 577 194
L 577 194
L 577 194
L 577 194
L 577 194
L 577 194
L 577 193
L 577 193
L 577 193
L 578 193
L 578 193
L 578 193
L 578 193
L 578 193
L 578 193
L 578 193
L 578 193
L 578 193
L 578 193
L 578 193
L 578 193
L 578 193
L 578 193
L 578 193
L 578 193
L 578 193
L 578 192
L 578 192
L 578 192
L 578 192
L 579 192
L 579 192
L 579 192
L 579 192
L 579 192
L 579 192
L 579 192
L 579 192
L 579 192
L 579 192
L 579 192
L 579 192
L 579 192
L 579 192
L 579 192
L 579 192
L 579 192
L 579 191
L 579 191
L 579 191
L 579 191
L 580 191
L 580 191
L 580 191
L 580 191
L 580 191
L 580 191
L 580 191
L 580 191
L 580 191
L 580 191
L 580 191
L 580 191
L 580 191
L 580 191
L 580 191
L 580 191
L 580 191
L 580 190
L 580 190
L 580 190
L 580 190
L 580 190
L 580 190
L 580 190
L 580 190
L 580 190
L 580 190
L 580 190
L 580 190
L 580 190
L 580 190
L 580 190
L 580 190
L 580 190
L 580 190
L 580 190
L 581 190
L 581 189
L 581 189
L 581 189
L 581 189
L 581 189
L 581 189
L 581 189
L 581 189
L 581 189
L 581 189
L 581 189
L 581 189
L 581 189
L 581 189
L 581 189
L 581 189
L 581 189
L 581 189
L 581 189
L 581 189
L 581 189
L 581 188
L 581 188
L 581 188
L 581 188
L 581 188
L 581 188
L 581 188
L 581 188
L 581 188
L 581 188
L 581 188
L 581 188
L 581 188
L 581 188
L 581 188
L 581 188
L 581 188
L 581 188
L 581 188
L 581 188
L 581 187
L 581 187
L 581 187
L 581 187
L 581 187
L 581 187
L 581 187
L 581 187
L 582 187
L 582 187
L 582 187
L 582 187
L 582 187
L 582 187
L 582 187
L 582 187
L 582 187
L 582 187
L 582 187
L 582 187
L 582 187
L 582 186
L 582 186
L 582 186
L 582 186
L 582 186
L 582 186
L 582 186
L 582 186
L 582 186
L 582 186
L 582 186
L 582 186
L 582 186
L 582 186
L 582 186
L 583 186
L 583 186
L 583 186
L 583 186
L 583 186
L 583 186
L 583 185
L 583 185
L 583 185
L 583 185
L 583 185
L 583 185
L 583 185
L 583 185
L 583 185
L 583 185
L 583 185
L 583 185
L 583 185
L 584 185
L 584 185
L 584 185
L 584 185
L 584 185
L 584 185
L 584 185
L 584 184
L 584 184
L 584 184
L 584 184
L 584 184
L 584 184
L 584 184
L 584 184
L 584 184
L 584 184
L 584 184
L 584 184
L 584 184
L 584 184
L 584 184
L 584 184
L 585 184
L 585 184
L 585 184
L 585 184
L 585 184
L 585 183
L 585 183
L 585 183
L 585 183
L 585 183
L 585 183
L 586 183
L 586 183
L 586 183
L 587 183
L 588 183
L 588 183
L 589 183
L 589 183
L 589 183
L 589 183
L 589 183
L 589 183
L 590 183
L 590 183
L 590 182
L 590 182
L 590 182
L 590 182
L 590 182
L 590 182
L 590 182
L 590 182
L 590 182
L 590 182
L 590 182
L 590 182
L 590 182
L 590 182
L 590 182
L 590 182
L 590 182
L 590 182
L 590 182
L 590 182
L 590 182
L 590 181
L 590 181
L 590 181
L 590 181
L 590 181
L 591 181
L 591 181
L 591 181
L 591 181
L 591 181
L 591 181
L 591 181
L 591 181
L 591 181
L 591 181
L 591 181
L 591 181
L 591 181
L 591 181
L 591 181
L 591 181
L 591 180
L 591 180
L 591 180
L 591 180
L 591 180
L 591 180
L 591 180
L 591 180
L 591 180
L 591 180
L 591 180
L 591 180
L 591 180
L 591 180
L 591 180
L 592 180
L 592 180
L 592 180
L 592 180
L 592 180
L 592 179
L 592 179
L 592 179
L 592 179
L 592 179
L 592 179
L 592 179
L 592 179
L 592 179
L 593 179
L 593 179
L 593 179
L 593 179
L 593 179
L 593 179
L 593 179
L 593 179
L 593 179
L 593 179
L 593 179
L 593 179
L 593 178
L 593 178
L 593 178
L 593 178
L 593 178
L 593 178
L 593 178
L 593 178
L 593 178
L 593 178
L 593 178
L 593 178
L 593 178
L 594 178
L 594 178
L 594 178
L 594 178
L 594 178
L 594 178
L 594 178
L 594 177
L 594 177
L 594 177
L 594 177
L 594 177
L 594 177
L 594 177
L 594 177
L 594 177
L 594 177
L 594 177
L 594 177
L 594 177
L 594 177
L 594 177
L 594 177
L 594 177
L 594 177
L 594 177
L 594 177
L 594 177
L 594 176
L 594 176
L 594 176
L 594 176
L 594 176
L 594 176
L 595 176
L 595 176
L 595 176
L 595 176
L 595 176
L 595 176
L 595 176
L 595 176
L 595 176
L 595 176
L 595 176
L 595 176
L 595 176
L 595 176
L 595 175
L 595 175
L 595 175
L 595 175
L 595 175
L 596 175
L 596 175
L 596 175
L 596 175
L 596 175
L 596 175
L 596 175
L 596 175
L 596 175
L 597 175
L 597 175
L 597 175
L 597 175
L 597 175
L 597 175
L 597 175
L 597 174
L 597 174
L 597 174
L 597 174
L 597 174
L 597 174
L 597 174
L 597 174
L 597 174
L 597 174
L 597 174
L 597 174
L 598 174
L 598 174
L 598 174
L 598 174
L 598 174
L 599 174
L 599 174
L 599 174
L 600 174
L 600 173
L 601 173
L 601 173
L 601 173
L 601 173
L 602 173
L 603 173
L 603 173
L 603 173
L 603 173
L 603 173
L 603 173
L 603 173
L 603 173
L 603 173
L 603 173
L 603 173
L 603 173
L 603 173
L 603 173
L 603 172
L 604 172
L 604 172
L 604 172
L 604 172
L 604 172
L 604 172
L 604 172
L 604 172
L 604 172
L 604 172
L 604 172
L 604 172
L 604 172
L 604 172
L 604 172
L 604 172
L 604 172
L 604 172
L 604 172
L 604 172
L 604 171
L 605 171
L 605 171
L 605 171
L 605 171
L 605 171
L 605 171
L 605 171
L 605 171
L 606 171
L 606 171
L 606 171
L 606 171
L 606 171
L 606 171
L 606 171
L 606 171
L 606 171
L 606 171
L 606 171
L 606 170
L 606 170
L 607 170
L 607 170
L 607 170
L 607 170
L 607 170
L 607 170
L 607 170
L 607 170
L 607 170
L 607 170
L 608 170
L 608 170
L 608 170
L 608 170
L 608 170
L 608 170
L 609 170
L 609 170
L 609 170
L 609 169
L 609 169
L 609 169
L 609 169
L 609 169
L 609 169
L 609 169
L 609 169
L 609 169
L 609 169
L 610 169
L 610 169
L 610 169
L 610 169
L 610 169
L 610 169
L 610 169
L 610 169
L 610 169
L 610 169
L 610 169
L 610 168
L 611 168
L 611 168
L 611 168
L 611 168
L 611 168
L 611 168
L 611 168
L 612 168
L 612 168
L 616 168
L 616 168
L 617 168
L 617 168
L 617 168
L 617 168
L 617 168
L 617 168
L 618 168
L 618 168
L 618 167
L 618 167
L 618 167
L 618 167
L 618 167
L 618 167
L 618 167
L 619 167
L 619 167
L 619 167
L 619 167
L 619 167
L 619 167
L 620 167
L 620 167
L 620 167
L 620 167
L 620 167
L 620 167
L 620 167
L 620 167
L 620 166
L 620 166
L 621 166
L 621 166
L 621 166
L 621 166
L 621 166
L 621 166
L 621 166
L 621 166
L 621 166
L 621 166
L 621 166
L 621 166
L 622 166
L 622 166
L 622 166
L 622 166
L 622 166
L 622 166
L 622 165
L 622 165
L 622 165
L 623 165
L 623 165
L 623 165
L 623 165
L 623 165
L 623 165
L 623 165
L 623 165
L 623 165
L 623 165
L 623 165
L 623 165
L 623 165
L 624 165
L 624 165
L 624 165
L 624 165
L 624 165
L 624 164
L 624 164
L 624 164
L 624 164
L 624 164
L 624 164
L 625 164
L 625 164
L 625 164
L 625 164
L 625 164
L 625 164
L 625 164
L 625 164
L 626 164
L 626 164
L 627 164
L 627 164
L 627 164
L 628 164
L 629 163
L 629 163
L 629 163
L 629 163
L 629 163
L 629 163
L 629 163
L 629 163
L 629 163
L 629 163
L 629 163
L 629 163
L 629 163
L 629 163
L 629 163
L 629 163
L 629 163
L 629 163
L 629 163
L 629 163
L 630 163
L 630 162
L 630 162
L 630 162
L 630 162
L 630 162
L 630 162
L 630 162
L 630 162
L 630 162
L 630 162
L 630 162
L 630 162
L 630 162
L 630 162
L 630 162
L 630 162
L 630 162
L 630 162
L 630 162
L 630 162
L 630 162
L 630 161
L 631 161
L 631 161
L 631 161
L 631 161
L 631 161
L 631 161
L 631 161
L 631 161
L 631 161
L 631 161
L 631 161
L 631 161
L 631 161
L 631 161
L 631 161
L 632 161
L 632 161
L 632 161
L 632 161
L 632 160
L 632 160
L 632 160
L 632 160
L 632 160
L 632 160
L 632 160
L 632 160
L 632 160
L 632 160
L 632 160
L 632 160
L 632 160
L 632 160
L 633 160
L 633 160
L 633 160
L 633 160
L 633 160
L 633 160
L 633 160
L 633 159
L 633 159
L 633 159
L 633 159
L 633 159
L 633 159
L 633 159
L 633 159
L 633 159
L 633 159
L 634 159
L 634 159
L 634 159
L 634 159
L 634 159
L 634 159
L 634 159
L 634 159
L 634 159
L 634 159
L 634 158
L 634 158
L 634 158
L 634 158
L 634 158
L 634 158
L 634 158
L 635 158
L 635 158
L 635 158
L 635 158
L 635 158
L 635 158
L 635 158
L 635 158
L 635 158
L 635 158
L 635 158
L 636 158
L 636 158
L 636 158
L 636 157
L 636 157
L 636 157
L 636 157
L 636 157
L 636 157
L 636 157
L 636 157
L 636 157
L 637 157
L 637 157
L 637 157
L 637 157
L 637 157
L 637 157
L 637 157
L 637 157
L 638 157
L 638 157
L 638 157
L 638 157
L 640 156
L 642 156
L 642 156
L 642 156
L 642 156
L 642 156
L 642 156
L 642 156
L 643 156
L 643 156
L 643 156
L 643 156
L 643 156
L 643 156
L 643 156
L 643 156
L 643 156
L 643 156
L 643 156
L 643 156
L 643 155
L 643 155
L 643 155
L 643 155
L 643 155
L 643 155
L 643 155
L 643 155
L 644 155
L 644 155
L 644 155
L 644 155
L 644 155
L 644 155
L 644 155
L 644 155
L 644 155
L 644 155
L 644 155
L 644 155
L 644 155
L 645 154
L 645 154
L 645 154
L 645 154
L 645 154
L 645 154
L 645 154
L 645 154
L 645 154
L 645 154
L 645 154
L 645 154
L 645 154
L 645 154
L 645 154
L 645 154
L 646 154
L 646 154
L 646 154
L 646 154
L 646 153
L 646 153
L 646 153
L 646 153
L 646 153
L 646 153
L 646 153
L 646 153
L 646 153
L 646 153
L 646 153
L 646 153
L 647 153
L 647 153
L 647 153
L 647 153
L 647 153
L 647 153
L 647 153
L 647 153
L 647 153
L 647 152
L 647 152
L 647 152
L 647 152
L 647 152
L 647 152
L 647 152
L 647 152
L 647 152
L 647 152
L 647 152
L 647 152
L 647 152
L 647 152
L 647 152
L 647 152
L 647 152
L 647 152
L 647 152
L 647 152
L 648 152
L 648 151
L 648 151
L 648 151
L 648 151
L 648 151
L 648 151
L 648 151
L 648 151
L 648 151
L 648 151
L 648 151
L 649 151
L 649 151
L 649 151
L 649 151
L 649 151
L 649 151
L 649 151
L 649 151
L 649 151
L 649 150
L 649 150
L 649 150
L 649 150
L 649 150
L 649 150
L 649 150
L 649 150
L 649 150
L 649 150
L 650 150
L 650 150
L 650 150
L 650 150
L 650 150
L 650 150
L 650 150
L 650 150
L 650 150
L 650 150
L 650 150
L 650 149
L 651 149
L 651 149
L 651 149
L 651 149
L 651 149
L 652 149
L 652 149
L 654 149
L 655 149
L 655 149
L 656 149
L 656 149
L 656 149
L 656 149
L 656 149
L 656 149
L 656 149
L 656 149
L 656 149
L 656 148
L 656 148
L 656 148
L 656 148
L 656 148
L 656 148
L 656 148
L 656 148
L 656 148
L 656 148
L 656 148
L 656 148
L 656 148
L 656 148
L 656 148
L 656 148
L 656 148
L 656 148
L 657 148
L 657 148
L 657 148
L 657 147
L 657 147
L 657 147
L 657 147
L 657 147
L 657 147
L 657 147
L 657 147
L 657 147
L 657 147
L 657 147
L 657 147
L 657 147
L 657 147
L 657 147
L 657 147
L 657 147
L 657 147
L 657 147
L 658 147
L 658 147
L 658 146
L 658 146
L 658 146
L 658 146
L 658 146
L 658 146
L 658 146
L 658 146
L 658 146
L 658 146
L 658 146
L 658 146
L 659 146
L 659 146
L 659 146
L 659 146
L 659 146
L 659 146
L 659 146
L 659 146
L 659 145
L 659 145
L 659 145
L 659 145
L 659 145
L 659 145
L 659 145
L 659 145
L 659 145
L 659 145
L 659 145
L 659 145
L 659 145
L 659 145
L 659 145
L 659 145
L 659 145
L 659 145
L 660 145
L 660 145
L 660 145
L 660 144
L 660 144
L 660 144
L 660 144
L 660 144
L 660 144
L 660 144
L 660 144
L 660 144
L 660 144
L 660 144
L 660 144
L 660 144
L 660 144
L 661 144
L 661 144
L 661 144
L 661 144
L 661 144
L 661 144
L 661 143
L 661 143
L 662 143
L 662 143
L 662 143
L 662 143
L 662 143
L 662 143
L 662 143
L 663 143
L 663 143
L 663 143
L 663 143
L 663 143
L 663 143
L 663 143
L 663 143
L 663 143
L 663 143
L 663 143
L 663 143
L 663 142
L 663 142
L 663 142
L 664 142
L 664 142
L 664 142
L 664 142
L 664 142
L 664 142
L 664 142
L 664 142
L 664 142
L 664 142
L 664 142
L 664 142
L 665 142
L 665 142
L 667 142
L 668 142
L 668 142
L 668 141
L 668 141
L 668 141
L 668 141
L 668 141
L 668 141
L 668 141
L 668 141
L 668 141
L 668 141
L 668 141
L 668 141
L 669 141
L 669 141
L 669 141
L 669 141
L 669 141
L 669 141
L 669 141
L 669 141
L 669 141
L 669 140
L 669 140
L 669 140
L 669 140
L 669 140
L 669 140
L 669 140
L 669 140
L 669 140
L 669 140
L 669 140
L 669 140
L 669 140
L 669 140
L 669 140
L 669 140
L 669 140
L 669 140
L 669 140
L 669 140
L 669 140
L 669 139
L 669 139
L 669 139
L 669 139
L 669 139
L 669 139
L 669 139
L 669 139
L 669 139
L 669 139
L 669 139
L 669 139
L 669 139
L 669 139
L 669 139
L 669 139
L 669 139
L 669 139
L 669 139
L 669 139
L 669 138
L 669 138
L 669 138
L 669 138
L 669 138
L 669 138
L 669 138
L 669 138
L 670 138
L 670 138
L 670 138
L 670 138
L 670 138
L 670 138
L 670 138
L 670 138
L 670 138
L 670 138
L 670 138
L 670 138
L 670 138
L 670 137
L 670 137
L 670 137
L 670 137
L 670 137
L 670 137
L 670 137
L 670 137
L 670 137
L 670 137
L 670 137
L 670 137
L 670 137
L 670 137
L 670 137
L 670 137
L 670 137
L 670 137
L 670 137
L 671 137
L 671 136
L 671 136
L 671 136
L 671 136
L 671 136
L 671 136
L 671 136
L 671 136
L 671 136
L 671 136
L 671 136
L 671 136
L 671 136
L 671 136
L 671 136
L 671 136
L 671 136
L 671 136
L 672 136
L 672 136
L 672 136
L 672 135
L 672 135
L 672 135
L 672 135
L 672 135
L 672 135
L 672 135
L 672 135
L 672 135
L 672 135
L 672 135
L 672 135
L 672 135
L 672 135
L 672 135
L 672 135
L 672 135
L 672 135
L 672 135
L 672 135
L 672 135
L 672 134
L 672 134
L 672 134
L 672 134
L 672 134
L 672 134
L 672 134
L 672 134
L 672 134
L 672 134
L 672 134
L 672 134
L 672 134
L 672 134
L 672 134
L 672 134
L 672 134
L 672 134
L 672 134
L 672 134
L 672 133
L 672 133
L 672 133
L 672 133
L 672 133
L 672 133
L 673 133
L 673 133
L 673 133
L 673 133
L 673 133
L 673 133
L 673 133
L 673 133
L 673 133
L 673 133
L 673 133
L 673 133
L 673 133
L 673 133
L 673 133
L 673 132
L 673 132
L 673 132
L 673 132
L 673 132
L 673 132
L 673 132
L 673 132
L 673 132
L 673 132
L 673 132
L 673 132
L 673 132
L 673 132
L 673 132
L 673 132
L 673 132
L 673 132
L 674 132
L 674 132
L 674 131
L 674 131
L 674 131
L 674 131
L 674 131
L 674 131
L 674 131
L 674 131
L 674 131
L 674 131
L 674 131
L 674 131
L 674 131
L 674 131
L 674 131
L 674 131
L 674 131
L 675 131
L 675 131
L 675 131
L 675 131
L 675 130
L 675 130
L 675 130
L 675 130
L 675 130
L 675 130
L 675 130
L 675 130
L 675 130
L 675 130
L 675 130
L 675 130
L 675 130
L 675 130
L 675 130
L 675 130
L 675 130
L 675 130
L 675 130
L 676 130
L 676 130
L 676 129
L 676 129
L 676 129
L 676 129
L 676 129
L 676 129
L 676 129
L 676 129
L 676 129
L 676 129
L 676 129
L 676 129
L 676 129
L 676 129
L 676 129
L 676 129
L 676 129
L 676 129
L 677 129
L 677 129
L 677 128
L 677 128
L 677 128
L 677 128
L 677 128
L 677 128
L 678 128
L 678 128
L 678 128
L 678 128
L 678 128
L 678 128
L 678 128
L 679 128
L 679 128
L 679 128
L 679 128
L 679 128
L 681 128
L 681 128
L 681 128
L 682 127
L 682 127
L 682 127
L 682 127
L 682 127
L 682 127
L 682 127
L 682 127
L 682 127
L 682 127
L 682 127
L 682 127
L 682 127
L 682 127
L 682 127
L 682 127
L 682 127
L 682 127
L 682 127
L 682 127
L 682 126
L 682 126
L 682 126
L 682 126
L 682 126
L 682 126
L 683 126
L 683 126
L 683 126
L 683 126
L 683 126
L 683 126
L 683 126
L 683 126
L 683 126
L 683 126
L 683 126
L 683 126
L 683 126
L 683 126
L 683 126
L 683 125
L 683 125
L 683 125
L 683 125
L 683 125
L 683 125
L 683 125
L 683 125
L 683 125
L 683 125
L 684 125
L 684 125
L 684 125
L 684 125
L 684 125
L 684 125
L 684 125
L 684 125
L 684 125
L 684 125
L 684 124
L 684 124
L 684 124
L 684 124
L 684 124
L 684 124
L 684 124
L 684 124
L 685 124
L 685 124
L 685 124
L 685 124
L 685 124
L 685 124
L 685 124
L 685 124
L 685 124
L 685 124
L 685 124
L 685 124
L 685 124
L 685 123
L 685 123
L 685 123
L 685 123
L 685 123
L 685 123
L 685 123
L 685 123
L 685 123
L 685 123
L 685 123
L 685 123
L 685 123
L 685 123
L 685 123
L 685 123
L 685 123
L 685 123
L 685 123
L 686 123
L 686 123
L 686 122
L 686 122
L 686 122
L 686 122
L 686 122
L 686 122
L 686 122
L 686 122
L 686 122
L 686 122
L 686 122
L 686 122
L 686 122
L 686 122
L 686 122
L 686 122
L 686 122
L 686 122
L 686 122
L 686 122
L 686 121
L 686 121
L 686 121
L 686 121
L 686 121
L 687 121
L 687 121
L 687 121
L 687 121
L 687 121
L 687 121
L 687 121
L 687 121
L 687 121
L 687 121
L 687 121
L 687 121
L 687 121
L 687 121
L 687 121
L 688 121
L 688 120
L 688 120
L 688 120
L 688 120
L 688 120
L 688 120
L 688 120
L 688 120
L 689 120
L 689 120
L 689 120
L 689 120
L 689 120
L 689 120
L 689 120
L 689 120
L 689 120
L 690 120
L 690 120
L 690 120
L 690 119
L 690 119
L 690 119
L 690 119
L 690 119
L 690 119
L 690 119
L 690 119
L 690 119
L 691 119
L 691 119
L 692 119
L 692 119
L 692 119
L 692 119
L 694 119
L 695 119
L 695 119
L 696 119
L 696 119
L 696 119
L 696 118
L 696 118
L 696 118
L 696 118
L 696 118
L 696 118
L 696 118
L 696 118
L 697 118
L 697 118
L 697 118
L 697 118
L 698 118
L 698 118
L 698 118
L 698 118
L 698 118
L 698 118
L 698 118
L 698 118
L 698 118
L 698 117
L 699 117
L 699 117
L 699 117
L 699 117
L 699 117
L 699 117
L 699 117
L 699 117
L 699 117
L 699 117
L 700 117
L 700 117
L 700 117
L 700 117
L 700 117
L 700 117
L 701 117
L 701 117
L 701 117
L 702 116
L 702 116
L 702 116
L 702 116
L 703 116
L 703 116
L 703 116
L 704 116
L 704 116
L 704 116
L 704 116
L 705 116
L 705 116
L 706 116
L 708 116
L 708 116
L 709 116
L 709 116
L 710 116
L 710 116
L 710 116
L 710 115
L 710 115
L 711 115
L 711 115
L 711 115
L 711 115
L 711 115
L 711 115
L 712 115
L 712 115
L 712 115
L 712 115
L 712 115
L 712 115
L 713 115
L 713 115
L 713 115
L 713 115
L 714 115
L 714 115
L 714 114
L 714 114
L 714 114
L 714 114
L 714 114
L 715 114
L 715 114
L 715 114
L 715 114
L 716 114
L 716 114
L 716 114
L 716 114
L 716 114
L 716 114
L 716 114
L 717 114
L 717 114
L 718 114
L 721 114
L 721 114
L 721 113
L 721 113
L 722 113
L 722 113
L 722 113
L 722 113
L 722 113
L 722 113
L 722 113
L 722 113
L 722 113
L 722 113
L 722 113
L 722 113
L 722 113
L 722 113
L 722 113
L 722 113
L 722 113
L 722 113
L 722 113
L 723 112
L 723 112
L 723 112
L 723 112
L 723 112
L 723 112
L 723 112
L 723 112
L 723 112
L 723 112
L 723 112
L 723 112
L 724 112
L 724 112
L 724 112
L 724 112
L 724 112
L 724 112
L 724 112
L 724 112
L 725 111
L 725 111
L 725 111
L 725 111
L 725 111
L 725 111
L 725 111
L 725 111
L 725 111
L 725 111
L 725 111
L 725 111
L 725 111
L 725 111
L 726 111
L 726 111
L 726 111
L 726 111
L 726 111
L 726 111
L 726 111
L 726 110
L 726 110
L 726 110
L 726 110
L 726 110
L 726 110
L 726 110
L 726 110
L 726 110
L 727 110
L 727 110
L 727 110
L 727 110
L 727 110
L 727 110
L 727 110
L 727 110
L 727 110
L 728 110
L 728 110
L 728 109
L 728 109
L 728 109
L 728 109
L 728 109
L 728 109
L 728 109
L 728 109
L 728 109
L 728 109
L 729 109
L 729 109
L 729 109
L 729 109
L 729 109
L 729 109
L 729 109
L 729 109
L 729 109
L 729 109
L 729 109
L 730 108
L 730 108
L 730 108
L 730 108
L 730 108
L 730 108
L 730 108
L 732 108
L 732 108
L 734 108
L 735 108
L 735 108
L 735 108
L 735 108
L 735 108
L 735 108
L 735 108
L 735 108
L 735 108
L 735 108
L 735 107
L 735 107
L 735 107
L 735 107
L 735 107
L 735 107
L 735 107
L 735 107
L 735 107
L 735 107
L 736 107
L 736 107
L 736 107
L 736 107
L 736 107
L 736 107
L 736 107
L 736 107
L 736 107
L 736 107
L 736 107
L 736 106
L 736 106
L 736 106
L 736 106
L 736 106
L 736 106
L 736 106
L 736 106
L 736 106
L 736 106
L 736 106
L 736 106
L 736 106
L 736 106
L 736 106
L 736 106
L 736 106
L 736 106
L 736 106
L 736 106
L 736 106
L 736 105
L 736 105
L 736 105
L 736 105
L 736 105
L 736 105
L 736 105
L 736 105
L 736 105
L 736 105
L 736 105
L 736 105
L 736 105
L 736 105
L 736 105
L 736 105
L 736 105
L 736 105
L 736 105
L 736 105
L 736 104
L 736 104
L 736 104
L 736 104
L 736 104
L 736 104
L 736 104
L 736 104
L 736 104
L 736 104
L 736 104
L 736 104
L 736 104
L 736 104
L 736 104
L 736 104
L 736 104
L 736 104
L 737 104
L 737 104
L 737 104
L 737 103
L 737 103
L 737 103
L 737 103
L 737 103
L 737 103
L 737 103
L 737 103
L 737 103
L 737 103
L 737 103
L 737 103
L 737 103
L 737 103
L 737 103
L 737 103
L 737 103
L 738 103
L 738 103
L 738 103
L 738 102
L 738 102
L 738 102
L 738 102
L 738 102
L 738 102
L 738 102
L 738 102
L 738 102
L 738 102
L 738 102
L 738 102
L 738 102
L 738 102
L 738 102
L 738 102
L 738 102
L 738 102
L 739 102
L 739 102
L 739 102
L 739 101
L 739 101
L 739 101
L 739 101
L 739 101
L 739 101
L 739 101
L 739 101
L 739 101
L 739 101
L 739 101
L 739 101
L 739 101
L 739 101
L 739 101
L 739 101
L 739 101
L 739 101
L 739 101
L 739 101
L 740 101
L 740 100
L 740 100
L 740 100
L 740 100
L 740 100
L 740 100
L 740 100
L 740 100
L 740 100
L 740 100
L 740 100
L 740 100
L 740 100
L 740 100
L 740 100
L 740 100
L 740 100
L 740 100
L 740 100
L 740 100
L 740 99
L 740 99
L 740 99
L 740 99
L 740 99
L 740 99
L 741 99
L 741 99
L 741 99
L 741 99
L 741 99
L 741 99
L 741 99
L 741 99
L 741 99
L 741 99
L 741 99
L 741 99
L 741 99
L 741 99
L 741 99
L 741 98
L 741 98
L 741 98
L 741 98
L 741 98
L 742 98
L 742 98
L 742 98
L 742 98
L 742 98
L 742 98
L 742 98
L 742 98
L 742 98
L 743 98
L 743 98
L 744 98
L 744 98
L 744 98
L 744 98
L 745 97
L 746 97
L 748 97
L 748 97
L 748 97
L 748 97
L 748 97
L 748 97
L 748 97
L 748 97
L 748 97
L 748 97
L 748 97
L 748 97
L 748 97
L 748 97
L 748 97
L 748 97
L 748 97
L 748 97
L 748 97
L 748 96
L 748 96
L 748 96
L 748 96
L 748 96
L 748 96
L 748 96
L 748 96
L 748 96
L 748 96
L 748 96
L 748 96
L 748 96
L 748 96
L 748 96
L 748 96
L 749 96
L 749 96
L 749 96
L 749 96
L 749 96
L 749 95
L 749 95
L 749 95
L 749 95
L 749 95
L 749 95
L 749 95
L 749 95
L 749 95
L 749 95
L 749 95
L 749 95
L 749 95
L 749 95
L 749 95
L 749 95
L 749 95
L 749 95
L 749 95
L 749 95
L 749 94
L 749 94
L 749 94
L 749 94
L 749 94
L 749 94
L 749 94
L 749 94
L 749 94
L 749 94
L 749 94
L 749 94
L 749 94
L 749 94
L 749 94
L 749 94
L 749 94
L 749 94
L 749 94
L 749 94
L 749 94
L 749 93
L 749 93
L 749 93
L 750 93
L 750 93
L 750 93
L 750 93
L 750 93
L 750 93
L 750 93
L 750 93
L 750 93
L 750 93
L 750 93
L 750 93
L 750 93
L 750 93
L 750 93
L 750 93
L 750 93
L 750 92
L 750 92
L 750 92
L 750 92
L 750 92
L 750 92
L 750 92
L 751 92
L 751 92
L 751 92
L 751 92
L 751 92
L 751 92
L 751 92
L 751 92
L 751 92
L 751 92
L 751 92
L 751 92
L 751 92
L 751 92
L 751 91
L 751 91
L 751 91
L 751 91
L 751 91
L 751 91
L 751 91
L 751 91
L 751 91
L 751 91
L 751 91
L 751 91
L 751 91
L 751 91
L 751 91
L 751 91
L 751 91
L 751 91
L 751 91
L 751 91
L 752 90
L 752 90
L 752 90
L 752 90
L 752 90
L 752 90
L 752 90
L 752 90
L 752 90
L 752 90
L 752 90
L 752 90
L 752 90
L 752 90
L 752 90
L 752 90
L 752 90
L 752 90
L 752 90
L 752 90
L 752 90
L 752 89
L 752 89
L 752 89
L 752 89
L 752 89
L 752 89
L 752 89
L 752 89
L 752 89
L 752 89
L 753 89
L 753 89
L 753 89
L 753 89
L 753 89
L 753 89
L 753 89
L 753 89
L 753 89
L 753 89
L 753 89
L 753 88
L 753 88
L 753 88
L 753 88
L 753 88
L 753 88
L 753 88
L 753 88
L 753 88
L 753 88
L 754 88
L 754 88
L 754 88
L 754 88
L 754 88
L 754 88
L 754 88
L 754 88
L 754 88
L 754 88
L 754 87
L 754 87
L 754 87
L 755 87
L 755 87
L 755 87
L 755 87
L 755 87
L 755 87
L 755 87
L 756 87
L 756 87
L 756 87
L 756 87
L 756 87
L 756 87
L 756 87
L 756 87
L 756 87
L 756 87
L 756 87
L 756 86
L 757 86
L 757 86
L 757 86
L 759 86
L 759 86
L 759 86
L 760 86
L 760 86
L 760 86
L 761 86
L 761 86
L 761 86
L 761 86
L 761 86
L 761 86
L 761 86
L 761 86
L 761 86
L 761 86
L 761 85
L 761 85
L 761 85
L 761 85
L 761 85
L 761 85
L 762 85
L 762 85
L 762 85
L 762 85
L 762 85
L 762 85
L 762 85
L 762 85
L 762 85
L 762 85
L 762 85
L 762 85
L 762 85
L 762 85
L 762 85
L 762 84
L 762 84
L 762 84
L 762 84
L 762 84
L 762 84
L 762 84
L 762 84
L 762 84
L 762 84
L 762 84
L 762 84
L 762 84
L 762 84
L 762 84
L 762 84
L 762 84
L 762 84
L 762 84
L 762 84
L 762 84
L 763 83
L 763 83
L 763 83
L 763 83
L 763 83
L 763 83
L 763 83
L 763 83
L 763 83
L 763 83
L 763 83
L 763 83
L 763 83
L 763 83
L 763 83
L 763 83
L 764 83
L 764 83
L 764 83
L 764 83
L 764 82
L 764 82
L 764 82
L 764 82
L 764 82
L 764 82
L 764 82
L 764 82
L 764 82
L 764 82
L 764 82
L 764 82
L 764 82
L 764 82
L 764 82
L 764 82
L 764 82
L 764 82
L 764 82
L 764 82
L 765 82
L 765 81
L 765 81
L 765 81
L 765 81
L 765 81
L 765 81
L 765 81
L 765 81
L 765 81
L 765 81
L 765 81
L 765 81
L 765 81
L 765 81
L 765 81
L 765 81
L 765 81
L 765 81
L 765 81
L 765 81
L 765 80
L 765 80
L 766 80
L 766 80
L 766 80
L 766 80
L 766 80
L 766 80
L 766 80
L 766 80
L 766 80
L 766 80
L 766 80
L 766 80
L 766 80
L 766 80
L 766 80
L 766 80
L 766 80
L 766 80
L 766 80
L 766 79
L 766 79
L 767 79
L 767 79
L 767 79
L 767 79
L 767 79
L 767 79
L 767 79
L 768 79
L 768 79
L 768 79
L 768 79
L 768 79
L 768 79
L 768 79
L 769 79
L 769 79
L 769 79
L 769 79
L 769 79
L 769 78
L 769 78
L 769 78
L 769 78
L 769 78
L 770 78
L 770 78
L 770 78
L 770 78
L 771 78
L 773 78
L 774 78
L 774 78
L 774 78
L 774 78
L 774 78
L 774 78
L 774 78
L 774 78
L 774 78
L 774 77
L 774 77
L 774 77
L 775 77
L 775 77
L 775 77
L 775 77
L 775 77
L 775 77
L 775 77
L 775 77
L 775 77
L 775 77
L 775 77
L 775 77
L 775 77
L 775 77
L 775 77
L 775 77
L 775 77
L 775 77
L 775 76
L 775 76
L 775 76
L 775 76
L 775 76
L 775 76
L 775 76
L 775 76
L 775 76
L 775 76
L 776 76
L 776 76
L 776 76
L 776 76
L 776 76
L 776 76
L 776 76
L 776 76
L 776 76
L 776 76
L 776 75
L 776 75
L 776 75
L 776 75
L 777 75
L 777 75
L 777 75
L 777 75
L 777 75
L 777 75
L 777 75
L 777 75
L 777 75
L 777 75
L 777 75
L 777 75
L 777 75
L 777 75
L 777 75
L 778 75
L 778 75
L 778 74
L 778 74
L 778 74
L 778 74
L 778 74
L 778 74
L 778 74
L 778 74
L 778 74
L 778 74
L 778 74
L 778 74
L 778 74
L 778 74
L 778 74
L 778 74
L 778 74
L 778 74
L 778 74
L 778 74
L 778 73
L 779 73
L 779 73
L 779 73
L 779 73
L 779 73
L 779 73
L 779 73
L 779 73
L 779 73
L 779 73
L 779 73
L 779 73
L 779 73
L 779 73
L 780 73
L 780 73
L 780 73
L 780 73
L 780 73
L 780 73
L 780 72
L 780 72
L 780 72
L 780 72
L 780 72
L 780 72
L 781 72
L 781 72
L 781 72
L 781 72
L 781 72
L 781 72
L 782 72
L 782 72
L 782 72
L 782 72
L 782 72
L 782 72
L 783 72
L 785 72
L 788 72
L 788 71
L 788 71
L 788 71
L 789 71
L 789 71
L 789 71
L 789 71
L 789 71
L 789 71
L 790 71
L 790 71
L 790 71
L 790 71
L 790 71
L 790 71
L 791 71
L 791 71
L 791 71
L 791 71
L 791 71
L 792 70
L 792 70
L 792 70
L 792 70
L 792 70
L 793 70
L 793 70
L 794 70
L 794 70
L 794 70
L 794 70
L 794 70
L 794 70
L 794 70
L 794 70
L 794 70
L 794 70
L 794 70
L 794 70
L 794 70
L 794 70
L 794 69
L 795 69
L 795 69
L 795 69
L 795 69
L 795 69
L 795 69
L 795 69
L 795 69
L 795 69
L 795 69
L 796 69
L 796 69
L 796 69
L 796 69
L 796 69
L 796 69
L 796 69
L 796 69
L 797 69
L 797 68
L 797 68
L 797 68
L 798 68
L 800 68
L 800 68
L 801 68
L 801 68
L 801 68
L 801 68
L 801 68
L 802 68
L 802 68
L 802 68
L 802 68
L 802 68
L 802 68
L 803 68
L 803 68
L 803 68
L 803 68
L 803 67
L 803 67
L 804 67
L 804 67
L 804 67
L 805 67
L 805 67
L 806 67
L 807 67
L 807 67
L 807 67
L 807 67
L 807 67
L 807 67
L 807 67
L 807 67
L 807 67
L 808 67
L 808 67
L 808 67
L 808 67
L 808 66
L 808 66
L 808 66
L 808 66
L 808 66
L 808 66
L 809 66
L 809 66
L 809 66
L 809 66
L 812 66
L 812 66
L 813 66
L 813 66
L 814 66
L 814 66
L 814 66
L 814 66
L 814 66
L 814 66
L 814 65
L 814 65
L 814 65
L 814 65
L 814 65
L 814 65
L 814 65
L 814 65
L 814 65
L 814 65
L 814 65
L 814 65
L 814 65
L 814 65
L 814 65
L 815 65
L 815 65
L 815 65
L 815 65
L 815 65
L 815 65
L 815 64
L 815 64
L 815 64
L 815 64
L 815 64
L 815 64
L 815 64
L 815 64
L 815 64
L 815 64
L 815 64
L 815 64
L 815 64
L 815 64
L 815 64
L 816 64
L 816 64
L 816 64
L 816 64
L 816 64
L 816 63
L 816 63
L 816 63
L 816 63
L 816 63
L 816 63
L 817 63
L 817 63
L 817 63
L 817 63
L 817 63
L 817 63
L 817 63
L 817 63
L 817 63
L 817 63
L 817 63
L 817 63
L 817 63
L 817 63
L 817 63
L 817 62
L 817 62
L 817 62
L 818 62
L 818 62
L 818 62
L 818 62
L 818 62
L 818 62
L 818 62
L 818 62
L 818 62
L 818 62
L 818 62
L 818 62
L 818 62
L 818 62
L 818 62
L 818 62
L 818 62
L 818 62
L 818 61
L 818 61
L 818 61
L 818 61
L 818 61
L 818 61
L 818 61
L 818 61
L 818 61
L 818 61
L 818 61
L 819 61
L 819 61
L 819 61
L 819 61
L 819 61
L 819 61
L 819 61
L 819 61
L 819 61
L 820 60
L 820 60
L 820 60
L 820 60
L 820 60
L 820 60
L 820 60
L 820 60
L 820 60
L 820 60
L 820 60
L 821 60
L 821 60
L 821 60
L 821 60
L 821 60
L 822 60
L 822 60
L 822 60
L 822 60
L 822 60
L 822 59
L 824 59
L 826 59
L 827 59
L 827 59
L 827 59
L 827 59
L 827 59
L 827 59
L 827 59
L 827 59
L 827 59
L 827 59
L 827 59
L 827 59
L 827 59
L 827 59
L 828 59
L 828 59
L 828 59
L 828 58
L 828 58
L 828 58
L 828 58
L 828 58
L 828 58
L 828 58
L 828 58
L 828 58
L 828 58
L 828 58
L 828 58
L 828 58
L 828 58
L 828 58
L 828 58
L 829 58
L 829 58
L 829 58
L 829 58
L 829 58
L 829 57
L 829 57
L 829 57
L 829 57
L 829 57
L 829 57
L 829 57
L 829 57
L 829 57
L 830 57
L 830 57
L 830 57
L 830 57
L 830 57
L 830 57
L 830 57
L 830 57
L 830 57
L 830 57
L 830 57
L 830 56
L 830 56
L 830 56
L 830 56
L 830 56
L 830 56
L 830 56
L 830 56
L 830 56
L 830 56
L 830 56
L 831 56
L 831 56
L 831 56
L 831 56
L 831 56
L 831 56
L 831 56
L 831 56
L 831 56
L 831 56
L 831 55
L 831 55
L 831 55
L 831 55
L 831 55
L 831 55
L 832 55
L 832 55
L 832 55
L 832 55
L 832 55
L 832 55
L 832 55
L 832 55
L 832 55
L 832 55
L 832 55
L 832 55
L 832 55
L 832 55
L 832 55
L 832 54
L 832 54
L 832 54
L 832 54
L 832 54
L 832 54
L 833 54
L 833 54
L 833 54
L 833 54
L 833 54
L 833 54
L 833 54
L 833 54
L 833 54
L 833 54
L 833 54
L 833 54
L 833 54
L 834 54
L 834 53
L 834 53
L 834 53
L 834 53
L 834 53
L 834 53
L 834 53
L 834 53
L 834 53
L 834 53
L 834 53
L 834 53
L 834 53
L 834 53
L 834 53
L 835 53
L 835 53
L 835 53
L 835 53
L 835 53
L 835 53
L 835 52
L 835 52
L 835 52
L 835 52
L 835 52
L 835 52
L 835 52
L 836 52
L 836 52
L 836 52
L 836 52
L 837 52
L 837 52
L 837 52
L 837 52
L 837 52
L 838 52
L 840 52
L 840 52
L 840 52
L 840 51
L 840 51
L 840 51
L 840 51
L 840 51
L 840 51
L 840 51
L 840 51
L 840 51
L 840 51
L 840 51
L 840 51
L 840 51
L 840 51
L 840 51
L 840 51
L 840 51
L 840 51
L 840 51
L 840 51
L 840 51
L 841 50
L 841 50
L 841 50
L 841 50
L 841 50
L 841 50
L 841 50
L 841 50
L 841 50
L 841 50
L 841 50
L 841 50
L 841 50
L 841 50
L 841 50
L 841 50
L 841 50
L 841 50
L 841 50
L 841 50
L 841 50
L 841 49
L 841 49
L 842 49
L 842 49
L 842 49
L 842 49
L 842 49
L 842 49
L 842 49
L 842 49
L 842 49
L 842 49
L 842 49
L 842 49
L 842 49
L 842 49
L 842 49
L 842 49
L 842 49
L 842 49
L 842 48
L 842 48
L 842 48
L 842 48
L 842 48
L 842 48
L 842 48
L 843 48
L 843 48
L 843 48
L 843 48
L 843 48
L 843 48
L 843 48
L 843 48
L 843 48
L 843 48
L 843 48
L 843 48
L 843 48
L 843 48
L 843 47
L 843 47
L 843 47
L 843 47
L 843 47
L 843 47
L 843 47
L 843 47
L 843 47
L 843 47
L 843 47
L 843 47
L 844 47
L 844 47
L 844 47
L 844 47
L 844 47
L 844 47
L 844 47
L 844 47
L 844 46
L 844 46
L 844 46
L 844 46
L 844 46
L 844 46
L 844 46
L 844 46
L 844 46
L 844 46
L 844 46
L 844 46
L 844 46
L 844 46
L 844 46
L 844 46
L 844 46
L 844 46
L 844 46
L 844 46
L 844 46
L 845 45
L 845 45
L 845 45
L 845 45
L 845 45
L 845 45
L 845 45
L 845 45
L 845 45
L 845 45
L 845 45
L 845 45
L 845 45
L 845 45
L 845 45
L 845 45
L 845 45
L 845 45
L 845 45
L 845 45
L 845 45
L 845 44
L 845 44
L 845 44
L 845 44
L 845 44
L 845 44
L 845 44
L 845 44
L 845 44
L 845 44
L 845 44
L 846 44
L 846 44
L 846 44
L 846 44
L 846 44
L 846 44
L 846 44
L 846 44
L 846 44
L 846 43
L 846 43
L 846 43
L 846 43
L 846 43
L 847 43
L 847 43
L 847 43
L 847 43
L 847 43
L 847 43
L 847 43
L 847 43
L 847 43
L 848 43
L 848 43
L 848 43
L 848 43
L 848 43
L 848 43
L 848 43
L 848 42
L 848 42
L 849 42
L 849 42
L 849 42
L 850 42
L 850 42
L 851 42
L 852 42
L 853 42
L 853 42
L 853 42
L 853 42
L 853 42
L 853 42
L 853 42
L 853 42
L 853 42
L 853 42
L 853 42
L 853 41
L 854 41
L 854 41
L 854 41
L 854 41
L 854 41
L 854 41
L 854 41
L 854 41
L 854 41
L 854 41
L 854 41
L 854 41
L 854 41
L 854 41
L 854 41
L 854 41
L 854 41
L 854 41
L 854 41
L 854 41
L 854 40
L 854 40
L 854 40
L 855 40
L 855 40
L 855 40
L 855 40
L 855 40
L 855 40
L 855 40
L 855 40
L 855 40
L 855 40
L 855 40
L 855 40
L 855 40
L 855 40
L 855 40
L 855 40
L 855 40
L 855 39
L 855 39
L 855 39
L 855 39
L 856 39
L 856 39
L 856 39
L 856 39
L 856 39
L 856 39
L 856 39
L 856 39
L 856 39
L 856 39
L 856 39
L 856 39
L 856 39
L 856 39
L 856 39
L 856 39
L 856 39
L 856 38
L 856 38
L 856 38
L 856 38
L 857 38
L 857 38
L 857 38
L 857 38
L 857 38
L 857 38
L 857 38
L 857 38
L 857 38
L 857 38
L 857 38
L 857 38
L 857 38
L 857 38
L 857 38
L 857 38
L 857 38
L 857 37
L 857 37
L 858 37
L 858 37
L 858 37
L 858 37
L 858 37
L 858 37
L 858 37
L 858 37
L 858 37
L 858 37
L 858 37
L 858 37
L 858 37
L 858 37
L 858 37
L 858 37
L 858 37
L 858 37
L 858 36
L 858 36
L 858 36
L 858 36
L 858 36
L 858 36
L 858 36
L 858 36
L 858 36
L 859 36
L 859 36
L 859 36
L 859 36
L 859 36
L 859 36
L 860 36
L 860 36
L 860 36
L 860 36
L 861 36
L 861 36
L 861 35
L 861 35
L 861 35
L 861 35
L 862 35
L 862 35
L 862 35
L 862 35
L 862 35
L 863 35
L 863 35
L 863 35
L 864 35
L 864 35
L 865 35
L 866 35
L 866 35
L 867 35
L 867 35
L 867 35
L 867 34
L 867 34
L 867 34
L 867 34
L 867 34
L 867 34
L 867 34
L 867 34
L 867 34
L 867 34
L 867 34
L 867 34
L 867 34
L 867 34
L 867 34
L 867 34
L 867 34
L 867 34
L 867 34
L 868 34
L 868 34
L 868 33
L 868 33
L 868 33
L 868 33
L 868 33
L 868 33
L 868 33
L 868 33
L 868 33
L 868 33
L 868 33
L 869 33
L 869 33
L 869 33
L 869 33
L 869 33
L 869 33
L 869 33
L 869 33
L 869 33
L 869 33
L 869 32
L 869 32
L 869 32
L 869 32
L 870 32
L 870 32
L 870 32
L 870 32
L 870 32
L 870 32
L 870 32
L 870 32
L 870 32
L 870 32
L 870 32
L 870 32
L 870 32
L 870 32
L 870 32
L 870 32
L 870 31
L 870 31
L 871 31
L 871 31
L 871 31
L 871 31
L 871 31
L 871 31
L 871 31
L 871 31
L 871 31
L 871 31
L 871 31
L 871 31
L 871 31
L 871 31
L 871 31
L 871 31
L 871 31
L 871 31
L 871 31
L 871 30
L 871 30
L 871 30
L 871 30
L 871 30
L 871 30
L 871 30
L 871 30
L 871 30
L 872 30
L 872 30
L 872 30
L 872 30
L 872 30
L 872 30
L 872 30
L 873 30
L 873 30
L 873 30
L 873 30
L 873 29
L 873 29
L 874 29
L 874 29
L 874 29
L 874 29
L 875 29
L 875 29
L 875 29
L 875 29
L 876 29
L 879 29
L 880 29
L 880 29
L 880 29
L 880 29
L 881 29
L 881 29
L 881 29
L 881 29
L 881 29
L 881 28
L 881 28
L 881 28
L 881 28
L 882 28
L 882 28
L 883 28
L 883 28
L 883 28
L 883 28
L 884 28
L 884 28
L 884 28
L 885 28
L 885 28
L 885 28
L 885 28
L 885 28
L 886 28
L 886 28
L 886 28
L 887 27
L 887 27
L 887 27
L 888 27
L 888 27
L 888 27
L 888 27
L 888 27
L 889 27
L 889 27
L 889 27
L 890 27
L 893 27
L 893 27
L 893 27
L 893 27
L 894 27
L 894 27
L 894 27
L 894 27
L 894 26
L 894 26
L 894 26
L 895 26
L 895 26
L 895 26
L 896 26
L 896 26
L 896 26
L 896 26
L 896 26
L 896 26
L 897 26
L 897 26
L 897 26
L 898 26
L 898 26
L 898 26
L 898 26
L 898 26
L 898 26
L 898 25
L 899 25
L 899 25
L 899 25
L 899 25
L 899 25
L 900 25
L 901 25
L 901 25
L 901 25
L 901 25
L 902 25
L 903 25
L 904 25
L 906 25
L 906 25
L 906 25
L 906 25
L 906 25
L 906 25
L 906 24
L 906 24
L 907 24
L 907 24
L 907 24
L 907 24
L 907 24
L 907 24
L 907 24
L 907 24
L 907 24
L 907 24
L 907 24
L 907 24
L 907 24
L 908 24
L 908 24
L 908 24
L 908 24
L 909 24
L 909 24
L 909 23
L 909 23
L 909 23
L 909 23
L 909 23
L 909 23
L 909 23
L 909 23
L 909 23
L 909 23
L 909 23
L 909 23
L 909 23
L 909 23
L 910 23
L 910 23
L 910 23
L 910 23
L 910 23
L 910 23
L 910 22
L 910 22
L 910 22
L 910 22
L 910 22
L 910 22
L 910 22
L 910 22
L 911 22
L 911 22
L 911 22
L 911 22
L 911 22
L 911 22
L 911 22
L 911 22
L 911 22
L 911 22
L 911 22
L 911 22
L 911 22
L 911 21
L 911 21
L 911 21
L 912 21
L 912 21
L 912 21
L 912 21
L 912 21
L 912 21
L 913 21
L 913 21
L 913 21
L 913 21
L 913 21
L 913 21
L 913 21
L 914 21
L 914 21
L 914 21
L 914 21
L 915 21
L 915 20
L 915 20
L 916 20
L 916 20
L 917 20
L 918 20
L 919 20
L 919 20
L 919 20
L 919 20
L 920 20
L 920 20
L 920 20
L 920 20
L 920 20
L 920 20
L 920 20
L 920 20
L 920 20
L 920 20
L 920 19
L 920 19
L 920 19
L 920 19
L 920 19
L 920 19
L 920 19
L 920 19
L 920 19
L 921 19
L 921 19
L 921 19
L 921 19
L 921 19
L 921 19
L 921 19
L 921 19
L 921 19
L 922 19
L 922 19
L 922 19
L 922 18
L 922 18
L 922 18
L 922 18
L 922 18
L 922 18
L 922 18
L 922 18
L 923 18
L 923 18
L 923 18
L 923 18
L 923 18
L 923 18
L 923 18
L 923 18
L 923 18
L 923 18
L 923 18
L 923 18
L 923 17
L 923 17
L 924 17
L 924 17
L 924 17
L 924 17
L 924 17
L 924 17
L 924 17
L 924 17
L 924 17
L 924 17
L 924 17
L 925 17
L 925 17
L 926 17
L 926 17
L 926 17
L 926 17
L 926 17
L 927 17
L 927 16
L 927 16
L 928 16
L 928 16
L 928 16
L 930 16
L 932 16
L 932 16
L 932 16
L 932 16
L 933 16
L 933 16
L 933 16
L 933 16
L 933 16
L 933 16
L 933 16
L 933 16
L 934 16
L 934 16
L 934 16
L 934 15
L 935 15
L 935 15
L 935 15
L 935 15
L 935 15
L 935 15
L 935 15
L 935 15
L 935 15
L 935 15
L 936 15
L 936 15
L 936 15
L 936 15
L 936 15
L 936 15
L 936 15
L 936 15
L 936 15
L 936 14
L 937 14
L 937 14
L 937 14
L 937 14
L 937 14
L 937 14
L 937 14
L 937 14
L 937 14
L 937 14
L 938 14
L 938 14
L 938 14
L 938 14
L 939 14
L 939 14
L 939 14
L 939 14
L 939 14
L 939 14
L 940 13
L 941 13
L 941 13
L 941 13
L 942 13
L 943 13
L 946 13
L 946 13
L 946 13
L 946 13
L 947 13
L 947 13
L 947 13
L 947 13
L 947 13
L 947 13
L 947 13
L 947 13
L 947 13
L 947 13
L 947 12
L 947 12
L 947 12
L 947 12
L 948 12
L 948 12
L 948 12
L 948 12
L 949 12
L 949 12
L 949 12
L 949 12
L 949 12
L 949 12
L 949 12
L 949 12
L 949 12
L 949 12
L 949 12
L 949 12
L 949 12
L 950 11
L 950 11
L 950 11
L 950 11
L 950 11
L 950 11
L 950 11
L 950 11
L 950 11
L 950 11
L 951 11
L 951 11
L 951 11
L 951 11
L 952 11
L 953 11
L 953 11
L 954 11
L 955 11
L 957 11" style="stroke-width:2;stroke:rgba(129,199,239,1.0);fill:none"/></svg>