<svg xmlns="http://www.w3.org/2000/svg" xmlns:xlink="http://www.w3.org/1999/xlink" width="1024" height="400">\n<path  d="M 0 0
L 1024 0
L 1024 400
L 0 400
L 0 0" style="stroke-width:0;stroke:rgba(255,255,255,1.0);fill:rgba(255,255,255,1.0)"/><path  d="M 38 11
L 957 11
L 957 351
L 38 351
L 38 11" style="stroke-width:0;stroke:rgba(255,255,255,1.0);fill:rgba(255,255,255,1.0)"/><path  d="M 38 351
L 957 351" style="stroke-width:2;stroke:rgba(85,85,85,1.0);fill:none"/><path  d="M 38 351
L 38 356" style="stroke-width:2;stroke:rgba(85,85,85,1.0);fill:none"/><text x="5" y="373" style="stroke-width:0;stroke:none;fill:rgba(51,51,51,1.0);font-size:12.8px;font-family:'Roboto Medium',sans-serif">2018-11-23</text><path  d="M 153 351
L 153 356" style="stroke-width:2;stroke:rgba(85,85,85,1.0);fill:none"/><text x="120" y="373" style="stroke-width:0;stroke:none;fill:rgba(51,51,51,1.0);font-size:12.8px;font-family:'Roboto Medium',sans-serif">2018-11-30</text><path  d="M 268 351
L 268 356" style="stroke-width:2;stroke:rgba(85,85,85,1.0);fill:none"/><text x="235" y="373" style="stroke-width:0;stroke:none;fill:rgba(51,51,51,1.0);font-size:12.8px;font-family:'Roboto Medium',sans-serif">2018-12-08</text><path  d="M 383 351
L 383 356" style="stroke-width:2;stroke:rgba(85,85,85,1.0);fill:none"/><text x="350" y="373" style="stroke-width:0;stroke:none;fill:rgba(51,51,51,1.0);font-size:12.8px;font-family:'Roboto Medium',sans-serif">2018-12-15</text><path  d="M 498 351
L 498 356" style="stroke-width:2;stroke:rgba(85,85,85,1.0);fill:none"/><text x="465" y="373" style="stroke-width:0;stroke:none;fill:rgba(51,51,51,1.0);font-size:12.8px;font-family:'Roboto Medium',sans-serif">2018-12-23</text><path  d="M 613 351
L 613 356" style="stroke-width:2;stroke:rgba(85,85,85,1.0);fill:none"/><text x="580" y="373" style="stroke-width:0;stroke:none;fill:rgba(51,51,51,1.0);font-size:12.8px;font-family:'Roboto Medium',sans-serif">2018-12-30</text><path  d="M 728 351
L 728 356" style="stroke-width:2;stroke:rgba(85,85,85,1.0);fill:none"/><text x="695" y="373" style="stroke-width:0;stroke:none;fill:rgba(51,51,51,1.0);font-size:12.8px;font-family:'Roboto Medium',sans-serif">2019-01-07</text><path  d="M 843 351
L 843 356" style="stroke-width:2;stroke:rgba(85,85,85,1.0);fill:none"/><text x="810" y="373" style="stroke-width:0;stroke:none;fill:rgba(51,51,51,1.0);font-size:12.8px;font-family:'Roboto Medium',sans-serif">2019-01-15</text><path  d="M 957 351
L 957 356" style="stroke-width:2;stroke:rgba(85,85,85,1.0);fill:none"/><text x="924" y="373" style="stroke-width:0;stroke:none;fill:rgba(51,51,51,1.0);font-size:12.8px;font-family:'Roboto Medium',sans-serif">2019-01-22</text><text x="483" y="395" style="stroke-width:0;stroke:none;fill:rgba(51,51,51,1.0);font-size:12.8px;font-family:'Roboto Medium',sans-serif">Time</text><path  d="M 959 351
L 959 11" style="stroke-width:2;stroke:rgba(85,85,85,1.0);fill:none"/><path  d="M 959 351
L 964 351" style="stroke-width:2;stroke:rgba(85,85,85,1.0);fill:none"/><text x="969" y="357" style="stroke-width:0;stroke:none;fill:rgba(51,51,51,1.0);font-size:12.8px;font-family:'Roboto Medium',sans-serif">0</text><path  d="M 959 308
L 964 308" style="stroke-width:2;stroke:rgba(85,85,85,1.0);fill:none"/><text x="969" y="314" style="stroke-width:0;stroke:none;fill:rgba(51,51,51,1.0);font-size:12.8px;font-family:'Roboto Medium',sans-serif">780</text><path  d="M 959 266
L 964 266" style="stroke-width:2;stroke:rgba(85,85,85,1.0);fill:none"/><text x="969" y="272" style="stroke-width:0;stroke:none;fill:rgba(51,51,51,1.0);font-size:12.8px;font-family:'Roboto Medium',sans-serif">1550</text><path  d="M 959 223
L 964 223" style="stroke-width:2;stroke:rgba(85,85,85,1.0);fill:none"/><text x="969" y="229" style="stroke-width:0;stroke:none;fill:rgba(51,51,51,1.0);font-size:12.8px;font-family:'Roboto Medium',sans-serif">2330</text><path  d="M 959 181
L 964 181" style="stroke-width:2;stroke:rgba(85,85,85,1.0);fill:none"/><text x="969" y="187" style="stroke-width:0;stroke:none;fill:rgba(51,51,51,1.0);font-size:12.8px;font-family:'Roboto Medium',sans-serif">3100</text><path  d="M 959 138
L 964 138" style="stroke-width:2;stroke:rgba(85,85,85,1.0);fill:none"/><text x="969" y="144" style="stroke-width:0;stroke:none;fill:rgba(51,51,51,1.0);font-size:12.8px;font-family:'Roboto Medium',sans-serif">3880</text><path  d="M 959 96
L 964 96" style="stroke-width:2;stroke:rgba(85,85,85,1.0);fill:none"/><text x="969" y="102" style="stroke-width:0;stroke:none;fill:rgba(51,51,51,1.0);font-size:12.8px;font-family:'Roboto Medium',sans-serif">4650</text><path  d="M 959 53
L 964 53" style="stroke-width:2;stroke:rgba(85,85,85,1.0);fill:none"/><text x="969" y="59" style="stroke-width:0;stroke:none;fill:rgba(51,51,51,1.0);font-size:12.8px;font-family:'Roboto Medium',sans-serif">5430</text><path  d="M 959 11
L 964 11" style="stroke-width:2;stroke:rgba(85,85,85,1.0);fill:none"/><text x="969" y="17" style="stroke-width:0;stroke:none;fill:rgba(51,51,51,1.0);font-size:12.8px;font-family:'Roboto Medium',sans-serif">6200</text><text x="1009" y="150" style="stroke-width:0;stroke:none;fill:rgba(51,51,51,1.0);font-size:12.8px;font-family:'Roboto Medium',sans-serif" transform="rotate(90.00,1009,150)">Stargazers</text><path  d="M 38 351
L 118 350
L 174 350
L 177 350
L 189 350
L 189 350
L 189 350
L 190 350
L 190 350
L 190 350
L 191 350
L 191 350
L 191 350
L 191 350
L 191 350
L 191 350
L 192 350
L 192 350
L 192 350
L 192 349
L 192 349
L 193 349
L 195 349
L 195 349
L 204 349
L 204 349
L 204 349
L 204 349
L 205 349
L 207 349
L 209 349
L 210 349
L 211 349
L 211 349
L 211 349
L 212 349
L 212 349
L 212 348
L 216 348
L 218 348
L 219 348
L 219 348
L 219 348
L 219 348
L 219 348
L 220 348
L 220 348
L 220 348
L 220 348
L 220 348
L 222 348
L 223 348
L 223 348
L 223 348
L 223 348
L 224 347
L 224 347
L 224 347
L 225 347
L 225 347
L 225 347
L 226 347
L 226 347
L 226 347
L 226 347
L 226 347
L 227 347
L 228 347
L 228 347
L 228 347
L 228 347
L 232 347
L 234 347
L 234 346
L 235 346
L 235 346
L 235 346
L 235 346
L 235 346
L 235 346
L 236 346
L 236 346
L 236 346
L 236 346
L 236 346
L 237 346
L 237 346
L 237 346
L 237 346
L 237 346
L 237 346
L 237 346
L 237 345
L 237 345
L 237 345
L 237 345
L 237 345
L 237 345
L 237 345
L 237 345
L 237 345
L 237 345
L 237 345
L 237 345
L 237 345
L 237 345
L 237 345
L 237 345
L 237 345
L 237 345
L 237 344
L 237 344
L 237 344
L 237 344
L 237 344
L 237 344
L 237 344
L 237 344
L 237 344
L 237 344
L 237 344
L 237 344
L 238 344
L 238 344
L 238 344
L 238 344
L 238 344
L 238 344
L 238 343
L 238 343
L 238 343
L 238 343
L 238 343
L 238 343
L 239 343
L 239 343
L 239 343
L 239 343
L 239 343
L 239 343
L 240 343
L 240 343
L 240 343
L 240 343
L 240 343
L 240 343
L 240 342
L 240 342
L 240 342
L 241 342
L 241 342
L 241 342
L 241 342
L 241 342
L 241 342
L 241 342
L 241 342
L 243 342
L 244 342
L 249 342
L 249 342
L 249 342
L 249 342
L 249 342
L 249 342
L 250 341
L 250 341
L 250 341
L 251 341
L 252 341
L 252 341
L 252 341
L 252 341
L 252 341
L 253 341
L 253 341
L 253 341
L 254 341
L 254 341
L 254 341
L 254 341
L 254 341
L 255 341
L 255 340
L 256 340
L 264 340
L 265 340
L 265 340
L 265 340
L 265 340
L 265 340
L 267 340
L 269 340
L 269 340
L 273 340
L 274 340
L 274 340
L 276 340
L 281 340
L 281 340
L 283 340
L 284 339
L 284 339
L 285 339
L 285 339
L 286 339
L 286 339
L 286 339
L 286 339
L 286 339
L 287 339
L 287 339
L 290 339
L 295 339
L 295 339
L 295 339
L 296 339
L 296 339
L 296 339
L 298 338
L 299 338
L 300 338
L 304 338
L 304 338
L 310 338
L 313 338
L 313 338
L 314 338
L 314 338
L 316 338
L 317 338
L 325 338
L 326 338
L 326 338
L 326 338
L 326 338
L 328 338
L 328 338
L 330 337
L 331 337
L 332 337
L 334 337
L 336 337
L 341 337
L 346 337
L 348 337
L 354 337
L 357 337
L 357 337
L 359 337
L 359 337
L 359 337
L 360 337
L 362 337
L 363 337
L 363 337
L 364 336
L 364 336
L 366 336
L 368 336
L 371 336
L 374 336
L 374 336
L 374 336
L 375 336
L 375 336
L 376 336
L 377 336
L 378 336
L 379 336
L 379 336
L 379 336
L 381 336
L 386 336
L 386 335
L 387 335
L 388 335
L 390 335
L 393 335
L 393 335
L 393 335
L 395 335
L 400 335
L 401 335
L 401 335
L 402 335
L 402 335
L 403 335
L 406 335
L 406 335
L 408 335
L 410 335
L 417 334
L 418 334
L 420 334
L 420 334
L 422 334
L 422 334
L 422 334
L 424 334
L 424 334
L 426 334
L 426 334
L 432 334
L 433 334
L 434 334
L 435 334
L 435 334
L 435 334
L 435 334
L 436 334
L 438 333
L 447 333
L 447 333
L 447 333
L 447 333
L 450 333
L 450 333
L 452 333
L 452 333
L 452 333
L 455 333
L 455 333
L 455 333
L 455 333
L 455 333
L 457 333
L 462 333
L 464 333
L 464 332
L 464 332
L 464 332
L 464 332
L 464 332
L 464 332
L 464 332
L 464 332
L 465 332
L 465 332
L 466 332
L 466 332
L 466 332
L 466 332
L 466 332
L 466 332
L 466 332
L 466 332
L 466 331
L 466 331
L 466 331
L 466 331
L 466 331
L 466 331
L 466 331
L 466 331
L 466 331
L 466 331
L 467 331
L 467 331
L 467 331
L 467 331
L 467 331
L 467 331
L 467 331
L 467 331
L 467 330
L 467 330
L 467 330
L 467 330
L 467 330
L 467 330
L 467 330
L 467 330
L 468 330
L 468 330
L 468 330
L 468 330
L 468 330
L 468 330
L 468 330
L 468 330
L 468 330
L 468 330
L 468 329
L 468 329
L 468 329
L 468 329
L 468 329
L 468 329
L 469 329
L 469 329
L 469 329
L 469 329
L 470 329
L 470 329
L 470 329
L 470 329
L 470 329
L 470 329
L 470 329
L 470 329
L 470 329
L 470 328
L 471 328
L 471 328
L 471 328
L 471 328
L 472 328
L 472 328
L 472 328
L 472 328
L 477 328
L 478 328
L 478 328
L 478 328
L 478 328
L 478 328
L 478 328
L 478 328
L 479 328
L 479 327
L 479 327
L 479 327
L 479 327
L 479 327
L 479 327
L 479 327
L 479 327
L 479 327
L 479 327
L 480 327
L 480 327
L 480 327
L 480 327
L 480 327
L 480 327
L 480 327
L 480 327
L 480 326
L 480 326
L 481 326
L 481 326
L 481 326
L 481 326
L 481 326
L 481 326
L 481 326
L 481 326
L 481 326
L 481 326
L 481 326
L 481 326
L 481 326
L 482 326
L 482 326
L 482 326
L 482 325
L 482 325
L 482 325
L 482 325
L 482 325
L 482 325
L 482 325
L 482 325
L 482 325
L 482 325
L 482 325
L 482 325
L 482 325
L 483 325
L 483 325
L 483 325
L 483 325
L 483 325
L 483 325
L 483 324
L 483 324
L 483 324
L 483 324
L 483 324
L 483 324
L 483 324
L 484 324
L 484 324
L 484 324
L 484 324
L 484 324
L 484 324
L 484 324
L 485 324
L 485 324
L 485 324
L 485 324
L 485 323
L 485 323
L 485 323
L 485 323
L 485 323
L 485 323
L 485 323
L 485 323
L 485 323
L 485 323
L 485 323
L 486 323
L 486 323
L 486 323
L 486 323
L 486 323
L 486 323
L 486 323
L 486 322
L 486 322
L 486 322
L 486 322
L 486 322
L 486 322
L 486 322
L 486 322
L 486 322
L 487 322
L 487 322
L 487 322
L 487 322
L 487 322
L 487 322
L 487 322
L 487 322
L 487 322
L 487 321
L 487 321
L 487 321
L 487 321
L 487 321
L 488 321
L 488 321
L 488 321
L 488 321
L 489 321
L 490 321
L 491 321
L 491 321
L 492 321
L 492 321
L 492 321
L 492 321
L 492 321
L 492 321
L 493 320
L 493 320
L 493 320
L 493 320
L 493 320
L 493 320
L 493 320
L 493 320
L 493 320
L 493 320
L 493 320
L 493 320
L 494 320
L 494 320
L 494 320
L 494 320
L 494 320
L 494 320
L 494 319
L 494 319
L 494 319
L 494 319
L 494 319
L 494 319
L 494 319
L 494 319
L 494 319
L 495 319
L 495 319
L 495 319
L 495 319
L 495 319
L 495 319
L 495 319
L 495 319
L 495 319
L 495 318
L 495 318
L 495 318
L 495 318
L 495 318
L 495 318
L 495 318
L 496 318
L 496 318
L 496 318
L 496 318
L 496 318
L 496 318
L 496 318
L 496 318
L 496 318
L 496 318
L 496 318
L 496 317
L 496 317
L 496 317
L 496 317
L 496 317
L 497 317
L 497 317
L 497 317
L 497 317
L 497 317
L 497 317
L 497 317
L 497 317
L 497 317
L 497 317
L 497 317
L 497 317
L 497 317
L 497 317
L 497 316
L 497 316
L 497 316
L 497 316
L 498 316
L 498 316
L 498 316
L 498 316
L 498 316
L 498 316
L 498 316
L 498 316
L 498 316
L 498 316
L 499 316
L 499 316
L 499 316
L 499 316
L 499 315
L 499 315
L 499 315
L 499 315
L 499 315
L 499 315
L 499 315
L 499 315
L 499 315
L 499 315
L 499 315
L 499 315
L 500 315
L 500 315
L 500 315
L 500 315
L 500 315
L 500 315
L 500 314
L 500 314
L 500 314
L 500 314
L 500 314
L 500 314
L 500 314
L 500 314
L 501 314
L 501 314
L 501 314
L 501 314
L 501 314
L 501 314
L 501 314
L 501 314
L 501 314
L 501 314
L 501 313
L 501 313
L 501 313
L 501 313
L 501 313
L 501 313
L 501 313
L 501 313
L 501 313
L 501 313
L 501 313
L 501 313
L 501 313
L 502 313
L 502 313
L 502 313
L 502 313
L 502 313
L 502 312
L 502 312
L 502 312
L 502 312
L 502 312
L 502 312
L 502 312
L 502 312
L 502 312
L 502 312
L 503 312
L 503 312
L 503 312
L 504 312
L 504 312
L 504 312
L 504 312
L 504 312
L 506 312
L 507 311
L 507 311
L 507 311
L 507 311
L 507 311
L 507 311
L 507 311
L 507 311
L 508 311
L 508 311
L 508 311
L 508 311
L 508 311
L 508 311
L 508 311
L 508 311
L 508 311
L 508 311
L 508 310
L 508 310
L 508 310
L 508 310
L 508 310
L 508 310
L 508 310
L 508 310
L 508 310
L 508 310
L 508 310
L 508 310
L 508 310
L 508 310
L 508 310
L 508 310
L 508 310
L 508 310
L 508 309
L 508 309
L 508 309
L 508 309
L 508 309
L 508 309
L 508 309
L 508 309
L 508 309
L 508 309
L 508 309
L 508 309
L 508 309
L 508 309
L 508 309
L 508 309
L 508 309
L 508 309
L 508 308
L 508 308
L 508 308
L 508 308
L 508 308
L 508 308
L 508 308
L 508 308
L 508 308
L 508 308
L 508 308
L 508 308
L 508 308
L 508 308
L 508 308
L 508 308
L 508 308
L 508 308
L 508 308
L 508 307
L 508 307
L 509 307
L 509 307
L 509 307
L 509 307
L 509 307
L 509 307
L 509 307
L 509 307
L 509 307
L 509 307
L 509 307
L 509 307
L 509 307
L 509 307
L 509 307
L 509 307
L 509 306
L 509 306
L 509 306
L 509 306
L 509 306
L 509 306
L 509 306
L 509 306
L 509 306
L 509 306
L 509 306
L 509 306
L 509 306
L 509 306
L 509 306
L 509 306
L 509 306
L 509 306
L 509 305
L 509 305
L 509 305
L 509 305
L 509 305
L 509 305
L 509 305
L 509 305
L 509 305
L 509 305
L 509 305
L 509 305
L 509 305
L 509 305
L 509 305
L 509 305
L 509 305
L 509 305
L 509 304
L 509 304
L 509 304
L 509 304
L 509 304
L 509 304
L 509 304
L 510 304
L 510 304
L 510 304
L 510 304
L 510 304
L 510 304
L 510 304
L 510 304
L 510 304
L 510 304
L 510 304
L 510 304
L 510 303
L 510 303
L 510 303
L 510 303
L 510 303
L 510 303
L 510 303
L 510 303
L 510 303
L 510 303
L 510 303
L 510 303
L 510 303
L 510 303
L 510 303
L 510 303
L 510 303
L 511 303
L 511 302
L 511 302
L 511 302
L 511 302
L 511 302
L 511 302
L 511 302
L 511 302
L 511 302
L 511 302
L 511 302
L 511 302
L 511 302
L 511 302
L 511 302
L 511 302
L 511 302
L 511 302
L 511 301
L 511 301
L 511 301
L 511 301
L 511 301
L 511 301
L 511 301
L 511 301
L 511 301
L 511 301
L 511 301
L 511 301
L 511 301
L 511 301
L 511 301
L 511 301
L 511 301
L 511 301
L 511 300
L 511 300
L 511 300
L 511 300
L 511 300
L 511 300
L 511 300
L 511 300
L 511 300
L 511 300
L 511 300
L 511 300
L 511 300
L 511 300
L 511 300
L 511 300
L 511 300
L 511 300
L 511 300
L 511 299
L 511 299
L 511 299
L 511 299
L 512 299
L 512 299
L 512 299
L 512 299
L 512 299
L 512 299
L 512 299
L 512 299
L 512 299
L 512 299
L 512 299
L 512 299
L 512 299
L 512 299
L 512 298
L 512 298
L 512 298
L 512 298
L 512 298
L 512 298
L 512 298
L 512 298
L 512 298
L 512 298
L 512 298
L 512 298
L 512 298
L 512 298
L 512 298
L 512 298
L 512 298
L 512 298
L 512 297
L 512 297
L 512 297
L 512 297
L 512 297
L 512 297
L 512 297
L 512 297
L 512 297
L 512 297
L 512 297
L 512 297
L 512 297
L 512 297
L 512 297
L 512 297
L 512 297
L 512 297
L 513 296
L 513 296
L 513 296
L 513 296
L 513 296
L 513 296
L 513 296
L 513 296
L 513 296
L 513 296
L 513 296
L 513 296
L 513 296
L 513 296
L 513 296
L 513 296
L 513 296
L 513 296
L 513 295
L 513 295
L 513 295
L 513 295
L 513 295
L 513 295
L 513 295
L 513 295
L 513 295
L 513 295
L 513 295
L 513 295
L 513 295
L 513 295
L 513 295
L 513 295
L 513 295
L 513 295
L 513 295
L 513 294
L 514 294
L 514 294
L 514 294
L 514 294
L 514 294
L 514 294
L 514 294
L 514 294
L 514 294
L 514 294
L 514 294
L 514 294
L 514 294
L 514 294
L 514 294
L 514 294
L 514 294
L 514 293
L 514 293
L 514 293
L 514 293
L 514 293
L 514 293
L 514 293
L 514 293
L 514 293
L 514 293
L 514 293
L 514 293
L 514 293
L 514 293
L 514 293
L 514 293
L 514 293
L 514 293
L 515 292
L 515 292
L 515 292
L 515 292
L 515 292
L 515 292
L 515 292
L 515 292
L 515 292
L 515 292
L 515 292
L 515 292
L 515 292
L 515 292
L 515 292
L 515 292
L 515 292
L 515 292
L 515 291
L 515 291
L 516 291
L 516 291
L 516 291
L 516 291
L 516 291
L 516 291
L 516 291
L 516 291
L 516 291
L 516 291
L 516 291
L 516 291
L 516 291
L 516 291
L 516 291
L 516 291
L 516 291
L 517 290
L 517 290
L 517 290
L 517 290
L 517 290
L 517 290
L 517 290
L 517 290
L 517 290
L 517 290
L 517 290
L 517 290
L 517 290
L 517 290
L 517 290
L 517 290
L 517 290
L 517 290
L 517 289
L 517 289
L 518 289
L 518 289
L 518 289
L 518 289
L 518 289
L 518 289
L 518 289
L 519 289
L 519 289
L 520 289
L 522 289
L 522 289
L 522 289
L 522 289
L 523 289
L 523 289
L 523 288
L 523 288
L 523 288
L 523 288
L 523 288
L 523 288
L 523 288
L 523 288
L 523 288
L 523 288
L 523 288
L 523 288
L 523 288
L 523 288
L 523 288
L 523 288
L 523 288
L 523 288
L 523 287
L 523 287
L 523 287
L 523 287
L 523 287
L 523 287
L 523 287
L 523 287
L 523 287
L 523 287
L 523 287
L 523 287
L 523 287
L 524 287
L 524 287
L 524 287
L 524 287
L 524 287
L 524 287
L 524 286
L 524 286
L 524 286
L 524 286
L 524 286
L 524 286
L 524 286
L 524 286
L 524 286
L 524 286
L 524 286
L 524 286
L 524 286
L 524 286
L 524 286
L 524 286
L 524 286
L 524 286
L 524 285
L 524 285
L 524 285
L 524 285
L 524 285
L 524 285
L 524 285
L 524 285
L 524 285
L 524 285
L 524 285
L 524 285
L 524 285
L 524 285
L 524 285
L 524 285
L 524 285
L 524 285
L 524 284
L 524 284
L 524 284
L 524 284
L 524 284
L 524 284
L 524 284
L 524 284
L 524 284
L 524 284
L 524 284
L 524 284
L 524 284
L 524 284
L 524 284
L 524 284
L 524 284
L 524 284
L 524 283
L 524 283
L 524 283
L 524 283
L 524 283
L 524 283
L 524 283
L 524 283
L 524 283
L 524 283
L 524 283
L 524 283
L 524 283
L 524 283
L 524 283
L 524 283
L 524 283
L 524 283
L 524 283
L 524 282
L 524 282
L 524 282
L 524 282
L 524 282
L 524 282
L 524 282
L 524 282
L 524 282
L 524 282
L 524 282
L 524 282
L 525 282
L 525 282
L 525 282
L 525 282
L 525 282
L 525 282
L 525 281
L 525 281
L 525 281
L 525 281
L 525 281
L 525 281
L 525 281
L 525 281
L 525 281
L 525 281
L 525 281
L 525 281
L 525 281
L 525 281
L 525 281
L 525 281
L 525 281
L 525 281
L 525 280
L 525 280
L 525 280
L 525 280
L 525 280
L 525 280
L 526 280
L 526 280
L 526 280
L 526 280
L 526 280
L 526 280
L 526 280
L 526 280
L 526 280
L 526 280
L 526 280
L 526 280
L 526 279
L 526 279
L 526 279
L 526 279
L 526 279
L 526 279
L 526 279
L 526 279
L 526 279
L 526 279
L 526 279
L 526 279
L 526 279
L 526 279
L 526 279
L 526 279
L 526 279
L 526 279
L 526 278
L 526 278
L 526 278
L 526 278
L 526 278
L 526 278
L 526 278
L 526 278
L 526 278
L 526 278
L 526 278
L 526 278
L 526 278
L 527 278
L 527 278
L 527 278
L 527 278
L 527 278
L 527 278
L 527 277
L 527 277
L 527 277
L 527 277
L 527 277
L 527 277
L 527 277
L 527 277
L 527 277
L 527 277
L 527 277
L 527 277
L 527 277
L 527 277
L 527 277
L 527 277
L 527 277
L 527 277
L 527 276
L 527 276
L 527 276
L 527 276
L 527 276
L 527 276
L 527 276
L 527 276
L 527 276
L 527 276
L 527 276
L 527 276
L 527 276
L 527 276
L 527 276
L 527 276
L 528 276
L 528 276
L 528 275
L 528 275
L 528 275
L 528 275
L 528 275
L 528 275
L 528 275
L 528 275
L 528 275
L 528 275
L 528 275
L 528 275
L 528 275
L 528 275
L 528 275
L 528 275
L 528 275
L 528 275
L 528 274
L 528 274
L 528 274
L 528 274
L 528 274
L 528 274
L 528 274
L 528 274
L 528 274
L 528 274
L 528 274
L 528 274
L 528 274
L 528 274
L 528 274
L 528 274
L 528 274
L 528 274
L 528 274
L 528 273
L 528 273
L 528 273
L 528 273
L 528 273
L 528 273
L 528 273
L 528 273
L 528 273
L 528 273
L 529 273
L 529 273
L 529 273
L 529 273
L 529 273
L 529 273
L 529 273
L 529 273
L 529 272
L 529 272
L 529 272
L 529 272
L 529 272
L 529 272
L 529 272
L 529 272
L 529 272
L 529 272
L 529 272
L 529 272
L 529 272
L 529 272
L 529 272
L 529 272
L 529 272
L 529 272
L 529 271
L 529 271
L 529 271
L 529 271
L 529 271
L 529 271
L 529 271
L 529 271
L 529 271
L 529 271
L 529 271
L 529 271
L 529 271
L 529 271
L 529 271
L 529 271
L 529 271
L 529 271
L 529 270
L 529 270
L 529 270
L 529 270
L 529 270
L 529 270
L 529 270
L 529 270
L 529 270
L 530 270
L 530 270
L 530 270
L 530 270
L 530 270
L 530 270
L 530 270
L 530 270
L 530 270
L 530 270
L 530 269
L 530 269
L 530 269
L 530 269
L 530 269
L 530 269
L 530 269
L 530 269
L 530 269
L 530 269
L 530 269
L 530 269
L 530 269
L 530 269
L 530 269
L 530 269
L 530 269
L 530 269
L 530 268
L 531 268
L 531 268
L 531 268
L 531 268
L 531 268
L 531 268
L 531 268
L 531 268
L 531 268
L 531 268
L 531 268
L 531 268
L 531 268
L 531 268
L 531 268
L 531 268
L 531 268
L 531 267
L 531 267
L 531 267
L 531 267
L 531 267
L 531 267
L 531 267
L 531 267
L 531 267
L 531 267
L 531 267
L 531 267
L 531 267
L 531 267
L 531 267
L 531 267
L 531 267
L 531 267
L 531 266
L 531 266
L 532 266
L 532 266
L 532 266
L 532 266
L 532 266
L 532 266
L 532 266
L 532 266
L 532 266
L 532 266
L 532 266
L 532 266
L 532 266
L 532 266
L 532 266
L 532 266
L 532 266
L 532 265
L 532 265
L 532 265
L 532 265
L 533 265
L 533 265
L 533 265
L 533 265
L 533 265
L 533 265
L 533 265
L 533 265
L 533 265
L 533 265
L 533 265
L 533 265
L 533 265
L 534 265
L 534 264
L 534 264
L 534 264
L 535 264
L 535 264
L 536 264
L 538 264
L 538 264
L 538 264
L 538 264
L 538 264
L 538 264
L 538 264
L 538 264
L 538 264
L 538 264
L 538 264
L 538 264
L 538 263
L 538 263
L 538 263
L 538 263
L 538 263
L 538 263
L 538 263
L 538 263
L 538 263
L 538 263
L 538 263
L 538 263
L 538 263
L 538 263
L 538 263
L 538 263
L 538 263
L 538 263
L 538 262
L 539 262
L 539 262
L 539 262
L 539 262
L 539 262
L 539 262
L 539 262
L 539 262
L 539 262
L 539 262
L 539 262
L 539 262
L 539 262
L 539 262
L 539 262
L 539 262
L 539 262
L 539 261
L 539 261
L 539 261
L 539 261
L 539 261
L 539 261
L 539 261
L 539 261
L 539 261
L 539 261
L 539 261
L 539 261
L 539 261
L 539 261
L 539 261
L 539 261
L 539 261
L 539 261
L 539 261
L 539 260
L 539 260
L 539 260
L 539 260
L 539 260
L 539 260
L 539 260
L 539 260
L 539 260
L 539 260
L 539 260
L 539 260
L 539 260
L 539 260
L 539 260
L 539 260
L 539 260
L 539 260
L 539 259
L 539 259
L 539 259
L 539 259
L 539 259
L 539 259
L 539 259
L 539 259
L 539 259
L 539 259
L 539 259
L 539 259
L 539 259
L 539 259
L 539 259
L 539 259
L 539 259
L 539 259
L 539 258
L 540 258
L 540 258
L 540 258
L 540 258
L 540 258
L 540 258
L 540 258
L 540 258
L 540 258
L 540 258
L 540 258
L 540 258
L 540 258
L 540 258
L 540 258
L 540 258
L 540 258
L 540 257
L 540 257
L 540 257
L 540 257
L 540 257
L 540 257
L 540 257
L 540 257
L 540 257
L 540 257
L 540 257
L 540 257
L 541 257
L 541 257
L 541 257
L 541 257
L 541 257
L 541 257
L 541 257
L 541 256
L 541 256
L 541 256
L 541 256
L 541 256
L 541 256
L 541 256
L 541 256
L 541 256
L 541 256
L 541 256
L 541 256
L 541 256
L 541 256
L 541 256
L 541 256
L 541 256
L 541 256
L 541 255
L 541 255
L 541 255
L 542 255
L 542 255
L 542 255
L 542 255
L 542 255
L 542 255
L 542 255
L 542 255
L 542 255
L 542 255
L 542 255
L 542 255
L 542 255
L 542 255
L 542 255
L 542 254
L 542 254
L 542 254
L 542 254
L 542 254
L 542 254
L 542 254
L 542 254
L 542 254
L 542 254
L 542 254
L 542 254
L 542 254
L 542 254
L 542 254
L 542 254
L 542 254
L 542 254
L 542 253
L 542 253
L 542 253
L 542 253
L 542 253
L 542 253
L 542 253
L 542 253
L 542 253
L 542 253
L 542 253
L 542 253
L 542 253
L 543 253
L 543 253
L 543 253
L 543 253
L 543 253
L 543 253
L 543 252
L 543 252
L 543 252
L 543 252
L 543 252
L 543 252
L 543 252
L 543 252
L 543 252
L 543 252
L 543 252
L 543 252
L 543 252
L 543 252
L 543 252
L 543 252
L 543 252
L 543 252
L 543 251
L 543 251
L 543 251
L 543 251
L 543 251
L 543 251
L 543 251
L 543 251
L 543 251
L 543 251
L 543 251
L 543 251
L 543 251
L 543 251
L 544 251
L 544 251
L 544 251
L 544 251
L 544 250
L 544 250
L 544 250
L 544 250
L 544 250
L 544 250
L 544 250
L 544 250
L 544 250
L 544 250
L 544 250
L 544 250
L 544 250
L 544 250
L 544 250
L 544 250
L 544 250
L 544 250
L 544 249
L 544 249
L 544 249
L 544 249
L 544 249
L 544 249
L 544 249
L 544 249
L 544 249
L 544 249
L 544 249
L 544 249
L 544 249
L 544 249
L 544 249
L 545 249
L 545 249
L 545 249
L 545 249
L 545 248
L 545 248
L 545 248
L 545 248
L 545 248
L 545 248
L 545 248
L 545 248
L 545 248
L 545 248
L 545 248
L 545 248
L 545 248
L 545 248
L 545 248
L 545 248
L 545 248
L 546 248
L 546 247
L 546 247
L 546 247
L 546 247
L 546 247
L 546 247
L 546 247
L 546 247
L 546 247
L 546 247
L 546 247
L 546 247
L 546 247
L 546 247
L 546 247
L 546 247
L 546 247
L 546 247
L 546 246
L 546 246
L 546 246
L 546 246
L 547 246
L 547 246
L 547 246
L 547 246
L 547 246
L 547 246
L 547 246
L 547 246
L 547 246
L 547 246
L 547 246
L 547 246
L 547 246
L 547 246
L 548 245
L 548 245
L 548 245
L 548 245
L 548 245
L 548 245
L 548 245
L 548 245
L 548 245
L 548 245
L 548 245
L 548 245
L 548 245
L 548 245
L 548 245
L 548 245
L 548 245
L 549 245
L 549 244
L 552 244
L 553 244
L 553 244
L 553 244
L 553 244
L 553 244
L 553 244
L 553 244
L 553 244
L 553 244
L 553 244
L 553 244
L 553 244
L 554 244
L 554 244
L 554 244
L 554 244
L 554 244
L 554 243
L 554 243
L 554 243
L 554 243
L 554 243
L 554 243
L 554 243
L 554 243
L 554 243
L 554 243
L 554 243
L 554 243
L 554 243
L 554 243
L 554 243
L 554 243
L 554 243
L 554 243
L 554 242
L 554 242
L 554 242
L 554 242
L 554 242
L 554 242
L 554 242
L 554 242
L 554 242
L 554 242
L 554 242
L 554 242
L 554 242
L 554 242
L 554 242
L 554 242
L 554 242
L 554 242
L 554 241
L 554 241
L 554 241
L 554 241
L 554 241
L 554 241
L 555 241
L 555 241
L 555 241
L 555 241
L 555 241
L 555 241
L 555 241
L 555 241
L 555 241
L 555 241
L 555 241
L 555 241
L 555 240
L 555 240
L 555 240
L 555 240
L 555 240
L 555 240
L 555 240
L 555 240
L 555 240
L 555 240
L 555 240
L 555 240
L 555 240
L 555 240
L 555 240
L 555 240
L 555 240
L 555 240
L 555 240
L 555 239
L 555 239
L 555 239
L 556 239
L 556 239
L 556 239
L 556 239
L 556 239
L 556 239
L 556 239
L 556 239
L 556 239
L 556 239
L 556 239
L 557 239
L 557 239
L 557 239
L 557 239
L 557 238
L 557 238
L 557 238
L 557 238
L 557 238
L 557 238
L 557 238
L 557 238
L 557 238
L 557 238
L 557 238
L 557 238
L 557 238
L 557 238
L 557 238
L 557 238
L 557 238
L 557 238
L 557 237
L 557 237
L 557 237
L 558 237
L 558 237
L 558 237
L 558 237
L 558 237
L 558 237
L 558 237
L 558 237
L 558 237
L 558 237
L 558 237
L 558 237
L 558 237
L 558 237
L 558 237
L 558 236
L 558 236
L 558 236
L 558 236
L 558 236
L 558 236
L 558 236
L 558 236
L 558 236
L 558 236
L 558 236
L 558 236
L 558 236
L 558 236
L 558 236
L 558 236
L 558 236
L 558 236
L 558 236
L 559 235
L 559 235
L 559 235
L 559 235
L 559 235
L 559 235
L 559 235
L 559 235
L 559 235
L 559 235
L 559 235
L 559 235
L 559 235
L 559 235
L 559 235
L 559 235
L 559 235
L 559 235
L 559 234
L 559 234
L 559 234
L 559 234
L 559 234
L 559 234
L 559 234
L 559 234
L 559 234
L 559 234
L 559 234
L 559 234
L 560 234
L 560 234
L 560 234
L 560 234
L 560 234
L 560 234
L 560 233
L 560 233
L 560 233
L 560 233
L 560 233
L 560 233
L 560 233
L 560 233
L 560 233
L 561 233
L 561 233
L 561 233
L 561 233
L 561 233
L 561 233
L 561 233
L 561 233
L 561 233
L 561 232
L 561 232
L 561 232
L 561 232
L 561 232
L 561 232
L 561 232
L 561 232
L 561 232
L 562 232
L 562 232
L 562 232
L 562 232
L 562 232
L 562 232
L 562 232
L 562 232
L 562 232
L 562 232
L 562 231
L 562 231
L 563 231
L 563 231
L 563 231
L 563 231
L 563 231
L 563 231
L 564 231
L 564 231
L 564 231
L 564 231
L 564 231
L 564 231
L 565 231
L 565 231
L 568 231
L 568 231
L 568 230
L 569 230
L 569 230
L 569 230
L 569 230
L 569 230
L 569 230
L 569 230
L 569 230
L 569 230
L 569 230
L 569 230
L 569 230
L 569 230
L 569 230
L 569 230
L 569 230
L 569 230
L 569 229
L 569 229
L 569 229
L 569 229
L 569 229
L 569 229
L 569 229
L 569 229
L 569 229
L 569 229
L 569 229
L 569 229
L 569 229
L 569 229
L 569 229
L 569 229
L 569 229
L 569 229
L 569 228
L 569 228
L 569 228
L 569 228
L 569 228
L 569 228
L 570 228
L 570 228
L 570 228
L 570 228
L 570 228
L 570 228
L 570 228
L 570 228
L 570 228
L 570 228
L 570 228
L 570 228
L 570 227
L 570 227
L 570 227
L 570 227
L 570 227
L 570 227
L 570 227
L 570 227
L 570 227
L 570 227
L 570 227
L 570 227
L 570 227
L 570 227
L 570 227
L 570 227
L 570 227
L 570 227
L 570 227
L 570 226
L 570 226
L 570 226
L 570 226
L 570 226
L 570 226
L 570 226
L 570 226
L 571 226
L 571 226
L 571 226
L 571 226
L 571 226
L 571 226
L 571 226
L 571 226
L 571 226
L 571 226
L 571 225
L 571 225
L 572 225
L 572 225
L 572 225
L 572 225
L 572 225
L 572 225
L 572 225
L 572 225
L 572 225
L 572 225
L 572 225
L 572 225
L 572 225
L 572 225
L 572 225
L 572 225
L 572 224
L 572 224
L 572 224
L 572 224
L 572 224
L 572 224
L 572 224
L 572 224
L 572 224
L 572 224
L 572 224
L 572 224
L 572 224
L 572 224
L 572 224
L 572 224
L 572 224
L 572 224
L 572 223
L 572 223
L 572 223
L 572 223
L 572 223
L 572 223
L 572 223
L 573 223
L 573 223
L 573 223
L 573 223
L 573 223
L 573 223
L 573 223
L 573 223
L 573 223
L 573 223
L 573 223
L 573 223
L 573 222
L 573 222
L 573 222
L 573 222
L 573 222
L 573 222
L 573 222
L 573 222
L 573 222
L 573 222
L 573 222
L 573 222
L 573 222
L 573 222
L 573 222
L 573 222
L 573 222
L 573 222
L 573 221
L 573 221
L 573 221
L 573 221
L 573 221
L 573 221
L 573 221
L 573 221
L 573 221
L 574 221
L 574 221
L 574 221
L 574 221
L 574 221
L 574 221
L 574 221
L 574 221
L 574 221
L 574 220
L 574 220
L 574 220
L 574 220
L 574 220
L 574 220
L 574 220
L 574 220
L 574 220
L 574 220
L 574 220
L 574 220
L 574 220
L 574 220
L 574 220
L 574 220
L 574 220
L 574 220
L 574 219
L 574 219
L 574 219
L 574 219
L 574 219
L 574 219
L 574 219
L 574 219
L 574 219
L 574 219
L 574 219
L 574 219
L 575 219
L 575 219
L 575 219
L 575 219
L 575 219
L 575 219
L 575 219
L 575 218
L 575 218
L 575 218
L 575 218
L 575 218
L 575 218
L 575 218
L 575 218
L 576 218
L 576 218
L 576 218
L 576 218
L 576 218
L 576 218
L 576 218
L 576 218
L 576 218
L 576 218
L 576 217
L 576 217
L 576 217
L 577 217
L 577 217
L 577 217
L 577 217
L 577 217
L 577 217
L 577 217
L 577 217
L 577 217
L 577 217
L 577 217
L 577 217
L 577 217
L 577 217
L 578 217
L 578 216
L 578 216
L 578 216
L 578 216
L 578 216
L 578 216
L 578 216
L 578 216
L 578 216
L 578 216
L 578 216
L 578 216
L 578 216
L 579 216
L 579 216
L 579 216
L 579 216
L 579 216
L 579 215
L 581 215
L 581 215
L 581 215
L 582 215
L 583 215
L 583 215
L 584 215
L 584 215
L 584 215
L 584 215
L 584 215
L 584 215
L 584 215
L 584 215
L 584 215
L 584 215
L 584 215
L 584 215
L 584 214
L 584 214
L 584 214
L 584 214
L 584 214
L 584 214
L 584 214
L 584 214
L 584 214
L 584 214
L 584 214
L 584 214
L 584 214
L 585 214
L 585 214
L 585 214
L 585 214
L 585 214
L 585 213
L 585 213
L 585 213
L 585 213
L 585 213
L 585 213
L 585 213
L 585 213
L 585 213
L 585 213
L 585 213
L 585 213
L 585 213
L 585 213
L 585 213
L 585 213
L 585 213
L 585 213
L 585 212
L 585 212
L 585 212
L 585 212
L 585 212
L 585 212
L 585 212
L 585 212
L 585 212
L 585 212
L 585 212
L 585 212
L 585 212
L 585 212
L 585 212
L 585 212
L 585 212
L 585 212
L 585 211
L 585 211
L 585 211
L 585 211
L 585 211
L 585 211
L 585 211
L 585 211
L 585 211
L 585 211
L 585 211
L 585 211
L 585 211
L 585 211
L 585 211
L 585 211
L 585 211
L 585 211
L 585 210
L 585 210
L 586 210
L 586 210
L 586 210
L 586 210
L 586 210
L 586 210
L 586 210
L 586 210
L 586 210
L 586 210
L 586 210
L 586 210
L 586 210
L 586 210
L 586 210
L 586 210
L 586 210
L 586 209
L 586 209
L 586 209
L 586 209
L 586 209
L 586 209
L 586 209
L 586 209
L 586 209
L 587 209
L 587 209
L 587 209
L 587 209
L 587 209
L 587 209
L 587 209
L 587 209
L 587 209
L 587 208
L 587 208
L 587 208
L 587 208
L 587 208
L 587 208
L 587 208
L 587 208
L 587 208
L 587 208
L 587 208
L 587 208
L 587 208
L 587 208
L 587 208
L 587 208
L 587 208
L 587 208
L 587 207
L 587 207
L 587 207
L 587 207
L 587 207
L 587 207
L 588 207
L 588 207
L 588 207
L 588 207
L 588 207
L 588 207
L 588 207
L 588 207
L 588 207
L 588 207
L 588 207
L 588 207
L 588 206
L 588 206
L 588 206
L 588 206
L 588 206
L 588 206
L 588 206
L 588 206
L 588 206
L 588 206
L 588 206
L 588 206
L 588 206
L 588 206
L 588 206
L 588 206
L 588 206
L 588 206
L 588 206
L 588 205
L 588 205
L 588 205
L 588 205
L 588 205
L 588 205
L 588 205
L 588 205
L 588 205
L 588 205
L 588 205
L 588 205
L 588 205
L 588 205
L 588 205
L 588 205
L 589 205
L 589 205
L 589 204
L 589 204
L 589 204
L 589 204
L 589 204
L 589 204
L 589 204
L 589 204
L 589 204
L 589 204
L 589 204
L 589 204
L 589 204
L 589 204
L 589 204
L 589 204
L 589 204
L 589 204
L 589 203
L 589 203
L 589 203
L 589 203
L 589 203
L 589 203
L 589 203
L 589 203
L 589 203
L 589 203
L 589 203
L 590 203
L 590 203
L 590 203
L 590 203
L 590 203
L 590 203
L 590 203
L 590 202
L 590 202
L 590 202
L 590 202
L 590 202
L 590 202
L 590 202
L 590 202
L 590 202
L 590 202
L 590 202
L 591 202
L 591 202
L 591 202
L 591 202
L 591 202
L 591 202
L 591 202
L 591 202
L 591 201
L 591 201
L 592 201
L 592 201
L 592 201
L 592 201
L 592 201
L 592 201
L 592 201
L 592 201
L 592 201
L 593 201
L 593 201
L 593 201
L 593 201
L 593 201
L 593 201
L 593 201
L 593 200
L 593 200
L 593 200
L 593 200
L 594 200
L 594 200
L 594 200
L 594 200
L 594 200
L 594 200
L 594 200
L 594 200
L 595 200
L 597 200
L 597 200
L 598 200
L 598 200
L 598 200
L 599 199
L 599 199
L 599 199
L 599 199
L 600 199
L 600 199
L 600 199
L 600 199
L 600 199
L 600 199
L 600 199
L 600 199
L 600 199
L 600 199
L 601 199
L 601 199
L 601 199
L 601 199
L 601 198
L 601 198
L 601 198
L 601 198
L 601 198
L 601 198
L 601 198
L 601 198
L 602 198
L 602 198
L 602 198
L 602 198
L 602 198
L 602 198
L 602 198
L 602 198
L 603 198
L 603 198
L 603 198
L 603 197
L 603 197
L 603 197
L 603 197
L 603 197
L 604 197
L 604 197
L 604 197
L 604 197
L 604 197
L 604 197
L 604 197
L 605 197
L 605 197
L 605 197
L 606 197
L 606 197
L 606 197
L 606 196
L 606 196
L 606 196
L 606 196
L 607 196
L 607 196
L 607 196
L 607 196
L 607 196
L 607 196
L 608 196
L 608 196
L 608 196
L 608 196
L 608 196
L 608 196
L 608 196
L 608 196
L 609 195
L 609 195
L 609 195
L 609 195
L 609 195
L 609 195
L 609 195
L 610 195
L 611 195
L 611 195
L 611 195
L 612 195
L 612 195
L 612 195
L 613 195
L 613 195
L 614 195
L 614 195
L 615 194
L 615 194
L 615 194
L 615 194
L 615 194
L 615 194
L 616 194
L 616 194
L 616 194
L 616 194
L 616 194
L 616 194
L 616 194
L 616 194
L 616 194
L 617 194
L 617 194
L 617 194
L 617 193
L 617 193
L 618 193
L 618 193
L 618 193
L 618 193
L 618 193
L 618 193
L 618 193
L 619 193
L 619 193
L 619 193
L 619 193
L 620 193
L 620 193
L 620 193
L 620 193
L 621 193
L 621 193
L 621 192
L 621 192
L 621 192
L 621 192
L 621 192
L 622 192
L 622 192
L 622 192
L 622 192
L 622 192
L 622 192
L 623 192
L 623 192
L 623 192
L 623 192
L 623 192
L 623 192
L 623 192
L 623 191
L 623 191
L 624 191
L 624 191
L 624 191
L 624 191
L 624 191
L 625 191
L 625 191
L 625 191
L 625 191
L 626 191
L 626 191
L 627 191
L 628 191
L 629 191
L 629 191
L 630 191
L 630 190
L 630 190
L 630 190
L 630 190
L 630 190
L 630 190
L 631 190
L 631 190
L 631 190
L 632 190
L 632 190
L 632 190
L 632 190
L 632 190
L 632 190
L 633 190
L 633 190
L 633 190
L 633 189
L 633 189
L 633 189
L 633 189
L 633 189
L 633 189
L 633 189
L 633 189
L 634 189
L 634 189
L 634 189
L 634 189
L 634 189
L 635 189
L 635 189
L 635 189
L 635 189
L 635 189
L 635 189
L 635 188
L 635 188
L 636 188
L 636 188
L 636 188
L 636 188
L 636 188
L 636 188
L 636 188
L 636 188
L 636 188
L 636 188
L 637 188
L 637 188
L 637 188
L 637 188
L 637 188
L 637 188
L 637 187
L 637 187
L 637 187
L 637 187
L 638 187
L 638 187
L 638 187
L 638 187
L 638 187
L 638 187
L 638 187
L 638 187
L 638 187
L 638 187
L 638 187
L 638 187
L 639 187
L 639 187
L 639 186
L 639 186
L 640 186
L 640 186
L 640 186
L 640 186
L 641 186
L 644 186
L 645 186
L 645 186
L 645 186
L 645 186
L 645 186
L 645 186
L 645 186
L 645 186
L 645 186
L 645 186
L 645 185
L 645 185
L 645 185
L 645 185
L 645 185
L 645 185
L 645 185
L 645 185
L 645 185
L 645 185
L 645 185
L 645 185
L 645 185
L 645 185
L 645 185
L 645 185
L 645 185
L 646 185
L 646 185
L 646 184
L 646 184
L 646 184
L 646 184
L 646 184
L 646 184
L 646 184
L 646 184
L 646 184
L 646 184
L 646 184
L 646 184
L 646 184
L 646 184
L 646 184
L 646 184
L 646 184
L 646 184
L 646 183
L 646 183
L 646 183
L 646 183
L 646 183
L 646 183
L 646 183
L 646 183
L 646 183
L 646 183
L 646 183
L 646 183
L 646 183
L 646 183
L 646 183
L 646 183
L 646 183
L 647 183
L 647 182
L 647 182
L 647 182
L 647 182
L 647 182
L 647 182
L 647 182
L 647 182
L 647 182
L 647 182
L 647 182
L 647 182
L 648 182
L 648 182
L 648 182
L 648 182
L 648 182
L 648 182
L 648 181
L 648 181
L 648 181
L 648 181
L 648 181
L 648 181
L 648 181
L 648 181
L 648 181
L 648 181
L 648 181
L 648 181
L 648 181
L 648 181
L 648 181
L 648 181
L 648 181
L 648 181
L 648 181
L 648 180
L 648 180
L 648 180
L 648 180
L 648 180
L 648 180
L 649 180
L 649 180
L 649 180
L 649 180
L 649 180
L 649 180
L 649 180
L 649 180
L 649 180
L 649 180
L 649 180
L 649 180
L 649 179
L 649 179
L 649 179
L 649 179
L 649 179
L 649 179
L 649 179
L 649 179
L 649 179
L 649 179
L 649 179
L 649 179
L 650 179
L 650 179
L 650 179
L 650 179
L 650 179
L 650 179
L 650 178
L 650 178
L 650 178
L 650 178
L 650 178
L 650 178
L 650 178
L 650 178
L 650 178
L 650 178
L 650 178
L 650 178
L 650 178
L 650 178
L 650 178
L 650 178
L 651 178
L 651 178
L 651 177
L 651 177
L 651 177
L 651 177
L 651 177
L 651 177
L 651 177
L 651 177
L 651 177
L 651 177
L 652 177
L 652 177
L 652 177
L 652 177
L 652 177
L 652 177
L 652 177
L 652 177
L 652 176
L 652 176
L 652 176
L 652 176
L 653 176
L 653 176
L 653 176
L 653 176
L 653 176
L 653 176
L 653 176
L 653 176
L 653 176
L 653 176
L 653 176
L 653 176
L 653 176
L 653 176
L 653 176
L 653 175
L 653 175
L 653 175
L 653 175
L 653 175
L 653 175
L 653 175
L 653 175
L 653 175
L 654 175
L 654 175
L 654 175
L 654 175
L 654 175
L 654 175
L 654 175
L 654 175
L 654 175
L 654 174
L 654 174
L 654 174
L 654 174
L 655 174
L 655 174
L 655 174
L 655 174
L 656 174
L 656 174
L 656 174
L 656 174
L 657 174
L 658 174
L 659 174
L 659 174
L 659 174
L 660 174
L 660 173
L 660 173
L 660 173
L 660 173
L 660 173
L 660 173
L 660 173
L 660 173
L 660 173
L 660 173
L 660 173
L 660 173
L 660 173
L 660 173
L 660 173
L 660 173
L 660 173
L 660 173
L 660 172
L 660 172
L 660 172
L 660 172
L 660 172
L 660 172
L 660 172
L 661 172
L 661 172
L 661 172
L 661 172
L 661 172
L 661 172
L 661 172
L 661 172
L 661 172
L 661 172
L 661 172
L 661 172
L 661 171
L 661 171
L 661 171
L 661 171
L 661 171
L 661 171
L 661 171
L 661 171
L 661 171
L 661 171
L 661 171
L 661 171
L 661 171
L 661 171
L 661 171
L 661 171
L 661 171
L 661 171
L 661 170
L 661 170
L 661 170
L 661 170
L 661 170
L 661 170
L 661 170
L 661 170
L 661 170
L 661 170
L 662 170
L 662 170
L 662 170
L 662 170
L 662 170
L 662 170
L 662 170
L 662 170
L 662 169
L 662 169
L 662 169
L 662 169
L 663 169
L 663 169
L 663 169
L 663 169
L 663 169
L 663 169
L 663 169
L 663 169
L 663 169
L 663 169
L 663 169
L 663 169
L 663 169
L 663 169
L 663 168
L 663 168
L 663 168
L 663 168
L 663 168
L 663 168
L 663 168
L 663 168
L 664 168
L 664 168
L 664 168
L 664 168
L 664 168
L 664 168
L 664 168
L 664 168
L 664 168
L 664 168
L 664 168
L 664 167
L 664 167
L 664 167
L 664 167
L 664 167
L 664 167
L 664 167
L 664 167
L 664 167
L 664 167
L 664 167
L 664 167
L 664 167
L 664 167
L 664 167
L 664 167
L 664 167
L 664 167
L 664 166
L 664 166
L 665 166
L 665 166
L 665 166
L 665 166
L 665 166
L 665 166
L 665 166
L 665 166
L 665 166
L 665 166
L 665 166
L 665 166
L 665 166
L 665 166
L 665 166
L 665 166
L 665 165
L 665 165
L 665 165
L 665 165
L 665 165
L 665 165
L 665 165
L 665 165
L 665 165
L 665 165
L 665 165
L 665 165
L 665 165
L 665 165
L 665 165
L 665 165
L 665 165
L 665 165
L 665 164
L 665 164
L 665 164
L 665 164
L 665 164
L 665 164
L 666 164
L 666 164
L 666 164
L 666 164
L 666 164
L 666 164
L 666 164
L 666 164
L 666 164
L 666 164
L 666 164
L 666 164
L 666 163
L 666 163
L 666 163
L 666 163
L 666 163
L 666 163
L 666 163
L 666 163
L 666 163
L 666 163
L 666 163
L 666 163
L 666 163
L 666 163
L 666 163
L 666 163
L 666 163
L 666 163
L 666 163
L 666 162
L 666 162
L 666 162
L 667 162
L 667 162
L 667 162
L 667 162
L 667 162
L 667 162
L 667 162
L 667 162
L 667 162
L 667 162
L 667 162
L 667 162
L 667 162
L 667 162
L 667 162
L 667 161
L 667 161
L 668 161
L 668 161
L 668 161
L 668 161
L 668 161
L 668 161
L 668 161
L 668 161
L 668 161
L 668 161
L 668 161
L 668 161
L 668 161
L 668 161
L 668 161
L 668 161
L 668 160
L 669 160
L 669 160
L 669 160
L 669 160
L 669 160
L 669 160
L 669 160
L 669 160
L 669 160
L 669 160
L 669 160
L 669 160
L 669 160
L 669 160
L 669 160
L 669 160
L 669 160
L 669 159
L 669 159
L 670 159
L 670 159
L 670 159
L 670 159
L 670 159
L 670 159
L 670 159
L 670 159
L 670 159
L 671 159
L 671 159
L 671 159
L 672 159
L 673 159
L 674 159
L 675 159
L 675 159
L 675 158
L 675 158
L 675 158
L 675 158
L 675 158
L 675 158
L 675 158
L 675 158
L 675 158
L 675 158
L 675 158
L 675 158
L 675 158
L 675 158
L 675 158
L 676 158
L 676 158
L 676 158
L 676 157
L 676 157
L 676 157
L 676 157
L 676 157
L 676 157
L 676 157
L 676 157
L 676 157
L 676 157
L 676 157
L 676 157
L 676 157
L 676 157
L 676 157
L 676 157
L 676 157
L 676 157
L 676 156
L 676 156
L 676 156
L 676 156
L 676 156
L 677 156
L 677 156
L 677 156
L 677 156
L 677 156
L 677 156
L 677 156
L 677 156
L 677 156
L 677 156
L 677 156
L 677 156
L 677 156
L 677 155
L 677 155
L 677 155
L 677 155
L 677 155
L 677 155
L 677 155
L 677 155
L 678 155
L 678 155
L 678 155
L 678 155
L 678 155
L 678 155
L 678 155
L 678 155
L 678 155
L 678 155
L 678 155
L 678 154
L 678 154
L 678 154
L 679 154
L 679 154
L 679 154
L 679 154
L 679 154
L 679 154
L 679 154
L 679 154
L 679 154
L 679 154
L 679 154
L 679 154
L 679 154
L 679 154
L 679 154
L 679 153
L 679 153
L 679 153
L 679 153
L 679 153
L 680 153
L 680 153
L 680 153
L 680 153
L 680 153
L 680 153
L 680 153
L 680 153
L 680 153
L 680 153
L 680 153
L 680 153
L 680 153
L 680 152
L 680 152
L 680 152
L 680 152
L 680 152
L 680 152
L 680 152
L 680 152
L 680 152
L 680 152
L 680 152
L 680 152
L 680 152
L 680 152
L 680 152
L 680 152
L 680 152
L 681 152
L 681 151
L 681 151
L 681 151
L 681 151
L 681 151
L 681 151
L 681 151
L 681 151
L 681 151
L 681 151
L 681 151
L 681 151
L 681 151
L 681 151
L 681 151
L 681 151
L 681 151
L 681 151
L 681 151
L 681 150
L 681 150
L 681 150
L 681 150
L 681 150
L 682 150
L 682 150
L 682 150
L 682 150
L 682 150
L 682 150
L 682 150
L 682 150
L 683 150
L 683 150
L 683 150
L 683 150
L 683 150
L 683 149
L 683 149
L 683 149
L 683 149
L 683 149
L 683 149
L 683 149
L 683 149
L 684 149
L 684 149
L 684 149
L 684 149
L 684 149
L 684 149
L 684 149
L 684 149
L 684 149
L 684 149
L 684 148
L 685 148
L 685 148
L 685 148
L 685 148
L 686 148
L 686 148
L 686 148
L 687 148
L 687 148
L 688 148
L 688 148
L 688 148
L 688 148
L 690 148
L 690 148
L 690 148
L 691 148
L 691 147
L 691 147
L 691 147
L 691 147
L 691 147
L 691 147
L 691 147
L 691 147
L 691 147
L 691 147
L 691 147
L 691 147
L 691 147
L 691 147
L 691 147
L 691 147
L 691 147
L 692 147
L 692 147
L 692 146
L 692 146
L 692 146
L 692 146
L 692 146
L 692 146
L 692 146
L 692 146
L 692 146
L 692 146
L 692 146
L 692 146
L 692 146
L 692 146
L 692 146
L 692 146
L 693 146
L 693 146
L 693 145
L 693 145
L 693 145
L 693 145
L 693 145
L 694 145
L 694 145
L 694 145
L 694 145
L 694 145
L 694 145
L 694 145
L 694 145
L 694 145
L 694 145
L 694 145
L 694 145
L 695 145
L 695 144
L 695 144
L 695 144
L 695 144
L 695 144
L 695 144
L 696 144
L 696 144
L 696 144
L 696 144
L 696 144
L 696 144
L 696 144
L 696 144
L 696 144
L 697 144
L 697 144
L 697 144
L 697 143
L 697 143
L 697 143
L 697 143
L 698 143
L 698 143
L 698 143
L 698 143
L 698 143
L 698 143
L 698 143
L 698 143
L 698 143
L 698 143
L 698 143
L 698 143
L 698 143
L 699 143
L 699 142
L 699 142
L 699 142
L 699 142
L 699 142
L 699 142
L 699 142
L 699 142
L 700 142
L 700 142
L 700 142
L 700 142
L 700 142
L 700 142
L 701 142
L 701 142
L 706 142
L 706 142
L 707 142
L 707 141
L 707 141
L 707 141
L 707 141
L 707 141
L 708 141
L 708 141
L 708 141
L 708 141
L 708 141
L 708 141
L 708 141
L 708 141
L 708 141
L 709 141
L 709 141
L 709 141
L 709 141
L 709 140
L 710 140
L 710 140
L 710 140
L 710 140
L 710 140
L 710 140
L 710 140
L 711 140
L 711 140
L 711 140
L 711 140
L 711 140
L 711 140
L 711 140
L 711 140
L 711 140
L 711 140
L 711 139
L 712 139
L 712 139
L 712 139
L 712 139
L 712 139
L 712 139
L 712 139
L 712 139
L 712 139
L 712 139
L 713 139
L 713 139
L 713 139
L 713 139
L 713 139
L 713 139
L 713 139
L 714 138
L 714 138
L 714 138
L 714 138
L 714 138
L 714 138
L 714 138
L 714 138
L 714 138
L 714 138
L 714 138
L 714 138
L 714 138
L 714 138
L 715 138
L 715 138
L 715 138
L 715 138
L 715 138
L 715 137
L 715 137
L 715 137
L 716 137
L 716 137
L 716 137
L 716 137
L 716 137
L 716 137
L 716 137
L 717 137
L 718 137
L 718 137
L 718 137
L 718 137
L 720 137
L 720 137
L 720 137
L 721 136
L 721 136
L 721 136
L 721 136
L 721 136
L 721 136
L 721 136
L 721 136
L 721 136
L 721 136
L 721 136
L 721 136
L 721 136
L 721 136
L 721 136
L 721 136
L 721 136
L 721 136
L 721 135
L 721 135
L 721 135
L 721 135
L 722 135
L 722 135
L 722 135
L 722 135
L 722 135
L 722 135
L 722 135
L 722 135
L 722 135
L 722 135
L 722 135
L 722 135
L 722 135
L 722 135
L 722 134
L 722 134
L 722 134
L 722 134
L 722 134
L 722 134
L 722 134
L 722 134
L 722 134
L 723 134
L 723 134
L 723 134
L 723 134
L 723 134
L 723 134
L 723 134
L 723 134
L 723 134
L 723 134
L 723 133
L 723 133
L 723 133
L 723 133
L 724 133
L 724 133
L 724 133
L 724 133
L 724 133
L 724 133
L 724 133
L 724 133
L 724 133
L 724 133
L 724 133
L 724 133
L 724 133
L 724 133
L 724 132
L 725 132
L 725 132
L 725 132
L 725 132
L 725 132
L 725 132
L 725 132
L 725 132
L 725 132
L 725 132
L 725 132
L 725 132
L 725 132
L 725 132
L 725 132
L 725 132
L 725 132
L 726 131
L 726 131
L 726 131
L 726 131
L 726 131
L 726 131
L 726 131
L 726 131
L 726 131
L 726 131
L 726 131
L 726 131
L 726 131
L 726 131
L 727 131
L 727 131
L 727 131
L 727 131
L 727 130
L 727 130
L 727 130
L 728 130
L 728 130
L 728 130
L 728 130
L 728 130
L 728 130
L 728 130
L 728 130
L 728 130
L 728 130
L 728 130
L 728 130
L 728 130
L 729 130
L 729 130
L 729 130
L 729 129
L 729 129
L 729 129
L 729 129
L 729 129
L 729 129
L 730 129
L 730 129
L 730 129
L 730 129
L 730 129
L 730 129
L 730 129
L 730 129
L 731 129
L 731 129
L 731 129
L 731 129
L 733 128
L 735 128
L 736 128
L 736 128
L 736 128
L 736 128
L 736 128
L 736 128
L 736 128
L 736 128
L 736 128
L 736 128
L 737 128
L 737 128
L 737 128
L 737 128
L 737 128
L 737 128
L 737 127
L 737 127
L 737 127
L 737 127
L 737 127
L 737 127
L 737 127
L 737 127
L 737 127
L 737 127
L 737 127
L 737 127
L 737 127
L 738 127
L 738 127
L 738 127
L 738 127
L 738 127
L 738 126
L 738 126
L 738 126
L 738 126
L 738 126
L 738 126
L 739 126
L 739 126
L 739 126
L 739 126
L 739 126
L 739 126
L 739 126
L 739 126
L 739 126
L 739 126
L 739 126
L 739 126
L 739 125
L 739 125
L 740 125
L 740 125
L 740 125
L 740 125
L 740 125
L 740 125
L 740 125
L 740 125
L 740 125
L 740 125
L 740 125
L 741 125
L 741 125
L 741 125
L 741 125
L 741 125
L 741 125
L 741 124
L 741 124
L 741 124
L 741 124
L 741 124
L 741 124
L 741 124
L 741 124
L 741 124
L 741 124
L 741 124
L 741 124
L 741 124
L 741 124
L 741 124
L 741 124
L 741 124
L 741 124
L 741 123
L 741 123
L 741 123
L 741 123
L 742 123
L 742 123
L 742 123
L 742 123
L 742 123
L 742 123
L 742 123
L 742 123
L 742 123
L 742 123
L 742 123
L 742 123
L 742 123
L 743 123
L 743 122
L 743 122
L 743 122
L 743 122
L 743 122
L 743 122
L 743 122
L 743 122
L 744 122
L 744 122
L 744 122
L 744 122
L 744 122
L 744 122
L 744 122
L 744 122
L 744 122
L 744 122
L 744 121
L 744 121
L 744 121
L 744 121
L 744 121
L 744 121
L 744 121
L 744 121
L 744 121
L 745 121
L 745 121
L 745 121
L 745 121
L 745 121
L 745 121
L 745 121
L 745 121
L 745 121
L 745 121
L 746 120
L 746 120
L 746 120
L 746 120
L 747 120
L 747 120
L 747 120
L 749 120
L 751 120
L 751 120
L 751 120
L 751 120
L 751 120
L 752 120
L 752 120
L 752 120
L 752 120
L 752 120
L 752 119
L 752 119
L 752 119
L 752 119
L 752 119
L 752 119
L 752 119
L 752 119
L 752 119
L 752 119
L 752 119
L 752 119
L 752 119
L 752 119
L 752 119
L 752 119
L 752 119
L 752 119
L 752 118
L 753 118
L 753 118
L 753 118
L 753 118
L 753 118
L 753 118
L 753 118
L 753 118
L 753 118
L 753 118
L 753 118
L 753 118
L 753 118
L 753 118
L 753 118
L 753 118
L 753 118
L 753 117
L 753 117
L 753 117
L 753 117
L 754 117
L 754 117
L 754 117
L 754 117
L 754 117
L 754 117
L 754 117
L 754 117
L 754 117
L 754 117
L 755 117
L 755 117
L 755 117
L 755 117
L 755 117
L 755 116
L 755 116
L 755 116
L 755 116
L 755 116
L 755 116
L 755 116
L 755 116
L 755 116
L 755 116
L 755 116
L 755 116
L 755 116
L 755 116
L 755 116
L 755 116
L 755 116
L 755 116
L 755 115
L 755 115
L 755 115
L 755 115
L 755 115
L 755 115
L 756 115
L 756 115
L 756 115
L 756 115
L 756 115
L 756 115
L 756 115
L 756 115
L 756 115
L 756 115
L 756 115
L 756 115
L 756 114
L 756 114
L 757 114
L 757 114
L 757 114
L 757 114
L 757 114
L 757 114
L 757 114
L 757 114
L 757 114
L 757 114
L 757 114
L 758 114
L 758 114
L 758 114
L 758 114
L 758 114
L 758 113
L 759 113
L 759 113
L 759 113
L 759 113
L 759 113
L 759 113
L 759 113
L 759 113
L 759 113
L 760 113
L 760 113
L 760 113
L 760 113
L 760 113
L 760 113
L 760 113
L 760 113
L 760 113
L 760 112
L 760 112
L 760 112
L 761 112
L 761 112
L 761 112
L 761 112
L 761 112
L 761 112
L 761 112
L 761 112
L 761 112
L 761 112
L 762 112
L 762 112
L 762 112
L 763 112
L 765 112
L 766 111
L 766 111
L 766 111
L 766 111
L 766 111
L 766 111
L 766 111
L 766 111
L 766 111
L 766 111
L 766 111
L 766 111
L 766 111
L 766 111
L 766 111
L 766 111
L 766 111
L 766 111
L 766 110
L 766 110
L 766 110
L 766 110
L 766 110
L 767 110
L 767 110
L 767 110
L 767 110
L 767 110
L 767 110
L 767 110
L 767 110
L 767 110
L 767 110
L 767 110
L 767 110
L 767 110
L 767 109
L 767 109
L 767 109
L 767 109
L 767 109
L 767 109
L 767 109
L 767 109
L 767 109
L 767 109
L 767 109
L 767 109
L 767 109
L 767 109
L 767 109
L 767 109
L 767 109
L 767 109
L 767 108
L 767 108
L 767 108
L 767 108
L 767 108
L 767 108
L 767 108
L 767 108
L 767 108
L 767 108
L 767 108
L 767 108
L 767 108
L 767 108
L 767 108
L 767 108
L 767 108
L 767 108
L 768 108
L 768 107
L 768 107
L 768 107
L 768 107
L 768 107
L 768 107
L 768 107
L 768 107
L 768 107
L 768 107
L 768 107
L 768 107
L 768 107
L 768 107
L 768 107
L 768 107
L 768 107
L 768 107
L 768 106
L 768 106
L 768 106
L 768 106
L 768 106
L 768 106
L 768 106
L 768 106
L 768 106
L 768 106
L 768 106
L 768 106
L 769 106
L 769 106
L 769 106
L 769 106
L 769 106
L 769 106
L 769 105
L 769 105
L 769 105
L 769 105
L 769 105
L 769 105
L 769 105
L 769 105
L 770 105
L 770 105
L 770 105
L 770 105
L 770 105
L 770 105
L 770 105
L 770 105
L 770 105
L 770 105
L 770 104
L 770 104
L 770 104
L 770 104
L 770 104
L 770 104
L 770 104
L 770 104
L 770 104
L 770 104
L 770 104
L 770 104
L 770 104
L 770 104
L 770 104
L 770 104
L 770 104
L 770 104
L 770 104
L 770 103
L 770 103
L 770 103
L 770 103
L 770 103
L 770 103
L 770 103
L 770 103
L 770 103
L 770 103
L 770 103
L 770 103
L 770 103
L 770 103
L 771 103
L 771 103
L 771 103
L 771 103
L 771 102
L 771 102
L 771 102
L 771 102
L 771 102
L 771 102
L 771 102
L 771 102
L 771 102
L 771 102
L 771 102
L 771 102
L 771 102
L 771 102
L 771 102
L 771 102
L 771 102
L 771 102
L 771 101
L 771 101
L 771 101
L 771 101
L 771 101
L 772 101
L 772 101
L 772 101
L 772 101
L 772 101
L 772 101
L 772 101
L 772 101
L 772 101
L 772 101
L 772 101
L 772 101
L 772 101
L 772 100
L 772 100
L 772 100
L 772 100
L 772 100
L 772 100
L 772 100
L 772 100
L 772 100
L 772 100
L 772 100
L 772 100
L 773 100
L 773 100
L 773 100
L 773 100
L 773 100
L 773 100
L 773 100
L 773 99
L 773 99
L 773 99
L 773 99
L 773 99
L 773 99
L 773 99
L 773 99
L 773 99
L 773 99
L 773 99
L 774 99
L 774 99
L 774 99
L 774 99
L 774 99
L 774 99
L 774 99
L 774 98
L 774 98
L 774 98
L 774 98
L 774 98
L 774 98
L 774 98
L 774 98
L 774 98
L 774 98
L 774 98
L 774 98
L 774 98
L 774 98
L 774 98
L 774 98
L 774 98
L 775 98
L 775 97
L 775 97
L 775 97
L 775 97
L 775 97
L 775 97
L 775 97
L 775 97
L 775 97
L 775 97
L 775 97
L 775 97
L 775 97
L 775 97
L 775 97
L 776 97
L 776 97
L 776 97
L 776 96
L 776 96
L 776 96
L 776 96
L 776 96
L 777 96
L 777 96
L 777 96
L 777 96
L 777 96
L 777 96
L 777 96
L 778 96
L 778 96
L 778 96
L 778 96
L 779 96
L 779 96
L 781 96
L 781 95
L 781 95
L 781 95
L 781 95
L 781 95
L 782 95
L 782 95
L 782 95
L 782 95
L 782 95
L 782 95
L 782 95
L 782 95
L 782 95
L 782 95
L 782 95
L 782 95
L 782 95
L 782 94
L 782 94
L 782 94
L 782 94
L 782 94
L 782 94
L 782 94
L 782 94
L 782 94
L 782 94
L 782 94
L 783 94
L 783 94
L 783 94
L 783 94
L 783 94
L 783 94
L 783 94
L 783 93
L 783 93
L 783 93
L 783 93
L 783 93
L 783 93
L 783 93
L 783 93
L 783 93
L 783 93
L 783 93
L 783 93
L 783 93
L 783 93
L 783 93
L 783 93
L 783 93
L 784 93
L 784 92
L 784 92
L 784 92
L 784 92
L 784 92
L 784 92
L 784 92
L 784 92
L 784 92
L 785 92
L 785 92
L 785 92
L 785 92
L 785 92
L 785 92
L 785 92
L 785 92
L 785 92
L 785 91
L 785 91
L 785 91
L 785 91
L 785 91
L 785 91
L 785 91
L 785 91
L 785 91
L 785 91
L 785 91
L 785 91
L 785 91
L 785 91
L 785 91
L 785 91
L 785 91
L 785 91
L 785 91
L 785 90
L 785 90
L 786 90
L 786 90
L 786 90
L 786 90
L 786 90
L 786 90
L 786 90
L 786 90
L 786 90
L 786 90
L 786 90
L 786 90
L 786 90
L 786 90
L 786 90
L 786 90
L 786 89
L 786 89
L 786 89
L 786 89
L 786 89
L 786 89
L 786 89
L 787 89
L 787 89
L 787 89
L 787 89
L 787 89
L 787 89
L 787 89
L 787 89
L 787 89
L 787 89
L 787 89
L 787 88
L 787 88
L 787 88
L 787 88
L 787 88
L 787 88
L 787 88
L 787 88
L 787 88
L 787 88
L 787 88
L 787 88
L 788 88
L 788 88
L 788 88
L 788 88
L 788 88
L 788 88
L 788 87
L 788 87
L 788 87
L 789 87
L 789 87
L 789 87
L 789 87
L 789 87
L 789 87
L 789 87
L 789 87
L 789 87
L 789 87
L 790 87
L 790 87
L 790 87
L 790 87
L 790 87
L 790 87
L 790 86
L 791 86
L 791 86
L 791 86
L 791 86
L 791 86
L 791 86
L 791 86
L 791 86
L 791 86
L 792 86
L 792 86
L 792 86
L 792 86
L 792 86
L 793 86
L 793 86
L 793 86
L 793 85
L 796 85
L 797 85
L 797 85
L 798 85
L 798 85
L 798 85
L 798 85
L 798 85
L 798 85
L 798 85
L 798 85
L 798 85
L 799 85
L 799 85
L 799 85
L 799 85
L 799 85
L 800 84
L 800 84
L 800 84
L 800 84
L 800 84
L 801 84
L 801 84
L 801 84
L 801 84
L 801 84
L 801 84
L 801 84
L 801 84
L 801 84
L 802 84
L 802 84
L 802 84
L 802 84
L 802 83
L 802 83
L 802 83
L 802 83
L 802 83
L 802 83
L 802 83
L 803 83
L 803 83
L 803 83
L 804 83
L 804 83
L 804 83
L 805 83
L 805 83
L 805 83
L 806 83
L 806 83
L 806 83
L 807 82
L 807 82
L 807 82
L 807 82
L 808 82
L 808 82
L 808 82
L 810 82
L 812 82
L 812 82
L 813 82
L 813 82
L 814 82
L 814 82
L 815 82
L 815 82
L 815 82
L 815 82
L 815 81
L 815 81
L 815 81
L 816 81
L 816 81
L 817 81
L 817 81
L 817 81
L 817 81
L 817 81
L 817 81
L 817 81
L 817 81
L 818 81
L 818 81
L 818 81
L 819 81
L 819 81
L 819 80
L 819 80
L 819 80
L 819 80
L 820 80
L 820 80
L 820 80
L 820 80
L 821 80
L 821 80
L 821 80
L 821 80
L 821 80
L 822 80
L 822 80
L 822 80
L 822 80
L 823 80
L 827 79
L 827 79
L 827 79
L 828 79
L 828 79
L 828 79
L 828 79
L 828 79
L 828 79
L 828 79
L 828 79
L 828 79
L 828 79
L 828 79
L 828 79
L 828 79
L 828 79
L 828 79
L 828 79
L 829 78
L 829 78
L 829 78
L 829 78
L 829 78
L 829 78
L 829 78
L 829 78
L 829 78
L 829 78
L 829 78
L 829 78
L 829 78
L 829 78
L 829 78
L 830 78
L 830 78
L 830 78
L 830 77
L 830 77
L 830 77
L 831 77
L 831 77
L 831 77
L 831 77
L 831 77
L 831 77
L 831 77
L 831 77
L 831 77
L 831 77
L 832 77
L 832 77
L 832 77
L 832 77
L 832 77
L 832 76
L 832 76
L 832 76
L 832 76
L 832 76
L 832 76
L 832 76
L 832 76
L 832 76
L 832 76
L 833 76
L 833 76
L 833 76
L 833 76
L 833 76
L 833 76
L 833 76
L 833 76
L 833 75
L 833 75
L 833 75
L 834 75
L 834 75
L 834 75
L 834 75
L 834 75
L 834 75
L 834 75
L 835 75
L 835 75
L 835 75
L 835 75
L 835 75
L 835 75
L 835 75
L 835 75
L 835 74
L 835 74
L 835 74
L 835 74
L 836 74
L 836 74
L 836 74
L 836 74
L 836 74
L 836 74
L 836 74
L 836 74
L 836 74
L 837 74
L 837 74
L 837 74
L 837 74
L 837 74
L 837 74
L 837 73
L 837 73
L 838 73
L 838 73
L 840 73
L 840 73
L 842 73
L 843 73
L 843 73
L 843 73
L 843 73
L 843 73
L 843 73
L 843 73
L 843 73
L 843 73
L 843 73
L 843 73
L 843 72
L 843 72
L 843 72
L 843 72
L 844 72
L 844 72
L 844 72
L 844 72
L 844 72
L 844 72
L 844 72
L 844 72
L 844 72
L 844 72
L 844 72
L 844 72
L 844 72
L 844 72
L 844 71
L 844 71
L 844 71
L 844 71
L 844 71
L 844 71
L 844 71
L 844 71
L 844 71
L 844 71
L 844 71
L 844 71
L 844 71
L 844 71
L 844 71
L 844 71
L 844 71
L 844 71
L 844 70
L 844 70
L 844 70
L 844 70
L 844 70
L 844 70
L 844 70
L 844 70
L 844 70
L 844 70
L 844 70
L 844 70
L 844 70
L 844 70
L 844 70
L 844 70
L 844 70
L 844 70
L 844 70
L 844 69
L 844 69
L 844 69
L 844 69
L 844 69
L 844 69
L 844 69
L 844 69
L 844 69
L 844 69
L 844 69
L 844 69
L 844 69
L 844 69
L 844 69
L 844 69
L 844 69
L 845 69
L 845 68
L 845 68
L 845 68
L 845 68
L 845 68
L 845 68
L 845 68
L 845 68
L 845 68
L 845 68
L 845 68
L 845 68
L 845 68
L 845 68
L 845 68
L 845 68
L 845 68
L 846 68
L 846 67
L 846 67
L 846 67
L 846 67
L 846 67
L 846 67
L 846 67
L 846 67
L 846 67
L 846 67
L 846 67
L 846 67
L 846 67
L 846 67
L 846 67
L 846 67
L 846 67
L 847 67
L 847 66
L 847 66
L 847 66
L 847 66
L 847 66
L 847 66
L 847 66
L 847 66
L 847 66
L 847 66
L 847 66
L 847 66
L 847 66
L 847 66
L 847 66
L 847 66
L 847 66
L 847 66
L 847 66
L 847 65
L 848 65
L 848 65
L 848 65
L 848 65
L 848 65
L 848 65
L 848 65
L 848 65
L 848 65
L 848 65
L 848 65
L 848 65
L 848 65
L 848 65
L 848 65
L 848 65
L 848 65
L 848 64
L 848 64
L 848 64
L 848 64
L 848 64
L 848 64
L 848 64
L 848 64
L 849 64
L 849 64
L 849 64
L 849 64
L 849 64
L 849 64
L 849 64
L 849 64
L 849 64
L 849 64
L 849 63
L 849 63
L 849 63
L 849 63
L 849 63
L 849 63
L 849 63
L 849 63
L 849 63
L 849 63
L 849 63
L 850 63
L 850 63
L 850 63
L 850 63
L 850 63
L 850 63
L 850 63
L 850 62
L 850 62
L 850 62
L 850 62
L 850 62
L 850 62
L 850 62
L 850 62
L 850 62
L 850 62
L 851 62
L 851 62
L 851 62
L 851 62
L 851 62
L 851 62
L 851 62
L 851 62
L 851 62
L 852 61
L 852 61
L 852 61
L 853 61
L 854 61
L 854 61
L 854 61
L 855 61
L 856 61
L 858 61
L 858 61
L 858 61
L 858 61
L 858 61
L 858 61
L 858 61
L 858 61
L 858 61
L 858 60
L 858 60
L 858 60
L 858 60
L 858 60
L 858 60
L 858 60
L 858 60
L 858 60
L 858 60
L 858 60
L 858 60
L 858 60
L 858 60
L 858 60
L 858 60
L 858 60
L 859 60
L 859 59
L 859 59
L 859 59
L 859 59
L 859 59
L 859 59
L 859 59
L 859 59
L 859 59
L 859 59
L 859 59
L 859 59
L 859 59
L 859 59
L 859 59
L 859 59
L 859 59
L 859 59
L 859 58
L 859 58
L 859 58
L 859 58
L 859 58
L 859 58
L 859 58
L 859 58
L 859 58
L 859 58
L 859 58
L 859 58
L 859 58
L 859 58
L 859 58
L 859 58
L 859 58
L 859 58
L 859 57
L 859 57
L 859 57
L 859 57
L 859 57
L 859 57
L 859 57
L 859 57
L 859 57
L 859 57
L 860 57
L 860 57
L 860 57
L 860 57
L 860 57
L 860 57
L 860 57
L 860 57
L 860 57
L 860 56
L 860 56
L 860 56
L 860 56
L 860 56
L 860 56
L 860 56
L 860 56
L 860 56
L 860 56
L 860 56
L 860 56
L 860 56
L 860 56
L 861 56
L 861 56
L 861 56
L 861 56
L 861 55
L 861 55
L 861 55
L 861 55
L 861 55
L 861 55
L 861 55
L 861 55
L 861 55
L 861 55
L 861 55
L 861 55
L 861 55
L 861 55
L 861 55
L 861 55
L 861 55
L 861 55
L 861 54
L 861 54
L 861 54
L 861 54
L 861 54
L 861 54
L 862 54
L 862 54
L 862 54
L 862 54
L 862 54
L 862 54
L 862 54
L 862 54
L 862 54
L 862 54
L 862 54
L 862 54
L 862 53
L 862 53
L 862 53
L 862 53
L 862 53
L 862 53
L 862 53
L 862 53
L 862 53
L 862 53
L 862 53
L 862 53
L 862 53
L 862 53
L 862 53
L 862 53
L 863 53
L 863 53
L 863 53
L 863 52
L 863 52
L 863 52
L 863 52
L 863 52
L 863 52
L 863 52
L 863 52
L 863 52
L 863 52
L 863 52
L 863 52
L 863 52
L 863 52
L 863 52
L 863 52
L 863 52
L 863 52
L 863 51
L 863 51
L 863 51
L 863 51
L 863 51
L 863 51
L 863 51
L 863 51
L 863 51
L 863 51
L 864 51
L 864 51
L 864 51
L 864 51
L 864 51
L 864 51
L 864 51
L 864 51
L 864 50
L 864 50
L 864 50
L 864 50
L 864 50
L 864 50
L 864 50
L 865 50
L 865 50
L 865 50
L 865 50
L 865 50
L 865 50
L 865 50
L 865 50
L 865 50
L 865 50
L 865 50
L 866 49
L 866 49
L 866 49
L 866 49
L 866 49
L 866 49
L 866 49
L 866 49
L 867 49
L 867 49
L 867 49
L 867 49
L 867 49
L 867 49
L 867 49
L 867 49
L 867 49
L 867 49
L 868 49
L 868 48
L 868 48
L 869 48
L 869 48
L 871 48
L 871 48
L 871 48
L 872 48
L 872 48
L 872 48
L 873 48
L 873 48
L 873 48
L 873 48
L 873 48
L 873 48
L 873 48
L 873 48
L 873 47
L 873 47
L 874 47
L 874 47
L 874 47
L 874 47
L 874 47
L 874 47
L 874 47
L 874 47
L 874 47
L 874 47
L 874 47
L 874 47
L 874 47
L 874 47
L 874 47
L 874 47
L 874 46
L 874 46
L 874 46
L 874 46
L 874 46
L 874 46
L 874 46
L 874 46
L 874 46
L 874 46
L 874 46
L 875 46
L 875 46
L 875 46
L 875 46
L 875 46
L 875 46
L 875 46
L 875 45
L 875 45
L 875 45
L 875 45
L 875 45
L 875 45
L 875 45
L 875 45
L 875 45
L 875 45
L 875 45
L 875 45
L 875 45
L 875 45
L 875 45
L 875 45
L 876 45
L 876 45
L 876 45
L 876 44
L 876 44
L 876 44
L 876 44
L 876 44
L 876 44
L 876 44
L 876 44
L 876 44
L 876 44
L 876 44
L 876 44
L 876 44
L 876 44
L 876 44
L 877 44
L 877 44
L 877 44
L 877 43
L 877 43
L 877 43
L 877 43
L 877 43
L 877 43
L 877 43
L 877 43
L 877 43
L 877 43
L 877 43
L 877 43
L 877 43
L 877 43
L 877 43
L 878 43
L 878 43
L 878 43
L 878 42
L 878 42
L 878 42
L 878 42
L 878 42
L 878 42
L 878 42
L 878 42
L 878 42
L 878 42
L 878 42
L 878 42
L 878 42
L 878 42
L 878 42
L 878 42
L 878 42
L 878 42
L 878 41
L 878 41
L 878 41
L 879 41
L 879 41
L 879 41
L 879 41
L 879 41
L 879 41
L 879 41
L 879 41
L 879 41
L 879 41
L 879 41
L 879 41
L 879 41
L 879 41
L 879 41
L 879 40
L 879 40
L 880 40
L 880 40
L 880 40
L 880 40
L 880 40
L 880 40
L 880 40
L 881 40
L 881 40
L 881 40
L 881 40
L 882 40
L 882 40
L 882 40
L 882 40
L 882 40
L 882 40
L 882 39
L 882 39
L 882 39
L 883 39
L 883 39
L 883 39
L 883 39
L 883 39
L 883 39
L 883 39
L 884 39
L 885 39
L 887 39
L 888 39
L 888 39
L 888 39
L 888 39
L 888 39
L 888 38
L 889 38
L 889 38
L 889 38
L 889 38
L 889 38
L 889 38
L 889 38
L 889 38
L 889 38
L 889 38
L 889 38
L 889 38
L 889 38
L 889 38
L 889 38
L 889 38
L 889 38
L 889 37
L 889 37
L 889 37
L 889 37
L 889 37
L 889 37
L 890 37
L 890 37
L 890 37
L 890 37
L 890 37
L 890 37
L 890 37
L 890 37
L 890 37
L 890 37
L 890 37
L 890 37
L 890 36
L 890 36
L 890 36
L 890 36
L 890 36
L 890 36
L 890 36
L 890 36
L 890 36
L 890 36
L 890 36
L 891 36
L 891 36
L 891 36
L 891 36
L 891 36
L 891 36
L 891 36
L 892 36
L 892 35
L 892 35
L 892 35
L 892 35
L 892 35
L 892 35
L 892 35
L 892 35
L 892 35
L 892 35
L 892 35
L 892 35
L 892 35
L 892 35
L 893 35
L 893 35
L 893 35
L 893 35
L 893 34
L 893 34
L 893 34
L 893 34
L 893 34
L 893 34
L 893 34
L 893 34
L 893 34
L 893 34
L 893 34
L 893 34
L 893 34
L 893 34
L 894 34
L 894 34
L 894 34
L 894 34
L 894 33
L 894 33
L 894 33
L 894 33
L 894 33
L 894 33
L 894 33
L 894 33
L 894 33
L 894 33
L 895 33
L 895 33
L 895 33
L 895 33
L 895 33
L 895 33
L 895 33
L 895 33
L 895 32
L 895 32
L 895 32
L 895 32
L 896 32
L 896 32
L 896 32
L 896 32
L 896 32
L 897 32
L 897 32
L 897 32
L 897 32
L 897 32
L 898 32
L 898 32
L 898 32
L 901 32
L 904 32
L 904 31
L 904 31
L 904 31
L 905 31
L 905 31
L 905 31
L 905 31
L 906 31
L 906 31
L 906 31
L 907 31
L 907 31
L 907 31
L 907 31
L 907 31
L 907 31
L 908 31
L 908 31
L 908 30
L 908 30
L 908 30
L 909 30
L 909 30
L 909 30
L 910 30
L 910 30
L 911 30
L 911 30
L 911 30
L 911 30
L 911 30
L 911 30
L 911 30
L 911 30
L 911 30
L 911 30
L 912 29
L 912 29
L 912 29
L 912 29
L 912 29
L 912 29
L 912 29
L 912 29
L 912 29
L 912 29
L 912 29
L 912 29
L 912 29
L 913 29
L 913 29
L 913 29
L 913 29
L 913 29
L 913 28
L 913 28
L 913 28
L 913 28
L 914 28
L 914 28
L 914 28
L 914 28
L 914 28
L 914 28
L 915 28
L 915 28
L 918 28
L 919 28
L 919 28
L 919 28
L 919 28
L 920 28
L 920 28
L 920 27
L 920 27
L 920 27
L 920 27
L 921 27
L 921 27
L 921 27
L 921 27
L 922 27
L 922 27
L 922 27
L 922 27
L 922 27
L 923 27
L 923 27
L 924 27
L 924 27
L 926 27
L 926 26
L 926 26
L 926 26
L 926 26
L 926 26
L 927 26
L 927 26
L 927 26
L 927 26
L 927 26
L 927 26
L 927 26
L 927 26
L 927 26
L 928 26
L 928 26
L 928 26
L 928 26
L 928 25
L 928 25
L 928 25
L 929 25
L 929 25
L 932 25
L 932 25
L 934 25
L 934 25
L 934 25
L 934 25
L 934 25
L 934 25
L 934 25
L 934 25
L 934 25
L 934 25
L 934 25
L 934 24
L 935 24
L 935 24
L 935 24
L 935 24
L 935 24
L 935 24
L 935 24
L 935 24
L 935 24
L 935 24
L 935 24
L 935 24
L 935 24
L 935 24
L 935 24
L 935 24
L 935 24
L 935 23
L 935 23
L 935 23
L 936 23
L 936 23
L 936 23
L 936 23
L 936 23
L 936 23
L 936 23
L 936 23
L 936 23
L 936 23
L 936 23
L 936 23
L 936 23
L 936 23
L 936 23
L 937 23
L 937 22
L 937 22
L 937 22
L 937 22
L 937 22
L 937 22
L 937 22
L 937 22
L 937 22
L 937 22
L 937 22
L 938 22
L 938 22
L 938 22
L 938 22
L 938 22
L 938 22
L 938 22
L 938 21
L 938 21
L 938 21
L 938 21
L 938 21
L 938 21
L 938 21
L 938 21
L 938 21
L 938 21
L 938 21
L 938 21
L 939 21
L 939 21
L 939 21
L 939 21
L 939 21
L 939 21
L 939 20
L 939 20
L 939 20
L 939 20
L 939 20
L 939 20
L 939 20
L 939 20
L 939 20
L 939 20
L 939 20
L 939 20
L 939 20
L 939 20
L 939 20
L 939 20
L 939 20
L 939 20
L 939 19
L 940 19
L 940 19
L 940 19
L 940 19
L 940 19
L 940 19
L 940 19
L 940 19
L 941 19
L 941 19
L 941 19
L 941 19
L 941 19
L 941 19
L 941 19
L 942 19
L 942 19
L 942 19
L 942 18
L 942 18
L 942 18
L 942 18
L 942 18
L 943 18
L 943 18
L 943 18
L 943 18
L 943 18
L 943 18
L 943 18
L 944 18
L 944 18
L 946 18
L 949 18
L 949 18
L 949 18
L 949 17
L 949 17
L 949 17
L 950 17
L 950 17
L 950 17
L 950 17
L 950 17
L 950 17
L 950 17
L 950 17
L 950 17
L 950 17
L 950 17
L 950 17
L 950 17
L 950 17
L 951 17
L 951 16
L 951 16
L 951 16
L 951 16
L 951 16
L 951 16
L 951 16
L 951 16
L 951 16
L 951 16
L 951 16
L 951 16
L 951 16
L 951 16
L 951 16
L 951 16
L 951 16
L 951 16
L 952 15
L 952 15
L 952 15
L 952 15
L 952 15
L 952 15
L 952 15
L 952 15
L 952 15
L 952 15
L 953 15
L 953 15
L 953 15
L 953 15
L 953 15
L 953 15
L 953 15
L 953 15
L 953 15
L 953 14
L 953 14
L 953 14
L 953 14
L 953 14
L 953 14
L 953 14
L 953 14
L 953 14
L 953 14
L 953 14
L 953 14
L 953 14
L 954 14
L 954 14
L 954 14
L 954 14
L 954 14
L 954 13
L 954 13
L 954 13
L 954 13
L 954 13
L 954 13
L 954 13
L 954 13
L 954 13
L 955 13
L 955 13
L 955 13
L 955 13
L 955 13
L 955 13
L 955 13
L 955 13
L 955 13
L 955 12
L 955 12
L 955 12
L 955 12
L 955 12
L 955 12
L 955 12
L 955 12
L 955 12
L 955 12
L 955 12
L 956 12
L 956 12
L 956 12
L 956 12
L 956 12
L 956 12
L 956 12
L 956 11
L 956 11
L 956 11
L 956 11
L 956 11
L 956 11
L 957 11
L 957 11
L 957 11
L 957 11
L 957 11
L 957 11
L 957 11
L 957 11
L 957 11
L 957 11
L 957 11
L 957 11" style="stroke-width:2;stroke:rgba(129,199,239,1.0);fill:none"/></svg>