<svg xmlns="http://www.w3.org/2000/svg" xmlns:xlink="http://www.w3.org/1999/xlink" width="1024" height="400">\n<path  d="M 0 0
L 1024 0
L 1024 400
L 0 400
L 0 0" style="stroke-width:0;stroke:rgba(255,255,255,1.0);fill:rgba(255,255,255,1.0)"/><path  d="M 38 11
L 957 11
L 957 351
L 38 351
L 38 11" style="stroke-width:0;stroke:rgba(255,255,255,1.0);fill:rgba(255,255,255,1.0)"/><path  d="M 38 351
L 957 351" style="stroke-width:2;stroke:rgba(85,85,85,1.0);fill:none"/><path  d="M 38 351
L 38 356" style="stroke-width:2;stroke:rgba(85,85,85,1.0);fill:none"/><text x="5" y="373" style="stroke-width:0;stroke:none;fill:rgba(51,51,51,1.0);font-size:12.8px;font-family:'Roboto Medium',sans-serif">2018-11-23</text><path  d="M 153 351
L 153 356" style="stroke-width:2;stroke:rgba(85,85,85,1.0);fill:none"/><text x="120" y="373" style="stroke-width:0;stroke:none;fill:rgba(51,51,51,1.0);font-size:12.8px;font-family:'Roboto Medium',sans-serif">2018-12-01</text><path  d="M 268 351
L 268 356" style="stroke-width:2;stroke:rgba(85,85,85,1.0);fill:none"/><text x="235" y="373" style="stroke-width:0;stroke:none;fill:rgba(51,51,51,1.0);font-size:12.8px;font-family:'Roboto Medium',sans-serif">2018-12-10</text><path  d="M 383 351
L 383 356" style="stroke-width:2;stroke:rgba(85,85,85,1.0);fill:none"/><text x="350" y="373" style="stroke-width:0;stroke:none;fill:rgba(51,51,51,1.0);font-size:12.8px;font-family:'Roboto Medium',sans-serif">2018-12-18</text><path  d="M 498 351
L 498 356" style="stroke-width:2;stroke:rgba(85,85,85,1.0);fill:none"/><text x="465" y="373" style="stroke-width:0;stroke:none;fill:rgba(51,51,51,1.0);font-size:12.8px;font-family:'Roboto Medium',sans-serif">2018-12-27</text><path  d="M 613 351
L 613 356" style="stroke-width:2;stroke:rgba(85,85,85,1.0);fill:none"/><text x="580" y="373" style="stroke-width:0;stroke:none;fill:rgba(51,51,51,1.0);font-size:12.8px;font-family:'Roboto Medium',sans-serif">2019-01-04</text><path  d="M 728 351
L 728 356" style="stroke-width:2;stroke:rgba(85,85,85,1.0);fill:none"/><text x="695" y="373" style="stroke-width:0;stroke:none;fill:rgba(51,51,51,1.0);font-size:12.8px;font-family:'Roboto Medium',sans-serif">2019-01-13</text><path  d="M 843 351
L 843 356" style="stroke-width:2;stroke:rgba(85,85,85,1.0);fill:none"/><text x="810" y="373" style="stroke-width:0;stroke:none;fill:rgba(51,51,51,1.0);font-size:12.8px;font-family:'Roboto Medium',sans-serif">2019-01-21</text><path  d="M 957 351
L 957 356" style="stroke-width:2;stroke:rgba(85,85,85,1.0);fill:none"/><text x="924" y="373" style="stroke-width:0;stroke:none;fill:rgba(51,51,51,1.0);font-size:12.8px;font-family:'Roboto Medium',sans-serif">2019-01-30</text><text x="483" y="395" style="stroke-width:0;stroke:none;fill:rgba(51,51,51,1.0);font-size:12.8px;font-family:'Roboto Medium',sans-serif">Time</text><path  d="M 959 351
L 959 11" style="stroke-width:2;stroke:rgba(85,85,85,1.0);fill:none"/><path  d="M 959 351
L 964 351" style="stroke-width:2;stroke:rgba(85,85,85,1.0);fill:none"/><text x="969" y="357" style="stroke-width:0;stroke:none;fill:rgba(51,51,51,1.0);font-size:12.8px;font-family:'Roboto Medium',sans-serif">0</text><path  d="M 959 308
L 964 308" style="stroke-width:2;stroke:rgba(85,85,85,1.0);fill:none"/><text x="969" y="314" style="stroke-width:0;stroke:none;fill:rgba(51,51,51,1.0);font-size:12.8px;font-family:'Roboto Medium',sans-serif">870</text><path  d="M 959 265
L 964 265" style="stroke-width:2;stroke:rgba(85,85,85,1.0);fill:none"/><text x="969" y="271" style="stroke-width:0;stroke:none;fill:rgba(51,51,51,1.0);font-size:12.8px;font-family:'Roboto Medium',sans-serif">1730</text><path  d="M 959 223
L 964 223" style="stroke-width:2;stroke:rgba(85,85,85,1.0);fill:none"/><text x="969" y="229" style="stroke-width:0;stroke:none;fill:rgba(51,51,51,1.0);font-size:12.8px;font-family:'Roboto Medium',sans-serif">2590</text><path  d="M 959 181
L 964 181" style="stroke-width:2;stroke:rgba(85,85,85,1.0);fill:none"/><text x="969" y="187" style="stroke-width:0;stroke:none;fill:rgba(51,51,51,1.0);font-size:12.8px;font-family:'Roboto Medium',sans-serif">3450</text><path  d="M 959 138
L 964 138" style="stroke-width:2;stroke:rgba(85,85,85,1.0);fill:none"/><text x="969" y="144" style="stroke-width:0;stroke:none;fill:rgba(51,51,51,1.0);font-size:12.8px;font-family:'Roboto Medium',sans-serif">4320</text><path  d="M 959 95
L 964 95" style="stroke-width:2;stroke:rgba(85,85,85,1.0);fill:none"/><text x="969" y="101" style="stroke-width:0;stroke:none;fill:rgba(51,51,51,1.0);font-size:12.8px;font-family:'Roboto Medium',sans-serif">5180</text><path  d="M 959 53
L 964 53" style="stroke-width:2;stroke:rgba(85,85,85,1.0);fill:none"/><text x="969" y="59" style="stroke-width:0;stroke:none;fill:rgba(51,51,51,1.0);font-size:12.8px;font-family:'Roboto Medium',sans-serif">6040</text><path  d="M 959 11
L 964 11" style="stroke-width:2;stroke:rgba(85,85,85,1.0);fill:none"/><text x="969" y="17" style="stroke-width:0;stroke:none;fill:rgba(51,51,51,1.0);font-size:12.8px;font-family:'Roboto Medium',sans-serif">6900</text><text x="1009" y="150" style="stroke-width:0;stroke:none;fill:rgba(51,51,51,1.0);font-size:12.8px;font-family:'Roboto Medium',sans-serif" transform="rotate(90.00,1009,150)">Stargazers</text><path  d="M 38 351
L 109 350
L 159 350
L 162 350
L 172 350
L 172 350
L 172 350
L 173 350
L 173 350
L 173 350
L 174 350
L 174 350
L 174 350
L 174 350
L 174 350
L 174 350
L 175 350
L 175 350
L 175 350
L 175 350
L 175 350
L 176 349
L 177 349
L 178 349
L 186 349
L 186 349
L 186 349
L 186 349
L 187 349
L 188 349
L 190 349
L 191 349
L 192 349
L 192 349
L 192 349
L 192 349
L 192 349
L 192 349
L 196 349
L 198 349
L 199 349
L 199 348
L 199 348
L 199 348
L 199 348
L 200 348
L 200 348
L 200 348
L 200 348
L 200 348
L 202 348
L 202 348
L 203 348
L 203 348
L 203 348
L 203 348
L 203 348
L 203 348
L 204 348
L 204 348
L 205 348
L 205 347
L 205 347
L 206 347
L 206 347
L 207 347
L 207 347
L 207 347
L 207 347
L 211 347
L 213 347
L 213 347
L 213 347
L 213 347
L 213 347
L 213 347
L 213 347
L 213 347
L 214 347
L 214 347
L 214 347
L 214 347
L 214 346
L 215 346
L 215 346
L 215 346
L 215 346
L 215 346
L 215 346
L 215 346
L 215 346
L 215 346
L 215 346
L 215 346
L 215 346
L 215 346
L 215 346
L 215 346
L 215 346
L 215 346
L 215 346
L 215 346
L 215 345
L 215 345
L 215 345
L 215 345
L 215 345
L 215 345
L 215 345
L 215 345
L 215 345
L 215 345
L 215 345
L 215 345
L 215 345
L 215 345
L 215 345
L 215 345
L 215 345
L 215 345
L 215 345
L 216 345
L 216 344
L 216 344
L 216 344
L 216 344
L 216 344
L 216 344
L 216 344
L 216 344
L 216 344
L 216 344
L 216 344
L 217 344
L 217 344
L 217 344
L 217 344
L 217 344
L 217 344
L 217 344
L 217 344
L 218 344
L 218 344
L 218 343
L 218 343
L 218 343
L 218 343
L 218 343
L 218 343
L 218 343
L 219 343
L 219 343
L 219 343
L 221 343
L 221 343
L 225 343
L 226 343
L 226 343
L 226 343
L 226 343
L 226 343
L 227 343
L 227 343
L 228 342
L 228 342
L 228 342
L 228 342
L 229 342
L 229 342
L 229 342
L 229 342
L 230 342
L 230 342
L 230 342
L 230 342
L 230 342
L 230 342
L 231 342
L 231 342
L 232 342
L 239 342
L 240 342
L 240 342
L 240 341
L 240 341
L 242 341
L 243 341
L 244 341
L 247 341
L 248 341
L 248 341
L 250 341
L 254 341
L 254 341
L 256 341
L 256 341
L 257 341
L 258 341
L 258 341
L 258 341
L 258 341
L 259 341
L 259 341
L 259 340
L 259 340
L 259 340
L 262 340
L 266 340
L 266 340
L 266 340
L 267 340
L 267 340
L 267 340
L 269 340
L 270 340
L 271 340
L 274 340
L 274 340
L 280 340
L 282 340
L 283 340
L 283 340
L 283 340
L 286 340
L 286 339
L 293 339
L 294 339
L 294 339
L 294 339
L 294 339
L 296 339
L 296 339
L 298 339
L 299 339
L 299 339
L 301 339
L 303 339
L 307 339
L 312 339
L 313 339
L 319 339
L 321 339
L 321 339
L 323 339
L 323 338
L 324 338
L 324 338
L 326 338
L 327 338
L 327 338
L 328 338
L 328 338
L 330 338
L 332 338
L 334 338
L 336 338
L 337 338
L 337 338
L 337 338
L 337 338
L 338 338
L 339 338
L 340 338
L 341 338
L 342 337
L 342 337
L 343 337
L 348 337
L 348 337
L 348 337
L 349 337
L 351 337
L 353 337
L 354 337
L 354 337
L 355 337
L 360 337
L 361 337
L 361 337
L 362 337
L 362 337
L 362 337
L 365 337
L 365 337
L 367 337
L 369 336
L 375 336
L 376 336
L 378 336
L 378 336
L 379 336
L 379 336
L 379 336
L 381 336
L 381 336
L 383 336
L 383 336
L 388 336
L 389 336
L 390 336
L 391 336
L 391 336
L 391 336
L 391 336
L 392 336
L 394 335
L 402 335
L 402 335
L 402 335
L 402 335
L 404 335
L 404 335
L 406 335
L 406 335
L 406 335
L 408 335
L 408 335
L 408 335
L 409 335
L 409 335
L 410 335
L 415 335
L 416 335
L 416 335
L 416 335
L 416 334
L 416 334
L 416 334
L 417 334
L 417 334
L 417 334
L 418 334
L 418 334
L 418 334
L 418 334
L 418 334
L 418 334
L 418 334
L 418 334
L 419 334
L 419 334
L 419 334
L 419 334
L 419 334
L 419 334
L 419 334
L 419 333
L 419 333
L 419 333
L 419 333
L 419 333
L 419 333
L 419 333
L 419 333
L 419 333
L 419 333
L 420 333
L 420 333
L 420 333
L 420 333
L 420 333
L 420 333
L 420 333
L 420 333
L 420 333
L 420 333
L 420 332
L 420 332
L 420 332
L 420 332
L 420 332
L 420 332
L 420 332
L 420 332
L 420 332
L 420 332
L 420 332
L 420 332
L 420 332
L 421 332
L 421 332
L 421 332
L 421 332
L 421 332
L 421 332
L 422 332
L 422 331
L 422 331
L 422 331
L 422 331
L 422 331
L 422 331
L 422 331
L 422 331
L 422 331
L 422 331
L 423 331
L 423 331
L 423 331
L 423 331
L 424 331
L 424 331
L 424 331
L 424 331
L 429 331
L 429 331
L 429 330
L 429 330
L 429 330
L 429 330
L 430 330
L 430 330
L 430 330
L 430 330
L 430 330
L 430 330
L 430 330
L 430 330
L 430 330
L 430 330
L 430 330
L 430 330
L 430 330
L 431 330
L 431 330
L 431 330
L 431 330
L 431 329
L 431 329
L 431 329
L 431 329
L 431 329
L 431 329
L 432 329
L 432 329
L 432 329
L 432 329
L 432 329
L 432 329
L 432 329
L 432 329
L 432 329
L 432 329
L 432 329
L 432 329
L 432 329
L 433 329
L 433 328
L 433 328
L 433 328
L 433 328
L 433 328
L 433 328
L 433 328
L 433 328
L 433 328
L 433 328
L 433 328
L 433 328
L 433 328
L 433 328
L 433 328
L 433 328
L 433 328
L 433 328
L 433 328
L 433 328
L 433 327
L 434 327
L 434 327
L 434 327
L 434 327
L 434 327
L 434 327
L 434 327
L 434 327
L 435 327
L 435 327
L 435 327
L 435 327
L 435 327
L 435 327
L 435 327
L 435 327
L 435 327
L 435 327
L 435 327
L 435 327
L 435 326
L 435 326
L 436 326
L 436 326
L 436 326
L 436 326
L 436 326
L 436 326
L 436 326
L 436 326
L 436 326
L 436 326
L 436 326
L 436 326
L 436 326
L 436 326
L 436 326
L 436 326
L 437 326
L 437 326
L 437 325
L 437 325
L 437 325
L 437 325
L 437 325
L 437 325
L 437 325
L 437 325
L 437 325
L 437 325
L 437 325
L 437 325
L 437 325
L 437 325
L 437 325
L 437 325
L 437 325
L 438 325
L 438 325
L 438 325
L 438 324
L 439 324
L 439 324
L 441 324
L 442 324
L 442 324
L 442 324
L 442 324
L 442 324
L 442 324
L 442 324
L 442 324
L 442 324
L 443 324
L 443 324
L 443 324
L 443 324
L 443 324
L 443 324
L 443 324
L 443 323
L 443 323
L 443 323
L 443 323
L 443 323
L 443 323
L 443 323
L 443 323
L 443 323
L 443 323
L 444 323
L 444 323
L 444 323
L 444 323
L 444 323
L 444 323
L 444 323
L 444 323
L 444 323
L 444 323
L 444 323
L 444 322
L 444 322
L 444 322
L 444 322
L 444 322
L 444 322
L 444 322
L 445 322
L 445 322
L 445 322
L 445 322
L 445 322
L 445 322
L 445 322
L 445 322
L 445 322
L 445 322
L 445 322
L 445 322
L 445 322
L 445 321
L 445 321
L 445 321
L 445 321
L 445 321
L 445 321
L 446 321
L 446 321
L 446 321
L 446 321
L 446 321
L 446 321
L 446 321
L 446 321
L 446 321
L 446 321
L 446 321
L 446 321
L 446 321
L 446 321
L 446 320
L 446 320
L 446 320
L 446 320
L 446 320
L 446 320
L 447 320
L 447 320
L 447 320
L 447 320
L 447 320
L 447 320
L 447 320
L 447 320
L 447 320
L 447 320
L 447 320
L 448 320
L 448 320
L 448 320
L 448 320
L 448 319
L 448 319
L 448 319
L 448 319
L 448 319
L 448 319
L 448 319
L 448 319
L 448 319
L 448 319
L 448 319
L 448 319
L 448 319
L 448 319
L 449 319
L 449 319
L 449 319
L 449 319
L 449 319
L 449 319
L 449 318
L 449 318
L 449 318
L 449 318
L 449 318
L 449 318
L 449 318
L 449 318
L 449 318
L 449 318
L 449 318
L 449 318
L 449 318
L 449 318
L 450 318
L 450 318
L 450 318
L 450 318
L 450 318
L 450 318
L 450 317
L 450 317
L 450 317
L 450 317
L 450 317
L 450 317
L 450 317
L 450 317
L 450 317
L 450 317
L 450 317
L 450 317
L 450 317
L 450 317
L 451 317
L 451 317
L 451 317
L 451 317
L 451 317
L 451 317
L 451 317
L 451 316
L 451 316
L 451 316
L 451 316
L 451 316
L 452 316
L 452 316
L 452 316
L 452 316
L 452 316
L 454 316
L 455 316
L 455 316
L 455 316
L 455 316
L 455 316
L 455 316
L 455 316
L 455 316
L 455 316
L 455 315
L 455 315
L 456 315
L 456 315
L 456 315
L 456 315
L 456 315
L 456 315
L 456 315
L 456 315
L 456 315
L 456 315
L 456 315
L 456 315
L 456 315
L 456 315
L 456 315
L 456 315
L 456 315
L 456 315
L 456 314
L 456 314
L 456 314
L 456 314
L 456 314
L 456 314
L 456 314
L 456 314
L 456 314
L 456 314
L 456 314
L 456 314
L 456 314
L 456 314
L 456 314
L 456 314
L 456 314
L 456 314
L 456 314
L 456 314
L 456 313
L 456 313
L 456 313
L 456 313
L 456 313
L 456 313
L 456 313
L 456 313
L 456 313
L 456 313
L 456 313
L 456 313
L 456 313
L 456 313
L 456 313
L 456 313
L 456 313
L 456 313
L 456 313
L 456 313
L 456 313
L 456 312
L 456 312
L 456 312
L 456 312
L 456 312
L 456 312
L 456 312
L 456 312
L 456 312
L 456 312
L 456 312
L 456 312
L 456 312
L 456 312
L 456 312
L 456 312
L 456 312
L 456 312
L 456 312
L 456 312
L 456 311
L 456 311
L 456 311
L 456 311
L 456 311
L 457 311
L 457 311
L 457 311
L 457 311
L 457 311
L 457 311
L 457 311
L 457 311
L 457 311
L 457 311
L 457 311
L 457 311
L 457 311
L 457 311
L 457 311
L 457 310
L 457 310
L 457 310
L 457 310
L 457 310
L 457 310
L 457 310
L 457 310
L 457 310
L 457 310
L 457 310
L 457 310
L 457 310
L 457 310
L 457 310
L 457 310
L 457 310
L 457 310
L 457 310
L 457 310
L 457 310
L 457 309
L 457 309
L 457 309
L 457 309
L 457 309
L 457 309
L 457 309
L 457 309
L 457 309
L 458 309
L 458 309
L 458 309
L 458 309
L 458 309
L 458 309
L 458 309
L 458 309
L 458 309
L 458 309
L 458 309
L 458 308
L 458 308
L 458 308
L 458 308
L 458 308
L 458 308
L 458 308
L 458 308
L 458 308
L 458 308
L 458 308
L 458 308
L 458 308
L 458 308
L 458 308
L 458 308
L 458 308
L 458 308
L 458 308
L 458 308
L 458 307
L 458 307
L 458 307
L 458 307
L 458 307
L 458 307
L 458 307
L 458 307
L 458 307
L 458 307
L 458 307
L 458 307
L 459 307
L 459 307
L 459 307
L 459 307
L 459 307
L 459 307
L 459 307
L 459 307
L 459 306
L 459 306
L 459 306
L 459 306
L 459 306
L 459 306
L 459 306
L 459 306
L 459 306
L 459 306
L 459 306
L 459 306
L 459 306
L 459 306
L 459 306
L 459 306
L 459 306
L 459 306
L 459 306
L 459 306
L 459 306
L 459 305
L 459 305
L 459 305
L 459 305
L 459 305
L 459 305
L 459 305
L 459 305
L 459 305
L 459 305
L 459 305
L 459 305
L 459 305
L 459 305
L 459 305
L 459 305
L 459 305
L 459 305
L 459 305
L 459 305
L 459 304
L 459 304
L 459 304
L 459 304
L 459 304
L 459 304
L 459 304
L 459 304
L 459 304
L 459 304
L 459 304
L 459 304
L 459 304
L 459 304
L 459 304
L 459 304
L 459 304
L 459 304
L 459 304
L 459 304
L 459 303
L 459 303
L 460 303
L 460 303
L 460 303
L 460 303
L 460 303
L 460 303
L 460 303
L 460 303
L 460 303
L 460 303
L 460 303
L 460 303
L 460 303
L 460 303
L 460 303
L 460 303
L 460 303
L 460 303
L 460 303
L 460 302
L 460 302
L 460 302
L 460 302
L 460 302
L 460 302
L 460 302
L 460 302
L 460 302
L 460 302
L 460 302
L 460 302
L 460 302
L 460 302
L 460 302
L 460 302
L 460 302
L 460 302
L 460 302
L 460 302
L 460 301
L 460 301
L 460 301
L 460 301
L 461 301
L 461 301
L 461 301
L 461 301
L 461 301
L 461 301
L 461 301
L 461 301
L 461 301
L 461 301
L 461 301
L 461 301
L 461 301
L 461 301
L 461 301
L 461 301
L 461 300
L 461 300
L 461 300
L 461 300
L 461 300
L 461 300
L 461 300
L 461 300
L 461 300
L 461 300
L 461 300
L 461 300
L 461 300
L 461 300
L 461 300
L 461 300
L 461 300
L 461 300
L 461 300
L 461 300
L 461 300
L 461 299
L 461 299
L 461 299
L 462 299
L 462 299
L 462 299
L 462 299
L 462 299
L 462 299
L 462 299
L 462 299
L 462 299
L 462 299
L 462 299
L 462 299
L 462 299
L 462 299
L 462 299
L 462 299
L 462 299
L 462 298
L 462 298
L 462 298
L 462 298
L 462 298
L 462 298
L 462 298
L 463 298
L 463 298
L 463 298
L 463 298
L 463 298
L 463 298
L 463 298
L 463 298
L 463 298
L 463 298
L 463 298
L 463 298
L 463 298
L 463 297
L 463 297
L 463 297
L 463 297
L 463 297
L 463 297
L 464 297
L 464 297
L 464 297
L 464 297
L 464 297
L 464 297
L 464 297
L 464 297
L 464 297
L 464 297
L 464 297
L 464 297
L 464 297
L 464 297
L 464 296
L 464 296
L 464 296
L 464 296
L 464 296
L 465 296
L 465 296
L 465 296
L 465 296
L 465 296
L 465 296
L 465 296
L 467 296
L 468 296
L 469 296
L 469 296
L 469 296
L 469 296
L 469 296
L 469 296
L 469 296
L 469 295
L 469 295
L 469 295
L 469 295
L 469 295
L 469 295
L 469 295
L 469 295
L 469 295
L 469 295
L 469 295
L 469 295
L 469 295
L 469 295
L 469 295
L 469 295
L 469 295
L 469 295
L 469 295
L 469 295
L 469 294
L 469 294
L 470 294
L 470 294
L 470 294
L 470 294
L 470 294
L 470 294
L 470 294
L 470 294
L 470 294
L 470 294
L 470 294
L 470 294
L 470 294
L 470 294
L 470 294
L 470 294
L 470 294
L 470 294
L 470 293
L 470 293
L 470 293
L 470 293
L 470 293
L 470 293
L 470 293
L 470 293
L 470 293
L 470 293
L 470 293
L 470 293
L 470 293
L 470 293
L 470 293
L 470 293
L 470 293
L 470 293
L 470 293
L 470 293
L 470 293
L 470 292
L 470 292
L 470 292
L 470 292
L 470 292
L 470 292
L 470 292
L 470 292
L 470 292
L 470 292
L 470 292
L 470 292
L 470 292
L 470 292
L 470 292
L 470 292
L 470 292
L 470 292
L 470 292
L 470 292
L 470 291
L 470 291
L 470 291
L 470 291
L 470 291
L 470 291
L 470 291
L 470 291
L 470 291
L 470 291
L 470 291
L 470 291
L 470 291
L 470 291
L 470 291
L 470 291
L 470 291
L 470 291
L 470 291
L 470 291
L 470 290
L 470 290
L 470 290
L 470 290
L 470 290
L 470 290
L 470 290
L 470 290
L 470 290
L 470 290
L 470 290
L 470 290
L 470 290
L 470 290
L 470 290
L 470 290
L 470 290
L 470 290
L 471 290
L 471 290
L 471 289
L 471 289
L 471 289
L 471 289
L 471 289
L 471 289
L 471 289
L 471 289
L 471 289
L 471 289
L 471 289
L 471 289
L 471 289
L 471 289
L 471 289
L 471 289
L 471 289
L 471 289
L 471 289
L 471 289
L 471 289
L 471 288
L 471 288
L 471 288
L 471 288
L 471 288
L 471 288
L 471 288
L 471 288
L 471 288
L 471 288
L 472 288
L 472 288
L 472 288
L 472 288
L 472 288
L 472 288
L 472 288
L 472 288
L 472 288
L 472 288
L 472 287
L 472 287
L 472 287
L 472 287
L 472 287
L 472 287
L 472 287
L 472 287
L 472 287
L 472 287
L 472 287
L 472 287
L 472 287
L 472 287
L 472 287
L 472 287
L 472 287
L 472 287
L 472 287
L 472 287
L 472 286
L 472 286
L 472 286
L 472 286
L 472 286
L 472 286
L 472 286
L 472 286
L 472 286
L 472 286
L 472 286
L 472 286
L 472 286
L 472 286
L 472 286
L 472 286
L 472 286
L 473 286
L 473 286
L 473 286
L 473 286
L 473 285
L 473 285
L 473 285
L 473 285
L 473 285
L 473 285
L 473 285
L 473 285
L 473 285
L 473 285
L 473 285
L 473 285
L 473 285
L 473 285
L 473 285
L 473 285
L 473 285
L 473 285
L 473 285
L 473 285
L 473 284
L 473 284
L 473 284
L 473 284
L 473 284
L 473 284
L 473 284
L 473 284
L 473 284
L 473 284
L 473 284
L 473 284
L 473 284
L 473 284
L 473 284
L 473 284
L 473 284
L 473 284
L 473 284
L 473 284
L 473 283
L 473 283
L 474 283
L 474 283
L 474 283
L 474 283
L 474 283
L 474 283
L 474 283
L 474 283
L 474 283
L 474 283
L 474 283
L 474 283
L 474 283
L 474 283
L 474 283
L 474 283
L 474 283
L 474 283
L 474 283
L 474 282
L 474 282
L 474 282
L 474 282
L 474 282
L 474 282
L 474 282
L 474 282
L 474 282
L 474 282
L 474 282
L 474 282
L 474 282
L 474 282
L 474 282
L 474 282
L 474 282
L 474 282
L 474 282
L 474 282
L 474 281
L 474 281
L 474 281
L 474 281
L 474 281
L 474 281
L 474 281
L 474 281
L 474 281
L 474 281
L 475 281
L 475 281
L 475 281
L 475 281
L 475 281
L 475 281
L 475 281
L 475 281
L 475 281
L 475 281
L 475 280
L 475 280
L 475 280
L 475 280
L 475 280
L 475 280
L 475 280
L 475 280
L 475 280
L 475 280
L 475 280
L 475 280
L 475 280
L 475 280
L 475 280
L 475 280
L 475 280
L 475 280
L 475 280
L 475 280
L 475 279
L 475 279
L 475 279
L 475 279
L 475 279
L 475 279
L 475 279
L 475 279
L 475 279
L 475 279
L 475 279
L 475 279
L 475 279
L 475 279
L 475 279
L 475 279
L 475 279
L 475 279
L 475 279
L 475 279
L 475 279
L 475 278
L 475 278
L 475 278
L 475 278
L 475 278
L 476 278
L 476 278
L 476 278
L 476 278
L 476 278
L 476 278
L 476 278
L 476 278
L 476 278
L 476 278
L 476 278
L 476 278
L 476 278
L 476 278
L 476 278
L 476 277
L 476 277
L 476 277
L 476 277
L 476 277
L 476 277
L 476 277
L 476 277
L 476 277
L 476 277
L 476 277
L 476 277
L 476 277
L 476 277
L 476 277
L 476 277
L 476 277
L 476 277
L 476 277
L 476 277
L 476 276
L 477 276
L 477 276
L 477 276
L 477 276
L 477 276
L 477 276
L 477 276
L 477 276
L 477 276
L 477 276
L 477 276
L 477 276
L 477 276
L 477 276
L 477 276
L 477 276
L 477 276
L 477 276
L 477 276
L 477 276
L 477 275
L 477 275
L 477 275
L 477 275
L 477 275
L 478 275
L 478 275
L 478 275
L 478 275
L 478 275
L 478 275
L 478 275
L 478 275
L 478 275
L 478 275
L 478 275
L 478 275
L 478 275
L 478 275
L 478 275
L 478 274
L 478 274
L 479 274
L 479 274
L 479 274
L 479 274
L 480 274
L 480 274
L 481 274
L 482 274
L 482 274
L 482 274
L 482 274
L 482 274
L 482 274
L 482 274
L 483 274
L 483 274
L 483 274
L 483 274
L 483 273
L 483 273
L 483 273
L 483 273
L 483 273
L 483 273
L 483 273
L 483 273
L 483 273
L 483 273
L 483 273
L 483 273
L 483 273
L 483 273
L 483 273
L 483 273
L 483 273
L 483 273
L 483 273
L 483 273
L 483 272
L 483 272
L 483 272
L 483 272
L 483 272
L 483 272
L 483 272
L 483 272
L 483 272
L 483 272
L 483 272
L 483 272
L 483 272
L 483 272
L 483 272
L 483 272
L 483 272
L 483 272
L 483 272
L 483 272
L 483 272
L 483 271
L 483 271
L 483 271
L 483 271
L 483 271
L 483 271
L 483 271
L 483 271
L 483 271
L 483 271
L 483 271
L 483 271
L 483 271
L 483 271
L 483 271
L 483 271
L 483 271
L 483 271
L 483 271
L 483 271
L 483 270
L 483 270
L 483 270
L 483 270
L 483 270
L 483 270
L 483 270
L 483 270
L 483 270
L 483 270
L 483 270
L 483 270
L 483 270
L 483 270
L 484 270
L 484 270
L 484 270
L 484 270
L 484 270
L 484 270
L 484 269
L 484 269
L 484 269
L 484 269
L 484 269
L 484 269
L 484 269
L 484 269
L 484 269
L 484 269
L 484 269
L 484 269
L 484 269
L 484 269
L 484 269
L 484 269
L 484 269
L 484 269
L 484 269
L 484 269
L 484 269
L 484 268
L 484 268
L 484 268
L 484 268
L 484 268
L 484 268
L 484 268
L 484 268
L 484 268
L 484 268
L 484 268
L 484 268
L 484 268
L 484 268
L 484 268
L 484 268
L 485 268
L 485 268
L 485 268
L 485 268
L 485 267
L 485 267
L 485 267
L 485 267
L 485 267
L 485 267
L 485 267
L 485 267
L 485 267
L 485 267
L 485 267
L 485 267
L 485 267
L 485 267
L 485 267
L 485 267
L 485 267
L 485 267
L 485 267
L 485 267
L 485 266
L 485 266
L 485 266
L 485 266
L 485 266
L 486 266
L 486 266
L 486 266
L 486 266
L 486 266
L 486 266
L 486 266
L 486 266
L 486 266
L 486 266
L 486 266
L 486 266
L 486 266
L 486 266
L 486 266
L 486 266
L 486 265
L 486 265
L 486 265
L 486 265
L 486 265
L 486 265
L 486 265
L 486 265
L 486 265
L 486 265
L 486 265
L 486 265
L 486 265
L 486 265
L 486 265
L 486 265
L 486 265
L 486 265
L 486 265
L 486 265
L 486 264
L 486 264
L 486 264
L 486 264
L 486 264
L 486 264
L 486 264
L 486 264
L 486 264
L 486 264
L 486 264
L 486 264
L 487 264
L 487 264
L 487 264
L 487 264
L 487 264
L 487 264
L 487 264
L 487 264
L 487 263
L 487 263
L 487 263
L 487 263
L 487 263
L 487 263
L 487 263
L 487 263
L 487 263
L 487 263
L 487 263
L 487 263
L 487 263
L 487 263
L 487 263
L 487 263
L 487 263
L 487 263
L 487 263
L 487 263
L 487 262
L 487 262
L 487 262
L 487 262
L 487 262
L 487 262
L 487 262
L 487 262
L 487 262
L 487 262
L 487 262
L 487 262
L 487 262
L 487 262
L 487 262
L 487 262
L 487 262
L 488 262
L 488 262
L 488 262
L 488 262
L 488 261
L 488 261
L 488 261
L 488 261
L 488 261
L 488 261
L 488 261
L 488 261
L 488 261
L 488 261
L 488 261
L 488 261
L 488 261
L 488 261
L 488 261
L 488 261
L 488 261
L 488 261
L 488 261
L 488 261
L 488 260
L 488 260
L 488 260
L 488 260
L 488 260
L 488 260
L 488 260
L 488 260
L 489 260
L 489 260
L 489 260
L 489 260
L 489 260
L 489 260
L 489 260
L 489 260
L 489 260
L 489 260
L 489 260
L 489 260
L 489 259
L 489 259
L 489 259
L 489 259
L 489 259
L 489 259
L 489 259
L 489 259
L 489 259
L 489 259
L 489 259
L 489 259
L 489 259
L 489 259
L 489 259
L 489 259
L 489 259
L 490 259
L 490 259
L 490 259
L 490 259
L 490 258
L 490 258
L 490 258
L 490 258
L 490 258
L 490 258
L 490 258
L 490 258
L 490 258
L 490 258
L 490 258
L 490 258
L 490 258
L 490 258
L 490 258
L 490 258
L 491 258
L 491 258
L 491 258
L 491 258
L 491 257
L 491 257
L 491 257
L 491 257
L 491 257
L 491 257
L 491 257
L 491 257
L 491 257
L 491 257
L 491 257
L 491 257
L 491 257
L 491 257
L 491 257
L 491 257
L 491 257
L 492 257
L 492 257
L 493 257
L 495 256
L 495 256
L 496 256
L 496 256
L 496 256
L 496 256
L 496 256
L 496 256
L 496 256
L 496 256
L 496 256
L 496 256
L 496 256
L 496 256
L 496 256
L 496 256
L 496 256
L 496 256
L 497 256
L 497 256
L 497 255
L 497 255
L 497 255
L 497 255
L 497 255
L 497 255
L 497 255
L 497 255
L 497 255
L 497 255
L 497 255
L 497 255
L 497 255
L 497 255
L 497 255
L 497 255
L 497 255
L 497 255
L 497 255
L 497 255
L 497 255
L 497 254
L 497 254
L 497 254
L 497 254
L 497 254
L 497 254
L 497 254
L 497 254
L 497 254
L 497 254
L 497 254
L 497 254
L 497 254
L 497 254
L 497 254
L 497 254
L 497 254
L 497 254
L 497 254
L 497 254
L 497 253
L 497 253
L 497 253
L 497 253
L 497 253
L 497 253
L 497 253
L 497 253
L 497 253
L 497 253
L 497 253
L 497 253
L 497 253
L 497 253
L 498 253
L 498 253
L 498 253
L 498 253
L 498 253
L 498 253
L 498 252
L 498 252
L 498 252
L 498 252
L 498 252
L 498 252
L 498 252
L 498 252
L 498 252
L 498 252
L 498 252
L 498 252
L 498 252
L 498 252
L 498 252
L 499 252
L 499 252
L 499 252
L 499 252
L 499 252
L 499 252
L 499 251
L 499 251
L 499 251
L 499 251
L 499 251
L 499 251
L 499 251
L 499 251
L 499 251
L 499 251
L 499 251
L 499 251
L 499 251
L 499 251
L 499 251
L 499 251
L 500 251
L 500 251
L 500 251
L 500 251
L 500 250
L 500 250
L 500 250
L 500 250
L 500 250
L 500 250
L 500 250
L 500 250
L 500 250
L 500 250
L 500 250
L 500 250
L 500 250
L 500 250
L 500 250
L 500 250
L 500 250
L 500 250
L 500 250
L 500 250
L 500 249
L 500 249
L 500 249
L 500 249
L 500 249
L 500 249
L 500 249
L 500 249
L 500 249
L 500 249
L 500 249
L 500 249
L 501 249
L 501 249
L 501 249
L 501 249
L 501 249
L 501 249
L 501 249
L 501 249
L 501 249
L 501 248
L 501 248
L 501 248
L 501 248
L 501 248
L 501 248
L 501 248
L 501 248
L 501 248
L 501 248
L 501 248
L 501 248
L 501 248
L 501 248
L 501 248
L 501 248
L 501 248
L 501 248
L 501 248
L 501 248
L 501 247
L 501 247
L 501 247
L 501 247
L 501 247
L 501 247
L 501 247
L 502 247
L 502 247
L 502 247
L 502 247
L 502 247
L 502 247
L 502 247
L 502 247
L 502 247
L 502 247
L 502 247
L 502 247
L 502 247
L 502 246
L 502 246
L 503 246
L 503 246
L 503 246
L 503 246
L 503 246
L 503 246
L 503 246
L 503 246
L 503 246
L 503 246
L 503 246
L 503 246
L 503 246
L 503 246
L 503 246
L 503 246
L 503 246
L 503 246
L 503 245
L 503 245
L 504 245
L 504 245
L 504 245
L 504 245
L 504 245
L 504 245
L 504 245
L 504 245
L 504 245
L 504 245
L 504 245
L 505 245
L 505 245
L 505 245
L 505 245
L 505 245
L 505 245
L 505 245
L 506 245
L 506 244
L 506 244
L 506 244
L 506 244
L 507 244
L 509 244
L 510 244
L 510 244
L 510 244
L 510 244
L 510 244
L 510 244
L 510 244
L 510 244
L 510 244
L 510 244
L 510 244
L 510 244
L 510 244
L 510 244
L 510 243
L 510 243
L 510 243
L 510 243
L 510 243
L 510 243
L 510 243
L 510 243
L 510 243
L 510 243
L 510 243
L 510 243
L 510 243
L 510 243
L 510 243
L 510 243
L 510 243
L 510 243
L 510 243
L 510 243
L 510 242
L 510 242
L 510 242
L 510 242
L 510 242
L 510 242
L 511 242
L 511 242
L 511 242
L 511 242
L 511 242
L 511 242
L 511 242
L 511 242
L 511 242
L 511 242
L 511 242
L 511 242
L 511 242
L 511 242
L 511 242
L 511 241
L 511 241
L 511 241
L 511 241
L 511 241
L 511 241
L 511 241
L 511 241
L 511 241
L 511 241
L 511 241
L 511 241
L 511 241
L 511 241
L 511 241
L 511 241
L 511 241
L 511 241
L 511 241
L 511 241
L 511 240
L 511 240
L 511 240
L 511 240
L 511 240
L 511 240
L 512 240
L 512 240
L 512 240
L 512 240
L 512 240
L 512 240
L 512 240
L 512 240
L 512 240
L 512 240
L 512 240
L 512 240
L 512 240
L 512 240
L 512 239
L 512 239
L 513 239
L 513 239
L 513 239
L 513 239
L 513 239
L 513 239
L 513 239
L 513 239
L 513 239
L 513 239
L 513 239
L 513 239
L 513 239
L 513 239
L 513 239
L 513 239
L 513 239
L 513 239
L 513 238
L 513 238
L 513 238
L 513 238
L 513 238
L 513 238
L 513 238
L 513 238
L 513 238
L 513 238
L 513 238
L 513 238
L 513 238
L 513 238
L 513 238
L 513 238
L 513 238
L 513 238
L 513 238
L 513 238
L 513 238
L 513 237
L 513 237
L 513 237
L 513 237
L 513 237
L 513 237
L 513 237
L 513 237
L 513 237
L 513 237
L 513 237
L 513 237
L 514 237
L 514 237
L 514 237
L 514 237
L 514 237
L 514 237
L 514 237
L 514 237
L 514 236
L 514 236
L 514 236
L 514 236
L 514 236
L 514 236
L 514 236
L 514 236
L 514 236
L 514 236
L 514 236
L 514 236
L 514 236
L 514 236
L 514 236
L 514 236
L 514 236
L 514 236
L 514 236
L 514 236
L 514 235
L 514 235
L 514 235
L 514 235
L 514 235
L 514 235
L 514 235
L 514 235
L 514 235
L 514 235
L 514 235
L 514 235
L 514 235
L 514 235
L 514 235
L 514 235
L 514 235
L 515 235
L 515 235
L 515 235
L 515 235
L 515 234
L 515 234
L 515 234
L 515 234
L 515 234
L 515 234
L 515 234
L 515 234
L 515 234
L 515 234
L 515 234
L 515 234
L 515 234
L 515 234
L 515 234
L 515 234
L 515 234
L 515 234
L 515 234
L 515 234
L 516 233
L 516 233
L 516 233
L 516 233
L 516 233
L 516 233
L 516 233
L 516 233
L 516 233
L 516 233
L 516 233
L 516 233
L 516 233
L 516 233
L 516 233
L 516 233
L 516 233
L 516 233
L 517 233
L 517 233
L 517 232
L 517 232
L 517 232
L 517 232
L 517 232
L 517 232
L 517 232
L 517 232
L 517 232
L 517 232
L 517 232
L 518 232
L 518 232
L 518 232
L 518 232
L 518 232
L 518 232
L 518 232
L 518 232
L 518 232
L 518 232
L 518 231
L 518 231
L 518 231
L 518 231
L 518 231
L 518 231
L 519 231
L 519 231
L 519 231
L 519 231
L 519 231
L 519 231
L 520 231
L 521 231
L 521 231
L 521 231
L 523 231
L 523 231
L 523 231
L 523 231
L 523 230
L 523 230
L 523 230
L 523 230
L 523 230
L 523 230
L 523 230
L 523 230
L 523 230
L 523 230
L 523 230
L 523 230
L 524 230
L 524 230
L 524 230
L 524 230
L 524 230
L 524 230
L 524 230
L 524 230
L 524 229
L 524 229
L 524 229
L 524 229
L 524 229
L 524 229
L 524 229
L 524 229
L 524 229
L 524 229
L 524 229
L 524 229
L 524 229
L 524 229
L 524 229
L 524 229
L 524 229
L 524 229
L 524 229
L 524 229
L 524 228
L 524 228
L 524 228
L 524 228
L 524 228
L 524 228
L 524 228
L 524 228
L 524 228
L 524 228
L 524 228
L 524 228
L 524 228
L 524 228
L 524 228
L 524 228
L 524 228
L 524 228
L 524 228
L 524 228
L 524 228
L 524 227
L 524 227
L 524 227
L 524 227
L 524 227
L 525 227
L 525 227
L 525 227
L 525 227
L 525 227
L 525 227
L 525 227
L 525 227
L 525 227
L 525 227
L 525 227
L 525 227
L 525 227
L 525 227
L 525 227
L 525 226
L 525 226
L 525 226
L 525 226
L 525 226
L 525 226
L 525 226
L 525 226
L 525 226
L 525 226
L 525 226
L 525 226
L 525 226
L 525 226
L 525 226
L 525 226
L 525 226
L 525 226
L 525 226
L 525 226
L 525 225
L 525 225
L 525 225
L 526 225
L 526 225
L 526 225
L 526 225
L 526 225
L 526 225
L 526 225
L 526 225
L 526 225
L 526 225
L 526 225
L 526 225
L 526 225
L 526 225
L 526 225
L 526 225
L 526 225
L 526 225
L 526 224
L 526 224
L 526 224
L 526 224
L 526 224
L 526 224
L 526 224
L 526 224
L 526 224
L 526 224
L 526 224
L 526 224
L 526 224
L 526 224
L 526 224
L 526 224
L 526 224
L 526 224
L 526 224
L 527 224
L 527 223
L 527 223
L 527 223
L 527 223
L 527 223
L 527 223
L 527 223
L 527 223
L 527 223
L 527 223
L 527 223
L 527 223
L 527 223
L 527 223
L 527 223
L 527 223
L 527 223
L 527 223
L 527 223
L 527 223
L 527 222
L 527 222
L 527 222
L 527 222
L 527 222
L 527 222
L 527 222
L 527 222
L 527 222
L 527 222
L 527 222
L 527 222
L 527 222
L 527 222
L 527 222
L 527 222
L 527 222
L 527 222
L 527 222
L 527 222
L 527 221
L 527 221
L 527 221
L 527 221
L 527 221
L 527 221
L 527 221
L 527 221
L 527 221
L 527 221
L 527 221
L 527 221
L 528 221
L 528 221
L 528 221
L 528 221
L 528 221
L 528 221
L 528 221
L 528 221
L 528 221
L 528 220
L 528 220
L 528 220
L 528 220
L 528 220
L 528 220
L 528 220
L 528 220
L 528 220
L 528 220
L 528 220
L 528 220
L 528 220
L 528 220
L 528 220
L 528 220
L 528 220
L 528 220
L 528 220
L 528 220
L 528 219
L 529 219
L 529 219
L 529 219
L 529 219
L 529 219
L 529 219
L 529 219
L 529 219
L 529 219
L 529 219
L 529 219
L 529 219
L 529 219
L 529 219
L 530 219
L 530 219
L 530 219
L 530 219
L 530 219
L 530 218
L 530 218
L 530 218
L 530 218
L 530 218
L 530 218
L 530 218
L 530 218
L 531 218
L 531 218
L 531 218
L 531 218
L 531 218
L 531 218
L 531 218
L 531 218
L 531 218
L 531 218
L 531 218
L 531 218
L 531 218
L 531 217
L 532 217
L 532 217
L 532 217
L 532 217
L 532 217
L 532 217
L 532 217
L 532 217
L 532 217
L 533 217
L 533 217
L 535 217
L 535 217
L 535 217
L 536 217
L 536 217
L 536 217
L 537 217
L 537 217
L 537 216
L 537 216
L 537 216
L 537 216
L 537 216
L 538 216
L 538 216
L 538 216
L 538 216
L 538 216
L 538 216
L 538 216
L 538 216
L 538 216
L 538 216
L 538 216
L 538 216
L 538 216
L 538 216
L 538 216
L 539 215
L 539 215
L 539 215
L 539 215
L 539 215
L 539 215
L 539 215
L 539 215
L 539 215
L 540 215
L 540 215
L 540 215
L 540 215
L 540 215
L 541 215
L 541 215
L 541 215
L 541 215
L 541 215
L 541 215
L 541 215
L 541 214
L 541 214
L 542 214
L 542 214
L 542 214
L 542 214
L 542 214
L 542 214
L 543 214
L 543 214
L 543 214
L 543 214
L 543 214
L 543 214
L 543 214
L 543 214
L 543 214
L 544 214
L 544 214
L 544 214
L 544 213
L 544 213
L 544 213
L 545 213
L 545 213
L 545 213
L 545 213
L 545 213
L 545 213
L 545 213
L 545 213
L 545 213
L 546 213
L 546 213
L 546 213
L 546 213
L 548 213
L 548 213
L 548 213
L 548 213
L 548 212
L 548 212
L 549 212
L 549 212
L 550 212
L 550 212
L 551 212
L 551 212
L 551 212
L 551 212
L 551 212
L 551 212
L 551 212
L 551 212
L 551 212
L 552 212
L 552 212
L 552 212
L 552 212
L 552 212
L 552 211
L 552 211
L 552 211
L 553 211
L 553 211
L 553 211
L 553 211
L 553 211
L 553 211
L 554 211
L 554 211
L 554 211
L 554 211
L 554 211
L 554 211
L 554 211
L 555 211
L 555 211
L 555 211
L 555 211
L 555 211
L 556 210
L 556 210
L 556 210
L 556 210
L 556 210
L 556 210
L 557 210
L 557 210
L 557 210
L 557 210
L 557 210
L 557 210
L 558 210
L 558 210
L 558 210
L 558 210
L 558 210
L 558 210
L 558 210
L 558 210
L 558 209
L 559 209
L 559 209
L 559 209
L 559 209
L 559 209
L 560 209
L 560 209
L 560 209
L 560 209
L 560 209
L 561 209
L 562 209
L 562 209
L 563 209
L 564 209
L 564 209
L 564 209
L 564 209
L 564 209
L 565 208
L 565 208
L 565 208
L 565 208
L 565 208
L 565 208
L 566 208
L 566 208
L 566 208
L 566 208
L 566 208
L 566 208
L 567 208
L 567 208
L 567 208
L 567 208
L 567 208
L 567 208
L 567 208
L 567 208
L 567 208
L 567 207
L 567 207
L 567 207
L 568 207
L 568 207
L 568 207
L 568 207
L 569 207
L 569 207
L 569 207
L 569 207
L 569 207
L 569 207
L 569 207
L 569 207
L 569 207
L 569 207
L 569 207
L 569 207
L 570 207
L 570 206
L 570 206
L 570 206
L 570 206
L 570 206
L 570 206
L 570 206
L 570 206
L 570 206
L 570 206
L 570 206
L 570 206
L 570 206
L 570 206
L 571 206
L 571 206
L 571 206
L 571 206
L 571 206
L 571 206
L 571 205
L 572 205
L 572 205
L 572 205
L 572 205
L 572 205
L 572 205
L 572 205
L 572 205
L 572 205
L 572 205
L 573 205
L 573 205
L 573 205
L 574 205
L 574 205
L 577 205
L 577 205
L 577 205
L 577 205
L 578 204
L 578 204
L 578 204
L 578 204
L 578 204
L 578 204
L 578 204
L 578 204
L 578 204
L 578 204
L 578 204
L 578 204
L 578 204
L 578 204
L 578 204
L 578 204
L 578 204
L 578 204
L 578 204
L 578 204
L 578 204
L 578 203
L 578 203
L 578 203
L 578 203
L 578 203
L 578 203
L 578 203
L 578 203
L 578 203
L 578 203
L 578 203
L 578 203
L 578 203
L 578 203
L 578 203
L 578 203
L 578 203
L 578 203
L 578 203
L 578 203
L 578 202
L 579 202
L 579 202
L 579 202
L 579 202
L 579 202
L 579 202
L 579 202
L 579 202
L 579 202
L 579 202
L 579 202
L 579 202
L 579 202
L 579 202
L 579 202
L 579 202
L 579 202
L 579 202
L 579 202
L 579 201
L 579 201
L 579 201
L 579 201
L 579 201
L 579 201
L 579 201
L 579 201
L 580 201
L 580 201
L 580 201
L 580 201
L 580 201
L 580 201
L 580 201
L 580 201
L 580 201
L 580 201
L 580 201
L 580 201
L 580 201
L 580 200
L 580 200
L 580 200
L 580 200
L 580 200
L 580 200
L 580 200
L 580 200
L 580 200
L 580 200
L 580 200
L 580 200
L 581 200
L 581 200
L 581 200
L 581 200
L 581 200
L 581 200
L 581 200
L 581 200
L 581 199
L 581 199
L 581 199
L 581 199
L 581 199
L 581 199
L 581 199
L 581 199
L 581 199
L 581 199
L 581 199
L 581 199
L 581 199
L 581 199
L 581 199
L 581 199
L 581 199
L 581 199
L 581 199
L 581 199
L 581 198
L 581 198
L 582 198
L 582 198
L 582 198
L 582 198
L 582 198
L 582 198
L 582 198
L 582 198
L 582 198
L 582 198
L 582 198
L 582 198
L 582 198
L 582 198
L 582 198
L 582 198
L 582 198
L 582 198
L 582 198
L 582 197
L 582 197
L 582 197
L 582 197
L 582 197
L 582 197
L 583 197
L 583 197
L 583 197
L 583 197
L 583 197
L 583 197
L 583 197
L 583 197
L 583 197
L 583 197
L 583 197
L 584 197
L 584 197
L 584 197
L 584 196
L 584 196
L 584 196
L 584 196
L 584 196
L 584 196
L 584 196
L 584 196
L 584 196
L 584 196
L 584 196
L 584 196
L 584 196
L 584 196
L 584 196
L 585 196
L 585 196
L 585 196
L 585 196
L 585 196
L 585 195
L 585 195
L 585 195
L 585 195
L 585 195
L 585 195
L 585 195
L 585 195
L 585 195
L 585 195
L 585 195
L 585 195
L 585 195
L 585 195
L 585 195
L 585 195
L 585 195
L 585 195
L 585 195
L 585 195
L 586 194
L 586 194
L 586 194
L 586 194
L 586 194
L 586 194
L 586 194
L 586 194
L 586 194
L 587 194
L 587 194
L 588 194
L 588 194
L 588 194
L 590 194
L 590 194
L 590 194
L 590 194
L 591 194
L 591 194
L 591 194
L 591 193
L 591 193
L 591 193
L 591 193
L 591 193
L 591 193
L 591 193
L 591 193
L 591 193
L 591 193
L 591 193
L 591 193
L 591 193
L 591 193
L 591 193
L 591 193
L 591 193
L 591 193
L 591 193
L 591 193
L 591 192
L 591 192
L 591 192
L 591 192
L 591 192
L 591 192
L 591 192
L 591 192
L 591 192
L 591 192
L 592 192
L 592 192
L 592 192
L 592 192
L 592 192
L 592 192
L 592 192
L 592 192
L 592 192
L 592 192
L 592 191
L 592 191
L 592 191
L 592 191
L 592 191
L 592 191
L 592 191
L 592 191
L 592 191
L 592 191
L 592 191
L 592 191
L 592 191
L 592 191
L 592 191
L 592 191
L 592 191
L 592 191
L 592 191
L 592 191
L 592 191
L 592 190
L 592 190
L 592 190
L 592 190
L 592 190
L 592 190
L 592 190
L 593 190
L 593 190
L 593 190
L 593 190
L 593 190
L 593 190
L 593 190
L 593 190
L 593 190
L 593 190
L 593 190
L 593 190
L 593 190
L 593 189
L 593 189
L 594 189
L 594 189
L 594 189
L 594 189
L 594 189
L 594 189
L 594 189
L 594 189
L 594 189
L 594 189
L 594 189
L 594 189
L 594 189
L 594 189
L 594 189
L 594 189
L 594 189
L 594 189
L 594 188
L 594 188
L 594 188
L 594 188
L 594 188
L 594 188
L 594 188
L 594 188
L 594 188
L 594 188
L 594 188
L 594 188
L 594 188
L 595 188
L 595 188
L 595 188
L 595 188
L 595 188
L 595 188
L 595 188
L 595 187
L 595 187
L 595 187
L 595 187
L 595 187
L 595 187
L 595 187
L 595 187
L 595 187
L 595 187
L 595 187
L 595 187
L 595 187
L 595 187
L 595 187
L 595 187
L 595 187
L 595 187
L 595 187
L 595 187
L 595 187
L 595 186
L 595 186
L 595 186
L 595 186
L 596 186
L 596 186
L 596 186
L 596 186
L 596 186
L 596 186
L 596 186
L 596 186
L 596 186
L 596 186
L 596 186
L 596 186
L 596 186
L 596 186
L 596 186
L 596 186
L 596 185
L 596 185
L 596 185
L 596 185
L 596 185
L 596 185
L 596 185
L 596 185
L 596 185
L 596 185
L 596 185
L 596 185
L 596 185
L 596 185
L 596 185
L 596 185
L 596 185
L 596 185
L 596 185
L 596 185
L 596 184
L 596 184
L 596 184
L 596 184
L 596 184
L 596 184
L 596 184
L 596 184
L 596 184
L 597 184
L 597 184
L 597 184
L 597 184
L 597 184
L 597 184
L 597 184
L 597 184
L 597 184
L 597 184
L 597 184
L 597 184
L 597 183
L 597 183
L 597 183
L 597 183
L 597 183
L 597 183
L 597 183
L 597 183
L 597 183
L 597 183
L 597 183
L 597 183
L 597 183
L 598 183
L 598 183
L 598 183
L 598 183
L 598 183
L 598 183
L 598 183
L 598 182
L 598 182
L 598 182
L 598 182
L 598 182
L 598 182
L 598 182
L 598 182
L 598 182
L 598 182
L 598 182
L 599 182
L 599 182
L 599 182
L 599 182
L 599 182
L 599 182
L 599 182
L 599 182
L 599 182
L 599 181
L 599 181
L 599 181
L 599 181
L 599 181
L 599 181
L 599 181
L 599 181
L 599 181
L 599 181
L 599 181
L 599 181
L 600 181
L 600 181
L 600 181
L 600 181
L 600 181
L 600 181
L 600 181
L 601 181
L 601 181
L 601 180
L 602 180
L 603 180
L 603 180
L 604 180
L 604 180
L 604 180
L 604 180
L 604 180
L 604 180
L 604 180
L 604 180
L 604 180
L 604 180
L 604 180
L 605 180
L 605 180
L 605 180
L 605 180
L 605 180
L 605 179
L 605 179
L 605 179
L 605 179
L 605 179
L 605 179
L 605 179
L 605 179
L 605 179
L 605 179
L 605 179
L 605 179
L 605 179
L 605 179
L 605 179
L 605 179
L 605 179
L 605 179
L 605 179
L 605 179
L 605 178
L 605 178
L 605 178
L 605 178
L 606 178
L 606 178
L 606 178
L 606 178
L 606 178
L 606 178
L 606 178
L 606 178
L 606 178
L 606 178
L 606 178
L 606 178
L 606 178
L 606 178
L 606 178
L 606 178
L 606 177
L 606 177
L 606 177
L 606 177
L 606 177
L 606 177
L 606 177
L 606 177
L 606 177
L 607 177
L 607 177
L 607 177
L 607 177
L 607 177
L 607 177
L 607 177
L 607 177
L 607 177
L 607 177
L 607 177
L 607 177
L 607 176
L 607 176
L 607 176
L 607 176
L 607 176
L 607 176
L 607 176
L 608 176
L 608 176
L 608 176
L 608 176
L 608 176
L 608 176
L 608 176
L 608 176
L 608 176
L 608 176
L 608 176
L 608 176
L 608 176
L 608 175
L 608 175
L 608 175
L 608 175
L 608 175
L 608 175
L 608 175
L 608 175
L 609 175
L 609 175
L 609 175
L 609 175
L 609 175
L 609 175
L 609 175
L 609 175
L 609 175
L 609 175
L 609 175
L 609 175
L 609 174
L 609 174
L 609 174
L 609 174
L 609 174
L 609 174
L 609 174
L 609 174
L 609 174
L 609 174
L 609 174
L 609 174
L 609 174
L 609 174
L 609 174
L 609 174
L 609 174
L 609 174
L 609 174
L 609 174
L 609 174
L 610 173
L 610 173
L 610 173
L 610 173
L 610 173
L 610 173
L 610 173
L 610 173
L 610 173
L 610 173
L 610 173
L 610 173
L 610 173
L 610 173
L 610 173
L 610 173
L 610 173
L 610 173
L 610 173
L 611 173
L 611 172
L 611 172
L 611 172
L 611 172
L 611 172
L 611 172
L 611 172
L 611 172
L 612 172
L 612 172
L 612 172
L 612 172
L 612 172
L 612 172
L 612 172
L 612 172
L 612 172
L 612 172
L 612 172
L 612 172
L 612 171
L 612 171
L 612 171
L 612 171
L 612 171
L 612 171
L 613 171
L 613 171
L 613 171
L 613 171
L 613 171
L 613 171
L 614 171
L 614 171
L 614 171
L 615 171
L 615 171
L 616 171
L 616 171
L 616 171
L 616 170
L 617 170
L 618 170
L 618 170
L 618 170
L 618 170
L 618 170
L 618 170
L 618 170
L 618 170
L 618 170
L 618 170
L 618 170
L 618 170
L 619 170
L 619 170
L 619 170
L 619 170
L 619 170
L 619 170
L 619 170
L 619 169
L 619 169
L 619 169
L 619 169
L 619 169
L 619 169
L 619 169
L 619 169
L 619 169
L 619 169
L 619 169
L 619 169
L 619 169
L 620 169
L 620 169
L 620 169
L 620 169
L 620 169
L 620 169
L 620 169
L 620 168
L 620 168
L 620 168
L 620 168
L 621 168
L 621 168
L 621 168
L 621 168
L 621 168
L 621 168
L 621 168
L 621 168
L 621 168
L 621 168
L 621 168
L 621 168
L 622 168
L 622 168
L 622 168
L 622 168
L 622 167
L 622 167
L 622 167
L 622 167
L 623 167
L 623 167
L 623 167
L 623 167
L 623 167
L 623 167
L 623 167
L 623 167
L 623 167
L 624 167
L 624 167
L 624 167
L 624 167
L 624 167
L 624 167
L 625 167
L 625 167
L 625 166
L 625 166
L 625 166
L 625 166
L 625 166
L 625 166
L 625 166
L 625 166
L 625 166
L 625 166
L 625 166
L 625 166
L 626 166
L 626 166
L 626 166
L 626 166
L 626 166
L 626 166
L 626 166
L 626 166
L 627 165
L 627 165
L 627 165
L 627 165
L 627 165
L 627 165
L 627 165
L 632 165
L 632 165
L 633 165
L 633 165
L 633 165
L 633 165
L 633 165
L 633 165
L 633 165
L 633 165
L 633 165
L 634 165
L 634 165
L 634 164
L 634 164
L 634 164
L 634 164
L 634 164
L 634 164
L 634 164
L 635 164
L 635 164
L 635 164
L 635 164
L 635 164
L 635 164
L 635 164
L 636 164
L 636 164
L 636 164
L 636 164
L 636 164
L 636 164
L 636 163
L 636 163
L 636 163
L 636 163
L 636 163
L 637 163
L 637 163
L 637 163
L 637 163
L 637 163
L 637 163
L 637 163
L 637 163
L 637 163
L 637 163
L 637 163
L 637 163
L 638 163
L 638 163
L 638 163
L 638 163
L 638 162
L 638 162
L 638 162
L 639 162
L 639 162
L 639 162
L 639 162
L 639 162
L 639 162
L 639 162
L 639 162
L 639 162
L 639 162
L 639 162
L 639 162
L 639 162
L 639 162
L 639 162
L 640 162
L 640 162
L 640 161
L 640 161
L 640 161
L 640 161
L 640 161
L 640 161
L 640 161
L 640 161
L 641 161
L 641 161
L 641 161
L 641 161
L 642 161
L 642 161
L 643 161
L 643 161
L 643 161
L 644 161
L 645 161
L 645 161
L 645 160
L 645 160
L 645 160
L 645 160
L 645 160
L 645 160
L 645 160
L 645 160
L 645 160
L 645 160
L 645 160
L 645 160
L 645 160
L 645 160
L 645 160
L 645 160
L 645 160
L 645 160
L 645 160
L 646 160
L 646 160
L 646 159
L 646 159
L 646 159
L 646 159
L 646 159
L 646 159
L 646 159
L 646 159
L 646 159
L 646 159
L 646 159
L 646 159
L 646 159
L 646 159
L 646 159
L 646 159
L 646 159
L 646 159
L 646 159
L 646 159
L 646 158
L 646 158
L 646 158
L 647 158
L 647 158
L 647 158
L 647 158
L 647 158
L 647 158
L 647 158
L 647 158
L 647 158
L 647 158
L 647 158
L 647 158
L 647 158
L 648 158
L 648 158
L 648 158
L 648 158
L 648 157
L 648 157
L 648 157
L 648 157
L 648 157
L 648 157
L 648 157
L 648 157
L 648 157
L 648 157
L 648 157
L 648 157
L 648 157
L 648 157
L 649 157
L 649 157
L 649 157
L 649 157
L 649 157
L 649 157
L 649 157
L 649 156
L 649 156
L 649 156
L 649 156
L 649 156
L 649 156
L 649 156
L 649 156
L 649 156
L 649 156
L 650 156
L 650 156
L 650 156
L 650 156
L 650 156
L 650 156
L 650 156
L 650 156
L 650 156
L 650 156
L 650 155
L 650 155
L 650 155
L 650 155
L 650 155
L 650 155
L 650 155
L 651 155
L 651 155
L 651 155
L 651 155
L 651 155
L 651 155
L 651 155
L 651 155
L 651 155
L 651 155
L 651 155
L 652 155
L 652 155
L 652 154
L 652 154
L 652 154
L 652 154
L 652 154
L 652 154
L 652 154
L 652 154
L 652 154
L 653 154
L 653 154
L 653 154
L 653 154
L 653 154
L 653 154
L 653 154
L 653 154
L 653 154
L 654 154
L 654 154
L 654 153
L 654 153
L 656 153
L 658 153
L 658 153
L 658 153
L 658 153
L 658 153
L 659 153
L 659 153
L 659 153
L 659 153
L 659 153
L 659 153
L 659 153
L 659 153
L 659 153
L 659 153
L 659 153
L 659 153
L 659 153
L 659 152
L 659 152
L 659 152
L 660 152
L 660 152
L 660 152
L 660 152
L 660 152
L 660 152
L 660 152
L 660 152
L 660 152
L 660 152
L 660 152
L 660 152
L 660 152
L 660 152
L 660 152
L 660 152
L 660 152
L 660 151
L 660 151
L 661 151
L 661 151
L 661 151
L 661 151
L 661 151
L 661 151
L 661 151
L 661 151
L 661 151
L 661 151
L 661 151
L 661 151
L 662 151
L 662 151
L 662 151
L 662 151
L 662 151
L 662 151
L 662 150
L 662 150
L 662 150
L 662 150
L 662 150
L 662 150
L 662 150
L 663 150
L 663 150
L 663 150
L 663 150
L 663 150
L 663 150
L 663 150
L 663 150
L 663 150
L 663 150
L 663 150
L 663 150
L 663 150
L 663 150
L 663 149
L 663 149
L 663 149
L 663 149
L 663 149
L 663 149
L 663 149
L 663 149
L 663 149
L 663 149
L 663 149
L 663 149
L 663 149
L 663 149
L 663 149
L 664 149
L 664 149
L 664 149
L 664 149
L 664 149
L 664 148
L 664 148
L 664 148
L 664 148
L 664 148
L 664 148
L 664 148
L 664 148
L 664 148
L 665 148
L 665 148
L 665 148
L 665 148
L 665 148
L 665 148
L 665 148
L 665 148
L 665 148
L 665 148
L 665 148
L 665 147
L 665 147
L 665 147
L 665 147
L 665 147
L 665 147
L 665 147
L 666 147
L 666 147
L 666 147
L 666 147
L 666 147
L 666 147
L 666 147
L 666 147
L 666 147
L 666 147
L 666 147
L 666 147
L 666 147
L 666 147
L 666 146
L 666 146
L 666 146
L 667 146
L 667 146
L 667 146
L 667 146
L 667 146
L 668 146
L 668 146
L 668 146
L 670 146
L 672 146
L 672 146
L 672 146
L 672 146
L 672 146
L 672 146
L 672 146
L 672 146
L 672 145
L 672 145
L 672 145
L 673 145
L 673 145
L 673 145
L 673 145
L 673 145
L 673 145
L 673 145
L 673 145
L 673 145
L 673 145
L 673 145
L 673 145
L 673 145
L 673 145
L 673 145
L 673 145
L 673 145
L 673 144
L 673 144
L 673 144
L 673 144
L 673 144
L 673 144
L 673 144
L 673 144
L 673 144
L 673 144
L 674 144
L 674 144
L 674 144
L 674 144
L 674 144
L 674 144
L 674 144
L 674 144
L 674 144
L 674 144
L 674 143
L 674 143
L 674 143
L 674 143
L 674 143
L 674 143
L 675 143
L 675 143
L 675 143
L 675 143
L 675 143
L 675 143
L 675 143
L 675 143
L 675 143
L 675 143
L 675 143
L 675 143
L 675 143
L 675 143
L 675 143
L 675 142
L 675 142
L 675 142
L 675 142
L 675 142
L 675 142
L 676 142
L 676 142
L 676 142
L 676 142
L 676 142
L 676 142
L 676 142
L 676 142
L 676 142
L 676 142
L 676 142
L 676 142
L 676 142
L 676 142
L 676 141
L 676 141
L 676 141
L 676 141
L 676 141
L 676 141
L 677 141
L 677 141
L 677 141
L 677 141
L 677 141
L 677 141
L 677 141
L 677 141
L 677 141
L 677 141
L 677 141
L 677 141
L 677 141
L 677 141
L 677 140
L 677 140
L 678 140
L 678 140
L 678 140
L 678 140
L 678 140
L 678 140
L 679 140
L 679 140
L 679 140
L 679 140
L 679 140
L 679 140
L 679 140
L 679 140
L 679 140
L 679 140
L 679 140
L 679 140
L 680 140
L 680 139
L 680 139
L 680 139
L 680 139
L 680 139
L 680 139
L 680 139
L 680 139
L 680 139
L 680 139
L 680 139
L 680 139
L 680 139
L 681 139
L 681 139
L 681 139
L 681 139
L 681 139
L 681 139
L 681 139
L 681 138
L 682 138
L 684 138
L 685 138
L 685 138
L 685 138
L 685 138
L 685 138
L 685 138
L 685 138
L 685 138
L 685 138
L 685 138
L 685 138
L 685 138
L 685 138
L 685 138
L 685 138
L 686 138
L 686 138
L 686 137
L 686 137
L 686 137
L 686 137
L 686 137
L 686 137
L 686 137
L 686 137
L 686 137
L 686 137
L 686 137
L 686 137
L 686 137
L 686 137
L 686 137
L 686 137
L 686 137
L 686 137
L 686 137
L 686 137
L 686 136
L 686 136
L 686 136
L 686 136
L 686 136
L 686 136
L 686 136
L 686 136
L 686 136
L 686 136
L 686 136
L 686 136
L 686 136
L 686 136
L 686 136
L 686 136
L 686 136
L 686 136
L 686 136
L 686 136
L 686 136
L 686 135
L 686 135
L 686 135
L 686 135
L 686 135
L 686 135
L 686 135
L 686 135
L 686 135
L 686 135
L 686 135
L 686 135
L 686 135
L 686 135
L 686 135
L 687 135
L 687 135
L 687 135
L 687 135
L 687 135
L 687 134
L 687 134
L 687 134
L 687 134
L 687 134
L 687 134
L 687 134
L 687 134
L 687 134
L 687 134
L 687 134
L 687 134
L 687 134
L 687 134
L 687 134
L 687 134
L 687 134
L 687 134
L 687 134
L 687 134
L 687 133
L 687 133
L 687 133
L 687 133
L 687 133
L 687 133
L 688 133
L 688 133
L 688 133
L 688 133
L 688 133
L 688 133
L 688 133
L 688 133
L 688 133
L 688 133
L 688 133
L 688 133
L 688 133
L 688 133
L 688 133
L 688 132
L 688 132
L 688 132
L 688 132
L 689 132
L 689 132
L 689 132
L 689 132
L 689 132
L 689 132
L 689 132
L 689 132
L 689 132
L 689 132
L 689 132
L 689 132
L 689 132
L 689 132
L 689 132
L 689 132
L 689 131
L 689 131
L 689 131
L 689 131
L 689 131
L 689 131
L 689 131
L 689 131
L 689 131
L 689 131
L 689 131
L 689 131
L 689 131
L 689 131
L 689 131
L 689 131
L 689 131
L 689 131
L 689 131
L 689 131
L 689 130
L 689 130
L 689 130
L 689 130
L 689 130
L 689 130
L 689 130
L 689 130
L 689 130
L 689 130
L 690 130
L 690 130
L 690 130
L 690 130
L 690 130
L 690 130
L 690 130
L 690 130
L 690 130
L 690 130
L 690 130
L 690 129
L 690 129
L 690 129
L 690 129
L 690 129
L 690 129
L 690 129
L 690 129
L 690 129
L 690 129
L 690 129
L 690 129
L 690 129
L 690 129
L 690 129
L 690 129
L 690 129
L 690 129
L 690 129
L 690 129
L 690 128
L 690 128
L 690 128
L 690 128
L 690 128
L 690 128
L 691 128
L 691 128
L 691 128
L 691 128
L 691 128
L 691 128
L 691 128
L 691 128
L 691 128
L 691 128
L 691 128
L 691 128
L 691 128
L 691 128
L 692 127
L 692 127
L 692 127
L 692 127
L 692 127
L 692 127
L 692 127
L 692 127
L 692 127
L 692 127
L 692 127
L 692 127
L 692 127
L 692 127
L 692 127
L 692 127
L 692 127
L 692 127
L 692 127
L 692 127
L 692 126
L 692 126
L 692 126
L 692 126
L 693 126
L 693 126
L 693 126
L 693 126
L 693 126
L 693 126
L 693 126
L 693 126
L 693 126
L 693 126
L 693 126
L 693 126
L 693 126
L 693 126
L 693 126
L 693 126
L 693 126
L 693 125
L 693 125
L 693 125
L 693 125
L 694 125
L 694 125
L 694 125
L 694 125
L 694 125
L 694 125
L 694 125
L 694 125
L 694 125
L 694 125
L 695 125
L 695 125
L 695 125
L 695 125
L 695 125
L 695 125
L 695 124
L 696 124
L 696 124
L 696 124
L 696 124
L 696 124
L 697 124
L 698 124
L 698 124
L 698 124
L 699 124
L 699 124
L 699 124
L 699 124
L 699 124
L 699 124
L 699 124
L 699 124
L 699 124
L 699 124
L 699 123
L 699 123
L 699 123
L 699 123
L 700 123
L 700 123
L 700 123
L 700 123
L 700 123
L 700 123
L 700 123
L 700 123
L 700 123
L 700 123
L 700 123
L 700 123
L 700 123
L 700 123
L 700 123
L 700 123
L 700 123
L 700 122
L 700 122
L 700 122
L 700 122
L 700 122
L 700 122
L 700 122
L 700 122
L 700 122
L 700 122
L 700 122
L 700 122
L 700 122
L 700 122
L 700 122
L 700 122
L 700 122
L 701 122
L 701 122
L 701 122
L 701 121
L 701 121
L 701 121
L 701 121
L 701 121
L 701 121
L 701 121
L 701 121
L 702 121
L 702 121
L 702 121
L 702 121
L 702 121
L 702 121
L 702 121
L 702 121
L 702 121
L 702 121
L 702 121
L 702 121
L 702 120
L 702 120
L 702 120
L 702 120
L 702 120
L 702 120
L 702 120
L 702 120
L 702 120
L 702 120
L 702 120
L 702 120
L 702 120
L 702 120
L 702 120
L 702 120
L 702 120
L 702 120
L 702 120
L 703 120
L 703 119
L 703 119
L 703 119
L 703 119
L 703 119
L 703 119
L 703 119
L 703 119
L 703 119
L 703 119
L 703 119
L 703 119
L 703 119
L 703 119
L 703 119
L 703 119
L 703 119
L 703 119
L 703 119
L 703 119
L 703 119
L 703 118
L 703 118
L 703 118
L 703 118
L 703 118
L 703 118
L 704 118
L 704 118
L 704 118
L 704 118
L 704 118
L 704 118
L 704 118
L 704 118
L 704 118
L 704 118
L 704 118
L 704 118
L 704 118
L 704 118
L 704 117
L 704 117
L 704 117
L 704 117
L 704 117
L 704 117
L 704 117
L 704 117
L 705 117
L 705 117
L 705 117
L 705 117
L 705 117
L 705 117
L 706 117
L 706 117
L 706 117
L 706 117
L 706 117
L 706 117
L 706 116
L 706 116
L 706 116
L 706 116
L 706 116
L 706 116
L 706 116
L 706 116
L 707 116
L 707 116
L 707 116
L 707 116
L 708 116
L 708 116
L 708 116
L 708 116
L 708 116
L 708 116
L 708 116
L 708 116
L 708 116
L 708 115
L 708 115
L 709 115
L 710 115
L 710 115
L 710 115
L 712 115
L 713 115
L 713 115
L 713 115
L 714 115
L 714 115
L 714 115
L 714 115
L 714 115
L 714 115
L 714 115
L 714 115
L 714 115
L 714 115
L 714 114
L 714 114
L 715 114
L 715 114
L 715 114
L 715 114
L 716 114
L 716 114
L 716 114
L 716 114
L 716 114
L 716 114
L 716 114
L 716 114
L 716 114
L 717 114
L 717 114
L 717 114
L 717 114
L 717 114
L 717 113
L 717 113
L 717 113
L 717 113
L 717 113
L 718 113
L 718 113
L 718 113
L 718 113
L 718 113
L 719 113
L 719 113
L 719 113
L 720 113
L 720 113
L 720 113
L 720 113
L 721 113
L 721 113
L 721 113
L 721 113
L 721 112
L 722 112
L 722 112
L 722 112
L 722 112
L 724 112
L 726 112
L 726 112
L 727 112
L 727 112
L 728 112
L 728 112
L 728 112
L 728 112
L 729 112
L 729 112
L 729 112
L 729 112
L 729 112
L 729 112
L 729 111
L 730 111
L 730 111
L 730 111
L 730 111
L 730 111
L 730 111
L 731 111
L 731 111
L 732 111
L 732 111
L 732 111
L 732 111
L 732 111
L 732 111
L 732 111
L 733 111
L 733 111
L 733 111
L 733 111
L 733 110
L 734 110
L 734 110
L 734 110
L 734 110
L 734 110
L 734 110
L 735 110
L 735 110
L 735 110
L 735 110
L 736 110
L 739 110
L 739 110
L 740 110
L 740 110
L 740 110
L 740 110
L 740 110
L 740 110
L 740 109
L 740 109
L 740 109
L 740 109
L 740 109
L 740 109
L 740 109
L 741 109
L 741 109
L 741 109
L 741 109
L 741 109
L 741 109
L 741 109
L 741 109
L 741 109
L 741 109
L 741 109
L 741 109
L 741 109
L 741 109
L 741 108
L 741 108
L 741 108
L 742 108
L 742 108
L 742 108
L 742 108
L 742 108
L 742 108
L 742 108
L 743 108
L 743 108
L 743 108
L 743 108
L 743 108
L 743 108
L 743 108
L 743 108
L 743 108
L 743 108
L 743 107
L 744 107
L 744 107
L 744 107
L 744 107
L 744 107
L 744 107
L 744 107
L 744 107
L 744 107
L 744 107
L 744 107
L 744 107
L 744 107
L 744 107
L 744 107
L 744 107
L 744 107
L 744 107
L 745 107
L 745 106
L 745 106
L 745 106
L 745 106
L 745 106
L 745 106
L 745 106
L 745 106
L 745 106
L 746 106
L 746 106
L 746 106
L 746 106
L 746 106
L 746 106
L 746 106
L 746 106
L 746 106
L 746 106
L 746 106
L 747 106
L 747 105
L 747 105
L 747 105
L 747 105
L 747 105
L 747 105
L 747 105
L 747 105
L 748 105
L 748 105
L 748 105
L 748 105
L 748 105
L 748 105
L 748 105
L 748 105
L 748 105
L 748 105
L 748 105
L 749 105
L 749 104
L 749 104
L 751 104
L 751 104
L 752 104
L 753 104
L 753 104
L 754 104
L 754 104
L 754 104
L 754 104
L 754 104
L 754 104
L 754 104
L 754 104
L 754 104
L 754 104
L 754 104
L 754 104
L 754 104
L 754 103
L 754 103
L 754 103
L 754 103
L 754 103
L 754 103
L 754 103
L 754 103
L 754 103
L 754 103
L 754 103
L 754 103
L 754 103
L 754 103
L 754 103
L 754 103
L 754 103
L 754 103
L 754 103
L 754 103
L 754 102
L 754 102
L 754 102
L 754 102
L 754 102
L 754 102
L 754 102
L 754 102
L 754 102
L 755 102
L 755 102
L 755 102
L 755 102
L 755 102
L 755 102
L 755 102
L 755 102
L 755 102
L 755 102
L 755 102
L 755 102
L 755 101
L 755 101
L 755 101
L 755 101
L 755 101
L 755 101
L 755 101
L 755 101
L 755 101
L 755 101
L 755 101
L 755 101
L 755 101
L 755 101
L 755 101
L 755 101
L 755 101
L 755 101
L 755 101
L 755 101
L 755 100
L 755 100
L 755 100
L 755 100
L 755 100
L 755 100
L 755 100
L 755 100
L 755 100
L 755 100
L 755 100
L 755 100
L 755 100
L 755 100
L 755 100
L 755 100
L 755 100
L 755 100
L 755 100
L 755 100
L 756 99
L 756 99
L 756 99
L 756 99
L 756 99
L 756 99
L 756 99
L 756 99
L 756 99
L 756 99
L 756 99
L 756 99
L 756 99
L 756 99
L 756 99
L 756 99
L 756 99
L 756 99
L 756 99
L 756 99
L 757 99
L 757 98
L 757 98
L 757 98
L 757 98
L 757 98
L 757 98
L 757 98
L 757 98
L 757 98
L 757 98
L 757 98
L 757 98
L 757 98
L 757 98
L 757 98
L 757 98
L 757 98
L 757 98
L 757 98
L 758 98
L 758 97
L 758 97
L 758 97
L 758 97
L 758 97
L 758 97
L 758 97
L 758 97
L 758 97
L 758 97
L 758 97
L 758 97
L 758 97
L 758 97
L 758 97
L 758 97
L 758 97
L 758 97
L 758 97
L 758 97
L 758 96
L 758 96
L 758 96
L 758 96
L 758 96
L 759 96
L 759 96
L 759 96
L 759 96
L 759 96
L 759 96
L 759 96
L 759 96
L 759 96
L 759 96
L 759 96
L 759 96
L 759 96
L 759 96
L 759 96
L 759 96
L 759 95
L 759 95
L 759 95
L 759 95
L 759 95
L 759 95
L 759 95
L 759 95
L 760 95
L 760 95
L 760 95
L 760 95
L 760 95
L 760 95
L 760 95
L 760 95
L 760 95
L 760 95
L 760 95
L 760 95
L 760 94
L 760 94
L 760 94
L 761 94
L 761 94
L 761 94
L 761 94
L 761 94
L 761 94
L 761 94
L 761 94
L 761 94
L 762 94
L 762 94
L 763 94
L 763 94
L 763 94
L 763 94
L 764 94
L 765 94
L 767 93
L 767 93
L 767 93
L 767 93
L 767 93
L 767 93
L 767 93
L 767 93
L 767 93
L 767 93
L 767 93
L 767 93
L 767 93
L 767 93
L 767 93
L 767 93
L 767 93
L 767 93
L 767 93
L 767 93
L 767 92
L 767 92
L 767 92
L 767 92
L 767 92
L 767 92
L 767 92
L 767 92
L 767 92
L 767 92
L 767 92
L 767 92
L 768 92
L 768 92
L 768 92
L 768 92
L 768 92
L 768 92
L 768 92
L 768 92
L 768 92
L 768 91
L 768 91
L 768 91
L 768 91
L 768 91
L 768 91
L 768 91
L 768 91
L 768 91
L 768 91
L 768 91
L 768 91
L 768 91
L 768 91
L 768 91
L 768 91
L 768 91
L 768 91
L 768 91
L 768 91
L 768 90
L 768 90
L 768 90
L 768 90
L 768 90
L 768 90
L 768 90
L 768 90
L 768 90
L 768 90
L 768 90
L 768 90
L 768 90
L 768 90
L 768 90
L 768 90
L 768 90
L 768 90
L 768 90
L 769 90
L 769 89
L 769 89
L 769 89
L 769 89
L 769 89
L 769 89
L 769 89
L 769 89
L 769 89
L 769 89
L 769 89
L 769 89
L 769 89
L 769 89
L 769 89
L 769 89
L 769 89
L 769 89
L 769 89
L 769 89
L 769 89
L 769 88
L 769 88
L 770 88
L 770 88
L 770 88
L 770 88
L 770 88
L 770 88
L 770 88
L 770 88
L 770 88
L 770 88
L 770 88
L 770 88
L 770 88
L 770 88
L 770 88
L 770 88
L 770 88
L 770 88
L 770 87
L 770 87
L 770 87
L 770 87
L 770 87
L 770 87
L 770 87
L 770 87
L 770 87
L 770 87
L 770 87
L 770 87
L 770 87
L 770 87
L 770 87
L 771 87
L 771 87
L 771 87
L 771 87
L 771 87
L 771 86
L 771 86
L 771 86
L 771 86
L 771 86
L 771 86
L 771 86
L 771 86
L 771 86
L 771 86
L 771 86
L 771 86
L 771 86
L 771 86
L 771 86
L 771 86
L 771 86
L 771 86
L 771 86
L 771 86
L 771 85
L 771 85
L 771 85
L 771 85
L 771 85
L 772 85
L 772 85
L 772 85
L 772 85
L 772 85
L 772 85
L 772 85
L 772 85
L 772 85
L 772 85
L 772 85
L 772 85
L 772 85
L 772 85
L 772 85
L 772 85
L 772 84
L 772 84
L 772 84
L 772 84
L 772 84
L 772 84
L 772 84
L 772 84
L 772 84
L 773 84
L 773 84
L 773 84
L 773 84
L 773 84
L 773 84
L 773 84
L 773 84
L 773 84
L 773 84
L 773 84
L 773 83
L 773 83
L 773 83
L 774 83
L 774 83
L 774 83
L 774 83
L 774 83
L 774 83
L 774 83
L 774 83
L 775 83
L 775 83
L 775 83
L 775 83
L 775 83
L 775 83
L 775 83
L 775 83
L 775 83
L 775 82
L 776 82
L 776 82
L 776 82
L 776 82
L 777 82
L 779 82
L 779 82
L 779 82
L 779 82
L 780 82
L 780 82
L 780 82
L 780 82
L 780 82
L 781 82
L 781 82
L 781 82
L 781 82
L 781 82
L 781 82
L 781 81
L 781 81
L 781 81
L 781 81
L 781 81
L 781 81
L 781 81
L 781 81
L 781 81
L 781 81
L 781 81
L 781 81
L 781 81
L 781 81
L 781 81
L 781 81
L 781 81
L 781 81
L 781 81
L 781 81
L 781 80
L 781 80
L 781 80
L 781 80
L 781 80
L 781 80
L 782 80
L 782 80
L 782 80
L 782 80
L 782 80
L 782 80
L 782 80
L 782 80
L 782 80
L 782 80
L 782 80
L 782 80
L 782 80
L 782 80
L 782 79
L 782 79
L 782 79
L 782 79
L 782 79
L 782 79
L 782 79
L 782 79
L 782 79
L 782 79
L 782 79
L 783 79
L 783 79
L 783 79
L 783 79
L 783 79
L 783 79
L 783 79
L 783 79
L 783 79
L 783 79
L 783 78
L 783 78
L 783 78
L 783 78
L 783 78
L 783 78
L 783 78
L 783 78
L 783 78
L 784 78
L 784 78
L 784 78
L 784 78
L 784 78
L 784 78
L 784 78
L 784 78
L 784 78
L 784 78
L 784 78
L 784 77
L 784 77
L 784 77
L 784 77
L 784 77
L 784 77
L 784 77
L 784 77
L 784 77
L 784 77
L 784 77
L 784 77
L 784 77
L 785 77
L 785 77
L 785 77
L 785 77
L 785 77
L 785 77
L 785 77
L 785 76
L 785 76
L 785 76
L 785 76
L 785 76
L 785 76
L 785 76
L 785 76
L 785 76
L 785 76
L 785 76
L 785 76
L 785 76
L 785 76
L 785 76
L 785 76
L 786 76
L 786 76
L 786 76
L 786 76
L 786 75
L 786 75
L 786 75
L 786 75
L 786 75
L 786 75
L 786 75
L 786 75
L 786 75
L 786 75
L 787 75
L 787 75
L 787 75
L 787 75
L 787 75
L 787 75
L 788 75
L 788 75
L 788 75
L 788 75
L 788 75
L 788 74
L 788 74
L 788 74
L 789 74
L 789 74
L 789 74
L 789 74
L 789 74
L 789 74
L 789 74
L 789 74
L 789 74
L 790 74
L 791 74
L 793 74
L 793 74
L 794 74
L 794 74
L 794 74
L 794 74
L 794 73
L 794 73
L 794 73
L 794 73
L 794 73
L 794 73
L 794 73
L 794 73
L 794 73
L 794 73
L 794 73
L 794 73
L 794 73
L 794 73
L 795 73
L 795 73
L 795 73
L 795 73
L 795 73
L 795 73
L 795 72
L 795 72
L 795 72
L 795 72
L 795 72
L 795 72
L 795 72
L 795 72
L 795 72
L 795 72
L 795 72
L 795 72
L 795 72
L 795 72
L 795 72
L 795 72
L 795 72
L 795 72
L 795 72
L 795 72
L 795 72
L 796 71
L 796 71
L 796 71
L 796 71
L 796 71
L 796 71
L 796 71
L 796 71
L 796 71
L 796 71
L 797 71
L 797 71
L 797 71
L 797 71
L 797 71
L 797 71
L 797 71
L 797 71
L 797 71
L 797 71
L 797 70
L 797 70
L 797 70
L 797 70
L 797 70
L 797 70
L 797 70
L 798 70
L 798 70
L 798 70
L 798 70
L 798 70
L 798 70
L 798 70
L 798 70
L 798 70
L 798 70
L 798 70
L 798 70
L 798 70
L 798 69
L 798 69
L 798 69
L 798 69
L 798 69
L 798 69
L 799 69
L 799 69
L 799 69
L 799 69
L 799 69
L 799 69
L 799 69
L 799 69
L 799 69
L 799 69
L 799 69
L 799 69
L 799 69
L 799 69
L 799 68
L 799 68
L 799 68
L 800 68
L 800 68
L 800 68
L 800 68
L 800 68
L 800 68
L 800 68
L 800 68
L 800 68
L 800 68
L 800 68
L 800 68
L 801 68
L 801 68
L 801 68
L 802 68
L 802 68
L 802 68
L 802 67
L 802 67
L 802 67
L 803 67
L 805 67
L 808 67
L 808 67
L 808 67
L 808 67
L 809 67
L 809 67
L 809 67
L 809 67
L 809 67
L 810 67
L 810 67
L 810 67
L 810 67
L 810 67
L 811 67
L 811 66
L 811 66
L 811 66
L 811 66
L 811 66
L 811 66
L 812 66
L 812 66
L 812 66
L 812 66
L 813 66
L 813 66
L 814 66
L 814 66
L 814 66
L 814 66
L 814 66
L 814 66
L 814 66
L 814 66
L 814 65
L 814 65
L 814 65
L 815 65
L 815 65
L 815 65
L 815 65
L 815 65
L 815 65
L 815 65
L 815 65
L 815 65
L 815 65
L 815 65
L 815 65
L 815 65
L 816 65
L 816 65
L 816 65
L 816 65
L 816 65
L 816 64
L 816 64
L 816 64
L 816 64
L 817 64
L 817 64
L 817 64
L 817 64
L 818 64
L 818 64
L 821 64
L 821 64
L 821 64
L 821 64
L 822 64
L 822 64
L 822 64
L 822 64
L 822 64
L 822 64
L 822 63
L 823 63
L 823 63
L 823 63
L 823 63
L 823 63
L 823 63
L 824 63
L 824 63
L 824 63
L 824 63
L 825 63
L 825 63
L 826 63
L 827 63
L 827 63
L 828 63
L 828 63
L 828 63
L 828 63
L 828 62
L 828 62
L 828 62
L 828 62
L 828 62
L 828 62
L 829 62
L 829 62
L 829 62
L 829 62
L 829 62
L 829 62
L 829 62
L 829 62
L 829 62
L 829 62
L 830 62
L 830 62
L 833 62
L 833 62
L 834 62
L 834 61
L 835 61
L 835 61
L 835 61
L 835 61
L 835 61
L 835 61
L 835 61
L 835 61
L 835 61
L 835 61
L 835 61
L 835 61
L 835 61
L 835 61
L 835 61
L 835 61
L 835 61
L 835 61
L 835 61
L 835 60
L 835 60
L 835 60
L 835 60
L 835 60
L 835 60
L 836 60
L 836 60
L 836 60
L 836 60
L 836 60
L 836 60
L 836 60
L 836 60
L 836 60
L 836 60
L 836 60
L 836 60
L 836 60
L 836 60
L 836 59
L 836 59
L 836 59
L 836 59
L 837 59
L 837 59
L 837 59
L 837 59
L 837 59
L 837 59
L 837 59
L 837 59
L 837 59
L 837 59
L 837 59
L 837 59
L 838 59
L 838 59
L 838 59
L 838 59
L 838 58
L 838 58
L 838 58
L 838 58
L 838 58
L 838 58
L 838 58
L 838 58
L 838 58
L 838 58
L 838 58
L 838 58
L 838 58
L 838 58
L 838 58
L 838 58
L 839 58
L 839 58
L 839 58
L 839 58
L 839 58
L 839 57
L 839 57
L 839 57
L 839 57
L 839 57
L 839 57
L 839 57
L 839 57
L 839 57
L 839 57
L 839 57
L 839 57
L 839 57
L 839 57
L 839 57
L 839 57
L 839 57
L 839 57
L 839 57
L 839 57
L 840 56
L 840 56
L 840 56
L 840 56
L 840 56
L 840 56
L 840 56
L 840 56
L 840 56
L 841 56
L 841 56
L 841 56
L 841 56
L 841 56
L 841 56
L 841 56
L 841 56
L 841 56
L 841 56
L 841 56
L 842 55
L 842 55
L 842 55
L 842 55
L 842 55
L 843 55
L 843 55
L 843 55
L 843 55
L 843 55
L 844 55
L 846 55
L 848 55
L 848 55
L 848 55
L 848 55
L 848 55
L 848 55
L 848 55
L 848 55
L 848 55
L 848 54
L 849 54
L 849 54
L 849 54
L 849 54
L 849 54
L 849 54
L 849 54
L 849 54
L 849 54
L 849 54
L 849 54
L 849 54
L 849 54
L 849 54
L 849 54
L 849 54
L 849 54
L 849 54
L 849 54
L 849 53
L 849 53
L 850 53
L 850 53
L 850 53
L 850 53
L 850 53
L 850 53
L 850 53
L 850 53
L 850 53
L 850 53
L 850 53
L 850 53
L 850 53
L 851 53
L 851 53
L 851 53
L 851 53
L 851 53
L 851 52
L 851 52
L 851 52
L 851 52
L 851 52
L 851 52
L 851 52
L 851 52
L 851 52
L 851 52
L 851 52
L 851 52
L 851 52
L 852 52
L 852 52
L 852 52
L 852 52
L 852 52
L 852 52
L 852 52
L 852 51
L 852 51
L 852 51
L 852 51
L 852 51
L 852 51
L 852 51
L 852 51
L 852 51
L 852 51
L 852 51
L 852 51
L 852 51
L 852 51
L 853 51
L 853 51
L 853 51
L 853 51
L 853 51
L 853 51
L 853 51
L 853 50
L 853 50
L 853 50
L 853 50
L 853 50
L 853 50
L 853 50
L 853 50
L 853 50
L 853 50
L 853 50
L 853 50
L 853 50
L 854 50
L 854 50
L 854 50
L 854 50
L 854 50
L 854 50
L 854 50
L 854 49
L 854 49
L 854 49
L 854 49
L 854 49
L 854 49
L 854 49
L 855 49
L 855 49
L 855 49
L 855 49
L 855 49
L 855 49
L 855 49
L 855 49
L 855 49
L 855 49
L 855 49
L 855 49
L 856 49
L 856 48
L 856 48
L 856 48
L 856 48
L 856 48
L 856 48
L 856 48
L 856 48
L 856 48
L 856 48
L 856 48
L 856 48
L 856 48
L 856 48
L 856 48
L 856 48
L 856 48
L 857 48
L 857 48
L 857 48
L 857 48
L 857 47
L 858 47
L 858 47
L 858 47
L 858 47
L 858 47
L 859 47
L 859 47
L 861 47
L 861 47
L 861 47
L 862 47
L 862 47
L 862 47
L 862 47
L 862 47
L 862 47
L 862 47
L 862 47
L 862 47
L 862 46
L 862 46
L 862 46
L 862 46
L 862 46
L 862 46
L 862 46
L 862 46
L 862 46
L 862 46
L 862 46
L 862 46
L 862 46
L 862 46
L 862 46
L 862 46
L 862 46
L 862 46
L 862 46
L 862 46
L 862 45
L 862 45
L 862 45
L 862 45
L 862 45
L 862 45
L 863 45
L 863 45
L 863 45
L 863 45
L 863 45
L 863 45
L 863 45
L 863 45
L 863 45
L 863 45
L 863 45
L 863 45
L 863 45
L 863 45
L 863 45
L 863 44
L 863 44
L 864 44
L 864 44
L 864 44
L 864 44
L 864 44
L 864 44
L 864 44
L 864 44
L 864 44
L 864 44
L 864 44
L 864 44
L 864 44
L 864 44
L 864 44
L 864 44
L 864 44
L 864 44
L 864 43
L 864 43
L 864 43
L 864 43
L 864 43
L 864 43
L 864 43
L 864 43
L 864 43
L 864 43
L 864 43
L 865 43
L 865 43
L 865 43
L 865 43
L 865 43
L 865 43
L 865 43
L 865 43
L 865 43
L 865 42
L 865 42
L 865 42
L 865 42
L 865 42
L 865 42
L 865 42
L 865 42
L 865 42
L 865 42
L 865 42
L 865 42
L 865 42
L 865 42
L 865 42
L 866 42
L 866 42
L 866 42
L 866 42
L 866 42
L 866 41
L 866 41
L 866 41
L 866 41
L 866 41
L 866 41
L 866 41
L 866 41
L 866 41
L 866 41
L 866 41
L 866 41
L 866 41
L 866 41
L 866 41
L 866 41
L 866 41
L 866 41
L 866 41
L 866 41
L 866 41
L 866 40
L 866 40
L 866 40
L 866 40
L 866 40
L 866 40
L 866 40
L 867 40
L 867 40
L 867 40
L 867 40
L 867 40
L 867 40
L 867 40
L 867 40
L 867 40
L 867 40
L 867 40
L 867 40
L 867 40
L 867 39
L 867 39
L 867 39
L 867 39
L 867 39
L 867 39
L 867 39
L 867 39
L 867 39
L 868 39
L 868 39
L 868 39
L 868 39
L 868 39
L 868 39
L 868 39
L 868 39
L 868 39
L 868 39
L 868 39
L 868 38
L 869 38
L 869 38
L 869 38
L 869 38
L 869 38
L 869 38
L 869 38
L 869 38
L 869 38
L 870 38
L 870 38
L 870 38
L 870 38
L 870 38
L 870 38
L 870 38
L 870 38
L 871 38
L 871 38
L 872 38
L 872 37
L 873 37
L 874 37
L 874 37
L 875 37
L 875 37
L 875 37
L 875 37
L 875 37
L 875 37
L 875 37
L 875 37
L 875 37
L 875 37
L 875 37
L 875 37
L 875 37
L 876 37
L 876 37
L 876 37
L 876 36
L 876 36
L 876 36
L 876 36
L 876 36
L 876 36
L 876 36
L 876 36
L 876 36
L 876 36
L 876 36
L 876 36
L 876 36
L 876 36
L 876 36
L 876 36
L 876 36
L 876 36
L 876 36
L 876 36
L 876 35
L 876 35
L 877 35
L 877 35
L 877 35
L 877 35
L 877 35
L 877 35
L 877 35
L 877 35
L 877 35
L 877 35
L 877 35
L 877 35
L 877 35
L 877 35
L 877 35
L 877 35
L 877 35
L 878 35
L 878 34
L 878 34
L 878 34
L 878 34
L 878 34
L 878 34
L 878 34
L 878 34
L 878 34
L 878 34
L 878 34
L 878 34
L 878 34
L 878 34
L 878 34
L 878 34
L 878 34
L 878 34
L 878 34
L 878 34
L 879 34
L 879 33
L 879 33
L 879 33
L 879 33
L 879 33
L 879 33
L 879 33
L 879 33
L 879 33
L 879 33
L 879 33
L 879 33
L 879 33
L 879 33
L 879 33
L 879 33
L 879 33
L 879 33
L 880 33
L 880 33
L 880 32
L 880 32
L 880 32
L 880 32
L 880 32
L 880 32
L 880 32
L 880 32
L 880 32
L 880 32
L 880 32
L 880 32
L 880 32
L 880 32
L 880 32
L 880 32
L 880 32
L 880 32
L 880 32
L 880 32
L 880 31
L 880 31
L 880 31
L 880 31
L 881 31
L 881 31
L 881 31
L 881 31
L 881 31
L 881 31
L 881 31
L 882 31
L 882 31
L 882 31
L 882 31
L 883 31
L 883 31
L 883 31
L 883 31
L 883 31
L 884 31
L 884 30
L 884 30
L 884 30
L 884 30
L 884 30
L 885 30
L 885 30
L 885 30
L 886 30
L 887 30
L 887 30
L 888 30
L 889 30
L 889 30
L 889 30
L 889 30
L 889 30
L 889 30
L 889 30
L 889 30
L 889 29
L 889 29
L 889 29
L 889 29
L 889 29
L 889 29
L 889 29
L 889 29
L 889 29
L 889 29
L 890 29
L 890 29
L 890 29
L 890 29
L 890 29
L 890 29
L 890 29
L 890 29
L 890 29
L 890 29
L 890 28
L 890 28
L 890 28
L 890 28
L 890 28
L 890 28
L 890 28
L 890 28
L 891 28
L 891 28
L 891 28
L 892 28
L 892 28
L 892 28
L 892 28
L 892 28
L 892 28
L 892 28
L 892 28
L 892 28
L 892 28
L 892 27
L 892 27
L 892 27
L 892 27
L 892 27
L 892 27
L 892 27
L 893 27
L 893 27
L 893 27
L 893 27
L 893 27
L 893 27
L 893 27
L 893 27
L 893 27
L 893 27
L 893 27
L 893 27
L 893 27
L 893 26
L 893 26
L 893 26
L 893 26
L 893 26
L 893 26
L 893 26
L 893 26
L 893 26
L 893 26
L 893 26
L 893 26
L 893 26
L 893 26
L 894 26
L 894 26
L 894 26
L 894 26
L 894 26
L 894 26
L 894 25
L 894 25
L 894 25
L 894 25
L 894 25
L 894 25
L 894 25
L 894 25
L 894 25
L 894 25
L 894 25
L 895 25
L 895 25
L 895 25
L 895 25
L 895 25
L 895 25
L 895 25
L 895 25
L 895 25
L 896 24
L 896 24
L 896 24
L 896 24
L 897 24
L 897 24
L 897 24
L 898 24
L 898 24
L 901 24
L 902 24
L 902 24
L 903 24
L 903 24
L 903 24
L 903 24
L 903 24
L 904 24
L 904 24
L 904 24
L 904 24
L 904 23
L 904 23
L 904 23
L 905 23
L 905 23
L 906 23
L 906 23
L 906 23
L 906 23
L 906 23
L 907 23
L 907 23
L 907 23
L 908 23
L 908 23
L 908 23
L 909 23
L 909 23
L 909 23
L 910 23
L 910 22
L 910 22
L 910 22
L 910 22
L 911 22
L 911 22
L 911 22
L 912 22
L 912 22
L 912 22
L 913 22
L 916 22
L 916 22
L 916 22
L 916 22
L 917 22
L 917 22
L 917 22
L 917 22
L 917 22
L 917 21
L 917 21
L 918 21
L 918 21
L 918 21
L 919 21
L 919 21
L 919 21
L 919 21
L 919 21
L 920 21
L 920 21
L 920 21
L 920 21
L 921 21
L 921 21
L 921 21
L 921 21
L 921 21
L 921 21
L 921 21
L 922 20
L 922 20
L 922 20
L 922 20
L 922 20
L 923 20
L 924 20
L 924 20
L 924 20
L 925 20
L 925 20
L 926 20
L 928 20
L 929 20
L 929 20
L 929 20
L 929 20
L 930 20
L 930 20
L 930 20
L 930 19
L 930 19
L 930 19
L 930 19
L 930 19
L 930 19
L 930 19
L 931 19
L 931 19
L 931 19
L 931 19
L 931 19
L 931 19
L 931 19
L 931 19
L 931 19
L 931 19
L 932 19
L 932 19
L 932 19
L 932 18
L 932 18
L 932 18
L 932 18
L 932 18
L 932 18
L 933 18
L 933 18
L 933 18
L 933 18
L 933 18
L 933 18
L 933 18
L 933 18
L 933 18
L 933 18
L 933 18
L 933 18
L 933 18
L 933 18
L 933 17
L 933 17
L 933 17
L 933 17
L 933 17
L 933 17
L 934 17
L 934 17
L 934 17
L 934 17
L 934 17
L 934 17
L 934 17
L 934 17
L 934 17
L 934 17
L 934 17
L 935 17
L 935 17
L 935 17
L 935 17
L 935 16
L 935 16
L 935 16
L 935 16
L 935 16
L 935 16
L 935 16
L 936 16
L 936 16
L 936 16
L 936 16
L 936 16
L 937 16
L 937 16
L 937 16
L 937 16
L 937 16
L 938 16
L 938 16
L 938 16
L 938 15
L 939 15
L 939 15
L 939 15
L 939 15
L 941 15
L 942 15
L 943 15
L 943 15
L 943 15
L 943 15
L 943 15
L 943 15
L 943 15
L 943 15
L 943 15
L 943 15
L 944 15
L 944 15
L 944 15
L 944 14
L 944 14
L 944 14
L 944 14
L 944 14
L 944 14
L 944 14
L 944 14
L 944 14
L 944 14
L 944 14
L 944 14
L 944 14
L 944 14
L 944 14
L 945 14
L 945 14
L 945 14
L 945 14
L 945 14
L 945 14
L 945 13
L 946 13
L 946 13
L 946 13
L 946 13
L 946 13
L 946 13
L 946 13
L 946 13
L 946 13
L 946 13
L 946 13
L 946 13
L 947 13
L 947 13
L 947 13
L 947 13
L 947 13
L 947 13
L 947 13
L 947 12
L 947 12
L 947 12
L 947 12
L 947 12
L 947 12
L 947 12
L 948 12
L 948 12
L 948 12
L 948 12
L 948 12
L 948 12
L 948 12
L 948 12
L 949 12
L 949 12
L 950 12
L 950 12
L 950 12
L 950 11
L 951 11
L 951 11
L 951 11
L 951 11
L 951 11
L 952 11
L 954 11
L 956 11
L 956 11
L 956 11
L 956 11
L 957 11
L 957 11
L 957 11
L 957 11
L 957 11
L 957 11
L 957 11
L 957 11" style="stroke-width:2;stroke:rgba(129,199,239,1.0);fill:none"/></svg>