<svg xmlns="http://www.w3.org/2000/svg" xmlns:xlink="http://www.w3.org/1999/xlink" width="1024" height="400">\n<path  d="M 0 0
L 1024 0
L 1024 400
L 0 400
L 0 0" style="stroke-width:0;stroke:rgba(255,255,255,1.0);fill:rgba(255,255,255,1.0)"/><path  d="M 38 11
L 957 11
L 957 351
L 38 351
L 38 11" style="stroke-width:0;stroke:rgba(255,255,255,1.0);fill:rgba(255,255,255,1.0)"/><path  d="M 38 351
L 957 351" style="stroke-width:2;stroke:rgba(85,85,85,1.0);fill:none"/><path  d="M 38 351
L 38 356" style="stroke-width:2;stroke:rgba(85,85,85,1.0);fill:none"/><text x="5" y="373" style="stroke-width:0;stroke:none;fill:rgba(51,51,51,1.0);font-size:12.8px;font-family:'Roboto Medium',sans-serif">2018-11-23</text><path  d="M 153 351
L 153 356" style="stroke-width:2;stroke:rgba(85,85,85,1.0);fill:none"/><text x="120" y="373" style="stroke-width:0;stroke:none;fill:rgba(51,51,51,1.0);font-size:12.8px;font-family:'Roboto Medium',sans-serif">2018-11-30</text><path  d="M 268 351
L 268 356" style="stroke-width:2;stroke:rgba(85,85,85,1.0);fill:none"/><text x="235" y="373" style="stroke-width:0;stroke:none;fill:rgba(51,51,51,1.0);font-size:12.8px;font-family:'Roboto Medium',sans-serif">2018-12-08</text><path  d="M 383 351
L 383 356" style="stroke-width:2;stroke:rgba(85,85,85,1.0);fill:none"/><text x="350" y="373" style="stroke-width:0;stroke:none;fill:rgba(51,51,51,1.0);font-size:12.8px;font-family:'Roboto Medium',sans-serif">2018-12-16</text><path  d="M 498 351
L 498 356" style="stroke-width:2;stroke:rgba(85,85,85,1.0);fill:none"/><text x="465" y="373" style="stroke-width:0;stroke:none;fill:rgba(51,51,51,1.0);font-size:12.8px;font-family:'Roboto Medium',sans-serif">2018-12-23</text><path  d="M 613 351
L 613 356" style="stroke-width:2;stroke:rgba(85,85,85,1.0);fill:none"/><text x="580" y="373" style="stroke-width:0;stroke:none;fill:rgba(51,51,51,1.0);font-size:12.8px;font-family:'Roboto Medium',sans-serif">2018-12-31</text><path  d="M 728 351
L 728 356" style="stroke-width:2;stroke:rgba(85,85,85,1.0);fill:none"/><text x="695" y="373" style="stroke-width:0;stroke:none;fill:rgba(51,51,51,1.0);font-size:12.8px;font-family:'Roboto Medium',sans-serif">2019-01-08</text><path  d="M 843 351
L 843 356" style="stroke-width:2;stroke:rgba(85,85,85,1.0);fill:none"/><text x="810" y="373" style="stroke-width:0;stroke:none;fill:rgba(51,51,51,1.0);font-size:12.8px;font-family:'Roboto Medium',sans-serif">2019-01-16</text><path  d="M 957 351
L 957 356" style="stroke-width:2;stroke:rgba(85,85,85,1.0);fill:none"/><text x="924" y="373" style="stroke-width:0;stroke:none;fill:rgba(51,51,51,1.0);font-size:12.8px;font-family:'Roboto Medium',sans-serif">2019-01-23</text><text x="483" y="395" style="stroke-width:0;stroke:none;fill:rgba(51,51,51,1.0);font-size:12.8px;font-family:'Roboto Medium',sans-serif">Time</text><path  d="M 959 351
L 959 11" style="stroke-width:2;stroke:rgba(85,85,85,1.0);fill:none"/><path  d="M 959 351
L 964 351" style="stroke-width:2;stroke:rgba(85,85,85,1.0);fill:none"/><text x="969" y="357" style="stroke-width:0;stroke:none;fill:rgba(51,51,51,1.0);font-size:12.8px;font-family:'Roboto Medium',sans-serif">0</text><path  d="M 959 308
L 964 308" style="stroke-width:2;stroke:rgba(85,85,85,1.0);fill:none"/><text x="969" y="314" style="stroke-width:0;stroke:none;fill:rgba(51,51,51,1.0);font-size:12.8px;font-family:'Roboto Medium',sans-serif">800</text><path  d="M 959 266
L 964 266" style="stroke-width:2;stroke:rgba(85,85,85,1.0);fill:none"/><text x="969" y="272" style="stroke-width:0;stroke:none;fill:rgba(51,51,51,1.0);font-size:12.8px;font-family:'Roboto Medium',sans-serif">1600</text><path  d="M 959 223
L 964 223" style="stroke-width:2;stroke:rgba(85,85,85,1.0);fill:none"/><text x="969" y="229" style="stroke-width:0;stroke:none;fill:rgba(51,51,51,1.0);font-size:12.8px;font-family:'Roboto Medium',sans-serif">2400</text><path  d="M 959 181
L 964 181" style="stroke-width:2;stroke:rgba(85,85,85,1.0);fill:none"/><text x="969" y="187" style="stroke-width:0;stroke:none;fill:rgba(51,51,51,1.0);font-size:12.8px;font-family:'Roboto Medium',sans-serif">3200</text><path  d="M 959 138
L 964 138" style="stroke-width:2;stroke:rgba(85,85,85,1.0);fill:none"/><text x="969" y="144" style="stroke-width:0;stroke:none;fill:rgba(51,51,51,1.0);font-size:12.8px;font-family:'Roboto Medium',sans-serif">4000</text><path  d="M 959 96
L 964 96" style="stroke-width:2;stroke:rgba(85,85,85,1.0);fill:none"/><text x="969" y="102" style="stroke-width:0;stroke:none;fill:rgba(51,51,51,1.0);font-size:12.8px;font-family:'Roboto Medium',sans-serif">4800</text><path  d="M 959 53
L 964 53" style="stroke-width:2;stroke:rgba(85,85,85,1.0);fill:none"/><text x="969" y="59" style="stroke-width:0;stroke:none;fill:rgba(51,51,51,1.0);font-size:12.8px;font-family:'Roboto Medium',sans-serif">5600</text><path  d="M 959 11
L 964 11" style="stroke-width:2;stroke:rgba(85,85,85,1.0);fill:none"/><text x="969" y="17" style="stroke-width:0;stroke:none;fill:rgba(51,51,51,1.0);font-size:12.8px;font-family:'Roboto Medium',sans-serif">6400</text><text x="1009" y="150" style="stroke-width:0;stroke:none;fill:rgba(51,51,51,1.0);font-size:12.8px;font-family:'Roboto Medium',sans-serif" transform="rotate(90.00,1009,150)">Stargazers</text><path  d="M 38 351
L 117 350
L 172 350
L 174 350
L 186 350
L 186 350
L 186 350
L 187 350
L 187 350
L 187 350
L 188 350
L 188 350
L 188 350
L 188 350
L 188 350
L 188 350
L 189 350
L 189 350
L 189 350
L 189 349
L 189 349
L 190 349
L 192 349
L 192 349
L 201 349
L 201 349
L 201 349
L 201 349
L 202 349
L 204 349
L 205 349
L 206 349
L 208 349
L 208 349
L 208 349
L 208 349
L 208 349
L 208 349
L 213 348
L 214 348
L 215 348
L 215 348
L 215 348
L 216 348
L 216 348
L 216 348
L 216 348
L 216 348
L 217 348
L 217 348
L 219 348
L 219 348
L 220 348
L 220 348
L 220 348
L 220 348
L 220 348
L 220 347
L 221 347
L 222 347
L 222 347
L 222 347
L 223 347
L 223 347
L 224 347
L 224 347
L 224 347
L 224 347
L 225 347
L 229 347
L 231 347
L 231 347
L 231 347
L 231 347
L 231 347
L 231 347
L 231 346
L 231 346
L 232 346
L 233 346
L 233 346
L 233 346
L 233 346
L 233 346
L 233 346
L 233 346
L 233 346
L 233 346
L 233 346
L 233 346
L 233 346
L 233 346
L 233 346
L 233 346
L 233 346
L 233 345
L 233 345
L 233 345
L 233 345
L 233 345
L 233 345
L 233 345
L 233 345
L 233 345
L 233 345
L 233 345
L 233 345
L 233 345
L 233 345
L 233 345
L 233 345
L 233 345
L 233 345
L 233 344
L 233 344
L 233 344
L 233 344
L 233 344
L 234 344
L 234 344
L 234 344
L 234 344
L 234 344
L 234 344
L 234 344
L 234 344
L 234 344
L 234 344
L 234 344
L 234 344
L 234 344
L 235 344
L 235 343
L 235 343
L 235 343
L 235 343
L 235 343
L 236 343
L 236 343
L 236 343
L 236 343
L 236 343
L 236 343
L 236 343
L 236 343
L 236 343
L 237 343
L 237 343
L 237 343
L 237 343
L 237 343
L 237 342
L 237 342
L 237 342
L 239 342
L 240 342
L 244 342
L 244 342
L 245 342
L 245 342
L 245 342
L 245 342
L 245 342
L 246 342
L 246 342
L 247 342
L 248 342
L 248 342
L 248 342
L 248 342
L 248 341
L 249 341
L 249 341
L 249 341
L 249 341
L 250 341
L 250 341
L 250 341
L 250 341
L 251 341
L 251 341
L 252 341
L 260 341
L 261 341
L 261 341
L 261 341
L 261 341
L 261 341
L 262 341
L 264 340
L 265 340
L 269 340
L 269 340
L 270 340
L 272 340
L 276 340
L 276 340
L 278 340
L 279 340
L 280 340
L 280 340
L 281 340
L 281 340
L 281 340
L 281 340
L 282 340
L 282 340
L 282 340
L 282 339
L 285 339
L 290 339
L 290 339
L 290 339
L 291 339
L 291 339
L 291 339
L 293 339
L 294 339
L 295 339
L 298 339
L 298 339
L 305 339
L 308 339
L 308 339
L 308 339
L 309 339
L 311 338
L 311 338
L 320 338
L 320 338
L 320 338
L 320 338
L 321 338
L 323 338
L 323 338
L 325 338
L 326 338
L 326 338
L 328 338
L 330 338
L 335 338
L 340 338
L 342 338
L 348 338
L 351 338
L 351 337
L 353 337
L 353 337
L 353 337
L 354 337
L 356 337
L 356 337
L 357 337
L 357 337
L 358 337
L 360 337
L 362 337
L 365 337
L 367 337
L 367 337
L 368 337
L 368 337
L 368 337
L 369 337
L 370 336
L 371 336
L 372 336
L 373 336
L 373 336
L 374 336
L 380 336
L 380 336
L 380 336
L 381 336
L 383 336
L 386 336
L 386 336
L 386 336
L 388 336
L 393 336
L 394 336
L 394 336
L 395 336
L 395 335
L 395 335
L 399 335
L 399 335
L 401 335
L 403 335
L 409 335
L 411 335
L 413 335
L 413 335
L 414 335
L 414 335
L 415 335
L 416 335
L 417 335
L 418 335
L 419 335
L 424 335
L 425 335
L 427 334
L 427 334
L 427 334
L 428 334
L 428 334
L 428 334
L 430 334
L 439 334
L 439 334
L 439 334
L 439 334
L 442 334
L 442 334
L 443 334
L 444 334
L 444 334
L 446 334
L 447 334
L 447 334
L 447 333
L 447 333
L 449 333
L 454 333
L 455 333
L 455 333
L 455 333
L 455 333
L 455 333
L 455 333
L 456 333
L 456 333
L 456 333
L 457 333
L 457 333
L 457 333
L 457 333
L 457 333
L 457 332
L 457 332
L 458 332
L 458 332
L 458 332
L 458 332
L 458 332
L 458 332
L 458 332
L 458 332
L 458 332
L 458 332
L 458 332
L 458 332
L 458 332
L 458 332
L 458 332
L 458 332
L 459 332
L 459 331
L 459 331
L 459 331
L 459 331
L 459 331
L 459 331
L 459 331
L 459 331
L 459 331
L 459 331
L 459 331
L 459 331
L 459 331
L 459 331
L 459 331
L 459 331
L 459 331
L 459 331
L 459 331
L 460 330
L 460 330
L 460 330
L 460 330
L 460 330
L 460 330
L 460 330
L 460 330
L 460 330
L 461 330
L 461 330
L 461 330
L 461 330
L 461 330
L 461 330
L 461 330
L 461 330
L 462 330
L 462 330
L 462 329
L 462 329
L 462 329
L 462 329
L 462 329
L 463 329
L 463 329
L 463 329
L 464 329
L 464 329
L 464 329
L 469 329
L 469 329
L 469 329
L 470 329
L 470 329
L 470 329
L 470 329
L 470 329
L 470 328
L 470 328
L 470 328
L 470 328
L 470 328
L 470 328
L 470 328
L 470 328
L 470 328
L 470 328
L 471 328
L 471 328
L 471 328
L 471 328
L 471 328
L 471 328
L 471 328
L 472 328
L 472 327
L 472 327
L 472 327
L 472 327
L 472 327
L 472 327
L 472 327
L 472 327
L 472 327
L 473 327
L 473 327
L 473 327
L 473 327
L 473 327
L 473 327
L 473 327
L 473 327
L 473 327
L 473 327
L 473 326
L 473 326
L 473 326
L 473 326
L 473 326
L 474 326
L 474 326
L 474 326
L 474 326
L 474 326
L 474 326
L 474 326
L 474 326
L 474 326
L 474 326
L 474 326
L 474 326
L 474 326
L 474 326
L 474 325
L 474 325
L 474 325
L 474 325
L 474 325
L 474 325
L 475 325
L 475 325
L 475 325
L 475 325
L 475 325
L 476 325
L 476 325
L 476 325
L 476 325
L 476 325
L 476 325
L 476 325
L 476 325
L 476 324
L 476 324
L 476 324
L 476 324
L 476 324
L 476 324
L 476 324
L 476 324
L 477 324
L 477 324
L 477 324
L 477 324
L 477 324
L 477 324
L 477 324
L 477 324
L 477 324
L 477 324
L 477 324
L 477 323
L 478 323
L 478 323
L 478 323
L 478 323
L 478 323
L 478 323
L 478 323
L 478 323
L 478 323
L 478 323
L 478 323
L 478 323
L 478 323
L 478 323
L 478 323
L 478 323
L 478 323
L 479 323
L 479 322
L 479 322
L 479 322
L 479 322
L 480 322
L 480 322
L 480 322
L 481 322
L 483 322
L 483 322
L 483 322
L 483 322
L 483 322
L 483 322
L 484 322
L 484 322
L 484 322
L 484 322
L 484 321
L 484 321
L 484 321
L 484 321
L 484 321
L 484 321
L 484 321
L 485 321
L 485 321
L 485 321
L 485 321
L 485 321
L 485 321
L 485 321
L 485 321
L 485 321
L 485 321
L 485 321
L 485 321
L 485 320
L 485 320
L 485 320
L 486 320
L 486 320
L 486 320
L 486 320
L 486 320
L 486 320
L 486 320
L 486 320
L 486 320
L 486 320
L 486 320
L 486 320
L 486 320
L 486 320
L 486 320
L 486 320
L 487 319
L 487 319
L 487 319
L 487 319
L 487 319
L 487 319
L 487 319
L 487 319
L 487 319
L 487 319
L 487 319
L 487 319
L 487 319
L 487 319
L 487 319
L 487 319
L 487 319
L 487 319
L 488 319
L 488 318
L 488 318
L 488 318
L 488 318
L 488 318
L 488 318
L 488 318
L 488 318
L 488 318
L 488 318
L 488 318
L 488 318
L 488 318
L 488 318
L 488 318
L 488 318
L 488 318
L 489 318
L 489 318
L 489 317
L 489 317
L 489 317
L 489 317
L 489 317
L 489 317
L 489 317
L 489 317
L 490 317
L 490 317
L 490 317
L 490 317
L 490 317
L 490 317
L 490 317
L 490 317
L 490 317
L 490 317
L 490 317
L 490 316
L 490 316
L 490 316
L 490 316
L 490 316
L 491 316
L 491 316
L 491 316
L 491 316
L 491 316
L 491 316
L 491 316
L 491 316
L 491 316
L 491 316
L 491 316
L 491 316
L 491 316
L 491 315
L 491 315
L 492 315
L 492 315
L 492 315
L 492 315
L 492 315
L 492 315
L 492 315
L 492 315
L 492 315
L 492 315
L 492 315
L 492 315
L 492 315
L 492 315
L 492 315
L 492 315
L 492 315
L 492 314
L 492 314
L 492 314
L 492 314
L 492 314
L 492 314
L 493 314
L 493 314
L 493 314
L 493 314
L 493 314
L 493 314
L 493 314
L 493 314
L 493 314
L 493 314
L 493 314
L 493 314
L 493 314
L 493 313
L 494 313
L 494 313
L 494 313
L 495 313
L 495 313
L 495 313
L 495 313
L 495 313
L 497 313
L 498 313
L 498 313
L 498 313
L 498 313
L 498 313
L 498 313
L 498 313
L 498 313
L 498 313
L 498 312
L 498 312
L 498 312
L 499 312
L 499 312
L 499 312
L 499 312
L 499 312
L 499 312
L 499 312
L 499 312
L 499 312
L 499 312
L 499 312
L 499 312
L 499 312
L 499 312
L 499 312
L 499 312
L 499 311
L 499 311
L 499 311
L 499 311
L 499 311
L 499 311
L 499 311
L 499 311
L 499 311
L 499 311
L 499 311
L 499 311
L 499 311
L 499 311
L 499 311
L 499 311
L 499 311
L 499 311
L 499 310
L 499 310
L 499 310
L 499 310
L 499 310
L 499 310
L 499 310
L 499 310
L 499 310
L 499 310
L 499 310
L 499 310
L 499 310
L 499 310
L 499 310
L 499 310
L 499 310
L 499 310
L 499 310
L 499 309
L 499 309
L 499 309
L 499 309
L 499 309
L 499 309
L 499 309
L 499 309
L 499 309
L 499 309
L 499 309
L 499 309
L 499 309
L 499 309
L 499 309
L 499 309
L 499 309
L 499 309
L 499 309
L 499 308
L 499 308
L 499 308
L 499 308
L 499 308
L 499 308
L 499 308
L 499 308
L 499 308
L 499 308
L 500 308
L 500 308
L 500 308
L 500 308
L 500 308
L 500 308
L 500 308
L 500 308
L 500 308
L 500 307
L 500 307
L 500 307
L 500 307
L 500 307
L 500 307
L 500 307
L 500 307
L 500 307
L 500 307
L 500 307
L 500 307
L 500 307
L 500 307
L 500 307
L 500 307
L 500 307
L 500 307
L 500 307
L 500 306
L 500 306
L 500 306
L 500 306
L 500 306
L 500 306
L 500 306
L 500 306
L 500 306
L 500 306
L 500 306
L 500 306
L 500 306
L 500 306
L 500 306
L 500 306
L 500 306
L 500 306
L 501 306
L 501 305
L 501 305
L 501 305
L 501 305
L 501 305
L 501 305
L 501 305
L 501 305
L 501 305
L 501 305
L 501 305
L 501 305
L 501 305
L 501 305
L 501 305
L 501 305
L 501 305
L 501 305
L 501 304
L 501 304
L 501 304
L 501 304
L 501 304
L 501 304
L 501 304
L 501 304
L 501 304
L 501 304
L 502 304
L 502 304
L 502 304
L 502 304
L 502 304
L 502 304
L 502 304
L 502 304
L 502 304
L 502 303
L 502 303
L 502 303
L 502 303
L 502 303
L 502 303
L 502 303
L 502 303
L 502 303
L 502 303
L 502 303
L 502 303
L 502 303
L 502 303
L 502 303
L 502 303
L 502 303
L 502 303
L 502 303
L 502 302
L 502 302
L 502 302
L 502 302
L 502 302
L 502 302
L 502 302
L 502 302
L 502 302
L 502 302
L 502 302
L 502 302
L 502 302
L 502 302
L 502 302
L 502 302
L 502 302
L 502 302
L 502 302
L 502 301
L 502 301
L 502 301
L 502 301
L 502 301
L 502 301
L 502 301
L 502 301
L 502 301
L 502 301
L 502 301
L 502 301
L 502 301
L 502 301
L 502 301
L 502 301
L 503 301
L 503 301
L 503 301
L 503 300
L 503 300
L 503 300
L 503 300
L 503 300
L 503 300
L 503 300
L 503 300
L 503 300
L 503 300
L 503 300
L 503 300
L 503 300
L 503 300
L 503 300
L 503 300
L 503 300
L 503 300
L 503 300
L 503 299
L 503 299
L 503 299
L 503 299
L 503 299
L 503 299
L 503 299
L 503 299
L 503 299
L 503 299
L 503 299
L 503 299
L 503 299
L 503 299
L 503 299
L 503 299
L 503 299
L 503 299
L 503 298
L 503 298
L 503 298
L 503 298
L 503 298
L 503 298
L 503 298
L 503 298
L 503 298
L 504 298
L 504 298
L 504 298
L 504 298
L 504 298
L 504 298
L 504 298
L 504 298
L 504 298
L 504 298
L 504 297
L 504 297
L 504 297
L 504 297
L 504 297
L 504 297
L 504 297
L 504 297
L 504 297
L 504 297
L 504 297
L 504 297
L 504 297
L 504 297
L 504 297
L 504 297
L 504 297
L 504 297
L 504 297
L 504 296
L 504 296
L 504 296
L 504 296
L 504 296
L 504 296
L 504 296
L 504 296
L 504 296
L 504 296
L 504 296
L 504 296
L 504 296
L 504 296
L 504 296
L 504 296
L 504 296
L 504 296
L 504 296
L 504 295
L 504 295
L 505 295
L 505 295
L 505 295
L 505 295
L 505 295
L 505 295
L 505 295
L 505 295
L 505 295
L 505 295
L 505 295
L 505 295
L 505 295
L 505 295
L 505 295
L 505 295
L 505 295
L 505 294
L 505 294
L 505 294
L 505 294
L 505 294
L 505 294
L 506 294
L 506 294
L 506 294
L 506 294
L 506 294
L 506 294
L 506 294
L 506 294
L 506 294
L 506 294
L 506 294
L 506 294
L 506 293
L 506 293
L 506 293
L 507 293
L 507 293
L 507 293
L 507 293
L 507 293
L 507 293
L 507 293
L 507 293
L 507 293
L 507 293
L 507 293
L 507 293
L 507 293
L 507 293
L 507 293
L 507 293
L 507 292
L 507 292
L 507 292
L 507 292
L 507 292
L 508 292
L 508 292
L 508 292
L 508 292
L 508 292
L 508 292
L 508 292
L 508 292
L 508 292
L 508 292
L 508 292
L 508 292
L 508 292
L 508 292
L 508 291
L 508 291
L 508 291
L 508 291
L 509 291
L 509 291
L 509 291
L 509 291
L 511 291
L 512 291
L 513 291
L 513 291
L 513 291
L 513 291
L 513 291
L 513 291
L 514 291
L 514 291
L 514 291
L 514 290
L 514 290
L 514 290
L 514 290
L 514 290
L 514 290
L 514 290
L 514 290
L 514 290
L 514 290
L 514 290
L 514 290
L 514 290
L 514 290
L 514 290
L 514 290
L 514 290
L 514 290
L 514 290
L 514 289
L 514 289
L 514 289
L 514 289
L 514 289
L 514 289
L 514 289
L 514 289
L 514 289
L 514 289
L 514 289
L 514 289
L 514 289
L 514 289
L 514 289
L 514 289
L 514 289
L 514 289
L 514 289
L 514 288
L 514 288
L 514 288
L 514 288
L 514 288
L 514 288
L 514 288
L 514 288
L 514 288
L 514 288
L 514 288
L 514 288
L 514 288
L 514 288
L 514 288
L 514 288
L 514 288
L 514 288
L 514 287
L 514 287
L 514 287
L 514 287
L 514 287
L 514 287
L 514 287
L 514 287
L 514 287
L 514 287
L 514 287
L 514 287
L 514 287
L 514 287
L 514 287
L 514 287
L 514 287
L 514 287
L 514 287
L 514 286
L 514 286
L 514 286
L 514 286
L 515 286
L 515 286
L 515 286
L 515 286
L 515 286
L 515 286
L 515 286
L 515 286
L 515 286
L 515 286
L 515 286
L 515 286
L 515 286
L 515 286
L 515 286
L 515 285
L 515 285
L 515 285
L 515 285
L 515 285
L 515 285
L 515 285
L 515 285
L 515 285
L 515 285
L 515 285
L 515 285
L 515 285
L 515 285
L 515 285
L 515 285
L 515 285
L 515 285
L 515 285
L 515 284
L 515 284
L 515 284
L 515 284
L 515 284
L 515 284
L 515 284
L 515 284
L 515 284
L 515 284
L 515 284
L 515 284
L 515 284
L 515 284
L 515 284
L 515 284
L 515 284
L 515 284
L 515 284
L 515 283
L 515 283
L 515 283
L 516 283
L 516 283
L 516 283
L 516 283
L 516 283
L 516 283
L 516 283
L 516 283
L 516 283
L 516 283
L 516 283
L 516 283
L 516 283
L 516 283
L 516 283
L 516 283
L 516 282
L 516 282
L 516 282
L 516 282
L 516 282
L 516 282
L 516 282
L 516 282
L 516 282
L 516 282
L 516 282
L 516 282
L 517 282
L 517 282
L 517 282
L 517 282
L 517 282
L 517 282
L 517 281
L 517 281
L 517 281
L 517 281
L 517 281
L 517 281
L 517 281
L 517 281
L 517 281
L 517 281
L 517 281
L 517 281
L 517 281
L 517 281
L 517 281
L 517 281
L 517 281
L 517 281
L 517 281
L 517 280
L 517 280
L 517 280
L 517 280
L 517 280
L 517 280
L 517 280
L 517 280
L 517 280
L 517 280
L 517 280
L 517 280
L 517 280
L 517 280
L 517 280
L 517 280
L 517 280
L 517 280
L 517 280
L 517 279
L 517 279
L 517 279
L 518 279
L 518 279
L 518 279
L 518 279
L 518 279
L 518 279
L 518 279
L 518 279
L 518 279
L 518 279
L 518 279
L 518 279
L 518 279
L 518 279
L 518 279
L 518 279
L 518 278
L 518 278
L 518 278
L 518 278
L 518 278
L 518 278
L 518 278
L 518 278
L 518 278
L 518 278
L 518 278
L 518 278
L 518 278
L 518 278
L 518 278
L 518 278
L 518 278
L 518 278
L 518 278
L 518 277
L 518 277
L 518 277
L 518 277
L 518 277
L 518 277
L 518 277
L 518 277
L 518 277
L 518 277
L 518 277
L 518 277
L 519 277
L 519 277
L 519 277
L 519 277
L 519 277
L 519 277
L 519 276
L 519 276
L 519 276
L 519 276
L 519 276
L 519 276
L 519 276
L 519 276
L 519 276
L 519 276
L 519 276
L 519 276
L 519 276
L 519 276
L 519 276
L 519 276
L 519 276
L 519 276
L 519 276
L 519 275
L 519 275
L 519 275
L 519 275
L 519 275
L 519 275
L 519 275
L 519 275
L 519 275
L 519 275
L 519 275
L 519 275
L 519 275
L 519 275
L 519 275
L 519 275
L 519 275
L 519 275
L 520 275
L 520 274
L 520 274
L 520 274
L 520 274
L 520 274
L 520 274
L 520 274
L 520 274
L 520 274
L 520 274
L 520 274
L 520 274
L 520 274
L 520 274
L 520 274
L 520 274
L 520 274
L 520 274
L 520 274
L 520 273
L 520 273
L 520 273
L 520 273
L 520 273
L 520 273
L 520 273
L 520 273
L 520 273
L 520 273
L 520 273
L 520 273
L 520 273
L 520 273
L 520 273
L 520 273
L 520 273
L 520 273
L 520 273
L 520 272
L 520 272
L 520 272
L 520 272
L 520 272
L 520 272
L 520 272
L 520 272
L 520 272
L 520 272
L 520 272
L 521 272
L 521 272
L 521 272
L 521 272
L 521 272
L 521 272
L 521 272
L 521 272
L 521 271
L 521 271
L 521 271
L 521 271
L 521 271
L 521 271
L 521 271
L 521 271
L 521 271
L 521 271
L 521 271
L 521 271
L 521 271
L 521 271
L 521 271
L 521 271
L 521 271
L 521 271
L 521 270
L 521 270
L 521 270
L 521 270
L 521 270
L 521 270
L 522 270
L 522 270
L 522 270
L 522 270
L 522 270
L 522 270
L 522 270
L 522 270
L 522 270
L 522 270
L 522 270
L 522 270
L 522 270
L 522 269
L 522 269
L 522 269
L 522 269
L 522 269
L 522 269
L 522 269
L 522 269
L 522 269
L 522 269
L 522 269
L 522 269
L 522 269
L 522 269
L 523 269
L 523 269
L 523 269
L 523 269
L 523 269
L 523 268
L 523 268
L 523 268
L 523 268
L 523 268
L 523 268
L 523 268
L 523 268
L 523 268
L 523 268
L 523 268
L 523 268
L 523 268
L 524 268
L 524 268
L 524 268
L 524 268
L 524 268
L 524 268
L 525 267
L 525 267
L 525 267
L 526 267
L 528 267
L 528 267
L 528 267
L 528 267
L 528 267
L 528 267
L 528 267
L 528 267
L 528 267
L 528 267
L 528 267
L 528 267
L 528 267
L 528 267
L 528 267
L 528 266
L 528 266
L 529 266
L 529 266
L 529 266
L 529 266
L 529 266
L 529 266
L 529 266
L 529 266
L 529 266
L 529 266
L 529 266
L 529 266
L 529 266
L 529 266
L 529 266
L 529 266
L 529 266
L 529 265
L 529 265
L 529 265
L 529 265
L 529 265
L 529 265
L 529 265
L 529 265
L 529 265
L 529 265
L 529 265
L 529 265
L 529 265
L 529 265
L 529 265
L 529 265
L 529 265
L 529 265
L 529 264
L 529 264
L 529 264
L 529 264
L 529 264
L 529 264
L 529 264
L 529 264
L 529 264
L 529 264
L 529 264
L 529 264
L 529 264
L 529 264
L 529 264
L 529 264
L 529 264
L 529 264
L 529 264
L 529 263
L 529 263
L 529 263
L 529 263
L 529 263
L 529 263
L 529 263
L 529 263
L 529 263
L 529 263
L 529 263
L 529 263
L 529 263
L 529 263
L 529 263
L 529 263
L 529 263
L 529 263
L 529 263
L 529 262
L 529 262
L 529 262
L 529 262
L 530 262
L 530 262
L 530 262
L 530 262
L 530 262
L 530 262
L 530 262
L 530 262
L 530 262
L 530 262
L 530 262
L 530 262
L 530 262
L 530 262
L 530 262
L 530 261
L 530 261
L 530 261
L 530 261
L 530 261
L 530 261
L 530 261
L 530 261
L 530 261
L 530 261
L 530 261
L 530 261
L 530 261
L 530 261
L 530 261
L 530 261
L 530 261
L 530 261
L 530 261
L 530 260
L 531 260
L 531 260
L 531 260
L 531 260
L 531 260
L 531 260
L 531 260
L 531 260
L 531 260
L 531 260
L 531 260
L 531 260
L 531 260
L 531 260
L 531 260
L 531 260
L 531 260
L 531 259
L 531 259
L 531 259
L 531 259
L 531 259
L 531 259
L 531 259
L 531 259
L 531 259
L 531 259
L 531 259
L 532 259
L 532 259
L 532 259
L 532 259
L 532 259
L 532 259
L 532 259
L 532 259
L 532 258
L 532 258
L 532 258
L 532 258
L 532 258
L 532 258
L 532 258
L 532 258
L 532 258
L 532 258
L 532 258
L 532 258
L 532 258
L 532 258
L 532 258
L 532 258
L 532 258
L 532 258
L 532 258
L 532 257
L 532 257
L 532 257
L 532 257
L 532 257
L 532 257
L 532 257
L 532 257
L 532 257
L 532 257
L 532 257
L 532 257
L 533 257
L 533 257
L 533 257
L 533 257
L 533 257
L 533 257
L 533 257
L 533 256
L 533 256
L 533 256
L 533 256
L 533 256
L 533 256
L 533 256
L 533 256
L 533 256
L 533 256
L 533 256
L 533 256
L 533 256
L 533 256
L 533 256
L 533 256
L 533 256
L 533 256
L 533 256
L 533 255
L 533 255
L 533 255
L 533 255
L 533 255
L 533 255
L 533 255
L 533 255
L 533 255
L 533 255
L 533 255
L 533 255
L 533 255
L 533 255
L 533 255
L 533 255
L 533 255
L 533 255
L 534 255
L 534 254
L 534 254
L 534 254
L 534 254
L 534 254
L 534 254
L 534 254
L 534 254
L 534 254
L 534 254
L 534 254
L 534 254
L 534 254
L 534 254
L 534 254
L 534 254
L 534 254
L 534 254
L 534 253
L 534 253
L 534 253
L 534 253
L 534 253
L 534 253
L 534 253
L 534 253
L 534 253
L 534 253
L 534 253
L 534 253
L 534 253
L 534 253
L 534 253
L 534 253
L 534 253
L 534 253
L 535 253
L 535 252
L 535 252
L 535 252
L 535 252
L 535 252
L 535 252
L 535 252
L 535 252
L 535 252
L 535 252
L 535 252
L 535 252
L 535 252
L 535 252
L 535 252
L 535 252
L 535 252
L 535 252
L 535 252
L 535 251
L 535 251
L 535 251
L 535 251
L 536 251
L 536 251
L 536 251
L 536 251
L 536 251
L 536 251
L 536 251
L 536 251
L 536 251
L 536 251
L 536 251
L 536 251
L 536 251
L 536 251
L 536 251
L 536 250
L 536 250
L 536 250
L 536 250
L 536 250
L 536 250
L 537 250
L 537 250
L 537 250
L 537 250
L 537 250
L 537 250
L 537 250
L 537 250
L 537 250
L 537 250
L 537 250
L 537 250
L 537 250
L 537 249
L 537 249
L 537 249
L 538 249
L 538 249
L 538 249
L 538 249
L 538 249
L 538 249
L 538 249
L 538 249
L 538 249
L 538 249
L 538 249
L 538 249
L 538 249
L 538 249
L 538 249
L 538 249
L 538 248
L 539 248
L 539 248
L 542 248
L 543 248
L 543 248
L 543 248
L 543 248
L 543 248
L 543 248
L 543 248
L 543 248
L 543 248
L 543 248
L 543 248
L 543 248
L 543 248
L 543 248
L 544 247
L 544 247
L 544 247
L 544 247
L 544 247
L 544 247
L 544 247
L 544 247
L 544 247
L 544 247
L 544 247
L 544 247
L 544 247
L 544 247
L 544 247
L 544 247
L 544 247
L 544 247
L 544 247
L 544 246
L 544 246
L 544 246
L 544 246
L 544 246
L 544 246
L 544 246
L 544 246
L 544 246
L 544 246
L 544 246
L 544 246
L 544 246
L 544 246
L 544 246
L 544 246
L 544 246
L 544 246
L 544 246
L 544 245
L 544 245
L 544 245
L 544 245
L 544 245
L 544 245
L 544 245
L 544 245
L 544 245
L 544 245
L 544 245
L 544 245
L 545 245
L 545 245
L 545 245
L 545 245
L 545 245
L 545 245
L 545 245
L 545 244
L 545 244
L 545 244
L 545 244
L 545 244
L 545 244
L 545 244
L 545 244
L 545 244
L 545 244
L 545 244
L 545 244
L 545 244
L 545 244
L 545 244
L 545 244
L 545 244
L 545 244
L 545 244
L 545 243
L 545 243
L 545 243
L 545 243
L 546 243
L 546 243
L 546 243
L 546 243
L 546 243
L 546 243
L 546 243
L 546 243
L 546 243
L 546 243
L 546 243
L 546 243
L 546 243
L 547 243
L 547 242
L 547 242
L 547 242
L 547 242
L 547 242
L 547 242
L 547 242
L 547 242
L 547 242
L 547 242
L 547 242
L 547 242
L 547 242
L 547 242
L 547 242
L 547 242
L 547 242
L 547 242
L 547 242
L 547 241
L 547 241
L 547 241
L 547 241
L 547 241
L 548 241
L 548 241
L 548 241
L 548 241
L 548 241
L 548 241
L 548 241
L 548 241
L 548 241
L 548 241
L 548 241
L 548 241
L 548 241
L 548 241
L 548 240
L 548 240
L 548 240
L 548 240
L 548 240
L 548 240
L 548 240
L 548 240
L 548 240
L 548 240
L 548 240
L 548 240
L 548 240
L 548 240
L 548 240
L 548 240
L 548 240
L 549 240
L 549 240
L 549 239
L 549 239
L 549 239
L 549 239
L 549 239
L 549 239
L 549 239
L 549 239
L 549 239
L 549 239
L 549 239
L 549 239
L 549 239
L 549 239
L 549 239
L 549 239
L 549 239
L 549 239
L 549 239
L 549 238
L 549 238
L 549 238
L 549 238
L 549 238
L 549 238
L 549 238
L 549 238
L 549 238
L 550 238
L 550 238
L 550 238
L 550 238
L 550 238
L 550 238
L 550 238
L 550 238
L 550 238
L 550 238
L 550 237
L 550 237
L 550 237
L 550 237
L 550 237
L 550 237
L 550 237
L 550 237
L 551 237
L 551 237
L 551 237
L 551 237
L 551 237
L 551 237
L 551 237
L 551 237
L 551 237
L 551 237
L 551 236
L 551 236
L 551 236
L 551 236
L 551 236
L 552 236
L 552 236
L 552 236
L 552 236
L 552 236
L 552 236
L 552 236
L 552 236
L 552 236
L 552 236
L 552 236
L 553 236
L 553 236
L 553 236
L 553 235
L 553 235
L 553 235
L 554 235
L 554 235
L 554 235
L 554 235
L 554 235
L 555 235
L 555 235
L 558 235
L 558 235
L 558 235
L 558 235
L 558 235
L 558 235
L 558 235
L 558 235
L 559 235
L 559 234
L 559 234
L 559 234
L 559 234
L 559 234
L 559 234
L 559 234
L 559 234
L 559 234
L 559 234
L 559 234
L 559 234
L 559 234
L 559 234
L 559 234
L 559 234
L 559 234
L 559 234
L 559 234
L 559 233
L 559 233
L 559 233
L 559 233
L 559 233
L 559 233
L 559 233
L 559 233
L 559 233
L 559 233
L 559 233
L 559 233
L 559 233
L 559 233
L 559 233
L 559 233
L 559 233
L 559 233
L 559 233
L 559 232
L 559 232
L 559 232
L 559 232
L 559 232
L 559 232
L 559 232
L 559 232
L 560 232
L 560 232
L 560 232
L 560 232
L 560 232
L 560 232
L 560 232
L 560 232
L 560 232
L 560 232
L 560 232
L 560 231
L 560 231
L 560 231
L 560 231
L 560 231
L 560 231
L 560 231
L 560 231
L 560 231
L 560 231
L 560 231
L 560 231
L 560 231
L 560 231
L 560 231
L 560 231
L 560 231
L 560 231
L 560 230
L 560 230
L 561 230
L 561 230
L 561 230
L 561 230
L 561 230
L 561 230
L 561 230
L 561 230
L 561 230
L 561 230
L 561 230
L 561 230
L 561 230
L 561 230
L 561 230
L 561 230
L 561 230
L 561 229
L 561 229
L 561 229
L 561 229
L 562 229
L 562 229
L 562 229
L 562 229
L 562 229
L 562 229
L 562 229
L 562 229
L 562 229
L 562 229
L 562 229
L 562 229
L 562 229
L 562 229
L 562 229
L 562 228
L 562 228
L 562 228
L 562 228
L 562 228
L 562 228
L 562 228
L 562 228
L 562 228
L 562 228
L 562 228
L 562 228
L 562 228
L 562 228
L 562 228
L 562 228
L 562 228
L 562 228
L 562 228
L 562 227
L 562 227
L 562 227
L 562 227
L 562 227
L 562 227
L 562 227
L 562 227
L 562 227
L 562 227
L 562 227
L 562 227
L 562 227
L 563 227
L 563 227
L 563 227
L 563 227
L 563 227
L 563 227
L 563 226
L 563 226
L 563 226
L 563 226
L 563 226
L 563 226
L 563 226
L 563 226
L 563 226
L 563 226
L 563 226
L 563 226
L 563 226
L 563 226
L 563 226
L 563 226
L 563 226
L 563 226
L 563 225
L 563 225
L 563 225
L 563 225
L 563 225
L 563 225
L 563 225
L 563 225
L 563 225
L 563 225
L 563 225
L 563 225
L 563 225
L 563 225
L 563 225
L 563 225
L 563 225
L 564 225
L 564 225
L 564 224
L 564 224
L 564 224
L 564 224
L 564 224
L 564 224
L 564 224
L 564 224
L 564 224
L 564 224
L 564 224
L 564 224
L 564 224
L 564 224
L 564 224
L 564 224
L 564 224
L 564 224
L 564 224
L 564 223
L 564 223
L 565 223
L 565 223
L 565 223
L 565 223
L 565 223
L 565 223
L 565 223
L 565 223
L 565 223
L 565 223
L 565 223
L 565 223
L 565 223
L 565 223
L 566 223
L 566 223
L 566 223
L 566 222
L 566 222
L 566 222
L 566 222
L 566 222
L 566 222
L 566 222
L 566 222
L 566 222
L 567 222
L 567 222
L 567 222
L 567 222
L 567 222
L 567 222
L 567 222
L 567 222
L 567 222
L 567 222
L 567 221
L 567 221
L 567 221
L 567 221
L 567 221
L 567 221
L 567 221
L 567 221
L 567 221
L 568 221
L 568 221
L 568 221
L 568 221
L 568 221
L 568 221
L 568 221
L 568 221
L 568 221
L 568 221
L 568 220
L 570 220
L 570 220
L 570 220
L 571 220
L 573 220
L 573 220
L 573 220
L 573 220
L 573 220
L 573 220
L 573 220
L 573 220
L 573 220
L 573 220
L 573 220
L 573 220
L 573 220
L 573 219
L 573 219
L 573 219
L 573 219
L 573 219
L 573 219
L 574 219
L 574 219
L 574 219
L 574 219
L 574 219
L 574 219
L 574 219
L 574 219
L 574 219
L 574 219
L 574 219
L 574 219
L 574 219
L 574 218
L 574 218
L 574 218
L 574 218
L 574 218
L 574 218
L 574 218
L 574 218
L 574 218
L 574 218
L 574 218
L 574 218
L 574 218
L 574 218
L 574 218
L 574 218
L 574 218
L 574 218
L 574 218
L 574 217
L 574 217
L 574 217
L 574 217
L 574 217
L 574 217
L 574 217
L 574 217
L 574 217
L 574 217
L 574 217
L 574 217
L 574 217
L 574 217
L 574 217
L 575 217
L 575 217
L 575 217
L 575 217
L 575 216
L 575 216
L 575 216
L 575 216
L 575 216
L 575 216
L 575 216
L 575 216
L 575 216
L 575 216
L 575 216
L 575 216
L 575 216
L 575 216
L 575 216
L 575 216
L 575 216
L 575 216
L 575 216
L 575 215
L 575 215
L 575 215
L 575 215
L 575 215
L 575 215
L 575 215
L 575 215
L 575 215
L 575 215
L 575 215
L 575 215
L 575 215
L 575 215
L 575 215
L 575 215
L 575 215
L 575 215
L 576 215
L 576 214
L 576 214
L 576 214
L 576 214
L 576 214
L 576 214
L 576 214
L 576 214
L 576 214
L 576 214
L 576 214
L 576 214
L 576 214
L 576 214
L 576 214
L 576 214
L 576 214
L 576 214
L 576 213
L 576 213
L 576 213
L 576 213
L 576 213
L 576 213
L 576 213
L 577 213
L 577 213
L 577 213
L 577 213
L 577 213
L 577 213
L 577 213
L 577 213
L 577 213
L 577 213
L 577 213
L 577 213
L 577 212
L 577 212
L 577 212
L 577 212
L 577 212
L 577 212
L 577 212
L 577 212
L 577 212
L 577 212
L 577 212
L 577 212
L 577 212
L 577 212
L 577 212
L 577 212
L 577 212
L 577 212
L 577 212
L 577 211
L 577 211
L 577 211
L 577 211
L 577 211
L 577 211
L 577 211
L 577 211
L 577 211
L 577 211
L 578 211
L 578 211
L 578 211
L 578 211
L 578 211
L 578 211
L 578 211
L 578 211
L 578 211
L 578 210
L 578 210
L 578 210
L 578 210
L 578 210
L 578 210
L 578 210
L 578 210
L 578 210
L 578 210
L 578 210
L 578 210
L 578 210
L 578 210
L 578 210
L 578 210
L 578 210
L 578 210
L 578 210
L 578 209
L 578 209
L 578 209
L 578 209
L 578 209
L 578 209
L 578 209
L 578 209
L 578 209
L 578 209
L 578 209
L 578 209
L 578 209
L 578 209
L 578 209
L 578 209
L 579 209
L 579 209
L 579 208
L 579 208
L 579 208
L 579 208
L 579 208
L 579 208
L 579 208
L 579 208
L 579 208
L 579 208
L 579 208
L 579 208
L 579 208
L 579 208
L 579 208
L 579 208
L 579 208
L 579 208
L 579 208
L 580 207
L 580 207
L 580 207
L 580 207
L 580 207
L 580 207
L 580 207
L 580 207
L 581 207
L 581 207
L 581 207
L 581 207
L 581 207
L 581 207
L 581 207
L 581 207
L 581 207
L 581 207
L 581 207
L 582 206
L 582 206
L 582 206
L 582 206
L 582 206
L 582 206
L 582 206
L 582 206
L 582 206
L 582 206
L 582 206
L 582 206
L 582 206
L 583 206
L 583 206
L 583 206
L 583 206
L 583 206
L 583 206
L 583 205
L 584 205
L 584 205
L 586 205
L 586 205
L 587 205
L 587 205
L 587 205
L 588 205
L 588 205
L 588 205
L 588 205
L 589 205
L 589 205
L 589 205
L 589 205
L 589 205
L 589 205
L 589 205
L 589 204
L 589 204
L 589 204
L 590 204
L 590 204
L 590 204
L 590 204
L 590 204
L 590 204
L 590 204
L 590 204
L 590 204
L 590 204
L 590 204
L 590 204
L 591 204
L 591 204
L 591 204
L 591 204
L 591 203
L 591 203
L 591 203
L 591 203
L 592 203
L 592 203
L 592 203
L 592 203
L 592 203
L 592 203
L 592 203
L 592 203
L 593 203
L 593 203
L 593 203
L 593 203
L 593 203
L 593 203
L 593 202
L 593 202
L 594 202
L 594 202
L 595 202
L 595 202
L 595 202
L 595 202
L 595 202
L 595 202
L 595 202
L 595 202
L 596 202
L 596 202
L 596 202
L 596 202
L 596 202
L 596 202
L 596 202
L 597 201
L 597 201
L 597 201
L 597 201
L 597 201
L 597 201
L 597 201
L 598 201
L 598 201
L 598 201
L 598 201
L 598 201
L 599 201
L 600 201
L 600 201
L 600 201
L 600 201
L 601 201
L 601 201
L 602 200
L 602 200
L 602 200
L 603 200
L 603 200
L 603 200
L 603 200
L 604 200
L 604 200
L 604 200
L 604 200
L 604 200
L 604 200
L 605 200
L 605 200
L 605 200
L 605 200
L 605 200
L 605 200
L 605 199
L 605 199
L 606 199
L 606 199
L 606 199
L 606 199
L 606 199
L 607 199
L 607 199
L 607 199
L 607 199
L 607 199
L 607 199
L 607 199
L 608 199
L 608 199
L 608 199
L 608 199
L 608 199
L 609 198
L 609 198
L 609 198
L 609 198
L 609 198
L 610 198
L 610 198
L 610 198
L 611 198
L 611 198
L 611 198
L 611 198
L 611 198
L 611 198
L 611 198
L 611 198
L 611 198
L 612 198
L 612 198
L 612 197
L 612 197
L 612 197
L 612 197
L 612 197
L 612 197
L 612 197
L 613 197
L 613 197
L 613 197
L 614 197
L 614 197
L 614 197
L 614 197
L 614 197
L 616 197
L 616 197
L 617 197
L 618 196
L 618 196
L 618 196
L 619 196
L 619 196
L 619 196
L 619 196
L 619 196
L 619 196
L 619 196
L 619 196
L 620 196
L 620 196
L 620 196
L 620 196
L 620 196
L 621 196
L 621 196
L 621 196
L 621 195
L 621 195
L 621 195
L 621 195
L 621 195
L 621 195
L 622 195
L 622 195
L 622 195
L 622 195
L 622 195
L 622 195
L 623 195
L 623 195
L 623 195
L 623 195
L 623 195
L 623 195
L 624 195
L 624 194
L 624 194
L 624 194
L 624 194
L 624 194
L 624 194
L 624 194
L 624 194
L 624 194
L 624 194
L 624 194
L 625 194
L 625 194
L 625 194
L 625 194
L 625 194
L 625 194
L 625 194
L 625 194
L 625 193
L 625 193
L 625 193
L 625 193
L 626 193
L 626 193
L 626 193
L 626 193
L 626 193
L 626 193
L 626 193
L 626 193
L 626 193
L 627 193
L 627 193
L 627 193
L 627 193
L 627 193
L 627 193
L 627 192
L 628 192
L 628 192
L 628 192
L 629 192
L 629 192
L 632 192
L 633 192
L 633 192
L 633 192
L 633 192
L 633 192
L 633 192
L 633 192
L 633 192
L 633 192
L 633 192
L 633 192
L 633 191
L 633 191
L 633 191
L 633 191
L 633 191
L 633 191
L 633 191
L 633 191
L 633 191
L 633 191
L 633 191
L 634 191
L 634 191
L 634 191
L 634 191
L 634 191
L 634 191
L 634 191
L 634 191
L 634 190
L 634 190
L 634 190
L 634 190
L 634 190
L 634 190
L 634 190
L 634 190
L 634 190
L 634 190
L 634 190
L 634 190
L 634 190
L 634 190
L 634 190
L 634 190
L 634 190
L 634 190
L 634 190
L 634 189
L 634 189
L 634 189
L 634 189
L 634 189
L 634 189
L 634 189
L 634 189
L 634 189
L 635 189
L 635 189
L 635 189
L 635 189
L 635 189
L 635 189
L 635 189
L 635 189
L 635 189
L 635 189
L 635 188
L 635 188
L 635 188
L 635 188
L 635 188
L 635 188
L 635 188
L 635 188
L 636 188
L 636 188
L 636 188
L 636 188
L 636 188
L 636 188
L 636 188
L 636 188
L 636 188
L 636 188
L 636 188
L 636 187
L 636 187
L 636 187
L 636 187
L 636 187
L 636 187
L 636 187
L 636 187
L 636 187
L 636 187
L 636 187
L 636 187
L 636 187
L 636 187
L 636 187
L 636 187
L 636 187
L 636 187
L 636 187
L 636 186
L 637 186
L 637 186
L 637 186
L 637 186
L 637 186
L 637 186
L 637 186
L 637 186
L 637 186
L 637 186
L 637 186
L 637 186
L 637 186
L 637 186
L 637 186
L 637 186
L 637 186
L 637 185
L 637 185
L 637 185
L 637 185
L 637 185
L 637 185
L 638 185
L 638 185
L 638 185
L 638 185
L 638 185
L 638 185
L 638 185
L 638 185
L 638 185
L 638 185
L 638 185
L 638 185
L 638 185
L 638 184
L 638 184
L 638 184
L 638 184
L 638 184
L 638 184
L 638 184
L 638 184
L 638 184
L 639 184
L 639 184
L 639 184
L 639 184
L 639 184
L 639 184
L 639 184
L 639 184
L 639 184
L 639 184
L 639 183
L 639 183
L 639 183
L 640 183
L 640 183
L 640 183
L 640 183
L 640 183
L 640 183
L 640 183
L 640 183
L 640 183
L 640 183
L 640 183
L 641 183
L 641 183
L 641 183
L 641 183
L 641 183
L 641 182
L 641 182
L 641 182
L 641 182
L 641 182
L 641 182
L 641 182
L 641 182
L 641 182
L 641 182
L 641 182
L 641 182
L 641 182
L 641 182
L 641 182
L 641 182
L 641 182
L 641 182
L 641 182
L 641 181
L 642 181
L 642 181
L 642 181
L 642 181
L 642 181
L 642 181
L 642 181
L 642 181
L 642 181
L 642 181
L 642 181
L 642 181
L 642 181
L 643 181
L 643 181
L 643 181
L 643 181
L 644 181
L 644 180
L 644 180
L 644 180
L 645 180
L 646 180
L 647 180
L 647 180
L 647 180
L 647 180
L 647 180
L 647 180
L 648 180
L 648 180
L 648 180
L 648 180
L 648 180
L 648 180
L 648 180
L 648 179
L 648 179
L 648 179
L 648 179
L 648 179
L 648 179
L 648 179
L 648 179
L 648 179
L 648 179
L 648 179
L 648 179
L 648 179
L 648 179
L 648 179
L 648 179
L 648 179
L 648 179
L 648 179
L 648 178
L 648 178
L 648 178
L 648 178
L 649 178
L 649 178
L 649 178
L 649 178
L 649 178
L 649 178
L 649 178
L 649 178
L 649 178
L 649 178
L 649 178
L 649 178
L 649 178
L 649 178
L 649 178
L 649 177
L 649 177
L 649 177
L 649 177
L 649 177
L 649 177
L 649 177
L 649 177
L 649 177
L 649 177
L 649 177
L 649 177
L 649 177
L 649 177
L 649 177
L 649 177
L 649 177
L 649 177
L 649 177
L 649 176
L 649 176
L 650 176
L 650 176
L 650 176
L 650 176
L 650 176
L 650 176
L 650 176
L 650 176
L 650 176
L 650 176
L 650 176
L 651 176
L 651 176
L 651 176
L 651 176
L 651 176
L 651 176
L 651 175
L 651 175
L 651 175
L 651 175
L 651 175
L 651 175
L 651 175
L 651 175
L 651 175
L 651 175
L 651 175
L 651 175
L 651 175
L 651 175
L 651 175
L 651 175
L 651 175
L 651 175
L 651 174
L 651 174
L 651 174
L 651 174
L 651 174
L 651 174
L 652 174
L 652 174
L 652 174
L 652 174
L 652 174
L 652 174
L 652 174
L 652 174
L 652 174
L 652 174
L 652 174
L 652 174
L 652 174
L 652 173
L 652 173
L 652 173
L 652 173
L 652 173
L 652 173
L 652 173
L 652 173
L 652 173
L 652 173
L 652 173
L 652 173
L 652 173
L 653 173
L 653 173
L 653 173
L 653 173
L 653 173
L 653 173
L 653 172
L 653 172
L 653 172
L 653 172
L 653 172
L 653 172
L 653 172
L 653 172
L 653 172
L 653 172
L 653 172
L 653 172
L 653 172
L 653 172
L 653 172
L 653 172
L 653 172
L 653 172
L 653 172
L 653 171
L 653 171
L 653 171
L 653 171
L 653 171
L 653 171
L 653 171
L 653 171
L 653 171
L 653 171
L 653 171
L 653 171
L 653 171
L 653 171
L 653 171
L 653 171
L 653 171
L 653 171
L 653 171
L 653 170
L 653 170
L 654 170
L 654 170
L 654 170
L 654 170
L 654 170
L 654 170
L 654 170
L 654 170
L 654 170
L 654 170
L 654 170
L 654 170
L 654 170
L 654 170
L 654 170
L 654 170
L 654 170
L 654 169
L 654 169
L 654 169
L 654 169
L 654 169
L 654 169
L 654 169
L 654 169
L 655 169
L 655 169
L 655 169
L 655 169
L 655 169
L 655 169
L 655 169
L 655 169
L 655 169
L 655 169
L 655 168
L 655 168
L 655 168
L 655 168
L 655 168
L 655 168
L 655 168
L 655 168
L 655 168
L 655 168
L 655 168
L 655 168
L 656 168
L 656 168
L 656 168
L 656 168
L 656 168
L 656 168
L 656 168
L 656 167
L 656 167
L 656 167
L 656 167
L 656 167
L 656 167
L 656 167
L 656 167
L 656 167
L 656 167
L 656 167
L 657 167
L 657 167
L 657 167
L 657 167
L 657 167
L 657 167
L 657 167
L 657 167
L 657 166
L 657 166
L 657 166
L 657 166
L 657 166
L 658 166
L 658 166
L 658 166
L 658 166
L 658 166
L 658 166
L 658 166
L 659 166
L 659 166
L 660 166
L 661 166
L 661 166
L 662 166
L 662 166
L 662 165
L 663 165
L 663 165
L 663 165
L 663 165
L 663 165
L 663 165
L 663 165
L 663 165
L 663 165
L 663 165
L 663 165
L 663 165
L 663 165
L 663 165
L 663 165
L 663 165
L 663 165
L 663 165
L 663 164
L 663 164
L 663 164
L 663 164
L 663 164
L 663 164
L 664 164
L 664 164
L 664 164
L 664 164
L 664 164
L 664 164
L 664 164
L 664 164
L 664 164
L 664 164
L 664 164
L 664 164
L 664 163
L 664 163
L 664 163
L 664 163
L 664 163
L 664 163
L 664 163
L 664 163
L 664 163
L 664 163
L 664 163
L 664 163
L 664 163
L 664 163
L 664 163
L 664 163
L 664 163
L 664 163
L 665 163
L 665 162
L 665 162
L 665 162
L 665 162
L 665 162
L 665 162
L 665 162
L 665 162
L 665 162
L 665 162
L 665 162
L 665 162
L 666 162
L 666 162
L 666 162
L 666 162
L 666 162
L 666 162
L 666 162
L 666 161
L 666 161
L 666 161
L 666 161
L 666 161
L 666 161
L 666 161
L 666 161
L 666 161
L 666 161
L 666 161
L 666 161
L 666 161
L 666 161
L 666 161
L 667 161
L 667 161
L 667 161
L 667 161
L 667 160
L 667 160
L 667 160
L 667 160
L 667 160
L 667 160
L 667 160
L 667 160
L 667 160
L 667 160
L 667 160
L 667 160
L 667 160
L 667 160
L 667 160
L 668 160
L 668 160
L 668 160
L 668 160
L 668 159
L 668 159
L 668 159
L 668 159
L 668 159
L 668 159
L 668 159
L 668 159
L 668 159
L 668 159
L 668 159
L 668 159
L 668 159
L 668 159
L 668 159
L 668 159
L 668 159
L 668 159
L 668 159
L 668 158
L 668 158
L 668 158
L 668 158
L 668 158
L 668 158
L 668 158
L 668 158
L 668 158
L 668 158
L 668 158
L 668 158
L 669 158
L 669 158
L 669 158
L 669 158
L 669 158
L 669 158
L 669 157
L 669 157
L 669 157
L 669 157
L 669 157
L 670 157
L 670 157
L 670 157
L 670 157
L 670 157
L 670 157
L 670 157
L 670 157
L 670 157
L 671 157
L 671 157
L 671 157
L 671 157
L 671 157
L 671 156
L 671 156
L 671 156
L 671 156
L 671 156
L 671 156
L 671 156
L 671 156
L 671 156
L 671 156
L 672 156
L 672 156
L 672 156
L 672 156
L 672 156
L 672 156
L 672 156
L 673 156
L 673 156
L 673 155
L 673 155
L 674 155
L 674 155
L 674 155
L 675 155
L 675 155
L 675 155
L 676 155
L 677 155
L 678 155
L 678 155
L 678 155
L 678 155
L 678 155
L 678 155
L 678 155
L 678 155
L 678 155
L 678 154
L 678 154
L 678 154
L 678 154
L 678 154
L 678 154
L 679 154
L 679 154
L 679 154
L 679 154
L 679 154
L 679 154
L 679 154
L 679 154
L 679 154
L 679 154
L 679 154
L 679 154
L 679 154
L 679 153
L 679 153
L 679 153
L 679 153
L 679 153
L 679 153
L 680 153
L 680 153
L 680 153
L 680 153
L 680 153
L 680 153
L 680 153
L 680 153
L 680 153
L 680 153
L 681 153
L 681 153
L 681 153
L 681 152
L 681 152
L 681 152
L 681 152
L 681 152
L 681 152
L 682 152
L 682 152
L 682 152
L 682 152
L 682 152
L 682 152
L 682 152
L 682 152
L 682 152
L 683 152
L 683 152
L 683 152
L 683 151
L 683 151
L 683 151
L 683 151
L 683 151
L 684 151
L 684 151
L 684 151
L 684 151
L 684 151
L 684 151
L 684 151
L 684 151
L 685 151
L 685 151
L 685 151
L 685 151
L 685 151
L 685 151
L 685 150
L 685 150
L 685 150
L 685 150
L 685 150
L 685 150
L 686 150
L 686 150
L 686 150
L 686 150
L 686 150
L 686 150
L 686 150
L 686 150
L 686 150
L 686 150
L 687 150
L 687 150
L 687 150
L 687 149
L 687 149
L 687 149
L 687 149
L 688 149
L 688 149
L 693 149
L 693 149
L 694 149
L 694 149
L 694 149
L 694 149
L 694 149
L 694 149
L 695 149
L 695 149
L 695 149
L 695 149
L 695 149
L 695 148
L 695 148
L 695 148
L 695 148
L 696 148
L 696 148
L 696 148
L 696 148
L 696 148
L 697 148
L 697 148
L 697 148
L 697 148
L 697 148
L 697 148
L 697 148
L 698 148
L 698 148
L 698 148
L 698 147
L 698 147
L 698 147
L 698 147
L 698 147
L 698 147
L 698 147
L 698 147
L 698 147
L 698 147
L 698 147
L 699 147
L 699 147
L 699 147
L 699 147
L 699 147
L 699 147
L 699 147
L 699 147
L 700 146
L 700 146
L 700 146
L 700 146
L 700 146
L 700 146
L 701 146
L 701 146
L 701 146
L 701 146
L 701 146
L 701 146
L 701 146
L 701 146
L 701 146
L 701 146
L 701 146
L 701 146
L 701 145
L 701 145
L 701 145
L 701 145
L 702 145
L 702 145
L 702 145
L 702 145
L 702 145
L 702 145
L 702 145
L 702 145
L 702 145
L 703 145
L 703 145
L 703 145
L 703 145
L 704 145
L 704 145
L 705 144
L 705 144
L 705 144
L 706 144
L 707 144
L 707 144
L 707 144
L 707 144
L 707 144
L 707 144
L 707 144
L 708 144
L 708 144
L 708 144
L 708 144
L 708 144
L 708 144
L 708 144
L 708 144
L 708 143
L 708 143
L 708 143
L 708 143
L 708 143
L 708 143
L 708 143
L 708 143
L 708 143
L 708 143
L 708 143
L 708 143
L 708 143
L 708 143
L 708 143
L 709 143
L 709 143
L 709 143
L 709 143
L 709 142
L 709 142
L 709 142
L 709 142
L 709 142
L 709 142
L 709 142
L 709 142
L 709 142
L 709 142
L 709 142
L 709 142
L 709 142
L 709 142
L 709 142
L 709 142
L 709 142
L 709 142
L 709 142
L 709 141
L 709 141
L 710 141
L 710 141
L 710 141
L 710 141
L 710 141
L 710 141
L 710 141
L 711 141
L 711 141
L 711 141
L 711 141
L 711 141
L 711 141
L 711 141
L 711 141
L 711 141
L 711 140
L 711 140
L 711 140
L 711 140
L 711 140
L 711 140
L 711 140
L 711 140
L 711 140
L 712 140
L 712 140
L 712 140
L 712 140
L 712 140
L 712 140
L 712 140
L 712 140
L 712 140
L 712 140
L 712 139
L 712 139
L 712 139
L 712 139
L 712 139
L 712 139
L 713 139
L 713 139
L 713 139
L 713 139
L 713 139
L 713 139
L 713 139
L 713 139
L 713 139
L 713 139
L 713 139
L 713 139
L 713 139
L 713 138
L 713 138
L 713 138
L 714 138
L 714 138
L 714 138
L 714 138
L 714 138
L 714 138
L 715 138
L 715 138
L 715 138
L 715 138
L 715 138
L 715 138
L 715 138
L 715 138
L 715 138
L 715 138
L 715 137
L 715 137
L 716 137
L 716 137
L 716 137
L 716 137
L 716 137
L 716 137
L 716 137
L 716 137
L 716 137
L 717 137
L 717 137
L 717 137
L 717 137
L 717 137
L 717 137
L 717 137
L 717 137
L 720 136
L 722 136
L 722 136
L 722 136
L 722 136
L 722 136
L 723 136
L 723 136
L 723 136
L 723 136
L 723 136
L 723 136
L 723 136
L 723 136
L 723 136
L 723 136
L 723 136
L 723 136
L 723 136
L 723 135
L 723 135
L 723 135
L 724 135
L 724 135
L 724 135
L 724 135
L 724 135
L 724 135
L 724 135
L 724 135
L 724 135
L 724 135
L 724 135
L 724 135
L 724 135
L 724 135
L 724 135
L 724 134
L 724 134
L 724 134
L 725 134
L 725 134
L 725 134
L 725 134
L 725 134
L 725 134
L 725 134
L 725 134
L 725 134
L 725 134
L 725 134
L 725 134
L 726 134
L 726 134
L 726 134
L 726 134
L 726 133
L 726 133
L 726 133
L 726 133
L 726 133
L 726 133
L 726 133
L 726 133
L 726 133
L 726 133
L 727 133
L 727 133
L 727 133
L 727 133
L 727 133
L 727 133
L 727 133
L 727 133
L 727 133
L 727 132
L 727 132
L 727 132
L 727 132
L 727 132
L 727 132
L 727 132
L 727 132
L 727 132
L 727 132
L 727 132
L 727 132
L 727 132
L 728 132
L 728 132
L 728 132
L 728 132
L 728 132
L 728 132
L 728 131
L 728 131
L 728 131
L 728 131
L 728 131
L 728 131
L 728 131
L 728 131
L 728 131
L 728 131
L 728 131
L 728 131
L 729 131
L 729 131
L 729 131
L 729 131
L 729 131
L 729 131
L 729 131
L 729 130
L 729 130
L 729 130
L 730 130
L 730 130
L 730 130
L 730 130
L 730 130
L 730 130
L 730 130
L 730 130
L 730 130
L 730 130
L 730 130
L 730 130
L 730 130
L 730 130
L 730 130
L 730 130
L 730 129
L 730 129
L 731 129
L 731 129
L 731 129
L 731 129
L 731 129
L 731 129
L 731 129
L 731 129
L 731 129
L 731 129
L 731 129
L 731 129
L 732 129
L 732 129
L 732 129
L 732 129
L 733 128
L 733 128
L 733 128
L 735 128
L 737 128
L 737 128
L 737 128
L 737 128
L 738 128
L 738 128
L 738 128
L 738 128
L 738 128
L 738 128
L 738 128
L 738 128
L 738 128
L 738 128
L 738 128
L 738 127
L 738 127
L 738 127
L 738 127
L 738 127
L 738 127
L 738 127
L 738 127
L 738 127
L 738 127
L 738 127
L 738 127
L 738 127
L 738 127
L 739 127
L 739 127
L 739 127
L 739 127
L 739 127
L 739 126
L 739 126
L 739 126
L 739 126
L 739 126
L 739 126
L 739 126
L 739 126
L 739 126
L 739 126
L 739 126
L 739 126
L 739 126
L 739 126
L 739 126
L 739 126
L 740 126
L 740 126
L 740 126
L 740 125
L 740 125
L 740 125
L 740 125
L 740 125
L 740 125
L 740 125
L 741 125
L 741 125
L 741 125
L 741 125
L 741 125
L 741 125
L 741 125
L 741 125
L 741 125
L 741 125
L 741 125
L 741 125
L 741 124
L 741 124
L 741 124
L 741 124
L 741 124
L 741 124
L 741 124
L 741 124
L 741 124
L 741 124
L 741 124
L 741 124
L 741 124
L 741 124
L 741 124
L 741 124
L 742 124
L 742 124
L 742 123
L 742 123
L 742 123
L 742 123
L 742 123
L 742 123
L 742 123
L 742 123
L 742 123
L 742 123
L 742 123
L 742 123
L 743 123
L 743 123
L 743 123
L 743 123
L 743 123
L 743 123
L 743 123
L 743 122
L 743 122
L 743 122
L 743 122
L 744 122
L 744 122
L 744 122
L 744 122
L 744 122
L 744 122
L 745 122
L 745 122
L 745 122
L 745 122
L 745 122
L 745 122
L 745 122
L 745 122
L 745 122
L 745 121
L 745 121
L 745 121
L 746 121
L 746 121
L 746 121
L 746 121
L 746 121
L 746 121
L 746 121
L 746 121
L 746 121
L 746 121
L 747 121
L 747 121
L 747 121
L 747 121
L 747 121
L 747 121
L 747 120
L 747 120
L 747 120
L 747 120
L 748 120
L 748 120
L 749 120
L 751 120
L 751 120
L 752 120
L 752 120
L 752 120
L 752 120
L 752 120
L 752 120
L 752 120
L 752 120
L 752 120
L 752 120
L 752 119
L 752 119
L 752 119
L 752 119
L 752 119
L 752 119
L 752 119
L 752 119
L 752 119
L 752 119
L 752 119
L 752 119
L 752 119
L 752 119
L 752 119
L 752 119
L 752 119
L 752 119
L 752 119
L 752 118
L 752 118
L 752 118
L 752 118
L 752 118
L 752 118
L 752 118
L 752 118
L 753 118
L 753 118
L 753 118
L 753 118
L 753 118
L 753 118
L 753 118
L 753 118
L 753 118
L 753 118
L 753 117
L 753 117
L 753 117
L 753 117
L 753 117
L 753 117
L 753 117
L 753 117
L 753 117
L 753 117
L 753 117
L 753 117
L 753 117
L 753 117
L 753 117
L 753 117
L 753 117
L 753 117
L 753 117
L 753 116
L 753 116
L 753 116
L 753 116
L 753 116
L 753 116
L 753 116
L 753 116
L 753 116
L 753 116
L 753 116
L 753 116
L 753 116
L 753 116
L 753 116
L 753 116
L 753 116
L 754 116
L 754 116
L 754 115
L 754 115
L 754 115
L 754 115
L 754 115
L 754 115
L 754 115
L 754 115
L 754 115
L 754 115
L 754 115
L 754 115
L 754 115
L 754 115
L 754 115
L 754 115
L 754 115
L 754 115
L 754 115
L 754 114
L 755 114
L 755 114
L 755 114
L 755 114
L 755 114
L 755 114
L 755 114
L 755 114
L 755 114
L 755 114
L 755 114
L 755 114
L 755 114
L 755 114
L 755 114
L 755 114
L 755 114
L 756 114
L 756 113
L 756 113
L 756 113
L 756 113
L 756 113
L 756 113
L 756 113
L 756 113
L 756 113
L 756 113
L 756 113
L 756 113
L 756 113
L 756 113
L 756 113
L 756 113
L 756 113
L 756 113
L 756 113
L 756 112
L 756 112
L 756 112
L 756 112
L 756 112
L 756 112
L 756 112
L 756 112
L 756 112
L 756 112
L 756 112
L 756 112
L 756 112
L 756 112
L 756 112
L 756 112
L 756 112
L 756 112
L 756 111
L 756 111
L 756 111
L 756 111
L 756 111
L 756 111
L 757 111
L 757 111
L 757 111
L 757 111
L 757 111
L 757 111
L 757 111
L 757 111
L 757 111
L 757 111
L 757 111
L 757 111
L 757 111
L 757 110
L 757 110
L 757 110
L 757 110
L 757 110
L 757 110
L 757 110
L 757 110
L 757 110
L 757 110
L 757 110
L 757 110
L 757 110
L 757 110
L 757 110
L 757 110
L 757 110
L 757 110
L 757 110
L 757 109
L 757 109
L 757 109
L 758 109
L 758 109
L 758 109
L 758 109
L 758 109
L 758 109
L 758 109
L 758 109
L 758 109
L 758 109
L 758 109
L 758 109
L 758 109
L 759 109
L 759 109
L 759 109
L 759 108
L 759 108
L 759 108
L 759 108
L 759 108
L 759 108
L 759 108
L 759 108
L 759 108
L 759 108
L 759 108
L 759 108
L 759 108
L 759 108
L 759 108
L 759 108
L 759 108
L 759 108
L 760 108
L 760 107
L 760 107
L 760 107
L 760 107
L 760 107
L 760 107
L 760 107
L 760 107
L 760 107
L 760 107
L 760 107
L 760 107
L 760 107
L 760 107
L 760 107
L 760 107
L 760 107
L 760 107
L 760 106
L 760 106
L 760 106
L 760 106
L 760 106
L 761 106
L 761 106
L 761 106
L 761 106
L 761 106
L 761 106
L 761 106
L 761 106
L 761 106
L 761 106
L 761 106
L 761 106
L 762 106
L 762 106
L 762 105
L 762 105
L 762 105
L 762 105
L 762 105
L 762 105
L 762 105
L 763 105
L 763 105
L 763 105
L 764 105
L 764 105
L 764 105
L 764 105
L 764 105
L 766 105
L 766 105
L 766 105
L 767 105
L 767 104
L 767 104
L 767 104
L 767 104
L 767 104
L 767 104
L 767 104
L 767 104
L 767 104
L 767 104
L 768 104
L 768 104
L 768 104
L 768 104
L 768 104
L 768 104
L 768 104
L 768 104
L 768 104
L 768 103
L 768 103
L 768 103
L 768 103
L 768 103
L 768 103
L 768 103
L 768 103
L 768 103
L 768 103
L 768 103
L 768 103
L 768 103
L 768 103
L 768 103
L 768 103
L 768 103
L 768 103
L 768 103
L 768 102
L 768 102
L 768 102
L 768 102
L 769 102
L 769 102
L 769 102
L 769 102
L 769 102
L 769 102
L 769 102
L 769 102
L 769 102
L 769 102
L 769 102
L 770 102
L 770 102
L 770 102
L 770 102
L 770 101
L 770 101
L 770 101
L 770 101
L 770 101
L 770 101
L 770 101
L 770 101
L 770 101
L 770 101
L 770 101
L 770 101
L 770 101
L 770 101
L 770 101
L 770 101
L 770 101
L 771 101
L 771 100
L 771 100
L 771 100
L 771 100
L 771 100
L 771 100
L 771 100
L 771 100
L 771 100
L 771 100
L 771 100
L 771 100
L 771 100
L 771 100
L 771 100
L 771 100
L 771 100
L 771 100
L 771 100
L 771 99
L 771 99
L 771 99
L 771 99
L 771 99
L 771 99
L 771 99
L 771 99
L 771 99
L 771 99
L 771 99
L 772 99
L 772 99
L 772 99
L 772 99
L 772 99
L 772 99
L 772 99
L 772 99
L 772 98
L 772 98
L 772 98
L 772 98
L 772 98
L 772 98
L 772 98
L 772 98
L 772 98
L 772 98
L 772 98
L 772 98
L 772 98
L 772 98
L 772 98
L 772 98
L 773 98
L 773 98
L 773 98
L 773 97
L 773 97
L 773 97
L 773 97
L 773 97
L 773 97
L 773 97
L 773 97
L 773 97
L 773 97
L 774 97
L 774 97
L 774 97
L 774 97
L 774 97
L 774 97
L 775 97
L 775 97
L 775 97
L 775 96
L 775 96
L 775 96
L 775 96
L 775 96
L 775 96
L 775 96
L 775 96
L 775 96
L 775 96
L 776 96
L 776 96
L 776 96
L 776 96
L 777 96
L 777 96
L 777 96
L 777 96
L 777 96
L 777 95
L 777 95
L 777 95
L 777 95
L 777 95
L 779 95
L 779 95
L 779 95
L 779 95
L 782 95
L 783 95
L 783 95
L 783 95
L 783 95
L 783 95
L 783 95
L 783 95
L 783 95
L 783 94
L 783 94
L 784 94
L 784 94
L 784 94
L 784 94
L 784 94
L 784 94
L 785 94
L 785 94
L 785 94
L 785 94
L 786 94
L 786 94
L 786 94
L 786 94
L 786 94
L 786 94
L 786 94
L 786 93
L 787 93
L 787 93
L 787 93
L 787 93
L 787 93
L 787 93
L 787 93
L 787 93
L 787 93
L 787 93
L 788 93
L 788 93
L 788 93
L 788 93
L 788 93
L 788 93
L 789 93
L 789 93
L 789 92
L 790 92
L 790 92
L 790 92
L 791 92
L 791 92
L 791 92
L 792 92
L 792 92
L 792 92
L 792 92
L 793 92
L 793 92
L 793 92
L 795 92
L 797 92
L 797 92
L 798 92
L 798 92
L 799 91
L 799 91
L 799 91
L 800 91
L 800 91
L 800 91
L 800 91
L 800 91
L 800 91
L 800 91
L 801 91
L 801 91
L 801 91
L 801 91
L 802 91
L 802 91
L 802 91
L 802 91
L 802 91
L 803 90
L 803 90
L 803 90
L 804 90
L 804 90
L 804 90
L 804 90
L 804 90
L 804 90
L 804 90
L 805 90
L 805 90
L 805 90
L 805 90
L 805 90
L 806 90
L 806 90
L 806 90
L 806 89
L 806 89
L 807 89
L 807 89
L 808 89
L 812 89
L 812 89
L 812 89
L 812 89
L 812 89
L 812 89
L 812 89
L 812 89
L 812 89
L 812 89
L 812 89
L 812 89
L 813 89
L 813 89
L 813 88
L 813 88
L 813 88
L 813 88
L 813 88
L 813 88
L 813 88
L 813 88
L 813 88
L 813 88
L 813 88
L 813 88
L 813 88
L 813 88
L 813 88
L 814 88
L 814 88
L 814 88
L 814 88
L 814 87
L 814 87
L 814 87
L 815 87
L 815 87
L 815 87
L 815 87
L 815 87
L 815 87
L 815 87
L 815 87
L 816 87
L 816 87
L 816 87
L 816 87
L 816 87
L 816 87
L 816 87
L 816 87
L 816 86
L 816 86
L 816 86
L 816 86
L 817 86
L 817 86
L 817 86
L 817 86
L 817 86
L 817 86
L 817 86
L 817 86
L 817 86
L 817 86
L 817 86
L 817 86
L 817 86
L 817 86
L 817 86
L 818 85
L 818 85
L 818 85
L 818 85
L 818 85
L 818 85
L 818 85
L 818 85
L 818 85
L 818 85
L 819 85
L 819 85
L 819 85
L 819 85
L 819 85
L 819 85
L 819 85
L 819 85
L 819 85
L 819 84
L 820 84
L 820 84
L 820 84
L 820 84
L 820 84
L 820 84
L 820 84
L 820 84
L 821 84
L 821 84
L 821 84
L 821 84
L 821 84
L 821 84
L 821 84
L 821 84
L 821 84
L 821 83
L 821 83
L 822 83
L 822 83
L 822 83
L 824 83
L 824 83
L 826 83
L 827 83
L 827 83
L 827 83
L 827 83
L 827 83
L 827 83
L 827 83
L 827 83
L 828 83
L 828 83
L 828 83
L 828 82
L 828 82
L 828 82
L 828 82
L 828 82
L 828 82
L 828 82
L 828 82
L 828 82
L 828 82
L 828 82
L 828 82
L 828 82
L 828 82
L 828 82
L 828 82
L 828 82
L 828 82
L 828 82
L 828 81
L 828 81
L 828 81
L 828 81
L 828 81
L 828 81
L 828 81
L 828 81
L 828 81
L 828 81
L 828 81
L 828 81
L 828 81
L 828 81
L 828 81
L 828 81
L 828 81
L 828 81
L 828 81
L 828 80
L 828 80
L 828 80
L 828 80
L 828 80
L 828 80
L 828 80
L 828 80
L 828 80
L 828 80
L 828 80
L 828 80
L 828 80
L 828 80
L 828 80
L 828 80
L 829 80
L 829 80
L 829 80
L 829 79
L 829 79
L 829 79
L 829 79
L 829 79
L 829 79
L 829 79
L 829 79
L 829 79
L 829 79
L 829 79
L 829 79
L 829 79
L 829 79
L 829 79
L 829 79
L 829 79
L 829 79
L 829 79
L 829 78
L 829 78
L 829 78
L 829 78
L 829 78
L 829 78
L 829 78
L 829 78
L 829 78
L 829 78
L 829 78
L 830 78
L 830 78
L 830 78
L 830 78
L 830 78
L 830 78
L 830 78
L 830 77
L 830 77
L 830 77
L 830 77
L 830 77
L 830 77
L 830 77
L 830 77
L 830 77
L 830 77
L 830 77
L 830 77
L 831 77
L 831 77
L 831 77
L 831 77
L 831 77
L 831 77
L 831 77
L 831 76
L 831 76
L 831 76
L 831 76
L 831 76
L 831 76
L 831 76
L 831 76
L 831 76
L 831 76
L 831 76
L 831 76
L 832 76
L 832 76
L 832 76
L 832 76
L 832 76
L 832 76
L 832 76
L 832 75
L 832 75
L 832 75
L 832 75
L 832 75
L 832 75
L 832 75
L 832 75
L 832 75
L 832 75
L 832 75
L 832 75
L 832 75
L 833 75
L 833 75
L 833 75
L 833 75
L 833 75
L 833 75
L 833 74
L 833 74
L 833 74
L 833 74
L 833 74
L 833 74
L 833 74
L 833 74
L 833 74
L 833 74
L 833 74
L 833 74
L 833 74
L 833 74
L 833 74
L 833 74
L 833 74
L 833 74
L 834 74
L 834 73
L 834 73
L 834 73
L 834 73
L 834 73
L 834 73
L 834 73
L 834 73
L 834 73
L 834 73
L 834 73
L 834 73
L 834 73
L 834 73
L 834 73
L 834 73
L 834 73
L 834 73
L 834 72
L 834 72
L 835 72
L 835 72
L 835 72
L 835 72
L 835 72
L 835 72
L 835 72
L 835 72
L 835 72
L 836 72
L 836 72
L 836 72
L 836 72
L 837 72
L 838 72
L 838 72
L 838 72
L 839 71
L 840 71
L 842 71
L 842 71
L 842 71
L 842 71
L 842 71
L 842 71
L 842 71
L 842 71
L 842 71
L 842 71
L 842 71
L 842 71
L 842 71
L 842 71
L 842 71
L 842 71
L 842 71
L 842 70
L 842 70
L 842 70
L 842 70
L 842 70
L 842 70
L 842 70
L 842 70
L 842 70
L 843 70
L 843 70
L 843 70
L 843 70
L 843 70
L 843 70
L 843 70
L 843 70
L 843 70
L 843 70
L 843 69
L 843 69
L 843 69
L 843 69
L 843 69
L 843 69
L 843 69
L 843 69
L 843 69
L 843 69
L 843 69
L 843 69
L 843 69
L 843 69
L 843 69
L 843 69
L 843 69
L 843 69
L 843 69
L 843 68
L 843 68
L 843 68
L 843 68
L 843 68
L 843 68
L 843 68
L 843 68
L 843 68
L 843 68
L 843 68
L 843 68
L 843 68
L 843 68
L 843 68
L 843 68
L 843 68
L 843 68
L 844 68
L 844 67
L 844 67
L 844 67
L 844 67
L 844 67
L 844 67
L 844 67
L 844 67
L 844 67
L 844 67
L 844 67
L 844 67
L 844 67
L 844 67
L 844 67
L 844 67
L 844 67
L 844 67
L 844 66
L 844 66
L 844 66
L 844 66
L 844 66
L 845 66
L 845 66
L 845 66
L 845 66
L 845 66
L 845 66
L 845 66
L 845 66
L 845 66
L 845 66
L 845 66
L 845 66
L 845 66
L 845 66
L 845 65
L 845 65
L 845 65
L 845 65
L 845 65
L 845 65
L 845 65
L 845 65
L 845 65
L 845 65
L 845 65
L 845 65
L 845 65
L 845 65
L 845 65
L 845 65
L 846 65
L 846 65
L 846 65
L 846 64
L 846 64
L 846 64
L 846 64
L 846 64
L 846 64
L 846 64
L 846 64
L 846 64
L 846 64
L 846 64
L 846 64
L 846 64
L 846 64
L 846 64
L 846 64
L 846 64
L 846 64
L 846 64
L 846 63
L 846 63
L 846 63
L 846 63
L 846 63
L 846 63
L 847 63
L 847 63
L 847 63
L 847 63
L 847 63
L 847 63
L 847 63
L 847 63
L 847 63
L 847 63
L 847 63
L 847 63
L 847 63
L 847 62
L 847 62
L 847 62
L 847 62
L 847 62
L 847 62
L 847 62
L 847 62
L 847 62
L 847 62
L 847 62
L 847 62
L 847 62
L 847 62
L 847 62
L 847 62
L 847 62
L 848 62
L 848 62
L 848 61
L 848 61
L 848 61
L 848 61
L 848 61
L 848 61
L 848 61
L 848 61
L 848 61
L 848 61
L 848 61
L 848 61
L 848 61
L 849 61
L 849 61
L 849 61
L 849 61
L 849 61
L 849 60
L 849 60
L 849 60
L 849 60
L 849 60
L 850 60
L 850 60
L 850 60
L 850 60
L 850 60
L 850 60
L 850 60
L 851 60
L 851 60
L 851 60
L 851 60
L 851 60
L 851 60
L 851 60
L 851 59
L 851 59
L 851 59
L 852 59
L 852 59
L 852 59
L 852 59
L 853 59
L 855 59
L 855 59
L 855 59
L 856 59
L 856 59
L 856 59
L 857 59
L 857 59
L 857 59
L 857 59
L 857 59
L 857 58
L 857 58
L 857 58
L 857 58
L 857 58
L 857 58
L 857 58
L 857 58
L 857 58
L 857 58
L 857 58
L 857 58
L 858 58
L 858 58
L 858 58
L 858 58
L 858 58
L 858 58
L 858 58
L 858 57
L 858 57
L 858 57
L 858 57
L 858 57
L 858 57
L 858 57
L 858 57
L 858 57
L 858 57
L 858 57
L 858 57
L 858 57
L 858 57
L 858 57
L 858 57
L 858 57
L 858 57
L 858 57
L 858 56
L 858 56
L 858 56
L 858 56
L 858 56
L 858 56
L 859 56
L 859 56
L 859 56
L 859 56
L 859 56
L 859 56
L 859 56
L 859 56
L 859 56
L 859 56
L 859 56
L 859 56
L 859 55
L 859 55
L 859 55
L 859 55
L 859 55
L 860 55
L 860 55
L 860 55
L 860 55
L 860 55
L 860 55
L 860 55
L 860 55
L 860 55
L 860 55
L 860 55
L 860 55
L 860 55
L 860 55
L 860 54
L 860 54
L 860 54
L 860 54
L 860 54
L 860 54
L 861 54
L 861 54
L 861 54
L 861 54
L 861 54
L 861 54
L 861 54
L 861 54
L 861 54
L 861 54
L 861 54
L 861 54
L 861 54
L 861 53
L 861 53
L 861 53
L 861 53
L 861 53
L 861 53
L 862 53
L 862 53
L 862 53
L 862 53
L 862 53
L 862 53
L 862 53
L 862 53
L 862 53
L 862 53
L 862 53
L 862 53
L 862 53
L 862 52
L 862 52
L 862 52
L 862 52
L 862 52
L 862 52
L 862 52
L 862 52
L 862 52
L 863 52
L 863 52
L 863 52
L 863 52
L 863 52
L 863 52
L 863 52
L 863 52
L 863 52
L 863 52
L 863 51
L 863 51
L 864 51
L 864 51
L 864 51
L 864 51
L 864 51
L 864 51
L 865 51
L 865 51
L 865 51
L 865 51
L 865 51
L 866 51
L 866 51
L 866 51
L 866 51
L 866 51
L 866 51
L 866 50
L 866 50
L 866 50
L 866 50
L 867 50
L 867 50
L 867 50
L 867 50
L 868 50
L 871 50
L 871 50
L 871 50
L 872 50
L 872 50
L 872 50
L 872 50
L 872 50
L 872 50
L 872 49
L 872 49
L 872 49
L 872 49
L 872 49
L 872 49
L 872 49
L 872 49
L 872 49
L 872 49
L 872 49
L 873 49
L 873 49
L 873 49
L 873 49
L 873 49
L 873 49
L 873 49
L 873 49
L 873 48
L 873 48
L 873 48
L 873 48
L 873 48
L 873 48
L 873 48
L 873 48
L 873 48
L 873 48
L 873 48
L 873 48
L 873 48
L 873 48
L 873 48
L 873 48
L 873 48
L 873 48
L 873 48
L 874 47
L 874 47
L 874 47
L 874 47
L 874 47
L 874 47
L 874 47
L 874 47
L 874 47
L 874 47
L 875 47
L 875 47
L 875 47
L 875 47
L 875 47
L 875 47
L 875 47
L 875 47
L 875 47
L 875 46
L 875 46
L 875 46
L 876 46
L 876 46
L 876 46
L 876 46
L 876 46
L 876 46
L 876 46
L 876 46
L 876 46
L 876 46
L 876 46
L 876 46
L 876 46
L 876 46
L 876 46
L 876 46
L 876 45
L 876 45
L 876 45
L 877 45
L 877 45
L 877 45
L 877 45
L 877 45
L 877 45
L 877 45
L 877 45
L 877 45
L 877 45
L 877 45
L 877 45
L 877 45
L 877 45
L 877 45
L 878 45
L 878 44
L 878 44
L 878 44
L 878 44
L 878 44
L 878 44
L 878 44
L 878 44
L 878 44
L 878 44
L 878 44
L 878 44
L 878 44
L 879 44
L 879 44
L 879 44
L 879 44
L 879 44
L 880 43
L 880 43
L 880 43
L 880 43
L 881 43
L 881 43
L 881 43
L 881 43
L 881 43
L 881 43
L 885 43
L 887 43
L 887 43
L 887 43
L 888 43
L 888 43
L 888 43
L 888 43
L 888 43
L 889 42
L 889 42
L 889 42
L 890 42
L 890 42
L 890 42
L 890 42
L 890 42
L 890 42
L 891 42
L 891 42
L 891 42
L 891 42
L 892 42
L 892 42
L 892 42
L 892 42
L 893 42
L 893 42
L 893 41
L 894 41
L 894 41
L 894 41
L 894 41
L 894 41
L 894 41
L 894 41
L 894 41
L 894 41
L 894 41
L 894 41
L 894 41
L 895 41
L 895 41
L 895 41
L 895 41
L 895 41
L 895 41
L 895 40
L 895 40
L 895 40
L 895 40
L 896 40
L 896 40
L 896 40
L 896 40
L 896 40
L 896 40
L 896 40
L 896 40
L 896 40
L 897 40
L 897 40
L 897 40
L 897 40
L 897 40
L 897 40
L 898 39
L 898 39
L 901 39
L 901 39
L 902 39
L 902 39
L 902 39
L 902 39
L 903 39
L 903 39
L 903 39
L 903 39
L 903 39
L 903 39
L 904 39
L 904 39
L 904 39
L 904 39
L 904 38
L 904 38
L 905 38
L 905 38
L 905 38
L 906 38
L 906 38
L 907 38
L 908 38
L 908 38
L 909 38
L 909 38
L 909 38
L 909 38
L 909 38
L 909 38
L 909 38
L 910 38
L 910 38
L 910 37
L 910 37
L 910 37
L 910 37
L 910 37
L 910 37
L 910 37
L 910 37
L 910 37
L 911 37
L 911 37
L 911 37
L 912 37
L 915 37
L 915 37
L 916 37
L 916 37
L 917 37
L 917 37
L 917 36
L 917 36
L 917 36
L 917 36
L 917 36
L 917 36
L 917 36
L 917 36
L 917 36
L 917 36
L 917 36
L 917 36
L 917 36
L 917 36
L 917 36
L 917 36
L 917 36
L 917 36
L 917 36
L 917 35
L 917 35
L 918 35
L 918 35
L 918 35
L 918 35
L 918 35
L 918 35
L 918 35
L 918 35
L 918 35
L 918 35
L 918 35
L 918 35
L 918 35
L 918 35
L 918 35
L 918 35
L 918 35
L 919 34
L 919 34
L 919 34
L 919 34
L 919 34
L 919 34
L 919 34
L 919 34
L 919 34
L 919 34
L 919 34
L 920 34
L 920 34
L 920 34
L 920 34
L 920 34
L 920 34
L 920 34
L 920 34
L 920 33
L 920 33
L 920 33
L 920 33
L 920 33
L 920 33
L 920 33
L 920 33
L 920 33
L 920 33
L 921 33
L 921 33
L 921 33
L 921 33
L 921 33
L 921 33
L 921 33
L 921 33
L 921 32
L 921 32
L 921 32
L 921 32
L 921 32
L 921 32
L 921 32
L 921 32
L 921 32
L 921 32
L 921 32
L 921 32
L 921 32
L 921 32
L 922 32
L 922 32
L 922 32
L 922 32
L 922 32
L 922 31
L 922 31
L 922 31
L 922 31
L 922 31
L 922 31
L 922 31
L 922 31
L 922 31
L 922 31
L 923 31
L 923 31
L 923 31
L 923 31
L 923 31
L 923 31
L 923 31
L 924 31
L 924 31
L 924 30
L 924 30
L 924 30
L 924 30
L 924 30
L 924 30
L 924 30
L 924 30
L 925 30
L 925 30
L 925 30
L 925 30
L 925 30
L 925 30
L 926 30
L 926 30
L 926 30
L 926 30
L 929 30
L 931 29
L 931 29
L 931 29
L 932 29
L 932 29
L 932 29
L 932 29
L 932 29
L 932 29
L 932 29
L 932 29
L 932 29
L 932 29
L 932 29
L 932 29
L 932 29
L 932 29
L 932 29
L 933 29
L 933 28
L 933 28
L 933 28
L 933 28
L 933 28
L 933 28
L 933 28
L 933 28
L 933 28
L 933 28
L 933 28
L 933 28
L 933 28
L 933 28
L 933 28
L 933 28
L 933 28
L 934 28
L 934 28
L 934 27
L 934 27
L 934 27
L 934 27
L 934 27
L 934 27
L 934 27
L 934 27
L 934 27
L 934 27
L 935 27
L 935 27
L 935 27
L 935 27
L 935 27
L 935 27
L 935 27
L 935 27
L 935 26
L 935 26
L 935 26
L 935 26
L 935 26
L 935 26
L 935 26
L 935 26
L 935 26
L 935 26
L 935 26
L 935 26
L 935 26
L 936 26
L 936 26
L 936 26
L 936 26
L 936 26
L 936 26
L 936 25
L 936 25
L 936 25
L 936 25
L 936 25
L 936 25
L 936 25
L 936 25
L 937 25
L 937 25
L 937 25
L 937 25
L 937 25
L 937 25
L 937 25
L 937 25
L 937 25
L 937 25
L 937 25
L 937 24
L 937 24
L 937 24
L 937 24
L 937 24
L 937 24
L 937 24
L 937 24
L 937 24
L 938 24
L 938 24
L 938 24
L 938 24
L 938 24
L 938 24
L 938 24
L 938 24
L 938 24
L 938 24
L 938 23
L 938 23
L 939 23
L 939 23
L 939 23
L 939 23
L 939 23
L 939 23
L 939 23
L 939 23
L 939 23
L 939 23
L 939 23
L 939 23
L 940 23
L 940 23
L 940 23
L 940 23
L 940 23
L 940 22
L 940 22
L 940 22
L 940 22
L 940 22
L 940 22
L 940 22
L 940 22
L 940 22
L 940 22
L 940 22
L 940 22
L 941 22
L 941 22
L 941 22
L 941 22
L 941 22
L 941 22
L 941 21
L 941 21
L 942 21
L 942 21
L 942 21
L 942 21
L 943 21
L 943 21
L 943 21
L 944 21
L 946 21
L 946 21
L 946 21
L 946 21
L 946 21
L 946 21
L 946 21
L 946 21
L 946 21
L 946 20
L 946 20
L 947 20
L 947 20
L 947 20
L 947 20
L 947 20
L 947 20
L 947 20
L 947 20
L 947 20
L 947 20
L 947 20
L 947 20
L 947 20
L 947 20
L 947 20
L 947 20
L 947 20
L 947 19
L 947 19
L 947 19
L 947 19
L 947 19
L 947 19
L 947 19
L 947 19
L 947 19
L 947 19
L 947 19
L 947 19
L 947 19
L 947 19
L 948 19
L 948 19
L 948 19
L 948 19
L 948 19
L 948 18
L 948 18
L 948 18
L 948 18
L 948 18
L 948 18
L 948 18
L 948 18
L 948 18
L 949 18
L 949 18
L 949 18
L 949 18
L 949 18
L 949 18
L 949 18
L 949 18
L 949 18
L 949 18
L 949 17
L 949 17
L 949 17
L 949 17
L 949 17
L 949 17
L 949 17
L 949 17
L 949 17
L 949 17
L 949 17
L 949 17
L 949 17
L 949 17
L 949 17
L 949 17
L 949 17
L 949 17
L 950 17
L 950 16
L 950 16
L 950 16
L 950 16
L 950 16
L 950 16
L 950 16
L 950 16
L 950 16
L 950 16
L 950 16
L 950 16
L 950 16
L 950 16
L 950 16
L 950 16
L 950 16
L 950 16
L 950 15
L 950 15
L 951 15
L 951 15
L 951 15
L 951 15
L 951 15
L 951 15
L 951 15
L 951 15
L 951 15
L 951 15
L 951 15
L 951 15
L 951 15
L 951 15
L 951 15
L 951 15
L 951 15
L 951 14
L 951 14
L 951 14
L 951 14
L 951 14
L 951 14
L 951 14
L 951 14
L 951 14
L 951 14
L 951 14
L 952 14
L 952 14
L 952 14
L 952 14
L 952 14
L 952 14
L 952 14
L 952 14
L 952 13
L 952 13
L 952 13
L 952 13
L 952 13
L 952 13
L 952 13
L 952 13
L 952 13
L 952 13
L 952 13
L 952 13
L 952 13
L 952 13
L 952 13
L 952 13
L 952 13
L 952 13
L 952 13
L 952 12
L 953 12
L 953 12
L 953 12
L 953 12
L 953 12
L 953 12
L 953 12
L 953 12
L 953 12
L 953 12
L 953 12
L 953 12
L 954 12
L 954 12
L 954 12
L 954 12
L 954 12
L 954 12
L 954 11
L 954 11
L 954 11
L 954 11
L 955 11
L 955 11
L 955 11
L 955 11
L 955 11
L 956 11
L 956 11
L 956 11
L 956 11
L 956 11
L 956 11
L 956 11
L 956 11
L 957 11" style="stroke-width:2;stroke:rgba(129,199,239,1.0);fill:none"/></svg>