<svg xmlns="http://www.w3.org/2000/svg" xmlns:xlink="http://www.w3.org/1999/xlink" width="1024" height="400">\n<path  d="M 0 0
L 1024 0
L 1024 400
L 0 400
L 0 0" style="stroke-width:0;stroke:rgba(255,255,255,1.0);fill:rgba(255,255,255,1.0)"/><path  d="M 38 11
L 957 11
L 957 351
L 38 351
L 38 11" style="stroke-width:0;stroke:rgba(255,255,255,1.0);fill:rgba(255,255,255,1.0)"/><path  d="M 38 351
L 957 351" style="stroke-width:2;stroke:rgba(85,85,85,1.0);fill:none"/><path  d="M 38 351
L 38 356" style="stroke-width:2;stroke:rgba(85,85,85,1.0);fill:none"/><text x="5" y="373" style="stroke-width:0;stroke:none;fill:rgba(51,51,51,1.0);font-size:12.8px;font-family:'Roboto Medium',sans-serif">2018-11-23</text><path  d="M 153 351
L 153 356" style="stroke-width:2;stroke:rgba(85,85,85,1.0);fill:none"/><text x="120" y="373" style="stroke-width:0;stroke:none;fill:rgba(51,51,51,1.0);font-size:12.8px;font-family:'Roboto Medium',sans-serif">2018-12-03</text><path  d="M 268 351
L 268 356" style="stroke-width:2;stroke:rgba(85,85,85,1.0);fill:none"/><text x="235" y="373" style="stroke-width:0;stroke:none;fill:rgba(51,51,51,1.0);font-size:12.8px;font-family:'Roboto Medium',sans-serif">2018-12-13</text><path  d="M 383 351
L 383 356" style="stroke-width:2;stroke:rgba(85,85,85,1.0);fill:none"/><text x="350" y="373" style="stroke-width:0;stroke:none;fill:rgba(51,51,51,1.0);font-size:12.8px;font-family:'Roboto Medium',sans-serif">2018-12-23</text><path  d="M 498 351
L 498 356" style="stroke-width:2;stroke:rgba(85,85,85,1.0);fill:none"/><text x="465" y="373" style="stroke-width:0;stroke:none;fill:rgba(51,51,51,1.0);font-size:12.8px;font-family:'Roboto Medium',sans-serif">2019-01-02</text><path  d="M 613 351
L 613 356" style="stroke-width:2;stroke:rgba(85,85,85,1.0);fill:none"/><text x="580" y="373" style="stroke-width:0;stroke:none;fill:rgba(51,51,51,1.0);font-size:12.8px;font-family:'Roboto Medium',sans-serif">2019-01-12</text><path  d="M 728 351
L 728 356" style="stroke-width:2;stroke:rgba(85,85,85,1.0);fill:none"/><text x="695" y="373" style="stroke-width:0;stroke:none;fill:rgba(51,51,51,1.0);font-size:12.8px;font-family:'Roboto Medium',sans-serif">2019-01-22</text><path  d="M 843 351
L 843 356" style="stroke-width:2;stroke:rgba(85,85,85,1.0);fill:none"/><text x="810" y="373" style="stroke-width:0;stroke:none;fill:rgba(51,51,51,1.0);font-size:12.8px;font-family:'Roboto Medium',sans-serif">2019-02-02</text><path  d="M 957 351
L 957 356" style="stroke-width:2;stroke:rgba(85,85,85,1.0);fill:none"/><text x="924" y="373" style="stroke-width:0;stroke:none;fill:rgba(51,51,51,1.0);font-size:12.8px;font-family:'Roboto Medium',sans-serif">2019-02-12</text><text x="483" y="395" style="stroke-width:0;stroke:none;fill:rgba(51,51,51,1.0);font-size:12.8px;font-family:'Roboto Medium',sans-serif">Time</text><path  d="M 959 351
L 959 11" style="stroke-width:2;stroke:rgba(85,85,85,1.0);fill:none"/><path  d="M 959 351
L 964 351" style="stroke-width:2;stroke:rgba(85,85,85,1.0);fill:none"/><text x="969" y="357" style="stroke-width:0;stroke:none;fill:rgba(51,51,51,1.0);font-size:12.8px;font-family:'Roboto Medium',sans-serif">0</text><path  d="M 959 308
L 964 308" style="stroke-width:2;stroke:rgba(85,85,85,1.0);fill:none"/><text x="969" y="314" style="stroke-width:0;stroke:none;fill:rgba(51,51,51,1.0);font-size:12.8px;font-family:'Roboto Medium',sans-serif">950</text><path  d="M 959 266
L 964 266" style="stroke-width:2;stroke:rgba(85,85,85,1.0);fill:none"/><text x="969" y="272" style="stroke-width:0;stroke:none;fill:rgba(51,51,51,1.0);font-size:12.8px;font-family:'Roboto Medium',sans-serif">1900</text><path  d="M 959 223
L 964 223" style="stroke-width:2;stroke:rgba(85,85,85,1.0);fill:none"/><text x="969" y="229" style="stroke-width:0;stroke:none;fill:rgba(51,51,51,1.0);font-size:12.8px;font-family:'Roboto Medium',sans-serif">2850</text><path  d="M 959 181
L 964 181" style="stroke-width:2;stroke:rgba(85,85,85,1.0);fill:none"/><text x="969" y="187" style="stroke-width:0;stroke:none;fill:rgba(51,51,51,1.0);font-size:12.8px;font-family:'Roboto Medium',sans-serif">3800</text><path  d="M 959 138
L 964 138" style="stroke-width:2;stroke:rgba(85,85,85,1.0);fill:none"/><text x="969" y="144" style="stroke-width:0;stroke:none;fill:rgba(51,51,51,1.0);font-size:12.8px;font-family:'Roboto Medium',sans-serif">4750</text><path  d="M 959 96
L 964 96" style="stroke-width:2;stroke:rgba(85,85,85,1.0);fill:none"/><text x="969" y="102" style="stroke-width:0;stroke:none;fill:rgba(51,51,51,1.0);font-size:12.8px;font-family:'Roboto Medium',sans-serif">5700</text><path  d="M 959 53
L 964 53" style="stroke-width:2;stroke:rgba(85,85,85,1.0);fill:none"/><text x="969" y="59" style="stroke-width:0;stroke:none;fill:rgba(51,51,51,1.0);font-size:12.8px;font-family:'Roboto Medium',sans-serif">6650</text><path  d="M 959 11
L 964 11" style="stroke-width:2;stroke:rgba(85,85,85,1.0);fill:none"/><text x="969" y="17" style="stroke-width:0;stroke:none;fill:rgba(51,51,51,1.0);font-size:12.8px;font-family:'Roboto Medium',sans-serif">7600</text><text x="1009" y="150" style="stroke-width:0;stroke:none;fill:rgba(51,51,51,1.0);font-size:12.8px;font-family:'Roboto Medium',sans-serif" transform="rotate(90.00,1009,150)">Stargazers</text><path  d="M 38 351
L 98 350
L 140 350
L 142 350
L 150 350
L 150 350
L 151 350
L 151 350
L 151 350
L 151 350
L 152 350
L 152 350
L 152 350
L 152 350
L 152 350
L 152 350
L 152 350
L 153 350
L 153 350
L 153 350
L 153 350
L 153 350
L 155 350
L 155 349
L 162 349
L 162 349
L 162 349
L 162 349
L 163 349
L 164 349
L 165 349
L 166 349
L 167 349
L 167 349
L 167 349
L 167 349
L 167 349
L 167 349
L 171 349
L 172 349
L 173 349
L 173 349
L 173 349
L 173 349
L 173 349
L 173 348
L 173 348
L 174 348
L 174 348
L 174 348
L 175 348
L 176 348
L 176 348
L 176 348
L 176 348
L 177 348
L 177 348
L 177 348
L 177 348
L 178 348
L 178 348
L 178 348
L 178 348
L 178 348
L 179 348
L 179 348
L 179 348
L 179 348
L 180 347
L 183 347
L 184 347
L 184 347
L 185 347
L 185 347
L 185 347
L 185 347
L 185 347
L 185 347
L 186 347
L 186 347
L 186 347
L 186 347
L 186 347
L 186 347
L 186 347
L 186 347
L 186 347
L 186 347
L 186 347
L 186 347
L 186 346
L 186 346
L 186 346
L 186 346
L 186 346
L 186 346
L 186 346
L 186 346
L 186 346
L 186 346
L 186 346
L 186 346
L 186 346
L 186 346
L 186 346
L 186 346
L 186 346
L 186 346
L 186 346
L 187 346
L 187 346
L 187 346
L 187 345
L 187 345
L 187 345
L 187 345
L 187 345
L 187 345
L 187 345
L 187 345
L 187 345
L 187 345
L 187 345
L 187 345
L 187 345
L 187 345
L 187 345
L 187 345
L 187 345
L 188 345
L 188 345
L 188 345
L 188 345
L 188 345
L 188 345
L 188 344
L 188 344
L 188 344
L 188 344
L 189 344
L 189 344
L 189 344
L 189 344
L 189 344
L 189 344
L 189 344
L 189 344
L 189 344
L 189 344
L 189 344
L 189 344
L 191 344
L 192 344
L 195 344
L 195 344
L 195 344
L 196 344
L 196 343
L 196 343
L 196 343
L 196 343
L 197 343
L 197 343
L 197 343
L 197 343
L 198 343
L 198 343
L 198 343
L 198 343
L 199 343
L 199 343
L 199 343
L 199 343
L 199 343
L 199 343
L 200 343
L 200 343
L 201 343
L 207 343
L 207 342
L 207 342
L 207 342
L 209 342
L 210 342
L 210 342
L 213 342
L 214 342
L 214 342
L 216 342
L 219 342
L 219 342
L 221 342
L 221 342
L 222 342
L 222 342
L 222 342
L 223 342
L 223 342
L 223 342
L 223 342
L 223 342
L 224 342
L 224 341
L 226 341
L 229 341
L 229 341
L 229 341
L 230 341
L 230 341
L 230 341
L 232 341
L 236 341
L 236 341
L 241 341
L 243 341
L 243 341
L 244 341
L 244 341
L 246 341
L 246 341
L 252 341
L 252 341
L 253 341
L 253 341
L 253 340
L 254 340
L 254 340
L 256 340
L 257 340
L 259 340
L 260 340
L 264 340
L 268 340
L 269 340
L 274 340
L 276 340
L 276 340
L 277 340
L 277 340
L 277 340
L 278 340
L 279 340
L 280 340
L 280 340
L 281 340
L 281 340
L 282 339
L 284 339
L 287 339
L 288 339
L 289 339
L 289 339
L 289 339
L 290 339
L 291 339
L 291 339
L 292 339
L 292 339
L 292 339
L 293 339
L 298 339
L 298 339
L 298 339
L 299 339
L 300 339
L 302 339
L 303 339
L 303 339
L 304 339
L 308 338
L 309 338
L 309 338
L 309 338
L 309 338
L 310 338
L 312 338
L 312 338
L 314 338
L 315 338
L 320 338
L 321 338
L 323 338
L 323 338
L 324 338
L 324 338
L 324 338
L 325 338
L 326 338
L 327 338
L 327 338
L 332 338
L 332 337
L 333 337
L 334 337
L 334 337
L 334 337
L 334 337
L 334 337
L 336 337
L 343 337
L 343 337
L 343 337
L 343 337
L 345 337
L 345 337
L 346 337
L 346 337
L 346 337
L 348 337
L 348 337
L 348 337
L 349 337
L 349 337
L 350 336
L 354 336
L 355 336
L 355 336
L 355 336
L 355 336
L 355 336
L 355 336
L 355 336
L 355 336
L 355 336
L 356 336
L 356 336
L 357 336
L 357 336
L 357 336
L 357 336
L 357 336
L 357 336
L 357 336
L 357 336
L 357 336
L 357 336
L 357 335
L 357 335
L 357 335
L 357 335
L 357 335
L 357 335
L 357 335
L 357 335
L 357 335
L 357 335
L 357 335
L 358 335
L 358 335
L 358 335
L 358 335
L 358 335
L 358 335
L 358 335
L 358 335
L 358 335
L 358 335
L 358 335
L 358 334
L 358 334
L 358 334
L 358 334
L 358 334
L 358 334
L 358 334
L 358 334
L 358 334
L 358 334
L 358 334
L 358 334
L 358 334
L 359 334
L 359 334
L 359 334
L 359 334
L 359 334
L 359 334
L 359 334
L 359 334
L 360 334
L 360 334
L 360 333
L 360 333
L 360 333
L 360 333
L 360 333
L 360 333
L 360 333
L 360 333
L 360 333
L 361 333
L 361 333
L 361 333
L 361 333
L 361 333
L 361 333
L 362 333
L 365 333
L 366 333
L 366 333
L 366 333
L 366 333
L 366 333
L 366 332
L 366 332
L 366 332
L 366 332
L 366 332
L 366 332
L 366 332
L 366 332
L 367 332
L 367 332
L 367 332
L 367 332
L 367 332
L 367 332
L 367 332
L 367 332
L 367 332
L 367 332
L 367 332
L 368 332
L 368 332
L 368 332
L 368 331
L 368 331
L 368 331
L 368 331
L 368 331
L 368 331
L 368 331
L 368 331
L 368 331
L 368 331
L 368 331
L 368 331
L 368 331
L 369 331
L 369 331
L 369 331
L 369 331
L 369 331
L 369 331
L 369 331
L 369 331
L 369 331
L 369 331
L 369 330
L 369 330
L 369 330
L 369 330
L 369 330
L 369 330
L 369 330
L 369 330
L 369 330
L 369 330
L 369 330
L 369 330
L 369 330
L 369 330
L 370 330
L 370 330
L 370 330
L 370 330
L 370 330
L 370 330
L 370 330
L 370 330
L 370 329
L 371 329
L 371 329
L 371 329
L 371 329
L 371 329
L 371 329
L 371 329
L 371 329
L 371 329
L 371 329
L 371 329
L 371 329
L 371 329
L 371 329
L 371 329
L 371 329
L 371 329
L 371 329
L 371 329
L 372 329
L 372 329
L 372 328
L 372 328
L 372 328
L 372 328
L 372 328
L 372 328
L 372 328
L 372 328
L 372 328
L 372 328
L 372 328
L 372 328
L 372 328
L 372 328
L 372 328
L 372 328
L 372 328
L 372 328
L 372 328
L 372 328
L 373 328
L 373 328
L 373 328
L 373 327
L 373 327
L 373 327
L 373 327
L 373 327
L 374 327
L 374 327
L 374 327
L 376 327
L 376 327
L 376 327
L 376 327
L 376 327
L 377 327
L 377 327
L 377 327
L 377 327
L 377 327
L 377 327
L 377 327
L 377 327
L 377 327
L 377 326
L 377 326
L 377 326
L 377 326
L 377 326
L 377 326
L 378 326
L 378 326
L 378 326
L 378 326
L 378 326
L 378 326
L 378 326
L 378 326
L 378 326
L 378 326
L 378 326
L 378 326
L 378 326
L 378 326
L 378 326
L 378 326
L 378 325
L 378 325
L 378 325
L 378 325
L 378 325
L 378 325
L 379 325
L 379 325
L 379 325
L 379 325
L 379 325
L 379 325
L 379 325
L 379 325
L 379 325
L 379 325
L 379 325
L 379 325
L 379 325
L 379 325
L 379 325
L 379 325
L 379 325
L 379 324
L 379 324
L 379 324
L 379 324
L 380 324
L 380 324
L 380 324
L 380 324
L 380 324
L 380 324
L 380 324
L 380 324
L 380 324
L 380 324
L 380 324
L 380 324
L 380 324
L 380 324
L 380 324
L 380 324
L 380 324
L 380 324
L 380 323
L 380 323
L 380 323
L 380 323
L 380 323
L 381 323
L 381 323
L 381 323
L 381 323
L 381 323
L 381 323
L 381 323
L 381 323
L 381 323
L 381 323
L 381 323
L 382 323
L 382 323
L 382 323
L 382 323
L 382 323
L 382 323
L 382 322
L 382 322
L 382 322
L 382 322
L 382 322
L 382 322
L 382 322
L 382 322
L 382 322
L 382 322
L 382 322
L 382 322
L 382 322
L 382 322
L 382 322
L 382 322
L 382 322
L 382 322
L 382 322
L 383 322
L 383 322
L 383 322
L 383 322
L 383 321
L 383 321
L 383 321
L 383 321
L 383 321
L 383 321
L 383 321
L 383 321
L 383 321
L 383 321
L 383 321
L 383 321
L 383 321
L 383 321
L 383 321
L 383 321
L 383 321
L 383 321
L 383 321
L 383 321
L 383 321
L 383 321
L 384 320
L 384 320
L 384 320
L 384 320
L 384 320
L 384 320
L 384 320
L 384 320
L 384 320
L 384 320
L 384 320
L 384 320
L 384 320
L 384 320
L 385 320
L 385 320
L 385 320
L 385 320
L 385 320
L 385 320
L 385 320
L 386 320
L 387 319
L 387 319
L 388 319
L 388 319
L 388 319
L 388 319
L 388 319
L 388 319
L 388 319
L 388 319
L 388 319
L 388 319
L 388 319
L 388 319
L 388 319
L 388 319
L 388 319
L 388 319
L 388 319
L 388 319
L 388 319
L 388 319
L 388 319
L 388 318
L 388 318
L 388 318
L 388 318
L 388 318
L 388 318
L 388 318
L 388 318
L 388 318
L 388 318
L 388 318
L 388 318
L 388 318
L 388 318
L 388 318
L 388 318
L 388 318
L 388 318
L 388 318
L 388 318
L 388 318
L 388 318
L 388 317
L 388 317
L 388 317
L 388 317
L 388 317
L 388 317
L 388 317
L 388 317
L 388 317
L 388 317
L 388 317
L 388 317
L 388 317
L 388 317
L 388 317
L 388 317
L 388 317
L 388 317
L 388 317
L 388 317
L 388 317
L 389 317
L 389 317
L 389 316
L 389 316
L 389 316
L 389 316
L 389 316
L 389 316
L 389 316
L 389 316
L 389 316
L 389 316
L 389 316
L 389 316
L 389 316
L 389 316
L 389 316
L 389 316
L 389 316
L 389 316
L 389 316
L 389 316
L 389 316
L 389 316
L 389 315
L 389 315
L 389 315
L 389 315
L 389 315
L 389 315
L 389 315
L 389 315
L 389 315
L 389 315
L 389 315
L 389 315
L 389 315
L 389 315
L 389 315
L 389 315
L 389 315
L 389 315
L 389 315
L 389 315
L 389 315
L 389 315
L 389 314
L 389 314
L 389 314
L 389 314
L 389 314
L 389 314
L 389 314
L 389 314
L 389 314
L 389 314
L 389 314
L 389 314
L 389 314
L 389 314
L 389 314
L 389 314
L 389 314
L 389 314
L 389 314
L 389 314
L 389 314
L 389 314
L 389 314
L 389 313
L 390 313
L 390 313
L 390 313
L 390 313
L 390 313
L 390 313
L 390 313
L 390 313
L 390 313
L 390 313
L 390 313
L 390 313
L 390 313
L 390 313
L 390 313
L 390 313
L 390 313
L 390 313
L 390 313
L 390 313
L 390 313
L 390 312
L 390 312
L 390 312
L 390 312
L 390 312
L 390 312
L 390 312
L 390 312
L 390 312
L 390 312
L 390 312
L 390 312
L 390 312
L 390 312
L 390 312
L 390 312
L 390 312
L 390 312
L 390 312
L 390 312
L 390 312
L 390 312
L 390 311
L 390 311
L 390 311
L 390 311
L 390 311
L 390 311
L 390 311
L 391 311
L 391 311
L 391 311
L 391 311
L 391 311
L 391 311
L 391 311
L 391 311
L 391 311
L 391 311
L 391 311
L 391 311
L 391 311
L 391 311
L 391 311
L 391 311
L 391 310
L 391 310
L 391 310
L 391 310
L 391 310
L 391 310
L 391 310
L 391 310
L 391 310
L 391 310
L 391 310
L 391 310
L 391 310
L 391 310
L 391 310
L 391 310
L 391 310
L 391 310
L 391 310
L 391 310
L 391 310
L 391 310
L 391 309
L 391 309
L 391 309
L 391 309
L 391 309
L 391 309
L 391 309
L 391 309
L 391 309
L 391 309
L 391 309
L 391 309
L 391 309
L 391 309
L 391 309
L 391 309
L 391 309
L 391 309
L 391 309
L 391 309
L 391 309
L 391 309
L 391 308
L 391 308
L 391 308
L 391 308
L 391 308
L 391 308
L 391 308
L 391 308
L 391 308
L 391 308
L 391 308
L 391 308
L 391 308
L 391 308
L 391 308
L 391 308
L 392 308
L 392 308
L 392 308
L 392 308
L 392 308
L 392 308
L 392 308
L 392 307
L 392 307
L 392 307
L 392 307
L 392 307
L 392 307
L 392 307
L 392 307
L 392 307
L 392 307
L 392 307
L 392 307
L 392 307
L 392 307
L 392 307
L 392 307
L 392 307
L 392 307
L 392 307
L 392 307
L 392 307
L 392 307
L 392 306
L 392 306
L 392 306
L 392 306
L 392 306
L 392 306
L 392 306
L 392 306
L 392 306
L 392 306
L 392 306
L 392 306
L 392 306
L 392 306
L 392 306
L 392 306
L 392 306
L 392 306
L 392 306
L 392 306
L 392 306
L 392 306
L 392 305
L 392 305
L 392 305
L 392 305
L 392 305
L 392 305
L 392 305
L 392 305
L 393 305
L 393 305
L 393 305
L 393 305
L 393 305
L 393 305
L 393 305
L 393 305
L 393 305
L 393 305
L 393 305
L 393 305
L 393 305
L 393 305
L 393 305
L 393 304
L 393 304
L 393 304
L 393 304
L 393 304
L 393 304
L 393 304
L 393 304
L 393 304
L 393 304
L 393 304
L 393 304
L 394 304
L 394 304
L 394 304
L 394 304
L 394 304
L 394 304
L 394 304
L 394 304
L 394 304
L 394 304
L 394 303
L 394 303
L 394 303
L 394 303
L 394 303
L 394 303
L 394 303
L 394 303
L 394 303
L 394 303
L 394 303
L 394 303
L 395 303
L 395 303
L 395 303
L 395 303
L 395 303
L 395 303
L 395 303
L 395 303
L 395 303
L 395 303
L 395 302
L 395 302
L 395 302
L 395 302
L 395 302
L 395 302
L 395 302
L 395 302
L 395 302
L 395 302
L 395 302
L 395 302
L 395 302
L 395 302
L 396 302
L 396 302
L 396 302
L 396 302
L 396 302
L 396 302
L 397 302
L 399 302
L 399 302
L 399 301
L 399 301
L 399 301
L 399 301
L 399 301
L 399 301
L 399 301
L 399 301
L 399 301
L 399 301
L 399 301
L 399 301
L 399 301
L 399 301
L 399 301
L 399 301
L 399 301
L 399 301
L 399 301
L 400 301
L 400 301
L 400 301
L 400 300
L 400 300
L 400 300
L 400 300
L 400 300
L 400 300
L 400 300
L 400 300
L 400 300
L 400 300
L 400 300
L 400 300
L 400 300
L 400 300
L 400 300
L 400 300
L 400 300
L 400 300
L 400 300
L 400 300
L 400 300
L 400 300
L 400 300
L 400 299
L 400 299
L 400 299
L 400 299
L 400 299
L 400 299
L 400 299
L 400 299
L 400 299
L 400 299
L 400 299
L 400 299
L 400 299
L 400 299
L 400 299
L 400 299
L 400 299
L 400 299
L 400 299
L 400 299
L 400 299
L 400 299
L 400 298
L 400 298
L 400 298
L 400 298
L 400 298
L 400 298
L 400 298
L 400 298
L 400 298
L 400 298
L 400 298
L 400 298
L 400 298
L 400 298
L 400 298
L 400 298
L 400 298
L 400 298
L 400 298
L 400 298
L 400 298
L 400 298
L 400 297
L 400 297
L 400 297
L 400 297
L 400 297
L 400 297
L 400 297
L 400 297
L 400 297
L 400 297
L 400 297
L 400 297
L 400 297
L 400 297
L 400 297
L 400 297
L 400 297
L 400 297
L 400 297
L 400 297
L 400 297
L 400 297
L 400 297
L 400 296
L 400 296
L 400 296
L 400 296
L 400 296
L 400 296
L 400 296
L 400 296
L 400 296
L 400 296
L 400 296
L 400 296
L 400 296
L 401 296
L 401 296
L 401 296
L 401 296
L 401 296
L 401 296
L 401 296
L 401 296
L 401 296
L 401 295
L 401 295
L 401 295
L 401 295
L 401 295
L 401 295
L 401 295
L 401 295
L 401 295
L 401 295
L 401 295
L 401 295
L 401 295
L 401 295
L 401 295
L 401 295
L 401 295
L 401 295
L 401 295
L 401 295
L 401 295
L 401 295
L 401 294
L 401 294
L 401 294
L 401 294
L 401 294
L 401 294
L 401 294
L 402 294
L 402 294
L 402 294
L 402 294
L 402 294
L 402 294
L 402 294
L 402 294
L 402 294
L 402 294
L 402 294
L 402 294
L 402 294
L 402 294
L 402 294
L 402 294
L 402 293
L 402 293
L 402 293
L 402 293
L 402 293
L 402 293
L 402 293
L 402 293
L 402 293
L 402 293
L 402 293
L 402 293
L 402 293
L 402 293
L 402 293
L 402 293
L 402 293
L 402 293
L 402 293
L 402 293
L 402 293
L 402 293
L 402 292
L 402 292
L 402 292
L 402 292
L 402 292
L 402 292
L 402 292
L 402 292
L 402 292
L 402 292
L 402 292
L 402 292
L 402 292
L 402 292
L 402 292
L 402 292
L 403 292
L 403 292
L 403 292
L 403 292
L 403 292
L 403 292
L 403 291
L 403 291
L 403 291
L 403 291
L 403 291
L 403 291
L 403 291
L 403 291
L 403 291
L 403 291
L 403 291
L 403 291
L 403 291
L 403 291
L 403 291
L 403 291
L 403 291
L 403 291
L 403 291
L 403 291
L 403 291
L 403 291
L 403 291
L 403 290
L 403 290
L 403 290
L 403 290
L 403 290
L 403 290
L 403 290
L 403 290
L 403 290
L 403 290
L 403 290
L 403 290
L 403 290
L 403 290
L 403 290
L 403 290
L 403 290
L 403 290
L 403 290
L 403 290
L 403 290
L 403 290
L 403 289
L 403 289
L 403 289
L 403 289
L 403 289
L 403 289
L 403 289
L 403 289
L 403 289
L 403 289
L 403 289
L 403 289
L 404 289
L 404 289
L 404 289
L 404 289
L 404 289
L 404 289
L 404 289
L 404 289
L 404 289
L 404 289
L 404 288
L 404 288
L 404 288
L 404 288
L 404 288
L 404 288
L 404 288
L 404 288
L 404 288
L 404 288
L 404 288
L 404 288
L 404 288
L 404 288
L 404 288
L 404 288
L 404 288
L 404 288
L 404 288
L 404 288
L 404 288
L 404 288
L 404 288
L 404 287
L 404 287
L 404 287
L 404 287
L 404 287
L 404 287
L 404 287
L 404 287
L 404 287
L 404 287
L 404 287
L 404 287
L 404 287
L 404 287
L 404 287
L 404 287
L 404 287
L 404 287
L 404 287
L 404 287
L 404 287
L 404 287
L 404 286
L 404 286
L 404 286
L 404 286
L 404 286
L 405 286
L 405 286
L 405 286
L 405 286
L 405 286
L 405 286
L 405 286
L 405 286
L 405 286
L 405 286
L 405 286
L 405 286
L 405 286
L 405 286
L 405 286
L 405 286
L 405 286
L 405 285
L 405 285
L 405 285
L 405 285
L 405 285
L 405 285
L 405 285
L 405 285
L 405 285
L 405 285
L 405 285
L 405 285
L 405 285
L 405 285
L 405 285
L 405 285
L 405 285
L 405 285
L 405 285
L 405 285
L 405 285
L 405 285
L 405 285
L 405 284
L 405 284
L 405 284
L 405 284
L 406 284
L 406 284
L 406 284
L 406 284
L 406 284
L 406 284
L 406 284
L 406 284
L 406 284
L 406 284
L 406 284
L 406 284
L 406 284
L 406 284
L 406 284
L 406 284
L 406 284
L 406 284
L 406 283
L 406 283
L 406 283
L 406 283
L 406 283
L 406 283
L 406 283
L 406 283
L 406 283
L 406 283
L 406 283
L 406 283
L 407 283
L 407 283
L 407 283
L 407 283
L 407 283
L 407 283
L 407 283
L 407 283
L 407 283
L 407 283
L 407 283
L 407 282
L 407 282
L 408 282
L 408 282
L 408 282
L 408 282
L 408 282
L 409 282
L 410 282
L 410 282
L 410 282
L 410 282
L 410 282
L 410 282
L 411 282
L 411 282
L 411 282
L 411 282
L 411 282
L 411 282
L 411 282
L 411 282
L 411 281
L 411 281
L 411 281
L 411 281
L 411 281
L 411 281
L 411 281
L 411 281
L 411 281
L 411 281
L 411 281
L 411 281
L 411 281
L 411 281
L 411 281
L 411 281
L 411 281
L 411 281
L 411 281
L 411 281
L 411 281
L 411 281
L 411 280
L 411 280
L 411 280
L 411 280
L 411 280
L 411 280
L 411 280
L 411 280
L 411 280
L 411 280
L 411 280
L 411 280
L 411 280
L 411 280
L 411 280
L 411 280
L 411 280
L 411 280
L 411 280
L 411 280
L 411 280
L 411 280
L 411 280
L 411 279
L 411 279
L 411 279
L 411 279
L 411 279
L 411 279
L 411 279
L 411 279
L 411 279
L 411 279
L 411 279
L 411 279
L 411 279
L 411 279
L 411 279
L 411 279
L 411 279
L 411 279
L 411 279
L 411 279
L 411 279
L 411 279
L 411 278
L 411 278
L 411 278
L 411 278
L 411 278
L 411 278
L 411 278
L 411 278
L 411 278
L 411 278
L 412 278
L 412 278
L 412 278
L 412 278
L 412 278
L 412 278
L 412 278
L 412 278
L 412 278
L 412 278
L 412 278
L 412 278
L 412 277
L 412 277
L 412 277
L 412 277
L 412 277
L 412 277
L 412 277
L 412 277
L 412 277
L 412 277
L 412 277
L 412 277
L 412 277
L 412 277
L 412 277
L 412 277
L 412 277
L 412 277
L 412 277
L 412 277
L 412 277
L 412 277
L 412 277
L 412 276
L 412 276
L 412 276
L 412 276
L 412 276
L 412 276
L 412 276
L 412 276
L 413 276
L 413 276
L 413 276
L 413 276
L 413 276
L 413 276
L 413 276
L 413 276
L 413 276
L 413 276
L 413 276
L 413 276
L 413 276
L 413 276
L 413 275
L 413 275
L 413 275
L 413 275
L 413 275
L 413 275
L 413 275
L 413 275
L 413 275
L 413 275
L 413 275
L 413 275
L 413 275
L 413 275
L 413 275
L 413 275
L 413 275
L 413 275
L 413 275
L 413 275
L 413 275
L 413 275
L 413 274
L 413 274
L 413 274
L 413 274
L 413 274
L 413 274
L 413 274
L 413 274
L 414 274
L 414 274
L 414 274
L 414 274
L 414 274
L 414 274
L 414 274
L 414 274
L 414 274
L 414 274
L 414 274
L 414 274
L 414 274
L 414 274
L 414 274
L 414 273
L 414 273
L 414 273
L 414 273
L 414 273
L 414 273
L 414 273
L 414 273
L 414 273
L 414 273
L 414 273
L 414 273
L 414 273
L 414 273
L 414 273
L 414 273
L 414 273
L 414 273
L 414 273
L 414 273
L 414 273
L 414 273
L 414 272
L 414 272
L 414 272
L 414 272
L 414 272
L 414 272
L 414 272
L 414 272
L 414 272
L 414 272
L 414 272
L 414 272
L 414 272
L 414 272
L 414 272
L 414 272
L 414 272
L 414 272
L 414 272
L 415 272
L 415 272
L 415 272
L 415 271
L 415 271
L 415 271
L 415 271
L 415 271
L 415 271
L 415 271
L 415 271
L 415 271
L 415 271
L 415 271
L 415 271
L 415 271
L 415 271
L 415 271
L 415 271
L 415 271
L 415 271
L 415 271
L 415 271
L 415 271
L 415 271
L 415 271
L 415 270
L 415 270
L 415 270
L 415 270
L 415 270
L 415 270
L 415 270
L 415 270
L 415 270
L 415 270
L 415 270
L 415 270
L 415 270
L 415 270
L 415 270
L 415 270
L 415 270
L 416 270
L 416 270
L 416 270
L 416 270
L 416 270
L 416 269
L 416 269
L 416 269
L 416 269
L 416 269
L 416 269
L 416 269
L 416 269
L 416 269
L 416 269
L 416 269
L 416 269
L 416 269
L 416 269
L 416 269
L 416 269
L 416 269
L 416 269
L 416 269
L 416 269
L 416 269
L 416 269
L 416 268
L 416 268
L 416 268
L 416 268
L 416 268
L 416 268
L 417 268
L 417 268
L 417 268
L 417 268
L 417 268
L 417 268
L 417 268
L 417 268
L 417 268
L 417 268
L 417 268
L 417 268
L 417 268
L 417 268
L 417 268
L 417 268
L 417 268
L 417 267
L 417 267
L 418 267
L 418 267
L 418 267
L 418 267
L 418 267
L 418 267
L 418 267
L 418 267
L 418 267
L 418 267
L 418 267
L 418 267
L 418 267
L 418 267
L 418 267
L 418 267
L 418 267
L 418 267
L 419 267
L 419 267
L 421 266
L 421 266
L 422 266
L 422 266
L 422 266
L 422 266
L 422 266
L 422 266
L 422 266
L 422 266
L 422 266
L 422 266
L 422 266
L 422 266
L 422 266
L 422 266
L 422 266
L 422 266
L 422 266
L 422 266
L 422 266
L 422 266
L 422 266
L 422 265
L 422 265
L 422 265
L 422 265
L 422 265
L 422 265
L 422 265
L 422 265
L 422 265
L 422 265
L 422 265
L 422 265
L 422 265
L 422 265
L 422 265
L 422 265
L 422 265
L 423 265
L 423 265
L 423 265
L 423 265
L 423 265
L 423 264
L 423 264
L 423 264
L 423 264
L 423 264
L 423 264
L 423 264
L 423 264
L 423 264
L 423 264
L 423 264
L 423 264
L 423 264
L 423 264
L 423 264
L 423 264
L 423 264
L 423 264
L 423 264
L 423 264
L 423 264
L 423 264
L 423 263
L 423 263
L 423 263
L 423 263
L 423 263
L 423 263
L 423 263
L 423 263
L 423 263
L 423 263
L 423 263
L 423 263
L 423 263
L 423 263
L 423 263
L 423 263
L 423 263
L 423 263
L 423 263
L 423 263
L 423 263
L 423 263
L 423 263
L 424 262
L 424 262
L 424 262
L 424 262
L 424 262
L 424 262
L 424 262
L 424 262
L 424 262
L 424 262
L 424 262
L 424 262
L 424 262
L 424 262
L 424 262
L 424 262
L 424 262
L 424 262
L 425 262
L 425 262
L 425 262
L 425 262
L 425 261
L 425 261
L 425 261
L 425 261
L 425 261
L 425 261
L 425 261
L 425 261
L 425 261
L 425 261
L 425 261
L 425 261
L 425 261
L 425 261
L 425 261
L 425 261
L 425 261
L 425 261
L 425 261
L 425 261
L 425 261
L 425 261
L 425 260
L 425 260
L 425 260
L 425 260
L 425 260
L 425 260
L 425 260
L 425 260
L 425 260
L 426 260
L 426 260
L 426 260
L 426 260
L 426 260
L 426 260
L 426 260
L 426 260
L 426 260
L 426 260
L 426 260
L 426 260
L 426 260
L 426 260
L 426 259
L 426 259
L 426 259
L 426 259
L 426 259
L 426 259
L 426 259
L 426 259
L 426 259
L 426 259
L 426 259
L 426 259
L 426 259
L 426 259
L 426 259
L 426 259
L 426 259
L 426 259
L 426 259
L 426 259
L 426 259
L 426 259
L 426 258
L 426 258
L 426 258
L 426 258
L 426 258
L 426 258
L 426 258
L 427 258
L 427 258
L 427 258
L 427 258
L 427 258
L 427 258
L 427 258
L 427 258
L 427 258
L 427 258
L 427 258
L 427 258
L 427 258
L 427 258
L 427 258
L 427 257
L 427 257
L 427 257
L 427 257
L 428 257
L 428 257
L 428 257
L 428 257
L 428 257
L 428 257
L 428 257
L 428 257
L 428 257
L 428 257
L 428 257
L 428 257
L 428 257
L 428 257
L 428 257
L 428 257
L 428 257
L 428 257
L 429 257
L 429 256
L 429 256
L 429 256
L 429 256
L 429 256
L 429 256
L 429 256
L 429 256
L 429 256
L 429 256
L 429 256
L 429 256
L 430 256
L 430 256
L 430 256
L 430 256
L 430 256
L 430 256
L 431 256
L 433 256
L 433 256
L 433 256
L 433 255
L 433 255
L 433 255
L 434 255
L 434 255
L 434 255
L 434 255
L 434 255
L 434 255
L 434 255
L 434 255
L 434 255
L 434 255
L 434 255
L 434 255
L 434 255
L 434 255
L 434 255
L 434 255
L 434 255
L 434 255
L 434 255
L 434 254
L 434 254
L 434 254
L 434 254
L 434 254
L 434 254
L 434 254
L 434 254
L 434 254
L 434 254
L 434 254
L 434 254
L 434 254
L 434 254
L 434 254
L 434 254
L 434 254
L 434 254
L 434 254
L 434 254
L 434 254
L 434 254
L 434 254
L 434 253
L 434 253
L 434 253
L 434 253
L 434 253
L 434 253
L 434 253
L 434 253
L 434 253
L 434 253
L 434 253
L 434 253
L 434 253
L 434 253
L 434 253
L 434 253
L 434 253
L 434 253
L 434 253
L 434 253
L 434 253
L 435 253
L 435 252
L 435 252
L 435 252
L 435 252
L 435 252
L 435 252
L 435 252
L 435 252
L 435 252
L 435 252
L 435 252
L 435 252
L 435 252
L 435 252
L 435 252
L 435 252
L 435 252
L 435 252
L 435 252
L 435 252
L 435 252
L 435 252
L 436 251
L 436 251
L 436 251
L 436 251
L 436 251
L 436 251
L 436 251
L 436 251
L 436 251
L 436 251
L 436 251
L 436 251
L 436 251
L 436 251
L 436 251
L 436 251
L 436 251
L 436 251
L 436 251
L 436 251
L 436 251
L 436 251
L 436 251
L 436 250
L 436 250
L 436 250
L 436 250
L 436 250
L 436 250
L 436 250
L 436 250
L 436 250
L 436 250
L 436 250
L 436 250
L 436 250
L 436 250
L 436 250
L 436 250
L 436 250
L 436 250
L 436 250
L 436 250
L 436 250
L 436 250
L 436 249
L 436 249
L 436 249
L 436 249
L 436 249
L 436 249
L 436 249
L 436 249
L 436 249
L 437 249
L 437 249
L 437 249
L 437 249
L 437 249
L 437 249
L 437 249
L 437 249
L 437 249
L 437 249
L 437 249
L 437 249
L 437 249
L 437 249
L 437 248
L 437 248
L 437 248
L 437 248
L 437 248
L 437 248
L 437 248
L 437 248
L 437 248
L 437 248
L 437 248
L 437 248
L 437 248
L 437 248
L 437 248
L 437 248
L 437 248
L 437 248
L 437 248
L 437 248
L 437 248
L 437 248
L 437 247
L 437 247
L 437 247
L 437 247
L 437 247
L 437 247
L 437 247
L 437 247
L 437 247
L 437 247
L 437 247
L 437 247
L 437 247
L 437 247
L 438 247
L 438 247
L 438 247
L 438 247
L 438 247
L 438 247
L 438 247
L 438 247
L 438 246
L 438 246
L 438 246
L 438 246
L 438 246
L 438 246
L 438 246
L 438 246
L 438 246
L 438 246
L 438 246
L 438 246
L 438 246
L 438 246
L 438 246
L 438 246
L 438 246
L 438 246
L 438 246
L 438 246
L 439 246
L 439 246
L 439 246
L 439 245
L 439 245
L 439 245
L 439 245
L 439 245
L 439 245
L 439 245
L 439 245
L 439 245
L 439 245
L 439 245
L 439 245
L 440 245
L 440 245
L 440 245
L 440 245
L 440 245
L 440 245
L 440 245
L 440 245
L 440 245
L 440 245
L 440 244
L 440 244
L 440 244
L 440 244
L 440 244
L 440 244
L 440 244
L 440 244
L 440 244
L 440 244
L 440 244
L 441 244
L 441 244
L 441 244
L 441 244
L 441 244
L 441 244
L 441 244
L 441 244
L 441 244
L 442 244
L 443 244
L 443 243
L 443 243
L 444 243
L 444 243
L 444 243
L 444 243
L 445 243
L 445 243
L 445 243
L 445 243
L 445 243
L 445 243
L 445 243
L 445 243
L 445 243
L 445 243
L 445 243
L 445 243
L 445 243
L 445 243
L 445 243
L 445 243
L 445 243
L 445 242
L 445 242
L 445 242
L 445 242
L 445 242
L 445 242
L 445 242
L 445 242
L 445 242
L 445 242
L 445 242
L 445 242
L 445 242
L 445 242
L 445 242
L 445 242
L 445 242
L 445 242
L 445 242
L 445 242
L 445 242
L 445 242
L 445 241
L 445 241
L 445 241
L 445 241
L 445 241
L 445 241
L 445 241
L 446 241
L 446 241
L 446 241
L 446 241
L 446 241
L 446 241
L 446 241
L 446 241
L 446 241
L 446 241
L 446 241
L 446 241
L 446 241
L 446 241
L 446 241
L 446 240
L 446 240
L 446 240
L 446 240
L 446 240
L 446 240
L 446 240
L 446 240
L 446 240
L 446 240
L 446 240
L 446 240
L 446 240
L 446 240
L 446 240
L 446 240
L 446 240
L 446 240
L 446 240
L 446 240
L 446 240
L 446 240
L 446 240
L 446 239
L 446 239
L 446 239
L 446 239
L 446 239
L 446 239
L 446 239
L 446 239
L 446 239
L 446 239
L 446 239
L 446 239
L 446 239
L 446 239
L 446 239
L 446 239
L 446 239
L 446 239
L 447 239
L 447 239
L 447 239
L 447 239
L 447 238
L 447 238
L 447 238
L 447 238
L 447 238
L 447 238
L 447 238
L 447 238
L 447 238
L 447 238
L 447 238
L 447 238
L 447 238
L 447 238
L 447 238
L 447 238
L 447 238
L 447 238
L 447 238
L 447 238
L 447 238
L 447 238
L 447 237
L 447 237
L 447 237
L 447 237
L 447 237
L 447 237
L 447 237
L 447 237
L 447 237
L 447 237
L 447 237
L 447 237
L 447 237
L 447 237
L 447 237
L 448 237
L 448 237
L 448 237
L 448 237
L 448 237
L 448 237
L 448 237
L 448 237
L 448 236
L 448 236
L 448 236
L 448 236
L 448 236
L 448 236
L 448 236
L 448 236
L 448 236
L 448 236
L 448 236
L 448 236
L 448 236
L 448 236
L 448 236
L 448 236
L 448 236
L 448 236
L 448 236
L 448 236
L 448 236
L 448 236
L 448 235
L 448 235
L 448 235
L 448 235
L 448 235
L 448 235
L 448 235
L 448 235
L 448 235
L 448 235
L 448 235
L 448 235
L 448 235
L 448 235
L 448 235
L 448 235
L 448 235
L 448 235
L 448 235
L 448 235
L 448 235
L 448 235
L 448 234
L 448 234
L 448 234
L 448 234
L 448 234
L 448 234
L 448 234
L 448 234
L 448 234
L 448 234
L 449 234
L 449 234
L 449 234
L 449 234
L 449 234
L 449 234
L 449 234
L 449 234
L 449 234
L 449 234
L 449 234
L 449 234
L 449 234
L 449 233
L 449 233
L 449 233
L 449 233
L 449 233
L 449 233
L 449 233
L 449 233
L 449 233
L 449 233
L 449 233
L 449 233
L 449 233
L 449 233
L 450 233
L 450 233
L 450 233
L 450 233
L 450 233
L 450 233
L 450 233
L 450 233
L 450 232
L 450 232
L 450 232
L 450 232
L 450 232
L 450 232
L 450 232
L 451 232
L 451 232
L 451 232
L 451 232
L 451 232
L 451 232
L 451 232
L 451 232
L 451 232
L 451 232
L 451 232
L 451 232
L 451 232
L 451 232
L 451 232
L 452 232
L 452 231
L 452 231
L 452 231
L 452 231
L 452 231
L 452 231
L 452 231
L 452 231
L 453 231
L 453 231
L 455 231
L 455 231
L 455 231
L 455 231
L 456 231
L 456 231
L 456 231
L 456 231
L 456 231
L 456 231
L 456 231
L 457 231
L 457 230
L 457 230
L 457 230
L 457 230
L 457 230
L 457 230
L 457 230
L 457 230
L 457 230
L 457 230
L 457 230
L 457 230
L 457 230
L 457 230
L 457 230
L 457 230
L 458 230
L 458 230
L 458 230
L 458 230
L 458 230
L 458 230
L 458 229
L 458 229
L 458 229
L 458 229
L 459 229
L 459 229
L 459 229
L 459 229
L 459 229
L 459 229
L 459 229
L 459 229
L 459 229
L 460 229
L 460 229
L 460 229
L 460 229
L 460 229
L 460 229
L 460 229
L 460 229
L 461 229
L 461 229
L 461 228
L 461 228
L 461 228
L 461 228
L 462 228
L 462 228
L 462 228
L 462 228
L 462 228
L 462 228
L 462 228
L 462 228
L 462 228
L 463 228
L 463 228
L 463 228
L 463 228
L 463 228
L 463 228
L 463 228
L 463 228
L 463 228
L 463 227
L 464 227
L 464 227
L 464 227
L 465 227
L 465 227
L 465 227
L 465 227
L 466 227
L 466 227
L 466 227
L 467 227
L 467 227
L 467 227
L 468 227
L 468 227
L 468 227
L 468 227
L 468 227
L 468 227
L 468 227
L 468 227
L 468 226
L 469 226
L 469 226
L 469 226
L 469 226
L 469 226
L 469 226
L 469 226
L 469 226
L 469 226
L 470 226
L 470 226
L 470 226
L 470 226
L 470 226
L 470 226
L 470 226
L 470 226
L 470 226
L 471 226
L 471 226
L 471 226
L 471 226
L 471 225
L 471 225
L 472 225
L 472 225
L 472 225
L 472 225
L 472 225
L 472 225
L 472 225
L 472 225
L 473 225
L 473 225
L 473 225
L 473 225
L 473 225
L 473 225
L 474 225
L 474 225
L 474 225
L 474 225
L 474 225
L 474 225
L 474 224
L 474 224
L 474 224
L 474 224
L 474 224
L 474 224
L 475 224
L 475 224
L 475 224
L 475 224
L 475 224
L 476 224
L 476 224
L 476 224
L 477 224
L 477 224
L 478 224
L 479 224
L 479 224
L 479 224
L 479 224
L 479 224
L 479 223
L 479 223
L 479 223
L 480 223
L 480 223
L 480 223
L 480 223
L 480 223
L 480 223
L 480 223
L 481 223
L 481 223
L 481 223
L 481 223
L 481 223
L 481 223
L 481 223
L 481 223
L 481 223
L 481 223
L 481 223
L 482 223
L 482 223
L 482 222
L 482 222
L 482 222
L 482 222
L 482 222
L 483 222
L 483 222
L 483 222
L 483 222
L 483 222
L 483 222
L 483 222
L 483 222
L 483 222
L 483 222
L 483 222
L 483 222
L 483 222
L 484 222
L 484 222
L 484 222
L 484 222
L 484 221
L 484 221
L 484 221
L 484 221
L 484 221
L 484 221
L 484 221
L 484 221
L 484 221
L 484 221
L 484 221
L 485 221
L 485 221
L 485 221
L 485 221
L 485 221
L 485 221
L 485 221
L 485 221
L 485 221
L 485 221
L 485 221
L 485 220
L 486 220
L 486 220
L 486 220
L 486 220
L 486 220
L 486 220
L 487 220
L 487 220
L 487 220
L 490 220
L 490 220
L 490 220
L 490 220
L 490 220
L 490 220
L 490 220
L 490 220
L 490 220
L 490 220
L 490 220
L 490 220
L 490 220
L 490 219
L 490 219
L 490 219
L 490 219
L 490 219
L 490 219
L 490 219
L 490 219
L 490 219
L 490 219
L 491 219
L 491 219
L 491 219
L 491 219
L 491 219
L 491 219
L 491 219
L 491 219
L 491 219
L 491 219
L 491 219
L 491 219
L 491 218
L 491 218
L 491 218
L 491 218
L 491 218
L 491 218
L 491 218
L 491 218
L 491 218
L 491 218
L 491 218
L 491 218
L 491 218
L 491 218
L 491 218
L 491 218
L 491 218
L 491 218
L 491 218
L 491 218
L 491 218
L 491 218
L 491 217
L 491 217
L 491 217
L 491 217
L 491 217
L 491 217
L 491 217
L 491 217
L 492 217
L 492 217
L 492 217
L 492 217
L 492 217
L 492 217
L 492 217
L 492 217
L 492 217
L 492 217
L 492 217
L 492 217
L 492 217
L 492 217
L 492 217
L 492 216
L 492 216
L 492 216
L 492 216
L 492 216
L 492 216
L 493 216
L 493 216
L 493 216
L 493 216
L 493 216
L 493 216
L 493 216
L 493 216
L 493 216
L 493 216
L 493 216
L 493 216
L 493 216
L 493 216
L 493 216
L 493 216
L 493 215
L 493 215
L 493 215
L 493 215
L 493 215
L 493 215
L 493 215
L 493 215
L 493 215
L 493 215
L 493 215
L 493 215
L 493 215
L 493 215
L 493 215
L 493 215
L 493 215
L 493 215
L 493 215
L 493 215
L 493 215
L 493 215
L 493 215
L 493 214
L 493 214
L 494 214
L 494 214
L 494 214
L 494 214
L 494 214
L 494 214
L 494 214
L 494 214
L 494 214
L 494 214
L 494 214
L 494 214
L 494 214
L 494 214
L 494 214
L 494 214
L 494 214
L 494 214
L 494 214
L 494 214
L 494 213
L 494 213
L 494 213
L 494 213
L 494 213
L 494 213
L 494 213
L 495 213
L 495 213
L 495 213
L 495 213
L 495 213
L 495 213
L 495 213
L 495 213
L 495 213
L 495 213
L 495 213
L 495 213
L 495 213
L 495 213
L 496 213
L 496 212
L 496 212
L 496 212
L 496 212
L 496 212
L 496 212
L 496 212
L 496 212
L 496 212
L 496 212
L 496 212
L 496 212
L 496 212
L 496 212
L 496 212
L 496 212
L 496 212
L 496 212
L 496 212
L 496 212
L 496 212
L 496 212
L 496 212
L 496 211
L 496 211
L 496 211
L 496 211
L 497 211
L 497 211
L 497 211
L 497 211
L 497 211
L 497 211
L 497 211
L 497 211
L 497 211
L 497 211
L 497 211
L 497 211
L 497 211
L 497 211
L 497 211
L 497 211
L 498 211
L 498 211
L 498 210
L 498 210
L 498 210
L 499 210
L 499 210
L 499 210
L 500 210
L 501 210
L 501 210
L 501 210
L 501 210
L 501 210
L 501 210
L 501 210
L 501 210
L 501 210
L 501 210
L 501 210
L 501 210
L 502 210
L 502 210
L 502 210
L 502 209
L 502 209
L 502 209
L 502 209
L 502 209
L 502 209
L 502 209
L 502 209
L 502 209
L 502 209
L 502 209
L 502 209
L 502 209
L 502 209
L 502 209
L 502 209
L 502 209
L 502 209
L 502 209
L 502 209
L 502 209
L 502 209
L 502 209
L 502 208
L 502 208
L 502 208
L 502 208
L 502 208
L 502 208
L 502 208
L 502 208
L 502 208
L 502 208
L 502 208
L 502 208
L 502 208
L 502 208
L 502 208
L 502 208
L 502 208
L 502 208
L 502 208
L 502 208
L 502 208
L 502 208
L 502 207
L 502 207
L 502 207
L 502 207
L 502 207
L 503 207
L 503 207
L 503 207
L 503 207
L 503 207
L 503 207
L 503 207
L 503 207
L 503 207
L 503 207
L 503 207
L 503 207
L 503 207
L 503 207
L 503 207
L 503 207
L 503 207
L 503 206
L 504 206
L 504 206
L 504 206
L 504 206
L 504 206
L 504 206
L 504 206
L 504 206
L 504 206
L 504 206
L 504 206
L 504 206
L 504 206
L 504 206
L 504 206
L 504 206
L 504 206
L 504 206
L 504 206
L 504 206
L 504 206
L 504 206
L 504 205
L 504 205
L 504 205
L 504 205
L 504 205
L 504 205
L 504 205
L 504 205
L 504 205
L 504 205
L 504 205
L 504 205
L 505 205
L 505 205
L 505 205
L 505 205
L 505 205
L 505 205
L 505 205
L 505 205
L 505 205
L 505 205
L 505 204
L 505 204
L 505 204
L 505 204
L 505 204
L 505 204
L 505 204
L 505 204
L 505 204
L 505 204
L 505 204
L 505 204
L 505 204
L 505 204
L 505 204
L 505 204
L 505 204
L 505 204
L 505 204
L 505 204
L 505 204
L 505 204
L 505 203
L 505 203
L 505 203
L 505 203
L 505 203
L 505 203
L 505 203
L 505 203
L 505 203
L 505 203
L 505 203
L 505 203
L 505 203
L 505 203
L 505 203
L 505 203
L 505 203
L 506 203
L 506 203
L 506 203
L 506 203
L 506 203
L 506 203
L 506 202
L 506 202
L 506 202
L 506 202
L 506 202
L 506 202
L 506 202
L 506 202
L 506 202
L 506 202
L 506 202
L 506 202
L 506 202
L 506 202
L 506 202
L 506 202
L 506 202
L 506 202
L 506 202
L 506 202
L 506 202
L 506 202
L 506 201
L 506 201
L 506 201
L 506 201
L 506 201
L 506 201
L 506 201
L 506 201
L 506 201
L 506 201
L 506 201
L 507 201
L 507 201
L 507 201
L 507 201
L 507 201
L 507 201
L 507 201
L 507 201
L 507 201
L 507 201
L 507 201
L 507 200
L 507 200
L 507 200
L 507 200
L 507 200
L 507 200
L 507 200
L 507 200
L 507 200
L 507 200
L 507 200
L 507 200
L 507 200
L 508 200
L 508 200
L 508 200
L 508 200
L 508 200
L 508 200
L 508 200
L 508 200
L 508 200
L 508 200
L 508 199
L 508 199
L 508 199
L 508 199
L 508 199
L 508 199
L 508 199
L 508 199
L 508 199
L 508 199
L 508 199
L 508 199
L 508 199
L 509 199
L 509 199
L 509 199
L 509 199
L 509 199
L 509 199
L 509 199
L 509 199
L 509 199
L 509 198
L 510 198
L 510 198
L 510 198
L 511 198
L 512 198
L 512 198
L 512 198
L 512 198
L 513 198
L 513 198
L 513 198
L 513 198
L 513 198
L 513 198
L 513 198
L 513 198
L 513 198
L 513 198
L 513 198
L 513 198
L 513 198
L 513 198
L 513 197
L 513 197
L 513 197
L 513 197
L 513 197
L 513 197
L 513 197
L 513 197
L 513 197
L 513 197
L 513 197
L 513 197
L 513 197
L 513 197
L 513 197
L 514 197
L 514 197
L 514 197
L 514 197
L 514 197
L 514 197
L 514 197
L 514 196
L 514 196
L 514 196
L 514 196
L 514 196
L 514 196
L 514 196
L 514 196
L 514 196
L 514 196
L 514 196
L 514 196
L 514 196
L 514 196
L 514 196
L 514 196
L 514 196
L 514 196
L 514 196
L 514 196
L 514 196
L 514 196
L 514 195
L 514 195
L 515 195
L 515 195
L 515 195
L 515 195
L 515 195
L 515 195
L 515 195
L 515 195
L 515 195
L 515 195
L 515 195
L 515 195
L 515 195
L 515 195
L 515 195
L 515 195
L 515 195
L 515 195
L 515 195
L 515 195
L 515 195
L 515 194
L 515 194
L 515 194
L 515 194
L 515 194
L 516 194
L 516 194
L 516 194
L 516 194
L 516 194
L 516 194
L 516 194
L 516 194
L 516 194
L 516 194
L 516 194
L 516 194
L 516 194
L 516 194
L 516 194
L 516 194
L 516 194
L 516 193
L 516 193
L 516 193
L 516 193
L 516 193
L 516 193
L 516 193
L 516 193
L 516 193
L 516 193
L 516 193
L 516 193
L 516 193
L 516 193
L 516 193
L 517 193
L 517 193
L 517 193
L 517 193
L 517 193
L 517 193
L 517 193
L 517 192
L 517 192
L 517 192
L 517 192
L 517 192
L 517 192
L 517 192
L 517 192
L 517 192
L 517 192
L 517 192
L 517 192
L 517 192
L 517 192
L 517 192
L 517 192
L 517 192
L 517 192
L 517 192
L 517 192
L 517 192
L 517 192
L 517 192
L 517 191
L 518 191
L 518 191
L 518 191
L 518 191
L 518 191
L 518 191
L 518 191
L 518 191
L 518 191
L 518 191
L 518 191
L 519 191
L 519 191
L 519 191
L 519 191
L 519 191
L 519 191
L 519 191
L 519 191
L 519 191
L 519 191
L 519 190
L 519 190
L 519 190
L 519 190
L 519 190
L 519 190
L 519 190
L 519 190
L 519 190
L 519 190
L 520 190
L 520 190
L 520 190
L 520 190
L 520 190
L 521 190
L 521 190
L 521 190
L 521 190
L 522 190
L 522 190
L 522 190
L 522 189
L 523 189
L 524 189
L 524 189
L 524 189
L 524 189
L 524 189
L 524 189
L 524 189
L 524 189
L 524 189
L 524 189
L 524 189
L 524 189
L 524 189
L 525 189
L 525 189
L 525 189
L 525 189
L 525 189
L 525 189
L 525 189
L 525 189
L 525 188
L 525 188
L 525 188
L 525 188
L 525 188
L 525 188
L 525 188
L 525 188
L 525 188
L 525 188
L 525 188
L 525 188
L 525 188
L 525 188
L 525 188
L 526 188
L 526 188
L 526 188
L 526 188
L 526 188
L 526 188
L 526 188
L 526 187
L 526 187
L 526 187
L 526 187
L 527 187
L 527 187
L 527 187
L 527 187
L 527 187
L 527 187
L 527 187
L 527 187
L 527 187
L 527 187
L 527 187
L 527 187
L 527 187
L 528 187
L 528 187
L 528 187
L 528 187
L 528 187
L 528 186
L 528 186
L 528 186
L 528 186
L 528 186
L 528 186
L 529 186
L 529 186
L 529 186
L 529 186
L 529 186
L 529 186
L 529 186
L 530 186
L 530 186
L 530 186
L 530 186
L 530 186
L 530 186
L 530 186
L 530 186
L 530 186
L 530 186
L 530 185
L 530 185
L 530 185
L 530 185
L 530 185
L 530 185
L 530 185
L 530 185
L 530 185
L 531 185
L 531 185
L 531 185
L 531 185
L 531 185
L 531 185
L 531 185
L 532 185
L 532 185
L 536 185
L 536 185
L 536 185
L 536 185
L 536 184
L 536 184
L 536 184
L 537 184
L 537 184
L 537 184
L 537 184
L 537 184
L 537 184
L 537 184
L 537 184
L 537 184
L 537 184
L 538 184
L 538 184
L 538 184
L 538 184
L 538 184
L 538 184
L 538 184
L 538 184
L 539 184
L 539 183
L 539 183
L 539 183
L 539 183
L 539 183
L 539 183
L 539 183
L 539 183
L 539 183
L 539 183
L 539 183
L 540 183
L 540 183
L 540 183
L 540 183
L 540 183
L 540 183
L 540 183
L 540 183
L 540 183
L 540 183
L 540 183
L 540 183
L 541 182
L 541 182
L 541 182
L 541 182
L 541 182
L 541 182
L 541 182
L 542 182
L 542 182
L 542 182
L 542 182
L 542 182
L 542 182
L 542 182
L 542 182
L 542 182
L 542 182
L 542 182
L 542 182
L 542 182
L 542 182
L 542 182
L 542 181
L 542 181
L 542 181
L 542 181
L 543 181
L 543 181
L 543 181
L 543 181
L 543 181
L 543 181
L 543 181
L 543 181
L 544 181
L 544 181
L 545 181
L 545 181
L 545 181
L 546 181
L 546 181
L 546 181
L 546 181
L 547 181
L 547 181
L 547 180
L 547 180
L 547 180
L 547 180
L 547 180
L 547 180
L 547 180
L 547 180
L 547 180
L 547 180
L 547 180
L 547 180
L 547 180
L 547 180
L 547 180
L 547 180
L 547 180
L 547 180
L 547 180
L 547 180
L 547 180
L 547 180
L 547 179
L 547 179
L 547 179
L 547 179
L 548 179
L 548 179
L 548 179
L 548 179
L 548 179
L 548 179
L 548 179
L 548 179
L 548 179
L 548 179
L 548 179
L 548 179
L 548 179
L 548 179
L 548 179
L 548 179
L 548 179
L 548 179
L 548 178
L 548 178
L 548 178
L 548 178
L 548 178
L 548 178
L 548 178
L 548 178
L 549 178
L 549 178
L 549 178
L 549 178
L 549 178
L 549 178
L 549 178
L 549 178
L 549 178
L 549 178
L 549 178
L 549 178
L 549 178
L 549 178
L 549 178
L 549 177
L 549 177
L 550 177
L 550 177
L 550 177
L 550 177
L 550 177
L 550 177
L 550 177
L 550 177
L 550 177
L 550 177
L 550 177
L 550 177
L 550 177
L 550 177
L 550 177
L 550 177
L 550 177
L 550 177
L 550 177
L 551 177
L 551 176
L 551 176
L 551 176
L 551 176
L 551 176
L 551 176
L 551 176
L 551 176
L 551 176
L 551 176
L 551 176
L 551 176
L 551 176
L 551 176
L 551 176
L 552 176
L 552 176
L 552 176
L 552 176
L 552 176
L 552 176
L 552 176
L 552 175
L 552 175
L 552 175
L 552 175
L 552 175
L 552 175
L 552 175
L 552 175
L 553 175
L 553 175
L 553 175
L 553 175
L 553 175
L 553 175
L 553 175
L 553 175
L 553 175
L 553 175
L 553 175
L 554 175
L 554 175
L 554 175
L 554 175
L 554 174
L 554 174
L 554 174
L 554 174
L 554 174
L 556 174
L 557 174
L 558 174
L 558 174
L 558 174
L 558 174
L 558 174
L 558 174
L 558 174
L 558 174
L 558 174
L 558 174
L 558 174
L 559 174
L 559 174
L 559 174
L 559 174
L 559 173
L 559 173
L 559 173
L 559 173
L 559 173
L 559 173
L 559 173
L 559 173
L 559 173
L 559 173
L 559 173
L 559 173
L 559 173
L 559 173
L 559 173
L 559 173
L 559 173
L 559 173
L 560 173
L 560 173
L 560 173
L 560 173
L 560 172
L 560 172
L 560 172
L 560 172
L 560 172
L 560 172
L 560 172
L 560 172
L 560 172
L 560 172
L 560 172
L 561 172
L 561 172
L 561 172
L 561 172
L 561 172
L 561 172
L 561 172
L 561 172
L 561 172
L 561 172
L 561 172
L 561 172
L 561 171
L 561 171
L 561 171
L 561 171
L 561 171
L 561 171
L 562 171
L 562 171
L 562 171
L 562 171
L 562 171
L 562 171
L 562 171
L 562 171
L 562 171
L 562 171
L 562 171
L 562 171
L 562 171
L 562 171
L 562 171
L 562 171
L 562 170
L 562 170
L 562 170
L 562 170
L 562 170
L 562 170
L 562 170
L 562 170
L 562 170
L 562 170
L 562 170
L 562 170
L 562 170
L 562 170
L 562 170
L 562 170
L 563 170
L 563 170
L 563 170
L 563 170
L 563 170
L 563 170
L 563 169
L 563 169
L 563 169
L 563 169
L 563 169
L 563 169
L 563 169
L 563 169
L 563 169
L 564 169
L 564 169
L 564 169
L 564 169
L 564 169
L 564 169
L 564 169
L 564 169
L 564 169
L 564 169
L 564 169
L 564 169
L 564 169
L 564 169
L 564 168
L 564 168
L 564 168
L 564 168
L 564 168
L 564 168
L 565 168
L 565 168
L 565 168
L 565 168
L 565 168
L 565 168
L 565 168
L 565 168
L 565 168
L 565 168
L 565 168
L 565 168
L 565 168
L 566 168
L 566 168
L 566 168
L 568 167
L 569 167
L 569 167
L 569 167
L 569 167
L 570 167
L 570 167
L 570 167
L 570 167
L 570 167
L 570 167
L 570 167
L 570 167
L 570 167
L 570 167
L 570 167
L 570 167
L 570 167
L 570 167
L 570 167
L 570 167
L 570 167
L 570 166
L 570 166
L 570 166
L 570 166
L 570 166
L 570 166
L 570 166
L 570 166
L 570 166
L 570 166
L 570 166
L 570 166
L 571 166
L 571 166
L 571 166
L 571 166
L 571 166
L 571 166
L 571 166
L 571 166
L 571 166
L 571 166
L 571 166
L 571 165
L 571 165
L 571 165
L 571 165
L 571 165
L 571 165
L 571 165
L 571 165
L 571 165
L 571 165
L 572 165
L 572 165
L 572 165
L 572 165
L 572 165
L 572 165
L 572 165
L 572 165
L 572 165
L 572 165
L 572 165
L 572 165
L 572 164
L 572 164
L 572 164
L 572 164
L 572 164
L 572 164
L 572 164
L 572 164
L 572 164
L 572 164
L 572 164
L 572 164
L 572 164
L 572 164
L 572 164
L 572 164
L 573 164
L 573 164
L 573 164
L 573 164
L 573 164
L 573 164
L 573 163
L 573 163
L 573 163
L 573 163
L 573 163
L 573 163
L 573 163
L 573 163
L 573 163
L 573 163
L 573 163
L 573 163
L 573 163
L 573 163
L 574 163
L 574 163
L 574 163
L 574 163
L 574 163
L 574 163
L 574 163
L 574 163
L 574 163
L 574 162
L 575 162
L 575 162
L 575 162
L 575 162
L 575 162
L 575 162
L 575 162
L 575 162
L 575 162
L 575 162
L 575 162
L 576 162
L 576 162
L 576 162
L 576 162
L 576 162
L 576 162
L 576 162
L 576 162
L 576 162
L 576 162
L 576 161
L 576 161
L 576 161
L 576 161
L 576 161
L 576 161
L 576 161
L 577 161
L 577 161
L 577 161
L 577 161
L 577 161
L 577 161
L 577 161
L 577 161
L 578 161
L 580 161
L 580 161
L 580 161
L 580 161
L 580 161
L 580 161
L 580 161
L 580 160
L 580 160
L 580 160
L 580 160
L 580 160
L 581 160
L 581 160
L 581 160
L 581 160
L 581 160
L 581 160
L 581 160
L 581 160
L 581 160
L 581 160
L 581 160
L 581 160
L 581 160
L 581 160
L 581 160
L 581 160
L 581 160
L 581 159
L 581 159
L 581 159
L 581 159
L 581 159
L 581 159
L 581 159
L 581 159
L 581 159
L 581 159
L 581 159
L 581 159
L 581 159
L 581 159
L 581 159
L 581 159
L 581 159
L 581 159
L 581 159
L 581 159
L 581 159
L 581 159
L 581 158
L 581 158
L 581 158
L 581 158
L 581 158
L 581 158
L 581 158
L 581 158
L 581 158
L 581 158
L 581 158
L 581 158
L 581 158
L 581 158
L 581 158
L 581 158
L 581 158
L 581 158
L 581 158
L 581 158
L 581 158
L 581 158
L 581 158
L 581 157
L 581 157
L 582 157
L 582 157
L 582 157
L 582 157
L 582 157
L 582 157
L 582 157
L 582 157
L 582 157
L 582 157
L 582 157
L 582 157
L 582 157
L 582 157
L 582 157
L 582 157
L 582 157
L 582 157
L 582 157
L 582 157
L 582 156
L 582 156
L 582 156
L 582 156
L 582 156
L 582 156
L 582 156
L 582 156
L 582 156
L 582 156
L 582 156
L 582 156
L 583 156
L 583 156
L 583 156
L 583 156
L 583 156
L 583 156
L 583 156
L 583 156
L 583 156
L 583 156
L 583 155
L 583 155
L 583 155
L 583 155
L 583 155
L 583 155
L 583 155
L 583 155
L 583 155
L 583 155
L 583 155
L 583 155
L 583 155
L 583 155
L 583 155
L 583 155
L 583 155
L 583 155
L 583 155
L 583 155
L 583 155
L 583 155
L 583 155
L 583 154
L 583 154
L 583 154
L 583 154
L 584 154
L 584 154
L 584 154
L 584 154
L 584 154
L 584 154
L 584 154
L 584 154
L 584 154
L 584 154
L 584 154
L 584 154
L 584 154
L 584 154
L 584 154
L 584 154
L 584 154
L 584 154
L 584 153
L 584 153
L 584 153
L 584 153
L 584 153
L 584 153
L 584 153
L 584 153
L 584 153
L 584 153
L 584 153
L 584 153
L 584 153
L 584 153
L 584 153
L 584 153
L 584 153
L 584 153
L 584 153
L 584 153
L 584 153
L 584 153
L 584 152
L 584 152
L 584 152
L 585 152
L 585 152
L 585 152
L 585 152
L 585 152
L 585 152
L 585 152
L 585 152
L 585 152
L 585 152
L 585 152
L 585 152
L 585 152
L 585 152
L 585 152
L 585 152
L 585 152
L 585 152
L 585 152
L 585 152
L 585 151
L 585 151
L 585 151
L 585 151
L 585 151
L 585 151
L 585 151
L 586 151
L 586 151
L 586 151
L 586 151
L 586 151
L 586 151
L 586 151
L 586 151
L 586 151
L 586 151
L 586 151
L 586 151
L 586 151
L 586 151
L 586 151
L 586 150
L 586 150
L 586 150
L 586 150
L 586 150
L 586 150
L 586 150
L 586 150
L 586 150
L 586 150
L 586 150
L 586 150
L 586 150
L 586 150
L 587 150
L 587 150
L 587 150
L 587 150
L 587 150
L 587 150
L 587 150
L 587 150
L 587 149
L 587 149
L 587 149
L 587 149
L 587 149
L 587 149
L 587 149
L 587 149
L 587 149
L 587 149
L 587 149
L 587 149
L 587 149
L 587 149
L 587 149
L 587 149
L 588 149
L 588 149
L 588 149
L 588 149
L 588 149
L 588 149
L 588 149
L 588 148
L 588 148
L 588 148
L 588 148
L 588 148
L 589 148
L 589 148
L 589 148
L 589 148
L 590 148
L 590 148
L 590 148
L 590 148
L 591 148
L 591 148
L 592 148
L 592 148
L 592 148
L 592 148
L 592 148
L 592 148
L 592 148
L 592 147
L 592 147
L 592 147
L 592 147
L 592 147
L 592 147
L 592 147
L 592 147
L 592 147
L 592 147
L 592 147
L 592 147
L 592 147
L 592 147
L 592 147
L 593 147
L 593 147
L 593 147
L 593 147
L 593 147
L 593 147
L 593 147
L 593 147
L 593 146
L 593 146
L 593 146
L 593 146
L 593 146
L 593 146
L 593 146
L 593 146
L 593 146
L 593 146
L 593 146
L 593 146
L 593 146
L 593 146
L 593 146
L 593 146
L 593 146
L 593 146
L 593 146
L 593 146
L 593 146
L 593 146
L 594 145
L 594 145
L 594 145
L 594 145
L 594 145
L 594 145
L 594 145
L 594 145
L 594 145
L 594 145
L 594 145
L 594 145
L 594 145
L 594 145
L 594 145
L 594 145
L 594 145
L 594 145
L 594 145
L 594 145
L 594 145
L 594 145
L 595 144
L 595 144
L 595 144
L 595 144
L 595 144
L 595 144
L 595 144
L 595 144
L 595 144
L 595 144
L 595 144
L 595 144
L 595 144
L 595 144
L 595 144
L 595 144
L 595 144
L 595 144
L 595 144
L 595 144
L 595 144
L 595 144
L 595 144
L 595 143
L 595 143
L 595 143
L 595 143
L 595 143
L 595 143
L 595 143
L 595 143
L 595 143
L 595 143
L 595 143
L 595 143
L 595 143
L 596 143
L 596 143
L 596 143
L 596 143
L 596 143
L 596 143
L 596 143
L 596 143
L 596 143
L 596 142
L 596 142
L 596 142
L 596 142
L 596 142
L 596 142
L 596 142
L 596 142
L 596 142
L 596 142
L 596 142
L 596 142
L 596 142
L 596 142
L 596 142
L 596 142
L 596 142
L 596 142
L 596 142
L 596 142
L 597 142
L 597 142
L 597 141
L 597 141
L 597 141
L 597 141
L 597 141
L 597 141
L 598 141
L 598 141
L 598 141
L 598 141
L 598 141
L 598 141
L 598 141
L 598 141
L 598 141
L 598 141
L 598 141
L 598 141
L 598 141
L 598 141
L 599 141
L 599 141
L 599 141
L 599 140
L 599 140
L 599 140
L 599 140
L 599 140
L 599 140
L 599 140
L 599 140
L 600 140
L 600 140
L 601 140
L 601 140
L 601 140
L 601 140
L 603 140
L 604 140
L 604 140
L 604 140
L 604 140
L 604 140
L 604 140
L 604 140
L 604 139
L 604 139
L 605 139
L 605 139
L 605 139
L 605 139
L 605 139
L 605 139
L 605 139
L 606 139
L 606 139
L 606 139
L 606 139
L 606 139
L 606 139
L 606 139
L 606 139
L 606 139
L 606 139
L 606 139
L 607 139
L 607 139
L 607 138
L 607 138
L 607 138
L 607 138
L 607 138
L 607 138
L 607 138
L 607 138
L 607 138
L 608 138
L 608 138
L 608 138
L 608 138
L 608 138
L 609 138
L 609 138
L 609 138
L 610 138
L 610 138
L 610 138
L 610 138
L 611 138
L 611 138
L 611 137
L 611 137
L 612 137
L 612 137
L 613 137
L 614 137
L 615 137
L 616 137
L 616 137
L 616 137
L 616 137
L 617 137
L 617 137
L 617 137
L 617 137
L 617 137
L 617 137
L 617 137
L 617 137
L 617 137
L 618 137
L 618 137
L 618 136
L 618 136
L 618 136
L 618 136
L 619 136
L 619 136
L 619 136
L 619 136
L 619 136
L 620 136
L 620 136
L 620 136
L 620 136
L 620 136
L 620 136
L 620 136
L 621 136
L 621 136
L 621 136
L 621 136
L 621 136
L 621 136
L 621 135
L 621 135
L 622 135
L 622 135
L 622 135
L 623 135
L 626 135
L 626 135
L 626 135
L 626 135
L 626 135
L 626 135
L 626 135
L 626 135
L 626 135
L 626 135
L 626 135
L 627 135
L 627 135
L 627 135
L 627 135
L 627 135
L 627 135
L 627 134
L 627 134
L 627 134
L 627 134
L 627 134
L 627 134
L 627 134
L 627 134
L 627 134
L 627 134
L 627 134
L 627 134
L 627 134
L 627 134
L 628 134
L 628 134
L 628 134
L 628 134
L 628 134
L 628 134
L 628 134
L 628 134
L 628 133
L 629 133
L 629 133
L 629 133
L 629 133
L 629 133
L 629 133
L 629 133
L 629 133
L 629 133
L 629 133
L 629 133
L 629 133
L 629 133
L 629 133
L 629 133
L 630 133
L 630 133
L 630 133
L 630 133
L 630 133
L 630 133
L 630 132
L 630 132
L 630 132
L 630 132
L 630 132
L 630 132
L 630 132
L 630 132
L 630 132
L 630 132
L 630 132
L 630 132
L 630 132
L 631 132
L 631 132
L 631 132
L 631 132
L 631 132
L 631 132
L 631 132
L 631 132
L 632 132
L 632 132
L 632 131
L 632 131
L 632 131
L 632 131
L 632 131
L 632 131
L 632 131
L 632 131
L 632 131
L 632 131
L 632 131
L 632 131
L 632 131
L 633 131
L 633 131
L 633 131
L 633 131
L 633 131
L 633 131
L 633 131
L 633 131
L 633 131
L 633 130
L 633 130
L 633 130
L 634 130
L 634 130
L 634 130
L 635 130
L 635 130
L 637 130
L 637 130
L 638 130
L 638 130
L 638 130
L 638 130
L 638 130
L 638 130
L 638 130
L 638 130
L 638 130
L 638 130
L 638 130
L 638 130
L 638 130
L 638 129
L 638 129
L 638 129
L 638 129
L 638 129
L 638 129
L 638 129
L 638 129
L 638 129
L 638 129
L 638 129
L 638 129
L 638 129
L 638 129
L 638 129
L 638 129
L 638 129
L 638 129
L 638 129
L 638 129
L 638 129
L 638 129
L 638 128
L 638 128
L 638 128
L 638 128
L 638 128
L 638 128
L 638 128
L 638 128
L 638 128
L 638 128
L 638 128
L 638 128
L 638 128
L 638 128
L 639 128
L 639 128
L 639 128
L 639 128
L 639 128
L 639 128
L 639 128
L 639 128
L 639 127
L 639 127
L 639 127
L 639 127
L 639 127
L 639 127
L 639 127
L 639 127
L 639 127
L 639 127
L 639 127
L 639 127
L 639 127
L 639 127
L 639 127
L 639 127
L 639 127
L 639 127
L 639 127
L 639 127
L 639 127
L 639 127
L 639 127
L 639 126
L 639 126
L 639 126
L 639 126
L 639 126
L 639 126
L 639 126
L 639 126
L 639 126
L 639 126
L 639 126
L 639 126
L 639 126
L 639 126
L 640 126
L 640 126
L 640 126
L 640 126
L 640 126
L 640 126
L 640 126
L 640 126
L 640 125
L 640 125
L 640 125
L 640 125
L 640 125
L 640 125
L 640 125
L 640 125
L 640 125
L 640 125
L 640 125
L 640 125
L 640 125
L 640 125
L 640 125
L 640 125
L 641 125
L 641 125
L 641 125
L 641 125
L 641 125
L 641 125
L 641 124
L 641 124
L 641 124
L 641 124
L 641 124
L 641 124
L 641 124
L 641 124
L 641 124
L 641 124
L 641 124
L 641 124
L 641 124
L 641 124
L 641 124
L 641 124
L 641 124
L 641 124
L 641 124
L 641 124
L 641 124
L 642 124
L 642 124
L 642 123
L 642 123
L 642 123
L 642 123
L 642 123
L 642 123
L 642 123
L 642 123
L 642 123
L 642 123
L 642 123
L 642 123
L 642 123
L 642 123
L 642 123
L 642 123
L 642 123
L 642 123
L 642 123
L 642 123
L 642 123
L 642 123
L 642 122
L 642 122
L 642 122
L 642 122
L 642 122
L 642 122
L 643 122
L 643 122
L 643 122
L 643 122
L 643 122
L 643 122
L 643 122
L 643 122
L 643 122
L 643 122
L 643 122
L 643 122
L 643 122
L 643 122
L 643 122
L 643 122
L 643 121
L 643 121
L 644 121
L 644 121
L 644 121
L 644 121
L 644 121
L 644 121
L 644 121
L 644 121
L 644 121
L 644 121
L 645 121
L 645 121
L 646 121
L 646 121
L 646 121
L 647 121
L 647 121
L 649 121
L 649 121
L 649 121
L 649 121
L 649 120
L 649 120
L 649 120
L 649 120
L 649 120
L 649 120
L 649 120
L 649 120
L 649 120
L 649 120
L 649 120
L 649 120
L 649 120
L 649 120
L 649 120
L 649 120
L 649 120
L 649 120
L 649 120
L 649 120
L 649 120
L 649 120
L 649 119
L 649 119
L 649 119
L 649 119
L 649 119
L 649 119
L 649 119
L 649 119
L 649 119
L 649 119
L 649 119
L 649 119
L 650 119
L 650 119
L 650 119
L 650 119
L 650 119
L 650 119
L 650 119
L 650 119
L 650 119
L 650 119
L 650 118
L 650 118
L 650 118
L 650 118
L 650 118
L 650 118
L 650 118
L 650 118
L 650 118
L 650 118
L 650 118
L 650 118
L 650 118
L 650 118
L 650 118
L 650 118
L 650 118
L 650 118
L 650 118
L 650 118
L 650 118
L 650 118
L 650 118
L 650 117
L 650 117
L 650 117
L 650 117
L 650 117
L 650 117
L 650 117
L 650 117
L 650 117
L 650 117
L 650 117
L 650 117
L 650 117
L 650 117
L 650 117
L 650 117
L 650 117
L 650 117
L 651 117
L 651 117
L 651 117
L 651 117
L 651 116
L 651 116
L 651 116
L 651 116
L 651 116
L 651 116
L 651 116
L 651 116
L 651 116
L 651 116
L 651 116
L 651 116
L 651 116
L 651 116
L 651 116
L 651 116
L 651 116
L 651 116
L 651 116
L 651 116
L 651 116
L 651 116
L 651 115
L 651 115
L 651 115
L 651 115
L 651 115
L 651 115
L 651 115
L 652 115
L 652 115
L 652 115
L 652 115
L 652 115
L 652 115
L 652 115
L 652 115
L 652 115
L 652 115
L 652 115
L 652 115
L 652 115
L 652 115
L 652 115
L 652 115
L 652 114
L 652 114
L 652 114
L 652 114
L 652 114
L 652 114
L 652 114
L 652 114
L 652 114
L 652 114
L 652 114
L 652 114
L 652 114
L 652 114
L 652 114
L 652 114
L 652 114
L 652 114
L 652 114
L 652 114
L 652 114
L 653 114
L 653 113
L 653 113
L 653 113
L 653 113
L 653 113
L 653 113
L 653 113
L 653 113
L 653 113
L 653 113
L 653 113
L 653 113
L 653 113
L 653 113
L 653 113
L 653 113
L 653 113
L 653 113
L 653 113
L 653 113
L 653 113
L 653 113
L 653 113
L 653 112
L 653 112
L 653 112
L 653 112
L 653 112
L 653 112
L 653 112
L 654 112
L 654 112
L 654 112
L 654 112
L 654 112
L 654 112
L 654 112
L 654 112
L 654 112
L 654 112
L 654 112
L 654 112
L 654 112
L 654 112
L 655 112
L 655 111
L 655 111
L 655 111
L 655 111
L 655 111
L 655 111
L 655 111
L 655 111
L 655 111
L 656 111
L 656 111
L 656 111
L 656 111
L 656 111
L 656 111
L 656 111
L 656 111
L 656 111
L 656 111
L 657 111
L 657 111
L 657 111
L 659 110
L 659 110
L 659 110
L 659 110
L 659 110
L 659 110
L 660 110
L 660 110
L 660 110
L 660 110
L 660 110
L 660 110
L 660 110
L 660 110
L 660 110
L 660 110
L 660 110
L 660 110
L 661 110
L 661 110
L 661 110
L 661 110
L 661 110
L 661 109
L 661 109
L 661 109
L 661 109
L 661 109
L 661 109
L 661 109
L 661 109
L 661 109
L 661 109
L 661 109
L 661 109
L 661 109
L 661 109
L 661 109
L 661 109
L 661 109
L 661 109
L 661 109
L 661 109
L 661 109
L 661 109
L 661 108
L 661 108
L 661 108
L 661 108
L 661 108
L 661 108
L 661 108
L 661 108
L 661 108
L 661 108
L 661 108
L 661 108
L 661 108
L 662 108
L 662 108
L 662 108
L 662 108
L 662 108
L 662 108
L 662 108
L 662 108
L 662 108
L 662 107
L 662 107
L 662 107
L 662 107
L 662 107
L 662 107
L 662 107
L 662 107
L 662 107
L 662 107
L 662 107
L 662 107
L 662 107
L 663 107
L 663 107
L 663 107
L 663 107
L 663 107
L 663 107
L 663 107
L 663 107
L 663 107
L 663 107
L 663 106
L 663 106
L 663 106
L 663 106
L 663 106
L 663 106
L 663 106
L 663 106
L 663 106
L 663 106
L 663 106
L 663 106
L 663 106
L 664 106
L 664 106
L 664 106
L 664 106
L 664 106
L 664 106
L 664 106
L 664 106
L 664 106
L 664 105
L 664 105
L 664 105
L 664 105
L 664 105
L 664 105
L 664 105
L 664 105
L 664 105
L 664 105
L 664 105
L 664 105
L 664 105
L 664 105
L 664 105
L 664 105
L 664 105
L 664 105
L 664 105
L 665 105
L 665 105
L 665 105
L 665 104
L 665 104
L 665 104
L 665 104
L 665 104
L 665 104
L 665 104
L 665 104
L 665 104
L 665 104
L 665 104
L 666 104
L 666 104
L 666 104
L 666 104
L 666 104
L 666 104
L 666 104
L 667 104
L 667 104
L 667 104
L 667 104
L 667 104
L 667 103
L 667 103
L 667 103
L 667 103
L 667 103
L 667 103
L 668 103
L 668 103
L 668 103
L 668 103
L 669 103
L 671 103
L 671 103
L 671 103
L 671 103
L 671 103
L 671 103
L 672 103
L 672 103
L 672 103
L 672 103
L 672 103
L 672 102
L 672 102
L 672 102
L 672 102
L 672 102
L 672 102
L 672 102
L 672 102
L 672 102
L 672 102
L 672 102
L 672 102
L 672 102
L 672 102
L 672 102
L 672 102
L 672 102
L 672 102
L 672 102
L 672 102
L 672 102
L 672 102
L 672 101
L 672 101
L 672 101
L 673 101
L 673 101
L 673 101
L 673 101
L 673 101
L 673 101
L 673 101
L 673 101
L 673 101
L 673 101
L 673 101
L 673 101
L 673 101
L 673 101
L 673 101
L 673 101
L 673 101
L 673 101
L 674 101
L 674 101
L 674 100
L 674 100
L 674 100
L 674 100
L 674 100
L 674 100
L 674 100
L 674 100
L 674 100
L 674 100
L 674 100
L 674 100
L 674 100
L 674 100
L 674 100
L 674 100
L 674 100
L 675 100
L 675 100
L 675 100
L 675 100
L 675 100
L 675 99
L 675 99
L 675 99
L 675 99
L 675 99
L 675 99
L 675 99
L 675 99
L 675 99
L 675 99
L 675 99
L 675 99
L 675 99
L 675 99
L 675 99
L 675 99
L 675 99
L 675 99
L 676 99
L 676 99
L 676 99
L 676 99
L 676 98
L 676 98
L 676 98
L 676 98
L 676 98
L 676 98
L 676 98
L 676 98
L 676 98
L 676 98
L 676 98
L 676 98
L 676 98
L 677 98
L 677 98
L 677 98
L 677 98
L 677 98
L 677 98
L 677 98
L 677 98
L 678 98
L 678 98
L 678 97
L 678 97
L 678 97
L 678 97
L 679 97
L 679 97
L 679 97
L 681 97
L 683 97
L 683 97
L 683 97
L 683 97
L 684 97
L 684 97
L 684 97
L 684 97
L 684 97
L 685 97
L 685 97
L 685 97
L 685 97
L 685 97
L 685 96
L 685 96
L 686 96
L 686 96
L 686 96
L 686 96
L 686 96
L 686 96
L 687 96
L 687 96
L 687 96
L 687 96
L 688 96
L 688 96
L 688 96
L 688 96
L 688 96
L 688 96
L 688 96
L 688 96
L 688 96
L 688 96
L 689 96
L 689 95
L 689 95
L 689 95
L 689 95
L 689 95
L 689 95
L 689 95
L 689 95
L 689 95
L 689 95
L 689 95
L 689 95
L 690 95
L 690 95
L 690 95
L 690 95
L 690 95
L 690 95
L 690 95
L 690 95
L 690 95
L 690 95
L 690 94
L 691 94
L 691 94
L 691 94
L 691 94
L 691 94
L 692 94
L 694 94
L 694 94
L 694 94
L 694 94
L 695 94
L 695 94
L 695 94
L 695 94
L 695 94
L 695 94
L 695 94
L 695 94
L 696 94
L 696 94
L 696 94
L 696 93
L 696 93
L 696 93
L 696 93
L 697 93
L 697 93
L 698 93
L 698 93
L 698 93
L 699 93
L 699 93
L 700 93
L 700 93
L 700 93
L 700 93
L 700 93
L 700 93
L 700 93
L 700 93
L 700 93
L 700 93
L 701 93
L 701 93
L 701 92
L 701 92
L 701 92
L 701 92
L 701 92
L 701 92
L 701 92
L 701 92
L 702 92
L 702 92
L 704 92
L 704 92
L 705 92
L 705 92
L 706 92
L 706 92
L 706 92
L 706 92
L 706 92
L 706 92
L 706 92
L 706 92
L 706 91
L 706 91
L 706 91
L 706 91
L 706 91
L 706 91
L 706 91
L 706 91
L 706 91
L 706 91
L 706 91
L 706 91
L 706 91
L 706 91
L 706 91
L 706 91
L 706 91
L 706 91
L 706 91
L 707 91
L 707 91
L 707 91
L 707 90
L 707 90
L 707 90
L 707 90
L 707 90
L 707 90
L 707 90
L 707 90
L 707 90
L 707 90
L 707 90
L 707 90
L 707 90
L 708 90
L 708 90
L 708 90
L 708 90
L 708 90
L 708 90
L 708 90
L 708 90
L 708 90
L 708 90
L 708 89
L 708 89
L 708 89
L 708 89
L 708 89
L 708 89
L 708 89
L 708 89
L 708 89
L 708 89
L 708 89
L 708 89
L 708 89
L 709 89
L 709 89
L 709 89
L 709 89
L 709 89
L 709 89
L 709 89
L 709 89
L 709 89
L 709 88
L 709 88
L 709 88
L 709 88
L 709 88
L 709 88
L 709 88
L 709 88
L 709 88
L 709 88
L 709 88
L 709 88
L 709 88
L 709 88
L 709 88
L 709 88
L 709 88
L 709 88
L 709 88
L 709 88
L 710 88
L 710 88
L 710 87
L 710 87
L 710 87
L 710 87
L 710 87
L 710 87
L 710 87
L 710 87
L 710 87
L 710 87
L 711 87
L 711 87
L 711 87
L 711 87
L 711 87
L 711 87
L 711 87
L 711 87
L 711 87
L 711 87
L 711 87
L 712 87
L 712 87
L 712 86
L 712 86
L 712 86
L 712 86
L 712 86
L 713 86
L 713 86
L 713 86
L 713 86
L 715 86
L 716 86
L 717 86
L 717 86
L 717 86
L 717 86
L 717 86
L 717 86
L 717 86
L 717 86
L 717 86
L 717 86
L 717 86
L 717 85
L 717 85
L 717 85
L 718 85
L 718 85
L 718 85
L 718 85
L 718 85
L 718 85
L 718 85
L 718 85
L 718 85
L 718 85
L 718 85
L 718 85
L 718 85
L 718 85
L 718 85
L 718 85
L 718 85
L 718 85
L 718 85
L 718 84
L 718 84
L 718 84
L 718 84
L 718 84
L 719 84
L 719 84
L 719 84
L 719 84
L 719 84
L 719 84
L 719 84
L 719 84
L 719 84
L 719 84
L 719 84
L 719 84
L 719 84
L 719 84
L 719 84
L 719 84
L 719 84
L 720 84
L 720 83
L 720 83
L 720 83
L 720 83
L 720 83
L 720 83
L 720 83
L 720 83
L 720 83
L 720 83
L 720 83
L 720 83
L 720 83
L 720 83
L 720 83
L 720 83
L 720 83
L 720 83
L 720 83
L 720 83
L 720 83
L 720 83
L 720 82
L 721 82
L 721 82
L 721 82
L 721 82
L 721 82
L 721 82
L 721 82
L 721 82
L 721 82
L 721 82
L 721 82
L 721 82
L 721 82
L 721 82
L 721 82
L 721 82
L 721 82
L 721 82
L 721 82
L 721 82
L 721 82
L 721 81
L 722 81
L 722 81
L 722 81
L 722 81
L 722 81
L 722 81
L 722 81
L 722 81
L 722 81
L 722 81
L 722 81
L 722 81
L 722 81
L 722 81
L 722 81
L 723 81
L 723 81
L 723 81
L 723 81
L 723 81
L 723 81
L 723 81
L 723 80
L 723 80
L 723 80
L 723 80
L 723 80
L 723 80
L 723 80
L 723 80
L 723 80
L 723 80
L 723 80
L 723 80
L 724 80
L 724 80
L 724 80
L 724 80
L 724 80
L 724 80
L 724 80
L 724 80
L 724 80
L 724 80
L 724 79
L 724 79
L 724 79
L 725 79
L 725 79
L 725 79
L 725 79
L 725 79
L 726 79
L 726 79
L 726 79
L 728 79
L 728 79
L 728 79
L 728 79
L 728 79
L 728 79
L 728 79
L 728 79
L 728 79
L 728 79
L 728 79
L 728 79
L 728 78
L 728 78
L 728 78
L 728 78
L 728 78
L 728 78
L 729 78
L 729 78
L 729 78
L 729 78
L 729 78
L 729 78
L 729 78
L 729 78
L 729 78
L 729 78
L 729 78
L 729 78
L 729 78
L 729 78
L 729 78
L 729 78
L 729 77
L 729 77
L 729 77
L 729 77
L 729 77
L 729 77
L 729 77
L 729 77
L 729 77
L 729 77
L 729 77
L 729 77
L 729 77
L 729 77
L 729 77
L 729 77
L 729 77
L 730 77
L 730 77
L 730 77
L 730 77
L 730 77
L 730 76
L 730 76
L 730 76
L 730 76
L 730 76
L 730 76
L 730 76
L 730 76
L 730 76
L 730 76
L 730 76
L 730 76
L 730 76
L 730 76
L 730 76
L 730 76
L 730 76
L 730 76
L 730 76
L 730 76
L 731 76
L 731 76
L 731 76
L 731 75
L 731 75
L 731 75
L 731 75
L 731 75
L 731 75
L 731 75
L 731 75
L 731 75
L 731 75
L 731 75
L 731 75
L 731 75
L 731 75
L 731 75
L 731 75
L 731 75
L 731 75
L 731 75
L 731 75
L 731 75
L 731 75
L 731 74
L 731 74
L 731 74
L 731 74
L 731 74
L 731 74
L 731 74
L 731 74
L 732 74
L 732 74
L 732 74
L 732 74
L 732 74
L 732 74
L 732 74
L 732 74
L 732 74
L 732 74
L 732 74
L 732 74
L 732 74
L 732 74
L 732 73
L 732 73
L 732 73
L 732 73
L 732 73
L 732 73
L 732 73
L 732 73
L 732 73
L 732 73
L 732 73
L 732 73
L 732 73
L 732 73
L 732 73
L 732 73
L 732 73
L 732 73
L 732 73
L 732 73
L 732 73
L 732 73
L 732 73
L 732 72
L 733 72
L 733 72
L 733 72
L 733 72
L 733 72
L 733 72
L 733 72
L 733 72
L 733 72
L 733 72
L 733 72
L 733 72
L 733 72
L 733 72
L 733 72
L 733 72
L 733 72
L 733 72
L 733 72
L 733 72
L 733 72
L 734 71
L 734 71
L 734 71
L 734 71
L 734 71
L 734 71
L 734 71
L 734 71
L 734 71
L 734 71
L 734 71
L 735 71
L 735 71
L 735 71
L 735 71
L 735 71
L 735 71
L 735 71
L 735 71
L 735 71
L 735 71
L 736 71
L 736 70
L 736 70
L 737 70
L 737 70
L 737 70
L 739 70
L 739 70
L 739 70
L 739 70
L 739 70
L 740 70
L 740 70
L 740 70
L 740 70
L 740 70
L 740 70
L 740 70
L 740 70
L 740 70
L 740 70
L 740 70
L 740 70
L 740 70
L 740 69
L 740 69
L 740 69
L 740 69
L 740 69
L 740 69
L 740 69
L 740 69
L 740 69
L 740 69
L 740 69
L 740 69
L 740 69
L 740 69
L 741 69
L 741 69
L 741 69
L 741 69
L 741 69
L 741 69
L 741 69
L 741 69
L 741 68
L 741 68
L 741 68
L 741 68
L 741 68
L 741 68
L 741 68
L 741 68
L 741 68
L 741 68
L 741 68
L 741 68
L 741 68
L 741 68
L 741 68
L 741 68
L 741 68
L 742 68
L 742 68
L 742 68
L 742 68
L 742 68
L 742 67
L 742 67
L 742 67
L 742 67
L 742 67
L 742 67
L 742 67
L 742 67
L 742 67
L 742 67
L 742 67
L 742 67
L 742 67
L 742 67
L 742 67
L 742 67
L 742 67
L 742 67
L 742 67
L 743 67
L 743 67
L 743 67
L 743 67
L 743 66
L 743 66
L 743 66
L 743 66
L 743 66
L 743 66
L 743 66
L 743 66
L 743 66
L 743 66
L 743 66
L 743 66
L 743 66
L 743 66
L 743 66
L 743 66
L 743 66
L 744 66
L 744 66
L 744 66
L 744 66
L 744 66
L 744 65
L 744 65
L 744 65
L 744 65
L 744 65
L 744 65
L 744 65
L 744 65
L 744 65
L 744 65
L 744 65
L 744 65
L 744 65
L 744 65
L 744 65
L 744 65
L 744 65
L 744 65
L 744 65
L 744 65
L 744 65
L 745 65
L 745 64
L 745 64
L 745 64
L 746 64
L 746 64
L 746 64
L 746 64
L 746 64
L 747 64
L 747 64
L 747 64
L 747 64
L 747 64
L 747 64
L 747 64
L 748 64
L 748 64
L 748 64
L 749 64
L 750 64
L 751 64
L 751 64
L 751 64
L 751 63
L 751 63
L 751 63
L 751 63
L 751 63
L 751 63
L 751 63
L 751 63
L 751 63
L 751 63
L 752 63
L 752 63
L 752 63
L 752 63
L 752 63
L 752 63
L 752 63
L 752 63
L 752 63
L 752 63
L 752 63
L 752 63
L 752 62
L 752 62
L 752 62
L 752 62
L 752 62
L 752 62
L 752 62
L 752 62
L 752 62
L 752 62
L 752 62
L 753 62
L 753 62
L 753 62
L 753 62
L 753 62
L 753 62
L 753 62
L 753 62
L 753 62
L 753 62
L 753 62
L 753 62
L 754 61
L 754 61
L 754 61
L 754 61
L 754 61
L 754 61
L 754 61
L 754 61
L 754 61
L 754 61
L 754 61
L 754 61
L 754 61
L 754 61
L 754 61
L 754 61
L 754 61
L 754 61
L 754 61
L 754 61
L 754 61
L 755 61
L 755 60
L 755 60
L 755 60
L 755 60
L 755 60
L 755 60
L 755 60
L 755 60
L 755 60
L 755 60
L 755 60
L 755 60
L 755 60
L 755 60
L 755 60
L 755 60
L 755 60
L 755 60
L 755 60
L 755 60
L 755 60
L 755 60
L 755 59
L 755 59
L 755 59
L 755 59
L 755 59
L 756 59
L 756 59
L 756 59
L 756 59
L 756 59
L 756 59
L 756 59
L 756 59
L 756 59
L 757 59
L 757 59
L 757 59
L 757 59
L 757 59
L 758 59
L 758 59
L 758 59
L 759 59
L 759 58
L 762 58
L 762 58
L 762 58
L 763 58
L 763 58
L 763 58
L 763 58
L 763 58
L 763 58
L 763 58
L 763 58
L 763 58
L 764 58
L 764 58
L 764 58
L 764 58
L 765 58
L 765 58
L 765 58
L 765 58
L 766 58
L 766 57
L 766 57
L 766 57
L 767 57
L 767 57
L 767 57
L 767 57
L 768 57
L 768 57
L 768 57
L 768 57
L 769 57
L 769 57
L 769 57
L 769 57
L 769 57
L 770 57
L 770 57
L 770 57
L 771 57
L 771 57
L 774 57
L 774 56
L 774 56
L 774 56
L 774 56
L 775 56
L 775 56
L 775 56
L 775 56
L 775 56
L 775 56
L 775 56
L 775 56
L 775 56
L 776 56
L 776 56
L 776 56
L 777 56
L 777 56
L 777 56
L 777 56
L 777 56
L 777 56
L 778 56
L 778 55
L 778 55
L 778 55
L 778 55
L 778 55
L 778 55
L 779 55
L 779 55
L 779 55
L 779 55
L 779 55
L 780 55
L 780 55
L 780 55
L 781 55
L 781 55
L 781 55
L 782 55
L 783 55
L 785 55
L 785 55
L 785 55
L 785 54
L 785 54
L 785 54
L 785 54
L 785 54
L 786 54
L 786 54
L 786 54
L 786 54
L 786 54
L 786 54
L 786 54
L 786 54
L 786 54
L 786 54
L 786 54
L 786 54
L 786 54
L 786 54
L 787 54
L 787 54
L 787 54
L 787 53
L 787 53
L 787 53
L 787 53
L 787 53
L 787 53
L 788 53
L 788 53
L 788 53
L 788 53
L 788 53
L 788 53
L 788 53
L 788 53
L 788 53
L 788 53
L 788 53
L 788 53
L 788 53
L 788 53
L 788 53
L 788 53
L 788 53
L 788 52
L 788 52
L 788 52
L 788 52
L 788 52
L 789 52
L 789 52
L 789 52
L 789 52
L 789 52
L 789 52
L 789 52
L 789 52
L 789 52
L 789 52
L 789 52
L 789 52
L 789 52
L 789 52
L 790 52
L 790 52
L 790 52
L 790 51
L 790 51
L 790 51
L 790 51
L 790 51
L 790 51
L 791 51
L 791 51
L 791 51
L 791 51
L 791 51
L 791 51
L 791 51
L 791 51
L 792 51
L 792 51
L 792 51
L 792 51
L 792 51
L 793 51
L 793 51
L 793 51
L 793 50
L 794 50
L 796 50
L 796 50
L 796 50
L 796 50
L 797 50
L 797 50
L 797 50
L 797 50
L 797 50
L 797 50
L 797 50
L 797 50
L 797 50
L 797 50
L 797 50
L 797 50
L 797 50
L 797 50
L 797 50
L 797 50
L 797 50
L 797 49
L 797 49
L 798 49
L 798 49
L 798 49
L 798 49
L 798 49
L 798 49
L 798 49
L 798 49
L 798 49
L 798 49
L 798 49
L 799 49
L 799 49
L 799 49
L 799 49
L 799 49
L 799 49
L 799 49
L 799 49
L 799 49
L 799 48
L 799 48
L 799 48
L 799 48
L 799 48
L 799 48
L 800 48
L 800 48
L 800 48
L 800 48
L 800 48
L 800 48
L 800 48
L 800 48
L 800 48
L 800 48
L 800 48
L 800 48
L 800 48
L 800 48
L 800 48
L 801 48
L 801 47
L 801 47
L 801 47
L 801 47
L 802 47
L 802 47
L 802 47
L 802 47
L 802 47
L 803 47
L 803 47
L 803 47
L 803 47
L 804 47
L 804 47
L 806 47
L 807 47
L 808 47
L 808 47
L 808 47
L 808 47
L 808 47
L 808 47
L 808 46
L 808 46
L 808 46
L 808 46
L 809 46
L 809 46
L 809 46
L 809 46
L 809 46
L 810 46
L 810 46
L 810 46
L 810 46
L 810 46
L 810 46
L 810 46
L 810 46
L 810 46
L 810 46
L 810 46
L 811 46
L 811 46
L 811 45
L 811 45
L 811 45
L 811 45
L 811 45
L 811 45
L 811 45
L 811 45
L 811 45
L 811 45
L 811 45
L 811 45
L 812 45
L 812 45
L 812 45
L 812 45
L 812 45
L 812 45
L 812 45
L 812 45
L 812 45
L 813 45
L 813 45
L 813 44
L 813 44
L 814 44
L 814 44
L 814 44
L 815 44
L 815 44
L 815 44
L 815 44
L 816 44
L 819 44
L 819 44
L 819 44
L 820 44
L 820 44
L 820 44
L 820 44
L 820 44
L 820 44
L 820 44
L 820 44
L 820 44
L 820 43
L 820 43
L 820 43
L 820 43
L 821 43
L 821 43
L 821 43
L 821 43
L 821 43
L 822 43
L 822 43
L 822 43
L 822 43
L 822 43
L 822 43
L 822 43
L 822 43
L 822 43
L 822 43
L 822 43
L 822 43
L 822 43
L 822 42
L 822 42
L 823 42
L 823 42
L 823 42
L 823 42
L 823 42
L 823 42
L 823 42
L 823 42
L 823 42
L 823 42
L 824 42
L 824 42
L 825 42
L 826 42
L 826 42
L 826 42
L 827 42
L 829 42
L 830 42
L 830 42
L 831 42
L 831 41
L 831 41
L 831 41
L 831 41
L 831 41
L 831 41
L 831 41
L 831 41
L 831 41
L 831 41
L 831 41
L 831 41
L 831 41
L 831 41
L 831 41
L 831 41
L 832 41
L 832 41
L 832 41
L 832 41
L 832 41
L 832 41
L 832 40
L 832 40
L 832 40
L 832 40
L 832 40
L 832 40
L 832 40
L 832 40
L 832 40
L 832 40
L 832 40
L 832 40
L 832 40
L 832 40
L 832 40
L 832 40
L 832 40
L 832 40
L 832 40
L 832 40
L 832 40
L 832 40
L 832 39
L 832 39
L 832 39
L 832 39
L 832 39
L 832 39
L 832 39
L 832 39
L 832 39
L 832 39
L 833 39
L 833 39
L 833 39
L 833 39
L 833 39
L 833 39
L 833 39
L 833 39
L 833 39
L 833 39
L 833 39
L 833 39
L 833 39
L 833 38
L 833 38
L 833 38
L 833 38
L 833 38
L 833 38
L 833 38
L 833 38
L 833 38
L 833 38
L 833 38
L 833 38
L 833 38
L 833 38
L 833 38
L 833 38
L 833 38
L 833 38
L 833 38
L 833 38
L 833 38
L 833 38
L 833 37
L 833 37
L 833 37
L 833 37
L 833 37
L 834 37
L 834 37
L 834 37
L 834 37
L 834 37
L 834 37
L 834 37
L 834 37
L 834 37
L 834 37
L 834 37
L 834 37
L 834 37
L 834 37
L 834 37
L 834 37
L 834 37
L 834 36
L 834 36
L 834 36
L 834 36
L 834 36
L 834 36
L 834 36
L 834 36
L 834 36
L 834 36
L 834 36
L 834 36
L 834 36
L 834 36
L 834 36
L 835 36
L 835 36
L 835 36
L 835 36
L 835 36
L 835 36
L 835 36
L 835 36
L 835 35
L 835 35
L 835 35
L 835 35
L 835 35
L 835 35
L 835 35
L 835 35
L 835 35
L 835 35
L 835 35
L 835 35
L 835 35
L 835 35
L 835 35
L 835 35
L 835 35
L 835 35
L 836 35
L 836 35
L 836 35
L 836 35
L 836 34
L 836 34
L 836 34
L 836 34
L 836 34
L 836 34
L 836 34
L 836 34
L 836 34
L 837 34
L 837 34
L 837 34
L 837 34
L 837 34
L 837 34
L 837 34
L 837 34
L 837 34
L 837 34
L 837 34
L 837 34
L 837 34
L 837 33
L 837 33
L 838 33
L 838 33
L 838 33
L 838 33
L 838 33
L 839 33
L 839 33
L 840 33
L 840 33
L 840 33
L 841 33
L 841 33
L 841 33
L 842 33
L 842 33
L 842 33
L 842 33
L 842 33
L 842 33
L 842 33
L 842 33
L 842 32
L 842 32
L 842 32
L 842 32
L 842 32
L 842 32
L 842 32
L 842 32
L 842 32
L 842 32
L 842 32
L 842 32
L 842 32
L 842 32
L 842 32
L 842 32
L 842 32
L 842 32
L 843 32
L 843 32
L 843 32
L 843 32
L 843 31
L 843 31
L 843 31
L 843 31
L 843 31
L 843 31
L 843 31
L 843 31
L 843 31
L 843 31
L 843 31
L 843 31
L 843 31
L 843 31
L 844 31
L 844 31
L 844 31
L 844 31
L 844 31
L 844 31
L 844 31
L 844 31
L 844 30
L 844 30
L 844 30
L 844 30
L 844 30
L 844 30
L 844 30
L 844 30
L 844 30
L 844 30
L 844 30
L 845 30
L 845 30
L 845 30
L 845 30
L 845 30
L 845 30
L 845 30
L 845 30
L 845 30
L 845 30
L 845 30
L 845 30
L 845 29
L 845 29
L 845 29
L 845 29
L 845 29
L 845 29
L 845 29
L 845 29
L 845 29
L 845 29
L 845 29
L 846 29
L 846 29
L 846 29
L 846 29
L 847 29
L 847 29
L 847 29
L 847 29
L 847 29
L 848 29
L 848 29
L 848 28
L 848 28
L 848 28
L 848 28
L 848 28
L 848 28
L 848 28
L 849 28
L 849 28
L 849 28
L 849 28
L 849 28
L 850 28
L 853 28
L 854 28
L 854 28
L 854 28
L 854 28
L 854 28
L 854 28
L 854 28
L 854 28
L 854 28
L 854 27
L 855 27
L 855 27
L 855 27
L 855 27
L 855 27
L 855 27
L 855 27
L 856 27
L 856 27
L 856 27
L 856 27
L 856 27
L 856 27
L 856 27
L 856 27
L 856 27
L 856 27
L 857 27
L 857 27
L 857 27
L 857 27
L 857 26
L 857 26
L 857 26
L 858 26
L 858 26
L 858 26
L 858 26
L 859 26
L 859 26
L 859 26
L 859 26
L 859 26
L 859 26
L 859 26
L 860 26
L 860 26
L 860 26
L 860 26
L 860 26
L 860 26
L 861 26
L 861 26
L 864 25
L 864 25
L 865 25
L 865 25
L 865 25
L 865 25
L 865 25
L 866 25
L 866 25
L 867 25
L 867 25
L 867 25
L 867 25
L 868 25
L 868 25
L 869 25
L 870 25
L 870 25
L 870 25
L 871 25
L 871 25
L 874 25
L 874 25
L 877 24
L 877 24
L 877 24
L 878 24
L 878 24
L 878 24
L 880 24
L 880 24
L 881 24
L 881 24
L 882 24
L 882 24
L 882 24
L 882 24
L 882 24
L 882 24
L 882 24
L 882 24
L 882 24
L 882 24
L 883 24
L 883 24
L 883 23
L 884 23
L 887 23
L 888 23
L 888 23
L 888 23
L 889 23
L 889 23
L 889 23
L 889 23
L 891 23
L 891 23
L 891 23
L 892 23
L 892 23
L 892 23
L 892 23
L 893 23
L 893 23
L 893 23
L 893 23
L 893 23
L 893 22
L 893 22
L 894 22
L 895 22
L 897 22
L 898 22
L 898 22
L 899 22
L 900 22
L 900 22
L 901 22
L 901 22
L 902 22
L 902 22
L 902 22
L 902 22
L 903 22
L 904 22
L 904 22
L 905 22
L 906 22
L 906 22
L 906 22
L 906 21
L 906 21
L 907 21
L 910 21
L 911 21
L 911 21
L 911 21
L 911 21
L 912 21
L 913 21
L 914 21
L 915 21
L 915 21
L 916 21
L 916 21
L 916 21
L 916 21
L 916 21
L 918 21
L 918 21
L 919 21
L 920 21
L 922 20
L 924 20
L 924 20
L 924 20
L 926 20
L 926 20
L 927 20
L 927 20
L 928 20
L 928 20
L 928 20
L 928 20
L 928 20
L 928 20
L 928 20
L 930 20
L 932 20
L 932 20
L 932 20
L 933 20
L 933 20
L 933 20
L 933 19
L 934 19
L 934 19
L 934 19
L 934 19
L 934 19
L 934 19
L 934 19
L 935 19
L 936 19
L 936 19
L 936 19
L 936 19
L 936 19
L 936 19
L 936 19
L 938 19
L 938 19
L 938 19
L 938 19
L 939 19
L 939 19
L 939 19
L 940 18
L 940 18
L 940 18
L 942 18
L 943 18
L 944 18
L 944 18
L 944 18
L 944 18
L 944 18
L 944 18
L 944 18
L 944 18
L 944 18
L 944 18
L 944 18
L 944 18
L 944 18
L 944 18
L 944 18
L 944 18
L 944 18
L 944 17
L 944 17
L 944 17
L 945 17
L 945 17
L 945 17
L 945 17
L 945 17
L 945 17
L 945 17
L 945 17
L 945 17
L 945 17
L 945 17
L 945 17
L 945 17
L 945 17
L 945 17
L 945 17
L 946 17
L 946 17
L 946 17
L 946 16
L 946 16
L 946 16
L 946 16
L 946 16
L 946 16
L 946 16
L 946 16
L 946 16
L 946 16
L 946 16
L 946 16
L 946 16
L 946 16
L 946 16
L 947 16
L 947 16
L 947 16
L 947 16
L 947 16
L 947 16
L 947 16
L 947 16
L 947 15
L 947 15
L 947 15
L 947 15
L 947 15
L 947 15
L 947 15
L 947 15
L 947 15
L 947 15
L 947 15
L 947 15
L 947 15
L 947 15
L 947 15
L 948 15
L 948 15
L 948 15
L 948 15
L 948 15
L 948 15
L 948 15
L 948 14
L 948 14
L 948 14
L 948 14
L 948 14
L 948 14
L 948 14
L 948 14
L 948 14
L 948 14
L 948 14
L 948 14
L 949 14
L 949 14
L 949 14
L 949 14
L 949 14
L 949 14
L 949 14
L 950 14
L 950 14
L 950 14
L 950 13
L 950 13
L 951 13
L 951 13
L 951 13
L 951 13
L 952 13
L 954 13
L 955 13
L 955 13
L 955 13
L 955 13
L 955 13
L 955 13
L 955 13
L 955 13
L 955 13
L 955 13
L 955 13
L 955 13
L 955 13
L 956 13
L 956 13
L 956 12
L 956 12
L 956 12
L 956 12
L 956 12
L 956 12
L 956 12
L 956 12
L 956 12
L 956 12
L 956 12
L 956 12
L 956 12
L 956 12
L 956 12
L 956 12
L 956 12
L 956 12
L 956 12
L 956 12
L 956 12
L 956 12
L 956 11
L 956 11
L 956 11
L 956 11
L 956 11
L 957 11
L 957 11
L 957 11
L 957 11
L 957 11
L 957 11
L 957 11
L 957 11
L 957 11
L 957 11
L 957 11
L 957 11
L 957 11
L 957 11
L 957 11
L 957 11
L 957 11" style="stroke-width:2;stroke:rgba(129,199,239,1.0);fill:none"/></svg>