<svg xmlns="http://www.w3.org/2000/svg" xmlns:xlink="http://www.w3.org/1999/xlink" width="1024" height="400">\n<path  d="M 0 0
L 1024 0
L 1024 400
L 0 400
L 0 0" style="stroke-width:0;stroke:rgba(255,255,255,1.0);fill:rgba(255,255,255,1.0)"/><path  d="M 38 11
L 957 11
L 957 351
L 38 351
L 38 11" style="stroke-width:0;stroke:rgba(255,255,255,1.0);fill:rgba(255,255,255,1.0)"/><path  d="M 38 351
L 957 351" style="stroke-width:2;stroke:rgba(85,85,85,1.0);fill:none"/><path  d="M 38 351
L 38 356" style="stroke-width:2;stroke:rgba(85,85,85,1.0);fill:none"/><text x="5" y="373" style="stroke-width:0;stroke:none;fill:rgba(51,51,51,1.0);font-size:12.8px;font-family:'Roboto Medium',sans-serif">2018-11-23</text><path  d="M 153 351
L 153 356" style="stroke-width:2;stroke:rgba(85,85,85,1.0);fill:none"/><text x="120" y="373" style="stroke-width:0;stroke:none;fill:rgba(51,51,51,1.0);font-size:12.8px;font-family:'Roboto Medium',sans-serif">2018-12-02</text><path  d="M 268 351
L 268 356" style="stroke-width:2;stroke:rgba(85,85,85,1.0);fill:none"/><text x="235" y="373" style="stroke-width:0;stroke:none;fill:rgba(51,51,51,1.0);font-size:12.8px;font-family:'Roboto Medium',sans-serif">2018-12-10</text><path  d="M 383 351
L 383 356" style="stroke-width:2;stroke:rgba(85,85,85,1.0);fill:none"/><text x="350" y="373" style="stroke-width:0;stroke:none;fill:rgba(51,51,51,1.0);font-size:12.8px;font-family:'Roboto Medium',sans-serif">2018-12-19</text><path  d="M 498 351
L 498 356" style="stroke-width:2;stroke:rgba(85,85,85,1.0);fill:none"/><text x="465" y="373" style="stroke-width:0;stroke:none;fill:rgba(51,51,51,1.0);font-size:12.8px;font-family:'Roboto Medium',sans-serif">2018-12-28</text><path  d="M 613 351
L 613 356" style="stroke-width:2;stroke:rgba(85,85,85,1.0);fill:none"/><text x="580" y="373" style="stroke-width:0;stroke:none;fill:rgba(51,51,51,1.0);font-size:12.8px;font-family:'Roboto Medium',sans-serif">2019-01-06</text><path  d="M 728 351
L 728 356" style="stroke-width:2;stroke:rgba(85,85,85,1.0);fill:none"/><text x="695" y="373" style="stroke-width:0;stroke:none;fill:rgba(51,51,51,1.0);font-size:12.8px;font-family:'Roboto Medium',sans-serif">2019-01-15</text><path  d="M 843 351
L 843 356" style="stroke-width:2;stroke:rgba(85,85,85,1.0);fill:none"/><text x="810" y="373" style="stroke-width:0;stroke:none;fill:rgba(51,51,51,1.0);font-size:12.8px;font-family:'Roboto Medium',sans-serif">2019-01-24</text><path  d="M 957 351
L 957 356" style="stroke-width:2;stroke:rgba(85,85,85,1.0);fill:none"/><text x="924" y="373" style="stroke-width:0;stroke:none;fill:rgba(51,51,51,1.0);font-size:12.8px;font-family:'Roboto Medium',sans-serif">2019-02-02</text><text x="483" y="395" style="stroke-width:0;stroke:none;fill:rgba(51,51,51,1.0);font-size:12.8px;font-family:'Roboto Medium',sans-serif">Time</text><path  d="M 959 351
L 959 11" style="stroke-width:2;stroke:rgba(85,85,85,1.0);fill:none"/><path  d="M 959 351
L 964 351" style="stroke-width:2;stroke:rgba(85,85,85,1.0);fill:none"/><text x="969" y="357" style="stroke-width:0;stroke:none;fill:rgba(51,51,51,1.0);font-size:12.8px;font-family:'Roboto Medium',sans-serif">0</text><path  d="M 959 308
L 964 308" style="stroke-width:2;stroke:rgba(85,85,85,1.0);fill:none"/><text x="969" y="314" style="stroke-width:0;stroke:none;fill:rgba(51,51,51,1.0);font-size:12.8px;font-family:'Roboto Medium',sans-serif">900</text><path  d="M 959 266
L 964 266" style="stroke-width:2;stroke:rgba(85,85,85,1.0);fill:none"/><text x="969" y="272" style="stroke-width:0;stroke:none;fill:rgba(51,51,51,1.0);font-size:12.8px;font-family:'Roboto Medium',sans-serif">1800</text><path  d="M 959 223
L 964 223" style="stroke-width:2;stroke:rgba(85,85,85,1.0);fill:none"/><text x="969" y="229" style="stroke-width:0;stroke:none;fill:rgba(51,51,51,1.0);font-size:12.8px;font-family:'Roboto Medium',sans-serif">2700</text><path  d="M 959 181
L 964 181" style="stroke-width:2;stroke:rgba(85,85,85,1.0);fill:none"/><text x="969" y="187" style="stroke-width:0;stroke:none;fill:rgba(51,51,51,1.0);font-size:12.8px;font-family:'Roboto Medium',sans-serif">3600</text><path  d="M 959 138
L 964 138" style="stroke-width:2;stroke:rgba(85,85,85,1.0);fill:none"/><text x="969" y="144" style="stroke-width:0;stroke:none;fill:rgba(51,51,51,1.0);font-size:12.8px;font-family:'Roboto Medium',sans-serif">4500</text><path  d="M 959 96
L 964 96" style="stroke-width:2;stroke:rgba(85,85,85,1.0);fill:none"/><text x="969" y="102" style="stroke-width:0;stroke:none;fill:rgba(51,51,51,1.0);font-size:12.8px;font-family:'Roboto Medium',sans-serif">5400</text><path  d="M 959 53
L 964 53" style="stroke-width:2;stroke:rgba(85,85,85,1.0);fill:none"/><text x="969" y="59" style="stroke-width:0;stroke:none;fill:rgba(51,51,51,1.0);font-size:12.8px;font-family:'Roboto Medium',sans-serif">6300</text><path  d="M 959 11
L 964 11" style="stroke-width:2;stroke:rgba(85,85,85,1.0);fill:none"/><text x="969" y="17" style="stroke-width:0;stroke:none;fill:rgba(51,51,51,1.0);font-size:12.8px;font-family:'Roboto Medium',sans-serif">7200</text><text x="1009" y="150" style="stroke-width:0;stroke:none;fill:rgba(51,51,51,1.0);font-size:12.8px;font-family:'Roboto Medium',sans-serif" transform="rotate(90.00,1009,150)">Stargazers</text><path  d="M 38 351
L 106 350
L 154 350
L 156 350
L 166 350
L 166 350
L 166 350
L 167 350
L 167 350
L 168 350
L 168 350
L 168 350
L 168 350
L 168 350
L 168 350
L 169 350
L 169 350
L 169 350
L 169 350
L 169 350
L 169 350
L 170 350
L 171 349
L 172 349
L 179 349
L 180 349
L 180 349
L 180 349
L 181 349
L 182 349
L 183 349
L 184 349
L 186 349
L 186 349
L 186 349
L 186 349
L 186 349
L 186 349
L 190 349
L 191 349
L 192 349
L 192 349
L 192 349
L 192 348
L 192 348
L 193 348
L 193 348
L 193 348
L 193 348
L 193 348
L 195 348
L 195 348
L 196 348
L 196 348
L 196 348
L 196 348
L 196 348
L 196 348
L 197 348
L 197 348
L 198 348
L 198 348
L 198 348
L 198 348
L 199 347
L 199 347
L 199 347
L 199 347
L 200 347
L 204 347
L 205 347
L 205 347
L 205 347
L 205 347
L 206 347
L 206 347
L 206 347
L 206 347
L 207 347
L 207 347
L 207 347
L 207 347
L 207 347
L 207 347
L 207 347
L 207 346
L 207 346
L 207 346
L 207 346
L 207 346
L 207 346
L 207 346
L 207 346
L 207 346
L 207 346
L 207 346
L 207 346
L 207 346
L 207 346
L 207 346
L 207 346
L 207 346
L 207 346
L 207 346
L 207 346
L 207 346
L 207 345
L 207 345
L 208 345
L 208 345
L 208 345
L 208 345
L 208 345
L 208 345
L 208 345
L 208 345
L 208 345
L 208 345
L 208 345
L 208 345
L 208 345
L 208 345
L 208 345
L 208 345
L 208 345
L 208 345
L 208 345
L 208 345
L 209 344
L 209 344
L 209 344
L 209 344
L 209 344
L 209 344
L 209 344
L 209 344
L 210 344
L 210 344
L 210 344
L 210 344
L 210 344
L 210 344
L 210 344
L 210 344
L 210 344
L 211 344
L 211 344
L 211 344
L 211 344
L 211 343
L 211 343
L 211 343
L 213 343
L 213 343
L 217 343
L 218 343
L 218 343
L 218 343
L 218 343
L 218 343
L 219 343
L 219 343
L 220 343
L 220 343
L 220 343
L 220 343
L 221 343
L 221 343
L 221 343
L 221 343
L 221 342
L 222 342
L 222 342
L 222 342
L 222 342
L 222 342
L 223 342
L 223 342
L 224 342
L 231 342
L 231 342
L 231 342
L 231 342
L 232 342
L 233 342
L 234 342
L 235 342
L 238 342
L 239 342
L 239 342
L 241 342
L 244 341
L 245 341
L 247 341
L 247 341
L 248 341
L 248 341
L 249 341
L 249 341
L 249 341
L 249 341
L 249 341
L 249 341
L 250 341
L 250 341
L 252 341
L 256 341
L 256 341
L 256 341
L 257 341
L 257 341
L 258 341
L 259 340
L 260 340
L 264 340
L 264 340
L 270 340
L 272 340
L 272 340
L 273 340
L 273 340
L 275 340
L 275 340
L 282 340
L 283 340
L 283 340
L 283 340
L 283 340
L 285 340
L 285 340
L 287 340
L 288 340
L 290 340
L 291 339
L 296 339
L 300 339
L 301 339
L 307 339
L 309 339
L 309 339
L 311 339
L 311 339
L 311 339
L 312 339
L 314 339
L 314 339
L 315 339
L 315 339
L 315 339
L 317 339
L 319 339
L 322 339
L 324 339
L 324 339
L 324 339
L 325 338
L 326 338
L 326 338
L 327 338
L 328 338
L 329 338
L 329 338
L 330 338
L 334 338
L 335 338
L 335 338
L 336 338
L 337 338
L 340 338
L 340 338
L 340 338
L 342 338
L 346 338
L 347 338
L 347 338
L 348 338
L 348 337
L 348 337
L 351 337
L 351 337
L 353 337
L 355 337
L 360 337
L 361 337
L 363 337
L 363 337
L 364 337
L 365 337
L 365 337
L 366 337
L 367 337
L 368 337
L 369 337
L 373 337
L 374 337
L 375 337
L 376 337
L 376 336
L 376 336
L 376 336
L 377 336
L 379 336
L 386 336
L 386 336
L 386 336
L 386 336
L 388 336
L 388 336
L 390 336
L 390 336
L 390 336
L 392 336
L 393 336
L 393 336
L 393 336
L 393 336
L 394 336
L 399 336
L 400 335
L 400 335
L 400 335
L 400 335
L 400 335
L 400 335
L 401 335
L 401 335
L 401 335
L 402 335
L 402 335
L 402 335
L 402 335
L 402 335
L 402 335
L 402 335
L 402 335
L 402 335
L 402 335
L 402 335
L 402 335
L 402 334
L 402 334
L 402 334
L 402 334
L 403 334
L 403 334
L 403 334
L 403 334
L 403 334
L 403 334
L 403 334
L 403 334
L 403 334
L 403 334
L 403 334
L 403 334
L 403 334
L 403 334
L 403 334
L 403 334
L 403 334
L 404 334
L 404 333
L 404 333
L 404 333
L 404 333
L 404 333
L 404 333
L 404 333
L 404 333
L 404 333
L 404 333
L 404 333
L 404 333
L 404 333
L 404 333
L 404 333
L 404 333
L 404 333
L 405 333
L 405 333
L 405 333
L 405 333
L 405 332
L 405 332
L 405 332
L 405 332
L 406 332
L 406 332
L 406 332
L 406 332
L 406 332
L 406 332
L 406 332
L 406 332
L 406 332
L 407 332
L 407 332
L 407 332
L 407 332
L 408 332
L 412 332
L 412 332
L 412 332
L 413 331
L 413 331
L 413 331
L 413 331
L 413 331
L 413 331
L 413 331
L 413 331
L 413 331
L 413 331
L 413 331
L 413 331
L 413 331
L 413 331
L 413 331
L 414 331
L 414 331
L 414 331
L 414 331
L 414 331
L 414 331
L 414 330
L 414 330
L 415 330
L 415 330
L 415 330
L 415 330
L 415 330
L 415 330
L 415 330
L 415 330
L 415 330
L 415 330
L 415 330
L 415 330
L 415 330
L 415 330
L 415 330
L 416 330
L 416 330
L 416 330
L 416 330
L 416 329
L 416 329
L 416 329
L 416 329
L 416 329
L 416 329
L 416 329
L 416 329
L 416 329
L 416 329
L 416 329
L 416 329
L 416 329
L 416 329
L 416 329
L 416 329
L 417 329
L 417 329
L 417 329
L 417 329
L 417 329
L 417 328
L 417 328
L 417 328
L 417 328
L 417 328
L 417 328
L 418 328
L 418 328
L 418 328
L 418 328
L 418 328
L 418 328
L 418 328
L 418 328
L 418 328
L 418 328
L 418 328
L 418 328
L 418 328
L 419 328
L 419 328
L 419 328
L 419 327
L 419 327
L 419 327
L 419 327
L 419 327
L 419 327
L 419 327
L 419 327
L 419 327
L 419 327
L 419 327
L 419 327
L 419 327
L 419 327
L 420 327
L 420 327
L 420 327
L 420 327
L 420 327
L 420 327
L 420 327
L 420 326
L 420 326
L 420 326
L 420 326
L 420 326
L 420 326
L 420 326
L 420 326
L 420 326
L 420 326
L 420 326
L 420 326
L 420 326
L 421 326
L 421 326
L 421 326
L 422 326
L 422 326
L 424 326
L 424 326
L 424 326
L 425 325
L 425 325
L 425 325
L 425 325
L 425 325
L 425 325
L 425 325
L 425 325
L 425 325
L 425 325
L 425 325
L 425 325
L 426 325
L 426 325
L 426 325
L 426 325
L 426 325
L 426 325
L 426 325
L 426 325
L 426 325
L 426 324
L 426 324
L 426 324
L 426 324
L 426 324
L 426 324
L 426 324
L 426 324
L 426 324
L 426 324
L 427 324
L 427 324
L 427 324
L 427 324
L 427 324
L 427 324
L 427 324
L 427 324
L 427 324
L 427 324
L 427 324
L 427 323
L 427 323
L 427 323
L 427 323
L 427 323
L 428 323
L 428 323
L 428 323
L 428 323
L 428 323
L 428 323
L 428 323
L 428 323
L 428 323
L 428 323
L 428 323
L 428 323
L 428 323
L 428 323
L 428 323
L 428 323
L 428 322
L 428 322
L 428 322
L 428 322
L 428 322
L 429 322
L 429 322
L 429 322
L 429 322
L 429 322
L 429 322
L 429 322
L 429 322
L 429 322
L 429 322
L 429 322
L 429 322
L 429 322
L 429 322
L 429 322
L 429 322
L 429 322
L 430 321
L 430 321
L 430 321
L 430 321
L 430 321
L 430 321
L 430 321
L 430 321
L 430 321
L 430 321
L 430 321
L 430 321
L 430 321
L 430 321
L 431 321
L 431 321
L 431 321
L 431 321
L 431 321
L 431 321
L 431 321
L 431 320
L 431 320
L 431 320
L 431 320
L 431 320
L 431 320
L 431 320
L 431 320
L 431 320
L 431 320
L 431 320
L 431 320
L 431 320
L 431 320
L 432 320
L 432 320
L 432 320
L 432 320
L 432 320
L 432 320
L 432 320
L 432 319
L 432 319
L 432 319
L 432 319
L 432 319
L 432 319
L 432 319
L 432 319
L 432 319
L 432 319
L 432 319
L 432 319
L 432 319
L 432 319
L 432 319
L 432 319
L 432 319
L 432 319
L 433 319
L 433 319
L 433 319
L 433 318
L 433 318
L 433 318
L 433 318
L 433 318
L 433 318
L 433 318
L 433 318
L 433 318
L 433 318
L 433 318
L 434 318
L 434 318
L 434 318
L 434 318
L 434 318
L 434 318
L 435 318
L 435 318
L 436 318
L 437 318
L 437 317
L 437 317
L 437 317
L 437 317
L 437 317
L 438 317
L 438 317
L 438 317
L 438 317
L 438 317
L 438 317
L 438 317
L 438 317
L 438 317
L 438 317
L 438 317
L 438 317
L 438 317
L 438 317
L 438 317
L 438 317
L 438 317
L 438 316
L 438 316
L 438 316
L 438 316
L 438 316
L 438 316
L 438 316
L 438 316
L 438 316
L 438 316
L 438 316
L 438 316
L 438 316
L 438 316
L 438 316
L 438 316
L 438 316
L 438 316
L 438 316
L 438 316
L 438 316
L 438 315
L 438 315
L 438 315
L 438 315
L 438 315
L 438 315
L 438 315
L 438 315
L 438 315
L 438 315
L 438 315
L 438 315
L 438 315
L 438 315
L 438 315
L 438 315
L 438 315
L 438 315
L 438 315
L 438 315
L 438 315
L 438 314
L 438 314
L 438 314
L 438 314
L 438 314
L 438 314
L 438 314
L 438 314
L 438 314
L 438 314
L 438 314
L 438 314
L 438 314
L 438 314
L 438 314
L 438 314
L 438 314
L 438 314
L 438 314
L 439 314
L 439 314
L 439 313
L 439 313
L 439 313
L 439 313
L 439 313
L 439 313
L 439 313
L 439 313
L 439 313
L 439 313
L 439 313
L 439 313
L 439 313
L 439 313
L 439 313
L 439 313
L 439 313
L 439 313
L 439 313
L 439 313
L 439 313
L 439 312
L 439 312
L 439 312
L 439 312
L 439 312
L 439 312
L 439 312
L 439 312
L 439 312
L 439 312
L 439 312
L 439 312
L 439 312
L 439 312
L 439 312
L 439 312
L 439 312
L 439 312
L 439 312
L 439 312
L 439 312
L 439 311
L 439 311
L 439 311
L 439 311
L 439 311
L 439 311
L 439 311
L 439 311
L 439 311
L 440 311
L 440 311
L 440 311
L 440 311
L 440 311
L 440 311
L 440 311
L 440 311
L 440 311
L 440 311
L 440 311
L 440 311
L 440 311
L 440 310
L 440 310
L 440 310
L 440 310
L 440 310
L 440 310
L 440 310
L 440 310
L 440 310
L 440 310
L 440 310
L 440 310
L 440 310
L 440 310
L 440 310
L 440 310
L 440 310
L 440 310
L 440 310
L 440 310
L 440 310
L 440 309
L 440 309
L 440 309
L 440 309
L 440 309
L 440 309
L 440 309
L 440 309
L 440 309
L 441 309
L 441 309
L 441 309
L 441 309
L 441 309
L 441 309
L 441 309
L 441 309
L 441 309
L 441 309
L 441 309
L 441 309
L 441 308
L 441 308
L 441 308
L 441 308
L 441 308
L 441 308
L 441 308
L 441 308
L 441 308
L 441 308
L 441 308
L 441 308
L 441 308
L 441 308
L 441 308
L 441 308
L 441 308
L 441 308
L 441 308
L 441 308
L 441 308
L 441 307
L 441 307
L 441 307
L 441 307
L 441 307
L 441 307
L 441 307
L 441 307
L 441 307
L 441 307
L 441 307
L 441 307
L 441 307
L 441 307
L 441 307
L 441 307
L 441 307
L 441 307
L 441 307
L 441 307
L 441 307
L 441 306
L 441 306
L 441 306
L 441 306
L 441 306
L 441 306
L 441 306
L 441 306
L 441 306
L 441 306
L 441 306
L 441 306
L 441 306
L 441 306
L 441 306
L 441 306
L 441 306
L 441 306
L 441 306
L 442 306
L 442 306
L 442 305
L 442 305
L 442 305
L 442 305
L 442 305
L 442 305
L 442 305
L 442 305
L 442 305
L 442 305
L 442 305
L 442 305
L 442 305
L 442 305
L 442 305
L 442 305
L 442 305
L 442 305
L 442 305
L 442 305
L 442 305
L 442 305
L 442 304
L 442 304
L 442 304
L 442 304
L 442 304
L 442 304
L 442 304
L 442 304
L 442 304
L 442 304
L 442 304
L 442 304
L 442 304
L 442 304
L 442 304
L 442 304
L 442 304
L 442 304
L 442 304
L 443 304
L 443 304
L 443 303
L 443 303
L 443 303
L 443 303
L 443 303
L 443 303
L 443 303
L 443 303
L 443 303
L 443 303
L 443 303
L 443 303
L 443 303
L 443 303
L 443 303
L 443 303
L 443 303
L 443 303
L 443 303
L 443 303
L 443 303
L 443 302
L 443 302
L 443 302
L 443 302
L 443 302
L 443 302
L 443 302
L 443 302
L 443 302
L 443 302
L 443 302
L 443 302
L 443 302
L 443 302
L 443 302
L 443 302
L 443 302
L 443 302
L 443 302
L 443 302
L 443 302
L 444 301
L 444 301
L 444 301
L 444 301
L 444 301
L 444 301
L 444 301
L 444 301
L 444 301
L 444 301
L 444 301
L 444 301
L 444 301
L 444 301
L 444 301
L 444 301
L 444 301
L 444 301
L 444 301
L 444 301
L 444 301
L 445 300
L 445 300
L 445 300
L 445 300
L 445 300
L 445 300
L 445 300
L 445 300
L 445 300
L 445 300
L 445 300
L 445 300
L 445 300
L 445 300
L 445 300
L 445 300
L 445 300
L 445 300
L 445 300
L 445 300
L 445 300
L 446 300
L 446 299
L 446 299
L 446 299
L 446 299
L 446 299
L 446 299
L 446 299
L 446 299
L 446 299
L 446 299
L 446 299
L 446 299
L 446 299
L 446 299
L 446 299
L 446 299
L 446 299
L 447 299
L 447 299
L 447 299
L 447 299
L 448 298
L 450 298
L 450 298
L 450 298
L 450 298
L 450 298
L 450 298
L 450 298
L 451 298
L 451 298
L 451 298
L 451 298
L 451 298
L 451 298
L 451 298
L 451 298
L 451 298
L 451 298
L 451 298
L 451 298
L 451 298
L 451 297
L 451 297
L 451 297
L 451 297
L 451 297
L 451 297
L 451 297
L 451 297
L 451 297
L 451 297
L 451 297
L 451 297
L 451 297
L 451 297
L 451 297
L 451 297
L 451 297
L 451 297
L 451 297
L 451 297
L 451 297
L 451 296
L 451 296
L 451 296
L 451 296
L 451 296
L 451 296
L 451 296
L 451 296
L 451 296
L 451 296
L 451 296
L 451 296
L 451 296
L 451 296
L 451 296
L 451 296
L 451 296
L 451 296
L 451 296
L 451 296
L 451 296
L 451 295
L 451 295
L 451 295
L 451 295
L 451 295
L 451 295
L 451 295
L 451 295
L 451 295
L 451 295
L 451 295
L 451 295
L 451 295
L 451 295
L 451 295
L 451 295
L 451 295
L 451 295
L 451 295
L 452 295
L 452 295
L 452 294
L 452 294
L 452 294
L 452 294
L 452 294
L 452 294
L 452 294
L 452 294
L 452 294
L 452 294
L 452 294
L 452 294
L 452 294
L 452 294
L 452 294
L 452 294
L 452 294
L 452 294
L 452 294
L 452 294
L 452 294
L 452 294
L 452 293
L 452 293
L 452 293
L 452 293
L 452 293
L 452 293
L 452 293
L 452 293
L 452 293
L 452 293
L 452 293
L 452 293
L 452 293
L 452 293
L 452 293
L 452 293
L 452 293
L 452 293
L 452 293
L 452 293
L 452 293
L 452 292
L 452 292
L 452 292
L 452 292
L 452 292
L 452 292
L 452 292
L 452 292
L 452 292
L 452 292
L 452 292
L 452 292
L 452 292
L 452 292
L 452 292
L 452 292
L 452 292
L 452 292
L 453 292
L 453 292
L 453 292
L 453 291
L 453 291
L 453 291
L 453 291
L 453 291
L 453 291
L 453 291
L 453 291
L 453 291
L 453 291
L 453 291
L 453 291
L 453 291
L 453 291
L 453 291
L 453 291
L 453 291
L 453 291
L 453 291
L 453 291
L 453 291
L 453 290
L 453 290
L 453 290
L 453 290
L 453 290
L 453 290
L 453 290
L 453 290
L 453 290
L 453 290
L 453 290
L 453 290
L 454 290
L 454 290
L 454 290
L 454 290
L 454 290
L 454 290
L 454 290
L 454 290
L 454 290
L 454 289
L 454 289
L 454 289
L 454 289
L 454 289
L 454 289
L 454 289
L 454 289
L 454 289
L 454 289
L 454 289
L 454 289
L 454 289
L 454 289
L 454 289
L 454 289
L 454 289
L 454 289
L 454 289
L 454 289
L 454 289
L 454 288
L 454 288
L 454 288
L 454 288
L 454 288
L 454 288
L 454 288
L 454 288
L 454 288
L 454 288
L 454 288
L 454 288
L 454 288
L 454 288
L 454 288
L 454 288
L 454 288
L 454 288
L 454 288
L 454 288
L 454 288
L 455 288
L 455 287
L 455 287
L 455 287
L 455 287
L 455 287
L 455 287
L 455 287
L 455 287
L 455 287
L 455 287
L 455 287
L 455 287
L 455 287
L 455 287
L 455 287
L 455 287
L 455 287
L 455 287
L 455 287
L 455 287
L 455 287
L 455 286
L 455 286
L 455 286
L 455 286
L 455 286
L 455 286
L 455 286
L 455 286
L 455 286
L 455 286
L 455 286
L 455 286
L 455 286
L 455 286
L 455 286
L 455 286
L 455 286
L 455 286
L 455 286
L 455 286
L 455 286
L 455 285
L 455 285
L 455 285
L 455 285
L 455 285
L 455 285
L 455 285
L 455 285
L 455 285
L 455 285
L 455 285
L 456 285
L 456 285
L 456 285
L 456 285
L 456 285
L 456 285
L 456 285
L 456 285
L 456 285
L 456 285
L 456 284
L 456 284
L 456 284
L 456 284
L 456 284
L 456 284
L 456 284
L 456 284
L 456 284
L 456 284
L 456 284
L 456 284
L 456 284
L 456 284
L 456 284
L 456 284
L 456 284
L 456 284
L 456 284
L 456 284
L 456 284
L 456 283
L 456 283
L 456 283
L 456 283
L 456 283
L 456 283
L 456 283
L 456 283
L 456 283
L 456 283
L 456 283
L 456 283
L 456 283
L 456 283
L 456 283
L 456 283
L 456 283
L 456 283
L 456 283
L 456 283
L 456 283
L 456 283
L 456 282
L 456 282
L 456 282
L 456 282
L 456 282
L 457 282
L 457 282
L 457 282
L 457 282
L 457 282
L 457 282
L 457 282
L 457 282
L 457 282
L 457 282
L 457 282
L 457 282
L 457 282
L 457 282
L 457 282
L 457 282
L 457 281
L 457 281
L 457 281
L 457 281
L 457 281
L 457 281
L 457 281
L 457 281
L 457 281
L 457 281
L 457 281
L 457 281
L 457 281
L 457 281
L 457 281
L 457 281
L 457 281
L 457 281
L 457 281
L 458 281
L 458 281
L 458 280
L 458 280
L 458 280
L 458 280
L 458 280
L 458 280
L 458 280
L 458 280
L 458 280
L 458 280
L 458 280
L 458 280
L 458 280
L 458 280
L 458 280
L 458 280
L 458 280
L 458 280
L 458 280
L 458 280
L 458 280
L 458 279
L 458 279
L 458 279
L 458 279
L 458 279
L 458 279
L 458 279
L 458 279
L 458 279
L 459 279
L 459 279
L 459 279
L 459 279
L 459 279
L 459 279
L 459 279
L 459 279
L 459 279
L 459 279
L 459 279
L 459 279
L 459 278
L 459 278
L 459 278
L 459 278
L 459 278
L 459 278
L 459 278
L 459 278
L 459 278
L 459 278
L 460 278
L 460 278
L 460 278
L 460 278
L 460 278
L 461 278
L 461 278
L 462 278
L 463 278
L 463 278
L 463 278
L 463 277
L 463 277
L 463 277
L 463 277
L 464 277
L 464 277
L 464 277
L 464 277
L 464 277
L 464 277
L 464 277
L 464 277
L 464 277
L 464 277
L 464 277
L 464 277
L 464 277
L 464 277
L 464 277
L 464 277
L 464 277
L 464 277
L 464 276
L 464 276
L 464 276
L 464 276
L 464 276
L 464 276
L 464 276
L 464 276
L 464 276
L 464 276
L 464 276
L 464 276
L 464 276
L 464 276
L 464 276
L 464 276
L 464 276
L 464 276
L 464 276
L 464 276
L 464 276
L 464 275
L 464 275
L 464 275
L 464 275
L 464 275
L 464 275
L 464 275
L 464 275
L 464 275
L 464 275
L 464 275
L 464 275
L 464 275
L 464 275
L 464 275
L 464 275
L 464 275
L 464 275
L 464 275
L 464 275
L 464 275
L 464 274
L 464 274
L 464 274
L 464 274
L 464 274
L 464 274
L 464 274
L 464 274
L 464 274
L 464 274
L 464 274
L 464 274
L 464 274
L 464 274
L 464 274
L 464 274
L 465 274
L 465 274
L 465 274
L 465 274
L 465 274
L 465 273
L 465 273
L 465 273
L 465 273
L 465 273
L 465 273
L 465 273
L 465 273
L 465 273
L 465 273
L 465 273
L 465 273
L 465 273
L 465 273
L 465 273
L 465 273
L 465 273
L 465 273
L 465 273
L 465 273
L 465 273
L 465 272
L 465 272
L 465 272
L 465 272
L 465 272
L 465 272
L 465 272
L 465 272
L 465 272
L 465 272
L 465 272
L 465 272
L 465 272
L 465 272
L 465 272
L 465 272
L 465 272
L 465 272
L 465 272
L 466 272
L 466 272
L 466 271
L 466 271
L 466 271
L 466 271
L 466 271
L 466 271
L 466 271
L 466 271
L 466 271
L 466 271
L 466 271
L 466 271
L 466 271
L 466 271
L 466 271
L 466 271
L 466 271
L 466 271
L 466 271
L 466 271
L 466 271
L 466 271
L 466 270
L 466 270
L 466 270
L 466 270
L 466 270
L 467 270
L 467 270
L 467 270
L 467 270
L 467 270
L 467 270
L 467 270
L 467 270
L 467 270
L 467 270
L 467 270
L 467 270
L 467 270
L 467 270
L 467 270
L 467 270
L 467 269
L 467 269
L 467 269
L 467 269
L 467 269
L 467 269
L 467 269
L 467 269
L 467 269
L 467 269
L 467 269
L 467 269
L 467 269
L 467 269
L 467 269
L 467 269
L 467 269
L 467 269
L 467 269
L 467 269
L 467 269
L 467 268
L 467 268
L 467 268
L 467 268
L 467 268
L 467 268
L 467 268
L 467 268
L 467 268
L 467 268
L 468 268
L 468 268
L 468 268
L 468 268
L 468 268
L 468 268
L 468 268
L 468 268
L 468 268
L 468 268
L 468 268
L 468 267
L 468 267
L 468 267
L 468 267
L 468 267
L 468 267
L 468 267
L 468 267
L 468 267
L 468 267
L 468 267
L 468 267
L 468 267
L 468 267
L 468 267
L 468 267
L 468 267
L 468 267
L 468 267
L 468 267
L 468 267
L 468 266
L 468 266
L 468 266
L 468 266
L 468 266
L 468 266
L 468 266
L 468 266
L 468 266
L 468 266
L 468 266
L 468 266
L 468 266
L 468 266
L 468 266
L 468 266
L 468 266
L 468 266
L 468 266
L 468 266
L 469 266
L 469 266
L 469 265
L 469 265
L 469 265
L 469 265
L 469 265
L 469 265
L 469 265
L 469 265
L 469 265
L 469 265
L 469 265
L 469 265
L 469 265
L 469 265
L 469 265
L 469 265
L 469 265
L 469 265
L 469 265
L 469 265
L 469 265
L 469 264
L 469 264
L 469 264
L 469 264
L 469 264
L 469 264
L 469 264
L 469 264
L 469 264
L 470 264
L 470 264
L 470 264
L 470 264
L 470 264
L 470 264
L 470 264
L 470 264
L 470 264
L 470 264
L 470 264
L 470 264
L 470 263
L 470 263
L 470 263
L 470 263
L 470 263
L 470 263
L 470 263
L 470 263
L 470 263
L 470 263
L 470 263
L 470 263
L 470 263
L 470 263
L 471 263
L 471 263
L 471 263
L 471 263
L 471 263
L 471 263
L 471 263
L 471 262
L 471 262
L 471 262
L 471 262
L 471 262
L 471 262
L 471 262
L 471 262
L 471 262
L 471 262
L 471 262
L 471 262
L 471 262
L 472 262
L 472 262
L 472 262
L 472 262
L 472 262
L 472 262
L 472 262
L 472 262
L 472 261
L 472 261
L 472 261
L 472 261
L 472 261
L 472 261
L 472 261
L 472 261
L 472 261
L 473 261
L 473 261
L 476 261
L 476 261
L 476 261
L 476 261
L 476 261
L 476 261
L 476 261
L 477 261
L 477 261
L 477 261
L 477 260
L 477 260
L 477 260
L 477 260
L 477 260
L 477 260
L 477 260
L 477 260
L 477 260
L 477 260
L 477 260
L 477 260
L 477 260
L 477 260
L 477 260
L 477 260
L 477 260
L 477 260
L 477 260
L 477 260
L 477 260
L 477 260
L 477 259
L 477 259
L 477 259
L 477 259
L 477 259
L 477 259
L 477 259
L 477 259
L 477 259
L 477 259
L 477 259
L 477 259
L 477 259
L 477 259
L 477 259
L 477 259
L 477 259
L 477 259
L 477 259
L 477 259
L 477 259
L 477 258
L 477 258
L 478 258
L 478 258
L 478 258
L 478 258
L 478 258
L 478 258
L 478 258
L 478 258
L 478 258
L 478 258
L 478 258
L 478 258
L 478 258
L 478 258
L 478 258
L 478 258
L 478 258
L 478 258
L 478 258
L 478 257
L 478 257
L 478 257
L 478 257
L 478 257
L 478 257
L 478 257
L 478 257
L 478 257
L 478 257
L 478 257
L 478 257
L 478 257
L 478 257
L 478 257
L 478 257
L 478 257
L 478 257
L 478 257
L 478 257
L 479 257
L 479 256
L 479 256
L 479 256
L 479 256
L 479 256
L 479 256
L 479 256
L 479 256
L 479 256
L 479 256
L 479 256
L 479 256
L 479 256
L 479 256
L 479 256
L 479 256
L 480 256
L 480 256
L 480 256
L 480 256
L 480 256
L 480 255
L 480 255
L 480 255
L 480 255
L 480 255
L 480 255
L 480 255
L 480 255
L 480 255
L 480 255
L 480 255
L 480 255
L 480 255
L 480 255
L 480 255
L 480 255
L 480 255
L 480 255
L 480 255
L 480 255
L 480 255
L 480 254
L 480 254
L 480 254
L 480 254
L 480 254
L 480 254
L 481 254
L 481 254
L 481 254
L 481 254
L 481 254
L 481 254
L 481 254
L 481 254
L 481 254
L 481 254
L 481 254
L 481 254
L 481 254
L 481 254
L 481 254
L 481 254
L 481 253
L 481 253
L 481 253
L 481 253
L 481 253
L 481 253
L 481 253
L 481 253
L 481 253
L 481 253
L 481 253
L 481 253
L 481 253
L 481 253
L 481 253
L 481 253
L 481 253
L 481 253
L 481 253
L 481 253
L 481 253
L 481 252
L 481 252
L 481 252
L 482 252
L 482 252
L 482 252
L 482 252
L 482 252
L 482 252
L 482 252
L 482 252
L 482 252
L 482 252
L 482 252
L 482 252
L 482 252
L 482 252
L 482 252
L 482 252
L 482 252
L 483 252
L 483 251
L 483 251
L 483 251
L 483 251
L 483 251
L 483 251
L 483 251
L 483 251
L 483 251
L 483 251
L 483 251
L 483 251
L 483 251
L 483 251
L 483 251
L 483 251
L 483 251
L 483 251
L 483 251
L 483 251
L 483 251
L 484 250
L 484 250
L 484 250
L 484 250
L 484 250
L 484 250
L 484 250
L 484 250
L 484 250
L 484 250
L 484 250
L 484 250
L 485 250
L 485 250
L 485 250
L 485 250
L 485 250
L 485 250
L 485 250
L 485 250
L 486 250
L 486 249
L 486 249
L 486 249
L 487 249
L 489 249
L 489 249
L 490 249
L 490 249
L 490 249
L 490 249
L 490 249
L 490 249
L 490 249
L 490 249
L 490 249
L 490 249
L 490 249
L 490 249
L 490 249
L 490 249
L 490 249
L 490 249
L 490 248
L 490 248
L 490 248
L 490 248
L 490 248
L 490 248
L 490 248
L 490 248
L 490 248
L 490 248
L 490 248
L 490 248
L 490 248
L 490 248
L 490 248
L 490 248
L 490 248
L 490 248
L 490 248
L 490 248
L 490 248
L 490 247
L 490 247
L 490 247
L 490 247
L 490 247
L 490 247
L 490 247
L 490 247
L 490 247
L 490 247
L 491 247
L 491 247
L 491 247
L 491 247
L 491 247
L 491 247
L 491 247
L 491 247
L 491 247
L 491 247
L 491 247
L 491 246
L 491 246
L 491 246
L 491 246
L 491 246
L 491 246
L 491 246
L 491 246
L 491 246
L 491 246
L 491 246
L 491 246
L 491 246
L 491 246
L 491 246
L 491 246
L 491 246
L 491 246
L 491 246
L 491 246
L 491 246
L 491 245
L 491 245
L 491 245
L 491 245
L 492 245
L 492 245
L 492 245
L 492 245
L 492 245
L 492 245
L 492 245
L 492 245
L 492 245
L 492 245
L 492 245
L 492 245
L 492 245
L 492 245
L 492 245
L 492 245
L 492 245
L 492 244
L 492 244
L 492 244
L 492 244
L 492 244
L 492 244
L 492 244
L 492 244
L 493 244
L 493 244
L 493 244
L 493 244
L 493 244
L 493 244
L 493 244
L 493 244
L 493 244
L 493 244
L 493 244
L 493 244
L 493 244
L 493 243
L 493 243
L 493 243
L 493 243
L 493 243
L 493 243
L 493 243
L 493 243
L 493 243
L 493 243
L 493 243
L 493 243
L 493 243
L 493 243
L 493 243
L 493 243
L 493 243
L 493 243
L 493 243
L 493 243
L 493 243
L 493 243
L 493 242
L 493 242
L 493 242
L 493 242
L 493 242
L 493 242
L 493 242
L 493 242
L 493 242
L 493 242
L 493 242
L 493 242
L 493 242
L 493 242
L 493 242
L 493 242
L 493 242
L 494 242
L 494 242
L 494 242
L 494 242
L 494 241
L 494 241
L 494 241
L 494 241
L 494 241
L 494 241
L 494 241
L 494 241
L 494 241
L 494 241
L 494 241
L 494 241
L 494 241
L 494 241
L 494 241
L 494 241
L 494 241
L 494 241
L 494 241
L 494 241
L 494 241
L 494 240
L 494 240
L 494 240
L 494 240
L 494 240
L 494 240
L 494 240
L 494 240
L 494 240
L 494 240
L 494 240
L 494 240
L 494 240
L 494 240
L 494 240
L 494 240
L 494 240
L 494 240
L 494 240
L 494 240
L 494 240
L 494 239
L 494 239
L 495 239
L 495 239
L 495 239
L 495 239
L 495 239
L 495 239
L 495 239
L 495 239
L 495 239
L 495 239
L 495 239
L 495 239
L 495 239
L 495 239
L 495 239
L 496 239
L 496 239
L 496 239
L 496 239
L 496 238
L 496 238
L 496 238
L 496 238
L 496 238
L 496 238
L 496 238
L 496 238
L 496 238
L 496 238
L 496 238
L 496 238
L 497 238
L 497 238
L 497 238
L 497 238
L 497 238
L 497 238
L 497 238
L 497 238
L 497 238
L 497 237
L 497 237
L 497 237
L 497 237
L 497 237
L 497 237
L 497 237
L 497 237
L 497 237
L 498 237
L 498 237
L 498 237
L 498 237
L 498 237
L 498 237
L 498 237
L 498 237
L 498 237
L 498 237
L 498 237
L 498 237
L 500 237
L 500 236
L 500 236
L 501 236
L 502 236
L 502 236
L 502 236
L 502 236
L 502 236
L 502 236
L 502 236
L 503 236
L 503 236
L 503 236
L 503 236
L 503 236
L 503 236
L 503 236
L 503 236
L 503 236
L 503 236
L 503 236
L 503 235
L 503 235
L 503 235
L 503 235
L 503 235
L 503 235
L 503 235
L 503 235
L 503 235
L 503 235
L 503 235
L 503 235
L 503 235
L 503 235
L 503 235
L 503 235
L 503 235
L 503 235
L 503 235
L 503 235
L 503 235
L 503 234
L 503 234
L 503 234
L 503 234
L 503 234
L 503 234
L 503 234
L 503 234
L 503 234
L 503 234
L 503 234
L 503 234
L 503 234
L 503 234
L 504 234
L 504 234
L 504 234
L 504 234
L 504 234
L 504 234
L 504 234
L 504 233
L 504 233
L 504 233
L 504 233
L 504 233
L 504 233
L 504 233
L 504 233
L 504 233
L 504 233
L 504 233
L 504 233
L 504 233
L 504 233
L 504 233
L 504 233
L 504 233
L 504 233
L 504 233
L 504 233
L 504 233
L 504 232
L 504 232
L 504 232
L 504 232
L 504 232
L 504 232
L 504 232
L 504 232
L 504 232
L 504 232
L 504 232
L 504 232
L 504 232
L 504 232
L 504 232
L 504 232
L 504 232
L 504 232
L 504 232
L 504 232
L 504 232
L 504 232
L 504 231
L 504 231
L 505 231
L 505 231
L 505 231
L 505 231
L 505 231
L 505 231
L 505 231
L 505 231
L 505 231
L 505 231
L 505 231
L 505 231
L 505 231
L 505 231
L 505 231
L 505 231
L 505 231
L 505 231
L 505 231
L 505 230
L 505 230
L 505 230
L 505 230
L 505 230
L 505 230
L 505 230
L 505 230
L 505 230
L 505 230
L 505 230
L 505 230
L 506 230
L 506 230
L 506 230
L 506 230
L 506 230
L 506 230
L 506 230
L 506 230
L 506 230
L 506 229
L 506 229
L 506 229
L 506 229
L 506 229
L 506 229
L 506 229
L 506 229
L 506 229
L 506 229
L 506 229
L 506 229
L 506 229
L 506 229
L 506 229
L 506 229
L 506 229
L 506 229
L 506 229
L 506 229
L 506 229
L 506 228
L 506 228
L 506 228
L 506 228
L 506 228
L 506 228
L 506 228
L 506 228
L 506 228
L 506 228
L 506 228
L 506 228
L 506 228
L 506 228
L 506 228
L 506 228
L 506 228
L 506 228
L 506 228
L 506 228
L 506 228
L 506 227
L 506 227
L 506 227
L 506 227
L 507 227
L 507 227
L 507 227
L 507 227
L 507 227
L 507 227
L 507 227
L 507 227
L 507 227
L 507 227
L 507 227
L 507 227
L 507 227
L 507 227
L 507 227
L 507 227
L 507 227
L 507 226
L 507 226
L 507 226
L 507 226
L 507 226
L 507 226
L 507 226
L 507 226
L 507 226
L 507 226
L 507 226
L 507 226
L 507 226
L 507 226
L 507 226
L 507 226
L 507 226
L 508 226
L 508 226
L 508 226
L 508 226
L 508 226
L 508 225
L 508 225
L 508 225
L 508 225
L 508 225
L 508 225
L 508 225
L 508 225
L 508 225
L 508 225
L 509 225
L 509 225
L 509 225
L 509 225
L 509 225
L 509 225
L 509 225
L 509 225
L 509 225
L 509 225
L 509 225
L 509 224
L 509 224
L 509 224
L 510 224
L 510 224
L 510 224
L 510 224
L 510 224
L 510 224
L 510 224
L 510 224
L 510 224
L 510 224
L 510 224
L 510 224
L 510 224
L 510 224
L 511 224
L 511 224
L 511 224
L 511 224
L 511 223
L 511 223
L 511 223
L 511 223
L 512 223
L 512 223
L 514 223
L 514 223
L 514 223
L 515 223
L 515 223
L 515 223
L 516 223
L 516 223
L 516 223
L 516 223
L 516 223
L 516 223
L 516 223
L 516 223
L 516 223
L 516 222
L 517 222
L 517 222
L 517 222
L 517 222
L 517 222
L 517 222
L 517 222
L 517 222
L 517 222
L 517 222
L 517 222
L 517 222
L 517 222
L 517 222
L 518 222
L 518 222
L 518 222
L 518 222
L 518 222
L 518 222
L 518 221
L 518 221
L 518 221
L 519 221
L 519 221
L 519 221
L 519 221
L 519 221
L 519 221
L 519 221
L 519 221
L 520 221
L 520 221
L 520 221
L 520 221
L 520 221
L 520 221
L 520 221
L 520 221
L 521 221
L 521 221
L 521 220
L 521 220
L 521 220
L 522 220
L 522 220
L 522 220
L 522 220
L 522 220
L 522 220
L 522 220
L 523 220
L 523 220
L 523 220
L 523 220
L 523 220
L 523 220
L 523 220
L 523 220
L 523 220
L 523 220
L 524 220
L 524 220
L 524 219
L 524 219
L 524 219
L 524 219
L 525 219
L 526 219
L 526 219
L 526 219
L 526 219
L 527 219
L 527 219
L 527 219
L 528 219
L 528 219
L 528 219
L 529 219
L 529 219
L 529 219
L 529 219
L 529 219
L 529 219
L 529 218
L 530 218
L 530 218
L 530 218
L 530 218
L 530 218
L 530 218
L 530 218
L 530 218
L 530 218
L 531 218
L 531 218
L 531 218
L 531 218
L 531 218
L 531 218
L 531 218
L 532 218
L 532 218
L 532 218
L 532 218
L 532 217
L 532 217
L 532 217
L 532 217
L 533 217
L 533 217
L 533 217
L 533 217
L 534 217
L 534 217
L 534 217
L 534 217
L 534 217
L 534 217
L 535 217
L 535 217
L 535 217
L 535 217
L 535 217
L 535 217
L 536 217
L 536 216
L 536 216
L 536 216
L 536 216
L 536 216
L 536 216
L 536 216
L 536 216
L 536 216
L 536 216
L 537 216
L 537 216
L 537 216
L 537 216
L 538 216
L 538 216
L 538 216
L 538 216
L 538 216
L 539 216
L 540 216
L 541 215
L 541 215
L 541 215
L 542 215
L 542 215
L 542 215
L 542 215
L 542 215
L 542 215
L 542 215
L 543 215
L 543 215
L 543 215
L 543 215
L 543 215
L 543 215
L 543 215
L 544 215
L 544 215
L 544 215
L 544 215
L 544 215
L 544 214
L 544 214
L 544 214
L 544 214
L 545 214
L 545 214
L 545 214
L 545 214
L 545 214
L 545 214
L 545 214
L 546 214
L 546 214
L 546 214
L 546 214
L 546 214
L 546 214
L 546 214
L 546 214
L 546 214
L 547 214
L 547 213
L 547 213
L 547 213
L 547 213
L 547 213
L 547 213
L 547 213
L 547 213
L 547 213
L 547 213
L 547 213
L 547 213
L 548 213
L 548 213
L 548 213
L 548 213
L 548 213
L 548 213
L 548 213
L 548 213
L 548 213
L 548 212
L 548 212
L 549 212
L 549 212
L 549 212
L 549 212
L 549 212
L 549 212
L 549 212
L 549 212
L 549 212
L 549 212
L 550 212
L 550 212
L 550 212
L 550 212
L 550 212
L 551 212
L 551 212
L 554 212
L 554 212
L 554 211
L 554 211
L 555 211
L 555 211
L 555 211
L 555 211
L 555 211
L 555 211
L 555 211
L 555 211
L 555 211
L 555 211
L 555 211
L 555 211
L 555 211
L 555 211
L 555 211
L 555 211
L 555 211
L 555 211
L 555 211
L 555 210
L 555 210
L 555 210
L 555 210
L 555 210
L 555 210
L 555 210
L 555 210
L 555 210
L 555 210
L 555 210
L 555 210
L 555 210
L 555 210
L 555 210
L 555 210
L 555 210
L 555 210
L 555 210
L 555 210
L 555 210
L 555 209
L 555 209
L 555 209
L 555 209
L 555 209
L 555 209
L 555 209
L 556 209
L 556 209
L 556 209
L 556 209
L 556 209
L 556 209
L 556 209
L 556 209
L 556 209
L 556 209
L 556 209
L 556 209
L 556 209
L 556 209
L 556 209
L 556 208
L 556 208
L 556 208
L 556 208
L 556 208
L 556 208
L 556 208
L 556 208
L 557 208
L 557 208
L 557 208
L 557 208
L 557 208
L 557 208
L 557 208
L 557 208
L 557 208
L 557 208
L 557 208
L 557 208
L 557 208
L 557 207
L 557 207
L 557 207
L 557 207
L 557 207
L 557 207
L 557 207
L 557 207
L 557 207
L 557 207
L 557 207
L 557 207
L 557 207
L 557 207
L 557 207
L 557 207
L 557 207
L 557 207
L 557 207
L 557 207
L 558 207
L 558 206
L 558 206
L 558 206
L 558 206
L 558 206
L 558 206
L 558 206
L 558 206
L 558 206
L 558 206
L 558 206
L 558 206
L 558 206
L 558 206
L 558 206
L 558 206
L 558 206
L 558 206
L 558 206
L 558 206
L 558 206
L 558 205
L 558 205
L 558 205
L 558 205
L 558 205
L 558 205
L 558 205
L 559 205
L 559 205
L 559 205
L 559 205
L 559 205
L 559 205
L 559 205
L 559 205
L 559 205
L 559 205
L 559 205
L 559 205
L 559 205
L 559 205
L 559 204
L 559 204
L 559 204
L 559 204
L 559 204
L 559 204
L 560 204
L 560 204
L 560 204
L 560 204
L 560 204
L 560 204
L 560 204
L 560 204
L 560 204
L 560 204
L 560 204
L 560 204
L 560 204
L 561 204
L 561 204
L 561 203
L 561 203
L 561 203
L 561 203
L 561 203
L 561 203
L 561 203
L 561 203
L 561 203
L 561 203
L 561 203
L 561 203
L 561 203
L 561 203
L 561 203
L 561 203
L 561 203
L 561 203
L 561 203
L 562 203
L 562 203
L 562 203
L 562 202
L 562 202
L 562 202
L 562 202
L 562 202
L 562 202
L 562 202
L 562 202
L 562 202
L 562 202
L 562 202
L 562 202
L 562 202
L 562 202
L 562 202
L 562 202
L 563 202
L 563 202
L 563 202
L 563 202
L 563 202
L 563 201
L 563 201
L 564 201
L 564 201
L 564 201
L 564 201
L 565 201
L 566 201
L 567 201
L 567 201
L 567 201
L 567 201
L 567 201
L 567 201
L 567 201
L 567 201
L 567 201
L 567 201
L 567 201
L 567 201
L 567 201
L 567 200
L 567 200
L 567 200
L 568 200
L 568 200
L 568 200
L 568 200
L 568 200
L 568 200
L 568 200
L 568 200
L 568 200
L 568 200
L 568 200
L 568 200
L 568 200
L 568 200
L 568 200
L 568 200
L 568 200
L 568 200
L 568 199
L 568 199
L 568 199
L 568 199
L 568 199
L 568 199
L 568 199
L 568 199
L 568 199
L 568 199
L 568 199
L 568 199
L 568 199
L 568 199
L 568 199
L 568 199
L 568 199
L 568 199
L 568 199
L 568 199
L 568 199
L 568 198
L 568 198
L 568 198
L 568 198
L 568 198
L 568 198
L 568 198
L 568 198
L 568 198
L 568 198
L 568 198
L 569 198
L 569 198
L 569 198
L 569 198
L 569 198
L 569 198
L 569 198
L 569 198
L 569 198
L 569 198
L 569 198
L 569 197
L 569 197
L 570 197
L 570 197
L 570 197
L 570 197
L 570 197
L 570 197
L 570 197
L 570 197
L 570 197
L 570 197
L 570 197
L 570 197
L 570 197
L 570 197
L 570 197
L 570 197
L 570 197
L 570 197
L 570 197
L 570 196
L 570 196
L 570 196
L 570 196
L 570 196
L 570 196
L 570 196
L 570 196
L 570 196
L 570 196
L 570 196
L 570 196
L 570 196
L 571 196
L 571 196
L 571 196
L 571 196
L 571 196
L 571 196
L 571 196
L 571 196
L 571 195
L 571 195
L 571 195
L 571 195
L 571 195
L 571 195
L 571 195
L 571 195
L 571 195
L 571 195
L 571 195
L 571 195
L 571 195
L 571 195
L 571 195
L 571 195
L 571 195
L 571 195
L 572 195
L 572 195
L 572 195
L 572 194
L 572 194
L 572 194
L 572 194
L 572 194
L 572 194
L 572 194
L 572 194
L 572 194
L 572 194
L 572 194
L 572 194
L 572 194
L 572 194
L 572 194
L 572 194
L 572 194
L 572 194
L 572 194
L 572 194
L 572 194
L 572 193
L 572 193
L 572 193
L 572 193
L 572 193
L 572 193
L 572 193
L 572 193
L 572 193
L 572 193
L 572 193
L 572 193
L 572 193
L 572 193
L 572 193
L 572 193
L 572 193
L 572 193
L 572 193
L 572 193
L 572 193
L 572 192
L 572 192
L 572 192
L 572 192
L 572 192
L 572 192
L 572 192
L 572 192
L 572 192
L 572 192
L 573 192
L 573 192
L 573 192
L 573 192
L 573 192
L 573 192
L 573 192
L 573 192
L 573 192
L 573 192
L 573 192
L 573 192
L 573 191
L 573 191
L 573 191
L 573 191
L 573 191
L 573 191
L 573 191
L 573 191
L 573 191
L 573 191
L 573 191
L 573 191
L 574 191
L 574 191
L 574 191
L 574 191
L 574 191
L 574 191
L 574 191
L 574 191
L 574 191
L 574 190
L 574 190
L 574 190
L 574 190
L 574 190
L 574 190
L 574 190
L 574 190
L 574 190
L 574 190
L 575 190
L 575 190
L 575 190
L 575 190
L 575 190
L 575 190
L 575 190
L 575 190
L 575 190
L 575 190
L 575 190
L 575 189
L 575 189
L 575 189
L 575 189
L 575 189
L 575 189
L 575 189
L 575 189
L 575 189
L 575 189
L 575 189
L 576 189
L 576 189
L 576 189
L 576 189
L 576 189
L 576 189
L 576 189
L 577 189
L 577 189
L 577 189
L 578 188
L 578 188
L 579 188
L 580 188
L 580 188
L 580 188
L 580 188
L 580 188
L 580 188
L 580 188
L 580 188
L 580 188
L 580 188
L 580 188
L 580 188
L 580 188
L 580 188
L 580 188
L 580 188
L 580 188
L 581 188
L 581 187
L 581 187
L 581 187
L 581 187
L 581 187
L 581 187
L 581 187
L 581 187
L 581 187
L 581 187
L 581 187
L 581 187
L 581 187
L 581 187
L 581 187
L 581 187
L 581 187
L 581 187
L 581 187
L 581 187
L 581 187
L 581 186
L 581 186
L 581 186
L 581 186
L 581 186
L 581 186
L 581 186
L 581 186
L 582 186
L 582 186
L 582 186
L 582 186
L 582 186
L 582 186
L 582 186
L 582 186
L 582 186
L 582 186
L 582 186
L 582 186
L 582 186
L 582 186
L 582 185
L 582 185
L 582 185
L 582 185
L 582 185
L 582 185
L 583 185
L 583 185
L 583 185
L 583 185
L 583 185
L 583 185
L 583 185
L 583 185
L 583 185
L 583 185
L 583 185
L 583 185
L 583 185
L 583 185
L 583 185
L 583 184
L 583 184
L 583 184
L 583 184
L 583 184
L 583 184
L 583 184
L 583 184
L 583 184
L 583 184
L 584 184
L 584 184
L 584 184
L 584 184
L 584 184
L 584 184
L 584 184
L 584 184
L 584 184
L 584 184
L 584 184
L 584 183
L 584 183
L 584 183
L 584 183
L 584 183
L 584 183
L 584 183
L 584 183
L 584 183
L 584 183
L 584 183
L 584 183
L 584 183
L 584 183
L 585 183
L 585 183
L 585 183
L 585 183
L 585 183
L 585 183
L 585 183
L 585 182
L 585 182
L 585 182
L 585 182
L 585 182
L 585 182
L 585 182
L 585 182
L 585 182
L 585 182
L 585 182
L 585 182
L 585 182
L 585 182
L 585 182
L 585 182
L 585 182
L 585 182
L 585 182
L 585 182
L 585 182
L 585 181
L 585 181
L 585 181
L 585 181
L 585 181
L 585 181
L 585 181
L 586 181
L 586 181
L 586 181
L 586 181
L 586 181
L 586 181
L 586 181
L 586 181
L 586 181
L 586 181
L 587 181
L 587 181
L 587 181
L 587 181
L 587 181
L 587 180
L 587 180
L 587 180
L 587 180
L 587 180
L 587 180
L 587 180
L 587 180
L 587 180
L 587 180
L 588 180
L 588 180
L 588 180
L 588 180
L 588 180
L 588 180
L 588 180
L 588 180
L 588 180
L 588 180
L 588 180
L 589 179
L 589 179
L 589 179
L 589 179
L 590 179
L 590 179
L 590 179
L 591 179
L 591 179
L 591 179
L 591 179
L 593 179
L 593 179
L 593 179
L 593 179
L 593 179
L 593 179
L 594 179
L 594 179
L 594 179
L 594 179
L 594 178
L 594 178
L 594 178
L 594 178
L 594 178
L 594 178
L 594 178
L 594 178
L 594 178
L 594 178
L 594 178
L 594 178
L 594 178
L 594 178
L 594 178
L 595 178
L 595 178
L 595 178
L 595 178
L 595 178
L 595 178
L 595 177
L 595 177
L 595 177
L 595 177
L 595 177
L 595 177
L 595 177
L 595 177
L 595 177
L 595 177
L 595 177
L 596 177
L 596 177
L 596 177
L 596 177
L 596 177
L 596 177
L 596 177
L 596 177
L 596 177
L 596 177
L 596 176
L 597 176
L 597 176
L 597 176
L 597 176
L 597 176
L 597 176
L 597 176
L 597 176
L 597 176
L 597 176
L 598 176
L 598 176
L 598 176
L 598 176
L 598 176
L 598 176
L 598 176
L 598 176
L 598 176
L 599 176
L 599 175
L 599 175
L 599 175
L 599 175
L 599 175
L 599 175
L 599 175
L 599 175
L 600 175
L 600 175
L 600 175
L 600 175
L 600 175
L 600 175
L 600 175
L 600 175
L 600 175
L 600 175
L 600 175
L 600 175
L 600 175
L 600 175
L 601 174
L 601 174
L 601 174
L 601 174
L 601 174
L 601 174
L 601 174
L 601 174
L 602 174
L 602 174
L 602 174
L 602 174
L 606 174
L 606 174
L 607 174
L 607 174
L 607 174
L 607 174
L 607 174
L 608 174
L 608 174
L 608 173
L 608 173
L 608 173
L 608 173
L 608 173
L 608 173
L 608 173
L 608 173
L 609 173
L 609 173
L 609 173
L 609 173
L 609 173
L 610 173
L 610 173
L 610 173
L 610 173
L 610 173
L 610 173
L 610 173
L 610 173
L 610 172
L 611 172
L 611 172
L 611 172
L 611 172
L 611 172
L 611 172
L 611 172
L 611 172
L 611 172
L 611 172
L 611 172
L 611 172
L 611 172
L 611 172
L 612 172
L 612 172
L 612 172
L 612 172
L 612 172
L 612 172
L 612 171
L 612 171
L 612 171
L 613 171
L 613 171
L 613 171
L 613 171
L 613 171
L 613 171
L 613 171
L 613 171
L 613 171
L 613 171
L 613 171
L 613 171
L 613 171
L 614 171
L 614 171
L 614 171
L 614 171
L 614 171
L 614 170
L 614 170
L 614 170
L 614 170
L 614 170
L 614 170
L 615 170
L 615 170
L 615 170
L 615 170
L 615 170
L 615 170
L 615 170
L 615 170
L 616 170
L 616 170
L 617 170
L 617 170
L 617 170
L 618 170
L 619 170
L 619 169
L 619 169
L 619 169
L 619 169
L 619 169
L 619 169
L 619 169
L 619 169
L 619 169
L 619 169
L 619 169
L 619 169
L 619 169
L 619 169
L 619 169
L 619 169
L 619 169
L 619 169
L 619 169
L 620 169
L 620 169
L 620 169
L 620 168
L 620 168
L 620 168
L 620 168
L 620 168
L 620 168
L 620 168
L 620 168
L 620 168
L 620 168
L 620 168
L 620 168
L 620 168
L 620 168
L 620 168
L 620 168
L 620 168
L 620 168
L 620 168
L 620 168
L 620 168
L 620 167
L 620 167
L 621 167
L 621 167
L 621 167
L 621 167
L 621 167
L 621 167
L 621 167
L 621 167
L 621 167
L 621 167
L 621 167
L 621 167
L 622 167
L 622 167
L 622 167
L 622 167
L 622 167
L 622 167
L 622 167
L 622 166
L 622 166
L 622 166
L 622 166
L 622 166
L 622 166
L 622 166
L 622 166
L 622 166
L 622 166
L 622 166
L 622 166
L 623 166
L 623 166
L 623 166
L 623 166
L 623 166
L 623 166
L 623 166
L 623 166
L 623 166
L 623 165
L 623 165
L 623 165
L 623 165
L 623 165
L 623 165
L 623 165
L 623 165
L 623 165
L 624 165
L 624 165
L 624 165
L 624 165
L 624 165
L 624 165
L 624 165
L 624 165
L 624 165
L 624 165
L 624 165
L 624 165
L 624 164
L 624 164
L 624 164
L 625 164
L 625 164
L 625 164
L 625 164
L 625 164
L 625 164
L 625 164
L 625 164
L 625 164
L 625 164
L 625 164
L 625 164
L 626 164
L 626 164
L 626 164
L 626 164
L 626 164
L 626 164
L 626 163
L 626 163
L 626 163
L 626 163
L 626 163
L 627 163
L 627 163
L 627 163
L 627 163
L 627 163
L 627 163
L 627 163
L 627 163
L 627 163
L 627 163
L 627 163
L 628 163
L 630 163
L 631 163
L 632 163
L 632 163
L 632 163
L 632 162
L 632 162
L 632 162
L 632 162
L 632 162
L 632 162
L 632 162
L 633 162
L 633 162
L 633 162
L 633 162
L 633 162
L 633 162
L 633 162
L 633 162
L 633 162
L 633 162
L 633 162
L 633 162
L 633 162
L 633 162
L 633 161
L 633 161
L 633 161
L 633 161
L 633 161
L 633 161
L 633 161
L 634 161
L 634 161
L 634 161
L 634 161
L 634 161
L 634 161
L 634 161
L 634 161
L 634 161
L 634 161
L 634 161
L 634 161
L 635 161
L 635 161
L 635 160
L 635 160
L 635 160
L 635 160
L 635 160
L 635 160
L 635 160
L 635 160
L 635 160
L 635 160
L 635 160
L 635 160
L 635 160
L 635 160
L 635 160
L 635 160
L 635 160
L 636 160
L 636 160
L 636 160
L 636 160
L 636 159
L 636 159
L 636 159
L 636 159
L 636 159
L 636 159
L 636 159
L 636 159
L 636 159
L 636 159
L 636 159
L 636 159
L 636 159
L 636 159
L 636 159
L 636 159
L 636 159
L 636 159
L 637 159
L 637 159
L 637 159
L 637 158
L 637 158
L 637 158
L 637 158
L 637 158
L 637 158
L 637 158
L 637 158
L 637 158
L 637 158
L 637 158
L 637 158
L 637 158
L 637 158
L 637 158
L 637 158
L 637 158
L 638 158
L 638 158
L 638 158
L 638 158
L 638 158
L 638 157
L 638 157
L 638 157
L 638 157
L 638 157
L 638 157
L 638 157
L 639 157
L 639 157
L 639 157
L 639 157
L 639 157
L 639 157
L 639 157
L 639 157
L 639 157
L 639 157
L 639 157
L 639 157
L 639 157
L 639 157
L 639 156
L 639 156
L 639 156
L 639 156
L 639 156
L 639 156
L 639 156
L 639 156
L 640 156
L 640 156
L 640 156
L 640 156
L 640 156
L 640 156
L 640 156
L 640 156
L 641 156
L 641 156
L 641 156
L 643 156
L 645 156
L 645 155
L 645 155
L 645 155
L 645 155
L 645 155
L 645 155
L 645 155
L 645 155
L 645 155
L 645 155
L 645 155
L 645 155
L 645 155
L 645 155
L 646 155
L 646 155
L 646 155
L 646 155
L 646 155
L 646 155
L 646 155
L 646 154
L 646 154
L 646 154
L 646 154
L 646 154
L 646 154
L 646 154
L 646 154
L 646 154
L 646 154
L 646 154
L 646 154
L 646 154
L 646 154
L 646 154
L 646 154
L 646 154
L 646 154
L 646 154
L 646 154
L 646 154
L 647 153
L 647 153
L 647 153
L 647 153
L 647 153
L 647 153
L 647 153
L 647 153
L 647 153
L 647 153
L 647 153
L 647 153
L 647 153
L 648 153
L 648 153
L 648 153
L 648 153
L 648 153
L 648 153
L 648 153
L 648 153
L 648 152
L 648 152
L 648 152
L 648 152
L 648 152
L 648 152
L 648 152
L 648 152
L 648 152
L 648 152
L 648 152
L 648 152
L 648 152
L 648 152
L 648 152
L 648 152
L 648 152
L 648 152
L 649 152
L 649 152
L 649 152
L 649 152
L 649 151
L 649 151
L 649 151
L 649 151
L 649 151
L 649 151
L 649 151
L 649 151
L 649 151
L 649 151
L 649 151
L 649 151
L 649 151
L 650 151
L 650 151
L 650 151
L 650 151
L 650 151
L 650 151
L 650 151
L 650 151
L 650 150
L 650 150
L 650 150
L 650 150
L 650 150
L 651 150
L 651 150
L 651 150
L 651 150
L 651 150
L 651 150
L 651 150
L 652 150
L 652 150
L 652 150
L 652 150
L 652 150
L 652 150
L 652 150
L 652 150
L 652 150
L 652 149
L 652 149
L 652 149
L 652 149
L 652 149
L 652 149
L 652 149
L 653 149
L 653 149
L 653 149
L 653 149
L 653 149
L 653 149
L 653 149
L 653 149
L 653 149
L 653 149
L 653 149
L 653 149
L 654 149
L 654 149
L 654 148
L 655 148
L 657 148
L 657 148
L 657 148
L 658 148
L 658 148
L 658 148
L 658 148
L 658 148
L 658 148
L 658 148
L 658 148
L 658 148
L 658 148
L 658 148
L 658 148
L 658 148
L 658 148
L 658 148
L 658 148
L 658 147
L 658 147
L 658 147
L 658 147
L 658 147
L 658 147
L 658 147
L 658 147
L 658 147
L 658 147
L 658 147
L 658 147
L 658 147
L 658 147
L 658 147
L 658 147
L 658 147
L 658 147
L 658 147
L 658 147
L 658 147
L 658 147
L 658 146
L 658 146
L 658 146
L 658 146
L 658 146
L 658 146
L 658 146
L 658 146
L 658 146
L 658 146
L 658 146
L 658 146
L 658 146
L 658 146
L 658 146
L 658 146
L 658 146
L 658 146
L 658 146
L 658 146
L 659 146
L 659 145
L 659 145
L 659 145
L 659 145
L 659 145
L 659 145
L 659 145
L 659 145
L 659 145
L 659 145
L 659 145
L 659 145
L 659 145
L 659 145
L 659 145
L 659 145
L 659 145
L 659 145
L 659 145
L 659 145
L 659 145
L 659 144
L 659 144
L 659 144
L 659 144
L 659 144
L 659 144
L 659 144
L 659 144
L 659 144
L 659 144
L 659 144
L 659 144
L 659 144
L 659 144
L 659 144
L 659 144
L 659 144
L 659 144
L 659 144
L 659 144
L 660 144
L 660 143
L 660 143
L 660 143
L 660 143
L 660 143
L 660 143
L 660 143
L 660 143
L 660 143
L 660 143
L 660 143
L 660 143
L 660 143
L 660 143
L 661 143
L 661 143
L 661 143
L 661 143
L 661 143
L 661 143
L 661 143
L 661 142
L 661 142
L 661 142
L 661 142
L 661 142
L 661 142
L 661 142
L 661 142
L 661 142
L 661 142
L 661 142
L 661 142
L 661 142
L 661 142
L 661 142
L 661 142
L 661 142
L 661 142
L 661 142
L 661 142
L 661 142
L 661 141
L 661 141
L 661 141
L 661 141
L 661 141
L 661 141
L 661 141
L 661 141
L 661 141
L 661 141
L 661 141
L 661 141
L 661 141
L 661 141
L 661 141
L 662 141
L 662 141
L 662 141
L 662 141
L 662 141
L 662 141
L 662 141
L 662 140
L 662 140
L 662 140
L 662 140
L 662 140
L 662 140
L 662 140
L 662 140
L 662 140
L 662 140
L 662 140
L 662 140
L 662 140
L 662 140
L 662 140
L 662 140
L 662 140
L 662 140
L 662 140
L 662 140
L 662 140
L 662 139
L 662 139
L 662 139
L 662 139
L 662 139
L 662 139
L 662 139
L 662 139
L 662 139
L 662 139
L 662 139
L 662 139
L 662 139
L 662 139
L 663 139
L 663 139
L 663 139
L 663 139
L 663 139
L 663 139
L 663 139
L 663 138
L 663 138
L 663 138
L 663 138
L 663 138
L 663 138
L 663 138
L 663 138
L 663 138
L 664 138
L 664 138
L 664 138
L 664 138
L 664 138
L 664 138
L 664 138
L 664 138
L 664 138
L 664 138
L 664 138
L 664 138
L 664 137
L 664 137
L 664 137
L 664 137
L 664 137
L 664 137
L 664 137
L 664 137
L 664 137
L 664 137
L 664 137
L 664 137
L 664 137
L 665 137
L 665 137
L 665 137
L 665 137
L 665 137
L 665 137
L 665 137
L 665 137
L 665 136
L 665 136
L 665 136
L 665 136
L 665 136
L 665 136
L 665 136
L 665 136
L 665 136
L 665 136
L 665 136
L 665 136
L 665 136
L 665 136
L 666 136
L 666 136
L 666 136
L 666 136
L 666 136
L 666 136
L 666 136
L 666 135
L 666 135
L 666 135
L 666 135
L 667 135
L 667 135
L 667 135
L 667 135
L 667 135
L 667 135
L 667 135
L 668 135
L 668 135
L 668 135
L 668 135
L 669 135
L 670 135
L 670 135
L 670 135
L 671 135
L 671 135
L 671 135
L 671 134
L 671 134
L 671 134
L 671 134
L 671 134
L 671 134
L 671 134
L 671 134
L 671 134
L 671 134
L 671 134
L 671 134
L 671 134
L 671 134
L 671 134
L 671 134
L 671 134
L 671 134
L 671 134
L 671 134
L 672 134
L 672 133
L 672 133
L 672 133
L 672 133
L 672 133
L 672 133
L 672 133
L 672 133
L 672 133
L 672 133
L 672 133
L 672 133
L 672 133
L 672 133
L 672 133
L 672 133
L 672 133
L 672 133
L 672 133
L 672 133
L 672 133
L 672 132
L 672 132
L 672 132
L 672 132
L 672 132
L 672 132
L 673 132
L 673 132
L 673 132
L 673 132
L 673 132
L 673 132
L 673 132
L 673 132
L 673 132
L 673 132
L 673 132
L 673 132
L 673 132
L 673 132
L 673 132
L 673 131
L 673 131
L 673 131
L 674 131
L 674 131
L 674 131
L 674 131
L 674 131
L 674 131
L 674 131
L 674 131
L 674 131
L 674 131
L 674 131
L 674 131
L 674 131
L 674 131
L 674 131
L 674 131
L 674 131
L 674 131
L 674 130
L 674 130
L 674 130
L 674 130
L 674 130
L 674 130
L 674 130
L 674 130
L 674 130
L 674 130
L 674 130
L 674 130
L 674 130
L 674 130
L 674 130
L 675 130
L 675 130
L 675 130
L 675 130
L 675 130
L 675 130
L 675 130
L 675 129
L 675 129
L 675 129
L 675 129
L 675 129
L 675 129
L 675 129
L 675 129
L 675 129
L 675 129
L 675 129
L 675 129
L 675 129
L 675 129
L 675 129
L 675 129
L 675 129
L 675 129
L 675 129
L 675 129
L 676 129
L 676 128
L 676 128
L 676 128
L 676 128
L 676 128
L 676 128
L 676 128
L 676 128
L 676 128
L 676 128
L 676 128
L 676 128
L 676 128
L 676 128
L 677 128
L 677 128
L 677 128
L 677 128
L 677 128
L 677 128
L 677 128
L 677 127
L 677 127
L 678 127
L 678 127
L 678 127
L 678 127
L 678 127
L 678 127
L 678 127
L 678 127
L 678 127
L 679 127
L 679 127
L 679 127
L 679 127
L 679 127
L 679 127
L 679 127
L 679 127
L 679 127
L 679 127
L 679 126
L 680 126
L 680 126
L 681 126
L 681 126
L 681 126
L 681 126
L 683 126
L 684 126
L 684 126
L 684 126
L 685 126
L 685 126
L 685 126
L 685 126
L 685 126
L 685 126
L 685 126
L 685 126
L 685 126
L 685 126
L 685 125
L 685 125
L 686 125
L 686 125
L 686 125
L 687 125
L 687 125
L 687 125
L 687 125
L 687 125
L 687 125
L 687 125
L 687 125
L 687 125
L 687 125
L 688 125
L 688 125
L 688 125
L 688 125
L 688 125
L 688 125
L 688 124
L 688 124
L 688 124
L 688 124
L 689 124
L 689 124
L 689 124
L 689 124
L 689 124
L 690 124
L 690 124
L 690 124
L 691 124
L 691 124
L 691 124
L 691 124
L 692 124
L 692 124
L 692 124
L 692 124
L 692 124
L 692 124
L 693 123
L 693 123
L 693 123
L 695 123
L 696 123
L 697 123
L 698 123
L 698 123
L 698 123
L 698 123
L 699 123
L 699 123
L 699 123
L 699 123
L 699 123
L 699 123
L 700 123
L 700 123
L 700 123
L 701 123
L 701 123
L 701 122
L 701 122
L 701 122
L 701 122
L 701 122
L 701 122
L 702 122
L 702 122
L 702 122
L 702 122
L 702 122
L 703 122
L 703 122
L 703 122
L 703 122
L 703 122
L 704 122
L 704 122
L 704 122
L 704 122
L 704 122
L 704 121
L 704 121
L 705 121
L 705 121
L 705 121
L 705 121
L 706 121
L 709 121
L 709 121
L 710 121
L 710 121
L 710 121
L 710 121
L 710 121
L 710 121
L 710 121
L 710 121
L 710 121
L 710 121
L 710 121
L 710 121
L 710 120
L 711 120
L 711 120
L 711 120
L 711 120
L 711 120
L 711 120
L 711 120
L 711 120
L 711 120
L 711 120
L 711 120
L 711 120
L 711 120
L 711 120
L 711 120
L 711 120
L 711 120
L 712 120
L 712 120
L 712 120
L 712 119
L 712 119
L 712 119
L 712 119
L 712 119
L 713 119
L 713 119
L 713 119
L 713 119
L 713 119
L 713 119
L 713 119
L 713 119
L 713 119
L 713 119
L 713 119
L 713 119
L 713 119
L 714 119
L 714 119
L 714 119
L 714 118
L 714 118
L 714 118
L 714 118
L 714 118
L 714 118
L 714 118
L 714 118
L 714 118
L 714 118
L 714 118
L 714 118
L 714 118
L 714 118
L 715 118
L 715 118
L 715 118
L 715 118
L 715 118
L 715 118
L 715 118
L 715 118
L 715 117
L 715 117
L 715 117
L 716 117
L 716 117
L 716 117
L 716 117
L 716 117
L 716 117
L 716 117
L 716 117
L 716 117
L 716 117
L 716 117
L 716 117
L 717 117
L 717 117
L 717 117
L 717 117
L 717 117
L 717 117
L 717 116
L 717 116
L 717 116
L 718 116
L 718 116
L 718 116
L 718 116
L 718 116
L 718 116
L 718 116
L 718 116
L 718 116
L 719 116
L 720 116
L 720 116
L 722 116
L 723 116
L 723 116
L 723 116
L 723 116
L 723 116
L 723 115
L 723 115
L 723 115
L 723 115
L 723 115
L 723 115
L 723 115
L 723 115
L 723 115
L 723 115
L 724 115
L 724 115
L 724 115
L 724 115
L 724 115
L 724 115
L 724 115
L 724 115
L 724 115
L 724 115
L 724 115
L 724 114
L 724 114
L 724 114
L 724 114
L 724 114
L 724 114
L 724 114
L 724 114
L 724 114
L 724 114
L 724 114
L 724 114
L 724 114
L 724 114
L 724 114
L 724 114
L 724 114
L 724 114
L 724 114
L 724 114
L 724 114
L 724 113
L 724 113
L 724 113
L 724 113
L 724 113
L 724 113
L 724 113
L 724 113
L 724 113
L 724 113
L 724 113
L 724 113
L 724 113
L 724 113
L 724 113
L 724 113
L 724 113
L 724 113
L 724 113
L 724 113
L 724 113
L 724 113
L 724 112
L 724 112
L 724 112
L 724 112
L 724 112
L 724 112
L 724 112
L 724 112
L 724 112
L 724 112
L 724 112
L 724 112
L 724 112
L 724 112
L 724 112
L 724 112
L 724 112
L 724 112
L 725 112
L 725 112
L 725 112
L 725 111
L 725 111
L 725 111
L 725 111
L 725 111
L 725 111
L 725 111
L 725 111
L 725 111
L 725 111
L 725 111
L 725 111
L 725 111
L 725 111
L 725 111
L 725 111
L 725 111
L 725 111
L 726 111
L 726 111
L 726 111
L 726 110
L 726 110
L 726 110
L 726 110
L 726 110
L 726 110
L 726 110
L 726 110
L 726 110
L 726 110
L 726 110
L 726 110
L 726 110
L 726 110
L 726 110
L 726 110
L 727 110
L 727 110
L 727 110
L 727 110
L 727 110
L 727 109
L 727 109
L 727 109
L 727 109
L 727 109
L 727 109
L 727 109
L 727 109
L 727 109
L 727 109
L 727 109
L 727 109
L 727 109
L 727 109
L 727 109
L 727 109
L 727 109
L 727 109
L 727 109
L 728 109
L 728 109
L 728 108
L 728 108
L 728 108
L 728 108
L 728 108
L 728 108
L 728 108
L 728 108
L 728 108
L 728 108
L 728 108
L 728 108
L 728 108
L 728 108
L 728 108
L 728 108
L 728 108
L 728 108
L 728 108
L 728 108
L 728 108
L 728 107
L 728 107
L 729 107
L 729 107
L 729 107
L 729 107
L 729 107
L 729 107
L 729 107
L 729 107
L 729 107
L 729 107
L 729 107
L 729 107
L 729 107
L 729 107
L 729 107
L 729 107
L 729 107
L 729 107
L 729 107
L 729 107
L 729 106
L 730 106
L 730 106
L 730 106
L 730 106
L 730 106
L 730 106
L 730 106
L 730 106
L 730 106
L 731 106
L 731 106
L 732 106
L 732 106
L 732 106
L 732 106
L 733 106
L 734 106
L 736 106
L 736 106
L 736 106
L 736 105
L 736 105
L 736 105
L 736 105
L 736 105
L 736 105
L 736 105
L 736 105
L 736 105
L 736 105
L 736 105
L 736 105
L 736 105
L 736 105
L 736 105
L 736 105
L 736 105
L 736 105
L 736 105
L 736 105
L 736 105
L 736 104
L 736 104
L 736 104
L 736 104
L 736 104
L 736 104
L 736 104
L 736 104
L 736 104
L 736 104
L 736 104
L 736 104
L 736 104
L 736 104
L 736 104
L 737 104
L 737 104
L 737 104
L 737 104
L 737 104
L 737 104
L 737 103
L 737 103
L 737 103
L 737 103
L 737 103
L 737 103
L 737 103
L 737 103
L 737 103
L 737 103
L 737 103
L 737 103
L 737 103
L 737 103
L 737 103
L 737 103
L 737 103
L 737 103
L 737 103
L 737 103
L 737 103
L 737 102
L 737 102
L 737 102
L 737 102
L 737 102
L 737 102
L 737 102
L 737 102
L 737 102
L 737 102
L 737 102
L 737 102
L 737 102
L 737 102
L 737 102
L 737 102
L 737 102
L 737 102
L 737 102
L 737 102
L 737 102
L 738 101
L 738 101
L 738 101
L 738 101
L 738 101
L 738 101
L 738 101
L 738 101
L 738 101
L 738 101
L 738 101
L 738 101
L 738 101
L 738 101
L 738 101
L 738 101
L 738 101
L 738 101
L 738 101
L 738 101
L 738 101
L 738 101
L 738 100
L 738 100
L 738 100
L 738 100
L 738 100
L 739 100
L 739 100
L 739 100
L 739 100
L 739 100
L 739 100
L 739 100
L 739 100
L 739 100
L 739 100
L 739 100
L 739 100
L 739 100
L 739 100
L 739 100
L 739 100
L 739 99
L 739 99
L 739 99
L 739 99
L 739 99
L 739 99
L 739 99
L 739 99
L 739 99
L 739 99
L 739 99
L 739 99
L 739 99
L 739 99
L 739 99
L 740 99
L 740 99
L 740 99
L 740 99
L 740 99
L 740 99
L 740 98
L 740 98
L 740 98
L 740 98
L 740 98
L 740 98
L 740 98
L 740 98
L 740 98
L 740 98
L 740 98
L 740 98
L 740 98
L 740 98
L 740 98
L 740 98
L 740 98
L 740 98
L 740 98
L 740 98
L 740 98
L 740 97
L 740 97
L 740 97
L 740 97
L 740 97
L 740 97
L 740 97
L 740 97
L 741 97
L 741 97
L 741 97
L 741 97
L 741 97
L 741 97
L 741 97
L 741 97
L 741 97
L 741 97
L 741 97
L 741 97
L 741 97
L 741 96
L 741 96
L 741 96
L 741 96
L 741 96
L 742 96
L 742 96
L 742 96
L 742 96
L 742 96
L 742 96
L 742 96
L 742 96
L 742 96
L 742 96
L 743 96
L 743 96
L 743 96
L 743 96
L 743 96
L 743 96
L 743 96
L 743 95
L 743 95
L 743 95
L 743 95
L 744 95
L 744 95
L 744 95
L 744 95
L 744 95
L 744 95
L 744 95
L 745 95
L 745 95
L 745 95
L 747 95
L 747 95
L 747 95
L 748 95
L 748 95
L 748 95
L 749 95
L 749 94
L 749 94
L 749 94
L 749 94
L 749 94
L 749 94
L 749 94
L 749 94
L 749 94
L 749 94
L 749 94
L 749 94
L 749 94
L 749 94
L 749 94
L 749 94
L 749 94
L 749 94
L 749 94
L 749 94
L 749 94
L 749 93
L 749 93
L 749 93
L 749 93
L 749 93
L 750 93
L 750 93
L 750 93
L 750 93
L 750 93
L 750 93
L 750 93
L 750 93
L 750 93
L 750 93
L 750 93
L 750 93
L 750 93
L 750 93
L 750 93
L 750 93
L 750 92
L 750 92
L 750 92
L 750 92
L 750 92
L 750 92
L 750 92
L 750 92
L 750 92
L 750 92
L 750 92
L 750 92
L 750 92
L 750 92
L 750 92
L 750 92
L 751 92
L 751 92
L 751 92
L 751 92
L 751 92
L 751 91
L 751 91
L 751 91
L 751 91
L 751 91
L 751 91
L 751 91
L 751 91
L 751 91
L 751 91
L 751 91
L 751 91
L 751 91
L 752 91
L 752 91
L 752 91
L 752 91
L 752 91
L 752 91
L 752 91
L 752 91
L 752 90
L 752 90
L 752 90
L 752 90
L 752 90
L 752 90
L 752 90
L 752 90
L 752 90
L 752 90
L 752 90
L 752 90
L 752 90
L 753 90
L 753 90
L 753 90
L 753 90
L 753 90
L 753 90
L 753 90
L 753 90
L 753 90
L 753 89
L 753 89
L 753 89
L 753 89
L 753 89
L 753 89
L 753 89
L 753 89
L 753 89
L 753 89
L 753 89
L 753 89
L 753 89
L 753 89
L 753 89
L 754 89
L 754 89
L 754 89
L 754 89
L 754 89
L 754 89
L 754 88
L 754 88
L 754 88
L 754 88
L 754 88
L 754 88
L 754 88
L 754 88
L 754 88
L 754 88
L 755 88
L 755 88
L 755 88
L 755 88
L 755 88
L 755 88
L 755 88
L 756 88
L 756 88
L 756 88
L 756 88
L 756 87
L 756 87
L 756 87
L 756 87
L 757 87
L 757 87
L 757 87
L 757 87
L 757 87
L 757 87
L 757 87
L 757 87
L 757 87
L 758 87
L 758 87
L 761 87
L 761 87
L 761 87
L 762 87
L 762 87
L 762 87
L 762 86
L 762 86
L 762 86
L 762 86
L 762 86
L 762 86
L 762 86
L 762 86
L 762 86
L 762 86
L 762 86
L 762 86
L 762 86
L 762 86
L 762 86
L 762 86
L 762 86
L 762 86
L 762 86
L 762 86
L 763 86
L 763 85
L 763 85
L 763 85
L 763 85
L 763 85
L 763 85
L 763 85
L 763 85
L 763 85
L 763 85
L 763 85
L 763 85
L 763 85
L 763 85
L 763 85
L 763 85
L 763 85
L 763 85
L 763 85
L 763 85
L 763 85
L 763 84
L 763 84
L 763 84
L 763 84
L 764 84
L 764 84
L 764 84
L 764 84
L 764 84
L 764 84
L 764 84
L 764 84
L 764 84
L 764 84
L 765 84
L 765 84
L 765 84
L 765 84
L 765 84
L 765 84
L 765 84
L 765 84
L 765 83
L 765 83
L 765 83
L 765 83
L 765 83
L 765 83
L 765 83
L 765 83
L 765 83
L 765 83
L 765 83
L 766 83
L 766 83
L 766 83
L 766 83
L 766 83
L 766 83
L 766 83
L 766 83
L 766 83
L 766 83
L 766 82
L 766 82
L 766 82
L 766 82
L 766 82
L 766 82
L 766 82
L 766 82
L 766 82
L 767 82
L 767 82
L 767 82
L 767 82
L 767 82
L 767 82
L 767 82
L 767 82
L 767 82
L 767 82
L 767 82
L 767 82
L 767 81
L 767 81
L 767 81
L 767 81
L 768 81
L 768 81
L 768 81
L 768 81
L 768 81
L 769 81
L 769 81
L 769 81
L 769 81
L 769 81
L 769 81
L 770 81
L 770 81
L 770 81
L 773 81
L 775 81
L 775 81
L 775 80
L 775 80
L 776 80
L 776 80
L 776 80
L 776 80
L 776 80
L 777 80
L 777 80
L 777 80
L 777 80
L 777 80
L 778 80
L 778 80
L 778 80
L 778 80
L 778 80
L 778 80
L 778 80
L 779 80
L 779 80
L 779 79
L 779 79
L 780 79
L 780 79
L 780 79
L 781 79
L 781 79
L 781 79
L 781 79
L 781 79
L 781 79
L 781 79
L 781 79
L 781 79
L 781 79
L 781 79
L 781 79
L 781 79
L 781 79
L 782 79
L 782 79
L 782 79
L 782 78
L 782 78
L 782 78
L 782 78
L 782 78
L 782 78
L 782 78
L 783 78
L 783 78
L 783 78
L 783 78
L 783 78
L 783 78
L 783 78
L 783 78
L 783 78
L 784 78
L 784 78
L 784 78
L 784 78
L 785 78
L 787 77
L 787 77
L 788 77
L 788 77
L 788 77
L 788 77
L 788 77
L 789 77
L 789 77
L 789 77
L 789 77
L 789 77
L 789 77
L 790 77
L 790 77
L 790 77
L 790 77
L 790 77
L 790 77
L 791 77
L 791 77
L 791 76
L 792 76
L 792 76
L 793 76
L 793 76
L 794 76
L 794 76
L 794 76
L 794 76
L 794 76
L 794 76
L 794 76
L 794 76
L 794 76
L 795 76
L 795 76
L 795 76
L 795 76
L 795 76
L 795 76
L 795 76
L 795 75
L 795 75
L 795 75
L 796 75
L 796 75
L 796 75
L 799 75
L 799 75
L 800 75
L 800 75
L 801 75
L 801 75
L 801 75
L 801 75
L 801 75
L 801 75
L 801 75
L 801 75
L 801 75
L 801 75
L 801 75
L 801 74
L 801 74
L 801 74
L 801 74
L 801 74
L 801 74
L 801 74
L 801 74
L 801 74
L 801 74
L 801 74
L 801 74
L 801 74
L 801 74
L 801 74
L 802 74
L 802 74
L 802 74
L 802 74
L 802 74
L 802 74
L 802 73
L 802 73
L 802 73
L 802 73
L 802 73
L 802 73
L 802 73
L 802 73
L 802 73
L 802 73
L 803 73
L 803 73
L 803 73
L 803 73
L 803 73
L 803 73
L 803 73
L 803 73
L 803 73
L 803 73
L 803 73
L 803 73
L 803 72
L 803 72
L 804 72
L 804 72
L 804 72
L 804 72
L 804 72
L 804 72
L 804 72
L 804 72
L 804 72
L 804 72
L 804 72
L 804 72
L 804 72
L 804 72
L 804 72
L 804 72
L 804 72
L 804 72
L 804 72
L 804 71
L 804 71
L 804 71
L 804 71
L 804 71
L 804 71
L 804 71
L 804 71
L 805 71
L 805 71
L 805 71
L 805 71
L 805 71
L 805 71
L 805 71
L 805 71
L 805 71
L 805 71
L 805 71
L 805 71
L 805 71
L 805 70
L 805 70
L 805 70
L 805 70
L 805 70
L 805 70
L 806 70
L 806 70
L 806 70
L 806 70
L 806 70
L 806 70
L 806 70
L 807 70
L 807 70
L 807 70
L 807 70
L 807 70
L 807 70
L 807 70
L 807 70
L 807 69
L 807 69
L 807 69
L 808 69
L 808 69
L 808 69
L 808 69
L 808 69
L 808 69
L 809 69
L 809 69
L 809 69
L 809 69
L 811 69
L 813 69
L 813 69
L 813 69
L 813 69
L 814 69
L 814 69
L 814 69
L 814 68
L 814 68
L 814 68
L 814 68
L 814 68
L 814 68
L 814 68
L 814 68
L 814 68
L 814 68
L 814 68
L 814 68
L 814 68
L 815 68
L 815 68
L 815 68
L 815 68
L 815 68
L 815 68
L 815 68
L 815 68
L 815 67
L 815 67
L 815 67
L 815 67
L 815 67
L 815 67
L 815 67
L 815 67
L 815 67
L 815 67
L 815 67
L 815 67
L 815 67
L 815 67
L 816 67
L 816 67
L 816 67
L 816 67
L 816 67
L 816 67
L 816 67
L 816 67
L 816 66
L 816 66
L 816 66
L 816 66
L 816 66
L 816 66
L 817 66
L 817 66
L 817 66
L 817 66
L 817 66
L 817 66
L 817 66
L 817 66
L 817 66
L 817 66
L 817 66
L 817 66
L 817 66
L 817 66
L 817 66
L 817 65
L 817 65
L 817 65
L 817 65
L 817 65
L 817 65
L 818 65
L 818 65
L 818 65
L 818 65
L 818 65
L 818 65
L 818 65
L 818 65
L 818 65
L 818 65
L 818 65
L 818 65
L 818 65
L 818 65
L 818 65
L 818 64
L 818 64
L 818 64
L 818 64
L 818 64
L 818 64
L 818 64
L 819 64
L 819 64
L 819 64
L 819 64
L 819 64
L 819 64
L 819 64
L 819 64
L 819 64
L 819 64
L 819 64
L 819 64
L 819 64
L 820 64
L 820 63
L 820 63
L 820 63
L 820 63
L 820 63
L 820 63
L 820 63
L 820 63
L 820 63
L 820 63
L 820 63
L 820 63
L 820 63
L 820 63
L 821 63
L 821 63
L 821 63
L 821 63
L 821 63
L 821 63
L 821 63
L 821 62
L 821 62
L 821 62
L 821 62
L 821 62
L 821 62
L 821 62
L 821 62
L 821 62
L 821 62
L 821 62
L 822 62
L 822 62
L 822 62
L 822 62
L 822 62
L 822 62
L 823 62
L 823 62
L 823 62
L 823 62
L 823 62
L 824 61
L 824 61
L 826 61
L 826 61
L 826 61
L 826 61
L 826 61
L 826 61
L 826 61
L 826 61
L 826 61
L 826 61
L 827 61
L 827 61
L 827 61
L 827 61
L 827 61
L 827 61
L 827 61
L 827 61
L 827 61
L 827 60
L 827 60
L 827 60
L 827 60
L 827 60
L 827 60
L 827 60
L 827 60
L 827 60
L 827 60
L 827 60
L 827 60
L 827 60
L 827 60
L 827 60
L 827 60
L 827 60
L 827 60
L 827 60
L 827 60
L 827 60
L 827 59
L 828 59
L 828 59
L 828 59
L 828 59
L 828 59
L 828 59
L 828 59
L 828 59
L 828 59
L 828 59
L 828 59
L 828 59
L 828 59
L 828 59
L 828 59
L 828 59
L 828 59
L 828 59
L 828 59
L 828 59
L 829 58
L 829 58
L 829 58
L 829 58
L 829 58
L 829 58
L 829 58
L 829 58
L 829 58
L 829 58
L 829 58
L 829 58
L 829 58
L 829 58
L 829 58
L 829 58
L 829 58
L 829 58
L 829 58
L 829 58
L 829 58
L 829 57
L 829 57
L 829 57
L 829 57
L 829 57
L 829 57
L 830 57
L 830 57
L 830 57
L 830 57
L 830 57
L 830 57
L 830 57
L 830 57
L 830 57
L 830 57
L 830 57
L 830 57
L 830 57
L 830 57
L 830 57
L 830 56
L 830 56
L 830 56
L 830 56
L 830 56
L 830 56
L 830 56
L 830 56
L 830 56
L 830 56
L 830 56
L 830 56
L 830 56
L 830 56
L 830 56
L 830 56
L 831 56
L 831 56
L 831 56
L 831 56
L 831 56
L 831 56
L 831 55
L 831 55
L 831 55
L 831 55
L 831 55
L 831 55
L 831 55
L 831 55
L 831 55
L 831 55
L 831 55
L 831 55
L 831 55
L 831 55
L 831 55
L 831 55
L 831 55
L 831 55
L 831 55
L 831 55
L 831 55
L 831 54
L 831 54
L 831 54
L 831 54
L 831 54
L 831 54
L 831 54
L 831 54
L 831 54
L 832 54
L 832 54
L 832 54
L 832 54
L 832 54
L 832 54
L 832 54
L 832 54
L 832 54
L 832 54
L 832 54
L 832 54
L 832 53
L 832 53
L 832 53
L 833 53
L 833 53
L 833 53
L 833 53
L 833 53
L 833 53
L 833 53
L 833 53
L 833 53
L 833 53
L 834 53
L 834 53
L 834 53
L 834 53
L 834 53
L 834 53
L 834 53
L 835 53
L 835 52
L 835 52
L 835 52
L 835 52
L 835 52
L 836 52
L 836 52
L 837 52
L 839 52
L 839 52
L 839 52
L 839 52
L 839 52
L 839 52
L 839 52
L 839 52
L 839 52
L 840 52
L 840 52
L 840 52
L 840 52
L 840 51
L 840 51
L 840 51
L 840 51
L 840 51
L 840 51
L 840 51
L 840 51
L 840 51
L 840 51
L 840 51
L 840 51
L 840 51
L 840 51
L 840 51
L 840 51
L 840 51
L 840 51
L 840 51
L 841 51
L 841 51
L 841 50
L 841 50
L 841 50
L 841 50
L 841 50
L 841 50
L 841 50
L 841 50
L 841 50
L 841 50
L 841 50
L 841 50
L 841 50
L 841 50
L 841 50
L 841 50
L 841 50
L 841 50
L 841 50
L 841 50
L 841 50
L 842 50
L 842 49
L 842 49
L 842 49
L 842 49
L 842 49
L 842 49
L 842 49
L 842 49
L 842 49
L 842 49
L 842 49
L 842 49
L 842 49
L 842 49
L 842 49
L 842 49
L 842 49
L 842 49
L 842 49
L 843 49
L 843 49
L 843 48
L 843 48
L 843 48
L 843 48
L 843 48
L 843 48
L 843 48
L 843 48
L 843 48
L 843 48
L 843 48
L 843 48
L 843 48
L 843 48
L 843 48
L 843 48
L 843 48
L 843 48
L 843 48
L 844 48
L 844 48
L 844 47
L 844 47
L 844 47
L 844 47
L 844 47
L 844 47
L 844 47
L 844 47
L 844 47
L 844 47
L 844 47
L 844 47
L 844 47
L 844 47
L 844 47
L 844 47
L 844 47
L 844 47
L 844 47
L 844 47
L 844 47
L 844 46
L 844 46
L 844 46
L 844 46
L 845 46
L 845 46
L 845 46
L 845 46
L 845 46
L 845 46
L 846 46
L 846 46
L 846 46
L 846 46
L 847 46
L 847 46
L 847 46
L 847 46
L 847 46
L 847 46
L 848 46
L 848 45
L 848 45
L 848 45
L 848 45
L 849 45
L 849 45
L 850 45
L 850 45
L 851 45
L 852 45
L 852 45
L 852 45
L 853 45
L 853 45
L 853 45
L 853 45
L 853 45
L 853 45
L 853 45
L 853 45
L 853 45
L 853 45
L 853 44
L 853 44
L 853 44
L 853 44
L 853 44
L 853 44
L 853 44
L 853 44
L 853 44
L 853 44
L 853 44
L 853 44
L 853 44
L 854 44
L 854 44
L 854 44
L 854 44
L 854 44
L 854 44
L 854 44
L 854 44
L 854 43
L 854 43
L 854 43
L 854 43
L 855 43
L 855 43
L 855 43
L 855 43
L 855 43
L 855 43
L 855 43
L 855 43
L 855 43
L 855 43
L 855 43
L 855 43
L 855 43
L 855 43
L 855 43
L 856 43
L 856 43
L 856 42
L 856 42
L 856 42
L 856 42
L 856 42
L 856 42
L 856 42
L 856 42
L 856 42
L 856 42
L 856 42
L 856 42
L 856 42
L 856 42
L 856 42
L 856 42
L 857 42
L 857 42
L 857 42
L 857 42
L 857 42
L 857 41
L 857 41
L 857 41
L 857 41
L 857 41
L 857 41
L 857 41
L 857 41
L 857 41
L 857 41
L 857 41
L 857 41
L 857 41
L 857 41
L 857 41
L 857 41
L 857 41
L 857 41
L 857 41
L 857 41
L 857 41
L 858 40
L 858 40
L 858 40
L 858 40
L 858 40
L 858 40
L 858 40
L 859 40
L 859 40
L 859 40
L 859 40
L 859 40
L 859 40
L 860 40
L 860 40
L 860 40
L 860 40
L 860 40
L 860 40
L 861 40
L 861 40
L 865 39
L 865 39
L 865 39
L 866 39
L 866 39
L 866 39
L 866 39
L 866 39
L 867 39
L 867 39
L 867 39
L 867 39
L 867 39
L 867 39
L 867 39
L 868 39
L 868 39
L 869 39
L 869 39
L 869 39
L 869 39
L 869 39
L 870 38
L 870 38
L 870 38
L 871 38
L 871 38
L 871 38
L 871 38
L 871 38
L 871 38
L 872 38
L 873 38
L 873 38
L 873 38
L 873 38
L 873 38
L 874 38
L 874 38
L 874 38
L 875 38
L 875 38
L 875 38
L 878 37
L 878 37
L 879 37
L 879 37
L 879 37
L 879 37
L 879 37
L 880 37
L 880 37
L 880 37
L 880 37
L 880 37
L 880 37
L 880 37
L 881 37
L 881 37
L 881 37
L 882 37
L 882 37
L 882 37
L 882 37
L 883 36
L 883 36
L 883 36
L 883 36
L 883 36
L 883 36
L 883 36
L 883 36
L 883 36
L 884 36
L 884 36
L 885 36
L 885 36
L 885 36
L 885 36
L 886 36
L 886 36
L 886 36
L 887 36
L 887 36
L 888 36
L 890 35
L 891 35
L 891 35
L 891 35
L 891 35
L 892 35
L 892 35
L 892 35
L 892 35
L 892 35
L 892 35
L 892 35
L 892 35
L 892 35
L 892 35
L 893 35
L 893 35
L 893 35
L 893 35
L 893 35
L 893 35
L 893 34
L 893 34
L 893 34
L 893 34
L 894 34
L 894 34
L 894 34
L 894 34
L 894 34
L 894 34
L 894 34
L 894 34
L 894 34
L 894 34
L 894 34
L 894 34
L 894 34
L 894 34
L 895 34
L 895 34
L 895 34
L 895 33
L 895 33
L 895 33
L 895 33
L 895 33
L 895 33
L 895 33
L 895 33
L 895 33
L 895 33
L 895 33
L 895 33
L 895 33
L 895 33
L 896 33
L 896 33
L 896 33
L 896 33
L 896 33
L 896 33
L 896 33
L 896 33
L 896 32
L 896 32
L 896 32
L 896 32
L 896 32
L 896 32
L 897 32
L 897 32
L 897 32
L 897 32
L 897 32
L 897 32
L 897 32
L 898 32
L 898 32
L 898 32
L 898 32
L 898 32
L 898 32
L 898 32
L 899 32
L 899 31
L 899 31
L 899 31
L 899 31
L 900 31
L 900 31
L 901 31
L 901 31
L 901 31
L 902 31
L 903 31
L 904 31
L 904 31
L 904 31
L 904 31
L 905 31
L 905 31
L 905 31
L 905 31
L 905 31
L 905 31
L 905 30
L 905 30
L 905 30
L 905 30
L 905 30
L 905 30
L 905 30
L 905 30
L 905 30
L 905 30
L 905 30
L 905 30
L 906 30
L 906 30
L 906 30
L 906 30
L 906 30
L 906 30
L 906 30
L 906 30
L 906 30
L 906 29
L 907 29
L 907 29
L 907 29
L 907 29
L 907 29
L 907 29
L 907 29
L 907 29
L 907 29
L 907 29
L 907 29
L 908 29
L 908 29
L 908 29
L 908 29
L 908 29
L 908 29
L 908 29
L 908 29
L 908 29
L 908 28
L 908 28
L 908 28
L 908 28
L 909 28
L 909 28
L 909 28
L 909 28
L 909 28
L 909 28
L 909 28
L 909 28
L 909 28
L 909 28
L 909 28
L 910 28
L 910 28
L 910 28
L 911 28
L 911 28
L 911 28
L 911 28
L 912 27
L 912 27
L 912 27
L 912 27
L 912 27
L 913 27
L 915 27
L 917 27
L 917 27
L 917 27
L 917 27
L 917 27
L 918 27
L 918 27
L 918 27
L 918 27
L 918 27
L 918 27
L 918 27
L 918 27
L 918 27
L 919 26
L 919 26
L 920 26
L 920 26
L 920 26
L 920 26
L 920 26
L 920 26
L 920 26
L 920 26
L 920 26
L 920 26
L 920 26
L 920 26
L 921 26
L 921 26
L 921 26
L 921 26
L 921 26
L 921 26
L 921 26
L 921 25
L 921 25
L 921 25
L 921 25
L 922 25
L 922 25
L 922 25
L 922 25
L 922 25
L 922 25
L 922 25
L 922 25
L 922 25
L 922 25
L 923 25
L 923 25
L 923 25
L 924 25
L 924 25
L 924 25
L 924 25
L 924 24
L 926 24
L 926 24
L 926 24
L 926 24
L 927 24
L 931 24
L 931 24
L 931 24
L 931 24
L 931 24
L 931 24
L 931 24
L 931 24
L 931 24
L 931 24
L 931 24
L 931 24
L 932 24
L 932 24
L 932 24
L 932 23
L 932 23
L 932 23
L 932 23
L 933 23
L 933 23
L 933 23
L 933 23
L 933 23
L 933 23
L 933 23
L 933 23
L 933 23
L 933 23
L 934 23
L 934 23
L 934 23
L 934 23
L 934 23
L 934 23
L 934 23
L 934 22
L 934 22
L 935 22
L 935 22
L 935 22
L 935 22
L 935 22
L 935 22
L 935 22
L 935 22
L 935 22
L 936 22
L 936 22
L 937 22
L 938 22
L 938 22
L 938 22
L 940 22
L 942 22
L 943 22
L 943 22
L 943 22
L 943 21
L 943 21
L 943 21
L 944 21
L 944 21
L 944 21
L 944 21
L 944 21
L 944 21
L 944 21
L 944 21
L 944 21
L 944 21
L 944 21
L 944 21
L 944 21
L 944 21
L 944 21
L 945 21
L 945 21
L 945 21
L 945 20
L 945 20
L 945 20
L 945 20
L 945 20
L 945 20
L 945 20
L 945 20
L 945 20
L 945 20
L 945 20
L 945 20
L 945 20
L 945 20
L 945 20
L 945 20
L 945 20
L 945 20
L 945 20
L 945 20
L 945 20
L 945 19
L 945 19
L 945 19
L 945 19
L 945 19
L 945 19
L 945 19
L 945 19
L 945 19
L 945 19
L 946 19
L 946 19
L 946 19
L 946 19
L 946 19
L 946 19
L 946 19
L 946 19
L 946 19
L 946 19
L 946 19
L 946 18
L 946 18
L 946 18
L 946 18
L 946 18
L 946 18
L 946 18
L 946 18
L 946 18
L 946 18
L 946 18
L 946 18
L 946 18
L 946 18
L 946 18
L 946 18
L 946 18
L 946 18
L 946 18
L 946 18
L 946 18
L 946 17
L 946 17
L 946 17
L 946 17
L 946 17
L 946 17
L 946 17
L 947 17
L 947 17
L 947 17
L 947 17
L 947 17
L 947 17
L 947 17
L 947 17
L 947 17
L 947 17
L 947 17
L 947 17
L 947 17
L 947 17
L 947 16
L 947 16
L 947 16
L 947 16
L 947 16
L 947 16
L 947 16
L 947 16
L 947 16
L 947 16
L 947 16
L 947 16
L 947 16
L 947 16
L 948 16
L 948 16
L 948 16
L 948 16
L 948 16
L 948 16
L 948 16
L 948 16
L 948 15
L 948 15
L 948 15
L 948 15
L 948 15
L 948 15
L 948 15
L 948 15
L 948 15
L 948 15
L 948 15
L 948 15
L 948 15
L 948 15
L 948 15
L 948 15
L 948 15
L 948 15
L 948 15
L 948 15
L 948 15
L 949 14
L 949 14
L 949 14
L 949 14
L 949 14
L 949 14
L 949 14
L 949 14
L 949 14
L 949 14
L 949 14
L 950 14
L 950 14
L 950 14
L 950 14
L 950 14
L 950 14
L 950 14
L 950 14
L 950 14
L 951 14
L 951 13
L 951 13
L 951 13
L 951 13
L 951 13
L 951 13
L 951 13
L 951 13
L 951 13
L 951 13
L 951 13
L 951 13
L 951 13
L 952 13
L 952 13
L 952 13
L 952 13
L 953 13
L 954 13
L 954 13
L 954 13
L 954 12
L 955 12
L 955 12
L 956 12
L 956 12
L 956 12
L 956 12
L 956 12
L 956 12
L 956 12
L 956 12
L 956 12
L 956 12
L 956 12
L 956 12
L 956 12
L 956 12
L 956 12
L 956 12
L 957 12
L 957 12
L 957 11
L 957 11
L 957 11
L 957 11
L 957 11
L 957 11
L 957 11
L 957 11
L 957 11
L 957 11
L 957 11
L 957 11
L 957 11
L 957 11
L 957 11
L 957 11
L 957 11
L 957 11
L 957 11
L 957 11
L 957 11" style="stroke-width:2;stroke:rgba(129,199,239,1.0);fill:none"/></svg>