<svg xmlns="http://www.w3.org/2000/svg" xmlns:xlink="http://www.w3.org/1999/xlink" width="1024" height="400">\n<path  d="M 0 0
L 1024 0
L 1024 400
L 0 400
L 0 0" style="stroke-width:0;stroke:rgba(255,255,255,1.0);fill:rgba(255,255,255,1.0)"/><path  d="M 38 11
L 957 11
L 957 351
L 38 351
L 38 11" style="stroke-width:0;stroke:rgba(255,255,255,1.0);fill:rgba(255,255,255,1.0)"/><path  d="M 38 351
L 957 351" style="stroke-width:2;stroke:rgba(85,85,85,1.0);fill:none"/><path  d="M 38 351
L 38 356" style="stroke-width:2;stroke:rgba(85,85,85,1.0);fill:none"/><text x="5" y="373" style="stroke-width:0;stroke:none;fill:rgba(51,51,51,1.0);font-size:12.8px;font-family:'Roboto Medium',sans-serif">2018-11-23</text><path  d="M 153 351
L 153 356" style="stroke-width:2;stroke:rgba(85,85,85,1.0);fill:none"/><text x="120" y="373" style="stroke-width:0;stroke:none;fill:rgba(51,51,51,1.0);font-size:12.8px;font-family:'Roboto Medium',sans-serif">2018-12-03</text><path  d="M 268 351
L 268 356" style="stroke-width:2;stroke:rgba(85,85,85,1.0);fill:none"/><text x="235" y="373" style="stroke-width:0;stroke:none;fill:rgba(51,51,51,1.0);font-size:12.8px;font-family:'Roboto Medium',sans-serif">2018-12-13</text><path  d="M 383 351
L 383 356" style="stroke-width:2;stroke:rgba(85,85,85,1.0);fill:none"/><text x="350" y="373" style="stroke-width:0;stroke:none;fill:rgba(51,51,51,1.0);font-size:12.8px;font-family:'Roboto Medium',sans-serif">2018-12-24</text><path  d="M 498 351
L 498 356" style="stroke-width:2;stroke:rgba(85,85,85,1.0);fill:none"/><text x="465" y="373" style="stroke-width:0;stroke:none;fill:rgba(51,51,51,1.0);font-size:12.8px;font-family:'Roboto Medium',sans-serif">2019-01-03</text><path  d="M 613 351
L 613 356" style="stroke-width:2;stroke:rgba(85,85,85,1.0);fill:none"/><text x="580" y="373" style="stroke-width:0;stroke:none;fill:rgba(51,51,51,1.0);font-size:12.8px;font-family:'Roboto Medium',sans-serif">2019-01-13</text><path  d="M 728 351
L 728 356" style="stroke-width:2;stroke:rgba(85,85,85,1.0);fill:none"/><text x="695" y="373" style="stroke-width:0;stroke:none;fill:rgba(51,51,51,1.0);font-size:12.8px;font-family:'Roboto Medium',sans-serif">2019-01-23</text><path  d="M 843 351
L 843 356" style="stroke-width:2;stroke:rgba(85,85,85,1.0);fill:none"/><text x="810" y="373" style="stroke-width:0;stroke:none;fill:rgba(51,51,51,1.0);font-size:12.8px;font-family:'Roboto Medium',sans-serif">2019-02-03</text><path  d="M 957 351
L 957 356" style="stroke-width:2;stroke:rgba(85,85,85,1.0);fill:none"/><text x="924" y="373" style="stroke-width:0;stroke:none;fill:rgba(51,51,51,1.0);font-size:12.8px;font-family:'Roboto Medium',sans-serif">2019-02-13</text><text x="483" y="395" style="stroke-width:0;stroke:none;fill:rgba(51,51,51,1.0);font-size:12.8px;font-family:'Roboto Medium',sans-serif">Time</text><path  d="M 959 351
L 959 11" style="stroke-width:2;stroke:rgba(85,85,85,1.0);fill:none"/><path  d="M 959 351
L 964 351" style="stroke-width:2;stroke:rgba(85,85,85,1.0);fill:none"/><text x="969" y="357" style="stroke-width:0;stroke:none;fill:rgba(51,51,51,1.0);font-size:12.8px;font-family:'Roboto Medium',sans-serif">0</text><path  d="M 959 308
L 964 308" style="stroke-width:2;stroke:rgba(85,85,85,1.0);fill:none"/><text x="969" y="314" style="stroke-width:0;stroke:none;fill:rgba(51,51,51,1.0);font-size:12.8px;font-family:'Roboto Medium',sans-serif">980</text><path  d="M 959 266
L 964 266" style="stroke-width:2;stroke:rgba(85,85,85,1.0);fill:none"/><text x="969" y="272" style="stroke-width:0;stroke:none;fill:rgba(51,51,51,1.0);font-size:12.8px;font-family:'Roboto Medium',sans-serif">1950</text><path  d="M 959 223
L 964 223" style="stroke-width:2;stroke:rgba(85,85,85,1.0);fill:none"/><text x="969" y="229" style="stroke-width:0;stroke:none;fill:rgba(51,51,51,1.0);font-size:12.8px;font-family:'Roboto Medium',sans-serif">2930</text><path  d="M 959 181
L 964 181" style="stroke-width:2;stroke:rgba(85,85,85,1.0);fill:none"/><text x="969" y="187" style="stroke-width:0;stroke:none;fill:rgba(51,51,51,1.0);font-size:12.8px;font-family:'Roboto Medium',sans-serif">3900</text><path  d="M 959 138
L 964 138" style="stroke-width:2;stroke:rgba(85,85,85,1.0);fill:none"/><text x="969" y="144" style="stroke-width:0;stroke:none;fill:rgba(51,51,51,1.0);font-size:12.8px;font-family:'Roboto Medium',sans-serif">4880</text><path  d="M 959 96
L 964 96" style="stroke-width:2;stroke:rgba(85,85,85,1.0);fill:none"/><text x="969" y="102" style="stroke-width:0;stroke:none;fill:rgba(51,51,51,1.0);font-size:12.8px;font-family:'Roboto Medium',sans-serif">5850</text><path  d="M 959 53
L 964 53" style="stroke-width:2;stroke:rgba(85,85,85,1.0);fill:none"/><text x="969" y="59" style="stroke-width:0;stroke:none;fill:rgba(51,51,51,1.0);font-size:12.8px;font-family:'Roboto Medium',sans-serif">6830</text><path  d="M 959 11
L 964 11" style="stroke-width:2;stroke:rgba(85,85,85,1.0);fill:none"/><text x="969" y="17" style="stroke-width:0;stroke:none;fill:rgba(51,51,51,1.0);font-size:12.8px;font-family:'Roboto Medium',sans-serif">7800</text><text x="1009" y="150" style="stroke-width:0;stroke:none;fill:rgba(51,51,51,1.0);font-size:12.8px;font-family:'Roboto Medium',sans-serif" transform="rotate(90.00,1009,150)">Stargazers</text><path  d="M 38 351
L 97 350
L 138 350
L 140 350
L 149 350
L 149 350
L 149 350
L 150 350
L 150 350
L 150 350
L 150 350
L 150 350
L 150 350
L 151 350
L 151 350
L 151 350
L 151 350
L 151 350
L 151 350
L 151 350
L 151 350
L 152 350
L 153 350
L 154 349
L 160 349
L 160 349
L 160 349
L 160 349
L 161 349
L 162 349
L 163 349
L 164 349
L 165 349
L 165 349
L 165 349
L 166 349
L 166 349
L 166 349
L 169 349
L 170 349
L 171 349
L 171 349
L 171 349
L 171 349
L 171 349
L 172 349
L 172 348
L 172 348
L 172 348
L 172 348
L 174 348
L 174 348
L 174 348
L 174 348
L 174 348
L 175 348
L 175 348
L 175 348
L 175 348
L 176 348
L 176 348
L 176 348
L 176 348
L 176 348
L 177 348
L 177 348
L 177 348
L 177 348
L 178 348
L 181 347
L 182 347
L 182 347
L 182 347
L 183 347
L 183 347
L 183 347
L 183 347
L 183 347
L 184 347
L 184 347
L 184 347
L 184 347
L 184 347
L 184 347
L 184 347
L 184 347
L 184 347
L 184 347
L 184 347
L 184 347
L 184 347
L 184 347
L 184 346
L 184 346
L 184 346
L 184 346
L 184 346
L 184 346
L 184 346
L 184 346
L 184 346
L 184 346
L 184 346
L 184 346
L 184 346
L 184 346
L 184 346
L 184 346
L 184 346
L 184 346
L 184 346
L 184 346
L 184 346
L 184 346
L 185 346
L 185 345
L 185 345
L 185 345
L 185 345
L 185 345
L 185 345
L 185 345
L 185 345
L 185 345
L 185 345
L 185 345
L 185 345
L 185 345
L 185 345
L 185 345
L 186 345
L 186 345
L 186 345
L 186 345
L 186 345
L 186 345
L 186 345
L 186 345
L 187 344
L 187 344
L 187 344
L 187 344
L 187 344
L 187 344
L 187 344
L 187 344
L 187 344
L 187 344
L 187 344
L 187 344
L 189 344
L 189 344
L 193 344
L 193 344
L 193 344
L 193 344
L 193 344
L 193 344
L 194 344
L 194 344
L 195 344
L 195 343
L 195 343
L 195 343
L 196 343
L 196 343
L 196 343
L 196 343
L 196 343
L 196 343
L 197 343
L 197 343
L 197 343
L 197 343
L 197 343
L 197 343
L 198 343
L 204 343
L 205 343
L 205 343
L 205 343
L 206 343
L 207 343
L 208 343
L 211 342
L 211 342
L 212 342
L 213 342
L 216 342
L 216 342
L 218 342
L 219 342
L 219 342
L 219 342
L 220 342
L 220 342
L 220 342
L 220 342
L 221 342
L 221 342
L 221 342
L 221 342
L 223 342
L 227 342
L 227 342
L 227 342
L 227 342
L 227 341
L 228 341
L 229 341
L 233 341
L 233 341
L 238 341
L 240 341
L 240 341
L 241 341
L 241 341
L 243 341
L 243 341
L 249 341
L 249 341
L 249 341
L 250 341
L 250 341
L 251 341
L 251 341
L 253 341
L 254 341
L 256 341
L 257 341
L 260 340
L 265 340
L 265 340
L 270 340
L 272 340
L 272 340
L 274 340
L 274 340
L 274 340
L 274 340
L 276 340
L 277 340
L 277 340
L 277 340
L 277 340
L 279 340
L 281 340
L 283 340
L 285 340
L 285 340
L 285 340
L 285 340
L 286 340
L 287 339
L 287 339
L 288 339
L 289 339
L 289 339
L 290 339
L 294 339
L 294 339
L 294 339
L 295 339
L 296 339
L 298 339
L 299 339
L 299 339
L 300 339
L 304 339
L 305 339
L 305 339
L 305 339
L 305 339
L 306 339
L 308 339
L 309 339
L 310 338
L 311 338
L 316 338
L 317 338
L 319 338
L 319 338
L 320 338
L 320 338
L 320 338
L 321 338
L 322 338
L 323 338
L 323 338
L 327 338
L 328 338
L 329 338
L 329 338
L 329 338
L 330 338
L 330 338
L 330 338
L 332 338
L 338 338
L 338 337
L 339 337
L 339 337
L 340 337
L 340 337
L 342 337
L 342 337
L 342 337
L 344 337
L 344 337
L 344 337
L 344 337
L 344 337
L 346 337
L 350 337
L 351 337
L 351 337
L 351 337
L 351 337
L 351 337
L 351 337
L 351 337
L 351 337
L 351 336
L 352 336
L 352 336
L 352 336
L 352 336
L 352 336
L 352 336
L 352 336
L 352 336
L 352 336
L 352 336
L 352 336
L 352 336
L 352 336
L 353 336
L 353 336
L 353 336
L 353 336
L 353 336
L 353 336
L 353 336
L 353 336
L 353 336
L 353 335
L 353 335
L 353 335
L 353 335
L 353 335
L 353 335
L 353 335
L 353 335
L 353 335
L 353 335
L 353 335
L 353 335
L 353 335
L 353 335
L 353 335
L 354 335
L 354 335
L 354 335
L 354 335
L 354 335
L 354 335
L 354 335
L 354 335
L 354 334
L 354 334
L 354 334
L 354 334
L 354 334
L 354 334
L 354 334
L 355 334
L 355 334
L 355 334
L 355 334
L 355 334
L 355 334
L 355 334
L 355 334
L 355 334
L 355 334
L 355 334
L 355 334
L 355 334
L 356 334
L 356 334
L 356 334
L 356 333
L 357 333
L 357 333
L 357 333
L 357 333
L 361 333
L 361 333
L 361 333
L 361 333
L 361 333
L 361 333
L 361 333
L 362 333
L 362 333
L 362 333
L 362 333
L 362 333
L 362 333
L 362 333
L 362 333
L 362 333
L 362 333
L 362 332
L 362 332
L 362 332
L 362 332
L 362 332
L 363 332
L 363 332
L 363 332
L 363 332
L 363 332
L 363 332
L 363 332
L 363 332
L 363 332
L 363 332
L 363 332
L 363 332
L 364 332
L 364 332
L 364 332
L 364 332
L 364 332
L 364 332
L 364 331
L 364 331
L 364 331
L 364 331
L 364 331
L 364 331
L 364 331
L 364 331
L 364 331
L 364 331
L 364 331
L 364 331
L 364 331
L 364 331
L 364 331
L 364 331
L 364 331
L 365 331
L 365 331
L 365 331
L 365 331
L 365 331
L 365 331
L 365 330
L 365 330
L 365 330
L 365 330
L 365 330
L 365 330
L 365 330
L 365 330
L 365 330
L 366 330
L 366 330
L 366 330
L 366 330
L 366 330
L 366 330
L 366 330
L 366 330
L 366 330
L 366 330
L 366 330
L 366 330
L 366 330
L 366 330
L 366 329
L 366 329
L 366 329
L 367 329
L 367 329
L 367 329
L 367 329
L 367 329
L 367 329
L 367 329
L 367 329
L 367 329
L 367 329
L 367 329
L 367 329
L 367 329
L 367 329
L 367 329
L 367 329
L 367 329
L 367 329
L 367 329
L 368 329
L 368 328
L 368 328
L 368 328
L 368 328
L 368 328
L 368 328
L 368 328
L 368 328
L 368 328
L 368 328
L 368 328
L 368 328
L 368 328
L 368 328
L 369 328
L 369 328
L 370 328
L 371 328
L 371 328
L 372 328
L 372 328
L 372 328
L 372 328
L 372 327
L 372 327
L 372 327
L 372 327
L 372 327
L 372 327
L 372 327
L 372 327
L 372 327
L 372 327
L 372 327
L 372 327
L 373 327
L 373 327
L 373 327
L 373 327
L 373 327
L 373 327
L 373 327
L 373 327
L 373 327
L 373 327
L 373 327
L 373 326
L 373 326
L 373 326
L 373 326
L 373 326
L 373 326
L 373 326
L 374 326
L 374 326
L 374 326
L 374 326
L 374 326
L 374 326
L 374 326
L 374 326
L 374 326
L 374 326
L 374 326
L 374 326
L 374 326
L 374 326
L 374 326
L 374 326
L 374 325
L 374 325
L 374 325
L 374 325
L 375 325
L 375 325
L 375 325
L 375 325
L 375 325
L 375 325
L 375 325
L 375 325
L 375 325
L 375 325
L 375 325
L 375 325
L 375 325
L 375 325
L 375 325
L 375 325
L 375 325
L 375 325
L 375 325
L 375 324
L 375 324
L 375 324
L 375 324
L 375 324
L 376 324
L 376 324
L 376 324
L 376 324
L 376 324
L 376 324
L 376 324
L 376 324
L 376 324
L 376 324
L 376 324
L 376 324
L 376 324
L 377 324
L 377 324
L 377 324
L 377 324
L 377 324
L 377 323
L 377 323
L 377 323
L 377 323
L 377 323
L 377 323
L 377 323
L 377 323
L 377 323
L 377 323
L 377 323
L 377 323
L 377 323
L 377 323
L 377 323
L 377 323
L 377 323
L 377 323
L 377 323
L 378 323
L 378 323
L 378 323
L 378 323
L 378 322
L 378 322
L 378 322
L 378 322
L 378 322
L 378 322
L 378 322
L 378 322
L 378 322
L 378 322
L 378 322
L 378 322
L 378 322
L 378 322
L 378 322
L 378 322
L 378 322
L 378 322
L 378 322
L 378 322
L 378 322
L 378 322
L 378 322
L 379 321
L 379 321
L 379 321
L 379 321
L 379 321
L 379 321
L 379 321
L 379 321
L 379 321
L 379 321
L 379 321
L 379 321
L 379 321
L 379 321
L 380 321
L 380 321
L 380 321
L 380 321
L 380 321
L 380 321
L 380 321
L 381 321
L 382 321
L 382 320
L 383 320
L 383 320
L 383 320
L 383 320
L 383 320
L 383 320
L 383 320
L 383 320
L 383 320
L 383 320
L 383 320
L 383 320
L 383 320
L 383 320
L 383 320
L 383 320
L 383 320
L 383 320
L 383 320
L 383 320
L 383 320
L 383 320
L 383 319
L 383 319
L 383 319
L 383 319
L 383 319
L 383 319
L 383 319
L 383 319
L 383 319
L 383 319
L 383 319
L 383 319
L 383 319
L 383 319
L 383 319
L 383 319
L 383 319
L 383 319
L 383 319
L 383 319
L 383 319
L 383 319
L 383 319
L 383 318
L 383 318
L 383 318
L 383 318
L 383 318
L 383 318
L 383 318
L 383 318
L 383 318
L 383 318
L 383 318
L 383 318
L 383 318
L 383 318
L 383 318
L 383 318
L 383 318
L 383 318
L 383 318
L 383 318
L 384 318
L 384 318
L 384 318
L 384 317
L 384 317
L 384 317
L 384 317
L 384 317
L 384 317
L 384 317
L 384 317
L 384 317
L 384 317
L 384 317
L 384 317
L 384 317
L 384 317
L 384 317
L 384 317
L 384 317
L 384 317
L 384 317
L 384 317
L 384 317
L 384 317
L 384 317
L 384 316
L 384 316
L 384 316
L 384 316
L 384 316
L 384 316
L 384 316
L 384 316
L 384 316
L 384 316
L 384 316
L 384 316
L 384 316
L 384 316
L 384 316
L 384 316
L 384 316
L 384 316
L 384 316
L 384 316
L 384 316
L 384 316
L 384 315
L 384 315
L 384 315
L 384 315
L 384 315
L 384 315
L 384 315
L 384 315
L 384 315
L 384 315
L 384 315
L 384 315
L 384 315
L 384 315
L 384 315
L 384 315
L 384 315
L 384 315
L 384 315
L 384 315
L 384 315
L 384 315
L 385 315
L 385 314
L 385 314
L 385 314
L 385 314
L 385 314
L 385 314
L 385 314
L 385 314
L 385 314
L 385 314
L 385 314
L 385 314
L 385 314
L 385 314
L 385 314
L 385 314
L 385 314
L 385 314
L 385 314
L 385 314
L 385 314
L 385 314
L 385 314
L 385 313
L 385 313
L 385 313
L 385 313
L 385 313
L 385 313
L 385 313
L 385 313
L 385 313
L 385 313
L 385 313
L 385 313
L 385 313
L 385 313
L 385 313
L 385 313
L 385 313
L 385 313
L 385 313
L 385 313
L 385 313
L 385 313
L 385 313
L 385 312
L 385 312
L 385 312
L 385 312
L 385 312
L 385 312
L 386 312
L 386 312
L 386 312
L 386 312
L 386 312
L 386 312
L 386 312
L 386 312
L 386 312
L 386 312
L 386 312
L 386 312
L 386 312
L 386 312
L 386 312
L 386 312
L 386 312
L 386 311
L 386 311
L 386 311
L 386 311
L 386 311
L 386 311
L 386 311
L 386 311
L 386 311
L 386 311
L 386 311
L 386 311
L 386 311
L 386 311
L 386 311
L 386 311
L 386 311
L 386 311
L 386 311
L 386 311
L 386 311
L 386 311
L 386 311
L 386 310
L 386 310
L 386 310
L 386 310
L 386 310
L 386 310
L 386 310
L 386 310
L 386 310
L 386 310
L 386 310
L 386 310
L 386 310
L 386 310
L 386 310
L 386 310
L 386 310
L 386 310
L 386 310
L 386 310
L 386 310
L 386 310
L 386 310
L 386 309
L 386 309
L 386 309
L 386 309
L 386 309
L 386 309
L 386 309
L 386 309
L 386 309
L 386 309
L 386 309
L 386 309
L 387 309
L 387 309
L 387 309
L 387 309
L 387 309
L 387 309
L 387 309
L 387 309
L 387 309
L 387 309
L 387 309
L 387 308
L 387 308
L 387 308
L 387 308
L 387 308
L 387 308
L 387 308
L 387 308
L 387 308
L 387 308
L 387 308
L 387 308
L 387 308
L 387 308
L 387 308
L 387 308
L 387 308
L 387 308
L 387 308
L 387 308
L 387 308
L 387 308
L 387 308
L 387 307
L 387 307
L 387 307
L 387 307
L 387 307
L 387 307
L 387 307
L 387 307
L 387 307
L 387 307
L 387 307
L 387 307
L 387 307
L 387 307
L 387 307
L 387 307
L 387 307
L 387 307
L 387 307
L 387 307
L 387 307
L 387 307
L 387 307
L 387 306
L 387 306
L 388 306
L 388 306
L 388 306
L 388 306
L 388 306
L 388 306
L 388 306
L 388 306
L 388 306
L 388 306
L 388 306
L 388 306
L 388 306
L 388 306
L 388 306
L 388 306
L 388 306
L 388 306
L 388 306
L 388 306
L 388 306
L 388 305
L 388 305
L 388 305
L 388 305
L 388 305
L 388 305
L 388 305
L 388 305
L 389 305
L 389 305
L 389 305
L 389 305
L 389 305
L 389 305
L 389 305
L 389 305
L 389 305
L 389 305
L 389 305
L 389 305
L 389 305
L 389 305
L 389 305
L 389 304
L 389 304
L 389 304
L 389 304
L 390 304
L 390 304
L 390 304
L 390 304
L 390 304
L 390 304
L 390 304
L 390 304
L 390 304
L 390 304
L 390 304
L 390 304
L 390 304
L 390 304
L 390 304
L 390 304
L 390 304
L 390 304
L 390 304
L 390 303
L 390 303
L 390 303
L 390 303
L 391 303
L 391 303
L 391 303
L 391 303
L 392 303
L 393 303
L 394 303
L 394 303
L 394 303
L 394 303
L 394 303
L 394 303
L 394 303
L 394 303
L 394 303
L 394 303
L 394 303
L 394 303
L 394 303
L 394 302
L 394 302
L 394 302
L 394 302
L 394 302
L 394 302
L 394 302
L 394 302
L 394 302
L 394 302
L 394 302
L 394 302
L 394 302
L 394 302
L 394 302
L 394 302
L 394 302
L 395 302
L 395 302
L 395 302
L 395 302
L 395 302
L 395 302
L 395 301
L 395 301
L 395 301
L 395 301
L 395 301
L 395 301
L 395 301
L 395 301
L 395 301
L 395 301
L 395 301
L 395 301
L 395 301
L 395 301
L 395 301
L 395 301
L 395 301
L 395 301
L 395 301
L 395 301
L 395 301
L 395 301
L 395 301
L 395 300
L 395 300
L 395 300
L 395 300
L 395 300
L 395 300
L 395 300
L 395 300
L 395 300
L 395 300
L 395 300
L 395 300
L 395 300
L 395 300
L 395 300
L 395 300
L 395 300
L 395 300
L 395 300
L 395 300
L 395 300
L 395 300
L 395 300
L 395 299
L 395 299
L 395 299
L 395 299
L 395 299
L 395 299
L 395 299
L 395 299
L 395 299
L 395 299
L 395 299
L 395 299
L 395 299
L 395 299
L 395 299
L 395 299
L 395 299
L 395 299
L 395 299
L 395 299
L 395 299
L 395 299
L 395 298
L 395 298
L 395 298
L 395 298
L 395 298
L 395 298
L 395 298
L 395 298
L 395 298
L 395 298
L 395 298
L 395 298
L 395 298
L 395 298
L 395 298
L 395 298
L 395 298
L 395 298
L 395 298
L 395 298
L 395 298
L 395 298
L 395 298
L 395 297
L 395 297
L 395 297
L 395 297
L 395 297
L 395 297
L 395 297
L 395 297
L 396 297
L 396 297
L 396 297
L 396 297
L 396 297
L 396 297
L 396 297
L 396 297
L 396 297
L 396 297
L 396 297
L 396 297
L 396 297
L 396 297
L 396 297
L 396 296
L 396 296
L 396 296
L 396 296
L 396 296
L 396 296
L 396 296
L 396 296
L 396 296
L 396 296
L 396 296
L 396 296
L 396 296
L 396 296
L 396 296
L 396 296
L 396 296
L 396 296
L 396 296
L 396 296
L 396 296
L 396 296
L 396 296
L 396 295
L 397 295
L 397 295
L 397 295
L 397 295
L 397 295
L 397 295
L 397 295
L 397 295
L 397 295
L 397 295
L 397 295
L 397 295
L 397 295
L 397 295
L 397 295
L 397 295
L 397 295
L 397 295
L 397 295
L 397 295
L 397 295
L 397 295
L 397 294
L 397 294
L 397 294
L 397 294
L 397 294
L 397 294
L 397 294
L 397 294
L 397 294
L 397 294
L 397 294
L 397 294
L 397 294
L 397 294
L 397 294
L 397 294
L 397 294
L 397 294
L 397 294
L 397 294
L 397 294
L 397 294
L 397 294
L 397 293
L 397 293
L 397 293
L 397 293
L 397 293
L 397 293
L 397 293
L 397 293
L 397 293
L 397 293
L 397 293
L 398 293
L 398 293
L 398 293
L 398 293
L 398 293
L 398 293
L 398 293
L 398 293
L 398 293
L 398 293
L 398 293
L 398 293
L 398 292
L 398 292
L 398 292
L 398 292
L 398 292
L 398 292
L 398 292
L 398 292
L 398 292
L 398 292
L 398 292
L 398 292
L 398 292
L 398 292
L 398 292
L 398 292
L 398 292
L 398 292
L 398 292
L 398 292
L 398 292
L 398 292
L 398 292
L 398 291
L 398 291
L 398 291
L 398 291
L 398 291
L 398 291
L 398 291
L 398 291
L 398 291
L 398 291
L 398 291
L 398 291
L 398 291
L 398 291
L 398 291
L 398 291
L 398 291
L 398 291
L 398 291
L 398 291
L 398 291
L 398 291
L 399 291
L 399 290
L 399 290
L 399 290
L 399 290
L 399 290
L 399 290
L 399 290
L 399 290
L 399 290
L 399 290
L 399 290
L 399 290
L 399 290
L 399 290
L 399 290
L 399 290
L 399 290
L 399 290
L 399 290
L 399 290
L 399 290
L 399 290
L 399 290
L 399 289
L 399 289
L 399 289
L 399 289
L 399 289
L 399 289
L 399 289
L 399 289
L 399 289
L 399 289
L 399 289
L 399 289
L 399 289
L 399 289
L 399 289
L 399 289
L 399 289
L 399 289
L 399 289
L 399 289
L 399 289
L 399 289
L 399 289
L 399 288
L 399 288
L 399 288
L 399 288
L 399 288
L 399 288
L 399 288
L 399 288
L 399 288
L 399 288
L 399 288
L 399 288
L 399 288
L 399 288
L 400 288
L 400 288
L 400 288
L 400 288
L 400 288
L 400 288
L 400 288
L 400 288
L 400 288
L 400 287
L 400 287
L 400 287
L 400 287
L 400 287
L 400 287
L 400 287
L 400 287
L 400 287
L 400 287
L 400 287
L 400 287
L 400 287
L 400 287
L 400 287
L 400 287
L 400 287
L 400 287
L 400 287
L 400 287
L 400 287
L 400 287
L 400 287
L 400 286
L 400 286
L 400 286
L 400 286
L 400 286
L 400 286
L 400 286
L 400 286
L 400 286
L 400 286
L 400 286
L 401 286
L 401 286
L 401 286
L 401 286
L 401 286
L 401 286
L 401 286
L 401 286
L 401 286
L 401 286
L 401 286
L 401 286
L 401 285
L 401 285
L 401 285
L 401 285
L 401 285
L 401 285
L 401 285
L 401 285
L 401 285
L 401 285
L 401 285
L 401 285
L 401 285
L 401 285
L 401 285
L 401 285
L 402 285
L 402 285
L 402 285
L 402 285
L 402 285
L 402 285
L 402 285
L 402 284
L 402 284
L 403 284
L 403 284
L 404 284
L 405 284
L 405 284
L 405 284
L 405 284
L 405 284
L 405 284
L 405 284
L 405 284
L 405 284
L 405 284
L 405 284
L 405 284
L 405 284
L 405 284
L 405 284
L 405 284
L 405 284
L 405 284
L 405 283
L 405 283
L 405 283
L 405 283
L 405 283
L 405 283
L 406 283
L 406 283
L 406 283
L 406 283
L 406 283
L 406 283
L 406 283
L 406 283
L 406 283
L 406 283
L 406 283
L 406 283
L 406 283
L 406 283
L 406 283
L 406 283
L 406 283
L 406 282
L 406 282
L 406 282
L 406 282
L 406 282
L 406 282
L 406 282
L 406 282
L 406 282
L 406 282
L 406 282
L 406 282
L 406 282
L 406 282
L 406 282
L 406 282
L 406 282
L 406 282
L 406 282
L 406 282
L 406 282
L 406 282
L 406 281
L 406 281
L 406 281
L 406 281
L 406 281
L 406 281
L 406 281
L 406 281
L 406 281
L 406 281
L 406 281
L 406 281
L 406 281
L 406 281
L 406 281
L 406 281
L 406 281
L 406 281
L 406 281
L 406 281
L 406 281
L 406 281
L 406 281
L 406 280
L 406 280
L 406 280
L 406 280
L 406 280
L 406 280
L 406 280
L 406 280
L 406 280
L 406 280
L 406 280
L 406 280
L 406 280
L 406 280
L 406 280
L 406 280
L 406 280
L 406 280
L 406 280
L 406 280
L 406 280
L 406 280
L 406 280
L 406 279
L 406 279
L 406 279
L 406 279
L 406 279
L 406 279
L 406 279
L 407 279
L 407 279
L 407 279
L 407 279
L 407 279
L 407 279
L 407 279
L 407 279
L 407 279
L 407 279
L 407 279
L 407 279
L 407 279
L 407 279
L 407 279
L 407 279
L 407 278
L 407 278
L 407 278
L 407 278
L 407 278
L 407 278
L 407 278
L 407 278
L 407 278
L 407 278
L 407 278
L 407 278
L 407 278
L 408 278
L 408 278
L 408 278
L 408 278
L 408 278
L 408 278
L 408 278
L 408 278
L 408 278
L 408 278
L 408 277
L 408 277
L 408 277
L 408 277
L 408 277
L 408 277
L 408 277
L 408 277
L 408 277
L 408 277
L 408 277
L 408 277
L 408 277
L 408 277
L 408 277
L 408 277
L 408 277
L 408 277
L 408 277
L 408 277
L 408 277
L 408 277
L 408 277
L 408 276
L 408 276
L 408 276
L 408 276
L 408 276
L 408 276
L 408 276
L 408 276
L 408 276
L 408 276
L 408 276
L 408 276
L 408 276
L 408 276
L 408 276
L 408 276
L 408 276
L 408 276
L 408 276
L 408 276
L 408 276
L 408 276
L 408 276
L 409 275
L 409 275
L 409 275
L 409 275
L 409 275
L 409 275
L 409 275
L 409 275
L 409 275
L 409 275
L 409 275
L 409 275
L 409 275
L 409 275
L 409 275
L 409 275
L 409 275
L 409 275
L 409 275
L 409 275
L 409 275
L 409 275
L 409 275
L 409 274
L 409 274
L 409 274
L 409 274
L 409 274
L 409 274
L 409 274
L 409 274
L 409 274
L 409 274
L 409 274
L 409 274
L 409 274
L 409 274
L 409 274
L 409 274
L 409 274
L 409 274
L 409 274
L 409 274
L 409 274
L 409 274
L 409 274
L 409 273
L 409 273
L 409 273
L 409 273
L 409 273
L 409 273
L 409 273
L 409 273
L 410 273
L 410 273
L 410 273
L 410 273
L 410 273
L 410 273
L 410 273
L 410 273
L 410 273
L 410 273
L 410 273
L 410 273
L 410 273
L 410 273
L 410 273
L 410 272
L 410 272
L 410 272
L 410 272
L 410 272
L 410 272
L 410 272
L 410 272
L 410 272
L 410 272
L 410 272
L 410 272
L 410 272
L 410 272
L 410 272
L 410 272
L 410 272
L 410 272
L 410 272
L 411 272
L 411 272
L 411 272
L 411 272
L 411 271
L 411 271
L 411 271
L 411 271
L 411 271
L 411 271
L 411 271
L 411 271
L 411 271
L 411 271
L 411 271
L 411 271
L 411 271
L 411 271
L 411 271
L 411 271
L 411 271
L 411 271
L 411 271
L 411 271
L 411 271
L 411 271
L 411 271
L 411 270
L 411 270
L 411 270
L 412 270
L 412 270
L 412 270
L 412 270
L 412 270
L 412 270
L 412 270
L 412 270
L 412 270
L 412 270
L 412 270
L 412 270
L 412 270
L 412 270
L 412 270
L 412 270
L 412 270
L 412 270
L 412 270
L 412 270
L 412 269
L 412 269
L 412 269
L 413 269
L 413 269
L 413 269
L 413 269
L 413 269
L 413 269
L 414 269
L 416 269
L 416 269
L 416 269
L 416 269
L 416 269
L 416 269
L 416 269
L 416 269
L 416 269
L 416 269
L 417 269
L 417 269
L 417 269
L 417 268
L 417 268
L 417 268
L 417 268
L 417 268
L 417 268
L 417 268
L 417 268
L 417 268
L 417 268
L 417 268
L 417 268
L 417 268
L 417 268
L 417 268
L 417 268
L 417 268
L 417 268
L 417 268
L 417 268
L 417 268
L 417 268
L 417 268
L 417 267
L 417 267
L 417 267
L 417 267
L 417 267
L 417 267
L 417 267
L 417 267
L 417 267
L 417 267
L 417 267
L 417 267
L 417 267
L 417 267
L 417 267
L 417 267
L 417 267
L 417 267
L 417 267
L 417 267
L 417 267
L 417 267
L 417 267
L 417 266
L 417 266
L 417 266
L 417 266
L 417 266
L 417 266
L 417 266
L 417 266
L 417 266
L 417 266
L 418 266
L 418 266
L 418 266
L 418 266
L 418 266
L 418 266
L 418 266
L 418 266
L 418 266
L 418 266
L 418 266
L 418 266
L 418 266
L 418 265
L 418 265
L 418 265
L 418 265
L 418 265
L 418 265
L 418 265
L 418 265
L 418 265
L 418 265
L 418 265
L 418 265
L 418 265
L 419 265
L 419 265
L 419 265
L 419 265
L 419 265
L 419 265
L 419 265
L 419 265
L 419 265
L 419 264
L 419 264
L 419 264
L 419 264
L 419 264
L 419 264
L 419 264
L 419 264
L 419 264
L 419 264
L 419 264
L 419 264
L 419 264
L 419 264
L 419 264
L 419 264
L 419 264
L 419 264
L 419 264
L 419 264
L 419 264
L 420 264
L 420 264
L 420 263
L 420 263
L 420 263
L 420 263
L 420 263
L 420 263
L 420 263
L 420 263
L 420 263
L 420 263
L 420 263
L 420 263
L 420 263
L 420 263
L 420 263
L 420 263
L 420 263
L 420 263
L 420 263
L 420 263
L 420 263
L 420 263
L 420 263
L 420 262
L 420 262
L 420 262
L 420 262
L 420 262
L 420 262
L 420 262
L 420 262
L 420 262
L 420 262
L 420 262
L 420 262
L 420 262
L 420 262
L 421 262
L 421 262
L 421 262
L 421 262
L 421 262
L 421 262
L 421 262
L 421 262
L 421 262
L 421 261
L 421 261
L 421 261
L 421 261
L 421 261
L 421 261
L 421 261
L 421 261
L 421 261
L 421 261
L 421 261
L 421 261
L 421 261
L 421 261
L 421 261
L 421 261
L 421 261
L 421 261
L 421 261
L 421 261
L 421 261
L 422 261
L 422 261
L 422 260
L 422 260
L 422 260
L 422 260
L 422 260
L 422 260
L 422 260
L 422 260
L 422 260
L 422 260
L 422 260
L 422 260
L 422 260
L 422 260
L 422 260
L 422 260
L 422 260
L 422 260
L 422 260
L 422 260
L 422 260
L 422 260
L 422 260
L 423 259
L 423 259
L 423 259
L 423 259
L 423 259
L 423 259
L 423 259
L 423 259
L 423 259
L 423 259
L 423 259
L 423 259
L 424 259
L 424 259
L 424 259
L 424 259
L 424 259
L 424 259
L 424 259
L 424 259
L 424 259
L 425 259
L 425 259
L 425 258
L 427 258
L 428 258
L 428 258
L 428 258
L 428 258
L 428 258
L 428 258
L 428 258
L 428 258
L 428 258
L 428 258
L 428 258
L 428 258
L 428 258
L 428 258
L 428 258
L 428 258
L 428 258
L 428 258
L 428 258
L 428 258
L 428 258
L 428 257
L 428 257
L 428 257
L 428 257
L 428 257
L 428 257
L 428 257
L 428 257
L 428 257
L 428 257
L 428 257
L 428 257
L 428 257
L 428 257
L 428 257
L 428 257
L 428 257
L 428 257
L 428 257
L 428 257
L 428 257
L 428 257
L 428 257
L 428 256
L 428 256
L 428 256
L 428 256
L 428 256
L 429 256
L 429 256
L 429 256
L 429 256
L 429 256
L 429 256
L 429 256
L 429 256
L 429 256
L 429 256
L 429 256
L 429 256
L 429 256
L 429 256
L 429 256
L 429 256
L 429 256
L 429 256
L 429 255
L 429 255
L 429 255
L 429 255
L 429 255
L 429 255
L 429 255
L 429 255
L 429 255
L 429 255
L 429 255
L 429 255
L 429 255
L 429 255
L 429 255
L 429 255
L 429 255
L 429 255
L 430 255
L 430 255
L 430 255
L 430 255
L 430 255
L 430 254
L 430 254
L 430 254
L 430 254
L 430 254
L 430 254
L 430 254
L 430 254
L 430 254
L 430 254
L 430 254
L 430 254
L 430 254
L 430 254
L 430 254
L 430 254
L 430 254
L 430 254
L 430 254
L 430 254
L 430 254
L 430 254
L 430 254
L 430 253
L 430 253
L 430 253
L 430 253
L 430 253
L 430 253
L 430 253
L 430 253
L 430 253
L 430 253
L 430 253
L 430 253
L 430 253
L 430 253
L 430 253
L 430 253
L 430 253
L 431 253
L 431 253
L 431 253
L 431 253
L 431 253
L 431 253
L 431 252
L 431 252
L 431 252
L 431 252
L 431 252
L 431 252
L 431 252
L 431 252
L 431 252
L 431 252
L 431 252
L 431 252
L 431 252
L 431 252
L 431 252
L 431 252
L 431 252
L 431 252
L 431 252
L 431 252
L 431 252
L 431 252
L 431 252
L 431 251
L 431 251
L 431 251
L 431 251
L 431 251
L 431 251
L 431 251
L 431 251
L 431 251
L 431 251
L 431 251
L 431 251
L 431 251
L 431 251
L 431 251
L 431 251
L 431 251
L 431 251
L 431 251
L 431 251
L 431 251
L 431 251
L 431 251
L 431 250
L 431 250
L 431 250
L 431 250
L 432 250
L 432 250
L 432 250
L 432 250
L 432 250
L 432 250
L 432 250
L 432 250
L 432 250
L 432 250
L 432 250
L 432 250
L 432 250
L 432 250
L 432 250
L 432 250
L 432 250
L 432 250
L 432 250
L 432 249
L 432 249
L 432 249
L 432 249
L 432 249
L 432 249
L 432 249
L 432 249
L 432 249
L 432 249
L 432 249
L 433 249
L 433 249
L 433 249
L 433 249
L 433 249
L 433 249
L 433 249
L 433 249
L 433 249
L 433 249
L 433 249
L 433 249
L 433 248
L 433 248
L 433 248
L 433 248
L 433 248
L 433 248
L 433 248
L 433 248
L 434 248
L 434 248
L 434 248
L 434 248
L 434 248
L 434 248
L 434 248
L 434 248
L 434 248
L 434 248
L 434 248
L 434 248
L 434 248
L 434 248
L 434 247
L 434 247
L 434 247
L 434 247
L 434 247
L 434 247
L 435 247
L 435 247
L 435 247
L 435 247
L 435 247
L 435 247
L 435 247
L 435 247
L 435 247
L 435 247
L 435 247
L 435 247
L 436 247
L 437 247
L 437 247
L 437 247
L 439 247
L 439 246
L 439 246
L 439 246
L 439 246
L 439 246
L 439 246
L 439 246
L 439 246
L 439 246
L 439 246
L 439 246
L 439 246
L 439 246
L 439 246
L 439 246
L 439 246
L 439 246
L 439 246
L 439 246
L 439 246
L 439 246
L 439 246
L 439 246
L 439 245
L 439 245
L 439 245
L 439 245
L 439 245
L 439 245
L 439 245
L 439 245
L 439 245
L 439 245
L 439 245
L 439 245
L 439 245
L 439 245
L 440 245
L 440 245
L 440 245
L 440 245
L 440 245
L 440 245
L 440 245
L 440 245
L 440 245
L 440 244
L 440 244
L 440 244
L 440 244
L 440 244
L 440 244
L 440 244
L 440 244
L 440 244
L 440 244
L 440 244
L 440 244
L 440 244
L 440 244
L 440 244
L 440 244
L 440 244
L 440 244
L 440 244
L 440 244
L 440 244
L 440 244
L 440 244
L 440 243
L 440 243
L 440 243
L 440 243
L 440 243
L 440 243
L 440 243
L 440 243
L 440 243
L 440 243
L 440 243
L 440 243
L 440 243
L 440 243
L 440 243
L 440 243
L 440 243
L 440 243
L 440 243
L 440 243
L 440 243
L 440 243
L 440 243
L 440 242
L 440 242
L 440 242
L 440 242
L 440 242
L 440 242
L 440 242
L 440 242
L 440 242
L 441 242
L 441 242
L 441 242
L 441 242
L 441 242
L 441 242
L 441 242
L 441 242
L 441 242
L 441 242
L 441 242
L 441 242
L 441 242
L 441 242
L 441 241
L 441 241
L 441 241
L 441 241
L 441 241
L 441 241
L 441 241
L 441 241
L 441 241
L 441 241
L 441 241
L 441 241
L 441 241
L 441 241
L 441 241
L 441 241
L 441 241
L 441 241
L 441 241
L 441 241
L 441 241
L 441 241
L 442 241
L 442 240
L 442 240
L 442 240
L 442 240
L 442 240
L 442 240
L 442 240
L 442 240
L 442 240
L 442 240
L 442 240
L 442 240
L 442 240
L 442 240
L 442 240
L 442 240
L 442 240
L 442 240
L 442 240
L 442 240
L 442 240
L 442 240
L 442 240
L 442 239
L 442 239
L 442 239
L 442 239
L 442 239
L 442 239
L 442 239
L 442 239
L 442 239
L 442 239
L 442 239
L 442 239
L 442 239
L 442 239
L 442 239
L 442 239
L 442 239
L 442 239
L 442 239
L 442 239
L 442 239
L 442 239
L 442 239
L 442 238
L 442 238
L 442 238
L 442 238
L 442 238
L 442 238
L 442 238
L 442 238
L 442 238
L 442 238
L 442 238
L 442 238
L 442 238
L 442 238
L 442 238
L 442 238
L 443 238
L 443 238
L 443 238
L 443 238
L 443 238
L 443 238
L 443 238
L 443 237
L 443 237
L 443 237
L 443 237
L 443 237
L 443 237
L 443 237
L 443 237
L 443 237
L 443 237
L 443 237
L 443 237
L 443 237
L 443 237
L 443 237
L 443 237
L 443 237
L 443 237
L 443 237
L 443 237
L 443 237
L 443 237
L 444 237
L 444 236
L 444 236
L 444 236
L 444 236
L 444 236
L 444 236
L 444 236
L 444 236
L 444 236
L 444 236
L 444 236
L 444 236
L 444 236
L 444 236
L 444 236
L 444 236
L 444 236
L 445 236
L 445 236
L 445 236
L 445 236
L 445 236
L 445 236
L 445 235
L 445 235
L 445 235
L 445 235
L 445 235
L 445 235
L 445 235
L 445 235
L 446 235
L 446 235
L 446 235
L 446 235
L 446 235
L 446 235
L 446 235
L 446 235
L 446 235
L 446 235
L 446 235
L 446 235
L 447 235
L 447 235
L 449 235
L 449 234
L 449 234
L 449 234
L 450 234
L 450 234
L 450 234
L 450 234
L 450 234
L 450 234
L 450 234
L 451 234
L 451 234
L 451 234
L 451 234
L 451 234
L 451 234
L 451 234
L 451 234
L 451 234
L 451 234
L 451 234
L 451 234
L 451 234
L 451 233
L 451 233
L 451 233
L 451 233
L 452 233
L 452 233
L 452 233
L 452 233
L 452 233
L 452 233
L 452 233
L 452 233
L 452 233
L 452 233
L 453 233
L 453 233
L 453 233
L 453 233
L 453 233
L 453 233
L 453 233
L 453 233
L 453 233
L 454 232
L 454 232
L 454 232
L 454 232
L 454 232
L 454 232
L 454 232
L 455 232
L 455 232
L 455 232
L 455 232
L 455 232
L 455 232
L 455 232
L 455 232
L 456 232
L 456 232
L 456 232
L 456 232
L 456 232
L 456 232
L 456 232
L 456 232
L 457 231
L 457 231
L 457 231
L 457 231
L 457 231
L 457 231
L 457 231
L 457 231
L 457 231
L 458 231
L 458 231
L 458 231
L 459 231
L 459 231
L 459 231
L 459 231
L 460 231
L 460 231
L 460 231
L 461 231
L 461 231
L 461 231
L 461 230
L 462 230
L 462 230
L 462 230
L 462 230
L 462 230
L 462 230
L 462 230
L 462 230
L 462 230
L 462 230
L 463 230
L 463 230
L 463 230
L 463 230
L 463 230
L 463 230
L 463 230
L 463 230
L 464 230
L 464 230
L 464 230
L 464 230
L 464 229
L 464 229
L 464 229
L 464 229
L 464 229
L 464 229
L 465 229
L 465 229
L 465 229
L 465 229
L 465 229
L 465 229
L 466 229
L 466 229
L 466 229
L 466 229
L 466 229
L 466 229
L 467 229
L 467 229
L 467 229
L 467 229
L 467 229
L 467 228
L 467 228
L 468 228
L 468 228
L 468 228
L 468 228
L 468 228
L 468 228
L 468 228
L 468 228
L 468 228
L 468 228
L 468 228
L 468 228
L 469 228
L 469 228
L 469 228
L 469 228
L 469 228
L 470 228
L 470 228
L 471 228
L 471 228
L 472 227
L 472 227
L 472 227
L 473 227
L 473 227
L 473 227
L 473 227
L 473 227
L 473 227
L 473 227
L 473 227
L 474 227
L 474 227
L 474 227
L 474 227
L 474 227
L 474 227
L 474 227
L 475 227
L 475 227
L 475 227
L 475 227
L 475 227
L 475 226
L 475 226
L 475 226
L 475 226
L 475 226
L 475 226
L 475 226
L 476 226
L 476 226
L 476 226
L 476 226
L 476 226
L 476 226
L 476 226
L 476 226
L 477 226
L 477 226
L 477 226
L 477 226
L 477 226
L 477 226
L 477 226
L 477 226
L 477 225
L 477 225
L 477 225
L 477 225
L 477 225
L 477 225
L 478 225
L 478 225
L 478 225
L 478 225
L 478 225
L 478 225
L 478 225
L 478 225
L 478 225
L 478 225
L 478 225
L 478 225
L 478 225
L 479 225
L 479 225
L 479 225
L 479 225
L 479 224
L 479 224
L 479 224
L 479 224
L 479 224
L 479 224
L 479 224
L 479 224
L 480 224
L 480 224
L 480 224
L 480 224
L 480 224
L 481 224
L 483 224
L 484 224
L 484 224
L 484 224
L 484 224
L 484 224
L 484 224
L 484 224
L 484 224
L 484 223
L 484 223
L 484 223
L 484 223
L 484 223
L 484 223
L 484 223
L 484 223
L 484 223
L 484 223
L 484 223
L 484 223
L 484 223
L 484 223
L 484 223
L 484 223
L 484 223
L 484 223
L 484 223
L 484 223
L 484 223
L 484 223
L 484 223
L 484 222
L 484 222
L 484 222
L 484 222
L 484 222
L 484 222
L 484 222
L 484 222
L 484 222
L 484 222
L 484 222
L 484 222
L 485 222
L 485 222
L 485 222
L 485 222
L 485 222
L 485 222
L 485 222
L 485 222
L 485 222
L 485 222
L 485 222
L 485 221
L 485 221
L 485 221
L 485 221
L 485 221
L 485 221
L 485 221
L 485 221
L 485 221
L 485 221
L 485 221
L 485 221
L 485 221
L 485 221
L 485 221
L 485 221
L 486 221
L 486 221
L 486 221
L 486 221
L 486 221
L 486 221
L 486 221
L 486 220
L 486 220
L 486 220
L 486 220
L 486 220
L 486 220
L 486 220
L 486 220
L 486 220
L 486 220
L 486 220
L 486 220
L 486 220
L 486 220
L 486 220
L 486 220
L 486 220
L 486 220
L 486 220
L 486 220
L 486 220
L 486 220
L 486 220
L 486 219
L 486 219
L 486 219
L 486 219
L 486 219
L 486 219
L 487 219
L 487 219
L 487 219
L 487 219
L 487 219
L 487 219
L 487 219
L 487 219
L 487 219
L 487 219
L 487 219
L 487 219
L 487 219
L 487 219
L 487 219
L 487 219
L 487 219
L 487 218
L 487 218
L 487 218
L 487 218
L 487 218
L 487 218
L 487 218
L 487 218
L 487 218
L 487 218
L 487 218
L 487 218
L 487 218
L 487 218
L 487 218
L 487 218
L 487 218
L 487 218
L 487 218
L 487 218
L 488 218
L 488 218
L 488 218
L 488 217
L 488 217
L 488 217
L 488 217
L 488 217
L 488 217
L 488 217
L 488 217
L 488 217
L 488 217
L 488 217
L 488 217
L 488 217
L 489 217
L 489 217
L 489 217
L 489 217
L 489 217
L 489 217
L 489 217
L 489 217
L 489 217
L 489 217
L 489 216
L 489 216
L 489 216
L 489 216
L 489 216
L 489 216
L 489 216
L 489 216
L 489 216
L 490 216
L 490 216
L 490 216
L 490 216
L 490 216
L 490 216
L 490 216
L 490 216
L 490 216
L 490 216
L 490 216
L 490 216
L 490 216
L 490 216
L 490 215
L 490 215
L 490 215
L 490 215
L 490 215
L 490 215
L 490 215
L 490 215
L 490 215
L 490 215
L 490 215
L 491 215
L 491 215
L 491 215
L 491 215
L 491 215
L 491 215
L 491 215
L 491 215
L 492 215
L 492 215
L 492 215
L 492 215
L 493 214
L 494 214
L 494 214
L 494 214
L 494 214
L 494 214
L 494 214
L 494 214
L 495 214
L 495 214
L 495 214
L 495 214
L 495 214
L 495 214
L 495 214
L 495 214
L 495 214
L 495 214
L 495 214
L 495 214
L 495 214
L 495 214
L 495 213
L 495 213
L 495 213
L 495 213
L 495 213
L 495 213
L 495 213
L 495 213
L 495 213
L 495 213
L 495 213
L 495 213
L 495 213
L 495 213
L 495 213
L 495 213
L 495 213
L 495 213
L 495 213
L 495 213
L 495 213
L 495 213
L 495 213
L 495 212
L 495 212
L 495 212
L 496 212
L 496 212
L 496 212
L 496 212
L 496 212
L 496 212
L 496 212
L 496 212
L 496 212
L 496 212
L 496 212
L 496 212
L 496 212
L 496 212
L 496 212
L 496 212
L 496 212
L 496 212
L 496 212
L 496 212
L 496 211
L 496 211
L 496 211
L 496 211
L 496 211
L 496 211
L 496 211
L 496 211
L 496 211
L 496 211
L 496 211
L 497 211
L 497 211
L 497 211
L 497 211
L 497 211
L 497 211
L 497 211
L 497 211
L 497 211
L 497 211
L 497 211
L 497 211
L 497 210
L 497 210
L 497 210
L 497 210
L 497 210
L 497 210
L 497 210
L 497 210
L 497 210
L 497 210
L 497 210
L 497 210
L 497 210
L 497 210
L 497 210
L 497 210
L 497 210
L 497 210
L 497 210
L 498 210
L 498 210
L 498 210
L 498 210
L 498 209
L 498 209
L 498 209
L 498 209
L 498 209
L 498 209
L 498 209
L 498 209
L 498 209
L 498 209
L 498 209
L 498 209
L 498 209
L 498 209
L 498 209
L 498 209
L 498 209
L 498 209
L 498 209
L 498 209
L 498 209
L 498 209
L 498 209
L 498 208
L 498 208
L 498 208
L 498 208
L 498 208
L 498 208
L 498 208
L 498 208
L 498 208
L 499 208
L 499 208
L 499 208
L 499 208
L 499 208
L 499 208
L 499 208
L 499 208
L 499 208
L 499 208
L 499 208
L 499 208
L 499 208
L 499 208
L 499 207
L 499 207
L 499 207
L 499 207
L 499 207
L 499 207
L 499 207
L 499 207
L 499 207
L 499 207
L 499 207
L 499 207
L 499 207
L 499 207
L 499 207
L 499 207
L 499 207
L 499 207
L 499 207
L 499 207
L 499 207
L 499 207
L 499 207
L 499 206
L 499 206
L 499 206
L 499 206
L 499 206
L 499 206
L 499 206
L 499 206
L 499 206
L 499 206
L 499 206
L 499 206
L 499 206
L 499 206
L 500 206
L 500 206
L 500 206
L 500 206
L 500 206
L 500 206
L 500 206
L 500 206
L 500 206
L 500 205
L 500 205
L 500 205
L 500 205
L 500 205
L 500 205
L 500 205
L 500 205
L 500 205
L 500 205
L 500 205
L 500 205
L 500 205
L 500 205
L 500 205
L 500 205
L 500 205
L 500 205
L 501 205
L 501 205
L 501 205
L 501 205
L 501 205
L 501 204
L 501 204
L 501 204
L 501 204
L 501 204
L 501 204
L 501 204
L 501 204
L 501 204
L 501 204
L 501 204
L 501 204
L 501 204
L 501 204
L 501 204
L 501 204
L 501 204
L 501 204
L 502 204
L 502 204
L 502 204
L 502 204
L 502 204
L 502 203
L 502 203
L 502 203
L 502 203
L 502 203
L 502 203
L 502 203
L 502 203
L 502 203
L 503 203
L 503 203
L 503 203
L 504 203
L 504 203
L 505 203
L 506 203
L 506 203
L 506 203
L 506 203
L 506 203
L 506 203
L 506 203
L 506 203
L 506 202
L 506 202
L 506 202
L 506 202
L 506 202
L 506 202
L 506 202
L 506 202
L 506 202
L 506 202
L 506 202
L 506 202
L 506 202
L 506 202
L 506 202
L 506 202
L 506 202
L 506 202
L 507 202
L 507 202
L 507 202
L 507 202
L 507 202
L 507 201
L 507 201
L 507 201
L 507 201
L 507 201
L 507 201
L 507 201
L 507 201
L 507 201
L 507 201
L 507 201
L 507 201
L 507 201
L 507 201
L 507 201
L 507 201
L 507 201
L 507 201
L 507 201
L 507 201
L 507 201
L 507 201
L 507 201
L 507 200
L 507 200
L 507 200
L 507 200
L 507 200
L 507 200
L 507 200
L 507 200
L 507 200
L 508 200
L 508 200
L 508 200
L 508 200
L 508 200
L 508 200
L 508 200
L 508 200
L 508 200
L 508 200
L 508 200
L 508 200
L 508 200
L 508 200
L 508 199
L 508 199
L 508 199
L 508 199
L 508 199
L 508 199
L 508 199
L 508 199
L 509 199
L 509 199
L 509 199
L 509 199
L 509 199
L 509 199
L 509 199
L 509 199
L 509 199
L 509 199
L 509 199
L 509 199
L 509 199
L 509 199
L 509 199
L 509 198
L 509 198
L 509 198
L 509 198
L 509 198
L 509 198
L 509 198
L 509 198
L 510 198
L 510 198
L 510 198
L 510 198
L 510 198
L 510 198
L 510 198
L 510 198
L 510 198
L 510 198
L 510 198
L 510 198
L 510 198
L 510 198
L 510 198
L 510 197
L 510 197
L 510 197
L 510 197
L 510 197
L 510 197
L 510 197
L 510 197
L 510 197
L 510 197
L 510 197
L 510 197
L 510 197
L 510 197
L 510 197
L 510 197
L 510 197
L 510 197
L 510 197
L 510 197
L 510 197
L 510 197
L 510 196
L 510 196
L 510 196
L 511 196
L 511 196
L 511 196
L 511 196
L 511 196
L 511 196
L 511 196
L 511 196
L 511 196
L 511 196
L 511 196
L 511 196
L 512 196
L 512 196
L 512 196
L 512 196
L 512 196
L 512 196
L 512 196
L 512 196
L 512 195
L 512 195
L 512 195
L 512 195
L 512 195
L 512 195
L 512 195
L 512 195
L 512 195
L 512 195
L 512 195
L 513 195
L 513 195
L 513 195
L 513 195
L 513 195
L 513 195
L 513 195
L 514 195
L 514 195
L 514 195
L 514 195
L 515 195
L 515 194
L 515 194
L 515 194
L 516 194
L 517 194
L 517 194
L 517 194
L 517 194
L 517 194
L 517 194
L 517 194
L 517 194
L 517 194
L 517 194
L 517 194
L 518 194
L 518 194
L 518 194
L 518 194
L 518 194
L 518 194
L 518 194
L 518 194
L 518 193
L 518 193
L 518 193
L 518 193
L 518 193
L 518 193
L 518 193
L 518 193
L 518 193
L 518 193
L 518 193
L 518 193
L 518 193
L 518 193
L 518 193
L 519 193
L 519 193
L 519 193
L 519 193
L 519 193
L 519 193
L 519 193
L 519 193
L 519 192
L 519 192
L 519 192
L 519 192
L 520 192
L 520 192
L 520 192
L 520 192
L 520 192
L 520 192
L 520 192
L 520 192
L 520 192
L 520 192
L 520 192
L 520 192
L 520 192
L 520 192
L 521 192
L 521 192
L 521 192
L 521 192
L 521 192
L 521 191
L 521 191
L 521 191
L 521 191
L 521 191
L 522 191
L 522 191
L 522 191
L 522 191
L 522 191
L 522 191
L 522 191
L 523 191
L 523 191
L 523 191
L 523 191
L 523 191
L 523 191
L 523 191
L 523 191
L 523 191
L 523 191
L 523 191
L 523 190
L 523 190
L 523 190
L 523 190
L 523 190
L 523 190
L 523 190
L 523 190
L 524 190
L 524 190
L 524 190
L 524 190
L 524 190
L 524 190
L 525 190
L 525 190
L 528 190
L 528 190
L 529 190
L 529 190
L 529 190
L 529 190
L 529 190
L 530 189
L 530 189
L 530 189
L 530 189
L 530 189
L 530 189
L 530 189
L 530 189
L 530 189
L 530 189
L 531 189
L 531 189
L 531 189
L 531 189
L 531 189
L 531 189
L 531 189
L 531 189
L 531 189
L 531 189
L 532 189
L 532 189
L 532 189
L 532 188
L 532 188
L 532 188
L 532 188
L 532 188
L 532 188
L 532 188
L 532 188
L 532 188
L 532 188
L 533 188
L 533 188
L 533 188
L 533 188
L 533 188
L 533 188
L 533 188
L 533 188
L 533 188
L 533 188
L 533 188
L 534 188
L 534 188
L 534 187
L 534 187
L 534 187
L 534 187
L 534 187
L 535 187
L 535 187
L 535 187
L 535 187
L 535 187
L 535 187
L 535 187
L 535 187
L 535 187
L 535 187
L 535 187
L 535 187
L 535 187
L 535 187
L 535 187
L 535 187
L 535 187
L 536 187
L 536 186
L 536 186
L 536 186
L 536 186
L 536 186
L 536 186
L 536 186
L 537 186
L 537 186
L 537 186
L 537 186
L 537 186
L 539 186
L 539 186
L 539 186
L 539 186
L 539 186
L 539 186
L 539 186
L 539 186
L 539 186
L 539 186
L 540 186
L 540 185
L 540 185
L 540 185
L 540 185
L 540 185
L 540 185
L 540 185
L 540 185
L 540 185
L 540 185
L 540 185
L 540 185
L 540 185
L 540 185
L 540 185
L 540 185
L 540 185
L 540 185
L 540 185
L 540 185
L 540 185
L 540 185
L 540 185
L 540 184
L 540 184
L 540 184
L 540 184
L 540 184
L 540 184
L 541 184
L 541 184
L 541 184
L 541 184
L 541 184
L 541 184
L 541 184
L 541 184
L 541 184
L 541 184
L 541 184
L 541 184
L 541 184
L 541 184
L 541 184
L 541 184
L 541 184
L 541 183
L 541 183
L 542 183
L 542 183
L 542 183
L 542 183
L 542 183
L 542 183
L 542 183
L 542 183
L 542 183
L 542 183
L 542 183
L 542 183
L 542 183
L 542 183
L 542 183
L 542 183
L 542 183
L 542 183
L 542 183
L 542 183
L 542 183
L 542 182
L 543 182
L 543 182
L 543 182
L 543 182
L 543 182
L 543 182
L 543 182
L 543 182
L 543 182
L 543 182
L 543 182
L 543 182
L 543 182
L 543 182
L 543 182
L 543 182
L 543 182
L 543 182
L 543 182
L 543 182
L 544 182
L 544 182
L 544 181
L 544 181
L 544 181
L 544 181
L 544 181
L 544 181
L 544 181
L 544 181
L 544 181
L 544 181
L 544 181
L 544 181
L 545 181
L 545 181
L 545 181
L 545 181
L 545 181
L 545 181
L 545 181
L 545 181
L 545 181
L 545 181
L 545 181
L 545 180
L 545 180
L 545 180
L 546 180
L 546 180
L 546 180
L 546 180
L 546 180
L 546 180
L 546 180
L 546 180
L 546 180
L 546 180
L 546 180
L 547 180
L 547 180
L 547 180
L 547 180
L 549 180
L 550 180
L 550 180
L 550 180
L 551 179
L 551 179
L 551 179
L 551 179
L 551 179
L 551 179
L 551 179
L 551 179
L 551 179
L 551 179
L 551 179
L 551 179
L 551 179
L 551 179
L 551 179
L 551 179
L 551 179
L 551 179
L 552 179
L 552 179
L 552 179
L 552 179
L 552 179
L 552 178
L 552 178
L 552 178
L 552 178
L 552 178
L 552 178
L 552 178
L 552 178
L 552 178
L 552 178
L 552 178
L 552 178
L 552 178
L 553 178
L 553 178
L 553 178
L 553 178
L 553 178
L 553 178
L 553 178
L 553 178
L 553 178
L 553 178
L 553 177
L 553 177
L 553 177
L 553 177
L 553 177
L 553 177
L 553 177
L 553 177
L 553 177
L 553 177
L 553 177
L 554 177
L 554 177
L 554 177
L 554 177
L 554 177
L 554 177
L 554 177
L 554 177
L 554 177
L 554 177
L 554 177
L 554 177
L 554 176
L 554 176
L 554 176
L 554 176
L 554 176
L 554 176
L 554 176
L 554 176
L 554 176
L 554 176
L 554 176
L 554 176
L 554 176
L 555 176
L 555 176
L 555 176
L 555 176
L 555 176
L 555 176
L 555 176
L 555 176
L 555 176
L 555 176
L 555 175
L 555 175
L 555 175
L 555 175
L 555 175
L 555 175
L 555 175
L 555 175
L 555 175
L 555 175
L 555 175
L 555 175
L 556 175
L 556 175
L 556 175
L 556 175
L 556 175
L 556 175
L 556 175
L 556 175
L 556 175
L 556 175
L 556 175
L 556 174
L 556 174
L 556 174
L 556 174
L 556 174
L 556 174
L 556 174
L 556 174
L 556 174
L 556 174
L 556 174
L 556 174
L 557 174
L 557 174
L 557 174
L 557 174
L 557 174
L 557 174
L 557 174
L 557 174
L 557 174
L 557 174
L 557 174
L 557 173
L 557 173
L 558 173
L 558 173
L 558 173
L 558 173
L 558 173
L 558 173
L 559 173
L 560 173
L 562 173
L 562 173
L 562 173
L 562 173
L 562 173
L 562 173
L 562 173
L 562 173
L 562 173
L 562 173
L 562 173
L 562 173
L 562 173
L 562 172
L 562 172
L 562 172
L 562 172
L 562 172
L 562 172
L 562 172
L 562 172
L 562 172
L 562 172
L 562 172
L 563 172
L 563 172
L 563 172
L 563 172
L 563 172
L 563 172
L 563 172
L 563 172
L 563 172
L 563 172
L 563 172
L 563 172
L 563 171
L 563 171
L 563 171
L 563 171
L 563 171
L 563 171
L 563 171
L 563 171
L 563 171
L 563 171
L 563 171
L 563 171
L 563 171
L 563 171
L 564 171
L 564 171
L 564 171
L 564 171
L 564 171
L 564 171
L 564 171
L 564 171
L 564 171
L 564 170
L 564 170
L 564 170
L 564 170
L 564 170
L 564 170
L 564 170
L 564 170
L 564 170
L 564 170
L 564 170
L 564 170
L 564 170
L 565 170
L 565 170
L 565 170
L 565 170
L 565 170
L 565 170
L 565 170
L 565 170
L 565 170
L 565 170
L 565 169
L 565 169
L 565 169
L 565 169
L 565 169
L 565 169
L 565 169
L 565 169
L 565 169
L 565 169
L 566 169
L 566 169
L 566 169
L 566 169
L 566 169
L 566 169
L 566 169
L 566 169
L 566 169
L 566 169
L 566 169
L 566 169
L 566 169
L 566 168
L 566 168
L 566 168
L 567 168
L 567 168
L 567 168
L 567 168
L 567 168
L 567 168
L 567 168
L 567 168
L 567 168
L 568 168
L 568 168
L 568 168
L 568 168
L 568 168
L 568 168
L 568 168
L 568 168
L 568 168
L 568 168
L 568 168
L 568 167
L 568 167
L 568 167
L 568 167
L 568 167
L 568 167
L 569 167
L 569 167
L 569 167
L 569 167
L 569 167
L 569 167
L 569 167
L 569 167
L 569 167
L 569 167
L 569 167
L 569 167
L 569 167
L 570 167
L 572 167
L 572 167
L 573 167
L 573 166
L 573 166
L 573 166
L 573 166
L 573 166
L 573 166
L 573 166
L 573 166
L 573 166
L 573 166
L 573 166
L 573 166
L 573 166
L 573 166
L 573 166
L 573 166
L 573 166
L 573 166
L 573 166
L 573 166
L 573 166
L 573 166
L 573 166
L 573 165
L 573 165
L 573 165
L 573 165
L 573 165
L 573 165
L 573 165
L 573 165
L 573 165
L 573 165
L 573 165
L 573 165
L 573 165
L 573 165
L 573 165
L 573 165
L 573 165
L 573 165
L 573 165
L 573 165
L 573 165
L 573 165
L 573 165
L 573 164
L 573 164
L 573 164
L 573 164
L 573 164
L 573 164
L 573 164
L 573 164
L 573 164
L 573 164
L 573 164
L 573 164
L 573 164
L 573 164
L 573 164
L 573 164
L 573 164
L 573 164
L 573 164
L 574 164
L 574 164
L 574 164
L 574 163
L 574 163
L 574 163
L 574 163
L 574 163
L 574 163
L 574 163
L 574 163
L 574 163
L 574 163
L 574 163
L 574 163
L 574 163
L 574 163
L 574 163
L 574 163
L 574 163
L 574 163
L 574 163
L 574 163
L 574 163
L 574 163
L 574 163
L 574 162
L 574 162
L 574 162
L 574 162
L 574 162
L 574 162
L 574 162
L 574 162
L 574 162
L 574 162
L 574 162
L 575 162
L 575 162
L 575 162
L 575 162
L 575 162
L 575 162
L 575 162
L 575 162
L 575 162
L 575 162
L 575 162
L 575 162
L 575 161
L 575 161
L 575 161
L 575 161
L 575 161
L 575 161
L 575 161
L 575 161
L 575 161
L 575 161
L 575 161
L 575 161
L 575 161
L 575 161
L 576 161
L 576 161
L 576 161
L 576 161
L 576 161
L 576 161
L 576 161
L 576 161
L 576 161
L 576 160
L 576 160
L 576 160
L 576 160
L 576 160
L 576 160
L 576 160
L 576 160
L 576 160
L 576 160
L 576 160
L 576 160
L 576 160
L 576 160
L 576 160
L 576 160
L 576 160
L 576 160
L 576 160
L 576 160
L 576 160
L 576 160
L 576 160
L 576 159
L 576 159
L 576 159
L 576 159
L 576 159
L 576 159
L 576 159
L 576 159
L 576 159
L 576 159
L 576 159
L 576 159
L 576 159
L 576 159
L 576 159
L 576 159
L 576 159
L 577 159
L 577 159
L 577 159
L 577 159
L 577 159
L 577 159
L 577 158
L 577 158
L 577 158
L 577 158
L 577 158
L 577 158
L 577 158
L 577 158
L 577 158
L 577 158
L 577 158
L 577 158
L 577 158
L 577 158
L 577 158
L 577 158
L 577 158
L 577 158
L 577 158
L 577 158
L 577 158
L 577 158
L 577 158
L 577 157
L 577 157
L 577 157
L 577 157
L 578 157
L 578 157
L 578 157
L 578 157
L 578 157
L 578 157
L 578 157
L 578 157
L 578 157
L 578 157
L 578 157
L 578 157
L 578 157
L 578 157
L 578 157
L 578 157
L 578 157
L 578 157
L 578 157
L 578 156
L 578 156
L 578 156
L 578 156
L 578 156
L 578 156
L 578 156
L 578 156
L 578 156
L 579 156
L 579 156
L 579 156
L 579 156
L 579 156
L 579 156
L 579 156
L 579 156
L 579 156
L 579 156
L 579 156
L 579 156
L 579 156
L 579 156
L 579 155
L 579 155
L 579 155
L 579 155
L 579 155
L 579 155
L 579 155
L 579 155
L 579 155
L 580 155
L 580 155
L 580 155
L 580 155
L 580 155
L 580 155
L 580 155
L 580 155
L 580 155
L 580 155
L 580 155
L 580 155
L 581 155
L 581 155
L 581 154
L 581 154
L 581 154
L 581 154
L 582 154
L 582 154
L 582 154
L 582 154
L 582 154
L 583 154
L 583 154
L 584 154
L 584 154
L 584 154
L 584 154
L 584 154
L 584 154
L 584 154
L 584 154
L 584 154
L 584 154
L 584 154
L 584 154
L 584 153
L 584 153
L 584 153
L 584 153
L 584 153
L 584 153
L 584 153
L 585 153
L 585 153
L 585 153
L 585 153
L 585 153
L 585 153
L 585 153
L 585 153
L 585 153
L 585 153
L 585 153
L 585 153
L 585 153
L 585 153
L 585 153
L 585 153
L 585 152
L 585 152
L 585 152
L 585 152
L 585 152
L 585 152
L 585 152
L 585 152
L 585 152
L 585 152
L 585 152
L 585 152
L 585 152
L 585 152
L 585 152
L 585 152
L 585 152
L 586 152
L 586 152
L 586 152
L 586 152
L 586 152
L 586 152
L 586 151
L 586 151
L 586 151
L 586 151
L 586 151
L 586 151
L 586 151
L 586 151
L 586 151
L 586 151
L 586 151
L 586 151
L 586 151
L 586 151
L 586 151
L 587 151
L 587 151
L 587 151
L 587 151
L 587 151
L 587 151
L 587 151
L 587 151
L 587 150
L 587 150
L 587 150
L 587 150
L 587 150
L 587 150
L 587 150
L 587 150
L 587 150
L 587 150
L 587 150
L 587 150
L 587 150
L 587 150
L 587 150
L 587 150
L 587 150
L 587 150
L 587 150
L 587 150
L 587 150
L 587 150
L 587 150
L 587 149
L 587 149
L 587 149
L 587 149
L 587 149
L 587 149
L 588 149
L 588 149
L 588 149
L 588 149
L 588 149
L 588 149
L 588 149
L 588 149
L 588 149
L 588 149
L 588 149
L 588 149
L 588 149
L 588 149
L 588 149
L 588 149
L 588 149
L 588 148
L 588 148
L 588 148
L 588 148
L 588 148
L 588 148
L 588 148
L 588 148
L 588 148
L 588 148
L 588 148
L 589 148
L 589 148
L 589 148
L 589 148
L 589 148
L 589 148
L 589 148
L 589 148
L 589 148
L 590 148
L 590 148
L 590 148
L 590 147
L 590 147
L 590 147
L 590 147
L 590 147
L 590 147
L 590 147
L 590 147
L 590 147
L 590 147
L 590 147
L 591 147
L 591 147
L 591 147
L 591 147
L 591 147
L 591 147
L 591 147
L 591 147
L 591 147
L 591 147
L 591 147
L 591 147
L 592 146
L 593 146
L 593 146
L 593 146
L 593 146
L 595 146
L 596 146
L 596 146
L 596 146
L 596 146
L 596 146
L 596 146
L 596 146
L 596 146
L 596 146
L 596 146
L 596 146
L 596 146
L 597 146
L 597 146
L 597 146
L 597 146
L 598 145
L 598 145
L 598 145
L 598 145
L 598 145
L 598 145
L 598 145
L 598 145
L 598 145
L 598 145
L 598 145
L 599 145
L 599 145
L 599 145
L 599 145
L 599 145
L 599 145
L 599 145
L 599 145
L 599 145
L 599 145
L 599 145
L 599 145
L 599 144
L 600 144
L 600 144
L 600 144
L 601 144
L 601 144
L 601 144
L 601 144
L 602 144
L 602 144
L 602 144
L 603 144
L 603 144
L 603 144
L 603 144
L 603 144
L 603 144
L 605 144
L 606 144
L 606 144
L 607 144
L 607 144
L 608 144
L 608 143
L 608 143
L 608 143
L 608 143
L 609 143
L 609 143
L 609 143
L 609 143
L 609 143
L 609 143
L 610 143
L 610 143
L 610 143
L 610 143
L 610 143
L 610 143
L 610 143
L 610 143
L 611 143
L 611 143
L 611 143
L 611 143
L 611 143
L 612 142
L 612 142
L 612 142
L 612 142
L 612 142
L 612 142
L 612 142
L 613 142
L 613 142
L 613 142
L 613 142
L 613 142
L 613 142
L 613 142
L 613 142
L 614 142
L 615 142
L 617 142
L 617 142
L 618 142
L 618 142
L 618 142
L 618 142
L 618 141
L 618 141
L 618 141
L 618 141
L 618 141
L 618 141
L 618 141
L 618 141
L 618 141
L 618 141
L 618 141
L 618 141
L 619 141
L 619 141
L 619 141
L 619 141
L 619 141
L 619 141
L 619 141
L 619 141
L 619 141
L 619 141
L 619 141
L 619 140
L 619 140
L 619 140
L 619 140
L 619 140
L 619 140
L 620 140
L 620 140
L 620 140
L 620 140
L 620 140
L 620 140
L 620 140
L 620 140
L 620 140
L 620 140
L 620 140
L 620 140
L 621 140
L 621 140
L 621 140
L 621 140
L 621 140
L 621 139
L 621 139
L 621 139
L 621 139
L 621 139
L 621 139
L 621 139
L 621 139
L 621 139
L 621 139
L 621 139
L 621 139
L 621 139
L 621 139
L 621 139
L 622 139
L 622 139
L 622 139
L 622 139
L 622 139
L 622 139
L 622 139
L 622 139
L 622 138
L 622 138
L 622 138
L 623 138
L 623 138
L 623 138
L 623 138
L 623 138
L 623 138
L 623 138
L 623 138
L 623 138
L 623 138
L 623 138
L 623 138
L 623 138
L 623 138
L 623 138
L 624 138
L 624 138
L 624 138
L 624 138
L 624 138
L 624 137
L 624 137
L 624 137
L 624 137
L 624 137
L 624 137
L 624 137
L 625 137
L 625 137
L 625 137
L 625 137
L 625 137
L 625 137
L 625 137
L 627 137
L 627 137
L 628 137
L 629 137
L 629 137
L 629 137
L 629 137
L 629 137
L 629 137
L 629 136
L 629 136
L 629 136
L 629 136
L 629 136
L 629 136
L 629 136
L 629 136
L 629 136
L 630 136
L 630 136
L 630 136
L 630 136
L 630 136
L 630 136
L 630 136
L 630 136
L 630 136
L 630 136
L 630 136
L 630 136
L 630 136
L 630 136
L 630 135
L 630 135
L 630 135
L 630 135
L 630 135
L 630 135
L 630 135
L 630 135
L 630 135
L 630 135
L 630 135
L 630 135
L 630 135
L 630 135
L 630 135
L 630 135
L 630 135
L 630 135
L 630 135
L 630 135
L 630 135
L 630 135
L 630 135
L 630 134
L 630 134
L 630 134
L 630 134
L 630 134
L 630 134
L 630 134
L 630 134
L 630 134
L 630 134
L 630 134
L 630 134
L 630 134
L 630 134
L 630 134
L 630 134
L 630 134
L 630 134
L 630 134
L 630 134
L 630 134
L 630 134
L 630 134
L 630 133
L 630 133
L 630 133
L 630 133
L 630 133
L 630 133
L 630 133
L 630 133
L 630 133
L 630 133
L 630 133
L 630 133
L 631 133
L 631 133
L 631 133
L 631 133
L 631 133
L 631 133
L 631 133
L 631 133
L 631 133
L 631 133
L 631 133
L 631 132
L 631 132
L 631 132
L 631 132
L 631 132
L 631 132
L 631 132
L 631 132
L 631 132
L 631 132
L 631 132
L 631 132
L 631 132
L 631 132
L 632 132
L 632 132
L 632 132
L 632 132
L 632 132
L 632 132
L 632 132
L 632 132
L 632 132
L 632 131
L 632 131
L 632 131
L 632 131
L 632 131
L 632 131
L 632 131
L 632 131
L 632 131
L 632 131
L 632 131
L 632 131
L 632 131
L 633 131
L 633 131
L 633 131
L 633 131
L 633 131
L 633 131
L 633 131
L 633 131
L 633 131
L 633 131
L 633 130
L 633 130
L 633 130
L 633 130
L 633 130
L 633 130
L 633 130
L 633 130
L 633 130
L 633 130
L 633 130
L 633 130
L 633 130
L 633 130
L 633 130
L 633 130
L 633 130
L 633 130
L 633 130
L 633 130
L 633 130
L 634 130
L 634 130
L 634 129
L 634 129
L 634 129
L 634 129
L 634 129
L 634 129
L 634 129
L 634 129
L 634 129
L 634 129
L 634 129
L 634 129
L 634 129
L 634 129
L 634 129
L 634 129
L 634 129
L 634 129
L 634 129
L 634 129
L 634 129
L 634 129
L 634 128
L 634 128
L 635 128
L 635 128
L 635 128
L 635 128
L 635 128
L 635 128
L 635 128
L 635 128
L 635 128
L 635 128
L 635 128
L 636 128
L 636 128
L 637 128
L 637 128
L 637 128
L 637 128
L 638 128
L 638 128
L 640 128
L 640 128
L 640 127
L 640 127
L 640 127
L 640 127
L 640 127
L 640 127
L 640 127
L 640 127
L 640 127
L 640 127
L 640 127
L 640 127
L 640 127
L 640 127
L 640 127
L 640 127
L 640 127
L 640 127
L 640 127
L 640 127
L 640 127
L 640 127
L 640 127
L 641 126
L 641 126
L 641 126
L 641 126
L 641 126
L 641 126
L 641 126
L 641 126
L 641 126
L 641 126
L 641 126
L 641 126
L 641 126
L 641 126
L 641 126
L 641 126
L 641 126
L 641 126
L 641 126
L 641 126
L 641 126
L 641 126
L 641 126
L 641 125
L 641 125
L 641 125
L 641 125
L 641 125
L 641 125
L 641 125
L 641 125
L 641 125
L 641 125
L 641 125
L 641 125
L 641 125
L 641 125
L 641 125
L 641 125
L 641 125
L 641 125
L 641 125
L 641 125
L 641 125
L 641 125
L 641 125
L 641 124
L 641 124
L 641 124
L 641 124
L 641 124
L 641 124
L 641 124
L 641 124
L 641 124
L 641 124
L 642 124
L 642 124
L 642 124
L 642 124
L 642 124
L 642 124
L 642 124
L 642 124
L 642 124
L 642 124
L 642 124
L 642 124
L 642 124
L 642 123
L 642 123
L 642 123
L 642 123
L 642 123
L 642 123
L 642 123
L 642 123
L 642 123
L 642 123
L 642 123
L 642 123
L 642 123
L 642 123
L 642 123
L 642 123
L 642 123
L 642 123
L 642 123
L 642 123
L 643 123
L 643 123
L 643 123
L 643 122
L 643 122
L 643 122
L 643 122
L 643 122
L 643 122
L 643 122
L 643 122
L 643 122
L 643 122
L 643 122
L 643 122
L 643 122
L 643 122
L 643 122
L 643 122
L 643 122
L 643 122
L 643 122
L 643 122
L 643 122
L 643 122
L 643 122
L 643 121
L 643 121
L 643 121
L 643 121
L 643 121
L 643 121
L 643 121
L 643 121
L 643 121
L 644 121
L 644 121
L 644 121
L 644 121
L 644 121
L 644 121
L 644 121
L 644 121
L 644 121
L 644 121
L 644 121
L 644 121
L 644 121
L 644 121
L 644 120
L 644 120
L 644 120
L 644 120
L 644 120
L 644 120
L 644 120
L 644 120
L 644 120
L 644 120
L 644 120
L 644 120
L 644 120
L 644 120
L 644 120
L 644 120
L 644 120
L 644 120
L 644 120
L 644 120
L 644 120
L 644 120
L 644 120
L 645 119
L 645 119
L 645 119
L 645 119
L 645 119
L 645 119
L 645 119
L 645 119
L 645 119
L 645 119
L 645 119
L 645 119
L 645 119
L 645 119
L 645 119
L 645 119
L 646 119
L 646 119
L 646 119
L 646 119
L 646 119
L 646 119
L 646 119
L 646 118
L 646 118
L 647 118
L 647 118
L 647 118
L 647 118
L 647 118
L 647 118
L 647 118
L 647 118
L 647 118
L 647 118
L 647 118
L 647 118
L 648 118
L 648 118
L 648 118
L 650 118
L 650 118
L 650 118
L 650 118
L 651 118
L 651 118
L 651 117
L 651 117
L 651 117
L 651 117
L 651 117
L 651 117
L 651 117
L 651 117
L 651 117
L 652 117
L 652 117
L 652 117
L 652 117
L 652 117
L 652 117
L 652 117
L 652 117
L 652 117
L 652 117
L 652 117
L 652 117
L 652 117
L 652 117
L 652 116
L 652 116
L 652 116
L 652 116
L 652 116
L 652 116
L 652 116
L 652 116
L 652 116
L 652 116
L 652 116
L 652 116
L 652 116
L 652 116
L 652 116
L 652 116
L 652 116
L 652 116
L 652 116
L 652 116
L 652 116
L 652 116
L 652 116
L 652 115
L 652 115
L 652 115
L 652 115
L 653 115
L 653 115
L 653 115
L 653 115
L 653 115
L 653 115
L 653 115
L 653 115
L 653 115
L 653 115
L 653 115
L 653 115
L 653 115
L 653 115
L 653 115
L 653 115
L 653 115
L 653 115
L 653 115
L 653 114
L 653 114
L 654 114
L 654 114
L 654 114
L 654 114
L 654 114
L 654 114
L 654 114
L 654 114
L 654 114
L 654 114
L 654 114
L 654 114
L 654 114
L 654 114
L 654 114
L 654 114
L 654 114
L 654 114
L 654 114
L 654 114
L 654 114
L 654 113
L 654 113
L 654 113
L 654 113
L 655 113
L 655 113
L 655 113
L 655 113
L 655 113
L 655 113
L 655 113
L 655 113
L 655 113
L 655 113
L 655 113
L 655 113
L 655 113
L 655 113
L 655 113
L 655 113
L 655 113
L 655 113
L 655 113
L 655 112
L 655 112
L 655 112
L 655 112
L 655 112
L 655 112
L 655 112
L 655 112
L 656 112
L 656 112
L 656 112
L 656 112
L 656 112
L 656 112
L 656 112
L 656 112
L 656 112
L 656 112
L 656 112
L 656 112
L 656 112
L 656 112
L 657 111
L 657 111
L 657 111
L 657 111
L 657 111
L 657 111
L 657 111
L 658 111
L 658 111
L 658 111
L 658 111
L 658 111
L 658 111
L 658 111
L 658 111
L 658 111
L 658 111
L 658 111
L 659 111
L 659 111
L 659 111
L 659 111
L 660 111
L 662 110
L 662 110
L 662 110
L 662 110
L 662 110
L 662 110
L 663 110
L 663 110
L 663 110
L 663 110
L 663 110
L 663 110
L 663 110
L 663 110
L 663 110
L 663 110
L 663 110
L 663 110
L 663 110
L 663 110
L 663 110
L 663 110
L 663 110
L 663 109
L 663 109
L 663 109
L 663 109
L 663 109
L 663 109
L 663 109
L 663 109
L 663 109
L 663 109
L 663 109
L 663 109
L 663 109
L 663 109
L 663 109
L 664 109
L 664 109
L 664 109
L 664 109
L 664 109
L 664 109
L 664 109
L 664 109
L 664 108
L 664 108
L 664 108
L 664 108
L 664 108
L 664 108
L 664 108
L 664 108
L 664 108
L 664 108
L 665 108
L 665 108
L 665 108
L 665 108
L 665 108
L 665 108
L 665 108
L 665 108
L 665 108
L 665 108
L 665 108
L 665 108
L 665 108
L 665 107
L 665 107
L 665 107
L 665 107
L 665 107
L 665 107
L 665 107
L 666 107
L 666 107
L 666 107
L 666 107
L 666 107
L 666 107
L 666 107
L 666 107
L 666 107
L 666 107
L 666 107
L 666 107
L 666 107
L 666 107
L 666 107
L 666 107
L 666 106
L 666 106
L 666 106
L 666 106
L 666 106
L 666 106
L 666 106
L 667 106
L 667 106
L 667 106
L 667 106
L 667 106
L 667 106
L 667 106
L 667 106
L 667 106
L 667 106
L 667 106
L 667 106
L 667 106
L 667 106
L 667 106
L 667 106
L 667 105
L 668 105
L 668 105
L 668 105
L 668 105
L 668 105
L 668 105
L 669 105
L 669 105
L 669 105
L 669 105
L 669 105
L 669 105
L 670 105
L 670 105
L 672 105
L 674 105
L 674 105
L 674 105
L 674 105
L 675 105
L 675 105
L 675 105
L 675 104
L 675 104
L 675 104
L 676 104
L 676 104
L 676 104
L 676 104
L 676 104
L 676 104
L 676 104
L 677 104
L 677 104
L 677 104
L 677 104
L 677 104
L 678 104
L 678 104
L 678 104
L 679 104
L 679 104
L 679 104
L 679 104
L 679 104
L 679 103
L 679 103
L 679 103
L 679 103
L 679 103
L 679 103
L 679 103
L 679 103
L 679 103
L 680 103
L 680 103
L 680 103
L 680 103
L 680 103
L 680 103
L 680 103
L 680 103
L 680 103
L 680 103
L 680 103
L 680 103
L 680 103
L 681 103
L 681 102
L 681 102
L 681 102
L 681 102
L 681 102
L 681 102
L 681 102
L 681 102
L 681 102
L 682 102
L 682 102
L 682 102
L 685 102
L 685 102
L 685 102
L 685 102
L 685 102
L 685 102
L 686 102
L 686 102
L 686 102
L 686 102
L 686 102
L 686 101
L 686 101
L 687 101
L 687 101
L 687 101
L 687 101
L 687 101
L 687 101
L 687 101
L 688 101
L 688 101
L 689 101
L 690 101
L 690 101
L 690 101
L 690 101
L 690 101
L 690 101
L 690 101
L 691 101
L 691 101
L 691 101
L 691 101
L 691 100
L 691 100
L 691 100
L 691 100
L 691 100
L 691 100
L 691 100
L 691 100
L 691 100
L 692 100
L 692 100
L 692 100
L 692 100
L 695 100
L 695 100
L 696 100
L 696 100
L 696 100
L 696 100
L 696 100
L 696 100
L 696 100
L 696 100
L 696 99
L 696 99
L 696 99
L 696 99
L 696 99
L 696 99
L 696 99
L 696 99
L 696 99
L 696 99
L 696 99
L 697 99
L 697 99
L 697 99
L 697 99
L 697 99
L 697 99
L 697 99
L 697 99
L 697 99
L 697 99
L 697 99
L 697 99
L 697 98
L 697 98
L 697 98
L 697 98
L 697 98
L 697 98
L 697 98
L 697 98
L 697 98
L 697 98
L 697 98
L 698 98
L 698 98
L 698 98
L 698 98
L 698 98
L 698 98
L 698 98
L 698 98
L 698 98
L 698 98
L 698 98
L 698 98
L 698 97
L 698 97
L 699 97
L 699 97
L 699 97
L 699 97
L 699 97
L 699 97
L 699 97
L 699 97
L 699 97
L 699 97
L 699 97
L 699 97
L 699 97
L 699 97
L 699 97
L 699 97
L 699 97
L 699 97
L 699 97
L 699 97
L 699 97
L 699 96
L 699 96
L 699 96
L 699 96
L 699 96
L 699 96
L 699 96
L 699 96
L 699 96
L 700 96
L 700 96
L 700 96
L 700 96
L 700 96
L 700 96
L 700 96
L 700 96
L 700 96
L 700 96
L 700 96
L 700 96
L 700 96
L 700 96
L 700 95
L 700 95
L 700 95
L 700 95
L 700 95
L 701 95
L 701 95
L 701 95
L 701 95
L 701 95
L 701 95
L 701 95
L 701 95
L 701 95
L 702 95
L 702 95
L 702 95
L 702 95
L 702 95
L 702 95
L 702 95
L 702 95
L 702 94
L 702 94
L 702 94
L 703 94
L 703 94
L 703 94
L 703 94
L 703 94
L 703 94
L 705 94
L 707 94
L 707 94
L 707 94
L 707 94
L 707 94
L 707 94
L 707 94
L 707 94
L 708 94
L 708 94
L 708 94
L 708 94
L 708 94
L 708 93
L 708 93
L 708 93
L 708 93
L 708 93
L 708 93
L 708 93
L 708 93
L 708 93
L 708 93
L 708 93
L 708 93
L 708 93
L 708 93
L 708 93
L 708 93
L 708 93
L 708 93
L 708 93
L 708 93
L 708 93
L 709 93
L 709 93
L 709 92
L 709 92
L 709 92
L 709 92
L 709 92
L 709 92
L 709 92
L 709 92
L 709 92
L 709 92
L 709 92
L 709 92
L 709 92
L 710 92
L 710 92
L 710 92
L 710 92
L 710 92
L 710 92
L 710 92
L 710 92
L 710 92
L 710 92
L 710 91
L 710 91
L 710 91
L 710 91
L 710 91
L 710 91
L 710 91
L 710 91
L 710 91
L 710 91
L 710 91
L 710 91
L 710 91
L 711 91
L 711 91
L 711 91
L 711 91
L 711 91
L 711 91
L 711 91
L 711 91
L 711 91
L 711 91
L 711 90
L 711 90
L 711 90
L 711 90
L 711 90
L 711 90
L 711 90
L 711 90
L 711 90
L 711 90
L 711 90
L 711 90
L 711 90
L 711 90
L 711 90
L 712 90
L 712 90
L 712 90
L 712 90
L 712 90
L 712 90
L 712 90
L 712 90
L 712 89
L 712 89
L 712 89
L 712 89
L 712 89
L 712 89
L 712 89
L 712 89
L 712 89
L 713 89
L 713 89
L 713 89
L 713 89
L 713 89
L 713 89
L 713 89
L 713 89
L 713 89
L 713 89
L 713 89
L 713 89
L 713 89
L 713 89
L 714 88
L 714 88
L 714 88
L 714 88
L 714 88
L 714 88
L 714 88
L 714 88
L 714 88
L 714 88
L 714 88
L 714 88
L 714 88
L 714 88
L 714 88
L 714 88
L 714 88
L 714 88
L 714 88
L 715 88
L 715 88
L 715 88
L 715 88
L 715 87
L 715 87
L 716 87
L 716 87
L 717 87
L 718 87
L 718 87
L 718 87
L 718 87
L 718 87
L 718 87
L 718 87
L 718 87
L 718 87
L 718 87
L 718 87
L 718 87
L 718 87
L 719 87
L 719 87
L 719 87
L 719 87
L 719 87
L 719 86
L 719 86
L 719 86
L 719 86
L 719 86
L 719 86
L 719 86
L 719 86
L 719 86
L 719 86
L 719 86
L 719 86
L 719 86
L 719 86
L 719 86
L 719 86
L 719 86
L 719 86
L 719 86
L 719 86
L 719 86
L 719 86
L 719 86
L 719 85
L 719 85
L 719 85
L 719 85
L 720 85
L 720 85
L 720 85
L 720 85
L 720 85
L 720 85
L 720 85
L 720 85
L 720 85
L 720 85
L 720 85
L 720 85
L 720 85
L 720 85
L 720 85
L 720 85
L 720 85
L 720 85
L 720 85
L 720 84
L 720 84
L 720 84
L 720 84
L 720 84
L 720 84
L 720 84
L 721 84
L 721 84
L 721 84
L 721 84
L 721 84
L 721 84
L 721 84
L 721 84
L 721 84
L 721 84
L 721 84
L 721 84
L 721 84
L 721 84
L 721 84
L 721 84
L 721 83
L 721 83
L 721 83
L 721 83
L 721 83
L 721 83
L 721 83
L 721 83
L 721 83
L 721 83
L 721 83
L 721 83
L 721 83
L 721 83
L 721 83
L 721 83
L 721 83
L 721 83
L 722 83
L 722 83
L 722 83
L 722 83
L 722 83
L 722 82
L 722 82
L 722 82
L 722 82
L 722 82
L 722 82
L 722 82
L 722 82
L 722 82
L 722 82
L 722 82
L 722 82
L 722 82
L 722 82
L 722 82
L 722 82
L 722 82
L 722 82
L 722 82
L 722 82
L 722 82
L 722 82
L 722 82
L 722 81
L 722 81
L 722 81
L 722 81
L 722 81
L 722 81
L 722 81
L 722 81
L 722 81
L 722 81
L 722 81
L 722 81
L 723 81
L 723 81
L 723 81
L 723 81
L 723 81
L 723 81
L 723 81
L 723 81
L 723 81
L 723 81
L 723 81
L 723 80
L 723 80
L 723 80
L 723 80
L 723 80
L 723 80
L 723 80
L 723 80
L 723 80
L 723 80
L 723 80
L 724 80
L 724 80
L 724 80
L 724 80
L 724 80
L 724 80
L 724 80
L 724 80
L 724 80
L 724 80
L 724 80
L 725 80
L 725 79
L 725 79
L 725 79
L 725 79
L 725 79
L 725 79
L 725 79
L 725 79
L 725 79
L 726 79
L 726 79
L 726 79
L 727 79
L 727 79
L 727 79
L 729 79
L 729 79
L 729 79
L 729 79
L 729 79
L 730 79
L 730 79
L 730 79
L 730 78
L 730 78
L 730 78
L 730 78
L 730 78
L 730 78
L 730 78
L 730 78
L 730 78
L 730 78
L 730 78
L 730 78
L 730 78
L 730 78
L 730 78
L 730 78
L 730 78
L 730 78
L 730 78
L 730 78
L 730 78
L 730 78
L 730 77
L 730 77
L 731 77
L 731 77
L 731 77
L 731 77
L 731 77
L 731 77
L 731 77
L 731 77
L 731 77
L 731 77
L 731 77
L 731 77
L 731 77
L 731 77
L 731 77
L 731 77
L 731 77
L 731 77
L 731 77
L 731 77
L 731 77
L 731 76
L 731 76
L 731 76
L 732 76
L 732 76
L 732 76
L 732 76
L 732 76
L 732 76
L 732 76
L 732 76
L 732 76
L 732 76
L 732 76
L 732 76
L 732 76
L 732 76
L 732 76
L 732 76
L 732 76
L 732 76
L 732 76
L 732 76
L 732 75
L 732 75
L 732 75
L 732 75
L 733 75
L 733 75
L 733 75
L 733 75
L 733 75
L 733 75
L 733 75
L 733 75
L 733 75
L 733 75
L 733 75
L 733 75
L 733 75
L 733 75
L 733 75
L 733 75
L 733 75
L 733 75
L 733 75
L 733 74
L 733 74
L 733 74
L 733 74
L 733 74
L 733 74
L 733 74
L 734 74
L 734 74
L 734 74
L 734 74
L 734 74
L 734 74
L 734 74
L 734 74
L 734 74
L 734 74
L 734 74
L 734 74
L 734 74
L 734 74
L 734 74
L 734 74
L 734 73
L 734 73
L 734 73
L 734 73
L 734 73
L 735 73
L 735 73
L 735 73
L 736 73
L 736 73
L 736 73
L 736 73
L 736 73
L 736 73
L 737 73
L 737 73
L 737 73
L 737 73
L 737 73
L 737 73
L 737 73
L 738 73
L 738 73
L 739 72
L 739 72
L 740 72
L 741 72
L 741 72
L 741 72
L 741 72
L 741 72
L 741 72
L 741 72
L 741 72
L 741 72
L 741 72
L 741 72
L 741 72
L 741 72
L 741 72
L 741 72
L 741 72
L 741 72
L 741 72
L 741 72
L 741 72
L 741 71
L 742 71
L 742 71
L 742 71
L 742 71
L 742 71
L 742 71
L 742 71
L 742 71
L 742 71
L 742 71
L 742 71
L 742 71
L 742 71
L 742 71
L 742 71
L 743 71
L 743 71
L 743 71
L 743 71
L 743 71
L 743 71
L 743 71
L 743 70
L 743 70
L 743 70
L 743 70
L 743 70
L 743 70
L 743 70
L 743 70
L 744 70
L 744 70
L 744 70
L 744 70
L 744 70
L 744 70
L 744 70
L 744 70
L 744 70
L 744 70
L 744 70
L 744 70
L 744 70
L 744 70
L 744 70
L 744 69
L 744 69
L 744 69
L 744 69
L 744 69
L 744 69
L 744 69
L 744 69
L 745 69
L 745 69
L 745 69
L 745 69
L 745 69
L 745 69
L 745 69
L 745 69
L 745 69
L 745 69
L 745 69
L 745 69
L 745 69
L 745 69
L 745 69
L 745 68
L 745 68
L 745 68
L 745 68
L 745 68
L 745 68
L 745 68
L 745 68
L 745 68
L 746 68
L 746 68
L 746 68
L 746 68
L 746 68
L 746 68
L 746 68
L 746 68
L 747 68
L 747 68
L 747 68
L 747 68
L 748 68
L 748 68
L 748 67
L 748 67
L 748 67
L 751 67
L 752 67
L 752 67
L 752 67
L 753 67
L 753 67
L 753 67
L 753 67
L 753 67
L 753 67
L 753 67
L 753 67
L 753 67
L 753 67
L 754 67
L 754 67
L 754 67
L 755 67
L 755 67
L 755 67
L 755 66
L 755 66
L 756 66
L 756 66
L 756 66
L 757 66
L 757 66
L 757 66
L 757 66
L 757 66
L 757 66
L 758 66
L 758 66
L 759 66
L 759 66
L 759 66
L 759 66
L 759 66
L 760 66
L 760 66
L 760 66
L 760 66
L 763 66
L 763 65
L 763 65
L 764 65
L 764 65
L 764 65
L 764 65
L 764 65
L 764 65
L 764 65
L 764 65
L 765 65
L 765 65
L 765 65
L 766 65
L 766 65
L 766 65
L 766 65
L 766 65
L 766 65
L 767 65
L 767 65
L 767 65
L 767 65
L 767 64
L 767 64
L 767 64
L 767 64
L 767 64
L 767 64
L 768 64
L 768 64
L 768 64
L 769 64
L 769 64
L 769 64
L 770 64
L 770 64
L 770 64
L 770 64
L 771 64
L 771 64
L 773 64
L 774 64
L 774 64
L 774 64
L 774 64
L 775 63
L 775 63
L 775 63
L 775 63
L 775 63
L 775 63
L 775 63
L 775 63
L 775 63
L 775 63
L 775 63
L 775 63
L 775 63
L 775 63
L 775 63
L 775 63
L 776 63
L 776 63
L 776 63
L 776 63
L 776 63
L 776 63
L 777 63
L 777 62
L 777 62
L 777 62
L 777 62
L 777 62
L 777 62
L 777 62
L 777 62
L 777 62
L 777 62
L 777 62
L 777 62
L 777 62
L 777 62
L 777 62
L 777 62
L 777 62
L 777 62
L 777 62
L 777 62
L 777 62
L 778 62
L 778 62
L 778 61
L 778 61
L 778 61
L 778 61
L 778 61
L 778 61
L 778 61
L 778 61
L 778 61
L 778 61
L 778 61
L 778 61
L 778 61
L 778 61
L 779 61
L 779 61
L 779 61
L 779 61
L 779 61
L 779 61
L 779 61
L 779 61
L 779 60
L 779 60
L 779 60
L 779 60
L 780 60
L 780 60
L 780 60
L 780 60
L 780 60
L 780 60
L 780 60
L 781 60
L 781 60
L 781 60
L 781 60
L 781 60
L 782 60
L 782 60
L 782 60
L 782 60
L 783 60
L 784 60
L 785 60
L 785 59
L 785 59
L 786 59
L 786 59
L 786 59
L 786 59
L 786 59
L 786 59
L 786 59
L 786 59
L 786 59
L 786 59
L 786 59
L 786 59
L 786 59
L 786 59
L 786 59
L 786 59
L 786 59
L 786 59
L 786 59
L 787 59
L 787 59
L 787 58
L 787 58
L 787 58
L 787 58
L 787 58
L 787 58
L 787 58
L 787 58
L 787 58
L 788 58
L 788 58
L 788 58
L 788 58
L 788 58
L 788 58
L 788 58
L 788 58
L 788 58
L 788 58
L 788 58
L 788 58
L 788 58
L 788 58
L 788 57
L 789 57
L 789 57
L 789 57
L 789 57
L 789 57
L 789 57
L 789 57
L 789 57
L 789 57
L 789 57
L 789 57
L 789 57
L 789 57
L 789 57
L 789 57
L 790 57
L 790 57
L 790 57
L 790 57
L 790 57
L 790 57
L 791 57
L 791 56
L 791 56
L 792 56
L 792 56
L 792 56
L 792 56
L 792 56
L 792 56
L 793 56
L 793 56
L 795 56
L 796 56
L 797 56
L 797 56
L 797 56
L 797 56
L 797 56
L 797 56
L 797 56
L 797 56
L 797 56
L 797 56
L 798 56
L 798 55
L 798 55
L 798 55
L 798 55
L 799 55
L 799 55
L 799 55
L 799 55
L 799 55
L 799 55
L 799 55
L 799 55
L 799 55
L 799 55
L 799 55
L 799 55
L 800 55
L 800 55
L 800 55
L 800 55
L 800 55
L 800 55
L 800 55
L 800 54
L 800 54
L 800 54
L 800 54
L 800 54
L 800 54
L 801 54
L 801 54
L 801 54
L 801 54
L 801 54
L 801 54
L 801 54
L 801 54
L 801 54
L 802 54
L 802 54
L 802 54
L 802 54
L 803 54
L 803 54
L 803 54
L 804 54
L 804 53
L 804 53
L 804 53
L 805 53
L 808 53
L 808 53
L 808 53
L 809 53
L 809 53
L 809 53
L 809 53
L 809 53
L 809 53
L 809 53
L 809 53
L 809 53
L 809 53
L 809 53
L 809 53
L 809 53
L 810 53
L 810 53
L 810 53
L 810 52
L 810 52
L 810 52
L 811 52
L 811 52
L 811 52
L 811 52
L 811 52
L 811 52
L 811 52
L 811 52
L 811 52
L 811 52
L 811 52
L 811 52
L 811 52
L 811 52
L 812 52
L 812 52
L 812 52
L 812 52
L 812 52
L 812 52
L 812 51
L 812 51
L 812 51
L 812 51
L 813 51
L 814 51
L 814 51
L 815 51
L 815 51
L 816 51
L 818 51
L 819 51
L 819 51
L 819 51
L 819 51
L 819 51
L 819 51
L 819 51
L 820 51
L 820 51
L 820 51
L 820 51
L 820 51
L 820 50
L 820 50
L 820 50
L 820 50
L 820 50
L 820 50
L 820 50
L 820 50
L 820 50
L 820 50
L 820 50
L 820 50
L 820 50
L 820 50
L 820 50
L 820 50
L 820 50
L 820 50
L 820 50
L 820 50
L 820 50
L 820 50
L 820 50
L 820 49
L 820 49
L 820 49
L 820 49
L 820 49
L 820 49
L 820 49
L 820 49
L 821 49
L 821 49
L 821 49
L 821 49
L 821 49
L 821 49
L 821 49
L 821 49
L 821 49
L 821 49
L 821 49
L 821 49
L 821 49
L 821 49
L 821 49
L 821 48
L 821 48
L 821 48
L 821 48
L 821 48
L 821 48
L 821 48
L 821 48
L 821 48
L 821 48
L 821 48
L 821 48
L 821 48
L 821 48
L 821 48
L 821 48
L 822 48
L 822 48
L 822 48
L 822 48
L 822 48
L 822 48
L 822 48
L 822 47
L 822 47
L 822 47
L 822 47
L 822 47
L 822 47
L 822 47
L 822 47
L 822 47
L 822 47
L 822 47
L 822 47
L 822 47
L 822 47
L 822 47
L 822 47
L 822 47
L 822 47
L 822 47
L 822 47
L 822 47
L 822 47
L 822 47
L 822 46
L 822 46
L 822 46
L 822 46
L 823 46
L 823 46
L 823 46
L 823 46
L 823 46
L 823 46
L 823 46
L 823 46
L 823 46
L 823 46
L 823 46
L 823 46
L 823 46
L 823 46
L 823 46
L 823 46
L 823 46
L 823 46
L 823 46
L 823 45
L 823 45
L 823 45
L 823 45
L 823 45
L 823 45
L 823 45
L 823 45
L 823 45
L 823 45
L 823 45
L 823 45
L 823 45
L 824 45
L 824 45
L 824 45
L 824 45
L 824 45
L 824 45
L 824 45
L 824 45
L 824 45
L 824 45
L 824 44
L 824 44
L 824 44
L 824 44
L 824 44
L 824 44
L 824 44
L 824 44
L 825 44
L 825 44
L 825 44
L 825 44
L 825 44
L 825 44
L 825 44
L 825 44
L 825 44
L 825 44
L 825 44
L 825 44
L 826 44
L 826 44
L 826 43
L 826 43
L 826 43
L 826 43
L 826 43
L 826 43
L 826 43
L 826 43
L 826 43
L 826 43
L 826 43
L 826 43
L 827 43
L 827 43
L 828 43
L 828 43
L 828 43
L 828 43
L 830 43
L 830 43
L 830 43
L 830 43
L 830 43
L 830 42
L 830 42
L 830 42
L 830 42
L 830 42
L 830 42
L 830 42
L 831 42
L 831 42
L 831 42
L 831 42
L 831 42
L 831 42
L 831 42
L 831 42
L 831 42
L 831 42
L 831 42
L 831 42
L 831 42
L 831 42
L 831 42
L 831 42
L 831 41
L 831 41
L 831 41
L 831 41
L 831 41
L 831 41
L 831 41
L 831 41
L 831 41
L 831 41
L 831 41
L 831 41
L 831 41
L 831 41
L 832 41
L 832 41
L 832 41
L 832 41
L 832 41
L 832 41
L 832 41
L 832 41
L 832 41
L 832 40
L 832 40
L 832 40
L 833 40
L 833 40
L 833 40
L 833 40
L 833 40
L 833 40
L 833 40
L 833 40
L 833 40
L 833 40
L 833 40
L 833 40
L 833 40
L 833 40
L 833 40
L 833 40
L 833 40
L 833 40
L 833 40
L 833 40
L 833 39
L 833 39
L 833 39
L 833 39
L 833 39
L 833 39
L 833 39
L 833 39
L 834 39
L 834 39
L 834 39
L 834 39
L 834 39
L 834 39
L 834 39
L 834 39
L 834 39
L 835 39
L 835 39
L 835 39
L 835 39
L 836 39
L 836 39
L 836 38
L 836 38
L 836 38
L 836 38
L 836 38
L 836 38
L 836 38
L 836 38
L 837 38
L 837 38
L 837 38
L 837 38
L 837 38
L 838 38
L 838 38
L 839 38
L 842 38
L 842 38
L 842 38
L 842 38
L 842 38
L 842 38
L 842 38
L 843 37
L 843 37
L 843 37
L 843 37
L 843 37
L 843 37
L 843 37
L 843 37
L 843 37
L 844 37
L 844 37
L 844 37
L 844 37
L 844 37
L 845 37
L 845 37
L 845 37
L 845 37
L 845 37
L 845 37
L 845 37
L 845 37
L 845 37
L 845 36
L 845 36
L 846 36
L 846 36
L 846 36
L 846 36
L 846 36
L 847 36
L 847 36
L 847 36
L 847 36
L 847 36
L 848 36
L 848 36
L 848 36
L 848 36
L 848 36
L 848 36
L 848 36
L 849 36
L 849 36
L 850 36
L 852 36
L 853 35
L 853 35
L 853 35
L 853 35
L 854 35
L 854 35
L 854 35
L 854 35
L 855 35
L 855 35
L 855 35
L 856 35
L 856 35
L 856 35
L 857 35
L 858 35
L 858 35
L 859 35
L 859 35
L 860 35
L 862 35
L 862 35
L 865 35
L 865 34
L 865 34
L 866 34
L 866 34
L 866 34
L 868 34
L 868 34
L 869 34
L 869 34
L 869 34
L 869 34
L 870 34
L 870 34
L 870 34
L 870 34
L 870 34
L 870 34
L 870 34
L 870 34
L 870 34
L 871 34
L 871 34
L 872 34
L 875 33
L 876 33
L 876 33
L 876 33
L 877 33
L 877 33
L 877 33
L 877 33
L 878 33
L 879 33
L 879 33
L 879 33
L 880 33
L 880 33
L 880 33
L 881 33
L 881 33
L 881 33
L 881 33
L 881 33
L 881 33
L 881 33
L 882 33
L 882 32
L 885 32
L 886 32
L 886 32
L 887 32
L 888 32
L 888 32
L 888 32
L 889 32
L 890 32
L 890 32
L 890 32
L 890 32
L 891 32
L 891 32
L 892 32
L 892 32
L 893 32
L 894 32
L 894 32
L 894 32
L 894 32
L 895 32
L 898 31
L 898 31
L 898 31
L 899 31
L 899 31
L 900 31
L 900 31
L 901 31
L 903 31
L 903 31
L 903 31
L 903 31
L 903 31
L 903 31
L 904 31
L 906 31
L 906 31
L 906 31
L 908 31
L 909 31
L 911 31
L 912 31
L 912 31
L 913 30
L 913 30
L 914 30
L 915 30
L 915 30
L 915 30
L 915 30
L 915 30
L 915 30
L 915 30
L 916 30
L 917 30
L 919 30
L 919 30
L 919 30
L 920 30
L 920 30
L 921 30
L 921 30
L 921 30
L 921 30
L 921 30
L 921 30
L 921 29
L 922 29
L 922 29
L 923 29
L 923 29
L 923 29
L 923 29
L 923 29
L 923 29
L 924 29
L 924 29
L 925 29
L 925 29
L 925 29
L 925 29
L 926 29
L 926 29
L 926 29
L 927 29
L 927 29
L 927 29
L 929 29
L 930 29
L 931 28
L 931 28
L 931 28
L 931 28
L 931 28
L 931 28
L 931 28
L 931 28
L 931 28
L 931 28
L 931 28
L 931 28
L 931 28
L 931 28
L 931 28
L 931 28
L 931 28
L 931 28
L 931 28
L 931 28
L 932 28
L 932 28
L 932 28
L 932 27
L 932 27
L 932 27
L 932 27
L 932 27
L 932 27
L 932 27
L 932 27
L 932 27
L 932 27
L 932 27
L 932 27
L 933 27
L 933 27
L 933 27
L 933 27
L 933 27
L 933 27
L 933 27
L 933 27
L 933 27
L 933 27
L 933 26
L 933 26
L 933 26
L 933 26
L 933 26
L 933 26
L 933 26
L 933 26
L 933 26
L 934 26
L 934 26
L 934 26
L 934 26
L 934 26
L 934 26
L 934 26
L 934 26
L 934 26
L 934 26
L 934 26
L 934 26
L 934 26
L 934 26
L 934 25
L 934 25
L 934 25
L 934 25
L 934 25
L 934 25
L 934 25
L 934 25
L 934 25
L 934 25
L 935 25
L 935 25
L 935 25
L 935 25
L 935 25
L 935 25
L 935 25
L 935 25
L 935 25
L 935 25
L 935 25
L 935 25
L 935 25
L 935 24
L 935 24
L 935 24
L 935 24
L 935 24
L 936 24
L 936 24
L 936 24
L 936 24
L 936 24
L 936 24
L 936 24
L 937 24
L 937 24
L 937 24
L 937 24
L 937 24
L 937 24
L 937 24
L 938 24
L 938 24
L 939 24
L 941 24
L 942 23
L 942 23
L 942 23
L 942 23
L 942 23
L 942 23
L 942 23
L 942 23
L 942 23
L 942 23
L 942 23
L 942 23
L 942 23
L 942 23
L 942 23
L 942 23
L 942 23
L 942 23
L 943 23
L 943 23
L 943 23
L 943 23
L 943 23
L 943 22
L 943 22
L 943 22
L 943 22
L 943 22
L 943 22
L 943 22
L 943 22
L 943 22
L 943 22
L 943 22
L 943 22
L 943 22
L 943 22
L 943 22
L 943 22
L 943 22
L 943 22
L 943 22
L 943 22
L 944 22
L 944 22
L 944 22
L 944 21
L 944 21
L 944 21
L 944 21
L 944 21
L 944 21
L 944 21
L 944 21
L 944 21
L 944 21
L 944 21
L 944 21
L 944 21
L 944 21
L 944 21
L 944 21
L 944 21
L 944 21
L 944 21
L 945 21
L 945 21
L 945 21
L 945 21
L 945 20
L 945 20
L 945 20
L 945 20
L 945 20
L 945 20
L 945 20
L 945 20
L 945 20
L 945 20
L 945 20
L 945 20
L 945 20
L 945 20
L 945 20
L 945 20
L 945 20
L 945 20
L 945 20
L 945 20
L 945 20
L 945 20
L 945 20
L 945 19
L 945 19
L 945 19
L 945 19
L 946 19
L 946 19
L 946 19
L 946 19
L 946 19
L 946 19
L 946 19
L 946 19
L 946 19
L 946 19
L 946 19
L 946 19
L 946 19
L 946 19
L 946 19
L 946 19
L 946 19
L 946 19
L 946 19
L 946 18
L 946 18
L 946 18
L 946 18
L 946 18
L 946 18
L 947 18
L 947 18
L 947 18
L 947 18
L 947 18
L 947 18
L 947 18
L 947 18
L 947 18
L 947 18
L 948 18
L 948 18
L 948 18
L 948 18
L 948 18
L 948 18
L 948 18
L 948 17
L 949 17
L 949 17
L 949 17
L 949 17
L 950 17
L 950 17
L 950 17
L 951 17
L 953 17
L 953 17
L 953 17
L 953 17
L 953 17
L 953 17
L 953 17
L 953 17
L 953 17
L 953 17
L 953 17
L 953 17
L 953 17
L 953 17
L 953 16
L 953 16
L 953 16
L 953 16
L 953 16
L 953 16
L 953 16
L 953 16
L 954 16
L 954 16
L 954 16
L 954 16
L 954 16
L 954 16
L 954 16
L 954 16
L 954 16
L 954 16
L 954 16
L 954 16
L 954 16
L 954 16
L 954 16
L 954 15
L 954 15
L 954 15
L 954 15
L 954 15
L 954 15
L 954 15
L 954 15
L 954 15
L 954 15
L 954 15
L 954 15
L 954 15
L 954 15
L 954 15
L 954 15
L 954 15
L 954 15
L 954 15
L 954 15
L 954 15
L 954 15
L 954 15
L 954 14
L 954 14
L 954 14
L 954 14
L 954 14
L 954 14
L 954 14
L 954 14
L 954 14
L 954 14
L 954 14
L 954 14
L 954 14
L 955 14
L 955 14
L 955 14
L 955 14
L 955 14
L 955 14
L 955 14
L 955 14
L 955 14
L 955 14
L 955 13
L 956 13
L 956 13
L 956 13
L 956 13
L 956 13
L 956 13
L 956 13
L 956 13
L 956 13
L 956 13
L 956 13
L 956 13
L 956 13
L 956 13
L 956 13
L 956 13
L 956 13
L 956 13
L 956 13
L 956 13
L 956 13
L 956 13
L 956 12
L 956 12
L 956 12
L 956 12
L 956 12
L 956 12
L 956 12
L 956 12
L 956 12
L 956 12
L 956 12
L 956 12
L 956 12
L 956 12
L 956 12
L 956 12
L 956 12
L 957 12
L 957 12
L 957 12
L 957 12
L 957 12
L 957 12
L 957 11
L 957 11
L 957 11
L 957 11
L 957 11
L 957 11
L 957 11
L 957 11
L 957 11
L 957 11
L 957 11
L 957 11
L 957 11
L 957 11
L 957 11
L 957 11
L 957 11
L 957 11
L 957 11
L 957 11
L 957 11
L 957 11" style="stroke-width:2;stroke:rgba(129,199,239,1.0);fill:none"/></svg>