<svg xmlns="http://www.w3.org/2000/svg" xmlns:xlink="http://www.w3.org/1999/xlink" width="1024" height="400">\n<path  d="M 0 0
L 1024 0
L 1024 400
L 0 400
L 0 0" style="stroke-width:0;stroke:rgba(255,255,255,1.0);fill:rgba(255,255,255,1.0)"/><path  d="M 38 11
L 957 11
L 957 351
L 38 351
L 38 11" style="stroke-width:0;stroke:rgba(255,255,255,1.0);fill:rgba(255,255,255,1.0)"/><path  d="M 38 351
L 957 351" style="stroke-width:2;stroke:rgba(85,85,85,1.0);fill:none"/><path  d="M 38 351
L 38 356" style="stroke-width:2;stroke:rgba(85,85,85,1.0);fill:none"/><text x="5" y="373" style="stroke-width:0;stroke:none;fill:rgba(51,51,51,1.0);font-size:12.8px;font-family:'Roboto Medium',sans-serif">2018-11-23</text><path  d="M 153 351
L 153 356" style="stroke-width:2;stroke:rgba(85,85,85,1.0);fill:none"/><text x="120" y="373" style="stroke-width:0;stroke:none;fill:rgba(51,51,51,1.0);font-size:12.8px;font-family:'Roboto Medium',sans-serif">2018-11-30</text><path  d="M 268 351
L 268 356" style="stroke-width:2;stroke:rgba(85,85,85,1.0);fill:none"/><text x="235" y="373" style="stroke-width:0;stroke:none;fill:rgba(51,51,51,1.0);font-size:12.8px;font-family:'Roboto Medium',sans-serif">2018-12-07</text><path  d="M 383 351
L 383 356" style="stroke-width:2;stroke:rgba(85,85,85,1.0);fill:none"/><text x="350" y="373" style="stroke-width:0;stroke:none;fill:rgba(51,51,51,1.0);font-size:12.8px;font-family:'Roboto Medium',sans-serif">2018-12-14</text><path  d="M 498 351
L 498 356" style="stroke-width:2;stroke:rgba(85,85,85,1.0);fill:none"/><text x="465" y="373" style="stroke-width:0;stroke:none;fill:rgba(51,51,51,1.0);font-size:12.8px;font-family:'Roboto Medium',sans-serif">2018-12-21</text><path  d="M 613 351
L 613 356" style="stroke-width:2;stroke:rgba(85,85,85,1.0);fill:none"/><text x="580" y="373" style="stroke-width:0;stroke:none;fill:rgba(51,51,51,1.0);font-size:12.8px;font-family:'Roboto Medium',sans-serif">2018-12-28</text><path  d="M 728 351
L 728 356" style="stroke-width:2;stroke:rgba(85,85,85,1.0);fill:none"/><text x="695" y="373" style="stroke-width:0;stroke:none;fill:rgba(51,51,51,1.0);font-size:12.8px;font-family:'Roboto Medium',sans-serif">2019-01-04</text><path  d="M 843 351
L 843 356" style="stroke-width:2;stroke:rgba(85,85,85,1.0);fill:none"/><text x="810" y="373" style="stroke-width:0;stroke:none;fill:rgba(51,51,51,1.0);font-size:12.8px;font-family:'Roboto Medium',sans-serif">2019-01-11</text><path  d="M 957 351
L 957 356" style="stroke-width:2;stroke:rgba(85,85,85,1.0);fill:none"/><text x="924" y="373" style="stroke-width:0;stroke:none;fill:rgba(51,51,51,1.0);font-size:12.8px;font-family:'Roboto Medium',sans-serif">2019-01-18</text><text x="483" y="395" style="stroke-width:0;stroke:none;fill:rgba(51,51,51,1.0);font-size:12.8px;font-family:'Roboto Medium',sans-serif">Time</text><path  d="M 959 351
L 959 11" style="stroke-width:2;stroke:rgba(85,85,85,1.0);fill:none"/><path  d="M 959 351
L 964 351" style="stroke-width:2;stroke:rgba(85,85,85,1.0);fill:none"/><text x="969" y="357" style="stroke-width:0;stroke:none;fill:rgba(51,51,51,1.0);font-size:12.8px;font-family:'Roboto Medium',sans-serif">0</text><path  d="M 959 308
L 964 308" style="stroke-width:2;stroke:rgba(85,85,85,1.0);fill:none"/><text x="969" y="314" style="stroke-width:0;stroke:none;fill:rgba(51,51,51,1.0);font-size:12.8px;font-family:'Roboto Medium',sans-serif">730</text><path  d="M 959 266
L 964 266" style="stroke-width:2;stroke:rgba(85,85,85,1.0);fill:none"/><text x="969" y="272" style="stroke-width:0;stroke:none;fill:rgba(51,51,51,1.0);font-size:12.8px;font-family:'Roboto Medium',sans-serif">1450</text><path  d="M 959 223
L 964 223" style="stroke-width:2;stroke:rgba(85,85,85,1.0);fill:none"/><text x="969" y="229" style="stroke-width:0;stroke:none;fill:rgba(51,51,51,1.0);font-size:12.8px;font-family:'Roboto Medium',sans-serif">2180</text><path  d="M 959 181
L 964 181" style="stroke-width:2;stroke:rgba(85,85,85,1.0);fill:none"/><text x="969" y="187" style="stroke-width:0;stroke:none;fill:rgba(51,51,51,1.0);font-size:12.8px;font-family:'Roboto Medium',sans-serif">2900</text><path  d="M 959 138
L 964 138" style="stroke-width:2;stroke:rgba(85,85,85,1.0);fill:none"/><text x="969" y="144" style="stroke-width:0;stroke:none;fill:rgba(51,51,51,1.0);font-size:12.8px;font-family:'Roboto Medium',sans-serif">3630</text><path  d="M 959 96
L 964 96" style="stroke-width:2;stroke:rgba(85,85,85,1.0);fill:none"/><text x="969" y="102" style="stroke-width:0;stroke:none;fill:rgba(51,51,51,1.0);font-size:12.8px;font-family:'Roboto Medium',sans-serif">4350</text><path  d="M 959 53
L 964 53" style="stroke-width:2;stroke:rgba(85,85,85,1.0);fill:none"/><text x="969" y="59" style="stroke-width:0;stroke:none;fill:rgba(51,51,51,1.0);font-size:12.8px;font-family:'Roboto Medium',sans-serif">5080</text><path  d="M 959 11
L 964 11" style="stroke-width:2;stroke:rgba(85,85,85,1.0);fill:none"/><text x="969" y="17" style="stroke-width:0;stroke:none;fill:rgba(51,51,51,1.0);font-size:12.8px;font-family:'Roboto Medium',sans-serif">5800</text><text x="1009" y="150" style="stroke-width:0;stroke:none;fill:rgba(51,51,51,1.0);font-size:12.8px;font-family:'Roboto Medium',sans-serif" transform="rotate(90.00,1009,150)">Stargazers</text><path  d="M 38 351
L 124 350
L 185 350
L 188 350
L 200 350
L 200 350
L 200 350
L 202 350
L 202 350
L 202 350
L 203 350
L 203 350
L 203 350
L 203 350
L 203 350
L 203 350
L 203 350
L 203 350
L 204 349
L 204 349
L 204 349
L 205 349
L 207 349
L 208 349
L 217 349
L 217 349
L 217 349
L 217 349
L 218 349
L 220 349
L 222 349
L 223 349
L 225 349
L 225 349
L 225 349
L 225 348
L 225 348
L 225 348
L 230 348
L 232 348
L 233 348
L 233 348
L 233 348
L 233 348
L 233 348
L 234 348
L 234 348
L 234 348
L 234 348
L 235 348
L 237 348
L 237 348
L 238 347
L 238 347
L 238 347
L 238 347
L 238 347
L 238 347
L 238 347
L 239 347
L 240 347
L 240 347
L 240 347
L 240 347
L 240 347
L 241 347
L 241 347
L 242 347
L 242 347
L 242 346
L 242 346
L 243 346
L 247 346
L 249 346
L 250 346
L 250 346
L 250 346
L 250 346
L 250 346
L 250 346
L 250 346
L 252 346
L 252 346
L 252 346
L 252 346
L 252 346
L 252 345
L 252 345
L 252 345
L 252 345
L 252 345
L 252 345
L 252 345
L 252 345
L 252 345
L 252 345
L 252 345
L 252 345
L 252 345
L 252 345
L 252 345
L 252 345
L 252 345
L 252 344
L 252 344
L 252 344
L 252 344
L 252 344
L 252 344
L 252 344
L 252 344
L 252 344
L 252 344
L 252 344
L 252 344
L 252 344
L 252 344
L 253 344
L 253 344
L 253 344
L 253 343
L 253 343
L 253 343
L 253 343
L 253 343
L 253 343
L 253 343
L 253 343
L 253 343
L 253 343
L 253 343
L 253 343
L 253 343
L 254 343
L 254 343
L 254 343
L 254 343
L 254 342
L 254 342
L 255 342
L 255 342
L 255 342
L 255 342
L 255 342
L 255 342
L 255 342
L 255 342
L 255 342
L 256 342
L 256 342
L 256 342
L 256 342
L 256 342
L 256 342
L 256 341
L 256 341
L 257 341
L 257 341
L 257 341
L 257 341
L 259 341
L 260 341
L 265 341
L 265 341
L 266 341
L 266 341
L 266 341
L 266 341
L 266 341
L 266 341
L 267 341
L 268 340
L 268 340
L 268 340
L 268 340
L 269 340
L 269 340
L 269 340
L 270 340
L 270 340
L 270 340
L 271 340
L 271 340
L 271 340
L 271 340
L 272 340
L 272 340
L 273 340
L 282 339
L 283 339
L 283 339
L 283 339
L 283 339
L 283 339
L 285 339
L 286 339
L 287 339
L 291 339
L 292 339
L 292 339
L 295 339
L 299 339
L 300 339
L 302 339
L 303 339
L 303 338
L 304 338
L 304 338
L 305 338
L 305 338
L 305 338
L 306 338
L 306 338
L 306 338
L 306 338
L 309 338
L 314 338
L 314 338
L 314 338
L 316 338
L 316 338
L 316 338
L 318 337
L 319 337
L 320 337
L 324 337
L 324 337
L 331 337
L 334 337
L 334 337
L 335 337
L 335 337
L 338 337
L 338 337
L 347 337
L 348 337
L 348 337
L 348 337
L 349 337
L 351 336
L 351 336
L 353 336
L 354 336
L 355 336
L 357 336
L 359 336
L 364 336
L 370 336
L 371 336
L 379 336
L 381 336
L 381 336
L 384 336
L 384 336
L 384 336
L 385 336
L 387 335
L 388 335
L 388 335
L 389 335
L 389 335
L 391 335
L 394 335
L 397 335
L 400 335
L 400 335
L 400 335
L 400 335
L 401 335
L 402 335
L 403 335
L 404 335
L 405 335
L 406 334
L 406 334
L 407 334
L 413 334
L 413 334
L 413 334
L 415 334
L 417 334
L 420 334
L 421 334
L 421 334
L 422 334
L 428 334
L 429 334
L 429 334
L 430 334
L 430 334
L 431 334
L 435 333
L 435 333
L 437 333
L 439 333
L 446 333
L 447 333
L 450 333
L 450 333
L 451 333
L 451 333
L 452 333
L 453 333
L 454 333
L 456 333
L 456 333
L 462 333
L 463 333
L 465 332
L 465 332
L 465 332
L 466 332
L 466 332
L 467 332
L 469 332
L 478 332
L 479 332
L 479 332
L 479 332
L 481 332
L 482 332
L 483 332
L 484 332
L 484 332
L 487 332
L 487 331
L 487 331
L 487 331
L 487 331
L 489 331
L 495 331
L 496 331
L 496 331
L 496 331
L 496 331
L 496 331
L 496 331
L 497 331
L 497 331
L 497 331
L 498 331
L 498 331
L 499 330
L 499 330
L 499 330
L 499 330
L 499 330
L 499 330
L 499 330
L 499 330
L 499 330
L 499 330
L 499 330
L 499 330
L 499 330
L 499 330
L 499 330
L 499 330
L 499 330
L 499 329
L 500 329
L 500 329
L 500 329
L 500 329
L 500 329
L 500 329
L 500 329
L 500 329
L 500 329
L 500 329
L 501 329
L 501 329
L 501 329
L 501 329
L 501 329
L 501 329
L 501 328
L 501 328
L 501 328
L 501 328
L 501 328
L 501 328
L 501 328
L 501 328
L 501 328
L 501 328
L 501 328
L 501 328
L 501 328
L 501 328
L 501 328
L 502 328
L 502 328
L 502 327
L 502 327
L 503 327
L 503 327
L 503 327
L 503 327
L 503 327
L 503 327
L 503 327
L 503 327
L 503 327
L 504 327
L 504 327
L 504 327
L 504 327
L 504 327
L 504 327
L 505 326
L 506 326
L 506 326
L 506 326
L 511 326
L 512 326
L 512 326
L 512 326
L 512 326
L 512 326
L 512 326
L 512 326
L 513 326
L 513 326
L 513 326
L 513 326
L 513 326
L 513 325
L 513 325
L 513 325
L 513 325
L 513 325
L 513 325
L 513 325
L 514 325
L 514 325
L 514 325
L 514 325
L 514 325
L 514 325
L 514 325
L 514 325
L 515 325
L 515 325
L 515 324
L 515 324
L 515 324
L 515 324
L 515 324
L 515 324
L 515 324
L 515 324
L 516 324
L 516 324
L 516 324
L 516 324
L 516 324
L 516 324
L 516 324
L 516 324
L 516 324
L 516 323
L 516 323
L 516 323
L 516 323
L 516 323
L 517 323
L 517 323
L 517 323
L 517 323
L 517 323
L 517 323
L 517 323
L 517 323
L 517 323
L 517 323
L 517 323
L 517 323
L 517 322
L 517 322
L 517 322
L 517 322
L 517 322
L 517 322
L 517 322
L 518 322
L 518 322
L 518 322
L 518 322
L 519 322
L 519 322
L 519 322
L 519 322
L 519 322
L 519 322
L 519 321
L 519 321
L 519 321
L 519 321
L 519 321
L 519 321
L 519 321
L 520 321
L 520 321
L 520 321
L 520 321
L 520 321
L 520 321
L 520 321
L 520 321
L 520 321
L 520 321
L 520 320
L 520 320
L 520 320
L 520 320
L 521 320
L 521 320
L 521 320
L 521 320
L 521 320
L 521 320
L 521 320
L 521 320
L 521 320
L 521 320
L 521 320
L 521 320
L 521 320
L 521 319
L 521 319
L 521 319
L 522 319
L 522 319
L 522 319
L 522 319
L 522 319
L 522 319
L 522 319
L 522 319
L 522 319
L 523 319
L 523 319
L 523 319
L 524 319
L 524 319
L 526 318
L 526 318
L 527 318
L 527 318
L 527 318
L 527 318
L 527 318
L 527 318
L 528 318
L 528 318
L 528 318
L 528 318
L 528 318
L 528 318
L 528 318
L 528 318
L 528 318
L 528 317
L 528 317
L 529 317
L 529 317
L 529 317
L 529 317
L 529 317
L 529 317
L 529 317
L 529 317
L 529 317
L 529 317
L 529 317
L 529 317
L 529 317
L 530 317
L 530 317
L 530 317
L 530 316
L 530 316
L 530 316
L 530 316
L 530 316
L 530 316
L 530 316
L 530 316
L 530 316
L 530 316
L 530 316
L 530 316
L 531 316
L 531 316
L 531 316
L 531 316
L 531 316
L 531 315
L 531 315
L 531 315
L 531 315
L 531 315
L 531 315
L 531 315
L 531 315
L 531 315
L 532 315
L 532 315
L 532 315
L 532 315
L 532 315
L 532 315
L 532 315
L 532 315
L 532 314
L 532 314
L 532 314
L 532 314
L 532 314
L 532 314
L 532 314
L 532 314
L 532 314
L 532 314
L 532 314
L 533 314
L 533 314
L 533 314
L 533 314
L 533 314
L 533 314
L 533 313
L 533 313
L 533 313
L 533 313
L 534 313
L 534 313
L 534 313
L 534 313
L 534 313
L 534 313
L 534 313
L 534 313
L 534 313
L 534 313
L 535 313
L 535 313
L 535 313
L 535 312
L 535 312
L 535 312
L 535 312
L 535 312
L 535 312
L 535 312
L 535 312
L 535 312
L 535 312
L 535 312
L 535 312
L 535 312
L 536 312
L 536 312
L 536 312
L 536 312
L 536 311
L 536 311
L 536 311
L 536 311
L 536 311
L 536 311
L 536 311
L 536 311
L 536 311
L 536 311
L 536 311
L 536 311
L 537 311
L 537 311
L 537 311
L 537 311
L 537 311
L 537 310
L 537 310
L 537 310
L 537 310
L 537 310
L 537 310
L 537 310
L 537 310
L 537 310
L 537 310
L 537 310
L 537 310
L 537 310
L 537 310
L 538 310
L 538 310
L 538 310
L 538 309
L 538 309
L 538 309
L 538 309
L 538 309
L 538 309
L 538 309
L 538 309
L 538 309
L 538 309
L 539 309
L 539 309
L 539 309
L 540 309
L 540 309
L 540 309
L 540 309
L 540 308
L 542 308
L 543 308
L 543 308
L 543 308
L 543 308
L 543 308
L 544 308
L 544 308
L 544 308
L 544 308
L 544 308
L 544 308
L 544 308
L 544 308
L 544 308
L 544 308
L 544 307
L 544 307
L 544 307
L 544 307
L 544 307
L 544 307
L 544 307
L 544 307
L 544 307
L 544 307
L 544 307
L 544 307
L 544 307
L 544 307
L 544 307
L 544 307
L 544 307
L 544 306
L 544 306
L 544 306
L 544 306
L 544 306
L 544 306
L 544 306
L 544 306
L 544 306
L 544 306
L 544 306
L 544 306
L 544 306
L 544 306
L 544 306
L 544 306
L 544 306
L 544 305
L 544 305
L 544 305
L 544 305
L 544 305
L 544 305
L 545 305
L 545 305
L 545 305
L 545 305
L 545 305
L 545 305
L 545 305
L 545 305
L 545 305
L 545 305
L 545 305
L 545 304
L 545 304
L 545 304
L 545 304
L 545 304
L 545 304
L 545 304
L 545 304
L 545 304
L 545 304
L 545 304
L 545 304
L 545 304
L 545 304
L 545 304
L 545 304
L 545 304
L 545 303
L 545 303
L 545 303
L 545 303
L 545 303
L 545 303
L 545 303
L 545 303
L 545 303
L 545 303
L 545 303
L 545 303
L 545 303
L 545 303
L 545 303
L 545 303
L 545 303
L 545 302
L 545 302
L 545 302
L 545 302
L 545 302
L 545 302
L 545 302
L 545 302
L 545 302
L 545 302
L 545 302
L 545 302
L 545 302
L 545 302
L 545 302
L 545 302
L 545 302
L 545 301
L 545 301
L 545 301
L 545 301
L 546 301
L 546 301
L 546 301
L 546 301
L 546 301
L 546 301
L 546 301
L 546 301
L 546 301
L 546 301
L 546 301
L 546 301
L 546 301
L 546 300
L 546 300
L 546 300
L 546 300
L 546 300
L 546 300
L 546 300
L 546 300
L 546 300
L 546 300
L 546 300
L 546 300
L 546 300
L 546 300
L 546 300
L 546 300
L 546 300
L 546 300
L 546 299
L 547 299
L 547 299
L 547 299
L 547 299
L 547 299
L 547 299
L 547 299
L 547 299
L 547 299
L 547 299
L 547 299
L 547 299
L 547 299
L 547 299
L 547 299
L 547 299
L 547 298
L 547 298
L 547 298
L 547 298
L 547 298
L 547 298
L 547 298
L 547 298
L 547 298
L 547 298
L 547 298
L 547 298
L 547 298
L 547 298
L 547 298
L 547 298
L 547 298
L 547 297
L 547 297
L 547 297
L 547 297
L 547 297
L 548 297
L 548 297
L 548 297
L 548 297
L 548 297
L 548 297
L 548 297
L 548 297
L 548 297
L 548 297
L 548 297
L 548 297
L 548 296
L 548 296
L 548 296
L 548 296
L 548 296
L 548 296
L 548 296
L 548 296
L 548 296
L 548 296
L 548 296
L 548 296
L 548 296
L 548 296
L 548 296
L 548 296
L 548 296
L 548 295
L 548 295
L 548 295
L 548 295
L 548 295
L 548 295
L 548 295
L 548 295
L 548 295
L 548 295
L 548 295
L 548 295
L 548 295
L 548 295
L 548 295
L 548 295
L 548 295
L 548 294
L 548 294
L 548 294
L 548 294
L 548 294
L 548 294
L 548 294
L 548 294
L 548 294
L 548 294
L 548 294
L 548 294
L 548 294
L 548 294
L 548 294
L 548 294
L 548 294
L 549 293
L 549 293
L 549 293
L 549 293
L 549 293
L 549 293
L 549 293
L 549 293
L 549 293
L 549 293
L 549 293
L 549 293
L 549 293
L 549 293
L 549 293
L 549 293
L 549 293
L 549 292
L 549 292
L 549 292
L 549 292
L 549 292
L 549 292
L 549 292
L 549 292
L 549 292
L 549 292
L 549 292
L 549 292
L 549 292
L 549 292
L 549 292
L 549 292
L 549 292
L 549 291
L 549 291
L 550 291
L 550 291
L 550 291
L 550 291
L 550 291
L 550 291
L 550 291
L 550 291
L 550 291
L 550 291
L 550 291
L 550 291
L 550 291
L 550 291
L 550 291
L 550 290
L 550 290
L 550 290
L 550 290
L 550 290
L 550 290
L 550 290
L 550 290
L 550 290
L 550 290
L 550 290
L 550 290
L 550 290
L 550 290
L 550 290
L 550 290
L 550 290
L 550 289
L 550 289
L 550 289
L 550 289
L 550 289
L 550 289
L 550 289
L 550 289
L 550 289
L 550 289
L 550 289
L 550 289
L 550 289
L 550 289
L 550 289
L 551 289
L 551 289
L 551 288
L 551 288
L 551 288
L 551 288
L 551 288
L 551 288
L 551 288
L 551 288
L 551 288
L 551 288
L 551 288
L 551 288
L 551 288
L 551 288
L 551 288
L 551 288
L 551 288
L 551 287
L 552 287
L 552 287
L 552 287
L 552 287
L 552 287
L 552 287
L 552 287
L 552 287
L 552 287
L 552 287
L 552 287
L 552 287
L 552 287
L 552 287
L 552 287
L 552 287
L 552 286
L 553 286
L 553 286
L 553 286
L 553 286
L 553 286
L 553 286
L 553 286
L 553 286
L 553 286
L 553 286
L 553 286
L 553 286
L 553 286
L 553 286
L 553 286
L 553 286
L 553 285
L 553 285
L 554 285
L 554 285
L 554 285
L 554 285
L 554 285
L 554 285
L 554 285
L 554 285
L 554 285
L 554 285
L 554 285
L 554 285
L 554 285
L 554 285
L 554 285
L 554 284
L 554 284
L 554 284
L 555 284
L 555 284
L 555 284
L 555 284
L 555 284
L 555 284
L 555 284
L 556 284
L 556 284
L 557 284
L 559 284
L 560 284
L 560 284
L 560 284
L 560 283
L 560 283
L 560 283
L 560 283
L 560 283
L 560 283
L 560 283
L 560 283
L 560 283
L 560 283
L 560 283
L 561 283
L 561 283
L 561 283
L 561 283
L 561 283
L 561 283
L 561 283
L 561 282
L 561 282
L 561 282
L 561 282
L 561 282
L 561 282
L 561 282
L 561 282
L 561 282
L 561 282
L 561 282
L 561 282
L 561 282
L 561 282
L 561 282
L 561 282
L 561 282
L 561 281
L 561 281
L 561 281
L 561 281
L 561 281
L 561 281
L 561 281
L 561 281
L 561 281
L 561 281
L 561 281
L 561 281
L 561 281
L 561 281
L 561 281
L 561 281
L 561 281
L 561 280
L 561 280
L 561 280
L 561 280
L 561 280
L 561 280
L 561 280
L 561 280
L 561 280
L 561 280
L 561 280
L 561 280
L 561 280
L 561 280
L 561 280
L 561 280
L 561 280
L 561 279
L 561 279
L 561 279
L 561 279
L 561 279
L 561 279
L 561 279
L 561 279
L 561 279
L 561 279
L 561 279
L 561 279
L 561 279
L 561 279
L 561 279
L 561 279
L 561 279
L 562 278
L 562 278
L 562 278
L 562 278
L 562 278
L 562 278
L 562 278
L 562 278
L 562 278
L 562 278
L 562 278
L 562 278
L 562 278
L 562 278
L 562 278
L 562 278
L 562 278
L 562 277
L 562 277
L 562 277
L 562 277
L 562 277
L 562 277
L 562 277
L 562 277
L 562 277
L 562 277
L 562 277
L 562 277
L 562 277
L 562 277
L 562 277
L 562 277
L 562 277
L 562 276
L 562 276
L 562 276
L 562 276
L 562 276
L 562 276
L 562 276
L 562 276
L 562 276
L 562 276
L 562 276
L 562 276
L 562 276
L 562 276
L 562 276
L 562 276
L 562 276
L 562 275
L 562 275
L 562 275
L 562 275
L 562 275
L 562 275
L 563 275
L 563 275
L 563 275
L 563 275
L 563 275
L 563 275
L 563 275
L 563 275
L 563 275
L 563 275
L 563 275
L 563 274
L 563 274
L 563 274
L 563 274
L 563 274
L 563 274
L 563 274
L 563 274
L 563 274
L 563 274
L 563 274
L 564 274
L 564 274
L 564 274
L 564 274
L 564 274
L 564 274
L 564 273
L 564 273
L 564 273
L 564 273
L 564 273
L 564 273
L 564 273
L 564 273
L 564 273
L 564 273
L 564 273
L 564 273
L 564 273
L 564 273
L 564 273
L 564 273
L 564 273
L 564 272
L 564 272
L 564 272
L 564 272
L 564 272
L 564 272
L 564 272
L 564 272
L 564 272
L 564 272
L 564 272
L 564 272
L 564 272
L 564 272
L 564 272
L 564 272
L 564 272
L 564 271
L 564 271
L 564 271
L 564 271
L 564 271
L 565 271
L 565 271
L 565 271
L 565 271
L 565 271
L 565 271
L 565 271
L 565 271
L 565 271
L 565 271
L 565 271
L 565 271
L 565 270
L 565 270
L 565 270
L 565 270
L 565 270
L 565 270
L 565 270
L 565 270
L 565 270
L 565 270
L 565 270
L 565 270
L 565 270
L 565 270
L 565 270
L 565 270
L 565 270
L 565 269
L 565 269
L 565 269
L 565 269
L 565 269
L 565 269
L 565 269
L 565 269
L 565 269
L 565 269
L 565 269
L 565 269
L 565 269
L 565 269
L 566 269
L 566 269
L 566 269
L 566 268
L 566 268
L 566 268
L 566 268
L 566 268
L 566 268
L 566 268
L 566 268
L 566 268
L 566 268
L 566 268
L 566 268
L 566 268
L 566 268
L 566 268
L 566 268
L 566 268
L 566 267
L 566 267
L 566 267
L 566 267
L 566 267
L 566 267
L 566 267
L 566 267
L 566 267
L 566 267
L 566 267
L 566 267
L 566 267
L 566 267
L 566 267
L 566 267
L 566 267
L 566 266
L 566 266
L 566 266
L 567 266
L 567 266
L 567 266
L 567 266
L 567 266
L 567 266
L 567 266
L 567 266
L 567 266
L 567 266
L 567 266
L 567 266
L 567 266
L 567 266
L 567 266
L 567 265
L 567 265
L 567 265
L 567 265
L 567 265
L 567 265
L 567 265
L 567 265
L 567 265
L 567 265
L 567 265
L 567 265
L 567 265
L 567 265
L 567 265
L 567 265
L 567 265
L 567 264
L 567 264
L 567 264
L 567 264
L 567 264
L 567 264
L 567 264
L 567 264
L 567 264
L 567 264
L 567 264
L 567 264
L 567 264
L 567 264
L 567 264
L 567 264
L 567 264
L 567 263
L 567 263
L 567 263
L 568 263
L 568 263
L 568 263
L 568 263
L 568 263
L 568 263
L 568 263
L 568 263
L 568 263
L 568 263
L 568 263
L 568 263
L 568 263
L 568 263
L 568 262
L 568 262
L 568 262
L 568 262
L 568 262
L 568 262
L 568 262
L 568 262
L 568 262
L 568 262
L 568 262
L 568 262
L 569 262
L 569 262
L 569 262
L 569 262
L 569 262
L 569 261
L 569 261
L 569 261
L 569 261
L 569 261
L 569 261
L 569 261
L 569 261
L 569 261
L 569 261
L 569 261
L 569 261
L 569 261
L 569 261
L 569 261
L 569 261
L 569 261
L 569 260
L 569 260
L 569 260
L 569 260
L 569 260
L 569 260
L 569 260
L 569 260
L 569 260
L 569 260
L 569 260
L 569 260
L 569 260
L 569 260
L 570 260
L 570 260
L 570 260
L 570 259
L 570 259
L 570 259
L 570 259
L 570 259
L 570 259
L 570 259
L 570 259
L 570 259
L 570 259
L 570 259
L 570 259
L 570 259
L 570 259
L 570 259
L 571 259
L 571 259
L 571 258
L 571 258
L 571 258
L 571 258
L 571 258
L 571 258
L 571 258
L 571 258
L 571 258
L 571 258
L 571 258
L 571 258
L 571 258
L 571 258
L 571 258
L 571 258
L 572 258
L 572 257
L 572 257
L 573 257
L 573 257
L 573 257
L 575 257
L 576 257
L 576 257
L 576 257
L 576 257
L 576 257
L 577 257
L 577 257
L 577 257
L 577 257
L 577 257
L 577 257
L 577 256
L 577 256
L 577 256
L 577 256
L 577 256
L 577 256
L 577 256
L 577 256
L 577 256
L 577 256
L 577 256
L 577 256
L 577 256
L 577 256
L 577 256
L 577 256
L 577 256
L 577 255
L 577 255
L 577 255
L 577 255
L 577 255
L 577 255
L 577 255
L 577 255
L 577 255
L 577 255
L 577 255
L 577 255
L 577 255
L 577 255
L 577 255
L 577 255
L 577 255
L 577 254
L 577 254
L 577 254
L 577 254
L 577 254
L 577 254
L 577 254
L 577 254
L 577 254
L 577 254
L 577 254
L 577 254
L 577 254
L 577 254
L 577 254
L 577 254
L 577 254
L 577 253
L 578 253
L 578 253
L 578 253
L 578 253
L 578 253
L 578 253
L 578 253
L 578 253
L 578 253
L 578 253
L 578 253
L 578 253
L 578 253
L 578 253
L 578 253
L 578 253
L 578 252
L 578 252
L 578 252
L 578 252
L 578 252
L 578 252
L 578 252
L 578 252
L 578 252
L 578 252
L 578 252
L 578 252
L 578 252
L 578 252
L 578 252
L 578 252
L 578 252
L 578 251
L 578 251
L 578 251
L 578 251
L 578 251
L 578 251
L 578 251
L 578 251
L 578 251
L 578 251
L 578 251
L 578 251
L 578 251
L 578 251
L 578 251
L 578 251
L 578 251
L 578 250
L 578 250
L 578 250
L 578 250
L 578 250
L 578 250
L 578 250
L 578 250
L 579 250
L 579 250
L 579 250
L 579 250
L 579 250
L 579 250
L 579 250
L 579 250
L 579 250
L 579 249
L 579 249
L 579 249
L 579 249
L 579 249
L 579 249
L 579 249
L 579 249
L 579 249
L 579 249
L 579 249
L 580 249
L 580 249
L 580 249
L 580 249
L 580 249
L 580 249
L 580 249
L 580 248
L 580 248
L 580 248
L 580 248
L 580 248
L 580 248
L 580 248
L 580 248
L 580 248
L 580 248
L 580 248
L 580 248
L 580 248
L 580 248
L 580 248
L 580 248
L 580 248
L 580 247
L 580 247
L 580 247
L 580 247
L 581 247
L 581 247
L 581 247
L 581 247
L 581 247
L 581 247
L 581 247
L 581 247
L 581 247
L 581 247
L 581 247
L 581 247
L 581 247
L 581 246
L 581 246
L 581 246
L 581 246
L 581 246
L 581 246
L 581 246
L 581 246
L 581 246
L 581 246
L 581 246
L 581 246
L 581 246
L 581 246
L 581 246
L 581 246
L 581 246
L 581 245
L 581 245
L 581 245
L 581 245
L 581 245
L 581 245
L 581 245
L 581 245
L 581 245
L 581 245
L 582 245
L 582 245
L 582 245
L 582 245
L 582 245
L 582 245
L 582 245
L 582 244
L 582 244
L 582 244
L 582 244
L 582 244
L 582 244
L 582 244
L 582 244
L 582 244
L 582 244
L 582 244
L 582 244
L 582 244
L 582 244
L 582 244
L 582 244
L 582 244
L 582 243
L 582 243
L 582 243
L 582 243
L 582 243
L 582 243
L 582 243
L 582 243
L 582 243
L 582 243
L 582 243
L 582 243
L 582 243
L 582 243
L 582 243
L 582 243
L 583 243
L 583 242
L 583 242
L 583 242
L 583 242
L 583 242
L 583 242
L 583 242
L 583 242
L 583 242
L 583 242
L 583 242
L 583 242
L 583 242
L 583 242
L 583 242
L 583 242
L 583 242
L 583 241
L 583 241
L 583 241
L 583 241
L 583 241
L 583 241
L 583 241
L 583 241
L 583 241
L 583 241
L 583 241
L 583 241
L 583 241
L 583 241
L 583 241
L 583 241
L 583 241
L 584 240
L 584 240
L 584 240
L 584 240
L 584 240
L 584 240
L 584 240
L 584 240
L 584 240
L 584 240
L 584 240
L 584 240
L 584 240
L 584 240
L 584 240
L 584 240
L 584 240
L 584 239
L 584 239
L 584 239
L 584 239
L 585 239
L 585 239
L 585 239
L 585 239
L 585 239
L 585 239
L 585 239
L 585 239
L 585 239
L 585 239
L 585 239
L 585 239
L 585 239
L 585 238
L 585 238
L 585 238
L 585 238
L 585 238
L 585 238
L 586 238
L 586 238
L 586 238
L 586 238
L 586 238
L 586 238
L 586 238
L 586 238
L 586 238
L 586 238
L 586 238
L 586 237
L 586 237
L 586 237
L 586 237
L 586 237
L 587 237
L 587 237
L 587 237
L 587 237
L 587 237
L 587 237
L 587 237
L 587 237
L 587 237
L 587 237
L 587 237
L 587 237
L 587 236
L 587 236
L 587 236
L 587 236
L 587 236
L 587 236
L 587 236
L 587 236
L 588 236
L 588 236
L 589 236
L 592 236
L 592 236
L 593 236
L 593 236
L 593 236
L 593 236
L 593 235
L 593 235
L 593 235
L 593 235
L 593 235
L 593 235
L 593 235
L 593 235
L 593 235
L 593 235
L 594 235
L 594 235
L 594 235
L 594 235
L 594 235
L 594 235
L 594 235
L 594 234
L 594 234
L 594 234
L 594 234
L 594 234
L 594 234
L 594 234
L 594 234
L 594 234
L 594 234
L 594 234
L 594 234
L 594 234
L 594 234
L 594 234
L 594 234
L 594 234
L 594 233
L 594 233
L 594 233
L 594 233
L 594 233
L 594 233
L 594 233
L 594 233
L 594 233
L 594 233
L 594 233
L 594 233
L 594 233
L 594 233
L 594 233
L 594 233
L 594 233
L 594 232
L 594 232
L 594 232
L 594 232
L 594 232
L 594 232
L 594 232
L 594 232
L 594 232
L 594 232
L 594 232
L 594 232
L 594 232
L 594 232
L 595 232
L 595 232
L 595 232
L 595 232
L 595 231
L 595 231
L 595 231
L 595 231
L 595 231
L 595 231
L 595 231
L 595 231
L 595 231
L 595 231
L 595 231
L 595 231
L 595 231
L 595 231
L 595 231
L 595 231
L 595 231
L 595 230
L 595 230
L 595 230
L 595 230
L 595 230
L 596 230
L 596 230
L 596 230
L 596 230
L 596 230
L 596 230
L 596 230
L 596 230
L 596 230
L 597 230
L 597 230
L 597 230
L 597 229
L 597 229
L 597 229
L 597 229
L 597 229
L 597 229
L 597 229
L 597 229
L 597 229
L 597 229
L 597 229
L 597 229
L 597 229
L 597 229
L 597 229
L 597 229
L 597 229
L 597 228
L 597 228
L 597 228
L 597 228
L 597 228
L 598 228
L 598 228
L 598 228
L 598 228
L 598 228
L 598 228
L 598 228
L 598 228
L 598 228
L 598 228
L 598 228
L 598 228
L 598 227
L 598 227
L 598 227
L 598 227
L 598 227
L 598 227
L 598 227
L 598 227
L 598 227
L 598 227
L 598 227
L 598 227
L 598 227
L 598 227
L 598 227
L 598 227
L 599 227
L 599 226
L 599 226
L 599 226
L 599 226
L 599 226
L 599 226
L 599 226
L 599 226
L 599 226
L 599 226
L 599 226
L 599 226
L 599 226
L 599 226
L 599 226
L 599 226
L 599 226
L 599 225
L 599 225
L 599 225
L 599 225
L 599 225
L 599 225
L 599 225
L 599 225
L 599 225
L 599 225
L 599 225
L 599 225
L 599 225
L 599 225
L 599 225
L 600 225
L 600 225
L 600 224
L 600 224
L 600 224
L 600 224
L 600 224
L 600 224
L 600 224
L 600 224
L 600 224
L 600 224
L 600 224
L 600 224
L 601 224
L 601 224
L 601 224
L 601 224
L 601 224
L 601 223
L 601 223
L 601 223
L 601 223
L 601 223
L 601 223
L 601 223
L 601 223
L 601 223
L 601 223
L 601 223
L 601 223
L 601 223
L 602 223
L 602 223
L 602 223
L 602 223
L 602 222
L 602 222
L 602 222
L 602 222
L 602 222
L 602 222
L 602 222
L 603 222
L 603 222
L 603 222
L 603 222
L 603 222
L 603 222
L 603 222
L 603 222
L 603 222
L 603 222
L 604 221
L 604 221
L 604 221
L 604 221
L 604 221
L 605 221
L 605 221
L 605 221
L 605 221
L 605 221
L 606 221
L 609 221
L 609 221
L 609 221
L 610 221
L 610 221
L 610 221
L 610 220
L 610 220
L 610 220
L 610 220
L 610 220
L 610 220
L 610 220
L 610 220
L 610 220
L 610 220
L 610 220
L 610 220
L 610 220
L 610 220
L 610 220
L 610 220
L 610 220
L 610 219
L 610 219
L 610 219
L 610 219
L 610 219
L 610 219
L 610 219
L 610 219
L 610 219
L 610 219
L 610 219
L 610 219
L 610 219
L 610 219
L 610 219
L 610 219
L 610 219
L 610 218
L 610 218
L 610 218
L 610 218
L 611 218
L 611 218
L 611 218
L 611 218
L 611 218
L 611 218
L 611 218
L 611 218
L 611 218
L 611 218
L 611 218
L 611 218
L 611 218
L 611 217
L 611 217
L 611 217
L 611 217
L 611 217
L 611 217
L 611 217
L 611 217
L 611 217
L 611 217
L 611 217
L 611 217
L 611 217
L 611 217
L 611 217
L 611 217
L 611 217
L 611 216
L 611 216
L 611 216
L 611 216
L 611 216
L 611 216
L 611 216
L 611 216
L 611 216
L 612 216
L 612 216
L 612 216
L 612 216
L 612 216
L 612 216
L 612 216
L 612 216
L 612 215
L 613 215
L 613 215
L 613 215
L 613 215
L 613 215
L 613 215
L 613 215
L 613 215
L 613 215
L 613 215
L 613 215
L 613 215
L 613 215
L 613 215
L 613 215
L 613 215
L 613 215
L 613 214
L 613 214
L 613 214
L 613 214
L 613 214
L 613 214
L 613 214
L 613 214
L 613 214
L 613 214
L 613 214
L 613 214
L 613 214
L 613 214
L 613 214
L 613 214
L 613 214
L 614 213
L 614 213
L 614 213
L 614 213
L 614 213
L 614 213
L 614 213
L 614 213
L 614 213
L 614 213
L 614 213
L 614 213
L 614 213
L 614 213
L 614 213
L 614 213
L 614 213
L 614 212
L 614 212
L 614 212
L 614 212
L 614 212
L 614 212
L 614 212
L 614 212
L 614 212
L 614 212
L 614 212
L 614 212
L 614 212
L 614 212
L 614 212
L 614 212
L 614 212
L 614 211
L 614 211
L 614 211
L 614 211
L 614 211
L 615 211
L 615 211
L 615 211
L 615 211
L 615 211
L 615 211
L 615 211
L 615 211
L 615 211
L 615 211
L 615 211
L 615 211
L 615 210
L 615 210
L 615 210
L 615 210
L 615 210
L 615 210
L 615 210
L 615 210
L 615 210
L 615 210
L 615 210
L 615 210
L 615 210
L 615 210
L 615 210
L 615 210
L 615 210
L 615 209
L 615 209
L 615 209
L 615 209
L 615 209
L 615 209
L 615 209
L 616 209
L 616 209
L 616 209
L 616 209
L 616 209
L 616 209
L 616 209
L 616 209
L 616 209
L 616 209
L 616 208
L 616 208
L 616 208
L 616 208
L 616 208
L 616 208
L 616 208
L 616 208
L 616 208
L 616 208
L 616 208
L 617 208
L 617 208
L 617 208
L 617 208
L 617 208
L 617 208
L 617 207
L 617 207
L 617 207
L 617 207
L 617 207
L 617 207
L 617 207
L 618 207
L 618 207
L 618 207
L 618 207
L 618 207
L 618 207
L 618 207
L 618 207
L 618 207
L 618 207
L 618 206
L 619 206
L 619 206
L 619 206
L 619 206
L 619 206
L 619 206
L 619 206
L 619 206
L 619 206
L 619 206
L 619 206
L 619 206
L 619 206
L 619 206
L 619 206
L 619 206
L 620 205
L 620 205
L 620 205
L 620 205
L 620 205
L 620 205
L 620 205
L 620 205
L 620 205
L 620 205
L 620 205
L 620 205
L 621 205
L 621 205
L 622 205
L 623 205
L 623 205
L 624 204
L 625 204
L 625 204
L 626 204
L 626 204
L 626 204
L 626 204
L 626 204
L 626 204
L 626 204
L 626 204
L 626 204
L 626 204
L 626 204
L 626 204
L 626 204
L 626 204
L 626 203
L 626 203
L 626 203
L 626 203
L 626 203
L 626 203
L 626 203
L 627 203
L 627 203
L 627 203
L 627 203
L 627 203
L 627 203
L 627 203
L 627 203
L 627 203
L 627 203
L 627 202
L 627 202
L 627 202
L 627 202
L 627 202
L 627 202
L 627 202
L 627 202
L 627 202
L 627 202
L 627 202
L 627 202
L 627 202
L 627 202
L 627 202
L 627 202
L 627 202
L 627 201
L 627 201
L 627 201
L 627 201
L 627 201
L 627 201
L 627 201
L 627 201
L 627 201
L 627 201
L 627 201
L 627 201
L 627 201
L 627 201
L 627 201
L 627 201
L 627 201
L 627 200
L 627 200
L 627 200
L 627 200
L 627 200
L 627 200
L 628 200
L 628 200
L 628 200
L 628 200
L 628 200
L 628 200
L 628 200
L 628 200
L 628 200
L 628 200
L 628 200
L 628 199
L 628 199
L 628 199
L 628 199
L 628 199
L 628 199
L 628 199
L 628 199
L 628 199
L 628 199
L 628 199
L 628 199
L 628 199
L 628 199
L 628 199
L 628 199
L 628 199
L 628 198
L 628 198
L 628 198
L 628 198
L 628 198
L 628 198
L 628 198
L 628 198
L 628 198
L 629 198
L 629 198
L 629 198
L 629 198
L 629 198
L 629 198
L 629 198
L 629 198
L 629 198
L 629 197
L 629 197
L 629 197
L 629 197
L 629 197
L 629 197
L 629 197
L 629 197
L 629 197
L 629 197
L 629 197
L 629 197
L 629 197
L 630 197
L 630 197
L 630 197
L 630 197
L 630 196
L 630 196
L 630 196
L 630 196
L 630 196
L 630 196
L 630 196
L 630 196
L 630 196
L 630 196
L 630 196
L 630 196
L 630 196
L 630 196
L 630 196
L 630 196
L 630 196
L 630 195
L 630 195
L 630 195
L 630 195
L 630 195
L 630 195
L 630 195
L 630 195
L 630 195
L 630 195
L 630 195
L 630 195
L 630 195
L 630 195
L 630 195
L 630 195
L 630 195
L 630 194
L 630 194
L 630 194
L 630 194
L 631 194
L 631 194
L 631 194
L 631 194
L 631 194
L 631 194
L 631 194
L 631 194
L 631 194
L 631 194
L 631 194
L 631 194
L 631 194
L 631 193
L 631 193
L 631 193
L 631 193
L 631 193
L 631 193
L 631 193
L 631 193
L 631 193
L 631 193
L 631 193
L 631 193
L 631 193
L 631 193
L 631 193
L 631 193
L 631 193
L 631 192
L 631 192
L 631 192
L 631 192
L 631 192
L 631 192
L 631 192
L 631 192
L 631 192
L 631 192
L 632 192
L 632 192
L 632 192
L 632 192
L 632 192
L 632 192
L 632 192
L 632 191
L 632 191
L 632 191
L 632 191
L 632 191
L 632 191
L 632 191
L 632 191
L 632 191
L 632 191
L 632 191
L 633 191
L 633 191
L 633 191
L 633 191
L 633 191
L 633 191
L 633 190
L 633 190
L 633 190
L 633 190
L 633 190
L 633 190
L 633 190
L 634 190
L 634 190
L 634 190
L 634 190
L 634 190
L 634 190
L 634 190
L 634 190
L 634 190
L 634 190
L 634 189
L 634 189
L 634 189
L 635 189
L 635 189
L 635 189
L 635 189
L 635 189
L 635 189
L 635 189
L 635 189
L 635 189
L 636 189
L 636 189
L 636 189
L 636 189
L 636 189
L 636 188
L 636 188
L 636 188
L 636 188
L 637 188
L 637 188
L 637 188
L 637 188
L 637 188
L 637 188
L 637 188
L 638 188
L 640 188
L 640 188
L 641 188
L 641 188
L 642 188
L 642 187
L 642 187
L 643 187
L 643 187
L 643 187
L 643 187
L 643 187
L 643 187
L 643 187
L 643 187
L 644 187
L 644 187
L 644 187
L 644 187
L 644 187
L 644 187
L 644 187
L 644 186
L 644 186
L 644 186
L 644 186
L 644 186
L 644 186
L 644 186
L 645 186
L 645 186
L 645 186
L 645 186
L 645 186
L 645 186
L 645 186
L 645 186
L 646 186
L 646 186
L 646 185
L 646 185
L 646 185
L 647 185
L 647 185
L 647 185
L 647 185
L 647 185
L 647 185
L 648 185
L 648 185
L 648 185
L 648 185
L 648 185
L 648 185
L 648 185
L 648 185
L 648 184
L 649 184
L 649 184
L 650 184
L 650 184
L 650 184
L 650 184
L 650 184
L 650 184
L 650 184
L 650 184
L 650 184
L 651 184
L 651 184
L 651 184
L 651 184
L 651 184
L 652 183
L 652 183
L 652 183
L 652 183
L 652 183
L 652 183
L 652 183
L 653 183
L 653 183
L 653 183
L 653 183
L 653 183
L 653 183
L 653 183
L 654 183
L 655 183
L 655 183
L 656 182
L 656 182
L 656 182
L 656 182
L 657 182
L 658 182
L 658 182
L 659 182
L 659 182
L 659 182
L 659 182
L 660 182
L 660 182
L 660 182
L 660 182
L 660 182
L 660 182
L 661 181
L 661 181
L 661 181
L 661 181
L 661 181
L 661 181
L 661 181
L 661 181
L 662 181
L 662 181
L 662 181
L 662 181
L 663 181
L 663 181
L 663 181
L 663 181
L 663 181
L 663 181
L 663 180
L 663 180
L 664 180
L 664 180
L 665 180
L 665 180
L 665 180
L 665 180
L 665 180
L 666 180
L 666 180
L 666 180
L 666 180
L 666 180
L 667 180
L 667 180
L 667 180
L 667 179
L 667 179
L 667 179
L 668 179
L 668 179
L 668 179
L 668 179
L 668 179
L 668 179
L 668 179
L 668 179
L 669 179
L 669 179
L 669 179
L 669 179
L 669 179
L 669 179
L 670 178
L 670 178
L 670 178
L 670 178
L 671 178
L 671 178
L 671 178
L 673 178
L 673 178
L 675 178
L 675 178
L 675 178
L 676 178
L 676 178
L 676 178
L 676 178
L 676 178
L 676 177
L 676 177
L 677 177
L 677 177
L 677 177
L 677 177
L 678 177
L 678 177
L 678 177
L 678 177
L 678 177
L 678 177
L 679 177
L 679 177
L 679 177
L 679 177
L 679 177
L 679 176
L 679 176
L 679 176
L 679 176
L 679 176
L 680 176
L 680 176
L 680 176
L 680 176
L 681 176
L 681 176
L 681 176
L 681 176
L 681 176
L 681 176
L 681 176
L 681 176
L 682 175
L 682 175
L 682 175
L 682 175
L 682 175
L 682 175
L 682 175
L 682 175
L 683 175
L 683 175
L 683 175
L 683 175
L 683 175
L 683 175
L 683 175
L 683 175
L 683 175
L 683 174
L 683 174
L 683 174
L 684 174
L 684 174
L 684 174
L 684 174
L 684 174
L 684 174
L 684 174
L 684 174
L 685 174
L 685 174
L 685 174
L 685 174
L 685 174
L 685 174
L 685 173
L 686 173
L 686 173
L 686 173
L 686 173
L 687 173
L 687 173
L 691 173
L 692 173
L 692 173
L 692 173
L 692 173
L 692 173
L 692 173
L 692 173
L 692 173
L 692 173
L 692 172
L 692 172
L 692 172
L 692 172
L 692 172
L 692 172
L 692 172
L 692 172
L 692 172
L 692 172
L 692 172
L 692 172
L 692 172
L 692 172
L 692 172
L 692 172
L 692 172
L 692 171
L 692 171
L 692 171
L 692 171
L 693 171
L 693 171
L 693 171
L 693 171
L 693 171
L 693 171
L 693 171
L 693 171
L 693 171
L 693 171
L 693 171
L 693 171
L 693 171
L 693 170
L 693 170
L 693 170
L 693 170
L 693 170
L 693 170
L 693 170
L 693 170
L 693 170
L 693 170
L 693 170
L 693 170
L 693 170
L 693 170
L 693 170
L 693 170
L 693 170
L 693 169
L 693 169
L 693 169
L 693 169
L 693 169
L 693 169
L 694 169
L 694 169
L 694 169
L 694 169
L 694 169
L 694 169
L 694 169
L 694 169
L 694 169
L 694 169
L 694 169
L 694 168
L 695 168
L 695 168
L 695 168
L 695 168
L 695 168
L 695 168
L 695 168
L 695 168
L 695 168
L 695 168
L 695 168
L 695 168
L 695 168
L 695 168
L 695 168
L 695 168
L 695 167
L 695 167
L 695 167
L 695 167
L 695 167
L 695 167
L 695 167
L 695 167
L 695 167
L 695 167
L 695 167
L 695 167
L 695 167
L 695 167
L 695 167
L 696 167
L 696 167
L 696 166
L 696 166
L 696 166
L 696 166
L 696 166
L 696 166
L 696 166
L 696 166
L 696 166
L 696 166
L 696 166
L 696 166
L 696 166
L 696 166
L 696 166
L 696 166
L 696 166
L 696 165
L 696 165
L 697 165
L 697 165
L 697 165
L 697 165
L 697 165
L 697 165
L 697 165
L 697 165
L 697 165
L 697 165
L 697 165
L 697 165
L 697 165
L 697 165
L 697 165
L 697 164
L 697 164
L 697 164
L 697 164
L 697 164
L 697 164
L 698 164
L 698 164
L 698 164
L 698 164
L 698 164
L 698 164
L 698 164
L 698 164
L 698 164
L 698 164
L 698 164
L 698 163
L 698 163
L 698 163
L 699 163
L 699 163
L 699 163
L 699 163
L 699 163
L 699 163
L 699 163
L 699 163
L 700 163
L 700 163
L 700 163
L 700 163
L 700 163
L 700 163
L 700 163
L 700 162
L 700 162
L 700 162
L 700 162
L 700 162
L 700 162
L 700 162
L 700 162
L 700 162
L 700 162
L 700 162
L 701 162
L 701 162
L 701 162
L 701 162
L 701 162
L 701 162
L 701 161
L 701 161
L 701 161
L 701 161
L 701 161
L 701 161
L 701 161
L 701 161
L 701 161
L 701 161
L 701 161
L 701 161
L 701 161
L 701 161
L 702 161
L 702 161
L 702 161
L 702 160
L 702 160
L 702 160
L 702 160
L 702 160
L 702 160
L 703 160
L 704 160
L 704 160
L 704 160
L 705 160
L 706 160
L 707 160
L 707 160
L 707 160
L 707 160
L 708 160
L 708 159
L 708 159
L 708 159
L 708 159
L 708 159
L 708 159
L 708 159
L 708 159
L 708 159
L 708 159
L 708 159
L 708 159
L 708 159
L 708 159
L 708 159
L 708 159
L 708 159
L 708 158
L 708 158
L 708 158
L 708 158
L 708 158
L 708 158
L 708 158
L 709 158
L 709 158
L 709 158
L 709 158
L 709 158
L 709 158
L 709 158
L 709 158
L 709 158
L 709 158
L 709 157
L 709 157
L 709 157
L 709 157
L 709 157
L 709 157
L 709 157
L 709 157
L 709 157
L 709 157
L 709 157
L 709 157
L 709 157
L 709 157
L 709 157
L 709 157
L 709 157
L 709 156
L 709 156
L 709 156
L 709 156
L 709 156
L 709 156
L 709 156
L 709 156
L 709 156
L 709 156
L 709 156
L 709 156
L 710 156
L 710 156
L 710 156
L 710 156
L 710 156
L 710 155
L 710 155
L 710 155
L 710 155
L 710 155
L 710 155
L 710 155
L 710 155
L 711 155
L 711 155
L 711 155
L 711 155
L 711 155
L 711 155
L 711 155
L 711 155
L 711 155
L 711 154
L 711 154
L 711 154
L 711 154
L 711 154
L 711 154
L 711 154
L 711 154
L 711 154
L 712 154
L 712 154
L 712 154
L 712 154
L 712 154
L 712 154
L 712 154
L 712 154
L 712 153
L 712 153
L 712 153
L 712 153
L 712 153
L 712 153
L 712 153
L 712 153
L 712 153
L 712 153
L 712 153
L 712 153
L 712 153
L 712 153
L 712 153
L 712 153
L 713 153
L 713 152
L 713 152
L 713 152
L 713 152
L 713 152
L 713 152
L 713 152
L 713 152
L 713 152
L 713 152
L 713 152
L 713 152
L 713 152
L 713 152
L 713 152
L 713 152
L 713 152
L 713 151
L 713 151
L 713 151
L 713 151
L 713 151
L 713 151
L 713 151
L 713 151
L 713 151
L 713 151
L 713 151
L 714 151
L 714 151
L 714 151
L 714 151
L 714 151
L 714 151
L 714 150
L 714 150
L 714 150
L 714 150
L 714 150
L 714 150
L 714 150
L 714 150
L 714 150
L 714 150
L 714 150
L 714 150
L 714 150
L 714 150
L 714 150
L 714 150
L 714 150
L 714 149
L 714 149
L 714 149
L 714 149
L 714 149
L 714 149
L 714 149
L 714 149
L 714 149
L 714 149
L 714 149
L 714 149
L 714 149
L 714 149
L 714 149
L 714 149
L 714 149
L 714 148
L 714 148
L 714 148
L 714 148
L 715 148
L 715 148
L 715 148
L 715 148
L 715 148
L 715 148
L 715 148
L 715 148
L 715 148
L 715 148
L 715 148
L 715 148
L 715 148
L 715 147
L 715 147
L 715 147
L 715 147
L 715 147
L 715 147
L 715 147
L 715 147
L 715 147
L 716 147
L 716 147
L 716 147
L 716 147
L 716 147
L 716 147
L 716 147
L 716 147
L 716 147
L 716 146
L 716 146
L 716 146
L 716 146
L 716 146
L 716 146
L 717 146
L 717 146
L 717 146
L 717 146
L 717 146
L 717 146
L 717 146
L 717 146
L 717 146
L 717 146
L 717 146
L 717 145
L 717 145
L 717 145
L 717 145
L 717 145
L 717 145
L 717 145
L 718 145
L 718 145
L 718 145
L 718 145
L 718 145
L 718 145
L 718 145
L 718 145
L 718 145
L 718 145
L 718 144
L 718 144
L 718 144
L 718 144
L 719 144
L 719 144
L 719 144
L 719 144
L 719 144
L 719 144
L 720 144
L 720 144
L 720 144
L 721 144
L 722 144
L 723 144
L 724 144
L 724 143
L 724 143
L 724 143
L 724 143
L 724 143
L 724 143
L 724 143
L 724 143
L 724 143
L 724 143
L 724 143
L 725 143
L 725 143
L 725 143
L 725 143
L 725 143
L 725 143
L 725 142
L 725 142
L 725 142
L 725 142
L 725 142
L 725 142
L 725 142
L 725 142
L 725 142
L 725 142
L 725 142
L 725 142
L 725 142
L 725 142
L 725 142
L 725 142
L 726 142
L 726 141
L 726 141
L 726 141
L 726 141
L 726 141
L 726 141
L 726 141
L 726 141
L 726 141
L 726 141
L 726 141
L 726 141
L 726 141
L 726 141
L 726 141
L 726 141
L 726 141
L 726 140
L 726 140
L 726 140
L 726 140
L 726 140
L 726 140
L 726 140
L 726 140
L 726 140
L 726 140
L 727 140
L 727 140
L 727 140
L 727 140
L 727 140
L 727 140
L 727 140
L 727 139
L 727 139
L 727 139
L 727 139
L 727 139
L 728 139
L 728 139
L 728 139
L 728 139
L 728 139
L 728 139
L 728 139
L 728 139
L 728 139
L 728 139
L 728 139
L 728 139
L 728 138
L 728 138
L 728 138
L 728 138
L 728 138
L 728 138
L 729 138
L 729 138
L 729 138
L 729 138
L 729 138
L 729 138
L 729 138
L 729 138
L 729 138
L 729 138
L 729 138
L 729 137
L 729 137
L 729 137
L 729 137
L 729 137
L 729 137
L 729 137
L 729 137
L 730 137
L 730 137
L 730 137
L 730 137
L 730 137
L 730 137
L 730 137
L 730 137
L 730 137
L 730 136
L 730 136
L 730 136
L 730 136
L 730 136
L 730 136
L 730 136
L 730 136
L 730 136
L 730 136
L 730 136
L 730 136
L 730 136
L 730 136
L 730 136
L 730 136
L 730 136
L 730 135
L 730 135
L 730 135
L 731 135
L 731 135
L 731 135
L 731 135
L 731 135
L 731 135
L 731 135
L 731 135
L 731 135
L 731 135
L 731 135
L 731 135
L 731 135
L 731 135
L 731 134
L 731 134
L 731 134
L 732 134
L 732 134
L 732 134
L 732 134
L 732 134
L 732 134
L 732 134
L 732 134
L 733 134
L 733 134
L 733 134
L 733 134
L 733 134
L 733 134
L 733 133
L 733 133
L 733 133
L 733 133
L 733 133
L 733 133
L 733 133
L 733 133
L 733 133
L 734 133
L 734 133
L 734 133
L 734 133
L 734 133
L 734 133
L 734 133
L 734 133
L 734 132
L 734 132
L 734 132
L 735 132
L 735 132
L 736 132
L 736 132
L 736 132
L 737 132
L 737 132
L 738 132
L 738 132
L 738 132
L 739 132
L 740 132
L 741 132
L 741 132
L 741 131
L 741 131
L 741 131
L 741 131
L 741 131
L 741 131
L 741 131
L 741 131
L 741 131
L 741 131
L 741 131
L 741 131
L 742 131
L 742 131
L 742 131
L 742 131
L 742 131
L 742 130
L 742 130
L 742 130
L 742 130
L 742 130
L 742 130
L 742 130
L 742 130
L 742 130
L 742 130
L 742 130
L 743 130
L 743 130
L 743 130
L 743 130
L 743 130
L 743 130
L 743 130
L 743 129
L 743 129
L 743 129
L 743 129
L 743 129
L 743 129
L 744 129
L 744 129
L 744 129
L 744 129
L 744 129
L 744 129
L 744 129
L 744 129
L 745 129
L 745 129
L 745 129
L 745 128
L 745 128
L 745 128
L 745 128
L 745 128
L 746 128
L 746 128
L 746 128
L 746 128
L 746 128
L 746 128
L 746 128
L 746 128
L 746 128
L 747 128
L 747 128
L 747 128
L 747 127
L 747 127
L 747 127
L 748 127
L 748 127
L 748 127
L 748 127
L 748 127
L 748 127
L 749 127
L 749 127
L 749 127
L 749 127
L 749 127
L 749 127
L 749 127
L 749 127
L 749 126
L 749 126
L 749 126
L 749 126
L 749 126
L 750 126
L 750 126
L 750 126
L 750 126
L 750 126
L 750 126
L 750 126
L 750 126
L 750 126
L 751 126
L 751 126
L 751 126
L 751 125
L 751 125
L 751 125
L 752 125
L 752 125
L 757 125
L 757 125
L 758 125
L 758 125
L 758 125
L 759 125
L 759 125
L 759 125
L 759 125
L 759 125
L 760 125
L 760 125
L 760 124
L 760 124
L 760 124
L 760 124
L 760 124
L 761 124
L 761 124
L 761 124
L 761 124
L 761 124
L 761 124
L 762 124
L 762 124
L 762 124
L 762 124
L 762 124
L 762 124
L 763 123
L 763 123
L 763 123
L 763 123
L 763 123
L 763 123
L 763 123
L 763 123
L 763 123
L 763 123
L 763 123
L 763 123
L 764 123
L 764 123
L 764 123
L 764 123
L 764 123
L 764 122
L 764 122
L 764 122
L 764 122
L 765 122
L 765 122
L 765 122
L 765 122
L 765 122
L 766 122
L 766 122
L 766 122
L 766 122
L 766 122
L 766 122
L 766 122
L 766 122
L 766 121
L 766 121
L 766 121
L 766 121
L 766 121
L 767 121
L 767 121
L 767 121
L 767 121
L 767 121
L 767 121
L 767 121
L 767 121
L 767 121
L 767 121
L 768 121
L 768 121
L 768 120
L 768 120
L 768 120
L 768 120
L 768 120
L 769 120
L 770 120
L 770 120
L 770 120
L 771 120
L 771 120
L 772 120
L 773 120
L 773 120
L 773 120
L 773 120
L 773 120
L 773 119
L 773 119
L 774 119
L 774 119
L 774 119
L 774 119
L 774 119
L 774 119
L 774 119
L 774 119
L 774 119
L 774 119
L 774 119
L 774 119
L 774 119
L 774 119
L 774 119
L 774 118
L 774 118
L 774 118
L 774 118
L 774 118
L 774 118
L 775 118
L 775 118
L 775 118
L 775 118
L 775 118
L 775 118
L 775 118
L 775 118
L 775 118
L 775 118
L 775 118
L 775 117
L 775 117
L 775 117
L 775 117
L 775 117
L 775 117
L 775 117
L 775 117
L 775 117
L 775 117
L 775 117
L 775 117
L 776 117
L 776 117
L 776 117
L 776 117
L 776 117
L 776 116
L 776 116
L 776 116
L 776 116
L 776 116
L 776 116
L 777 116
L 777 116
L 777 116
L 777 116
L 777 116
L 777 116
L 777 116
L 777 116
L 777 116
L 777 116
L 777 116
L 777 115
L 777 115
L 777 115
L 777 115
L 777 115
L 778 115
L 778 115
L 778 115
L 778 115
L 778 115
L 778 115
L 778 115
L 778 115
L 778 115
L 778 115
L 778 115
L 778 115
L 778 114
L 778 114
L 778 114
L 778 114
L 779 114
L 779 114
L 779 114
L 779 114
L 779 114
L 779 114
L 779 114
L 779 114
L 779 114
L 779 114
L 779 114
L 779 114
L 779 114
L 780 113
L 780 113
L 780 113
L 780 113
L 780 113
L 780 113
L 780 113
L 780 113
L 780 113
L 781 113
L 781 113
L 781 113
L 781 113
L 781 113
L 781 113
L 781 113
L 781 113
L 781 113
L 781 112
L 781 112
L 782 112
L 782 112
L 782 112
L 782 112
L 782 112
L 782 112
L 782 112
L 782 112
L 782 112
L 782 112
L 782 112
L 783 112
L 783 112
L 783 112
L 783 112
L 783 111
L 784 111
L 784 111
L 784 111
L 784 111
L 784 111
L 784 111
L 784 111
L 784 111
L 787 111
L 789 111
L 789 111
L 790 111
L 790 111
L 790 111
L 790 111
L 790 111
L 790 110
L 790 110
L 790 110
L 790 110
L 791 110
L 791 110
L 791 110
L 791 110
L 791 110
L 791 110
L 791 110
L 791 110
L 791 110
L 791 110
L 791 110
L 791 110
L 791 110
L 791 109
L 791 109
L 791 109
L 791 109
L 791 109
L 791 109
L 791 109
L 792 109
L 792 109
L 792 109
L 792 109
L 792 109
L 792 109
L 792 109
L 792 109
L 792 109
L 792 109
L 793 108
L 793 108
L 793 108
L 793 108
L 793 108
L 793 108
L 793 108
L 793 108
L 793 108
L 793 108
L 793 108
L 793 108
L 794 108
L 794 108
L 794 108
L 794 108
L 794 108
L 794 107
L 794 107
L 794 107
L 794 107
L 794 107
L 794 107
L 794 107
L 795 107
L 795 107
L 795 107
L 795 107
L 795 107
L 795 107
L 795 107
L 795 107
L 795 107
L 795 107
L 795 106
L 795 106
L 795 106
L 795 106
L 795 106
L 795 106
L 795 106
L 795 106
L 795 106
L 795 106
L 795 106
L 795 106
L 796 106
L 796 106
L 796 106
L 796 106
L 796 106
L 796 105
L 796 105
L 796 105
L 796 105
L 796 105
L 796 105
L 796 105
L 796 105
L 796 105
L 796 105
L 796 105
L 796 105
L 796 105
L 797 105
L 797 105
L 797 105
L 797 105
L 797 104
L 797 104
L 797 104
L 797 104
L 797 104
L 798 104
L 798 104
L 798 104
L 798 104
L 798 104
L 798 104
L 798 104
L 798 104
L 798 104
L 798 104
L 798 104
L 798 104
L 798 103
L 798 103
L 798 103
L 798 103
L 798 103
L 798 103
L 798 103
L 799 103
L 799 103
L 799 103
L 799 103
L 799 103
L 799 103
L 799 103
L 799 103
L 799 103
L 799 103
L 799 102
L 799 102
L 800 102
L 800 102
L 800 102
L 800 102
L 800 102
L 801 102
L 801 102
L 802 102
L 804 102
L 806 102
L 806 102
L 806 102
L 806 102
L 807 102
L 807 102
L 807 101
L 807 101
L 807 101
L 807 101
L 807 101
L 807 101
L 807 101
L 807 101
L 807 101
L 807 101
L 807 101
L 807 101
L 807 101
L 807 101
L 807 101
L 807 101
L 807 101
L 807 100
L 807 100
L 807 100
L 807 100
L 807 100
L 808 100
L 808 100
L 808 100
L 808 100
L 808 100
L 808 100
L 808 100
L 808 100
L 808 100
L 808 100
L 808 100
L 808 100
L 808 99
L 808 99
L 808 99
L 808 99
L 808 99
L 808 99
L 808 99
L 808 99
L 809 99
L 809 99
L 809 99
L 809 99
L 809 99
L 809 99
L 809 99
L 809 99
L 809 99
L 809 98
L 810 98
L 810 98
L 810 98
L 810 98
L 810 98
L 810 98
L 810 98
L 810 98
L 810 98
L 810 98
L 810 98
L 810 98
L 810 98
L 810 98
L 810 98
L 810 98
L 810 97
L 810 97
L 810 97
L 811 97
L 811 97
L 811 97
L 811 97
L 811 97
L 811 97
L 811 97
L 811 97
L 811 97
L 811 97
L 811 97
L 811 97
L 811 97
L 811 97
L 811 96
L 811 96
L 811 96
L 811 96
L 811 96
L 811 96
L 812 96
L 812 96
L 812 96
L 812 96
L 812 96
L 812 96
L 812 96
L 812 96
L 812 96
L 812 96
L 812 96
L 812 96
L 812 95
L 812 95
L 812 95
L 813 95
L 813 95
L 813 95
L 813 95
L 813 95
L 814 95
L 814 95
L 814 95
L 814 95
L 814 95
L 814 95
L 814 95
L 815 95
L 815 95
L 815 94
L 815 94
L 815 94
L 815 94
L 815 94
L 815 94
L 815 94
L 815 94
L 815 94
L 816 94
L 816 94
L 816 94
L 816 94
L 816 94
L 816 94
L 816 94
L 816 94
L 816 93
L 816 93
L 817 93
L 817 93
L 817 93
L 817 93
L 817 93
L 817 93
L 817 93
L 817 93
L 818 93
L 818 93
L 819 93
L 821 93
L 822 93
L 822 93
L 822 93
L 822 92
L 822 92
L 822 92
L 822 92
L 822 92
L 822 92
L 822 92
L 822 92
L 822 92
L 822 92
L 822 92
L 823 92
L 823 92
L 823 92
L 823 92
L 823 92
L 823 92
L 823 91
L 823 91
L 823 91
L 823 91
L 823 91
L 823 91
L 823 91
L 823 91
L 823 91
L 823 91
L 823 91
L 823 91
L 823 91
L 823 91
L 823 91
L 823 91
L 823 91
L 823 90
L 823 90
L 823 90
L 823 90
L 823 90
L 823 90
L 823 90
L 823 90
L 823 90
L 823 90
L 823 90
L 823 90
L 823 90
L 823 90
L 823 90
L 823 90
L 823 90
L 823 89
L 823 89
L 823 89
L 823 89
L 823 89
L 823 89
L 823 89
L 823 89
L 823 89
L 823 89
L 823 89
L 823 89
L 823 89
L 824 89
L 824 89
L 824 89
L 824 89
L 824 88
L 824 88
L 824 88
L 824 88
L 824 88
L 824 88
L 824 88
L 824 88
L 824 88
L 824 88
L 824 88
L 824 88
L 824 88
L 824 88
L 824 88
L 824 88
L 824 88
L 824 87
L 824 87
L 824 87
L 824 87
L 824 87
L 824 87
L 824 87
L 824 87
L 824 87
L 824 87
L 825 87
L 825 87
L 825 87
L 825 87
L 825 87
L 825 87
L 825 87
L 825 86
L 825 86
L 825 86
L 825 86
L 826 86
L 826 86
L 826 86
L 826 86
L 826 86
L 826 86
L 826 86
L 826 86
L 826 86
L 826 86
L 826 86
L 826 86
L 826 86
L 826 85
L 826 85
L 826 85
L 826 85
L 826 85
L 826 85
L 826 85
L 826 85
L 826 85
L 826 85
L 826 85
L 827 85
L 827 85
L 827 85
L 827 85
L 827 85
L 827 85
L 827 84
L 827 84
L 827 84
L 827 84
L 827 84
L 827 84
L 827 84
L 827 84
L 827 84
L 827 84
L 827 84
L 827 84
L 827 84
L 827 84
L 827 84
L 827 84
L 827 84
L 827 83
L 827 83
L 827 83
L 827 83
L 827 83
L 827 83
L 827 83
L 827 83
L 827 83
L 827 83
L 827 83
L 827 83
L 827 83
L 827 83
L 827 83
L 827 83
L 827 83
L 827 82
L 827 82
L 827 82
L 827 82
L 827 82
L 827 82
L 828 82
L 828 82
L 828 82
L 828 82
L 828 82
L 828 82
L 828 82
L 828 82
L 828 82
L 828 82
L 828 82
L 828 81
L 828 81
L 828 81
L 828 81
L 828 81
L 828 81
L 828 81
L 828 81
L 828 81
L 828 81
L 828 81
L 828 81
L 828 81
L 828 81
L 828 81
L 828 81
L 829 81
L 829 80
L 829 80
L 829 80
L 829 80
L 829 80
L 829 80
L 829 80
L 829 80
L 829 80
L 829 80
L 829 80
L 829 80
L 830 80
L 830 80
L 830 80
L 830 80
L 830 80
L 830 79
L 830 79
L 830 79
L 830 79
L 830 79
L 830 79
L 830 79
L 830 79
L 830 79
L 830 79
L 830 79
L 830 79
L 831 79
L 831 79
L 831 79
L 831 79
L 831 79
L 831 79
L 831 78
L 831 78
L 831 78
L 831 78
L 831 78
L 831 78
L 831 78
L 831 78
L 831 78
L 831 78
L 831 78
L 831 78
L 831 78
L 831 78
L 831 78
L 831 78
L 831 78
L 831 77
L 831 77
L 831 77
L 832 77
L 832 77
L 832 77
L 832 77
L 832 77
L 832 77
L 832 77
L 832 77
L 832 77
L 832 77
L 832 77
L 832 77
L 833 77
L 833 77
L 833 76
L 833 76
L 833 76
L 833 76
L 833 76
L 833 76
L 834 76
L 834 76
L 834 76
L 834 76
L 834 76
L 834 76
L 834 76
L 835 76
L 835 76
L 835 76
L 836 76
L 836 75
L 836 75
L 838 75
L 838 75
L 838 75
L 839 75
L 839 75
L 839 75
L 839 75
L 839 75
L 839 75
L 839 75
L 839 75
L 839 75
L 839 75
L 839 75
L 839 75
L 839 74
L 839 74
L 840 74
L 840 74
L 840 74
L 840 74
L 840 74
L 840 74
L 840 74
L 840 74
L 840 74
L 840 74
L 840 74
L 840 74
L 840 74
L 840 74
L 840 74
L 840 73
L 840 73
L 840 73
L 840 73
L 840 73
L 840 73
L 840 73
L 840 73
L 840 73
L 840 73
L 840 73
L 840 73
L 840 73
L 840 73
L 841 73
L 841 73
L 841 73
L 841 72
L 841 72
L 841 72
L 841 72
L 841 72
L 841 72
L 842 72
L 842 72
L 842 72
L 842 72
L 842 72
L 842 72
L 842 72
L 842 72
L 842 72
L 842 72
L 842 72
L 842 71
L 842 71
L 842 71
L 842 71
L 842 71
L 842 71
L 842 71
L 842 71
L 842 71
L 842 71
L 843 71
L 843 71
L 843 71
L 843 71
L 843 71
L 843 71
L 843 71
L 843 70
L 843 70
L 843 70
L 843 70
L 843 70
L 843 70
L 843 70
L 843 70
L 843 70
L 843 70
L 843 70
L 843 70
L 843 70
L 843 70
L 843 70
L 843 70
L 843 70
L 843 69
L 843 69
L 843 69
L 844 69
L 844 69
L 844 69
L 844 69
L 844 69
L 844 69
L 844 69
L 844 69
L 844 69
L 844 69
L 844 69
L 844 69
L 844 69
L 844 69
L 844 68
L 844 68
L 844 68
L 844 68
L 844 68
L 844 68
L 844 68
L 844 68
L 845 68
L 845 68
L 845 68
L 845 68
L 845 68
L 845 68
L 845 68
L 845 68
L 845 68
L 845 67
L 845 67
L 845 67
L 845 67
L 845 67
L 845 67
L 845 67
L 845 67
L 845 67
L 845 67
L 846 67
L 846 67
L 846 67
L 846 67
L 846 67
L 846 67
L 846 67
L 847 66
L 847 66
L 847 66
L 847 66
L 847 66
L 847 66
L 847 66
L 847 66
L 847 66
L 847 66
L 848 66
L 848 66
L 848 66
L 848 66
L 848 66
L 848 66
L 848 66
L 849 65
L 849 65
L 849 65
L 849 65
L 849 65
L 849 65
L 849 65
L 850 65
L 850 65
L 850 65
L 850 65
L 850 65
L 850 65
L 850 65
L 852 65
L 852 65
L 852 65
L 852 64
L 855 64
L 856 64
L 856 64
L 856 64
L 857 64
L 857 64
L 857 64
L 857 64
L 857 64
L 857 64
L 857 64
L 857 64
L 857 64
L 857 64
L 857 64
L 858 64
L 858 63
L 858 63
L 859 63
L 859 63
L 859 63
L 859 63
L 859 63
L 859 63
L 860 63
L 860 63
L 860 63
L 860 63
L 860 63
L 860 63
L 860 63
L 860 63
L 860 63
L 861 62
L 861 62
L 861 62
L 861 62
L 861 62
L 861 62
L 861 62
L 861 62
L 861 62
L 862 62
L 862 62
L 862 62
L 862 62
L 862 62
L 863 62
L 863 62
L 863 62
L 864 62
L 864 61
L 864 61
L 865 61
L 865 61
L 866 61
L 866 61
L 866 61
L 866 61
L 866 61
L 867 61
L 867 61
L 867 61
L 869 61
L 871 61
L 872 61
L 873 61
L 873 61
L 874 60
L 874 60
L 875 60
L 875 60
L 875 60
L 875 60
L 875 60
L 875 60
L 875 60
L 876 60
L 876 60
L 877 60
L 877 60
L 877 60
L 877 60
L 877 60
L 877 60
L 877 59
L 878 59
L 878 59
L 878 59
L 879 59
L 879 59
L 879 59
L 879 59
L 880 59
L 880 59
L 880 59
L 880 59
L 880 59
L 881 59
L 881 59
L 881 59
L 881 59
L 881 58
L 881 58
L 882 58
L 882 58
L 882 58
L 882 58
L 883 58
L 884 58
L 888 58
L 888 58
L 888 58
L 888 58
L 888 58
L 889 58
L 889 58
L 889 58
L 889 58
L 889 57
L 889 57
L 889 57
L 889 57
L 889 57
L 889 57
L 889 57
L 889 57
L 889 57
L 889 57
L 889 57
L 890 57
L 890 57
L 890 57
L 890 57
L 890 57
L 890 57
L 890 56
L 890 56
L 890 56
L 890 56
L 890 56
L 890 56
L 890 56
L 890 56
L 890 56
L 891 56
L 891 56
L 891 56
L 891 56
L 891 56
L 892 56
L 892 56
L 892 56
L 892 55
L 892 55
L 892 55
L 892 55
L 892 55
L 892 55
L 892 55
L 892 55
L 893 55
L 893 55
L 893 55
L 893 55
L 893 55
L 893 55
L 893 55
L 893 55
L 893 55
L 893 54
L 893 54
L 894 54
L 894 54
L 894 54
L 894 54
L 894 54
L 894 54
L 894 54
L 894 54
L 894 54
L 894 54
L 894 54
L 894 54
L 895 54
L 895 54
L 895 54
L 895 53
L 895 53
L 895 53
L 895 53
L 895 53
L 895 53
L 895 53
L 896 53
L 896 53
L 896 53
L 896 53
L 896 53
L 896 53
L 896 53
L 896 53
L 897 53
L 897 53
L 897 52
L 897 52
L 897 52
L 897 52
L 897 52
L 897 52
L 898 52
L 898 52
L 898 52
L 898 52
L 898 52
L 898 52
L 898 52
L 898 52
L 898 52
L 898 52
L 899 52
L 899 51
L 899 51
L 899 51
L 899 51
L 899 51
L 902 51
L 902 51
L 904 51
L 905 51
L 905 51
L 905 51
L 905 51
L 905 51
L 905 51
L 905 51
L 905 51
L 905 51
L 905 50
L 906 50
L 906 50
L 906 50
L 906 50
L 906 50
L 906 50
L 906 50
L 906 50
L 906 50
L 906 50
L 906 50
L 906 50
L 906 50
L 906 50
L 906 50
L 906 50
L 906 49
L 906 49
L 906 49
L 906 49
L 906 49
L 906 49
L 906 49
L 906 49
L 906 49
L 906 49
L 906 49
L 906 49
L 906 49
L 906 49
L 906 49
L 906 49
L 906 49
L 906 48
L 906 48
L 906 48
L 906 48
L 906 48
L 906 48
L 906 48
L 906 48
L 906 48
L 906 48
L 906 48
L 906 48
L 906 48
L 906 48
L 906 48
L 906 48
L 906 48
L 906 47
L 906 47
L 906 47
L 906 47
L 906 47
L 906 47
L 906 47
L 906 47
L 907 47
L 907 47
L 907 47
L 907 47
L 907 47
L 907 47
L 907 47
L 907 47
L 907 47
L 907 46
L 907 46
L 907 46
L 907 46
L 907 46
L 907 46
L 907 46
L 907 46
L 907 46
L 907 46
L 907 46
L 907 46
L 907 46
L 907 46
L 907 46
L 907 46
L 907 46
L 907 45
L 907 45
L 907 45
L 907 45
L 908 45
L 908 45
L 908 45
L 908 45
L 908 45
L 908 45
L 908 45
L 908 45
L 908 45
L 908 45
L 908 45
L 908 45
L 908 45
L 908 45
L 908 44
L 908 44
L 909 44
L 909 44
L 909 44
L 909 44
L 909 44
L 909 44
L 909 44
L 909 44
L 909 44
L 909 44
L 909 44
L 909 44
L 909 44
L 909 44
L 909 44
L 909 43
L 909 43
L 909 43
L 910 43
L 910 43
L 910 43
L 910 43
L 910 43
L 910 43
L 910 43
L 910 43
L 910 43
L 910 43
L 910 43
L 910 43
L 910 43
L 910 43
L 910 42
L 910 42
L 910 42
L 911 42
L 911 42
L 911 42
L 911 42
L 911 42
L 911 42
L 911 42
L 911 42
L 911 42
L 911 42
L 911 42
L 911 42
L 911 42
L 911 42
L 911 41
L 911 41
L 911 41
L 911 41
L 911 41
L 911 41
L 911 41
L 911 41
L 911 41
L 911 41
L 912 41
L 912 41
L 912 41
L 912 41
L 912 41
L 912 41
L 912 41
L 912 40
L 912 40
L 912 40
L 912 40
L 912 40
L 912 40
L 912 40
L 912 40
L 912 40
L 912 40
L 912 40
L 913 40
L 913 40
L 913 40
L 913 40
L 913 40
L 913 40
L 913 39
L 913 39
L 913 39
L 913 39
L 913 39
L 913 39
L 913 39
L 914 39
L 914 39
L 914 39
L 914 39
L 914 39
L 914 39
L 914 39
L 914 39
L 914 39
L 915 39
L 915 38
L 916 38
L 917 38
L 917 38
L 917 38
L 918 38
L 919 38
L 921 38
L 921 38
L 921 38
L 921 38
L 921 38
L 921 38
L 921 38
L 921 38
L 921 38
L 921 38
L 921 37
L 921 37
L 921 37
L 921 37
L 922 37
L 922 37
L 922 37
L 922 37
L 922 37
L 922 37
L 922 37
L 922 37
L 922 37
L 922 37
L 922 37
L 922 37
L 922 37
L 922 36
L 922 36
L 922 36
L 922 36
L 922 36
L 922 36
L 922 36
L 922 36
L 922 36
L 922 36
L 922 36
L 922 36
L 922 36
L 922 36
L 922 36
L 922 36
L 922 36
L 922 35
L 922 35
L 922 35
L 922 35
L 922 35
L 922 35
L 922 35
L 922 35
L 922 35
L 922 35
L 922 35
L 922 35
L 922 35
L 922 35
L 922 35
L 922 35
L 923 35
L 923 34
L 923 34
L 923 34
L 923 34
L 923 34
L 923 34
L 923 34
L 923 34
L 923 34
L 923 34
L 923 34
L 923 34
L 923 34
L 923 34
L 923 34
L 923 34
L 923 34
L 923 33
L 923 33
L 923 33
L 923 33
L 923 33
L 923 33
L 923 33
L 923 33
L 923 33
L 923 33
L 923 33
L 923 33
L 924 33
L 924 33
L 924 33
L 924 33
L 924 33
L 924 32
L 924 32
L 924 32
L 924 32
L 924 32
L 924 32
L 924 32
L 924 32
L 924 32
L 924 32
L 924 32
L 924 32
L 924 32
L 924 32
L 924 32
L 924 32
L 925 32
L 925 31
L 925 31
L 925 31
L 925 31
L 925 31
L 925 31
L 925 31
L 925 31
L 925 31
L 925 31
L 925 31
L 925 31
L 925 31
L 925 31
L 925 31
L 925 31
L 925 31
L 925 30
L 925 30
L 925 30
L 925 30
L 925 30
L 925 30
L 925 30
L 925 30
L 925 30
L 926 30
L 926 30
L 926 30
L 926 30
L 926 30
L 926 30
L 926 30
L 926 30
L 926 29
L 926 29
L 926 29
L 926 29
L 926 29
L 926 29
L 926 29
L 926 29
L 926 29
L 926 29
L 926 29
L 926 29
L 926 29
L 926 29
L 926 29
L 926 29
L 926 29
L 926 28
L 926 28
L 927 28
L 927 28
L 927 28
L 927 28
L 927 28
L 927 28
L 927 28
L 927 28
L 927 28
L 927 28
L 927 28
L 927 28
L 927 28
L 927 28
L 927 28
L 927 28
L 927 27
L 927 27
L 927 27
L 927 27
L 927 27
L 927 27
L 927 27
L 927 27
L 928 27
L 928 27
L 928 27
L 928 27
L 928 27
L 928 27
L 928 27
L 928 27
L 928 27
L 928 26
L 928 26
L 928 26
L 928 26
L 928 26
L 929 26
L 929 26
L 929 26
L 929 26
L 929 26
L 929 26
L 929 26
L 929 26
L 929 26
L 930 26
L 930 26
L 930 26
L 930 25
L 930 25
L 930 25
L 930 25
L 931 25
L 931 25
L 931 25
L 931 25
L 931 25
L 931 25
L 931 25
L 931 25
L 931 25
L 931 25
L 932 25
L 932 25
L 932 25
L 933 24
L 933 24
L 935 24
L 935 24
L 935 24
L 936 24
L 937 24
L 937 24
L 937 24
L 938 24
L 938 24
L 938 24
L 938 24
L 938 24
L 938 24
L 938 24
L 938 24
L 938 23
L 938 23
L 938 23
L 938 23
L 938 23
L 938 23
L 938 23
L 938 23
L 938 23
L 938 23
L 938 23
L 938 23
L 938 23
L 938 23
L 938 23
L 938 23
L 938 23
L 939 22
L 939 22
L 939 22
L 939 22
L 939 22
L 939 22
L 939 22
L 939 22
L 939 22
L 939 22
L 939 22
L 939 22
L 939 22
L 939 22
L 939 22
L 939 22
L 939 22
L 939 21
L 939 21
L 939 21
L 939 21
L 939 21
L 939 21
L 939 21
L 939 21
L 939 21
L 940 21
L 940 21
L 940 21
L 940 21
L 940 21
L 940 21
L 940 21
L 940 21
L 940 20
L 940 20
L 940 20
L 940 20
L 940 20
L 940 20
L 941 20
L 941 20
L 941 20
L 941 20
L 941 20
L 941 20
L 941 20
L 941 20
L 941 20
L 941 20
L 941 20
L 941 19
L 941 19
L 941 19
L 941 19
L 941 19
L 941 19
L 942 19
L 942 19
L 942 19
L 942 19
L 942 19
L 942 19
L 942 19
L 942 19
L 942 19
L 942 19
L 942 19
L 942 18
L 942 18
L 942 18
L 942 18
L 942 18
L 942 18
L 942 18
L 942 18
L 942 18
L 943 18
L 943 18
L 943 18
L 943 18
L 943 18
L 943 18
L 943 18
L 943 18
L 943 17
L 943 17
L 943 17
L 943 17
L 943 17
L 943 17
L 943 17
L 943 17
L 943 17
L 943 17
L 944 17
L 944 17
L 944 17
L 944 17
L 944 17
L 944 17
L 944 17
L 944 16
L 944 16
L 944 16
L 944 16
L 944 16
L 944 16
L 944 16
L 944 16
L 944 16
L 945 16
L 945 16
L 945 16
L 945 16
L 945 16
L 945 16
L 945 16
L 945 16
L 946 15
L 946 15
L 946 15
L 947 15
L 947 15
L 947 15
L 947 15
L 947 15
L 947 15
L 947 15
L 947 15
L 948 15
L 948 15
L 948 15
L 948 15
L 948 15
L 948 15
L 948 14
L 948 14
L 949 14
L 949 14
L 950 14
L 953 14
L 953 14
L 953 14
L 954 14
L 954 14
L 954 14
L 954 14
L 954 14
L 954 14
L 954 14
L 954 14
L 954 14
L 954 13
L 954 13
L 954 13
L 954 13
L 955 13
L 955 13
L 955 13
L 955 13
L 955 13
L 955 13
L 955 13
L 955 13
L 955 13
L 955 13
L 955 13
L 955 13
L 955 13
L 955 12
L 955 12
L 955 12
L 955 12
L 955 12
L 955 12
L 955 12
L 955 12
L 955 12
L 955 12
L 956 12
L 956 12
L 956 12
L 956 12
L 956 12
L 956 12
L 956 12
L 956 11
L 956 11
L 956 11
L 956 11
L 956 11
L 956 11
L 956 11
L 956 11
L 957 11
L 957 11
L 957 11
L 957 11
L 957 11
L 957 11
L 957 11
L 957 11
L 957 11" style="stroke-width:2;stroke:rgba(129,199,239,1.0);fill:none"/></svg>