<svg xmlns="http://www.w3.org/2000/svg" xmlns:xlink="http://www.w3.org/1999/xlink" width="1024" height="400">\n<path  d="M 0 0
L 1024 0
L 1024 400
L 0 400
L 0 0" style="stroke-width:0;stroke:rgba(255,255,255,1.0);fill:rgba(255,255,255,1.0)"/><path  d="M 38 11
L 957 11
L 957 351
L 38 351
L 38 11" style="stroke-width:0;stroke:rgba(255,255,255,1.0);fill:rgba(255,255,255,1.0)"/><path  d="M 38 351
L 957 351" style="stroke-width:2;stroke:rgba(85,85,85,1.0);fill:none"/><path  d="M 38 351
L 38 356" style="stroke-width:2;stroke:rgba(85,85,85,1.0);fill:none"/><text x="5" y="373" style="stroke-width:0;stroke:none;fill:rgba(51,51,51,1.0);font-size:12.8px;font-family:'Roboto Medium',sans-serif">2018-11-23</text><path  d="M 153 351
L 153 356" style="stroke-width:2;stroke:rgba(85,85,85,1.0);fill:none"/><text x="120" y="373" style="stroke-width:0;stroke:none;fill:rgba(51,51,51,1.0);font-size:12.8px;font-family:'Roboto Medium',sans-serif">2018-11-30</text><path  d="M 268 351
L 268 356" style="stroke-width:2;stroke:rgba(85,85,85,1.0);fill:none"/><text x="235" y="373" style="stroke-width:0;stroke:none;fill:rgba(51,51,51,1.0);font-size:12.8px;font-family:'Roboto Medium',sans-serif">2018-12-08</text><path  d="M 383 351
L 383 356" style="stroke-width:2;stroke:rgba(85,85,85,1.0);fill:none"/><text x="350" y="373" style="stroke-width:0;stroke:none;fill:rgba(51,51,51,1.0);font-size:12.8px;font-family:'Roboto Medium',sans-serif">2018-12-15</text><path  d="M 498 351
L 498 356" style="stroke-width:2;stroke:rgba(85,85,85,1.0);fill:none"/><text x="465" y="373" style="stroke-width:0;stroke:none;fill:rgba(51,51,51,1.0);font-size:12.8px;font-family:'Roboto Medium',sans-serif">2018-12-23</text><path  d="M 613 351
L 613 356" style="stroke-width:2;stroke:rgba(85,85,85,1.0);fill:none"/><text x="580" y="373" style="stroke-width:0;stroke:none;fill:rgba(51,51,51,1.0);font-size:12.8px;font-family:'Roboto Medium',sans-serif">2018-12-30</text><path  d="M 728 351
L 728 356" style="stroke-width:2;stroke:rgba(85,85,85,1.0);fill:none"/><text x="695" y="373" style="stroke-width:0;stroke:none;fill:rgba(51,51,51,1.0);font-size:12.8px;font-family:'Roboto Medium',sans-serif">2019-01-07</text><path  d="M 843 351
L 843 356" style="stroke-width:2;stroke:rgba(85,85,85,1.0);fill:none"/><text x="810" y="373" style="stroke-width:0;stroke:none;fill:rgba(51,51,51,1.0);font-size:12.8px;font-family:'Roboto Medium',sans-serif">2019-01-14</text><path  d="M 957 351
L 957 356" style="stroke-width:2;stroke:rgba(85,85,85,1.0);fill:none"/><text x="924" y="373" style="stroke-width:0;stroke:none;fill:rgba(51,51,51,1.0);font-size:12.8px;font-family:'Roboto Medium',sans-serif">2019-01-22</text><text x="483" y="395" style="stroke-width:0;stroke:none;fill:rgba(51,51,51,1.0);font-size:12.8px;font-family:'Roboto Medium',sans-serif">Time</text><path  d="M 959 351
L 959 11" style="stroke-width:2;stroke:rgba(85,85,85,1.0);fill:none"/><path  d="M 959 351
L 964 351" style="stroke-width:2;stroke:rgba(85,85,85,1.0);fill:none"/><text x="969" y="357" style="stroke-width:0;stroke:none;fill:rgba(51,51,51,1.0);font-size:12.8px;font-family:'Roboto Medium',sans-serif">0</text><path  d="M 959 308
L 964 308" style="stroke-width:2;stroke:rgba(85,85,85,1.0);fill:none"/><text x="969" y="314" style="stroke-width:0;stroke:none;fill:rgba(51,51,51,1.0);font-size:12.8px;font-family:'Roboto Medium',sans-serif">770</text><path  d="M 959 265
L 964 265" style="stroke-width:2;stroke:rgba(85,85,85,1.0);fill:none"/><text x="969" y="271" style="stroke-width:0;stroke:none;fill:rgba(51,51,51,1.0);font-size:12.8px;font-family:'Roboto Medium',sans-serif">1530</text><path  d="M 959 223
L 964 223" style="stroke-width:2;stroke:rgba(85,85,85,1.0);fill:none"/><text x="969" y="229" style="stroke-width:0;stroke:none;fill:rgba(51,51,51,1.0);font-size:12.8px;font-family:'Roboto Medium',sans-serif">2290</text><path  d="M 959 181
L 964 181" style="stroke-width:2;stroke:rgba(85,85,85,1.0);fill:none"/><text x="969" y="187" style="stroke-width:0;stroke:none;fill:rgba(51,51,51,1.0);font-size:12.8px;font-family:'Roboto Medium',sans-serif">3050</text><path  d="M 959 138
L 964 138" style="stroke-width:2;stroke:rgba(85,85,85,1.0);fill:none"/><text x="969" y="144" style="stroke-width:0;stroke:none;fill:rgba(51,51,51,1.0);font-size:12.8px;font-family:'Roboto Medium',sans-serif">3820</text><path  d="M 959 95
L 964 95" style="stroke-width:2;stroke:rgba(85,85,85,1.0);fill:none"/><text x="969" y="101" style="stroke-width:0;stroke:none;fill:rgba(51,51,51,1.0);font-size:12.8px;font-family:'Roboto Medium',sans-serif">4580</text><path  d="M 959 53
L 964 53" style="stroke-width:2;stroke:rgba(85,85,85,1.0);fill:none"/><text x="969" y="59" style="stroke-width:0;stroke:none;fill:rgba(51,51,51,1.0);font-size:12.8px;font-family:'Roboto Medium',sans-serif">5340</text><path  d="M 959 11
L 964 11" style="stroke-width:2;stroke:rgba(85,85,85,1.0);fill:none"/><text x="969" y="17" style="stroke-width:0;stroke:none;fill:rgba(51,51,51,1.0);font-size:12.8px;font-family:'Roboto Medium',sans-serif">6100</text><text x="1009" y="150" style="stroke-width:0;stroke:none;fill:rgba(51,51,51,1.0);font-size:12.8px;font-family:'Roboto Medium',sans-serif" transform="rotate(90.00,1009,150)">Stargazers</text><path  d="M 38 351
L 119 350
L 175 350
L 178 350
L 190 350
L 190 350
L 190 350
L 191 350
L 191 350
L 191 350
L 192 350
L 192 350
L 192 350
L 192 350
L 192 350
L 193 350
L 193 350
L 193 350
L 193 349
L 193 349
L 193 349
L 194 349
L 196 349
L 197 349
L 205 349
L 206 349
L 206 349
L 206 349
L 207 349
L 208 349
L 210 349
L 211 349
L 213 349
L 213 349
L 213 349
L 213 349
L 213 348
L 213 348
L 217 348
L 219 348
L 220 348
L 220 348
L 220 348
L 220 348
L 221 348
L 221 348
L 221 348
L 221 348
L 222 348
L 222 348
L 224 348
L 224 348
L 225 348
L 225 348
L 225 347
L 225 347
L 225 347
L 225 347
L 226 347
L 227 347
L 227 347
L 227 347
L 227 347
L 227 347
L 228 347
L 228 347
L 229 347
L 229 347
L 229 347
L 229 347
L 230 347
L 234 347
L 236 346
L 236 346
L 236 346
L 236 346
L 236 346
L 237 346
L 237 346
L 237 346
L 238 346
L 238 346
L 238 346
L 238 346
L 238 346
L 238 346
L 238 346
L 238 346
L 238 346
L 238 346
L 238 345
L 238 345
L 238 345
L 238 345
L 238 345
L 238 345
L 238 345
L 238 345
L 238 345
L 238 345
L 238 345
L 238 345
L 238 345
L 238 345
L 238 345
L 238 345
L 238 345
L 239 345
L 239 344
L 239 344
L 239 344
L 239 344
L 239 344
L 239 344
L 239 344
L 239 344
L 239 344
L 239 344
L 239 344
L 239 344
L 239 344
L 239 344
L 239 344
L 239 344
L 239 344
L 239 344
L 239 343
L 239 343
L 239 343
L 240 343
L 240 343
L 240 343
L 240 343
L 240 343
L 240 343
L 240 343
L 240 343
L 241 343
L 241 343
L 241 343
L 241 343
L 241 343
L 241 343
L 241 343
L 241 342
L 241 342
L 242 342
L 242 342
L 242 342
L 242 342
L 242 342
L 242 342
L 242 342
L 242 342
L 242 342
L 243 342
L 243 342
L 243 342
L 245 342
L 246 342
L 250 342
L 250 342
L 251 341
L 251 341
L 251 341
L 251 341
L 251 341
L 252 341
L 252 341
L 253 341
L 253 341
L 253 341
L 254 341
L 254 341
L 254 341
L 254 341
L 255 341
L 255 341
L 255 341
L 256 341
L 256 340
L 256 340
L 256 340
L 256 340
L 256 340
L 258 340
L 266 340
L 267 340
L 267 340
L 267 340
L 267 340
L 267 340
L 269 340
L 270 340
L 271 340
L 275 340
L 275 340
L 276 340
L 278 339
L 282 339
L 283 339
L 285 339
L 286 339
L 286 339
L 287 339
L 287 339
L 288 339
L 288 339
L 288 339
L 288 339
L 288 339
L 289 339
L 289 339
L 292 339
L 297 339
L 297 339
L 297 338
L 298 338
L 298 338
L 298 338
L 300 338
L 301 338
L 302 338
L 306 338
L 306 338
L 312 338
L 315 338
L 315 338
L 316 338
L 316 338
L 319 338
L 319 338
L 327 338
L 328 338
L 328 337
L 328 337
L 329 337
L 331 337
L 331 337
L 333 337
L 334 337
L 334 337
L 336 337
L 338 337
L 343 337
L 349 337
L 350 337
L 357 337
L 359 337
L 359 337
L 361 337
L 361 337
L 362 336
L 362 336
L 364 336
L 365 336
L 366 336
L 366 336
L 366 336
L 369 336
L 371 336
L 374 336
L 376 336
L 376 336
L 377 336
L 377 336
L 377 336
L 378 336
L 379 336
L 380 336
L 381 335
L 382 335
L 382 335
L 383 335
L 389 335
L 389 335
L 389 335
L 390 335
L 393 335
L 395 335
L 396 335
L 396 335
L 398 335
L 403 335
L 404 335
L 404 335
L 405 335
L 405 335
L 405 334
L 409 334
L 409 334
L 411 334
L 413 334
L 420 334
L 421 334
L 423 334
L 423 334
L 425 334
L 425 334
L 425 334
L 427 334
L 427 334
L 429 334
L 429 334
L 435 334
L 436 334
L 437 333
L 438 333
L 438 333
L 438 333
L 438 333
L 439 333
L 441 333
L 450 333
L 450 333
L 450 333
L 451 333
L 453 333
L 453 333
L 455 333
L 455 333
L 455 333
L 458 333
L 458 332
L 458 332
L 458 332
L 458 332
L 460 332
L 466 332
L 467 332
L 467 332
L 467 332
L 467 332
L 467 332
L 467 332
L 467 332
L 467 332
L 467 332
L 469 332
L 469 332
L 469 332
L 469 331
L 469 331
L 469 331
L 469 331
L 469 331
L 469 331
L 469 331
L 469 331
L 469 331
L 469 331
L 469 331
L 469 331
L 469 331
L 470 331
L 470 331
L 470 331
L 470 331
L 470 331
L 470 330
L 470 330
L 470 330
L 470 330
L 470 330
L 470 330
L 471 330
L 471 330
L 471 330
L 471 330
L 471 330
L 471 330
L 471 330
L 471 330
L 471 330
L 471 330
L 471 330
L 471 330
L 471 329
L 471 329
L 471 329
L 471 329
L 471 329
L 471 329
L 471 329
L 471 329
L 471 329
L 471 329
L 472 329
L 472 329
L 472 329
L 472 329
L 472 329
L 472 329
L 473 329
L 473 329
L 473 328
L 473 328
L 473 328
L 473 328
L 473 328
L 473 328
L 473 328
L 474 328
L 474 328
L 474 328
L 474 328
L 474 328
L 474 328
L 475 328
L 475 328
L 475 328
L 476 328
L 481 328
L 481 327
L 481 327
L 482 327
L 482 327
L 482 327
L 482 327
L 482 327
L 482 327
L 482 327
L 482 327
L 482 327
L 482 327
L 482 327
L 482 327
L 482 327
L 482 327
L 482 327
L 482 327
L 483 326
L 483 326
L 483 326
L 483 326
L 483 326
L 483 326
L 483 326
L 483 326
L 484 326
L 484 326
L 484 326
L 484 326
L 484 326
L 484 326
L 484 326
L 484 326
L 484 326
L 485 326
L 485 325
L 485 325
L 485 325
L 485 325
L 485 325
L 485 325
L 485 325
L 485 325
L 485 325
L 485 325
L 485 325
L 485 325
L 485 325
L 485 325
L 486 325
L 486 325
L 486 325
L 486 325
L 486 324
L 486 324
L 486 324
L 486 324
L 486 324
L 486 324
L 486 324
L 486 324
L 486 324
L 486 324
L 486 324
L 486 324
L 486 324
L 486 324
L 486 324
L 486 324
L 487 324
L 487 324
L 487 323
L 487 323
L 487 323
L 488 323
L 488 323
L 488 323
L 488 323
L 488 323
L 488 323
L 488 323
L 488 323
L 488 323
L 488 323
L 488 323
L 488 323
L 489 323
L 489 323
L 489 323
L 489 322
L 489 322
L 489 322
L 489 322
L 489 322
L 489 322
L 489 322
L 489 322
L 489 322
L 489 322
L 489 322
L 489 322
L 490 322
L 490 322
L 490 322
L 490 322
L 490 322
L 490 322
L 490 321
L 490 321
L 490 321
L 490 321
L 490 321
L 490 321
L 490 321
L 490 321
L 490 321
L 490 321
L 490 321
L 491 321
L 491 321
L 491 321
L 491 321
L 491 321
L 491 321
L 492 321
L 492 320
L 492 320
L 493 320
L 494 320
L 495 320
L 495 320
L 496 320
L 496 320
L 496 320
L 496 320
L 496 320
L 496 320
L 496 320
L 496 320
L 497 320
L 497 320
L 497 320
L 497 320
L 497 319
L 497 319
L 497 319
L 497 319
L 497 319
L 497 319
L 497 319
L 497 319
L 497 319
L 497 319
L 497 319
L 497 319
L 497 319
L 498 319
L 498 319
L 498 319
L 498 319
L 498 319
L 498 318
L 498 318
L 498 318
L 498 318
L 498 318
L 498 318
L 498 318
L 498 318
L 498 318
L 498 318
L 499 318
L 499 318
L 499 318
L 499 318
L 499 318
L 499 318
L 499 318
L 499 318
L 499 317
L 499 317
L 499 317
L 499 317
L 499 317
L 499 317
L 499 317
L 500 317
L 500 317
L 500 317
L 500 317
L 500 317
L 500 317
L 500 317
L 500 317
L 500 317
L 500 317
L 500 317
L 500 316
L 500 316
L 500 316
L 500 316
L 500 316
L 500 316
L 500 316
L 500 316
L 500 316
L 501 316
L 501 316
L 501 316
L 501 316
L 501 316
L 501 316
L 501 316
L 501 316
L 501 315
L 501 315
L 501 315
L 502 315
L 502 315
L 502 315
L 502 315
L 502 315
L 502 315
L 502 315
L 502 315
L 502 315
L 502 315
L 503 315
L 503 315
L 503 315
L 503 315
L 503 315
L 503 314
L 503 314
L 503 314
L 503 314
L 503 314
L 503 314
L 503 314
L 503 314
L 503 314
L 503 314
L 503 314
L 503 314
L 503 314
L 504 314
L 504 314
L 504 314
L 504 314
L 504 314
L 504 313
L 504 313
L 504 313
L 504 313
L 504 313
L 504 313
L 504 313
L 504 313
L 504 313
L 504 313
L 504 313
L 504 313
L 504 313
L 504 313
L 504 313
L 505 313
L 505 313
L 505 313
L 505 312
L 505 312
L 505 312
L 505 312
L 505 312
L 505 312
L 505 312
L 505 312
L 505 312
L 505 312
L 505 312
L 505 312
L 505 312
L 506 312
L 506 312
L 506 312
L 506 312
L 506 312
L 506 311
L 506 311
L 506 311
L 506 311
L 506 311
L 506 311
L 507 311
L 507 311
L 507 311
L 507 311
L 507 311
L 508 311
L 508 311
L 509 311
L 510 311
L 511 311
L 511 311
L 511 311
L 511 310
L 511 310
L 511 310
L 511 310
L 511 310
L 511 310
L 511 310
L 511 310
L 511 310
L 511 310
L 511 310
L 511 310
L 511 310
L 511 310
L 511 310
L 511 310
L 511 310
L 511 310
L 511 309
L 511 309
L 511 309
L 511 309
L 511 309
L 511 309
L 511 309
L 511 309
L 511 309
L 511 309
L 511 309
L 512 309
L 512 309
L 512 309
L 512 309
L 512 309
L 512 309
L 512 309
L 512 308
L 512 308
L 512 308
L 512 308
L 512 308
L 512 308
L 512 308
L 512 308
L 512 308
L 512 308
L 512 308
L 512 308
L 512 308
L 512 308
L 512 308
L 512 308
L 512 308
L 512 308
L 512 307
L 512 307
L 512 307
L 512 307
L 512 307
L 512 307
L 512 307
L 512 307
L 512 307
L 512 307
L 512 307
L 512 307
L 512 307
L 512 307
L 512 307
L 512 307
L 512 307
L 512 307
L 512 306
L 512 306
L 512 306
L 512 306
L 512 306
L 512 306
L 512 306
L 512 306
L 512 306
L 512 306
L 512 306
L 512 306
L 512 306
L 512 306
L 512 306
L 512 306
L 512 306
L 512 306
L 512 305
L 512 305
L 512 305
L 512 305
L 512 305
L 512 305
L 512 305
L 512 305
L 512 305
L 512 305
L 513 305
L 513 305
L 513 305
L 513 305
L 513 305
L 513 305
L 513 305
L 513 305
L 513 304
L 513 304
L 513 304
L 513 304
L 513 304
L 513 304
L 513 304
L 513 304
L 513 304
L 513 304
L 513 304
L 513 304
L 513 304
L 513 304
L 513 304
L 513 304
L 513 304
L 513 304
L 513 303
L 513 303
L 513 303
L 513 303
L 513 303
L 513 303
L 513 303
L 513 303
L 513 303
L 513 303
L 513 303
L 513 303
L 513 303
L 513 303
L 514 303
L 514 303
L 514 303
L 514 303
L 514 302
L 514 302
L 514 302
L 514 302
L 514 302
L 514 302
L 514 302
L 514 302
L 514 302
L 514 302
L 514 302
L 514 302
L 514 302
L 514 302
L 514 302
L 514 302
L 514 302
L 514 302
L 514 301
L 514 301
L 514 301
L 514 301
L 514 301
L 514 301
L 514 301
L 514 301
L 514 301
L 514 301
L 514 301
L 514 301
L 514 301
L 514 301
L 514 301
L 514 301
L 515 301
L 515 301
L 515 300
L 515 300
L 515 300
L 515 300
L 515 300
L 515 300
L 515 300
L 515 300
L 515 300
L 515 300
L 515 300
L 515 300
L 515 300
L 515 300
L 515 300
L 515 300
L 515 300
L 515 300
L 515 299
L 515 299
L 515 299
L 515 299
L 515 299
L 515 299
L 515 299
L 515 299
L 515 299
L 515 299
L 515 299
L 515 299
L 515 299
L 515 299
L 515 299
L 515 299
L 515 299
L 515 298
L 515 298
L 515 298
L 515 298
L 515 298
L 515 298
L 515 298
L 515 298
L 515 298
L 515 298
L 515 298
L 515 298
L 515 298
L 515 298
L 515 298
L 515 298
L 515 298
L 515 298
L 515 297
L 515 297
L 515 297
L 515 297
L 515 297
L 515 297
L 515 297
L 515 297
L 516 297
L 516 297
L 516 297
L 516 297
L 516 297
L 516 297
L 516 297
L 516 297
L 516 297
L 516 297
L 516 296
L 516 296
L 516 296
L 516 296
L 516 296
L 516 296
L 516 296
L 516 296
L 516 296
L 516 296
L 516 296
L 516 296
L 516 296
L 516 296
L 516 296
L 516 296
L 516 296
L 516 296
L 516 295
L 516 295
L 516 295
L 516 295
L 516 295
L 516 295
L 516 295
L 516 295
L 516 295
L 516 295
L 516 295
L 516 295
L 516 295
L 517 295
L 517 295
L 517 295
L 517 295
L 517 295
L 517 294
L 517 294
L 517 294
L 517 294
L 517 294
L 517 294
L 517 294
L 517 294
L 517 294
L 517 294
L 517 294
L 517 294
L 517 294
L 517 294
L 517 294
L 517 294
L 517 294
L 517 294
L 517 293
L 517 293
L 517 293
L 517 293
L 517 293
L 517 293
L 517 293
L 517 293
L 517 293
L 517 293
L 517 293
L 517 293
L 517 293
L 517 293
L 517 293
L 517 293
L 517 293
L 517 293
L 517 292
L 517 292
L 517 292
L 517 292
L 517 292
L 517 292
L 517 292
L 517 292
L 518 292
L 518 292
L 518 292
L 518 292
L 518 292
L 518 292
L 518 292
L 518 292
L 518 292
L 518 292
L 518 291
L 518 291
L 518 291
L 518 291
L 518 291
L 518 291
L 518 291
L 518 291
L 518 291
L 518 291
L 519 291
L 519 291
L 519 291
L 519 291
L 519 291
L 519 291
L 519 291
L 519 291
L 519 290
L 519 290
L 519 290
L 519 290
L 519 290
L 519 290
L 519 290
L 519 290
L 520 290
L 520 290
L 520 290
L 520 290
L 520 290
L 520 290
L 520 290
L 520 290
L 520 290
L 520 290
L 520 289
L 520 289
L 520 289
L 520 289
L 520 289
L 520 289
L 520 289
L 520 289
L 520 289
L 520 289
L 521 289
L 521 289
L 521 289
L 521 289
L 521 289
L 521 289
L 521 289
L 521 289
L 521 288
L 521 288
L 521 288
L 521 288
L 521 288
L 521 288
L 521 288
L 521 288
L 521 288
L 522 288
L 522 288
L 522 288
L 522 288
L 524 288
L 526 288
L 526 288
L 526 288
L 526 288
L 526 287
L 526 287
L 526 287
L 527 287
L 527 287
L 527 287
L 527 287
L 527 287
L 527 287
L 527 287
L 527 287
L 527 287
L 527 287
L 527 287
L 527 287
L 527 287
L 527 287
L 527 287
L 527 286
L 527 286
L 527 286
L 527 286
L 527 286
L 527 286
L 527 286
L 527 286
L 527 286
L 527 286
L 527 286
L 527 286
L 527 286
L 527 286
L 527 286
L 527 286
L 527 286
L 527 286
L 527 285
L 527 285
L 527 285
L 527 285
L 527 285
L 527 285
L 527 285
L 527 285
L 527 285
L 527 285
L 527 285
L 527 285
L 527 285
L 527 285
L 527 285
L 527 285
L 527 285
L 527 285
L 527 284
L 527 284
L 527 284
L 527 284
L 527 284
L 527 284
L 527 284
L 527 284
L 527 284
L 527 284
L 527 284
L 527 284
L 527 284
L 527 284
L 527 284
L 527 284
L 527 284
L 527 284
L 528 283
L 528 283
L 528 283
L 528 283
L 528 283
L 528 283
L 528 283
L 528 283
L 528 283
L 528 283
L 528 283
L 528 283
L 528 283
L 528 283
L 528 283
L 528 283
L 528 283
L 528 283
L 528 282
L 528 282
L 528 282
L 528 282
L 528 282
L 528 282
L 528 282
L 528 282
L 528 282
L 528 282
L 528 282
L 528 282
L 528 282
L 528 282
L 528 282
L 528 282
L 528 282
L 528 281
L 528 281
L 528 281
L 528 281
L 528 281
L 528 281
L 528 281
L 528 281
L 528 281
L 528 281
L 528 281
L 528 281
L 528 281
L 528 281
L 528 281
L 528 281
L 528 281
L 528 281
L 528 280
L 528 280
L 528 280
L 528 280
L 528 280
L 528 280
L 528 280
L 528 280
L 528 280
L 528 280
L 528 280
L 528 280
L 529 280
L 529 280
L 529 280
L 529 280
L 529 280
L 529 280
L 529 279
L 529 279
L 529 279
L 529 279
L 529 279
L 529 279
L 529 279
L 529 279
L 529 279
L 529 279
L 529 279
L 529 279
L 529 279
L 529 279
L 529 279
L 529 279
L 529 279
L 529 279
L 530 278
L 530 278
L 530 278
L 530 278
L 530 278
L 530 278
L 530 278
L 530 278
L 530 278
L 530 278
L 530 278
L 530 278
L 530 278
L 530 278
L 530 278
L 530 278
L 530 278
L 530 278
L 530 277
L 530 277
L 530 277
L 530 277
L 530 277
L 530 277
L 530 277
L 530 277
L 530 277
L 530 277
L 530 277
L 530 277
L 530 277
L 530 277
L 530 277
L 530 277
L 530 277
L 530 277
L 530 276
L 530 276
L 530 276
L 530 276
L 530 276
L 530 276
L 530 276
L 530 276
L 530 276
L 530 276
L 530 276
L 531 276
L 531 276
L 531 276
L 531 276
L 531 276
L 531 276
L 531 276
L 531 275
L 531 275
L 531 275
L 531 275
L 531 275
L 531 275
L 531 275
L 531 275
L 531 275
L 531 275
L 531 275
L 531 275
L 531 275
L 531 275
L 531 275
L 531 275
L 531 275
L 531 275
L 531 274
L 531 274
L 531 274
L 531 274
L 531 274
L 531 274
L 531 274
L 531 274
L 531 274
L 531 274
L 531 274
L 531 274
L 531 274
L 531 274
L 531 274
L 531 274
L 531 274
L 531 274
L 531 273
L 531 273
L 532 273
L 532 273
L 532 273
L 532 273
L 532 273
L 532 273
L 532 273
L 532 273
L 532 273
L 532 273
L 532 273
L 532 273
L 532 273
L 532 273
L 532 273
L 532 273
L 532 272
L 532 272
L 532 272
L 532 272
L 532 272
L 532 272
L 532 272
L 532 272
L 532 272
L 532 272
L 532 272
L 532 272
L 532 272
L 532 272
L 532 272
L 532 272
L 532 272
L 532 272
L 532 271
L 532 271
L 532 271
L 532 271
L 532 271
L 533 271
L 533 271
L 533 271
L 533 271
L 533 271
L 533 271
L 533 271
L 533 271
L 533 271
L 533 271
L 533 271
L 533 271
L 533 271
L 533 270
L 533 270
L 533 270
L 533 270
L 533 270
L 533 270
L 533 270
L 533 270
L 533 270
L 533 270
L 533 270
L 533 270
L 533 270
L 533 270
L 533 270
L 533 270
L 533 270
L 533 270
L 533 269
L 533 269
L 533 269
L 533 269
L 533 269
L 533 269
L 533 269
L 533 269
L 533 269
L 533 269
L 533 269
L 533 269
L 533 269
L 533 269
L 533 269
L 533 269
L 533 269
L 533 269
L 533 268
L 533 268
L 533 268
L 533 268
L 533 268
L 533 268
L 533 268
L 534 268
L 534 268
L 534 268
L 534 268
L 534 268
L 534 268
L 534 268
L 534 268
L 534 268
L 534 268
L 534 268
L 534 267
L 534 267
L 534 267
L 534 267
L 534 267
L 534 267
L 534 267
L 534 267
L 534 267
L 534 267
L 534 267
L 534 267
L 534 267
L 534 267
L 534 267
L 534 267
L 534 267
L 534 267
L 534 266
L 534 266
L 535 266
L 535 266
L 535 266
L 535 266
L 535 266
L 535 266
L 535 266
L 535 266
L 535 266
L 535 266
L 535 266
L 535 266
L 535 266
L 535 266
L 535 266
L 535 266
L 535 265
L 535 265
L 535 265
L 535 265
L 535 265
L 535 265
L 535 265
L 535 265
L 535 265
L 535 265
L 535 265
L 535 265
L 535 265
L 535 265
L 535 265
L 536 265
L 536 265
L 536 264
L 536 264
L 536 264
L 536 264
L 536 264
L 536 264
L 536 264
L 536 264
L 536 264
L 536 264
L 536 264
L 536 264
L 536 264
L 536 264
L 536 264
L 536 264
L 536 264
L 536 264
L 537 263
L 537 263
L 537 263
L 537 263
L 537 263
L 537 263
L 537 263
L 537 263
L 537 263
L 538 263
L 538 263
L 538 263
L 538 263
L 538 263
L 539 263
L 540 263
L 541 263
L 541 263
L 542 262
L 542 262
L 542 262
L 542 262
L 542 262
L 542 262
L 542 262
L 542 262
L 542 262
L 542 262
L 542 262
L 542 262
L 542 262
L 542 262
L 542 262
L 542 262
L 542 262
L 542 262
L 542 261
L 542 261
L 542 261
L 542 261
L 542 261
L 542 261
L 542 261
L 542 261
L 542 261
L 542 261
L 542 261
L 542 261
L 542 261
L 542 261
L 542 261
L 542 261
L 542 261
L 542 261
L 542 260
L 542 260
L 542 260
L 542 260
L 542 260
L 542 260
L 542 260
L 543 260
L 543 260
L 543 260
L 543 260
L 543 260
L 543 260
L 543 260
L 543 260
L 543 260
L 543 260
L 543 260
L 543 259
L 543 259
L 543 259
L 543 259
L 543 259
L 543 259
L 543 259
L 543 259
L 543 259
L 543 259
L 543 259
L 543 259
L 543 259
L 543 259
L 543 259
L 543 259
L 543 259
L 543 259
L 543 258
L 543 258
L 543 258
L 543 258
L 543 258
L 543 258
L 543 258
L 543 258
L 543 258
L 543 258
L 543 258
L 543 258
L 543 258
L 543 258
L 543 258
L 543 258
L 543 258
L 543 258
L 543 257
L 543 257
L 543 257
L 543 257
L 543 257
L 543 257
L 543 257
L 543 257
L 543 257
L 543 257
L 543 257
L 543 257
L 543 257
L 543 257
L 543 257
L 543 257
L 543 257
L 543 257
L 543 256
L 543 256
L 543 256
L 543 256
L 543 256
L 543 256
L 543 256
L 544 256
L 544 256
L 544 256
L 544 256
L 544 256
L 544 256
L 544 256
L 544 256
L 544 256
L 544 256
L 544 256
L 544 255
L 544 255
L 544 255
L 544 255
L 544 255
L 544 255
L 544 255
L 544 255
L 544 255
L 544 255
L 544 255
L 545 255
L 545 255
L 545 255
L 545 255
L 545 255
L 545 255
L 545 255
L 545 254
L 545 254
L 545 254
L 545 254
L 545 254
L 545 254
L 545 254
L 545 254
L 545 254
L 545 254
L 545 254
L 545 254
L 545 254
L 545 254
L 545 254
L 545 254
L 545 254
L 545 254
L 545 253
L 545 253
L 545 253
L 545 253
L 545 253
L 546 253
L 546 253
L 546 253
L 546 253
L 546 253
L 546 253
L 546 253
L 546 253
L 546 253
L 546 253
L 546 253
L 546 253
L 546 253
L 546 252
L 546 252
L 546 252
L 546 252
L 546 252
L 546 252
L 546 252
L 546 252
L 546 252
L 546 252
L 546 252
L 546 252
L 546 252
L 546 252
L 546 252
L 546 252
L 546 252
L 546 252
L 546 251
L 546 251
L 546 251
L 546 251
L 546 251
L 546 251
L 546 251
L 546 251
L 546 251
L 547 251
L 547 251
L 547 251
L 547 251
L 547 251
L 547 251
L 547 251
L 547 251
L 547 251
L 547 250
L 547 250
L 547 250
L 547 250
L 547 250
L 547 250
L 547 250
L 547 250
L 547 250
L 547 250
L 547 250
L 547 250
L 547 250
L 547 250
L 547 250
L 547 250
L 547 250
L 547 250
L 547 249
L 547 249
L 547 249
L 547 249
L 547 249
L 547 249
L 547 249
L 547 249
L 547 249
L 547 249
L 547 249
L 547 249
L 547 249
L 547 249
L 547 249
L 547 249
L 547 249
L 547 249
L 547 248
L 548 248
L 548 248
L 548 248
L 548 248
L 548 248
L 548 248
L 548 248
L 548 248
L 548 248
L 548 248
L 548 248
L 548 248
L 548 248
L 548 248
L 548 248
L 548 248
L 548 247
L 548 247
L 548 247
L 548 247
L 548 247
L 548 247
L 548 247
L 548 247
L 548 247
L 548 247
L 548 247
L 548 247
L 548 247
L 548 247
L 549 247
L 549 247
L 549 247
L 549 247
L 549 246
L 549 246
L 549 246
L 549 246
L 549 246
L 549 246
L 549 246
L 549 246
L 549 246
L 549 246
L 549 246
L 549 246
L 549 246
L 549 246
L 549 246
L 549 246
L 549 246
L 549 246
L 549 245
L 550 245
L 550 245
L 550 245
L 550 245
L 550 245
L 550 245
L 550 245
L 550 245
L 550 245
L 550 245
L 550 245
L 550 245
L 550 245
L 550 245
L 550 245
L 550 245
L 550 245
L 550 244
L 550 244
L 550 244
L 550 244
L 550 244
L 551 244
L 551 244
L 551 244
L 551 244
L 551 244
L 551 244
L 551 244
L 551 244
L 551 244
L 551 244
L 551 244
L 551 244
L 551 244
L 551 243
L 551 243
L 551 243
L 551 243
L 552 243
L 552 243
L 552 243
L 552 243
L 552 243
L 552 243
L 552 243
L 552 243
L 552 243
L 552 243
L 552 243
L 552 243
L 553 243
L 553 243
L 556 242
L 557 242
L 557 242
L 557 242
L 557 242
L 557 242
L 557 242
L 557 242
L 557 242
L 557 242
L 557 242
L 557 242
L 557 242
L 557 242
L 557 242
L 558 242
L 558 242
L 558 242
L 558 241
L 558 241
L 558 241
L 558 241
L 558 241
L 558 241
L 558 241
L 558 241
L 558 241
L 558 241
L 558 241
L 558 241
L 558 241
L 558 241
L 558 241
L 558 241
L 558 241
L 558 241
L 558 240
L 558 240
L 558 240
L 558 240
L 558 240
L 558 240
L 558 240
L 558 240
L 558 240
L 558 240
L 558 240
L 558 240
L 558 240
L 558 240
L 558 240
L 558 240
L 558 240
L 558 240
L 558 239
L 558 239
L 558 239
L 558 239
L 558 239
L 558 239
L 558 239
L 558 239
L 558 239
L 558 239
L 558 239
L 558 239
L 559 239
L 559 239
L 559 239
L 559 239
L 559 239
L 559 239
L 559 238
L 559 238
L 559 238
L 559 238
L 559 238
L 559 238
L 559 238
L 559 238
L 559 238
L 559 238
L 559 238
L 559 238
L 559 238
L 559 238
L 559 238
L 559 238
L 559 238
L 559 238
L 559 237
L 559 237
L 559 237
L 559 237
L 559 237
L 559 237
L 560 237
L 560 237
L 560 237
L 560 237
L 560 237
L 560 237
L 560 237
L 560 237
L 560 237
L 560 237
L 560 237
L 560 237
L 561 236
L 561 236
L 561 236
L 561 236
L 561 236
L 561 236
L 561 236
L 561 236
L 561 236
L 561 236
L 561 236
L 561 236
L 561 236
L 561 236
L 561 236
L 561 236
L 561 236
L 561 236
L 561 235
L 561 235
L 561 235
L 561 235
L 561 235
L 561 235
L 561 235
L 561 235
L 562 235
L 562 235
L 562 235
L 562 235
L 562 235
L 562 235
L 562 235
L 562 235
L 562 235
L 562 235
L 562 234
L 562 234
L 562 234
L 562 234
L 562 234
L 562 234
L 562 234
L 562 234
L 562 234
L 562 234
L 562 234
L 562 234
L 562 234
L 562 234
L 562 234
L 562 234
L 562 234
L 562 234
L 562 233
L 562 233
L 562 233
L 563 233
L 563 233
L 563 233
L 563 233
L 563 233
L 563 233
L 563 233
L 563 233
L 563 233
L 563 233
L 563 233
L 563 233
L 563 233
L 563 233
L 563 233
L 563 232
L 563 232
L 563 232
L 563 232
L 563 232
L 563 232
L 563 232
L 563 232
L 563 232
L 563 232
L 563 232
L 563 232
L 563 232
L 563 232
L 563 232
L 563 232
L 564 232
L 564 232
L 564 231
L 564 231
L 564 231
L 564 231
L 564 231
L 564 231
L 564 231
L 564 231
L 564 231
L 564 231
L 564 231
L 565 231
L 565 231
L 565 231
L 565 231
L 565 231
L 565 231
L 565 230
L 565 230
L 565 230
L 565 230
L 565 230
L 565 230
L 565 230
L 565 230
L 565 230
L 565 230
L 565 230
L 565 230
L 566 230
L 566 230
L 566 230
L 566 230
L 566 230
L 566 230
L 566 229
L 566 229
L 566 229
L 566 229
L 566 229
L 566 229
L 567 229
L 567 229
L 567 229
L 567 229
L 567 229
L 567 229
L 568 229
L 568 229
L 568 229
L 568 229
L 568 229
L 568 229
L 569 228
L 569 228
L 572 228
L 572 228
L 572 228
L 573 228
L 573 228
L 573 228
L 573 228
L 573 228
L 573 228
L 573 228
L 573 228
L 573 228
L 573 228
L 573 228
L 573 228
L 573 228
L 573 227
L 573 227
L 573 227
L 573 227
L 573 227
L 573 227
L 573 227
L 573 227
L 573 227
L 573 227
L 573 227
L 573 227
L 573 227
L 573 227
L 573 227
L 573 227
L 573 227
L 573 227
L 573 226
L 573 226
L 573 226
L 573 226
L 573 226
L 573 226
L 573 226
L 574 226
L 574 226
L 574 226
L 574 226
L 574 226
L 574 226
L 574 226
L 574 226
L 574 226
L 574 226
L 574 226
L 574 225
L 574 225
L 574 225
L 574 225
L 574 225
L 574 225
L 574 225
L 574 225
L 574 225
L 574 225
L 574 225
L 574 225
L 574 225
L 574 225
L 574 225
L 574 225
L 574 225
L 574 225
L 574 224
L 574 224
L 574 224
L 574 224
L 574 224
L 574 224
L 574 224
L 574 224
L 574 224
L 574 224
L 574 224
L 574 224
L 574 224
L 575 224
L 575 224
L 575 224
L 575 224
L 575 224
L 575 223
L 575 223
L 575 223
L 575 223
L 575 223
L 575 223
L 576 223
L 576 223
L 576 223
L 576 223
L 576 223
L 576 223
L 576 223
L 576 223
L 576 223
L 576 223
L 576 223
L 576 223
L 576 222
L 576 222
L 576 222
L 576 222
L 576 222
L 576 222
L 576 222
L 576 222
L 576 222
L 576 222
L 576 222
L 576 222
L 576 222
L 576 222
L 576 222
L 576 222
L 576 222
L 576 222
L 576 221
L 576 221
L 576 221
L 576 221
L 576 221
L 576 221
L 576 221
L 576 221
L 576 221
L 576 221
L 577 221
L 577 221
L 577 221
L 577 221
L 577 221
L 577 221
L 577 221
L 577 221
L 577 220
L 577 220
L 577 220
L 577 220
L 577 220
L 577 220
L 577 220
L 577 220
L 577 220
L 577 220
L 577 220
L 577 220
L 577 220
L 577 220
L 577 220
L 577 220
L 577 220
L 577 220
L 577 219
L 577 219
L 577 219
L 577 219
L 577 219
L 577 219
L 577 219
L 577 219
L 577 219
L 577 219
L 577 219
L 577 219
L 577 219
L 577 219
L 578 219
L 578 219
L 578 219
L 578 219
L 578 218
L 578 218
L 578 218
L 578 218
L 578 218
L 578 218
L 578 218
L 578 218
L 578 218
L 578 218
L 578 218
L 578 218
L 578 218
L 578 218
L 578 218
L 578 218
L 578 218
L 578 218
L 578 217
L 578 217
L 578 217
L 578 217
L 578 217
L 578 217
L 578 217
L 578 217
L 578 217
L 578 217
L 578 217
L 578 217
L 578 217
L 578 217
L 578 217
L 578 217
L 578 217
L 578 217
L 579 216
L 579 216
L 579 216
L 579 216
L 579 216
L 579 216
L 579 216
L 579 216
L 579 216
L 579 216
L 579 216
L 579 216
L 579 216
L 580 216
L 580 216
L 580 216
L 580 216
L 580 216
L 580 215
L 580 215
L 580 215
L 580 215
L 580 215
L 580 215
L 580 215
L 580 215
L 580 215
L 580 215
L 581 215
L 581 215
L 581 215
L 581 215
L 581 215
L 581 215
L 581 215
L 581 215
L 581 214
L 581 214
L 581 214
L 581 214
L 581 214
L 582 214
L 582 214
L 582 214
L 582 214
L 582 214
L 582 214
L 582 214
L 582 214
L 582 214
L 582 214
L 582 214
L 582 214
L 582 213
L 583 213
L 583 213
L 583 213
L 583 213
L 583 213
L 583 213
L 583 213
L 583 213
L 585 213
L 585 213
L 585 213
L 586 213
L 588 213
L 588 213
L 588 213
L 588 213
L 588 213
L 588 212
L 588 212
L 588 212
L 588 212
L 588 212
L 588 212
L 588 212
L 588 212
L 588 212
L 588 212
L 588 212
L 588 212
L 588 212
L 588 212
L 588 212
L 588 212
L 588 212
L 588 212
L 589 211
L 589 211
L 589 211
L 589 211
L 589 211
L 589 211
L 589 211
L 589 211
L 589 211
L 589 211
L 589 211
L 589 211
L 589 211
L 589 211
L 589 211
L 589 211
L 589 211
L 589 211
L 589 210
L 589 210
L 589 210
L 589 210
L 589 210
L 589 210
L 589 210
L 589 210
L 589 210
L 589 210
L 589 210
L 589 210
L 589 210
L 589 210
L 589 210
L 589 210
L 589 210
L 589 210
L 589 209
L 589 209
L 589 209
L 589 209
L 589 209
L 589 209
L 589 209
L 589 209
L 589 209
L 589 209
L 589 209
L 589 209
L 589 209
L 589 209
L 589 209
L 589 209
L 589 209
L 590 209
L 590 208
L 590 208
L 590 208
L 590 208
L 590 208
L 590 208
L 590 208
L 590 208
L 590 208
L 590 208
L 590 208
L 590 208
L 590 208
L 590 208
L 590 208
L 590 208
L 590 208
L 590 208
L 590 207
L 590 207
L 590 207
L 590 207
L 590 207
L 590 207
L 590 207
L 590 207
L 590 207
L 590 207
L 590 207
L 590 207
L 590 207
L 590 207
L 590 207
L 591 207
L 591 207
L 591 207
L 591 206
L 591 206
L 591 206
L 591 206
L 591 206
L 591 206
L 591 206
L 591 206
L 591 206
L 591 206
L 591 206
L 591 206
L 591 206
L 591 206
L 591 206
L 591 206
L 591 206
L 591 206
L 591 205
L 591 205
L 591 205
L 591 205
L 591 205
L 591 205
L 591 205
L 591 205
L 591 205
L 592 205
L 592 205
L 592 205
L 592 205
L 592 205
L 592 205
L 592 205
L 592 205
L 592 205
L 592 204
L 592 204
L 592 204
L 592 204
L 592 204
L 592 204
L 592 204
L 592 204
L 592 204
L 592 204
L 592 204
L 592 204
L 592 204
L 592 204
L 592 204
L 592 204
L 592 204
L 592 204
L 592 203
L 592 203
L 592 203
L 592 203
L 592 203
L 592 203
L 592 203
L 592 203
L 592 203
L 592 203
L 592 203
L 592 203
L 592 203
L 592 203
L 592 203
L 592 203
L 593 203
L 593 203
L 593 202
L 593 202
L 593 202
L 593 202
L 593 202
L 593 202
L 593 202
L 593 202
L 593 202
L 593 202
L 593 202
L 593 202
L 593 202
L 593 202
L 593 202
L 593 202
L 593 202
L 593 202
L 593 201
L 593 201
L 593 201
L 593 201
L 593 201
L 593 201
L 593 201
L 593 201
L 593 201
L 593 201
L 593 201
L 593 201
L 593 201
L 593 201
L 593 201
L 593 201
L 593 201
L 593 201
L 594 200
L 594 200
L 594 200
L 594 200
L 594 200
L 594 200
L 594 200
L 594 200
L 594 200
L 594 200
L 594 200
L 594 200
L 594 200
L 594 200
L 594 200
L 594 200
L 594 200
L 594 200
L 594 199
L 594 199
L 594 199
L 595 199
L 595 199
L 595 199
L 595 199
L 595 199
L 595 199
L 595 199
L 595 199
L 596 199
L 596 199
L 596 199
L 596 199
L 596 199
L 596 199
L 596 199
L 596 198
L 596 198
L 596 198
L 596 198
L 597 198
L 597 198
L 597 198
L 597 198
L 597 198
L 597 198
L 597 198
L 597 198
L 597 198
L 597 198
L 597 198
L 597 198
L 597 198
L 598 198
L 598 197
L 598 197
L 598 197
L 598 197
L 598 197
L 598 197
L 599 197
L 599 197
L 601 197
L 601 197
L 602 197
L 602 197
L 603 197
L 603 197
L 603 197
L 604 197
L 604 197
L 604 196
L 604 196
L 604 196
L 604 196
L 604 196
L 604 196
L 604 196
L 605 196
L 605 196
L 605 196
L 605 196
L 605 196
L 605 196
L 605 196
L 605 196
L 605 196
L 605 196
L 605 196
L 605 195
L 605 195
L 606 195
L 606 195
L 606 195
L 606 195
L 606 195
L 606 195
L 606 195
L 606 195
L 606 195
L 607 195
L 607 195
L 607 195
L 607 195
L 608 195
L 608 195
L 608 195
L 608 194
L 608 194
L 608 194
L 608 194
L 608 194
L 609 194
L 609 194
L 609 194
L 609 194
L 609 194
L 609 194
L 610 194
L 610 194
L 610 194
L 610 194
L 610 194
L 610 194
L 611 194
L 611 193
L 611 193
L 611 193
L 611 193
L 611 193
L 612 193
L 612 193
L 612 193
L 612 193
L 612 193
L 612 193
L 612 193
L 612 193
L 612 193
L 613 193
L 613 193
L 613 193
L 613 193
L 613 192
L 613 192
L 614 192
L 614 192
L 614 192
L 614 192
L 616 192
L 616 192
L 616 192
L 616 192
L 616 192
L 616 192
L 617 192
L 618 192
L 618 192
L 619 192
L 619 192
L 619 192
L 619 191
L 619 191
L 620 191
L 620 191
L 620 191
L 620 191
L 620 191
L 620 191
L 620 191
L 620 191
L 620 191
L 621 191
L 621 191
L 621 191
L 621 191
L 621 191
L 622 191
L 622 191
L 622 190
L 622 190
L 622 190
L 623 190
L 623 190
L 623 190
L 623 190
L 623 190
L 623 190
L 623 190
L 623 190
L 624 190
L 624 190
L 624 190
L 624 190
L 625 190
L 625 190
L 625 190
L 625 189
L 625 189
L 626 189
L 626 189
L 626 189
L 626 189
L 627 189
L 627 189
L 627 189
L 627 189
L 627 189
L 627 189
L 627 189
L 628 189
L 628 189
L 628 189
L 628 189
L 628 189
L 628 188
L 628 188
L 628 188
L 628 188
L 628 188
L 629 188
L 629 188
L 629 188
L 629 188
L 630 188
L 630 188
L 630 188
L 632 188
L 632 188
L 633 188
L 634 188
L 634 188
L 634 188
L 635 187
L 635 187
L 635 187
L 635 187
L 635 187
L 635 187
L 635 187
L 636 187
L 636 187
L 636 187
L 636 187
L 636 187
L 636 187
L 637 187
L 637 187
L 637 187
L 637 187
L 637 187
L 637 186
L 637 186
L 638 186
L 638 186
L 638 186
L 638 186
L 638 186
L 638 186
L 638 186
L 639 186
L 639 186
L 639 186
L 639 186
L 639 186
L 639 186
L 639 186
L 640 186
L 640 186
L 640 185
L 640 185
L 640 185
L 640 185
L 640 185
L 640 185
L 640 185
L 641 185
L 641 185
L 641 185
L 641 185
L 641 185
L 641 185
L 641 185
L 641 185
L 641 185
L 641 185
L 641 185
L 641 184
L 641 184
L 641 184
L 642 184
L 642 184
L 642 184
L 642 184
L 642 184
L 642 184
L 642 184
L 643 184
L 643 184
L 643 184
L 643 184
L 643 184
L 643 184
L 643 184
L 643 184
L 644 183
L 644 183
L 644 183
L 644 183
L 645 183
L 645 183
L 645 183
L 649 183
L 649 183
L 649 183
L 649 183
L 650 183
L 650 183
L 650 183
L 650 183
L 650 183
L 650 183
L 650 183
L 650 182
L 650 182
L 650 182
L 650 182
L 650 182
L 650 182
L 650 182
L 650 182
L 650 182
L 650 182
L 650 182
L 650 182
L 650 182
L 650 182
L 650 182
L 650 182
L 650 182
L 650 182
L 650 181
L 650 181
L 650 181
L 650 181
L 650 181
L 650 181
L 650 181
L 650 181
L 650 181
L 650 181
L 650 181
L 650 181
L 650 181
L 650 181
L 651 181
L 651 181
L 651 181
L 651 181
L 651 180
L 651 180
L 651 180
L 651 180
L 651 180
L 651 180
L 651 180
L 651 180
L 651 180
L 651 180
L 651 180
L 651 180
L 651 180
L 651 180
L 651 180
L 651 180
L 651 180
L 651 179
L 651 179
L 651 179
L 651 179
L 651 179
L 651 179
L 652 179
L 652 179
L 652 179
L 652 179
L 652 179
L 652 179
L 652 179
L 652 179
L 652 179
L 652 179
L 652 179
L 652 179
L 652 178
L 652 178
L 652 178
L 652 178
L 653 178
L 653 178
L 653 178
L 653 178
L 653 178
L 653 178
L 653 178
L 653 178
L 653 178
L 653 178
L 653 178
L 653 178
L 653 178
L 653 178
L 653 177
L 653 177
L 653 177
L 653 177
L 653 177
L 653 177
L 653 177
L 653 177
L 653 177
L 653 177
L 653 177
L 653 177
L 653 177
L 654 177
L 654 177
L 654 177
L 654 177
L 654 177
L 654 176
L 654 176
L 654 176
L 654 176
L 654 176
L 654 176
L 654 176
L 654 176
L 654 176
L 654 176
L 654 176
L 654 176
L 654 176
L 654 176
L 654 176
L 654 176
L 654 176
L 654 176
L 654 175
L 654 175
L 654 175
L 654 175
L 654 175
L 655 175
L 655 175
L 655 175
L 655 175
L 655 175
L 655 175
L 655 175
L 655 175
L 655 175
L 655 175
L 655 175
L 655 175
L 655 175
L 655 174
L 655 174
L 655 174
L 655 174
L 655 174
L 655 174
L 655 174
L 655 174
L 656 174
L 656 174
L 656 174
L 656 174
L 656 174
L 656 174
L 656 174
L 656 174
L 656 174
L 656 174
L 657 173
L 657 173
L 657 173
L 657 173
L 657 173
L 657 173
L 657 173
L 657 173
L 657 173
L 657 173
L 657 173
L 657 173
L 657 173
L 657 173
L 657 173
L 658 173
L 658 173
L 658 173
L 658 172
L 658 172
L 658 172
L 658 172
L 658 172
L 658 172
L 658 172
L 658 172
L 658 172
L 658 172
L 658 172
L 658 172
L 658 172
L 658 172
L 658 172
L 658 172
L 658 172
L 658 172
L 658 171
L 658 171
L 659 171
L 659 171
L 659 171
L 659 171
L 659 171
L 659 171
L 659 171
L 660 171
L 660 171
L 660 171
L 660 171
L 661 171
L 661 171
L 661 171
L 662 171
L 663 171
L 664 170
L 664 170
L 664 170
L 664 170
L 664 170
L 664 170
L 664 170
L 664 170
L 665 170
L 665 170
L 665 170
L 665 170
L 665 170
L 665 170
L 665 170
L 665 170
L 665 170
L 665 170
L 665 169
L 665 169
L 665 169
L 665 169
L 665 169
L 665 169
L 665 169
L 665 169
L 665 169
L 665 169
L 665 169
L 665 169
L 665 169
L 665 169
L 665 169
L 665 169
L 665 169
L 665 169
L 665 168
L 665 168
L 665 168
L 665 168
L 666 168
L 666 168
L 666 168
L 666 168
L 666 168
L 666 168
L 666 168
L 666 168
L 666 168
L 666 168
L 666 168
L 666 168
L 666 168
L 666 168
L 666 167
L 666 167
L 666 167
L 666 167
L 666 167
L 666 167
L 666 167
L 666 167
L 666 167
L 666 167
L 666 167
L 666 167
L 666 167
L 666 167
L 666 167
L 666 167
L 666 167
L 666 167
L 666 166
L 666 166
L 666 166
L 667 166
L 667 166
L 667 166
L 667 166
L 667 166
L 667 166
L 667 166
L 667 166
L 667 166
L 667 166
L 668 166
L 668 166
L 668 166
L 668 166
L 668 166
L 668 165
L 668 165
L 668 165
L 668 165
L 668 165
L 668 165
L 668 165
L 668 165
L 668 165
L 668 165
L 668 165
L 668 165
L 668 165
L 668 165
L 668 165
L 668 165
L 668 165
L 668 165
L 668 164
L 668 164
L 668 164
L 668 164
L 668 164
L 668 164
L 669 164
L 669 164
L 669 164
L 669 164
L 669 164
L 669 164
L 669 164
L 669 164
L 669 164
L 669 164
L 669 164
L 669 163
L 669 163
L 669 163
L 669 163
L 669 163
L 669 163
L 669 163
L 669 163
L 669 163
L 669 163
L 669 163
L 669 163
L 669 163
L 669 163
L 670 163
L 670 163
L 670 163
L 670 163
L 670 162
L 670 162
L 670 162
L 670 162
L 670 162
L 670 162
L 670 162
L 670 162
L 670 162
L 670 162
L 670 162
L 670 162
L 670 162
L 670 162
L 670 162
L 670 162
L 670 162
L 670 162
L 670 161
L 670 161
L 670 161
L 670 161
L 670 161
L 670 161
L 670 161
L 670 161
L 670 161
L 670 161
L 670 161
L 670 161
L 670 161
L 670 161
L 670 161
L 670 161
L 670 161
L 670 161
L 670 160
L 670 160
L 670 160
L 670 160
L 670 160
L 670 160
L 671 160
L 671 160
L 671 160
L 671 160
L 671 160
L 671 160
L 671 160
L 671 160
L 671 160
L 671 160
L 671 160
L 671 160
L 671 159
L 671 159
L 671 159
L 671 159
L 671 159
L 671 159
L 671 159
L 671 159
L 671 159
L 671 159
L 671 159
L 671 159
L 672 159
L 672 159
L 672 159
L 672 159
L 672 159
L 672 159
L 672 158
L 672 158
L 672 158
L 672 158
L 672 158
L 672 158
L 672 158
L 672 158
L 672 158
L 672 158
L 672 158
L 672 158
L 672 158
L 672 158
L 672 158
L 672 158
L 673 158
L 673 158
L 673 157
L 673 157
L 673 157
L 673 157
L 673 157
L 673 157
L 673 157
L 673 157
L 673 157
L 673 157
L 673 157
L 673 157
L 673 157
L 673 157
L 673 157
L 674 157
L 674 157
L 674 157
L 674 156
L 674 156
L 674 156
L 674 156
L 674 156
L 674 156
L 674 156
L 674 156
L 674 156
L 674 156
L 674 156
L 674 156
L 675 156
L 675 156
L 675 156
L 675 156
L 675 156
L 675 156
L 675 155
L 676 155
L 676 155
L 676 155
L 677 155
L 678 155
L 679 155
L 680 155
L 680 155
L 680 155
L 680 155
L 680 155
L 680 155
L 680 155
L 680 155
L 680 155
L 680 155
L 680 155
L 680 154
L 680 154
L 680 154
L 680 154
L 680 154
L 680 154
L 680 154
L 680 154
L 680 154
L 680 154
L 681 154
L 681 154
L 681 154
L 681 154
L 681 154
L 681 154
L 681 154
L 681 154
L 681 153
L 681 153
L 681 153
L 681 153
L 681 153
L 681 153
L 681 153
L 681 153
L 681 153
L 681 153
L 681 153
L 681 153
L 681 153
L 681 153
L 681 153
L 681 153
L 681 153
L 681 153
L 682 152
L 682 152
L 682 152
L 682 152
L 682 152
L 682 152
L 682 152
L 682 152
L 682 152
L 682 152
L 682 152
L 682 152
L 682 152
L 682 152
L 682 152
L 682 152
L 682 152
L 682 152
L 683 151
L 683 151
L 683 151
L 683 151
L 683 151
L 683 151
L 683 151
L 683 151
L 683 151
L 683 151
L 683 151
L 683 151
L 683 151
L 683 151
L 683 151
L 683 151
L 683 151
L 683 151
L 684 150
L 684 150
L 684 150
L 684 150
L 684 150
L 684 150
L 684 150
L 684 150
L 684 150
L 684 150
L 684 150
L 684 150
L 684 150
L 684 150
L 684 150
L 684 150
L 684 150
L 684 150
L 684 149
L 684 149
L 685 149
L 685 149
L 685 149
L 685 149
L 685 149
L 685 149
L 685 149
L 685 149
L 685 149
L 685 149
L 685 149
L 685 149
L 685 149
L 685 149
L 685 149
L 685 149
L 685 148
L 685 148
L 685 148
L 685 148
L 685 148
L 685 148
L 685 148
L 685 148
L 685 148
L 685 148
L 685 148
L 685 148
L 685 148
L 685 148
L 685 148
L 685 148
L 686 148
L 686 148
L 686 147
L 686 147
L 686 147
L 686 147
L 686 147
L 686 147
L 686 147
L 686 147
L 686 147
L 686 147
L 686 147
L 686 147
L 686 147
L 686 147
L 686 147
L 686 147
L 687 147
L 687 147
L 687 146
L 687 146
L 687 146
L 687 146
L 687 146
L 687 146
L 687 146
L 688 146
L 688 146
L 688 146
L 688 146
L 688 146
L 688 146
L 688 146
L 688 146
L 688 146
L 688 146
L 688 145
L 688 145
L 688 145
L 688 145
L 689 145
L 689 145
L 689 145
L 689 145
L 689 145
L 689 145
L 689 145
L 689 145
L 689 145
L 689 145
L 689 145
L 690 145
L 690 145
L 691 145
L 691 144
L 691 144
L 692 144
L 692 144
L 693 144
L 693 144
L 693 144
L 693 144
L 695 144
L 695 144
L 695 144
L 696 144
L 696 144
L 696 144
L 696 144
L 696 144
L 696 144
L 696 144
L 696 143
L 696 143
L 696 143
L 696 143
L 696 143
L 696 143
L 696 143
L 696 143
L 696 143
L 696 143
L 696 143
L 696 143
L 697 143
L 697 143
L 697 143
L 697 143
L 697 143
L 697 143
L 697 142
L 697 142
L 697 142
L 697 142
L 697 142
L 697 142
L 697 142
L 697 142
L 697 142
L 697 142
L 697 142
L 697 142
L 698 142
L 698 142
L 698 142
L 698 142
L 698 142
L 698 142
L 699 141
L 699 141
L 699 141
L 699 141
L 699 141
L 699 141
L 699 141
L 699 141
L 699 141
L 699 141
L 699 141
L 699 141
L 700 141
L 700 141
L 700 141
L 700 141
L 700 141
L 700 141
L 700 140
L 701 140
L 701 140
L 701 140
L 701 140
L 701 140
L 701 140
L 701 140
L 701 140
L 701 140
L 702 140
L 702 140
L 702 140
L 702 140
L 702 140
L 702 140
L 702 140
L 703 140
L 703 139
L 703 139
L 703 139
L 703 139
L 703 139
L 703 139
L 703 139
L 703 139
L 703 139
L 703 139
L 703 139
L 703 139
L 704 139
L 704 139
L 704 139
L 704 139
L 704 139
L 704 139
L 704 138
L 704 138
L 704 138
L 705 138
L 705 138
L 705 138
L 705 138
L 705 138
L 705 138
L 706 138
L 706 138
L 711 138
L 711 138
L 712 138
L 712 138
L 712 138
L 712 138
L 712 138
L 712 137
L 713 137
L 713 137
L 713 137
L 713 137
L 713 137
L 713 137
L 713 137
L 713 137
L 713 137
L 714 137
L 714 137
L 714 137
L 714 137
L 714 137
L 715 137
L 715 137
L 715 137
L 715 136
L 715 136
L 715 136
L 715 136
L 716 136
L 716 136
L 716 136
L 716 136
L 716 136
L 716 136
L 716 136
L 716 136
L 716 136
L 716 136
L 716 136
L 717 136
L 717 136
L 717 136
L 717 135
L 717 135
L 717 135
L 717 135
L 717 135
L 717 135
L 717 135
L 718 135
L 718 135
L 718 135
L 718 135
L 718 135
L 719 135
L 719 135
L 719 135
L 719 135
L 719 135
L 719 135
L 719 134
L 719 134
L 719 134
L 719 134
L 719 134
L 719 134
L 719 134
L 719 134
L 720 134
L 720 134
L 720 134
L 720 134
L 720 134
L 720 134
L 720 134
L 720 134
L 720 134
L 721 134
L 721 133
L 721 133
L 721 133
L 721 133
L 721 133
L 721 133
L 722 133
L 722 133
L 723 133
L 723 133
L 723 133
L 723 133
L 725 133
L 726 133
L 726 133
L 726 133
L 726 133
L 726 133
L 726 132
L 726 132
L 726 132
L 726 132
L 726 132
L 726 132
L 726 132
L 726 132
L 726 132
L 726 132
L 726 132
L 726 132
L 726 132
L 726 132
L 726 132
L 727 132
L 727 132
L 727 132
L 727 131
L 727 131
L 727 131
L 727 131
L 727 131
L 727 131
L 727 131
L 727 131
L 727 131
L 727 131
L 727 131
L 727 131
L 727 131
L 727 131
L 727 131
L 727 131
L 727 131
L 727 131
L 728 130
L 728 130
L 728 130
L 728 130
L 728 130
L 728 130
L 728 130
L 728 130
L 728 130
L 728 130
L 728 130
L 728 130
L 728 130
L 728 130
L 728 130
L 728 130
L 728 130
L 728 130
L 728 129
L 729 129
L 729 129
L 729 129
L 729 129
L 729 129
L 729 129
L 729 129
L 729 129
L 729 129
L 729 129
L 729 129
L 729 129
L 730 129
L 730 129
L 730 129
L 730 129
L 730 128
L 730 128
L 730 128
L 730 128
L 730 128
L 730 128
L 730 128
L 730 128
L 730 128
L 730 128
L 730 128
L 730 128
L 730 128
L 731 128
L 731 128
L 731 128
L 731 128
L 731 128
L 731 127
L 731 127
L 731 127
L 731 127
L 731 127
L 731 127
L 731 127
L 731 127
L 732 127
L 732 127
L 732 127
L 732 127
L 732 127
L 732 127
L 732 127
L 732 127
L 732 127
L 732 127
L 732 126
L 732 126
L 733 126
L 733 126
L 733 126
L 733 126
L 733 126
L 733 126
L 733 126
L 733 126
L 733 126
L 733 126
L 733 126
L 734 126
L 734 126
L 734 126
L 734 126
L 734 126
L 734 125
L 734 125
L 734 125
L 734 125
L 734 125
L 734 125
L 735 125
L 735 125
L 735 125
L 735 125
L 735 125
L 735 125
L 735 125
L 736 125
L 736 125
L 736 125
L 736 125
L 736 125
L 736 124
L 739 124
L 741 124
L 741 124
L 741 124
L 741 124
L 741 124
L 742 124
L 742 124
L 742 124
L 742 124
L 742 124
L 742 124
L 742 124
L 742 124
L 742 124
L 742 124
L 742 124
L 742 123
L 742 123
L 742 123
L 742 123
L 742 123
L 742 123
L 743 123
L 743 123
L 743 123
L 743 123
L 743 123
L 743 123
L 743 123
L 743 123
L 743 123
L 743 123
L 743 123
L 743 123
L 743 122
L 743 122
L 743 122
L 743 122
L 743 122
L 744 122
L 744 122
L 744 122
L 744 122
L 744 122
L 744 122
L 744 122
L 744 122
L 744 122
L 744 122
L 744 122
L 744 122
L 745 122
L 745 121
L 745 121
L 745 121
L 745 121
L 745 121
L 745 121
L 745 121
L 745 121
L 745 121
L 745 121
L 745 121
L 745 121
L 745 121
L 746 121
L 746 121
L 746 121
L 746 121
L 746 121
L 746 120
L 746 120
L 746 120
L 746 120
L 746 120
L 746 120
L 746 120
L 746 120
L 746 120
L 746 120
L 746 120
L 746 120
L 746 120
L 746 120
L 746 120
L 746 120
L 747 120
L 747 120
L 747 119
L 747 119
L 747 119
L 747 119
L 747 119
L 747 119
L 747 119
L 747 119
L 747 119
L 747 119
L 747 119
L 747 119
L 747 119
L 747 119
L 747 119
L 747 119
L 748 119
L 748 119
L 748 118
L 748 118
L 748 118
L 748 118
L 748 118
L 748 118
L 748 118
L 749 118
L 749 118
L 749 118
L 749 118
L 749 118
L 749 118
L 749 118
L 749 118
L 749 118
L 749 118
L 749 118
L 749 117
L 749 117
L 749 117
L 749 117
L 749 117
L 749 117
L 749 117
L 749 117
L 750 117
L 750 117
L 750 117
L 750 117
L 750 117
L 750 117
L 750 117
L 750 117
L 750 117
L 750 117
L 750 116
L 750 116
L 751 116
L 751 116
L 751 116
L 751 116
L 751 116
L 752 116
L 752 116
L 752 116
L 754 116
L 757 116
L 757 116
L 757 116
L 757 116
L 757 116
L 757 116
L 757 116
L 757 115
L 757 115
L 757 115
L 757 115
L 757 115
L 757 115
L 757 115
L 757 115
L 757 115
L 757 115
L 757 115
L 757 115
L 757 115
L 758 115
L 758 115
L 758 115
L 758 115
L 758 115
L 758 114
L 758 114
L 758 114
L 758 114
L 758 114
L 758 114
L 758 114
L 758 114
L 758 114
L 758 114
L 758 114
L 758 114
L 758 114
L 758 114
L 758 114
L 758 114
L 758 114
L 758 114
L 759 113
L 759 113
L 759 113
L 759 113
L 759 113
L 759 113
L 759 113
L 759 113
L 759 113
L 759 113
L 759 113
L 760 113
L 760 113
L 760 113
L 760 113
L 760 113
L 760 113
L 760 113
L 760 112
L 760 112
L 760 112
L 760 112
L 760 112
L 760 112
L 760 112
L 760 112
L 760 112
L 760 112
L 760 112
L 760 112
L 760 112
L 760 112
L 760 112
L 761 112
L 761 112
L 761 111
L 761 111
L 761 111
L 761 111
L 761 111
L 761 111
L 761 111
L 761 111
L 761 111
L 761 111
L 761 111
L 761 111
L 761 111
L 761 111
L 761 111
L 761 111
L 762 111
L 762 111
L 762 110
L 762 110
L 762 110
L 762 110
L 762 110
L 762 110
L 762 110
L 762 110
L 762 110
L 762 110
L 762 110
L 762 110
L 762 110
L 762 110
L 762 110
L 763 110
L 763 110
L 763 110
L 763 109
L 763 109
L 763 109
L 764 109
L 764 109
L 764 109
L 764 109
L 764 109
L 764 109
L 764 109
L 765 109
L 765 109
L 765 109
L 765 109
L 765 109
L 765 109
L 765 109
L 765 109
L 765 108
L 765 108
L 765 108
L 765 108
L 765 108
L 766 108
L 766 108
L 766 108
L 766 108
L 766 108
L 766 108
L 766 108
L 766 108
L 766 108
L 766 108
L 766 108
L 766 108
L 767 108
L 767 107
L 767 107
L 767 107
L 767 107
L 768 107
L 771 107
L 771 107
L 771 107
L 772 107
L 772 107
L 772 107
L 772 107
L 772 107
L 772 107
L 772 107
L 772 107
L 772 107
L 772 107
L 772 106
L 772 106
L 772 106
L 772 106
L 772 106
L 772 106
L 772 106
L 772 106
L 772 106
L 772 106
L 772 106
L 772 106
L 772 106
L 772 106
L 772 106
L 772 106
L 772 106
L 772 106
L 772 105
L 772 105
L 772 105
L 772 105
L 772 105
L 772 105
L 772 105
L 772 105
L 772 105
L 772 105
L 772 105
L 772 105
L 772 105
L 772 105
L 772 105
L 772 105
L 772 105
L 772 105
L 772 104
L 772 104
L 772 104
L 772 104
L 772 104
L 773 104
L 773 104
L 773 104
L 773 104
L 773 104
L 773 104
L 773 104
L 773 104
L 773 104
L 773 104
L 773 104
L 773 104
L 773 104
L 773 103
L 773 103
L 773 103
L 773 103
L 773 103
L 773 103
L 773 103
L 773 103
L 773 103
L 773 103
L 773 103
L 773 103
L 773 103
L 773 103
L 773 103
L 773 103
L 773 103
L 773 103
L 773 102
L 773 102
L 773 102
L 773 102
L 773 102
L 773 102
L 773 102
L 773 102
L 773 102
L 774 102
L 774 102
L 774 102
L 774 102
L 774 102
L 774 102
L 774 102
L 774 102
L 774 102
L 774 101
L 774 101
L 774 101
L 774 101
L 774 101
L 775 101
L 775 101
L 775 101
L 775 101
L 775 101
L 775 101
L 775 101
L 775 101
L 775 101
L 775 101
L 775 101
L 775 101
L 775 101
L 775 100
L 775 100
L 775 100
L 775 100
L 775 100
L 775 100
L 775 100
L 775 100
L 775 100
L 775 100
L 776 100
L 776 100
L 776 100
L 776 100
L 776 100
L 776 100
L 776 100
L 776 100
L 776 99
L 776 99
L 776 99
L 776 99
L 776 99
L 776 99
L 776 99
L 776 99
L 776 99
L 776 99
L 776 99
L 776 99
L 776 99
L 776 99
L 776 99
L 776 99
L 776 99
L 776 99
L 776 98
L 776 98
L 776 98
L 776 98
L 776 98
L 776 98
L 776 98
L 776 98
L 776 98
L 776 98
L 776 98
L 776 98
L 776 98
L 776 98
L 776 98
L 776 98
L 776 98
L 776 98
L 776 97
L 777 97
L 777 97
L 777 97
L 777 97
L 777 97
L 777 97
L 777 97
L 777 97
L 777 97
L 777 97
L 777 97
L 777 97
L 777 97
L 777 97
L 777 97
L 777 97
L 777 97
L 777 96
L 777 96
L 777 96
L 777 96
L 777 96
L 777 96
L 777 96
L 777 96
L 777 96
L 777 96
L 777 96
L 777 96
L 778 96
L 778 96
L 778 96
L 778 96
L 778 96
L 778 96
L 778 95
L 778 95
L 778 95
L 778 95
L 778 95
L 778 95
L 778 95
L 779 95
L 779 95
L 779 95
L 779 95
L 779 95
L 779 95
L 779 95
L 779 95
L 779 95
L 779 95
L 779 94
L 779 94
L 779 94
L 779 94
L 779 94
L 779 94
L 779 94
L 779 94
L 779 94
L 779 94
L 779 94
L 779 94
L 779 94
L 780 94
L 780 94
L 780 94
L 780 94
L 780 94
L 780 93
L 780 93
L 780 93
L 780 93
L 780 93
L 780 93
L 780 93
L 780 93
L 780 93
L 780 93
L 780 93
L 780 93
L 780 93
L 780 93
L 780 93
L 780 93
L 780 93
L 780 93
L 781 92
L 781 92
L 781 92
L 781 92
L 781 92
L 781 92
L 781 92
L 781 92
L 781 92
L 781 92
L 781 92
L 782 92
L 782 92
L 782 92
L 782 92
L 782 92
L 782 92
L 782 92
L 782 91
L 782 91
L 783 91
L 783 91
L 783 91
L 784 91
L 784 91
L 784 91
L 784 91
L 785 91
L 786 91
L 786 91
L 787 91
L 787 91
L 787 91
L 787 91
L 787 91
L 787 91
L 787 90
L 787 90
L 788 90
L 788 90
L 788 90
L 788 90
L 788 90
L 788 90
L 788 90
L 788 90
L 788 90
L 788 90
L 788 90
L 788 90
L 788 90
L 788 90
L 788 90
L 788 90
L 788 89
L 788 89
L 788 89
L 788 89
L 788 89
L 788 89
L 788 89
L 788 89
L 788 89
L 788 89
L 788 89
L 788 89
L 788 89
L 788 89
L 788 89
L 788 89
L 788 89
L 789 89
L 789 88
L 789 88
L 789 88
L 789 88
L 789 88
L 789 88
L 789 88
L 789 88
L 789 88
L 789 88
L 789 88
L 790 88
L 790 88
L 790 88
L 790 88
L 790 88
L 790 88
L 790 88
L 790 87
L 790 87
L 790 87
L 790 87
L 790 87
L 790 87
L 790 87
L 790 87
L 790 87
L 790 87
L 790 87
L 791 87
L 791 87
L 791 87
L 791 87
L 791 87
L 791 87
L 791 87
L 791 86
L 791 86
L 791 86
L 791 86
L 791 86
L 791 86
L 791 86
L 791 86
L 791 86
L 791 86
L 791 86
L 791 86
L 791 86
L 791 86
L 791 86
L 791 86
L 791 86
L 791 86
L 791 85
L 791 85
L 791 85
L 791 85
L 791 85
L 792 85
L 792 85
L 792 85
L 792 85
L 792 85
L 792 85
L 792 85
L 792 85
L 792 85
L 792 85
L 792 85
L 792 85
L 792 85
L 792 84
L 792 84
L 792 84
L 792 84
L 792 84
L 792 84
L 792 84
L 793 84
L 793 84
L 793 84
L 793 84
L 793 84
L 793 84
L 793 84
L 793 84
L 793 84
L 793 84
L 793 84
L 793 83
L 793 83
L 793 83
L 793 83
L 793 83
L 793 83
L 793 83
L 793 83
L 793 83
L 793 83
L 794 83
L 794 83
L 794 83
L 794 83
L 794 83
L 794 83
L 794 83
L 795 83
L 795 82
L 795 82
L 795 82
L 795 82
L 795 82
L 795 82
L 795 82
L 795 82
L 795 82
L 795 82
L 795 82
L 795 82
L 796 82
L 796 82
L 796 82
L 796 82
L 796 82
L 797 82
L 797 81
L 797 81
L 797 81
L 797 81
L 797 81
L 797 81
L 797 81
L 797 81
L 798 81
L 798 81
L 799 81
L 799 81
L 799 81
L 799 81
L 802 81
L 803 81
L 803 81
L 803 81
L 804 80
L 804 80
L 804 80
L 804 80
L 804 80
L 804 80
L 804 80
L 804 80
L 804 80
L 804 80
L 804 80
L 805 80
L 805 80
L 805 80
L 806 80
L 806 80
L 806 80
L 806 80
L 806 79
L 806 79
L 806 79
L 807 79
L 807 79
L 807 79
L 807 79
L 807 79
L 807 79
L 807 79
L 807 79
L 807 79
L 808 79
L 808 79
L 808 79
L 808 79
L 808 79
L 808 79
L 808 78
L 808 78
L 808 78
L 809 78
L 809 78
L 809 78
L 810 78
L 810 78
L 811 78
L 811 78
L 811 78
L 811 78
L 812 78
L 812 78
L 812 78
L 813 78
L 813 78
L 813 77
L 814 77
L 814 77
L 814 77
L 815 77
L 818 77
L 818 77
L 819 77
L 819 77
L 820 77
L 820 77
L 820 77
L 821 77
L 821 77
L 821 77
L 821 77
L 821 77
L 821 77
L 822 76
L 822 76
L 822 76
L 822 76
L 823 76
L 823 76
L 823 76
L 823 76
L 823 76
L 823 76
L 824 76
L 824 76
L 824 76
L 825 76
L 825 76
L 825 76
L 825 76
L 825 76
L 825 75
L 825 75
L 826 75
L 826 75
L 826 75
L 827 75
L 827 75
L 827 75
L 827 75
L 827 75
L 828 75
L 828 75
L 828 75
L 828 75
L 829 75
L 833 75
L 833 75
L 833 75
L 833 74
L 834 74
L 834 74
L 834 74
L 834 74
L 834 74
L 834 74
L 834 74
L 834 74
L 834 74
L 834 74
L 834 74
L 834 74
L 834 74
L 834 74
L 834 74
L 835 74
L 835 74
L 835 73
L 835 73
L 835 73
L 835 73
L 835 73
L 835 73
L 835 73
L 835 73
L 835 73
L 835 73
L 835 73
L 835 73
L 835 73
L 836 73
L 836 73
L 836 73
L 836 73
L 836 73
L 836 72
L 837 72
L 837 72
L 837 72
L 837 72
L 837 72
L 837 72
L 837 72
L 837 72
L 837 72
L 837 72
L 838 72
L 838 72
L 838 72
L 838 72
L 838 72
L 838 72
L 838 72
L 838 71
L 838 71
L 838 71
L 838 71
L 838 71
L 838 71
L 838 71
L 838 71
L 839 71
L 839 71
L 839 71
L 839 71
L 839 71
L 839 71
L 839 71
L 839 71
L 839 71
L 839 71
L 839 70
L 840 70
L 840 70
L 840 70
L 840 70
L 840 70
L 840 70
L 840 70
L 841 70
L 841 70
L 841 70
L 841 70
L 841 70
L 841 70
L 841 70
L 841 70
L 841 70
L 841 70
L 841 69
L 841 69
L 842 69
L 842 69
L 842 69
L 842 69
L 842 69
L 842 69
L 842 69
L 842 69
L 842 69
L 843 69
L 843 69
L 843 69
L 843 69
L 843 69
L 843 69
L 843 69
L 843 68
L 844 68
L 844 68
L 846 68
L 846 68
L 848 68
L 849 68
L 849 68
L 849 68
L 849 68
L 849 68
L 849 68
L 849 68
L 849 68
L 849 68
L 849 68
L 849 68
L 850 68
L 850 67
L 850 67
L 850 67
L 850 67
L 850 67
L 850 67
L 850 67
L 850 67
L 850 67
L 850 67
L 850 67
L 850 67
L 850 67
L 850 67
L 850 67
L 850 67
L 850 67
L 850 67
L 850 66
L 850 66
L 850 66
L 850 66
L 850 66
L 850 66
L 850 66
L 850 66
L 850 66
L 850 66
L 850 66
L 850 66
L 850 66
L 850 66
L 850 66
L 850 66
L 850 66
L 850 66
L 850 65
L 850 65
L 850 65
L 850 65
L 850 65
L 850 65
L 850 65
L 850 65
L 850 65
L 850 65
L 850 65
L 850 65
L 850 65
L 850 65
L 850 65
L 850 65
L 850 65
L 850 65
L 850 64
L 850 64
L 850 64
L 850 64
L 850 64
L 850 64
L 850 64
L 850 64
L 850 64
L 850 64
L 851 64
L 851 64
L 851 64
L 851 64
L 851 64
L 851 64
L 851 64
L 851 64
L 851 63
L 851 63
L 851 63
L 851 63
L 851 63
L 851 63
L 851 63
L 851 63
L 851 63
L 851 63
L 851 63
L 851 63
L 851 63
L 851 63
L 851 63
L 852 63
L 852 63
L 852 63
L 852 62
L 852 62
L 852 62
L 852 62
L 852 62
L 852 62
L 852 62
L 852 62
L 852 62
L 852 62
L 852 62
L 852 62
L 852 62
L 852 62
L 852 62
L 853 62
L 853 62
L 853 62
L 853 61
L 853 61
L 853 61
L 853 61
L 853 61
L 853 61
L 853 61
L 853 61
L 853 61
L 853 61
L 853 61
L 853 61
L 853 61
L 853 61
L 853 61
L 853 61
L 853 61
L 853 60
L 854 60
L 854 60
L 854 60
L 854 60
L 854 60
L 854 60
L 854 60
L 854 60
L 854 60
L 854 60
L 854 60
L 854 60
L 854 60
L 854 60
L 854 60
L 854 60
L 854 60
L 854 59
L 854 59
L 854 59
L 855 59
L 855 59
L 855 59
L 855 59
L 855 59
L 855 59
L 855 59
L 855 59
L 855 59
L 855 59
L 855 59
L 855 59
L 855 59
L 855 59
L 855 59
L 855 58
L 855 58
L 855 58
L 855 58
L 855 58
L 855 58
L 855 58
L 855 58
L 856 58
L 856 58
L 856 58
L 856 58
L 856 58
L 856 58
L 856 58
L 856 58
L 856 58
L 856 58
L 856 57
L 856 57
L 856 57
L 856 57
L 856 57
L 856 57
L 856 57
L 856 57
L 856 57
L 856 57
L 856 57
L 857 57
L 857 57
L 857 57
L 857 57
L 857 57
L 857 57
L 857 57
L 857 56
L 857 56
L 858 56
L 858 56
L 858 56
L 858 56
L 859 56
L 860 56
L 860 56
L 860 56
L 861 56
L 862 56
L 864 56
L 864 56
L 864 56
L 864 56
L 864 56
L 864 56
L 864 55
L 864 55
L 864 55
L 864 55
L 864 55
L 864 55
L 864 55
L 864 55
L 864 55
L 864 55
L 864 55
L 864 55
L 864 55
L 865 55
L 865 55
L 865 55
L 865 55
L 865 55
L 865 54
L 865 54
L 865 54
L 865 54
L 865 54
L 865 54
L 865 54
L 865 54
L 865 54
L 865 54
L 865 54
L 865 54
L 865 54
L 865 54
L 865 54
L 865 54
L 865 54
L 865 54
L 865 53
L 865 53
L 865 53
L 865 53
L 865 53
L 865 53
L 865 53
L 865 53
L 865 53
L 865 53
L 865 53
L 865 53
L 865 53
L 865 53
L 865 53
L 865 53
L 865 53
L 865 53
L 865 52
L 865 52
L 865 52
L 865 52
L 865 52
L 866 52
L 866 52
L 866 52
L 866 52
L 866 52
L 866 52
L 866 52
L 866 52
L 866 52
L 866 52
L 866 52
L 866 52
L 866 52
L 866 51
L 866 51
L 866 51
L 866 51
L 866 51
L 866 51
L 866 51
L 866 51
L 866 51
L 866 51
L 866 51
L 866 51
L 866 51
L 867 51
L 867 51
L 867 51
L 867 51
L 867 51
L 867 50
L 867 50
L 867 50
L 867 50
L 867 50
L 867 50
L 867 50
L 867 50
L 867 50
L 867 50
L 867 50
L 867 50
L 867 50
L 867 50
L 867 50
L 867 50
L 867 50
L 867 50
L 867 49
L 867 49
L 867 49
L 867 49
L 867 49
L 867 49
L 868 49
L 868 49
L 868 49
L 868 49
L 868 49
L 868 49
L 868 49
L 868 49
L 868 49
L 868 49
L 868 49
L 868 49
L 868 48
L 868 48
L 868 48
L 868 48
L 868 48
L 868 48
L 868 48
L 868 48
L 868 48
L 868 48
L 868 48
L 868 48
L 868 48
L 869 48
L 869 48
L 869 48
L 869 48
L 869 48
L 869 47
L 869 47
L 869 47
L 869 47
L 869 47
L 869 47
L 869 47
L 869 47
L 869 47
L 869 47
L 869 47
L 869 47
L 869 47
L 869 47
L 869 47
L 869 47
L 869 47
L 869 47
L 869 46
L 869 46
L 869 46
L 869 46
L 869 46
L 869 46
L 870 46
L 870 46
L 870 46
L 870 46
L 870 46
L 870 46
L 870 46
L 870 46
L 870 46
L 870 46
L 870 46
L 870 46
L 870 45
L 870 45
L 870 45
L 870 45
L 870 45
L 870 45
L 870 45
L 870 45
L 870 45
L 871 45
L 871 45
L 871 45
L 871 45
L 871 45
L 871 45
L 871 45
L 871 45
L 871 45
L 871 44
L 871 44
L 871 44
L 872 44
L 872 44
L 872 44
L 872 44
L 872 44
L 872 44
L 872 44
L 872 44
L 873 44
L 873 44
L 873 44
L 873 44
L 873 44
L 873 44
L 873 43
L 873 43
L 874 43
L 874 43
L 874 43
L 874 43
L 874 43
L 874 43
L 875 43
L 875 43
L 875 43
L 877 43
L 877 43
L 878 43
L 878 43
L 879 43
L 879 43
L 879 43
L 879 42
L 880 42
L 880 42
L 880 42
L 880 42
L 880 42
L 880 42
L 880 42
L 880 42
L 880 42
L 880 42
L 880 42
L 880 42
L 880 42
L 880 42
L 880 42
L 880 42
L 880 42
L 880 41
L 880 41
L 880 41
L 880 41
L 880 41
L 880 41
L 880 41
L 880 41
L 880 41
L 881 41
L 881 41
L 881 41
L 881 41
L 881 41
L 881 41
L 881 41
L 881 41
L 881 41
L 881 40
L 881 40
L 881 40
L 881 40
L 881 40
L 881 40
L 881 40
L 881 40
L 881 40
L 881 40
L 881 40
L 881 40
L 881 40
L 881 40
L 881 40
L 881 40
L 881 40
L 881 40
L 881 39
L 881 39
L 882 39
L 882 39
L 882 39
L 882 39
L 882 39
L 882 39
L 882 39
L 882 39
L 882 39
L 882 39
L 882 39
L 882 39
L 883 39
L 883 39
L 883 39
L 883 39
L 883 38
L 883 38
L 883 38
L 883 38
L 883 38
L 883 38
L 883 38
L 883 38
L 883 38
L 883 38
L 883 38
L 883 38
L 883 38
L 883 38
L 883 38
L 883 38
L 884 38
L 884 38
L 884 37
L 884 37
L 884 37
L 884 37
L 884 37
L 884 37
L 884 37
L 884 37
L 884 37
L 884 37
L 884 37
L 884 37
L 884 37
L 884 37
L 884 37
L 884 37
L 884 37
L 884 37
L 884 36
L 884 36
L 885 36
L 885 36
L 885 36
L 885 36
L 885 36
L 885 36
L 885 36
L 885 36
L 885 36
L 885 36
L 885 36
L 885 36
L 885 36
L 885 36
L 885 36
L 885 36
L 885 35
L 885 35
L 886 35
L 886 35
L 886 35
L 886 35
L 886 35
L 886 35
L 886 35
L 886 35
L 886 35
L 886 35
L 886 35
L 886 35
L 887 35
L 887 35
L 887 35
L 887 35
L 887 34
L 887 34
L 888 34
L 888 34
L 888 34
L 888 34
L 888 34
L 888 34
L 889 34
L 889 34
L 889 34
L 889 34
L 889 34
L 889 34
L 889 34
L 889 34
L 889 34
L 890 34
L 890 33
L 890 33
L 891 33
L 894 33
L 894 33
L 894 33
L 895 33
L 895 33
L 895 33
L 895 33
L 895 33
L 895 33
L 895 33
L 895 33
L 895 33
L 895 33
L 895 33
L 895 33
L 895 32
L 895 32
L 895 32
L 895 32
L 895 32
L 896 32
L 896 32
L 896 32
L 896 32
L 896 32
L 896 32
L 896 32
L 896 32
L 896 32
L 896 32
L 896 32
L 896 32
L 896 32
L 896 31
L 896 31
L 896 31
L 896 31
L 896 31
L 896 31
L 896 31
L 896 31
L 896 31
L 896 31
L 896 31
L 896 31
L 897 31
L 897 31
L 897 31
L 897 31
L 897 31
L 897 31
L 897 30
L 897 30
L 897 30
L 897 30
L 898 30
L 898 30
L 898 30
L 898 30
L 898 30
L 898 30
L 898 30
L 898 30
L 898 30
L 898 30
L 898 30
L 899 30
L 899 30
L 899 30
L 899 29
L 899 29
L 899 29
L 899 29
L 899 29
L 899 29
L 899 29
L 899 29
L 899 29
L 899 29
L 899 29
L 899 29
L 899 29
L 899 29
L 899 29
L 900 29
L 900 29
L 900 29
L 900 28
L 900 28
L 900 28
L 900 28
L 900 28
L 900 28
L 900 28
L 900 28
L 900 28
L 900 28
L 900 28
L 900 28
L 900 28
L 900 28
L 900 28
L 901 28
L 901 28
L 901 28
L 901 27
L 901 27
L 901 27
L 901 27
L 901 27
L 901 27
L 901 27
L 901 27
L 901 27
L 902 27
L 902 27
L 902 27
L 902 27
L 902 27
L 902 27
L 902 27
L 902 27
L 903 26
L 903 26
L 903 26
L 904 26
L 904 26
L 904 26
L 904 26
L 904 26
L 905 26
L 905 26
L 908 26
L 911 26
L 911 26
L 911 26
L 911 26
L 912 26
L 912 26
L 912 26
L 912 25
L 912 25
L 913 25
L 913 25
L 913 25
L 914 25
L 914 25
L 914 25
L 914 25
L 914 25
L 914 25
L 914 25
L 915 25
L 915 25
L 915 25
L 915 25
L 916 25
L 916 25
L 916 24
L 917 24
L 917 24
L 917 24
L 917 24
L 917 24
L 917 24
L 917 24
L 918 24
L 918 24
L 918 24
L 918 24
L 918 24
L 918 24
L 918 24
L 918 24
L 918 24
L 918 24
L 919 23
L 919 23
L 919 23
L 919 23
L 919 23
L 919 23
L 919 23
L 919 23
L 919 23
L 919 23
L 920 23
L 920 23
L 920 23
L 920 23
L 920 23
L 920 23
L 920 23
L 920 23
L 921 22
L 921 22
L 921 22
L 921 22
L 922 22
L 922 22
L 925 22
L 925 22
L 926 22
L 926 22
L 926 22
L 926 22
L 927 22
L 927 22
L 927 22
L 927 22
L 927 22
L 927 22
L 928 21
L 928 21
L 928 21
L 928 21
L 928 21
L 928 21
L 928 21
L 929 21
L 929 21
L 930 21
L 930 21
L 931 21
L 932 21
L 933 21
L 933 21
L 933 21
L 933 21
L 933 21
L 933 20
L 933 20
L 933 20
L 934 20
L 934 20
L 934 20
L 934 20
L 934 20
L 934 20
L 934 20
L 934 20
L 934 20
L 934 20
L 935 20
L 935 20
L 935 20
L 935 20
L 936 20
L 939 19
L 939 19
L 940 19
L 941 19
L 941 19
L 941 19
L 941 19
L 941 19
L 941 19
L 941 19
L 941 19
L 941 19
L 941 19
L 941 19
L 941 19
L 941 19
L 941 19
L 941 19
L 941 18
L 941 18
L 942 18
L 942 18
L 942 18
L 942 18
L 942 18
L 942 18
L 942 18
L 942 18
L 942 18
L 942 18
L 942 18
L 942 18
L 942 18
L 942 18
L 942 18
L 942 18
L 942 17
L 942 17
L 943 17
L 943 17
L 943 17
L 943 17
L 943 17
L 943 17
L 943 17
L 943 17
L 943 17
L 943 17
L 943 17
L 943 17
L 944 17
L 944 17
L 944 17
L 944 17
L 944 16
L 944 16
L 944 16
L 944 16
L 944 16
L 944 16
L 944 16
L 944 16
L 944 16
L 945 16
L 945 16
L 945 16
L 945 16
L 945 16
L 945 16
L 945 16
L 945 16
L 945 16
L 945 15
L 945 15
L 945 15
L 945 15
L 945 15
L 945 15
L 945 15
L 945 15
L 945 15
L 945 15
L 945 15
L 945 15
L 945 15
L 945 15
L 945 15
L 946 15
L 946 15
L 946 15
L 946 14
L 946 14
L 946 14
L 946 14
L 946 14
L 946 14
L 946 14
L 946 14
L 946 14
L 946 14
L 946 14
L 946 14
L 946 14
L 946 14
L 946 14
L 946 14
L 947 14
L 947 14
L 947 13
L 947 13
L 947 13
L 947 13
L 947 13
L 947 13
L 947 13
L 948 13
L 948 13
L 948 13
L 948 13
L 948 13
L 948 13
L 949 13
L 949 13
L 949 13
L 949 13
L 949 13
L 949 12
L 949 12
L 949 12
L 950 12
L 950 12
L 950 12
L 950 12
L 950 12
L 950 12
L 951 12
L 951 12
L 953 12
L 956 12
L 956 12
L 956 12
L 956 12
L 956 12
L 956 12
L 957 11
L 957 11
L 957 11
L 957 11
L 957 11
L 957 11
L 957 11
L 957 11
L 957 11
L 957 11
L 957 11
L 957 11
L 957 11
L 957 11
L 957 11
L 957 11
L 957 11" style="stroke-width:2;stroke:rgba(129,199,239,1.0);fill:none"/></svg>