<svg xmlns="http://www.w3.org/2000/svg" xmlns:xlink="http://www.w3.org/1999/xlink" width="1024" height="400">\n<path  d="M 0 0
L 1024 0
L 1024 400
L 0 400
L 0 0" style="stroke-width:0;stroke:rgba(255,255,255,1.0);fill:rgba(255,255,255,1.0)"/><path  d="M 38 11
L 957 11
L 957 351
L 38 351
L 38 11" style="stroke-width:0;stroke:rgba(255,255,255,1.0);fill:rgba(255,255,255,1.0)"/><path  d="M 38 351
L 957 351" style="stroke-width:2;stroke:rgba(85,85,85,1.0);fill:none"/><path  d="M 38 351
L 38 356" style="stroke-width:2;stroke:rgba(85,85,85,1.0);fill:none"/><text x="5" y="373" style="stroke-width:0;stroke:none;fill:rgba(51,51,51,1.0);font-size:12.8px;font-family:'Roboto Medium',sans-serif">2018-11-23</text><path  d="M 153 351
L 153 356" style="stroke-width:2;stroke:rgba(85,85,85,1.0);fill:none"/><text x="120" y="373" style="stroke-width:0;stroke:none;fill:rgba(51,51,51,1.0);font-size:12.8px;font-family:'Roboto Medium',sans-serif">2018-11-30</text><path  d="M 268 351
L 268 356" style="stroke-width:2;stroke:rgba(85,85,85,1.0);fill:none"/><text x="235" y="373" style="stroke-width:0;stroke:none;fill:rgba(51,51,51,1.0);font-size:12.8px;font-family:'Roboto Medium',sans-serif">2018-12-07</text><path  d="M 383 351
L 383 356" style="stroke-width:2;stroke:rgba(85,85,85,1.0);fill:none"/><text x="350" y="373" style="stroke-width:0;stroke:none;fill:rgba(51,51,51,1.0);font-size:12.8px;font-family:'Roboto Medium',sans-serif">2018-12-15</text><path  d="M 498 351
L 498 356" style="stroke-width:2;stroke:rgba(85,85,85,1.0);fill:none"/><text x="465" y="373" style="stroke-width:0;stroke:none;fill:rgba(51,51,51,1.0);font-size:12.8px;font-family:'Roboto Medium',sans-serif">2018-12-22</text><path  d="M 613 351
L 613 356" style="stroke-width:2;stroke:rgba(85,85,85,1.0);fill:none"/><text x="580" y="373" style="stroke-width:0;stroke:none;fill:rgba(51,51,51,1.0);font-size:12.8px;font-family:'Roboto Medium',sans-serif">2018-12-30</text><path  d="M 728 351
L 728 356" style="stroke-width:2;stroke:rgba(85,85,85,1.0);fill:none"/><text x="695" y="373" style="stroke-width:0;stroke:none;fill:rgba(51,51,51,1.0);font-size:12.8px;font-family:'Roboto Medium',sans-serif">2019-01-06</text><path  d="M 843 351
L 843 356" style="stroke-width:2;stroke:rgba(85,85,85,1.0);fill:none"/><text x="810" y="373" style="stroke-width:0;stroke:none;fill:rgba(51,51,51,1.0);font-size:12.8px;font-family:'Roboto Medium',sans-serif">2019-01-13</text><path  d="M 957 351
L 957 356" style="stroke-width:2;stroke:rgba(85,85,85,1.0);fill:none"/><text x="924" y="373" style="stroke-width:0;stroke:none;fill:rgba(51,51,51,1.0);font-size:12.8px;font-family:'Roboto Medium',sans-serif">2019-01-21</text><text x="483" y="395" style="stroke-width:0;stroke:none;fill:rgba(51,51,51,1.0);font-size:12.8px;font-family:'Roboto Medium',sans-serif">Time</text><path  d="M 959 351
L 959 11" style="stroke-width:2;stroke:rgba(85,85,85,1.0);fill:none"/><path  d="M 959 351
L 964 351" style="stroke-width:2;stroke:rgba(85,85,85,1.0);fill:none"/><text x="969" y="357" style="stroke-width:0;stroke:none;fill:rgba(51,51,51,1.0);font-size:12.8px;font-family:'Roboto Medium',sans-serif">0</text><path  d="M 959 308
L 964 308" style="stroke-width:2;stroke:rgba(85,85,85,1.0);fill:none"/><text x="969" y="314" style="stroke-width:0;stroke:none;fill:rgba(51,51,51,1.0);font-size:12.8px;font-family:'Roboto Medium',sans-serif">750</text><path  d="M 959 266
L 964 266" style="stroke-width:2;stroke:rgba(85,85,85,1.0);fill:none"/><text x="969" y="272" style="stroke-width:0;stroke:none;fill:rgba(51,51,51,1.0);font-size:12.8px;font-family:'Roboto Medium',sans-serif">1500</text><path  d="M 959 223
L 964 223" style="stroke-width:2;stroke:rgba(85,85,85,1.0);fill:none"/><text x="969" y="229" style="stroke-width:0;stroke:none;fill:rgba(51,51,51,1.0);font-size:12.8px;font-family:'Roboto Medium',sans-serif">2250</text><path  d="M 959 181
L 964 181" style="stroke-width:2;stroke:rgba(85,85,85,1.0);fill:none"/><text x="969" y="187" style="stroke-width:0;stroke:none;fill:rgba(51,51,51,1.0);font-size:12.8px;font-family:'Roboto Medium',sans-serif">3000</text><path  d="M 959 138
L 964 138" style="stroke-width:2;stroke:rgba(85,85,85,1.0);fill:none"/><text x="969" y="144" style="stroke-width:0;stroke:none;fill:rgba(51,51,51,1.0);font-size:12.8px;font-family:'Roboto Medium',sans-serif">3750</text><path  d="M 959 96
L 964 96" style="stroke-width:2;stroke:rgba(85,85,85,1.0);fill:none"/><text x="969" y="102" style="stroke-width:0;stroke:none;fill:rgba(51,51,51,1.0);font-size:12.8px;font-family:'Roboto Medium',sans-serif">4500</text><path  d="M 959 53
L 964 53" style="stroke-width:2;stroke:rgba(85,85,85,1.0);fill:none"/><text x="969" y="59" style="stroke-width:0;stroke:none;fill:rgba(51,51,51,1.0);font-size:12.8px;font-family:'Roboto Medium',sans-serif">5250</text><path  d="M 959 11
L 964 11" style="stroke-width:2;stroke:rgba(85,85,85,1.0);fill:none"/><text x="969" y="17" style="stroke-width:0;stroke:none;fill:rgba(51,51,51,1.0);font-size:12.8px;font-family:'Roboto Medium',sans-serif">6000</text><text x="1009" y="150" style="stroke-width:0;stroke:none;fill:rgba(51,51,51,1.0);font-size:12.8px;font-family:'Roboto Medium',sans-serif" transform="rotate(90.00,1009,150)">Stargazers</text><path  d="M 38 351
L 120 350
L 177 350
L 180 350
L 192 350
L 192 350
L 192 350
L 193 350
L 193 350
L 194 350
L 194 350
L 194 350
L 194 350
L 195 350
L 195 350
L 195 350
L 195 350
L 195 350
L 195 349
L 195 349
L 196 349
L 196 349
L 198 349
L 199 349
L 208 349
L 208 349
L 208 349
L 208 349
L 209 349
L 211 349
L 213 349
L 214 349
L 215 349
L 215 349
L 215 349
L 215 349
L 216 348
L 216 348
L 220 348
L 222 348
L 223 348
L 223 348
L 223 348
L 223 348
L 223 348
L 224 348
L 224 348
L 224 348
L 224 348
L 225 348
L 227 348
L 227 348
L 228 348
L 228 347
L 228 347
L 228 347
L 228 347
L 228 347
L 229 347
L 229 347
L 230 347
L 230 347
L 230 347
L 230 347
L 230 347
L 231 347
L 232 347
L 232 347
L 232 347
L 232 347
L 233 347
L 237 346
L 239 346
L 239 346
L 239 346
L 239 346
L 239 346
L 240 346
L 240 346
L 240 346
L 241 346
L 241 346
L 241 346
L 241 346
L 241 346
L 241 346
L 241 346
L 241 346
L 241 346
L 241 345
L 241 345
L 241 345
L 241 345
L 241 345
L 241 345
L 241 345
L 241 345
L 241 345
L 241 345
L 241 345
L 241 345
L 241 345
L 241 345
L 241 345
L 241 345
L 241 345
L 241 344
L 242 344
L 242 344
L 242 344
L 242 344
L 242 344
L 242 344
L 242 344
L 242 344
L 242 344
L 242 344
L 242 344
L 242 344
L 242 344
L 242 344
L 242 344
L 242 344
L 242 344
L 242 343
L 242 343
L 242 343
L 242 343
L 242 343
L 243 343
L 243 343
L 243 343
L 243 343
L 243 343
L 243 343
L 243 343
L 243 343
L 244 343
L 244 343
L 244 343
L 244 343
L 244 343
L 244 342
L 244 342
L 244 342
L 244 342
L 245 342
L 245 342
L 245 342
L 245 342
L 245 342
L 245 342
L 245 342
L 245 342
L 246 342
L 246 342
L 246 342
L 246 342
L 248 342
L 249 341
L 253 341
L 253 341
L 254 341
L 254 341
L 254 341
L 254 341
L 254 341
L 255 341
L 255 341
L 256 341
L 257 341
L 257 341
L 257 341
L 257 341
L 257 341
L 258 341
L 258 341
L 258 340
L 258 340
L 259 340
L 259 340
L 259 340
L 259 340
L 260 340
L 260 340
L 261 340
L 269 340
L 270 340
L 270 340
L 270 340
L 270 340
L 271 340
L 272 340
L 274 340
L 274 340
L 279 339
L 279 339
L 280 339
L 282 339
L 286 339
L 286 339
L 289 339
L 289 339
L 290 339
L 291 339
L 291 339
L 291 339
L 291 339
L 292 339
L 292 339
L 292 339
L 293 339
L 293 338
L 295 338
L 300 338
L 300 338
L 300 338
L 302 338
L 302 338
L 302 338
L 304 338
L 305 338
L 306 338
L 310 338
L 310 338
L 316 338
L 319 338
L 319 338
L 320 338
L 320 338
L 323 337
L 323 337
L 332 337
L 332 337
L 332 337
L 333 337
L 333 337
L 335 337
L 335 337
L 337 337
L 338 337
L 338 337
L 341 337
L 343 337
L 348 337
L 353 337
L 355 337
L 362 337
L 364 336
L 364 336
L 366 336
L 366 336
L 367 336
L 367 336
L 369 336
L 370 336
L 371 336
L 371 336
L 371 336
L 373 336
L 376 336
L 379 336
L 381 336
L 381 336
L 382 336
L 382 335
L 382 335
L 383 335
L 385 335
L 385 335
L 386 335
L 387 335
L 387 335
L 388 335
L 394 335
L 394 335
L 394 335
L 396 335
L 398 335
L 401 335
L 401 335
L 401 335
L 403 335
L 409 334
L 410 334
L 410 334
L 410 334
L 410 334
L 411 334
L 414 334
L 415 334
L 417 334
L 418 334
L 425 334
L 427 334
L 429 334
L 429 334
L 430 334
L 430 334
L 431 334
L 432 334
L 433 333
L 435 333
L 435 333
L 441 333
L 442 333
L 443 333
L 444 333
L 444 333
L 444 333
L 444 333
L 445 333
L 447 333
L 456 333
L 456 333
L 457 333
L 457 333
L 459 333
L 459 332
L 461 332
L 461 332
L 461 332
L 464 332
L 464 332
L 464 332
L 465 332
L 465 332
L 466 332
L 472 332
L 473 332
L 473 332
L 473 332
L 473 332
L 473 332
L 473 332
L 474 332
L 474 331
L 474 331
L 475 331
L 475 331
L 475 331
L 475 331
L 475 331
L 475 331
L 475 331
L 476 331
L 476 331
L 476 331
L 476 331
L 476 331
L 476 331
L 476 331
L 476 331
L 476 330
L 476 330
L 476 330
L 476 330
L 476 330
L 476 330
L 476 330
L 476 330
L 477 330
L 477 330
L 477 330
L 477 330
L 477 330
L 477 330
L 477 330
L 477 330
L 477 330
L 477 330
L 477 329
L 477 329
L 477 329
L 477 329
L 477 329
L 477 329
L 477 329
L 477 329
L 477 329
L 478 329
L 478 329
L 478 329
L 478 329
L 478 329
L 478 329
L 478 329
L 478 329
L 478 329
L 478 328
L 478 328
L 479 328
L 479 328
L 479 328
L 479 328
L 479 328
L 479 328
L 480 328
L 480 328
L 480 328
L 480 328
L 480 328
L 480 328
L 480 328
L 480 328
L 481 328
L 481 327
L 481 327
L 481 327
L 482 327
L 482 327
L 482 327
L 487 327
L 488 327
L 488 327
L 488 327
L 488 327
L 488 327
L 488 327
L 488 327
L 488 327
L 489 327
L 489 327
L 489 327
L 489 326
L 489 326
L 489 326
L 489 326
L 489 326
L 489 326
L 489 326
L 489 326
L 489 326
L 490 326
L 490 326
L 490 326
L 490 326
L 490 326
L 490 326
L 490 326
L 490 326
L 490 326
L 491 325
L 491 325
L 491 325
L 491 325
L 491 325
L 491 325
L 491 325
L 491 325
L 491 325
L 491 325
L 491 325
L 491 325
L 492 325
L 492 325
L 492 325
L 492 325
L 492 325
L 492 324
L 492 324
L 492 324
L 492 324
L 492 324
L 492 324
L 492 324
L 492 324
L 492 324
L 492 324
L 493 324
L 493 324
L 493 324
L 493 324
L 493 324
L 493 324
L 493 324
L 493 324
L 493 323
L 493 323
L 493 323
L 493 323
L 493 323
L 493 323
L 493 323
L 494 323
L 494 323
L 494 323
L 494 323
L 494 323
L 494 323
L 495 323
L 495 323
L 495 323
L 495 323
L 495 323
L 495 322
L 495 322
L 495 322
L 495 322
L 495 322
L 495 322
L 495 322
L 495 322
L 495 322
L 495 322
L 496 322
L 496 322
L 496 322
L 496 322
L 496 322
L 496 322
L 496 322
L 496 321
L 496 321
L 496 321
L 496 321
L 496 321
L 496 321
L 496 321
L 496 321
L 497 321
L 497 321
L 497 321
L 497 321
L 497 321
L 497 321
L 497 321
L 497 321
L 497 321
L 497 321
L 497 320
L 497 320
L 497 320
L 497 320
L 497 320
L 498 320
L 498 320
L 498 320
L 499 320
L 499 320
L 499 320
L 500 320
L 501 320
L 502 320
L 502 320
L 502 320
L 502 320
L 502 320
L 503 319
L 503 319
L 503 319
L 503 319
L 503 319
L 503 319
L 503 319
L 503 319
L 503 319
L 504 319
L 504 319
L 504 319
L 504 319
L 504 319
L 504 319
L 504 319
L 504 319
L 504 318
L 504 318
L 504 318
L 504 318
L 504 318
L 504 318
L 505 318
L 505 318
L 505 318
L 505 318
L 505 318
L 505 318
L 505 318
L 505 318
L 505 318
L 505 318
L 505 318
L 505 318
L 505 317
L 505 317
L 505 317
L 506 317
L 506 317
L 506 317
L 506 317
L 506 317
L 506 317
L 506 317
L 506 317
L 506 317
L 506 317
L 506 317
L 506 317
L 506 317
L 506 317
L 506 317
L 506 316
L 507 316
L 507 316
L 507 316
L 507 316
L 507 316
L 507 316
L 507 316
L 507 316
L 507 316
L 507 316
L 507 316
L 507 316
L 507 316
L 507 316
L 507 316
L 507 316
L 507 315
L 507 315
L 507 315
L 508 315
L 508 315
L 508 315
L 508 315
L 508 315
L 508 315
L 508 315
L 508 315
L 508 315
L 508 315
L 508 315
L 508 315
L 508 315
L 509 315
L 509 315
L 509 314
L 509 314
L 509 314
L 509 314
L 509 314
L 510 314
L 510 314
L 510 314
L 510 314
L 510 314
L 510 314
L 510 314
L 510 314
L 510 314
L 510 314
L 510 314
L 510 314
L 510 313
L 510 313
L 510 313
L 510 313
L 510 313
L 510 313
L 510 313
L 511 313
L 511 313
L 511 313
L 511 313
L 511 313
L 511 313
L 511 313
L 511 313
L 511 313
L 511 313
L 511 313
L 511 312
L 511 312
L 511 312
L 511 312
L 511 312
L 511 312
L 511 312
L 511 312
L 511 312
L 511 312
L 511 312
L 512 312
L 512 312
L 512 312
L 512 312
L 512 312
L 512 312
L 512 312
L 512 311
L 512 311
L 512 311
L 512 311
L 512 311
L 512 311
L 512 311
L 513 311
L 513 311
L 513 311
L 513 311
L 513 311
L 513 311
L 513 311
L 513 311
L 513 311
L 513 311
L 514 310
L 514 310
L 514 310
L 514 310
L 514 310
L 515 310
L 515 310
L 516 310
L 517 310
L 518 310
L 518 310
L 518 310
L 518 310
L 518 310
L 518 310
L 518 310
L 518 310
L 518 310
L 518 309
L 518 309
L 518 309
L 518 309
L 518 309
L 518 309
L 518 309
L 518 309
L 518 309
L 518 309
L 518 309
L 518 309
L 518 309
L 518 309
L 518 309
L 518 309
L 518 309
L 518 309
L 518 308
L 518 308
L 519 308
L 519 308
L 519 308
L 519 308
L 519 308
L 519 308
L 519 308
L 519 308
L 519 308
L 519 308
L 519 308
L 519 308
L 519 308
L 519 308
L 519 308
L 519 307
L 519 307
L 519 307
L 519 307
L 519 307
L 519 307
L 519 307
L 519 307
L 519 307
L 519 307
L 519 307
L 519 307
L 519 307
L 519 307
L 519 307
L 519 307
L 519 307
L 519 307
L 519 306
L 519 306
L 519 306
L 519 306
L 519 306
L 519 306
L 519 306
L 519 306
L 519 306
L 519 306
L 519 306
L 519 306
L 519 306
L 519 306
L 519 306
L 519 306
L 519 306
L 519 306
L 519 305
L 519 305
L 519 305
L 519 305
L 519 305
L 519 305
L 519 305
L 519 305
L 519 305
L 519 305
L 519 305
L 519 305
L 519 305
L 519 305
L 519 305
L 519 305
L 519 305
L 519 304
L 519 304
L 519 304
L 519 304
L 519 304
L 520 304
L 520 304
L 520 304
L 520 304
L 520 304
L 520 304
L 520 304
L 520 304
L 520 304
L 520 304
L 520 304
L 520 304
L 520 304
L 520 303
L 520 303
L 520 303
L 520 303
L 520 303
L 520 303
L 520 303
L 520 303
L 520 303
L 520 303
L 520 303
L 520 303
L 520 303
L 520 303
L 520 303
L 520 303
L 520 303
L 520 303
L 520 302
L 520 302
L 520 302
L 520 302
L 520 302
L 520 302
L 520 302
L 521 302
L 521 302
L 521 302
L 521 302
L 521 302
L 521 302
L 521 302
L 521 302
L 521 302
L 521 302
L 521 301
L 521 301
L 521 301
L 521 301
L 521 301
L 521 301
L 521 301
L 521 301
L 521 301
L 521 301
L 521 301
L 521 301
L 521 301
L 521 301
L 521 301
L 521 301
L 521 301
L 521 301
L 521 300
L 521 300
L 521 300
L 521 300
L 521 300
L 522 300
L 522 300
L 522 300
L 522 300
L 522 300
L 522 300
L 522 300
L 522 300
L 522 300
L 522 300
L 522 300
L 522 300
L 522 300
L 522 299
L 522 299
L 522 299
L 522 299
L 522 299
L 522 299
L 522 299
L 522 299
L 522 299
L 522 299
L 522 299
L 522 299
L 522 299
L 522 299
L 522 299
L 522 299
L 522 299
L 522 298
L 522 298
L 522 298
L 522 298
L 522 298
L 522 298
L 522 298
L 522 298
L 522 298
L 522 298
L 522 298
L 522 298
L 522 298
L 522 298
L 522 298
L 522 298
L 522 298
L 522 298
L 522 297
L 522 297
L 522 297
L 522 297
L 522 297
L 522 297
L 522 297
L 522 297
L 522 297
L 522 297
L 522 297
L 522 297
L 522 297
L 522 297
L 522 297
L 523 297
L 523 297
L 523 296
L 523 296
L 523 296
L 523 296
L 523 296
L 523 296
L 523 296
L 523 296
L 523 296
L 523 296
L 523 296
L 523 296
L 523 296
L 523 296
L 523 296
L 523 296
L 523 296
L 523 296
L 523 295
L 523 295
L 523 295
L 523 295
L 523 295
L 523 295
L 523 295
L 523 295
L 523 295
L 523 295
L 523 295
L 523 295
L 523 295
L 523 295
L 523 295
L 523 295
L 523 295
L 523 295
L 523 294
L 523 294
L 523 294
L 523 294
L 523 294
L 523 294
L 524 294
L 524 294
L 524 294
L 524 294
L 524 294
L 524 294
L 524 294
L 524 294
L 524 294
L 524 294
L 524 294
L 524 293
L 524 293
L 524 293
L 524 293
L 524 293
L 524 293
L 524 293
L 524 293
L 524 293
L 524 293
L 524 293
L 524 293
L 524 293
L 524 293
L 524 293
L 524 293
L 524 293
L 524 293
L 524 292
L 524 292
L 524 292
L 524 292
L 524 292
L 524 292
L 524 292
L 524 292
L 524 292
L 524 292
L 524 292
L 524 292
L 524 292
L 524 292
L 524 292
L 524 292
L 524 292
L 524 292
L 525 291
L 525 291
L 525 291
L 525 291
L 525 291
L 525 291
L 525 291
L 525 291
L 525 291
L 525 291
L 525 291
L 525 291
L 525 291
L 525 291
L 525 291
L 525 291
L 525 291
L 525 290
L 525 290
L 525 290
L 525 290
L 525 290
L 525 290
L 525 290
L 526 290
L 526 290
L 526 290
L 526 290
L 526 290
L 526 290
L 526 290
L 526 290
L 526 290
L 526 290
L 526 290
L 526 289
L 526 289
L 526 289
L 526 289
L 526 289
L 526 289
L 526 289
L 527 289
L 527 289
L 527 289
L 527 289
L 527 289
L 527 289
L 527 289
L 527 289
L 527 289
L 527 289
L 527 289
L 527 288
L 527 288
L 527 288
L 527 288
L 527 288
L 527 288
L 527 288
L 527 288
L 528 288
L 528 288
L 528 288
L 528 288
L 528 288
L 528 288
L 528 288
L 528 288
L 528 288
L 528 287
L 528 287
L 528 287
L 528 287
L 528 287
L 528 287
L 528 287
L 528 287
L 529 287
L 529 287
L 529 287
L 529 287
L 529 287
L 529 287
L 530 287
L 531 287
L 533 287
L 533 287
L 533 286
L 533 286
L 533 286
L 534 286
L 534 286
L 534 286
L 534 286
L 534 286
L 534 286
L 534 286
L 534 286
L 534 286
L 534 286
L 534 286
L 534 286
L 534 286
L 534 286
L 534 286
L 534 285
L 534 285
L 534 285
L 534 285
L 534 285
L 534 285
L 534 285
L 534 285
L 534 285
L 534 285
L 534 285
L 534 285
L 534 285
L 534 285
L 534 285
L 534 285
L 534 285
L 534 284
L 534 284
L 534 284
L 534 284
L 535 284
L 535 284
L 535 284
L 535 284
L 535 284
L 535 284
L 535 284
L 535 284
L 535 284
L 535 284
L 535 284
L 535 284
L 535 284
L 535 284
L 535 283
L 535 283
L 535 283
L 535 283
L 535 283
L 535 283
L 535 283
L 535 283
L 535 283
L 535 283
L 535 283
L 535 283
L 535 283
L 535 283
L 535 283
L 535 283
L 535 283
L 535 283
L 535 282
L 535 282
L 535 282
L 535 282
L 535 282
L 535 282
L 535 282
L 535 282
L 535 282
L 535 282
L 535 282
L 535 282
L 535 282
L 535 282
L 535 282
L 535 282
L 535 282
L 535 281
L 535 281
L 535 281
L 535 281
L 535 281
L 535 281
L 535 281
L 535 281
L 535 281
L 535 281
L 535 281
L 535 281
L 535 281
L 535 281
L 535 281
L 535 281
L 535 281
L 535 281
L 535 280
L 535 280
L 535 280
L 535 280
L 535 280
L 535 280
L 535 280
L 535 280
L 535 280
L 535 280
L 535 280
L 535 280
L 535 280
L 535 280
L 535 280
L 535 280
L 535 280
L 535 279
L 535 279
L 535 279
L 535 279
L 535 279
L 536 279
L 536 279
L 536 279
L 536 279
L 536 279
L 536 279
L 536 279
L 536 279
L 536 279
L 536 279
L 536 279
L 536 279
L 536 279
L 536 278
L 536 278
L 536 278
L 536 278
L 536 278
L 536 278
L 536 278
L 536 278
L 536 278
L 536 278
L 536 278
L 536 278
L 536 278
L 536 278
L 536 278
L 536 278
L 537 278
L 537 278
L 537 277
L 537 277
L 537 277
L 537 277
L 537 277
L 537 277
L 537 277
L 537 277
L 537 277
L 537 277
L 537 277
L 537 277
L 537 277
L 537 277
L 537 277
L 537 277
L 537 277
L 537 276
L 537 276
L 537 276
L 537 276
L 537 276
L 537 276
L 537 276
L 537 276
L 537 276
L 537 276
L 537 276
L 537 276
L 537 276
L 537 276
L 537 276
L 537 276
L 537 276
L 537 276
L 537 275
L 537 275
L 537 275
L 537 275
L 538 275
L 538 275
L 538 275
L 538 275
L 538 275
L 538 275
L 538 275
L 538 275
L 538 275
L 538 275
L 538 275
L 538 275
L 538 275
L 538 275
L 538 274
L 538 274
L 538 274
L 538 274
L 538 274
L 538 274
L 538 274
L 538 274
L 538 274
L 538 274
L 538 274
L 538 274
L 538 274
L 538 274
L 538 274
L 538 274
L 538 274
L 538 273
L 538 273
L 538 273
L 538 273
L 538 273
L 538 273
L 538 273
L 539 273
L 539 273
L 539 273
L 539 273
L 539 273
L 539 273
L 539 273
L 539 273
L 539 273
L 539 273
L 539 273
L 539 272
L 539 272
L 539 272
L 539 272
L 539 272
L 539 272
L 539 272
L 539 272
L 539 272
L 539 272
L 539 272
L 539 272
L 539 272
L 539 272
L 539 272
L 539 272
L 539 272
L 539 272
L 539 271
L 539 271
L 539 271
L 539 271
L 539 271
L 539 271
L 539 271
L 539 271
L 539 271
L 539 271
L 539 271
L 539 271
L 539 271
L 539 271
L 539 271
L 539 271
L 539 271
L 539 270
L 540 270
L 540 270
L 540 270
L 540 270
L 540 270
L 540 270
L 540 270
L 540 270
L 540 270
L 540 270
L 540 270
L 540 270
L 540 270
L 540 270
L 540 270
L 540 270
L 540 270
L 540 269
L 540 269
L 540 269
L 540 269
L 540 269
L 540 269
L 540 269
L 540 269
L 540 269
L 540 269
L 540 269
L 540 269
L 540 269
L 540 269
L 540 269
L 540 269
L 540 269
L 540 269
L 540 268
L 540 268
L 540 268
L 540 268
L 540 268
L 540 268
L 540 268
L 540 268
L 540 268
L 540 268
L 540 268
L 540 268
L 540 268
L 540 268
L 540 268
L 540 268
L 540 268
L 540 267
L 540 267
L 540 267
L 540 267
L 541 267
L 541 267
L 541 267
L 541 267
L 541 267
L 541 267
L 541 267
L 541 267
L 541 267
L 541 267
L 541 267
L 541 267
L 541 267
L 541 267
L 541 266
L 541 266
L 541 266
L 541 266
L 541 266
L 541 266
L 541 266
L 541 266
L 541 266
L 541 266
L 541 266
L 541 266
L 541 266
L 541 266
L 541 266
L 541 266
L 541 266
L 541 266
L 542 265
L 542 265
L 542 265
L 542 265
L 542 265
L 542 265
L 542 265
L 542 265
L 542 265
L 542 265
L 542 265
L 542 265
L 542 265
L 542 265
L 542 265
L 542 265
L 542 265
L 542 264
L 542 264
L 542 264
L 542 264
L 542 264
L 542 264
L 542 264
L 542 264
L 542 264
L 542 264
L 542 264
L 542 264
L 542 264
L 542 264
L 542 264
L 542 264
L 542 264
L 543 264
L 543 263
L 543 263
L 543 263
L 543 263
L 543 263
L 543 263
L 543 263
L 543 263
L 543 263
L 543 263
L 543 263
L 543 263
L 543 263
L 543 263
L 543 263
L 543 263
L 543 263
L 544 262
L 544 262
L 544 262
L 544 262
L 544 262
L 544 262
L 544 262
L 544 262
L 544 262
L 544 262
L 544 262
L 544 262
L 544 262
L 544 262
L 544 262
L 544 262
L 544 262
L 544 262
L 544 261
L 545 261
L 545 261
L 545 261
L 545 261
L 546 261
L 546 261
L 547 261
L 549 261
L 549 261
L 549 261
L 549 261
L 549 261
L 549 261
L 549 261
L 549 261
L 549 261
L 549 261
L 549 260
L 549 260
L 549 260
L 549 260
L 549 260
L 550 260
L 550 260
L 550 260
L 550 260
L 550 260
L 550 260
L 550 260
L 550 260
L 550 260
L 550 260
L 550 260
L 550 260
L 550 259
L 550 259
L 550 259
L 550 259
L 550 259
L 550 259
L 550 259
L 550 259
L 550 259
L 550 259
L 550 259
L 550 259
L 550 259
L 550 259
L 550 259
L 550 259
L 550 259
L 550 259
L 550 258
L 550 258
L 550 258
L 550 258
L 550 258
L 550 258
L 550 258
L 550 258
L 550 258
L 550 258
L 550 258
L 550 258
L 550 258
L 550 258
L 550 258
L 550 258
L 550 258
L 550 258
L 550 257
L 550 257
L 550 257
L 550 257
L 550 257
L 550 257
L 550 257
L 550 257
L 550 257
L 550 257
L 550 257
L 550 257
L 550 257
L 550 257
L 550 257
L 550 257
L 550 257
L 550 256
L 550 256
L 550 256
L 550 256
L 550 256
L 550 256
L 550 256
L 551 256
L 551 256
L 551 256
L 551 256
L 551 256
L 551 256
L 551 256
L 551 256
L 551 256
L 551 256
L 551 256
L 551 255
L 551 255
L 551 255
L 551 255
L 551 255
L 551 255
L 551 255
L 551 255
L 551 255
L 551 255
L 551 255
L 551 255
L 551 255
L 551 255
L 551 255
L 551 255
L 551 255
L 551 255
L 551 254
L 551 254
L 551 254
L 551 254
L 551 254
L 551 254
L 551 254
L 551 254
L 551 254
L 551 254
L 551 254
L 551 254
L 552 254
L 552 254
L 552 254
L 552 254
L 552 254
L 552 253
L 552 253
L 552 253
L 552 253
L 552 253
L 552 253
L 552 253
L 552 253
L 552 253
L 552 253
L 552 253
L 552 253
L 552 253
L 552 253
L 552 253
L 552 253
L 552 253
L 553 253
L 553 252
L 553 252
L 553 252
L 553 252
L 553 252
L 553 252
L 553 252
L 553 252
L 553 252
L 553 252
L 553 252
L 553 252
L 553 252
L 553 252
L 553 252
L 553 252
L 553 252
L 553 252
L 553 251
L 553 251
L 553 251
L 553 251
L 553 251
L 553 251
L 553 251
L 553 251
L 553 251
L 553 251
L 553 251
L 553 251
L 553 251
L 553 251
L 553 251
L 553 251
L 553 251
L 553 250
L 553 250
L 553 250
L 554 250
L 554 250
L 554 250
L 554 250
L 554 250
L 554 250
L 554 250
L 554 250
L 554 250
L 554 250
L 554 250
L 554 250
L 554 250
L 554 250
L 554 250
L 554 249
L 554 249
L 554 249
L 554 249
L 554 249
L 554 249
L 554 249
L 554 249
L 554 249
L 554 249
L 554 249
L 554 249
L 554 249
L 554 249
L 554 249
L 554 249
L 554 249
L 554 249
L 554 248
L 554 248
L 554 248
L 554 248
L 554 248
L 555 248
L 555 248
L 555 248
L 555 248
L 555 248
L 555 248
L 555 248
L 555 248
L 555 248
L 555 248
L 555 248
L 555 248
L 555 247
L 555 247
L 555 247
L 555 247
L 555 247
L 555 247
L 555 247
L 555 247
L 555 247
L 555 247
L 555 247
L 555 247
L 555 247
L 555 247
L 555 247
L 555 247
L 555 247
L 555 247
L 555 246
L 555 246
L 555 246
L 555 246
L 555 246
L 555 246
L 555 246
L 555 246
L 555 246
L 555 246
L 555 246
L 555 246
L 555 246
L 555 246
L 555 246
L 555 246
L 556 246
L 556 245
L 556 245
L 556 245
L 556 245
L 556 245
L 556 245
L 556 245
L 556 245
L 556 245
L 556 245
L 556 245
L 556 245
L 556 245
L 556 245
L 556 245
L 556 245
L 556 245
L 556 245
L 556 244
L 556 244
L 556 244
L 557 244
L 557 244
L 557 244
L 557 244
L 557 244
L 557 244
L 557 244
L 557 244
L 557 244
L 557 244
L 557 244
L 557 244
L 557 244
L 557 244
L 557 244
L 557 243
L 557 243
L 557 243
L 557 243
L 557 243
L 557 243
L 557 243
L 557 243
L 557 243
L 558 243
L 558 243
L 558 243
L 558 243
L 558 243
L 558 243
L 558 243
L 558 243
L 558 242
L 558 242
L 558 242
L 558 242
L 558 242
L 558 242
L 558 242
L 558 242
L 558 242
L 558 242
L 559 242
L 559 242
L 559 242
L 559 242
L 559 242
L 559 242
L 559 242
L 559 242
L 559 241
L 559 241
L 559 241
L 559 241
L 559 241
L 559 241
L 559 241
L 559 241
L 559 241
L 560 241
L 560 241
L 560 241
L 560 241
L 560 241
L 561 241
L 561 241
L 564 241
L 564 241
L 564 240
L 564 240
L 565 240
L 565 240
L 565 240
L 565 240
L 565 240
L 565 240
L 565 240
L 565 240
L 565 240
L 565 240
L 565 240
L 565 240
L 565 240
L 565 240
L 565 240
L 565 239
L 565 239
L 565 239
L 565 239
L 565 239
L 565 239
L 565 239
L 566 239
L 566 239
L 566 239
L 566 239
L 566 239
L 566 239
L 566 239
L 566 239
L 566 239
L 566 239
L 566 239
L 566 238
L 566 238
L 566 238
L 566 238
L 566 238
L 566 238
L 566 238
L 566 238
L 566 238
L 566 238
L 566 238
L 566 238
L 566 238
L 566 238
L 566 238
L 566 238
L 566 238
L 566 238
L 566 237
L 566 237
L 566 237
L 566 237
L 566 237
L 566 237
L 566 237
L 566 237
L 566 237
L 566 237
L 566 237
L 566 237
L 566 237
L 566 237
L 566 237
L 566 237
L 566 237
L 566 236
L 567 236
L 567 236
L 567 236
L 567 236
L 567 236
L 567 236
L 567 236
L 567 236
L 567 236
L 567 236
L 567 236
L 567 236
L 567 236
L 567 236
L 567 236
L 567 236
L 567 236
L 567 235
L 567 235
L 567 235
L 567 235
L 567 235
L 567 235
L 568 235
L 568 235
L 568 235
L 568 235
L 568 235
L 568 235
L 568 235
L 568 235
L 568 235
L 568 235
L 568 235
L 568 235
L 568 234
L 568 234
L 568 234
L 568 234
L 568 234
L 569 234
L 569 234
L 569 234
L 569 234
L 569 234
L 569 234
L 569 234
L 569 234
L 569 234
L 569 234
L 569 234
L 569 234
L 569 233
L 569 233
L 569 233
L 569 233
L 569 233
L 569 233
L 569 233
L 569 233
L 569 233
L 569 233
L 569 233
L 569 233
L 569 233
L 570 233
L 570 233
L 570 233
L 570 233
L 570 233
L 570 232
L 570 232
L 570 232
L 570 232
L 570 232
L 570 232
L 570 232
L 570 232
L 570 232
L 570 232
L 570 232
L 570 232
L 570 232
L 570 232
L 570 232
L 570 232
L 570 232
L 570 232
L 570 231
L 570 231
L 570 231
L 570 231
L 570 231
L 570 231
L 570 231
L 570 231
L 571 231
L 571 231
L 571 231
L 571 231
L 571 231
L 571 231
L 571 231
L 571 231
L 571 231
L 571 230
L 571 230
L 571 230
L 571 230
L 571 230
L 571 230
L 571 230
L 571 230
L 571 230
L 571 230
L 571 230
L 571 230
L 571 230
L 571 230
L 571 230
L 571 230
L 571 230
L 571 230
L 571 229
L 572 229
L 572 229
L 572 229
L 572 229
L 572 229
L 572 229
L 572 229
L 572 229
L 572 229
L 572 229
L 572 229
L 572 229
L 572 229
L 572 229
L 572 229
L 572 229
L 572 228
L 573 228
L 573 228
L 573 228
L 573 228
L 573 228
L 573 228
L 573 228
L 573 228
L 573 228
L 573 228
L 573 228
L 573 228
L 573 228
L 573 228
L 573 228
L 573 228
L 574 228
L 574 227
L 574 227
L 574 227
L 574 227
L 574 227
L 574 227
L 574 227
L 574 227
L 574 227
L 575 227
L 575 227
L 575 227
L 575 227
L 575 227
L 575 227
L 575 227
L 576 227
L 576 227
L 576 226
L 576 226
L 576 226
L 577 226
L 577 226
L 580 226
L 580 226
L 580 226
L 581 226
L 581 226
L 581 226
L 581 226
L 581 226
L 581 226
L 581 226
L 581 226
L 581 226
L 581 225
L 581 225
L 581 225
L 581 225
L 581 225
L 581 225
L 581 225
L 581 225
L 581 225
L 581 225
L 581 225
L 581 225
L 581 225
L 581 225
L 581 225
L 581 225
L 581 225
L 581 225
L 581 224
L 581 224
L 581 224
L 581 224
L 581 224
L 581 224
L 581 224
L 581 224
L 581 224
L 581 224
L 581 224
L 581 224
L 581 224
L 581 224
L 582 224
L 582 224
L 582 224
L 582 224
L 582 223
L 582 223
L 582 223
L 582 223
L 582 223
L 582 223
L 582 223
L 582 223
L 582 223
L 582 223
L 582 223
L 582 223
L 582 223
L 582 223
L 582 223
L 582 223
L 582 223
L 582 222
L 582 222
L 582 222
L 582 222
L 582 222
L 582 222
L 582 222
L 582 222
L 582 222
L 582 222
L 582 222
L 582 222
L 582 222
L 582 222
L 582 222
L 582 222
L 582 222
L 582 222
L 583 221
L 583 221
L 583 221
L 583 221
L 583 221
L 583 221
L 583 221
L 583 221
L 583 221
L 583 221
L 583 221
L 584 221
L 584 221
L 584 221
L 584 221
L 584 221
L 584 221
L 584 221
L 584 220
L 584 220
L 584 220
L 584 220
L 584 220
L 584 220
L 584 220
L 584 220
L 584 220
L 584 220
L 584 220
L 584 220
L 584 220
L 584 220
L 584 220
L 584 220
L 584 220
L 584 219
L 584 219
L 584 219
L 584 219
L 584 219
L 584 219
L 584 219
L 584 219
L 584 219
L 584 219
L 584 219
L 584 219
L 584 219
L 584 219
L 584 219
L 584 219
L 585 219
L 585 219
L 585 218
L 585 218
L 585 218
L 585 218
L 585 218
L 585 218
L 585 218
L 585 218
L 585 218
L 585 218
L 585 218
L 585 218
L 585 218
L 585 218
L 585 218
L 585 218
L 585 218
L 585 218
L 585 217
L 585 217
L 585 217
L 585 217
L 585 217
L 585 217
L 585 217
L 585 217
L 585 217
L 585 217
L 585 217
L 585 217
L 585 217
L 585 217
L 585 217
L 585 217
L 585 217
L 585 216
L 586 216
L 586 216
L 586 216
L 586 216
L 586 216
L 586 216
L 586 216
L 586 216
L 586 216
L 586 216
L 586 216
L 586 216
L 586 216
L 586 216
L 586 216
L 586 216
L 586 216
L 586 215
L 586 215
L 586 215
L 586 215
L 586 215
L 586 215
L 586 215
L 586 215
L 586 215
L 586 215
L 586 215
L 586 215
L 586 215
L 586 215
L 586 215
L 586 215
L 586 215
L 586 215
L 586 214
L 586 214
L 586 214
L 586 214
L 586 214
L 586 214
L 587 214
L 587 214
L 587 214
L 587 214
L 587 214
L 587 214
L 587 214
L 587 214
L 587 214
L 587 214
L 587 214
L 587 213
L 587 213
L 588 213
L 588 213
L 588 213
L 588 213
L 588 213
L 588 213
L 588 213
L 588 213
L 588 213
L 588 213
L 588 213
L 588 213
L 588 213
L 588 213
L 588 213
L 589 213
L 589 212
L 589 212
L 589 212
L 589 212
L 589 212
L 589 212
L 589 212
L 589 212
L 589 212
L 589 212
L 589 212
L 590 212
L 590 212
L 590 212
L 590 212
L 590 212
L 590 212
L 590 211
L 590 211
L 590 211
L 590 211
L 590 211
L 590 211
L 590 211
L 590 211
L 591 211
L 591 211
L 591 211
L 591 211
L 591 211
L 591 211
L 591 211
L 591 211
L 591 211
L 593 211
L 593 210
L 593 210
L 594 210
L 596 210
L 596 210
L 596 210
L 596 210
L 596 210
L 596 210
L 596 210
L 596 210
L 596 210
L 596 210
L 596 210
L 596 210
L 596 210
L 596 210
L 596 210
L 596 209
L 596 209
L 596 209
L 596 209
L 597 209
L 597 209
L 597 209
L 597 209
L 597 209
L 597 209
L 597 209
L 597 209
L 597 209
L 597 209
L 597 209
L 597 209
L 597 209
L 597 208
L 597 208
L 597 208
L 597 208
L 597 208
L 597 208
L 597 208
L 597 208
L 597 208
L 597 208
L 597 208
L 597 208
L 597 208
L 597 208
L 597 208
L 597 208
L 597 208
L 597 208
L 597 207
L 597 207
L 597 207
L 597 207
L 597 207
L 597 207
L 597 207
L 597 207
L 597 207
L 597 207
L 597 207
L 597 207
L 597 207
L 597 207
L 597 207
L 597 207
L 597 207
L 598 207
L 598 206
L 598 206
L 598 206
L 598 206
L 598 206
L 598 206
L 598 206
L 598 206
L 598 206
L 598 206
L 598 206
L 598 206
L 598 206
L 598 206
L 598 206
L 598 206
L 598 206
L 598 205
L 598 205
L 598 205
L 598 205
L 598 205
L 598 205
L 598 205
L 598 205
L 598 205
L 598 205
L 598 205
L 598 205
L 598 205
L 598 205
L 598 205
L 598 205
L 598 205
L 598 205
L 598 204
L 598 204
L 598 204
L 598 204
L 599 204
L 599 204
L 599 204
L 599 204
L 599 204
L 599 204
L 599 204
L 599 204
L 599 204
L 599 204
L 599 204
L 599 204
L 599 204
L 599 204
L 599 203
L 599 203
L 599 203
L 599 203
L 599 203
L 599 203
L 599 203
L 599 203
L 599 203
L 599 203
L 600 203
L 600 203
L 600 203
L 600 203
L 600 203
L 600 203
L 600 203
L 600 202
L 600 202
L 600 202
L 600 202
L 600 202
L 600 202
L 600 202
L 600 202
L 600 202
L 600 202
L 600 202
L 600 202
L 600 202
L 600 202
L 600 202
L 600 202
L 600 202
L 600 202
L 600 201
L 600 201
L 600 201
L 600 201
L 600 201
L 600 201
L 600 201
L 600 201
L 600 201
L 600 201
L 600 201
L 600 201
L 600 201
L 600 201
L 600 201
L 600 201
L 600 201
L 600 201
L 601 200
L 601 200
L 601 200
L 601 200
L 601 200
L 601 200
L 601 200
L 601 200
L 601 200
L 601 200
L 601 200
L 601 200
L 601 200
L 601 200
L 601 200
L 601 200
L 601 200
L 601 199
L 601 199
L 601 199
L 601 199
L 601 199
L 601 199
L 601 199
L 601 199
L 601 199
L 601 199
L 601 199
L 601 199
L 601 199
L 601 199
L 601 199
L 601 199
L 601 199
L 601 199
L 601 198
L 601 198
L 601 198
L 601 198
L 601 198
L 601 198
L 602 198
L 602 198
L 602 198
L 602 198
L 602 198
L 602 198
L 602 198
L 602 198
L 602 198
L 602 198
L 602 198
L 602 198
L 602 197
L 602 197
L 602 197
L 602 197
L 602 197
L 602 197
L 602 197
L 603 197
L 603 197
L 603 197
L 603 197
L 603 197
L 603 197
L 603 197
L 603 197
L 603 197
L 603 197
L 603 196
L 603 196
L 603 196
L 604 196
L 604 196
L 604 196
L 604 196
L 604 196
L 604 196
L 604 196
L 604 196
L 604 196
L 604 196
L 604 196
L 605 196
L 605 196
L 605 196
L 605 196
L 605 195
L 605 195
L 605 195
L 605 195
L 605 195
L 605 195
L 605 195
L 605 195
L 605 195
L 606 195
L 606 195
L 606 195
L 606 195
L 606 195
L 606 195
L 606 195
L 607 195
L 607 194
L 607 194
L 607 194
L 607 194
L 610 194
L 610 194
L 610 194
L 611 194
L 611 194
L 611 194
L 612 194
L 612 194
L 612 194
L 612 194
L 612 194
L 612 194
L 612 194
L 613 194
L 613 193
L 613 193
L 613 193
L 613 193
L 613 193
L 613 193
L 613 193
L 613 193
L 613 193
L 613 193
L 613 193
L 614 193
L 614 193
L 614 193
L 614 193
L 614 193
L 614 193
L 614 193
L 614 192
L 615 192
L 615 192
L 615 192
L 615 192
L 615 192
L 615 192
L 615 192
L 616 192
L 616 192
L 616 192
L 616 192
L 616 192
L 616 192
L 616 192
L 616 192
L 617 192
L 617 191
L 617 191
L 617 191
L 617 191
L 617 191
L 617 191
L 617 191
L 618 191
L 618 191
L 619 191
L 619 191
L 619 191
L 619 191
L 619 191
L 619 191
L 619 191
L 619 191
L 619 191
L 620 190
L 620 190
L 620 190
L 620 190
L 620 190
L 620 190
L 621 190
L 621 190
L 621 190
L 621 190
L 621 190
L 621 190
L 621 190
L 622 190
L 622 190
L 622 190
L 622 190
L 622 190
L 622 189
L 623 189
L 624 189
L 624 189
L 624 189
L 624 189
L 625 189
L 625 189
L 626 189
L 626 189
L 627 189
L 627 189
L 628 189
L 628 189
L 628 189
L 628 189
L 628 189
L 628 188
L 629 188
L 629 188
L 629 188
L 629 188
L 629 188
L 629 188
L 629 188
L 629 188
L 630 188
L 630 188
L 630 188
L 630 188
L 630 188
L 631 188
L 631 188
L 631 188
L 631 188
L 631 187
L 631 187
L 632 187
L 632 187
L 632 187
L 632 187
L 632 187
L 632 187
L 633 187
L 633 187
L 633 187
L 633 187
L 634 187
L 634 187
L 634 187
L 634 187
L 634 187
L 634 187
L 635 186
L 635 186
L 635 186
L 635 186
L 635 186
L 635 186
L 636 186
L 636 186
L 636 186
L 636 186
L 636 186
L 636 186
L 636 186
L 637 186
L 637 186
L 637 186
L 637 186
L 637 185
L 637 185
L 637 185
L 638 185
L 638 185
L 638 185
L 638 185
L 639 185
L 639 185
L 639 185
L 641 185
L 641 185
L 642 185
L 643 185
L 643 185
L 643 185
L 643 185
L 643 185
L 644 184
L 644 184
L 644 184
L 644 184
L 644 184
L 644 184
L 645 184
L 645 184
L 645 184
L 645 184
L 645 184
L 646 184
L 646 184
L 646 184
L 646 184
L 646 184
L 646 184
L 646 184
L 646 183
L 646 183
L 647 183
L 647 183
L 647 183
L 647 183
L 647 183
L 647 183
L 648 183
L 648 183
L 648 183
L 648 183
L 648 183
L 648 183
L 649 183
L 649 183
L 649 183
L 649 182
L 649 182
L 649 182
L 649 182
L 649 182
L 649 182
L 650 182
L 650 182
L 650 182
L 650 182
L 650 182
L 650 182
L 650 182
L 650 182
L 650 182
L 650 182
L 650 182
L 650 182
L 650 181
L 650 181
L 651 181
L 651 181
L 651 181
L 651 181
L 651 181
L 651 181
L 651 181
L 652 181
L 652 181
L 652 181
L 652 181
L 652 181
L 652 181
L 652 181
L 652 181
L 653 181
L 653 180
L 653 180
L 653 180
L 654 180
L 654 180
L 654 180
L 658 180
L 658 180
L 659 180
L 659 180
L 659 180
L 659 180
L 659 180
L 659 180
L 659 180
L 659 180
L 659 180
L 659 179
L 659 179
L 659 179
L 659 179
L 659 179
L 659 179
L 659 179
L 659 179
L 659 179
L 659 179
L 659 179
L 659 179
L 659 179
L 659 179
L 659 179
L 659 179
L 659 179
L 659 179
L 659 178
L 659 178
L 659 178
L 659 178
L 659 178
L 659 178
L 659 178
L 659 178
L 660 178
L 660 178
L 660 178
L 660 178
L 660 178
L 660 178
L 660 178
L 660 178
L 660 178
L 660 177
L 660 177
L 660 177
L 660 177
L 660 177
L 660 177
L 660 177
L 660 177
L 660 177
L 660 177
L 660 177
L 660 177
L 660 177
L 660 177
L 660 177
L 660 177
L 660 177
L 660 177
L 660 176
L 660 176
L 660 176
L 660 176
L 660 176
L 661 176
L 661 176
L 661 176
L 661 176
L 661 176
L 661 176
L 661 176
L 661 176
L 661 176
L 661 176
L 661 176
L 661 176
L 661 176
L 662 175
L 662 175
L 662 175
L 662 175
L 662 175
L 662 175
L 662 175
L 662 175
L 662 175
L 662 175
L 662 175
L 662 175
L 662 175
L 662 175
L 662 175
L 662 175
L 662 175
L 662 174
L 662 174
L 662 174
L 662 174
L 662 174
L 662 174
L 662 174
L 662 174
L 662 174
L 662 174
L 662 174
L 662 174
L 662 174
L 662 174
L 663 174
L 663 174
L 663 174
L 663 174
L 663 173
L 663 173
L 663 173
L 663 173
L 663 173
L 663 173
L 663 173
L 663 173
L 663 173
L 663 173
L 663 173
L 663 173
L 663 173
L 663 173
L 663 173
L 663 173
L 663 173
L 663 173
L 663 172
L 663 172
L 663 172
L 663 172
L 664 172
L 664 172
L 664 172
L 664 172
L 664 172
L 664 172
L 664 172
L 664 172
L 664 172
L 664 172
L 664 172
L 664 172
L 664 172
L 664 171
L 664 171
L 664 171
L 664 171
L 664 171
L 664 171
L 664 171
L 664 171
L 665 171
L 665 171
L 665 171
L 665 171
L 665 171
L 665 171
L 665 171
L 665 171
L 665 171
L 666 171
L 666 170
L 666 170
L 666 170
L 666 170
L 666 170
L 666 170
L 666 170
L 666 170
L 666 170
L 666 170
L 666 170
L 666 170
L 666 170
L 666 170
L 667 170
L 667 170
L 667 170
L 667 170
L 667 169
L 667 169
L 667 169
L 667 169
L 667 169
L 667 169
L 667 169
L 667 169
L 667 169
L 667 169
L 667 169
L 667 169
L 667 169
L 667 169
L 667 169
L 667 169
L 667 169
L 667 168
L 667 168
L 668 168
L 668 168
L 668 168
L 668 168
L 668 168
L 668 168
L 668 168
L 668 168
L 668 168
L 668 168
L 669 168
L 669 168
L 669 168
L 669 168
L 669 168
L 670 168
L 670 167
L 670 167
L 671 167
L 672 167
L 673 167
L 673 167
L 674 167
L 674 167
L 674 167
L 674 167
L 674 167
L 674 167
L 674 167
L 674 167
L 674 167
L 674 167
L 674 167
L 674 167
L 674 166
L 674 166
L 674 166
L 674 166
L 674 166
L 674 166
L 674 166
L 674 166
L 674 166
L 674 166
L 674 166
L 674 166
L 674 166
L 674 166
L 675 166
L 675 166
L 675 166
L 675 165
L 675 165
L 675 165
L 675 165
L 675 165
L 675 165
L 675 165
L 675 165
L 675 165
L 675 165
L 675 165
L 675 165
L 675 165
L 675 165
L 675 165
L 675 165
L 675 165
L 675 165
L 675 164
L 675 164
L 675 164
L 675 164
L 675 164
L 675 164
L 675 164
L 675 164
L 675 164
L 675 164
L 675 164
L 675 164
L 675 164
L 675 164
L 675 164
L 675 164
L 675 164
L 675 163
L 675 163
L 675 163
L 676 163
L 676 163
L 676 163
L 676 163
L 676 163
L 676 163
L 676 163
L 676 163
L 676 163
L 676 163
L 676 163
L 676 163
L 677 163
L 677 163
L 677 163
L 677 162
L 677 162
L 677 162
L 677 162
L 677 162
L 677 162
L 677 162
L 677 162
L 677 162
L 677 162
L 677 162
L 677 162
L 677 162
L 677 162
L 677 162
L 677 162
L 677 162
L 678 162
L 678 161
L 678 161
L 678 161
L 678 161
L 678 161
L 678 161
L 678 161
L 678 161
L 678 161
L 678 161
L 678 161
L 678 161
L 678 161
L 678 161
L 678 161
L 678 161
L 678 161
L 678 160
L 678 160
L 678 160
L 678 160
L 678 160
L 678 160
L 678 160
L 678 160
L 679 160
L 679 160
L 679 160
L 679 160
L 679 160
L 679 160
L 679 160
L 679 160
L 679 160
L 679 160
L 679 159
L 679 159
L 679 159
L 679 159
L 679 159
L 679 159
L 679 159
L 679 159
L 679 159
L 679 159
L 679 159
L 679 159
L 679 159
L 679 159
L 679 159
L 679 159
L 679 159
L 679 159
L 679 158
L 679 158
L 679 158
L 679 158
L 679 158
L 679 158
L 679 158
L 679 158
L 679 158
L 679 158
L 679 158
L 679 158
L 679 158
L 680 158
L 680 158
L 680 158
L 680 158
L 680 157
L 680 157
L 680 157
L 680 157
L 680 157
L 680 157
L 680 157
L 680 157
L 680 157
L 680 157
L 680 157
L 680 157
L 680 157
L 680 157
L 680 157
L 680 157
L 680 157
L 680 157
L 680 156
L 680 156
L 680 156
L 680 156
L 680 156
L 680 156
L 680 156
L 680 156
L 681 156
L 681 156
L 681 156
L 681 156
L 681 156
L 681 156
L 681 156
L 681 156
L 681 156
L 681 156
L 681 155
L 681 155
L 681 155
L 681 155
L 681 155
L 681 155
L 681 155
L 681 155
L 681 155
L 681 155
L 681 155
L 681 155
L 681 155
L 681 155
L 682 155
L 682 155
L 682 155
L 682 154
L 682 154
L 682 154
L 682 154
L 682 154
L 682 154
L 682 154
L 682 154
L 682 154
L 682 154
L 682 154
L 682 154
L 682 154
L 682 154
L 682 154
L 683 154
L 683 154
L 683 154
L 683 153
L 683 153
L 683 153
L 683 153
L 683 153
L 683 153
L 683 153
L 683 153
L 683 153
L 683 153
L 683 153
L 683 153
L 683 153
L 683 153
L 683 153
L 683 153
L 684 153
L 684 153
L 684 152
L 684 152
L 684 152
L 684 152
L 684 152
L 684 152
L 684 152
L 684 152
L 685 152
L 685 152
L 685 152
L 685 152
L 686 152
L 687 152
L 688 152
L 689 152
L 689 152
L 689 151
L 689 151
L 689 151
L 689 151
L 689 151
L 689 151
L 690 151
L 690 151
L 690 151
L 690 151
L 690 151
L 690 151
L 690 151
L 690 151
L 690 151
L 690 151
L 690 151
L 690 151
L 690 150
L 690 150
L 690 150
L 690 150
L 690 150
L 690 150
L 690 150
L 690 150
L 690 150
L 690 150
L 690 150
L 691 150
L 691 150
L 691 150
L 691 150
L 691 150
L 691 150
L 691 150
L 691 149
L 691 149
L 691 149
L 691 149
L 691 149
L 691 149
L 691 149
L 691 149
L 691 149
L 691 149
L 691 149
L 691 149
L 691 149
L 691 149
L 691 149
L 691 149
L 691 149
L 691 148
L 691 148
L 692 148
L 692 148
L 692 148
L 692 148
L 692 148
L 692 148
L 692 148
L 692 148
L 692 148
L 692 148
L 692 148
L 692 148
L 692 148
L 693 148
L 693 148
L 693 148
L 693 147
L 693 147
L 693 147
L 693 147
L 693 147
L 693 147
L 693 147
L 693 147
L 693 147
L 693 147
L 693 147
L 693 147
L 693 147
L 693 147
L 693 147
L 693 147
L 693 147
L 693 147
L 694 146
L 694 146
L 694 146
L 694 146
L 694 146
L 694 146
L 694 146
L 694 146
L 694 146
L 694 146
L 694 146
L 694 146
L 694 146
L 694 146
L 694 146
L 694 146
L 694 146
L 694 145
L 694 145
L 695 145
L 695 145
L 695 145
L 695 145
L 695 145
L 695 145
L 695 145
L 695 145
L 695 145
L 695 145
L 695 145
L 695 145
L 695 145
L 695 145
L 695 145
L 695 145
L 695 144
L 695 144
L 695 144
L 695 144
L 695 144
L 695 144
L 695 144
L 695 144
L 695 144
L 695 144
L 695 144
L 695 144
L 695 144
L 695 144
L 695 144
L 695 144
L 695 144
L 696 143
L 696 143
L 696 143
L 696 143
L 696 143
L 696 143
L 696 143
L 696 143
L 696 143
L 696 143
L 696 143
L 696 143
L 696 143
L 697 143
L 697 143
L 697 143
L 697 143
L 697 143
L 697 142
L 697 142
L 697 142
L 698 142
L 698 142
L 698 142
L 698 142
L 698 142
L 698 142
L 698 142
L 698 142
L 698 142
L 698 142
L 698 142
L 698 142
L 698 142
L 698 142
L 698 142
L 698 141
L 699 141
L 699 141
L 699 141
L 699 141
L 699 141
L 699 141
L 699 141
L 700 141
L 700 141
L 700 141
L 701 141
L 701 141
L 701 141
L 702 141
L 702 141
L 703 141
L 703 140
L 703 140
L 705 140
L 705 140
L 705 140
L 705 140
L 705 140
L 705 140
L 706 140
L 706 140
L 706 140
L 706 140
L 706 140
L 706 140
L 706 140
L 706 140
L 706 140
L 706 140
L 706 139
L 706 139
L 706 139
L 706 139
L 706 139
L 706 139
L 706 139
L 706 139
L 706 139
L 707 139
L 707 139
L 707 139
L 707 139
L 707 139
L 707 139
L 707 139
L 707 139
L 707 139
L 707 138
L 707 138
L 707 138
L 707 138
L 707 138
L 707 138
L 707 138
L 707 138
L 708 138
L 708 138
L 708 138
L 708 138
L 708 138
L 708 138
L 708 138
L 709 138
L 709 138
L 709 137
L 709 137
L 709 137
L 709 137
L 709 137
L 709 137
L 709 137
L 709 137
L 710 137
L 710 137
L 710 137
L 710 137
L 710 137
L 710 137
L 710 137
L 711 137
L 711 137
L 711 137
L 711 136
L 711 136
L 711 136
L 711 136
L 711 136
L 711 136
L 712 136
L 712 136
L 712 136
L 712 136
L 712 136
L 712 136
L 713 136
L 713 136
L 713 136
L 713 136
L 713 136
L 713 136
L 713 135
L 713 135
L 713 135
L 713 135
L 713 135
L 713 135
L 713 135
L 714 135
L 714 135
L 714 135
L 714 135
L 714 135
L 714 135
L 714 135
L 714 135
L 714 135
L 715 135
L 715 134
L 715 134
L 715 134
L 715 134
L 715 134
L 716 134
L 716 134
L 721 134
L 721 134
L 722 134
L 722 134
L 722 134
L 722 134
L 722 134
L 722 134
L 723 134
L 723 134
L 723 134
L 723 133
L 723 133
L 723 133
L 723 133
L 723 133
L 723 133
L 724 133
L 724 133
L 724 133
L 724 133
L 724 133
L 725 133
L 725 133
L 725 133
L 725 133
L 725 133
L 725 133
L 725 133
L 726 132
L 726 132
L 726 132
L 726 132
L 726 132
L 726 132
L 726 132
L 726 132
L 726 132
L 726 132
L 726 132
L 727 132
L 727 132
L 727 132
L 727 132
L 727 132
L 727 132
L 727 131
L 727 131
L 727 131
L 727 131
L 728 131
L 728 131
L 728 131
L 728 131
L 729 131
L 729 131
L 729 131
L 729 131
L 729 131
L 729 131
L 729 131
L 729 131
L 729 131
L 729 131
L 729 130
L 730 130
L 730 130
L 730 130
L 730 130
L 730 130
L 730 130
L 730 130
L 730 130
L 730 130
L 730 130
L 730 130
L 730 130
L 730 130
L 731 130
L 731 130
L 731 130
L 731 130
L 731 129
L 731 129
L 731 129
L 732 129
L 732 129
L 733 129
L 733 129
L 733 129
L 734 129
L 735 129
L 736 129
L 736 129
L 736 129
L 736 129
L 736 129
L 736 129
L 736 129
L 736 128
L 736 128
L 736 128
L 736 128
L 736 128
L 737 128
L 737 128
L 737 128
L 737 128
L 737 128
L 737 128
L 737 128
L 737 128
L 737 128
L 737 128
L 737 128
L 737 128
L 737 128
L 737 127
L 737 127
L 737 127
L 737 127
L 737 127
L 737 127
L 737 127
L 737 127
L 737 127
L 737 127
L 738 127
L 738 127
L 738 127
L 738 127
L 738 127
L 738 127
L 738 127
L 738 126
L 738 126
L 738 126
L 738 126
L 738 126
L 738 126
L 738 126
L 738 126
L 738 126
L 738 126
L 738 126
L 738 126
L 738 126
L 738 126
L 738 126
L 738 126
L 739 126
L 739 126
L 739 125
L 739 125
L 739 125
L 739 125
L 739 125
L 740 125
L 740 125
L 740 125
L 740 125
L 740 125
L 740 125
L 740 125
L 740 125
L 740 125
L 740 125
L 740 125
L 740 125
L 740 125
L 740 124
L 740 124
L 740 124
L 740 124
L 740 124
L 740 124
L 741 124
L 741 124
L 741 124
L 741 124
L 741 124
L 741 124
L 741 124
L 741 124
L 741 124
L 741 124
L 741 124
L 741 123
L 741 123
L 742 123
L 742 123
L 742 123
L 742 123
L 742 123
L 742 123
L 742 123
L 742 123
L 742 123
L 742 123
L 742 123
L 742 123
L 742 123
L 742 123
L 742 123
L 742 123
L 742 122
L 743 122
L 743 122
L 743 122
L 743 122
L 743 122
L 743 122
L 744 122
L 744 122
L 744 122
L 744 122
L 744 122
L 744 122
L 744 122
L 744 122
L 744 122
L 744 122
L 744 122
L 745 121
L 745 121
L 745 121
L 745 121
L 745 121
L 745 121
L 745 121
L 746 121
L 746 121
L 746 121
L 746 121
L 746 121
L 746 121
L 746 121
L 746 121
L 746 121
L 746 121
L 746 120
L 749 120
L 751 120
L 751 120
L 752 120
L 752 120
L 752 120
L 752 120
L 752 120
L 752 120
L 752 120
L 752 120
L 752 120
L 752 120
L 753 120
L 753 120
L 753 120
L 753 120
L 753 119
L 753 119
L 753 119
L 753 119
L 753 119
L 753 119
L 753 119
L 753 119
L 753 119
L 753 119
L 753 119
L 753 119
L 753 119
L 753 119
L 753 119
L 753 119
L 754 119
L 754 119
L 754 118
L 754 118
L 754 118
L 754 118
L 754 118
L 754 118
L 754 118
L 754 118
L 755 118
L 755 118
L 755 118
L 755 118
L 755 118
L 755 118
L 755 118
L 755 118
L 755 118
L 755 117
L 755 117
L 755 117
L 755 117
L 755 117
L 756 117
L 756 117
L 756 117
L 756 117
L 756 117
L 756 117
L 756 117
L 756 117
L 756 117
L 756 117
L 756 117
L 756 117
L 757 117
L 757 116
L 757 116
L 757 116
L 757 116
L 757 116
L 757 116
L 757 116
L 757 116
L 757 116
L 757 116
L 757 116
L 757 116
L 757 116
L 757 116
L 757 116
L 757 116
L 757 116
L 757 116
L 757 115
L 757 115
L 757 115
L 757 115
L 757 115
L 757 115
L 757 115
L 757 115
L 758 115
L 758 115
L 758 115
L 758 115
L 758 115
L 758 115
L 758 115
L 758 115
L 758 115
L 758 114
L 758 114
L 758 114
L 758 114
L 759 114
L 759 114
L 759 114
L 759 114
L 759 114
L 759 114
L 759 114
L 759 114
L 760 114
L 760 114
L 760 114
L 760 114
L 760 114
L 760 114
L 760 113
L 760 113
L 760 113
L 760 113
L 760 113
L 760 113
L 760 113
L 760 113
L 760 113
L 760 113
L 760 113
L 760 113
L 760 113
L 761 113
L 761 113
L 761 113
L 761 113
L 761 113
L 761 112
L 761 112
L 761 112
L 761 112
L 761 112
L 762 112
L 762 112
L 762 112
L 762 112
L 763 112
L 763 112
L 763 112
L 765 112
L 767 112
L 767 112
L 767 112
L 768 112
L 768 111
L 768 111
L 768 111
L 768 111
L 768 111
L 768 111
L 768 111
L 768 111
L 768 111
L 768 111
L 768 111
L 768 111
L 768 111
L 768 111
L 768 111
L 768 111
L 768 111
L 768 111
L 768 110
L 768 110
L 768 110
L 768 110
L 768 110
L 768 110
L 769 110
L 769 110
L 769 110
L 769 110
L 769 110
L 769 110
L 769 110
L 769 110
L 769 110
L 769 110
L 769 110
L 769 109
L 769 109
L 769 109
L 769 109
L 769 109
L 769 109
L 769 109
L 769 109
L 770 109
L 770 109
L 770 109
L 770 109
L 770 109
L 770 109
L 770 109
L 770 109
L 770 109
L 770 109
L 771 108
L 771 108
L 771 108
L 771 108
L 771 108
L 771 108
L 771 108
L 771 108
L 771 108
L 771 108
L 771 108
L 771 108
L 771 108
L 771 108
L 771 108
L 771 108
L 771 108
L 771 108
L 771 107
L 771 107
L 771 107
L 771 107
L 771 107
L 771 107
L 771 107
L 772 107
L 772 107
L 772 107
L 772 107
L 772 107
L 772 107
L 772 107
L 772 107
L 772 107
L 772 107
L 772 106
L 772 106
L 772 106
L 772 106
L 772 106
L 772 106
L 773 106
L 773 106
L 773 106
L 773 106
L 773 106
L 773 106
L 773 106
L 773 106
L 773 106
L 773 106
L 773 106
L 773 106
L 773 105
L 773 105
L 773 105
L 774 105
L 774 105
L 774 105
L 774 105
L 774 105
L 774 105
L 775 105
L 775 105
L 775 105
L 775 105
L 775 105
L 775 105
L 776 105
L 776 105
L 776 105
L 776 104
L 776 104
L 776 104
L 776 104
L 776 104
L 776 104
L 776 104
L 776 104
L 776 104
L 776 104
L 776 104
L 776 104
L 777 104
L 777 104
L 777 104
L 777 104
L 777 104
L 777 103
L 777 103
L 777 103
L 777 103
L 777 103
L 777 103
L 778 103
L 778 103
L 778 103
L 779 103
L 782 103
L 782 103
L 782 103
L 782 103
L 783 103
L 783 103
L 783 103
L 783 103
L 783 102
L 783 102
L 783 102
L 783 102
L 783 102
L 783 102
L 783 102
L 783 102
L 783 102
L 783 102
L 783 102
L 783 102
L 783 102
L 783 102
L 783 102
L 783 102
L 783 102
L 783 102
L 783 101
L 783 101
L 783 101
L 783 101
L 783 101
L 783 101
L 783 101
L 783 101
L 783 101
L 783 101
L 783 101
L 783 101
L 783 101
L 783 101
L 783 101
L 783 101
L 783 101
L 783 100
L 783 100
L 783 100
L 783 100
L 783 100
L 783 100
L 783 100
L 783 100
L 783 100
L 783 100
L 783 100
L 783 100
L 783 100
L 783 100
L 784 100
L 784 100
L 784 100
L 784 100
L 784 99
L 784 99
L 784 99
L 784 99
L 784 99
L 784 99
L 784 99
L 784 99
L 784 99
L 784 99
L 784 99
L 784 99
L 784 99
L 784 99
L 784 99
L 784 99
L 784 99
L 784 99
L 784 98
L 784 98
L 784 98
L 784 98
L 784 98
L 784 98
L 784 98
L 784 98
L 784 98
L 784 98
L 784 98
L 784 98
L 784 98
L 784 98
L 784 98
L 784 98
L 785 98
L 785 97
L 785 97
L 785 97
L 785 97
L 785 97
L 785 97
L 785 97
L 785 97
L 785 97
L 785 97
L 785 97
L 785 97
L 786 97
L 786 97
L 786 97
L 786 97
L 786 97
L 786 97
L 786 96
L 786 96
L 786 96
L 786 96
L 786 96
L 786 96
L 786 96
L 786 96
L 786 96
L 786 96
L 786 96
L 786 96
L 786 96
L 786 96
L 786 96
L 786 96
L 786 96
L 786 96
L 787 95
L 787 95
L 787 95
L 787 95
L 787 95
L 787 95
L 787 95
L 787 95
L 787 95
L 787 95
L 787 95
L 787 95
L 787 95
L 787 95
L 787 95
L 787 95
L 787 95
L 787 94
L 787 94
L 787 94
L 787 94
L 787 94
L 787 94
L 787 94
L 787 94
L 787 94
L 787 94
L 787 94
L 787 94
L 787 94
L 787 94
L 787 94
L 787 94
L 787 94
L 787 94
L 787 93
L 787 93
L 787 93
L 787 93
L 787 93
L 787 93
L 787 93
L 787 93
L 787 93
L 788 93
L 788 93
L 788 93
L 788 93
L 788 93
L 788 93
L 788 93
L 788 93
L 788 92
L 788 92
L 788 92
L 788 92
L 788 92
L 788 92
L 788 92
L 788 92
L 788 92
L 788 92
L 788 92
L 788 92
L 788 92
L 788 92
L 788 92
L 788 92
L 788 92
L 788 92
L 788 91
L 788 91
L 788 91
L 789 91
L 789 91
L 789 91
L 789 91
L 789 91
L 789 91
L 789 91
L 789 91
L 789 91
L 789 91
L 789 91
L 789 91
L 790 91
L 790 91
L 790 91
L 790 90
L 790 90
L 790 90
L 790 90
L 790 90
L 790 90
L 790 90
L 790 90
L 790 90
L 790 90
L 790 90
L 790 90
L 790 90
L 790 90
L 790 90
L 790 90
L 790 90
L 790 89
L 790 89
L 790 89
L 790 89
L 791 89
L 791 89
L 791 89
L 791 89
L 791 89
L 791 89
L 791 89
L 791 89
L 791 89
L 791 89
L 791 89
L 791 89
L 791 89
L 791 89
L 791 88
L 791 88
L 791 88
L 791 88
L 791 88
L 791 88
L 792 88
L 792 88
L 792 88
L 792 88
L 792 88
L 792 88
L 792 88
L 792 88
L 792 88
L 792 88
L 792 88
L 792 88
L 792 87
L 792 87
L 793 87
L 793 87
L 793 87
L 793 87
L 793 87
L 793 87
L 793 87
L 794 87
L 794 87
L 794 87
L 794 87
L 794 87
L 795 87
L 795 87
L 795 87
L 795 86
L 796 86
L 797 86
L 798 86
L 798 86
L 798 86
L 798 86
L 798 86
L 798 86
L 798 86
L 799 86
L 799 86
L 799 86
L 799 86
L 799 86
L 799 86
L 799 86
L 799 86
L 799 85
L 799 85
L 799 85
L 799 85
L 799 85
L 799 85
L 799 85
L 799 85
L 799 85
L 799 85
L 799 85
L 799 85
L 799 85
L 799 85
L 799 85
L 799 85
L 799 85
L 799 85
L 799 84
L 799 84
L 799 84
L 799 84
L 800 84
L 800 84
L 800 84
L 800 84
L 800 84
L 800 84
L 800 84
L 800 84
L 800 84
L 800 84
L 800 84
L 800 84
L 800 84
L 800 83
L 800 83
L 800 83
L 800 83
L 801 83
L 801 83
L 801 83
L 801 83
L 801 83
L 801 83
L 801 83
L 801 83
L 801 83
L 801 83
L 801 83
L 801 83
L 801 83
L 801 83
L 801 82
L 802 82
L 802 82
L 802 82
L 802 82
L 802 82
L 802 82
L 802 82
L 802 82
L 802 82
L 802 82
L 802 82
L 802 82
L 802 82
L 802 82
L 802 82
L 802 82
L 802 82
L 802 81
L 802 81
L 802 81
L 802 81
L 802 81
L 802 81
L 802 81
L 803 81
L 803 81
L 803 81
L 803 81
L 803 81
L 803 81
L 803 81
L 803 81
L 803 81
L 803 81
L 803 80
L 803 80
L 803 80
L 803 80
L 803 80
L 803 80
L 803 80
L 803 80
L 803 80
L 803 80
L 803 80
L 803 80
L 803 80
L 803 80
L 803 80
L 804 80
L 804 80
L 804 80
L 804 79
L 804 79
L 804 79
L 804 79
L 804 79
L 804 79
L 804 79
L 804 79
L 804 79
L 804 79
L 804 79
L 804 79
L 804 79
L 804 79
L 804 79
L 804 79
L 804 79
L 804 79
L 804 78
L 804 78
L 805 78
L 805 78
L 805 78
L 805 78
L 805 78
L 805 78
L 805 78
L 806 78
L 806 78
L 806 78
L 806 78
L 806 78
L 806 78
L 806 78
L 806 78
L 806 77
L 806 77
L 807 77
L 807 77
L 807 77
L 807 77
L 807 77
L 807 77
L 807 77
L 808 77
L 808 77
L 808 77
L 808 77
L 808 77
L 808 77
L 808 77
L 808 77
L 808 77
L 809 76
L 809 76
L 809 76
L 809 76
L 809 76
L 810 76
L 810 76
L 811 76
L 811 76
L 813 76
L 815 76
L 815 76
L 815 76
L 815 76
L 815 76
L 815 76
L 815 76
L 815 75
L 815 75
L 816 75
L 816 75
L 816 75
L 816 75
L 816 75
L 816 75
L 816 75
L 817 75
L 817 75
L 817 75
L 817 75
L 818 75
L 818 75
L 818 75
L 818 75
L 818 75
L 818 74
L 818 74
L 818 74
L 819 74
L 819 74
L 819 74
L 819 74
L 819 74
L 819 74
L 819 74
L 819 74
L 819 74
L 820 74
L 820 74
L 820 74
L 820 74
L 820 74
L 820 74
L 820 73
L 821 73
L 821 73
L 822 73
L 822 73
L 822 73
L 823 73
L 823 73
L 823 73
L 824 73
L 824 73
L 824 73
L 824 73
L 824 73
L 825 73
L 825 73
L 825 73
L 827 72
L 829 72
L 829 72
L 831 72
L 831 72
L 832 72
L 832 72
L 832 72
L 832 72
L 832 72
L 833 72
L 833 72
L 833 72
L 833 72
L 833 72
L 833 72
L 834 72
L 834 72
L 834 71
L 834 71
L 834 71
L 834 71
L 835 71
L 835 71
L 836 71
L 836 71
L 836 71
L 836 71
L 836 71
L 837 71
L 837 71
L 837 71
L 837 71
L 837 71
L 838 71
L 838 71
L 838 70
L 838 70
L 838 70
L 838 70
L 839 70
L 839 70
L 839 70
L 839 70
L 840 70
L 840 70
L 841 70
L 845 70
L 845 70
L 845 70
L 845 70
L 845 70
L 846 70
L 846 69
L 846 69
L 846 69
L 846 69
L 846 69
L 846 69
L 846 69
L 846 69
L 846 69
L 846 69
L 846 69
L 846 69
L 846 69
L 846 69
L 846 69
L 846 69
L 846 69
L 846 69
L 847 68
L 847 68
L 847 68
L 847 68
L 847 68
L 847 68
L 847 68
L 847 68
L 847 68
L 847 68
L 848 68
L 848 68
L 848 68
L 848 68
L 848 68
L 848 68
L 848 68
L 849 68
L 849 67
L 849 67
L 849 67
L 849 67
L 849 67
L 849 67
L 849 67
L 849 67
L 849 67
L 850 67
L 850 67
L 850 67
L 850 67
L 850 67
L 850 67
L 850 67
L 850 67
L 850 66
L 850 66
L 850 66
L 850 66
L 850 66
L 850 66
L 850 66
L 850 66
L 851 66
L 851 66
L 851 66
L 851 66
L 851 66
L 851 66
L 851 66
L 851 66
L 851 66
L 852 66
L 852 65
L 852 65
L 852 65
L 852 65
L 852 65
L 852 65
L 853 65
L 853 65
L 853 65
L 853 65
L 853 65
L 853 65
L 853 65
L 853 65
L 853 65
L 853 65
L 853 65
L 853 65
L 854 64
L 854 64
L 854 64
L 854 64
L 854 64
L 854 64
L 854 64
L 854 64
L 854 64
L 855 64
L 855 64
L 855 64
L 855 64
L 855 64
L 855 64
L 855 64
L 855 64
L 856 63
L 856 63
L 858 63
L 858 63
L 860 63
L 861 63
L 861 63
L 861 63
L 861 63
L 861 63
L 861 63
L 861 63
L 861 63
L 861 63
L 861 63
L 862 63
L 862 63
L 862 63
L 862 62
L 862 62
L 862 62
L 862 62
L 862 62
L 862 62
L 862 62
L 862 62
L 862 62
L 862 62
L 862 62
L 862 62
L 862 62
L 862 62
L 862 62
L 862 62
L 862 62
L 862 62
L 862 61
L 862 61
L 862 61
L 862 61
L 862 61
L 862 61
L 862 61
L 862 61
L 862 61
L 862 61
L 862 61
L 862 61
L 862 61
L 862 61
L 862 61
L 862 61
L 862 61
L 862 60
L 862 60
L 862 60
L 862 60
L 862 60
L 862 60
L 862 60
L 862 60
L 862 60
L 862 60
L 862 60
L 862 60
L 862 60
L 862 60
L 862 60
L 862 60
L 862 60
L 862 60
L 862 59
L 862 59
L 863 59
L 863 59
L 863 59
L 863 59
L 863 59
L 863 59
L 863 59
L 863 59
L 863 59
L 863 59
L 863 59
L 863 59
L 863 59
L 863 59
L 863 59
L 863 58
L 863 58
L 863 58
L 863 58
L 863 58
L 863 58
L 863 58
L 863 58
L 863 58
L 863 58
L 863 58
L 863 58
L 863 58
L 863 58
L 863 58
L 864 58
L 864 58
L 864 58
L 864 57
L 864 57
L 864 57
L 864 57
L 864 57
L 864 57
L 864 57
L 864 57
L 864 57
L 864 57
L 864 57
L 864 57
L 864 57
L 864 57
L 864 57
L 864 57
L 865 57
L 865 57
L 865 56
L 865 56
L 865 56
L 865 56
L 865 56
L 865 56
L 865 56
L 865 56
L 865 56
L 865 56
L 865 56
L 865 56
L 865 56
L 865 56
L 865 56
L 866 56
L 866 56
L 866 55
L 866 55
L 866 55
L 866 55
L 866 55
L 866 55
L 866 55
L 866 55
L 866 55
L 866 55
L 866 55
L 866 55
L 866 55
L 866 55
L 866 55
L 866 55
L 866 55
L 866 55
L 866 54
L 867 54
L 867 54
L 867 54
L 867 54
L 867 54
L 867 54
L 867 54
L 867 54
L 867 54
L 867 54
L 867 54
L 867 54
L 867 54
L 867 54
L 867 54
L 867 54
L 867 54
L 867 53
L 867 53
L 867 53
L 867 53
L 867 53
L 867 53
L 868 53
L 868 53
L 868 53
L 868 53
L 868 53
L 868 53
L 868 53
L 868 53
L 868 53
L 868 53
L 868 53
L 868 52
L 868 52
L 868 52
L 868 52
L 868 52
L 868 52
L 868 52
L 868 52
L 868 52
L 869 52
L 869 52
L 869 52
L 869 52
L 869 52
L 869 52
L 869 52
L 869 52
L 869 52
L 869 51
L 870 51
L 870 51
L 870 51
L 870 51
L 870 51
L 870 51
L 871 51
L 871 51
L 872 51
L 872 51
L 872 51
L 874 51
L 874 51
L 876 51
L 876 51
L 876 51
L 877 51
L 877 50
L 877 50
L 877 50
L 877 50
L 877 50
L 877 50
L 877 50
L 877 50
L 877 50
L 877 50
L 877 50
L 877 50
L 877 50
L 877 50
L 877 50
L 877 50
L 877 50
L 877 49
L 877 49
L 877 49
L 877 49
L 877 49
L 877 49
L 877 49
L 877 49
L 877 49
L 877 49
L 877 49
L 877 49
L 877 49
L 877 49
L 877 49
L 877 49
L 877 49
L 877 49
L 877 48
L 877 48
L 877 48
L 877 48
L 877 48
L 877 48
L 877 48
L 877 48
L 878 48
L 878 48
L 878 48
L 878 48
L 878 48
L 878 48
L 878 48
L 878 48
L 878 48
L 878 48
L 878 47
L 878 47
L 878 47
L 878 47
L 878 47
L 878 47
L 878 47
L 878 47
L 878 47
L 878 47
L 878 47
L 878 47
L 878 47
L 878 47
L 878 47
L 878 47
L 878 47
L 878 46
L 878 46
L 878 46
L 878 46
L 878 46
L 878 46
L 878 46
L 878 46
L 878 46
L 878 46
L 878 46
L 878 46
L 879 46
L 879 46
L 879 46
L 879 46
L 879 46
L 879 46
L 879 45
L 879 45
L 879 45
L 879 45
L 879 45
L 879 45
L 879 45
L 879 45
L 879 45
L 879 45
L 879 45
L 879 45
L 879 45
L 879 45
L 880 45
L 880 45
L 880 45
L 880 45
L 880 44
L 880 44
L 880 44
L 880 44
L 880 44
L 880 44
L 880 44
L 880 44
L 880 44
L 880 44
L 880 44
L 880 44
L 880 44
L 880 44
L 880 44
L 880 44
L 880 44
L 880 43
L 880 43
L 880 43
L 880 43
L 880 43
L 880 43
L 880 43
L 880 43
L 880 43
L 881 43
L 881 43
L 881 43
L 881 43
L 881 43
L 881 43
L 881 43
L 881 43
L 881 43
L 881 42
L 881 42
L 881 42
L 881 42
L 881 42
L 881 42
L 881 42
L 881 42
L 881 42
L 881 42
L 881 42
L 881 42
L 881 42
L 881 42
L 881 42
L 881 42
L 881 42
L 881 41
L 882 41
L 882 41
L 882 41
L 882 41
L 882 41
L 882 41
L 882 41
L 882 41
L 882 41
L 882 41
L 882 41
L 882 41
L 882 41
L 882 41
L 882 41
L 882 41
L 882 41
L 882 40
L 882 40
L 882 40
L 882 40
L 882 40
L 882 40
L 882 40
L 882 40
L 882 40
L 882 40
L 882 40
L 883 40
L 883 40
L 883 40
L 883 40
L 883 40
L 883 40
L 883 40
L 883 39
L 883 39
L 883 39
L 883 39
L 883 39
L 883 39
L 884 39
L 884 39
L 884 39
L 884 39
L 884 39
L 884 39
L 885 39
L 885 39
L 885 39
L 885 39
L 885 39
L 885 38
L 885 38
L 886 38
L 886 38
L 886 38
L 886 38
L 886 38
L 886 38
L 886 38
L 886 38
L 886 38
L 886 38
L 886 38
L 887 38
L 887 38
L 887 38
L 888 38
L 890 38
L 890 37
L 890 37
L 891 37
L 891 37
L 891 37
L 892 37
L 892 37
L 892 37
L 892 37
L 892 37
L 892 37
L 892 37
L 892 37
L 892 37
L 892 37
L 892 37
L 892 37
L 893 37
L 893 36
L 893 36
L 893 36
L 893 36
L 893 36
L 893 36
L 893 36
L 893 36
L 893 36
L 893 36
L 893 36
L 893 36
L 893 36
L 893 36
L 893 36
L 893 36
L 893 36
L 893 35
L 893 35
L 893 35
L 893 35
L 893 35
L 893 35
L 893 35
L 893 35
L 893 35
L 893 35
L 893 35
L 894 35
L 894 35
L 894 35
L 894 35
L 894 35
L 894 35
L 894 35
L 894 34
L 894 34
L 894 34
L 894 34
L 894 34
L 894 34
L 894 34
L 894 34
L 894 34
L 894 34
L 894 34
L 894 34
L 895 34
L 895 34
L 895 34
L 895 34
L 895 34
L 895 34
L 895 33
L 895 33
L 895 33
L 895 33
L 895 33
L 895 33
L 895 33
L 895 33
L 895 33
L 895 33
L 895 33
L 895 33
L 895 33
L 896 33
L 896 33
L 896 33
L 896 33
L 896 32
L 896 32
L 896 32
L 896 32
L 896 32
L 896 32
L 896 32
L 896 32
L 896 32
L 896 32
L 896 32
L 896 32
L 896 32
L 896 32
L 896 32
L 897 32
L 897 32
L 897 32
L 897 31
L 897 31
L 897 31
L 897 31
L 897 31
L 897 31
L 897 31
L 897 31
L 897 31
L 897 31
L 897 31
L 897 31
L 897 31
L 897 31
L 897 31
L 897 31
L 897 31
L 897 31
L 897 30
L 898 30
L 898 30
L 898 30
L 898 30
L 898 30
L 898 30
L 898 30
L 898 30
L 898 30
L 898 30
L 898 30
L 898 30
L 898 30
L 898 30
L 898 30
L 898 30
L 898 29
L 899 29
L 899 29
L 899 29
L 899 29
L 899 29
L 899 29
L 899 29
L 900 29
L 900 29
L 900 29
L 901 29
L 901 29
L 901 29
L 901 29
L 901 29
L 901 29
L 901 29
L 901 28
L 901 28
L 902 28
L 902 28
L 902 28
L 902 28
L 902 28
L 902 28
L 902 28
L 902 28
L 903 28
L 904 28
L 906 28
L 907 28
L 907 28
L 908 28
L 908 28
L 908 28
L 908 27
L 908 27
L 908 27
L 908 27
L 908 27
L 908 27
L 908 27
L 908 27
L 908 27
L 908 27
L 908 27
L 908 27
L 908 27
L 908 27
L 908 27
L 908 27
L 908 27
L 908 26
L 909 26
L 909 26
L 909 26
L 909 26
L 909 26
L 909 26
L 909 26
L 909 26
L 909 26
L 909 26
L 909 26
L 909 26
L 909 26
L 909 26
L 909 26
L 909 26
L 909 26
L 909 25
L 909 25
L 909 25
L 909 25
L 909 25
L 909 25
L 909 25
L 909 25
L 909 25
L 909 25
L 910 25
L 910 25
L 910 25
L 910 25
L 910 25
L 910 25
L 911 25
L 911 24
L 911 24
L 911 24
L 911 24
L 911 24
L 911 24
L 911 24
L 911 24
L 911 24
L 911 24
L 911 24
L 911 24
L 912 24
L 912 24
L 912 24
L 912 24
L 912 24
L 912 24
L 912 23
L 912 23
L 912 23
L 912 23
L 912 23
L 912 23
L 912 23
L 912 23
L 912 23
L 912 23
L 912 23
L 912 23
L 913 23
L 913 23
L 913 23
L 913 23
L 913 23
L 913 23
L 913 22
L 913 22
L 913 22
L 913 22
L 913 22
L 913 22
L 913 22
L 913 22
L 913 22
L 914 22
L 914 22
L 914 22
L 914 22
L 914 22
L 914 22
L 914 22
L 914 22
L 914 21
L 914 21
L 914 21
L 914 21
L 915 21
L 915 21
L 915 21
L 915 21
L 915 21
L 915 21
L 915 21
L 916 21
L 916 21
L 916 21
L 917 21
L 917 21
L 917 21
L 917 21
L 917 20
L 917 20
L 917 20
L 921 20
L 924 20
L 924 20
L 924 20
L 924 20
L 925 20
L 925 20
L 925 20
L 925 20
L 925 20
L 926 20
L 926 20
L 926 20
L 927 20
L 927 20
L 927 19
L 927 19
L 927 19
L 927 19
L 927 19
L 928 19
L 928 19
L 928 19
L 929 19
L 929 19
L 929 19
L 929 19
L 930 19
L 930 19
L 930 19
L 931 19
L 931 19
L 931 18
L 931 18
L 931 18
L 931 18
L 931 18
L 931 18
L 931 18
L 931 18
L 931 18
L 931 18
L 931 18
L 932 18
L 932 18
L 932 18
L 932 18
L 932 18
L 932 18
L 932 18
L 932 17
L 932 17
L 932 17
L 933 17
L 933 17
L 933 17
L 933 17
L 933 17
L 933 17
L 933 17
L 933 17
L 933 17
L 934 17
L 934 17
L 934 17
L 934 17
L 935 17
L 935 17
L 938 16
L 938 16
L 939 16
L 939 16
L 939 16
L 939 16
L 940 16
L 940 16
L 940 16
L 940 16
L 940 16
L 940 16
L 941 16
L 941 16
L 941 16
L 941 16
L 941 16
L 942 15
L 942 15
L 942 15
L 943 15
L 943 15
L 944 15
L 944 15
L 946 15
L 946 15
L 946 15
L 946 15
L 946 15
L 947 15
L 947 15
L 947 15
L 947 15
L 947 15
L 947 15
L 947 14
L 948 14
L 948 14
L 948 14
L 948 14
L 948 14
L 948 14
L 948 14
L 948 14
L 948 14
L 948 14
L 949 14
L 949 14
L 952 14
L 952 14
L 954 14
L 954 14
L 954 14
L 954 13
L 954 13
L 954 13
L 954 13
L 954 13
L 955 13
L 955 13
L 955 13
L 955 13
L 955 13
L 955 13
L 955 13
L 955 13
L 955 13
L 955 13
L 955 13
L 955 13
L 955 12
L 955 12
L 955 12
L 955 12
L 955 12
L 955 12
L 955 12
L 955 12
L 955 12
L 955 12
L 956 12
L 956 12
L 956 12
L 956 12
L 956 12
L 956 12
L 956 12
L 956 12
L 956 11
L 956 11
L 956 11
L 956 11
L 956 11
L 956 11
L 956 11
L 956 11
L 957 11
L 957 11
L 957 11
L 957 11
L 957 11
L 957 11
L 957 11
L 957 11
L 957 11" style="stroke-width:2;stroke:rgba(129,199,239,1.0);fill:none"/></svg>