<svg xmlns="http://www.w3.org/2000/svg" xmlns:xlink="http://www.w3.org/1999/xlink" width="1024" height="400">\n<path  d="M 0 0
L 1024 0
L 1024 400
L 0 400
L 0 0" style="stroke-width:0;stroke:rgba(255,255,255,1.0);fill:rgba(255,255,255,1.0)"/><path  d="M 38 11
L 957 11
L 957 351
L 38 351
L 38 11" style="stroke-width:0;stroke:rgba(255,255,255,1.0);fill:rgba(255,255,255,1.0)"/><path  d="M 38 351
L 957 351" style="stroke-width:2;stroke:rgba(85,85,85,1.0);fill:none"/><path  d="M 38 351
L 38 356" style="stroke-width:2;stroke:rgba(85,85,85,1.0);fill:none"/><text x="5" y="373" style="stroke-width:0;stroke:none;fill:rgba(51,51,51,1.0);font-size:12.8px;font-family:'Roboto Medium',sans-serif">2018-11-23</text><path  d="M 153 351
L 153 356" style="stroke-width:2;stroke:rgba(85,85,85,1.0);fill:none"/><text x="120" y="373" style="stroke-width:0;stroke:none;fill:rgba(51,51,51,1.0);font-size:12.8px;font-family:'Roboto Medium',sans-serif">2018-11-30</text><path  d="M 268 351
L 268 356" style="stroke-width:2;stroke:rgba(85,85,85,1.0);fill:none"/><text x="235" y="373" style="stroke-width:0;stroke:none;fill:rgba(51,51,51,1.0);font-size:12.8px;font-family:'Roboto Medium',sans-serif">2018-12-08</text><path  d="M 383 351
L 383 356" style="stroke-width:2;stroke:rgba(85,85,85,1.0);fill:none"/><text x="350" y="373" style="stroke-width:0;stroke:none;fill:rgba(51,51,51,1.0);font-size:12.8px;font-family:'Roboto Medium',sans-serif">2018-12-16</text><path  d="M 498 351
L 498 356" style="stroke-width:2;stroke:rgba(85,85,85,1.0);fill:none"/><text x="465" y="373" style="stroke-width:0;stroke:none;fill:rgba(51,51,51,1.0);font-size:12.8px;font-family:'Roboto Medium',sans-serif">2018-12-23</text><path  d="M 613 351
L 613 356" style="stroke-width:2;stroke:rgba(85,85,85,1.0);fill:none"/><text x="580" y="373" style="stroke-width:0;stroke:none;fill:rgba(51,51,51,1.0);font-size:12.8px;font-family:'Roboto Medium',sans-serif">2018-12-31</text><path  d="M 728 351
L 728 356" style="stroke-width:2;stroke:rgba(85,85,85,1.0);fill:none"/><text x="695" y="373" style="stroke-width:0;stroke:none;fill:rgba(51,51,51,1.0);font-size:12.8px;font-family:'Roboto Medium',sans-serif">2019-01-07</text><path  d="M 843 351
L 843 356" style="stroke-width:2;stroke:rgba(85,85,85,1.0);fill:none"/><text x="810" y="373" style="stroke-width:0;stroke:none;fill:rgba(51,51,51,1.0);font-size:12.8px;font-family:'Roboto Medium',sans-serif">2019-01-15</text><path  d="M 957 351
L 957 356" style="stroke-width:2;stroke:rgba(85,85,85,1.0);fill:none"/><text x="924" y="373" style="stroke-width:0;stroke:none;fill:rgba(51,51,51,1.0);font-size:12.8px;font-family:'Roboto Medium',sans-serif">2019-01-23</text><text x="483" y="395" style="stroke-width:0;stroke:none;fill:rgba(51,51,51,1.0);font-size:12.8px;font-family:'Roboto Medium',sans-serif">Time</text><path  d="M 959 351
L 959 11" style="stroke-width:2;stroke:rgba(85,85,85,1.0);fill:none"/><path  d="M 959 351
L 964 351" style="stroke-width:2;stroke:rgba(85,85,85,1.0);fill:none"/><text x="969" y="357" style="stroke-width:0;stroke:none;fill:rgba(51,51,51,1.0);font-size:12.8px;font-family:'Roboto Medium',sans-serif">0</text><path  d="M 959 308
L 964 308" style="stroke-width:2;stroke:rgba(85,85,85,1.0);fill:none"/><text x="969" y="314" style="stroke-width:0;stroke:none;fill:rgba(51,51,51,1.0);font-size:12.8px;font-family:'Roboto Medium',sans-serif">790</text><path  d="M 959 265
L 964 265" style="stroke-width:2;stroke:rgba(85,85,85,1.0);fill:none"/><text x="969" y="271" style="stroke-width:0;stroke:none;fill:rgba(51,51,51,1.0);font-size:12.8px;font-family:'Roboto Medium',sans-serif">1580</text><path  d="M 959 223
L 964 223" style="stroke-width:2;stroke:rgba(85,85,85,1.0);fill:none"/><text x="969" y="229" style="stroke-width:0;stroke:none;fill:rgba(51,51,51,1.0);font-size:12.8px;font-family:'Roboto Medium',sans-serif">2370</text><path  d="M 959 181
L 964 181" style="stroke-width:2;stroke:rgba(85,85,85,1.0);fill:none"/><text x="969" y="187" style="stroke-width:0;stroke:none;fill:rgba(51,51,51,1.0);font-size:12.8px;font-family:'Roboto Medium',sans-serif">3150</text><path  d="M 959 138
L 964 138" style="stroke-width:2;stroke:rgba(85,85,85,1.0);fill:none"/><text x="969" y="144" style="stroke-width:0;stroke:none;fill:rgba(51,51,51,1.0);font-size:12.8px;font-family:'Roboto Medium',sans-serif">3940</text><path  d="M 959 95
L 964 95" style="stroke-width:2;stroke:rgba(85,85,85,1.0);fill:none"/><text x="969" y="101" style="stroke-width:0;stroke:none;fill:rgba(51,51,51,1.0);font-size:12.8px;font-family:'Roboto Medium',sans-serif">4730</text><path  d="M 959 53
L 964 53" style="stroke-width:2;stroke:rgba(85,85,85,1.0);fill:none"/><text x="969" y="59" style="stroke-width:0;stroke:none;fill:rgba(51,51,51,1.0);font-size:12.8px;font-family:'Roboto Medium',sans-serif">5520</text><path  d="M 959 11
L 964 11" style="stroke-width:2;stroke:rgba(85,85,85,1.0);fill:none"/><text x="969" y="17" style="stroke-width:0;stroke:none;fill:rgba(51,51,51,1.0);font-size:12.8px;font-family:'Roboto Medium',sans-serif">6300</text><text x="1009" y="150" style="stroke-width:0;stroke:none;fill:rgba(51,51,51,1.0);font-size:12.8px;font-family:'Roboto Medium',sans-serif" transform="rotate(90.00,1009,150)">Stargazers</text><path  d="M 38 351
L 117 350
L 173 350
L 176 350
L 187 350
L 187 350
L 187 350
L 188 350
L 188 350
L 189 350
L 189 350
L 189 350
L 189 350
L 189 350
L 189 350
L 190 350
L 190 350
L 190 350
L 190 350
L 190 349
L 191 349
L 191 349
L 193 349
L 194 349
L 202 349
L 203 349
L 203 349
L 203 349
L 204 349
L 205 349
L 207 349
L 208 349
L 209 349
L 209 349
L 209 349
L 210 349
L 210 349
L 210 349
L 214 348
L 216 348
L 217 348
L 217 348
L 217 348
L 217 348
L 217 348
L 218 348
L 218 348
L 218 348
L 218 348
L 219 348
L 220 348
L 221 348
L 221 348
L 221 348
L 221 348
L 222 348
L 222 347
L 222 347
L 223 347
L 223 347
L 224 347
L 224 347
L 224 347
L 224 347
L 224 347
L 225 347
L 226 347
L 226 347
L 226 347
L 226 347
L 230 347
L 232 347
L 232 347
L 233 347
L 233 347
L 233 346
L 233 346
L 233 346
L 233 346
L 234 346
L 234 346
L 234 346
L 234 346
L 234 346
L 234 346
L 234 346
L 234 346
L 234 346
L 234 346
L 235 346
L 235 346
L 235 346
L 235 346
L 235 345
L 235 345
L 235 345
L 235 345
L 235 345
L 235 345
L 235 345
L 235 345
L 235 345
L 235 345
L 235 345
L 235 345
L 235 345
L 235 345
L 235 345
L 235 345
L 235 345
L 235 345
L 235 345
L 235 344
L 235 344
L 235 344
L 235 344
L 235 344
L 235 344
L 235 344
L 235 344
L 235 344
L 235 344
L 235 344
L 236 344
L 236 344
L 236 344
L 236 344
L 236 344
L 236 344
L 236 344
L 236 343
L 236 343
L 236 343
L 236 343
L 237 343
L 237 343
L 237 343
L 237 343
L 237 343
L 237 343
L 237 343
L 237 343
L 238 343
L 238 343
L 238 343
L 238 343
L 238 343
L 238 343
L 238 343
L 238 342
L 239 342
L 239 342
L 239 342
L 239 342
L 239 342
L 239 342
L 241 342
L 242 342
L 246 342
L 246 342
L 247 342
L 247 342
L 247 342
L 247 342
L 247 342
L 248 342
L 248 342
L 249 341
L 249 341
L 250 341
L 250 341
L 250 341
L 250 341
L 251 341
L 251 341
L 251 341
L 251 341
L 252 341
L 252 341
L 252 341
L 252 341
L 253 341
L 253 341
L 254 341
L 262 341
L 263 341
L 263 340
L 263 340
L 263 340
L 263 340
L 264 340
L 266 340
L 267 340
L 271 340
L 271 340
L 272 340
L 274 340
L 278 340
L 278 340
L 281 340
L 281 340
L 282 340
L 282 340
L 283 340
L 283 339
L 283 339
L 283 339
L 284 339
L 284 339
L 284 339
L 284 339
L 287 339
L 292 339
L 292 339
L 292 339
L 293 339
L 293 339
L 293 339
L 295 339
L 296 339
L 297 339
L 301 339
L 301 339
L 307 338
L 310 338
L 310 338
L 311 338
L 311 338
L 313 338
L 314 338
L 322 338
L 323 338
L 323 338
L 323 338
L 323 338
L 325 338
L 325 338
L 327 338
L 328 338
L 329 338
L 331 338
L 333 337
L 337 337
L 343 337
L 344 337
L 351 337
L 353 337
L 353 337
L 356 337
L 356 337
L 356 337
L 356 337
L 358 337
L 359 337
L 360 337
L 360 337
L 361 337
L 363 337
L 365 337
L 368 337
L 370 336
L 370 336
L 371 336
L 371 336
L 371 336
L 372 336
L 373 336
L 374 336
L 375 336
L 376 336
L 376 336
L 377 336
L 383 336
L 383 336
L 383 336
L 384 336
L 386 336
L 389 336
L 389 335
L 390 335
L 391 335
L 396 335
L 398 335
L 398 335
L 398 335
L 398 335
L 399 335
L 402 335
L 402 335
L 404 335
L 406 335
L 413 335
L 414 335
L 416 335
L 416 335
L 417 335
L 418 335
L 418 334
L 420 334
L 420 334
L 422 334
L 422 334
L 428 334
L 429 334
L 430 334
L 430 334
L 431 334
L 431 334
L 431 334
L 432 334
L 434 334
L 443 334
L 443 334
L 443 334
L 443 334
L 445 334
L 445 333
L 447 333
L 447 333
L 448 333
L 450 333
L 450 333
L 450 333
L 451 333
L 451 333
L 452 333
L 458 333
L 459 333
L 459 333
L 459 333
L 459 333
L 459 333
L 459 333
L 459 333
L 459 332
L 460 332
L 461 332
L 461 332
L 461 332
L 461 332
L 461 332
L 461 332
L 461 332
L 461 332
L 461 332
L 461 332
L 461 332
L 462 332
L 462 332
L 462 332
L 462 332
L 462 332
L 462 332
L 462 331
L 462 331
L 462 331
L 462 331
L 462 331
L 462 331
L 462 331
L 463 331
L 463 331
L 463 331
L 463 331
L 463 331
L 463 331
L 463 331
L 463 331
L 463 331
L 463 331
L 463 331
L 463 330
L 463 330
L 463 330
L 463 330
L 463 330
L 463 330
L 463 330
L 463 330
L 463 330
L 463 330
L 463 330
L 463 330
L 463 330
L 464 330
L 464 330
L 464 330
L 464 330
L 464 330
L 464 330
L 464 329
L 465 329
L 465 329
L 465 329
L 465 329
L 465 329
L 465 329
L 465 329
L 465 329
L 466 329
L 466 329
L 466 329
L 466 329
L 466 329
L 466 329
L 466 329
L 467 329
L 467 329
L 467 328
L 468 328
L 473 328
L 473 328
L 473 328
L 473 328
L 473 328
L 473 328
L 474 328
L 474 328
L 474 328
L 474 328
L 474 328
L 474 328
L 474 328
L 474 328
L 474 328
L 474 328
L 474 328
L 474 327
L 475 327
L 475 327
L 475 327
L 475 327
L 475 327
L 475 327
L 475 327
L 475 327
L 476 327
L 476 327
L 476 327
L 476 327
L 476 327
L 476 327
L 476 327
L 476 327
L 476 327
L 476 326
L 477 326
L 477 326
L 477 326
L 477 326
L 477 326
L 477 326
L 477 326
L 477 326
L 477 326
L 477 326
L 477 326
L 477 326
L 477 326
L 477 326
L 477 326
L 477 326
L 478 326
L 478 326
L 478 325
L 478 325
L 478 325
L 478 325
L 478 325
L 478 325
L 478 325
L 478 325
L 478 325
L 478 325
L 478 325
L 478 325
L 478 325
L 478 325
L 478 325
L 478 325
L 478 325
L 479 325
L 479 324
L 479 324
L 479 324
L 480 324
L 480 324
L 480 324
L 480 324
L 480 324
L 480 324
L 480 324
L 480 324
L 480 324
L 480 324
L 480 324
L 480 324
L 480 324
L 480 324
L 480 324
L 480 324
L 481 323
L 481 323
L 481 323
L 481 323
L 481 323
L 481 323
L 481 323
L 481 323
L 481 323
L 481 323
L 481 323
L 481 323
L 481 323
L 482 323
L 482 323
L 482 323
L 482 323
L 482 323
L 482 322
L 482 322
L 482 322
L 482 322
L 482 322
L 482 322
L 482 322
L 482 322
L 482 322
L 482 322
L 482 322
L 482 322
L 483 322
L 483 322
L 483 322
L 483 322
L 484 322
L 484 322
L 484 322
L 485 321
L 487 321
L 487 321
L 487 321
L 487 321
L 487 321
L 487 321
L 488 321
L 488 321
L 488 321
L 488 321
L 488 321
L 488 321
L 488 321
L 488 321
L 488 321
L 488 321
L 488 321
L 489 320
L 489 320
L 489 320
L 489 320
L 489 320
L 489 320
L 489 320
L 489 320
L 489 320
L 489 320
L 489 320
L 489 320
L 489 320
L 489 320
L 489 320
L 490 320
L 490 320
L 490 320
L 490 320
L 490 319
L 490 319
L 490 319
L 490 319
L 490 319
L 490 319
L 490 319
L 490 319
L 490 319
L 490 319
L 490 319
L 491 319
L 491 319
L 491 319
L 491 319
L 491 319
L 491 319
L 491 319
L 491 318
L 491 318
L 491 318
L 491 318
L 491 318
L 491 318
L 491 318
L 491 318
L 491 318
L 491 318
L 491 318
L 491 318
L 492 318
L 492 318
L 492 318
L 492 318
L 492 318
L 492 318
L 492 318
L 492 317
L 492 317
L 492 317
L 492 317
L 492 317
L 492 317
L 492 317
L 492 317
L 492 317
L 492 317
L 493 317
L 493 317
L 493 317
L 493 317
L 493 317
L 493 317
L 493 317
L 493 317
L 493 317
L 493 316
L 494 316
L 494 316
L 494 316
L 494 316
L 494 316
L 494 316
L 494 316
L 494 316
L 494 316
L 494 316
L 494 316
L 494 316
L 494 316
L 494 316
L 494 316
L 495 316
L 495 316
L 495 315
L 495 315
L 495 315
L 495 315
L 495 315
L 495 315
L 495 315
L 495 315
L 495 315
L 495 315
L 495 315
L 495 315
L 495 315
L 496 315
L 496 315
L 496 315
L 496 315
L 496 315
L 496 315
L 496 314
L 496 314
L 496 314
L 496 314
L 496 314
L 496 314
L 496 314
L 496 314
L 496 314
L 496 314
L 496 314
L 496 314
L 496 314
L 496 314
L 496 314
L 496 314
L 497 314
L 497 314
L 497 313
L 497 313
L 497 313
L 497 313
L 497 313
L 497 313
L 497 313
L 497 313
L 497 313
L 497 313
L 497 313
L 497 313
L 497 313
L 497 313
L 497 313
L 498 313
L 498 313
L 498 313
L 499 313
L 499 312
L 499 312
L 499 312
L 499 312
L 501 312
L 502 312
L 502 312
L 502 312
L 502 312
L 502 312
L 502 312
L 502 312
L 502 312
L 502 312
L 503 312
L 503 312
L 503 312
L 503 312
L 503 311
L 503 311
L 503 311
L 503 311
L 503 311
L 503 311
L 503 311
L 503 311
L 503 311
L 503 311
L 503 311
L 503 311
L 503 311
L 503 311
L 503 311
L 503 311
L 503 311
L 503 311
L 503 311
L 503 310
L 503 310
L 503 310
L 503 310
L 503 310
L 503 310
L 503 310
L 503 310
L 503 310
L 503 310
L 503 310
L 503 310
L 503 310
L 503 310
L 503 310
L 503 310
L 503 310
L 503 310
L 503 309
L 503 309
L 503 309
L 503 309
L 503 309
L 503 309
L 503 309
L 503 309
L 503 309
L 503 309
L 503 309
L 503 309
L 503 309
L 503 309
L 503 309
L 503 309
L 503 309
L 503 309
L 503 309
L 503 308
L 503 308
L 503 308
L 503 308
L 503 308
L 503 308
L 503 308
L 503 308
L 503 308
L 503 308
L 503 308
L 503 308
L 504 308
L 504 308
L 504 308
L 504 308
L 504 308
L 504 308
L 504 307
L 504 307
L 504 307
L 504 307
L 504 307
L 504 307
L 504 307
L 504 307
L 504 307
L 504 307
L 504 307
L 504 307
L 504 307
L 504 307
L 504 307
L 504 307
L 504 307
L 504 307
L 504 307
L 504 306
L 504 306
L 504 306
L 504 306
L 504 306
L 504 306
L 504 306
L 504 306
L 504 306
L 504 306
L 504 306
L 504 306
L 504 306
L 504 306
L 504 306
L 504 306
L 504 306
L 504 306
L 504 305
L 504 305
L 504 305
L 504 305
L 504 305
L 504 305
L 504 305
L 504 305
L 504 305
L 504 305
L 504 305
L 504 305
L 504 305
L 505 305
L 505 305
L 505 305
L 505 305
L 505 305
L 505 305
L 505 304
L 505 304
L 505 304
L 505 304
L 505 304
L 505 304
L 505 304
L 505 304
L 505 304
L 505 304
L 505 304
L 505 304
L 505 304
L 505 304
L 505 304
L 505 304
L 505 304
L 505 304
L 505 303
L 505 303
L 505 303
L 505 303
L 506 303
L 506 303
L 506 303
L 506 303
L 506 303
L 506 303
L 506 303
L 506 303
L 506 303
L 506 303
L 506 303
L 506 303
L 506 303
L 506 303
L 506 303
L 506 302
L 506 302
L 506 302
L 506 302
L 506 302
L 506 302
L 506 302
L 506 302
L 506 302
L 506 302
L 506 302
L 506 302
L 506 302
L 506 302
L 506 302
L 506 302
L 506 302
L 506 302
L 506 301
L 506 301
L 506 301
L 506 301
L 506 301
L 506 301
L 506 301
L 506 301
L 506 301
L 506 301
L 506 301
L 506 301
L 506 301
L 506 301
L 506 301
L 506 301
L 506 301
L 506 301
L 506 301
L 506 300
L 506 300
L 506 300
L 506 300
L 506 300
L 506 300
L 506 300
L 506 300
L 506 300
L 506 300
L 507 300
L 507 300
L 507 300
L 507 300
L 507 300
L 507 300
L 507 300
L 507 300
L 507 300
L 507 299
L 507 299
L 507 299
L 507 299
L 507 299
L 507 299
L 507 299
L 507 299
L 507 299
L 507 299
L 507 299
L 507 299
L 507 299
L 507 299
L 507 299
L 507 299
L 507 299
L 507 299
L 507 298
L 507 298
L 507 298
L 507 298
L 507 298
L 507 298
L 507 298
L 507 298
L 507 298
L 507 298
L 507 298
L 507 298
L 507 298
L 507 298
L 507 298
L 507 298
L 507 298
L 507 298
L 507 298
L 507 297
L 508 297
L 508 297
L 508 297
L 508 297
L 508 297
L 508 297
L 508 297
L 508 297
L 508 297
L 508 297
L 508 297
L 508 297
L 508 297
L 508 297
L 508 297
L 508 297
L 508 297
L 508 296
L 508 296
L 508 296
L 508 296
L 508 296
L 508 296
L 508 296
L 508 296
L 508 296
L 508 296
L 508 296
L 508 296
L 508 296
L 508 296
L 508 296
L 508 296
L 508 296
L 508 296
L 508 296
L 508 295
L 508 295
L 508 295
L 508 295
L 508 295
L 508 295
L 508 295
L 508 295
L 508 295
L 509 295
L 509 295
L 509 295
L 509 295
L 509 295
L 509 295
L 509 295
L 509 295
L 509 295
L 509 294
L 509 294
L 509 294
L 509 294
L 509 294
L 509 294
L 509 294
L 509 294
L 509 294
L 509 294
L 509 294
L 509 294
L 509 294
L 509 294
L 509 294
L 509 294
L 509 294
L 509 294
L 509 294
L 509 293
L 509 293
L 509 293
L 510 293
L 510 293
L 510 293
L 510 293
L 510 293
L 510 293
L 510 293
L 510 293
L 510 293
L 510 293
L 510 293
L 510 293
L 510 293
L 510 293
L 510 293
L 510 292
L 510 292
L 511 292
L 511 292
L 511 292
L 511 292
L 511 292
L 511 292
L 511 292
L 511 292
L 511 292
L 511 292
L 511 292
L 511 292
L 511 292
L 511 292
L 511 292
L 511 292
L 511 292
L 511 291
L 511 291
L 512 291
L 512 291
L 512 291
L 512 291
L 512 291
L 512 291
L 512 291
L 512 291
L 512 291
L 512 291
L 512 291
L 512 291
L 512 291
L 512 291
L 512 291
L 512 291
L 512 290
L 512 290
L 512 290
L 513 290
L 513 290
L 513 290
L 513 290
L 513 290
L 513 290
L 514 290
L 515 290
L 517 290
L 517 290
L 517 290
L 517 290
L 517 290
L 517 290
L 517 290
L 518 290
L 518 289
L 518 289
L 518 289
L 518 289
L 518 289
L 518 289
L 518 289
L 518 289
L 518 289
L 518 289
L 518 289
L 518 289
L 518 289
L 518 289
L 518 289
L 518 289
L 518 289
L 518 289
L 518 288
L 518 288
L 518 288
L 518 288
L 518 288
L 518 288
L 518 288
L 518 288
L 518 288
L 518 288
L 518 288
L 518 288
L 518 288
L 518 288
L 518 288
L 518 288
L 518 288
L 518 288
L 518 288
L 518 287
L 518 287
L 518 287
L 518 287
L 518 287
L 518 287
L 518 287
L 518 287
L 518 287
L 518 287
L 518 287
L 518 287
L 518 287
L 518 287
L 518 287
L 518 287
L 518 287
L 518 287
L 519 286
L 519 286
L 519 286
L 519 286
L 519 286
L 519 286
L 519 286
L 519 286
L 519 286
L 519 286
L 519 286
L 519 286
L 519 286
L 519 286
L 519 286
L 519 286
L 519 286
L 519 286
L 519 286
L 519 285
L 519 285
L 519 285
L 519 285
L 519 285
L 519 285
L 519 285
L 519 285
L 519 285
L 519 285
L 519 285
L 519 285
L 519 285
L 519 285
L 519 285
L 519 285
L 519 285
L 519 285
L 519 284
L 519 284
L 519 284
L 519 284
L 519 284
L 519 284
L 519 284
L 519 284
L 519 284
L 519 284
L 519 284
L 519 284
L 519 284
L 519 284
L 519 284
L 519 284
L 519 284
L 519 284
L 519 284
L 519 283
L 519 283
L 519 283
L 519 283
L 519 283
L 519 283
L 519 283
L 519 283
L 519 283
L 519 283
L 519 283
L 519 283
L 519 283
L 519 283
L 519 283
L 519 283
L 519 283
L 519 283
L 520 283
L 520 282
L 520 282
L 520 282
L 520 282
L 520 282
L 520 282
L 520 282
L 520 282
L 520 282
L 520 282
L 520 282
L 520 282
L 520 282
L 520 282
L 520 282
L 520 282
L 520 282
L 520 282
L 520 281
L 520 281
L 520 281
L 520 281
L 520 281
L 521 281
L 521 281
L 521 281
L 521 281
L 521 281
L 521 281
L 521 281
L 521 281
L 521 281
L 521 281
L 521 281
L 521 281
L 521 281
L 521 281
L 521 280
L 521 280
L 521 280
L 521 280
L 521 280
L 521 280
L 521 280
L 521 280
L 521 280
L 521 280
L 521 280
L 521 280
L 521 280
L 521 280
L 521 280
L 521 280
L 521 280
L 521 280
L 521 279
L 521 279
L 521 279
L 521 279
L 521 279
L 521 279
L 521 279
L 521 279
L 521 279
L 521 279
L 521 279
L 521 279
L 521 279
L 521 279
L 521 279
L 521 279
L 522 279
L 522 279
L 522 279
L 522 278
L 522 278
L 522 278
L 522 278
L 522 278
L 522 278
L 522 278
L 522 278
L 522 278
L 522 278
L 522 278
L 522 278
L 522 278
L 522 278
L 522 278
L 522 278
L 522 278
L 522 278
L 522 277
L 522 277
L 522 277
L 522 277
L 522 277
L 522 277
L 522 277
L 522 277
L 522 277
L 522 277
L 522 277
L 522 277
L 522 277
L 522 277
L 522 277
L 522 277
L 522 277
L 522 277
L 522 277
L 522 276
L 522 276
L 522 276
L 522 276
L 522 276
L 522 276
L 523 276
L 523 276
L 523 276
L 523 276
L 523 276
L 523 276
L 523 276
L 523 276
L 523 276
L 523 276
L 523 276
L 523 276
L 523 275
L 523 275
L 523 275
L 523 275
L 523 275
L 523 275
L 523 275
L 523 275
L 523 275
L 523 275
L 523 275
L 523 275
L 523 275
L 523 275
L 523 275
L 523 275
L 523 275
L 523 275
L 523 275
L 523 274
L 523 274
L 523 274
L 523 274
L 523 274
L 523 274
L 523 274
L 523 274
L 523 274
L 523 274
L 524 274
L 524 274
L 524 274
L 524 274
L 524 274
L 524 274
L 524 274
L 524 274
L 524 273
L 524 273
L 524 273
L 524 273
L 524 273
L 524 273
L 524 273
L 524 273
L 524 273
L 524 273
L 524 273
L 524 273
L 524 273
L 524 273
L 524 273
L 524 273
L 524 273
L 524 273
L 524 273
L 524 272
L 524 272
L 524 272
L 524 272
L 524 272
L 524 272
L 524 272
L 524 272
L 524 272
L 524 272
L 524 272
L 524 272
L 524 272
L 524 272
L 524 272
L 524 272
L 524 272
L 524 272
L 524 271
L 524 271
L 524 271
L 524 271
L 524 271
L 524 271
L 524 271
L 524 271
L 524 271
L 524 271
L 524 271
L 525 271
L 525 271
L 525 271
L 525 271
L 525 271
L 525 271
L 525 271
L 525 271
L 525 270
L 525 270
L 525 270
L 525 270
L 525 270
L 525 270
L 525 270
L 525 270
L 525 270
L 525 270
L 525 270
L 525 270
L 525 270
L 525 270
L 525 270
L 525 270
L 525 270
L 525 270
L 525 269
L 525 269
L 525 269
L 525 269
L 525 269
L 525 269
L 526 269
L 526 269
L 526 269
L 526 269
L 526 269
L 526 269
L 526 269
L 526 269
L 526 269
L 526 269
L 526 269
L 526 269
L 526 269
L 526 268
L 526 268
L 526 268
L 526 268
L 526 268
L 526 268
L 526 268
L 526 268
L 526 268
L 526 268
L 526 268
L 526 268
L 526 268
L 526 268
L 526 268
L 526 268
L 526 268
L 527 268
L 527 267
L 527 267
L 527 267
L 527 267
L 527 267
L 527 267
L 527 267
L 527 267
L 527 267
L 527 267
L 527 267
L 527 267
L 527 267
L 527 267
L 527 267
L 527 267
L 527 267
L 527 267
L 527 267
L 528 266
L 528 266
L 528 266
L 528 266
L 528 266
L 528 266
L 528 266
L 528 266
L 528 266
L 528 266
L 529 266
L 529 266
L 529 266
L 529 266
L 530 266
L 531 266
L 532 266
L 532 266
L 532 266
L 533 265
L 533 265
L 533 265
L 533 265
L 533 265
L 533 265
L 533 265
L 533 265
L 533 265
L 533 265
L 533 265
L 533 265
L 533 265
L 533 265
L 533 265
L 533 265
L 533 265
L 533 265
L 533 264
L 533 264
L 533 264
L 533 264
L 533 264
L 533 264
L 533 264
L 533 264
L 533 264
L 533 264
L 533 264
L 533 264
L 533 264
L 533 264
L 533 264
L 533 264
L 533 264
L 533 264
L 533 264
L 533 263
L 533 263
L 533 263
L 533 263
L 533 263
L 533 263
L 533 263
L 533 263
L 533 263
L 533 263
L 533 263
L 533 263
L 533 263
L 533 263
L 533 263
L 533 263
L 533 263
L 533 263
L 533 262
L 533 262
L 533 262
L 533 262
L 533 262
L 534 262
L 534 262
L 534 262
L 534 262
L 534 262
L 534 262
L 534 262
L 534 262
L 534 262
L 534 262
L 534 262
L 534 262
L 534 262
L 534 262
L 534 261
L 534 261
L 534 261
L 534 261
L 534 261
L 534 261
L 534 261
L 534 261
L 534 261
L 534 261
L 534 261
L 534 261
L 534 261
L 534 261
L 534 261
L 534 261
L 534 261
L 534 261
L 534 260
L 534 260
L 534 260
L 534 260
L 534 260
L 534 260
L 534 260
L 534 260
L 534 260
L 534 260
L 534 260
L 534 260
L 534 260
L 534 260
L 534 260
L 534 260
L 534 260
L 534 260
L 534 260
L 534 259
L 534 259
L 534 259
L 534 259
L 534 259
L 534 259
L 534 259
L 534 259
L 534 259
L 534 259
L 534 259
L 535 259
L 535 259
L 535 259
L 535 259
L 535 259
L 535 259
L 535 259
L 535 258
L 535 258
L 535 258
L 535 258
L 535 258
L 535 258
L 535 258
L 535 258
L 535 258
L 535 258
L 535 258
L 535 258
L 536 258
L 536 258
L 536 258
L 536 258
L 536 258
L 536 258
L 536 258
L 536 257
L 536 257
L 536 257
L 536 257
L 536 257
L 536 257
L 536 257
L 536 257
L 536 257
L 536 257
L 536 257
L 536 257
L 536 257
L 536 257
L 536 257
L 536 257
L 536 257
L 536 257
L 536 256
L 536 256
L 536 256
L 536 256
L 536 256
L 536 256
L 536 256
L 536 256
L 537 256
L 537 256
L 537 256
L 537 256
L 537 256
L 537 256
L 537 256
L 537 256
L 537 256
L 537 256
L 537 256
L 537 255
L 537 255
L 537 255
L 537 255
L 537 255
L 537 255
L 537 255
L 537 255
L 537 255
L 537 255
L 537 255
L 537 255
L 537 255
L 537 255
L 537 255
L 537 255
L 537 255
L 537 255
L 537 254
L 537 254
L 537 254
L 537 254
L 537 254
L 537 254
L 537 254
L 537 254
L 537 254
L 537 254
L 537 254
L 538 254
L 538 254
L 538 254
L 538 254
L 538 254
L 538 254
L 538 254
L 538 254
L 538 253
L 538 253
L 538 253
L 538 253
L 538 253
L 538 253
L 538 253
L 538 253
L 538 253
L 538 253
L 538 253
L 538 253
L 538 253
L 538 253
L 538 253
L 538 253
L 538 253
L 538 253
L 538 252
L 538 252
L 538 252
L 538 252
L 538 252
L 538 252
L 538 252
L 538 252
L 538 252
L 538 252
L 538 252
L 538 252
L 538 252
L 538 252
L 538 252
L 538 252
L 538 252
L 538 252
L 538 252
L 538 251
L 538 251
L 539 251
L 539 251
L 539 251
L 539 251
L 539 251
L 539 251
L 539 251
L 539 251
L 539 251
L 539 251
L 539 251
L 539 251
L 539 251
L 539 251
L 539 251
L 539 251
L 539 250
L 539 250
L 539 250
L 539 250
L 539 250
L 539 250
L 539 250
L 539 250
L 539 250
L 539 250
L 540 250
L 540 250
L 540 250
L 540 250
L 540 250
L 540 250
L 540 250
L 540 250
L 540 250
L 540 249
L 540 249
L 540 249
L 540 249
L 540 249
L 540 249
L 540 249
L 540 249
L 540 249
L 540 249
L 540 249
L 540 249
L 540 249
L 540 249
L 541 249
L 541 249
L 541 249
L 541 249
L 541 249
L 541 248
L 541 248
L 541 248
L 541 248
L 541 248
L 541 248
L 541 248
L 541 248
L 541 248
L 541 248
L 541 248
L 541 248
L 541 248
L 541 248
L 541 248
L 542 248
L 542 248
L 542 248
L 542 247
L 542 247
L 542 247
L 542 247
L 542 247
L 542 247
L 542 247
L 542 247
L 542 247
L 542 247
L 542 247
L 542 247
L 542 247
L 542 247
L 542 247
L 543 247
L 543 247
L 543 247
L 543 247
L 543 246
L 544 246
L 544 246
L 547 246
L 547 246
L 547 246
L 547 246
L 547 246
L 548 246
L 548 246
L 548 246
L 548 246
L 548 246
L 548 246
L 548 246
L 548 246
L 548 246
L 548 246
L 548 245
L 548 245
L 548 245
L 548 245
L 548 245
L 548 245
L 548 245
L 548 245
L 548 245
L 548 245
L 548 245
L 548 245
L 548 245
L 548 245
L 548 245
L 548 245
L 548 245
L 548 245
L 548 245
L 548 244
L 548 244
L 548 244
L 548 244
L 549 244
L 549 244
L 549 244
L 549 244
L 549 244
L 549 244
L 549 244
L 549 244
L 549 244
L 549 244
L 549 244
L 549 244
L 549 244
L 549 244
L 549 243
L 549 243
L 549 243
L 549 243
L 549 243
L 549 243
L 549 243
L 549 243
L 549 243
L 549 243
L 549 243
L 549 243
L 549 243
L 549 243
L 549 243
L 549 243
L 549 243
L 549 243
L 549 243
L 549 242
L 549 242
L 549 242
L 549 242
L 549 242
L 549 242
L 549 242
L 549 242
L 550 242
L 550 242
L 550 242
L 550 242
L 550 242
L 550 242
L 550 242
L 550 242
L 550 242
L 550 242
L 550 241
L 550 241
L 550 241
L 550 241
L 550 241
L 550 241
L 550 241
L 550 241
L 551 241
L 551 241
L 551 241
L 551 241
L 551 241
L 551 241
L 551 241
L 551 241
L 551 241
L 551 241
L 551 241
L 551 240
L 551 240
L 551 240
L 551 240
L 551 240
L 551 240
L 551 240
L 551 240
L 551 240
L 551 240
L 551 240
L 551 240
L 552 240
L 552 240
L 552 240
L 552 240
L 552 240
L 552 240
L 552 239
L 552 239
L 552 239
L 552 239
L 552 239
L 552 239
L 552 239
L 552 239
L 552 239
L 552 239
L 552 239
L 552 239
L 552 239
L 552 239
L 552 239
L 552 239
L 552 239
L 552 239
L 552 239
L 552 238
L 552 238
L 552 238
L 552 238
L 553 238
L 553 238
L 553 238
L 553 238
L 553 238
L 553 238
L 553 238
L 553 238
L 553 238
L 553 238
L 553 238
L 553 238
L 553 238
L 553 238
L 553 237
L 553 237
L 553 237
L 553 237
L 553 237
L 553 237
L 553 237
L 553 237
L 553 237
L 553 237
L 553 237
L 553 237
L 553 237
L 553 237
L 553 237
L 553 237
L 553 237
L 553 237
L 553 237
L 553 236
L 553 236
L 553 236
L 554 236
L 554 236
L 554 236
L 554 236
L 554 236
L 554 236
L 554 236
L 554 236
L 554 236
L 554 236
L 554 236
L 554 236
L 554 236
L 554 236
L 554 236
L 554 235
L 554 235
L 555 235
L 555 235
L 555 235
L 555 235
L 555 235
L 555 235
L 555 235
L 555 235
L 555 235
L 555 235
L 555 235
L 555 235
L 555 235
L 555 235
L 555 235
L 555 235
L 555 235
L 555 234
L 556 234
L 556 234
L 556 234
L 556 234
L 556 234
L 556 234
L 556 234
L 556 234
L 556 234
L 556 234
L 556 234
L 556 234
L 557 234
L 557 234
L 557 234
L 557 234
L 557 234
L 557 233
L 557 233
L 557 233
L 557 233
L 557 233
L 557 233
L 557 233
L 558 233
L 558 233
L 558 233
L 558 233
L 559 233
L 559 233
L 559 233
L 559 233
L 560 233
L 563 233
L 563 233
L 563 233
L 563 232
L 563 232
L 563 232
L 563 232
L 563 232
L 563 232
L 563 232
L 563 232
L 563 232
L 563 232
L 563 232
L 563 232
L 563 232
L 563 232
L 563 232
L 563 232
L 563 232
L 563 232
L 563 232
L 563 231
L 564 231
L 564 231
L 564 231
L 564 231
L 564 231
L 564 231
L 564 231
L 564 231
L 564 231
L 564 231
L 564 231
L 564 231
L 564 231
L 564 231
L 564 231
L 564 231
L 564 231
L 564 230
L 564 230
L 564 230
L 564 230
L 564 230
L 564 230
L 564 230
L 564 230
L 564 230
L 564 230
L 564 230
L 564 230
L 564 230
L 564 230
L 564 230
L 564 230
L 564 230
L 564 230
L 564 230
L 564 229
L 564 229
L 564 229
L 564 229
L 564 229
L 564 229
L 564 229
L 564 229
L 564 229
L 564 229
L 564 229
L 564 229
L 564 229
L 564 229
L 564 229
L 565 229
L 565 229
L 565 229
L 565 228
L 565 228
L 565 228
L 565 228
L 565 228
L 565 228
L 565 228
L 565 228
L 565 228
L 565 228
L 565 228
L 565 228
L 565 228
L 565 228
L 566 228
L 566 228
L 566 228
L 566 228
L 566 228
L 566 227
L 566 227
L 566 227
L 566 227
L 566 227
L 566 227
L 566 227
L 566 227
L 566 227
L 566 227
L 566 227
L 566 227
L 566 227
L 566 227
L 566 227
L 566 227
L 566 227
L 566 227
L 566 226
L 566 226
L 566 226
L 566 226
L 566 226
L 566 226
L 566 226
L 566 226
L 566 226
L 566 226
L 566 226
L 567 226
L 567 226
L 567 226
L 567 226
L 567 226
L 567 226
L 567 226
L 567 226
L 567 225
L 567 225
L 567 225
L 567 225
L 567 225
L 567 225
L 567 225
L 567 225
L 567 225
L 567 225
L 567 225
L 567 225
L 567 225
L 567 225
L 567 225
L 567 225
L 567 225
L 567 225
L 567 224
L 567 224
L 567 224
L 567 224
L 567 224
L 567 224
L 567 224
L 567 224
L 567 224
L 567 224
L 567 224
L 567 224
L 567 224
L 567 224
L 567 224
L 567 224
L 568 224
L 568 224
L 568 224
L 568 223
L 568 223
L 568 223
L 568 223
L 568 223
L 568 223
L 568 223
L 568 223
L 568 223
L 568 223
L 568 223
L 568 223
L 568 223
L 568 223
L 568 223
L 568 223
L 568 223
L 568 223
L 568 222
L 568 222
L 568 222
L 568 222
L 568 222
L 568 222
L 568 222
L 568 222
L 568 222
L 568 222
L 568 222
L 568 222
L 568 222
L 568 222
L 568 222
L 569 222
L 569 222
L 569 222
L 569 222
L 569 221
L 569 221
L 569 221
L 569 221
L 569 221
L 569 221
L 569 221
L 569 221
L 569 221
L 569 221
L 569 221
L 569 221
L 569 221
L 569 221
L 569 221
L 569 221
L 569 221
L 570 221
L 570 220
L 570 220
L 570 220
L 570 220
L 570 220
L 570 220
L 570 220
L 570 220
L 570 220
L 570 220
L 570 220
L 570 220
L 570 220
L 570 220
L 570 220
L 571 220
L 571 220
L 571 220
L 571 220
L 571 219
L 571 219
L 571 219
L 571 219
L 571 219
L 571 219
L 571 219
L 571 219
L 572 219
L 572 219
L 572 219
L 572 219
L 572 219
L 572 219
L 572 219
L 572 219
L 572 219
L 572 219
L 572 218
L 572 218
L 572 218
L 572 218
L 572 218
L 573 218
L 573 218
L 573 218
L 573 218
L 573 218
L 573 218
L 573 218
L 573 218
L 573 218
L 575 218
L 575 218
L 575 218
L 576 218
L 578 218
L 578 217
L 578 217
L 578 217
L 578 217
L 578 217
L 578 217
L 578 217
L 578 217
L 578 217
L 578 217
L 578 217
L 578 217
L 578 217
L 578 217
L 578 217
L 578 217
L 578 217
L 578 217
L 578 216
L 578 216
L 578 216
L 579 216
L 579 216
L 579 216
L 579 216
L 579 216
L 579 216
L 579 216
L 579 216
L 579 216
L 579 216
L 579 216
L 579 216
L 579 216
L 579 216
L 579 216
L 579 216
L 579 215
L 579 215
L 579 215
L 579 215
L 579 215
L 579 215
L 579 215
L 579 215
L 579 215
L 579 215
L 579 215
L 579 215
L 579 215
L 579 215
L 579 215
L 579 215
L 579 215
L 579 215
L 579 215
L 579 214
L 579 214
L 579 214
L 579 214
L 579 214
L 579 214
L 579 214
L 579 214
L 579 214
L 579 214
L 579 214
L 579 214
L 579 214
L 579 214
L 579 214
L 579 214
L 579 214
L 579 214
L 580 213
L 580 213
L 580 213
L 580 213
L 580 213
L 580 213
L 580 213
L 580 213
L 580 213
L 580 213
L 580 213
L 580 213
L 580 213
L 580 213
L 580 213
L 580 213
L 580 213
L 580 213
L 580 213
L 580 212
L 580 212
L 580 212
L 580 212
L 580 212
L 580 212
L 580 212
L 580 212
L 580 212
L 580 212
L 580 212
L 580 212
L 580 212
L 580 212
L 580 212
L 581 212
L 581 212
L 581 212
L 581 211
L 581 211
L 581 211
L 581 211
L 581 211
L 581 211
L 581 211
L 581 211
L 581 211
L 581 211
L 581 211
L 581 211
L 581 211
L 581 211
L 581 211
L 581 211
L 581 211
L 581 211
L 581 211
L 581 210
L 581 210
L 581 210
L 581 210
L 581 210
L 581 210
L 581 210
L 581 210
L 582 210
L 582 210
L 582 210
L 582 210
L 582 210
L 582 210
L 582 210
L 582 210
L 582 210
L 582 210
L 582 209
L 582 209
L 582 209
L 582 209
L 582 209
L 582 209
L 582 209
L 582 209
L 582 209
L 582 209
L 582 209
L 582 209
L 582 209
L 582 209
L 582 209
L 582 209
L 582 209
L 582 209
L 582 209
L 582 208
L 582 208
L 582 208
L 582 208
L 582 208
L 582 208
L 582 208
L 582 208
L 582 208
L 582 208
L 582 208
L 582 208
L 582 208
L 582 208
L 582 208
L 583 208
L 583 208
L 583 208
L 583 207
L 583 207
L 583 207
L 583 207
L 583 207
L 583 207
L 583 207
L 583 207
L 583 207
L 583 207
L 583 207
L 583 207
L 583 207
L 583 207
L 583 207
L 583 207
L 583 207
L 583 207
L 583 207
L 583 206
L 583 206
L 583 206
L 583 206
L 583 206
L 583 206
L 583 206
L 583 206
L 583 206
L 583 206
L 583 206
L 583 206
L 583 206
L 583 206
L 583 206
L 583 206
L 584 206
L 584 206
L 584 205
L 584 205
L 584 205
L 584 205
L 584 205
L 584 205
L 584 205
L 584 205
L 584 205
L 584 205
L 584 205
L 584 205
L 584 205
L 584 205
L 584 205
L 584 205
L 584 205
L 584 205
L 584 205
L 585 204
L 585 204
L 585 204
L 585 204
L 585 204
L 585 204
L 585 204
L 585 204
L 586 204
L 586 204
L 586 204
L 586 204
L 586 204
L 586 204
L 586 204
L 586 204
L 586 204
L 586 204
L 586 203
L 587 203
L 587 203
L 587 203
L 587 203
L 587 203
L 587 203
L 587 203
L 587 203
L 587 203
L 587 203
L 587 203
L 588 203
L 588 203
L 588 203
L 588 203
L 588 203
L 588 203
L 588 203
L 589 202
L 589 202
L 591 202
L 591 202
L 592 202
L 592 202
L 592 202
L 593 202
L 593 202
L 593 202
L 593 202
L 594 202
L 594 202
L 594 202
L 594 202
L 594 202
L 594 202
L 594 202
L 594 201
L 594 201
L 594 201
L 594 201
L 595 201
L 595 201
L 595 201
L 595 201
L 595 201
L 595 201
L 595 201
L 595 201
L 595 201
L 595 201
L 595 201
L 596 201
L 596 201
L 596 201
L 596 201
L 596 200
L 596 200
L 596 200
L 596 200
L 597 200
L 597 200
L 597 200
L 597 200
L 597 200
L 597 200
L 597 200
L 597 200
L 598 200
L 598 200
L 598 200
L 598 200
L 598 200
L 598 200
L 598 199
L 598 199
L 599 199
L 599 199
L 600 199
L 600 199
L 600 199
L 600 199
L 600 199
L 600 199
L 600 199
L 600 199
L 601 199
L 601 199
L 601 199
L 601 199
L 601 199
L 601 199
L 602 199
L 602 198
L 602 198
L 602 198
L 602 198
L 602 198
L 602 198
L 602 198
L 603 198
L 603 198
L 603 198
L 603 198
L 603 198
L 603 198
L 604 198
L 605 198
L 605 198
L 605 198
L 605 198
L 606 198
L 606 197
L 607 197
L 607 197
L 607 197
L 608 197
L 608 197
L 609 197
L 609 197
L 609 197
L 609 197
L 609 197
L 609 197
L 609 197
L 609 197
L 610 197
L 610 197
L 610 197
L 610 197
L 610 196
L 610 196
L 610 196
L 611 196
L 611 196
L 611 196
L 611 196
L 611 196
L 612 196
L 612 196
L 612 196
L 612 196
L 612 196
L 612 196
L 612 196
L 612 196
L 613 196
L 613 196
L 614 196
L 614 195
L 614 195
L 614 195
L 614 195
L 614 195
L 614 195
L 615 195
L 615 195
L 615 195
L 615 195
L 616 195
L 616 195
L 616 195
L 616 195
L 616 195
L 616 195
L 617 195
L 617 195
L 617 194
L 617 194
L 617 194
L 617 194
L 617 194
L 617 194
L 617 194
L 617 194
L 617 194
L 618 194
L 618 194
L 618 194
L 619 194
L 619 194
L 619 194
L 619 194
L 619 194
L 619 194
L 621 194
L 621 193
L 623 193
L 623 193
L 623 193
L 624 193
L 624 193
L 624 193
L 624 193
L 624 193
L 624 193
L 624 193
L 624 193
L 625 193
L 625 193
L 625 193
L 625 193
L 625 193
L 626 193
L 626 192
L 626 192
L 626 192
L 626 192
L 627 192
L 627 192
L 627 192
L 627 192
L 627 192
L 627 192
L 627 192
L 627 192
L 627 192
L 627 192
L 628 192
L 628 192
L 628 192
L 628 192
L 628 192
L 628 191
L 629 191
L 629 191
L 629 191
L 629 191
L 629 191
L 629 191
L 629 191
L 629 191
L 629 191
L 629 191
L 630 191
L 630 191
L 630 191
L 630 191
L 630 191
L 630 191
L 630 191
L 630 190
L 630 190
L 630 190
L 630 190
L 630 190
L 630 190
L 631 190
L 631 190
L 631 190
L 631 190
L 631 190
L 631 190
L 631 190
L 632 190
L 632 190
L 632 190
L 632 190
L 632 190
L 632 190
L 632 189
L 632 189
L 632 189
L 633 189
L 633 189
L 633 189
L 633 189
L 634 189
L 634 189
L 634 189
L 638 189
L 638 189
L 638 189
L 638 189
L 638 189
L 639 189
L 639 189
L 639 189
L 639 188
L 639 188
L 639 188
L 639 188
L 639 188
L 639 188
L 639 188
L 639 188
L 639 188
L 639 188
L 639 188
L 639 188
L 639 188
L 639 188
L 639 188
L 639 188
L 639 188
L 639 188
L 639 188
L 639 187
L 639 187
L 639 187
L 639 187
L 639 187
L 639 187
L 639 187
L 639 187
L 639 187
L 639 187
L 639 187
L 639 187
L 639 187
L 639 187
L 639 187
L 639 187
L 639 187
L 639 187
L 639 186
L 639 186
L 639 186
L 640 186
L 640 186
L 640 186
L 640 186
L 640 186
L 640 186
L 640 186
L 640 186
L 640 186
L 640 186
L 640 186
L 640 186
L 640 186
L 640 186
L 640 186
L 640 186
L 640 185
L 640 185
L 640 185
L 640 185
L 640 185
L 640 185
L 640 185
L 640 185
L 641 185
L 641 185
L 641 185
L 641 185
L 641 185
L 641 185
L 641 185
L 641 185
L 641 185
L 641 185
L 641 184
L 641 184
L 641 184
L 641 184
L 641 184
L 641 184
L 642 184
L 642 184
L 642 184
L 642 184
L 642 184
L 642 184
L 642 184
L 642 184
L 642 184
L 642 184
L 642 184
L 642 184
L 642 184
L 642 183
L 642 183
L 642 183
L 642 183
L 642 183
L 642 183
L 642 183
L 642 183
L 642 183
L 642 183
L 642 183
L 642 183
L 642 183
L 642 183
L 642 183
L 642 183
L 642 183
L 642 183
L 643 182
L 643 182
L 643 182
L 643 182
L 643 182
L 643 182
L 643 182
L 643 182
L 643 182
L 643 182
L 643 182
L 643 182
L 643 182
L 643 182
L 643 182
L 643 182
L 643 182
L 643 182
L 643 182
L 643 181
L 643 181
L 643 181
L 643 181
L 643 181
L 643 181
L 643 181
L 643 181
L 643 181
L 643 181
L 643 181
L 644 181
L 644 181
L 644 181
L 644 181
L 644 181
L 644 181
L 644 181
L 644 181
L 644 180
L 644 180
L 644 180
L 644 180
L 644 180
L 644 180
L 645 180
L 645 180
L 645 180
L 645 180
L 645 180
L 645 180
L 645 180
L 645 180
L 645 180
L 645 180
L 646 180
L 646 180
L 646 179
L 646 179
L 646 179
L 646 179
L 646 179
L 646 179
L 646 179
L 646 179
L 646 179
L 646 179
L 646 179
L 646 179
L 646 179
L 646 179
L 646 179
L 646 179
L 647 179
L 647 179
L 647 179
L 647 178
L 647 178
L 647 178
L 647 178
L 647 178
L 647 178
L 647 178
L 647 178
L 647 178
L 647 178
L 647 178
L 647 178
L 647 178
L 647 178
L 647 178
L 647 178
L 647 178
L 648 178
L 648 177
L 648 177
L 648 177
L 648 177
L 648 177
L 648 177
L 648 177
L 648 177
L 649 177
L 649 177
L 650 177
L 650 177
L 650 177
L 652 177
L 652 177
L 652 177
L 653 177
L 653 177
L 653 177
L 653 176
L 653 176
L 653 176
L 653 176
L 653 176
L 653 176
L 653 176
L 653 176
L 654 176
L 654 176
L 654 176
L 654 176
L 654 176
L 654 176
L 654 176
L 654 176
L 654 176
L 654 176
L 654 175
L 654 175
L 654 175
L 654 175
L 654 175
L 654 175
L 654 175
L 654 175
L 654 175
L 654 175
L 654 175
L 654 175
L 654 175
L 654 175
L 654 175
L 654 175
L 654 175
L 654 175
L 654 175
L 654 174
L 654 174
L 654 174
L 654 174
L 654 174
L 654 174
L 654 174
L 654 174
L 654 174
L 654 174
L 654 174
L 654 174
L 654 174
L 654 174
L 654 174
L 654 174
L 654 174
L 654 174
L 654 173
L 655 173
L 655 173
L 655 173
L 655 173
L 655 173
L 655 173
L 655 173
L 655 173
L 655 173
L 655 173
L 655 173
L 655 173
L 655 173
L 655 173
L 655 173
L 655 173
L 655 173
L 655 173
L 656 172
L 656 172
L 656 172
L 656 172
L 656 172
L 656 172
L 656 172
L 656 172
L 656 172
L 656 172
L 656 172
L 656 172
L 656 172
L 656 172
L 656 172
L 656 172
L 656 172
L 656 172
L 656 171
L 657 171
L 657 171
L 657 171
L 657 171
L 657 171
L 657 171
L 657 171
L 657 171
L 657 171
L 657 171
L 657 171
L 657 171
L 657 171
L 657 171
L 657 171
L 657 171
L 657 171
L 657 171
L 657 170
L 657 170
L 657 170
L 657 170
L 657 170
L 657 170
L 657 170
L 657 170
L 658 170
L 658 170
L 658 170
L 658 170
L 658 170
L 658 170
L 658 170
L 658 170
L 658 170
L 658 170
L 658 169
L 658 169
L 658 169
L 658 169
L 658 169
L 658 169
L 658 169
L 658 169
L 658 169
L 658 169
L 658 169
L 658 169
L 658 169
L 658 169
L 658 169
L 658 169
L 658 169
L 658 169
L 658 169
L 658 168
L 658 168
L 658 168
L 658 168
L 658 168
L 658 168
L 658 168
L 658 168
L 659 168
L 659 168
L 659 168
L 659 168
L 659 168
L 659 168
L 659 168
L 659 168
L 659 168
L 659 168
L 659 167
L 659 167
L 659 167
L 659 167
L 659 167
L 659 167
L 659 167
L 659 167
L 659 167
L 659 167
L 659 167
L 659 167
L 659 167
L 659 167
L 659 167
L 659 167
L 659 167
L 659 167
L 659 167
L 659 166
L 659 166
L 659 166
L 659 166
L 659 166
L 659 166
L 659 166
L 659 166
L 660 166
L 660 166
L 660 166
L 660 166
L 660 166
L 660 166
L 660 166
L 660 166
L 660 166
L 660 166
L 660 165
L 660 165
L 660 165
L 660 165
L 660 165
L 660 165
L 660 165
L 660 165
L 660 165
L 660 165
L 660 165
L 660 165
L 660 165
L 660 165
L 661 165
L 661 165
L 661 165
L 661 165
L 661 165
L 661 164
L 661 164
L 661 164
L 661 164
L 661 164
L 661 164
L 661 164
L 661 164
L 661 164
L 661 164
L 661 164
L 661 164
L 661 164
L 662 164
L 662 164
L 662 164
L 662 164
L 662 164
L 662 163
L 662 163
L 662 163
L 662 163
L 662 163
L 662 163
L 662 163
L 662 163
L 662 163
L 662 163
L 662 163
L 662 163
L 662 163
L 662 163
L 663 163
L 663 163
L 663 163
L 663 163
L 663 163
L 663 162
L 663 162
L 663 162
L 663 162
L 663 162
L 664 162
L 664 162
L 664 162
L 664 162
L 665 162
L 666 162
L 667 162
L 668 162
L 668 162
L 668 162
L 668 162
L 668 162
L 668 162
L 668 162
L 668 161
L 668 161
L 668 161
L 668 161
L 669 161
L 669 161
L 669 161
L 669 161
L 669 161
L 669 161
L 669 161
L 669 161
L 669 161
L 669 161
L 669 161
L 669 161
L 669 161
L 669 161
L 669 160
L 669 160
L 669 160
L 669 160
L 669 160
L 669 160
L 669 160
L 669 160
L 669 160
L 669 160
L 669 160
L 670 160
L 670 160
L 670 160
L 670 160
L 670 160
L 670 160
L 670 160
L 670 160
L 670 159
L 670 159
L 670 159
L 670 159
L 670 159
L 670 159
L 670 159
L 670 159
L 670 159
L 670 159
L 670 159
L 670 159
L 670 159
L 670 159
L 670 159
L 670 159
L 670 159
L 670 159
L 670 158
L 670 158
L 671 158
L 671 158
L 671 158
L 671 158
L 671 158
L 671 158
L 671 158
L 671 158
L 671 158
L 671 158
L 671 158
L 671 158
L 671 158
L 672 158
L 672 158
L 672 158
L 672 158
L 672 157
L 672 157
L 672 157
L 672 157
L 672 157
L 672 157
L 672 157
L 672 157
L 672 157
L 672 157
L 672 157
L 672 157
L 673 157
L 673 157
L 673 157
L 673 157
L 673 157
L 673 157
L 673 156
L 673 156
L 673 156
L 673 156
L 673 156
L 673 156
L 673 156
L 673 156
L 673 156
L 673 156
L 673 156
L 673 156
L 673 156
L 673 156
L 673 156
L 673 156
L 673 156
L 673 156
L 673 156
L 673 155
L 673 155
L 673 155
L 673 155
L 673 155
L 673 155
L 673 155
L 673 155
L 674 155
L 674 155
L 674 155
L 674 155
L 674 155
L 674 155
L 674 155
L 674 155
L 674 155
L 674 155
L 674 154
L 674 154
L 674 154
L 674 154
L 674 154
L 674 154
L 674 154
L 674 154
L 674 154
L 674 154
L 674 154
L 674 154
L 674 154
L 674 154
L 674 154
L 675 154
L 675 154
L 675 154
L 675 154
L 675 153
L 675 153
L 675 153
L 675 153
L 676 153
L 676 153
L 676 153
L 676 153
L 676 153
L 676 153
L 676 153
L 676 153
L 676 153
L 676 153
L 676 153
L 676 153
L 676 153
L 677 153
L 677 152
L 677 152
L 677 152
L 677 152
L 677 152
L 677 152
L 677 152
L 677 152
L 677 152
L 677 152
L 677 152
L 678 152
L 678 152
L 678 152
L 678 152
L 678 152
L 679 152
L 679 152
L 679 152
L 680 151
L 680 151
L 681 151
L 681 151
L 681 151
L 681 151
L 683 151
L 683 151
L 683 151
L 684 151
L 684 151
L 684 151
L 684 151
L 684 151
L 684 151
L 684 151
L 684 151
L 684 151
L 684 150
L 684 150
L 684 150
L 684 150
L 684 150
L 684 150
L 684 150
L 684 150
L 685 150
L 685 150
L 685 150
L 685 150
L 685 150
L 685 150
L 685 150
L 685 150
L 685 150
L 685 150
L 685 150
L 685 149
L 685 149
L 685 149
L 685 149
L 685 149
L 685 149
L 685 149
L 686 149
L 686 149
L 686 149
L 686 149
L 686 149
L 686 149
L 686 149
L 687 149
L 687 149
L 687 149
L 687 149
L 687 148
L 687 148
L 687 148
L 687 148
L 687 148
L 687 148
L 687 148
L 687 148
L 688 148
L 688 148
L 688 148
L 688 148
L 688 148
L 688 148
L 688 148
L 688 148
L 689 148
L 689 148
L 689 148
L 689 147
L 689 147
L 689 147
L 689 147
L 689 147
L 690 147
L 690 147
L 690 147
L 690 147
L 690 147
L 690 147
L 690 147
L 691 147
L 691 147
L 691 147
L 691 147
L 691 147
L 691 147
L 691 147
L 691 146
L 691 146
L 691 146
L 691 146
L 691 146
L 691 146
L 692 146
L 692 146
L 692 146
L 692 146
L 692 146
L 692 146
L 692 146
L 692 146
L 692 146
L 693 146
L 693 146
L 693 146
L 693 145
L 693 145
L 693 145
L 694 145
L 694 145
L 699 145
L 699 145
L 700 145
L 700 145
L 700 145
L 700 145
L 700 145
L 700 145
L 701 145
L 701 145
L 701 145
L 701 145
L 701 145
L 701 145
L 701 144
L 701 144
L 701 144
L 702 144
L 702 144
L 702 144
L 702 144
L 702 144
L 702 144
L 703 144
L 703 144
L 703 144
L 703 144
L 703 144
L 703 144
L 703 144
L 704 144
L 704 144
L 704 143
L 704 143
L 704 143
L 704 143
L 704 143
L 704 143
L 704 143
L 704 143
L 704 143
L 704 143
L 704 143
L 705 143
L 705 143
L 705 143
L 705 143
L 705 143
L 705 143
L 705 143
L 705 143
L 705 142
L 706 142
L 706 142
L 706 142
L 706 142
L 706 142
L 706 142
L 707 142
L 707 142
L 707 142
L 707 142
L 707 142
L 707 142
L 707 142
L 707 142
L 707 142
L 707 142
L 707 142
L 707 141
L 707 141
L 707 141
L 707 141
L 708 141
L 708 141
L 708 141
L 708 141
L 708 141
L 708 141
L 708 141
L 708 141
L 708 141
L 709 141
L 709 141
L 709 141
L 709 141
L 710 141
L 710 141
L 711 140
L 711 140
L 711 140
L 712 140
L 713 140
L 713 140
L 713 140
L 713 140
L 713 140
L 713 140
L 713 140
L 714 140
L 714 140
L 714 140
L 714 140
L 714 140
L 714 140
L 714 140
L 714 139
L 714 139
L 714 139
L 714 139
L 714 139
L 714 139
L 714 139
L 714 139
L 714 139
L 714 139
L 714 139
L 714 139
L 714 139
L 714 139
L 714 139
L 714 139
L 715 139
L 715 139
L 715 139
L 715 138
L 715 138
L 715 138
L 715 138
L 715 138
L 715 138
L 715 138
L 715 138
L 715 138
L 715 138
L 715 138
L 715 138
L 715 138
L 715 138
L 715 138
L 715 138
L 715 138
L 715 138
L 715 137
L 715 137
L 715 137
L 716 137
L 716 137
L 716 137
L 716 137
L 716 137
L 716 137
L 716 137
L 716 137
L 716 137
L 717 137
L 717 137
L 717 137
L 717 137
L 717 137
L 717 137
L 717 137
L 717 136
L 717 136
L 717 136
L 717 136
L 717 136
L 717 136
L 717 136
L 717 136
L 717 136
L 717 136
L 717 136
L 718 136
L 718 136
L 718 136
L 718 136
L 718 136
L 718 136
L 718 136
L 718 135
L 718 135
L 718 135
L 718 135
L 718 135
L 718 135
L 718 135
L 718 135
L 719 135
L 719 135
L 719 135
L 719 135
L 719 135
L 719 135
L 719 135
L 719 135
L 719 135
L 719 135
L 719 135
L 719 134
L 719 134
L 719 134
L 719 134
L 719 134
L 719 134
L 720 134
L 720 134
L 720 134
L 720 134
L 720 134
L 720 134
L 721 134
L 721 134
L 721 134
L 721 134
L 721 134
L 721 134
L 721 133
L 721 133
L 721 133
L 721 133
L 721 133
L 722 133
L 722 133
L 722 133
L 722 133
L 722 133
L 722 133
L 722 133
L 722 133
L 723 133
L 723 133
L 723 133
L 723 133
L 723 133
L 723 133
L 723 132
L 723 132
L 723 132
L 723 132
L 726 132
L 728 132
L 728 132
L 728 132
L 728 132
L 729 132
L 729 132
L 729 132
L 729 132
L 729 132
L 729 132
L 729 132
L 729 132
L 729 132
L 729 131
L 729 131
L 729 131
L 729 131
L 729 131
L 729 131
L 730 131
L 730 131
L 730 131
L 730 131
L 730 131
L 730 131
L 730 131
L 730 131
L 730 131
L 730 131
L 730 131
L 730 131
L 730 131
L 730 130
L 730 130
L 730 130
L 731 130
L 731 130
L 731 130
L 731 130
L 731 130
L 731 130
L 731 130
L 731 130
L 731 130
L 731 130
L 731 130
L 731 130
L 731 130
L 731 130
L 731 130
L 732 130
L 732 129
L 732 129
L 732 129
L 732 129
L 732 129
L 732 129
L 732 129
L 732 129
L 732 129
L 732 129
L 732 129
L 732 129
L 732 129
L 733 129
L 733 129
L 733 129
L 733 129
L 733 129
L 733 128
L 733 128
L 733 128
L 733 128
L 733 128
L 733 128
L 733 128
L 733 128
L 733 128
L 733 128
L 733 128
L 733 128
L 733 128
L 733 128
L 734 128
L 734 128
L 734 128
L 734 128
L 734 128
L 734 127
L 734 127
L 734 127
L 734 127
L 734 127
L 734 127
L 734 127
L 734 127
L 734 127
L 734 127
L 734 127
L 734 127
L 734 127
L 734 127
L 735 127
L 735 127
L 735 127
L 735 127
L 735 126
L 735 126
L 735 126
L 735 126
L 735 126
L 735 126
L 736 126
L 736 126
L 736 126
L 736 126
L 736 126
L 736 126
L 736 126
L 736 126
L 736 126
L 736 126
L 736 126
L 736 126
L 736 126
L 736 125
L 736 125
L 736 125
L 736 125
L 736 125
L 736 125
L 736 125
L 737 125
L 737 125
L 737 125
L 737 125
L 737 125
L 737 125
L 737 125
L 737 125
L 737 125
L 737 125
L 737 125
L 737 124
L 738 124
L 738 124
L 738 124
L 738 124
L 738 124
L 739 124
L 739 124
L 739 124
L 741 124
L 744 124
L 744 124
L 744 124
L 744 124
L 744 124
L 744 124
L 744 124
L 744 124
L 744 124
L 744 123
L 744 123
L 744 123
L 744 123
L 744 123
L 744 123
L 744 123
L 744 123
L 744 123
L 744 123
L 744 123
L 744 123
L 744 123
L 744 123
L 745 123
L 745 123
L 745 123
L 745 123
L 745 122
L 745 122
L 745 122
L 745 122
L 745 122
L 745 122
L 745 122
L 745 122
L 745 122
L 745 122
L 745 122
L 745 122
L 745 122
L 745 122
L 745 122
L 745 122
L 745 122
L 745 122
L 746 122
L 746 121
L 746 121
L 746 121
L 746 121
L 746 121
L 746 121
L 746 121
L 746 121
L 746 121
L 747 121
L 747 121
L 747 121
L 747 121
L 747 121
L 747 121
L 747 121
L 747 121
L 747 121
L 747 120
L 747 120
L 747 120
L 747 120
L 747 120
L 747 120
L 747 120
L 747 120
L 747 120
L 747 120
L 747 120
L 747 120
L 748 120
L 748 120
L 748 120
L 748 120
L 748 120
L 748 120
L 748 120
L 748 119
L 748 119
L 748 119
L 748 119
L 748 119
L 748 119
L 748 119
L 748 119
L 748 119
L 748 119
L 748 119
L 748 119
L 748 119
L 749 119
L 749 119
L 749 119
L 749 119
L 749 119
L 749 118
L 749 118
L 749 118
L 749 118
L 749 118
L 749 118
L 749 118
L 749 118
L 749 118
L 749 118
L 749 118
L 750 118
L 750 118
L 750 118
L 750 118
L 750 118
L 750 118
L 751 118
L 751 118
L 751 117
L 751 117
L 751 117
L 751 117
L 752 117
L 752 117
L 752 117
L 752 117
L 752 117
L 752 117
L 752 117
L 752 117
L 752 117
L 752 117
L 752 117
L 752 117
L 752 117
L 752 117
L 752 116
L 753 116
L 753 116
L 753 116
L 753 116
L 753 116
L 753 116
L 753 116
L 753 116
L 753 116
L 753 116
L 753 116
L 754 116
L 754 116
L 754 116
L 755 116
L 757 116
L 758 116
L 758 116
L 758 115
L 758 115
L 758 115
L 758 115
L 758 115
L 758 115
L 758 115
L 758 115
L 758 115
L 758 115
L 758 115
L 758 115
L 759 115
L 759 115
L 759 115
L 759 115
L 759 115
L 759 115
L 759 114
L 759 114
L 759 114
L 759 114
L 759 114
L 759 114
L 759 114
L 759 114
L 759 114
L 759 114
L 759 114
L 759 114
L 759 114
L 759 114
L 759 114
L 759 114
L 759 114
L 759 114
L 759 114
L 759 113
L 759 113
L 759 113
L 759 113
L 759 113
L 759 113
L 759 113
L 759 113
L 759 113
L 759 113
L 759 113
L 759 113
L 759 113
L 759 113
L 759 113
L 759 113
L 759 113
L 759 113
L 759 113
L 759 112
L 759 112
L 759 112
L 759 112
L 759 112
L 759 112
L 759 112
L 759 112
L 759 112
L 759 112
L 759 112
L 759 112
L 760 112
L 760 112
L 760 112
L 760 112
L 760 112
L 760 112
L 760 111
L 760 111
L 760 111
L 760 111
L 760 111
L 760 111
L 760 111
L 760 111
L 760 111
L 760 111
L 760 111
L 760 111
L 760 111
L 760 111
L 760 111
L 760 111
L 760 111
L 760 111
L 760 111
L 760 110
L 760 110
L 760 110
L 760 110
L 760 110
L 760 110
L 760 110
L 761 110
L 761 110
L 761 110
L 761 110
L 761 110
L 761 110
L 761 110
L 761 110
L 761 110
L 761 110
L 762 110
L 762 109
L 762 109
L 762 109
L 762 109
L 762 109
L 762 109
L 762 109
L 762 109
L 762 109
L 762 109
L 762 109
L 762 109
L 762 109
L 762 109
L 762 109
L 762 109
L 762 109
L 762 109
L 762 109
L 762 108
L 762 108
L 762 108
L 762 108
L 762 108
L 762 108
L 762 108
L 762 108
L 762 108
L 762 108
L 762 108
L 762 108
L 762 108
L 762 108
L 762 108
L 762 108
L 762 108
L 762 108
L 762 107
L 762 107
L 763 107
L 763 107
L 763 107
L 763 107
L 763 107
L 763 107
L 763 107
L 763 107
L 763 107
L 763 107
L 763 107
L 763 107
L 763 107
L 763 107
L 763 107
L 763 107
L 763 107
L 763 106
L 763 106
L 763 106
L 763 106
L 763 106
L 763 106
L 763 106
L 763 106
L 763 106
L 763 106
L 763 106
L 763 106
L 763 106
L 764 106
L 764 106
L 764 106
L 764 106
L 764 106
L 764 105
L 764 105
L 764 105
L 764 105
L 764 105
L 764 105
L 764 105
L 764 105
L 764 105
L 764 105
L 764 105
L 764 105
L 764 105
L 764 105
L 764 105
L 764 105
L 764 105
L 764 105
L 764 105
L 764 104
L 764 104
L 764 104
L 764 104
L 764 104
L 765 104
L 765 104
L 765 104
L 765 104
L 765 104
L 765 104
L 765 104
L 765 104
L 765 104
L 765 104
L 765 104
L 765 104
L 765 104
L 765 103
L 765 103
L 765 103
L 766 103
L 766 103
L 766 103
L 766 103
L 766 103
L 766 103
L 766 103
L 766 103
L 766 103
L 766 103
L 766 103
L 766 103
L 766 103
L 766 103
L 766 103
L 766 103
L 766 102
L 766 102
L 766 102
L 766 102
L 766 102
L 766 102
L 766 102
L 767 102
L 767 102
L 767 102
L 767 102
L 767 102
L 767 102
L 767 102
L 767 102
L 767 102
L 767 102
L 767 102
L 767 101
L 767 101
L 767 101
L 767 101
L 767 101
L 767 101
L 768 101
L 768 101
L 768 101
L 768 101
L 768 101
L 768 101
L 768 101
L 768 101
L 768 101
L 768 101
L 768 101
L 769 101
L 769 101
L 769 100
L 769 100
L 769 100
L 769 100
L 769 100
L 770 100
L 770 100
L 770 100
L 770 100
L 771 100
L 771 100
L 773 100
L 773 100
L 773 100
L 773 100
L 773 100
L 773 100
L 774 100
L 774 99
L 774 99
L 774 99
L 774 99
L 774 99
L 774 99
L 774 99
L 774 99
L 774 99
L 774 99
L 774 99
L 774 99
L 774 99
L 774 99
L 774 99
L 774 99
L 774 99
L 774 99
L 774 99
L 774 98
L 774 98
L 774 98
L 774 98
L 775 98
L 775 98
L 775 98
L 775 98
L 775 98
L 775 98
L 775 98
L 775 98
L 775 98
L 775 98
L 775 98
L 775 98
L 775 98
L 775 98
L 775 97
L 775 97
L 775 97
L 775 97
L 775 97
L 775 97
L 775 97
L 775 97
L 775 97
L 775 97
L 776 97
L 776 97
L 776 97
L 776 97
L 776 97
L 776 97
L 776 97
L 776 97
L 776 97
L 776 96
L 777 96
L 777 96
L 777 96
L 777 96
L 777 96
L 777 96
L 777 96
L 777 96
L 777 96
L 777 96
L 777 96
L 777 96
L 777 96
L 777 96
L 777 96
L 777 96
L 777 96
L 777 96
L 777 95
L 777 95
L 777 95
L 777 95
L 777 95
L 777 95
L 777 95
L 777 95
L 777 95
L 777 95
L 777 95
L 777 95
L 778 95
L 778 95
L 778 95
L 778 95
L 778 95
L 778 95
L 778 94
L 778 94
L 778 94
L 778 94
L 778 94
L 778 94
L 778 94
L 778 94
L 778 94
L 778 94
L 778 94
L 778 94
L 778 94
L 778 94
L 778 94
L 778 94
L 778 94
L 778 94
L 779 94
L 779 93
L 779 93
L 779 93
L 779 93
L 779 93
L 779 93
L 779 93
L 779 93
L 779 93
L 779 93
L 779 93
L 779 93
L 779 93
L 779 93
L 779 93
L 779 93
L 779 93
L 779 93
L 779 92
L 779 92
L 779 92
L 779 92
L 780 92
L 780 92
L 780 92
L 780 92
L 780 92
L 780 92
L 780 92
L 781 92
L 781 92
L 781 92
L 781 92
L 781 92
L 781 92
L 781 92
L 781 92
L 781 91
L 781 91
L 781 91
L 781 91
L 782 91
L 782 91
L 782 91
L 782 91
L 782 91
L 782 91
L 783 91
L 783 91
L 783 91
L 783 91
L 783 91
L 783 91
L 783 91
L 783 91
L 783 90
L 784 90
L 784 90
L 784 90
L 784 90
L 785 90
L 785 90
L 785 90
L 785 90
L 788 90
L 789 90
L 789 90
L 790 90
L 790 90
L 790 90
L 790 90
L 790 90
L 790 90
L 790 90
L 790 89
L 790 89
L 790 89
L 790 89
L 791 89
L 791 89
L 791 89
L 791 89
L 792 89
L 792 89
L 792 89
L 792 89
L 792 89
L 792 89
L 793 89
L 793 89
L 793 89
L 793 89
L 793 88
L 793 88
L 793 88
L 793 88
L 793 88
L 793 88
L 794 88
L 794 88
L 794 88
L 794 88
L 794 88
L 794 88
L 794 88
L 794 88
L 794 88
L 795 88
L 795 88
L 795 88
L 796 88
L 796 87
L 797 87
L 797 87
L 797 87
L 797 87
L 798 87
L 798 87
L 798 87
L 799 87
L 799 87
L 799 87
L 799 87
L 800 87
L 800 87
L 801 87
L 803 87
L 804 87
L 805 87
L 805 86
L 806 86
L 806 86
L 806 86
L 806 86
L 806 86
L 807 86
L 807 86
L 807 86
L 807 86
L 807 86
L 807 86
L 808 86
L 808 86
L 808 86
L 808 86
L 808 86
L 808 86
L 809 86
L 809 85
L 810 85
L 810 85
L 810 85
L 810 85
L 810 85
L 811 85
L 811 85
L 811 85
L 811 85
L 811 85
L 812 85
L 812 85
L 812 85
L 812 85
L 812 85
L 812 85
L 812 85
L 813 84
L 813 84
L 813 84
L 814 84
L 814 84
L 815 84
L 818 84
L 819 84
L 819 84
L 819 84
L 819 84
L 819 84
L 819 84
L 819 84
L 819 84
L 819 84
L 819 84
L 819 84
L 820 84
L 820 83
L 820 83
L 820 83
L 820 83
L 820 83
L 820 83
L 820 83
L 820 83
L 820 83
L 820 83
L 820 83
L 820 83
L 820 83
L 820 83
L 820 83
L 820 83
L 821 83
L 821 83
L 821 82
L 821 82
L 821 82
L 821 82
L 821 82
L 822 82
L 822 82
L 822 82
L 822 82
L 822 82
L 822 82
L 822 82
L 822 82
L 823 82
L 823 82
L 823 82
L 823 82
L 823 82
L 823 82
L 823 81
L 823 81
L 823 81
L 823 81
L 823 81
L 823 81
L 824 81
L 824 81
L 824 81
L 824 81
L 824 81
L 824 81
L 824 81
L 824 81
L 824 81
L 824 81
L 824 81
L 824 81
L 824 80
L 824 80
L 824 80
L 825 80
L 825 80
L 825 80
L 825 80
L 825 80
L 825 80
L 825 80
L 825 80
L 825 80
L 825 80
L 826 80
L 826 80
L 826 80
L 826 80
L 826 80
L 826 80
L 826 79
L 826 79
L 826 79
L 826 79
L 827 79
L 827 79
L 827 79
L 827 79
L 827 79
L 827 79
L 827 79
L 827 79
L 828 79
L 828 79
L 828 79
L 828 79
L 828 79
L 828 79
L 828 79
L 828 78
L 828 78
L 828 78
L 828 78
L 828 78
L 829 78
L 829 78
L 829 78
L 831 78
L 831 78
L 833 78
L 834 78
L 834 78
L 834 78
L 834 78
L 834 78
L 834 78
L 834 78
L 835 77
L 835 77
L 835 77
L 835 77
L 835 77
L 835 77
L 835 77
L 835 77
L 835 77
L 835 77
L 835 77
L 835 77
L 835 77
L 835 77
L 835 77
L 835 77
L 835 77
L 835 77
L 835 77
L 835 76
L 835 76
L 835 76
L 835 76
L 835 76
L 835 76
L 835 76
L 835 76
L 835 76
L 835 76
L 835 76
L 835 76
L 835 76
L 835 76
L 835 76
L 835 76
L 835 76
L 835 76
L 835 75
L 835 75
L 835 75
L 835 75
L 835 75
L 835 75
L 835 75
L 835 75
L 835 75
L 835 75
L 835 75
L 835 75
L 835 75
L 835 75
L 836 75
L 836 75
L 836 75
L 836 75
L 836 75
L 836 74
L 836 74
L 836 74
L 836 74
L 836 74
L 836 74
L 836 74
L 836 74
L 836 74
L 836 74
L 836 74
L 836 74
L 836 74
L 836 74
L 836 74
L 836 74
L 836 74
L 836 74
L 836 73
L 836 73
L 836 73
L 836 73
L 836 73
L 836 73
L 836 73
L 836 73
L 836 73
L 836 73
L 836 73
L 836 73
L 836 73
L 836 73
L 836 73
L 836 73
L 836 73
L 837 73
L 837 73
L 837 72
L 837 72
L 837 72
L 837 72
L 837 72
L 837 72
L 837 72
L 837 72
L 837 72
L 837 72
L 837 72
L 837 72
L 837 72
L 837 72
L 837 72
L 838 72
L 838 72
L 838 72
L 838 71
L 838 71
L 838 71
L 838 71
L 838 71
L 838 71
L 838 71
L 838 71
L 838 71
L 838 71
L 838 71
L 838 71
L 838 71
L 838 71
L 838 71
L 838 71
L 839 71
L 839 71
L 839 71
L 839 70
L 839 70
L 839 70
L 839 70
L 839 70
L 839 70
L 839 70
L 839 70
L 839 70
L 839 70
L 839 70
L 839 70
L 839 70
L 839 70
L 839 70
L 839 70
L 839 70
L 839 70
L 840 69
L 840 69
L 840 69
L 840 69
L 840 69
L 840 69
L 840 69
L 840 69
L 840 69
L 840 69
L 840 69
L 840 69
L 840 69
L 840 69
L 840 69
L 840 69
L 840 69
L 840 69
L 840 69
L 840 68
L 840 68
L 840 68
L 840 68
L 841 68
L 841 68
L 841 68
L 841 68
L 841 68
L 841 68
L 841 68
L 841 68
L 841 68
L 841 68
L 841 68
L 841 68
L 841 68
L 841 68
L 841 67
L 841 67
L 841 67
L 841 67
L 841 67
L 841 67
L 841 67
L 841 67
L 842 67
L 842 67
L 842 67
L 842 67
L 842 67
L 842 67
L 842 67
L 842 67
L 842 67
L 843 67
L 843 67
L 843 66
L 843 66
L 843 66
L 843 66
L 844 66
L 845 66
L 845 66
L 845 66
L 846 66
L 847 66
L 849 66
L 849 66
L 849 66
L 849 66
L 849 66
L 849 66
L 849 66
L 849 66
L 849 65
L 849 65
L 849 65
L 849 65
L 849 65
L 849 65
L 849 65
L 849 65
L 849 65
L 849 65
L 849 65
L 850 65
L 850 65
L 850 65
L 850 65
L 850 65
L 850 65
L 850 65
L 850 65
L 850 64
L 850 64
L 850 64
L 850 64
L 850 64
L 850 64
L 850 64
L 850 64
L 850 64
L 850 64
L 850 64
L 850 64
L 850 64
L 850 64
L 850 64
L 850 64
L 850 64
L 850 64
L 850 63
L 850 63
L 850 63
L 850 63
L 850 63
L 850 63
L 850 63
L 850 63
L 850 63
L 850 63
L 850 63
L 850 63
L 850 63
L 850 63
L 850 63
L 850 63
L 850 63
L 850 63
L 850 63
L 850 62
L 850 62
L 851 62
L 851 62
L 851 62
L 851 62
L 851 62
L 851 62
L 851 62
L 851 62
L 851 62
L 851 62
L 851 62
L 851 62
L 851 62
L 851 62
L 851 62
L 851 62
L 851 62
L 851 61
L 851 61
L 851 61
L 851 61
L 851 61
L 851 61
L 851 61
L 851 61
L 851 61
L 852 61
L 852 61
L 852 61
L 852 61
L 852 61
L 852 61
L 852 61
L 852 61
L 852 61
L 852 60
L 852 60
L 852 60
L 852 60
L 852 60
L 852 60
L 852 60
L 852 60
L 852 60
L 852 60
L 852 60
L 852 60
L 852 60
L 852 60
L 852 60
L 852 60
L 852 60
L 852 60
L 852 60
L 853 59
L 853 59
L 853 59
L 853 59
L 853 59
L 853 59
L 853 59
L 853 59
L 853 59
L 853 59
L 853 59
L 853 59
L 853 59
L 853 59
L 853 59
L 853 59
L 853 59
L 853 59
L 853 58
L 853 58
L 853 58
L 853 58
L 853 58
L 853 58
L 853 58
L 853 58
L 853 58
L 853 58
L 854 58
L 854 58
L 854 58
L 854 58
L 854 58
L 854 58
L 854 58
L 854 58
L 854 58
L 854 57
L 854 57
L 854 57
L 854 57
L 854 57
L 854 57
L 854 57
L 854 57
L 854 57
L 854 57
L 854 57
L 854 57
L 854 57
L 854 57
L 854 57
L 854 57
L 854 57
L 854 57
L 854 56
L 855 56
L 855 56
L 855 56
L 855 56
L 855 56
L 855 56
L 855 56
L 855 56
L 855 56
L 855 56
L 855 56
L 855 56
L 855 56
L 855 56
L 855 56
L 855 56
L 855 56
L 855 56
L 855 55
L 856 55
L 856 55
L 856 55
L 856 55
L 856 55
L 856 55
L 856 55
L 856 55
L 856 55
L 856 55
L 856 55
L 856 55
L 856 55
L 856 55
L 857 55
L 857 55
L 857 55
L 857 54
L 857 54
L 857 54
L 857 54
L 858 54
L 858 54
L 858 54
L 858 54
L 858 54
L 858 54
L 858 54
L 858 54
L 858 54
L 859 54
L 859 54
L 859 54
L 859 54
L 859 54
L 860 54
L 860 53
L 862 53
L 862 53
L 862 53
L 863 53
L 863 53
L 863 53
L 864 53
L 864 53
L 864 53
L 864 53
L 864 53
L 864 53
L 864 53
L 864 53
L 865 53
L 865 53
L 865 53
L 865 52
L 865 52
L 865 52
L 865 52
L 865 52
L 865 52
L 865 52
L 865 52
L 865 52
L 865 52
L 865 52
L 865 52
L 865 52
L 865 52
L 865 52
L 865 52
L 865 52
L 865 52
L 865 52
L 865 51
L 865 51
L 865 51
L 865 51
L 865 51
L 865 51
L 866 51
L 866 51
L 866 51
L 866 51
L 866 51
L 866 51
L 866 51
L 866 51
L 866 51
L 866 51
L 866 51
L 866 51
L 866 50
L 866 50
L 866 50
L 866 50
L 866 50
L 866 50
L 866 50
L 866 50
L 866 50
L 866 50
L 866 50
L 866 50
L 867 50
L 867 50
L 867 50
L 867 50
L 867 50
L 867 50
L 867 50
L 867 49
L 867 49
L 867 49
L 867 49
L 867 49
L 867 49
L 867 49
L 867 49
L 867 49
L 867 49
L 868 49
L 868 49
L 868 49
L 868 49
L 868 49
L 868 49
L 868 49
L 868 49
L 868 48
L 868 48
L 868 48
L 868 48
L 868 48
L 868 48
L 868 48
L 868 48
L 868 48
L 868 48
L 869 48
L 869 48
L 869 48
L 869 48
L 869 48
L 869 48
L 869 48
L 869 48
L 869 48
L 869 47
L 869 47
L 869 47
L 869 47
L 869 47
L 869 47
L 869 47
L 869 47
L 869 47
L 869 47
L 869 47
L 869 47
L 869 47
L 869 47
L 869 47
L 870 47
L 870 47
L 870 47
L 870 46
L 870 46
L 870 46
L 870 46
L 870 46
L 870 46
L 870 46
L 870 46
L 870 46
L 870 46
L 870 46
L 870 46
L 870 46
L 870 46
L 871 46
L 871 46
L 871 46
L 871 46
L 871 46
L 871 45
L 871 45
L 872 45
L 872 45
L 872 45
L 872 45
L 873 45
L 873 45
L 873 45
L 873 45
L 873 45
L 873 45
L 873 45
L 873 45
L 873 45
L 874 45
L 874 45
L 874 45
L 874 45
L 874 44
L 874 44
L 874 44
L 875 44
L 875 44
L 878 44
L 879 44
L 879 44
L 879 44
L 879 44
L 879 44
L 879 44
L 879 44
L 879 44
L 880 44
L 880 44
L 880 44
L 880 44
L 880 43
L 880 43
L 880 43
L 880 43
L 880 43
L 880 43
L 880 43
L 880 43
L 880 43
L 880 43
L 880 43
L 880 43
L 880 43
L 880 43
L 880 43
L 880 43
L 880 43
L 880 43
L 880 43
L 880 42
L 881 42
L 881 42
L 881 42
L 881 42
L 881 42
L 881 42
L 881 42
L 881 42
L 881 42
L 881 42
L 881 42
L 881 42
L 881 42
L 881 42
L 881 42
L 881 42
L 881 42
L 881 41
L 881 41
L 881 41
L 882 41
L 882 41
L 882 41
L 882 41
L 882 41
L 882 41
L 882 41
L 882 41
L 882 41
L 882 41
L 883 41
L 883 41
L 883 41
L 883 41
L 883 41
L 883 41
L 883 40
L 883 40
L 883 40
L 883 40
L 883 40
L 883 40
L 883 40
L 883 40
L 883 40
L 883 40
L 883 40
L 884 40
L 884 40
L 884 40
L 884 40
L 884 40
L 884 40
L 884 40
L 884 39
L 884 39
L 884 39
L 884 39
L 884 39
L 884 39
L 884 39
L 884 39
L 884 39
L 884 39
L 885 39
L 885 39
L 885 39
L 885 39
L 885 39
L 885 39
L 885 39
L 885 39
L 885 39
L 885 38
L 885 38
L 885 38
L 885 38
L 885 38
L 885 38
L 885 38
L 886 38
L 886 38
L 886 38
L 886 38
L 886 38
L 886 38
L 887 38
L 887 38
L 887 38
L 887 38
L 887 38
L 888 37
L 888 37
L 888 37
L 888 37
L 888 37
L 889 37
L 889 37
L 889 37
L 892 37
L 895 37
L 895 37
L 895 37
L 895 37
L 896 37
L 896 37
L 896 37
L 896 37
L 896 37
L 897 37
L 897 36
L 897 36
L 898 36
L 898 36
L 898 36
L 898 36
L 898 36
L 898 36
L 899 36
L 899 36
L 899 36
L 899 36
L 900 36
L 900 36
L 900 36
L 900 36
L 901 36
L 901 36
L 901 35
L 901 35
L 901 35
L 901 35
L 902 35
L 902 35
L 902 35
L 902 35
L 902 35
L 902 35
L 902 35
L 902 35
L 902 35
L 902 35
L 902 35
L 903 35
L 903 35
L 903 35
L 903 35
L 903 34
L 903 34
L 903 34
L 903 34
L 903 34
L 903 34
L 904 34
L 904 34
L 904 34
L 904 34
L 904 34
L 904 34
L 904 34
L 904 34
L 905 34
L 905 34
L 905 34
L 905 34
L 906 33
L 906 33
L 909 33
L 909 33
L 910 33
L 910 33
L 910 33
L 910 33
L 910 33
L 911 33
L 911 33
L 911 33
L 911 33
L 911 33
L 912 33
L 912 33
L 912 33
L 912 33
L 912 33
L 912 32
L 912 32
L 913 32
L 913 32
L 914 32
L 914 32
L 915 32
L 916 32
L 916 32
L 917 32
L 917 32
L 917 32
L 917 32
L 917 32
L 917 32
L 917 32
L 917 32
L 917 32
L 918 31
L 918 31
L 918 31
L 918 31
L 918 31
L 918 31
L 918 31
L 918 31
L 918 31
L 919 31
L 919 31
L 919 31
L 919 31
L 923 31
L 923 31
L 924 31
L 924 31
L 925 31
L 925 31
L 925 30
L 925 30
L 925 30
L 925 30
L 925 30
L 925 30
L 925 30
L 925 30
L 925 30
L 925 30
L 925 30
L 925 30
L 925 30
L 925 30
L 925 30
L 925 30
L 925 30
L 925 30
L 925 29
L 925 29
L 925 29
L 925 29
L 925 29
L 925 29
L 926 29
L 926 29
L 926 29
L 926 29
L 926 29
L 926 29
L 926 29
L 926 29
L 926 29
L 926 29
L 926 29
L 926 29
L 926 29
L 926 28
L 926 28
L 926 28
L 926 28
L 927 28
L 927 28
L 927 28
L 927 28
L 927 28
L 927 28
L 927 28
L 927 28
L 928 28
L 928 28
L 928 28
L 928 28
L 928 28
L 928 28
L 928 28
L 928 27
L 928 27
L 928 27
L 928 27
L 928 27
L 928 27
L 928 27
L 928 27
L 928 27
L 928 27
L 928 27
L 929 27
L 929 27
L 929 27
L 929 27
L 929 27
L 929 27
L 929 27
L 929 26
L 929 26
L 929 26
L 929 26
L 929 26
L 929 26
L 929 26
L 929 26
L 929 26
L 929 26
L 929 26
L 929 26
L 929 26
L 929 26
L 929 26
L 929 26
L 929 26
L 930 26
L 930 26
L 930 25
L 930 25
L 930 25
L 930 25
L 930 25
L 930 25
L 930 25
L 930 25
L 930 25
L 930 25
L 930 25
L 931 25
L 931 25
L 931 25
L 931 25
L 931 25
L 931 25
L 931 25
L 932 24
L 932 24
L 932 24
L 932 24
L 932 24
L 932 24
L 932 24
L 932 24
L 932 24
L 932 24
L 933 24
L 933 24
L 933 24
L 933 24
L 933 24
L 933 24
L 934 24
L 934 24
L 934 24
L 934 23
L 937 23
L 939 23
L 939 23
L 939 23
L 940 23
L 940 23
L 940 23
L 940 23
L 940 23
L 940 23
L 940 23
L 940 23
L 940 23
L 940 23
L 940 23
L 940 23
L 940 23
L 940 22
L 941 22
L 941 22
L 941 22
L 941 22
L 941 22
L 941 22
L 941 22
L 941 22
L 941 22
L 941 22
L 941 22
L 941 22
L 941 22
L 941 22
L 941 22
L 941 22
L 941 22
L 941 22
L 941 21
L 942 21
L 942 21
L 942 21
L 942 21
L 942 21
L 942 21
L 942 21
L 942 21
L 942 21
L 942 21
L 942 21
L 942 21
L 943 21
L 943 21
L 943 21
L 943 21
L 943 21
L 943 20
L 943 20
L 943 20
L 943 20
L 943 20
L 943 20
L 943 20
L 943 20
L 943 20
L 943 20
L 943 20
L 943 20
L 943 20
L 943 20
L 943 20
L 944 20
L 944 20
L 944 20
L 944 20
L 944 19
L 944 19
L 944 19
L 944 19
L 944 19
L 944 19
L 944 19
L 944 19
L 944 19
L 944 19
L 944 19
L 944 19
L 945 19
L 945 19
L 945 19
L 945 19
L 945 19
L 945 19
L 945 18
L 945 18
L 945 18
L 945 18
L 945 18
L 945 18
L 945 18
L 945 18
L 945 18
L 945 18
L 945 18
L 945 18
L 945 18
L 945 18
L 946 18
L 946 18
L 946 18
L 946 18
L 946 18
L 946 17
L 946 17
L 946 17
L 946 17
L 946 17
L 946 17
L 947 17
L 947 17
L 947 17
L 947 17
L 947 17
L 947 17
L 947 17
L 947 17
L 947 17
L 947 17
L 947 17
L 947 17
L 947 16
L 948 16
L 948 16
L 948 16
L 948 16
L 948 16
L 948 16
L 948 16
L 948 16
L 948 16
L 948 16
L 948 16
L 948 16
L 948 16
L 948 16
L 948 16
L 948 16
L 949 16
L 949 16
L 949 15
L 949 15
L 949 15
L 949 15
L 949 15
L 949 15
L 949 15
L 950 15
L 950 15
L 950 15
L 951 15
L 951 15
L 951 15
L 951 15
L 951 15
L 952 15
L 954 15
L 954 15
L 954 14
L 954 14
L 954 14
L 955 14
L 955 14
L 955 14
L 955 14
L 955 14
L 955 14
L 955 14
L 955 14
L 955 14
L 955 14
L 955 14
L 955 14
L 955 14
L 955 14
L 955 14
L 955 14
L 955 13
L 955 13
L 955 13
L 955 13
L 955 13
L 955 13
L 955 13
L 955 13
L 955 13
L 955 13
L 955 13
L 955 13
L 955 13
L 955 13
L 955 13
L 955 13
L 956 13
L 956 13
L 956 12
L 956 12
L 956 12
L 956 12
L 956 12
L 956 12
L 956 12
L 956 12
L 956 12
L 956 12
L 956 12
L 956 12
L 956 12
L 956 12
L 956 12
L 956 12
L 957 12
L 957 12
L 957 12
L 957 11
L 957 11
L 957 11
L 957 11
L 957 11
L 957 11
L 957 11
L 957 11
L 957 11
L 957 11
L 957 11
L 957 11
L 957 11
L 957 11
L 957 11
L 957 11
L 957 11
L 957 11" style="stroke-width:2;stroke:rgba(129,199,239,1.0);fill:none"/></svg>