<svg xmlns="http://www.w3.org/2000/svg" xmlns:xlink="http://www.w3.org/1999/xlink" width="1024" height="400">\n<path  d="M 0 0
L 1024 0
L 1024 400
L 0 400
L 0 0" style="stroke-width:0;stroke:rgba(255,255,255,1.0);fill:rgba(255,255,255,1.0)"/><path  d="M 38 11
L 957 11
L 957 351
L 38 351
L 38 11" style="stroke-width:0;stroke:rgba(255,255,255,1.0);fill:rgba(255,255,255,1.0)"/><path  d="M 38 351
L 957 351" style="stroke-width:2;stroke:rgba(85,85,85,1.0);fill:none"/><path  d="M 38 351
L 38 356" style="stroke-width:2;stroke:rgba(85,85,85,1.0);fill:none"/><text x="5" y="373" style="stroke-width:0;stroke:none;fill:rgba(51,51,51,1.0);font-size:12.8px;font-family:'Roboto Medium',sans-serif">2018-11-23</text><path  d="M 153 351
L 153 356" style="stroke-width:2;stroke:rgba(85,85,85,1.0);fill:none"/><text x="120" y="373" style="stroke-width:0;stroke:none;fill:rgba(51,51,51,1.0);font-size:12.8px;font-family:'Roboto Medium',sans-serif">2018-12-02</text><path  d="M 268 351
L 268 356" style="stroke-width:2;stroke:rgba(85,85,85,1.0);fill:none"/><text x="235" y="373" style="stroke-width:0;stroke:none;fill:rgba(51,51,51,1.0);font-size:12.8px;font-family:'Roboto Medium',sans-serif">2018-12-11</text><path  d="M 383 351
L 383 356" style="stroke-width:2;stroke:rgba(85,85,85,1.0);fill:none"/><text x="350" y="373" style="stroke-width:0;stroke:none;fill:rgba(51,51,51,1.0);font-size:12.8px;font-family:'Roboto Medium',sans-serif">2018-12-20</text><path  d="M 498 351
L 498 356" style="stroke-width:2;stroke:rgba(85,85,85,1.0);fill:none"/><text x="465" y="373" style="stroke-width:0;stroke:none;fill:rgba(51,51,51,1.0);font-size:12.8px;font-family:'Roboto Medium',sans-serif">2018-12-29</text><path  d="M 613 351
L 613 356" style="stroke-width:2;stroke:rgba(85,85,85,1.0);fill:none"/><text x="580" y="373" style="stroke-width:0;stroke:none;fill:rgba(51,51,51,1.0);font-size:12.8px;font-family:'Roboto Medium',sans-serif">2019-01-07</text><path  d="M 728 351
L 728 356" style="stroke-width:2;stroke:rgba(85,85,85,1.0);fill:none"/><text x="695" y="373" style="stroke-width:0;stroke:none;fill:rgba(51,51,51,1.0);font-size:12.8px;font-family:'Roboto Medium',sans-serif">2019-01-16</text><path  d="M 843 351
L 843 356" style="stroke-width:2;stroke:rgba(85,85,85,1.0);fill:none"/><text x="810" y="373" style="stroke-width:0;stroke:none;fill:rgba(51,51,51,1.0);font-size:12.8px;font-family:'Roboto Medium',sans-serif">2019-01-25</text><path  d="M 957 351
L 957 356" style="stroke-width:2;stroke:rgba(85,85,85,1.0);fill:none"/><text x="924" y="373" style="stroke-width:0;stroke:none;fill:rgba(51,51,51,1.0);font-size:12.8px;font-family:'Roboto Medium',sans-serif">2019-02-03</text><text x="483" y="395" style="stroke-width:0;stroke:none;fill:rgba(51,51,51,1.0);font-size:12.8px;font-family:'Roboto Medium',sans-serif">Time</text><path  d="M 959 351
L 959 11" style="stroke-width:2;stroke:rgba(85,85,85,1.0);fill:none"/><path  d="M 959 351
L 964 351" style="stroke-width:2;stroke:rgba(85,85,85,1.0);fill:none"/><text x="969" y="357" style="stroke-width:0;stroke:none;fill:rgba(51,51,51,1.0);font-size:12.8px;font-family:'Roboto Medium',sans-serif">0</text><path  d="M 959 308
L 964 308" style="stroke-width:2;stroke:rgba(85,85,85,1.0);fill:none"/><text x="969" y="314" style="stroke-width:0;stroke:none;fill:rgba(51,51,51,1.0);font-size:12.8px;font-family:'Roboto Medium',sans-serif">920</text><path  d="M 959 265
L 964 265" style="stroke-width:2;stroke:rgba(85,85,85,1.0);fill:none"/><text x="969" y="271" style="stroke-width:0;stroke:none;fill:rgba(51,51,51,1.0);font-size:12.8px;font-family:'Roboto Medium',sans-serif">1830</text><path  d="M 959 223
L 964 223" style="stroke-width:2;stroke:rgba(85,85,85,1.0);fill:none"/><text x="969" y="229" style="stroke-width:0;stroke:none;fill:rgba(51,51,51,1.0);font-size:12.8px;font-family:'Roboto Medium',sans-serif">2740</text><path  d="M 959 181
L 964 181" style="stroke-width:2;stroke:rgba(85,85,85,1.0);fill:none"/><text x="969" y="187" style="stroke-width:0;stroke:none;fill:rgba(51,51,51,1.0);font-size:12.8px;font-family:'Roboto Medium',sans-serif">3650</text><path  d="M 959 138
L 964 138" style="stroke-width:2;stroke:rgba(85,85,85,1.0);fill:none"/><text x="969" y="144" style="stroke-width:0;stroke:none;fill:rgba(51,51,51,1.0);font-size:12.8px;font-family:'Roboto Medium',sans-serif">4570</text><path  d="M 959 95
L 964 95" style="stroke-width:2;stroke:rgba(85,85,85,1.0);fill:none"/><text x="969" y="101" style="stroke-width:0;stroke:none;fill:rgba(51,51,51,1.0);font-size:12.8px;font-family:'Roboto Medium',sans-serif">5480</text><path  d="M 959 53
L 964 53" style="stroke-width:2;stroke:rgba(85,85,85,1.0);fill:none"/><text x="969" y="59" style="stroke-width:0;stroke:none;fill:rgba(51,51,51,1.0);font-size:12.8px;font-family:'Roboto Medium',sans-serif">6390</text><path  d="M 959 11
L 964 11" style="stroke-width:2;stroke:rgba(85,85,85,1.0);fill:none"/><text x="969" y="17" style="stroke-width:0;stroke:none;fill:rgba(51,51,51,1.0);font-size:12.8px;font-family:'Roboto Medium',sans-serif">7300</text><text x="1009" y="150" style="stroke-width:0;stroke:none;fill:rgba(51,51,51,1.0);font-size:12.8px;font-family:'Roboto Medium',sans-serif" transform="rotate(90.00,1009,150)">Stargazers</text><path  d="M 38 351
L 105 350
L 152 350
L 154 350
L 164 350
L 164 350
L 164 350
L 165 350
L 165 350
L 165 350
L 166 350
L 166 350
L 166 350
L 166 350
L 166 350
L 166 350
L 166 350
L 167 350
L 167 350
L 167 350
L 167 350
L 167 350
L 169 349
L 170 349
L 177 349
L 177 349
L 177 349
L 177 349
L 178 349
L 179 349
L 181 349
L 182 349
L 183 349
L 183 349
L 183 349
L 183 349
L 183 349
L 183 349
L 187 349
L 188 349
L 189 349
L 189 349
L 189 349
L 189 348
L 190 348
L 190 348
L 190 348
L 190 348
L 191 348
L 191 348
L 192 348
L 193 348
L 193 348
L 193 348
L 193 348
L 193 348
L 193 348
L 194 348
L 194 348
L 195 348
L 195 348
L 195 348
L 195 348
L 196 348
L 196 348
L 197 347
L 197 347
L 197 347
L 197 347
L 201 347
L 202 347
L 202 347
L 202 347
L 203 347
L 203 347
L 203 347
L 203 347
L 203 347
L 204 347
L 204 347
L 204 347
L 204 347
L 204 347
L 204 347
L 204 347
L 204 347
L 204 346
L 204 346
L 204 346
L 204 346
L 204 346
L 204 346
L 204 346
L 204 346
L 204 346
L 204 346
L 204 346
L 204 346
L 204 346
L 204 346
L 204 346
L 204 346
L 204 346
L 204 346
L 204 346
L 204 346
L 204 346
L 204 346
L 205 345
L 205 345
L 205 345
L 205 345
L 205 345
L 205 345
L 205 345
L 205 345
L 205 345
L 205 345
L 205 345
L 205 345
L 205 345
L 205 345
L 205 345
L 205 345
L 205 345
L 205 345
L 205 345
L 205 345
L 206 345
L 206 344
L 206 344
L 206 344
L 206 344
L 206 344
L 206 344
L 207 344
L 207 344
L 207 344
L 207 344
L 207 344
L 207 344
L 207 344
L 207 344
L 207 344
L 207 344
L 208 344
L 208 344
L 208 344
L 208 344
L 208 344
L 208 344
L 208 343
L 210 343
L 210 343
L 214 343
L 215 343
L 215 343
L 215 343
L 215 343
L 215 343
L 215 343
L 216 343
L 216 343
L 217 343
L 217 343
L 217 343
L 217 343
L 217 343
L 218 343
L 218 343
L 218 343
L 218 343
L 219 342
L 219 342
L 219 342
L 219 342
L 219 342
L 219 342
L 220 342
L 227 342
L 228 342
L 228 342
L 228 342
L 228 342
L 229 342
L 231 342
L 231 342
L 235 342
L 235 342
L 236 342
L 237 342
L 241 342
L 241 342
L 243 342
L 243 341
L 244 341
L 245 341
L 245 341
L 245 341
L 245 341
L 246 341
L 246 341
L 246 341
L 246 341
L 246 341
L 249 341
L 253 341
L 253 341
L 253 341
L 254 341
L 254 341
L 254 341
L 255 341
L 256 341
L 260 341
L 260 340
L 266 340
L 268 340
L 268 340
L 269 340
L 269 340
L 271 340
L 271 340
L 278 340
L 279 340
L 279 340
L 279 340
L 279 340
L 281 340
L 281 340
L 283 340
L 283 340
L 286 340
L 287 340
L 291 340
L 296 340
L 297 340
L 303 339
L 305 339
L 305 339
L 306 339
L 306 339
L 307 339
L 307 339
L 309 339
L 310 339
L 310 339
L 310 339
L 311 339
L 312 339
L 314 339
L 317 339
L 319 339
L 319 339
L 319 339
L 320 339
L 321 339
L 321 339
L 322 338
L 323 338
L 324 338
L 324 338
L 325 338
L 329 338
L 329 338
L 329 338
L 331 338
L 332 338
L 334 338
L 335 338
L 335 338
L 336 338
L 341 338
L 342 338
L 342 338
L 342 338
L 342 338
L 343 338
L 346 338
L 346 338
L 348 337
L 349 337
L 355 337
L 356 337
L 358 337
L 358 337
L 359 337
L 359 337
L 359 337
L 361 337
L 361 337
L 362 337
L 363 337
L 367 337
L 368 337
L 369 337
L 370 337
L 370 337
L 370 337
L 370 337
L 371 337
L 373 336
L 380 336
L 380 336
L 380 336
L 380 336
L 382 336
L 382 336
L 384 336
L 384 336
L 384 336
L 386 336
L 386 336
L 386 336
L 387 336
L 387 336
L 388 336
L 393 336
L 394 336
L 394 336
L 394 336
L 394 336
L 394 336
L 394 335
L 394 335
L 394 335
L 394 335
L 395 335
L 395 335
L 396 335
L 396 335
L 396 335
L 396 335
L 396 335
L 396 335
L 396 335
L 396 335
L 396 335
L 396 335
L 396 335
L 396 335
L 396 335
L 396 335
L 396 335
L 396 334
L 396 334
L 396 334
L 396 334
L 397 334
L 397 334
L 397 334
L 397 334
L 397 334
L 397 334
L 397 334
L 397 334
L 397 334
L 397 334
L 397 334
L 397 334
L 397 334
L 397 334
L 397 334
L 397 334
L 397 334
L 397 334
L 397 333
L 397 333
L 397 333
L 397 333
L 398 333
L 398 333
L 398 333
L 398 333
L 398 333
L 398 333
L 398 333
L 398 333
L 398 333
L 398 333
L 398 333
L 399 333
L 399 333
L 399 333
L 399 333
L 399 333
L 399 333
L 399 332
L 399 332
L 399 332
L 399 332
L 399 332
L 400 332
L 400 332
L 400 332
L 400 332
L 401 332
L 401 332
L 401 332
L 401 332
L 405 332
L 406 332
L 406 332
L 406 332
L 406 332
L 406 332
L 406 332
L 406 332
L 406 331
L 406 331
L 406 331
L 407 331
L 407 331
L 407 331
L 407 331
L 407 331
L 407 331
L 407 331
L 407 331
L 407 331
L 407 331
L 407 331
L 408 331
L 408 331
L 408 331
L 408 331
L 408 331
L 408 331
L 408 331
L 408 331
L 408 330
L 408 330
L 409 330
L 409 330
L 409 330
L 409 330
L 409 330
L 409 330
L 409 330
L 409 330
L 409 330
L 409 330
L 409 330
L 409 330
L 409 330
L 409 330
L 409 330
L 409 330
L 409 330
L 409 330
L 409 330
L 410 329
L 410 329
L 410 329
L 410 329
L 410 329
L 410 329
L 410 329
L 410 329
L 410 329
L 410 329
L 410 329
L 410 329
L 410 329
L 410 329
L 410 329
L 410 329
L 410 329
L 410 329
L 410 329
L 411 329
L 411 329
L 411 329
L 411 328
L 411 328
L 411 328
L 411 328
L 411 328
L 411 328
L 412 328
L 412 328
L 412 328
L 412 328
L 412 328
L 412 328
L 412 328
L 412 328
L 412 328
L 412 328
L 412 328
L 412 328
L 412 328
L 412 328
L 412 328
L 412 327
L 412 327
L 412 327
L 413 327
L 413 327
L 413 327
L 413 327
L 413 327
L 413 327
L 413 327
L 413 327
L 413 327
L 413 327
L 413 327
L 413 327
L 413 327
L 413 327
L 413 327
L 413 327
L 413 327
L 413 327
L 413 327
L 414 326
L 414 326
L 414 326
L 414 326
L 414 326
L 414 326
L 414 326
L 414 326
L 415 326
L 415 326
L 416 326
L 417 326
L 418 326
L 418 326
L 418 326
L 418 326
L 418 326
L 418 326
L 418 326
L 418 326
L 418 326
L 419 325
L 419 325
L 419 325
L 419 325
L 419 325
L 419 325
L 419 325
L 419 325
L 419 325
L 419 325
L 419 325
L 419 325
L 419 325
L 419 325
L 419 325
L 419 325
L 419 325
L 419 325
L 419 325
L 420 325
L 420 325
L 420 325
L 420 324
L 420 324
L 420 324
L 420 324
L 420 324
L 420 324
L 420 324
L 420 324
L 420 324
L 420 324
L 420 324
L 420 324
L 420 324
L 420 324
L 420 324
L 421 324
L 421 324
L 421 324
L 421 324
L 421 324
L 421 324
L 421 323
L 421 323
L 421 323
L 421 323
L 421 323
L 421 323
L 421 323
L 421 323
L 421 323
L 421 323
L 421 323
L 421 323
L 421 323
L 421 323
L 422 323
L 422 323
L 422 323
L 422 323
L 422 323
L 422 323
L 422 323
L 422 323
L 422 322
L 422 322
L 422 322
L 422 322
L 422 322
L 422 322
L 422 322
L 422 322
L 422 322
L 422 322
L 422 322
L 423 322
L 423 322
L 423 322
L 423 322
L 423 322
L 423 322
L 423 322
L 423 322
L 423 322
L 423 322
L 423 321
L 424 321
L 424 321
L 424 321
L 424 321
L 424 321
L 424 321
L 424 321
L 424 321
L 424 321
L 424 321
L 424 321
L 424 321
L 424 321
L 424 321
L 424 321
L 424 321
L 424 321
L 424 321
L 424 321
L 424 321
L 424 321
L 424 320
L 425 320
L 425 320
L 425 320
L 425 320
L 425 320
L 425 320
L 425 320
L 425 320
L 425 320
L 425 320
L 425 320
L 425 320
L 425 320
L 425 320
L 425 320
L 425 320
L 425 320
L 425 320
L 425 320
L 425 320
L 425 319
L 425 319
L 425 319
L 425 319
L 426 319
L 426 319
L 426 319
L 426 319
L 426 319
L 426 319
L 426 319
L 426 319
L 426 319
L 426 319
L 426 319
L 426 319
L 426 319
L 426 319
L 426 319
L 426 319
L 426 319
L 426 319
L 427 318
L 427 318
L 427 318
L 427 318
L 427 318
L 428 318
L 428 318
L 428 318
L 429 318
L 430 318
L 430 318
L 430 318
L 430 318
L 430 318
L 430 318
L 431 318
L 431 318
L 431 318
L 431 318
L 431 318
L 431 318
L 431 317
L 431 317
L 431 317
L 431 317
L 431 317
L 431 317
L 431 317
L 431 317
L 431 317
L 431 317
L 431 317
L 431 317
L 431 317
L 431 317
L 431 317
L 431 317
L 431 317
L 431 317
L 431 317
L 431 317
L 431 317
L 431 317
L 431 316
L 431 316
L 431 316
L 431 316
L 431 316
L 431 316
L 431 316
L 431 316
L 431 316
L 431 316
L 431 316
L 431 316
L 431 316
L 431 316
L 431 316
L 431 316
L 431 316
L 431 316
L 431 316
L 431 316
L 431 316
L 431 315
L 431 315
L 431 315
L 431 315
L 431 315
L 431 315
L 431 315
L 431 315
L 431 315
L 431 315
L 431 315
L 431 315
L 431 315
L 431 315
L 431 315
L 431 315
L 431 315
L 431 315
L 431 315
L 431 315
L 431 315
L 431 314
L 431 314
L 431 314
L 431 314
L 431 314
L 432 314
L 432 314
L 432 314
L 432 314
L 432 314
L 432 314
L 432 314
L 432 314
L 432 314
L 432 314
L 432 314
L 432 314
L 432 314
L 432 314
L 432 314
L 432 314
L 432 314
L 432 313
L 432 313
L 432 313
L 432 313
L 432 313
L 432 313
L 432 313
L 432 313
L 432 313
L 432 313
L 432 313
L 432 313
L 432 313
L 432 313
L 432 313
L 432 313
L 432 313
L 432 313
L 432 313
L 432 313
L 432 313
L 432 312
L 432 312
L 432 312
L 432 312
L 432 312
L 432 312
L 432 312
L 432 312
L 432 312
L 432 312
L 432 312
L 432 312
L 432 312
L 432 312
L 432 312
L 432 312
L 432 312
L 432 312
L 433 312
L 433 312
L 433 312
L 433 312
L 433 311
L 433 311
L 433 311
L 433 311
L 433 311
L 433 311
L 433 311
L 433 311
L 433 311
L 433 311
L 433 311
L 433 311
L 433 311
L 433 311
L 433 311
L 433 311
L 433 311
L 433 311
L 433 311
L 433 311
L 433 311
L 433 310
L 433 310
L 433 310
L 433 310
L 433 310
L 433 310
L 433 310
L 433 310
L 433 310
L 433 310
L 433 310
L 433 310
L 433 310
L 433 310
L 433 310
L 433 310
L 433 310
L 433 310
L 433 310
L 434 310
L 434 310
L 434 310
L 434 309
L 434 309
L 434 309
L 434 309
L 434 309
L 434 309
L 434 309
L 434 309
L 434 309
L 434 309
L 434 309
L 434 309
L 434 309
L 434 309
L 434 309
L 434 309
L 434 309
L 434 309
L 434 309
L 434 309
L 434 309
L 434 308
L 434 308
L 434 308
L 434 308
L 434 308
L 434 308
L 434 308
L 434 308
L 434 308
L 434 308
L 434 308
L 434 308
L 434 308
L 434 308
L 434 308
L 434 308
L 434 308
L 434 308
L 434 308
L 434 308
L 434 308
L 434 308
L 434 307
L 434 307
L 434 307
L 434 307
L 434 307
L 434 307
L 434 307
L 434 307
L 434 307
L 434 307
L 434 307
L 434 307
L 434 307
L 434 307
L 434 307
L 434 307
L 434 307
L 434 307
L 434 307
L 434 307
L 434 307
L 434 306
L 434 306
L 434 306
L 434 306
L 434 306
L 434 306
L 435 306
L 435 306
L 435 306
L 435 306
L 435 306
L 435 306
L 435 306
L 435 306
L 435 306
L 435 306
L 435 306
L 435 306
L 435 306
L 435 306
L 435 306
L 435 306
L 435 305
L 435 305
L 435 305
L 435 305
L 435 305
L 435 305
L 435 305
L 435 305
L 435 305
L 435 305
L 435 305
L 435 305
L 435 305
L 435 305
L 435 305
L 435 305
L 435 305
L 435 305
L 435 305
L 435 305
L 435 305
L 435 304
L 435 304
L 435 304
L 435 304
L 435 304
L 435 304
L 435 304
L 435 304
L 435 304
L 436 304
L 436 304
L 436 304
L 436 304
L 436 304
L 436 304
L 436 304
L 436 304
L 436 304
L 436 304
L 436 304
L 436 304
L 436 304
L 436 303
L 436 303
L 436 303
L 436 303
L 436 303
L 436 303
L 436 303
L 436 303
L 436 303
L 436 303
L 436 303
L 436 303
L 436 303
L 436 303
L 436 303
L 436 303
L 436 303
L 436 303
L 436 303
L 436 303
L 436 303
L 436 302
L 436 302
L 436 302
L 436 302
L 436 302
L 436 302
L 436 302
L 437 302
L 437 302
L 437 302
L 437 302
L 437 302
L 437 302
L 437 302
L 437 302
L 437 302
L 437 302
L 437 302
L 437 302
L 437 302
L 437 302
L 437 302
L 437 301
L 437 301
L 437 301
L 437 301
L 437 301
L 437 301
L 438 301
L 438 301
L 438 301
L 438 301
L 438 301
L 438 301
L 438 301
L 438 301
L 438 301
L 438 301
L 438 301
L 438 301
L 438 301
L 438 301
L 438 301
L 438 300
L 438 300
L 438 300
L 438 300
L 438 300
L 438 300
L 438 300
L 438 300
L 438 300
L 438 300
L 439 300
L 439 300
L 439 300
L 439 300
L 439 300
L 439 300
L 439 300
L 439 300
L 439 300
L 439 300
L 439 300
L 439 300
L 439 299
L 440 299
L 440 299
L 440 299
L 440 299
L 441 299
L 443 299
L 443 299
L 443 299
L 443 299
L 443 299
L 443 299
L 443 299
L 444 299
L 444 299
L 444 299
L 444 299
L 444 299
L 444 299
L 444 299
L 444 299
L 444 298
L 444 298
L 444 298
L 444 298
L 444 298
L 444 298
L 444 298
L 444 298
L 444 298
L 444 298
L 444 298
L 444 298
L 444 298
L 444 298
L 444 298
L 444 298
L 444 298
L 444 298
L 444 298
L 444 298
L 444 298
L 444 297
L 444 297
L 444 297
L 444 297
L 444 297
L 444 297
L 444 297
L 444 297
L 444 297
L 444 297
L 444 297
L 444 297
L 444 297
L 444 297
L 444 297
L 444 297
L 444 297
L 444 297
L 444 297
L 444 297
L 444 297
L 444 297
L 444 296
L 444 296
L 444 296
L 444 296
L 444 296
L 444 296
L 444 296
L 444 296
L 444 296
L 444 296
L 444 296
L 444 296
L 444 296
L 444 296
L 444 296
L 444 296
L 444 296
L 444 296
L 444 296
L 444 296
L 444 296
L 444 295
L 444 295
L 444 295
L 444 295
L 444 295
L 444 295
L 444 295
L 444 295
L 444 295
L 444 295
L 444 295
L 444 295
L 444 295
L 444 295
L 444 295
L 444 295
L 444 295
L 444 295
L 444 295
L 444 295
L 444 295
L 444 295
L 444 294
L 445 294
L 445 294
L 445 294
L 445 294
L 445 294
L 445 294
L 445 294
L 445 294
L 445 294
L 445 294
L 445 294
L 445 294
L 445 294
L 445 294
L 445 294
L 445 294
L 445 294
L 445 294
L 445 294
L 445 294
L 445 293
L 445 293
L 445 293
L 445 293
L 445 293
L 445 293
L 445 293
L 445 293
L 445 293
L 445 293
L 445 293
L 445 293
L 445 293
L 445 293
L 445 293
L 445 293
L 445 293
L 445 293
L 445 293
L 445 293
L 445 293
L 445 293
L 445 292
L 445 292
L 445 292
L 445 292
L 445 292
L 445 292
L 445 292
L 445 292
L 446 292
L 446 292
L 446 292
L 446 292
L 446 292
L 446 292
L 446 292
L 446 292
L 446 292
L 446 292
L 446 292
L 446 292
L 446 292
L 446 291
L 446 291
L 446 291
L 446 291
L 446 291
L 446 291
L 446 291
L 446 291
L 446 291
L 446 291
L 446 291
L 446 291
L 446 291
L 446 291
L 446 291
L 446 291
L 446 291
L 446 291
L 446 291
L 446 291
L 446 291
L 446 291
L 446 290
L 446 290
L 446 290
L 446 290
L 446 290
L 446 290
L 446 290
L 446 290
L 446 290
L 446 290
L 447 290
L 447 290
L 447 290
L 447 290
L 447 290
L 447 290
L 447 290
L 447 290
L 447 290
L 447 290
L 447 290
L 447 289
L 447 289
L 447 289
L 447 289
L 447 289
L 447 289
L 447 289
L 447 289
L 447 289
L 447 289
L 447 289
L 447 289
L 447 289
L 447 289
L 447 289
L 447 289
L 447 289
L 447 289
L 447 289
L 447 289
L 447 289
L 447 289
L 447 288
L 447 288
L 447 288
L 447 288
L 447 288
L 447 288
L 447 288
L 447 288
L 447 288
L 447 288
L 447 288
L 447 288
L 447 288
L 447 288
L 447 288
L 447 288
L 447 288
L 448 288
L 448 288
L 448 288
L 448 288
L 448 287
L 448 287
L 448 287
L 448 287
L 448 287
L 448 287
L 448 287
L 448 287
L 448 287
L 448 287
L 448 287
L 448 287
L 448 287
L 448 287
L 448 287
L 448 287
L 448 287
L 448 287
L 448 287
L 448 287
L 448 287
L 448 287
L 448 286
L 448 286
L 448 286
L 448 286
L 448 286
L 448 286
L 448 286
L 448 286
L 448 286
L 448 286
L 448 286
L 448 286
L 448 286
L 448 286
L 448 286
L 448 286
L 448 286
L 448 286
L 448 286
L 448 286
L 448 286
L 449 285
L 449 285
L 449 285
L 449 285
L 449 285
L 449 285
L 449 285
L 449 285
L 449 285
L 449 285
L 449 285
L 449 285
L 449 285
L 449 285
L 449 285
L 449 285
L 449 285
L 449 285
L 449 285
L 449 285
L 449 285
L 449 285
L 449 284
L 449 284
L 449 284
L 449 284
L 449 284
L 449 284
L 449 284
L 449 284
L 449 284
L 449 284
L 449 284
L 449 284
L 449 284
L 449 284
L 449 284
L 449 284
L 449 284
L 449 284
L 449 284
L 449 284
L 449 284
L 449 283
L 449 283
L 449 283
L 449 283
L 449 283
L 449 283
L 449 283
L 449 283
L 449 283
L 449 283
L 449 283
L 449 283
L 449 283
L 449 283
L 449 283
L 449 283
L 449 283
L 450 283
L 450 283
L 450 283
L 450 283
L 450 283
L 450 282
L 450 282
L 450 282
L 450 282
L 450 282
L 450 282
L 450 282
L 450 282
L 450 282
L 450 282
L 450 282
L 450 282
L 450 282
L 450 282
L 450 282
L 450 282
L 450 282
L 450 282
L 450 282
L 450 282
L 450 282
L 450 281
L 450 281
L 450 281
L 450 281
L 450 281
L 450 281
L 450 281
L 450 281
L 450 281
L 450 281
L 450 281
L 450 281
L 450 281
L 450 281
L 451 281
L 451 281
L 451 281
L 451 281
L 451 281
L 451 281
L 451 281
L 451 280
L 451 280
L 451 280
L 451 280
L 451 280
L 451 280
L 451 280
L 451 280
L 451 280
L 451 280
L 451 280
L 451 280
L 451 280
L 451 280
L 451 280
L 451 280
L 451 280
L 451 280
L 451 280
L 452 280
L 452 280
L 452 280
L 452 279
L 452 279
L 452 279
L 452 279
L 452 279
L 452 279
L 452 279
L 452 279
L 452 279
L 452 279
L 453 279
L 453 279
L 453 279
L 453 279
L 453 279
L 454 279
L 455 279
L 456 279
L 456 279
L 456 279
L 456 279
L 456 278
L 456 278
L 456 278
L 456 278
L 456 278
L 456 278
L 456 278
L 456 278
L 456 278
L 456 278
L 456 278
L 456 278
L 456 278
L 456 278
L 456 278
L 456 278
L 456 278
L 456 278
L 456 278
L 456 278
L 456 278
L 456 278
L 456 277
L 456 277
L 456 277
L 457 277
L 457 277
L 457 277
L 457 277
L 457 277
L 457 277
L 457 277
L 457 277
L 457 277
L 457 277
L 457 277
L 457 277
L 457 277
L 457 277
L 457 277
L 457 277
L 457 277
L 457 277
L 457 276
L 457 276
L 457 276
L 457 276
L 457 276
L 457 276
L 457 276
L 457 276
L 457 276
L 457 276
L 457 276
L 457 276
L 457 276
L 457 276
L 457 276
L 457 276
L 457 276
L 457 276
L 457 276
L 457 276
L 457 276
L 457 276
L 457 275
L 457 275
L 457 275
L 457 275
L 457 275
L 457 275
L 457 275
L 457 275
L 457 275
L 457 275
L 457 275
L 457 275
L 457 275
L 457 275
L 457 275
L 457 275
L 457 275
L 457 275
L 457 275
L 457 275
L 457 275
L 457 274
L 457 274
L 457 274
L 457 274
L 457 274
L 457 274
L 457 274
L 457 274
L 457 274
L 457 274
L 457 274
L 457 274
L 457 274
L 457 274
L 457 274
L 457 274
L 457 274
L 457 274
L 457 274
L 457 274
L 457 274
L 457 274
L 457 273
L 457 273
L 458 273
L 458 273
L 458 273
L 458 273
L 458 273
L 458 273
L 458 273
L 458 273
L 458 273
L 458 273
L 458 273
L 458 273
L 458 273
L 458 273
L 458 273
L 458 273
L 458 273
L 458 273
L 458 273
L 458 272
L 458 272
L 458 272
L 458 272
L 458 272
L 458 272
L 458 272
L 458 272
L 459 272
L 459 272
L 459 272
L 459 272
L 459 272
L 459 272
L 459 272
L 459 272
L 459 272
L 459 272
L 459 272
L 459 272
L 459 272
L 459 272
L 459 271
L 459 271
L 459 271
L 459 271
L 459 271
L 459 271
L 459 271
L 459 271
L 459 271
L 459 271
L 459 271
L 459 271
L 459 271
L 459 271
L 459 271
L 459 271
L 459 271
L 459 271
L 459 271
L 459 271
L 459 271
L 459 270
L 459 270
L 459 270
L 459 270
L 459 270
L 459 270
L 459 270
L 460 270
L 460 270
L 460 270
L 460 270
L 460 270
L 460 270
L 460 270
L 460 270
L 460 270
L 460 270
L 460 270
L 460 270
L 460 270
L 460 270
L 460 270
L 460 269
L 460 269
L 460 269
L 460 269
L 460 269
L 460 269
L 460 269
L 460 269
L 460 269
L 460 269
L 460 269
L 460 269
L 460 269
L 460 269
L 460 269
L 460 269
L 460 269
L 460 269
L 460 269
L 460 269
L 460 269
L 460 268
L 460 268
L 460 268
L 460 268
L 460 268
L 460 268
L 460 268
L 460 268
L 460 268
L 460 268
L 461 268
L 461 268
L 461 268
L 461 268
L 461 268
L 461 268
L 461 268
L 461 268
L 461 268
L 461 268
L 461 268
L 461 268
L 461 267
L 461 267
L 461 267
L 461 267
L 461 267
L 461 267
L 461 267
L 461 267
L 461 267
L 461 267
L 461 267
L 461 267
L 461 267
L 461 267
L 461 267
L 461 267
L 461 267
L 461 267
L 461 267
L 461 267
L 461 267
L 461 266
L 461 266
L 461 266
L 461 266
L 461 266
L 461 266
L 461 266
L 461 266
L 461 266
L 461 266
L 461 266
L 461 266
L 461 266
L 461 266
L 462 266
L 462 266
L 462 266
L 462 266
L 462 266
L 462 266
L 462 266
L 462 266
L 462 265
L 462 265
L 462 265
L 462 265
L 462 265
L 462 265
L 462 265
L 462 265
L 462 265
L 462 265
L 462 265
L 462 265
L 462 265
L 462 265
L 462 265
L 462 265
L 462 265
L 463 265
L 463 265
L 463 265
L 463 265
L 463 264
L 463 264
L 463 264
L 463 264
L 463 264
L 463 264
L 463 264
L 463 264
L 463 264
L 463 264
L 463 264
L 463 264
L 463 264
L 463 264
L 463 264
L 463 264
L 463 264
L 463 264
L 463 264
L 463 264
L 463 264
L 464 263
L 464 263
L 464 263
L 464 263
L 464 263
L 464 263
L 464 263
L 464 263
L 464 263
L 464 263
L 464 263
L 464 263
L 464 263
L 464 263
L 464 263
L 464 263
L 464 263
L 464 263
L 464 263
L 464 263
L 464 263
L 465 263
L 465 262
L 465 262
L 465 262
L 465 262
L 466 262
L 468 262
L 468 262
L 469 262
L 469 262
L 469 262
L 469 262
L 469 262
L 469 262
L 469 262
L 469 262
L 469 262
L 469 262
L 469 262
L 469 262
L 469 262
L 469 262
L 469 261
L 469 261
L 469 261
L 469 261
L 469 261
L 469 261
L 469 261
L 469 261
L 469 261
L 469 261
L 469 261
L 469 261
L 469 261
L 469 261
L 469 261
L 469 261
L 469 261
L 469 261
L 469 261
L 469 261
L 469 261
L 470 261
L 470 260
L 470 260
L 470 260
L 470 260
L 470 260
L 470 260
L 470 260
L 470 260
L 470 260
L 470 260
L 470 260
L 470 260
L 470 260
L 470 260
L 470 260
L 470 260
L 470 260
L 470 260
L 470 260
L 470 260
L 470 260
L 470 259
L 470 259
L 470 259
L 470 259
L 470 259
L 470 259
L 470 259
L 470 259
L 470 259
L 470 259
L 470 259
L 470 259
L 470 259
L 470 259
L 470 259
L 470 259
L 470 259
L 470 259
L 470 259
L 470 259
L 470 259
L 470 259
L 470 258
L 470 258
L 470 258
L 470 258
L 470 258
L 470 258
L 471 258
L 471 258
L 471 258
L 471 258
L 471 258
L 471 258
L 471 258
L 471 258
L 471 258
L 471 258
L 471 258
L 471 258
L 471 258
L 471 258
L 471 258
L 472 257
L 472 257
L 472 257
L 472 257
L 472 257
L 472 257
L 472 257
L 472 257
L 472 257
L 472 257
L 472 257
L 472 257
L 472 257
L 472 257
L 472 257
L 472 257
L 472 257
L 472 257
L 472 257
L 472 257
L 472 257
L 472 257
L 472 256
L 472 256
L 472 256
L 472 256
L 472 256
L 472 256
L 472 256
L 472 256
L 473 256
L 473 256
L 473 256
L 473 256
L 473 256
L 473 256
L 473 256
L 473 256
L 473 256
L 473 256
L 473 256
L 473 256
L 473 256
L 473 255
L 473 255
L 473 255
L 473 255
L 473 255
L 473 255
L 473 255
L 473 255
L 473 255
L 473 255
L 473 255
L 473 255
L 473 255
L 473 255
L 473 255
L 473 255
L 473 255
L 473 255
L 473 255
L 473 255
L 473 255
L 473 255
L 474 254
L 474 254
L 474 254
L 474 254
L 474 254
L 474 254
L 474 254
L 474 254
L 474 254
L 474 254
L 474 254
L 474 254
L 474 254
L 474 254
L 474 254
L 474 254
L 474 254
L 474 254
L 474 254
L 474 254
L 474 254
L 474 253
L 474 253
L 474 253
L 474 253
L 474 253
L 474 253
L 474 253
L 474 253
L 475 253
L 475 253
L 475 253
L 475 253
L 475 253
L 475 253
L 475 253
L 475 253
L 475 253
L 475 253
L 475 253
L 475 253
L 475 253
L 475 253
L 475 252
L 475 252
L 475 252
L 475 252
L 475 252
L 475 252
L 475 252
L 475 252
L 476 252
L 476 252
L 476 252
L 476 252
L 476 252
L 476 252
L 476 252
L 476 252
L 476 252
L 476 252
L 476 252
L 476 252
L 476 252
L 476 251
L 476 251
L 477 251
L 477 251
L 477 251
L 477 251
L 477 251
L 477 251
L 477 251
L 478 251
L 478 251
L 478 251
L 478 251
L 478 251
L 479 251
L 481 251
L 482 251
L 482 251
L 482 251
L 482 251
L 482 251
L 482 251
L 482 250
L 482 250
L 482 250
L 482 250
L 482 250
L 482 250
L 482 250
L 482 250
L 482 250
L 482 250
L 482 250
L 482 250
L 482 250
L 482 250
L 482 250
L 482 250
L 482 250
L 482 250
L 482 250
L 482 250
L 482 250
L 482 249
L 482 249
L 482 249
L 482 249
L 482 249
L 482 249
L 482 249
L 482 249
L 482 249
L 482 249
L 482 249
L 482 249
L 482 249
L 482 249
L 482 249
L 482 249
L 483 249
L 483 249
L 483 249
L 483 249
L 483 249
L 483 249
L 483 248
L 483 248
L 483 248
L 483 248
L 483 248
L 483 248
L 483 248
L 483 248
L 483 248
L 483 248
L 483 248
L 483 248
L 483 248
L 483 248
L 483 248
L 483 248
L 483 248
L 483 248
L 483 248
L 483 248
L 483 248
L 483 247
L 483 247
L 483 247
L 483 247
L 483 247
L 483 247
L 483 247
L 483 247
L 483 247
L 483 247
L 483 247
L 484 247
L 484 247
L 484 247
L 484 247
L 484 247
L 484 247
L 484 247
L 484 247
L 484 247
L 484 247
L 484 246
L 484 246
L 484 246
L 484 246
L 484 246
L 484 246
L 484 246
L 484 246
L 484 246
L 484 246
L 484 246
L 484 246
L 484 246
L 484 246
L 485 246
L 485 246
L 485 246
L 485 246
L 485 246
L 485 246
L 485 246
L 485 246
L 485 245
L 485 245
L 485 245
L 485 245
L 485 245
L 485 245
L 485 245
L 485 245
L 485 245
L 485 245
L 485 245
L 485 245
L 485 245
L 485 245
L 485 245
L 485 245
L 485 245
L 485 245
L 485 245
L 485 245
L 485 245
L 485 244
L 485 244
L 485 244
L 485 244
L 485 244
L 485 244
L 485 244
L 485 244
L 485 244
L 485 244
L 485 244
L 485 244
L 485 244
L 485 244
L 485 244
L 485 244
L 485 244
L 485 244
L 485 244
L 485 244
L 485 244
L 485 244
L 485 243
L 485 243
L 485 243
L 486 243
L 486 243
L 486 243
L 486 243
L 486 243
L 486 243
L 486 243
L 486 243
L 486 243
L 486 243
L 486 243
L 486 243
L 486 243
L 486 243
L 486 243
L 486 243
L 486 243
L 486 243
L 486 242
L 486 242
L 486 242
L 486 242
L 486 242
L 486 242
L 486 242
L 486 242
L 486 242
L 486 242
L 486 242
L 486 242
L 486 242
L 486 242
L 486 242
L 486 242
L 486 242
L 486 242
L 486 242
L 486 242
L 486 242
L 486 242
L 486 241
L 486 241
L 486 241
L 486 241
L 486 241
L 486 241
L 486 241
L 487 241
L 487 241
L 487 241
L 487 241
L 487 241
L 487 241
L 487 241
L 487 241
L 487 241
L 487 241
L 487 241
L 487 241
L 487 241
L 487 241
L 487 240
L 487 240
L 487 240
L 487 240
L 488 240
L 488 240
L 488 240
L 488 240
L 488 240
L 488 240
L 488 240
L 488 240
L 488 240
L 488 240
L 488 240
L 488 240
L 488 240
L 488 240
L 488 240
L 488 240
L 489 240
L 489 240
L 489 239
L 489 239
L 489 239
L 489 239
L 489 239
L 489 239
L 489 239
L 489 239
L 489 239
L 489 239
L 489 239
L 489 239
L 489 239
L 489 239
L 489 239
L 489 239
L 490 239
L 490 239
L 490 239
L 490 239
L 490 239
L 490 238
L 490 238
L 490 238
L 490 238
L 490 238
L 490 238
L 490 238
L 492 238
L 492 238
L 492 238
L 493 238
L 494 238
L 494 238
L 494 238
L 494 238
L 494 238
L 494 238
L 494 238
L 494 238
L 494 238
L 494 238
L 495 238
L 495 237
L 495 237
L 495 237
L 495 237
L 495 237
L 495 237
L 495 237
L 495 237
L 495 237
L 495 237
L 495 237
L 495 237
L 495 237
L 495 237
L 495 237
L 495 237
L 495 237
L 495 237
L 495 237
L 495 237
L 495 237
L 495 236
L 495 236
L 495 236
L 495 236
L 495 236
L 495 236
L 495 236
L 495 236
L 495 236
L 495 236
L 495 236
L 495 236
L 495 236
L 495 236
L 495 236
L 495 236
L 495 236
L 495 236
L 495 236
L 495 236
L 495 236
L 495 236
L 495 235
L 495 235
L 495 235
L 495 235
L 495 235
L 495 235
L 495 235
L 495 235
L 495 235
L 495 235
L 496 235
L 496 235
L 496 235
L 496 235
L 496 235
L 496 235
L 496 235
L 496 235
L 496 235
L 496 235
L 496 235
L 496 234
L 496 234
L 496 234
L 496 234
L 496 234
L 496 234
L 496 234
L 496 234
L 496 234
L 496 234
L 496 234
L 496 234
L 496 234
L 496 234
L 496 234
L 496 234
L 496 234
L 496 234
L 496 234
L 496 234
L 496 234
L 496 234
L 496 233
L 496 233
L 496 233
L 496 233
L 496 233
L 496 233
L 496 233
L 496 233
L 496 233
L 496 233
L 497 233
L 497 233
L 497 233
L 497 233
L 497 233
L 497 233
L 497 233
L 497 233
L 497 233
L 497 233
L 497 233
L 497 232
L 497 232
L 497 232
L 497 232
L 497 232
L 497 232
L 497 232
L 497 232
L 497 232
L 497 232
L 497 232
L 497 232
L 497 232
L 497 232
L 497 232
L 497 232
L 497 232
L 497 232
L 497 232
L 497 232
L 497 232
L 497 232
L 497 231
L 497 231
L 497 231
L 497 231
L 498 231
L 498 231
L 498 231
L 498 231
L 498 231
L 498 231
L 498 231
L 498 231
L 498 231
L 498 231
L 498 231
L 498 231
L 498 231
L 498 231
L 498 231
L 498 231
L 498 231
L 498 230
L 498 230
L 498 230
L 498 230
L 498 230
L 498 230
L 498 230
L 498 230
L 498 230
L 498 230
L 498 230
L 498 230
L 498 230
L 498 230
L 498 230
L 498 230
L 498 230
L 498 230
L 498 230
L 498 230
L 498 230
L 498 229
L 498 229
L 498 229
L 498 229
L 498 229
L 498 229
L 498 229
L 498 229
L 498 229
L 498 229
L 498 229
L 498 229
L 498 229
L 498 229
L 498 229
L 498 229
L 498 229
L 499 229
L 499 229
L 499 229
L 499 229
L 499 229
L 499 228
L 499 228
L 499 228
L 499 228
L 499 228
L 499 228
L 499 228
L 499 228
L 499 228
L 499 228
L 499 228
L 499 228
L 499 228
L 499 228
L 499 228
L 499 228
L 499 228
L 499 228
L 499 228
L 499 228
L 499 228
L 499 227
L 499 227
L 500 227
L 500 227
L 500 227
L 500 227
L 500 227
L 500 227
L 500 227
L 500 227
L 500 227
L 500 227
L 500 227
L 500 227
L 500 227
L 500 227
L 500 227
L 500 227
L 500 227
L 501 227
L 501 227
L 501 227
L 501 226
L 501 226
L 501 226
L 501 226
L 501 226
L 501 226
L 501 226
L 501 226
L 501 226
L 502 226
L 502 226
L 502 226
L 502 226
L 502 226
L 502 226
L 502 226
L 502 226
L 502 226
L 502 226
L 502 226
L 502 226
L 502 225
L 503 225
L 503 225
L 503 225
L 503 225
L 503 225
L 503 225
L 503 225
L 503 225
L 504 225
L 506 225
L 506 225
L 506 225
L 506 225
L 507 225
L 507 225
L 507 225
L 507 225
L 507 225
L 508 225
L 508 225
L 508 225
L 508 224
L 508 224
L 508 224
L 508 224
L 508 224
L 508 224
L 508 224
L 508 224
L 508 224
L 508 224
L 508 224
L 509 224
L 509 224
L 509 224
L 509 224
L 509 224
L 509 224
L 509 224
L 509 224
L 509 224
L 509 224
L 509 223
L 509 223
L 510 223
L 510 223
L 510 223
L 510 223
L 510 223
L 510 223
L 511 223
L 511 223
L 511 223
L 511 223
L 511 223
L 511 223
L 511 223
L 511 223
L 511 223
L 512 223
L 512 223
L 512 223
L 512 223
L 512 223
L 512 222
L 513 222
L 513 222
L 513 222
L 513 222
L 513 222
L 513 222
L 513 222
L 513 222
L 513 222
L 514 222
L 514 222
L 514 222
L 514 222
L 514 222
L 514 222
L 514 222
L 515 222
L 515 222
L 515 222
L 515 222
L 515 221
L 515 221
L 515 221
L 515 221
L 515 221
L 516 221
L 516 221
L 516 221
L 517 221
L 517 221
L 518 221
L 518 221
L 518 221
L 518 221
L 519 221
L 519 221
L 519 221
L 520 221
L 520 221
L 520 221
L 520 221
L 520 221
L 521 220
L 521 220
L 521 220
L 521 220
L 521 220
L 521 220
L 521 220
L 521 220
L 521 220
L 522 220
L 522 220
L 522 220
L 522 220
L 522 220
L 522 220
L 523 220
L 523 220
L 523 220
L 523 220
L 523 220
L 523 220
L 523 219
L 523 219
L 523 219
L 524 219
L 524 219
L 524 219
L 525 219
L 525 219
L 525 219
L 525 219
L 525 219
L 525 219
L 525 219
L 525 219
L 525 219
L 526 219
L 526 219
L 526 219
L 526 219
L 526 219
L 526 219
L 527 219
L 527 218
L 527 218
L 527 218
L 527 218
L 527 218
L 527 218
L 527 218
L 527 218
L 528 218
L 528 218
L 528 218
L 528 218
L 528 218
L 528 218
L 529 218
L 529 218
L 529 218
L 529 218
L 529 218
L 529 218
L 531 218
L 531 217
L 532 217
L 533 217
L 533 217
L 533 217
L 533 217
L 533 217
L 533 217
L 533 217
L 533 217
L 534 217
L 534 217
L 534 217
L 534 217
L 534 217
L 534 217
L 534 217
L 535 217
L 535 217
L 535 217
L 535 217
L 535 217
L 535 216
L 535 216
L 536 216
L 536 216
L 536 216
L 536 216
L 536 216
L 536 216
L 536 216
L 536 216
L 536 216
L 537 216
L 537 216
L 537 216
L 537 216
L 537 216
L 537 216
L 537 216
L 537 216
L 537 216
L 537 216
L 538 215
L 538 215
L 538 215
L 538 215
L 538 215
L 538 215
L 538 215
L 538 215
L 538 215
L 538 215
L 539 215
L 539 215
L 539 215
L 539 215
L 539 215
L 539 215
L 539 215
L 539 215
L 539 215
L 539 215
L 539 215
L 539 215
L 540 214
L 540 214
L 540 214
L 540 214
L 540 214
L 540 214
L 540 214
L 540 214
L 540 214
L 540 214
L 540 214
L 540 214
L 541 214
L 541 214
L 541 214
L 541 214
L 541 214
L 542 214
L 542 214
L 545 214
L 545 214
L 545 213
L 545 213
L 546 213
L 546 213
L 546 213
L 546 213
L 546 213
L 546 213
L 546 213
L 546 213
L 546 213
L 546 213
L 546 213
L 546 213
L 546 213
L 546 213
L 546 213
L 546 213
L 546 213
L 546 213
L 546 213
L 546 212
L 546 212
L 546 212
L 546 212
L 546 212
L 546 212
L 546 212
L 546 212
L 546 212
L 546 212
L 546 212
L 546 212
L 546 212
L 546 212
L 546 212
L 546 212
L 546 212
L 546 212
L 546 212
L 546 212
L 546 212
L 546 212
L 546 211
L 546 211
L 546 211
L 546 211
L 546 211
L 546 211
L 547 211
L 547 211
L 547 211
L 547 211
L 547 211
L 547 211
L 547 211
L 547 211
L 547 211
L 547 211
L 547 211
L 547 211
L 547 211
L 547 211
L 547 211
L 547 210
L 547 210
L 547 210
L 547 210
L 547 210
L 547 210
L 547 210
L 547 210
L 548 210
L 548 210
L 548 210
L 548 210
L 548 210
L 548 210
L 548 210
L 548 210
L 548 210
L 548 210
L 548 210
L 548 210
L 548 210
L 548 210
L 548 209
L 548 209
L 548 209
L 548 209
L 548 209
L 548 209
L 548 209
L 548 209
L 548 209
L 548 209
L 548 209
L 548 209
L 548 209
L 548 209
L 548 209
L 548 209
L 548 209
L 548 209
L 548 209
L 548 209
L 549 209
L 549 208
L 549 208
L 549 208
L 549 208
L 549 208
L 549 208
L 549 208
L 549 208
L 549 208
L 549 208
L 549 208
L 549 208
L 549 208
L 549 208
L 549 208
L 549 208
L 549 208
L 549 208
L 549 208
L 549 208
L 549 208
L 549 208
L 549 207
L 549 207
L 549 207
L 549 207
L 549 207
L 550 207
L 550 207
L 550 207
L 550 207
L 550 207
L 550 207
L 550 207
L 550 207
L 550 207
L 550 207
L 550 207
L 550 207
L 550 207
L 550 207
L 550 207
L 550 207
L 550 206
L 550 206
L 550 206
L 550 206
L 550 206
L 550 206
L 550 206
L 551 206
L 551 206
L 551 206
L 551 206
L 551 206
L 551 206
L 551 206
L 551 206
L 551 206
L 551 206
L 552 206
L 552 206
L 552 206
L 552 206
L 552 206
L 552 205
L 552 205
L 552 205
L 552 205
L 552 205
L 552 205
L 552 205
L 552 205
L 552 205
L 552 205
L 552 205
L 552 205
L 552 205
L 552 205
L 552 205
L 552 205
L 552 205
L 552 205
L 552 205
L 552 205
L 552 205
L 553 204
L 553 204
L 553 204
L 553 204
L 553 204
L 553 204
L 553 204
L 553 204
L 553 204
L 553 204
L 553 204
L 553 204
L 553 204
L 553 204
L 553 204
L 553 204
L 553 204
L 554 204
L 554 204
L 554 204
L 554 204
L 554 204
L 555 203
L 555 203
L 555 203
L 556 203
L 557 203
L 557 203
L 557 203
L 558 203
L 558 203
L 558 203
L 558 203
L 558 203
L 558 203
L 558 203
L 558 203
L 558 203
L 558 203
L 558 203
L 558 203
L 558 203
L 558 203
L 558 202
L 558 202
L 558 202
L 558 202
L 558 202
L 558 202
L 558 202
L 558 202
L 558 202
L 558 202
L 558 202
L 558 202
L 558 202
L 559 202
L 559 202
L 559 202
L 559 202
L 559 202
L 559 202
L 559 202
L 559 202
L 559 202
L 559 201
L 559 201
L 559 201
L 559 201
L 559 201
L 559 201
L 559 201
L 559 201
L 559 201
L 559 201
L 559 201
L 559 201
L 559 201
L 559 201
L 559 201
L 559 201
L 559 201
L 559 201
L 559 201
L 559 201
L 559 201
L 559 200
L 559 200
L 559 200
L 559 200
L 559 200
L 559 200
L 559 200
L 559 200
L 559 200
L 559 200
L 559 200
L 560 200
L 560 200
L 560 200
L 560 200
L 560 200
L 560 200
L 560 200
L 560 200
L 560 200
L 560 200
L 560 200
L 560 199
L 560 199
L 560 199
L 560 199
L 561 199
L 561 199
L 561 199
L 561 199
L 561 199
L 561 199
L 561 199
L 561 199
L 561 199
L 561 199
L 561 199
L 561 199
L 561 199
L 561 199
L 561 199
L 561 199
L 561 199
L 561 198
L 561 198
L 561 198
L 561 198
L 561 198
L 561 198
L 561 198
L 561 198
L 561 198
L 561 198
L 561 198
L 561 198
L 561 198
L 561 198
L 561 198
L 561 198
L 562 198
L 562 198
L 562 198
L 562 198
L 562 198
L 562 198
L 562 197
L 562 197
L 562 197
L 562 197
L 562 197
L 562 197
L 562 197
L 562 197
L 562 197
L 562 197
L 562 197
L 562 197
L 562 197
L 562 197
L 562 197
L 562 197
L 562 197
L 562 197
L 562 197
L 562 197
L 562 197
L 562 196
L 562 196
L 562 196
L 562 196
L 562 196
L 562 196
L 562 196
L 562 196
L 562 196
L 562 196
L 562 196
L 562 196
L 562 196
L 563 196
L 563 196
L 563 196
L 563 196
L 563 196
L 563 196
L 563 196
L 563 196
L 563 195
L 563 195
L 563 195
L 563 195
L 563 195
L 563 195
L 563 195
L 563 195
L 563 195
L 563 195
L 563 195
L 563 195
L 563 195
L 563 195
L 563 195
L 563 195
L 563 195
L 563 195
L 563 195
L 563 195
L 563 195
L 563 195
L 563 194
L 563 194
L 563 194
L 563 194
L 563 194
L 563 194
L 563 194
L 563 194
L 563 194
L 563 194
L 563 194
L 564 194
L 564 194
L 564 194
L 564 194
L 564 194
L 564 194
L 564 194
L 564 194
L 564 194
L 564 194
L 564 193
L 564 193
L 564 193
L 564 193
L 564 193
L 564 193
L 564 193
L 564 193
L 564 193
L 564 193
L 564 193
L 564 193
L 565 193
L 565 193
L 565 193
L 565 193
L 565 193
L 565 193
L 565 193
L 565 193
L 565 193
L 565 193
L 565 192
L 565 192
L 565 192
L 565 192
L 565 192
L 565 192
L 565 192
L 565 192
L 565 192
L 565 192
L 565 192
L 565 192
L 565 192
L 566 192
L 566 192
L 566 192
L 566 192
L 566 192
L 566 192
L 566 192
L 566 192
L 566 191
L 566 191
L 566 191
L 566 191
L 566 191
L 566 191
L 567 191
L 567 191
L 567 191
L 567 191
L 567 191
L 567 191
L 567 191
L 567 191
L 568 191
L 569 191
L 570 191
L 570 191
L 570 191
L 570 191
L 571 191
L 571 191
L 571 190
L 571 190
L 571 190
L 571 190
L 571 190
L 571 190
L 571 190
L 571 190
L 571 190
L 571 190
L 571 190
L 571 190
L 571 190
L 571 190
L 571 190
L 571 190
L 571 190
L 571 190
L 571 190
L 571 190
L 571 190
L 571 189
L 571 189
L 571 189
L 572 189
L 572 189
L 572 189
L 572 189
L 572 189
L 572 189
L 572 189
L 572 189
L 572 189
L 572 189
L 572 189
L 572 189
L 572 189
L 572 189
L 572 189
L 572 189
L 572 189
L 572 189
L 572 189
L 572 188
L 572 188
L 572 188
L 572 188
L 572 188
L 572 188
L 572 188
L 572 188
L 572 188
L 572 188
L 572 188
L 572 188
L 572 188
L 572 188
L 572 188
L 572 188
L 573 188
L 573 188
L 573 188
L 573 188
L 573 188
L 573 187
L 573 187
L 573 187
L 573 187
L 573 187
L 573 187
L 573 187
L 573 187
L 573 187
L 573 187
L 574 187
L 574 187
L 574 187
L 574 187
L 574 187
L 574 187
L 574 187
L 574 187
L 574 187
L 574 187
L 574 187
L 574 187
L 574 186
L 574 186
L 574 186
L 574 186
L 574 186
L 574 186
L 574 186
L 574 186
L 574 186
L 574 186
L 574 186
L 574 186
L 575 186
L 575 186
L 575 186
L 575 186
L 575 186
L 575 186
L 575 186
L 575 186
L 575 186
L 575 185
L 575 185
L 575 185
L 575 185
L 575 185
L 575 185
L 575 185
L 575 185
L 575 185
L 575 185
L 575 185
L 575 185
L 575 185
L 575 185
L 575 185
L 575 185
L 575 185
L 575 185
L 575 185
L 575 185
L 575 185
L 575 185
L 575 184
L 575 184
L 575 184
L 575 184
L 576 184
L 576 184
L 576 184
L 576 184
L 576 184
L 576 184
L 576 184
L 576 184
L 576 184
L 576 184
L 576 184
L 576 184
L 576 184
L 576 184
L 576 184
L 576 184
L 576 184
L 576 183
L 576 183
L 577 183
L 577 183
L 577 183
L 577 183
L 577 183
L 577 183
L 577 183
L 577 183
L 577 183
L 577 183
L 577 183
L 578 183
L 578 183
L 578 183
L 578 183
L 578 183
L 578 183
L 578 183
L 578 183
L 578 183
L 578 182
L 578 182
L 578 182
L 578 182
L 578 182
L 578 182
L 578 182
L 578 182
L 579 182
L 579 182
L 579 182
L 579 182
L 579 182
L 580 182
L 580 182
L 580 182
L 580 182
L 581 182
L 581 182
L 581 182
L 581 182
L 582 181
L 583 181
L 583 181
L 583 181
L 584 181
L 584 181
L 584 181
L 584 181
L 584 181
L 584 181
L 584 181
L 584 181
L 584 181
L 584 181
L 584 181
L 584 181
L 584 181
L 584 181
L 584 181
L 584 181
L 584 181
L 584 181
L 584 180
L 585 180
L 585 180
L 585 180
L 585 180
L 585 180
L 585 180
L 585 180
L 585 180
L 585 180
L 585 180
L 585 180
L 585 180
L 585 180
L 585 180
L 585 180
L 585 180
L 585 180
L 585 180
L 586 180
L 586 180
L 586 179
L 586 179
L 586 179
L 586 179
L 586 179
L 586 179
L 586 179
L 586 179
L 587 179
L 587 179
L 587 179
L 587 179
L 587 179
L 587 179
L 587 179
L 587 179
L 587 179
L 587 179
L 587 179
L 588 179
L 588 179
L 588 178
L 588 178
L 588 178
L 588 178
L 588 178
L 588 178
L 588 178
L 588 178
L 589 178
L 589 178
L 589 178
L 589 178
L 589 178
L 589 178
L 589 178
L 590 178
L 590 178
L 590 178
L 590 178
L 590 178
L 590 178
L 590 178
L 590 177
L 590 177
L 590 177
L 590 177
L 590 177
L 590 177
L 590 177
L 591 177
L 591 177
L 591 177
L 591 177
L 591 177
L 591 177
L 591 177
L 591 177
L 592 177
L 592 177
L 592 177
L 592 177
L 592 177
L 592 177
L 592 176
L 596 176
L 596 176
L 597 176
L 597 176
L 597 176
L 597 176
L 597 176
L 598 176
L 598 176
L 598 176
L 598 176
L 598 176
L 598 176
L 598 176
L 598 176
L 599 176
L 599 176
L 599 176
L 599 176
L 599 176
L 599 176
L 599 175
L 600 175
L 600 175
L 600 175
L 600 175
L 600 175
L 600 175
L 600 175
L 600 175
L 601 175
L 601 175
L 601 175
L 601 175
L 601 175
L 601 175
L 601 175
L 601 175
L 601 175
L 601 175
L 601 175
L 601 175
L 601 174
L 601 174
L 601 174
L 602 174
L 602 174
L 602 174
L 602 174
L 602 174
L 602 174
L 602 174
L 602 174
L 603 174
L 603 174
L 603 174
L 603 174
L 603 174
L 603 174
L 603 174
L 603 174
L 603 174
L 603 174
L 603 174
L 603 173
L 603 173
L 604 173
L 604 173
L 604 173
L 604 173
L 604 173
L 604 173
L 604 173
L 604 173
L 604 173
L 604 173
L 604 173
L 604 173
L 605 173
L 605 173
L 605 173
L 605 173
L 605 173
L 605 173
L 605 173
L 606 172
L 606 172
L 607 172
L 607 172
L 607 172
L 608 172
L 609 172
L 609 172
L 609 172
L 609 172
L 609 172
L 609 172
L 609 172
L 609 172
L 609 172
L 609 172
L 609 172
L 609 172
L 609 172
L 609 172
L 609 172
L 609 172
L 609 171
L 609 171
L 609 171
L 609 171
L 609 171
L 609 171
L 610 171
L 610 171
L 610 171
L 610 171
L 610 171
L 610 171
L 610 171
L 610 171
L 610 171
L 610 171
L 610 171
L 610 171
L 610 171
L 610 171
L 610 171
L 610 170
L 610 170
L 610 170
L 610 170
L 610 170
L 610 170
L 610 170
L 610 170
L 610 170
L 610 170
L 610 170
L 610 170
L 610 170
L 611 170
L 611 170
L 611 170
L 611 170
L 611 170
L 611 170
L 611 170
L 611 170
L 611 170
L 611 169
L 612 169
L 612 169
L 612 169
L 612 169
L 612 169
L 612 169
L 612 169
L 612 169
L 612 169
L 612 169
L 612 169
L 612 169
L 612 169
L 612 169
L 612 169
L 612 169
L 612 169
L 612 169
L 612 169
L 612 169
L 612 168
L 613 168
L 613 168
L 613 168
L 613 168
L 613 168
L 613 168
L 613 168
L 613 168
L 613 168
L 613 168
L 613 168
L 613 168
L 613 168
L 613 168
L 613 168
L 613 168
L 613 168
L 614 168
L 614 168
L 614 168
L 614 168
L 614 167
L 614 167
L 614 167
L 614 167
L 614 167
L 614 167
L 614 167
L 614 167
L 615 167
L 615 167
L 615 167
L 615 167
L 615 167
L 615 167
L 615 167
L 615 167
L 615 167
L 615 167
L 615 167
L 615 167
L 615 167
L 615 166
L 615 166
L 616 166
L 616 166
L 616 166
L 616 166
L 616 166
L 616 166
L 616 166
L 616 166
L 617 166
L 617 166
L 617 166
L 617 166
L 617 166
L 617 166
L 617 166
L 617 166
L 617 166
L 617 166
L 617 166
L 620 166
L 621 165
L 621 165
L 622 165
L 622 165
L 622 165
L 622 165
L 622 165
L 622 165
L 622 165
L 622 165
L 622 165
L 622 165
L 622 165
L 622 165
L 622 165
L 622 165
L 622 165
L 622 165
L 623 165
L 623 165
L 623 165
L 623 164
L 623 164
L 623 164
L 623 164
L 623 164
L 623 164
L 623 164
L 623 164
L 623 164
L 623 164
L 623 164
L 623 164
L 623 164
L 623 164
L 623 164
L 623 164
L 623 164
L 623 164
L 624 164
L 624 164
L 624 164
L 624 163
L 624 163
L 624 163
L 624 163
L 624 163
L 624 163
L 624 163
L 624 163
L 624 163
L 625 163
L 625 163
L 625 163
L 625 163
L 625 163
L 625 163
L 625 163
L 625 163
L 625 163
L 625 163
L 625 163
L 625 163
L 625 163
L 625 162
L 625 162
L 626 162
L 626 162
L 626 162
L 626 162
L 626 162
L 626 162
L 626 162
L 626 162
L 626 162
L 626 162
L 626 162
L 626 162
L 626 162
L 626 162
L 626 162
L 626 162
L 626 162
L 626 162
L 626 162
L 626 161
L 626 161
L 626 161
L 626 161
L 626 161
L 626 161
L 626 161
L 626 161
L 626 161
L 626 161
L 626 161
L 627 161
L 627 161
L 627 161
L 627 161
L 627 161
L 627 161
L 627 161
L 627 161
L 627 161
L 627 161
L 627 161
L 627 160
L 627 160
L 627 160
L 628 160
L 628 160
L 628 160
L 628 160
L 628 160
L 628 160
L 628 160
L 628 160
L 628 160
L 628 160
L 628 160
L 628 160
L 628 160
L 628 160
L 628 160
L 628 160
L 628 160
L 628 160
L 628 159
L 628 159
L 628 159
L 629 159
L 629 159
L 629 159
L 629 159
L 629 159
L 629 159
L 629 159
L 629 159
L 629 159
L 629 159
L 629 159
L 629 159
L 630 159
L 630 159
L 630 159
L 630 159
L 631 159
L 631 159
L 631 159
L 633 158
L 634 158
L 634 158
L 634 158
L 635 158
L 635 158
L 635 158
L 635 158
L 635 158
L 635 158
L 635 158
L 635 158
L 635 158
L 635 158
L 635 158
L 635 158
L 635 158
L 635 158
L 635 158
L 635 158
L 635 158
L 635 157
L 635 157
L 635 157
L 635 157
L 635 157
L 635 157
L 635 157
L 635 157
L 635 157
L 635 157
L 636 157
L 636 157
L 636 157
L 636 157
L 636 157
L 636 157
L 636 157
L 636 157
L 636 157
L 636 157
L 636 157
L 636 157
L 636 156
L 636 156
L 636 156
L 636 156
L 636 156
L 636 156
L 636 156
L 636 156
L 636 156
L 637 156
L 637 156
L 637 156
L 637 156
L 637 156
L 637 156
L 637 156
L 637 156
L 637 156
L 637 156
L 637 156
L 637 156
L 637 155
L 637 155
L 637 155
L 637 155
L 637 155
L 637 155
L 637 155
L 637 155
L 637 155
L 637 155
L 638 155
L 638 155
L 638 155
L 638 155
L 638 155
L 638 155
L 638 155
L 638 155
L 638 155
L 638 155
L 638 155
L 638 155
L 638 154
L 638 154
L 638 154
L 638 154
L 638 154
L 638 154
L 638 154
L 638 154
L 639 154
L 639 154
L 639 154
L 639 154
L 639 154
L 639 154
L 639 154
L 639 154
L 639 154
L 639 154
L 639 154
L 639 154
L 639 154
L 639 153
L 639 153
L 640 153
L 640 153
L 640 153
L 640 153
L 640 153
L 640 153
L 641 153
L 641 153
L 641 153
L 641 153
L 641 153
L 641 153
L 641 153
L 641 153
L 641 153
L 641 153
L 641 153
L 641 153
L 641 153
L 642 153
L 642 152
L 642 152
L 642 152
L 642 152
L 642 152
L 642 152
L 642 152
L 642 152
L 642 152
L 642 152
L 642 152
L 642 152
L 642 152
L 642 152
L 642 152
L 643 152
L 643 152
L 643 152
L 643 152
L 643 152
L 644 152
L 646 151
L 646 151
L 647 151
L 647 151
L 647 151
L 647 151
L 647 151
L 647 151
L 647 151
L 647 151
L 647 151
L 647 151
L 647 151
L 647 151
L 647 151
L 647 151
L 647 151
L 647 151
L 647 151
L 647 151
L 647 151
L 647 151
L 647 150
L 647 150
L 647 150
L 647 150
L 647 150
L 647 150
L 647 150
L 647 150
L 647 150
L 647 150
L 647 150
L 647 150
L 647 150
L 647 150
L 647 150
L 647 150
L 647 150
L 647 150
L 647 150
L 647 150
L 647 150
L 647 149
L 647 149
L 647 149
L 647 149
L 647 149
L 647 149
L 647 149
L 647 149
L 648 149
L 648 149
L 648 149
L 648 149
L 648 149
L 648 149
L 648 149
L 648 149
L 648 149
L 648 149
L 648 149
L 648 149
L 648 149
L 648 149
L 648 148
L 648 148
L 648 148
L 648 148
L 648 148
L 648 148
L 648 148
L 648 148
L 648 148
L 648 148
L 648 148
L 648 148
L 648 148
L 648 148
L 648 148
L 648 148
L 648 148
L 648 148
L 648 148
L 648 148
L 648 148
L 648 147
L 648 147
L 648 147
L 648 147
L 648 147
L 648 147
L 648 147
L 648 147
L 648 147
L 648 147
L 648 147
L 648 147
L 649 147
L 649 147
L 649 147
L 649 147
L 649 147
L 649 147
L 649 147
L 649 147
L 649 147
L 649 147
L 649 146
L 649 146
L 649 146
L 649 146
L 649 146
L 650 146
L 650 146
L 650 146
L 650 146
L 650 146
L 650 146
L 650 146
L 650 146
L 650 146
L 650 146
L 650 146
L 650 146
L 650 146
L 650 146
L 650 146
L 650 146
L 650 145
L 650 145
L 650 145
L 650 145
L 650 145
L 650 145
L 650 145
L 650 145
L 650 145
L 650 145
L 650 145
L 650 145
L 650 145
L 650 145
L 650 145
L 650 145
L 650 145
L 650 145
L 650 145
L 650 145
L 650 145
L 650 144
L 650 144
L 650 144
L 650 144
L 650 144
L 650 144
L 650 144
L 650 144
L 650 144
L 650 144
L 650 144
L 651 144
L 651 144
L 651 144
L 651 144
L 651 144
L 651 144
L 651 144
L 651 144
L 651 144
L 651 144
L 651 144
L 651 143
L 651 143
L 651 143
L 651 143
L 651 143
L 651 143
L 651 143
L 651 143
L 651 143
L 651 143
L 651 143
L 651 143
L 651 143
L 651 143
L 651 143
L 651 143
L 651 143
L 651 143
L 651 143
L 651 143
L 651 143
L 651 142
L 651 142
L 651 142
L 651 142
L 651 142
L 651 142
L 651 142
L 652 142
L 652 142
L 652 142
L 652 142
L 652 142
L 652 142
L 652 142
L 652 142
L 652 142
L 652 142
L 652 142
L 652 142
L 652 142
L 652 142
L 652 142
L 652 141
L 653 141
L 653 141
L 653 141
L 653 141
L 653 141
L 653 141
L 653 141
L 653 141
L 653 141
L 653 141
L 653 141
L 653 141
L 653 141
L 653 141
L 653 141
L 653 141
L 653 141
L 653 141
L 653 141
L 653 141
L 653 140
L 653 140
L 653 140
L 653 140
L 653 140
L 653 140
L 653 140
L 654 140
L 654 140
L 654 140
L 654 140
L 654 140
L 654 140
L 654 140
L 654 140
L 654 140
L 654 140
L 654 140
L 654 140
L 654 140
L 654 140
L 654 140
L 654 139
L 654 139
L 654 139
L 654 139
L 654 139
L 654 139
L 654 139
L 654 139
L 655 139
L 655 139
L 655 139
L 655 139
L 655 139
L 655 139
L 655 139
L 655 139
L 655 139
L 655 139
L 656 139
L 656 139
L 656 139
L 656 138
L 656 138
L 656 138
L 656 138
L 656 138
L 657 138
L 657 138
L 657 138
L 657 138
L 658 138
L 659 138
L 659 138
L 659 138
L 660 138
L 660 138
L 660 138
L 660 138
L 660 138
L 660 138
L 660 138
L 660 138
L 660 138
L 660 137
L 660 137
L 660 137
L 660 137
L 660 137
L 660 137
L 660 137
L 660 137
L 660 137
L 660 137
L 660 137
L 660 137
L 660 137
L 660 137
L 660 137
L 660 137
L 660 137
L 661 137
L 661 137
L 661 137
L 661 137
L 661 136
L 661 136
L 661 136
L 661 136
L 661 136
L 661 136
L 661 136
L 661 136
L 661 136
L 661 136
L 661 136
L 661 136
L 661 136
L 661 136
L 661 136
L 661 136
L 661 136
L 661 136
L 661 136
L 661 136
L 661 136
L 662 136
L 662 135
L 662 135
L 662 135
L 662 135
L 662 135
L 662 135
L 662 135
L 662 135
L 662 135
L 662 135
L 662 135
L 662 135
L 662 135
L 662 135
L 662 135
L 662 135
L 662 135
L 662 135
L 662 135
L 663 135
L 663 135
L 663 134
L 663 134
L 663 134
L 663 134
L 663 134
L 663 134
L 663 134
L 663 134
L 663 134
L 663 134
L 663 134
L 663 134
L 663 134
L 663 134
L 663 134
L 663 134
L 663 134
L 663 134
L 663 134
L 663 134
L 663 134
L 663 134
L 663 133
L 663 133
L 663 133
L 663 133
L 663 133
L 663 133
L 663 133
L 663 133
L 663 133
L 663 133
L 664 133
L 664 133
L 664 133
L 664 133
L 664 133
L 664 133
L 664 133
L 664 133
L 664 133
L 664 133
L 664 133
L 664 132
L 664 132
L 664 132
L 664 132
L 664 132
L 664 132
L 664 132
L 664 132
L 664 132
L 664 132
L 664 132
L 664 132
L 664 132
L 664 132
L 664 132
L 665 132
L 665 132
L 665 132
L 665 132
L 665 132
L 665 132
L 665 132
L 665 131
L 665 131
L 665 131
L 665 131
L 665 131
L 665 131
L 666 131
L 666 131
L 666 131
L 666 131
L 666 131
L 666 131
L 666 131
L 666 131
L 666 131
L 666 131
L 666 131
L 666 131
L 666 131
L 666 131
L 667 131
L 667 130
L 667 130
L 667 130
L 667 130
L 667 130
L 668 130
L 668 130
L 668 130
L 668 130
L 668 130
L 668 130
L 668 130
L 668 130
L 668 130
L 668 130
L 669 130
L 670 130
L 670 130
L 670 130
L 670 130
L 672 130
L 673 130
L 673 129
L 673 129
L 673 129
L 673 129
L 673 129
L 674 129
L 674 129
L 674 129
L 674 129
L 674 129
L 674 129
L 674 129
L 674 129
L 674 129
L 675 129
L 675 129
L 675 129
L 675 129
L 675 129
L 675 129
L 676 129
L 676 128
L 676 128
L 676 128
L 676 128
L 676 128
L 676 128
L 676 128
L 676 128
L 676 128
L 676 128
L 677 128
L 677 128
L 677 128
L 677 128
L 677 128
L 677 128
L 677 128
L 677 128
L 677 128
L 678 128
L 678 128
L 678 127
L 679 127
L 679 127
L 679 127
L 679 127
L 680 127
L 680 127
L 681 127
L 681 127
L 681 127
L 681 127
L 681 127
L 682 127
L 682 127
L 682 127
L 683 127
L 685 127
L 685 127
L 686 127
L 686 127
L 687 127
L 687 127
L 687 126
L 687 126
L 687 126
L 688 126
L 688 126
L 688 126
L 688 126
L 688 126
L 688 126
L 689 126
L 689 126
L 689 126
L 689 126
L 689 126
L 689 126
L 690 126
L 690 126
L 690 126
L 690 126
L 691 126
L 691 126
L 691 125
L 691 125
L 691 125
L 691 125
L 691 125
L 691 125
L 692 125
L 692 125
L 692 125
L 692 125
L 693 125
L 693 125
L 693 125
L 693 125
L 693 125
L 693 125
L 694 125
L 695 125
L 698 125
L 698 125
L 698 125
L 698 125
L 698 124
L 698 124
L 698 124
L 698 124
L 698 124
L 698 124
L 698 124
L 699 124
L 699 124
L 699 124
L 699 124
L 699 124
L 699 124
L 699 124
L 699 124
L 699 124
L 699 124
L 699 124
L 699 124
L 699 124
L 699 124
L 699 123
L 699 123
L 699 123
L 700 123
L 700 123
L 700 123
L 700 123
L 700 123
L 700 123
L 700 123
L 700 123
L 700 123
L 701 123
L 701 123
L 701 123
L 701 123
L 701 123
L 701 123
L 701 123
L 701 123
L 701 123
L 701 123
L 701 122
L 701 122
L 702 122
L 702 122
L 702 122
L 702 122
L 702 122
L 702 122
L 702 122
L 702 122
L 702 122
L 702 122
L 702 122
L 702 122
L 702 122
L 702 122
L 702 122
L 702 122
L 702 122
L 702 122
L 702 122
L 703 121
L 703 121
L 703 121
L 703 121
L 703 121
L 703 121
L 703 121
L 703 121
L 703 121
L 703 121
L 704 121
L 704 121
L 704 121
L 704 121
L 704 121
L 704 121
L 704 121
L 704 121
L 704 121
L 704 121
L 704 121
L 704 121
L 704 120
L 705 120
L 705 120
L 705 120
L 705 120
L 705 120
L 705 120
L 705 120
L 705 120
L 705 120
L 706 120
L 706 120
L 706 120
L 706 120
L 706 120
L 706 120
L 706 120
L 706 120
L 706 120
L 706 120
L 707 120
L 707 119
L 708 119
L 709 119
L 710 119
L 711 119
L 711 119
L 711 119
L 711 119
L 711 119
L 711 119
L 711 119
L 711 119
L 711 119
L 711 119
L 711 119
L 711 119
L 711 119
L 712 119
L 712 119
L 712 119
L 712 119
L 712 119
L 712 118
L 712 118
L 712 118
L 712 118
L 712 118
L 712 118
L 712 118
L 712 118
L 712 118
L 712 118
L 712 118
L 712 118
L 712 118
L 712 118
L 712 118
L 712 118
L 712 118
L 712 118
L 712 118
L 712 118
L 712 118
L 712 117
L 712 117
L 712 117
L 712 117
L 712 117
L 712 117
L 712 117
L 712 117
L 712 117
L 712 117
L 712 117
L 712 117
L 712 117
L 712 117
L 712 117
L 712 117
L 712 117
L 712 117
L 712 117
L 712 117
L 712 117
L 712 117
L 712 116
L 712 116
L 712 116
L 712 116
L 712 116
L 712 116
L 712 116
L 712 116
L 712 116
L 712 116
L 712 116
L 712 116
L 712 116
L 712 116
L 712 116
L 712 116
L 712 116
L 712 116
L 712 116
L 712 116
L 712 116
L 712 115
L 712 115
L 712 115
L 712 115
L 713 115
L 713 115
L 713 115
L 713 115
L 713 115
L 713 115
L 713 115
L 713 115
L 713 115
L 713 115
L 713 115
L 713 115
L 713 115
L 713 115
L 713 115
L 713 115
L 713 115
L 713 115
L 713 114
L 713 114
L 713 114
L 714 114
L 714 114
L 714 114
L 714 114
L 714 114
L 714 114
L 714 114
L 714 114
L 714 114
L 714 114
L 714 114
L 714 114
L 714 114
L 714 114
L 714 114
L 714 114
L 714 114
L 714 114
L 714 113
L 714 113
L 714 113
L 715 113
L 715 113
L 715 113
L 715 113
L 715 113
L 715 113
L 715 113
L 715 113
L 715 113
L 715 113
L 715 113
L 715 113
L 715 113
L 715 113
L 715 113
L 715 113
L 715 113
L 715 113
L 715 113
L 715 112
L 715 112
L 715 112
L 715 112
L 716 112
L 716 112
L 716 112
L 716 112
L 716 112
L 716 112
L 716 112
L 716 112
L 716 112
L 716 112
L 716 112
L 716 112
L 716 112
L 716 112
L 716 112
L 716 112
L 716 112
L 716 111
L 716 111
L 716 111
L 716 111
L 716 111
L 716 111
L 716 111
L 716 111
L 716 111
L 717 111
L 717 111
L 717 111
L 717 111
L 717 111
L 717 111
L 717 111
L 717 111
L 717 111
L 717 111
L 717 111
L 717 111
L 717 110
L 717 110
L 717 110
L 717 110
L 717 110
L 717 110
L 717 110
L 717 110
L 718 110
L 718 110
L 718 110
L 718 110
L 718 110
L 718 110
L 718 110
L 718 110
L 718 110
L 719 110
L 719 110
L 719 110
L 720 110
L 720 110
L 720 109
L 721 109
L 722 109
L 723 109
L 724 109
L 724 109
L 724 109
L 724 109
L 724 109
L 724 109
L 724 109
L 724 109
L 724 109
L 724 109
L 724 109
L 724 109
L 724 109
L 724 109
L 724 109
L 724 109
L 724 109
L 724 108
L 724 108
L 724 108
L 724 108
L 724 108
L 724 108
L 724 108
L 724 108
L 724 108
L 724 108
L 724 108
L 724 108
L 724 108
L 724 108
L 724 108
L 724 108
L 724 108
L 724 108
L 724 108
L 724 108
L 724 108
L 724 108
L 724 107
L 724 107
L 724 107
L 724 107
L 724 107
L 724 107
L 724 107
L 724 107
L 724 107
L 724 107
L 725 107
L 725 107
L 725 107
L 725 107
L 725 107
L 725 107
L 725 107
L 725 107
L 725 107
L 725 107
L 725 107
L 725 106
L 725 106
L 725 106
L 725 106
L 725 106
L 725 106
L 725 106
L 725 106
L 725 106
L 725 106
L 725 106
L 725 106
L 725 106
L 725 106
L 725 106
L 725 106
L 725 106
L 725 106
L 725 106
L 725 106
L 725 106
L 725 106
L 725 105
L 725 105
L 725 105
L 725 105
L 725 105
L 725 105
L 725 105
L 725 105
L 726 105
L 726 105
L 726 105
L 726 105
L 726 105
L 726 105
L 726 105
L 726 105
L 726 105
L 726 105
L 726 105
L 726 105
L 726 105
L 726 104
L 726 104
L 726 104
L 726 104
L 726 104
L 726 104
L 726 104
L 726 104
L 726 104
L 726 104
L 726 104
L 726 104
L 726 104
L 726 104
L 726 104
L 726 104
L 726 104
L 727 104
L 727 104
L 727 104
L 727 104
L 727 104
L 727 103
L 727 103
L 727 103
L 727 103
L 727 103
L 727 103
L 727 103
L 727 103
L 727 103
L 727 103
L 727 103
L 727 103
L 727 103
L 727 103
L 727 103
L 727 103
L 727 103
L 727 103
L 727 103
L 727 103
L 727 103
L 727 102
L 727 102
L 727 102
L 727 102
L 727 102
L 727 102
L 728 102
L 728 102
L 728 102
L 728 102
L 728 102
L 728 102
L 728 102
L 728 102
L 728 102
L 728 102
L 728 102
L 728 102
L 728 102
L 728 102
L 728 102
L 728 102
L 728 101
L 728 101
L 728 101
L 728 101
L 728 101
L 728 101
L 728 101
L 728 101
L 728 101
L 728 101
L 728 101
L 728 101
L 728 101
L 728 101
L 728 101
L 728 101
L 728 101
L 729 101
L 729 101
L 729 101
L 729 101
L 729 100
L 729 100
L 729 100
L 729 100
L 729 100
L 729 100
L 729 100
L 729 100
L 729 100
L 729 100
L 729 100
L 729 100
L 729 100
L 730 100
L 730 100
L 730 100
L 730 100
L 730 100
L 730 100
L 730 100
L 730 100
L 731 100
L 731 99
L 731 99
L 731 99
L 731 99
L 731 99
L 731 99
L 731 99
L 731 99
L 731 99
L 731 99
L 732 99
L 732 99
L 732 99
L 732 99
L 732 99
L 733 99
L 733 99
L 735 99
L 735 99
L 735 99
L 735 99
L 736 98
L 736 98
L 736 98
L 736 98
L 736 98
L 736 98
L 736 98
L 736 98
L 737 98
L 737 98
L 737 98
L 737 98
L 737 98
L 737 98
L 737 98
L 737 98
L 737 98
L 737 98
L 737 98
L 737 98
L 737 98
L 737 98
L 737 97
L 737 97
L 737 97
L 737 97
L 737 97
L 737 97
L 737 97
L 737 97
L 737 97
L 737 97
L 737 97
L 737 97
L 737 97
L 737 97
L 737 97
L 737 97
L 737 97
L 737 97
L 737 97
L 738 97
L 738 97
L 738 96
L 738 96
L 738 96
L 738 96
L 738 96
L 738 96
L 738 96
L 738 96
L 738 96
L 738 96
L 738 96
L 738 96
L 738 96
L 738 96
L 738 96
L 738 96
L 738 96
L 738 96
L 738 96
L 738 96
L 738 96
L 738 96
L 739 95
L 739 95
L 739 95
L 739 95
L 739 95
L 739 95
L 739 95
L 739 95
L 739 95
L 739 95
L 739 95
L 739 95
L 739 95
L 739 95
L 739 95
L 739 95
L 739 95
L 739 95
L 739 95
L 739 95
L 739 95
L 739 94
L 739 94
L 739 94
L 740 94
L 740 94
L 740 94
L 740 94
L 740 94
L 740 94
L 740 94
L 740 94
L 740 94
L 740 94
L 740 94
L 740 94
L 740 94
L 740 94
L 740 94
L 740 94
L 740 94
L 740 94
L 740 93
L 740 93
L 740 93
L 740 93
L 740 93
L 740 93
L 741 93
L 741 93
L 741 93
L 741 93
L 741 93
L 741 93
L 741 93
L 741 93
L 741 93
L 741 93
L 741 93
L 741 93
L 741 93
L 741 93
L 741 93
L 741 93
L 741 92
L 741 92
L 741 92
L 741 92
L 741 92
L 741 92
L 741 92
L 742 92
L 742 92
L 742 92
L 742 92
L 742 92
L 742 92
L 742 92
L 742 92
L 743 92
L 743 92
L 743 92
L 743 92
L 743 92
L 743 92
L 743 91
L 744 91
L 744 91
L 744 91
L 744 91
L 744 91
L 744 91
L 744 91
L 744 91
L 744 91
L 744 91
L 745 91
L 745 91
L 745 91
L 745 91
L 746 91
L 748 91
L 749 91
L 749 91
L 749 91
L 749 91
L 749 91
L 749 90
L 749 90
L 749 90
L 749 90
L 749 90
L 749 90
L 749 90
L 749 90
L 749 90
L 749 90
L 749 90
L 749 90
L 749 90
L 750 90
L 750 90
L 750 90
L 750 90
L 750 90
L 750 90
L 750 90
L 750 90
L 750 89
L 750 89
L 750 89
L 750 89
L 750 89
L 750 89
L 750 89
L 750 89
L 750 89
L 750 89
L 750 89
L 750 89
L 750 89
L 750 89
L 750 89
L 750 89
L 750 89
L 750 89
L 750 89
L 751 89
L 751 89
L 751 89
L 751 88
L 751 88
L 751 88
L 751 88
L 751 88
L 751 88
L 751 88
L 752 88
L 752 88
L 752 88
L 752 88
L 752 88
L 752 88
L 752 88
L 752 88
L 752 88
L 752 88
L 752 88
L 752 88
L 752 88
L 752 88
L 752 87
L 752 87
L 752 87
L 752 87
L 752 87
L 753 87
L 753 87
L 753 87
L 753 87
L 753 87
L 753 87
L 753 87
L 753 87
L 753 87
L 753 87
L 753 87
L 753 87
L 753 87
L 753 87
L 753 87
L 753 87
L 753 87
L 753 86
L 753 86
L 753 86
L 753 86
L 754 86
L 754 86
L 754 86
L 754 86
L 754 86
L 754 86
L 754 86
L 754 86
L 754 86
L 754 86
L 754 86
L 754 86
L 754 86
L 754 86
L 754 86
L 754 86
L 755 86
L 755 85
L 755 85
L 755 85
L 755 85
L 755 85
L 755 85
L 755 85
L 756 85
L 756 85
L 756 85
L 756 85
L 756 85
L 757 85
L 757 85
L 757 85
L 757 85
L 757 85
L 760 85
L 762 85
L 762 85
L 762 85
L 762 85
L 763 84
L 763 84
L 763 84
L 763 84
L 764 84
L 764 84
L 764 84
L 764 84
L 765 84
L 765 84
L 765 84
L 765 84
L 765 84
L 765 84
L 765 84
L 765 84
L 765 84
L 766 84
L 766 84
L 766 84
L 766 84
L 767 83
L 767 83
L 768 83
L 768 83
L 768 83
L 768 83
L 768 83
L 768 83
L 768 83
L 768 83
L 768 83
L 768 83
L 768 83
L 768 83
L 768 83
L 769 83
L 769 83
L 769 83
L 769 83
L 769 83
L 769 83
L 769 83
L 769 82
L 769 82
L 769 82
L 769 82
L 769 82
L 770 82
L 770 82
L 770 82
L 770 82
L 770 82
L 770 82
L 770 82
L 770 82
L 770 82
L 771 82
L 771 82
L 771 82
L 771 82
L 772 82
L 774 82
L 774 82
L 775 81
L 775 81
L 775 81
L 775 81
L 775 81
L 776 81
L 776 81
L 776 81
L 776 81
L 776 81
L 776 81
L 776 81
L 777 81
L 777 81
L 777 81
L 777 81
L 777 81
L 777 81
L 778 81
L 778 81
L 778 81
L 779 81
L 780 80
L 780 80
L 781 80
L 781 80
L 781 80
L 781 80
L 781 80
L 781 80
L 781 80
L 781 80
L 781 80
L 781 80
L 782 80
L 782 80
L 782 80
L 782 80
L 782 80
L 782 80
L 782 80
L 782 80
L 782 80
L 782 79
L 783 79
L 783 79
L 786 79
L 786 79
L 787 79
L 787 79
L 787 79
L 787 79
L 787 79
L 787 79
L 787 79
L 787 79
L 787 79
L 787 79
L 788 79
L 788 79
L 788 79
L 788 79
L 788 79
L 788 79
L 788 79
L 788 78
L 788 78
L 788 78
L 788 78
L 788 78
L 788 78
L 788 78
L 788 78
L 788 78
L 788 78
L 788 78
L 788 78
L 788 78
L 788 78
L 788 78
L 788 78
L 789 78
L 789 78
L 789 78
L 789 78
L 789 78
L 789 77
L 789 77
L 789 77
L 789 77
L 789 77
L 789 77
L 789 77
L 789 77
L 789 77
L 790 77
L 790 77
L 790 77
L 790 77
L 790 77
L 790 77
L 790 77
L 790 77
L 790 77
L 790 77
L 790 77
L 790 77
L 790 76
L 790 76
L 790 76
L 790 76
L 790 76
L 790 76
L 790 76
L 790 76
L 791 76
L 791 76
L 791 76
L 791 76
L 791 76
L 791 76
L 791 76
L 791 76
L 791 76
L 791 76
L 791 76
L 791 76
L 791 76
L 791 76
L 791 75
L 791 75
L 791 75
L 791 75
L 791 75
L 791 75
L 791 75
L 791 75
L 791 75
L 791 75
L 791 75
L 792 75
L 792 75
L 792 75
L 792 75
L 792 75
L 792 75
L 792 75
L 792 75
L 792 75
L 792 75
L 792 74
L 792 74
L 792 74
L 792 74
L 792 74
L 793 74
L 793 74
L 793 74
L 793 74
L 793 74
L 793 74
L 793 74
L 793 74
L 794 74
L 794 74
L 794 74
L 794 74
L 794 74
L 794 74
L 794 74
L 794 74
L 794 74
L 794 73
L 795 73
L 795 73
L 795 73
L 795 73
L 795 73
L 795 73
L 796 73
L 798 73
L 799 73
L 800 73
L 800 73
L 800 73
L 800 73
L 800 73
L 800 73
L 800 73
L 800 73
L 800 73
L 800 73
L 800 73
L 800 72
L 800 72
L 800 72
L 801 72
L 801 72
L 801 72
L 801 72
L 801 72
L 801 72
L 801 72
L 801 72
L 801 72
L 801 72
L 801 72
L 801 72
L 801 72
L 801 72
L 801 72
L 801 72
L 801 72
L 801 72
L 801 72
L 802 71
L 802 71
L 802 71
L 802 71
L 802 71
L 802 71
L 802 71
L 802 71
L 802 71
L 802 71
L 802 71
L 802 71
L 802 71
L 802 71
L 803 71
L 803 71
L 803 71
L 803 71
L 803 71
L 803 71
L 803 71
L 803 70
L 803 70
L 803 70
L 803 70
L 803 70
L 803 70
L 803 70
L 803 70
L 803 70
L 803 70
L 803 70
L 803 70
L 803 70
L 803 70
L 803 70
L 804 70
L 804 70
L 804 70
L 804 70
L 804 70
L 804 70
L 804 70
L 804 69
L 804 69
L 804 69
L 804 69
L 804 69
L 804 69
L 804 69
L 804 69
L 804 69
L 804 69
L 804 69
L 804 69
L 804 69
L 805 69
L 805 69
L 805 69
L 805 69
L 805 69
L 805 69
L 805 69
L 805 69
L 805 68
L 805 68
L 805 68
L 805 68
L 805 68
L 805 68
L 805 68
L 805 68
L 805 68
L 805 68
L 806 68
L 806 68
L 806 68
L 806 68
L 806 68
L 806 68
L 806 68
L 806 68
L 806 68
L 806 68
L 806 68
L 806 68
L 806 67
L 806 67
L 806 67
L 806 67
L 807 67
L 807 67
L 807 67
L 807 67
L 807 67
L 807 67
L 807 67
L 807 67
L 807 67
L 807 67
L 807 67
L 807 67
L 807 67
L 807 67
L 807 67
L 808 67
L 808 67
L 808 66
L 808 66
L 808 66
L 808 66
L 808 66
L 808 66
L 808 66
L 808 66
L 808 66
L 809 66
L 809 66
L 809 66
L 809 66
L 809 66
L 810 66
L 810 66
L 811 66
L 812 66
L 812 66
L 813 66
L 813 66
L 813 66
L 813 65
L 813 65
L 813 65
L 813 65
L 813 65
L 813 65
L 813 65
L 813 65
L 813 65
L 813 65
L 813 65
L 813 65
L 813 65
L 813 65
L 813 65
L 813 65
L 813 65
L 813 65
L 813 65
L 813 65
L 813 65
L 813 64
L 813 64
L 813 64
L 813 64
L 813 64
L 813 64
L 813 64
L 813 64
L 813 64
L 813 64
L 813 64
L 814 64
L 814 64
L 814 64
L 814 64
L 814 64
L 814 64
L 814 64
L 814 64
L 814 64
L 814 64
L 814 64
L 814 63
L 814 63
L 814 63
L 814 63
L 814 63
L 814 63
L 815 63
L 815 63
L 815 63
L 815 63
L 815 63
L 815 63
L 815 63
L 815 63
L 815 63
L 815 63
L 815 63
L 815 63
L 815 63
L 815 63
L 815 63
L 815 62
L 815 62
L 815 62
L 815 62
L 815 62
L 815 62
L 815 62
L 815 62
L 815 62
L 815 62
L 815 62
L 815 62
L 815 62
L 815 62
L 815 62
L 816 62
L 816 62
L 816 62
L 816 62
L 816 62
L 816 62
L 816 62
L 816 61
L 816 61
L 816 61
L 816 61
L 816 61
L 816 61
L 816 61
L 816 61
L 816 61
L 816 61
L 816 61
L 816 61
L 816 61
L 816 61
L 816 61
L 816 61
L 816 61
L 816 61
L 816 61
L 816 61
L 816 61
L 817 60
L 817 60
L 817 60
L 817 60
L 817 60
L 817 60
L 817 60
L 817 60
L 817 60
L 817 60
L 817 60
L 817 60
L 817 60
L 817 60
L 817 60
L 817 60
L 817 60
L 817 60
L 817 60
L 817 60
L 817 60
L 817 59
L 817 59
L 817 59
L 817 59
L 817 59
L 817 59
L 817 59
L 817 59
L 817 59
L 817 59
L 817 59
L 817 59
L 817 59
L 817 59
L 817 59
L 818 59
L 818 59
L 818 59
L 818 59
L 818 59
L 818 59
L 818 59
L 818 58
L 818 58
L 818 58
L 818 58
L 818 58
L 818 58
L 818 58
L 818 58
L 818 58
L 818 58
L 818 58
L 818 58
L 818 58
L 819 58
L 819 58
L 819 58
L 819 58
L 819 58
L 819 58
L 819 58
L 819 58
L 819 57
L 819 57
L 819 57
L 820 57
L 820 57
L 820 57
L 820 57
L 820 57
L 820 57
L 821 57
L 821 57
L 821 57
L 821 57
L 821 57
L 821 57
L 821 57
L 821 57
L 822 57
L 822 57
L 823 57
L 825 57
L 825 57
L 825 56
L 825 56
L 825 56
L 825 56
L 825 56
L 825 56
L 825 56
L 826 56
L 826 56
L 826 56
L 826 56
L 826 56
L 826 56
L 826 56
L 826 56
L 826 56
L 826 56
L 826 56
L 826 56
L 826 56
L 826 56
L 826 55
L 826 55
L 826 55
L 826 55
L 826 55
L 826 55
L 826 55
L 826 55
L 826 55
L 827 55
L 827 55
L 827 55
L 827 55
L 827 55
L 827 55
L 827 55
L 827 55
L 827 55
L 827 55
L 827 55
L 827 55
L 827 55
L 827 54
L 827 54
L 827 54
L 827 54
L 827 54
L 827 54
L 827 54
L 827 54
L 827 54
L 827 54
L 827 54
L 828 54
L 828 54
L 828 54
L 828 54
L 828 54
L 828 54
L 828 54
L 828 54
L 828 54
L 828 54
L 828 53
L 828 53
L 828 53
L 828 53
L 828 53
L 828 53
L 828 53
L 828 53
L 828 53
L 828 53
L 828 53
L 829 53
L 829 53
L 829 53
L 829 53
L 829 53
L 829 53
L 829 53
L 829 53
L 829 53
L 829 53
L 829 53
L 829 52
L 829 52
L 829 52
L 829 52
L 829 52
L 829 52
L 829 52
L 829 52
L 829 52
L 830 52
L 830 52
L 830 52
L 830 52
L 830 52
L 830 52
L 830 52
L 830 52
L 830 52
L 830 52
L 830 52
L 830 52
L 830 51
L 830 51
L 830 51
L 830 51
L 830 51
L 830 51
L 830 51
L 830 51
L 830 51
L 830 51
L 830 51
L 830 51
L 830 51
L 830 51
L 830 51
L 831 51
L 831 51
L 831 51
L 831 51
L 831 51
L 832 51
L 832 51
L 832 50
L 832 50
L 833 50
L 833 50
L 833 50
L 833 50
L 833 50
L 833 50
L 833 50
L 834 50
L 834 50
L 834 50
L 834 50
L 834 50
L 835 50
L 835 50
L 836 50
L 837 50
L 838 50
L 838 50
L 838 50
L 838 49
L 838 49
L 838 49
L 838 49
L 838 49
L 838 49
L 839 49
L 839 49
L 839 49
L 839 49
L 839 49
L 839 49
L 839 49
L 839 49
L 839 49
L 839 49
L 839 49
L 839 49
L 839 49
L 839 49
L 839 49
L 839 49
L 839 48
L 839 48
L 839 48
L 839 48
L 839 48
L 839 48
L 839 48
L 840 48
L 840 48
L 840 48
L 840 48
L 840 48
L 840 48
L 840 48
L 840 48
L 841 48
L 841 48
L 841 48
L 841 48
L 841 48
L 841 48
L 841 47
L 841 47
L 841 47
L 841 47
L 841 47
L 841 47
L 841 47
L 841 47
L 841 47
L 841 47
L 842 47
L 842 47
L 842 47
L 842 47
L 842 47
L 842 47
L 842 47
L 842 47
L 842 47
L 842 47
L 842 47
L 842 47
L 842 46
L 842 46
L 842 46
L 842 46
L 842 46
L 842 46
L 842 46
L 842 46
L 842 46
L 843 46
L 843 46
L 843 46
L 843 46
L 843 46
L 843 46
L 843 46
L 843 46
L 843 46
L 843 46
L 843 46
L 843 46
L 843 45
L 843 45
L 843 45
L 843 45
L 843 45
L 843 45
L 843 45
L 843 45
L 843 45
L 843 45
L 843 45
L 844 45
L 844 45
L 844 45
L 844 45
L 844 45
L 844 45
L 844 45
L 844 45
L 845 45
L 845 45
L 845 45
L 845 44
L 845 44
L 846 44
L 846 44
L 846 44
L 847 44
L 847 44
L 850 44
L 851 44
L 851 44
L 851 44
L 852 44
L 852 44
L 852 44
L 852 44
L 852 44
L 852 44
L 852 44
L 852 44
L 852 44
L 852 44
L 853 43
L 853 43
L 854 43
L 854 43
L 854 43
L 855 43
L 855 43
L 855 43
L 856 43
L 856 43
L 856 43
L 856 43
L 856 43
L 856 43
L 857 43
L 857 43
L 857 43
L 858 43
L 858 43
L 858 43
L 859 43
L 859 42
L 859 42
L 859 42
L 859 42
L 860 42
L 860 42
L 860 42
L 861 42
L 864 42
L 864 42
L 864 42
L 864 42
L 865 42
L 865 42
L 865 42
L 865 42
L 865 42
L 865 42
L 865 42
L 865 42
L 865 42
L 865 42
L 867 41
L 867 41
L 867 41
L 867 41
L 867 41
L 867 41
L 868 41
L 868 41
L 868 41
L 868 41
L 868 41
L 868 41
L 868 41
L 869 41
L 869 41
L 869 41
L 870 41
L 870 41
L 870 41
L 870 41
L 870 41
L 870 40
L 871 40
L 871 40
L 872 40
L 872 40
L 872 40
L 873 40
L 875 40
L 876 40
L 876 40
L 877 40
L 877 40
L 877 40
L 877 40
L 877 40
L 877 40
L 877 40
L 877 40
L 877 40
L 877 40
L 877 40
L 877 40
L 878 39
L 878 39
L 878 39
L 878 39
L 878 39
L 878 39
L 878 39
L 878 39
L 878 39
L 878 39
L 879 39
L 879 39
L 879 39
L 879 39
L 879 39
L 879 39
L 879 39
L 879 39
L 879 39
L 879 39
L 879 39
L 880 38
L 880 38
L 880 38
L 880 38
L 880 38
L 880 38
L 880 38
L 880 38
L 880 38
L 880 38
L 880 38
L 880 38
L 880 38
L 880 38
L 880 38
L 880 38
L 880 38
L 880 38
L 881 38
L 881 38
L 881 38
L 881 38
L 881 37
L 881 37
L 881 37
L 881 37
L 881 37
L 881 37
L 881 37
L 881 37
L 881 37
L 881 37
L 881 37
L 882 37
L 882 37
L 882 37
L 882 37
L 882 37
L 882 37
L 882 37
L 882 37
L 883 37
L 883 37
L 883 36
L 883 36
L 883 36
L 883 36
L 883 36
L 884 36
L 884 36
L 884 36
L 884 36
L 884 36
L 885 36
L 885 36
L 885 36
L 886 36
L 886 36
L 887 36
L 888 36
L 889 36
L 889 36
L 889 36
L 889 36
L 889 36
L 889 35
L 890 35
L 890 35
L 890 35
L 890 35
L 890 35
L 890 35
L 890 35
L 890 35
L 890 35
L 890 35
L 890 35
L 890 35
L 890 35
L 890 35
L 890 35
L 890 35
L 890 35
L 890 35
L 891 35
L 891 35
L 891 34
L 891 34
L 891 34
L 891 34
L 891 34
L 891 34
L 891 34
L 892 34
L 892 34
L 892 34
L 892 34
L 892 34
L 892 34
L 892 34
L 892 34
L 892 34
L 892 34
L 892 34
L 892 34
L 893 34
L 893 34
L 893 34
L 893 33
L 893 33
L 893 33
L 893 33
L 893 33
L 893 33
L 893 33
L 893 33
L 893 33
L 893 33
L 893 33
L 893 33
L 894 33
L 894 33
L 894 33
L 894 33
L 894 33
L 894 33
L 894 33
L 894 33
L 895 33
L 895 32
L 896 32
L 896 32
L 896 32
L 896 32
L 896 32
L 896 32
L 897 32
L 897 32
L 897 32
L 897 32
L 900 32
L 902 32
L 902 32
L 902 32
L 902 32
L 902 32
L 902 32
L 902 32
L 902 32
L 902 32
L 903 32
L 903 31
L 903 31
L 903 31
L 903 31
L 903 31
L 903 31
L 904 31
L 904 31
L 904 31
L 905 31
L 905 31
L 905 31
L 905 31
L 905 31
L 905 31
L 905 31
L 905 31
L 905 31
L 905 31
L 905 31
L 906 31
L 906 30
L 906 30
L 906 30
L 906 30
L 906 30
L 906 30
L 906 30
L 906 30
L 906 30
L 906 30
L 906 30
L 906 30
L 906 30
L 906 30
L 907 30
L 907 30
L 907 30
L 907 30
L 907 30
L 908 30
L 908 30
L 908 30
L 908 29
L 909 29
L 909 29
L 909 29
L 910 29
L 910 29
L 910 29
L 911 29
L 912 29
L 915 29
L 915 29
L 915 29
L 915 29
L 916 29
L 916 29
L 916 29
L 916 29
L 916 29
L 916 29
L 916 29
L 916 29
L 916 28
L 916 28
L 916 28
L 916 28
L 916 28
L 916 28
L 917 28
L 917 28
L 917 28
L 917 28
L 917 28
L 917 28
L 918 28
L 918 28
L 918 28
L 918 28
L 918 28
L 918 28
L 918 28
L 918 28
L 918 28
L 918 28
L 918 27
L 918 27
L 918 27
L 919 27
L 919 27
L 919 27
L 919 27
L 919 27
L 919 27
L 919 27
L 919 27
L 919 27
L 920 27
L 920 27
L 920 27
L 921 27
L 922 27
L 922 27
L 923 27
L 924 27
L 926 27
L 927 26
L 927 26
L 928 26
L 928 26
L 928 26
L 928 26
L 928 26
L 928 26
L 928 26
L 928 26
L 928 26
L 928 26
L 928 26
L 928 26
L 928 26
L 928 26
L 928 26
L 928 26
L 929 26
L 929 26
L 929 26
L 929 25
L 929 25
L 929 25
L 929 25
L 929 25
L 929 25
L 929 25
L 929 25
L 929 25
L 929 25
L 929 25
L 929 25
L 929 25
L 929 25
L 929 25
L 929 25
L 929 25
L 929 25
L 929 25
L 929 25
L 929 25
L 929 25
L 929 24
L 929 24
L 929 24
L 929 24
L 929 24
L 929 24
L 929 24
L 929 24
L 930 24
L 930 24
L 930 24
L 930 24
L 930 24
L 930 24
L 930 24
L 930 24
L 930 24
L 930 24
L 930 24
L 930 24
L 930 24
L 930 23
L 930 23
L 930 23
L 930 23
L 930 23
L 930 23
L 930 23
L 930 23
L 930 23
L 930 23
L 930 23
L 930 23
L 930 23
L 930 23
L 930 23
L 930 23
L 930 23
L 930 23
L 930 23
L 930 23
L 930 23
L 930 23
L 930 22
L 930 22
L 930 22
L 931 22
L 931 22
L 931 22
L 931 22
L 931 22
L 931 22
L 931 22
L 931 22
L 931 22
L 931 22
L 931 22
L 931 22
L 931 22
L 931 22
L 931 22
L 931 22
L 931 22
L 931 22
L 931 21
L 931 21
L 931 21
L 931 21
L 931 21
L 931 21
L 931 21
L 931 21
L 931 21
L 931 21
L 931 21
L 932 21
L 932 21
L 932 21
L 932 21
L 932 21
L 932 21
L 932 21
L 932 21
L 932 21
L 932 21
L 932 21
L 932 20
L 932 20
L 932 20
L 932 20
L 932 20
L 932 20
L 932 20
L 932 20
L 932 20
L 932 20
L 932 20
L 932 20
L 932 20
L 932 20
L 932 20
L 932 20
L 932 20
L 933 20
L 933 20
L 933 20
L 933 20
L 933 19
L 933 19
L 933 19
L 933 19
L 933 19
L 933 19
L 933 19
L 933 19
L 933 19
L 934 19
L 934 19
L 934 19
L 934 19
L 934 19
L 934 19
L 934 19
L 934 19
L 934 19
L 934 19
L 934 19
L 934 19
L 935 19
L 935 18
L 935 18
L 935 18
L 935 18
L 935 18
L 935 18
L 935 18
L 935 18
L 935 18
L 935 18
L 935 18
L 935 18
L 936 18
L 936 18
L 936 18
L 936 18
L 936 18
L 937 18
L 938 18
L 938 18
L 938 18
L 938 17
L 939 17
L 939 17
L 940 17
L 940 17
L 940 17
L 940 17
L 940 17
L 940 17
L 940 17
L 940 17
L 940 17
L 940 17
L 940 17
L 940 17
L 940 17
L 940 17
L 940 17
L 940 17
L 940 17
L 941 17
L 941 17
L 941 16
L 941 16
L 941 16
L 941 16
L 941 16
L 941 16
L 941 16
L 941 16
L 941 16
L 941 16
L 941 16
L 941 16
L 941 16
L 941 16
L 941 16
L 941 16
L 941 16
L 941 16
L 941 16
L 941 16
L 942 16
L 942 15
L 942 15
L 942 15
L 942 15
L 942 15
L 942 15
L 942 15
L 942 15
L 943 15
L 943 15
L 943 15
L 943 15
L 943 15
L 943 15
L 943 15
L 943 15
L 943 15
L 943 15
L 943 15
L 943 15
L 943 15
L 943 15
L 943 14
L 943 14
L 943 14
L 943 14
L 943 14
L 943 14
L 943 14
L 943 14
L 943 14
L 943 14
L 943 14
L 943 14
L 943 14
L 943 14
L 943 14
L 944 14
L 944 14
L 944 14
L 944 14
L 944 14
L 944 14
L 944 13
L 944 13
L 944 13
L 944 13
L 944 13
L 944 13
L 945 13
L 945 13
L 945 13
L 946 13
L 946 13
L 946 13
L 946 13
L 946 13
L 947 13
L 947 13
L 947 13
L 947 13
L 947 13
L 947 13
L 947 13
L 948 13
L 948 12
L 948 12
L 948 12
L 948 12
L 948 12
L 949 12
L 950 12
L 953 12
L 953 12
L 953 12
L 954 12
L 954 12
L 954 12
L 954 12
L 954 12
L 954 12
L 954 12
L 954 12
L 955 12
L 955 12
L 955 12
L 955 11
L 955 11
L 955 11
L 955 11
L 956 11
L 956 11
L 956 11
L 956 11
L 956 11
L 956 11
L 956 11
L 956 11
L 956 11
L 957 11
L 957 11
L 957 11
L 957 11
L 957 11
L 957 11
L 957 11
L 957 11" style="stroke-width:2;stroke:rgba(129,199,239,1.0);fill:none"/></svg>